<?xml version="1.0" encoding="utf-8"?>
<!-- Generator: Adobe Illustrator 16.0.0, SVG Export Plug-In . SVG Version: 6.00 Build 0)  -->
<!DOCTYPE svg PUBLIC "-//W3C//DTD SVG 1.1//EN" "http://www.w3.org/Graphics/SVG/1.1/DTD/svg11.dtd">
<svg version="1.1" id="Layer_1" xmlns="http://www.w3.org/2000/svg" xmlns:xlink="http://www.w3.org/1999/xlink" x="0px" y="0px"
	 width="500px" height="500px" viewBox="-249.5 250.5 500 500" enable-background="new -249.5 250.5 500 500" xml:space="preserve">
<g>
	<line fill="none" stroke="#FFFFFF" stroke-width="5" stroke-miterlimit="10" x1="-491.4" y1="250.4" x2="-499.5" y2="250.4"/>
	<line fill="none" stroke="#FFFFFF" stroke-width="5" stroke-miterlimit="10" x1="-491.4" y1="106.7" x2="-499.5" y2="106.7"/>
	<line fill="none" stroke="#FFFFFF" stroke-width="5" stroke-miterlimit="10" x1="-491.4" y1="155.1" x2="-499.5" y2="155.1"/>
	<line fill="none" stroke="#FFFFFF" stroke-width="5" stroke-miterlimit="10" x1="-491.4" y1="204.6" x2="-499.5" y2="204.6"/>
	<line fill="none" stroke="#FFFFFF" stroke-width="5" stroke-miterlimit="10" x1="-491.4" y1="58.4" x2="-499.5" y2="58.4"/>
	<line fill="none" stroke="#FFFFFF" stroke-width="5" stroke-miterlimit="10" x1="-491.4" y1="10" x2="-499.5" y2="10"/>
	<line fill="none" stroke="#FFFFFF" stroke-width="5" stroke-miterlimit="10" x1="-491.4" y1="392.9" x2="-499.5" y2="392.9"/>
	<line fill="none" stroke="#FFFFFF" stroke-width="5" stroke-miterlimit="10" x1="-491.4" y1="441.3" x2="-499.5" y2="441.3"/>
	<line fill="none" stroke="#FFFFFF" stroke-width="5" stroke-miterlimit="10" x1="-491.4" y1="490.8" x2="-499.5" y2="490.8"/>
	<line fill="none" stroke="#FFFFFF" stroke-width="5" stroke-miterlimit="10" x1="-491.4" y1="344.5" x2="-499.5" y2="344.5"/>
	<line fill="none" stroke="#FFFFFF" stroke-width="5" stroke-miterlimit="10" x1="-491.4" y1="296.2" x2="-499.5" y2="296.2"/>
	<line fill="none" stroke="#FFFFFF" stroke-width="2" stroke-miterlimit="10" x1="-491.4" y1="260.1" x2="-496.3" y2="260.1"/>
	<line fill="none" stroke="#FFFFFF" stroke-width="2" stroke-miterlimit="10" x1="-491.4" y1="116.4" x2="-496.3" y2="116.4"/>
	<line fill="none" stroke="#FFFFFF" stroke-width="2" stroke-miterlimit="10" x1="-491.4" y1="164.8" x2="-496.3" y2="164.8"/>
	<line fill="none" stroke="#FFFFFF" stroke-width="2" stroke-miterlimit="10" x1="-491.4" y1="214.3" x2="-496.3" y2="214.3"/>
	<line fill="none" stroke="#FFFFFF" stroke-width="2" stroke-miterlimit="10" x1="-491.4" y1="68.1" x2="-496.3" y2="68.1"/>
	<line fill="none" stroke="#FFFFFF" stroke-width="2" stroke-miterlimit="10" x1="-491.4" y1="19.7" x2="-496.3" y2="19.7"/>
	<line fill="none" stroke="#FFFFFF" stroke-width="2" stroke-miterlimit="10" x1="-491.4" y1="402.6" x2="-496.3" y2="402.6"/>
	<line fill="none" stroke="#FFFFFF" stroke-width="2" stroke-miterlimit="10" x1="-491.4" y1="451" x2="-496.3" y2="451"/>
	<line fill="none" stroke="#FFFFFF" stroke-width="2" stroke-miterlimit="10" x1="-491.4" y1="354.2" x2="-496.3" y2="354.2"/>
	<line fill="none" stroke="#FFFFFF" stroke-width="2" stroke-miterlimit="10" x1="-491.4" y1="305.9" x2="-496.3" y2="305.9"/>
	<line fill="none" stroke="#FFFFFF" stroke-width="2" stroke-miterlimit="10" x1="-491.4" y1="269.7" x2="-496.3" y2="269.7"/>
	<line fill="none" stroke="#FFFFFF" stroke-width="2" stroke-miterlimit="10" x1="-491.4" y1="126.1" x2="-496.3" y2="126.1"/>
	<line fill="none" stroke="#FFFFFF" stroke-width="2" stroke-miterlimit="10" x1="-491.4" y1="174.5" x2="-496.3" y2="174.5"/>
	<line fill="none" stroke="#FFFFFF" stroke-width="2" stroke-miterlimit="10" x1="-491.4" y1="224" x2="-496.3" y2="224"/>
	<line fill="none" stroke="#FFFFFF" stroke-width="2" stroke-miterlimit="10" x1="-491.4" y1="77.7" x2="-496.3" y2="77.7"/>
	<line fill="none" stroke="#FFFFFF" stroke-width="2" stroke-miterlimit="10" x1="-491.4" y1="29.4" x2="-496.3" y2="29.4"/>
	<line fill="none" stroke="#FFFFFF" stroke-width="2" stroke-miterlimit="10" x1="-491.4" y1="412.3" x2="-496.3" y2="412.3"/>
	<line fill="none" stroke="#FFFFFF" stroke-width="2" stroke-miterlimit="10" x1="-491.4" y1="460.6" x2="-496.3" y2="460.6"/>
	<line fill="none" stroke="#FFFFFF" stroke-width="2" stroke-miterlimit="10" x1="-491.4" y1="363.9" x2="-496.3" y2="363.9"/>
	<line fill="none" stroke="#FFFFFF" stroke-width="2" stroke-miterlimit="10" x1="-491.4" y1="315.5" x2="-496.3" y2="315.5"/>
	<line fill="none" stroke="#FFFFFF" stroke-width="2" stroke-miterlimit="10" x1="-491.4" y1="279.4" x2="-496.3" y2="279.4"/>
	<line fill="none" stroke="#FFFFFF" stroke-width="2" stroke-miterlimit="10" x1="-491.4" y1="135.8" x2="-496.3" y2="135.8"/>
	<line fill="none" stroke="#FFFFFF" stroke-width="2" stroke-miterlimit="10" x1="-491.4" y1="184.1" x2="-496.3" y2="184.1"/>
	<line fill="none" stroke="#FFFFFF" stroke-width="2" stroke-miterlimit="10" x1="-491.4" y1="233.6" x2="-496.3" y2="233.6"/>
	<line fill="none" stroke="#FFFFFF" stroke-width="2" stroke-miterlimit="10" x1="-491.4" y1="87.4" x2="-496.3" y2="87.4"/>
	<line fill="none" stroke="#FFFFFF" stroke-width="2" stroke-miterlimit="10" x1="-491.4" y1="39" x2="-496.3" y2="39"/>
	<line fill="none" stroke="#FFFFFF" stroke-width="2" stroke-miterlimit="10" x1="-491.4" y1="421.9" x2="-496.3" y2="421.9"/>
	<line fill="none" stroke="#FFFFFF" stroke-width="2" stroke-miterlimit="10" x1="-491.4" y1="470.3" x2="-496.3" y2="470.3"/>
	<line fill="none" stroke="#FFFFFF" stroke-width="2" stroke-miterlimit="10" x1="-491.4" y1="373.6" x2="-496.3" y2="373.6"/>
	<line fill="none" stroke="#FFFFFF" stroke-width="2" stroke-miterlimit="10" x1="-491.4" y1="325.2" x2="-496.3" y2="325.2"/>
	<line fill="none" stroke="#FFFFFF" stroke-width="2" stroke-miterlimit="10" x1="-491.4" y1="289.1" x2="-496.3" y2="289.1"/>
	<line fill="none" stroke="#FFFFFF" stroke-width="2" stroke-miterlimit="10" x1="-491.4" y1="145.4" x2="-496.3" y2="145.4"/>
	<line fill="none" stroke="#FFFFFF" stroke-width="2" stroke-miterlimit="10" x1="-491.4" y1="193.8" x2="-496.3" y2="193.8"/>
	<line fill="none" stroke="#FFFFFF" stroke-width="2" stroke-miterlimit="10" x1="-491.4" y1="243.3" x2="-496.3" y2="243.3"/>
	<line fill="none" stroke="#FFFFFF" stroke-width="2" stroke-miterlimit="10" x1="-491.4" y1="97.1" x2="-496.3" y2="97.1"/>
	<line fill="none" stroke="#FFFFFF" stroke-width="2" stroke-miterlimit="10" x1="-491.4" y1="48.7" x2="-496.3" y2="48.7"/>
	<line fill="none" stroke="#FFFFFF" stroke-width="2" stroke-miterlimit="10" x1="-491.4" y1="431.6" x2="-496.3" y2="431.6"/>
	<line fill="none" stroke="#FFFFFF" stroke-width="2" stroke-miterlimit="10" x1="-491.4" y1="480" x2="-496.3" y2="480"/>
	<line fill="none" stroke="#FFFFFF" stroke-width="2" stroke-miterlimit="10" x1="-491.4" y1="383.2" x2="-496.3" y2="383.2"/>
	<line fill="none" stroke="#FFFFFF" stroke-width="2" stroke-miterlimit="10" x1="-491.4" y1="334.9" x2="-496.3" y2="334.9"/>
	<line fill="none" stroke="#FFFFFF" stroke-width="5" stroke-miterlimit="10" x1="-7.6" y1="250.4" x2="0.5" y2="250.4"/>
	<line fill="none" stroke="#FFFFFF" stroke-width="5" stroke-miterlimit="10" x1="-7.6" y1="394" x2="0.5" y2="394"/>
	<line fill="none" stroke="#FFFFFF" stroke-width="5" stroke-miterlimit="10" x1="-7.6" y1="345.7" x2="0.5" y2="345.7"/>
	<line fill="none" stroke="#FFFFFF" stroke-width="5" stroke-miterlimit="10" x1="-7.6" y1="296.2" x2="0.5" y2="296.2"/>
	<line fill="none" stroke="#FFFFFF" stroke-width="5" stroke-miterlimit="10" x1="-7.6" y1="442.4" x2="0.5" y2="442.4"/>
	<line fill="none" stroke="#FFFFFF" stroke-width="5" stroke-miterlimit="10" x1="-7.6" y1="490.8" x2="0.5" y2="490.8"/>
	<line fill="none" stroke="#FFFFFF" stroke-width="5" stroke-miterlimit="10" x1="-7.6" y1="107.9" x2="0.5" y2="107.9"/>
	<line fill="none" stroke="#FFFFFF" stroke-width="5" stroke-miterlimit="10" x1="-7.6" y1="59.5" x2="0.5" y2="59.5"/>
	<line fill="none" stroke="#FFFFFF" stroke-width="5" stroke-miterlimit="10" x1="-7.6" y1="10" x2="0.5" y2="10"/>
	<line fill="none" stroke="#FFFFFF" stroke-width="5" stroke-miterlimit="10" x1="-7.6" y1="156.2" x2="0.5" y2="156.2"/>
	<line fill="none" stroke="#FFFFFF" stroke-width="5" stroke-miterlimit="10" x1="-7.6" y1="204.6" x2="0.5" y2="204.6"/>
	<line fill="none" stroke="#FFFFFF" stroke-width="2" stroke-miterlimit="10" x1="-7.6" y1="240.7" x2="-2.7" y2="240.7"/>
	<line fill="none" stroke="#FFFFFF" stroke-width="2" stroke-miterlimit="10" x1="-7.6" y1="384.4" x2="-2.7" y2="384.4"/>
	<line fill="none" stroke="#FFFFFF" stroke-width="2" stroke-miterlimit="10" x1="-7.6" y1="336" x2="-2.7" y2="336"/>
	<line fill="none" stroke="#FFFFFF" stroke-width="2" stroke-miterlimit="10" x1="-7.6" y1="286.5" x2="-2.7" y2="286.5"/>
	<line fill="none" stroke="#FFFFFF" stroke-width="2" stroke-miterlimit="10" x1="-7.6" y1="432.7" x2="-2.7" y2="432.7"/>
	<line fill="none" stroke="#FFFFFF" stroke-width="2" stroke-miterlimit="10" x1="-7.6" y1="481.1" x2="-2.7" y2="481.1"/>
	<line fill="none" stroke="#FFFFFF" stroke-width="2" stroke-miterlimit="10" x1="-7.6" y1="98.2" x2="-2.7" y2="98.2"/>
	<line fill="none" stroke="#FFFFFF" stroke-width="2" stroke-miterlimit="10" x1="-7.6" y1="49.8" x2="-2.7" y2="49.8"/>
	<line fill="none" stroke="#FFFFFF" stroke-width="2" stroke-miterlimit="10" x1="-7.6" y1="146.6" x2="-2.7" y2="146.6"/>
	<line fill="none" stroke="#FFFFFF" stroke-width="2" stroke-miterlimit="10" x1="-7.6" y1="194.9" x2="-2.7" y2="194.9"/>
	<line fill="none" stroke="#FFFFFF" stroke-width="2" stroke-miterlimit="10" x1="-7.6" y1="231" x2="-2.7" y2="231"/>
	<line fill="none" stroke="#FFFFFF" stroke-width="2" stroke-miterlimit="10" x1="-7.6" y1="374.7" x2="-2.7" y2="374.7"/>
	<line fill="none" stroke="#FFFFFF" stroke-width="2" stroke-miterlimit="10" x1="-7.6" y1="326.3" x2="-2.7" y2="326.3"/>
	<line fill="none" stroke="#FFFFFF" stroke-width="2" stroke-miterlimit="10" x1="-7.6" y1="276.8" x2="-2.7" y2="276.8"/>
	<line fill="none" stroke="#FFFFFF" stroke-width="2" stroke-miterlimit="10" x1="-7.6" y1="423.1" x2="-2.7" y2="423.1"/>
	<line fill="none" stroke="#FFFFFF" stroke-width="2" stroke-miterlimit="10" x1="-7.6" y1="471.4" x2="-2.7" y2="471.4"/>
	<line fill="none" stroke="#FFFFFF" stroke-width="2" stroke-miterlimit="10" x1="-7.6" y1="88.5" x2="-2.7" y2="88.5"/>
	<line fill="none" stroke="#FFFFFF" stroke-width="2" stroke-miterlimit="10" x1="-7.6" y1="40.2" x2="-2.7" y2="40.2"/>
	<line fill="none" stroke="#FFFFFF" stroke-width="2" stroke-miterlimit="10" x1="-7.6" y1="136.9" x2="-2.7" y2="136.9"/>
	<line fill="none" stroke="#FFFFFF" stroke-width="2" stroke-miterlimit="10" x1="-7.6" y1="185.3" x2="-2.7" y2="185.3"/>
	<line fill="none" stroke="#FFFFFF" stroke-width="2" stroke-miterlimit="10" x1="-7.6" y1="221.4" x2="-2.7" y2="221.4"/>
	<line fill="none" stroke="#FFFFFF" stroke-width="2" stroke-miterlimit="10" x1="-7.6" y1="365" x2="-2.7" y2="365"/>
	<line fill="none" stroke="#FFFFFF" stroke-width="2" stroke-miterlimit="10" x1="-7.6" y1="316.7" x2="-2.7" y2="316.7"/>
	<line fill="none" stroke="#FFFFFF" stroke-width="2" stroke-miterlimit="10" x1="-7.6" y1="267.2" x2="-2.7" y2="267.2"/>
	<line fill="none" stroke="#FFFFFF" stroke-width="2" stroke-miterlimit="10" x1="-7.6" y1="413.4" x2="-2.7" y2="413.4"/>
	<line fill="none" stroke="#FFFFFF" stroke-width="2" stroke-miterlimit="10" x1="-7.6" y1="461.8" x2="-2.7" y2="461.8"/>
	<line fill="none" stroke="#FFFFFF" stroke-width="2" stroke-miterlimit="10" x1="-7.6" y1="78.9" x2="-2.7" y2="78.9"/>
	<line fill="none" stroke="#FFFFFF" stroke-width="2" stroke-miterlimit="10" x1="-7.6" y1="30.5" x2="-2.7" y2="30.5"/>
	<line fill="none" stroke="#FFFFFF" stroke-width="2" stroke-miterlimit="10" x1="-7.6" y1="127.2" x2="-2.7" y2="127.2"/>
	<line fill="none" stroke="#FFFFFF" stroke-width="2" stroke-miterlimit="10" x1="-7.6" y1="175.6" x2="-2.7" y2="175.6"/>
	<line fill="none" stroke="#FFFFFF" stroke-width="2" stroke-miterlimit="10" x1="-7.6" y1="211.7" x2="-2.7" y2="211.7"/>
	<line fill="none" stroke="#FFFFFF" stroke-width="2" stroke-miterlimit="10" x1="-7.6" y1="355.4" x2="-2.7" y2="355.4"/>
	<line fill="none" stroke="#FFFFFF" stroke-width="2" stroke-miterlimit="10" x1="-7.6" y1="307" x2="-2.7" y2="307"/>
	<line fill="none" stroke="#FFFFFF" stroke-width="2" stroke-miterlimit="10" x1="-7.6" y1="257.5" x2="-2.7" y2="257.5"/>
	<line fill="none" stroke="#FFFFFF" stroke-width="2" stroke-miterlimit="10" x1="-7.6" y1="403.7" x2="-2.7" y2="403.7"/>
	<line fill="none" stroke="#FFFFFF" stroke-width="2" stroke-miterlimit="10" x1="-7.6" y1="452.1" x2="-2.7" y2="452.1"/>
	<line fill="none" stroke="#FFFFFF" stroke-width="2" stroke-miterlimit="10" x1="-7.6" y1="69.2" x2="-2.7" y2="69.2"/>
	<line fill="none" stroke="#FFFFFF" stroke-width="2" stroke-miterlimit="10" x1="-7.6" y1="20.8" x2="-2.7" y2="20.8"/>
	<line fill="none" stroke="#FFFFFF" stroke-width="2" stroke-miterlimit="10" x1="-7.6" y1="117.5" x2="-2.7" y2="117.5"/>
	<line fill="none" stroke="#FFFFFF" stroke-width="2" stroke-miterlimit="10" x1="-7.6" y1="165.9" x2="-2.7" y2="165.9"/>
	
		<rect x="-491.4" y="8.6" fill="none" stroke="#FFFFFF" stroke-linecap="round" stroke-linejoin="round" stroke-miterlimit="10" width="483.9" height="483.7"/>
	<g>
		<line fill="none" stroke="#FFFFFF" stroke-width="5" stroke-miterlimit="10" x1="-249.5" y1="492.4" x2="-249.5" y2="500.5"/>
		<line fill="none" stroke="#FFFFFF" stroke-width="5" stroke-miterlimit="10" x1="-393.2" y1="492.4" x2="-393.2" y2="500.5"/>
		<line fill="none" stroke="#FFFFFF" stroke-width="5" stroke-miterlimit="10" x1="-344.8" y1="492.4" x2="-344.8" y2="500.5"/>
		<line fill="none" stroke="#FFFFFF" stroke-width="5" stroke-miterlimit="10" x1="-295.3" y1="492.4" x2="-295.3" y2="500.5"/>
		<line fill="none" stroke="#FFFFFF" stroke-width="5" stroke-miterlimit="10" x1="-441.6" y1="492.4" x2="-441.6" y2="500.5"/>
		<line fill="none" stroke="#FFFFFF" stroke-width="5" stroke-miterlimit="10" x1="-490" y1="492.4" x2="-490" y2="500.5"/>
		<line fill="none" stroke="#FFFFFF" stroke-width="5" stroke-miterlimit="10" x1="-106.9" y1="492.4" x2="-106.9" y2="500.5"/>
		<line fill="none" stroke="#FFFFFF" stroke-width="5" stroke-miterlimit="10" x1="-58.5" y1="492.4" x2="-58.5" y2="500.5"/>
		<line fill="none" stroke="#FFFFFF" stroke-width="5" stroke-miterlimit="10" x1="-9" y1="492.4" x2="-9" y2="500.5"/>
		<line fill="none" stroke="#FFFFFF" stroke-width="5" stroke-miterlimit="10" x1="-155.3" y1="492.4" x2="-155.3" y2="500.5"/>
		<line fill="none" stroke="#FFFFFF" stroke-width="5" stroke-miterlimit="10" x1="-203.7" y1="492.4" x2="-203.7" y2="500.5"/>
	</g>
	<g>
		<line fill="none" stroke="#FFFFFF" stroke-width="5" stroke-miterlimit="10" x1="-249.5" y1="8.6" x2="-249.5" y2="0.5"/>
		<line fill="none" stroke="#FFFFFF" stroke-width="5" stroke-miterlimit="10" x1="-105.8" y1="8.6" x2="-105.8" y2="0.5"/>
		<line fill="none" stroke="#FFFFFF" stroke-width="5" stroke-miterlimit="10" x1="-154.2" y1="8.6" x2="-154.2" y2="0.5"/>
		<line fill="none" stroke="#FFFFFF" stroke-width="5" stroke-miterlimit="10" x1="-203.7" y1="8.6" x2="-203.7" y2="0.5"/>
		<line fill="none" stroke="#FFFFFF" stroke-width="5" stroke-miterlimit="10" x1="-57.4" y1="8.6" x2="-57.4" y2="0.5"/>
		<line fill="none" stroke="#FFFFFF" stroke-width="5" stroke-miterlimit="10" x1="-9" y1="8.6" x2="-9" y2="0.5"/>
		<line fill="none" stroke="#FFFFFF" stroke-width="5" stroke-miterlimit="10" x1="-392.1" y1="8.6" x2="-392.1" y2="0.5"/>
		<line fill="none" stroke="#FFFFFF" stroke-width="5" stroke-miterlimit="10" x1="-440.5" y1="8.6" x2="-440.5" y2="0.5"/>
		<line fill="none" stroke="#FFFFFF" stroke-width="5" stroke-miterlimit="10" x1="-490" y1="8.6" x2="-490" y2="0.5"/>
		<line fill="none" stroke="#FFFFFF" stroke-width="5" stroke-miterlimit="10" x1="-343.7" y1="8.6" x2="-343.7" y2="0.5"/>
		<line fill="none" stroke="#FFFFFF" stroke-width="5" stroke-miterlimit="10" x1="-295.3" y1="8.6" x2="-295.3" y2="0.5"/>
	</g>
</g>
</svg>
