<?xml version="1.0" encoding="utf-8"?>
<!-- Generator: Adobe Illustrator 16.0.0, SVG Export Plug-In . SVG Version: 6.00 Build 0)  -->
<!DOCTYPE svg PUBLIC "-//W3C//DTD SVG 1.1//EN" "http://www.w3.org/Graphics/SVG/1.1/DTD/svg11.dtd">
<svg version="1.1" id="Layer_1" xmlns="http://www.w3.org/2000/svg" xmlns:xlink="http://www.w3.org/1999/xlink" x="0px" y="0px"
	 width="500px" height="500px" viewBox="0 0 500 500" enable-background="new 0 0 500 500" xml:space="preserve">
<line fill="none" stroke="#FFFFFF" stroke-width="3" stroke-miterlimit="10" x1="-241.9" y1="-0.1" x2="-250" y2="-0.1"/>
<line fill="none" stroke="#FFFFFF" stroke-width="3" stroke-miterlimit="10" x1="-241.9" y1="-143.8" x2="-250" y2="-143.8"/>
<line fill="none" stroke="#FFFFFF" stroke-width="3" stroke-miterlimit="10" x1="-241.9" y1="-95.4" x2="-250" y2="-95.4"/>
<line fill="none" stroke="#FFFFFF" stroke-width="3" stroke-miterlimit="10" x1="-241.9" y1="-45.9" x2="-250" y2="-45.9"/>
<line fill="none" stroke="#FFFFFF" stroke-width="3" stroke-miterlimit="10" x1="-241.9" y1="-192.1" x2="-250" y2="-192.1"/>
<line fill="none" stroke="#FFFFFF" stroke-width="3" stroke-miterlimit="10" x1="-241.9" y1="-240.5" x2="-250" y2="-240.5"/>
<line fill="none" stroke="#FFFFFF" stroke-width="3" stroke-miterlimit="10" x1="-241.9" y1="142.4" x2="-250" y2="142.4"/>
<line fill="none" stroke="#FFFFFF" stroke-width="3" stroke-miterlimit="10" x1="-241.9" y1="190.8" x2="-250" y2="190.8"/>
<line fill="none" stroke="#FFFFFF" stroke-width="3" stroke-miterlimit="10" x1="-241.9" y1="240.3" x2="-250" y2="240.3"/>
<line fill="none" stroke="#FFFFFF" stroke-width="3" stroke-miterlimit="10" x1="-241.9" y1="94" x2="-250" y2="94"/>
<line fill="none" stroke="#FFFFFF" stroke-width="3" stroke-miterlimit="10" x1="-241.9" y1="45.7" x2="-250" y2="45.7"/>
<line fill="none" stroke="#FFFFFF" stroke-width="2" stroke-miterlimit="10" x1="-241.9" y1="9.6" x2="-246.8" y2="9.6"/>
<line fill="none" stroke="#FFFFFF" stroke-width="2" stroke-miterlimit="10" x1="-241.9" y1="-134.1" x2="-246.8" y2="-134.1"/>
<line fill="none" stroke="#FFFFFF" stroke-width="2" stroke-miterlimit="10" x1="-241.9" y1="-85.7" x2="-246.8" y2="-85.7"/>
<line fill="none" stroke="#FFFFFF" stroke-width="2" stroke-miterlimit="10" x1="-241.9" y1="-36.2" x2="-246.8" y2="-36.2"/>
<line fill="none" stroke="#FFFFFF" stroke-width="2" stroke-miterlimit="10" x1="-241.9" y1="-182.4" x2="-246.8" y2="-182.4"/>
<line fill="none" stroke="#FFFFFF" stroke-width="2" stroke-miterlimit="10" x1="-241.9" y1="-230.8" x2="-246.8" y2="-230.8"/>
<line fill="none" stroke="#FFFFFF" stroke-width="2" stroke-miterlimit="10" x1="-241.9" y1="152.1" x2="-246.8" y2="152.1"/>
<line fill="none" stroke="#FFFFFF" stroke-width="2" stroke-miterlimit="10" x1="-241.9" y1="200.5" x2="-246.8" y2="200.5"/>
<line fill="none" stroke="#FFFFFF" stroke-width="2" stroke-miterlimit="10" x1="-241.9" y1="103.7" x2="-246.8" y2="103.7"/>
<line fill="none" stroke="#FFFFFF" stroke-width="2" stroke-miterlimit="10" x1="-241.9" y1="55.4" x2="-246.8" y2="55.4"/>
<line fill="none" stroke="#FFFFFF" stroke-width="2" stroke-miterlimit="10" x1="-241.9" y1="19.2" x2="-246.8" y2="19.2"/>
<line fill="none" stroke="#FFFFFF" stroke-width="2" stroke-miterlimit="10" x1="-241.9" y1="-124.4" x2="-246.8" y2="-124.4"/>
<line fill="none" stroke="#FFFFFF" stroke-width="2" stroke-miterlimit="10" x1="-241.9" y1="-76" x2="-246.8" y2="-76"/>
<line fill="none" stroke="#FFFFFF" stroke-width="2" stroke-miterlimit="10" x1="-241.9" y1="-26.5" x2="-246.8" y2="-26.5"/>
<line fill="none" stroke="#FFFFFF" stroke-width="2" stroke-miterlimit="10" x1="-241.9" y1="-172.8" x2="-246.8" y2="-172.8"/>
<line fill="none" stroke="#FFFFFF" stroke-width="2" stroke-miterlimit="10" x1="-241.9" y1="-221.1" x2="-246.8" y2="-221.1"/>
<line fill="none" stroke="#FFFFFF" stroke-width="2" stroke-miterlimit="10" x1="-241.9" y1="161.8" x2="-246.8" y2="161.8"/>
<line fill="none" stroke="#FFFFFF" stroke-width="2" stroke-miterlimit="10" x1="-241.9" y1="210.1" x2="-246.8" y2="210.1"/>
<line fill="none" stroke="#FFFFFF" stroke-width="2" stroke-miterlimit="10" x1="-241.9" y1="113.4" x2="-246.8" y2="113.4"/>
<line fill="none" stroke="#FFFFFF" stroke-width="2" stroke-miterlimit="10" x1="-241.9" y1="65" x2="-246.8" y2="65"/>
<line fill="none" stroke="#FFFFFF" stroke-width="2" stroke-miterlimit="10" x1="-241.9" y1="28.9" x2="-246.8" y2="28.9"/>
<line fill="none" stroke="#FFFFFF" stroke-width="2" stroke-miterlimit="10" x1="-241.9" y1="-114.7" x2="-246.8" y2="-114.7"/>
<line fill="none" stroke="#FFFFFF" stroke-width="2" stroke-miterlimit="10" x1="-241.9" y1="-66.4" x2="-246.8" y2="-66.4"/>
<line fill="none" stroke="#FFFFFF" stroke-width="2" stroke-miterlimit="10" x1="-241.9" y1="-16.9" x2="-246.8" y2="-16.9"/>
<line fill="none" stroke="#FFFFFF" stroke-width="2" stroke-miterlimit="10" x1="-241.9" y1="-163.1" x2="-246.8" y2="-163.1"/>
<line fill="none" stroke="#FFFFFF" stroke-width="2" stroke-miterlimit="10" x1="-241.9" y1="-211.5" x2="-246.8" y2="-211.5"/>
<line fill="none" stroke="#FFFFFF" stroke-width="2" stroke-miterlimit="10" x1="-241.9" y1="171.4" x2="-246.8" y2="171.4"/>
<line fill="none" stroke="#FFFFFF" stroke-width="2" stroke-miterlimit="10" x1="-241.9" y1="219.8" x2="-246.8" y2="219.8"/>
<line fill="none" stroke="#FFFFFF" stroke-width="2" stroke-miterlimit="10" x1="-241.9" y1="123.1" x2="-246.8" y2="123.1"/>
<line fill="none" stroke="#FFFFFF" stroke-width="2" stroke-miterlimit="10" x1="-241.9" y1="74.7" x2="-246.8" y2="74.7"/>
<line fill="none" stroke="#FFFFFF" stroke-width="2" stroke-miterlimit="10" x1="-241.9" y1="38.6" x2="-246.8" y2="38.6"/>
<line fill="none" stroke="#FFFFFF" stroke-width="2" stroke-miterlimit="10" x1="-241.9" y1="-105.1" x2="-246.8" y2="-105.1"/>
<line fill="none" stroke="#FFFFFF" stroke-width="2" stroke-miterlimit="10" x1="-241.9" y1="-56.7" x2="-246.8" y2="-56.7"/>
<line fill="none" stroke="#FFFFFF" stroke-width="2" stroke-miterlimit="10" x1="-241.9" y1="-7.2" x2="-246.8" y2="-7.2"/>
<line fill="none" stroke="#FFFFFF" stroke-width="2" stroke-miterlimit="10" x1="-241.9" y1="-153.4" x2="-246.8" y2="-153.4"/>
<line fill="none" stroke="#FFFFFF" stroke-width="2" stroke-miterlimit="10" x1="-241.9" y1="-201.8" x2="-246.8" y2="-201.8"/>
<line fill="none" stroke="#FFFFFF" stroke-width="2" stroke-miterlimit="10" x1="-241.9" y1="181.1" x2="-246.8" y2="181.1"/>
<line fill="none" stroke="#FFFFFF" stroke-width="2" stroke-miterlimit="10" x1="-241.9" y1="229.5" x2="-246.8" y2="229.5"/>
<line fill="none" stroke="#FFFFFF" stroke-width="2" stroke-miterlimit="10" x1="-241.9" y1="132.7" x2="-246.8" y2="132.7"/>
<line fill="none" stroke="#FFFFFF" stroke-width="2" stroke-miterlimit="10" x1="-241.9" y1="84.4" x2="-246.8" y2="84.4"/>
<line fill="none" stroke="#FFFFFF" stroke-width="3" stroke-miterlimit="10" x1="241.9" y1="-0.1" x2="250" y2="-0.1"/>
<line fill="none" stroke="#FFFFFF" stroke-width="3" stroke-miterlimit="10" x1="241.9" y1="143.5" x2="250" y2="143.5"/>
<line fill="none" stroke="#FFFFFF" stroke-width="3" stroke-miterlimit="10" x1="241.9" y1="95.2" x2="250" y2="95.2"/>
<line fill="none" stroke="#FFFFFF" stroke-width="3" stroke-miterlimit="10" x1="241.9" y1="45.7" x2="250" y2="45.7"/>
<line fill="none" stroke="#FFFFFF" stroke-width="3" stroke-miterlimit="10" x1="241.9" y1="191.9" x2="250" y2="191.9"/>
<line fill="none" stroke="#FFFFFF" stroke-width="3" stroke-miterlimit="10" x1="241.9" y1="240.3" x2="250" y2="240.3"/>
<line fill="none" stroke="#FFFFFF" stroke-width="3" stroke-miterlimit="10" x1="241.9" y1="-142.6" x2="250" y2="-142.6"/>
<line fill="none" stroke="#FFFFFF" stroke-width="3" stroke-miterlimit="10" x1="241.9" y1="-191" x2="250" y2="-191"/>
<line fill="none" stroke="#FFFFFF" stroke-width="3" stroke-miterlimit="10" x1="241.9" y1="-240.5" x2="250" y2="-240.5"/>
<line fill="none" stroke="#FFFFFF" stroke-width="3" stroke-miterlimit="10" x1="241.9" y1="-94.3" x2="250" y2="-94.3"/>
<line fill="none" stroke="#FFFFFF" stroke-width="3" stroke-miterlimit="10" x1="241.9" y1="-45.9" x2="250" y2="-45.9"/>
<line fill="none" stroke="#FFFFFF" stroke-width="2" stroke-miterlimit="10" x1="241.9" y1="-9.8" x2="246.8" y2="-9.8"/>
<line fill="none" stroke="#FFFFFF" stroke-width="2" stroke-miterlimit="10" x1="241.9" y1="133.9" x2="246.8" y2="133.9"/>
<line fill="none" stroke="#FFFFFF" stroke-width="2" stroke-miterlimit="10" x1="241.9" y1="85.5" x2="246.8" y2="85.5"/>
<line fill="none" stroke="#FFFFFF" stroke-width="2" stroke-miterlimit="10" x1="241.9" y1="36" x2="246.8" y2="36"/>
<line fill="none" stroke="#FFFFFF" stroke-width="2" stroke-miterlimit="10" x1="241.9" y1="182.2" x2="246.8" y2="182.2"/>
<line fill="none" stroke="#FFFFFF" stroke-width="2" stroke-miterlimit="10" x1="241.9" y1="230.6" x2="246.8" y2="230.6"/>
<line fill="none" stroke="#FFFFFF" stroke-width="2" stroke-miterlimit="10" x1="241.9" y1="-152.3" x2="246.8" y2="-152.3"/>
<line fill="none" stroke="#FFFFFF" stroke-width="2" stroke-miterlimit="10" x1="241.9" y1="-200.7" x2="246.8" y2="-200.7"/>
<line fill="none" stroke="#FFFFFF" stroke-width="2" stroke-miterlimit="10" x1="241.9" y1="-103.9" x2="246.8" y2="-103.9"/>
<line fill="none" stroke="#FFFFFF" stroke-width="2" stroke-miterlimit="10" x1="241.9" y1="-55.6" x2="246.8" y2="-55.6"/>
<line fill="none" stroke="#FFFFFF" stroke-width="2" stroke-miterlimit="10" x1="241.9" y1="-19.5" x2="246.8" y2="-19.5"/>
<line fill="none" stroke="#FFFFFF" stroke-width="2" stroke-miterlimit="10" x1="241.9" y1="124.2" x2="246.8" y2="124.2"/>
<line fill="none" stroke="#FFFFFF" stroke-width="2" stroke-miterlimit="10" x1="241.9" y1="75.8" x2="246.8" y2="75.8"/>
<line fill="none" stroke="#FFFFFF" stroke-width="2" stroke-miterlimit="10" x1="241.9" y1="26.3" x2="246.8" y2="26.3"/>
<line fill="none" stroke="#FFFFFF" stroke-width="2" stroke-miterlimit="10" x1="241.9" y1="172.6" x2="246.8" y2="172.6"/>
<line fill="none" stroke="#FFFFFF" stroke-width="2" stroke-miterlimit="10" x1="241.9" y1="220.9" x2="246.8" y2="220.9"/>
<line fill="none" stroke="#FFFFFF" stroke-width="2" stroke-miterlimit="10" x1="241.9" y1="-162" x2="246.8" y2="-162"/>
<line fill="none" stroke="#FFFFFF" stroke-width="2" stroke-miterlimit="10" x1="241.9" y1="-210.3" x2="246.8" y2="-210.3"/>
<line fill="none" stroke="#FFFFFF" stroke-width="2" stroke-miterlimit="10" x1="241.9" y1="-113.6" x2="246.8" y2="-113.6"/>
<line fill="none" stroke="#FFFFFF" stroke-width="2" stroke-miterlimit="10" x1="241.9" y1="-65.2" x2="246.8" y2="-65.2"/>
<line fill="none" stroke="#FFFFFF" stroke-width="2" stroke-miterlimit="10" x1="241.9" y1="-29.1" x2="246.8" y2="-29.1"/>
<line fill="none" stroke="#FFFFFF" stroke-width="2" stroke-miterlimit="10" x1="241.9" y1="114.5" x2="246.8" y2="114.5"/>
<line fill="none" stroke="#FFFFFF" stroke-width="2" stroke-miterlimit="10" x1="241.9" y1="66.2" x2="246.8" y2="66.2"/>
<line fill="none" stroke="#FFFFFF" stroke-width="2" stroke-miterlimit="10" x1="241.9" y1="16.7" x2="246.8" y2="16.7"/>
<line fill="none" stroke="#FFFFFF" stroke-width="2" stroke-miterlimit="10" x1="241.9" y1="162.9" x2="246.8" y2="162.9"/>
<line fill="none" stroke="#FFFFFF" stroke-width="2" stroke-miterlimit="10" x1="241.9" y1="211.3" x2="246.8" y2="211.3"/>
<line fill="none" stroke="#FFFFFF" stroke-width="2" stroke-miterlimit="10" x1="241.9" y1="-171.6" x2="246.8" y2="-171.6"/>
<line fill="none" stroke="#FFFFFF" stroke-width="2" stroke-miterlimit="10" x1="241.9" y1="-220" x2="246.8" y2="-220"/>
<line fill="none" stroke="#FFFFFF" stroke-width="2" stroke-miterlimit="10" x1="241.9" y1="-123.3" x2="246.8" y2="-123.3"/>
<line fill="none" stroke="#FFFFFF" stroke-width="2" stroke-miterlimit="10" x1="241.9" y1="-74.9" x2="246.8" y2="-74.9"/>
<line fill="none" stroke="#FFFFFF" stroke-width="2" stroke-miterlimit="10" x1="241.9" y1="-38.8" x2="246.8" y2="-38.8"/>
<line fill="none" stroke="#FFFFFF" stroke-width="2" stroke-miterlimit="10" x1="241.9" y1="104.9" x2="246.8" y2="104.9"/>
<line fill="none" stroke="#FFFFFF" stroke-width="2" stroke-miterlimit="10" x1="241.9" y1="56.5" x2="246.8" y2="56.5"/>
<line fill="none" stroke="#FFFFFF" stroke-width="2" stroke-miterlimit="10" x1="241.9" y1="7" x2="246.8" y2="7"/>
<line fill="none" stroke="#FFFFFF" stroke-width="2" stroke-miterlimit="10" x1="241.9" y1="153.2" x2="246.8" y2="153.2"/>
<line fill="none" stroke="#FFFFFF" stroke-width="2" stroke-miterlimit="10" x1="241.9" y1="201.6" x2="246.8" y2="201.6"/>
<line fill="none" stroke="#FFFFFF" stroke-width="2" stroke-miterlimit="10" x1="241.9" y1="-181.3" x2="246.8" y2="-181.3"/>
<line fill="none" stroke="#FFFFFF" stroke-width="2" stroke-miterlimit="10" x1="241.9" y1="-229.7" x2="246.8" y2="-229.7"/>
<line fill="none" stroke="#FFFFFF" stroke-width="2" stroke-miterlimit="10" x1="241.9" y1="-133" x2="246.8" y2="-133"/>
<line fill="none" stroke="#FFFFFF" stroke-width="2" stroke-miterlimit="10" x1="241.9" y1="-84.6" x2="246.8" y2="-84.6"/>
<rect x="-241.9" y="-241.9" fill="none" stroke="#FFFFFF" stroke-linecap="round" stroke-linejoin="round" stroke-miterlimit="10" width="483.9" height="483.7"/>
<g>
	<line fill="none" stroke="#FFFFFF" stroke-miterlimit="10" x1="0" y1="241.9" x2="0" y2="250"/>
	<line fill="none" stroke="#FFFFFF" stroke-miterlimit="10" x1="-143.7" y1="241.9" x2="-143.7" y2="250"/>
	<line fill="none" stroke="#FFFFFF" stroke-miterlimit="10" x1="-95.3" y1="241.9" x2="-95.3" y2="250"/>
	<line fill="none" stroke="#FFFFFF" stroke-miterlimit="10" x1="-45.8" y1="241.9" x2="-45.8" y2="250"/>
	<line fill="none" stroke="#FFFFFF" stroke-miterlimit="10" x1="-192.1" y1="241.9" x2="-192.1" y2="250"/>
	<line fill="none" stroke="#FFFFFF" stroke-miterlimit="10" x1="-240.5" y1="241.9" x2="-240.5" y2="250"/>
	<line fill="none" stroke="#FFFFFF" stroke-miterlimit="10" x1="142.6" y1="241.9" x2="142.6" y2="250"/>
	<line fill="none" stroke="#FFFFFF" stroke-miterlimit="10" x1="191" y1="241.9" x2="191" y2="250"/>
	<line fill="none" stroke="#FFFFFF" stroke-miterlimit="10" x1="240.5" y1="241.9" x2="240.5" y2="250"/>
	<line fill="none" stroke="#FFFFFF" stroke-miterlimit="10" x1="94.2" y1="241.9" x2="94.2" y2="250"/>
	<line fill="none" stroke="#FFFFFF" stroke-miterlimit="10" x1="45.8" y1="241.9" x2="45.8" y2="250"/>
</g>
<g>
	<line fill="none" stroke="#FFFFFF" stroke-miterlimit="10" x1="0" y1="-241.9" x2="0" y2="-250"/>
	<line fill="none" stroke="#FFFFFF" stroke-miterlimit="10" x1="143.7" y1="-241.9" x2="143.7" y2="-250"/>
	<line fill="none" stroke="#FFFFFF" stroke-miterlimit="10" x1="95.3" y1="-241.9" x2="95.3" y2="-250"/>
	<line fill="none" stroke="#FFFFFF" stroke-miterlimit="10" x1="45.8" y1="-241.9" x2="45.8" y2="-250"/>
	<line fill="none" stroke="#FFFFFF" stroke-miterlimit="10" x1="192.1" y1="-241.9" x2="192.1" y2="-250"/>
	<line fill="none" stroke="#FFFFFF" stroke-miterlimit="10" x1="240.5" y1="-241.9" x2="240.5" y2="-250"/>
	<line fill="none" stroke="#FFFFFF" stroke-miterlimit="10" x1="-142.6" y1="-241.9" x2="-142.6" y2="-250"/>
	<line fill="none" stroke="#FFFFFF" stroke-miterlimit="10" x1="-191" y1="-241.9" x2="-191" y2="-250"/>
	<line fill="none" stroke="#FFFFFF" stroke-miterlimit="10" x1="-240.5" y1="-241.9" x2="-240.5" y2="-250"/>
	<line fill="none" stroke="#FFFFFF" stroke-miterlimit="10" x1="-94.2" y1="-241.9" x2="-94.2" y2="-250"/>
	<line fill="none" stroke="#FFFFFF" stroke-miterlimit="10" x1="-45.8" y1="-241.9" x2="-45.8" y2="-250"/>
</g>
</svg>
