<?xml version="1.0" encoding="utf-8"?>
<!-- Generator: Adobe Illustrator 16.0.0, SVG Export Plug-In . SVG Version: 6.00 Build 0)  -->
<!DOCTYPE svg PUBLIC "-//W3C//DTD SVG 1.1//EN" "http://www.w3.org/Graphics/SVG/1.1/DTD/svg11.dtd">
<svg version="1.1" id="Layer_1" xmlns="http://www.w3.org/2000/svg" xmlns:xlink="http://www.w3.org/1999/xlink" x="0px" y="0px"
	 width="500px" height="500px" viewBox="0 0 500 500" enable-background="new 0 0 500 500" xml:space="preserve">
<g>
	<g>
		<g>
			<path fill="#FFFFFF" d="M250,251.5h-1.5c-0.828,0-1.5-0.672-1.5-1.5s0.672-1.5,1.5-1.5c0-0.828,0.672-1.5,1.5-1.5
				s1.5,0.672,1.5,1.5v1.5C251.5,250.828,250.828,251.5,250,251.5z"/>
		</g>
		<g>
			<path fill="#FFFFFF" d="M209.7,251.5h-2.906c-0.828,0-1.5-0.672-1.5-1.5s0.672-1.5,1.5-1.5h2.906c0.828,0,1.5,0.672,1.5,1.5
				S210.528,251.5,209.7,251.5z M168.041,251.5h-2.906c-0.828,0-1.5-0.672-1.5-1.5s0.672-1.5,1.5-1.5h2.906
				c0.828,0,1.5,0.672,1.5,1.5S168.869,251.5,168.041,251.5z M126.383,251.5h-2.907c-0.828,0-1.5-0.672-1.5-1.5s0.672-1.5,1.5-1.5
				h2.907c0.828,0,1.5,0.672,1.5,1.5S127.211,251.5,126.383,251.5z M84.724,251.5h-2.906c-0.828,0-1.5-0.672-1.5-1.5
				s0.672-1.5,1.5-1.5h2.906c0.828,0,1.5,0.672,1.5,1.5S85.552,251.5,84.724,251.5z M43.064,251.5h-2.906
				c-0.828,0-1.5-0.672-1.5-1.5s0.672-1.5,1.5-1.5h2.906c0.828,0,1.5,0.672,1.5,1.5S43.893,251.5,43.064,251.5z M1.405,251.5H-1.5
				c-0.829,0-1.5-0.672-1.5-1.5s0.671-1.5,1.5-1.5h2.906c0.828,0,1.5,0.672,1.5,1.5S2.233,251.5,1.405,251.5z M-40.253,251.5h-2.906
				c-0.829,0-1.5-0.672-1.5-1.5s0.671-1.5,1.5-1.5h2.906c0.829,0,1.5,0.672,1.5,1.5S-39.425,251.5-40.253,251.5z M-81.912,251.5
				h-2.906c-0.829,0-1.5-0.672-1.5-1.5s0.671-1.5,1.5-1.5h2.906c0.829,0,1.5,0.672,1.5,1.5S-81.083,251.5-81.912,251.5z
				 M-123.571,251.5h-2.907c-0.829,0-1.5-0.672-1.5-1.5s0.671-1.5,1.5-1.5h2.907c0.829,0,1.5,0.672,1.5,1.5
				S-122.742,251.5-123.571,251.5z M-165.23,251.5h-2.906c-0.829,0-1.5-0.672-1.5-1.5s0.671-1.5,1.5-1.5h2.906
				c0.829,0,1.5,0.672,1.5,1.5S-164.401,251.5-165.23,251.5z M-206.889,251.5h-2.906c-0.829,0-1.5-0.672-1.5-1.5s0.671-1.5,1.5-1.5
				h2.906c0.829,0,1.5,0.672,1.5,1.5S-206.06,251.5-206.889,251.5z"/>
		</g>
		<g>
			<path fill="#FFFFFF" d="M-248.5,251.5h-1.5c-0.829,0-1.5-0.672-1.5-1.5v-1.5c0-0.828,0.671-1.5,1.5-1.5s1.5,0.672,1.5,1.5
				c0.829,0,1.5,0.672,1.5,1.5S-247.671,251.5-248.5,251.5z"/>
		</g>
		<g>
			<path fill="#FFFFFF" d="M-250,211.2c-0.829,0-1.5-0.672-1.5-1.5v-2.906c0-0.828,0.671-1.5,1.5-1.5s1.5,0.672,1.5,1.5v2.906
				C-248.5,210.528-249.171,211.2-250,211.2z M-250,169.541c-0.829,0-1.5-0.672-1.5-1.5v-2.906c0-0.828,0.671-1.5,1.5-1.5
				s1.5,0.672,1.5,1.5v2.906C-248.5,168.869-249.171,169.541-250,169.541z M-250,127.883c-0.829,0-1.5-0.672-1.5-1.5v-2.906
				c0-0.828,0.671-1.5,1.5-1.5s1.5,0.672,1.5,1.5v2.906C-248.5,127.211-249.171,127.883-250,127.883z M-250,86.224
				c-0.829,0-1.5-0.672-1.5-1.5v-2.906c0-0.828,0.671-1.5,1.5-1.5s1.5,0.672,1.5,1.5v2.906C-248.5,85.552-249.171,86.224-250,86.224
				z M-250,44.565c-0.829,0-1.5-0.672-1.5-1.5v-2.907c0-0.828,0.671-1.5,1.5-1.5s1.5,0.672,1.5,1.5v2.907
				C-248.5,43.894-249.171,44.565-250,44.565z M-250,2.906c-0.829,0-1.5-0.672-1.5-1.5V-1.5c0-0.829,0.671-1.5,1.5-1.5
				s1.5,0.671,1.5,1.5v2.906C-248.5,2.234-249.171,2.906-250,2.906z M-250-38.752c-0.829,0-1.5-0.671-1.5-1.5v-2.907
				c0-0.829,0.671-1.5,1.5-1.5s1.5,0.671,1.5,1.5v2.907C-248.5-39.424-249.171-38.752-250-38.752z M-250-80.412
				c-0.829,0-1.5-0.671-1.5-1.5v-2.906c0-0.829,0.671-1.5,1.5-1.5s1.5,0.671,1.5,1.5v2.906C-248.5-81.083-249.171-80.412-250-80.412
				z M-250-122.07c-0.829,0-1.5-0.671-1.5-1.5v-2.906c0-0.829,0.671-1.5,1.5-1.5s1.5,0.671,1.5,1.5v2.906
				C-248.5-122.742-249.171-122.07-250-122.07z M-250-163.729c-0.829,0-1.5-0.671-1.5-1.5v-2.906c0-0.829,0.671-1.5,1.5-1.5
				s1.5,0.671,1.5,1.5v2.906C-248.5-164.4-249.171-163.729-250-163.729z M-250-205.388c-0.829,0-1.5-0.671-1.5-1.5v-2.906
				c0-0.829,0.671-1.5,1.5-1.5s1.5,0.671,1.5,1.5v2.906C-248.5-206.059-249.171-205.388-250-205.388z"/>
		</g>
		<g>
			<path fill="#FFFFFF" d="M-250-247c-0.829,0-1.5-0.671-1.5-1.5v-1.5c0-0.829,0.671-1.5,1.5-1.5h1.5c0.829,0,1.5,0.671,1.5,1.5
				s-0.671,1.5-1.5,1.5C-248.5-247.671-249.171-247-250-247z"/>
		</g>
		<g>
			<path fill="#FFFFFF" d="M209.795-248.5h-2.906c-0.828,0-1.5-0.671-1.5-1.5s0.672-1.5,1.5-1.5h2.906c0.828,0,1.5,0.671,1.5,1.5
				S210.623-248.5,209.795-248.5z M168.137-248.5h-2.907c-0.828,0-1.5-0.671-1.5-1.5s0.672-1.5,1.5-1.5h2.907
				c0.828,0,1.5,0.671,1.5,1.5S168.965-248.5,168.137-248.5z M126.478-248.5h-2.906c-0.828,0-1.5-0.671-1.5-1.5s0.672-1.5,1.5-1.5
				h2.906c0.828,0,1.5,0.671,1.5,1.5S127.306-248.5,126.478-248.5z M84.818-248.5h-2.906c-0.828,0-1.5-0.671-1.5-1.5
				s0.672-1.5,1.5-1.5h2.906c0.828,0,1.5,0.671,1.5,1.5S85.646-248.5,84.818-248.5z M43.159-248.5h-2.906
				c-0.828,0-1.5-0.671-1.5-1.5s0.672-1.5,1.5-1.5h2.906c0.828,0,1.5,0.671,1.5,1.5S43.987-248.5,43.159-248.5z M1.501-248.5h-2.907
				c-0.829,0-1.5-0.671-1.5-1.5s0.671-1.5,1.5-1.5h2.907c0.828,0,1.5,0.671,1.5,1.5S2.329-248.5,1.501-248.5z M-40.158-248.5h-2.906
				c-0.829,0-1.5-0.671-1.5-1.5s0.671-1.5,1.5-1.5h2.906c0.829,0,1.5,0.671,1.5,1.5S-39.33-248.5-40.158-248.5z M-81.817-248.5
				h-2.907c-0.829,0-1.5-0.671-1.5-1.5s0.671-1.5,1.5-1.5h2.907c0.829,0,1.5,0.671,1.5,1.5S-80.988-248.5-81.817-248.5z
				 M-123.476-248.5h-2.906c-0.829,0-1.5-0.671-1.5-1.5s0.671-1.5,1.5-1.5h2.906c0.829,0,1.5,0.671,1.5,1.5
				S-122.647-248.5-123.476-248.5z M-165.135-248.5h-2.907c-0.829,0-1.5-0.671-1.5-1.5s0.671-1.5,1.5-1.5h2.907
				c0.829,0,1.5,0.671,1.5,1.5S-164.306-248.5-165.135-248.5z M-206.794-248.5h-2.906c-0.829,0-1.5-0.671-1.5-1.5s0.671-1.5,1.5-1.5
				h2.906c0.829,0,1.5,0.671,1.5,1.5S-205.965-248.5-206.794-248.5z"/>
		</g>
		<g>
			<path fill="#FFFFFF" d="M250-247c-0.828,0-1.5-0.671-1.5-1.5c-0.828,0-1.5-0.671-1.5-1.5s0.672-1.5,1.5-1.5h1.5
				c0.828,0,1.5,0.671,1.5,1.5v1.5C251.5-247.671,250.828-247,250-247z"/>
		</g>
		<g>
			<path fill="#FFFFFF" d="M250,211.294c-0.828,0-1.5-0.672-1.5-1.5v-2.906c0-0.828,0.672-1.5,1.5-1.5s1.5,0.672,1.5,1.5v2.906
				C251.5,210.622,250.828,211.294,250,211.294z M250,169.636c-0.828,0-1.5-0.672-1.5-1.5v-2.907c0-0.828,0.672-1.5,1.5-1.5
				s1.5,0.672,1.5,1.5v2.907C251.5,168.964,250.828,169.636,250,169.636z M250,127.977c-0.828,0-1.5-0.672-1.5-1.5v-2.906
				c0-0.828,0.672-1.5,1.5-1.5s1.5,0.672,1.5,1.5v2.906C251.5,127.305,250.828,127.977,250,127.977z M250,86.317
				c-0.828,0-1.5-0.672-1.5-1.5v-2.906c0-0.828,0.672-1.5,1.5-1.5s1.5,0.672,1.5,1.5v2.906C251.5,85.646,250.828,86.317,250,86.317z
				 M250,44.659c-0.828,0-1.5-0.672-1.5-1.5v-2.906c0-0.828,0.672-1.5,1.5-1.5s1.5,0.672,1.5,1.5v2.906
				C251.5,43.987,250.828,44.659,250,44.659z M250,3c-0.828,0-1.5-0.672-1.5-1.5v-2.906c0-0.829,0.672-1.5,1.5-1.5
				s1.5,0.671,1.5,1.5V1.5C251.5,2.328,250.828,3,250,3z M250-38.659c-0.828,0-1.5-0.671-1.5-1.5v-2.906c0-0.829,0.672-1.5,1.5-1.5
				s1.5,0.671,1.5,1.5v2.906C251.5-39.33,250.828-38.659,250-38.659z M250-80.317c-0.828,0-1.5-0.671-1.5-1.5v-2.906
				c0-0.829,0.672-1.5,1.5-1.5s1.5,0.671,1.5,1.5v2.906C251.5-80.989,250.828-80.317,250-80.317z M250-121.976
				c-0.828,0-1.5-0.671-1.5-1.5v-2.907c0-0.829,0.672-1.5,1.5-1.5s1.5,0.671,1.5,1.5v2.907
				C251.5-122.647,250.828-121.976,250-121.976z M250-163.635c-0.828,0-1.5-0.671-1.5-1.5v-2.907c0-0.829,0.672-1.5,1.5-1.5
				s1.5,0.671,1.5,1.5v2.907C251.5-164.306,250.828-163.635,250-163.635z M250-205.294c-0.828,0-1.5-0.671-1.5-1.5v-2.906
				c0-0.829,0.672-1.5,1.5-1.5s1.5,0.671,1.5,1.5v2.906C251.5-205.965,250.828-205.294,250-205.294z"/>
		</g>
	</g>
</g>
</svg>
