<?xml version="1.0" encoding="utf-8"?>
<!-- Generator: Adobe Illustrator 16.0.0, SVG Export Plug-In . SVG Version: 6.00 Build 0)  -->
<!DOCTYPE svg PUBLIC "-//W3C//DTD SVG 1.1//EN" "http://www.w3.org/Graphics/SVG/1.1/DTD/svg11.dtd">
<svg version="1.1" id="Layer_1" xmlns="http://www.w3.org/2000/svg" xmlns:xlink="http://www.w3.org/1999/xlink" x="0px" y="0px"
	 width="500px" height="500px" viewBox="0 0 500 500" enable-background="new 0 0 500 500" xml:space="preserve">
<g>
	<g>
		<path fill="#FFFFFF" d="M200.482-249.5h-0.98c-0.276,0-0.5-0.224-0.5-0.5s0.224-0.5,0.5-0.5h0.98c0.276,0,0.5,0.224,0.5,0.5
			S200.758-249.5,200.482-249.5z M150.484-249.5h-0.98c-0.276,0-0.5-0.224-0.5-0.5s0.224-0.5,0.5-0.5h0.98
			c0.276,0,0.5,0.224,0.5,0.5S150.761-249.5,150.484-249.5z M100.486-249.5h-0.98c-0.276,0-0.5-0.224-0.5-0.5s0.224-0.5,0.5-0.5
			h0.98c0.276,0,0.5,0.224,0.5,0.5S100.762-249.5,100.486-249.5z M50.488-249.5h-0.98c-0.276,0-0.5-0.224-0.5-0.5s0.224-0.5,0.5-0.5
			h0.98c0.276,0,0.5,0.224,0.5,0.5S50.764-249.5,50.488-249.5z M0.49-249.5h-0.98c-0.276,0-0.5-0.224-0.5-0.5s0.224-0.5,0.5-0.5
			h0.98c0.276,0,0.5,0.224,0.5,0.5S0.767-249.5,0.49-249.5z M-49.508-249.5h-0.98c-0.276,0-0.5-0.224-0.5-0.5s0.224-0.5,0.5-0.5
			h0.98c0.276,0,0.5,0.224,0.5,0.5S-49.231-249.5-49.508-249.5z M-99.506-249.5h-0.98c-0.276,0-0.5-0.224-0.5-0.5s0.224-0.5,0.5-0.5
			h0.98c0.276,0,0.5,0.224,0.5,0.5S-99.229-249.5-99.506-249.5z M-149.504-249.5h-0.98c-0.276,0-0.5-0.224-0.5-0.5
			s0.224-0.5,0.5-0.5h0.98c0.276,0,0.5,0.224,0.5,0.5S-149.228-249.5-149.504-249.5z M-199.502-249.5h-0.98
			c-0.276,0-0.5-0.224-0.5-0.5s0.224-0.5,0.5-0.5h0.98c0.276,0,0.5,0.224,0.5,0.5S-199.226-249.5-199.502-249.5z"/>
	</g>
	<g>
		<path fill="#FFFFFF" d="M250,200.982c-0.276,0-0.5-0.224-0.5-0.5v-0.98c0-0.276,0.224-0.5,0.5-0.5s0.5,0.224,0.5,0.5v0.98
			C250.5,200.758,250.276,200.982,250,200.982z M250,150.984c-0.276,0-0.5-0.224-0.5-0.5v-0.98c0-0.276,0.224-0.5,0.5-0.5
			s0.5,0.224,0.5,0.5v0.98C250.5,150.761,250.276,150.984,250,150.984z M250,100.986c-0.276,0-0.5-0.224-0.5-0.5v-0.98
			c0-0.276,0.224-0.5,0.5-0.5s0.5,0.224,0.5,0.5v0.98C250.5,100.762,250.276,100.986,250,100.986z M250,50.988
			c-0.276,0-0.5-0.224-0.5-0.5v-0.98c0-0.276,0.224-0.5,0.5-0.5s0.5,0.224,0.5,0.5v0.98C250.5,50.764,250.276,50.988,250,50.988z
			 M250,0.99c-0.276,0-0.5-0.224-0.5-0.5v-0.98c0-0.276,0.224-0.5,0.5-0.5s0.5,0.224,0.5,0.5v0.98
			C250.5,0.767,250.276,0.99,250,0.99z M250-49.008c-0.276,0-0.5-0.224-0.5-0.5v-0.98c0-0.276,0.224-0.5,0.5-0.5s0.5,0.224,0.5,0.5
			v0.98C250.5-49.231,250.276-49.008,250-49.008z M250-99.006c-0.276,0-0.5-0.224-0.5-0.5v-0.98c0-0.276,0.224-0.5,0.5-0.5
			s0.5,0.224,0.5,0.5v0.98C250.5-99.229,250.276-99.006,250-99.006z M250-149.004c-0.276,0-0.5-0.224-0.5-0.5v-0.98
			c0-0.276,0.224-0.5,0.5-0.5s0.5,0.224,0.5,0.5v0.98C250.5-149.228,250.276-149.004,250-149.004z M250-199.002
			c-0.276,0-0.5-0.224-0.5-0.5v-0.98c0-0.276,0.224-0.5,0.5-0.5s0.5,0.224,0.5,0.5v0.98C250.5-199.226,250.276-199.002,250-199.002z
			"/>
	</g>
	<g>
		<path fill="#FFFFFF" d="M200.482,250.5h-0.98c-0.276,0-0.5-0.224-0.5-0.5s0.224-0.5,0.5-0.5h0.98c0.276,0,0.5,0.224,0.5,0.5
			S200.759,250.5,200.482,250.5z M150.484,250.5h-0.98c-0.276,0-0.5-0.224-0.5-0.5s0.224-0.5,0.5-0.5h0.98
			c0.276,0,0.5,0.224,0.5,0.5S150.761,250.5,150.484,250.5z M100.486,250.5h-0.98c-0.276,0-0.5-0.224-0.5-0.5s0.224-0.5,0.5-0.5
			h0.98c0.276,0,0.5,0.224,0.5,0.5S100.762,250.5,100.486,250.5z M50.488,250.5h-0.98c-0.276,0-0.5-0.224-0.5-0.5s0.224-0.5,0.5-0.5
			h0.98c0.276,0,0.5,0.224,0.5,0.5S50.764,250.5,50.488,250.5z M0.49,250.5h-0.98c-0.276,0-0.5-0.224-0.5-0.5s0.224-0.5,0.5-0.5
			h0.98c0.276,0,0.5,0.224,0.5,0.5S0.767,250.5,0.49,250.5z M-49.508,250.5h-0.98c-0.276,0-0.5-0.224-0.5-0.5s0.224-0.5,0.5-0.5
			h0.98c0.276,0,0.5,0.224,0.5,0.5S-49.231,250.5-49.508,250.5z M-99.506,250.5h-0.98c-0.276,0-0.5-0.224-0.5-0.5s0.224-0.5,0.5-0.5
			h0.98c0.276,0,0.5,0.224,0.5,0.5S-99.229,250.5-99.506,250.5z M-149.504,250.5h-0.98c-0.276,0-0.5-0.224-0.5-0.5
			s0.224-0.5,0.5-0.5h0.98c0.276,0,0.5,0.224,0.5,0.5S-149.228,250.5-149.504,250.5z M-199.502,250.5h-0.98
			c-0.276,0-0.5-0.224-0.5-0.5s0.224-0.5,0.5-0.5h0.98c0.276,0,0.5,0.224,0.5,0.5S-199.226,250.5-199.502,250.5z"/>
	</g>
	<g>
		<path fill="#FFFFFF" d="M-250,200.982c-0.276,0-0.5-0.224-0.5-0.5v-0.98c0-0.276,0.224-0.5,0.5-0.5s0.5,0.224,0.5,0.5v0.98
			C-249.5,200.759-249.724,200.982-250,200.982z M-250,150.984c-0.276,0-0.5-0.224-0.5-0.5v-0.98c0-0.276,0.224-0.5,0.5-0.5
			s0.5,0.224,0.5,0.5v0.98C-249.5,150.761-249.724,150.984-250,150.984z M-250,100.986c-0.276,0-0.5-0.224-0.5-0.5v-0.98
			c0-0.276,0.224-0.5,0.5-0.5s0.5,0.224,0.5,0.5v0.98C-249.5,100.762-249.724,100.986-250,100.986z M-250,50.988
			c-0.276,0-0.5-0.224-0.5-0.5v-0.98c0-0.276,0.224-0.5,0.5-0.5s0.5,0.224,0.5,0.5v0.98C-249.5,50.764-249.724,50.988-250,50.988z
			 M-250,0.99c-0.276,0-0.5-0.224-0.5-0.5v-0.98c0-0.276,0.224-0.5,0.5-0.5s0.5,0.224,0.5,0.5v0.98
			C-249.5,0.767-249.724,0.99-250,0.99z M-250-49.008c-0.276,0-0.5-0.224-0.5-0.5v-0.98c0-0.276,0.224-0.5,0.5-0.5
			s0.5,0.224,0.5,0.5v0.98C-249.5-49.231-249.724-49.008-250-49.008z M-250-99.006c-0.276,0-0.5-0.224-0.5-0.5v-0.98
			c0-0.276,0.224-0.5,0.5-0.5s0.5,0.224,0.5,0.5v0.98C-249.5-99.229-249.724-99.006-250-99.006z M-250-149.004
			c-0.276,0-0.5-0.224-0.5-0.5v-0.98c0-0.276,0.224-0.5,0.5-0.5s0.5,0.224,0.5,0.5v0.98C-249.5-149.228-249.724-149.004-250-149.004
			z M-250-199.002c-0.276,0-0.5-0.224-0.5-0.5v-0.98c0-0.276,0.224-0.5,0.5-0.5s0.5,0.224,0.5,0.5v0.98
			C-249.5-199.226-249.724-199.002-250-199.002z"/>
	</g>
</g>
<line fill="none" stroke="#FFFFFF" stroke-linecap="round" stroke-linejoin="round" stroke-miterlimit="10" x1="-250" y1="-200.614" x2="-200.531" y2="-250"/>
<line fill="none" stroke="#FFFFFF" stroke-linecap="round" stroke-linejoin="round" stroke-miterlimit="10" x1="200.478" y1="-250" x2="249.865" y2="-200.531"/>
<line fill="none" stroke="#FFFFFF" stroke-linecap="round" stroke-linejoin="round" stroke-miterlimit="10" x1="249.865" y1="200.69" x2="200.396" y2="250.077"/>
<line fill="none" stroke="#FFFFFF" stroke-linecap="round" stroke-linejoin="round" stroke-miterlimit="10" x1="-200.613" y1="250.077" x2="-250" y2="200.608"/>
</svg>
