<?xml version="1.0" encoding="utf-8"?>
<!-- Generator: Adobe Illustrator 16.0.0, SVG Export Plug-In . SVG Version: 6.00 Build 0)  -->
<!DOCTYPE svg PUBLIC "-//W3C//DTD SVG 1.1//EN" "http://www.w3.org/Graphics/SVG/1.1/DTD/svg11.dtd">
<svg version="1.1" id="Layer_1" xmlns="http://www.w3.org/2000/svg" xmlns:xlink="http://www.w3.org/1999/xlink" x="0px" y="0px"
	 width="500px" height="500px" viewBox="0 0 500 500" enable-background="new 0 0 500 500" xml:space="preserve">
<g>
	<g>
		<circle fill="#FFFFFF" cx="-246.6" cy="-246.6" r="3.6"/>
	</g>
	<g>
		<circle fill="#FFFFFF" cx="246.6" cy="-246.6" r="3.6"/>
	</g>
	<g>
		<circle fill="#FFFFFF" cx="246.6" cy="246.6" r="3.6"/>
	</g>
	<g>
		<circle fill="#FFFFFF" cx="-246.6" cy="246.6" r="3.6"/>
	</g>
	<g>
		<path fill="#FFFFFF" d="M-246.6,248.1c-0.384,0-0.768-0.146-1.061-0.439c-0.586-0.586-0.586-1.535,0-2.121l37.9-37.899
			c0.586-0.586,1.535-0.586,2.121,0s0.586,1.535,0,2.121l-37.9,37.899C-245.833,247.953-246.216,248.1-246.6,248.1z"/>
	</g>
	<g>
		<path fill="#FFFFFF" d="M210.5-209c-0.384,0-0.768-0.146-1.061-0.439c-0.586-0.585-0.586-1.536,0-2.121l37.9-37.9
			c0.586-0.586,1.535-0.586,2.121,0c0.586,0.585,0.586,1.536,0,2.121l-37.9,37.9C211.268-209.146,210.884-209,210.5-209z"/>
	</g>
	<g>
		<path fill="#FFFFFF" d="M-208.7-208c-0.384,0-0.768-0.146-1.061-0.439l-37.9-37.9c-0.586-0.585-0.586-1.536,0-2.121
			c0.586-0.586,1.535-0.586,2.121,0l37.9,37.9c0.586,0.585,0.586,1.536,0,2.121C-207.933-208.146-208.316-208-208.7-208z"/>
	</g>
	<g>
		<path fill="#FFFFFF" d="M246.6,248.1c-0.384,0-0.768-0.146-1.061-0.439l-37.899-37.899c-0.586-0.586-0.586-1.535,0-2.121
			s1.535-0.586,2.121,0l37.899,37.899c0.586,0.586,0.586,1.535,0,2.121C247.367,247.953,246.983,248.1,246.6,248.1z"/>
	</g>
</g>
</svg>
