<?xml version="1.0" encoding="utf-8"?>
<!-- Generator: Adobe Illustrator 16.0.0, SVG Export Plug-In . SVG Version: 6.00 Build 0)  -->
<!DOCTYPE svg PUBLIC "-//W3C//DTD SVG 1.1//EN" "http://www.w3.org/Graphics/SVG/1.1/DTD/svg11.dtd">
<svg version="1.1" id="Layer_1" xmlns="http://www.w3.org/2000/svg" xmlns:xlink="http://www.w3.org/1999/xlink" x="0px" y="0px"
	 width="500px" height="500px" viewBox="0 0 500 500" enable-background="new 0 0 500 500" xml:space="preserve">
<g>
	<path fill="none" stroke="#FFFFFF" stroke-width="2" stroke-miterlimit="10" d="M-234.601,235.151
		c-0.141,0-0.281-0.054-0.389-0.161c-0.215-0.215-0.215-0.563,0-0.778l13.899-13.9c0.215-0.215,0.563-0.215,0.778,0
		c0.215,0.215,0.215,0.563,0,0.778l-13.899,13.9C-234.319,235.097-234.459,235.151-234.601,235.151z"/>
</g>
<g>
	<path fill="none" stroke="#FFFFFF" stroke-width="2" stroke-miterlimit="10" d="M222.5-221.95c-0.141,0-0.282-0.054-0.39-0.161
		c-0.215-0.215-0.215-0.563,0-0.778l13.9-13.9c0.215-0.215,0.563-0.215,0.778,0c0.215,0.214,0.215,0.563,0,0.778l-13.899,13.9
		C222.781-222.003,222.641-221.95,222.5-221.95z"/>
</g>
<g>
	<path fill="none" stroke="#FFFFFF" stroke-width="2" stroke-miterlimit="10" d="M-220.701-220.95c-0.141,0-0.282-0.054-0.389-0.161
		l-13.899-13.9c-0.215-0.214-0.215-0.563,0-0.778c0.215-0.215,0.563-0.215,0.778,0l13.899,13.9c0.215,0.215,0.215,0.563,0,0.778
		C-220.419-221.003-220.56-220.95-220.701-220.95z"/>
</g>
<g>
	<path fill="none" stroke="#FFFFFF" stroke-width="2" stroke-miterlimit="10" d="M234.6,235.151c-0.141,0-0.282-0.054-0.389-0.161
		l-13.899-13.9c-0.215-0.215-0.215-0.563,0-0.778c0.214-0.215,0.562-0.215,0.777,0l13.9,13.9c0.215,0.215,0.215,0.563,0,0.778
		C234.881,235.097,234.74,235.151,234.6,235.151z"/>
</g>
</svg>
