<?xml version="1.0" encoding="utf-8"?>
<!-- Generator: Adobe Illustrator 16.0.0, SVG Export Plug-In . SVG Version: 6.00 Build 0)  -->
<!DOCTYPE svg PUBLIC "-//W3C//DTD SVG 1.1//EN" "http://www.w3.org/Graphics/SVG/1.1/DTD/svg11.dtd">
<svg version="1.1" id="Layer_1" xmlns="http://www.w3.org/2000/svg" xmlns:xlink="http://www.w3.org/1999/xlink" x="0px" y="0px"
	 width="500px" height="500px" viewBox="0 0 500 500" enable-background="new 0 0 500 500" xml:space="preserve">
<g>
	<line fill="none" stroke="#FFFFFF" stroke-width="2" stroke-miterlimit="10" x1="-241.9" y1="9.65" x2="-246.8" y2="9.65"/>
	<line fill="none" stroke="#FFFFFF" stroke-width="2" stroke-miterlimit="10" x1="-241.9" y1="-134.05" x2="-246.8" y2="-134.05"/>
	<line fill="none" stroke="#FFFFFF" stroke-width="2" stroke-miterlimit="10" x1="-241.9" y1="-85.65" x2="-246.8" y2="-85.65"/>
	<line fill="none" stroke="#FFFFFF" stroke-width="2" stroke-miterlimit="10" x1="-241.9" y1="-36.15" x2="-246.8" y2="-36.15"/>
	<line fill="none" stroke="#FFFFFF" stroke-width="2" stroke-miterlimit="10" x1="-241.9" y1="-182.35" x2="-246.8" y2="-182.35"/>
	<line fill="none" stroke="#FFFFFF" stroke-width="2" stroke-miterlimit="10" x1="-241.9" y1="-230.75" x2="-246.8" y2="-230.75"/>
	<line fill="none" stroke="#FFFFFF" stroke-width="2" stroke-miterlimit="10" x1="-241.9" y1="152.15" x2="-246.8" y2="152.15"/>
	<line fill="none" stroke="#FFFFFF" stroke-width="2" stroke-miterlimit="10" x1="-241.9" y1="200.549" x2="-246.8" y2="200.549"/>
	<line fill="none" stroke="#FFFFFF" stroke-width="2" stroke-miterlimit="10" x1="-241.9" y1="103.75" x2="-246.8" y2="103.75"/>
	<line fill="none" stroke="#FFFFFF" stroke-width="2" stroke-miterlimit="10" x1="-241.9" y1="55.45" x2="-246.8" y2="55.45"/>
	<line fill="none" stroke="#FFFFFF" stroke-width="2" stroke-miterlimit="10" x1="-241.9" y1="19.25" x2="-246.8" y2="19.25"/>
	<line fill="none" stroke="#FFFFFF" stroke-width="2" stroke-miterlimit="10" x1="-241.9" y1="-124.35" x2="-246.8" y2="-124.35"/>
	<line fill="none" stroke="#FFFFFF" stroke-width="2" stroke-miterlimit="10" x1="-241.9" y1="-75.95" x2="-246.8" y2="-75.95"/>
	<line fill="none" stroke="#FFFFFF" stroke-width="2" stroke-miterlimit="10" x1="-241.9" y1="-26.45" x2="-246.8" y2="-26.45"/>
	<line fill="none" stroke="#FFFFFF" stroke-width="2" stroke-miterlimit="10" x1="-241.9" y1="-172.75" x2="-246.8" y2="-172.75"/>
	<line fill="none" stroke="#FFFFFF" stroke-width="2" stroke-miterlimit="10" x1="-241.9" y1="-221.05" x2="-246.8" y2="-221.05"/>
	<line fill="none" stroke="#FFFFFF" stroke-width="2" stroke-miterlimit="10" x1="-241.9" y1="161.85" x2="-246.8" y2="161.85"/>
	<line fill="none" stroke="#FFFFFF" stroke-width="2" stroke-miterlimit="10" x1="-241.9" y1="210.15" x2="-246.8" y2="210.15"/>
	<line fill="none" stroke="#FFFFFF" stroke-width="2" stroke-miterlimit="10" x1="-241.9" y1="113.45" x2="-246.8" y2="113.45"/>
	<line fill="none" stroke="#FFFFFF" stroke-width="2" stroke-miterlimit="10" x1="-241.9" y1="65.049" x2="-246.8" y2="65.049"/>
	<line fill="none" stroke="#FFFFFF" stroke-width="2" stroke-miterlimit="10" x1="-241.9" y1="28.95" x2="-246.8" y2="28.95"/>
	<line fill="none" stroke="#FFFFFF" stroke-width="2" stroke-miterlimit="10" x1="-241.9" y1="-114.65" x2="-246.8" y2="-114.65"/>
	<line fill="none" stroke="#FFFFFF" stroke-width="2" stroke-miterlimit="10" x1="-241.9" y1="-66.35" x2="-246.8" y2="-66.35"/>
	<line fill="none" stroke="#FFFFFF" stroke-width="2" stroke-miterlimit="10" x1="-241.9" y1="-16.85" x2="-246.8" y2="-16.85"/>
	<line fill="none" stroke="#FFFFFF" stroke-width="2" stroke-miterlimit="10" x1="-241.9" y1="-163.05" x2="-246.8" y2="-163.05"/>
	<line fill="none" stroke="#FFFFFF" stroke-width="2" stroke-miterlimit="10" x1="-241.9" y1="-211.45" x2="-246.8" y2="-211.45"/>
	<line fill="none" stroke="#FFFFFF" stroke-width="2" stroke-miterlimit="10" x1="-241.9" y1="171.45" x2="-246.8" y2="171.45"/>
	<line fill="none" stroke="#FFFFFF" stroke-width="2" stroke-miterlimit="10" x1="-241.9" y1="219.85" x2="-246.8" y2="219.85"/>
	<line fill="none" stroke="#FFFFFF" stroke-width="2" stroke-miterlimit="10" x1="-241.9" y1="123.15" x2="-246.8" y2="123.15"/>
	<line fill="none" stroke="#FFFFFF" stroke-width="2" stroke-miterlimit="10" x1="-241.9" y1="74.75" x2="-246.8" y2="74.75"/>
	<line fill="none" stroke="#FFFFFF" stroke-width="2" stroke-miterlimit="10" x1="-241.9" y1="38.65" x2="-246.8" y2="38.65"/>
	<line fill="none" stroke="#FFFFFF" stroke-width="2" stroke-miterlimit="10" x1="-241.9" y1="-105.05" x2="-246.8" y2="-105.05"/>
	<line fill="none" stroke="#FFFFFF" stroke-width="2" stroke-miterlimit="10" x1="-241.9" y1="-56.65" x2="-246.8" y2="-56.65"/>
	<line fill="none" stroke="#FFFFFF" stroke-width="2" stroke-miterlimit="10" x1="-241.9" y1="-7.15" x2="-246.8" y2="-7.15"/>
	<line fill="none" stroke="#FFFFFF" stroke-width="2" stroke-miterlimit="10" x1="-241.9" y1="-153.35" x2="-246.8" y2="-153.35"/>
	<line fill="none" stroke="#FFFFFF" stroke-width="2" stroke-miterlimit="10" x1="-241.9" y1="-201.75" x2="-246.8" y2="-201.75"/>
	<line fill="none" stroke="#FFFFFF" stroke-width="2" stroke-miterlimit="10" x1="-241.9" y1="181.15" x2="-246.8" y2="181.15"/>
	<line fill="none" stroke="#FFFFFF" stroke-width="2" stroke-miterlimit="10" x1="-241.9" y1="229.549" x2="-246.8" y2="229.549"/>
	<line fill="none" stroke="#FFFFFF" stroke-width="2" stroke-miterlimit="10" x1="-241.9" y1="132.75" x2="-246.8" y2="132.75"/>
	<line fill="none" stroke="#FFFFFF" stroke-width="2" stroke-miterlimit="10" x1="-241.9" y1="84.45" x2="-246.8" y2="84.45"/>
	<line fill="none" stroke="#FFFFFF" stroke-width="2" stroke-miterlimit="10" x1="241.9" y1="-9.75" x2="246.8" y2="-9.75"/>
	<line fill="none" stroke="#FFFFFF" stroke-width="2" stroke-miterlimit="10" x1="241.9" y1="133.95" x2="246.8" y2="133.95"/>
	<line fill="none" stroke="#FFFFFF" stroke-width="2" stroke-miterlimit="10" x1="241.9" y1="85.549" x2="246.8" y2="85.549"/>
	<line fill="none" stroke="#FFFFFF" stroke-width="2" stroke-miterlimit="10" x1="241.9" y1="36.049" x2="246.8" y2="36.049"/>
	<line fill="none" stroke="#FFFFFF" stroke-width="2" stroke-miterlimit="10" x1="241.9" y1="182.25" x2="246.8" y2="182.25"/>
	<line fill="none" stroke="#FFFFFF" stroke-width="2" stroke-miterlimit="10" x1="241.9" y1="230.65" x2="246.8" y2="230.65"/>
	<line fill="none" stroke="#FFFFFF" stroke-width="2" stroke-miterlimit="10" x1="241.9" y1="-152.25" x2="246.8" y2="-152.25"/>
	<line fill="none" stroke="#FFFFFF" stroke-width="2" stroke-miterlimit="10" x1="241.9" y1="-200.65" x2="246.8" y2="-200.65"/>
	<line fill="none" stroke="#FFFFFF" stroke-width="2" stroke-miterlimit="10" x1="241.9" y1="-103.85" x2="246.8" y2="-103.85"/>
	<line fill="none" stroke="#FFFFFF" stroke-width="2" stroke-miterlimit="10" x1="241.9" y1="-55.55" x2="246.8" y2="-55.55"/>
	<line fill="none" stroke="#FFFFFF" stroke-width="2" stroke-miterlimit="10" x1="241.9" y1="-19.35" x2="246.8" y2="-19.35"/>
	<line fill="none" stroke="#FFFFFF" stroke-width="2" stroke-miterlimit="10" x1="241.9" y1="124.25" x2="246.8" y2="124.25"/>
	<line fill="none" stroke="#FFFFFF" stroke-width="2" stroke-miterlimit="10" x1="241.9" y1="75.85" x2="246.8" y2="75.85"/>
	<line fill="none" stroke="#FFFFFF" stroke-width="2" stroke-miterlimit="10" x1="241.9" y1="26.35" x2="246.8" y2="26.35"/>
	<line fill="none" stroke="#FFFFFF" stroke-width="2" stroke-miterlimit="10" x1="241.9" y1="172.65" x2="246.8" y2="172.65"/>
	<line fill="none" stroke="#FFFFFF" stroke-width="2" stroke-miterlimit="10" x1="241.9" y1="220.95" x2="246.8" y2="220.95"/>
	<line fill="none" stroke="#FFFFFF" stroke-width="2" stroke-miterlimit="10" x1="241.9" y1="-161.95" x2="246.8" y2="-161.95"/>
	<line fill="none" stroke="#FFFFFF" stroke-width="2" stroke-miterlimit="10" x1="241.9" y1="-210.25" x2="246.8" y2="-210.25"/>
	<line fill="none" stroke="#FFFFFF" stroke-width="2" stroke-miterlimit="10" x1="241.9" y1="-113.55" x2="246.8" y2="-113.55"/>
	<line fill="none" stroke="#FFFFFF" stroke-width="2" stroke-miterlimit="10" x1="241.9" y1="-65.15" x2="246.8" y2="-65.15"/>
	<line fill="none" stroke="#FFFFFF" stroke-width="2" stroke-miterlimit="10" x1="241.9" y1="-29.05" x2="246.8" y2="-29.05"/>
	<line fill="none" stroke="#FFFFFF" stroke-width="2" stroke-miterlimit="10" x1="241.9" y1="114.549" x2="246.8" y2="114.549"/>
	<line fill="none" stroke="#FFFFFF" stroke-width="2" stroke-miterlimit="10" x1="241.9" y1="66.25" x2="246.8" y2="66.25"/>
	<line fill="none" stroke="#FFFFFF" stroke-width="2" stroke-miterlimit="10" x1="241.9" y1="16.75" x2="246.8" y2="16.75"/>
	<line fill="none" stroke="#FFFFFF" stroke-width="2" stroke-miterlimit="10" x1="241.9" y1="162.95" x2="246.8" y2="162.95"/>
	<line fill="none" stroke="#FFFFFF" stroke-width="2" stroke-miterlimit="10" x1="241.9" y1="211.35" x2="246.8" y2="211.35"/>
	<line fill="none" stroke="#FFFFFF" stroke-width="2" stroke-miterlimit="10" x1="241.9" y1="-171.55" x2="246.8" y2="-171.55"/>
	<line fill="none" stroke="#FFFFFF" stroke-width="2" stroke-miterlimit="10" x1="241.9" y1="-219.95" x2="246.8" y2="-219.95"/>
	<line fill="none" stroke="#FFFFFF" stroke-width="2" stroke-miterlimit="10" x1="241.9" y1="-123.25" x2="246.8" y2="-123.25"/>
	<line fill="none" stroke="#FFFFFF" stroke-width="2" stroke-miterlimit="10" x1="241.9" y1="-74.85" x2="246.8" y2="-74.85"/>
	<line fill="none" stroke="#FFFFFF" stroke-width="2" stroke-miterlimit="10" x1="241.9" y1="-38.75" x2="246.8" y2="-38.75"/>
	<line fill="none" stroke="#FFFFFF" stroke-width="2" stroke-miterlimit="10" x1="241.9" y1="104.95" x2="246.8" y2="104.95"/>
	<line fill="none" stroke="#FFFFFF" stroke-width="2" stroke-miterlimit="10" x1="241.9" y1="56.549" x2="246.8" y2="56.549"/>
	<line fill="none" stroke="#FFFFFF" stroke-width="2" stroke-miterlimit="10" x1="241.9" y1="7.049" x2="246.8" y2="7.049"/>
	<line fill="none" stroke="#FFFFFF" stroke-width="2" stroke-miterlimit="10" x1="241.9" y1="153.25" x2="246.8" y2="153.25"/>
	<line fill="none" stroke="#FFFFFF" stroke-width="2" stroke-miterlimit="10" x1="241.9" y1="201.65" x2="246.8" y2="201.65"/>
	<line fill="none" stroke="#FFFFFF" stroke-width="2" stroke-miterlimit="10" x1="241.9" y1="-181.25" x2="246.8" y2="-181.25"/>
	<line fill="none" stroke="#FFFFFF" stroke-width="2" stroke-miterlimit="10" x1="241.9" y1="-229.65" x2="246.8" y2="-229.65"/>
	<line fill="none" stroke="#FFFFFF" stroke-width="2" stroke-miterlimit="10" x1="241.9" y1="-132.85" x2="246.8" y2="-132.85"/>
	<line fill="none" stroke="#FFFFFF" stroke-width="2" stroke-miterlimit="10" x1="241.9" y1="-84.55" x2="246.8" y2="-84.55"/>
	
		<rect x="-241.9" y="-241.85" fill="none" stroke="#FFFFFF" stroke-linecap="round" stroke-linejoin="round" stroke-miterlimit="10" width="483.9" height="483.7"/>
</g>
</svg>
