<?xml version="1.0" encoding="utf-8"?>
<!-- Generator: Adobe Illustrator 16.0.0, SVG Export Plug-In . SVG Version: 6.00 Build 0)  -->
<!DOCTYPE svg PUBLIC "-//W3C//DTD SVG 1.1//EN" "http://www.w3.org/Graphics/SVG/1.1/DTD/svg11.dtd">
<svg version="1.1" id="Layer_1" xmlns="http://www.w3.org/2000/svg" xmlns:xlink="http://www.w3.org/1999/xlink" x="0px" y="0px"
	 width="500px" height="500px" viewBox="0 0 500 500" enable-background="new 0 0 500 500" xml:space="preserve">
<g>
	<line fill="none" stroke="#FFFFFF" stroke-width="2" stroke-miterlimit="10" x1="5.351" y1="239.95" x2="5.351" y2="243.95"/>
	<line fill="none" stroke="#FFFFFF" stroke-width="2" stroke-miterlimit="10" x1="-136.28" y1="239.95" x2="-136.28" y2="243.95"/>
	<line fill="none" stroke="#FFFFFF" stroke-width="2" stroke-miterlimit="10" x1="-89.07" y1="239.95" x2="-89.07" y2="243.95"/>
	<line fill="none" stroke="#FFFFFF" stroke-width="2" stroke-miterlimit="10" x1="-41.859" y1="239.95" x2="-41.859" y2="243.95"/>
	<line fill="none" stroke="#FFFFFF" stroke-width="2" stroke-miterlimit="10" x1="-183.49" y1="239.95" x2="-183.49" y2="243.95"/>
	<line fill="none" stroke="#FFFFFF" stroke-width="2" stroke-miterlimit="10" x1="-230.7" y1="239.95" x2="-230.7" y2="243.95"/>
	<line fill="none" stroke="#FFFFFF" stroke-width="2" stroke-miterlimit="10" x1="146.981" y1="239.95" x2="146.981" y2="243.95"/>
	<line fill="none" stroke="#FFFFFF" stroke-width="2" stroke-miterlimit="10" x1="194.191" y1="239.95" x2="194.191" y2="243.95"/>
	<line fill="none" stroke="#FFFFFF" stroke-width="2" stroke-miterlimit="10" x1="99.771" y1="239.95" x2="99.771" y2="243.95"/>
	<line fill="none" stroke="#FFFFFF" stroke-width="2" stroke-miterlimit="10" x1="52.561" y1="239.95" x2="52.561" y2="243.95"/>
	<line fill="none" stroke="#FFFFFF" stroke-width="2" stroke-miterlimit="10" x1="17.153" y1="239.95" x2="17.153" y2="243.95"/>
	
		<line fill="none" stroke="#FFFFFF" stroke-width="2" stroke-miterlimit="10" x1="-124.478" y1="239.95" x2="-124.478" y2="243.95"/>
	<line fill="none" stroke="#FFFFFF" stroke-width="2" stroke-miterlimit="10" x1="-77.268" y1="239.95" x2="-77.268" y2="243.95"/>
	<line fill="none" stroke="#FFFFFF" stroke-width="2" stroke-miterlimit="10" x1="-30.058" y1="239.95" x2="-30.058" y2="243.95"/>
	
		<line fill="none" stroke="#FFFFFF" stroke-width="2" stroke-miterlimit="10" x1="-171.688" y1="239.95" x2="-171.688" y2="243.95"/>
	
		<line fill="none" stroke="#FFFFFF" stroke-width="2" stroke-miterlimit="10" x1="-218.898" y1="239.95" x2="-218.898" y2="243.95"/>
	<line fill="none" stroke="#FFFFFF" stroke-width="2" stroke-miterlimit="10" x1="158.783" y1="239.95" x2="158.783" y2="243.95"/>
	<line fill="none" stroke="#FFFFFF" stroke-width="2" stroke-miterlimit="10" x1="205.994" y1="239.95" x2="205.994" y2="243.95"/>
	<line fill="none" stroke="#FFFFFF" stroke-width="2" stroke-miterlimit="10" x1="111.573" y1="239.95" x2="111.573" y2="243.95"/>
	<line fill="none" stroke="#FFFFFF" stroke-width="2" stroke-miterlimit="10" x1="64.363" y1="239.95" x2="64.363" y2="243.95"/>
	<line fill="none" stroke="#FFFFFF" stroke-width="2" stroke-miterlimit="10" x1="28.955" y1="239.95" x2="28.955" y2="243.95"/>
	
		<line fill="none" stroke="#FFFFFF" stroke-width="2" stroke-miterlimit="10" x1="-112.675" y1="239.95" x2="-112.675" y2="243.95"/>
	<line fill="none" stroke="#FFFFFF" stroke-width="2" stroke-miterlimit="10" x1="-65.465" y1="239.95" x2="-65.465" y2="243.95"/>
	<line fill="none" stroke="#FFFFFF" stroke-width="2" stroke-miterlimit="10" x1="-18.255" y1="239.95" x2="-18.255" y2="243.95"/>
	
		<line fill="none" stroke="#FFFFFF" stroke-width="2" stroke-miterlimit="10" x1="-159.886" y1="239.95" x2="-159.886" y2="243.95"/>
	
		<line fill="none" stroke="#FFFFFF" stroke-width="2" stroke-miterlimit="10" x1="-207.096" y1="239.95" x2="-207.096" y2="243.95"/>
	<line fill="none" stroke="#FFFFFF" stroke-width="2" stroke-miterlimit="10" x1="170.586" y1="239.95" x2="170.586" y2="243.95"/>
	<line fill="none" stroke="#FFFFFF" stroke-width="2" stroke-miterlimit="10" x1="217.796" y1="239.95" x2="217.796" y2="243.95"/>
	<line fill="none" stroke="#FFFFFF" stroke-width="2" stroke-miterlimit="10" x1="123.376" y1="239.95" x2="123.376" y2="243.95"/>
	<line fill="none" stroke="#FFFFFF" stroke-width="2" stroke-miterlimit="10" x1="76.166" y1="239.95" x2="76.166" y2="243.95"/>
	<line fill="none" stroke="#FFFFFF" stroke-width="2" stroke-miterlimit="10" x1="40.758" y1="239.95" x2="40.758" y2="243.95"/>
	
		<line fill="none" stroke="#FFFFFF" stroke-width="2" stroke-miterlimit="10" x1="-100.873" y1="239.95" x2="-100.873" y2="243.95"/>
	<line fill="none" stroke="#FFFFFF" stroke-width="2" stroke-miterlimit="10" x1="-53.662" y1="239.95" x2="-53.662" y2="243.95"/>
	<line fill="none" stroke="#FFFFFF" stroke-width="2" stroke-miterlimit="10" x1="-6.452" y1="239.95" x2="-6.452" y2="243.95"/>
	
		<line fill="none" stroke="#FFFFFF" stroke-width="2" stroke-miterlimit="10" x1="-148.083" y1="239.95" x2="-148.083" y2="243.95"/>
	
		<line fill="none" stroke="#FFFFFF" stroke-width="2" stroke-miterlimit="10" x1="-195.293" y1="239.95" x2="-195.293" y2="243.95"/>
	<line fill="none" stroke="#FFFFFF" stroke-width="2" stroke-miterlimit="10" x1="182.389" y1="239.95" x2="182.389" y2="243.95"/>
	<line fill="none" stroke="#FFFFFF" stroke-width="2" stroke-miterlimit="10" x1="229.599" y1="239.95" x2="229.599" y2="243.95"/>
	<line fill="none" stroke="#FFFFFF" stroke-width="2" stroke-miterlimit="10" x1="135.179" y1="239.95" x2="135.179" y2="243.95"/>
	<line fill="none" stroke="#FFFFFF" stroke-width="2" stroke-miterlimit="10" x1="87.968" y1="239.95" x2="87.968" y2="243.95"/>
</g>
<g>
	<line fill="none" stroke="#FFFFFF" stroke-width="2" stroke-miterlimit="10" x1="5.35" y1="-243.95" x2="5.35" y2="-239.95"/>
	
		<line fill="none" stroke="#FFFFFF" stroke-width="2" stroke-miterlimit="10" x1="-136.28" y1="-243.95" x2="-136.28" y2="-239.95"/>
	<line fill="none" stroke="#FFFFFF" stroke-width="2" stroke-miterlimit="10" x1="-89.07" y1="-243.95" x2="-89.07" y2="-239.95"/>
	<line fill="none" stroke="#FFFFFF" stroke-width="2" stroke-miterlimit="10" x1="-41.86" y1="-243.95" x2="-41.86" y2="-239.95"/>
	
		<line fill="none" stroke="#FFFFFF" stroke-width="2" stroke-miterlimit="10" x1="-183.491" y1="-243.95" x2="-183.491" y2="-239.95"/>
	
		<line fill="none" stroke="#FFFFFF" stroke-width="2" stroke-miterlimit="10" x1="-230.701" y1="-243.95" x2="-230.701" y2="-239.95"/>
	
		<line fill="none" stroke="#FFFFFF" stroke-width="2" stroke-miterlimit="10" x1="146.981" y1="-243.95" x2="146.981" y2="-239.95"/>
	
		<line fill="none" stroke="#FFFFFF" stroke-width="2" stroke-miterlimit="10" x1="194.191" y1="-243.95" x2="194.191" y2="-239.95"/>
	<line fill="none" stroke="#FFFFFF" stroke-width="2" stroke-miterlimit="10" x1="99.771" y1="-243.95" x2="99.771" y2="-239.95"/>
	<line fill="none" stroke="#FFFFFF" stroke-width="2" stroke-miterlimit="10" x1="52.561" y1="-243.95" x2="52.561" y2="-239.95"/>
	<line fill="none" stroke="#FFFFFF" stroke-width="2" stroke-miterlimit="10" x1="17.153" y1="-243.95" x2="17.153" y2="-239.95"/>
	
		<line fill="none" stroke="#FFFFFF" stroke-width="2" stroke-miterlimit="10" x1="-124.478" y1="-243.95" x2="-124.478" y2="-239.95"/>
	
		<line fill="none" stroke="#FFFFFF" stroke-width="2" stroke-miterlimit="10" x1="-77.268" y1="-243.95" x2="-77.268" y2="-239.95"/>
	
		<line fill="none" stroke="#FFFFFF" stroke-width="2" stroke-miterlimit="10" x1="-30.058" y1="-243.95" x2="-30.058" y2="-239.95"/>
	
		<line fill="none" stroke="#FFFFFF" stroke-width="2" stroke-miterlimit="10" x1="-171.688" y1="-243.95" x2="-171.688" y2="-239.95"/>
	
		<line fill="none" stroke="#FFFFFF" stroke-width="2" stroke-miterlimit="10" x1="-218.898" y1="-243.95" x2="-218.898" y2="-239.95"/>
	
		<line fill="none" stroke="#FFFFFF" stroke-width="2" stroke-miterlimit="10" x1="158.783" y1="-243.95" x2="158.783" y2="-239.95"/>
	
		<line fill="none" stroke="#FFFFFF" stroke-width="2" stroke-miterlimit="10" x1="205.994" y1="-243.95" x2="205.994" y2="-239.95"/>
	
		<line fill="none" stroke="#FFFFFF" stroke-width="2" stroke-miterlimit="10" x1="111.573" y1="-243.95" x2="111.573" y2="-239.95"/>
	<line fill="none" stroke="#FFFFFF" stroke-width="2" stroke-miterlimit="10" x1="64.363" y1="-243.95" x2="64.363" y2="-239.95"/>
	<line fill="none" stroke="#FFFFFF" stroke-width="2" stroke-miterlimit="10" x1="28.955" y1="-243.95" x2="28.955" y2="-239.95"/>
	
		<line fill="none" stroke="#FFFFFF" stroke-width="2" stroke-miterlimit="10" x1="-112.675" y1="-243.95" x2="-112.675" y2="-239.95"/>
	
		<line fill="none" stroke="#FFFFFF" stroke-width="2" stroke-miterlimit="10" x1="-65.465" y1="-243.95" x2="-65.465" y2="-239.95"/>
	
		<line fill="none" stroke="#FFFFFF" stroke-width="2" stroke-miterlimit="10" x1="-18.255" y1="-243.95" x2="-18.255" y2="-239.95"/>
	
		<line fill="none" stroke="#FFFFFF" stroke-width="2" stroke-miterlimit="10" x1="-159.886" y1="-243.95" x2="-159.886" y2="-239.95"/>
	
		<line fill="none" stroke="#FFFFFF" stroke-width="2" stroke-miterlimit="10" x1="-207.096" y1="-243.95" x2="-207.096" y2="-239.95"/>
	
		<line fill="none" stroke="#FFFFFF" stroke-width="2" stroke-miterlimit="10" x1="170.586" y1="-243.95" x2="170.586" y2="-239.95"/>
	
		<line fill="none" stroke="#FFFFFF" stroke-width="2" stroke-miterlimit="10" x1="217.796" y1="-243.95" x2="217.796" y2="-239.95"/>
	
		<line fill="none" stroke="#FFFFFF" stroke-width="2" stroke-miterlimit="10" x1="123.375" y1="-243.95" x2="123.375" y2="-239.95"/>
	<line fill="none" stroke="#FFFFFF" stroke-width="2" stroke-miterlimit="10" x1="76.166" y1="-243.95" x2="76.166" y2="-239.95"/>
	<line fill="none" stroke="#FFFFFF" stroke-width="2" stroke-miterlimit="10" x1="40.758" y1="-243.95" x2="40.758" y2="-239.95"/>
	
		<line fill="none" stroke="#FFFFFF" stroke-width="2" stroke-miterlimit="10" x1="-100.873" y1="-243.95" x2="-100.873" y2="-239.95"/>
	
		<line fill="none" stroke="#FFFFFF" stroke-width="2" stroke-miterlimit="10" x1="-53.663" y1="-243.95" x2="-53.663" y2="-239.95"/>
	<line fill="none" stroke="#FFFFFF" stroke-width="2" stroke-miterlimit="10" x1="-6.452" y1="-243.95" x2="-6.452" y2="-239.95"/>
	
		<line fill="none" stroke="#FFFFFF" stroke-width="2" stroke-miterlimit="10" x1="-148.083" y1="-243.95" x2="-148.083" y2="-239.95"/>
	
		<line fill="none" stroke="#FFFFFF" stroke-width="2" stroke-miterlimit="10" x1="-195.293" y1="-243.95" x2="-195.293" y2="-239.95"/>
	
		<line fill="none" stroke="#FFFFFF" stroke-width="2" stroke-miterlimit="10" x1="182.389" y1="-243.95" x2="182.389" y2="-239.95"/>
	
		<line fill="none" stroke="#FFFFFF" stroke-width="2" stroke-miterlimit="10" x1="229.599" y1="-243.95" x2="229.599" y2="-239.95"/>
	
		<line fill="none" stroke="#FFFFFF" stroke-width="2" stroke-miterlimit="10" x1="135.178" y1="-243.95" x2="135.178" y2="-239.95"/>
	<line fill="none" stroke="#FFFFFF" stroke-width="2" stroke-miterlimit="10" x1="87.968" y1="-243.95" x2="87.968" y2="-239.95"/>
</g>
<rect x="-241.8" y="-241.95" fill="none" stroke="#FFFFFF" stroke-width="2" stroke-miterlimit="10" width="483.7" height="483.9"/>
</svg>
