<?xml version="1.0" encoding="iso-8859-1"?>
<!-- Generator: Adobe Illustrator 16.0.0, SVG Export Plug-In . SVG Version: 6.00 Build 0)  -->
<!DOCTYPE svg PUBLIC "-//W3C//DTD SVG 1.1//EN" "http://www.w3.org/Graphics/SVG/1.1/DTD/svg11.dtd">
<svg version="1.1" id="Layer_1" xmlns="http://www.w3.org/2000/svg" xmlns:xlink="http://www.w3.org/1999/xlink" x="0px" y="0px"
	 width="566.929px" height="85.039px" viewBox="0 0 566.929 85.039" style="enable-background:new 0 0 566.929 85.039;"
	 xml:space="preserve">
<g>
	<path d="M34.704,46.023c-0.057,0.259-0.072,0.273-0.229,0.273c-0.043,0-0.187,0-0.187-0.13c0-0.2,0.058-0.516,0.058-0.745
		c0-1.32-0.603-2.769-2.295-2.769c-1.262,0-2.596,0.703-3.5,1.735c-1.391,1.621-1.735,3.815-1.735,4.776
		c0,2.481,1.793,3.056,2.897,3.056c0.846,0,1.979-0.33,2.524-1.134c0.272-0.43,0.545-1.879,0.545-1.894c0-0.215,0-0.329-1.133-0.329
		H31.29c0-0.015-0.115-0.015-0.115-0.158c0-0.258,0.172-0.258,0.301-0.258c0.588,0,1.219,0.028,1.821,0.028h0.775
		c0.258,0,0.531-0.028,0.774-0.028c0.043,0,0.187,0,0.187,0.144c0,0.272-0.172,0.272-0.229,0.272
		c-0.789,0.014-0.818,0.057-0.961,0.603c-0.101,0.43-0.158,0.631-0.273,1.104l-0.229,0.918c-0.071,0.259-0.186,0.761-0.201,0.789
		c-0.014,0-0.029,0.043-0.1,0.043c-0.101,0-0.416-0.387-0.574-0.932c-0.717,0.903-2.022,1.247-3.055,1.247
		c-2.151,0-3.787-1.52-3.787-3.887c0-3.385,3.227-6.512,6.296-6.512c0.215,0,0.832,0,1.449,0.387c0.56,0.33,0.846,0.832,0.918,0.947
		l0.99-1.19c0.115-0.144,0.172-0.144,0.201-0.144c0.029,0,0.129,0,0.129,0.129L34.704,46.023z"/>
</g>
<g>
	<path d="M37.87,52.663c-0.07,0.279-0.14,0.558-0.14,0.847c0,0.538,0.239,0.867,0.737,0.867c0.807,0,1.286-0.907,1.295-0.957
		c0.03-0.1,0.14-0.518,0.259-1.016c0.149-0.618,0.338-1.365,0.468-1.863c0.08-0.339,0.338-0.35,0.388-0.35
		c0.15,0,0.289,0.09,0.289,0.27c0,0.06-0.1,0.438-0.149,0.668c-0.04,0.149-0.14,0.527-0.169,0.677
		c-0.089,0.359-0.189,0.718-0.279,1.076c-0.08,0.349-0.199,0.817-0.199,1.036c0,0.199,0.03,0.459,0.299,0.459
		c0.409,0,0.588-0.588,0.757-1.235c0.03-0.14,0.04-0.18,0.139-0.18c0.03,0,0.12,0,0.12,0.1c0,0.02-0.129,0.628-0.299,0.986
		c-0.159,0.319-0.389,0.548-0.737,0.548c-0.438,0-0.807-0.278-0.896-0.728c-0.239,0.279-0.628,0.728-1.325,0.728
		c-0.2,0-0.648-0.04-0.967-0.309c-0.378,1.534-0.508,2.053-0.548,2.143c-0.02,0.029-0.14,0.209-0.349,0.209
		c-0.169,0-0.279-0.12-0.279-0.27c0-0.02,0-0.039,0.03-0.159l1.435-5.769c0.09-0.35,0.369-0.359,0.398-0.359
		c0.169,0,0.289,0.1,0.289,0.27c0,0.05-0.1,0.428-0.149,0.638L37.87,52.663z"/>
	<path d="M43.245,54.157c1.136-0.368,2.65-1.484,3.288-3.746c0.08-0.289,0.309-0.329,0.389-0.329c0.169,0,0.289,0.1,0.289,0.27
		c0,0.09-0.269,1.444-1.584,2.67c-1.026,0.957-2.112,1.346-2.81,1.465h-0.14c-0.06,0-0.159-0.01-0.159-0.119
		c0-0.021,0.069-0.3,0.109-0.449l0.608-2.44c0.07-0.27,0.189-0.737,0.189-0.808c0-0.1-0.02-0.169-0.499-0.169
		c-0.149,0-0.239,0-0.239-0.12c0-0.179,0.11-0.189,0.189-0.199c0.259-0.02,0.986-0.1,1.216-0.1c0.129,0,0.129,0.1,0.129,0.109
		L43.245,54.157z"/>
</g>
<g>
	<path d="M56.955,52.98c0,0.215,0,0.459-0.272,0.459c-0.258,0-0.258-0.258-0.258-0.459v-3.959h-3.959c-0.215,0-0.459,0-0.459-0.272
		c0-0.258,0.258-0.258,0.459-0.258h3.959v-3.959c0-0.215,0-0.459,0.272-0.459c0.258,0,0.258,0.258,0.258,0.459v3.959h3.958
		c0.215,0,0.459,0,0.459,0.272c0,0.258-0.258,0.258-0.459,0.258h-3.958V52.98z"/>
	<path d="M73.417,51.374c0.172,0.545,0.445,0.545,1.219,0.545v0.416c-0.373-0.028-1.262-0.028-1.678-0.028
		c-0.401,0-1.506,0-1.836,0.028v-0.416c0.359,0,1.104,0,1.104-0.431c0-0.028,0-0.057-0.072-0.258l-2.352-7.258l-2.238,6.899
		c-0.072,0.215-0.072,0.258-0.072,0.315c0,0.315,0.272,0.717,1.004,0.731v0.416c-0.359-0.028-1.062-0.028-1.449-0.028
		c-0.617,0-0.646,0-1.262,0.028v-0.416c0.487-0.015,1.076-0.129,1.348-0.961l2.783-8.606c0.071-0.229,0.158-0.258,0.287-0.258
		c0.158,0,0.229,0.015,0.315,0.301L73.417,51.374z"/>
</g>
<g>
	<path d="M81.42,46.282c0.215,0,0.373,0.157,0.373,0.358c0,0.028,0,0.058-0.043,0.229l-1.592,6.426
		c-0.187,0.774-1.147,1.965-2.998,1.965c-1.219,0-1.807-0.229-1.807-0.817c0-0.474,0.373-0.76,0.717-0.76
		c0.316,0,0.488,0.229,0.488,0.459c0,0.157-0.115,0.559-0.574,0.688c0.359,0.114,0.717,0.144,1.147,0.144
		c0.315,0,0.861,0,1.449-0.589c0.517-0.502,0.603-0.86,0.803-1.649c0.072-0.301,0.072-0.33,0.315-1.291
		c-0.258,0.287-0.932,0.89-1.692,0.89c-0.918,0-1.821-0.731-1.821-2.224c0-2.137,1.778-4.102,3.342-4.102
		c0.717,0,1.119,0.53,1.305,0.946C80.875,46.569,81.076,46.282,81.42,46.282z M80.617,47.76l0.043-0.201
		c0-0.086-0.186-1.262-1.133-1.262c-0.603,0-1.248,0.573-1.664,1.377c-0.315,0.645-0.746,2.252-0.746,3.012
		c0,0.989,0.445,1.362,0.918,1.362c0.445,0,1.047-0.272,1.635-1.032c0.187-0.216,0.215-0.272,0.272-0.502L80.617,47.76z"/>
</g>
<g>
	<path d="M83.705,52.663c-0.07,0.279-0.14,0.558-0.14,0.847c0,0.538,0.239,0.867,0.737,0.867c0.807,0,1.286-0.907,1.295-0.957
		c0.03-0.1,0.14-0.518,0.259-1.016c0.149-0.618,0.338-1.365,0.468-1.863c0.08-0.339,0.338-0.35,0.388-0.35
		c0.15,0,0.289,0.09,0.289,0.27c0,0.06-0.1,0.438-0.149,0.668c-0.04,0.149-0.14,0.527-0.169,0.677
		c-0.089,0.359-0.189,0.718-0.279,1.076c-0.08,0.349-0.199,0.817-0.199,1.036c0,0.199,0.03,0.459,0.299,0.459
		c0.409,0,0.588-0.588,0.757-1.235c0.03-0.14,0.04-0.18,0.139-0.18c0.03,0,0.12,0,0.12,0.1c0,0.02-0.129,0.628-0.299,0.986
		c-0.159,0.319-0.389,0.548-0.737,0.548c-0.438,0-0.807-0.278-0.896-0.728c-0.239,0.279-0.628,0.728-1.325,0.728
		c-0.2,0-0.648-0.04-0.967-0.309c-0.378,1.534-0.508,2.053-0.548,2.143c-0.02,0.029-0.14,0.209-0.349,0.209
		c-0.169,0-0.279-0.12-0.279-0.27c0-0.02,0-0.039,0.03-0.159l1.435-5.769c0.09-0.35,0.369-0.359,0.398-0.359
		c0.169,0,0.289,0.1,0.289,0.27c0,0.05-0.1,0.428-0.149,0.638L83.705,52.663z"/>
	<path d="M89.08,54.157c1.136-0.368,2.65-1.484,3.288-3.746c0.08-0.289,0.309-0.329,0.389-0.329c0.169,0,0.289,0.1,0.289,0.27
		c0,0.09-0.269,1.444-1.584,2.67c-1.026,0.957-2.112,1.346-2.81,1.465h-0.14c-0.06,0-0.159-0.01-0.159-0.119
		c0-0.021,0.069-0.3,0.109-0.449l0.608-2.44c0.07-0.27,0.189-0.737,0.189-0.808c0-0.1-0.02-0.169-0.499-0.169
		c-0.149,0-0.239,0-0.239-0.12c0-0.179,0.11-0.189,0.189-0.199c0.259-0.02,0.986-0.1,1.216-0.1c0.129,0,0.129,0.1,0.129,0.109
		L89.08,54.157z"/>
</g>
<g>
	<path d="M99.096,47.688c-0.215,0-0.459,0-0.459-0.272c0-0.258,0.258-0.258,0.459-0.258h8.448c0.215,0,0.459,0,0.459,0.272
		c0,0.258-0.258,0.258-0.459,0.258H99.096z M99.096,50.355c-0.215,0-0.459,0-0.459-0.272c0-0.258,0.258-0.258,0.459-0.258h8.448
		c0.215,0,0.459,0,0.459,0.272c0,0.258-0.258,0.258-0.459,0.258H99.096z"/>
</g>
<g>
	<path d="M120.395,40.248c0,1.506-1.334,2.682-2.926,2.682c-1.463,0-2.912-0.947-2.912-2.467c0-1.047,0.717-2.008,2.109-2.653
		c-1.004-0.703-1.019-0.717-1.176-0.904c-0.402-0.487-0.545-0.975-0.545-1.463c0-1.305,1.119-2.352,2.539-2.352
		c1.319,0,2.524,0.86,2.524,2.108c0,1.205-1.047,1.864-1.764,2.252C119.362,38.14,120.395,38.785,120.395,40.248z M115.217,40.463
		c0,1.19,1.047,2.08,2.266,2.08c1.147,0,2.252-0.746,2.252-1.836c0-0.875-0.66-1.32-1.033-1.563
		c-0.387-0.258-1.348-0.875-1.736-1.133C116.035,38.44,115.217,39.344,115.217,40.463z M117.957,37.25
		c0.832-0.459,1.463-1.162,1.463-2.037c0-1.033-0.918-1.778-1.951-1.778c-0.961,0-1.936,0.588-1.936,1.52
		c0,0.703,0.574,1.076,0.76,1.205L117.957,37.25z"/>
</g>
<g>
	<path d="M123.876,40.463c-0.143,0.574-0.143,0.603-0.373,1.334c-0.172,0.603-0.287,0.976-0.703,0.976
		c-0.129,0-0.387-0.072-0.387-0.373c0-0.086,0-0.115,0.115-0.344c1.176-2.51,1.535-3.758,1.85-4.833h-0.817
		c-0.358,0-1.104,0-1.85,1.176c-0.072,0.086-0.086,0.129-0.187,0.129c-0.086,0-0.158-0.029-0.158-0.115s0.459-0.846,0.832-1.262
		c0.66-0.703,1.147-0.703,1.477-0.703h4.719c0.258,0,0.53,0,0.53,0.316c0,0.459-0.473,0.459-0.66,0.459h-1.606
		c-0.301,1.291-0.301,2.309-0.301,2.395c0,0.101,0,1.334,0.387,2.324c0.101,0.215,0.101,0.244,0.101,0.315
		c0,0.244-0.258,0.517-0.56,0.517c-0.588,0-0.588-1.549-0.588-1.75c0-1.147,0.244-2.194,0.631-3.801h-1.621L123.876,40.463z"/>
	<path d="M139.274,36.318c-0.057,0.258-0.072,0.272-0.229,0.272c-0.043,0-0.187,0-0.187-0.129c0-0.201,0.058-0.517,0.058-0.746
		c0-1.319-0.603-2.768-2.295-2.768c-1.262,0-2.596,0.703-3.5,1.735c-1.391,1.621-1.735,3.815-1.735,4.776
		c0,2.481,1.793,3.055,2.897,3.055c0.846,0,1.979-0.33,2.524-1.133c0.272-0.43,0.545-1.879,0.545-1.893c0-0.215,0-0.33-1.133-0.33
		h-0.358c0-0.014-0.115-0.014-0.115-0.158c0-0.258,0.172-0.258,0.301-0.258c0.588,0,1.219,0.029,1.821,0.029h0.775
		c0.258,0,0.531-0.029,0.774-0.029c0.043,0,0.187,0,0.187,0.144c0,0.272-0.172,0.272-0.229,0.272
		c-0.789,0.015-0.818,0.058-0.961,0.603c-0.101,0.43-0.158,0.631-0.273,1.104l-0.229,0.918c-0.071,0.258-0.186,0.76-0.201,0.789
		c-0.014,0-0.029,0.043-0.1,0.043c-0.101,0-0.416-0.387-0.574-0.933c-0.717,0.904-2.022,1.248-3.055,1.248
		c-2.151,0-3.787-1.521-3.787-3.887c0-3.385,3.227-6.512,6.296-6.512c0.215,0,0.832,0,1.449,0.387
		c0.56,0.33,0.846,0.832,0.918,0.947l0.99-1.19c0.115-0.144,0.172-0.144,0.201-0.144c0.029,0,0.129,0,0.129,0.129L139.274,36.318z"
		/>
</g>
<g>
	<rect x="113.969" y="48.461" width="26.587" height="0.574"/>
</g>
<g>
	<path d="M125.846,56.137c-0.904,0-1.678,0.774-2.051,1.448c-0.517,0.976-0.76,2.366-0.76,2.868c0,0.718,0.315,1.578,1.305,1.578
		c0.545,0,1.908-0.215,2.826-1.435c0.129-0.129,0.144-0.144,0.187-0.144c0.057,0,0.144,0.072,0.144,0.158
		c0,0.187-1.234,1.707-3.184,1.707c-1.463,0-2.238-1.133-2.238-2.381c0-2.037,1.879-4.088,3.758-4.088
		c0.99,0,1.649,0.53,1.649,1.219c0,0.574-0.387,0.861-0.731,0.861c-0.272,0-0.488-0.173-0.488-0.459c0-0.23,0.158-0.445,0.244-0.517
		c0.201-0.173,0.33-0.173,0.603-0.173C126.821,56.165,126.032,56.137,125.846,56.137z"/>
</g>
<g>
	<path d="M127.825,56.078l3.059-4.673c0.08-0.12,0.11-0.12,0.199-0.12c0.16,0,0.16,0.061,0.16,0.26v4.533h0.996v0.309h-0.996v0.867
		c0,0.358,0.02,0.469,0.757,0.469h0.209v0.309c-0.409-0.03-0.937-0.03-1.355-0.03s-0.937,0-1.345,0.03v-0.309h0.209
		c0.737,0,0.757-0.11,0.757-0.469v-0.867h-2.65V56.078z M130.535,52.361l-2.431,3.717h2.431V52.361z"/>
</g>
<g>
	<path d="M145.811,51.23c-0.057,0.229-0.057,0.33-0.057,0.345c0,0.215,0,0.344,1.291,0.344c0.373,0,0.474,0,0.474,0.144
		c0,0.272-0.144,0.272-0.301,0.272c-0.358,0-0.746-0.028-1.104-0.028h-2.237c-0.359,0-0.732,0.028-1.09,0.028
		c-0.072,0-0.229,0-0.229-0.144c0-0.272,0.101-0.272,0.459-0.272c1.521,0,1.549-0.144,1.692-0.703l1.922-7.702
		c0.071-0.258,0.071-0.287,0.071-0.33c0-0.157-0.143-0.157-0.487-0.157h-0.961c-1.908,0-2.209,0.803-2.812,2.538
		c-0.058,0.187-0.086,0.244-0.201,0.244c-0.086,0-0.144-0.071-0.144-0.144c0-0.014,0.043-0.172,0.057-0.2l0.875-2.582
		c0.086-0.258,0.101-0.272,0.431-0.272h7.846c0.287,0,0.373,0,0.373,0.158c0,0.043,0,0.072-0.029,0.201l-0.416,2.539
		c-0.043,0.229-0.043,0.301-0.187,0.301c-0.086,0-0.144-0.086-0.144-0.144l0.015-0.172c0.086-0.53,0.143-1.075,0.143-1.291
		c0-1.118-0.674-1.176-2.108-1.176c-0.301,0-0.774,0-0.889,0.028c-0.215,0.058-0.244,0.187-0.33,0.531L145.811,51.23z"/>
</g>
<g>
	<path d="M151.868,52.663c-0.07,0.279-0.14,0.558-0.14,0.847c0,0.538,0.239,0.867,0.737,0.867c0.807,0,1.286-0.907,1.295-0.957
		c0.03-0.1,0.14-0.518,0.259-1.016c0.149-0.618,0.338-1.365,0.468-1.863c0.08-0.339,0.338-0.35,0.388-0.35
		c0.15,0,0.289,0.09,0.289,0.27c0,0.06-0.1,0.438-0.149,0.668c-0.04,0.149-0.14,0.527-0.169,0.677
		c-0.089,0.359-0.189,0.718-0.279,1.076c-0.08,0.349-0.199,0.817-0.199,1.036c0,0.199,0.03,0.459,0.299,0.459
		c0.409,0,0.588-0.588,0.757-1.235c0.03-0.14,0.04-0.18,0.139-0.18c0.03,0,0.12,0,0.12,0.1c0,0.02-0.129,0.628-0.299,0.986
		c-0.159,0.319-0.389,0.548-0.737,0.548c-0.438,0-0.807-0.278-0.896-0.728c-0.239,0.279-0.628,0.728-1.325,0.728
		c-0.2,0-0.648-0.04-0.967-0.309c-0.378,1.534-0.508,2.053-0.548,2.143c-0.02,0.029-0.14,0.209-0.349,0.209
		c-0.169,0-0.279-0.12-0.279-0.27c0-0.02,0-0.039,0.03-0.159l1.435-5.769c0.09-0.35,0.369-0.359,0.398-0.359
		c0.169,0,0.289,0.1,0.289,0.27c0,0.05-0.1,0.428-0.149,0.638L151.868,52.663z"/>
	<path d="M157.243,54.157c1.136-0.368,2.65-1.484,3.288-3.746c0.08-0.289,0.309-0.329,0.389-0.329c0.169,0,0.289,0.1,0.289,0.27
		c0,0.09-0.269,1.444-1.584,2.67c-1.026,0.957-2.112,1.346-2.81,1.465h-0.14c-0.06,0-0.159-0.01-0.159-0.119
		c0-0.021,0.069-0.3,0.109-0.449l0.608-2.44c0.07-0.27,0.189-0.737,0.189-0.808c0-0.1-0.02-0.169-0.499-0.169
		c-0.149,0-0.239,0-0.239-0.12c0-0.179,0.11-0.189,0.189-0.199c0.259-0.02,0.986-0.1,1.216-0.1c0.129,0,0.129,0.1,0.129,0.109
		L157.243,54.157z"/>
</g>
</svg>
