<?xml version="1.0" encoding="iso-8859-1"?>
<!-- Generator: Adobe Illustrator 16.0.0, SVG Export Plug-In . SVG Version: 6.00 Build 0)  -->
<!DOCTYPE svg PUBLIC "-//W3C//DTD SVG 1.1//EN" "http://www.w3.org/Graphics/SVG/1.1/DTD/svg11.dtd">
<svg version="1.1" id="Layer_1" xmlns="http://www.w3.org/2000/svg" xmlns:xlink="http://www.w3.org/1999/xlink" x="0px" y="0px"
	 width="566.929px" height="85.039px" viewBox="0 0 566.929 85.039" style="enable-background:new 0 0 566.929 85.039;"
	 xml:space="preserve">
<g>
	<path d="M34.646,65.981c-0.201,0-0.229,0-0.402-0.172c-0.588-0.517-1.133-1.104-1.42-1.435c-3.643-4.288-4.934-9.969-4.934-15.605
		c0-6.038,1.506-12.607,6.311-16.982c0.215-0.215,0.244-0.215,0.445-0.215c0.201,0,0.301,0,0.301,0.144c0,0.043,0,0.072-0.043,0.115
		c-0.631,0.631-1.807,1.807-2.94,3.844c-2.366,4.274-2.883,9.251-2.883,13.11c0,5.522,1.047,10.184,3.356,13.884
		c0.961,1.55,1.922,2.511,2.453,3.041c0.029,0.043,0.057,0.072,0.057,0.129C34.947,65.981,34.847,65.981,34.646,65.981z"/>
</g>
<g>
	<path d="M40.335,34.522c-0.373,0-0.688-0.315-0.688-0.688c0-0.387,0.301-0.703,0.703-0.703c0.344,0,0.688,0.272,0.688,0.703
		C41.038,34.178,40.766,34.522,40.335,34.522z"/>
</g>
<g>
	<path d="M42.501,36.616c0.215,0,0.373,0.158,0.373,0.358c0,0.086-0.129,0.603-0.66,2.754c-0.115,0.416-0.187,0.731-0.287,1.09
		c-0.129,0.559-0.172,0.717-0.172,1.047c0,0.287,0.029,0.66,0.445,0.66c0.588,0,0.86-0.903,1.076-1.75
		c0.057-0.215,0.072-0.287,0.201-0.287c0.086,0,0.144,0.057,0.144,0.129c0,0.058-0.201,0.933-0.43,1.42
		c-0.258,0.516-0.603,0.774-1.033,0.774c-0.431,0-1.104-0.244-1.248-1.09c-0.402,0.474-1.076,1.09-1.865,1.09
		c-0.975,0-1.807-0.832-1.807-2.252c0-2.123,1.75-4.217,3.371-4.217c0.746,0,1.133,0.574,1.291,0.946
		C41.927,37.118,42.042,36.616,42.501,36.616z M41.683,38.151c0.015-0.029,0.058-0.215,0.058-0.229c0-0.115-0.187-1.291-1.133-1.291
		c-0.56,0-1.233,0.517-1.721,1.521c-0.272,0.603-0.717,2.209-0.717,2.998c0,0.846,0.33,1.377,0.918,1.377
		c0.674,0,1.306-0.617,1.621-1.018c0.201-0.273,0.201-0.301,0.272-0.545L41.683,38.151z"/>
</g>
<g>
	<rect x="36.663" y="48.5" width="7.374" height="0.574"/>
</g>
<g>
	<path d="M42.501,56.162c0.215,0,0.373,0.157,0.373,0.358c0,0.086-0.129,0.603-0.66,2.754c-0.115,0.416-0.187,0.731-0.287,1.09
		c-0.129,0.56-0.172,0.718-0.172,1.048c0,0.286,0.029,0.659,0.445,0.659c0.588,0,0.86-0.903,1.076-1.75
		c0.057-0.215,0.072-0.286,0.201-0.286c0.086,0,0.144,0.057,0.144,0.129c0,0.057-0.201,0.932-0.43,1.42
		c-0.258,0.516-0.603,0.774-1.033,0.774c-0.431,0-1.104-0.244-1.248-1.09c-0.402,0.473-1.076,1.09-1.865,1.09
		c-0.975,0-1.807-0.832-1.807-2.252c0-2.123,1.75-4.217,3.371-4.217c0.746,0,1.133,0.573,1.291,0.946
		C41.927,56.664,42.042,56.162,42.501,56.162z M41.683,57.696c0.015-0.028,0.058-0.215,0.058-0.229c0-0.114-0.187-1.29-1.133-1.29
		c-0.56,0-1.233,0.516-1.721,1.52c-0.272,0.603-0.717,2.209-0.717,2.998c0,0.847,0.33,1.377,0.918,1.377
		c0.674,0,1.306-0.616,1.621-1.019c0.201-0.272,0.201-0.301,0.272-0.545L41.683,57.696z"/>
</g>
<g>
	<path d="M46.48,65.767c-0.215,0.215-0.244,0.215-0.445,0.215c-0.172,0-0.301,0-0.301-0.144c0-0.043,0.029-0.086,0.058-0.129
		c0.602-0.603,1.792-1.793,2.926-3.829c2.367-4.274,2.883-9.252,2.883-13.11c0-5.521-1.047-10.184-3.356-13.884
		c-0.961-1.549-1.922-2.51-2.424-3.026c-0.028-0.029-0.086-0.086-0.086-0.144c0-0.144,0.129-0.144,0.301-0.144
		c0.201,0,0.229,0,0.401,0.172c0.588,0.517,1.133,1.104,1.42,1.435c3.643,4.289,4.934,9.969,4.934,15.605
		C52.791,54.822,51.285,61.392,46.48,65.767z"/>
</g>
<g>
	<path d="M59.987,35.419H56.29c0-0.239,0-0.259,0.11-0.369l1.913-2.132c0.548-0.618,1.046-1.405,1.046-2.202
		c0-0.817-0.428-1.624-1.335-1.624c-0.578,0-1.116,0.369-1.345,1.016c0.03-0.01,0.05-0.01,0.129-0.01
		c0.349,0,0.528,0.259,0.528,0.518c0,0.409-0.349,0.528-0.518,0.528c-0.03,0-0.528,0-0.528-0.558c0-0.887,0.737-1.804,1.863-1.804
		c1.216,0,2.112,0.797,2.112,1.933c0,0.997-0.598,1.535-2.152,2.91l-1.056,1.026h1.793c0.219,0,0.876,0,0.946-0.08
		c0.1-0.149,0.169-0.587,0.219-0.887h0.249L59.987,35.419z"/>
</g>
<g>
	<path d="M66.49,47.727c-0.215,0-0.459,0-0.459-0.272c0-0.258,0.258-0.258,0.459-0.258h8.448c0.215,0,0.459,0,0.459,0.272
		c0,0.258-0.258,0.258-0.459,0.258H66.49z M66.49,50.395c-0.215,0-0.459,0-0.459-0.272c0-0.258,0.258-0.258,0.459-0.258h8.448
		c0.215,0,0.459,0,0.459,0.272c0,0.258-0.258,0.258-0.459,0.258H66.49z"/>
</g>
<g>
	<path d="M87.789,40.288c0,1.506-1.334,2.682-2.926,2.682c-1.463,0-2.912-0.947-2.912-2.467c0-1.047,0.717-2.008,2.109-2.653
		c-1.004-0.703-1.019-0.717-1.176-0.904c-0.402-0.487-0.545-0.975-0.545-1.463c0-1.305,1.119-2.352,2.539-2.352
		c1.319,0,2.524,0.86,2.524,2.108c0,1.205-1.047,1.864-1.764,2.252C86.756,38.18,87.789,38.825,87.789,40.288z M82.611,40.503
		c0,1.19,1.047,2.08,2.266,2.08c1.147,0,2.252-0.746,2.252-1.836c0-0.875-0.66-1.32-1.033-1.563
		c-0.387-0.258-1.348-0.875-1.736-1.133C83.428,38.48,82.611,39.384,82.611,40.503z M85.35,37.29
		c0.832-0.459,1.463-1.162,1.463-2.037c0-1.033-0.918-1.778-1.951-1.778c-0.961,0-1.936,0.588-1.936,1.52
		c0,0.703,0.574,1.076,0.76,1.205L85.35,37.29z"/>
</g>
<g>
	<path d="M91.27,40.503c-0.143,0.574-0.143,0.603-0.373,1.334c-0.172,0.603-0.287,0.976-0.703,0.976
		c-0.129,0-0.387-0.072-0.387-0.373c0-0.086,0-0.115,0.115-0.344c1.176-2.51,1.535-3.758,1.851-4.833h-0.818
		c-0.358,0-1.104,0-1.85,1.176c-0.072,0.086-0.086,0.129-0.187,0.129c-0.086,0-0.158-0.029-0.158-0.115s0.459-0.846,0.832-1.262
		c0.66-0.703,1.147-0.703,1.478-0.703h4.719c0.258,0,0.531,0,0.531,0.316c0,0.459-0.473,0.459-0.66,0.459h-1.606
		c-0.301,1.291-0.301,2.309-0.301,2.395c0,0.101,0,1.334,0.387,2.324c0.101,0.215,0.101,0.244,0.101,0.315
		c0,0.244-0.258,0.517-0.56,0.517c-0.588,0-0.588-1.549-0.588-1.75c0-1.147,0.244-2.194,0.631-3.801h-1.621L91.27,40.503z"/>
	<path d="M106.668,36.358c-0.057,0.258-0.072,0.272-0.229,0.272c-0.043,0-0.187,0-0.187-0.129c0-0.201,0.058-0.517,0.058-0.746
		c0-1.319-0.603-2.768-2.295-2.768c-1.262,0-2.596,0.703-3.5,1.735c-1.391,1.621-1.735,3.815-1.735,4.776
		c0,2.481,1.793,3.055,2.897,3.055c0.846,0,1.979-0.33,2.524-1.133c0.272-0.43,0.545-1.879,0.545-1.893c0-0.215,0-0.33-1.133-0.33
		h-0.358c0-0.014-0.115-0.014-0.115-0.158c0-0.258,0.172-0.258,0.301-0.258c0.588,0,1.219,0.029,1.821,0.029h0.775
		c0.258,0,0.53-0.029,0.774-0.029c0.043,0,0.187,0,0.187,0.144c0,0.272-0.172,0.272-0.229,0.272
		c-0.789,0.015-0.818,0.058-0.961,0.603c-0.101,0.43-0.158,0.631-0.272,1.104l-0.229,0.918c-0.072,0.258-0.187,0.76-0.201,0.789
		c-0.014,0-0.028,0.043-0.1,0.043c-0.101,0-0.416-0.387-0.574-0.933c-0.717,0.904-2.022,1.248-3.055,1.248
		c-2.152,0-3.787-1.521-3.787-3.887c0-3.385,3.227-6.512,6.296-6.512c0.215,0,0.832,0,1.449,0.387
		c0.56,0.33,0.846,0.832,0.918,0.947l0.99-1.19c0.115-0.144,0.172-0.144,0.201-0.144c0.029,0,0.129,0,0.129,0.129L106.668,36.358z"
		/>
</g>
<g>
	<rect x="81.363" y="48.5" width="26.587" height="0.574"/>
</g>
<g>
	<path d="M94.214,57.022c0.387-0.015,0.875-0.058,1.305-0.688c0.416-0.616,0.459-1.42,0.459-1.692c0-1.405-0.932-1.621-1.405-1.621
		c-0.072,0-1.42,0-1.965,0.976c0.043-0.015,0.072-0.015,0.158-0.015c0.316,0,0.66,0.201,0.66,0.66c0,0.431-0.344,0.646-0.646,0.646
		c-0.215,0-0.66-0.115-0.66-0.688c0-1.047,1.062-1.922,2.496-1.922c1.391,0,2.567,0.832,2.567,1.965
		c0,1.119-0.803,2.166-2.051,2.524c1.377,0.244,2.438,1.276,2.438,2.596c0,1.449-1.262,2.754-2.969,2.754
		c-1.592,0-2.869-1.047-2.869-2.323c0-0.545,0.373-0.746,0.717-0.746c0.402,0,0.703,0.287,0.703,0.703
		c0,0.517-0.416,0.774-0.875,0.703c0.416,0.946,1.592,1.276,2.28,1.276c0.703,0,1.678-0.502,1.678-2.381
		c0-1.377-0.545-2.381-1.764-2.381h-0.66c-0.258,0-0.33,0-0.33-0.144c0-0.129,0.058-0.144,0.301-0.158L94.214,57.022z"/>
</g>
<g>
	<path d="M110.996,49.262c0.474-1.908,2.008-3.213,3.271-3.213c0.99,0,1.922,0.76,1.922,2.295c0,2.166-1.836,4.174-3.457,4.174
		c-0.56,0-1.09-0.302-1.377-1.019c-0.459,1.765-0.861,3.485-0.918,3.614c-0.086,0.201-0.287,0.345-0.502,0.345
		c-0.215,0-0.387-0.144-0.387-0.358c0-0.086,0.028-0.173,0.043-0.244L110.996,49.262z M114.625,50.523
		c0.244-0.603,0.631-2.022,0.631-2.754c0-0.846-0.359-1.434-1.004-1.434c-0.215,0-1.621,0.071-2.352,2.926
		c-0.043,0.215-0.402,1.577-0.402,1.664c0,0.172,0.244,1.305,1.219,1.305C113.449,52.23,114.195,51.514,114.625,50.523z"/>
</g>
<g>
	<path d="M125.302,53.02c0,0.215,0,0.459-0.273,0.459c-0.258,0-0.258-0.258-0.258-0.459v-3.959h-3.959c-0.215,0-0.459,0-0.459-0.272
		c0-0.258,0.258-0.258,0.459-0.258h3.959v-3.959c0-0.215,0-0.459,0.272-0.459c0.258,0,0.258,0.258,0.258,0.459v3.959h3.958
		c0.215,0,0.459,0,0.459,0.272c0,0.258-0.258,0.258-0.459,0.258h-3.958V53.02z"/>
</g>
<g>
	<path d="M139.234,36.63c-0.904,0-1.678,0.774-2.051,1.449c-0.516,0.976-0.76,2.367-0.76,2.869c0,0.717,0.315,1.578,1.305,1.578
		c0.545,0,1.908-0.215,2.826-1.434c0.129-0.129,0.144-0.144,0.187-0.144c0.058,0,0.144,0.072,0.144,0.158
		c0,0.187-1.233,1.707-3.185,1.707c-1.463,0-2.237-1.133-2.237-2.381c0-2.037,1.879-4.088,3.758-4.088
		c0.99,0,1.649,0.53,1.649,1.219c0,0.574-0.387,0.861-0.731,0.861c-0.272,0-0.487-0.172-0.487-0.459
		c0-0.229,0.158-0.445,0.244-0.516c0.201-0.172,0.33-0.172,0.603-0.172C140.209,36.659,139.421,36.63,139.234,36.63z"/>
</g>
<g>
	<path d="M145.128,37.463h-3.697c0-0.239,0-0.259,0.11-0.369l1.913-2.132c0.548-0.618,1.046-1.405,1.046-2.202
		c0-0.817-0.428-1.624-1.335-1.624c-0.578,0-1.116,0.369-1.345,1.016c0.03-0.01,0.05-0.01,0.129-0.01
		c0.349,0,0.528,0.259,0.528,0.518c0,0.409-0.349,0.528-0.518,0.528c-0.03,0-0.528,0-0.528-0.558c0-0.887,0.737-1.804,1.863-1.804
		c1.216,0,2.112,0.797,2.112,1.933c0,0.997-0.598,1.535-2.152,2.91l-1.056,1.026h1.793c0.219,0,0.876,0,0.946-0.08
		c0.1-0.149,0.169-0.587,0.219-0.887h0.249L145.128,37.463z"/>
</g>
<g>
	<rect x="134.888" y="48.5" width="11.525" height="0.574"/>
</g>
<g>
	<path d="M140.208,57.022c0.387-0.015,0.875-0.058,1.305-0.688c0.416-0.616,0.459-1.42,0.459-1.692c0-1.405-0.932-1.621-1.405-1.621
		c-0.072,0-1.42,0-1.965,0.976c0.043-0.015,0.072-0.015,0.158-0.015c0.316,0,0.66,0.201,0.66,0.66c0,0.431-0.344,0.646-0.646,0.646
		c-0.215,0-0.66-0.115-0.66-0.688c0-1.047,1.062-1.922,2.496-1.922c1.391,0,2.567,0.832,2.567,1.965
		c0,1.119-0.803,2.166-2.051,2.524c1.377,0.244,2.438,1.276,2.438,2.596c0,1.449-1.262,2.754-2.969,2.754
		c-1.592,0-2.869-1.047-2.869-2.323c0-0.545,0.373-0.746,0.717-0.746c0.402,0,0.703,0.287,0.703,0.703
		c0,0.517-0.416,0.774-0.875,0.703c0.416,0.946,1.592,1.276,2.28,1.276c0.703,0,1.678-0.502,1.678-2.381
		c0-1.377-0.545-2.381-1.764-2.381h-0.66c-0.258,0-0.33,0-0.33-0.144c0-0.129,0.058-0.144,0.301-0.158L140.208,57.022z"/>
</g>
<g>
	<path d="M155.683,51.413c0.172,0.545,0.445,0.545,1.219,0.545v0.416c-0.373-0.028-1.262-0.028-1.678-0.028
		c-0.401,0-1.506,0-1.836,0.028v-0.416c0.359,0,1.104,0,1.104-0.431c0-0.028,0-0.057-0.072-0.258l-2.352-7.258l-2.238,6.899
		c-0.072,0.215-0.072,0.258-0.072,0.315c0,0.315,0.272,0.717,1.004,0.731v0.416c-0.359-0.028-1.062-0.028-1.449-0.028
		c-0.617,0-0.646,0-1.262,0.028v-0.416c0.487-0.015,1.076-0.129,1.348-0.961l2.783-8.606c0.071-0.229,0.158-0.258,0.287-0.258
		c0.158,0,0.229,0.015,0.315,0.301L155.683,51.413z"/>
</g>
<g>
	<path d="M162.21,49.075c-0.201,0-0.474,0-0.474-0.287s0.272-0.287,0.474-0.287h7.817c0.201,0,0.473,0,0.473,0.287
		s-0.272,0.287-0.473,0.287H162.21z"/>
</g>
<g>
	<path d="M177.446,48.674c0.531-0.201,1.062-0.746,1.205-0.918c1.019-1.147,1.664-1.707,2.453-1.707c0.646,0,0.976,0.43,0.976,0.846
		c0,0.459-0.344,0.789-0.731,0.789c-0.201,0-0.474-0.114-0.474-0.459c0-0.287,0.201-0.659,0.731-0.717
		c-0.1-0.086-0.186-0.172-0.516-0.172c-0.66,0-1.219,0.459-2.037,1.377c-0.201,0.215-0.717,0.774-1.233,1.09
		c1.319,0.172,2.08,0.646,2.08,1.491c0,0.173,0,0.187-0.058,0.445c-0.057,0.215-0.115,0.53-0.115,0.803
		c0,0.545,0.187,0.688,0.474,0.688c0.731,0,1.033-1.004,1.233-1.75c0.058-0.229,0.072-0.287,0.201-0.287
		c0.086,0,0.144,0.058,0.144,0.13c0,0.057-0.187,0.86-0.488,1.391c-0.115,0.201-0.459,0.804-1.119,0.804
		c-0.731,0-1.276-0.56-1.276-1.392c0-0.071,0-0.243,0.057-0.459c0.043-0.215,0.043-0.272,0.043-0.358
		c0-0.688-0.617-1.119-1.649-1.233c-0.603,2.353-0.545,2.151-0.674,2.682c-0.115,0.445-0.201,0.761-0.603,0.761
		c-0.144,0-0.387-0.058-0.387-0.373c0-0.086,0-0.115,0.057-0.33l2.051-8.204c0.072-0.258,0.072-0.287,0.072-0.345
		c0-0.143,0-0.272-0.731-0.272c-0.144,0-0.287,0-0.287-0.144c0-0.258,0.101-0.272,0.445-0.301c0.258-0.014,0.473-0.043,0.717-0.057
		c0.258-0.029,0.775-0.072,0.789-0.072c0.029,0,0.172,0,0.172,0.144c0,0.071-0.029,0.158-0.043,0.215L177.446,48.674z"/>
</g>
<g>
	<path d="M190.604,36.63c-0.904,0-1.678,0.774-2.051,1.449c-0.517,0.976-0.76,2.367-0.76,2.869c0,0.717,0.315,1.578,1.305,1.578
		c0.545,0,1.908-0.215,2.826-1.434c0.129-0.129,0.144-0.144,0.187-0.144c0.057,0,0.144,0.072,0.144,0.158
		c0,0.187-1.234,1.707-3.184,1.707c-1.463,0-2.238-1.133-2.238-2.381c0-2.037,1.879-4.088,3.758-4.088
		c0.99,0,1.649,0.53,1.649,1.219c0,0.574-0.387,0.861-0.731,0.861c-0.272,0-0.488-0.172-0.488-0.459
		c0-0.229,0.158-0.445,0.244-0.516c0.201-0.172,0.33-0.172,0.603-0.172C191.579,36.659,190.79,36.63,190.604,36.63z"/>
</g>
<g>
	<path d="M196.498,37.463h-3.697c0-0.239,0-0.259,0.11-0.369l1.913-2.132c0.548-0.618,1.046-1.405,1.046-2.202
		c0-0.817-0.428-1.624-1.335-1.624c-0.578,0-1.116,0.369-1.345,1.016c0.03-0.01,0.05-0.01,0.129-0.01
		c0.349,0,0.528,0.259,0.528,0.518c0,0.409-0.349,0.528-0.518,0.528c-0.03,0-0.528,0-0.528-0.558c0-0.887,0.737-1.804,1.863-1.804
		c1.216,0,2.112,0.797,2.112,1.933c0,0.997-0.598,1.535-2.152,2.91l-1.056,1.026h1.793c0.219,0,0.876,0,0.946-0.08
		c0.1-0.149,0.169-0.587,0.219-0.887h0.249L196.498,37.463z"/>
</g>
<g>
	<rect x="183.876" y="48.5" width="16.29" height="0.574"/>
</g>
<g>
	<path d="M192.539,59.002c0,0.115,0,0.172-0.071,0.703c-0.015,0.071-0.187,1.377-0.187,1.721c0,0.646,0.229,0.804,0.588,0.804
		s0.947-0.259,1.291-1.276c0.029-0.115,0.057-0.201,0.172-0.201c0.086,0,0.158,0.043,0.158,0.144c0,0.2-0.502,1.62-1.664,1.62
		c-0.961,0-1.793-0.473-1.793-1.491c0-0.272,0.043-0.431,0.201-1.09c0.101-0.373,0.244-0.933,0.244-1.147
		c0-0.474-0.258-1.334-1.621-1.334h-1.721l-0.961,3.858c-0.028,0.114-0.028,0.215-0.028,0.229c0,0.144,0,0.258,0.875,0.258
		c0.215,0,0.344,0,0.344,0.144c0,0.272-0.158,0.272-0.272,0.272c-0.258,0-0.559-0.028-0.817-0.028h-1.692
		c-0.272,0-0.574,0.028-0.832,0.028c-0.043,0-0.201,0-0.201-0.144c0-0.272,0.1-0.272,0.43-0.272c0.99,0,1.019-0.144,1.147-0.646
		l1.937-7.717c0.057-0.215,0.057-0.301,0.057-0.33c0-0.157,0-0.272-0.861-0.272c-0.272,0-0.373,0-0.373-0.143
		c0-0.273,0.129-0.273,0.416-0.273h3.887c1.994,0,3.127,1.033,3.127,2.152c0,1.233-1.391,2.381-3.17,2.768
		C191.693,57.51,192.539,57.955,192.539,59.002z M188.208,57.166h1.621c2.883,0,3.256-2.108,3.256-2.84
		c0-1.119-0.918-1.492-2.152-1.492H189.9c-0.56,0-0.617,0.029-0.746,0.56L188.208,57.166z"/>
</g>
<g>
	<path d="M198.881,58.07h-3.697c0-0.239,0-0.259,0.11-0.369l1.913-2.132c0.548-0.618,1.046-1.405,1.046-2.202
		c0-0.817-0.428-1.624-1.335-1.624c-0.578,0-1.116,0.369-1.345,1.017c0.03-0.01,0.05-0.01,0.129-0.01
		c0.349,0,0.528,0.259,0.528,0.518c0,0.408-0.349,0.528-0.518,0.528c-0.03,0-0.528,0-0.528-0.559c0-0.887,0.737-1.803,1.863-1.803
		c1.216,0,2.112,0.797,2.112,1.933c0,0.996-0.598,1.534-2.152,2.909l-1.056,1.026h1.793c0.219,0,0.876,0,0.946-0.079
		c0.1-0.149,0.169-0.588,0.219-0.887h0.249L198.881,58.07z"/>
</g>
</svg>
