<?xml version="1.0" encoding="iso-8859-1"?>
<!-- Generator: Adobe Illustrator 16.0.0, SVG Export Plug-In . SVG Version: 6.00 Build 0)  -->
<!DOCTYPE svg PUBLIC "-//W3C//DTD SVG 1.1//EN" "http://www.w3.org/Graphics/SVG/1.1/DTD/svg11.dtd">
<svg version="1.1" id="Layer_1" xmlns="http://www.w3.org/2000/svg" xmlns:xlink="http://www.w3.org/1999/xlink" x="0px" y="0px"
	 width="566.929px" height="85.039px" viewBox="0 0 566.929 85.039" style="enable-background:new 0 0 566.929 85.039;"
	 xml:space="preserve">
<g>
	<path d="M28.428,35.322c-0.344,0-0.66-0.258-0.66-0.66c0-0.402,0.315-0.66,0.66-0.66c0.359,0,0.66,0.301,0.66,0.66
		C29.088,35.021,28.787,35.322,28.428,35.322z M31.139,35.322c-0.358,0-0.66-0.301-0.66-0.66c0-0.359,0.301-0.66,0.66-0.66
		c0.344,0,0.66,0.258,0.66,0.66C31.799,35.064,31.483,35.322,31.139,35.322z"/>
</g>
<g>
	<path d="M31.94,37.488c0.215,0,0.373,0.158,0.373,0.358c0,0.086-0.129,0.603-0.66,2.754c-0.115,0.416-0.187,0.731-0.287,1.09
		c-0.129,0.559-0.172,0.717-0.172,1.047c0,0.287,0.029,0.66,0.445,0.66c0.588,0,0.86-0.903,1.076-1.75
		c0.057-0.215,0.072-0.287,0.201-0.287c0.086,0,0.144,0.057,0.144,0.129c0,0.058-0.201,0.933-0.43,1.42
		c-0.258,0.516-0.603,0.774-1.033,0.774c-0.431,0-1.104-0.244-1.248-1.09c-0.401,0.473-1.076,1.09-1.865,1.09
		c-0.975,0-1.807-0.832-1.807-2.252c0-2.123,1.75-4.217,3.371-4.217c0.746,0,1.133,0.574,1.291,0.946
		C31.366,37.99,31.481,37.488,31.94,37.488z M31.122,39.023c0.015-0.029,0.058-0.215,0.058-0.229c0-0.115-0.187-1.291-1.133-1.291
		c-0.559,0-1.233,0.517-1.721,1.521c-0.272,0.603-0.717,2.209-0.717,2.998c0,0.846,0.33,1.377,0.918,1.377
		c0.674,0,1.305-0.617,1.621-1.018c0.201-0.273,0.201-0.301,0.272-0.545L31.122,39.023z"/>
</g>
<g>
	<rect x="26.102" y="49.373" width="7.374" height="0.574"/>
</g>
<g>
	<path d="M31.94,57.034c0.215,0,0.373,0.157,0.373,0.358c0,0.086-0.129,0.603-0.66,2.754c-0.115,0.416-0.187,0.731-0.287,1.09
		c-0.129,0.56-0.172,0.718-0.172,1.047c0,0.287,0.029,0.66,0.445,0.66c0.588,0,0.86-0.903,1.076-1.75
		c0.057-0.215,0.072-0.287,0.201-0.287c0.086,0,0.144,0.058,0.144,0.13c0,0.057-0.201,0.932-0.43,1.42
		c-0.258,0.517-0.603,0.774-1.033,0.774c-0.431,0-1.104-0.244-1.248-1.09c-0.401,0.473-1.076,1.09-1.865,1.09
		c-0.975,0-1.807-0.832-1.807-2.252c0-2.123,1.75-4.217,3.371-4.217c0.746,0,1.133,0.573,1.291,0.946
		C31.366,57.536,31.481,57.034,31.94,57.034z M31.122,58.568c0.015-0.028,0.058-0.215,0.058-0.229c0-0.114-0.187-1.29-1.133-1.29
		c-0.559,0-1.233,0.516-1.721,1.52c-0.272,0.603-0.717,2.209-0.717,2.998c0,0.847,0.33,1.377,0.918,1.377
		c0.674,0,1.305-0.616,1.621-1.019c0.201-0.272,0.201-0.301,0.272-0.545L31.122,58.568z"/>
</g>
<g>
	<path d="M39.891,48.599c-0.215,0-0.459,0-0.459-0.272c0-0.258,0.258-0.258,0.459-0.258h8.448c0.215,0,0.459,0,0.459,0.272
		c0,0.258-0.258,0.258-0.459,0.258H39.891z M39.891,51.267c-0.215,0-0.459,0-0.459-0.272c0-0.258,0.258-0.258,0.459-0.258h8.448
		c0.215,0,0.459,0,0.459,0.272c0,0.258-0.258,0.258-0.459,0.258H39.891z"/>
</g>
<g>
	<path d="M55.23,49.947c-0.201,0-0.473,0-0.473-0.287s0.272-0.287,0.473-0.287h7.817c0.201,0,0.473,0,0.473,0.287
		s-0.272,0.287-0.473,0.287H55.23z"/>
</g>
<g>
	<path d="M71.099,40.729h1.449v0.416h-1.449v1.306c0,0.53,0.043,0.674,1.076,0.674h0.287v0.416c-0.33-0.028-1.478-0.028-1.879-0.028
		c-0.402,0-1.535,0-1.865,0.028v-0.416h0.287c1.047,0,1.076-0.144,1.076-0.674v-1.306h-3.772v-0.416l4.317-6.698
		c0.115-0.172,0.158-0.172,0.272-0.172c0.201,0,0.201,0.072,0.201,0.344V40.729z M66.667,40.729h3.485v-5.407L66.667,40.729z"/>
</g>
<g>
	<path d="M75.827,41.375c-0.143,0.574-0.143,0.603-0.373,1.334c-0.172,0.603-0.287,0.976-0.703,0.976
		c-0.129,0-0.387-0.072-0.387-0.373c0-0.086,0-0.114,0.115-0.344c1.176-2.51,1.535-3.758,1.851-4.833h-0.818
		c-0.358,0-1.104,0-1.85,1.176c-0.072,0.086-0.086,0.129-0.187,0.129c-0.086,0-0.158-0.029-0.158-0.115s0.459-0.846,0.832-1.262
		c0.66-0.703,1.147-0.703,1.478-0.703h4.719c0.258,0,0.531,0,0.531,0.316c0,0.459-0.473,0.459-0.66,0.459h-1.606
		c-0.301,1.291-0.301,2.309-0.301,2.395c0,0.101,0,1.334,0.387,2.324c0.101,0.215,0.101,0.244,0.101,0.315
		c0,0.244-0.258,0.517-0.56,0.517c-0.588,0-0.588-1.549-0.588-1.75c0-1.147,0.244-2.194,0.631-3.801h-1.621L75.827,41.375z"/>
	<path d="M91.225,37.23c-0.057,0.258-0.072,0.272-0.229,0.272c-0.043,0-0.187,0-0.187-0.129c0-0.201,0.058-0.517,0.058-0.746
		c0-1.319-0.603-2.768-2.295-2.768c-1.262,0-2.596,0.703-3.5,1.735c-1.391,1.621-1.735,3.815-1.735,4.776
		c0,2.481,1.793,3.055,2.897,3.055c0.846,0,1.979-0.329,2.524-1.133c0.272-0.43,0.545-1.879,0.545-1.893c0-0.215,0-0.33-1.133-0.33
		h-0.358c0-0.014-0.115-0.014-0.115-0.158c0-0.258,0.172-0.258,0.301-0.258c0.588,0,1.219,0.029,1.821,0.029h0.775
		c0.258,0,0.53-0.029,0.774-0.029c0.043,0,0.187,0,0.187,0.144c0,0.272-0.172,0.272-0.229,0.272
		c-0.789,0.015-0.818,0.058-0.961,0.603c-0.101,0.43-0.158,0.631-0.272,1.104l-0.229,0.918c-0.072,0.258-0.187,0.76-0.201,0.789
		c-0.014,0-0.028,0.043-0.1,0.043c-0.101,0-0.416-0.387-0.574-0.932c-0.717,0.904-2.022,1.248-3.055,1.248
		c-2.152,0-3.787-1.52-3.787-3.887c0-3.385,3.227-6.512,6.296-6.512c0.215,0,0.832,0,1.449,0.387c0.56,0.33,0.846,0.832,0.918,0.947
		l0.99-1.19c0.115-0.144,0.172-0.144,0.201-0.144c0.029,0,0.129,0,0.129,0.129L91.225,37.23z"/>
</g>
<g>
	<rect x="65.921" y="49.373" width="26.587" height="0.574"/>
</g>
<g>
	<path d="M78.772,57.895c0.387-0.015,0.875-0.058,1.305-0.688c0.416-0.616,0.459-1.42,0.459-1.692c0-1.405-0.932-1.621-1.405-1.621
		c-0.072,0-1.42,0-1.965,0.976c0.043-0.015,0.072-0.015,0.158-0.015c0.316,0,0.66,0.201,0.66,0.66c0,0.431-0.344,0.646-0.646,0.646
		c-0.215,0-0.66-0.115-0.66-0.688c0-1.047,1.061-1.922,2.496-1.922c1.391,0,2.567,0.832,2.567,1.965
		c0,1.119-0.803,2.166-2.051,2.524c1.377,0.244,2.438,1.276,2.438,2.596c0,1.449-1.262,2.754-2.969,2.754
		c-1.592,0-2.869-1.047-2.869-2.323c0-0.545,0.373-0.746,0.717-0.746c0.402,0,0.703,0.287,0.703,0.703
		c0,0.517-0.416,0.774-0.875,0.703c0.416,0.946,1.592,1.276,2.28,1.276c0.703,0,1.678-0.502,1.678-2.381
		c0-1.377-0.545-2.381-1.764-2.381h-0.66c-0.258,0-0.33,0-0.33-0.144c0-0.129,0.058-0.144,0.301-0.158L78.772,57.895z"/>
</g>
<g>
	<path d="M102.922,61.878c-0.115-0.101-0.316-0.33-0.459-0.502c0-0.015-0.531-0.603-0.918-1.162
		c-2.252-3.327-2.869-7.171-2.869-10.57c0-2.382,0.33-4.69,0.947-6.584c0.99-3.026,2.524-5.02,3.887-6.196
		c0.129-0.115,0.158-0.115,0.344-0.115c0.172,0,0.272,0,0.272,0.144c0,0.029,0,0.072-0.043,0.115
		c-2.51,2.539-4.317,6.282-4.317,12.65c0,3.442,0.574,6.985,2.123,9.739c0.89,1.578,1.664,2.367,2.181,2.883
		c0.028,0.043,0.057,0.072,0.057,0.129c0,0.13-0.115,0.144-0.158,0.144h-0.315c-0.015,0-0.144-0.144-0.172-0.157L102.922,61.878z"/>
</g>
<g>
	<path d="M106.512,50.134c0.474-1.908,2.008-3.213,3.271-3.213c0.99,0,1.922,0.76,1.922,2.295c0,2.166-1.836,4.174-3.457,4.174
		c-0.56,0-1.09-0.302-1.377-1.019c-0.459,1.765-0.861,3.485-0.918,3.614c-0.086,0.201-0.287,0.345-0.502,0.345
		c-0.215,0-0.388-0.144-0.388-0.358c0-0.087,0.029-0.173,0.043-0.244L106.512,50.134z M110.141,51.396
		c0.244-0.603,0.631-2.022,0.631-2.754c0-0.846-0.359-1.434-1.004-1.434c-0.215,0-1.621,0.071-2.353,2.926
		c-0.043,0.215-0.401,1.577-0.401,1.664c0,0.172,0.244,1.305,1.219,1.305C108.965,53.103,109.711,52.386,110.141,51.396z"/>
</g>
<g>
	<path d="M120.819,53.892c0,0.215,0,0.459-0.272,0.459c-0.258,0-0.258-0.258-0.258-0.459v-3.959h-3.959
		c-0.215,0-0.459,0-0.459-0.272c0-0.258,0.258-0.258,0.459-0.258h3.959v-3.959c0-0.215,0-0.459,0.272-0.459
		c0.258,0,0.258,0.258,0.258,0.459v3.959h3.958c0.215,0,0.459,0,0.459,0.272c0,0.258-0.258,0.258-0.459,0.258h-3.958V53.892z"/>
	<path d="M132.276,48.054c0.387-0.015,0.875-0.058,1.305-0.688c0.416-0.616,0.459-1.42,0.459-1.692c0-1.405-0.932-1.621-1.405-1.621
		c-0.072,0-1.42,0-1.965,0.976c0.043-0.015,0.072-0.015,0.158-0.015c0.316,0,0.66,0.201,0.66,0.66c0,0.431-0.344,0.646-0.646,0.646
		c-0.215,0-0.66-0.115-0.66-0.688c0-1.047,1.062-1.922,2.496-1.922c1.391,0,2.567,0.832,2.567,1.965
		c0,1.119-0.803,2.166-2.051,2.524c1.377,0.244,2.438,1.276,2.438,2.596c0,1.449-1.262,2.754-2.969,2.754
		c-1.592,0-2.869-1.047-2.869-2.323c0-0.545,0.373-0.746,0.717-0.746c0.402,0,0.703,0.287,0.703,0.703
		c0,0.517-0.416,0.774-0.875,0.703c0.416,0.946,1.592,1.276,2.28,1.276c0.703,0,1.678-0.502,1.678-2.381
		c0-1.377-0.545-2.381-1.764-2.381h-0.66c-0.258,0-0.33,0-0.33-0.144c0-0.129,0.058-0.144,0.301-0.158L132.276,48.054z"/>
</g>
<g>
	<path d="M141.903,38.908c0.058-0.258,0.101-0.402,0.101-0.746c0-0.43-0.115-0.66-0.444-0.66c-0.574,0-0.847,0.846-1.062,1.692
		c-0.086,0.33-0.101,0.344-0.215,0.344c-0.1,0-0.158-0.071-0.158-0.129s0.201-0.932,0.459-1.449
		c0.272-0.545,0.603-0.746,1.019-0.746c0.574,0,1.133,0.373,1.248,1.09c0.158-0.201,0.933-1.09,1.851-1.09
		c1.076,0,1.821,0.932,1.821,2.252c0,2.108-1.75,4.217-3.371,4.217c-0.746,0-1.133-0.56-1.291-0.961
		c-0.086,0.33-0.731,2.797-0.731,2.969c0,0.115,0.043,0.215,0.703,0.215c0.244,0,0.344,0,0.344,0.158
		c0,0.258-0.172,0.258-0.258,0.258c-0.301,0-1.033-0.028-1.334-0.028h-0.617c-0.187,0-0.387,0.028-0.574,0.028
		c-0.158,0-0.172-0.114-0.172-0.144c0-0.272,0.144-0.272,0.316-0.272c0.588,0,0.646-0.114,0.746-0.545L141.903,38.908z
		 M142.062,41.877c-0.015,0.072-0.043,0.187-0.043,0.229c0,0.058,0.158,1.291,1.133,1.291c0.66,0,1.32-0.688,1.678-1.463
		c0.358-0.746,0.76-2.367,0.76-3.055c0-0.746-0.287-1.377-0.918-1.377c-0.545,0-1.019,0.402-1.176,0.545
		c-0.229,0.201-0.631,0.617-0.731,1.019L142.062,41.877z"/>
</g>
<g>
	<rect x="137.428" y="49.373" width="11.525" height="0.574"/>
</g>
<g>
	<path d="M141.774,57.049c-0.904,0-1.678,0.774-2.051,1.448c-0.516,0.976-0.76,2.366-0.76,2.868c0,0.718,0.315,1.578,1.305,1.578
		c0.545,0,1.908-0.215,2.826-1.435c0.129-0.129,0.144-0.144,0.187-0.144c0.058,0,0.144,0.072,0.144,0.158
		c0,0.187-1.233,1.707-3.185,1.707c-1.463,0-2.237-1.133-2.237-2.381c0-2.037,1.879-4.088,3.758-4.088
		c0.99,0,1.649,0.53,1.649,1.219c0,0.574-0.387,0.861-0.731,0.861c-0.272,0-0.487-0.173-0.487-0.459c0-0.23,0.158-0.445,0.244-0.517
		c0.201-0.173,0.33-0.173,0.603-0.173C142.75,57.077,141.961,57.049,141.774,57.049z"/>
</g>
<g>
	<path d="M147.669,58.942h-3.697c0-0.239,0-0.259,0.11-0.369l1.913-2.132c0.548-0.618,1.046-1.405,1.046-2.202
		c0-0.817-0.428-1.624-1.335-1.624c-0.578,0-1.116,0.369-1.345,1.017c0.03-0.01,0.05-0.01,0.129-0.01
		c0.349,0,0.528,0.259,0.528,0.518c0,0.408-0.349,0.528-0.518,0.528c-0.03,0-0.528,0-0.528-0.559c0-0.887,0.737-1.803,1.863-1.803
		c1.216,0,2.112,0.797,2.112,1.933c0,0.996-0.598,1.534-2.152,2.909l-1.056,1.026h1.793c0.219,0,0.876,0,0.946-0.079
		c0.1-0.149,0.169-0.588,0.219-0.887h0.249L147.669,58.942z"/>
</g>
<g>
	<path d="M155.169,56.241c-0.99,3.026-2.524,5.02-3.887,6.196c-0.129,0.114-0.158,0.114-0.344,0.114c-0.144,0-0.273,0-0.273-0.144
		c0-0.043,0.029-0.086,0.058-0.114c2.582-2.625,4.303-6.426,4.303-12.65c0-3.442-0.573-6.985-2.123-9.739
		c-0.889-1.578-1.664-2.367-2.151-2.869c-0.029-0.028-0.086-0.086-0.086-0.143c0-0.144,0.129-0.144,0.273-0.144
		c0.186,0,0.215,0,0.315,0.086c0.344,0.301,0.875,0.861,1.076,1.09c2.826,3.227,3.787,7.602,3.787,11.719
		C156.116,51.952,155.8,54.276,155.169,56.241z"/>
</g>
<g>
	<path d="M167.628,53.892c0,0.215,0,0.459-0.272,0.459c-0.258,0-0.258-0.258-0.258-0.459v-3.959h-3.959
		c-0.215,0-0.459,0-0.459-0.272c0-0.258,0.258-0.258,0.459-0.258h3.959v-3.959c0-0.215,0-0.459,0.272-0.459
		c0.258,0,0.258,0.258,0.258,0.459v3.959h3.958c0.215,0,0.459,0,0.459,0.272c0,0.258-0.258,0.258-0.459,0.258h-3.958V53.892z"/>
</g>
<g>
	<path d="M181.56,37.502c-0.904,0-1.678,0.774-2.051,1.449c-0.517,0.976-0.76,2.367-0.76,2.869c0,0.717,0.315,1.578,1.305,1.578
		c0.545,0,1.908-0.215,2.826-1.434c0.129-0.129,0.144-0.144,0.187-0.144c0.057,0,0.144,0.072,0.144,0.158
		c0,0.187-1.234,1.707-3.184,1.707c-1.463,0-2.238-1.133-2.238-2.381c0-2.037,1.879-4.088,3.758-4.088
		c0.99,0,1.649,0.53,1.649,1.219c0,0.574-0.387,0.861-0.731,0.861c-0.272,0-0.488-0.172-0.488-0.459
		c0-0.229,0.158-0.445,0.244-0.516c0.201-0.172,0.33-0.172,0.603-0.172C182.535,37.531,181.746,37.502,181.56,37.502z"/>
</g>
<g>
	<path d="M187.454,38.335h-3.697c0-0.239,0-0.259,0.11-0.369l1.913-2.132c0.548-0.618,1.046-1.405,1.046-2.202
		c0-0.817-0.428-1.624-1.335-1.624c-0.578,0-1.116,0.369-1.345,1.016c0.03-0.01,0.05-0.01,0.129-0.01
		c0.349,0,0.528,0.259,0.528,0.518c0,0.409-0.349,0.528-0.518,0.528c-0.03,0-0.528,0-0.528-0.558c0-0.887,0.737-1.804,1.863-1.804
		c1.216,0,2.112,0.797,2.112,1.933c0,0.997-0.598,1.535-2.152,2.91l-1.056,1.026h1.793c0.219,0,0.876,0,0.946-0.08
		c0.1-0.149,0.169-0.587,0.219-0.887h0.249L187.454,38.335z"/>
</g>
<g>
	<rect x="177.214" y="49.373" width="11.525" height="0.574"/>
</g>
<g>
	<path d="M182.533,57.895c0.387-0.015,0.875-0.058,1.305-0.688c0.416-0.616,0.459-1.42,0.459-1.692c0-1.405-0.932-1.621-1.405-1.621
		c-0.072,0-1.42,0-1.965,0.976c0.043-0.015,0.072-0.015,0.158-0.015c0.316,0,0.66,0.201,0.66,0.66c0,0.431-0.344,0.646-0.646,0.646
		c-0.215,0-0.66-0.115-0.66-0.688c0-1.047,1.061-1.922,2.496-1.922c1.391,0,2.567,0.832,2.567,1.965
		c0,1.119-0.803,2.166-2.051,2.524c1.377,0.244,2.438,1.276,2.438,2.596c0,1.449-1.262,2.754-2.969,2.754
		c-1.592,0-2.869-1.047-2.869-2.323c0-0.545,0.373-0.746,0.717-0.746c0.402,0,0.703,0.287,0.703,0.703
		c0,0.517-0.416,0.774-0.875,0.703c0.416,0.946,1.592,1.276,2.28,1.276c0.703,0,1.678-0.502,1.678-2.381
		c0-1.377-0.545-2.381-1.764-2.381h-0.66c-0.258,0-0.33,0-0.33-0.144c0-0.129,0.058-0.144,0.301-0.158L182.533,57.895z"/>
</g>
<g>
	<path d="M198.009,52.285c0.172,0.545,0.445,0.545,1.219,0.545v0.416c-0.373-0.028-1.262-0.028-1.678-0.028
		c-0.401,0-1.506,0-1.836,0.028V52.83c0.359,0,1.104,0,1.104-0.431c0-0.028,0-0.057-0.072-0.258l-2.352-7.258l-2.238,6.899
		c-0.072,0.215-0.072,0.258-0.072,0.315c0,0.315,0.272,0.717,1.004,0.731v0.416c-0.359-0.028-1.062-0.028-1.449-0.028
		c-0.617,0-0.646,0-1.262,0.028V52.83c0.487-0.015,1.076-0.129,1.348-0.961l2.783-8.605c0.071-0.23,0.158-0.259,0.287-0.259
		c0.158,0,0.229,0.015,0.315,0.302L198.009,52.285z"/>
</g>
</svg>
