<?xml version="1.0" encoding="iso-8859-1"?>
<!-- Generator: Adobe Illustrator 16.0.0, SVG Export Plug-In . SVG Version: 6.00 Build 0)  -->
<!DOCTYPE svg PUBLIC "-//W3C//DTD SVG 1.1//EN" "http://www.w3.org/Graphics/SVG/1.1/DTD/svg11.dtd">
<svg version="1.1" id="Layer_1" xmlns="http://www.w3.org/2000/svg" xmlns:xlink="http://www.w3.org/1999/xlink" x="0px" y="0px"
	 width="566.929px" height="85.039px" viewBox="0 0 566.929 85.039" style="enable-background:new 0 0 566.929 85.039;"
	 xml:space="preserve">
<g>
	<path d="M28.264,51.47c-0.129,0-0.846,0-1.363-0.444c-0.445-0.402-0.488-0.99-0.488-1.306c0-0.345,0-0.789,0.688-2.625
		c0.215-0.545,0.373-0.961,0.373-1.334c0-0.473-0.244-0.473-0.373-0.473c-0.545,0-1.104,0.545-1.448,1.778
		c-0.058,0.2-0.072,0.258-0.201,0.258c-0.1,0-0.158-0.071-0.158-0.129c0-0.115,0.531-2.194,1.85-2.194
		c0.703,0,1.133,0.545,1.133,1.147c0,0.287-0.057,0.43-0.287,1.019c-0.388,1.032-0.717,2.036-0.717,2.754
		c0,0.53,0.172,1.262,1.047,1.262c1.721,0,2.582-3.356,2.582-3.959c0-0.745-0.373-1.133-0.517-1.262
		c-0.057-0.058-0.158-0.158-0.158-0.33c0-0.287,0.315-0.631,0.66-0.631c0.115,0,0.574,0.058,0.574,0.961
		C31.462,46.779,30.645,51.47,28.264,51.47z"/>
</g>
<g>
	<path d="M37.43,46.679c-0.215,0-0.459,0-0.459-0.272c0-0.258,0.258-0.258,0.459-0.258h8.448c0.215,0,0.459,0,0.459,0.272
		c0,0.258-0.258,0.258-0.459,0.258H37.43z M37.43,49.347c-0.215,0-0.459,0-0.459-0.272c0-0.258,0.258-0.258,0.459-0.258h8.448
		c0.215,0,0.459,0,0.459,0.272c0,0.258-0.258,0.258-0.459,0.258H37.43z"/>
</g>
<g>
	<path d="M59.872,50.423c-0.029,0.114-0.029,0.215-0.029,0.229c0,0.144,0,0.258,0.875,0.258c0.215,0,0.344,0,0.344,0.144
		c0,0.272-0.158,0.272-0.272,0.272c-0.272,0-0.574-0.028-0.846-0.028h-1.692c-0.272,0-0.574,0.028-0.832,0.028
		c-0.043,0-0.201,0-0.201-0.144c0-0.272,0.129-0.272,0.301-0.272c0.846-0.015,1.076-0.015,1.233-0.444
		c0.029-0.086,0.76-3.084,1.004-4.03h-4.346l-0.99,3.987c-0.029,0.114-0.029,0.215-0.029,0.229c0,0.144,0,0.258,0.875,0.258
		c0.215,0,0.344,0,0.344,0.144c0,0.272-0.158,0.272-0.272,0.272c-0.273,0-0.574-0.028-0.846-0.028H52.8
		c-0.272,0-0.574,0.028-0.832,0.028c-0.043,0-0.201,0-0.201-0.144c0-0.272,0.101-0.272,0.431-0.272c0.989,0,1.018-0.144,1.147-0.646
		l1.936-7.717c0.058-0.215,0.058-0.301,0.058-0.33c0-0.158,0-0.272-0.861-0.272c-0.272,0-0.373,0-0.373-0.144
		c0-0.272,0.172-0.272,0.272-0.272c0.273,0,0.574,0.029,0.847,0.029h1.692c0.272,0,0.574-0.029,0.832-0.029
		c0.086,0,0.215,0,0.215,0.158c0,0.258-0.144,0.258-0.401,0.258c-1.019,0-1.047,0.143-1.176,0.631l-0.861,3.443h4.332l0.875-3.472
		c0.057-0.215,0.057-0.301,0.057-0.33c0-0.158,0-0.272-0.86-0.272c-0.273,0-0.373,0-0.373-0.144c0-0.272,0.172-0.272,0.272-0.272
		c0.272,0,0.574,0.029,0.846,0.029h1.692c0.272,0,0.574-0.029,0.832-0.029c0.086,0,0.215,0,0.215,0.158
		c0,0.258-0.144,0.258-0.402,0.258c-1.018,0-1.047,0.143-1.176,0.631L59.872,50.423z"/>
</g>
<g>
	<path d="M66.962,52.542c-0.438,0.946-1.196,1.155-1.734,1.155c-0.488,0-1.215-0.199-1.644-1.006
		c-0.409-0.757-0.448-1.654-0.448-2.401c0-0.797,0.05-1.574,0.369-2.262c0.409-0.927,1.136-1.186,1.734-1.186
		c0.418,0,1.235,0.159,1.694,1.115c0.349,0.737,0.398,1.535,0.398,2.332C67.331,51.077,67.281,51.854,66.962,52.542z M66.394,52.233
		c0.109-0.638,0.109-1.315,0.109-2.062c0-0.628,0-1.386-0.1-1.943c-0.189-0.986-0.847-1.166-1.176-1.166
		c-0.249,0-0.996,0.09-1.186,1.275c-0.08,0.538-0.08,1.196-0.08,1.834c0,0.588,0,1.504,0.109,2.102
		c0.179,0.957,0.767,1.206,1.156,1.206C65.676,53.479,66.245,53.18,66.394,52.233z"/>
</g>
<g>
	<path d="M72.414,42.548c0.058-0.215,0.058-0.301,0.058-0.33c0-0.158,0-0.272-0.875-0.272c-0.215,0-0.344,0-0.344-0.144
		c0-0.272,0.129-0.272,0.402-0.272h4.604c2.051,0,3.285,1.535,3.285,3.6c0,3.198-2.826,6.196-5.723,6.196h-4.547
		c-0.287,0-0.373,0-0.373-0.158c0-0.258,0.143-0.258,0.416-0.258c1.004,0,1.032-0.144,1.162-0.646L72.414,42.548z M71.525,50.423
		c-0.029,0.129-0.057,0.215-0.057,0.315c0,0.114,0.014,0.144,0.172,0.157c0.086,0.015,0.115,0.015,0.315,0.015h1.635
		c1.649,0,2.74-0.989,3.141-1.463c1.392-1.578,1.678-4.073,1.678-4.791c0-1.979-1.233-2.71-2.582-2.71H74.25
		c-0.559,0-0.617,0.029-0.746,0.559L71.525,50.423z"/>
</g>
</svg>
