<?xml version="1.0" encoding="iso-8859-1"?>
<!-- Generator: Adobe Illustrator 16.0.0, SVG Export Plug-In . SVG Version: 6.00 Build 0)  -->
<!DOCTYPE svg PUBLIC "-//W3C//DTD SVG 1.1//EN" "http://www.w3.org/Graphics/SVG/1.1/DTD/svg11.dtd">
<svg version="1.1" id="Layer_1" xmlns="http://www.w3.org/2000/svg" xmlns:xlink="http://www.w3.org/1999/xlink" x="0px" y="0px"
	 width="566.929px" height="85.039px" viewBox="0 0 566.929 85.039" style="enable-background:new 0 0 566.929 85.039;"
	 xml:space="preserve">
<g>
	<path d="M26.571,49.334c-0.201,0-0.474,0-0.474-0.287s0.272-0.287,0.474-0.287h7.817c0.201,0,0.473,0,0.473,0.287
		s-0.272,0.287-0.473,0.287H26.571z"/>
</g>
<g>
	<path d="M40.411,46.595c-0.904,0-1.678,0.774-2.051,1.448c-0.516,0.976-0.76,2.366-0.76,2.869c0,0.717,0.315,1.577,1.305,1.577
		c0.545,0,1.908-0.215,2.826-1.435c0.129-0.129,0.144-0.143,0.187-0.143c0.058,0,0.144,0.071,0.144,0.157
		c0,0.187-1.233,1.707-3.185,1.707c-1.463,0-2.237-1.133-2.237-2.381c0-2.037,1.879-4.088,3.758-4.088
		c0.99,0,1.649,0.53,1.649,1.219c0,0.574-0.387,0.86-0.731,0.86c-0.272,0-0.487-0.172-0.487-0.459c0-0.229,0.158-0.444,0.244-0.516
		c0.201-0.172,0.33-0.172,0.603-0.172C41.386,46.623,40.598,46.595,40.411,46.595z"/>
</g>
<g>
	<path d="M46.305,46.71h-3.697c0-0.239,0-0.259,0.11-0.369l1.913-2.132c0.548-0.618,1.046-1.405,1.046-2.202
		c0-0.817-0.428-1.624-1.335-1.624c-0.578,0-1.116,0.369-1.345,1.016c0.03-0.01,0.05-0.01,0.129-0.01
		c0.349,0,0.528,0.259,0.528,0.518c0,0.409-0.349,0.528-0.518,0.528c-0.03,0-0.528,0-0.528-0.558c0-0.887,0.737-1.804,1.863-1.804
		c1.216,0,2.112,0.797,2.112,1.933c0,0.997-0.598,1.534-2.152,2.909l-1.056,1.026h1.793c0.219,0,0.876,0,0.946-0.079
		c0.1-0.149,0.169-0.588,0.219-0.887h0.249L46.305,46.71z"/>
</g>
<g>
	<path d="M52.782,51.069c-0.101,0.401-0.101,0.703-0.101,0.761c0,0.286,0.029,0.659,0.445,0.659c0.588,0,0.86-0.903,1.076-1.75
		c0.057-0.215,0.072-0.286,0.201-0.286c0.086,0,0.144,0.057,0.144,0.129c0,0.057-0.201,0.932-0.43,1.42
		c-0.258,0.516-0.603,0.774-1.033,0.774c-0.431,0-1.104-0.244-1.248-1.09c-0.402,0.473-1.076,1.09-1.865,1.09
		c-0.975,0-1.807-0.832-1.807-2.252c0-2.123,1.75-4.217,3.371-4.217c0.746,0,1.133,0.573,1.291,0.946l0.875-3.485
		c0.014-0.043,0.043-0.157,0.043-0.244c0-0.143-0.015-0.272-0.717-0.272c-0.201,0-0.315,0-0.315-0.143
		c0-0.259,0.1-0.273,0.459-0.302c0.258-0.014,0.473-0.043,0.717-0.057c0.071-0.015,0.774-0.072,0.789-0.072
		c0.029,0,0.172,0,0.172,0.144c0,0.071-0.029,0.158-0.043,0.215L52.782,51.069z M52.61,48.114c0.015-0.028,0.058-0.215,0.058-0.229
		c0-0.114-0.187-1.29-1.133-1.29c-0.56,0-1.233,0.516-1.721,1.52c-0.272,0.603-0.717,2.209-0.717,2.998
		c0,0.847,0.33,1.377,0.918,1.377c0.674,0,1.306-0.616,1.621-1.019c0.201-0.272,0.201-0.301,0.272-0.545L52.61,48.114z"/>
	<path d="M58.03,52.188c-0.043,0.215-0.115,0.603-0.56,0.603c-0.287,0-0.387-0.201-0.387-0.359c0-0.043,0-0.071,0.072-0.286
		l1.492-4.92h-1.19c-0.358,0-1.104,0-1.85,1.176c-0.072,0.086-0.086,0.129-0.187,0.129c-0.086,0-0.158-0.028-0.158-0.114
		s0.459-0.847,0.832-1.263c0.66-0.702,1.147-0.702,1.478-0.702h3.944c0.258,0,0.531,0,0.531,0.315c0,0.459-0.473,0.459-0.66,0.459
		h-2.381L58.03,52.188z"/>
</g>
<g>
	<path d="M66.787,46.71H63.09c0-0.239,0-0.259,0.11-0.369l1.913-2.132c0.548-0.618,1.046-1.405,1.046-2.202
		c0-0.817-0.428-1.624-1.335-1.624c-0.578,0-1.116,0.369-1.345,1.016c0.03-0.01,0.05-0.01,0.129-0.01
		c0.349,0,0.528,0.259,0.528,0.518c0,0.409-0.349,0.528-0.518,0.528c-0.03,0-0.528,0-0.528-0.558c0-0.887,0.737-1.804,1.863-1.804
		c1.216,0,2.112,0.797,2.112,1.933c0,0.997-0.598,1.534-2.152,2.909l-1.056,1.026h1.793c0.219,0,0.876,0,0.946-0.079
		c0.1-0.149,0.169-0.588,0.219-0.887h0.249L66.787,46.71z"/>
</g>
<g>
	<path d="M73.29,47.985c-0.215,0-0.459,0-0.459-0.272c0-0.258,0.258-0.258,0.459-0.258h8.448c0.215,0,0.459,0,0.459,0.272
		c0,0.258-0.258,0.258-0.459,0.258H73.29z M73.29,50.653c-0.215,0-0.459,0-0.459-0.272c0-0.258,0.258-0.258,0.459-0.258h8.448
		c0.215,0,0.459,0,0.459,0.272c0,0.258-0.258,0.258-0.459,0.258H73.29z"/>
</g>
<g>
	<path d="M88.631,49.334c-0.201,0-0.474,0-0.474-0.287s0.272-0.287,0.474-0.287h7.817c0.201,0,0.473,0,0.473,0.287
		s-0.272,0.287-0.473,0.287H88.631z"/>
</g>
<g>
	<path d="M102.471,46.595c-0.904,0-1.678,0.774-2.051,1.448c-0.517,0.976-0.76,2.366-0.76,2.869c0,0.717,0.315,1.577,1.305,1.577
		c0.545,0,1.908-0.215,2.826-1.435c0.129-0.129,0.144-0.143,0.187-0.143c0.057,0,0.144,0.071,0.144,0.157
		c0,0.187-1.234,1.707-3.184,1.707c-1.463,0-2.238-1.133-2.238-2.381c0-2.037,1.879-4.088,3.758-4.088
		c0.99,0,1.649,0.53,1.649,1.219c0,0.574-0.387,0.86-0.731,0.86c-0.272,0-0.488-0.172-0.488-0.459c0-0.229,0.158-0.444,0.244-0.516
		c0.201-0.172,0.33-0.172,0.603-0.172C103.446,46.623,102.657,46.595,102.471,46.595z"/>
</g>
<g>
	<path d="M108.366,46.71h-3.697c0-0.239,0-0.259,0.11-0.369l1.913-2.132c0.548-0.618,1.046-1.405,1.046-2.202
		c0-0.817-0.428-1.624-1.335-1.624c-0.578,0-1.116,0.369-1.345,1.016c0.03-0.01,0.05-0.01,0.129-0.01
		c0.349,0,0.528,0.259,0.528,0.518c0,0.409-0.349,0.528-0.518,0.528c-0.03,0-0.528,0-0.528-0.558c0-0.887,0.737-1.804,1.863-1.804
		c1.216,0,2.112,0.797,2.112,1.933c0,0.997-0.598,1.534-2.152,2.909l-1.056,1.026h1.793c0.219,0,0.876,0,0.946-0.079
		c0.1-0.149,0.169-0.588,0.219-0.887h0.249L108.366,46.71z"/>
</g>
<g>
	<path d="M114.842,51.069c-0.101,0.401-0.101,0.703-0.101,0.761c0,0.286,0.029,0.659,0.445,0.659c0.588,0,0.86-0.903,1.076-1.75
		c0.057-0.215,0.072-0.286,0.201-0.286c0.086,0,0.144,0.057,0.144,0.129c0,0.057-0.201,0.932-0.43,1.42
		c-0.258,0.516-0.603,0.774-1.033,0.774c-0.431,0-1.104-0.244-1.248-1.09c-0.401,0.473-1.076,1.09-1.865,1.09
		c-0.975,0-1.807-0.832-1.807-2.252c0-2.123,1.75-4.217,3.371-4.217c0.746,0,1.133,0.573,1.291,0.946l0.875-3.485
		c0.014-0.043,0.043-0.157,0.043-0.244c0-0.143-0.014-0.272-0.717-0.272c-0.201,0-0.315,0-0.315-0.143
		c0-0.259,0.101-0.273,0.459-0.302c0.258-0.014,0.473-0.043,0.717-0.057c0.072-0.015,0.774-0.072,0.789-0.072
		c0.029,0,0.172,0,0.172,0.144c0,0.071-0.029,0.158-0.043,0.215L114.842,51.069z M114.67,48.114
		c0.015-0.028,0.058-0.215,0.058-0.229c0-0.114-0.187-1.29-1.133-1.29c-0.559,0-1.233,0.516-1.721,1.52
		c-0.272,0.603-0.717,2.209-0.717,2.998c0,0.847,0.33,1.377,0.918,1.377c0.674,0,1.305-0.616,1.621-1.019
		c0.201-0.272,0.201-0.301,0.272-0.545L114.67,48.114z"/>
	<path d="M118.713,51.356c-0.043,0.172-0.043,0.444-0.043,0.459c0,0.315,0.029,0.674,0.459,0.674c0.832,0,1.492-1.004,1.793-1.721
		c0.1-0.229,0.115-0.244,0.129-0.259c0.029-0.057,0.086-0.057,0.115-0.057c0.086,0,0.144,0.043,0.144,0.129
		c0,0.1-0.774,2.194-2.223,2.194c-0.803,0-1.277-0.617-1.277-1.291c0-0.187,0.043-0.33,0.158-0.832l0.946-3.786h-1.276
		c-0.272,0-0.373,0-0.373-0.144c0-0.272,0.129-0.272,0.416-0.272h1.348l0.56-2.281c0.115-0.459,0.445-0.502,0.56-0.502
		c0.186,0,0.373,0.129,0.373,0.359c0,0.1,0,0.129-0.057,0.329l-0.531,2.095h1.262c0.287,0,0.373,0,0.373,0.157
		c0,0.259-0.144,0.259-0.416,0.259h-1.32L118.713,51.356z"/>
</g>
<g>
	<path d="M126.217,46.71h-3.697c0-0.239,0-0.259,0.11-0.369l1.913-2.132c0.548-0.618,1.046-1.405,1.046-2.202
		c0-0.817-0.428-1.624-1.335-1.624c-0.578,0-1.116,0.369-1.345,1.016c0.03-0.01,0.05-0.01,0.129-0.01
		c0.349,0,0.528,0.259,0.528,0.518c0,0.409-0.349,0.528-0.518,0.528c-0.03,0-0.528,0-0.528-0.558c0-0.887,0.737-1.804,1.863-1.804
		c1.216,0,2.112,0.797,2.112,1.933c0,0.997-0.598,1.534-2.152,2.909l-1.056,1.026h1.793c0.219,0,0.876,0,0.946-0.079
		c0.1-0.149,0.169-0.588,0.219-0.887h0.249L126.217,46.71z"/>
</g>
<g>
	<path d="M136.412,53.278c0,0.215,0,0.459-0.272,0.459c-0.258,0-0.258-0.258-0.258-0.459v-3.959h-3.959
		c-0.215,0-0.459,0-0.459-0.272c0-0.258,0.258-0.258,0.459-0.258h3.959V44.83c0-0.215,0-0.459,0.272-0.459
		c0.258,0,0.258,0.258,0.258,0.459v3.959h3.958c0.215,0,0.459,0,0.459,0.272c0,0.258-0.258,0.258-0.459,0.258h-3.958V53.278z"/>
</g>
<g>
	<path d="M150.641,46.58c0.215,0,0.373,0.157,0.373,0.358c0,0.086-0.129,0.603-0.66,2.754c-0.115,0.416-0.187,0.731-0.287,1.09
		c-0.129,0.56-0.172,0.718-0.172,1.048c0,0.286,0.029,0.659,0.445,0.659c0.588,0,0.86-0.903,1.076-1.75
		c0.057-0.215,0.072-0.286,0.201-0.286c0.086,0,0.144,0.057,0.144,0.129c0,0.057-0.201,0.932-0.43,1.42
		c-0.258,0.516-0.603,0.774-1.033,0.774c-0.431,0-1.104-0.244-1.248-1.09c-0.401,0.473-1.076,1.09-1.865,1.09
		c-0.975,0-1.807-0.832-1.807-2.252c0-2.123,1.75-4.217,3.371-4.217c0.746,0,1.133,0.573,1.291,0.946
		C150.067,47.082,150.182,46.58,150.641,46.58z M149.823,48.114c0.015-0.028,0.058-0.215,0.058-0.229c0-0.114-0.187-1.29-1.133-1.29
		c-0.559,0-1.233,0.516-1.721,1.52c-0.272,0.603-0.717,2.209-0.717,2.998c0,0.847,0.33,1.377,0.918,1.377
		c0.674,0,1.305-0.616,1.621-1.019c0.201-0.272,0.201-0.301,0.272-0.545L149.823,48.114z"/>
</g>
<g>
	<path d="M159.101,56.233c-0.158,0-1.334-0.933-2.181-2.654c-0.746-1.534-0.946-3.241-0.946-4.518c0-1.765,0.33-3.299,1.062-4.748
		c0.703-1.405,1.879-2.438,2.065-2.438c0.057,0,0.129,0.029,0.129,0.115c0,0.043,0,0.072-0.144,0.201
		c-1.664,1.693-2.338,4.087-2.338,6.871c0,2.926,0.803,5.292,2.237,6.741c0.244,0.244,0.244,0.272,0.244,0.315
		C159.229,56.204,159.158,56.233,159.101,56.233z"/>
</g>
<g>
	<path d="M161.795,51.356c-0.043,0.172-0.043,0.444-0.043,0.459c0,0.315,0.029,0.674,0.459,0.674c0.832,0,1.492-1.004,1.793-1.721
		c0.101-0.229,0.115-0.244,0.129-0.259c0.029-0.057,0.086-0.057,0.115-0.057c0.086,0,0.144,0.043,0.144,0.129
		c0,0.1-0.774,2.194-2.223,2.194c-0.803,0-1.276-0.617-1.276-1.291c0-0.187,0.043-0.33,0.158-0.832l0.946-3.786h-1.276
		c-0.272,0-0.373,0-0.373-0.144c0-0.272,0.129-0.272,0.416-0.272h1.348l0.56-2.281c0.115-0.459,0.445-0.502,0.56-0.502
		c0.187,0,0.373,0.129,0.373,0.359c0,0.1,0,0.129-0.057,0.329l-0.531,2.095h1.262c0.287,0,0.373,0,0.373,0.157
		c0,0.259-0.144,0.259-0.416,0.259h-1.32L161.795,51.356z"/>
</g>
<g>
	<path d="M168.086,53.795c-0.703,1.405-1.879,2.438-2.065,2.438c-0.057,0-0.129-0.029-0.129-0.115c0-0.043,0-0.071,0.143-0.201
		c1.664-1.692,2.338-4.087,2.338-6.87c0-2.926-0.803-5.293-2.237-6.741c-0.244-0.244-0.244-0.272-0.244-0.315
		c0-0.086,0.072-0.115,0.129-0.115c0.158,0,1.334,0.932,2.18,2.654c0.803,1.663,0.947,3.442,0.947,4.532
		C169.148,50.782,168.818,52.332,168.086,53.795z"/>
</g>
<g>
	<path d="M178.149,51.069c-0.101,0.401-0.101,0.703-0.101,0.761c0,0.286,0.029,0.659,0.445,0.659c0.588,0,0.86-0.903,1.076-1.75
		c0.057-0.215,0.072-0.286,0.201-0.286c0.086,0,0.144,0.057,0.144,0.129c0,0.057-0.201,0.932-0.43,1.42
		c-0.258,0.516-0.603,0.774-1.033,0.774c-0.431,0-1.104-0.244-1.248-1.09c-0.402,0.473-1.076,1.09-1.865,1.09
		c-0.975,0-1.807-0.832-1.807-2.252c0-2.123,1.75-4.217,3.371-4.217c0.746,0,1.133,0.573,1.291,0.946l0.875-3.485
		c0.014-0.043,0.043-0.157,0.043-0.244c0-0.143-0.015-0.272-0.717-0.272c-0.201,0-0.315,0-0.315-0.143
		c0-0.259,0.1-0.273,0.459-0.302c0.258-0.014,0.473-0.043,0.717-0.057c0.071-0.015,0.774-0.072,0.789-0.072
		c0.029,0,0.172,0,0.172,0.144c0,0.071-0.029,0.158-0.043,0.215L178.149,51.069z M177.977,48.114
		c0.015-0.028,0.058-0.215,0.058-0.229c0-0.114-0.187-1.29-1.133-1.29c-0.56,0-1.233,0.516-1.721,1.52
		c-0.272,0.603-0.717,2.209-0.717,2.998c0,0.847,0.33,1.377,0.918,1.377c0.674,0,1.306-0.616,1.621-1.019
		c0.201-0.272,0.201-0.301,0.272-0.545L177.977,48.114z"/>
</g>
<g>
	<path d="M183.798,40.444c-0.229,0-0.488,0-0.488-0.258c0-0.272,0.244-0.272,0.488-0.272h4.819c-0.272-0.387-0.359-0.731-0.359-0.86
		c0-0.215,0.172-0.272,0.258-0.272c0.201,0,0.244,0.172,0.287,0.287c0.043,0.172,0.143,0.56,0.545,0.832
		c0.086,0.072,0.201,0.144,0.201,0.272c0,0.158-0.101,0.201-0.244,0.287c-0.33,0.187-0.717,0.459-1.062,0.89
		c-0.101,0.144-0.158,0.229-0.287,0.229c-0.143,0-0.272-0.129-0.272-0.272c0-0.201,0.531-0.703,0.703-0.861H183.798z"/>
</g>
<g>
	<path d="M181.862,52.073h3.973c2.295,0,3.199-0.416,3.457-2.782h0.315l-0.373,3.342h-7.846c-0.229,0-0.344,0-0.344-0.144
		c0-0.058,0.028-0.101,0.143-0.229l3.328-3.93l-3.485-5.164c0-0.33,0.015-0.33,0.359-0.33h7.846l0.373,3.199h-0.315
		c-0.272-2.267-1.004-2.783-3.414-2.783h-3.385l2.897,4.304c0.086,0.114,0.086,0.144,0.086,0.172c0,0.071-0.028,0.101-0.143,0.244
		L181.862,52.073z"/>
</g>
<g>
	<path d="M194.596,46.71h-3.697c0-0.239,0-0.259,0.11-0.369l1.913-2.132c0.548-0.618,1.046-1.405,1.046-2.202
		c0-0.817-0.428-1.624-1.335-1.624c-0.578,0-1.116,0.369-1.345,1.016c0.03-0.01,0.05-0.01,0.129-0.01
		c0.349,0,0.528,0.259,0.528,0.518c0,0.409-0.349,0.528-0.518,0.528c-0.03,0-0.528,0-0.528-0.558c0-0.887,0.737-1.804,1.863-1.804
		c1.216,0,2.112,0.797,2.112,1.933c0,0.997-0.598,1.534-2.152,2.909l-1.056,1.026h1.793c0.219,0,0.876,0,0.946-0.079
		c0.1-0.149,0.169-0.588,0.219-0.887h0.249L194.596,46.71z"/>
</g>
</svg>
