<?xml version="1.0" encoding="iso-8859-1"?>
<!-- Generator: Adobe Illustrator 16.0.0, SVG Export Plug-In . SVG Version: 6.00 Build 0)  -->
<!DOCTYPE svg PUBLIC "-//W3C//DTD SVG 1.1//EN" "http://www.w3.org/Graphics/SVG/1.1/DTD/svg11.dtd">
<svg version="1.1" id="Layer_1" xmlns="http://www.w3.org/2000/svg" xmlns:xlink="http://www.w3.org/1999/xlink" x="0px" y="0px"
	 width="566.929px" height="85.039px" viewBox="0 0 566.929 85.039" style="enable-background:new 0 0 566.929 85.039;"
	 xml:space="preserve">
<g>
	<path d="M27.13,52.646c-0.688,0-1.133-0.517-1.133-1.162c0-0.258,0.086-0.487,0.172-0.717c0.488-1.306,0.488-1.334,1.004-2.668
		c0.115-0.315,0.301-0.789,0.301-1.162c0-0.459-0.244-0.473-0.373-0.473c-0.559,0-1.104,0.573-1.448,1.778
		c-0.058,0.2-0.072,0.258-0.201,0.258c-0.1,0-0.158-0.071-0.158-0.129c0-0.115,0.531-2.194,1.85-2.194
		c0.703,0,1.133,0.545,1.133,1.147c0,0.272-0.1,0.53-0.144,0.646c-0.33,0.889-0.66,1.778-1.004,2.668
		c-0.158,0.43-0.33,0.86-0.33,1.247c0,0.431,0.201,0.474,0.373,0.474c0.474,0,1.062-0.444,1.435-1.75
		c0.072-0.243,0.086-0.286,0.215-0.286c0.086,0,0.144,0.057,0.144,0.129C28.966,50.551,28.45,52.646,27.13,52.646z M28.134,44.24
		c-0.172,0-0.473-0.115-0.473-0.474c0-0.373,0.373-0.688,0.703-0.688c0.316,0,0.488,0.259,0.488,0.474
		C28.852,43.867,28.521,44.24,28.134,44.24z"/>
</g>
<g>
	<path d="M30.675,44.513v-0.416h5.063v0.416H30.675z"/>
</g>
<g>
	<path d="M32.475,47.31c0.588-0.746,1.306-1.133,2.123-1.133c1.09,0,1.592,0.646,1.592,1.506c0,0.832-0.646,2.524-0.904,3.213
		c-0.058,0.158-0.229,0.617-0.229,0.989c0,0.459,0.229,0.474,0.373,0.474c0.574,0,1.104-0.603,1.434-1.75
		c0.072-0.243,0.086-0.286,0.215-0.286c0.086,0,0.144,0.057,0.144,0.129c0,0.086-0.502,2.194-1.836,2.194
		c-0.688,0-1.133-0.517-1.133-1.162c0-0.258,0.072-0.444,0.201-0.789c0.315-0.86,0.875-2.424,0.875-3.227
		c0-0.574-0.201-1.004-0.774-1.004c-1.104,0-1.75,0.86-2.022,1.276s-0.272,0.43-0.43,1.032c-0.072,0.315-0.158,0.617-0.229,0.933
		l-0.646,2.596c-0.072,0.158-0.258,0.345-0.502,0.345c-0.144,0-0.387-0.058-0.387-0.373c0-0.086,0-0.114,0.057-0.33l2.08-8.305
		c0.015-0.043,0.043-0.157,0.043-0.244c0-0.143-0.015-0.272-0.717-0.272c-0.201,0-0.315,0-0.315-0.143
		c0-0.258,0.1-0.272,0.459-0.301c0.258-0.014,0.473-0.043,0.717-0.057c0.072-0.015,0.775-0.072,0.789-0.072
		c0.029,0,0.172,0,0.172,0.144c0,0.071-0.028,0.158-0.043,0.215L32.475,47.31z"/>
	<path d="M44.161,47.711c0.143-0.53,0.416-1.592,0.416-2.51c0-1.606-0.804-2.61-2.065-2.61c-0.388,0-1.478,0.101-2.065,1.162
		c0.186,0,0.631,0,0.631,0.444c0,0.244-0.215,0.703-0.717,0.703c-0.401,0-0.488-0.316-0.488-0.445c0-0.387,0.617-2.208,2.697-2.208
		c1.836,0,2.998,1.592,2.998,3.658c0,1.965-1.448,6.898-4.833,6.898c-1.951,0-2.553-1.649-2.553-2.524
		c0-2.28,2.065-4.331,4.088-4.331c1.291,0,1.793,0.961,1.879,1.764H44.161z M43.917,48.142c0-0.774-0.301-1.907-1.606-1.907
		c-1.492,0-2.309,1.448-2.496,1.879c-0.215,0.53-0.617,2.008-0.617,2.639c0,0.603,0.229,1.664,1.578,1.664
		C42.985,52.416,43.917,49.203,43.917,48.142z"/>
</g>
<g>
	<path d="M46.366,53.608c-0.04,0.169-0.06,0.239-0.06,0.478c0,0.329,0.1,0.459,0.309,0.459c0.339,0,0.867-0.239,1.295-1.275
		c0.05-0.109,0.06-0.14,0.149-0.14c0.04,0,0.12,0,0.12,0.1c0,0.08-0.568,1.534-1.584,1.534c-0.538,0-0.917-0.378-0.917-0.916
		c0-0.18,0.04-0.35,0.757-3.179h-0.876c-0.199,0-0.279,0-0.279-0.12c0-0.189,0.1-0.189,0.299-0.189h0.937l0.389-1.584
		c0.089-0.349,0.369-0.358,0.398-0.358c0.169,0,0.289,0.1,0.289,0.269c0,0.061-0.05,0.26-0.409,1.674h0.877
		c0.179,0,0.279,0,0.279,0.11c0,0.199-0.1,0.199-0.299,0.199h-0.937L46.366,53.608z"/>
</g>
<g>
	<path d="M53.819,55.614c0,0.201,0,0.474-0.287,0.474c-0.287,0-0.287-0.272-0.287-0.474V42.218c0-0.201,0-0.473,0.287-0.473
		c0.287,0,0.287,0.272,0.287,0.473V55.614z"/>
</g>
<g>
	<path d="M59.912,52.358c0.43,0,1.535,0,2.739-1.349c0.918-1.032,1.205-2.094,1.205-2.61c0-0.745-0.387-1.133-0.517-1.262
		c-0.057-0.058-0.158-0.158-0.158-0.33c0-0.287,0.316-0.631,0.66-0.631c0.144,0,0.574,0.101,0.574,0.961
		c0,0.731-0.345,2.008-0.488,2.381c-0.244,0.617-0.674,1.276-1.147,1.793c-1.291,1.334-2.424,1.334-2.955,1.334
		c-0.058,0.258-0.646,2.668-0.703,2.726c-0.029,0.057-0.086,0.057-0.115,0.057c-0.043,0-0.158,0-0.158-0.129
		c0-0.058,0.101-0.459,0.33-1.319c0.115-0.444,0.215-0.903,0.33-1.349C58.22,52.53,57.072,52,57.072,50.623
		c0-0.33,0-0.646,0.774-2.683c0.244-0.631,0.244-0.946,0.244-1.004c0-0.459-0.244-0.473-0.373-0.473
		c-0.531,0-1.104,0.53-1.449,1.778c-0.057,0.2-0.071,0.258-0.201,0.258c-0.1,0-0.158-0.071-0.158-0.129
		c0-0.115,0.531-2.194,1.851-2.194c0.674,0,1.133,0.517,1.133,1.161c0,0.259-0.072,0.445-0.258,0.962
		c-0.674,1.778-0.674,2.108-0.674,2.424c0,0.86,0.444,1.463,1.635,1.606l2.366-9.496c0.058-0.215,0.072-0.287,0.201-0.287
		c0.043,0,0.158,0,0.158,0.129c0,0.015-0.058,0.201-0.058,0.215L59.912,52.358z"/>
</g>
<g>
	<path d="M66.561,55.801c-0.057,0.158-0.115,0.287-0.301,0.287c-0.158,0-0.287-0.129-0.287-0.287c0-0.015,0-0.086,0.072-0.258
		l2.524-6.627l-2.524-6.626c-0.072-0.172-0.072-0.244-0.072-0.258c0-0.158,0.129-0.287,0.287-0.287c0.201,0,0.244,0.143,0.316,0.315
		l2.51,6.598c0.072,0.172,0.072,0.243,0.072,0.258s0,0.086-0.072,0.258L66.561,55.801z"/>
</g>
<g>
	<path d="M75.967,47.854c-0.215,0-0.459,0-0.459-0.272c0-0.258,0.258-0.258,0.459-0.258h8.448c0.215,0,0.459,0,0.459,0.272
		c0,0.258-0.258,0.258-0.459,0.258H75.967z M75.967,50.522c-0.215,0-0.459,0-0.459-0.272c0-0.258,0.258-0.258,0.459-0.258h8.448
		c0.215,0,0.459,0,0.459,0.272c0,0.258-0.258,0.258-0.459,0.258H75.967z"/>
</g>
<g>
	<path d="M98.666,40.873l-0.229,0.215l-1.649-1.477l-1.635,1.477l-0.229-0.215l1.879-1.951L98.666,40.873z"/>
</g>
<g>
	<path d="M98.409,51.599c-0.029,0.114-0.029,0.215-0.029,0.229c0,0.144,0,0.258,0.875,0.258c0.215,0,0.344,0,0.344,0.144
		c0,0.272-0.158,0.272-0.272,0.272c-0.272,0-0.574-0.028-0.846-0.028h-1.692c-0.272,0-0.574,0.028-0.832,0.028
		c-0.043,0-0.201,0-0.201-0.144c0-0.272,0.129-0.272,0.301-0.272c0.846-0.015,1.076-0.015,1.233-0.444
		c0.029-0.086,0.76-3.084,1.004-4.03h-4.346l-0.99,3.987c-0.029,0.114-0.029,0.215-0.029,0.229c0,0.144,0,0.258,0.875,0.258
		c0.215,0,0.344,0,0.344,0.144c0,0.272-0.158,0.272-0.272,0.272c-0.273,0-0.574-0.028-0.846-0.028h-1.693
		c-0.272,0-0.574,0.028-0.832,0.028c-0.043,0-0.201,0-0.201-0.144c0-0.272,0.101-0.272,0.431-0.272c0.989,0,1.018-0.144,1.147-0.646
		l1.936-7.717c0.058-0.215,0.058-0.301,0.058-0.33c0-0.157,0-0.272-0.861-0.272c-0.272,0-0.373,0-0.373-0.143
		c0-0.272,0.172-0.272,0.272-0.272c0.273,0,0.574,0.029,0.847,0.029h1.692c0.272,0,0.574-0.029,0.832-0.029
		c0.086,0,0.215,0,0.215,0.158c0,0.258-0.144,0.258-0.401,0.258c-1.019,0-1.047,0.144-1.176,0.632l-0.861,3.442h4.332l0.875-3.472
		c0.057-0.215,0.057-0.301,0.057-0.33c0-0.157,0-0.272-0.86-0.272c-0.273,0-0.373,0-0.373-0.143c0-0.272,0.172-0.272,0.272-0.272
		c0.272,0,0.574,0.029,0.846,0.029h1.692c0.272,0,0.574-0.029,0.832-0.029c0.086,0,0.215,0,0.215,0.158
		c0,0.258-0.144,0.258-0.402,0.258c-1.018,0-1.047,0.144-1.176,0.632L98.409,51.599z"/>
</g>
<g>
	<path d="M107.064,55.614c0,0.201,0,0.474-0.287,0.474c-0.287,0-0.287-0.272-0.287-0.474V42.218c0-0.201,0-0.473,0.287-0.473
		c0.287,0,0.287,0.272,0.287,0.473V55.614z"/>
</g>
<g>
	<path d="M113.157,52.358c0.43,0,1.535,0,2.739-1.349c0.918-1.032,1.205-2.094,1.205-2.61c0-0.745-0.387-1.133-0.517-1.262
		c-0.057-0.058-0.158-0.158-0.158-0.33c0-0.287,0.316-0.631,0.66-0.631c0.144,0,0.574,0.101,0.574,0.961
		c0,0.731-0.345,2.008-0.488,2.381c-0.244,0.617-0.674,1.276-1.147,1.793c-1.291,1.334-2.424,1.334-2.955,1.334
		c-0.058,0.258-0.646,2.668-0.703,2.726c-0.029,0.057-0.086,0.057-0.115,0.057c-0.043,0-0.158,0-0.158-0.129
		c0-0.058,0.101-0.459,0.33-1.319c0.115-0.444,0.215-0.903,0.33-1.349c-1.291-0.101-2.438-0.631-2.438-2.008
		c0-0.33,0-0.646,0.774-2.683c0.244-0.631,0.244-0.946,0.244-1.004c0-0.459-0.244-0.473-0.373-0.473
		c-0.531,0-1.104,0.53-1.449,1.778c-0.057,0.2-0.071,0.258-0.201,0.258c-0.1,0-0.158-0.071-0.158-0.129
		c0-0.115,0.531-2.194,1.851-2.194c0.674,0,1.133,0.517,1.133,1.161c0,0.259-0.072,0.445-0.258,0.962
		c-0.674,1.778-0.674,2.108-0.674,2.424c0,0.86,0.444,1.463,1.635,1.606l2.366-9.496c0.058-0.215,0.072-0.287,0.201-0.287
		c0.043,0,0.158,0,0.158,0.129c0,0.015-0.058,0.201-0.058,0.215L113.157,52.358z"/>
</g>
<g>
	<path d="M119.806,55.801c-0.057,0.158-0.115,0.287-0.301,0.287c-0.158,0-0.287-0.129-0.287-0.287c0-0.015,0-0.086,0.072-0.258
		l2.524-6.627l-2.524-6.626c-0.072-0.172-0.072-0.244-0.072-0.258c0-0.158,0.129-0.287,0.287-0.287c0.201,0,0.244,0.143,0.316,0.315
		l2.51,6.598c0.072,0.172,0.072,0.243,0.072,0.258s0,0.086-0.072,0.258L119.806,55.801z"/>
</g>
</svg>
