<?xml version="1.0" encoding="iso-8859-1"?>
<!-- Generator: Adobe Illustrator 16.0.0, SVG Export Plug-In . SVG Version: 6.00 Build 0)  -->
<!DOCTYPE svg PUBLIC "-//W3C//DTD SVG 1.1//EN" "http://www.w3.org/Graphics/SVG/1.1/DTD/svg11.dtd">
<svg version="1.1" id="Layer_1" xmlns="http://www.w3.org/2000/svg" xmlns:xlink="http://www.w3.org/1999/xlink" x="0px" y="0px"
	 width="566.929px" height="85.039px" viewBox="0 0 566.929 85.039" style="enable-background:new 0 0 566.929 85.039;"
	 xml:space="preserve">
<g>
	<path d="M31.161,52.371c-0.76,0-1.678-0.272-2.166-0.401c-1.334-0.401-1.735-0.401-2.18-0.416
		c-0.359,0.487-1.076,0.817-1.334,0.817c-0.101,0-0.129-0.058-0.129-0.086c0-0.058,0.057-0.244,0.516-0.66
		c0.029-0.043,0.861-0.86,1.406-3.012c0.588-2.295,1.076-3.815,2.08-5.034c0.674-0.804,2.037-1.635,3.199-1.635
		c0.932,0,1.233,0.688,1.233,1.348c0,0.646-0.158,0.76-0.373,0.933c-0.344,0.258-0.746,0.43-0.961,0.43
		c-0.115,0-0.115-0.071-0.115-0.101c0-0.043,0.058-0.301,0.058-0.53c0-0.358-0.129-1.19-0.99-1.19c-0.473,0-0.56,0.086-0.774,0.315
		c-1.019,1.033-1.693,3.7-1.965,4.776c-0.144,0.573-0.416,1.678-1.176,2.797c0.158-0.043,0.215-0.058,0.545-0.058
		c0.76,0,1.592,0.244,2.323,0.459c0.56,0.158,1.32,0.359,1.937,0.359c0.229,0,0.244,0,0.373-0.173c0-0.014,0.129-0.2,0.215-0.43
		c0.086-0.244,0.115-0.33,0.517-0.589c0.229-0.157,0.588-0.315,0.789-0.315c0.043,0,0.115,0.029,0.129,0.043
		C34.001,51.41,32.208,52.371,31.161,52.371z"/>
</g>
<g>
	<path d="M40.919,55.113c0.429,0,0.847-0.299,0.907-0.837c0.01-0.1,0.02-0.179,0.11-0.179c0.109,0,0.109,0.109,0.109,0.209
		c0,0.508-0.189,1.833-1.206,1.833c-0.927,0-1.066-0.916-1.215-1.863c-0.289,0.09-0.638,0.149-0.947,0.149
		c-1.813,0-3.318-1.584-3.318-3.597c0-2.053,1.524-3.646,3.308-3.646c1.813,0,3.318,1.614,3.318,3.646
		c0,1.505-0.847,2.78-2.023,3.309C40.202,54.775,40.451,55.113,40.919,55.113z M37.871,53.569c0-0.408,0.309-0.837,0.817-0.837
		c0.588,0,0.907,0.498,1.126,1.056c1.056-0.776,1.176-2.182,1.176-2.959c0-2.541-1.355-3.397-2.321-3.397
		c-0.917,0-2.312,0.807-2.312,3.397c0,2.292,1.116,3.02,1.654,3.219C38,54.027,37.871,53.838,37.871,53.569z M38.688,52.951
		c-0.388,0-0.598,0.329-0.598,0.618c0,0.149,0.08,0.607,0.588,0.607c0.219,0,0.538-0.039,0.877-0.229
		C39.445,53.37,39.226,52.951,38.688,52.951z"/>
	<path d="M49.176,49.783c0,0.209,0,0.239-0.159,0.239c-0.14,0-0.14-0.03-0.16-0.17c-0.199-1.454-1.086-2.361-2.172-2.361
		c-0.608,0-2.551,0.339-2.551,3.318c0,2.969,1.953,3.308,2.561,3.308c1.086,0,2.152-0.816,2.232-2.242
		c0.01-0.1,0.01-0.159,0.12-0.159c0.129,0,0.129,0.07,0.129,0.17c0,1.155-0.977,2.54-2.601,2.54c-1.853,0-3.467-1.563-3.467-3.626
		c0-2.033,1.604-3.617,3.467-3.617c0.957,0,1.465,0.498,1.833,0.856l0.498-0.737c0.08-0.119,0.12-0.119,0.16-0.119
		c0.109,0,0.109,0.069,0.109,0.239V49.783z"/>
	<path d="M53.741,47.401c1.704,0,3.049,1.564,3.049,3.458c0,1.873-1.375,3.348-3.049,3.348h-3.647v-0.309h0.239
		c0.767,0,0.787-0.11,0.787-0.469v-5.251c0-0.358-0.02-0.468-0.787-0.468h-0.239v-0.31H53.741z M53.472,53.898
		c1.006,0,1.574-0.578,1.773-0.848c0.359-0.488,0.548-1.086,0.548-2.191c0-0.777-0.09-1.635-0.519-2.223
		c-0.508-0.707-1.195-0.926-1.813-0.926h-0.997c-0.468,0-0.488,0.069-0.488,0.398V53.5c0,0.328,0.02,0.398,0.488,0.398H53.472z"/>
</g>
<g>
	<path d="M63.072,47.408c-0.215,0-0.459,0-0.459-0.272c0-0.258,0.258-0.258,0.459-0.258h8.448c0.215,0,0.459,0,0.459,0.272
		c0,0.258-0.258,0.258-0.459,0.258H63.072z M63.072,50.076c-0.215,0-0.459,0-0.459-0.272c0-0.258,0.258-0.258,0.459-0.258h8.448
		c0.215,0,0.459,0,0.459,0.272c0,0.258-0.258,0.258-0.459,0.258H63.072z"/>
	<path d="M78.761,44.066V43.65h5.063v0.416H78.761z"/>
</g>
<g>
	<path d="M81.082,53.935c-0.043,0.187-0.057,0.201-0.057,0.272c0,0.115,0.043,0.215,0.717,0.215c0.215,0,0.33,0,0.33,0.144
		c0,0.272-0.172,0.272-0.258,0.272c-0.215,0-0.459-0.028-0.674-0.028h-1.463c-0.201,0-0.459,0.028-0.66,0.028
		c-0.1,0-0.187-0.043-0.187-0.143c0-0.273,0.144-0.273,0.301-0.273c0.674-0.014,0.89-0.014,1.019-0.444l0.129-0.517
		c0.187-0.731,0.373-1.448,0.545-2.151l-0.014-0.014c-0.301,0.329-0.932,0.903-1.692,0.903c-0.976,0-1.807-0.832-1.807-2.252
		c0-2.123,1.75-4.217,3.371-4.217c0.617,0,1.061,0.387,1.319,1.032c0.272-0.502,0.832-1.019,0.947-1.019
		c0.072,0,0.129,0.058,0.129,0.13L81.082,53.935z M81.756,47.537c0.014-0.028,0.057-0.215,0.057-0.229
		c0-0.114-0.186-1.29-1.133-1.29c-0.56,0-1.234,0.516-1.721,1.52c-0.272,0.603-0.717,2.209-0.717,2.998
		c0,0.847,0.33,1.377,0.918,1.377c0.674,0,1.305-0.616,1.621-1.019c0.201-0.272,0.201-0.301,0.272-0.545L81.756,47.537z"/>
</g>
<g>
	<path d="M90.416,55.656c-0.158,0-1.333-0.933-2.18-2.654c-0.746-1.534-0.947-3.241-0.947-4.518c0-1.765,0.33-3.299,1.061-4.748
		c0.703-1.405,1.879-2.438,2.065-2.438c0.058,0,0.129,0.029,0.129,0.115c0,0.043,0,0.072-0.144,0.201
		c-1.664,1.693-2.338,4.087-2.338,6.871c0,2.926,0.803,5.293,2.238,6.741c0.244,0.244,0.244,0.272,0.244,0.315
		C90.545,55.627,90.474,55.656,90.416,55.656z"/>
</g>
<g>
	<path d="M93.569,52.199c-0.688,0-1.133-0.517-1.133-1.162c0-0.258,0.086-0.487,0.172-0.717c0.488-1.306,0.488-1.334,1.004-2.668
		c0.115-0.315,0.301-0.789,0.301-1.162c0-0.459-0.244-0.473-0.373-0.473c-0.559,0-1.104,0.573-1.449,1.778
		c-0.057,0.2-0.071,0.258-0.201,0.258c-0.1,0-0.158-0.071-0.158-0.129c0-0.114,0.531-2.194,1.851-2.194
		c0.703,0,1.133,0.545,1.133,1.147c0,0.272-0.101,0.53-0.144,0.646c-0.33,0.889-0.66,1.778-1.004,2.668
		c-0.158,0.43-0.33,0.86-0.33,1.247c0,0.431,0.201,0.474,0.373,0.474c0.474,0,1.062-0.444,1.435-1.75
		c0.072-0.243,0.086-0.287,0.215-0.287c0.086,0,0.144,0.058,0.144,0.13C95.405,50.105,94.889,52.199,93.569,52.199z M94.573,43.794
		c-0.172,0-0.473-0.114-0.473-0.474c0-0.373,0.373-0.688,0.703-0.688c0.316,0,0.488,0.258,0.488,0.473
		C95.291,43.421,94.961,43.794,94.573,43.794z"/>
	<path d="M102.535,47.91c0.431-0.975,0.933-1.95,0.961-1.979c0.029-0.057,0.101-0.057,0.129-0.057c0.129,0,0.143,0.101,0.143,0.114
		c0,0.043-0.201,0.431-0.301,0.66c-1.133,2.252-1.951,4.618-1.994,4.963c-0.071,0.573-0.158,1.204-0.502,2.467
		c-0.158,0.573-0.287,1.047-0.502,1.047c-0.115,0-0.158-0.129-0.158-0.244c0-0.401,0.473-2.18,0.746-3.069
		c0.086-0.286,0.186-0.588,0.186-1.491c0-1.42-0.287-3.644-2.28-3.644c-0.99,0-1.908,0.703-2.209,1.593
		c-0.072,0.186-0.072,0.215-0.201,0.215c-0.043,0-0.144,0-0.144-0.129c0-0.373,0.961-2.625,2.725-2.625
		c1.047,0,1.535,0.76,1.822,1.478c0.545,1.29,0.574,2.395,0.603,3.098C102.033,49.044,102.32,48.398,102.535,47.91z"/>
</g>
<g>
	<path d="M106.088,44.309c-0.07,0.279-0.14,0.558-0.14,0.847c0,0.538,0.239,0.867,0.737,0.867c0.807,0,1.286-0.907,1.295-0.957
		c0.03-0.1,0.14-0.518,0.259-1.016c0.149-0.618,0.338-1.366,0.468-1.864c0.08-0.339,0.338-0.349,0.388-0.349
		c0.15,0,0.289,0.09,0.289,0.269c0,0.06-0.1,0.438-0.149,0.667c-0.04,0.149-0.14,0.528-0.169,0.677
		c-0.089,0.359-0.189,0.718-0.279,1.076c-0.08,0.349-0.199,0.817-0.199,1.036c0,0.199,0.03,0.459,0.299,0.459
		c0.409,0,0.588-0.588,0.757-1.235c0.03-0.14,0.04-0.18,0.14-0.18c0.03,0,0.119,0,0.119,0.1c0,0.02-0.129,0.628-0.299,0.986
		c-0.159,0.319-0.389,0.548-0.737,0.548c-0.438,0-0.807-0.278-0.896-0.728c-0.239,0.279-0.628,0.728-1.325,0.728
		c-0.2,0-0.648-0.04-0.967-0.309c-0.378,1.534-0.508,2.053-0.548,2.143c-0.02,0.029-0.14,0.209-0.349,0.209
		c-0.169,0-0.279-0.12-0.279-0.27c0-0.02,0-0.039,0.03-0.159l1.435-5.769c0.09-0.349,0.369-0.359,0.398-0.359
		c0.169,0,0.289,0.1,0.289,0.269c0,0.05-0.1,0.429-0.149,0.638L106.088,44.309z"/>
</g>
<g>
	<path d="M117.232,47.265c0.143-0.53,0.416-1.592,0.416-2.51c0-1.606-0.804-2.61-2.065-2.61c-0.388,0-1.478,0.101-2.065,1.162
		c0.186,0,0.631,0,0.631,0.444c0,0.244-0.215,0.703-0.717,0.703c-0.401,0-0.488-0.315-0.488-0.445c0-0.387,0.617-2.208,2.697-2.208
		c1.836,0,2.998,1.592,2.998,3.658c0,1.965-1.448,6.898-4.833,6.898c-1.951,0-2.553-1.649-2.553-2.524
		c0-2.28,2.065-4.331,4.088-4.331c1.291,0,1.793,0.961,1.879,1.764H117.232z M116.988,47.695c0-0.774-0.301-1.907-1.606-1.907
		c-1.492,0-2.309,1.448-2.496,1.879c-0.215,0.53-0.617,2.008-0.617,2.639c0,0.603,0.229,1.664,1.578,1.664
		C116.056,51.97,116.988,48.757,116.988,47.695z"/>
</g>
<g>
	<path d="M120.005,52.384c-0.07,0.279-0.14,0.558-0.14,0.847c0,0.538,0.239,0.867,0.737,0.867c0.807,0,1.286-0.907,1.295-0.957
		c0.03-0.1,0.14-0.518,0.259-1.016c0.149-0.618,0.338-1.365,0.468-1.863c0.08-0.339,0.338-0.35,0.388-0.35
		c0.15,0,0.289,0.09,0.289,0.27c0,0.06-0.1,0.438-0.149,0.668c-0.04,0.149-0.14,0.527-0.169,0.677
		c-0.089,0.359-0.189,0.718-0.279,1.076c-0.08,0.349-0.199,0.817-0.199,1.036c0,0.199,0.03,0.459,0.299,0.459
		c0.409,0,0.588-0.588,0.757-1.235c0.03-0.14,0.04-0.18,0.14-0.18c0.03,0,0.119,0,0.119,0.1c0,0.02-0.129,0.628-0.299,0.986
		c-0.159,0.319-0.389,0.548-0.737,0.548c-0.438,0-0.807-0.278-0.896-0.728c-0.239,0.279-0.628,0.728-1.325,0.728
		c-0.2,0-0.648-0.04-0.967-0.309c-0.378,1.534-0.508,2.053-0.548,2.143c-0.02,0.029-0.14,0.209-0.349,0.209
		c-0.169,0-0.279-0.12-0.279-0.27c0-0.02,0-0.039,0.03-0.159l1.435-5.769c0.09-0.35,0.369-0.359,0.398-0.359
		c0.169,0,0.289,0.1,0.289,0.27c0,0.05-0.1,0.428-0.149,0.638L120.005,52.384z"/>
</g>
<g>
	<path d="M129.475,48.757c-0.201,0-0.473,0-0.473-0.287s0.272-0.287,0.473-0.287h7.817c0.201,0,0.473,0,0.473,0.287
		s-0.272,0.287-0.473,0.287H129.475z"/>
</g>
<g>
	<path d="M144.639,49.746c-0.101,0.431-0.215,0.861-0.315,1.291c-0.072,0.287-0.201,0.789-0.229,0.86
		c-0.115,0.216-0.316,0.302-0.488,0.302c-0.215,0-0.373-0.158-0.373-0.358c0-0.072,0.158-0.746,0.258-1.119
		c0.072-0.258,0.229-0.903,0.287-1.176c0.129-0.517,0.273-1.033,0.402-1.55c0.101-0.444,0.244-1.004,0.244-1.319
		c0-0.43-0.115-0.659-0.444-0.659c-0.574,0-0.846,0.846-1.062,1.692c-0.086,0.329-0.101,0.344-0.215,0.344
		c-0.1,0-0.158-0.071-0.158-0.129s0.201-0.933,0.459-1.448c0.272-0.546,0.603-0.746,1.019-0.746c0.631,0,1.219,0.444,1.262,1.262
		c0.258-0.358,0.932-1.262,2.209-1.262c1.076,0,1.549,0.616,1.592,1.391c0.574-0.846,1.348-1.391,2.31-1.391
		c1.09,0,1.592,0.646,1.592,1.506c0,0.832-0.646,2.524-0.903,3.213c-0.058,0.158-0.229,0.617-0.229,0.989
		c0,0.459,0.229,0.474,0.373,0.474c0.574,0,1.104-0.603,1.435-1.75c0.072-0.243,0.086-0.287,0.215-0.287
		c0.086,0,0.144,0.058,0.144,0.13c0,0.086-0.502,2.194-1.836,2.194c-0.688,0-1.133-0.517-1.133-1.162
		c0-0.258,0.072-0.444,0.201-0.789c0.315-0.86,0.875-2.424,0.875-3.227c0-0.574-0.201-1.004-0.775-1.004
		c-1.578,0-2.323,1.793-2.352,1.907c-0.215,0.875-0.588,2.353-0.861,3.428c-0.129,0.517-0.201,0.847-0.631,0.847
		c-0.215,0-0.373-0.158-0.373-0.358c0-0.058,0.086-0.431,0.144-0.646c0.029-0.158,0.301-1.22,0.416-1.649
		c0.172-0.688,0.172-0.731,0.358-1.478c0.172-0.674,0.172-0.961,0.172-1.047c0-0.574-0.201-1.004-0.775-1.004
		c-0.559,0-1.047,0.229-1.42,0.573c-0.531,0.459-0.889,1.176-0.918,1.263L144.639,49.746z"/>
</g>
<g>
	<path d="M157.427,53.218c-0.703,1.405-1.879,2.438-2.065,2.438c-0.057,0-0.129-0.029-0.129-0.115c0-0.043,0-0.071,0.143-0.201
		c1.664-1.692,2.338-4.088,2.338-6.87c0-2.926-0.803-5.293-2.237-6.741c-0.244-0.244-0.244-0.272-0.244-0.315
		c0-0.086,0.072-0.115,0.129-0.115c0.158,0,1.334,0.932,2.18,2.654c0.803,1.663,0.947,3.442,0.947,4.532
		C158.489,50.205,158.159,51.755,157.427,53.218z"/>
</g>
<g>
	<path d="M166.629,53.935c-0.043,0.187-0.057,0.201-0.057,0.272c0,0.115,0.043,0.215,0.717,0.215c0.215,0,0.33,0,0.33,0.144
		c0,0.272-0.172,0.272-0.258,0.272c-0.215,0-0.459-0.028-0.674-0.028h-1.463c-0.201,0-0.459,0.028-0.66,0.028
		c-0.1,0-0.187-0.043-0.187-0.143c0-0.273,0.144-0.273,0.301-0.273c0.674-0.014,0.89-0.014,1.019-0.444l0.129-0.517
		c0.187-0.731,0.373-1.448,0.545-2.151l-0.014-0.014c-0.301,0.329-0.932,0.903-1.692,0.903c-0.976,0-1.807-0.832-1.807-2.252
		c0-2.123,1.75-4.217,3.371-4.217c0.617,0,1.061,0.387,1.319,1.032c0.272-0.502,0.832-1.019,0.947-1.019
		c0.072,0,0.129,0.058,0.129,0.13L166.629,53.935z M167.304,47.537c0.014-0.028,0.057-0.215,0.057-0.229
		c0-0.114-0.186-1.29-1.133-1.29c-0.56,0-1.234,0.516-1.721,1.52c-0.272,0.603-0.717,2.209-0.717,2.998
		c0,0.847,0.33,1.377,0.918,1.377c0.674,0,1.305-0.616,1.621-1.019c0.201-0.272,0.201-0.301,0.272-0.545L167.304,47.537z"/>
</g>
<g>
	<path d="M177.952,52.701c0,0.215,0,0.459-0.272,0.459c-0.258,0-0.258-0.258-0.258-0.459v-3.959h-3.959
		c-0.215,0-0.459,0-0.459-0.272c0-0.258,0.258-0.258,0.459-0.258h3.959v-3.959c0-0.215,0-0.459,0.272-0.459
		c0.258,0,0.258,0.258,0.258,0.459v3.959h3.958c0.215,0,0.459,0,0.459,0.272c0,0.258-0.258,0.258-0.459,0.258h-3.958V52.701z"/>
</g>
<g>
	<path d="M192.667,46.003c0.215,0,0.373,0.157,0.373,0.358c0,0.028,0,0.058-0.043,0.229l-1.592,6.426
		c-0.186,0.774-1.147,1.965-2.998,1.965c-1.219,0-1.807-0.229-1.807-0.817c0-0.474,0.373-0.76,0.717-0.76
		c0.315,0,0.487,0.229,0.487,0.459c0,0.157-0.115,0.559-0.574,0.688c0.359,0.114,0.717,0.144,1.147,0.144
		c0.316,0,0.861,0,1.449-0.589c0.517-0.502,0.603-0.86,0.803-1.649c0.072-0.301,0.072-0.33,0.315-1.291
		c-0.258,0.287-0.932,0.89-1.692,0.89c-0.918,0-1.822-0.731-1.822-2.224c0-2.137,1.779-4.102,3.342-4.102
		c0.717,0,1.119,0.53,1.305,0.946C192.122,46.29,192.323,46.003,192.667,46.003z M191.864,47.48l0.043-0.201
		c0-0.086-0.187-1.262-1.133-1.262c-0.603,0-1.248,0.573-1.664,1.377c-0.315,0.645-0.746,2.252-0.746,3.012
		c0,0.989,0.444,1.362,0.918,1.362c0.444,0,1.047-0.272,1.635-1.032c0.186-0.216,0.215-0.272,0.272-0.502L191.864,47.48z"/>
</g>
<g>
	<path d="M195.59,44.066V43.65h5.063v0.416H195.59z"/>
</g>
<g>
	<path d="M197.915,53.935c-0.043,0.187-0.057,0.201-0.057,0.272c0,0.115,0.043,0.215,0.717,0.215c0.215,0,0.33,0,0.33,0.144
		c0,0.272-0.172,0.272-0.258,0.272c-0.215,0-0.459-0.028-0.674-0.028h-1.463c-0.201,0-0.459,0.028-0.66,0.028
		c-0.1,0-0.187-0.043-0.187-0.143c0-0.273,0.144-0.273,0.301-0.273c0.674-0.014,0.89-0.014,1.019-0.444l0.129-0.517
		c0.187-0.731,0.373-1.448,0.545-2.151l-0.014-0.014c-0.301,0.329-0.932,0.903-1.692,0.903c-0.976,0-1.807-0.832-1.807-2.252
		c0-2.123,1.75-4.217,3.371-4.217c0.617,0,1.061,0.387,1.319,1.032c0.272-0.502,0.832-1.019,0.947-1.019
		c0.072,0,0.129,0.058,0.129,0.13L197.915,53.935z M198.589,47.537c0.014-0.028,0.057-0.215,0.057-0.229
		c0-0.114-0.186-1.29-1.133-1.29c-0.56,0-1.234,0.516-1.721,1.52c-0.272,0.603-0.717,2.209-0.717,2.998
		c0,0.847,0.33,1.377,0.918,1.377c0.674,0,1.305-0.616,1.621-1.019c0.201-0.272,0.201-0.301,0.272-0.545L198.589,47.537z"/>
	<path d="M206.725,47.91c0.431-0.975,0.933-1.95,0.961-1.979c0.029-0.057,0.101-0.057,0.129-0.057c0.129,0,0.143,0.101,0.143,0.114
		c0,0.043-0.201,0.431-0.301,0.66c-1.133,2.252-1.951,4.618-1.994,4.963c-0.071,0.573-0.158,1.204-0.502,2.467
		c-0.158,0.573-0.287,1.047-0.502,1.047c-0.115,0-0.158-0.129-0.158-0.244c0-0.401,0.473-2.18,0.746-3.069
		c0.086-0.286,0.186-0.588,0.186-1.491c0-1.42-0.287-3.644-2.28-3.644c-0.99,0-1.908,0.703-2.209,1.593
		c-0.072,0.186-0.072,0.215-0.201,0.215c-0.043,0-0.144,0-0.144-0.129c0-0.373,0.961-2.625,2.725-2.625
		c1.047,0,1.535,0.76,1.822,1.478c0.545,1.29,0.574,2.395,0.603,3.098C206.223,49.044,206.51,48.398,206.725,47.91z"/>
</g>
<g>
	<path d="M210.276,44.309c-0.07,0.279-0.14,0.558-0.14,0.847c0,0.538,0.239,0.867,0.737,0.867c0.807,0,1.286-0.907,1.295-0.957
		c0.03-0.1,0.14-0.518,0.259-1.016c0.149-0.618,0.338-1.366,0.468-1.864c0.08-0.339,0.338-0.349,0.388-0.349
		c0.15,0,0.289,0.09,0.289,0.269c0,0.06-0.1,0.438-0.149,0.667c-0.04,0.149-0.14,0.528-0.169,0.677
		c-0.089,0.359-0.189,0.718-0.279,1.076c-0.08,0.349-0.199,0.817-0.199,1.036c0,0.199,0.03,0.459,0.299,0.459
		c0.409,0,0.588-0.588,0.757-1.235c0.03-0.14,0.04-0.18,0.139-0.18c0.03,0,0.12,0,0.12,0.1c0,0.02-0.129,0.628-0.299,0.986
		c-0.159,0.319-0.389,0.548-0.737,0.548c-0.438,0-0.807-0.278-0.896-0.728c-0.239,0.279-0.628,0.728-1.325,0.728
		c-0.2,0-0.648-0.04-0.967-0.309c-0.378,1.534-0.508,2.053-0.548,2.143c-0.02,0.029-0.14,0.209-0.349,0.209
		c-0.169,0-0.279-0.12-0.279-0.27c0-0.02,0-0.039,0.03-0.159l1.435-5.769c0.09-0.349,0.369-0.359,0.398-0.359
		c0.169,0,0.289,0.1,0.289,0.269c0,0.05-0.1,0.429-0.149,0.638L210.276,44.309z"/>
</g>
<g>
	<path d="M218.953,50.951c-0.057,0.229-0.057,0.33-0.057,0.345c0,0.215,0,0.344,1.291,0.344c0.373,0,0.474,0,0.474,0.144
		c0,0.272-0.144,0.272-0.301,0.272c-0.359,0-0.746-0.028-1.104-0.028h-2.238c-0.358,0-0.731,0.028-1.09,0.028
		c-0.072,0-0.229,0-0.229-0.144c0-0.272,0.101-0.272,0.459-0.272c1.521,0,1.549-0.144,1.692-0.703l1.922-7.702
		c0.072-0.258,0.072-0.287,0.072-0.33c0-0.158-0.143-0.158-0.487-0.158h-0.961c-1.907,0-2.208,0.803-2.811,2.538
		c-0.057,0.187-0.086,0.244-0.201,0.244c-0.086,0-0.144-0.071-0.144-0.144c0-0.014,0.043-0.172,0.058-0.2l0.875-2.582
		c0.086-0.258,0.101-0.272,0.431-0.272h7.846c0.287,0,0.373,0,0.373,0.158c0,0.043,0,0.072-0.028,0.201l-0.416,2.539
		c-0.043,0.229-0.043,0.301-0.187,0.301c-0.086,0-0.144-0.086-0.144-0.144l0.015-0.172c0.086-0.53,0.143-1.075,0.143-1.291
		c0-1.119-0.674-1.176-2.108-1.176c-0.301,0-0.774,0-0.889,0.028c-0.215,0.058-0.244,0.187-0.33,0.531L218.953,50.951z"/>
</g>
<g>
	<path d="M227.262,50.002c0.169,0,0.289,0.1,0.289,0.27c0,0.04,0,0.06-0.069,0.339c-0.15,0.567-0.189,0.757-0.359,1.395
		c-0.09,0.379-0.11,0.479-0.219,0.896c-0.109,0.438-0.129,0.519-0.129,0.737c0,0.199,0.03,0.459,0.299,0.459
		c0.409,0,0.588-0.588,0.757-1.235c0.03-0.14,0.04-0.18,0.139-0.18c0.03,0,0.12,0,0.12,0.1c0,0.02-0.129,0.628-0.299,0.986
		c-0.159,0.319-0.389,0.548-0.737,0.548c-0.478,0-0.827-0.328-0.907-0.747c-0.598,0.707-1.096,0.747-1.295,0.747
		c-0.777,0-1.325-0.657-1.325-1.594c0-1.455,1.236-2.92,2.401-2.92c0.448,0,0.737,0.27,0.917,0.638
		C226.874,50.222,227.023,50.002,227.262,50.002z M226.694,51.068c0.01-0.05,0.03-0.109,0.03-0.169c0-0.061-0.14-0.877-0.787-0.877
		c-0.399,0-0.847,0.368-1.156,0.956c-0.229,0.459-0.548,1.685-0.548,2.183c0,0.389,0.14,0.937,0.638,0.937
		c0.279,0,0.688-0.159,1.126-0.708c0.149-0.169,0.149-0.189,0.199-0.368L226.694,51.068z"/>
</g>
<g>
	<path d="M233.224,53.935c-0.043,0.187-0.057,0.201-0.057,0.272c0,0.115,0.043,0.215,0.717,0.215c0.215,0,0.33,0,0.33,0.144
		c0,0.272-0.172,0.272-0.258,0.272c-0.215,0-0.459-0.028-0.674-0.028h-1.463c-0.201,0-0.459,0.028-0.66,0.028
		c-0.1,0-0.187-0.043-0.187-0.143c0-0.273,0.144-0.273,0.301-0.273c0.674-0.014,0.889-0.014,1.019-0.444l0.129-0.517
		c0.187-0.731,0.373-1.448,0.545-2.151l-0.015-0.014c-0.301,0.329-0.932,0.903-1.692,0.903c-0.976,0-1.807-0.832-1.807-2.252
		c0-2.123,1.75-4.217,3.371-4.217c0.617,0,1.062,0.387,1.319,1.032c0.272-0.502,0.832-1.019,0.947-1.019
		c0.072,0,0.129,0.058,0.129,0.13L233.224,53.935z M233.898,47.537c0.014-0.028,0.057-0.215,0.057-0.229
		c0-0.114-0.187-1.29-1.133-1.29c-0.56,0-1.233,0.516-1.721,1.52c-0.272,0.603-0.717,2.209-0.717,2.998
		c0,0.847,0.33,1.377,0.918,1.377c0.674,0,1.305-0.616,1.621-1.019c0.201-0.272,0.201-0.301,0.273-0.545L233.898,47.537z"/>
	<path d="M243.095,42.059c0.129-0.215,0.215-0.244,0.358-0.244c0.158,0,0.215,0.029,0.244,0.315l0.875,8.95
		c0.043,0.431,0.057,0.56,0.846,0.56c0.215,0,0.344,0,0.344,0.144c0,0.272-0.158,0.272-0.258,0.272
		c-0.014,0-0.646-0.028-1.521-0.028h-0.817c-0.244,0-0.531,0.028-0.774,0.028c-0.086,0-0.215,0-0.215-0.158
		c0-0.258,0.158-0.258,0.315-0.258c0.229,0,0.961-0.028,0.961-0.459c0-0.272-0.172-1.765-0.215-2.137
		c-0.015-0.13-0.015-0.244-0.029-0.373h-3.658l-1.09,1.807c-0.187,0.315-0.272,0.474-0.272,0.675c0,0.344,0.272,0.459,0.602,0.487
		c0.086,0,0.201,0.015,0.201,0.144c0,0.272-0.172,0.272-0.258,0.272c-0.402,0-0.861-0.028-1.276-0.028
		c-0.258,0-0.904,0.028-1.162,0.028c-0.1,0-0.172-0.058-0.172-0.144c0-0.258,0.115-0.258,0.272-0.272
		c0.688-0.043,1.176-0.33,1.678-1.176L243.095,42.059z M243.167,48.255l-0.488-4.819l-2.883,4.819H243.167z"/>
</g>
<g>
	<path d="M250.3,41.927c0.169,0,0.289,0.1,0.289,0.269c0,0.04,0,0.06-0.069,0.338c-0.15,0.568-0.189,0.757-0.359,1.395
		c-0.09,0.379-0.11,0.479-0.219,0.896c-0.109,0.438-0.129,0.519-0.129,0.737c0,0.199,0.03,0.459,0.299,0.459
		c0.409,0,0.588-0.588,0.757-1.235c0.03-0.14,0.04-0.18,0.139-0.18c0.03,0,0.12,0,0.12,0.1c0,0.02-0.129,0.628-0.299,0.986
		c-0.159,0.319-0.389,0.548-0.737,0.548c-0.478,0-0.827-0.328-0.907-0.747c-0.598,0.707-1.096,0.747-1.295,0.747
		c-0.777,0-1.325-0.657-1.325-1.594c0-1.455,1.236-2.92,2.401-2.92c0.448,0,0.737,0.269,0.917,0.638
		C249.912,42.146,250.061,41.927,250.3,41.927z M249.732,42.993c0.01-0.05,0.03-0.109,0.03-0.169c0-0.06-0.14-0.877-0.787-0.877
		c-0.399,0-0.847,0.369-1.156,0.957c-0.229,0.459-0.548,1.685-0.548,2.183c0,0.389,0.14,0.937,0.638,0.937
		c0.279,0,0.688-0.159,1.126-0.708c0.149-0.169,0.149-0.189,0.199-0.368L249.732,42.993z"/>
</g>
<g>
	<path d="M248.048,53.779c-0.07,0.279-0.14,0.558-0.14,0.847c0,0.538,0.239,0.867,0.737,0.867c0.807,0,1.286-0.907,1.295-0.957
		c0.03-0.1,0.14-0.518,0.259-1.016c0.149-0.618,0.338-1.365,0.468-1.863c0.08-0.339,0.338-0.35,0.388-0.35
		c0.15,0,0.289,0.09,0.289,0.27c0,0.06-0.1,0.438-0.149,0.668c-0.04,0.149-0.14,0.527-0.169,0.677
		c-0.089,0.359-0.189,0.718-0.279,1.076c-0.08,0.349-0.199,0.817-0.199,1.036c0,0.199,0.03,0.459,0.299,0.459
		c0.409,0,0.588-0.588,0.757-1.235c0.03-0.14,0.04-0.18,0.14-0.18c0.03,0,0.119,0,0.119,0.1c0,0.02-0.129,0.628-0.299,0.986
		c-0.159,0.319-0.389,0.548-0.737,0.548c-0.438,0-0.807-0.278-0.896-0.728c-0.239,0.279-0.628,0.728-1.325,0.728
		c-0.2,0-0.648-0.04-0.967-0.309c-0.378,1.534-0.508,2.053-0.548,2.143c-0.02,0.029-0.14,0.209-0.349,0.209
		c-0.169,0-0.279-0.12-0.279-0.27c0-0.02,0-0.039,0.03-0.159l1.435-5.769c0.09-0.35,0.369-0.359,0.398-0.359
		c0.169,0,0.289,0.1,0.289,0.27c0,0.05-0.1,0.428-0.149,0.638L248.048,53.779z"/>
</g>
<g>
	<path d="M257.518,48.757c-0.201,0-0.473,0-0.473-0.287s0.272-0.287,0.473-0.287h7.817c0.201,0,0.473,0,0.473,0.287
		s-0.272,0.287-0.473,0.287H257.518z"/>
</g>
<g>
	<path d="M275.527,41.246c0,0.517,0.043,0.688,1.305,0.688h0.445v0.416c-0.387-0.029-1.764-0.029-2.238-0.029
		c-0.473,0-1.864,0-2.252,0.029v-0.416h0.445c1.262,0,1.305-0.172,1.305-0.688v-7.473c-0.789,0.373-1.506,0.373-1.836,0.373V33.73
		c1.478,0,2.194-0.531,2.539-0.918c0.287,0,0.287,0.014,0.287,0.344V41.246z"/>
</g>
<g>
	<rect x="271.396" y="48.182" width="7.024" height="0.574"/>
</g>
<g>
	<path d="M276.574,59.085h1.449v0.416h-1.449v1.306c0,0.53,0.043,0.674,1.076,0.674h0.287v0.416
		c-0.33-0.028-1.478-0.028-1.879-0.028c-0.402,0-1.535,0-1.865,0.028V61.48h0.287c1.047,0,1.076-0.144,1.076-0.674v-1.306h-3.772
		v-0.416l4.317-6.698c0.115-0.172,0.158-0.172,0.272-0.172c0.201,0,0.201,0.071,0.201,0.344V59.085z M272.142,59.085h3.486v-5.407
		L272.142,59.085z"/>
</g>
<g>
	<path d="M282.957,51.037c-0.028,0.101-0.057,0.215-0.057,0.287c0,0.215,0.029,0.315,1.162,0.315c0.315,0,0.401,0,0.401,0.158
		c0,0.258-0.172,0.258-0.301,0.258c-0.315,0-0.66-0.028-0.976-0.028h-1.864c-0.272,0-0.56,0.028-0.832,0.028
		c-0.086,0-0.215,0-0.215-0.158c0-0.258,0.144-0.258,0.416-0.258c1.004,0,1.033-0.144,1.162-0.646l1.937-7.745
		c0.043-0.158,0.058-0.215,0.058-0.287c0-0.158,0-0.258-0.89-0.258c-0.244,0-0.344,0-0.344-0.158c0-0.258,0.144-0.258,0.417-0.258
		h6.799c0.258,0,0.387,0,0.387,0.158c0,0.029-0.028,0.172-0.028,0.215l-0.302,2.51c-0.028,0.258-0.086,0.315-0.187,0.315
		c-0.086,0-0.157-0.043-0.157-0.157c0-0.058,0.028-0.244,0.043-0.302c0.043-0.373,0.043-0.688,0.043-0.774
		c0-1.019-0.258-1.549-2.051-1.549h-1.923c-0.588,0-0.616,0.043-0.745,0.545l-0.933,3.715h1.306c1.247,0,1.534-0.302,1.836-1.377
		c0.057-0.244,0.071-0.302,0.2-0.302c0.101,0,0.144,0.087,0.144,0.144l-0.832,3.343c-0.058,0.229-0.071,0.286-0.187,0.286
		c-0.101,0-0.157-0.057-0.157-0.157c0-0.029,0.014-0.101,0.043-0.158c0.071-0.315,0.101-0.517,0.101-0.703
		c0-0.415-0.087-0.659-1.177-0.659h-1.377L282.957,51.037z"/>
</g>
<g>
	<path d="M294.794,41.927c0.17,0,0.289,0.1,0.289,0.269c0,0.04,0,0.06-0.069,0.338c-0.149,0.568-0.189,0.757-0.359,1.395
		c-0.089,0.379-0.109,0.479-0.219,0.896c-0.109,0.438-0.13,0.519-0.13,0.737c0,0.199,0.03,0.459,0.299,0.459
		c0.409,0,0.588-0.588,0.758-1.235c0.029-0.14,0.04-0.18,0.14-0.18c0.029,0,0.119,0,0.119,0.1c0,0.02-0.129,0.628-0.299,0.986
		c-0.159,0.319-0.389,0.548-0.737,0.548c-0.479,0-0.827-0.328-0.906-0.747c-0.599,0.707-1.097,0.747-1.296,0.747
		c-0.777,0-1.325-0.657-1.325-1.594c0-1.455,1.235-2.92,2.401-2.92c0.448,0,0.737,0.269,0.917,0.638
		C294.405,42.146,294.555,41.927,294.794,41.927z M294.227,42.993c0.01-0.05,0.029-0.109,0.029-0.169c0-0.06-0.14-0.877-0.787-0.877
		c-0.398,0-0.847,0.369-1.155,0.957c-0.229,0.459-0.548,1.685-0.548,2.183c0,0.389,0.139,0.937,0.638,0.937
		c0.278,0,0.688-0.159,1.126-0.708c0.149-0.169,0.149-0.189,0.199-0.368L294.227,42.993z"/>
</g>
<g>
	<path d="M290.591,53.779c-0.069,0.279-0.139,0.558-0.139,0.847c0,0.538,0.238,0.867,0.737,0.867c0.807,0,1.285-0.907,1.295-0.957
		c0.03-0.1,0.14-0.518,0.259-1.016c0.149-0.618,0.339-1.365,0.469-1.863c0.079-0.339,0.339-0.35,0.389-0.35
		c0.149,0,0.289,0.09,0.289,0.27c0,0.06-0.1,0.438-0.149,0.668c-0.04,0.149-0.14,0.527-0.17,0.677
		c-0.09,0.359-0.189,0.718-0.279,1.076c-0.079,0.349-0.199,0.817-0.199,1.036c0,0.199,0.03,0.459,0.299,0.459
		c0.409,0,0.588-0.588,0.758-1.235c0.03-0.14,0.04-0.18,0.14-0.18c0.029,0,0.119,0,0.119,0.1c0,0.02-0.129,0.628-0.299,0.986
		c-0.159,0.319-0.389,0.548-0.737,0.548c-0.438,0-0.807-0.278-0.896-0.728c-0.239,0.279-0.628,0.728-1.325,0.728
		c-0.199,0-0.647-0.04-0.967-0.309c-0.379,1.534-0.508,2.053-0.548,2.143c-0.021,0.029-0.14,0.209-0.349,0.209
		c-0.17,0-0.279-0.12-0.279-0.27c0-0.02,0-0.039,0.03-0.159l1.435-5.769c0.09-0.35,0.368-0.359,0.398-0.359
		c0.17,0,0.289,0.1,0.289,0.27c0,0.05-0.1,0.428-0.149,0.638L290.591,53.779z"/>
	<path d="M295.967,55.273c1.136-0.368,2.65-1.484,3.288-3.746c0.079-0.289,0.309-0.329,0.389-0.329c0.169,0,0.288,0.1,0.288,0.27
		c0,0.09-0.269,1.444-1.584,2.67c-1.026,0.957-2.112,1.346-2.81,1.465h-0.14c-0.06,0-0.159-0.01-0.159-0.119
		c0-0.021,0.069-0.3,0.109-0.449l0.607-2.44c0.07-0.27,0.189-0.737,0.189-0.808c0-0.1-0.02-0.169-0.498-0.169
		c-0.149,0-0.239,0-0.239-0.12c0-0.179,0.109-0.189,0.189-0.199c0.259-0.02,0.986-0.1,1.216-0.1c0.13,0,0.13,0.1,0.13,0.109
		L295.967,55.273z"/>
</g>
<g>
	<path d="M304.106,51.037c-0.028,0.101-0.058,0.215-0.058,0.287c0,0.215,0.029,0.315,1.162,0.315c0.315,0,0.401,0,0.401,0.158
		c0,0.258-0.172,0.258-0.301,0.258c-0.315,0-0.66-0.028-0.976-0.028h-1.864c-0.272,0-0.56,0.028-0.832,0.028
		c-0.086,0-0.215,0-0.215-0.158c0-0.258,0.144-0.258,0.416-0.258c1.004,0,1.032-0.144,1.161-0.646l1.937-7.745
		c0.043-0.158,0.058-0.215,0.058-0.287c0-0.158,0-0.258-0.89-0.258c-0.243,0-0.344,0-0.344-0.158c0-0.258,0.144-0.258,0.416-0.258
		h6.798c0.259,0,0.388,0,0.388,0.158c0,0.029-0.028,0.172-0.028,0.215l-0.302,2.51c-0.028,0.258-0.086,0.315-0.187,0.315
		c-0.086,0-0.157-0.043-0.157-0.157c0-0.058,0.028-0.244,0.043-0.302c0.043-0.373,0.043-0.688,0.043-0.774
		c0-1.019-0.259-1.549-2.051-1.549h-1.923c-0.588,0-0.616,0.043-0.745,0.545l-0.933,3.715h1.306c1.247,0,1.534-0.302,1.836-1.377
		c0.057-0.244,0.071-0.302,0.2-0.302c0.101,0,0.144,0.087,0.144,0.144l-0.832,3.343c-0.058,0.229-0.071,0.286-0.187,0.286
		c-0.101,0-0.157-0.057-0.157-0.157c0-0.029,0.014-0.101,0.043-0.158c0.071-0.315,0.101-0.517,0.101-0.703
		c0-0.415-0.087-0.659-1.177-0.659h-1.377L304.106,51.037z"/>
</g>
<g>
	<path d="M313.691,44.309c-0.069,0.279-0.139,0.558-0.139,0.847c0,0.538,0.238,0.867,0.737,0.867c0.807,0,1.285-0.907,1.295-0.957
		c0.03-0.1,0.14-0.518,0.259-1.016c0.149-0.618,0.339-1.366,0.469-1.864c0.079-0.339,0.339-0.349,0.389-0.349
		c0.149,0,0.289,0.09,0.289,0.269c0,0.06-0.1,0.438-0.149,0.667c-0.04,0.149-0.14,0.528-0.17,0.677
		c-0.09,0.359-0.189,0.718-0.279,1.076c-0.079,0.349-0.199,0.817-0.199,1.036c0,0.199,0.03,0.459,0.299,0.459
		c0.409,0,0.588-0.588,0.758-1.235c0.03-0.14,0.04-0.18,0.14-0.18c0.029,0,0.119,0,0.119,0.1c0,0.02-0.129,0.628-0.299,0.986
		c-0.159,0.319-0.389,0.548-0.737,0.548c-0.438,0-0.807-0.278-0.896-0.728c-0.239,0.279-0.628,0.728-1.325,0.728
		c-0.199,0-0.647-0.04-0.967-0.309c-0.379,1.534-0.508,2.053-0.548,2.143c-0.021,0.029-0.14,0.209-0.349,0.209
		c-0.17,0-0.279-0.12-0.279-0.27c0-0.02,0-0.039,0.03-0.159l1.435-5.769c0.09-0.349,0.368-0.359,0.398-0.359
		c0.17,0,0.289,0.1,0.289,0.269c0,0.05-0.1,0.429-0.149,0.638L313.691,44.309z"/>
	<path d="M319.067,45.803c1.136-0.368,2.65-1.484,3.288-3.746c0.079-0.289,0.309-0.329,0.389-0.329c0.169,0,0.288,0.1,0.288,0.269
		c0,0.09-0.269,1.445-1.584,2.67c-1.026,0.957-2.112,1.346-2.81,1.465h-0.14c-0.06,0-0.159-0.01-0.159-0.119
		c0-0.021,0.069-0.3,0.109-0.449l0.607-2.44c0.07-0.27,0.189-0.738,0.189-0.808c0-0.1-0.02-0.169-0.498-0.169
		c-0.149,0-0.239,0-0.239-0.12c0-0.18,0.109-0.189,0.189-0.2c0.259-0.02,0.986-0.1,1.216-0.1c0.129,0,0.129,0.1,0.129,0.11
		L319.067,45.803z"/>
</g>
<g>
	<path d="M313.993,51.397c0.17,0,0.289,0.1,0.289,0.27c0,0.04,0,0.06-0.069,0.339c-0.149,0.567-0.189,0.757-0.359,1.395
		c-0.089,0.379-0.109,0.479-0.219,0.896c-0.109,0.438-0.13,0.519-0.13,0.737c0,0.199,0.03,0.459,0.299,0.459
		c0.409,0,0.588-0.588,0.758-1.235c0.029-0.14,0.04-0.18,0.14-0.18c0.029,0,0.119,0,0.119,0.1c0,0.02-0.129,0.628-0.299,0.986
		c-0.159,0.319-0.389,0.548-0.737,0.548c-0.479,0-0.827-0.328-0.906-0.747c-0.599,0.707-1.097,0.747-1.296,0.747
		c-0.777,0-1.325-0.657-1.325-1.594c0-1.455,1.235-2.92,2.401-2.92c0.448,0,0.737,0.27,0.917,0.638
		C313.604,51.617,313.754,51.397,313.993,51.397z M313.426,52.464c0.01-0.05,0.029-0.109,0.029-0.169
		c0-0.061-0.14-0.877-0.787-0.877c-0.398,0-0.847,0.368-1.155,0.956c-0.229,0.459-0.548,1.685-0.548,2.183
		c0,0.389,0.139,0.937,0.638,0.937c0.278,0,0.688-0.159,1.126-0.708c0.149-0.169,0.149-0.189,0.199-0.368L313.426,52.464z"/>
</g>
</svg>
