<?xml version="1.0" encoding="iso-8859-1"?>
<!-- Generator: Adobe Illustrator 16.0.0, SVG Export Plug-In . SVG Version: 6.00 Build 0)  -->
<!DOCTYPE svg PUBLIC "-//W3C//DTD SVG 1.1//EN" "http://www.w3.org/Graphics/SVG/1.1/DTD/svg11.dtd">
<svg version="1.1" id="Layer_1" xmlns="http://www.w3.org/2000/svg" xmlns:xlink="http://www.w3.org/1999/xlink" x="0px" y="0px"
	 width="566.929px" height="85.039px" viewBox="0 0 566.929 85.039" style="enable-background:new 0 0 566.929 85.039;"
	 xml:space="preserve">
<g>
	<path d="M31.161,48.325c-0.76,0-1.678-0.272-2.166-0.401c-1.334-0.401-1.735-0.401-2.18-0.416
		c-0.359,0.487-1.076,0.817-1.334,0.817c-0.101,0-0.129-0.058-0.129-0.086c0-0.058,0.057-0.244,0.516-0.66
		c0.029-0.043,0.861-0.86,1.406-3.012c0.588-2.295,1.076-3.815,2.08-5.035c0.674-0.803,2.037-1.635,3.199-1.635
		c0.932,0,1.233,0.688,1.233,1.348c0,0.646-0.158,0.76-0.373,0.932c-0.344,0.258-0.746,0.43-0.961,0.43
		c-0.115,0-0.115-0.071-0.115-0.1c0-0.043,0.058-0.301,0.058-0.531c0-0.358-0.129-1.19-0.99-1.19c-0.473,0-0.56,0.086-0.774,0.315
		c-1.019,1.033-1.693,3.701-1.965,4.776c-0.144,0.574-0.416,1.678-1.176,2.797c0.158-0.043,0.215-0.058,0.545-0.058
		c0.76,0,1.592,0.244,2.323,0.459c0.56,0.158,1.32,0.358,1.937,0.358c0.229,0,0.244,0,0.373-0.172c0-0.014,0.129-0.2,0.215-0.43
		c0.086-0.244,0.115-0.33,0.517-0.589c0.229-0.157,0.588-0.315,0.789-0.315c0.043,0,0.115,0.029,0.129,0.043
		C34.001,47.364,32.208,48.325,31.161,48.325z"/>
</g>
<g>
	<path d="M40.919,51.067c0.429,0,0.847-0.299,0.907-0.837c0.01-0.1,0.02-0.179,0.11-0.179c0.109,0,0.109,0.109,0.109,0.209
		c0,0.508-0.189,1.833-1.206,1.833c-0.927,0-1.066-0.916-1.215-1.863c-0.289,0.09-0.638,0.149-0.947,0.149
		c-1.813,0-3.318-1.584-3.318-3.597c0-2.053,1.524-3.646,3.308-3.646c1.813,0,3.318,1.614,3.318,3.646
		c0,1.505-0.847,2.78-2.023,3.309C40.202,50.729,40.451,51.067,40.919,51.067z M37.871,49.523c0-0.408,0.309-0.837,0.817-0.837
		c0.588,0,0.907,0.498,1.126,1.056c1.056-0.776,1.176-2.182,1.176-2.959c0-2.541-1.355-3.397-2.321-3.397
		c-0.917,0-2.312,0.807-2.312,3.397c0,2.292,1.116,3.02,1.654,3.219C38,49.981,37.871,49.792,37.871,49.523z M38.688,48.905
		c-0.388,0-0.598,0.329-0.598,0.618c0,0.149,0.08,0.607,0.588,0.607c0.219,0,0.538-0.039,0.877-0.229
		C39.445,49.324,39.226,48.905,38.688,48.905z"/>
	<path d="M48.628,50.161h-5.75v-0.309h0.239c0.767,0,0.787-0.11,0.787-0.469v-5.221c0-0.359-0.02-0.469-0.787-0.469h-0.239v-0.309
		h5.61l0.279,2.242h-0.249c-0.159-1.386-0.428-1.934-1.953-1.934H45.28c-0.468,0-0.488,0.07-0.488,0.398v2.392h0.897
		c0.966,0,1.076-0.309,1.076-1.166h0.249v2.641h-0.249c0-0.847-0.11-1.166-1.076-1.166h-0.897v2.661c0,0.328,0.02,0.398,0.488,0.398
		h1.325c1.714,0,1.943-0.728,2.192-2.262h0.249L48.628,50.161z"/>
	<path d="M53.326,43.355c1.704,0,3.049,1.564,3.049,3.458c0,1.873-1.375,3.348-3.049,3.348h-3.647v-0.309h0.239
		c0.767,0,0.787-0.11,0.787-0.469v-5.251c0-0.358-0.02-0.468-0.787-0.468h-0.239v-0.31H53.326z M53.057,49.853
		c1.006,0,1.574-0.578,1.773-0.848c0.359-0.488,0.548-1.086,0.548-2.191c0-0.777-0.09-1.635-0.519-2.223
		c-0.508-0.707-1.195-0.926-1.813-0.926h-0.997c-0.468,0-0.488,0.069-0.488,0.398v5.391c0,0.328,0.02,0.398,0.488,0.398H53.057z"/>
</g>
<g>
	<path d="M62.657,43.362c-0.215,0-0.459,0-0.459-0.272c0-0.258,0.258-0.258,0.459-0.258h8.448c0.215,0,0.459,0,0.459,0.272
		c0,0.258-0.258,0.258-0.459,0.258H62.657z M62.657,46.03c-0.215,0-0.459,0-0.459-0.272c0-0.258,0.258-0.258,0.459-0.258h8.448
		c0.215,0,0.459,0,0.459,0.272c0,0.258-0.258,0.258-0.459,0.258H62.657z"/>
</g>
<g>
	<path d="M77.54,54.461c-0.258,0-0.388,0-0.388-0.157c0-0.015,0-0.086,0.144-0.258l7.43-8.707l-7.587-10.384
		c0-0.158,0-0.43,0.014-0.473c0.043-0.086,0.058-0.101,0.388-0.101h16.954l1.735,4.03h-0.358c-0.488-1.162-1.463-1.807-1.822-2.037
		c-1.133-0.717-2.381-0.961-3.155-1.076c-0.129-0.029-1.435-0.229-3.356-0.229h-7.86l6.684,9.137
		c0.101,0.144,0.101,0.187,0.101,0.215c0,0.072-0.029,0.115-0.129,0.229l-7.301,8.563h8.649c2.754,0,4.159-0.373,4.46-0.445
		c1.649-0.43,3.17-1.405,3.729-2.897h0.358l-1.735,4.59H77.54z"/>
</g>
<g>
	<path d="M85.161,61.618c0.13-0.518,0.16-0.628,0.16-0.837c0-0.329-0.11-0.458-0.309-0.458c-0.358,0-0.558,0.478-0.727,1.186
		c-0.06,0.219-0.07,0.229-0.169,0.229c-0.02,0-0.12,0-0.12-0.1c0-0.04,0.139-0.628,0.299-0.967c0.1-0.18,0.289-0.568,0.747-0.568
		c0.458,0,0.867,0.31,0.917,0.867c0.169-0.229,0.658-0.867,1.554-0.867c0.717,0,1.146,0.398,1.146,1.066
		c0,0.568-0.418,1.664-0.608,2.192c-0.09,0.219-0.179,0.458-0.179,0.707c0,0.229,0.07,0.329,0.239,0.329
		c0.488,0,0.817-0.559,1.016-1.235c0.05-0.149,0.05-0.18,0.149-0.18c0.03,0,0.12,0,0.12,0.1c0,0.08-0.369,1.534-1.305,1.534
		c-0.468,0-0.817-0.349-0.817-0.816c0-0.11,0.01-0.229,0.1-0.459c0.159-0.428,0.647-1.703,0.647-2.321
		c0-0.329-0.09-0.697-0.538-0.697c-0.947,0-1.475,0.906-1.624,1.215c-0.01,0.04-0.09,0.329-0.13,0.499
		c-0.05,0.229-0.109,0.448-0.169,0.667c-0.07,0.299-0.15,0.598-0.219,0.897c-0.06,0.249-0.18,0.717-0.189,0.737
		c-0.07,0.199-0.249,0.278-0.369,0.278c-0.149,0-0.289-0.09-0.289-0.269c0-0.05,0.06-0.279,0.09-0.429L85.161,61.618z"/>
</g>
<g>
	<path d="M103.295,36.234v-0.416h5.063v0.416H103.295z"/>
</g>
<g>
	<path d="M103.837,47.866c0.43,0,1.535,0,2.739-1.349c0.918-1.032,1.205-2.094,1.205-2.61c0-0.745-0.387-1.133-0.517-1.262
		c-0.057-0.058-0.158-0.158-0.158-0.33c0-0.287,0.315-0.631,0.66-0.631c0.143,0,0.573,0.1,0.573,0.961
		c0,0.731-0.344,2.008-0.487,2.381c-0.244,0.617-0.674,1.276-1.147,1.793c-1.291,1.334-2.424,1.334-2.955,1.334
		c-0.057,0.258-0.645,2.668-0.703,2.726c-0.029,0.057-0.086,0.057-0.115,0.057c-0.043,0-0.158,0-0.158-0.129
		c0-0.058,0.101-0.459,0.33-1.319c0.115-0.444,0.215-0.903,0.33-1.349c-1.291-0.101-2.438-0.631-2.438-2.008
		c0-0.33,0-0.646,0.775-2.683c0.244-0.631,0.244-0.946,0.244-1.004c0-0.459-0.244-0.473-0.373-0.473
		c-0.53,0-1.104,0.531-1.448,1.779c-0.058,0.2-0.072,0.258-0.201,0.258c-0.1,0-0.158-0.071-0.158-0.129
		c0-0.115,0.531-2.194,1.85-2.194c0.674,0,1.133,0.516,1.133,1.162c0,0.258-0.072,0.445-0.258,0.961
		c-0.674,1.778-0.674,2.108-0.674,2.424c0,0.86,0.444,1.463,1.635,1.606l2.367-9.496c0.058-0.215,0.072-0.287,0.201-0.287
		c0.043,0,0.158,0,0.158,0.129c0,0.015-0.058,0.201-0.058,0.215L103.837,47.866z"/>
</g>
<g>
	<path d="M110.035,47.271c0.13-0.518,0.16-0.628,0.16-0.837c0-0.329-0.11-0.458-0.309-0.458c-0.358,0-0.558,0.478-0.727,1.186
		c-0.06,0.219-0.07,0.229-0.169,0.229c-0.02,0-0.12,0-0.12-0.101c0-0.039,0.139-0.627,0.299-0.966c0.1-0.18,0.289-0.568,0.747-0.568
		c0.458,0,0.867,0.31,0.917,0.867c0.169-0.229,0.658-0.867,1.554-0.867c0.717,0,1.146,0.398,1.146,1.066
		c0,0.568-0.418,1.664-0.608,2.192c-0.09,0.219-0.179,0.458-0.179,0.707c0,0.229,0.07,0.329,0.239,0.329
		c0.488,0,0.817-0.559,1.016-1.235c0.05-0.149,0.05-0.18,0.149-0.18c0.03,0,0.12,0,0.12,0.1c0,0.08-0.369,1.534-1.305,1.534
		c-0.468,0-0.817-0.349-0.817-0.816c0-0.11,0.01-0.229,0.1-0.459c0.159-0.429,0.647-1.704,0.647-2.321
		c0-0.329-0.09-0.697-0.538-0.697c-0.947,0-1.475,0.906-1.624,1.215c-0.01,0.04-0.09,0.329-0.13,0.499
		c-0.05,0.229-0.109,0.448-0.169,0.667c-0.07,0.299-0.15,0.598-0.219,0.897c-0.06,0.249-0.18,0.717-0.189,0.737
		c-0.07,0.199-0.249,0.278-0.369,0.278c-0.149,0-0.289-0.09-0.289-0.269c0-0.05,0.06-0.279,0.09-0.429L110.035,47.271z"/>
</g>
<g>
	<path d="M121.981,51.61c-0.158,0-1.333-0.933-2.18-2.654c-0.746-1.534-0.947-3.241-0.947-4.518c0-1.765,0.33-3.299,1.061-4.748
		c0.703-1.405,1.879-2.438,2.065-2.438c0.058,0,0.129,0.029,0.129,0.115c0,0.043,0,0.072-0.144,0.201
		c-1.664,1.692-2.338,4.088-2.338,6.871c0,2.926,0.803,5.292,2.238,6.741c0.244,0.244,0.244,0.272,0.244,0.315
		C122.111,51.581,122.039,51.61,121.981,51.61z"/>
</g>
<g>
	<path d="M125.135,48.153c-0.688,0-1.133-0.517-1.133-1.162c0-0.258,0.086-0.487,0.172-0.717c0.488-1.306,0.488-1.334,1.004-2.668
		c0.115-0.315,0.301-0.789,0.301-1.162c0-0.459-0.244-0.473-0.373-0.473c-0.559,0-1.104,0.574-1.448,1.779
		c-0.058,0.2-0.072,0.258-0.201,0.258c-0.1,0-0.158-0.071-0.158-0.129c0-0.115,0.531-2.194,1.85-2.194
		c0.703,0,1.133,0.545,1.133,1.147c0,0.272-0.1,0.53-0.144,0.646c-0.33,0.889-0.66,1.778-1.004,2.668
		c-0.158,0.43-0.33,0.86-0.33,1.247c0,0.431,0.201,0.474,0.373,0.474c0.474,0,1.062-0.444,1.435-1.75
		c0.072-0.243,0.086-0.286,0.215-0.286c0.086,0,0.144,0.057,0.144,0.129C126.971,46.059,126.455,48.153,125.135,48.153z
		 M126.139,39.748c-0.172,0-0.473-0.115-0.473-0.473c0-0.373,0.373-0.688,0.703-0.688c0.316,0,0.488,0.258,0.488,0.473
		C126.856,39.375,126.526,39.748,126.139,39.748z"/>
	<path d="M134.101,43.864c0.43-0.975,0.933-1.95,0.961-1.979c0.029-0.058,0.101-0.058,0.129-0.058c0.129,0,0.144,0.101,0.144,0.115
		c0,0.043-0.201,0.431-0.301,0.66c-1.133,2.252-1.951,4.618-1.994,4.963c-0.072,0.573-0.158,1.204-0.502,2.467
		c-0.158,0.573-0.287,1.047-0.502,1.047c-0.115,0-0.158-0.129-0.158-0.244c0-0.401,0.474-2.18,0.746-3.069
		c0.086-0.286,0.187-0.588,0.187-1.491c0-1.42-0.287-3.644-2.281-3.644c-0.99,0-1.908,0.703-2.209,1.592
		c-0.072,0.187-0.072,0.216-0.201,0.216c-0.043,0-0.144,0-0.144-0.129c0-0.373,0.961-2.625,2.725-2.625
		c1.047,0,1.535,0.76,1.822,1.478c0.545,1.291,0.574,2.395,0.603,3.098C133.599,44.998,133.886,44.353,134.101,43.864z"/>
</g>
<g>
	<path d="M137.654,40.263c-0.07,0.279-0.14,0.558-0.14,0.847c0,0.538,0.239,0.867,0.737,0.867c0.807,0,1.286-0.907,1.295-0.957
		c0.03-0.1,0.14-0.519,0.259-1.017c0.149-0.618,0.338-1.365,0.468-1.863c0.08-0.339,0.338-0.349,0.388-0.349
		c0.15,0,0.289,0.09,0.289,0.269c0,0.06-0.1,0.438-0.149,0.667c-0.04,0.149-0.14,0.528-0.169,0.678
		c-0.089,0.358-0.189,0.717-0.279,1.076c-0.08,0.349-0.199,0.817-0.199,1.036c0,0.199,0.03,0.458,0.299,0.458
		c0.409,0,0.588-0.588,0.757-1.236c0.03-0.14,0.04-0.179,0.139-0.179c0.03,0,0.12,0,0.12,0.1c0,0.02-0.129,0.628-0.299,0.986
		c-0.159,0.319-0.389,0.548-0.737,0.548c-0.438,0-0.807-0.279-0.896-0.727c-0.239,0.279-0.628,0.727-1.325,0.727
		c-0.2,0-0.648-0.04-0.967-0.309c-0.378,1.534-0.508,2.053-0.548,2.143c-0.02,0.029-0.14,0.209-0.349,0.209
		c-0.169,0-0.279-0.12-0.279-0.27c0-0.02,0-0.039,0.03-0.159l1.435-5.769c0.09-0.349,0.369-0.359,0.398-0.359
		c0.169,0,0.289,0.1,0.289,0.269c0,0.05-0.1,0.429-0.149,0.638L137.654,40.263z"/>
</g>
<g>
	<path d="M148.798,43.219c0.143-0.53,0.416-1.592,0.416-2.51c0-1.606-0.803-2.61-2.065-2.61c-0.387,0-1.477,0.101-2.065,1.162
		c0.187,0,0.631,0,0.631,0.445c0,0.244-0.215,0.703-0.717,0.703c-0.401,0-0.487-0.315-0.487-0.444c0-0.387,0.617-2.209,2.696-2.209
		c1.836,0,2.998,1.592,2.998,3.658c0,1.965-1.449,6.898-4.833,6.898c-1.951,0-2.553-1.649-2.553-2.524
		c0-2.28,2.065-4.331,4.088-4.331c1.291,0,1.793,0.961,1.879,1.764H148.798z M148.554,43.649c0-0.774-0.301-1.908-1.606-1.908
		c-1.492,0-2.309,1.449-2.496,1.879c-0.215,0.53-0.617,2.008-0.617,2.639c0,0.603,0.229,1.664,1.578,1.664
		C147.622,47.924,148.554,44.711,148.554,43.649z"/>
</g>
<g>
	<path d="M151.57,48.338c-0.07,0.279-0.14,0.558-0.14,0.847c0,0.538,0.239,0.867,0.737,0.867c0.807,0,1.286-0.907,1.295-0.957
		c0.03-0.1,0.14-0.518,0.259-1.016c0.149-0.618,0.338-1.365,0.468-1.863c0.08-0.339,0.338-0.35,0.388-0.35
		c0.15,0,0.289,0.09,0.289,0.27c0,0.06-0.1,0.438-0.149,0.668c-0.04,0.149-0.14,0.527-0.169,0.677
		c-0.089,0.359-0.189,0.718-0.279,1.076c-0.08,0.349-0.199,0.817-0.199,1.036c0,0.199,0.03,0.459,0.299,0.459
		c0.409,0,0.588-0.588,0.757-1.235c0.03-0.14,0.04-0.18,0.139-0.18c0.03,0,0.12,0,0.12,0.1c0,0.02-0.129,0.628-0.299,0.986
		c-0.159,0.319-0.389,0.548-0.737,0.548c-0.438,0-0.807-0.278-0.896-0.728c-0.239,0.279-0.628,0.728-1.325,0.728
		c-0.2,0-0.648-0.04-0.967-0.309c-0.378,1.534-0.508,2.053-0.548,2.143c-0.02,0.029-0.14,0.209-0.349,0.209
		c-0.169,0-0.279-0.12-0.279-0.27c0-0.02,0-0.039,0.03-0.159l1.435-5.769c0.09-0.35,0.369-0.359,0.398-0.359
		c0.169,0,0.289,0.1,0.289,0.27c0,0.05-0.1,0.428-0.149,0.638L151.57,48.338z"/>
</g>
<g>
	<path d="M161.04,44.711c-0.201,0-0.474,0-0.474-0.287s0.272-0.287,0.474-0.287h7.817c0.201,0,0.473,0,0.473,0.287
		s-0.272,0.287-0.473,0.287H161.04z"/>
</g>
<g>
	<path d="M176.205,45.7c-0.101,0.431-0.215,0.861-0.315,1.291c-0.072,0.287-0.201,0.789-0.229,0.86
		c-0.115,0.216-0.316,0.302-0.488,0.302c-0.215,0-0.373-0.158-0.373-0.358c0-0.072,0.158-0.746,0.258-1.119
		c0.072-0.258,0.229-0.903,0.287-1.176c0.129-0.517,0.272-1.033,0.402-1.55c0.1-0.444,0.244-1.003,0.244-1.319
		c0-0.43-0.115-0.66-0.444-0.66c-0.574,0-0.847,0.846-1.062,1.693c-0.086,0.33-0.101,0.344-0.215,0.344
		c-0.1,0-0.158-0.071-0.158-0.129s0.201-0.932,0.459-1.449c0.272-0.545,0.603-0.746,1.019-0.746c0.631,0,1.219,0.444,1.262,1.262
		c0.258-0.359,0.932-1.262,2.208-1.262c1.076,0,1.549,0.617,1.592,1.392c0.574-0.847,1.348-1.392,2.309-1.392
		c1.09,0,1.592,0.646,1.592,1.506c0,0.832-0.646,2.524-0.904,3.213c-0.057,0.158-0.229,0.617-0.229,0.989
		c0,0.459,0.229,0.474,0.373,0.474c0.574,0,1.104-0.603,1.435-1.75c0.072-0.243,0.086-0.286,0.215-0.286
		c0.086,0,0.144,0.057,0.144,0.129c0,0.086-0.502,2.194-1.836,2.194c-0.688,0-1.133-0.517-1.133-1.162
		c0-0.258,0.071-0.444,0.201-0.789c0.315-0.86,0.875-2.424,0.875-3.227c0-0.574-0.201-1.004-0.775-1.004
		c-1.578,0-2.323,1.792-2.352,1.908c-0.215,0.875-0.588,2.353-0.861,3.428c-0.129,0.517-0.201,0.847-0.631,0.847
		c-0.215,0-0.373-0.158-0.373-0.358c0-0.058,0.086-0.431,0.144-0.646c0.029-0.158,0.301-1.22,0.416-1.649
		c0.172-0.688,0.172-0.731,0.358-1.478c0.172-0.674,0.172-0.961,0.172-1.047c0-0.574-0.201-1.004-0.775-1.004
		c-0.559,0-1.047,0.229-1.42,0.574c-0.531,0.459-0.889,1.176-0.918,1.263L176.205,45.7z"/>
</g>
<g>
	<path d="M187.464,47.271c0.13-0.518,0.16-0.628,0.16-0.837c0-0.329-0.11-0.458-0.309-0.458c-0.358,0-0.558,0.478-0.727,1.186
		c-0.06,0.219-0.07,0.229-0.169,0.229c-0.02,0-0.12,0-0.12-0.101c0-0.039,0.139-0.627,0.299-0.966c0.1-0.18,0.289-0.568,0.747-0.568
		c0.458,0,0.867,0.31,0.917,0.867c0.169-0.229,0.658-0.867,1.554-0.867c0.717,0,1.146,0.398,1.146,1.066
		c0,0.568-0.418,1.664-0.608,2.192c-0.09,0.219-0.179,0.458-0.179,0.707c0,0.229,0.07,0.329,0.239,0.329
		c0.488,0,0.817-0.559,1.016-1.235c0.05-0.149,0.05-0.18,0.149-0.18c0.03,0,0.12,0,0.12,0.1c0,0.08-0.369,1.534-1.305,1.534
		c-0.468,0-0.817-0.349-0.817-0.816c0-0.11,0.01-0.229,0.1-0.459c0.159-0.429,0.647-1.704,0.647-2.321
		c0-0.329-0.09-0.697-0.538-0.697c-0.947,0-1.475,0.906-1.624,1.215c-0.01,0.04-0.09,0.329-0.13,0.499
		c-0.05,0.229-0.109,0.448-0.169,0.667c-0.07,0.299-0.15,0.598-0.219,0.897c-0.06,0.249-0.18,0.717-0.189,0.737
		c-0.07,0.199-0.249,0.278-0.369,0.278c-0.149,0-0.289-0.09-0.289-0.269c0-0.05,0.06-0.279,0.09-0.429L187.464,47.271z"/>
</g>
<g>
	<path d="M195.471,49.172c-0.703,1.405-1.879,2.438-2.065,2.438c-0.057,0-0.129-0.029-0.129-0.115c0-0.043,0-0.071,0.143-0.201
		c1.664-1.692,2.338-4.087,2.338-6.87c0-2.926-0.803-5.292-2.237-6.741c-0.244-0.244-0.244-0.272-0.244-0.315
		c0-0.086,0.072-0.115,0.129-0.115c0.158,0,1.334,0.932,2.18,2.653c0.803,1.664,0.947,3.443,0.947,4.533
		C196.533,46.159,196.203,47.709,195.471,49.172z"/>
</g>
<g>
	<path d="M204.731,47.866c0.43,0,1.535,0,2.739-1.349c0.918-1.032,1.205-2.094,1.205-2.61c0-0.745-0.387-1.133-0.517-1.262
		c-0.057-0.058-0.158-0.158-0.158-0.33c0-0.287,0.315-0.631,0.66-0.631c0.143,0,0.573,0.1,0.573,0.961
		c0,0.731-0.344,2.008-0.487,2.381c-0.244,0.617-0.674,1.276-1.147,1.793c-1.291,1.334-2.424,1.334-2.955,1.334
		c-0.057,0.258-0.645,2.668-0.703,2.726c-0.029,0.057-0.086,0.057-0.115,0.057c-0.043,0-0.158,0-0.158-0.129
		c0-0.058,0.101-0.459,0.33-1.319c0.115-0.444,0.215-0.903,0.33-1.349c-1.291-0.101-2.438-0.631-2.438-2.008
		c0-0.33,0-0.646,0.775-2.683c0.244-0.631,0.244-0.946,0.244-1.004c0-0.459-0.244-0.473-0.373-0.473
		c-0.53,0-1.104,0.531-1.448,1.779c-0.058,0.2-0.072,0.258-0.201,0.258c-0.1,0-0.158-0.071-0.158-0.129
		c0-0.115,0.531-2.194,1.85-2.194c0.674,0,1.133,0.516,1.133,1.162c0,0.258-0.072,0.445-0.258,0.961
		c-0.674,1.778-0.674,2.108-0.674,2.424c0,0.86,0.444,1.463,1.635,1.606l2.367-9.496c0.058-0.215,0.072-0.287,0.201-0.287
		c0.043,0,0.158,0,0.158,0.129c0,0.015-0.058,0.201-0.058,0.215L204.731,47.866z"/>
</g>
<g>
	<path d="M210.929,47.271c0.13-0.518,0.16-0.628,0.16-0.837c0-0.329-0.11-0.458-0.309-0.458c-0.358,0-0.558,0.478-0.727,1.186
		c-0.06,0.219-0.07,0.229-0.169,0.229c-0.02,0-0.12,0-0.12-0.101c0-0.039,0.139-0.627,0.299-0.966c0.1-0.18,0.289-0.568,0.747-0.568
		c0.458,0,0.867,0.31,0.917,0.867c0.169-0.229,0.658-0.867,1.554-0.867c0.717,0,1.146,0.398,1.146,1.066
		c0,0.568-0.418,1.664-0.608,2.192c-0.09,0.219-0.179,0.458-0.179,0.707c0,0.229,0.07,0.329,0.239,0.329
		c0.488,0,0.817-0.559,1.016-1.235c0.05-0.149,0.05-0.18,0.149-0.18c0.03,0,0.12,0,0.12,0.1c0,0.08-0.369,1.534-1.305,1.534
		c-0.468,0-0.817-0.349-0.817-0.816c0-0.11,0.01-0.229,0.1-0.459c0.16-0.429,0.648-1.704,0.648-2.321
		c0-0.329-0.09-0.697-0.538-0.697c-0.947,0-1.475,0.906-1.624,1.215c-0.01,0.04-0.09,0.329-0.13,0.499
		c-0.05,0.229-0.109,0.448-0.169,0.667c-0.07,0.299-0.15,0.598-0.219,0.897c-0.06,0.249-0.18,0.717-0.189,0.737
		c-0.07,0.199-0.249,0.278-0.369,0.278c-0.149,0-0.289-0.09-0.289-0.269c0-0.05,0.06-0.279,0.09-0.429L210.929,47.271z"/>
</g>
<g>
	<path d="M220.804,44.711c-0.201,0-0.473,0-0.473-0.287s0.272-0.287,0.473-0.287h7.817c0.201,0,0.473,0,0.473,0.287
		s-0.272,0.287-0.473,0.287H220.804z"/>
</g>
<g>
	<path d="M238.813,37.2c0,0.517,0.043,0.688,1.305,0.688h0.445v0.416c-0.387-0.029-1.764-0.029-2.238-0.029
		c-0.473,0-1.864,0-2.252,0.029v-0.416h0.445c1.262,0,1.305-0.172,1.305-0.688v-7.473c-0.789,0.373-1.506,0.373-1.836,0.373v-0.416
		c1.478,0,2.194-0.531,2.539-0.918c0.287,0,0.287,0.014,0.287,0.344V37.2z"/>
</g>
<g>
	<rect x="234.682" y="44.136" width="7.024" height="0.574"/>
</g>
<g>
	<path d="M239.86,55.038h1.449v0.416h-1.449v1.306c0,0.53,0.043,0.674,1.076,0.674h0.287v0.416c-0.33-0.028-1.478-0.028-1.879-0.028
		c-0.402,0-1.535,0-1.865,0.028v-0.416h0.287c1.047,0,1.076-0.144,1.076-0.674v-1.306h-3.772v-0.416l4.317-6.698
		c0.115-0.172,0.158-0.172,0.272-0.172c0.201,0,0.201,0.071,0.201,0.344V55.038z M235.428,55.038h3.486v-5.407L235.428,55.038z"/>
</g>
<g>
	<path d="M246.243,46.991c-0.028,0.101-0.057,0.216-0.057,0.287c0,0.215,0.029,0.315,1.162,0.315c0.316,0,0.402,0,0.402,0.158
		c0,0.258-0.172,0.258-0.301,0.258c-0.315,0-0.66-0.028-0.976-0.028h-1.864c-0.273,0-0.56,0.028-0.832,0.028
		c-0.086,0-0.215,0-0.215-0.158c0-0.258,0.144-0.258,0.416-0.258c1.004,0,1.033-0.144,1.162-0.646l1.936-7.745
		c0.043-0.158,0.058-0.215,0.058-0.287c0-0.158,0-0.258-0.89-0.258c-0.244,0-0.344,0-0.344-0.158c0-0.258,0.144-0.258,0.416-0.258
		h6.799c0.258,0,0.387,0,0.387,0.158c0,0.029-0.029,0.172-0.029,0.215l-0.301,2.51c-0.029,0.258-0.086,0.315-0.187,0.315
		c-0.086,0-0.158-0.043-0.158-0.158c0-0.057,0.029-0.244,0.043-0.301c0.043-0.373,0.043-0.688,0.043-0.774
		c0-1.019-0.258-1.549-2.051-1.549h-1.922c-0.588,0-0.617,0.043-0.746,0.545l-0.932,3.715h1.305c1.248,0,1.535-0.301,1.836-1.377
		c0.058-0.244,0.072-0.301,0.201-0.301c0.101,0,0.144,0.086,0.144,0.144l-0.832,3.342c-0.057,0.229-0.072,0.286-0.186,0.286
		c-0.101,0-0.158-0.057-0.158-0.157c0-0.029,0.015-0.101,0.043-0.158c0.072-0.315,0.101-0.517,0.101-0.702
		c0-0.416-0.086-0.66-1.176-0.66h-1.377L246.243,46.991z"/>
</g>
<g>
	<path d="M253.877,48.338c-0.07,0.279-0.14,0.558-0.14,0.847c0,0.538,0.239,0.867,0.737,0.867c0.807,0,1.286-0.907,1.295-0.957
		c0.03-0.1,0.14-0.518,0.259-1.016c0.149-0.618,0.338-1.365,0.468-1.863c0.08-0.339,0.338-0.35,0.388-0.35
		c0.15,0,0.289,0.09,0.289,0.27c0,0.06-0.1,0.438-0.149,0.668c-0.04,0.149-0.14,0.527-0.169,0.677
		c-0.089,0.359-0.189,0.718-0.279,1.076c-0.08,0.349-0.199,0.817-0.199,1.036c0,0.199,0.03,0.459,0.299,0.459
		c0.409,0,0.588-0.588,0.757-1.235c0.03-0.14,0.04-0.18,0.14-0.18c0.03,0,0.119,0,0.119,0.1c0,0.02-0.129,0.628-0.299,0.986
		c-0.159,0.319-0.389,0.548-0.737,0.548c-0.438,0-0.807-0.278-0.896-0.728c-0.239,0.279-0.628,0.728-1.325,0.728
		c-0.2,0-0.648-0.04-0.967-0.309c-0.378,1.534-0.508,2.053-0.548,2.143c-0.02,0.029-0.14,0.209-0.349,0.209
		c-0.169,0-0.279-0.12-0.279-0.27c0-0.02,0-0.039,0.03-0.159l1.435-5.769c0.09-0.35,0.369-0.359,0.398-0.359
		c0.169,0,0.289,0.1,0.289,0.27c0,0.05-0.1,0.428-0.149,0.638L253.877,48.338z"/>
	<path d="M259.252,49.832c1.136-0.368,2.65-1.484,3.288-3.746c0.08-0.289,0.309-0.329,0.389-0.329c0.169,0,0.289,0.1,0.289,0.27
		c0,0.09-0.269,1.444-1.584,2.67c-1.026,0.957-2.112,1.346-2.81,1.465h-0.14c-0.06,0-0.159-0.01-0.159-0.119
		c0-0.021,0.069-0.3,0.109-0.449l0.608-2.44c0.07-0.27,0.189-0.737,0.189-0.808c0-0.1-0.02-0.169-0.498-0.169
		c-0.149,0-0.239,0-0.239-0.12c0-0.179,0.11-0.189,0.189-0.199c0.259-0.02,0.986-0.1,1.216-0.1c0.129,0,0.129,0.1,0.129,0.109
		L259.252,49.832z"/>
</g>
<g>
	<path d="M267.393,46.991c-0.028,0.101-0.057,0.216-0.057,0.287c0,0.215,0.029,0.315,1.162,0.315c0.315,0,0.402,0,0.402,0.158
		c0,0.258-0.172,0.258-0.301,0.258c-0.315,0-0.66-0.028-0.976-0.028h-1.864c-0.272,0-0.56,0.028-0.832,0.028
		c-0.086,0-0.215,0-0.215-0.158c0-0.258,0.144-0.258,0.416-0.258c1.004,0,1.033-0.144,1.162-0.646l1.937-7.745
		c0.043-0.158,0.058-0.215,0.058-0.287c0-0.158,0-0.258-0.89-0.258c-0.244,0-0.344,0-0.344-0.158c0-0.258,0.144-0.258,0.416-0.258
		h6.799c0.258,0,0.387,0,0.387,0.158c0,0.029-0.029,0.172-0.029,0.215l-0.301,2.51c-0.028,0.258-0.086,0.315-0.186,0.315
		c-0.086,0-0.158-0.043-0.158-0.158c0-0.057,0.028-0.244,0.043-0.301c0.043-0.373,0.043-0.688,0.043-0.774
		c0-1.019-0.258-1.549-2.051-1.549h-1.922c-0.588,0-0.617,0.043-0.746,0.545l-0.932,3.715h1.305c1.248,0,1.535-0.301,1.836-1.377
		c0.058-0.244,0.072-0.301,0.201-0.301c0.101,0,0.144,0.086,0.144,0.144l-0.832,3.342c-0.057,0.229-0.071,0.286-0.187,0.286
		c-0.1,0-0.158-0.057-0.158-0.157c0-0.029,0.015-0.101,0.043-0.158c0.071-0.315,0.1-0.517,0.1-0.702c0-0.416-0.086-0.66-1.176-0.66
		h-1.377L267.393,46.991z"/>
</g>
<g>
	<path d="M276.979,40.263c-0.07,0.279-0.14,0.558-0.14,0.847c0,0.538,0.239,0.867,0.737,0.867c0.807,0,1.286-0.907,1.295-0.957
		c0.03-0.1,0.14-0.519,0.259-1.017c0.149-0.618,0.338-1.365,0.468-1.863c0.08-0.339,0.338-0.349,0.388-0.349
		c0.15,0,0.289,0.09,0.289,0.269c0,0.06-0.1,0.438-0.149,0.667c-0.04,0.149-0.14,0.528-0.169,0.678
		c-0.089,0.358-0.189,0.717-0.279,1.076c-0.08,0.349-0.199,0.817-0.199,1.036c0,0.199,0.03,0.458,0.299,0.458
		c0.409,0,0.588-0.588,0.757-1.236c0.03-0.14,0.04-0.179,0.139-0.179c0.03,0,0.12,0,0.12,0.1c0,0.02-0.129,0.628-0.299,0.986
		c-0.159,0.319-0.389,0.548-0.737,0.548c-0.438,0-0.807-0.279-0.896-0.727c-0.239,0.279-0.628,0.727-1.325,0.727
		c-0.2,0-0.648-0.04-0.967-0.309c-0.378,1.534-0.508,2.053-0.548,2.143c-0.02,0.029-0.14,0.209-0.349,0.209
		c-0.169,0-0.279-0.12-0.279-0.27c0-0.02,0-0.039,0.03-0.159l1.435-5.769c0.09-0.349,0.369-0.359,0.398-0.359
		c0.169,0,0.289,0.1,0.289,0.269c0,0.05-0.1,0.429-0.149,0.638L276.979,40.263z"/>
	<path d="M282.354,41.757c1.136-0.369,2.65-1.485,3.288-3.747c0.08-0.289,0.309-0.329,0.389-0.329c0.169,0,0.289,0.1,0.289,0.269
		c0,0.09-0.27,1.445-1.584,2.67c-1.026,0.957-2.113,1.345-2.81,1.465h-0.14c-0.06,0-0.159-0.01-0.159-0.12
		c0-0.02,0.069-0.299,0.109-0.448l0.608-2.441c0.07-0.269,0.189-0.737,0.189-0.807c0-0.1-0.02-0.169-0.499-0.169
		c-0.149,0-0.239,0-0.239-0.12c0-0.18,0.11-0.189,0.189-0.2c0.259-0.02,0.986-0.1,1.215-0.1c0.13,0,0.13,0.1,0.13,0.11
		L282.354,41.757z"/>
</g>
<g>
	<path d="M292.004,44.711c-0.201,0-0.474,0-0.474-0.287s0.272-0.287,0.474-0.287h7.816c0.201,0,0.474,0,0.474,0.287
		s-0.272,0.287-0.474,0.287H292.004z"/>
</g>
<g>
	<path d="M305.891,54.461c-0.259,0-0.388,0-0.388-0.157c0-0.015,0-0.086,0.144-0.258l7.43-8.707l-7.588-10.384
		c0-0.158,0-0.43,0.015-0.473c0.043-0.086,0.058-0.101,0.388-0.101h16.953l1.736,4.03h-0.359c-0.487-1.162-1.463-1.807-1.821-2.037
		c-1.133-0.717-2.381-0.961-3.155-1.076c-0.129-0.029-1.435-0.229-3.356-0.229h-7.86l6.685,9.137c0.1,0.144,0.1,0.187,0.1,0.215
		c0,0.072-0.028,0.115-0.129,0.229l-7.301,8.563h8.649c2.754,0,4.159-0.373,4.461-0.445c1.649-0.43,3.17-1.405,3.729-2.897h0.359
		l-1.736,4.59H305.891z"/>
</g>
<g>
	<path d="M313.512,61.618c0.129-0.518,0.159-0.628,0.159-0.837c0-0.329-0.109-0.458-0.309-0.458c-0.359,0-0.559,0.478-0.728,1.186
		c-0.06,0.219-0.07,0.229-0.17,0.229c-0.02,0-0.119,0-0.119-0.1c0-0.04,0.14-0.628,0.299-0.967c0.1-0.18,0.289-0.568,0.747-0.568
		c0.459,0,0.867,0.31,0.917,0.867c0.169-0.229,0.657-0.867,1.555-0.867c0.717,0,1.146,0.398,1.146,1.066
		c0,0.568-0.419,1.664-0.607,2.192c-0.09,0.219-0.18,0.458-0.18,0.707c0,0.229,0.069,0.329,0.239,0.329
		c0.488,0,0.816-0.559,1.016-1.235c0.051-0.149,0.051-0.18,0.15-0.18c0.029,0,0.119,0,0.119,0.1c0,0.08-0.369,1.534-1.306,1.534
		c-0.468,0-0.816-0.349-0.816-0.816c0-0.11,0.01-0.229,0.1-0.459c0.159-0.428,0.647-1.703,0.647-2.321
		c0-0.329-0.09-0.697-0.538-0.697c-0.946,0-1.475,0.906-1.624,1.215c-0.01,0.04-0.09,0.329-0.13,0.499
		c-0.05,0.229-0.109,0.448-0.169,0.667c-0.07,0.299-0.149,0.598-0.22,0.897c-0.06,0.249-0.179,0.717-0.189,0.737
		c-0.069,0.199-0.249,0.278-0.368,0.278c-0.149,0-0.289-0.09-0.289-0.269c0-0.05,0.06-0.279,0.09-0.429L313.512,61.618z"/>
</g>
<g>
	<path d="M332.131,49.889c-0.043,0.187-0.058,0.201-0.058,0.272c0,0.115,0.043,0.215,0.717,0.215c0.216,0,0.33,0,0.33,0.144
		c0,0.272-0.172,0.272-0.258,0.272c-0.216,0-0.459-0.028-0.675-0.028h-1.463c-0.2,0-0.459,0.028-0.659,0.028
		c-0.101,0-0.187-0.043-0.187-0.144c0-0.272,0.144-0.272,0.301-0.272c0.674-0.014,0.89-0.014,1.019-0.444l0.129-0.517
		c0.187-0.731,0.373-1.448,0.545-2.151l-0.014-0.014c-0.302,0.329-0.933,0.903-1.693,0.903c-0.975,0-1.807-0.832-1.807-2.252
		c0-2.123,1.75-4.217,3.37-4.217c0.617,0,1.062,0.387,1.32,1.033c0.272-0.502,0.832-1.019,0.946-1.019
		c0.071,0,0.129,0.057,0.129,0.129L332.131,49.889z M332.805,43.491c0.015-0.028,0.058-0.215,0.058-0.229
		c0-0.114-0.187-1.291-1.134-1.291c-0.559,0-1.233,0.517-1.721,1.52c-0.272,0.603-0.717,2.209-0.717,2.998
		c0,0.847,0.329,1.377,0.918,1.377c0.674,0,1.305-0.616,1.62-1.019c0.201-0.272,0.201-0.301,0.272-0.545L332.805,43.491z"/>
</g>
<g>
	<path d="M335.482,47.271c0.129-0.518,0.159-0.628,0.159-0.837c0-0.329-0.109-0.458-0.309-0.458c-0.359,0-0.559,0.478-0.728,1.186
		c-0.06,0.219-0.07,0.229-0.17,0.229c-0.02,0-0.119,0-0.119-0.101c0-0.039,0.14-0.627,0.299-0.966c0.1-0.18,0.289-0.568,0.747-0.568
		c0.459,0,0.867,0.31,0.917,0.867c0.169-0.229,0.657-0.867,1.555-0.867c0.717,0,1.146,0.398,1.146,1.066
		c0,0.568-0.419,1.664-0.607,2.192c-0.09,0.219-0.18,0.458-0.18,0.707c0,0.229,0.069,0.329,0.239,0.329
		c0.488,0,0.816-0.559,1.016-1.235c0.051-0.149,0.051-0.18,0.15-0.18c0.029,0,0.119,0,0.119,0.1c0,0.08-0.369,1.534-1.306,1.534
		c-0.468,0-0.816-0.349-0.816-0.816c0-0.11,0.01-0.229,0.1-0.459c0.159-0.429,0.647-1.704,0.647-2.321
		c0-0.329-0.09-0.697-0.538-0.697c-0.946,0-1.475,0.906-1.624,1.215c-0.01,0.04-0.09,0.329-0.13,0.499
		c-0.05,0.229-0.109,0.448-0.169,0.667c-0.07,0.299-0.149,0.598-0.22,0.897c-0.06,0.249-0.179,0.717-0.189,0.737
		c-0.069,0.199-0.249,0.278-0.368,0.278c-0.149,0-0.289-0.09-0.289-0.269c0-0.05,0.06-0.279,0.09-0.429L335.482,47.271z"/>
</g>
<g>
	<path d="M344.354,36.234v-0.416h5.062v0.416H344.354z"/>
</g>
<g>
	<path d="M344.894,47.866c0.431,0,1.535,0,2.74-1.349c0.918-1.032,1.204-2.094,1.204-2.61c0-0.745-0.387-1.133-0.516-1.262
		c-0.058-0.058-0.158-0.158-0.158-0.33c0-0.287,0.315-0.631,0.66-0.631c0.144,0,0.573,0.1,0.573,0.961
		c0,0.731-0.344,2.008-0.487,2.381c-0.244,0.617-0.674,1.276-1.147,1.793c-1.291,1.334-2.424,1.334-2.955,1.334
		c-0.058,0.258-0.646,2.668-0.702,2.726c-0.029,0.057-0.087,0.057-0.115,0.057c-0.043,0-0.158,0-0.158-0.129
		c0-0.058,0.101-0.459,0.33-1.319c0.115-0.444,0.216-0.903,0.33-1.349c-1.291-0.101-2.438-0.631-2.438-2.008
		c0-0.33,0-0.646,0.774-2.683c0.244-0.631,0.244-0.946,0.244-1.004c0-0.459-0.244-0.473-0.373-0.473
		c-0.53,0-1.104,0.531-1.448,1.779c-0.058,0.2-0.072,0.258-0.201,0.258c-0.101,0-0.157-0.071-0.157-0.129
		c0-0.115,0.53-2.194,1.85-2.194c0.675,0,1.134,0.516,1.134,1.162c0,0.258-0.072,0.445-0.259,0.961
		c-0.674,1.778-0.674,2.108-0.674,2.424c0,0.86,0.444,1.463,1.635,1.606l2.367-9.496c0.057-0.215,0.071-0.287,0.2-0.287
		c0.043,0,0.158,0,0.158,0.129c0,0.015-0.058,0.201-0.058,0.215L344.894,47.866z"/>
</g>
<g>
	<path d="M351.093,47.271c0.129-0.518,0.159-0.628,0.159-0.837c0-0.329-0.109-0.458-0.309-0.458c-0.359,0-0.559,0.478-0.728,1.186
		c-0.06,0.219-0.07,0.229-0.17,0.229c-0.02,0-0.119,0-0.119-0.101c0-0.039,0.14-0.627,0.299-0.966c0.1-0.18,0.289-0.568,0.747-0.568
		c0.459,0,0.867,0.31,0.917,0.867c0.169-0.229,0.657-0.867,1.555-0.867c0.717,0,1.146,0.398,1.146,1.066
		c0,0.568-0.419,1.664-0.607,2.192c-0.09,0.219-0.18,0.458-0.18,0.707c0,0.229,0.069,0.329,0.239,0.329
		c0.488,0,0.816-0.559,1.017-1.235c0.05-0.149,0.05-0.18,0.149-0.18c0.029,0,0.119,0,0.119,0.1c0,0.08-0.369,1.534-1.306,1.534
		c-0.468,0-0.816-0.349-0.816-0.816c0-0.11,0.01-0.229,0.1-0.459c0.159-0.429,0.647-1.704,0.647-2.321
		c0-0.329-0.09-0.697-0.538-0.697c-0.946,0-1.475,0.906-1.624,1.215c-0.01,0.04-0.09,0.329-0.13,0.499
		c-0.05,0.229-0.109,0.448-0.169,0.667c-0.07,0.299-0.149,0.598-0.22,0.897c-0.06,0.249-0.179,0.717-0.189,0.737
		c-0.069,0.199-0.249,0.278-0.368,0.278c-0.149,0-0.289-0.09-0.289-0.269c0-0.05,0.06-0.279,0.09-0.429L351.093,47.271z"/>
</g>
<g>
	<path d="M362.514,43.864c0.43-0.975,0.932-1.95,0.961-1.979c0.028-0.058,0.1-0.058,0.129-0.058c0.129,0,0.144,0.101,0.144,0.115
		c0,0.043-0.201,0.431-0.302,0.66c-1.133,2.252-1.95,4.618-1.993,4.963c-0.072,0.573-0.158,1.204-0.502,2.467
		c-0.158,0.573-0.287,1.047-0.502,1.047c-0.115,0-0.158-0.129-0.158-0.244c0-0.401,0.474-2.18,0.746-3.069
		c0.086-0.286,0.187-0.588,0.187-1.491c0-1.42-0.287-3.644-2.281-3.644c-0.989,0-1.907,0.703-2.208,1.592
		c-0.072,0.187-0.072,0.216-0.201,0.216c-0.043,0-0.144,0-0.144-0.129c0-0.373,0.961-2.625,2.726-2.625
		c1.047,0,1.534,0.76,1.821,1.478c0.545,1.291,0.574,2.395,0.603,3.098C362.012,44.998,362.298,44.353,362.514,43.864z"/>
</g>
<g>
	<path d="M366.064,40.263c-0.069,0.279-0.139,0.558-0.139,0.847c0,0.538,0.238,0.867,0.737,0.867c0.807,0,1.285-0.907,1.295-0.957
		c0.03-0.1,0.14-0.519,0.259-1.017c0.149-0.618,0.339-1.365,0.469-1.863c0.079-0.339,0.339-0.349,0.389-0.349
		c0.149,0,0.289,0.09,0.289,0.269c0,0.06-0.1,0.438-0.149,0.667c-0.04,0.149-0.14,0.528-0.17,0.678
		c-0.09,0.358-0.189,0.717-0.279,1.076c-0.079,0.349-0.199,0.817-0.199,1.036c0,0.199,0.03,0.458,0.299,0.458
		c0.409,0,0.588-0.588,0.758-1.236c0.03-0.14,0.04-0.179,0.14-0.179c0.029,0,0.119,0,0.119,0.1c0,0.02-0.129,0.628-0.299,0.986
		c-0.159,0.319-0.389,0.548-0.737,0.548c-0.438,0-0.807-0.279-0.896-0.727c-0.239,0.279-0.628,0.727-1.325,0.727
		c-0.199,0-0.647-0.04-0.967-0.309c-0.379,1.534-0.508,2.053-0.548,2.143c-0.021,0.029-0.14,0.209-0.349,0.209
		c-0.17,0-0.279-0.12-0.279-0.27c0-0.02,0-0.039,0.03-0.159l1.435-5.769c0.09-0.349,0.368-0.359,0.398-0.359
		c0.17,0,0.289,0.1,0.289,0.269c0,0.05-0.1,0.429-0.149,0.638L366.064,40.263z"/>
</g>
<g>
	<path d="M378.143,38.013c0.129-0.215,0.215-0.244,0.358-0.244c0.157,0,0.215,0.029,0.243,0.315l0.875,8.95
		c0.043,0.431,0.058,0.56,0.847,0.56c0.215,0,0.344,0,0.344,0.144c0,0.272-0.157,0.272-0.258,0.272
		c-0.015,0-0.646-0.028-1.521-0.028h-0.817c-0.244,0-0.53,0.028-0.774,0.028c-0.086,0-0.215,0-0.215-0.158
		c0-0.258,0.157-0.258,0.315-0.258c0.229,0,0.961-0.028,0.961-0.459c0-0.272-0.173-1.764-0.216-2.137
		c-0.014-0.13-0.014-0.244-0.028-0.373H374.6l-1.091,1.807c-0.187,0.316-0.272,0.474-0.272,0.675c0,0.344,0.272,0.459,0.603,0.487
		c0.086,0,0.201,0.015,0.201,0.144c0,0.272-0.172,0.272-0.259,0.272c-0.401,0-0.86-0.028-1.276-0.028
		c-0.258,0-0.903,0.028-1.161,0.028c-0.101,0-0.173-0.058-0.173-0.144c0-0.258,0.115-0.258,0.272-0.272
		c0.688-0.043,1.177-0.33,1.679-1.176L378.143,38.013z M378.214,44.209l-0.487-4.819l-2.884,4.819H378.214z"/>
</g>
<g>
	<path d="M383.097,48.338c-0.069,0.279-0.139,0.558-0.139,0.847c0,0.538,0.238,0.867,0.737,0.867c0.807,0,1.285-0.907,1.295-0.957
		c0.03-0.1,0.14-0.518,0.259-1.016c0.149-0.618,0.339-1.365,0.469-1.863c0.079-0.339,0.339-0.35,0.389-0.35
		c0.149,0,0.289,0.09,0.289,0.27c0,0.06-0.1,0.438-0.149,0.668c-0.04,0.149-0.14,0.527-0.17,0.677
		c-0.09,0.359-0.189,0.718-0.279,1.076c-0.079,0.349-0.199,0.817-0.199,1.036c0,0.199,0.03,0.459,0.299,0.459
		c0.409,0,0.588-0.588,0.758-1.235c0.03-0.14,0.04-0.18,0.14-0.18c0.029,0,0.119,0,0.119,0.1c0,0.02-0.129,0.628-0.299,0.986
		c-0.159,0.319-0.389,0.548-0.737,0.548c-0.438,0-0.807-0.278-0.896-0.728c-0.239,0.279-0.628,0.728-1.325,0.728
		c-0.199,0-0.647-0.04-0.967-0.309c-0.379,1.534-0.508,2.053-0.548,2.143c-0.021,0.029-0.14,0.209-0.349,0.209
		c-0.17,0-0.279-0.12-0.279-0.27c0-0.02,0-0.039,0.03-0.159l1.435-5.769c0.09-0.35,0.368-0.359,0.398-0.359
		c0.17,0,0.289,0.1,0.289,0.27c0,0.05-0.1,0.428-0.149,0.638L383.097,48.338z"/>
</g>
<g>
	<path d="M392.104,47.866c0.431,0,1.535,0,2.74-1.349c0.918-1.032,1.204-2.094,1.204-2.61c0-0.745-0.387-1.133-0.516-1.262
		c-0.058-0.058-0.158-0.158-0.158-0.33c0-0.287,0.315-0.631,0.66-0.631c0.144,0,0.573,0.1,0.573,0.961
		c0,0.731-0.344,2.008-0.487,2.381c-0.244,0.617-0.674,1.276-1.147,1.793c-1.291,1.334-2.424,1.334-2.955,1.334
		c-0.057,0.258-0.646,2.668-0.702,2.726c-0.029,0.057-0.087,0.057-0.115,0.057c-0.043,0-0.157,0-0.157-0.129
		c0-0.058,0.1-0.459,0.329-1.319c0.115-0.444,0.216-0.903,0.33-1.349c-1.291-0.101-2.438-0.631-2.438-2.008
		c0-0.33,0-0.646,0.774-2.683c0.244-0.631,0.244-0.946,0.244-1.004c0-0.459-0.244-0.473-0.373-0.473
		c-0.53,0-1.104,0.531-1.448,1.779c-0.058,0.2-0.072,0.258-0.201,0.258c-0.101,0-0.157-0.071-0.157-0.129
		c0-0.115,0.53-2.194,1.85-2.194c0.675,0,1.134,0.516,1.134,1.162c0,0.258-0.072,0.445-0.259,0.961
		c-0.674,1.778-0.674,2.108-0.674,2.424c0,0.86,0.444,1.463,1.635,1.606l2.367-9.496c0.057-0.215,0.071-0.287,0.2-0.287
		c0.043,0,0.158,0,0.158,0.129c0,0.015-0.058,0.201-0.058,0.215L392.104,47.866z"/>
</g>
<g>
	<path d="M398.302,47.271c0.129-0.518,0.159-0.628,0.159-0.837c0-0.329-0.109-0.458-0.309-0.458c-0.359,0-0.559,0.478-0.728,1.186
		c-0.06,0.219-0.07,0.229-0.17,0.229c-0.02,0-0.119,0-0.119-0.101c0-0.039,0.14-0.627,0.299-0.966c0.1-0.18,0.289-0.568,0.747-0.568
		c0.459,0,0.867,0.31,0.917,0.867c0.169-0.229,0.657-0.867,1.555-0.867c0.717,0,1.146,0.398,1.146,1.066
		c0,0.568-0.419,1.664-0.607,2.192c-0.09,0.219-0.18,0.458-0.18,0.707c0,0.229,0.069,0.329,0.239,0.329
		c0.488,0,0.816-0.559,1.017-1.235c0.05-0.149,0.05-0.18,0.149-0.18c0.029,0,0.119,0,0.119,0.1c0,0.08-0.369,1.534-1.306,1.534
		c-0.468,0-0.816-0.349-0.816-0.816c0-0.11,0.01-0.229,0.1-0.459c0.159-0.429,0.647-1.704,0.647-2.321
		c0-0.329-0.09-0.697-0.538-0.697c-0.946,0-1.475,0.906-1.624,1.215c-0.01,0.04-0.09,0.329-0.13,0.499
		c-0.05,0.229-0.109,0.448-0.169,0.667c-0.07,0.299-0.149,0.598-0.22,0.897c-0.06,0.249-0.179,0.717-0.189,0.737
		c-0.069,0.199-0.249,0.278-0.368,0.278c-0.149,0-0.289-0.09-0.289-0.269c0-0.05,0.06-0.279,0.09-0.429L398.302,47.271z"/>
</g>
</svg>
