<?xml version="1.0" encoding="iso-8859-1"?>
<!-- Generator: Adobe Illustrator 16.0.0, SVG Export Plug-In . SVG Version: 6.00 Build 0)  -->
<!DOCTYPE svg PUBLIC "-//W3C//DTD SVG 1.1//EN" "http://www.w3.org/Graphics/SVG/1.1/DTD/svg11.dtd">
<svg version="1.1" id="Layer_1" xmlns="http://www.w3.org/2000/svg" xmlns:xlink="http://www.w3.org/1999/xlink" x="0px" y="0px"
	 width="566.929px" height="85.039px" viewBox="0 0 566.929 85.039" style="enable-background:new 0 0 566.929 85.039;"
	 xml:space="preserve">
<g>
	<path d="M31.161,52.566c-0.76,0-1.678-0.272-2.166-0.401c-1.334-0.401-1.735-0.401-2.18-0.416
		c-0.359,0.487-1.076,0.817-1.334,0.817c-0.101,0-0.129-0.058-0.129-0.086c0-0.058,0.057-0.244,0.516-0.66
		c0.029-0.043,0.861-0.86,1.406-3.012c0.588-2.295,1.076-3.815,2.08-5.034c0.674-0.804,2.037-1.635,3.199-1.635
		c0.932,0,1.233,0.688,1.233,1.348c0,0.646-0.158,0.76-0.373,0.933c-0.344,0.258-0.746,0.43-0.961,0.43
		c-0.115,0-0.115-0.071-0.115-0.101c0-0.043,0.058-0.301,0.058-0.53c0-0.358-0.129-1.19-0.99-1.19c-0.473,0-0.56,0.086-0.774,0.315
		c-1.019,1.033-1.693,3.7-1.965,4.776c-0.144,0.573-0.416,1.678-1.176,2.797c0.158-0.043,0.215-0.058,0.545-0.058
		c0.76,0,1.592,0.244,2.323,0.459c0.56,0.158,1.32,0.359,1.937,0.359c0.229,0,0.244,0,0.373-0.173c0-0.014,0.129-0.2,0.215-0.43
		c0.086-0.244,0.115-0.33,0.517-0.589c0.229-0.157,0.588-0.315,0.789-0.315c0.043,0,0.115,0.029,0.129,0.043
		C34.001,51.605,32.208,52.566,31.161,52.566z"/>
</g>
<g>
	<path d="M40.91,53.626c0,0.358,0.02,0.469,0.787,0.469h0.239v0.309c-0.349-0.03-1.096-0.03-1.475-0.03c-0.379,0-1.116,0-1.465,0.03
		v-0.309h0.239c0.767,0,0.787-0.11,0.787-0.469v-2.61h-2.979v2.61c0,0.358,0.02,0.469,0.788,0.469h0.239v0.309
		c-0.349-0.03-1.096-0.03-1.475-0.03c-0.378,0-1.116,0-1.465,0.03v-0.309h0.239c0.767,0,0.787-0.11,0.787-0.469v-5.251
		c0-0.358-0.02-0.468-0.787-0.468H35.13v-0.31c0.349,0.03,1.096,0.03,1.475,0.03c0.378,0,1.116,0,1.464-0.03v0.31h-0.239
		c-0.768,0-0.788,0.109-0.788,0.468v2.332h2.979v-2.332c0-0.358-0.02-0.468-0.787-0.468h-0.239v-0.31
		c0.349,0.03,1.096,0.03,1.475,0.03c0.379,0,1.116,0,1.465-0.03v0.31h-0.239c-0.767,0-0.787,0.109-0.787,0.468V53.626z"/>
	<path d="M44.038,53.656c0,0.389,0.04,0.438,0.697,0.438v0.309c-0.338-0.01-0.688-0.03-1.036-0.03c-0.239,0-0.777,0.021-1.096,0.03
		v-0.309c0.668,0,0.777,0,0.777-0.448v-2.681c0-0.488-0.09-0.548-0.737-0.548v-0.31l1.395-0.109V53.656z M43.549,48.794
		c-0.309,0-0.528-0.26-0.528-0.528c0-0.259,0.219-0.528,0.528-0.528c0.279,0,0.528,0.209,0.528,0.528
		C44.078,48.584,43.828,48.794,43.549,48.794z"/>
	<path d="M46.097,53.078c0,0.318,0.209,0.628,0.528,0.668c0.069,0.01,0.498,0.01,0.747,0.01c0.608,0,1.186,0,1.714,0.278
		c0.508,0.279,0.647,0.788,0.647,1.137c0,0.776-1.036,1.285-2.212,1.285c-1.215,0-2.202-0.548-2.202-1.266
		c0-0.398,0.319-0.827,0.917-0.996c-0.309-0.199-0.438-0.578-0.438-0.887c0-0.349,0.179-0.678,0.309-0.827
		c-0.249-0.209-0.468-0.588-0.468-1.026c0-0.768,0.688-1.455,1.614-1.455c0.219,0,0.638,0.03,1.056,0.359
		c0.418-0.409,0.857-0.469,1.056-0.469c0.389,0,0.508,0.318,0.508,0.488c0,0.229-0.189,0.299-0.289,0.299
		c-0.159,0-0.289-0.119-0.289-0.289c0-0.119,0.05-0.229,0.16-0.269c-0.03-0.011-0.08-0.011-0.1-0.011
		c-0.179,0-0.538,0.05-0.897,0.389c0.25,0.229,0.409,0.599,0.409,0.967c0,0.768-0.688,1.455-1.614,1.455
		c-0.189,0-0.598-0.03-0.986-0.31C46.097,52.809,46.097,53.038,46.097,53.078z M49.216,55.19c0-0.856-1.116-0.856-1.973-0.856
		h-0.588c-0.438,0.029-0.817,0.398-0.817,0.856c0,0.528,0.688,1.036,1.694,1.036C48.508,56.227,49.216,55.729,49.216,55.19z
		 M47.96,52.291c0.149-0.249,0.16-0.568,0.16-0.837c0-0.229,0-1.226-0.867-1.226c-0.398,0-0.627,0.279-0.708,0.398
		c-0.149,0.249-0.159,0.568-0.159,0.837c0,0.229,0,1.226,0.867,1.226C47.651,52.689,47.881,52.41,47.96,52.291z"/>
	<path d="M51.079,53.078c0,0.318,0.209,0.628,0.528,0.668c0.069,0.01,0.498,0.01,0.747,0.01c0.608,0,1.186,0,1.714,0.278
		c0.508,0.279,0.647,0.788,0.647,1.137c0,0.776-1.036,1.285-2.212,1.285c-1.215,0-2.202-0.548-2.202-1.266
		c0-0.398,0.319-0.827,0.917-0.996c-0.309-0.199-0.438-0.578-0.438-0.887c0-0.349,0.179-0.678,0.309-0.827
		c-0.249-0.209-0.468-0.588-0.468-1.026c0-0.768,0.688-1.455,1.614-1.455c0.219,0,0.638,0.03,1.056,0.359
		c0.418-0.409,0.857-0.469,1.056-0.469c0.389,0,0.508,0.318,0.508,0.488c0,0.229-0.189,0.299-0.289,0.299
		c-0.159,0-0.289-0.119-0.289-0.289c0-0.119,0.05-0.229,0.16-0.269c-0.03-0.011-0.08-0.011-0.1-0.011
		c-0.179,0-0.538,0.05-0.897,0.389c0.25,0.229,0.409,0.599,0.409,0.967c0,0.768-0.688,1.455-1.614,1.455
		c-0.189,0-0.598-0.03-0.986-0.31C51.079,52.809,51.079,53.038,51.079,53.078z M54.197,55.19c0-0.856-1.116-0.856-1.973-0.856
		h-0.588c-0.438,0.029-0.817,0.398-0.817,0.856c0,0.528,0.688,1.036,1.694,1.036C53.49,56.227,54.197,55.729,54.197,55.19z
		 M52.942,52.291c0.149-0.249,0.16-0.568,0.16-0.837c0-0.229,0-1.226-0.867-1.226c-0.398,0-0.627,0.279-0.708,0.398
		c-0.149,0.249-0.159,0.568-0.159,0.837c0,0.229,0,1.226,0.867,1.226C52.633,52.689,52.862,52.41,52.942,52.291z"/>
	<path d="M55.761,52.012c-0.269-0.219-0.429-0.498-0.429-0.847c0-0.558,0.379-1.226,1.594-1.226c0.15,0,0.558,0,0.937,0.279
		c0.04-0.03,0.139-0.12,0.169-0.16c0.13-0.119,0.15-0.119,0.2-0.119c0.109,0,0.109,0.069,0.109,0.239v1.006
		c0,0.189,0,0.239-0.129,0.239c-0.02,0-0.11,0-0.12-0.09c-0.02-0.309-0.07-1.205-1.166-1.205c-0.857,0-1.116,0.408-1.116,0.757
		c0,0.578,0.667,0.708,1.226,0.817c0.418,0.08,0.807,0.159,1.136,0.479c0.12,0.119,0.418,0.418,0.418,0.946
		c0,0.718-0.458,1.385-1.604,1.385c-0.209,0-0.658-0.01-1.096-0.429c-0.179,0.189-0.179,0.21-0.199,0.229
		c-0.189,0.189-0.199,0.199-0.249,0.199c-0.11,0-0.11-0.069-0.11-0.239v-1.314c0-0.18,0-0.25,0.13-0.25c0.1,0,0.109,0.04,0.139,0.17
		c0.189,0.847,0.548,1.415,1.385,1.415c0.777,0,1.126-0.398,1.126-0.907c0-0.717-0.817-0.877-1.036-0.916
		C56.358,52.331,56.08,52.271,55.761,52.012z"/>
</g>
<g>
	<path d="M64.649,47.604c-0.215,0-0.459,0-0.459-0.272c0-0.258,0.258-0.258,0.459-0.258h8.448c0.215,0,0.459,0,0.459,0.272
		c0,0.258-0.258,0.258-0.459,0.258H64.649z M64.649,50.271c-0.215,0-0.459,0-0.459-0.272c0-0.258,0.258-0.258,0.459-0.258h8.448
		c0.215,0,0.459,0,0.459,0.272c0,0.258-0.258,0.258-0.459,0.258H64.649z"/>
	<path d="M82.862,55.852c-0.158,0-1.334-0.933-2.181-2.654c-0.746-1.534-0.946-3.241-0.946-4.518c0-1.765,0.33-3.299,1.062-4.748
		c0.703-1.405,1.879-2.438,2.065-2.438c0.057,0,0.129,0.029,0.129,0.115c0,0.043,0,0.072-0.144,0.201
		c-1.664,1.693-2.338,4.087-2.338,6.871c0,2.926,0.803,5.293,2.237,6.741c0.244,0.244,0.244,0.272,0.244,0.315
		C82.991,55.822,82.919,55.852,82.862,55.852z"/>
</g>
<g>
	<path d="M92.464,40.621l-0.229,0.215l-1.649-1.477l-1.635,1.477l-0.229-0.215l1.879-1.951L92.464,40.621z"/>
</g>
<g>
	<path d="M87.979,43.473c0.057-0.215,0.057-0.301,0.057-0.33c0-0.157,0-0.272-0.875-0.272c-0.215,0-0.344,0-0.344-0.144
		c0-0.272,0.129-0.272,0.402-0.272h4.604c2.051,0,3.285,1.535,3.285,3.6c0,3.198-2.826,6.196-5.723,6.196h-4.547
		c-0.287,0-0.373,0-0.373-0.158c0-0.258,0.143-0.258,0.416-0.258c1.004,0,1.033-0.144,1.162-0.646L87.979,43.473z M87.089,51.348
		c-0.028,0.129-0.057,0.215-0.057,0.315c0,0.114,0.014,0.144,0.172,0.157c0.086,0.015,0.115,0.015,0.316,0.015h1.635
		c1.649,0,2.74-0.989,3.141-1.463c1.392-1.578,1.678-4.073,1.678-4.791c0-1.979-1.233-2.71-2.582-2.71h-1.578
		c-0.56,0-0.617,0.029-0.746,0.559L87.089,51.348z"/>
</g>
<g>
	<path d="M99.519,50.687c0.309,0.438,0.309,0.917,0.309,1.086c0,1.535-1.325,2.74-2.501,2.74c-0.907,0-1.495-0.697-1.495-1.574
		c0-1.186,1.106-2.83,2.611-2.83h2.271c0.18,0,0.389,0,0.389,0.239c0,0.339-0.358,0.339-0.488,0.339H99.519z M98.651,53.447
		c0.339-0.509,0.538-1.326,0.538-1.794c0-0.309-0.08-0.967-0.917-0.967c-0.339,0-0.937,0.14-1.355,0.827
		c-0.349,0.588-0.468,1.405-0.468,1.704c0,0.717,0.398,1.076,0.887,1.076C97.725,54.294,98.263,54.034,98.651,53.447z"/>
</g>
<g>
	<path d="M107.322,45.896c1.592,0.101,2.682,1.134,2.682,2.582c0,1.808-1.865,3.815-4.317,3.944
		c-0.186,0.718-0.358,1.42-0.531,2.138c-0.057,0.187-0.143,0.53-0.172,0.559c-0.029,0.058-0.086,0.058-0.129,0.058
		c-0.144,0-0.144-0.086-0.144-0.114c0-0.058,0.115-0.531,0.315-1.291c0.115-0.444,0.215-0.903,0.33-1.349
		c-1.492-0.086-2.682-1.032-2.682-2.581c0-1.793,1.807-3.729,4.159-3.931c0.029,0,0.129-0.015,0.144-0.043
		c0.014-0.015,0.029-0.028,0.072-0.215l0.774-3.084c0.058-0.244,0.072-0.272,0.201-0.272c0.043,0,0.143,0,0.143,0.129
		L107.322,45.896z M106.921,46.198c-2.065,0.129-3.371,2.137-3.371,3.944c0,1.578,1.176,1.95,1.879,1.994L106.921,46.198z
		 M105.759,52.122c2.238-0.172,3.371-2.324,3.371-3.944c0-1.406-0.946-1.937-1.893-1.994L105.759,52.122z"/>
</g>
<g>
	<path d="M113.298,53.413c-0.703,1.405-1.879,2.438-2.065,2.438c-0.057,0-0.129-0.029-0.129-0.115c0-0.043,0-0.071,0.143-0.201
		c1.664-1.692,2.338-4.088,2.338-6.87c0-2.926-0.803-5.293-2.237-6.741c-0.244-0.244-0.244-0.272-0.244-0.315
		c0-0.086,0.072-0.115,0.129-0.115c0.158,0,1.334,0.932,2.18,2.654c0.803,1.663,0.947,3.442,0.947,4.532
		C114.36,50.4,114.03,51.95,113.298,53.413z"/>
</g>
<g>
	<path d="M118.179,42.84c0.14,0.707,0.14,0.777,0.14,1.315c0,0.956-0.05,1.982-0.09,2.61c-0.02,0.508-0.05,1.036-0.11,1.534
		c-0.02,0.13-0.02,0.18-0.139,0.18c-0.11,0-0.12-0.06-0.129-0.199c-0.09-0.946-0.2-2.621-0.2-4.125c0-0.528,0-0.608,0.14-1.326
		c0.05-0.249,0.08-0.448,0.1-0.697c-0.199,0.02-0.448,0.09-0.478,0.1c-0.209,0.06-0.499,0.14-0.708,0.14
		c-0.309,0-0.369-0.209-0.369-0.339c0-0.05,0.02-0.329,0.369-0.329c0.209,0,0.498,0.08,0.688,0.139c0.189,0.05,0.389,0.09,0.498,0.1
		c-0.01-0.289-0.04-0.608-0.109-1.066c-0.04-0.239-0.13-0.817-0.13-1.166c0-0.089,0-0.408,0.339-0.408
		c0.329,0,0.329,0.329,0.329,0.408c0,0.369-0.06,0.737-0.11,1.106c-0.109,0.648-0.12,0.927-0.129,1.126
		c0.199-0.02,0.448-0.089,0.478-0.1c0.209-0.06,0.499-0.139,0.708-0.139c0.309,0,0.369,0.209,0.369,0.338
		c0,0.05-0.02,0.329-0.369,0.329c-0.209,0-0.498-0.08-0.688-0.14c-0.189-0.05-0.389-0.09-0.498-0.1
		C118.1,42.401,118.129,42.61,118.179,42.84z"/>
</g>
<g>
	<path d="M125.236,55.852c-0.158,0-1.333-0.933-2.18-2.654c-0.746-1.534-0.947-3.241-0.947-4.518c0-1.765,0.33-3.299,1.061-4.748
		c0.703-1.405,1.879-2.438,2.065-2.438c0.058,0,0.129,0.029,0.129,0.115c0,0.043,0,0.072-0.144,0.201
		c-1.664,1.693-2.338,4.087-2.338,6.871c0,2.926,0.803,5.293,2.238,6.741c0.244,0.244,0.244,0.272,0.244,0.315
		C125.366,55.822,125.294,55.852,125.236,55.852z"/>
</g>
<g>
	<path d="M134.841,40.621l-0.229,0.215l-1.649-1.477l-1.635,1.477l-0.229-0.215l1.879-1.951L134.841,40.621z"/>
</g>
<g>
	<path d="M130.355,43.473c0.057-0.215,0.057-0.301,0.057-0.33c0-0.157,0-0.272-0.875-0.272c-0.215,0-0.344,0-0.344-0.144
		c0-0.272,0.129-0.272,0.402-0.272h4.604c2.051,0,3.285,1.535,3.285,3.6c0,3.198-2.826,6.196-5.723,6.196h-4.547
		c-0.287,0-0.373,0-0.373-0.158c0-0.258,0.143-0.258,0.416-0.258c1.004,0,1.033-0.144,1.162-0.646L130.355,43.473z M129.466,51.348
		c-0.028,0.129-0.057,0.215-0.057,0.315c0,0.114,0.014,0.144,0.172,0.157c0.086,0.015,0.115,0.015,0.316,0.015h1.635
		c1.649,0,2.74-0.989,3.141-1.463c1.392-1.578,1.678-4.073,1.678-4.791c0-1.979-1.233-2.71-2.582-2.71h-1.578
		c-0.56,0-0.617,0.029-0.746,0.559L129.466,51.348z"/>
</g>
<g>
	<path d="M142.286,42.61c0.309,0.438,0.309,0.917,0.309,1.086c0,1.535-1.325,2.74-2.501,2.74c-0.907,0-1.495-0.697-1.495-1.574
		c0-1.186,1.106-2.83,2.611-2.83h2.272c0.179,0,0.388,0,0.388,0.239c0,0.338-0.358,0.338-0.488,0.338H142.286z M141.418,45.371
		c0.339-0.509,0.538-1.326,0.538-1.794c0-0.309-0.08-0.967-0.917-0.967c-0.339,0-0.937,0.14-1.355,0.827
		c-0.349,0.588-0.468,1.405-0.468,1.704c0,0.717,0.398,1.076,0.887,1.076C140.492,46.218,141.03,45.958,141.418,45.371z"/>
</g>
<g>
	<path d="M150.089,45.896c1.592,0.101,2.682,1.134,2.682,2.582c0,1.808-1.864,3.815-4.317,3.944c-0.187,0.718-0.358,1.42-0.53,2.138
		c-0.058,0.187-0.144,0.53-0.172,0.559c-0.029,0.058-0.086,0.058-0.129,0.058c-0.144,0-0.144-0.086-0.144-0.114
		c0-0.058,0.115-0.531,0.315-1.291c0.115-0.444,0.215-0.903,0.33-1.349c-1.492-0.086-2.682-1.032-2.682-2.581
		c0-1.793,1.807-3.729,4.159-3.931c0.029,0,0.129-0.015,0.144-0.043c0.015-0.015,0.029-0.028,0.072-0.215l0.774-3.084
		c0.058-0.244,0.072-0.272,0.201-0.272c0.043,0,0.144,0,0.144,0.129L150.089,45.896z M149.688,46.198
		c-2.065,0.129-3.371,2.137-3.371,3.944c0,1.578,1.176,1.95,1.879,1.994L149.688,46.198z M148.526,52.122
		c2.238-0.172,3.371-2.324,3.371-3.944c0-1.406-0.946-1.937-1.893-1.994L148.526,52.122z"/>
</g>
<g>
	<path d="M156.065,53.413c-0.703,1.405-1.879,2.438-2.065,2.438c-0.058,0-0.129-0.029-0.129-0.115c0-0.043,0-0.071,0.143-0.201
		c1.664-1.692,2.338-4.088,2.338-6.87c0-2.926-0.804-5.293-2.238-6.741c-0.244-0.244-0.244-0.272-0.244-0.315
		c0-0.086,0.071-0.115,0.129-0.115c0.158,0,1.334,0.932,2.18,2.654c0.803,1.663,0.947,3.442,0.947,4.532
		C157.127,50.4,156.797,51.95,156.065,53.413z"/>
	<path d="M167.453,52.896c0,0.215,0,0.459-0.273,0.459c-0.258,0-0.258-0.258-0.258-0.459v-3.959h-3.959
		c-0.215,0-0.459,0-0.459-0.272c0-0.258,0.258-0.258,0.459-0.258h3.959v-3.959c0-0.215,0-0.459,0.272-0.459
		c0.258,0,0.258,0.258,0.258,0.459v3.959h3.958c0.215,0,0.459,0,0.459,0.272c0,0.258-0.258,0.258-0.459,0.258h-3.958V52.896z"/>
</g>
<g>
	<path d="M177.237,54.604c-0.1,0.401-0.187,0.731-0.602,0.731c-0.215,0-0.387-0.144-0.387-0.358c0-0.086,0.028-0.173,0.043-0.244
		l2.08-8.305c0.115-0.459,0.43-0.502,0.56-0.502c0.186,0,0.373,0.129,0.373,0.358c0,0.086-0.115,0.545-0.187,0.817l-0.645,2.582
		c-0.058,0.244-0.187,0.746-0.187,1.162c0,0.674,0.258,1.262,1.061,1.262c0.904,0,1.463-0.774,1.635-1.019
		c0.187-0.229,0.187-0.258,0.258-0.545l1.004-3.987c0.115-0.431,0.416-0.487,0.545-0.487c0.215,0,0.388,0.144,0.388,0.358
		c0,0.058-0.158,0.674-0.244,1.019c-0.072,0.258-0.229,0.903-0.287,1.176c-0.129,0.517-0.272,1.033-0.402,1.549
		c-0.1,0.431-0.229,0.947-0.229,1.276c0,0.287,0.029,0.66,0.445,0.66c0.588,0,0.86-0.903,1.076-1.75
		c0.058-0.215,0.072-0.287,0.201-0.287c0.086,0,0.144,0.058,0.144,0.13c0,0.057-0.201,0.932-0.43,1.42
		c-0.258,0.517-0.603,0.774-1.033,0.774c-0.502,0-1.104-0.302-1.248-1.062c-0.33,0.444-0.961,1.062-1.879,1.062
		c-0.488,0-1.019-0.129-1.377-0.459C177.309,54.288,177.396,54.001,177.237,54.604z"/>
	<path d="M189.619,45.896c1.592,0.101,2.682,1.134,2.682,2.582c0,1.808-1.865,3.815-4.317,3.944
		c-0.186,0.718-0.358,1.42-0.531,2.138c-0.057,0.187-0.143,0.53-0.172,0.559c-0.029,0.058-0.086,0.058-0.129,0.058
		c-0.144,0-0.144-0.086-0.144-0.114c0-0.058,0.115-0.531,0.315-1.291c0.115-0.444,0.215-0.903,0.33-1.349
		c-1.492-0.086-2.682-1.032-2.682-2.581c0-1.793,1.807-3.729,4.159-3.931c0.029,0,0.129-0.015,0.144-0.043
		c0.014-0.015,0.029-0.028,0.072-0.215l0.774-3.084c0.058-0.244,0.072-0.272,0.201-0.272c0.043,0,0.143,0,0.143,0.129
		L189.619,45.896z M189.218,46.198c-2.065,0.129-3.371,2.137-3.371,3.944c0,1.578,1.176,1.95,1.879,1.994L189.218,46.198z
		 M188.056,52.122c2.238-0.172,3.371-2.324,3.371-3.944c0-1.406-0.946-1.937-1.893-1.994L188.056,52.122z"/>
</g>
<g>
	<path d="M195.013,42.84c0.14,0.707,0.14,0.777,0.14,1.315c0,0.956-0.05,1.982-0.09,2.61c-0.02,0.508-0.05,1.036-0.11,1.534
		c-0.02,0.13-0.02,0.18-0.139,0.18c-0.11,0-0.12-0.06-0.129-0.199c-0.09-0.946-0.2-2.621-0.2-4.125c0-0.528,0-0.608,0.14-1.326
		c0.05-0.249,0.08-0.448,0.1-0.697c-0.199,0.02-0.448,0.09-0.478,0.1c-0.209,0.06-0.499,0.14-0.708,0.14
		c-0.309,0-0.369-0.209-0.369-0.339c0-0.05,0.02-0.329,0.369-0.329c0.209,0,0.498,0.08,0.688,0.139c0.189,0.05,0.389,0.09,0.498,0.1
		c-0.01-0.289-0.04-0.608-0.109-1.066c-0.04-0.239-0.13-0.817-0.13-1.166c0-0.089,0-0.408,0.339-0.408
		c0.329,0,0.329,0.329,0.329,0.408c0,0.369-0.06,0.737-0.11,1.106c-0.109,0.648-0.12,0.927-0.129,1.126
		c0.199-0.02,0.448-0.089,0.478-0.1c0.209-0.06,0.499-0.139,0.708-0.139c0.309,0,0.369,0.209,0.369,0.338
		c0,0.05-0.02,0.329-0.369,0.329c-0.209,0-0.498-0.08-0.688-0.14c-0.189-0.05-0.389-0.09-0.498-0.1
		C194.934,42.401,194.963,42.61,195.013,42.84z"/>
</g>
<g>
	<path d="M202.859,45.896c1.592,0.101,2.682,1.134,2.682,2.582c0,1.808-1.865,3.815-4.317,3.944
		c-0.186,0.718-0.358,1.42-0.531,2.138c-0.057,0.187-0.143,0.53-0.172,0.559c-0.029,0.058-0.086,0.058-0.129,0.058
		c-0.144,0-0.144-0.086-0.144-0.114c0-0.058,0.115-0.531,0.315-1.291c0.115-0.444,0.215-0.903,0.33-1.349
		c-1.492-0.086-2.682-1.032-2.682-2.581c0-1.793,1.807-3.729,4.159-3.931c0.029,0,0.129-0.015,0.144-0.043
		c0.014-0.015,0.029-0.028,0.072-0.215l0.774-3.084c0.058-0.244,0.072-0.272,0.201-0.272c0.043,0,0.143,0,0.143,0.129
		L202.859,45.896z M202.458,46.198c-2.065,0.129-3.371,2.137-3.371,3.944c0,1.578,1.176,1.95,1.879,1.994L202.458,46.198z
		 M201.296,52.122c2.238-0.172,3.371-2.324,3.371-3.944c0-1.406-0.946-1.937-1.893-1.994L201.296,52.122z"/>
</g>
<g>
	<path d="M210.703,48.952c-0.201,0-0.474,0-0.474-0.287s0.272-0.287,0.474-0.287h7.817c0.201,0,0.473,0,0.473,0.287
		s-0.272,0.287-0.473,0.287H210.703z"/>
</g>
<g>
	<path d="M230.7,51.562c0.058,0.172,0.158,0.431,0.287,0.588c0.057,0.058,0.072,0.072,0.072,0.129c0,0.115-0.101,0.115-0.158,0.115
		h-0.272c-0.401,0-0.43,0-0.574-0.129c-0.201-0.187-0.272-0.388-0.344-0.603c-0.444-1.205-0.903-2.524-1.276-3.644
		c-1.305,1.549-3.356,4.06-3.586,4.274c-0.086,0.086-0.244,0.115-0.301,0.115c-0.229,0-0.401-0.173-0.401-0.373
		c0-0.187,0.115-0.302,0.287-0.474l3.729-3.772c0.115-0.114,0.129-0.129,0.129-0.144c0-0.028-1.477-4.317-1.621-4.59
		c-0.229-0.416-0.402-0.444-0.617-0.473c-0.072-0.014-0.158-0.029-0.158-0.143c0-0.144,0.158-0.144,0.244-0.144
		c0.187,0,1.319,0,1.678,1.019L230.7,51.562z"/>
</g>
<g>
	<path d="M236.112,55.852c-0.158,0-1.333-0.933-2.18-2.654c-0.746-1.534-0.947-3.241-0.947-4.518c0-1.765,0.33-3.299,1.061-4.748
		c0.703-1.405,1.879-2.438,2.065-2.438c0.058,0,0.129,0.029,0.129,0.115c0,0.043,0,0.072-0.144,0.201
		c-1.664,1.693-2.338,4.087-2.338,6.871c0,2.926,0.803,5.293,2.238,6.741c0.244,0.244,0.244,0.272,0.244,0.315
		C236.242,55.822,236.17,55.852,236.112,55.852z"/>
</g>
<g>
	<path d="M242.363,45.896c1.592,0.101,2.682,1.134,2.682,2.582c0,1.808-1.865,3.815-4.317,3.944
		c-0.186,0.718-0.358,1.42-0.531,2.138c-0.057,0.187-0.143,0.53-0.172,0.559c-0.029,0.058-0.086,0.058-0.129,0.058
		c-0.144,0-0.144-0.086-0.144-0.114c0-0.058,0.115-0.531,0.315-1.291c0.115-0.444,0.215-0.903,0.33-1.349
		c-1.492-0.086-2.682-1.032-2.682-2.581c0-1.793,1.807-3.729,4.159-3.931c0.029,0,0.129-0.015,0.144-0.043
		c0.014-0.015,0.029-0.028,0.072-0.215l0.774-3.084c0.058-0.244,0.072-0.272,0.201-0.272c0.043,0,0.143,0,0.143,0.129
		L242.363,45.896z M241.962,46.198c-2.065,0.129-3.371,2.137-3.371,3.944c0,1.578,1.176,1.95,1.879,1.994L241.962,46.198z
		 M240.8,52.122c2.238-0.172,3.371-2.324,3.371-3.944c0-1.406-0.946-1.937-1.893-1.994L240.8,52.122z"/>
</g>
<g>
	<path d="M247.757,42.84c0.14,0.707,0.14,0.777,0.14,1.315c0,0.956-0.05,1.982-0.09,2.61c-0.02,0.508-0.05,1.036-0.11,1.534
		c-0.02,0.13-0.02,0.18-0.139,0.18c-0.11,0-0.12-0.06-0.129-0.199c-0.09-0.946-0.2-2.621-0.2-4.125c0-0.528,0-0.608,0.14-1.326
		c0.05-0.249,0.08-0.448,0.1-0.697c-0.199,0.02-0.448,0.09-0.478,0.1c-0.209,0.06-0.499,0.14-0.708,0.14
		c-0.309,0-0.369-0.209-0.369-0.339c0-0.05,0.02-0.329,0.369-0.329c0.209,0,0.498,0.08,0.688,0.139c0.189,0.05,0.389,0.09,0.498,0.1
		c-0.01-0.289-0.04-0.608-0.109-1.066c-0.04-0.239-0.13-0.817-0.13-1.166c0-0.089,0-0.408,0.339-0.408
		c0.329,0,0.329,0.329,0.329,0.408c0,0.369-0.06,0.737-0.11,1.106c-0.109,0.648-0.12,0.927-0.129,1.126
		c0.199-0.02,0.448-0.089,0.478-0.1c0.209-0.06,0.499-0.139,0.708-0.139c0.309,0,0.369,0.209,0.369,0.338
		c0,0.05-0.02,0.329-0.369,0.329c-0.209,0-0.498-0.08-0.688-0.14c-0.189-0.05-0.389-0.09-0.498-0.1
		C247.678,42.401,247.708,42.61,247.757,42.84z"/>
</g>
<g>
	<path d="M255.604,45.896c1.592,0.101,2.682,1.134,2.682,2.582c0,1.808-1.865,3.815-4.317,3.944
		c-0.186,0.718-0.358,1.42-0.531,2.138c-0.057,0.187-0.143,0.53-0.172,0.559c-0.029,0.058-0.086,0.058-0.129,0.058
		c-0.144,0-0.144-0.086-0.144-0.114c0-0.058,0.115-0.531,0.315-1.291c0.115-0.444,0.215-0.903,0.33-1.349
		c-1.492-0.086-2.682-1.032-2.682-2.581c0-1.793,1.807-3.729,4.159-3.931c0.029,0,0.129-0.015,0.144-0.043
		c0.014-0.015,0.029-0.028,0.072-0.215l0.774-3.084c0.058-0.244,0.072-0.272,0.201-0.272c0.043,0,0.143,0,0.143,0.129
		L255.604,45.896z M255.202,46.198c-2.065,0.129-3.371,2.137-3.371,3.944c0,1.578,1.176,1.95,1.879,1.994L255.202,46.198z
		 M254.04,52.122c2.238-0.172,3.371-2.324,3.371-3.944c0-1.406-0.946-1.937-1.893-1.994L254.04,52.122z"/>
</g>
<g>
	<path d="M261.58,53.413c-0.703,1.405-1.879,2.438-2.065,2.438c-0.057,0-0.129-0.029-0.129-0.115c0-0.043,0-0.071,0.143-0.201
		c1.664-1.692,2.338-4.088,2.338-6.87c0-2.926-0.803-5.293-2.237-6.741c-0.244-0.244-0.244-0.272-0.244-0.315
		c0-0.086,0.072-0.115,0.129-0.115c0.158,0,1.334,0.932,2.18,2.654c0.803,1.663,0.947,3.442,0.947,4.532
		C262.641,50.4,262.311,51.95,261.58,53.413z"/>
</g>
<g>
	<path d="M268.254,46.327h-3.697c0-0.239,0-0.259,0.11-0.369l1.913-2.132c0.548-0.618,1.046-1.405,1.046-2.202
		c0-0.817-0.428-1.624-1.335-1.624c-0.578,0-1.116,0.369-1.345,1.016c0.03-0.01,0.05-0.01,0.129-0.01
		c0.349,0,0.528,0.259,0.528,0.518c0,0.409-0.349,0.528-0.518,0.528c-0.03,0-0.528,0-0.528-0.558c0-0.887,0.737-1.804,1.863-1.804
		c1.216,0,2.112,0.797,2.112,1.933c0,0.997-0.598,1.534-2.152,2.909l-1.056,1.026h1.793c0.219,0,0.876,0,0.946-0.079
		c0.1-0.149,0.169-0.588,0.219-0.887h0.249L268.254,46.327z"/>
</g>
</svg>
