<?xml version="1.0" encoding="iso-8859-1"?>
<!-- Generator: Adobe Illustrator 16.0.0, SVG Export Plug-In . SVG Version: 6.00 Build 0)  -->
<!DOCTYPE svg PUBLIC "-//W3C//DTD SVG 1.1//EN" "http://www.w3.org/Graphics/SVG/1.1/DTD/svg11.dtd">
<svg version="1.1" id="Layer_1" xmlns="http://www.w3.org/2000/svg" xmlns:xlink="http://www.w3.org/1999/xlink" x="0px" y="0px"
	 width="566.929px" height="85.039px" viewBox="0 0 566.929 85.039" style="enable-background:new 0 0 566.929 85.039;"
	 xml:space="preserve">
<g>
	<path d="M32.628,39.511c0.143-0.531,0.416-1.592,0.416-2.51c0-1.606-0.803-2.61-2.065-2.61c-0.387,0-1.477,0.101-2.065,1.162
		c0.187,0,0.631,0,0.631,0.445c0,0.244-0.215,0.703-0.717,0.703c-0.401,0-0.487-0.315-0.487-0.444c0-0.387,0.617-2.209,2.696-2.209
		c1.836,0,2.998,1.592,2.998,3.658c0,1.965-1.449,6.898-4.833,6.898c-1.951,0-2.553-1.649-2.553-2.524
		c0-2.281,2.065-4.332,4.088-4.332c1.291,0,1.793,0.961,1.879,1.764H32.628z M32.384,39.941c0-0.774-0.301-1.908-1.606-1.908
		c-1.492,0-2.309,1.449-2.496,1.879c-0.215,0.531-0.617,2.008-0.617,2.639c0,0.603,0.229,1.664,1.578,1.664
		C31.452,44.216,32.384,41.003,32.384,39.941z"/>
</g>
<g>
	<path d="M43.317,31.352c-0.674,0.746-0.99,1.104-1.521,1.104c-0.33,0-0.617-0.187-0.904-0.358c-0.444-0.301-0.646-0.344-0.86-0.344
		c-0.459,0-0.76,0.287-1.176,0.703l-0.201-0.201c0.674-0.746,0.99-1.104,1.521-1.104c0.33,0,0.617,0.187,0.903,0.358
		c0.445,0.301,0.646,0.344,0.861,0.344c0.459,0,0.76-0.287,1.176-0.703L43.317,31.352z"/>
</g>
<g>
	<path d="M37.64,43.283c-0.028,0.101-0.057,0.215-0.057,0.287c0,0.215,0.029,0.315,1.162,0.315c0.315,0,0.402,0,0.402,0.158
		c0,0.258-0.172,0.258-0.301,0.258c-0.315,0-0.66-0.028-0.976-0.028h-1.864c-0.272,0-0.56,0.028-0.832,0.028
		c-0.086,0-0.215,0-0.215-0.158c0-0.258,0.144-0.258,0.416-0.258c1.004,0,1.033-0.144,1.162-0.646l1.937-7.745
		c0.043-0.158,0.058-0.215,0.058-0.287c0-0.158,0-0.258-0.89-0.258c-0.244,0-0.344,0-0.344-0.158c0-0.258,0.144-0.258,0.416-0.258
		h6.799c0.258,0,0.387,0,0.387,0.158c0,0.029-0.029,0.172-0.029,0.215l-0.301,2.51c-0.028,0.258-0.086,0.315-0.186,0.315
		c-0.086,0-0.158-0.043-0.158-0.158c0-0.057,0.028-0.244,0.043-0.301c0.043-0.373,0.043-0.688,0.043-0.774
		c0-1.019-0.258-1.549-2.051-1.549h-1.922c-0.588,0-0.617,0.043-0.746,0.545l-0.932,3.715h1.305c1.248,0,1.535-0.301,1.836-1.377
		c0.058-0.244,0.072-0.301,0.201-0.301c0.101,0,0.144,0.086,0.144,0.144l-0.832,3.342c-0.057,0.229-0.071,0.287-0.187,0.287
		c-0.1,0-0.158-0.058-0.158-0.158c0-0.029,0.015-0.101,0.043-0.158c0.071-0.315,0.1-0.516,0.1-0.703c0-0.416-0.086-0.66-1.176-0.66
		h-1.377L37.64,43.283z"/>
</g>
<g>
	<path d="M50.095,37.361c0.468-0.588,0.797-1.345,0.977-1.973c0.05-0.179,0.05-0.209,0.149-0.209c0.109,0,0.12,0.08,0.12,0.1
		c0,0.01-0.209,1.166-1.146,2.342c-0.1,0.12-0.1,0.14-0.1,0.349c0,0.239,0,1.017,0.309,1.017c0.02,0,0.379,0,0.558-0.488
		c0.03-0.07,0.06-0.1,0.129-0.1c0.06,0,0.12,0.03,0.12,0.1c0,0.159-0.309,0.707-0.837,0.707c-0.448,0-0.777-0.309-0.907-0.837
		c-0.757,0.608-1.475,0.837-2.103,0.837c-1.016,0-1.614-0.757-1.614-1.684c0-1.405,1.315-2.83,2.68-2.83
		c0.737,0,1.664,0.488,1.664,2.053V37.361z M49.407,36.993c0-0.777,0-2.083-0.986-2.083c-0.349,0-0.887,0.189-1.355,0.917
		c-0.319,0.508-0.578,1.584-0.578,2.072c0,0.638,0.299,1.086,0.896,1.086c0.399,0,1.166-0.11,2.043-0.877
		C49.407,37.939,49.407,37.361,49.407,36.993z"/>
	<path d="M53.548,34.741c0.329-1.305,1.455-2.67,2.75-2.67c0.877,0,1.335,0.627,1.335,1.275c0,0.607-0.389,1.315-1.076,1.733
		c0.349,0.239,0.667,0.678,0.667,1.385c0,1.415-1.335,2.75-2.65,2.75c-0.927,0-1.445-0.588-1.594-1.166
		c-0.429,1.614-0.708,2.89-0.757,2.939c-0.03,0.03-0.05,0.04-0.1,0.04c-0.02,0-0.12,0-0.12-0.1c0-0.05,0.02-0.11,0.03-0.149
		L53.548,34.741z M57.006,33.097c0-0.657-0.418-0.807-0.717-0.807c-0.887,0-2.073,0.817-2.541,2.66
		c-0.06,0.229-0.369,1.475-0.458,1.843c-0.09,0.359-0.13,0.508-0.13,0.748c0,0.797,0.508,1.455,1.395,1.455
		c0.717,0,1.226-0.608,1.455-1.026c0.289-0.548,0.488-1.484,0.488-1.883c0-0.319-0.08-0.607-0.299-0.837
		c-0.319,0.129-0.608,0.129-0.747,0.129c-0.239,0-0.678,0-0.678-0.259c0-0.319,0.538-0.319,0.777-0.319c0.089,0,0.408,0,0.688,0.1
		C56.886,34.412,57.006,33.336,57.006,33.097z M55.452,35.16c0.08,0,0.299,0,0.478-0.08c-0.129-0.06-0.249-0.06-0.398-0.06
		c-0.339,0-0.409,0.03-0.508,0.08C55.192,35.16,55.203,35.16,55.452,35.16z"/>
</g>
<g>
	<rect x="26.102" y="50.133" width="32.309" height="0.574"/>
</g>
<g>
	<path d="M37.24,59.057c0.143-0.53,0.416-1.592,0.416-2.51c0-1.606-0.804-2.61-2.065-2.61c-0.388,0-1.478,0.101-2.065,1.162
		c0.186,0,0.631,0,0.631,0.444c0,0.244-0.215,0.703-0.717,0.703c-0.401,0-0.488-0.316-0.488-0.445c0-0.387,0.617-2.209,2.697-2.209
		c1.836,0,2.998,1.593,2.998,3.658c0,1.965-1.448,6.898-4.833,6.898c-1.951,0-2.553-1.649-2.553-2.524
		c0-2.28,2.065-4.331,4.088-4.331c1.291,0,1.793,0.961,1.879,1.764H37.24z M36.996,59.487c0-0.774-0.301-1.907-1.606-1.907
		c-1.492,0-2.309,1.448-2.496,1.879c-0.215,0.53-0.617,2.008-0.617,2.639c0,0.603,0.229,1.664,1.578,1.664
		C36.064,63.762,36.996,60.549,36.996,59.487z"/>
	<path d="M44.971,57.81c-0.66,0-1.147,0.631-1.363,1.491c-0.144,0.531-0.33,1.291-0.502,1.951c-0.229,0.946-0.287,1.176-0.287,1.491
		c0,0.588,0.272,0.961,0.775,0.961c0.645,0,1.477-0.588,1.864-1.851c0.043-0.114,0.058-0.186,0.187-0.186
		c0.086,0,0.144,0.057,0.144,0.129c0,0.315-0.774,2.194-2.238,2.194c-0.53,0-1.248-0.287-1.477-1.133
		c-0.301,0.588-0.789,1.133-1.478,1.133c-0.617,0-1.291-0.272-1.291-0.875c0-0.459,0.373-0.761,0.717-0.761
		c0.272,0,0.488,0.173,0.488,0.459c0,0.173-0.115,0.603-0.631,0.703c0.301,0.187,0.66,0.187,0.732,0.187
		c0.76,0,1.176-0.789,1.391-1.649c0.201-0.832,0.258-1.047,0.488-1.965c0.172-0.688,0.258-1.019,0.258-1.334
		c0-0.345-0.129-0.946-0.775-0.946c-0.416,0-1.377,0.301-1.865,1.893c-0.028,0.058-0.057,0.144-0.172,0.144
		c-0.101,0-0.158-0.071-0.158-0.129c0-0.315,0.774-2.194,2.237-2.194c0.258,0,1.147,0.058,1.478,1.133
		c0.129-0.272,0.617-1.133,1.492-1.133c0.603,0,1.291,0.272,1.291,0.875c0,0.387-0.301,0.76-0.731,0.76
		c-0.201,0-0.474-0.114-0.474-0.459c0-0.272,0.172-0.616,0.631-0.702C45.401,57.81,45,57.81,44.971,57.81z"/>
</g>
<g>
	<path d="M51.645,57.97c0.468-0.588,0.797-1.346,0.977-1.974c0.05-0.179,0.05-0.209,0.149-0.209c0.109,0,0.12,0.08,0.12,0.1
		c0,0.01-0.209,1.166-1.146,2.342c-0.1,0.119-0.1,0.14-0.1,0.349c0,0.239,0,1.017,0.309,1.017c0.02,0,0.379,0,0.558-0.488
		c0.03-0.07,0.06-0.1,0.129-0.1c0.06,0,0.12,0.029,0.12,0.1c0,0.159-0.309,0.707-0.837,0.707c-0.448,0-0.777-0.309-0.907-0.837
		c-0.757,0.608-1.475,0.837-2.103,0.837c-1.016,0-1.614-0.757-1.614-1.684c0-1.405,1.315-2.83,2.68-2.83
		c0.737,0,1.664,0.488,1.664,2.053V57.97z M50.958,57.601c0-0.777,0-2.082-0.986-2.082c-0.349,0-0.887,0.189-1.355,0.916
		c-0.319,0.509-0.578,1.585-0.578,2.073c0,0.638,0.299,1.086,0.896,1.086c0.399,0,1.166-0.109,2.043-0.877
		C50.958,58.547,50.958,57.97,50.958,57.601z"/>
</g>
<g>
	<path d="M64.825,49.359c-0.215,0-0.459,0-0.459-0.272c0-0.258,0.258-0.258,0.459-0.258h8.448c0.215,0,0.459,0,0.459,0.272
		c0,0.258-0.258,0.258-0.459,0.258H64.825z M64.825,52.027c-0.215,0-0.459,0-0.459-0.272c0-0.258,0.258-0.258,0.459-0.258h8.448
		c0.215,0,0.459,0,0.459,0.272c0,0.258-0.258,0.258-0.459,0.258H64.825z"/>
	<path d="M84.386,52.73c-0.416,0.832-1.133,1.577-2.381,1.577c-0.746,0-1.735-0.344-2.295-1.434
		c-0.516-1.019-0.617-2.065-0.617-3.457c0-1.549,0.144-2.438,0.545-3.342c0.53-1.19,1.549-1.606,2.381-1.606
		c0.703,0,1.735,0.315,2.324,1.506c0.516,1.09,0.588,2.252,0.588,3.442C84.931,50.249,84.902,51.654,84.386,52.73z M83.683,52.171
		c0.158-0.875,0.158-1.965,0.158-2.926c0-0.976,0-2.108-0.186-2.927c-0.273-1.233-1.104-1.562-1.65-1.562
		c-0.617,0-1.348,0.444-1.592,1.405c-0.229,0.847-0.229,1.907-0.229,3.084c0,1.004,0,2.094,0.158,2.954
		c0.272,1.563,1.205,1.822,1.664,1.822C82.507,54.021,83.411,53.749,83.683,52.171z"/>
</g>
</svg>
