<?xml version="1.0" encoding="iso-8859-1"?>
<!-- Generator: Adobe Illustrator 16.0.0, SVG Export Plug-In . SVG Version: 6.00 Build 0)  -->
<!DOCTYPE svg PUBLIC "-//W3C//DTD SVG 1.1//EN" "http://www.w3.org/Graphics/SVG/1.1/DTD/svg11.dtd">
<svg version="1.1" id="Layer_1" xmlns="http://www.w3.org/2000/svg" xmlns:xlink="http://www.w3.org/1999/xlink" x="0px" y="0px"
	 width="566.929px" height="85.039px" viewBox="0 0 566.929 85.039" style="enable-background:new 0 0 566.929 85.039;"
	 xml:space="preserve">
<g>
	<path d="M32.628,39c0.143-0.531,0.416-1.592,0.416-2.51c0-1.606-0.803-2.61-2.065-2.61c-0.387,0-1.477,0.101-2.065,1.162
		c0.187,0,0.631,0,0.631,0.445c0,0.244-0.215,0.703-0.717,0.703c-0.401,0-0.487-0.315-0.487-0.444c0-0.387,0.617-2.209,2.696-2.209
		c1.836,0,2.998,1.592,2.998,3.658c0,1.965-1.449,6.898-4.833,6.898c-1.951,0-2.553-1.649-2.553-2.524
		c0-2.281,2.065-4.332,4.088-4.332c1.291,0,1.793,0.961,1.879,1.764H32.628z M32.384,39.43c0-0.774-0.301-1.908-1.606-1.908
		c-1.492,0-2.309,1.449-2.496,1.879c-0.215,0.531-0.617,2.008-0.617,2.639c0,0.603,0.229,1.664,1.578,1.664
		C31.452,43.704,32.384,40.491,32.384,39.43z"/>
	<path d="M37.634,42.771c-0.028,0.101-0.057,0.215-0.057,0.287c0,0.215,0.029,0.315,1.162,0.315c0.315,0,0.402,0,0.402,0.158
		c0,0.258-0.172,0.258-0.301,0.258c-0.315,0-0.66-0.028-0.976-0.028h-1.864c-0.272,0-0.56,0.028-0.832,0.028
		c-0.086,0-0.215,0-0.215-0.158c0-0.258,0.144-0.258,0.416-0.258c1.004,0,1.033-0.144,1.162-0.646l1.937-7.745
		c0.043-0.158,0.058-0.215,0.058-0.287c0-0.158,0-0.258-0.89-0.258c-0.244,0-0.344,0-0.344-0.158c0-0.258,0.144-0.258,0.416-0.258
		h6.799c0.258,0,0.387,0,0.387,0.158c0,0.029-0.029,0.172-0.029,0.215l-0.301,2.51c-0.028,0.258-0.086,0.315-0.186,0.315
		c-0.086,0-0.158-0.043-0.158-0.158c0-0.057,0.028-0.244,0.043-0.301c0.043-0.373,0.043-0.688,0.043-0.774
		c0-1.019-0.258-1.549-2.051-1.549h-1.922c-0.588,0-0.617,0.043-0.746,0.545l-0.932,3.715h1.305c1.248,0,1.535-0.301,1.836-1.377
		c0.058-0.244,0.072-0.301,0.201-0.301c0.101,0,0.144,0.086,0.144,0.144l-0.832,3.342c-0.057,0.229-0.071,0.287-0.187,0.287
		c-0.1,0-0.158-0.058-0.158-0.158c0-0.029,0.015-0.101,0.043-0.158c0.071-0.315,0.1-0.516,0.1-0.703c0-0.416-0.086-0.66-1.176-0.66
		h-1.377L37.634,42.771z"/>
</g>
<g>
	<path d="M50.095,36.85c0.468-0.588,0.797-1.345,0.977-1.973c0.05-0.179,0.05-0.209,0.149-0.209c0.109,0,0.12,0.08,0.12,0.1
		c0,0.01-0.209,1.166-1.146,2.342c-0.1,0.12-0.1,0.14-0.1,0.349c0,0.239,0,1.017,0.309,1.017c0.02,0,0.379,0,0.558-0.488
		c0.03-0.07,0.06-0.1,0.129-0.1c0.06,0,0.12,0.03,0.12,0.1c0,0.159-0.309,0.707-0.837,0.707c-0.448,0-0.777-0.309-0.907-0.837
		c-0.757,0.608-1.475,0.837-2.103,0.837c-1.016,0-1.614-0.757-1.614-1.684c0-1.405,1.315-2.83,2.68-2.83
		c0.737,0,1.664,0.488,1.664,2.053V36.85z M49.407,36.481c0-0.777,0-2.083-0.986-2.083c-0.349,0-0.887,0.189-1.355,0.917
		c-0.319,0.508-0.578,1.584-0.578,2.072c0,0.638,0.299,1.086,0.896,1.086c0.399,0,1.166-0.11,2.043-0.877
		C49.407,37.428,49.407,36.85,49.407,36.481z"/>
	<path d="M53.548,34.229c0.329-1.305,1.455-2.67,2.75-2.67c0.877,0,1.335,0.627,1.335,1.275c0,0.607-0.389,1.315-1.076,1.733
		c0.349,0.239,0.667,0.678,0.667,1.385c0,1.415-1.335,2.75-2.65,2.75c-0.927,0-1.445-0.588-1.594-1.166
		c-0.429,1.614-0.708,2.89-0.757,2.939c-0.03,0.03-0.05,0.04-0.1,0.04c-0.02,0-0.12,0-0.12-0.1c0-0.05,0.02-0.11,0.03-0.149
		L53.548,34.229z M57.006,32.585c0-0.657-0.418-0.807-0.717-0.807c-0.887,0-2.073,0.817-2.541,2.66
		c-0.06,0.229-0.369,1.475-0.458,1.843c-0.09,0.359-0.13,0.508-0.13,0.748c0,0.797,0.508,1.455,1.395,1.455
		c0.717,0,1.226-0.608,1.455-1.026c0.289-0.548,0.488-1.484,0.488-1.883c0-0.319-0.08-0.607-0.299-0.837
		c-0.319,0.129-0.608,0.129-0.747,0.129c-0.239,0-0.678,0-0.678-0.259c0-0.319,0.538-0.319,0.777-0.319c0.089,0,0.408,0,0.688,0.1
		C56.886,33.901,57.006,32.825,57.006,32.585z M55.452,34.648c0.08,0,0.299,0,0.478-0.08c-0.129-0.06-0.249-0.06-0.398-0.06
		c-0.339,0-0.409,0.03-0.508,0.08C55.192,34.648,55.203,34.648,55.452,34.648z"/>
</g>
<g>
	<rect x="26.102" y="49.622" width="32.309" height="0.574"/>
</g>
<g>
	<path d="M37.24,58.545c0.143-0.53,0.416-1.592,0.416-2.51c0-1.606-0.804-2.61-2.065-2.61c-0.388,0-1.478,0.101-2.065,1.162
		c0.186,0,0.631,0,0.631,0.444c0,0.244-0.215,0.703-0.717,0.703c-0.401,0-0.488-0.316-0.488-0.445c0-0.387,0.617-2.209,2.697-2.209
		c1.836,0,2.998,1.593,2.998,3.658c0,1.965-1.448,6.898-4.833,6.898c-1.951,0-2.553-1.649-2.553-2.524
		c0-2.28,2.065-4.331,4.088-4.331c1.291,0,1.793,0.961,1.879,1.764H37.24z M36.996,58.976c0-0.774-0.301-1.907-1.606-1.907
		c-1.492,0-2.309,1.448-2.496,1.879c-0.215,0.53-0.617,2.008-0.617,2.639c0,0.603,0.229,1.664,1.578,1.664
		C36.064,63.25,36.996,60.037,36.996,58.976z"/>
	<path d="M44.971,57.298c-0.66,0-1.147,0.631-1.363,1.491c-0.144,0.531-0.33,1.291-0.502,1.951
		c-0.229,0.946-0.287,1.176-0.287,1.491c0,0.588,0.272,0.961,0.775,0.961c0.645,0,1.477-0.588,1.864-1.851
		c0.043-0.114,0.058-0.186,0.187-0.186c0.086,0,0.144,0.057,0.144,0.129c0,0.315-0.774,2.194-2.238,2.194
		c-0.53,0-1.248-0.287-1.477-1.133c-0.301,0.588-0.789,1.133-1.478,1.133c-0.617,0-1.291-0.272-1.291-0.875
		c0-0.459,0.373-0.761,0.717-0.761c0.272,0,0.488,0.173,0.488,0.459c0,0.173-0.115,0.603-0.631,0.703
		c0.301,0.187,0.66,0.187,0.732,0.187c0.76,0,1.176-0.789,1.391-1.649c0.201-0.832,0.258-1.047,0.488-1.965
		c0.172-0.688,0.258-1.019,0.258-1.334c0-0.345-0.129-0.946-0.775-0.946c-0.416,0-1.377,0.301-1.865,1.893
		c-0.028,0.058-0.057,0.144-0.172,0.144c-0.101,0-0.158-0.071-0.158-0.129c0-0.315,0.774-2.194,2.237-2.194
		c0.258,0,1.147,0.058,1.478,1.133c0.129-0.272,0.617-1.133,1.492-1.133c0.603,0,1.291,0.272,1.291,0.875
		c0,0.387-0.301,0.76-0.731,0.76c-0.201,0-0.474-0.114-0.474-0.459c0-0.272,0.172-0.616,0.631-0.702
		C45.401,57.298,45,57.298,44.971,57.298z"/>
</g>
<g>
	<path d="M51.645,57.459c0.468-0.588,0.797-1.346,0.977-1.974c0.05-0.179,0.05-0.209,0.149-0.209c0.109,0,0.12,0.08,0.12,0.1
		c0,0.01-0.209,1.166-1.146,2.342c-0.1,0.119-0.1,0.14-0.1,0.349c0,0.239,0,1.017,0.309,1.017c0.02,0,0.379,0,0.558-0.488
		c0.03-0.07,0.06-0.1,0.129-0.1c0.06,0,0.12,0.029,0.12,0.1c0,0.159-0.309,0.707-0.837,0.707c-0.448,0-0.777-0.309-0.907-0.837
		c-0.757,0.608-1.475,0.837-2.103,0.837c-1.016,0-1.614-0.757-1.614-1.684c0-1.405,1.315-2.83,2.68-2.83
		c0.737,0,1.664,0.488,1.664,2.053V57.459z M50.958,57.09c0-0.777,0-2.082-0.986-2.082c-0.349,0-0.887,0.189-1.355,0.916
		c-0.319,0.509-0.578,1.585-0.578,2.073c0,0.638,0.299,1.086,0.896,1.086c0.399,0,1.166-0.109,2.043-0.877
		C50.958,58.036,50.958,57.459,50.958,57.09z"/>
</g>
<g>
	<path d="M64.825,48.848c-0.215,0-0.459,0-0.459-0.272c0-0.258,0.258-0.258,0.459-0.258h8.448c0.215,0,0.459,0,0.459,0.272
		c0,0.258-0.258,0.258-0.459,0.258H64.825z M64.825,51.516c-0.215,0-0.459,0-0.459-0.272c0-0.258,0.258-0.258,0.459-0.258h8.448
		c0.215,0,0.459,0,0.459,0.272c0,0.258-0.258,0.258-0.459,0.258H64.825z"/>
</g>
<g>
	<path d="M84.876,40.979h1.449v0.416h-1.449V42.7c0,0.53,0.043,0.674,1.076,0.674h0.287v0.416c-0.33-0.028-1.478-0.028-1.879-0.028
		c-0.402,0-1.535,0-1.865,0.028v-0.416h0.287c1.047,0,1.076-0.144,1.076-0.674v-1.306h-3.772v-0.416l4.317-6.698
		c0.115-0.172,0.158-0.172,0.272-0.172c0.201,0,0.201,0.072,0.201,0.344V40.979z M80.444,40.979h3.485v-5.407L80.444,40.979z"/>
</g>
<g>
	<path d="M89.604,41.624c-0.143,0.574-0.143,0.603-0.373,1.334c-0.172,0.603-0.287,0.976-0.703,0.976
		c-0.129,0-0.387-0.072-0.387-0.373c0-0.086,0-0.115,0.115-0.344c1.176-2.511,1.535-3.758,1.851-4.834h-0.818
		c-0.358,0-1.104,0-1.85,1.176c-0.072,0.086-0.086,0.129-0.187,0.129c-0.086,0-0.158-0.029-0.158-0.115s0.459-0.846,0.832-1.262
		c0.66-0.703,1.147-0.703,1.478-0.703h4.719c0.258,0,0.531,0,0.531,0.316c0,0.459-0.473,0.459-0.66,0.459h-1.606
		c-0.301,1.291-0.301,2.309-0.301,2.395c0,0.101,0,1.334,0.387,2.324c0.101,0.215,0.101,0.244,0.101,0.315
		c0,0.244-0.258,0.517-0.56,0.517c-0.588,0-0.588-1.549-0.588-1.75c0-1.147,0.244-2.194,0.631-3.801h-1.621L89.604,41.624z"/>
</g>
<g>
	<rect x="79.698" y="49.622" width="15.507" height="0.574"/>
</g>
<g>
	<path d="M88.774,57.298c-0.904,0-1.678,0.774-2.051,1.448c-0.516,0.976-0.76,2.366-0.76,2.869c0,0.717,0.315,1.577,1.305,1.577
		c0.545,0,1.908-0.215,2.826-1.435c0.129-0.129,0.144-0.143,0.187-0.143c0.058,0,0.144,0.071,0.144,0.157
		c0,0.187-1.233,1.707-3.185,1.707c-1.463,0-2.237-1.133-2.237-2.381c0-2.037,1.879-4.088,3.758-4.088
		c0.99,0,1.649,0.53,1.649,1.219c0,0.574-0.387,0.86-0.731,0.86c-0.272,0-0.487-0.172-0.487-0.459c0-0.229,0.158-0.444,0.244-0.516
		c0.201-0.172,0.33-0.172,0.603-0.172C89.75,57.326,88.961,57.298,88.774,57.298z"/>
</g>
<g>
	<path d="M102.367,51.444c-0.344,1.362-1.75,2.352-3.055,2.352c-1.033,0-1.778-0.631-1.778-1.534c0-0.933,0.602-1.076,0.86-1.076
		c0.43,0,0.574,0.302,0.574,0.531c0,0.416-0.373,0.832-0.846,0.832c-0.058,0-0.129-0.015-0.187-0.029
		c0.172,0.761,0.861,0.99,1.348,0.99c0.688,0,1.65-0.703,2.022-2.166l1.649-6.555c0.058-0.229,0.058-0.33,0.058-0.345
		c0-0.215,0-0.33-1.147-0.33h-0.359c0-0.014-0.114-0.014-0.114-0.157c0-0.259,0.172-0.259,0.301-0.259
		c0.603,0,1.234,0.029,1.836,0.029h0.789c0.258,0,0.531-0.029,0.774-0.029c0.058,0,0.187,0,0.187,0.158
		c0,0.258-0.144,0.258-0.373,0.258c-0.703,0-0.731,0.144-0.846,0.574L102.367,51.444z"/>
</g>
<g>
	<path d="M107.287,43.218c0.329-1.305,1.455-2.67,2.75-2.67c0.877,0,1.335,0.627,1.335,1.275c0,0.607-0.389,1.315-1.076,1.733
		c0.349,0.239,0.667,0.678,0.667,1.385c0,1.415-1.335,2.75-2.65,2.75c-0.927,0-1.445-0.588-1.594-1.165
		c-0.429,1.614-0.708,2.89-0.757,2.939c-0.03,0.029-0.05,0.039-0.1,0.039c-0.02,0-0.12,0-0.12-0.1c0-0.05,0.02-0.109,0.03-0.149
		L107.287,43.218z M110.744,41.574c0-0.657-0.418-0.807-0.717-0.807c-0.887,0-2.073,0.817-2.541,2.661
		c-0.06,0.229-0.369,1.475-0.458,1.843c-0.09,0.358-0.13,0.508-0.13,0.747c0,0.798,0.508,1.455,1.395,1.455
		c0.717,0,1.226-0.607,1.455-1.026c0.289-0.548,0.488-1.484,0.488-1.883c0-0.319-0.08-0.608-0.299-0.837
		c-0.319,0.129-0.608,0.129-0.747,0.129c-0.239,0-0.678,0-0.678-0.259c0-0.319,0.538-0.319,0.777-0.319c0.089,0,0.408,0,0.688,0.1
		C110.625,42.889,110.744,41.813,110.744,41.574z M109.19,43.637c0.08,0,0.299,0,0.478-0.08c-0.129-0.06-0.249-0.06-0.398-0.06
		c-0.339,0-0.409,0.03-0.508,0.08C108.931,43.637,108.941,43.637,109.19,43.637z"/>
</g>
</svg>
