<?xml version="1.0" encoding="iso-8859-1"?>
<!-- Generator: Adobe Illustrator 16.0.0, SVG Export Plug-In . SVG Version: 6.00 Build 0)  -->
<!DOCTYPE svg PUBLIC "-//W3C//DTD SVG 1.1//EN" "http://www.w3.org/Graphics/SVG/1.1/DTD/svg11.dtd">
<svg version="1.1" id="Layer_1" xmlns="http://www.w3.org/2000/svg" xmlns:xlink="http://www.w3.org/1999/xlink" x="0px" y="0px"
	 width="566.929px" height="85.039px" viewBox="0 0 566.929 85.039" style="enable-background:new 0 0 566.929 85.039;"
	 xml:space="preserve">
<g>
	<path d="M30.071,49.316c-0.115,0.431-0.416,0.488-0.545,0.488c-0.215,0-0.387-0.144-0.387-0.358c0-0.087,0.028-0.173,0.043-0.244
		l1.664-6.598c0.072-0.272,0.129-0.502,0.129-0.918c0-0.574-0.201-1.004-0.775-1.004c-0.559,0-1.047,0.229-1.42,0.574
		c-0.531,0.459-0.889,1.176-0.918,1.262l-0.473,1.893c-0.101,0.431-0.215,0.861-0.315,1.291c-0.072,0.287-0.201,0.789-0.229,0.86
		c-0.115,0.216-0.316,0.302-0.488,0.302c-0.215,0-0.373-0.158-0.373-0.358c0-0.072,0.158-0.746,0.258-1.119
		c0.072-0.258,0.229-0.903,0.287-1.176c0.129-0.517,0.273-1.033,0.402-1.549c0.101-0.445,0.244-1.004,0.244-1.32
		c0-0.43-0.115-0.66-0.444-0.66c-0.574,0-0.846,0.846-1.062,1.692c-0.086,0.33-0.101,0.344-0.215,0.344
		c-0.1,0-0.158-0.071-0.158-0.129s0.201-0.932,0.459-1.449c0.272-0.545,0.603-0.746,1.019-0.746c0.631,0,1.219,0.444,1.262,1.262
		c0.258-0.359,0.932-1.262,2.209-1.262c1.09,0,1.592,0.646,1.592,1.506c0,0.387-0.043,0.56-0.115,0.846L30.071,49.316z"/>
</g>
<g>
	<path d="M37.57,42.073c-0.215,0-0.459,0-0.459-0.272c0-0.258,0.258-0.258,0.459-0.258h8.448c0.215,0,0.459,0,0.459,0.272
		c0,0.258-0.258,0.258-0.459,0.258H37.57z M37.57,44.741c-0.215,0-0.459,0-0.459-0.272c0-0.258,0.258-0.258,0.459-0.258h8.448
		c0.215,0,0.459,0,0.459,0.272c0,0.258-0.258,0.258-0.459,0.258H37.57z"/>
</g>
<g>
	<path d="M89.43,34.707c-0.101,0.43-0.215,0.86-0.315,1.291c-0.072,0.287-0.201,0.789-0.229,0.861
		c-0.115,0.215-0.316,0.301-0.488,0.301c-0.215,0-0.373-0.158-0.373-0.359c0-0.071,0.158-0.746,0.258-1.119
		c0.072-0.258,0.229-0.904,0.287-1.176c0.129-0.516,0.273-1.033,0.402-1.549c0.101-0.445,0.244-1.004,0.244-1.32
		c0-0.43-0.115-0.66-0.444-0.66c-0.574,0-0.832,0.817-1.062,1.692c-0.086,0.33-0.101,0.344-0.215,0.344
		c-0.1,0-0.158-0.072-0.158-0.129s0.201-0.918,0.459-1.434c0.244-0.488,0.56-0.76,1.019-0.76c0.631,0,1.219,0.444,1.262,1.262
		c0.258-0.359,0.932-1.262,2.209-1.262c1.09,0,1.592,0.645,1.592,1.506c0,0.817-0.603,2.424-0.889,3.213
		c-0.086,0.201-0.244,0.631-0.244,0.99c0,0.459,0.229,0.473,0.373,0.473c0.56,0,1.104-0.574,1.435-1.75
		c0.072-0.244,0.086-0.287,0.215-0.287c0.086,0,0.144,0.058,0.144,0.129c0,0.086-0.502,2.195-1.836,2.195
		c-0.688,0-1.133-0.517-1.133-1.162c0-0.258,0.072-0.444,0.201-0.789c0.287-0.774,0.875-2.41,0.875-3.228
		c0-0.574-0.201-1.004-0.775-1.004c-0.559,0-1.047,0.229-1.42,0.574c-0.531,0.459-0.889,1.176-0.918,1.262L89.43,34.707z"/>
</g>
<g>
	<path d="M98.262,33.04c0.03-0.12,0.04-0.149,0.04-0.189c0-0.129-0.09-0.139-0.269-0.159c-0.169-0.02-0.359-0.02-0.378-0.02
		c-0.189,0-0.279,0-0.279-0.109c0-0.199,0.1-0.199,0.289-0.199h3.348c1.195,0,1.853,0.638,1.853,1.375
		c0,0.946-1.046,1.684-2.083,1.873c0.967,0.109,1.544,0.688,1.544,1.405c0,0.977-1.176,2.152-2.75,2.152h-3.557
		c-0.179,0-0.269,0-0.269-0.109c0-0.2,0.1-0.2,0.269-0.2c0.787,0,0.807-0.08,0.907-0.468L98.262,33.04z M99.338,38.859
		c1.176,0,2.062-0.966,2.062-1.953c0-0.429-0.189-1.166-1.146-1.166h-1.883l-0.688,2.78c-0.05,0.179-0.05,0.199-0.05,0.229
		c0,0.08,0.03,0.09,0.129,0.1c0.06,0.01,0.08,0.01,0.219,0.01H99.338z M99.887,35.521c1.215,0,2.072-0.946,2.072-1.823
		c0-0.438-0.209-1.026-1.086-1.026h-1.286c-0.428,0-0.448,0.03-0.538,0.379l-0.618,2.471H99.887z"/>
</g>
<g>
	<path d="M108.739,33.717c-0.201,0-0.474,0-0.474-0.287c0-0.287,0.272-0.287,0.474-0.287h7.817c0.201,0,0.473,0,0.473,0.287
		c0,0.287-0.272,0.287-0.473,0.287H108.739z"/>
</g>
<g>
	<path d="M123.903,34.707c-0.101,0.43-0.215,0.86-0.315,1.291c-0.072,0.287-0.201,0.789-0.229,0.861
		c-0.115,0.215-0.316,0.301-0.488,0.301c-0.215,0-0.373-0.158-0.373-0.359c0-0.071,0.158-0.746,0.258-1.119
		c0.072-0.258,0.229-0.904,0.287-1.176c0.129-0.516,0.273-1.033,0.402-1.549c0.101-0.445,0.244-1.004,0.244-1.32
		c0-0.43-0.115-0.66-0.444-0.66c-0.574,0-0.832,0.817-1.062,1.692c-0.086,0.33-0.101,0.344-0.215,0.344
		c-0.1,0-0.158-0.072-0.158-0.129s0.201-0.918,0.459-1.434c0.244-0.488,0.56-0.76,1.019-0.76c0.631,0,1.219,0.444,1.262,1.262
		c0.258-0.359,0.932-1.262,2.209-1.262c1.09,0,1.592,0.645,1.592,1.506c0,0.817-0.603,2.424-0.889,3.213
		c-0.086,0.201-0.244,0.631-0.244,0.99c0,0.459,0.229,0.473,0.373,0.473c0.56,0,1.104-0.574,1.435-1.75
		c0.072-0.244,0.086-0.287,0.215-0.287c0.086,0,0.144,0.058,0.144,0.129c0,0.086-0.502,2.195-1.836,2.195
		c-0.688,0-1.133-0.517-1.133-1.162c0-0.258,0.072-0.444,0.201-0.789c0.287-0.774,0.875-2.41,0.875-3.228
		c0-0.574-0.201-1.004-0.775-1.004c-0.559,0-1.047,0.229-1.42,0.574c-0.531,0.459-0.889,1.176-0.918,1.262L123.903,34.707z"/>
</g>
<g>
	<path d="M132.862,32.161v-0.309h3.597v0.309H132.862z"/>
</g>
<g>
	<path d="M132.736,34.121c0.03-0.12,0.04-0.149,0.04-0.189c0-0.129-0.09-0.139-0.269-0.159c-0.169-0.02-0.359-0.02-0.378-0.02
		c-0.189,0-0.279,0-0.279-0.109c0-0.199,0.1-0.199,0.289-0.199h3.348c1.195,0,1.853,0.638,1.853,1.375
		c0,0.946-1.046,1.684-2.083,1.873c0.967,0.109,1.544,0.688,1.544,1.405c0,0.977-1.176,2.152-2.75,2.152h-3.557
		c-0.179,0-0.269,0-0.269-0.109c0-0.2,0.1-0.2,0.269-0.2c0.787,0,0.807-0.08,0.907-0.468L132.736,34.121z M133.812,39.94
		c1.176,0,2.062-0.966,2.062-1.953c0-0.429-0.189-1.166-1.146-1.166h-1.883l-0.688,2.78c-0.05,0.179-0.05,0.199-0.05,0.229
		c0,0.08,0.03,0.09,0.129,0.1c0.06,0.01,0.08,0.01,0.219,0.01H133.812z M134.361,36.602c1.215,0,2.072-0.946,2.072-1.823
		c0-0.438-0.209-1.026-1.086-1.026h-1.286c-0.428,0-0.448,0.03-0.538,0.379l-0.618,2.471H134.361z"/>
</g>
<g>
	<rect x="52.443" y="42.848" width="120.423" height="0.574"/>
</g>
<g>
	<path d="M59.33,54.141c0,0.368,0.03,0.479,0.927,0.479h0.319v0.309c-0.349-0.03-1.215-0.03-1.614-0.03c-0.398,0-1.265,0-1.614,0.03
		v-0.309h0.319c0.896,0,0.926-0.12,0.926-0.479v-5.161c-0.518,0.259-1.106,0.259-1.305,0.259V48.93c0.319,0,1.196,0,1.813-0.638
		c0.229,0,0.229,0.02,0.229,0.259V54.141z"/>
</g>
<g>
	<rect x="53.639" y="56.703" width="10.506" height="0.574"/>
</g>
<g>
	<path d="M55.722,64.01c-0.129,0.498-0.129,0.519-0.269,0.977c-0.12,0.369-0.199,0.647-0.498,0.647c-0.13,0-0.289-0.079-0.289-0.269
		c0-0.07,0-0.09,0.08-0.239c0.418-0.907,0.957-2.112,1.275-3.318h-0.568c-0.199,0-0.777,0-1.266,0.768
		c-0.06,0.079-0.08,0.119-0.159,0.119c-0.12,0-0.12-0.09-0.12-0.1c0-0.05,0.259-0.508,0.608-0.896
		c0.438-0.469,0.817-0.469,1.036-0.469h3.338c0.189,0,0.398,0,0.398,0.239c0,0.339-0.358,0.339-0.488,0.339h-1.136
		c-0.109,0.519-0.179,1.057-0.179,1.585c0,0.278,0,0.926,0.289,1.644c0.06,0.14,0.06,0.159,0.06,0.22
		c0,0.199-0.209,0.378-0.409,0.378c-0.149,0-0.259-0.06-0.358-0.498c-0.08-0.339-0.08-0.607-0.08-0.757
		c0-0.668,0.089-1.097,0.418-2.571H56.28L55.722,64.01z"/>
</g>
<g>
	<path d="M62.987,62.646h-2.873c0-0.195,0-0.209,0.07-0.271l1.68-1.66c0.223-0.251,0.656-0.732,0.656-1.339
		c0-0.564-0.363-1.108-1.06-1.108c-0.328,0-0.802,0.153-1.018,0.648c0.363,0,0.412,0.244,0.412,0.369c0,0.251-0.203,0.37-0.37,0.37
		c-0.07,0-0.37-0.035-0.37-0.391c0-0.642,0.585-1.248,1.45-1.248c0.893,0,1.632,0.516,1.632,1.359c0,0.662-0.481,1.095-0.997,1.506
		c-0.418,0.328-0.663,0.523-1.395,1.172h1.283c0.098,0,0.635,0,0.69-0.042c0.091-0.069,0.161-0.48,0.181-0.635h0.237L62.987,62.646z
		"/>
</g>
<g>
	<path d="M73.482,65.58c-0.258,0-1.19-1.09-1.333-1.263c-1.879-2.424-2.238-5.307-2.238-7.344c0-3.198,0.932-5.78,2.396-7.516
		c0.187-0.215,0.961-1.075,1.176-1.075c0.058,0,0.172,0,0.172,0.143c0,0.029,0,0.058-0.129,0.187
		c-1.721,1.865-2.625,4.504-2.625,8.276c0,1.334,0.129,2.812,0.459,4.116c0.603,2.338,1.578,3.5,2.237,4.203
		c0.029,0.043,0.058,0.071,0.058,0.129C73.655,65.58,73.54,65.58,73.482,65.58z"/>
</g>
<g>
	<path d="M77.325,52.034c0.379-0.149,0.768-0.548,1.106-0.927c0.718-0.797,1.176-0.877,1.455-0.877c0.448,0,0.677,0.329,0.677,0.628
		c0,0.389-0.289,0.607-0.548,0.607c-0.269,0-0.378-0.188-0.378-0.349c0-0.119,0.089-0.508,0.568-0.538
		c-0.02-0.02-0.02-0.029-0.04-0.039c-0.08-0.061-0.09-0.061-0.209-0.08c-0.02-0.01-0.03-0.01-0.09-0.01
		c-0.488,0-0.947,0.428-1.425,0.956c-0.229,0.239-0.548,0.559-0.857,0.737c0.847,0.109,1.475,0.398,1.475,1.047
		c0,0.1,0,0.139-0.04,0.309c-0.04,0.159-0.08,0.389-0.08,0.558c0,0.359,0.129,0.469,0.319,0.469c0.438,0,0.667-0.509,0.867-1.235
		c0.03-0.14,0.04-0.18,0.14-0.18c0.03,0,0.12,0,0.12,0.1c0,0.02-0.109,0.568-0.359,1.006c-0.219,0.369-0.488,0.528-0.787,0.528
		c-0.518,0-0.917-0.398-0.917-0.986c0-0.109,0.02-0.229,0.04-0.349c0.03-0.1,0.03-0.14,0.03-0.209c0-0.658-0.817-0.817-1.156-0.848
		c-0.06,0.25-0.508,2.093-0.558,2.183c-0.06,0.119-0.209,0.209-0.339,0.209c-0.09,0-0.289-0.05-0.289-0.278
		c0-0.061,0-0.08,0.04-0.22l1.445-5.739l0.03-0.199c0-0.1-0.02-0.169-0.498-0.169c-0.149,0-0.239,0-0.239-0.12
		c0-0.18,0.109-0.189,0.189-0.199c0.259-0.02,0.986-0.1,1.215-0.1c0.13,0,0.13,0.1,0.13,0.109L77.325,52.034z"/>
</g>
<g>
	<path d="M82.94,51.882c0.028-0.104,0.028-0.139,0.028-0.153c0-0.069-0.014-0.083-0.161-0.098c-0.125-0.014-0.258-0.014-0.265-0.014
		c-0.14,0-0.223,0-0.223-0.098c0-0.153,0.09-0.153,0.223-0.153h2.538c0.907,0,1.443,0.46,1.443,0.99c0,0.6-0.704,1.13-1.548,1.283
		c0.739,0.076,1.192,0.502,1.192,0.997c0,0.69-0.899,1.492-2.071,1.492h-2.699c-0.125,0-0.209,0-0.209-0.104
		c0-0.146,0.091-0.146,0.209-0.146c0.537,0,0.551-0.056,0.613-0.293L82.94,51.882z M83.917,55.878c0.844,0,1.548-0.6,1.548-1.29
		c0-0.404-0.251-0.837-0.907-0.837H83.08l-0.481,1.911c-0.028,0.104-0.028,0.139-0.028,0.146c0,0.062,0.007,0.069,0.223,0.069
		H83.917z M84.272,53.556c0.934,0,1.569-0.642,1.569-1.206c0-0.266-0.161-0.732-0.872-0.732h-1.06c-0.293,0-0.3,0.021-0.355,0.237
		l-0.426,1.701H84.272z"/>
</g>
<g>
	<path d="M90.475,53.878c-0.04,0.149-0.04,0.199-0.04,0.209c0,0.159,0.08,0.189,0.369,0.219c0.259,0.021,0.389,0.021,0.638,0.021
		c0.259,0,0.339,0,0.339,0.109c0,0.199-0.12,0.199-0.219,0.199c-0.279,0-0.578-0.02-0.867-0.02c-0.269,0-0.548-0.011-0.827-0.011
		c-0.279,0-0.568,0.011-0.847,0.011c-0.269,0-0.548,0.02-0.817,0.02c-0.06,0-0.169,0-0.169-0.119c0-0.189,0.06-0.189,0.418-0.189
		c1.066,0,1.096-0.11,1.186-0.479l1.335-5.321c0.01-0.029,0.04-0.149,0.04-0.209c0-0.079,0-0.119-0.279-0.119h-0.389
		c-1.475,0-1.734,0.179-2.271,1.724c-0.06,0.159-0.07,0.209-0.169,0.209c-0.07,0-0.12-0.05-0.12-0.109c0-0.02,0.05-0.159,0.06-0.18
		l0.598-1.753c0.069-0.189,0.08-0.2,0.319-0.2h5.53c0.169,0,0.269,0,0.269,0.11c0,0.029-0.01,0.129-0.02,0.169l-0.269,1.734
		c-0.02,0.149-0.04,0.229-0.149,0.229c-0.09,0-0.12-0.069-0.12-0.129c0-0.03,0.02-0.15,0.03-0.189c0.04-0.26,0.08-0.648,0.08-0.798
		c0-0.776-0.449-0.816-1.455-0.816c-0.209,0-0.538,0-0.627,0.02c-0.12,0.03-0.16,0.09-0.229,0.369L90.475,53.878z"/>
</g>
<g>
	<rect x="75.502" y="56.703" width="19.25" height="0.574"/>
</g>
<g>
	<path d="M80.789,59.954v-0.309h3.597v0.309H80.789z"/>
</g>
<g>
	<path d="M82.184,61.888c0.369-0.458,0.847-0.768,1.475-0.768c0.747,0,1.146,0.419,1.146,1.066c0,0.578-0.449,1.764-0.608,2.192
		c-0.09,0.219-0.179,0.458-0.179,0.707c0,0.229,0.07,0.329,0.239,0.329c0.548,0,0.867-0.708,1.017-1.235
		c0.05-0.149,0.05-0.18,0.149-0.18c0.03,0,0.12,0,0.12,0.1c0,0.08-0.369,1.534-1.305,1.534c-0.469,0-0.817-0.349-0.817-0.816
		c0-0.199,0.05-0.319,0.13-0.549c0.239-0.607,0.618-1.693,0.618-2.231c0-0.358-0.11-0.697-0.538-0.697
		c-0.429,0-0.737,0.189-0.957,0.349c-0.339,0.269-0.648,0.827-0.678,0.916c-0.01,0.061-0.089,0.389-0.109,0.449
		c-0.05,0.229-0.11,0.448-0.169,0.667c-0.07,0.299-0.149,0.598-0.219,0.897l-0.189,0.757c-0.05,0.14-0.209,0.259-0.369,0.259
		c-0.09,0-0.289-0.05-0.289-0.278c0-0.061,0-0.08,0.04-0.22l1.445-5.739l0.03-0.199c0-0.1-0.02-0.169-0.498-0.169
		c-0.149,0-0.239,0-0.239-0.12c0-0.18,0.11-0.189,0.189-0.199c0.259-0.02,0.986-0.1,1.215-0.1c0.13,0,0.13,0.1,0.13,0.109
		L82.184,61.888z"/>
	<path d="M88.93,61.34c-0.548,0-1.096,0.428-1.405,0.996c-0.339,0.618-0.538,1.584-0.538,1.993c0,0.598,0.269,1.086,0.896,1.086
		c0.12,0,1.206,0,1.993-0.986c0.06-0.08,0.08-0.1,0.129-0.1c0.06,0,0.12,0.069,0.12,0.129c0,0.12-0.837,1.176-2.262,1.176
		c-1.036,0-1.614-0.787-1.614-1.684c0-1.405,1.325-2.83,2.67-2.83c0.707,0,1.175,0.369,1.175,0.857c0,0.398-0.269,0.638-0.558,0.638
		c-0.189,0-0.369-0.11-0.369-0.349c0-0.07,0.02-0.239,0.179-0.389c0.14-0.14,0.279-0.14,0.438-0.14
		C89.647,61.469,89.269,61.34,88.93,61.34z"/>
</g>
<g>
	<path d="M97.926,64.504c-0.172,0.201-0.961,1.076-1.176,1.076c-0.072,0-0.172-0.029-0.172-0.144c0-0.028,0-0.058,0.129-0.187
		c0.731-0.803,1.578-1.951,2.123-3.959c0.373-1.405,0.502-2.868,0.502-4.317c0-1.334-0.129-2.811-0.459-4.116
		c-0.588-2.28-1.521-3.442-2.209-4.188c-0.058-0.043-0.086-0.086-0.086-0.144c0-0.114,0.1-0.143,0.172-0.143
		c0.258,0,1.19,1.09,1.334,1.262c1.879,2.424,2.237,5.307,2.237,7.344C100.321,60.187,99.389,62.769,97.926,64.504z"/>
</g>
<g>
	<path d="M107.076,49.859c0,1.017-0.907,1.923-2.123,1.923c-1.086,0-2.013-0.657-2.013-1.563c0-0.438,0.319-0.578,0.558-0.578
		c0.289,0,0.558,0.199,0.558,0.558c0,0.379-0.309,0.598-0.658,0.548c0.349,0.588,1.096,0.758,1.524,0.758
		c0.438,0,1.126-0.289,1.126-1.645c0-0.977-0.369-1.653-1.186-1.653h-0.438c-0.169,0-0.239,0-0.239-0.11
		c0-0.1,0.07-0.109,0.149-0.119c0.07,0,0.309-0.021,0.389-0.03c0.249-0.01,0.588-0.04,0.887-0.518
		c0.259-0.438,0.279-1.017,0.279-1.136c0-0.897-0.548-1.116-0.957-1.116c-0.358,0-1.016,0.129-1.325,0.617
		c0.149,0,0.618,0,0.618,0.499c0,0.288-0.199,0.508-0.508,0.508c-0.289,0-0.508-0.189-0.508-0.519c0-0.757,0.757-1.354,1.764-1.354
		c0.957,0,1.833,0.558,1.833,1.375c0,0.787-0.578,1.484-1.395,1.754C106.448,48.266,107.076,49.043,107.076,49.859z"/>
</g>
<g>
	<path d="M115.958,55.905c-0.114,1.592-0.631,5.766-0.817,6.512c-0.315,1.291-1.004,2.539-2.367,2.539
		c-0.86,0-1.578-0.502-1.578-1.19c0-0.431,0.315-0.617,0.603-0.617c0.272,0,0.588,0.187,0.588,0.603c0,0.201-0.115,0.53-0.531,0.588
		c0.301,0.259,0.731,0.302,0.918,0.302c0.818,0,1.334-0.646,1.521-2.998l0.272-3.571c0.129-1.735,0.646-5.78,0.818-6.569
		c0.244-1.09,0.803-2.481,2.166-2.481c0.861,0,1.578,0.502,1.578,1.19c0,0.431-0.315,0.617-0.602,0.617
		c-0.273,0-0.588-0.187-0.588-0.603c0-0.201,0.115-0.531,0.531-0.588c-0.315-0.272-0.76-0.302-0.904-0.302
		c-0.645,0-1.133,0.358-1.333,2.998L115.958,55.905z"/>
</g>
<g>
	<path d="M127.47,48.463c1.186,0,1.883,1.146,1.883,2.252c0,1.176-0.757,2.262-1.913,2.262c-0.787,0-1.375-0.418-1.694-0.688
		c-0.219-0.189-0.229-0.199-0.897-1.006c-0.129,0.219-1.016,1.693-2.451,1.693c-1.186,0-1.883-1.146-1.883-2.252
		c0-1.176,0.757-2.262,1.913-2.262c0.787,0,1.375,0.419,1.694,0.688c0.219,0.189,0.229,0.199,0.896,1.007
		C125.148,49.938,126.035,48.463,127.47,48.463z M123.584,49.659c-0.448-0.488-0.857-0.718-1.315-0.718
		c-0.837,0-1.534,0.787-1.534,1.783c0,0.897,0.538,1.934,1.594,1.934c1.126,0,1.883-1.047,2.262-1.724
		C124.312,50.596,123.863,49.968,123.584,49.659z M126.284,51.781c0.448,0.488,0.857,0.717,1.315,0.717
		c0.837,0,1.534-0.787,1.534-1.783c0-0.896-0.538-1.933-1.594-1.933c-1.126,0-1.883,1.046-2.262,1.724
		C125.557,50.845,126.005,51.473,126.284,51.781z"/>
</g>
<g>
	<path d="M121.382,64.522c-0.438,0.946-1.196,1.155-1.734,1.155c-0.488,0-1.215-0.199-1.644-1.006
		c-0.409-0.757-0.448-1.654-0.448-2.401c0-0.797,0.05-1.574,0.369-2.262c0.409-0.927,1.136-1.186,1.734-1.186
		c0.418,0,1.235,0.159,1.694,1.115c0.349,0.737,0.398,1.535,0.398,2.332C121.75,63.058,121.701,63.835,121.382,64.522z
		 M120.814,64.214c0.109-0.638,0.109-1.315,0.109-2.062c0-0.628,0-1.386-0.1-1.943c-0.189-0.986-0.847-1.166-1.176-1.166
		c-0.249,0-0.996,0.09-1.186,1.275c-0.08,0.538-0.08,1.196-0.08,1.834c0,0.588,0,1.504,0.109,2.102
		c0.179,0.957,0.767,1.206,1.156,1.206C120.096,65.459,120.665,65.16,120.814,64.214z"/>
</g>
<g>
	<path d="M143.104,53.283c-0.11,0.438-0.169,0.658-0.169,0.877c0,0.339,0.159,0.658,0.548,0.658c0.319,0,0.997-0.239,1.325-1.306
		c0.02-0.069,0.04-0.109,0.13-0.109c0.03,0,0.12,0,0.12,0.1c0,0.249-0.568,1.534-1.595,1.534c-0.598,0-0.956-0.389-1.076-0.757
		c-0.03,0.06-0.389,0.757-1.046,0.757c-0.438,0-0.937-0.199-0.937-0.657c0-0.319,0.249-0.578,0.548-0.578
		c0.149,0,0.369,0.08,0.369,0.349c0,0.279-0.219,0.488-0.468,0.538c0.209,0.13,0.438,0.13,0.498,0.13
		c0.438,0,0.787-0.419,0.947-1.036c0.369-1.396,0.538-2.062,0.538-2.372c0-0.577-0.349-0.667-0.538-0.667
		c-0.339,0-0.997,0.249-1.335,1.305c-0.02,0.09-0.05,0.11-0.13,0.11c-0.02,0-0.12,0-0.12-0.1c0-0.25,0.568-1.535,1.604-1.535
		c0.289,0,0.827,0.1,1.076,0.758c0.12-0.229,0.468-0.758,1.046-0.758c0.339,0,0.927,0.14,0.927,0.658
		c0,0.398-0.319,0.577-0.538,0.577c-0.269,0-0.378-0.188-0.378-0.349c0-0.239,0.199-0.488,0.478-0.538
		c-0.209-0.129-0.448-0.129-0.498-0.129c-0.698,0-0.927,0.916-0.986,1.176L143.104,53.283z"/>
</g>
<g>
	<path d="M149.122,52.05h-2.873c0-0.195,0-0.209,0.07-0.271l1.68-1.66c0.223-0.251,0.656-0.732,0.656-1.339
		c0-0.564-0.363-1.108-1.06-1.108c-0.328,0-0.802,0.153-1.018,0.648c0.363,0,0.412,0.244,0.412,0.369c0,0.251-0.203,0.37-0.37,0.37
		c-0.07,0-0.37-0.035-0.37-0.391c0-0.642,0.585-1.248,1.45-1.248c0.893,0,1.632,0.516,1.632,1.359c0,0.662-0.481,1.095-0.997,1.506
		c-0.418,0.328-0.663,0.523-1.395,1.172h1.283c0.098,0,0.635,0,0.69-0.042c0.091-0.069,0.161-0.481,0.181-0.635h0.237L149.122,52.05
		z"/>
</g>
<g>
	<rect x="134.004" y="56.703" width="22.385" height="0.574"/>
</g>
<g>
	<path d="M135.339,63.223c-0.149,0.607-0.159,0.917-0.159,1.036c0,0.319,0.09,1.156,0.867,1.156c0.12,0,1.206,0,1.993-0.986
		c0.06-0.08,0.08-0.1,0.129-0.1c0.06,0,0.12,0.069,0.12,0.129c0,0.12-0.837,1.176-2.262,1.176c-0.976,0-1.564-0.787-1.564-1.804
		c0-1.743,1.504-2.71,2.61-2.71c0.688,0,1.066,0.409,1.066,0.847c0,0.14-0.05,0.728-0.748,1.026
		c-0.498,0.21-1.235,0.229-1.524,0.229H135.339z M135.808,63.004c0.408,0,2.002,0,2.002-1.037c0-0.338-0.269-0.627-0.737-0.627
		c-0.259,0-1.285,0.149-1.674,1.664H135.808z"/>
</g>
<g>
	<path d="M140.617,60.952c0.062-0.237,0.146-0.586,0.146-0.726c0-0.335-0.188-0.46-0.418-0.46c-0.342,0-0.781,0.3-0.956,0.844
		c-0.035,0.091-0.042,0.118-0.132,0.118c-0.021,0-0.119,0-0.119-0.09c0-0.21,0.446-1.067,1.227-1.067
		c0.391,0,0.711,0.209,0.837,0.495c0.153-0.265,0.433-0.495,0.781-0.495c0.279,0,0.725,0.118,0.725,0.509
		c0,0.293-0.23,0.426-0.391,0.426c-0.16,0-0.279-0.104-0.279-0.258c0-0.126,0.083-0.321,0.307-0.384
		c-0.146-0.098-0.362-0.098-0.376-0.098c-0.23,0-0.544,0.174-0.683,0.711c-0.195,0.774-0.363,1.409-0.363,1.59
		c0,0.266,0.146,0.453,0.425,0.453c0.391,0,0.809-0.362,0.956-0.844c0.028-0.083,0.035-0.118,0.132-0.118
		c0.021,0,0.111,0,0.111,0.091c0,0.195-0.425,1.066-1.227,1.066c-0.279,0-0.663-0.125-0.83-0.495
		c-0.175,0.293-0.46,0.495-0.781,0.495c-0.342,0-0.732-0.16-0.732-0.509c0-0.258,0.203-0.425,0.398-0.425
		c0.16,0,0.279,0.104,0.279,0.258c0,0.042-0.021,0.293-0.307,0.384c0.146,0.097,0.356,0.097,0.377,0.097
		c0.355,0,0.585-0.376,0.655-0.613L140.617,60.952z"/>
</g>
<g>
	<path d="M144.815,63.232c-0.14,0-0.329,0-0.329-0.199s0.189-0.199,0.329-0.199h5.431c0.139,0,0.329,0,0.329,0.199
		s-0.189,0.199-0.329,0.199H144.815z"/>
</g>
<g>
	<path d="M154.337,64.737c0,0.368,0.03,0.479,0.927,0.479h0.319v0.309c-0.349-0.03-1.215-0.03-1.614-0.03
		c-0.398,0-1.265,0-1.614,0.03v-0.309h0.319c0.896,0,0.926-0.12,0.926-0.479v-5.161c-0.518,0.259-1.106,0.259-1.305,0.259v-0.309
		c0.319,0,1.196,0,1.813-0.638c0.229,0,0.229,0.02,0.229,0.259V64.737z"/>
</g>
<g>
	<path d="M162.776,59.014c-0.101,0.401-0.101,0.703-0.101,0.76c0,0.287,0.029,0.66,0.445,0.66c0.588,0,0.86-0.903,1.076-1.75
		c0.057-0.215,0.072-0.287,0.201-0.287c0.086,0,0.144,0.058,0.144,0.13c0,0.057-0.201,0.932-0.43,1.42
		c-0.258,0.517-0.603,0.774-1.033,0.774c-0.431,0-1.104-0.244-1.248-1.09c-0.402,0.473-1.076,1.09-1.865,1.09
		c-0.975,0-1.807-0.832-1.807-2.252c0-2.123,1.75-4.217,3.371-4.217c0.746,0,1.133,0.573,1.291,0.946l0.875-3.485
		c0.014-0.043,0.043-0.157,0.043-0.244c0-0.143-0.015-0.272-0.717-0.272c-0.201,0-0.315,0-0.315-0.144
		c0-0.258,0.1-0.272,0.459-0.301c0.258-0.015,0.473-0.043,0.717-0.058c0.071-0.014,0.774-0.071,0.789-0.071
		c0.029,0,0.172,0,0.172,0.144c0,0.071-0.029,0.157-0.043,0.215L162.776,59.014z M162.604,56.059
		c0.015-0.028,0.058-0.215,0.058-0.229c0-0.114-0.187-1.29-1.133-1.29c-0.56,0-1.233,0.516-1.721,1.52
		c-0.272,0.603-0.717,2.209-0.717,2.998c0,0.847,0.33,1.377,0.918,1.377c0.674,0,1.306-0.616,1.621-1.019
		c0.201-0.272,0.201-0.301,0.272-0.545L162.604,56.059z"/>
	<path d="M170.951,54.539c-0.66,0-1.147,0.631-1.363,1.491c-0.144,0.53-0.33,1.291-0.502,1.951
		c-0.229,0.946-0.287,1.176-0.287,1.491c0,0.588,0.272,0.961,0.775,0.961c0.645,0,1.477-0.588,1.864-1.851
		c0.043-0.114,0.058-0.187,0.187-0.187c0.086,0,0.144,0.058,0.144,0.13c0,0.315-0.774,2.194-2.238,2.194
		c-0.53,0-1.248-0.287-1.477-1.133c-0.301,0.588-0.789,1.133-1.478,1.133c-0.617,0-1.291-0.272-1.291-0.875
		c0-0.459,0.373-0.76,0.717-0.76c0.272,0,0.488,0.172,0.488,0.459c0,0.172-0.115,0.602-0.631,0.702
		c0.301,0.187,0.66,0.187,0.732,0.187c0.76,0,1.176-0.789,1.391-1.649c0.201-0.832,0.258-1.047,0.488-1.965
		c0.172-0.688,0.258-1.019,0.258-1.334c0-0.345-0.129-0.946-0.775-0.946c-0.416,0-1.377,0.301-1.865,1.893
		c-0.028,0.058-0.057,0.144-0.172,0.144c-0.101,0-0.158-0.071-0.158-0.129c0-0.315,0.774-2.194,2.237-2.194
		c0.258,0,1.147,0.058,1.478,1.133c0.129-0.272,0.617-1.133,1.492-1.133c0.603,0,1.291,0.272,1.291,0.875
		c0,0.387-0.301,0.76-0.731,0.76c-0.201,0-0.474-0.114-0.474-0.459c0-0.272,0.172-0.616,0.631-0.703
		C171.381,54.539,170.979,54.539,170.951,54.539z"/>
</g>
</svg>
