<?xml version="1.0" encoding="iso-8859-1"?>
<!-- Generator: Adobe Illustrator 16.0.0, SVG Export Plug-In . SVG Version: 6.00 Build 0)  -->
<!DOCTYPE svg PUBLIC "-//W3C//DTD SVG 1.1//EN" "http://www.w3.org/Graphics/SVG/1.1/DTD/svg11.dtd">
<svg version="1.1" id="Layer_1" xmlns="http://www.w3.org/2000/svg" xmlns:xlink="http://www.w3.org/1999/xlink" x="0px" y="0px"
	 width="566.929px" height="85.039px" viewBox="0 0 566.929 85.039" style="enable-background:new 0 0 566.929 85.039;"
	 xml:space="preserve">
<g>
	<path d="M30.071,47.011c-0.115,0.431-0.416,0.488-0.545,0.488c-0.215,0-0.387-0.144-0.387-0.358c0-0.086,0.028-0.173,0.043-0.244
		l1.664-6.598c0.072-0.272,0.129-0.502,0.129-0.918c0-0.574-0.201-1.004-0.775-1.004c-0.559,0-1.047,0.229-1.42,0.574
		c-0.531,0.459-0.889,1.176-0.918,1.262l-0.473,1.894c-0.101,0.43-0.215,0.86-0.315,1.291c-0.072,0.287-0.201,0.789-0.229,0.86
		c-0.115,0.216-0.316,0.302-0.488,0.302c-0.215,0-0.373-0.158-0.373-0.358c0-0.072,0.158-0.746,0.258-1.119
		c0.072-0.258,0.229-0.903,0.287-1.176c0.129-0.516,0.273-1.033,0.402-1.549c0.101-0.445,0.244-1.004,0.244-1.32
		c0-0.43-0.115-0.66-0.444-0.66c-0.574,0-0.846,0.846-1.062,1.692c-0.086,0.33-0.101,0.344-0.215,0.344
		c-0.1,0-0.158-0.071-0.158-0.129s0.201-0.932,0.459-1.449c0.272-0.545,0.603-0.746,1.019-0.746c0.631,0,1.219,0.444,1.262,1.262
		c0.258-0.359,0.932-1.262,2.209-1.262c1.09,0,1.592,0.646,1.592,1.506c0,0.387-0.043,0.56-0.115,0.846L30.071,47.011z"/>
</g>
<g>
	<path d="M34.836,42.382c-0.876,0-1.116,0.608-1.116,0.897c0,0.448,0.398,0.519,0.757,0.598c0.438,0.09,0.727,0.14,0.996,0.419
		c0.12,0.119,0.309,0.368,0.309,0.728c0,0.448-0.389,1.653-2.003,1.653c-0.857,0-1.425-0.398-1.425-0.966
		c0-0.449,0.299-0.658,0.558-0.658c0.209,0,0.369,0.12,0.369,0.349c0,0.279-0.249,0.578-0.628,0.528
		c0.229,0.528,0.997,0.528,1.136,0.528c1.195,0,1.425-0.837,1.425-1.097c0-0.548-0.518-0.657-1.037-0.757
		c-0.289-0.06-1.026-0.209-1.026-0.986c0-0.438,0.369-1.455,1.684-1.455c0.757,0,1.186,0.409,1.186,0.857
		c0,0.389-0.239,0.558-0.458,0.558s-0.309-0.149-0.309-0.289c0-0.219,0.199-0.438,0.479-0.448
		C35.583,42.452,35.085,42.382,34.836,42.382z"/>
</g>
<g>
	<path d="M42.224,39.768c-0.215,0-0.459,0-0.459-0.272c0-0.258,0.258-0.258,0.459-0.258h8.448c0.215,0,0.459,0,0.459,0.272
		c0,0.258-0.258,0.258-0.459,0.258H42.224z M42.224,42.436c-0.215,0-0.459,0-0.459-0.272c0-0.258,0.258-0.258,0.459-0.258h8.448
		c0.215,0,0.459,0,0.459,0.273c0,0.258-0.258,0.258-0.459,0.258H42.224z"/>
</g>
<g>
	<path d="M175.2,32.401c-0.101,0.43-0.215,0.86-0.315,1.291c-0.072,0.287-0.201,0.789-0.229,0.861
		c-0.115,0.215-0.316,0.301-0.488,0.301c-0.215,0-0.373-0.158-0.373-0.359c0-0.072,0.158-0.746,0.258-1.119
		c0.072-0.258,0.229-0.903,0.287-1.176c0.129-0.516,0.273-1.033,0.402-1.549c0.101-0.445,0.244-1.004,0.244-1.32
		c0-0.43-0.115-0.66-0.444-0.66c-0.574,0-0.832,0.818-1.062,1.692c-0.086,0.33-0.101,0.344-0.215,0.344
		c-0.1,0-0.158-0.071-0.158-0.129s0.201-0.918,0.459-1.435c0.244-0.487,0.56-0.76,1.019-0.76c0.631,0,1.219,0.444,1.262,1.262
		c0.258-0.359,0.932-1.262,2.209-1.262c1.09,0,1.592,0.646,1.592,1.506c0,0.817-0.603,2.424-0.889,3.213
		c-0.086,0.201-0.244,0.631-0.244,0.99c0,0.459,0.229,0.473,0.373,0.473c0.56,0,1.104-0.574,1.435-1.75
		c0.072-0.244,0.086-0.287,0.215-0.287c0.086,0,0.144,0.057,0.144,0.129c0,0.086-0.502,2.195-1.836,2.195
		c-0.688,0-1.133-0.517-1.133-1.162c0-0.258,0.072-0.444,0.201-0.789c0.287-0.775,0.875-2.41,0.875-3.228
		c0-0.574-0.201-1.004-0.775-1.004c-0.559,0-1.047,0.229-1.42,0.574c-0.531,0.459-0.889,1.176-0.918,1.262L175.2,32.401z"/>
</g>
<g>
	<path d="M184.033,30.734c0.03-0.12,0.04-0.149,0.04-0.189c0-0.129-0.09-0.139-0.269-0.159c-0.169-0.02-0.359-0.02-0.378-0.02
		c-0.189,0-0.279,0-0.279-0.109c0-0.199,0.1-0.199,0.289-0.199h3.348c1.195,0,1.853,0.638,1.853,1.375
		c0,0.946-1.046,1.684-2.083,1.873c0.967,0.109,1.544,0.688,1.544,1.405c0,0.977-1.176,2.152-2.75,2.152h-3.557
		c-0.179,0-0.269,0-0.269-0.109c0-0.2,0.1-0.2,0.269-0.2c0.787,0,0.807-0.08,0.907-0.468L184.033,30.734z M185.109,36.553
		c1.176,0,2.062-0.966,2.062-1.953c0-0.429-0.189-1.166-1.146-1.166h-1.883l-0.688,2.78c-0.05,0.179-0.05,0.199-0.05,0.229
		c0,0.08,0.03,0.09,0.129,0.1c0.06,0.01,0.08,0.01,0.219,0.01H185.109z M185.658,33.215c1.215,0,2.072-0.946,2.072-1.823
		c0-0.438-0.209-1.026-1.086-1.026h-1.286c-0.428,0-0.448,0.03-0.538,0.379l-0.618,2.471H185.658z"/>
</g>
<g>
	<path d="M194.511,31.411c-0.201,0-0.473,0-0.473-0.287c0-0.287,0.272-0.287,0.473-0.287h7.817c0.201,0,0.473,0,0.473,0.287
		c0,0.287-0.272,0.287-0.473,0.287H194.511z"/>
</g>
<g>
	<path d="M209.674,32.401c-0.101,0.43-0.215,0.86-0.315,1.291c-0.072,0.287-0.201,0.789-0.229,0.861
		c-0.115,0.215-0.316,0.301-0.488,0.301c-0.215,0-0.373-0.158-0.373-0.359c0-0.072,0.158-0.746,0.258-1.119
		c0.072-0.258,0.229-0.903,0.287-1.176c0.129-0.516,0.272-1.033,0.402-1.549c0.1-0.445,0.244-1.004,0.244-1.32
		c0-0.43-0.115-0.66-0.444-0.66c-0.574,0-0.832,0.818-1.062,1.692c-0.086,0.33-0.101,0.344-0.215,0.344
		c-0.1,0-0.158-0.071-0.158-0.129s0.201-0.918,0.459-1.435c0.244-0.487,0.56-0.76,1.019-0.76c0.631,0,1.219,0.444,1.262,1.262
		c0.258-0.359,0.932-1.262,2.208-1.262c1.09,0,1.592,0.646,1.592,1.506c0,0.817-0.603,2.424-0.889,3.213
		c-0.086,0.201-0.244,0.631-0.244,0.99c0,0.459,0.229,0.473,0.373,0.473c0.56,0,1.104-0.574,1.435-1.75
		c0.072-0.244,0.086-0.287,0.215-0.287c0.086,0,0.144,0.057,0.144,0.129c0,0.086-0.502,2.195-1.836,2.195
		c-0.688,0-1.133-0.517-1.133-1.162c0-0.258,0.071-0.444,0.201-0.789c0.287-0.775,0.875-2.41,0.875-3.228
		c0-0.574-0.201-1.004-0.775-1.004c-0.559,0-1.047,0.229-1.42,0.574c-0.531,0.459-0.889,1.176-0.918,1.262L209.674,32.401z"/>
</g>
<g>
	<path d="M218.633,29.855v-0.309h3.597v0.309H218.633z"/>
</g>
<g>
	<path d="M218.507,31.815c0.03-0.12,0.04-0.149,0.04-0.189c0-0.129-0.09-0.139-0.269-0.159c-0.169-0.02-0.359-0.02-0.378-0.02
		c-0.189,0-0.279,0-0.279-0.109c0-0.199,0.1-0.199,0.289-0.199h3.348c1.195,0,1.853,0.638,1.853,1.375
		c0,0.946-1.046,1.684-2.083,1.873c0.967,0.109,1.544,0.688,1.544,1.405c0,0.977-1.176,2.152-2.75,2.152h-3.557
		c-0.179,0-0.269,0-0.269-0.109c0-0.2,0.1-0.2,0.269-0.2c0.787,0,0.807-0.08,0.907-0.468L218.507,31.815z M219.583,37.634
		c1.176,0,2.062-0.966,2.062-1.953c0-0.429-0.189-1.166-1.146-1.166h-1.883l-0.688,2.78c-0.05,0.179-0.05,0.199-0.05,0.229
		c0,0.08,0.03,0.09,0.129,0.1c0.06,0.01,0.08,0.01,0.219,0.01H219.583z M220.132,34.296c1.215,0,2.072-0.946,2.072-1.823
		c0-0.438-0.209-1.026-1.086-1.026h-1.286c-0.428,0-0.448,0.03-0.538,0.379l-0.618,2.471H220.132z"/>
</g>
<g>
	<rect x="57.096" y="40.541" width="282.659" height="0.574"/>
</g>
<g>
	<path d="M62.487,53.687H58.79c0-0.239,0-0.259,0.11-0.369l1.913-2.132c0.548-0.618,1.046-1.405,1.046-2.202
		c0-0.817-0.428-1.624-1.335-1.624c-0.578,0-1.116,0.369-1.345,1.017c0.03-0.01,0.05-0.01,0.129-0.01
		c0.349,0,0.528,0.259,0.528,0.518c0,0.408-0.349,0.528-0.518,0.528c-0.03,0-0.528,0-0.528-0.559c0-0.887,0.737-1.803,1.863-1.803
		c1.216,0,2.112,0.797,2.112,1.933c0,0.996-0.598,1.534-2.152,2.909l-1.056,1.026h1.793c0.219,0,0.876,0,0.946-0.079
		c0.1-0.149,0.169-0.588,0.219-0.887h0.249L62.487,53.687z"/>
</g>
<g>
	<path d="M65.355,52.172c-0.129,0.498-0.129,0.519-0.269,0.977c-0.12,0.369-0.199,0.647-0.498,0.647
		c-0.13,0-0.289-0.079-0.289-0.269c0-0.07,0-0.09,0.08-0.239c0.418-0.907,0.957-2.112,1.275-3.318h-0.568
		c-0.199,0-0.777,0-1.266,0.768c-0.06,0.079-0.08,0.119-0.159,0.119c-0.12,0-0.12-0.09-0.12-0.1c0-0.05,0.259-0.508,0.608-0.896
		c0.438-0.469,0.817-0.469,1.036-0.469h3.338c0.189,0,0.398,0,0.398,0.239c0,0.339-0.358,0.339-0.488,0.339h-1.136
		c-0.109,0.519-0.179,1.057-0.179,1.585c0,0.278,0,0.926,0.289,1.644c0.06,0.14,0.06,0.159,0.06,0.22
		c0,0.199-0.209,0.378-0.409,0.378c-0.149,0-0.259-0.06-0.358-0.498c-0.08-0.339-0.08-0.607-0.08-0.757
		c0-0.668,0.089-1.097,0.418-2.571h-1.126L65.355,52.172z"/>
</g>
<g>
	<path d="M72.623,50.808H69.75c0-0.195,0-0.209,0.07-0.271l1.68-1.66c0.223-0.251,0.656-0.732,0.656-1.339
		c0-0.564-0.363-1.108-1.06-1.108c-0.328,0-0.802,0.153-1.018,0.648c0.363,0,0.412,0.244,0.412,0.369c0,0.251-0.203,0.37-0.37,0.37
		c-0.07,0-0.37-0.035-0.37-0.391c0-0.642,0.585-1.248,1.45-1.248c0.893,0,1.632,0.516,1.632,1.359c0,0.662-0.481,1.095-0.997,1.506
		c-0.418,0.328-0.663,0.523-1.395,1.172h1.283c0.098,0,0.635,0,0.69-0.042c0.091-0.069,0.161-0.481,0.181-0.635h0.237L72.623,50.808
		z"/>
</g>
<g>
	<rect x="58.292" y="55.461" width="15.487" height="0.574"/>
</g>
<g>
	<path d="M61.333,62.329l3.059-4.673c0.08-0.12,0.11-0.12,0.199-0.12c0.16,0,0.16,0.061,0.16,0.26v4.533h0.996v0.309h-0.996v0.867
		c0,0.358,0.02,0.469,0.757,0.469h0.209v0.309c-0.409-0.03-0.937-0.03-1.355-0.03s-0.937,0-1.345,0.03v-0.309h0.209
		c0.737,0,0.757-0.11,0.757-0.469v-0.867h-2.65V62.329z M64.043,58.612l-2.431,3.717h2.431V58.612z"/>
	<path d="M68.337,64.501c-1.116,0-1.804-0.966-1.804-1.823c0-0.458,0.349-0.527,0.488-0.527c0.329,0,0.499,0.249,0.499,0.487
		c0,0.239-0.169,0.488-0.499,0.488c-0.109,0-0.139-0.01-0.169-0.02c0.169,0.588,0.737,1.116,1.465,1.116
		c0.458,0,0.827-0.26,1.066-0.647c0.239-0.419,0.239-1.017,0.239-1.365c0-0.498-0.02-0.887-0.179-1.256
		c-0.08-0.179-0.329-0.638-0.847-0.638c-0.807,0-1.176,0.538-1.285,0.697c-0.04,0.061-0.06,0.09-0.129,0.09
		c-0.14,0-0.14-0.079-0.14-0.259v-2.949c0-0.159,0-0.239,0.1-0.239c0.02,0,0.04,0,0.12,0.03c0.468,0.209,0.927,0.278,1.325,0.278
		c0.667,0,1.156-0.199,1.355-0.289c0.05-0.029,0.07-0.029,0.08-0.029c0.069,0,0.1,0.05,0.1,0.109c0,0.13-0.698,1.036-1.923,1.036
		c-0.319,0-0.647-0.069-0.847-0.13v1.943c0.358-0.349,0.787-0.508,1.265-0.508c1.076,0,1.893,0.996,1.893,2.182
		C70.509,63.545,69.493,64.501,68.337,64.501z"/>
</g>
<g>
	<path d="M80.608,42.837h3.256v0.674h-2.582v24.455h2.582v0.674h-3.256V42.837z"/>
</g>
<g>
	<path d="M86.148,62.13h6.096c2.108,0,3.098-0.345,3.328-0.416c1.219-0.416,2.18-1.291,2.539-2.367h0.359l-1.234,3.571H85.345
		c-0.258,0-0.387,0-0.387-0.157c0-0.058,0.015-0.086,0.129-0.229l5.092-6.297l-5.235-7.2c0-0.444,0.014-0.459,0.401-0.459h11.891
		l1.234,3.356H98.11c-1.004-2.683-4.303-2.783-5.938-2.783h-5.68l4.662,6.397c0.086,0.129,0.101,0.144,0.101,0.201
		s-0.029,0.101-0.129,0.229L86.148,62.13z"/>
</g>
<g>
	<path d="M100.967,61.985c-0.229,0.607-0.289,0.747-0.289,0.996c0,0.229,0.07,0.329,0.239,0.329c0.508,0,0.837-0.608,1.016-1.235
		c0.05-0.149,0.05-0.18,0.149-0.18c0.03,0,0.12,0,0.12,0.1c0,0.09-0.369,1.534-1.305,1.534c-0.479,0-0.817-0.349-0.817-0.816
		c0-0.21,0.13-0.538,0.229-0.798c0.159-0.428,0.608-1.584,0.688-1.843c0.04-0.1,0.109-0.31,0.109-0.519
		c0-0.318-0.169-0.318-0.249-0.318c-0.339,0-0.737,0.299-1.006,1.235c-0.05,0.159-0.06,0.18-0.159,0.18c-0.02,0-0.12,0-0.12-0.1
		c0-0.09,0.378-1.535,1.315-1.535c0.499,0,0.817,0.369,0.817,0.817c0,0.189-0.05,0.329-0.13,0.528c-0.1,0.269-0.1,0.289-0.219,0.577
		L100.967,61.985z M101.585,57.721c-0.239,0-0.379-0.17-0.379-0.359c0-0.269,0.269-0.527,0.538-0.527
		c0.229,0,0.369,0.159,0.369,0.358C102.113,57.491,101.814,57.721,101.585,57.721z"/>
</g>
<g>
	<path d="M103.613,60.162c-0.15,0-0.339,0-0.339-0.199c0-0.2,0.189-0.2,0.329-0.2h5.969c0.139,0,0.329,0,0.329,0.2
		c0,0.199-0.189,0.199-0.339,0.199H103.613z M103.603,62.095c-0.14,0-0.329,0-0.329-0.199s0.189-0.199,0.339-0.199h5.948
		c0.149,0,0.339,0,0.339,0.199s-0.189,0.199-0.329,0.199H103.603z"/>
</g>
<g>
	<path d="M112.108,59.613c0.299-0.309,0.708-0.598,1.166-0.598c0.797,0,1.325,0.688,1.325,1.595c0,1.435-1.226,2.919-2.401,2.919
		c-0.737,0-1.266-0.617-1.266-1.564c0-0.349,0.04-0.508,0.16-1.006l0.817-3.248c0.05-0.21,0.14-0.549,0.14-0.618
		c0-0.1-0.02-0.169-0.499-0.169c-0.149,0-0.239,0-0.239-0.12c0-0.18,0.109-0.189,0.189-0.199c0.259-0.02,0.986-0.1,1.216-0.1
		c0.129,0,0.129,0.1,0.129,0.109L112.108,59.613z M111.689,61.298c-0.16,0.628-0.16,0.816-0.16,1.006
		c0,0.737,0.329,1.007,0.668,1.007c0.389,0,0.847-0.359,1.176-1.026c0.179-0.379,0.508-1.524,0.508-2.112
		c0-0.638-0.269-0.937-0.627-0.937c-0.259,0-0.708,0.149-1.196,0.797c-0.09,0.109-0.09,0.13-0.149,0.349L111.689,61.298z"/>
</g>
<g>
	<path d="M123.954,53.282c0.215,0,0.373,0.157,0.373,0.358c0,0.028,0,0.058-0.043,0.229l-1.592,6.426
		c-0.186,0.774-1.147,1.965-2.998,1.965c-1.219,0-1.807-0.229-1.807-0.817c0-0.474,0.373-0.76,0.717-0.76
		c0.315,0,0.487,0.229,0.487,0.459c0,0.157-0.115,0.559-0.574,0.688c0.359,0.114,0.717,0.144,1.147,0.144
		c0.316,0,0.861,0,1.449-0.589c0.517-0.502,0.603-0.86,0.803-1.649c0.072-0.301,0.072-0.33,0.315-1.291
		c-0.258,0.287-0.932,0.89-1.692,0.89c-0.918,0-1.822-0.731-1.822-2.224c0-2.137,1.779-4.102,3.342-4.102
		c0.717,0,1.119,0.53,1.305,0.946C123.409,53.569,123.61,53.282,123.954,53.282z M123.151,54.76l0.043-0.201
		c0-0.086-0.187-1.262-1.133-1.262c-0.603,0-1.248,0.573-1.664,1.377c-0.315,0.645-0.746,2.252-0.746,3.012
		c0,0.989,0.444,1.362,0.918,1.362c0.444,0,1.047-0.272,1.635-1.032c0.186-0.216,0.215-0.272,0.272-0.502L123.151,54.76z"/>
</g>
<g>
	<path d="M126.04,60.053c-0.229,0.607-0.289,0.747-0.289,0.996c0,0.229,0.07,0.329,0.239,0.329c0.508,0,0.837-0.608,1.016-1.235
		c0.05-0.149,0.05-0.18,0.149-0.18c0.03,0,0.12,0,0.12,0.1c0,0.09-0.369,1.534-1.305,1.534c-0.479,0-0.817-0.349-0.817-0.816
		c0-0.21,0.129-0.538,0.229-0.798c0.159-0.428,0.608-1.584,0.688-1.843c0.04-0.1,0.109-0.31,0.109-0.519
		c0-0.318-0.169-0.318-0.249-0.318c-0.339,0-0.737,0.299-1.006,1.235c-0.05,0.159-0.06,0.18-0.159,0.18c-0.02,0-0.12,0-0.12-0.101
		c0-0.089,0.378-1.534,1.315-1.534c0.499,0,0.817,0.369,0.817,0.817c0,0.189-0.05,0.329-0.13,0.528
		c-0.1,0.269-0.1,0.289-0.219,0.577L126.04,60.053z M126.658,55.788c-0.239,0-0.379-0.17-0.379-0.358
		c0-0.27,0.269-0.528,0.538-0.528c0.229,0,0.369,0.159,0.369,0.358C127.186,55.559,126.887,55.788,126.658,55.788z"/>
</g>
<g>
	<path d="M135.209,62.936c-0.158,0-1.333-0.933-2.18-2.654c-0.746-1.534-0.947-3.241-0.947-4.518c0-1.765,0.33-3.299,1.061-4.748
		c0.703-1.405,1.879-2.438,2.065-2.438c0.058,0,0.129,0.029,0.129,0.115c0,0.043,0,0.071-0.144,0.2
		c-1.664,1.693-2.338,4.088-2.338,6.871c0,2.926,0.803,5.293,2.238,6.741c0.244,0.244,0.244,0.272,0.244,0.315
		C135.338,62.906,135.267,62.936,135.209,62.936z"/>
</g>
<g>
	<path d="M140.199,58.23c-0.057,0.229-0.057,0.33-0.057,0.345c0,0.215,0,0.344,1.291,0.344c0.373,0,0.474,0,0.474,0.144
		c0,0.272-0.144,0.272-0.301,0.272c-0.359,0-0.746-0.028-1.104-0.028h-2.238c-0.358,0-0.731,0.028-1.09,0.028
		c-0.072,0-0.229,0-0.229-0.144c0-0.272,0.101-0.272,0.459-0.272c1.521,0,1.549-0.144,1.692-0.703l1.922-7.702
		c0.072-0.258,0.072-0.287,0.072-0.33c0-0.157-0.143-0.157-0.487-0.157h-0.961c-1.907,0-2.208,0.803-2.811,2.538
		c-0.057,0.187-0.086,0.244-0.201,0.244c-0.086,0-0.144-0.071-0.144-0.144c0-0.014,0.043-0.172,0.058-0.2l0.875-2.582
		c0.086-0.258,0.101-0.272,0.431-0.272h7.846c0.287,0,0.373,0,0.373,0.157c0,0.043,0,0.072-0.028,0.201l-0.416,2.539
		c-0.043,0.229-0.043,0.301-0.187,0.301c-0.086,0-0.144-0.086-0.144-0.144l0.015-0.172c0.086-0.53,0.143-1.075,0.143-1.291
		c0-1.118-0.674-1.176-2.108-1.176c-0.301,0-0.774,0-0.889,0.028c-0.215,0.058-0.244,0.187-0.33,0.531L140.199,58.23z"/>
</g>
<g>
	<path d="M146.057,60.053c-0.229,0.607-0.289,0.747-0.289,0.996c0,0.229,0.07,0.329,0.239,0.329c0.508,0,0.837-0.608,1.016-1.235
		c0.05-0.149,0.05-0.18,0.149-0.18c0.03,0,0.12,0,0.12,0.1c0,0.09-0.369,1.534-1.305,1.534c-0.479,0-0.817-0.349-0.817-0.816
		c0-0.21,0.13-0.538,0.229-0.798c0.159-0.428,0.608-1.584,0.688-1.843c0.04-0.1,0.109-0.31,0.109-0.519
		c0-0.318-0.169-0.318-0.249-0.318c-0.339,0-0.737,0.299-1.006,1.235c-0.05,0.159-0.06,0.18-0.159,0.18c-0.02,0-0.12,0-0.12-0.101
		c0-0.089,0.378-1.534,1.315-1.534c0.499,0,0.817,0.369,0.817,0.817c0,0.189-0.05,0.329-0.13,0.528
		c-0.1,0.269-0.1,0.289-0.219,0.577L146.057,60.053z M146.675,55.788c-0.239,0-0.379-0.17-0.379-0.358
		c0-0.27,0.269-0.528,0.538-0.528c0.229,0,0.369,0.159,0.369,0.358C147.203,55.559,146.904,55.788,146.675,55.788z"/>
</g>
<g>
	<path d="M149.651,62.605c-0.1,0.301-0.229,0.315-0.315,0.315c-0.115,0-0.258-0.101-0.258-0.272c0-0.029,0.086-0.244,0.086-0.259
		l4.805-13.497c0.115-0.315,0.244-0.315,0.315-0.315c0.115,0,0.258,0.101,0.258,0.272c0,0.029-0.086,0.244-0.086,0.259
		L149.651,62.605z"/>
	<path d="M159.386,58.23c-0.057,0.229-0.057,0.33-0.057,0.345c0,0.215,0,0.344,1.291,0.344c0.373,0,0.474,0,0.474,0.144
		c0,0.272-0.144,0.272-0.301,0.272c-0.359,0-0.746-0.028-1.104-0.028h-2.238c-0.358,0-0.731,0.028-1.09,0.028
		c-0.072,0-0.229,0-0.229-0.144c0-0.272,0.101-0.272,0.459-0.272c1.521,0,1.549-0.144,1.692-0.703l1.922-7.702
		c0.072-0.258,0.072-0.287,0.072-0.33c0-0.157-0.143-0.157-0.487-0.157h-0.961c-1.907,0-2.208,0.803-2.811,2.538
		c-0.057,0.187-0.086,0.244-0.201,0.244c-0.086,0-0.144-0.071-0.144-0.144c0-0.014,0.043-0.172,0.058-0.2l0.875-2.582
		c0.086-0.258,0.101-0.272,0.431-0.272h7.846c0.287,0,0.373,0,0.373,0.157c0,0.043,0,0.072-0.028,0.201l-0.416,2.539
		c-0.043,0.229-0.043,0.301-0.187,0.301c-0.086,0-0.144-0.086-0.144-0.144l0.015-0.172c0.086-0.53,0.143-1.075,0.143-1.291
		c0-1.118-0.674-1.176-2.108-1.176c-0.301,0-0.774,0-0.889,0.028c-0.215,0.058-0.244,0.187-0.33,0.531L159.386,58.23z"/>
</g>
<g>
	<path d="M168.494,60.497c-0.703,1.405-1.879,2.438-2.065,2.438c-0.058,0-0.129-0.029-0.129-0.115c0-0.043,0-0.071,0.143-0.201
		c1.664-1.692,2.338-4.088,2.338-6.87c0-2.926-0.804-5.293-2.238-6.741c-0.244-0.244-0.244-0.272-0.244-0.315
		c0-0.086,0.071-0.115,0.129-0.115c0.158,0,1.334,0.933,2.18,2.654c0.803,1.663,0.947,3.442,0.947,4.532
		C169.556,57.484,169.226,59.034,168.494,60.497z"/>
</g>
<g>
	<path d="M175.528,50.718c0,1.017-0.907,1.923-2.123,1.923c-1.086,0-2.013-0.657-2.013-1.563c0-0.438,0.319-0.578,0.558-0.578
		c0.289,0,0.558,0.199,0.558,0.558c0,0.379-0.309,0.598-0.658,0.548c0.349,0.588,1.096,0.758,1.524,0.758
		c0.438,0,1.126-0.289,1.126-1.645c0-0.977-0.369-1.653-1.186-1.653h-0.438c-0.169,0-0.239,0-0.239-0.11
		c0-0.1,0.07-0.109,0.149-0.119c0.07,0,0.309-0.021,0.389-0.03c0.249-0.01,0.588-0.04,0.887-0.518
		c0.259-0.438,0.279-1.017,0.279-1.136c0-0.897-0.548-1.116-0.957-1.116c-0.358,0-1.016,0.129-1.325,0.617
		c0.149,0,0.618,0,0.618,0.499c0,0.288-0.199,0.508-0.508,0.508c-0.289,0-0.508-0.189-0.508-0.519c0-0.757,0.757-1.354,1.764-1.354
		c0.957,0,1.833,0.558,1.833,1.375c0,0.787-0.578,1.484-1.395,1.753C174.9,49.124,175.528,49.901,175.528,50.718z"/>
</g>
<g>
	<path d="M185.364,59.98c0,0.215,0,0.459-0.272,0.459c-0.258,0-0.258-0.258-0.258-0.459v-3.959h-3.959c-0.215,0-0.459,0-0.459-0.272
		c0-0.258,0.258-0.258,0.459-0.258h3.959v-3.959c0-0.215,0-0.459,0.272-0.459c0.258,0,0.258,0.258,0.258,0.459v3.959h3.958
		c0.215,0,0.459,0,0.459,0.272c0,0.258-0.258,0.258-0.459,0.258h-3.958V59.98z"/>
	<path d="M198.485,53.411c-0.674,0.961-1.019,2.625-1.019,4.762v0.718c0,0.187,0,0.745-0.603,0.745
		c-0.588,0-0.588-0.573-0.588-0.731c0-2.696,1.449-5.049,1.836-5.607l1.521-2.181h-3.041c-0.201,0-1.276,0-1.391,0.086
		c-0.187,0.158-0.315,1.047-0.358,1.306h-0.316l0.445-2.869h0.315c0.058,0.272,0.086,0.459,1.822,0.459h3.457v0.33L198.485,53.411z"
		/>
</g>
<g>
	<path d="M202.126,62.605c-0.1,0.301-0.229,0.315-0.315,0.315c-0.115,0-0.258-0.101-0.258-0.272c0-0.029,0.086-0.244,0.086-0.259
		l4.805-13.497c0.115-0.315,0.244-0.315,0.315-0.315c0.115,0,0.258,0.101,0.258,0.272c0,0.029-0.086,0.244-0.086,0.259
		L202.126,62.605z"/>
</g>
<g>
	<path d="M214.228,56.954c0,1.506-1.334,2.682-2.926,2.682c-1.463,0-2.912-0.946-2.912-2.467c0-1.047,0.717-2.008,2.108-2.653
		c-1.004-0.703-1.018-0.717-1.176-0.903c-0.402-0.488-0.545-0.976-0.545-1.463c0-1.306,1.119-2.353,2.539-2.353
		c1.319,0,2.524,0.86,2.524,2.108c0,1.205-1.047,1.864-1.764,2.252C213.195,54.846,214.228,55.491,214.228,56.954z M209.05,57.169
		c0,1.19,1.047,2.08,2.266,2.08c1.147,0,2.252-0.746,2.252-1.836c0-0.875-0.66-1.319-1.033-1.563
		c-0.387-0.258-1.349-0.875-1.736-1.133C209.867,55.146,209.05,56.051,209.05,57.169z M211.789,53.956
		c0.832-0.459,1.463-1.161,1.463-2.036c0-1.033-0.918-1.779-1.95-1.779c-0.961,0-1.937,0.588-1.937,1.521
		c0,0.703,0.574,1.076,0.76,1.205L211.789,53.956z"/>
</g>
<g>
	<path d="M219.225,62.13h6.096c2.108,0,3.098-0.345,3.328-0.416c1.219-0.416,2.18-1.291,2.539-2.367h0.359l-1.234,3.571h-11.89
		c-0.258,0-0.388,0-0.388-0.157c0-0.058,0.015-0.086,0.129-0.229l5.092-6.297l-5.235-7.2c0-0.444,0.014-0.459,0.402-0.459h11.89
		l1.234,3.356h-0.359c-1.004-2.683-4.303-2.783-5.938-2.783h-5.68l4.661,6.397c0.086,0.129,0.101,0.144,0.101,0.201
		s-0.029,0.101-0.129,0.229L219.225,62.13z"/>
</g>
<g>
	<path d="M235.25,60.201c0.04-0.169,0.07-0.278,0.07-0.508c0-0.418-0.18-0.458-0.319-0.458c-0.548,0-1.006,0.607-1.256,1.215
		c-0.08,0.189-0.089,0.2-0.179,0.2c-0.02,0-0.12,0-0.12-0.1c0-0.09,0.568-1.535,1.584-1.535c0.498,0,0.917,0.349,0.917,0.917
		c0,0.03,0,0.169-0.05,0.368l-0.917,3.647c-0.249,0.986-1.176,1.515-1.874,1.515c-0.478,0-0.876-0.22-0.876-0.618
		c0-0.358,0.289-0.568,0.538-0.568c0.269,0,0.378,0.189,0.378,0.35c0,0.199-0.149,0.458-0.448,0.527
		c0.179,0.09,0.329,0.09,0.389,0.09c0.558,0,1.036-0.567,1.226-1.325L235.25,60.201z M235.777,57.721
		c-0.229,0-0.369-0.159-0.369-0.359c0-0.299,0.299-0.527,0.528-0.527c0.239,0,0.378,0.169,0.378,0.358
		C236.315,57.462,236.046,57.721,235.777,57.721z"/>
</g>
<g>
	<path d="M237.93,60.162c-0.15,0-0.339,0-0.339-0.199c0-0.2,0.189-0.2,0.329-0.2h5.969c0.139,0,0.329,0,0.329,0.2
		c0,0.199-0.189,0.199-0.339,0.199H237.93z M237.92,62.095c-0.14,0-0.329,0-0.329-0.199s0.189-0.199,0.339-0.199h5.948
		c0.149,0,0.339,0,0.339,0.199s-0.189,0.199-0.329,0.199H237.92z"/>
</g>
<g>
	<path d="M247.841,62.593c-0.01,0.07-0.239,1.275-0.558,1.903c-0.179,0.379-0.578,0.967-1.126,0.967
		c-0.409,0-0.847-0.239-0.847-0.688c0-0.379,0.289-0.599,0.548-0.599c0.189,0,0.369,0.12,0.369,0.35c0,0.149-0.09,0.508-0.548,0.538
		c0.189,0.179,0.438,0.179,0.478,0.179c0.518,0,0.688-0.906,0.867-1.873l0.748-3.936h-0.658c-0.189,0-0.279,0-0.279-0.12
		c0-0.189,0.109-0.189,0.299-0.189h0.688c0.239-1.255,0.269-1.354,0.329-1.563c0.299-0.987,0.927-1.166,1.266-1.166
		c0.409,0,0.867,0.229,0.867,0.688c0,0.379-0.289,0.598-0.548,0.598c-0.189,0-0.369-0.119-0.369-0.349
		c0-0.149,0.1-0.498,0.538-0.538c-0.189-0.18-0.448-0.18-0.488-0.18c-0.209,0-0.379,0.149-0.468,0.339
		c-0.06,0.12-0.199,0.827-0.239,1.036c-0.109,0.578-0.1,0.559-0.209,1.136h0.827c0.169,0,0.269,0,0.269,0.11
		c0,0.199-0.1,0.199-0.299,0.199h-0.857L247.841,62.593z"/>
</g>
<g>
	<path d="M259.946,53.282c0.215,0,0.373,0.157,0.373,0.358c0,0.028,0,0.058-0.043,0.229l-1.592,6.426
		c-0.186,0.774-1.147,1.965-2.998,1.965c-1.219,0-1.807-0.229-1.807-0.817c0-0.474,0.373-0.76,0.717-0.76
		c0.315,0,0.487,0.229,0.487,0.459c0,0.157-0.115,0.559-0.574,0.688c0.359,0.114,0.717,0.144,1.147,0.144
		c0.316,0,0.861,0,1.449-0.589c0.517-0.502,0.603-0.86,0.803-1.649c0.072-0.301,0.072-0.33,0.315-1.291
		c-0.258,0.287-0.932,0.89-1.692,0.89c-0.918,0-1.822-0.731-1.822-2.224c0-2.137,1.779-4.102,3.342-4.102
		c0.717,0,1.119,0.53,1.305,0.946C259.401,53.569,259.602,53.282,259.946,53.282z M259.143,54.76l0.043-0.201
		c0-0.086-0.187-1.262-1.133-1.262c-0.603,0-1.248,0.573-1.664,1.377c-0.315,0.645-0.746,2.252-0.746,3.012
		c0,0.989,0.444,1.362,0.918,1.362c0.444,0,1.047-0.272,1.635-1.032c0.186-0.216,0.215-0.272,0.272-0.502L259.143,54.76z"/>
</g>
<g>
	<path d="M263.237,58.269c0.04-0.169,0.07-0.278,0.07-0.508c0-0.419-0.18-0.458-0.319-0.458c-0.548,0-1.006,0.607-1.256,1.215
		c-0.08,0.189-0.089,0.2-0.179,0.2c-0.02,0-0.12,0-0.12-0.101c0-0.089,0.568-1.534,1.584-1.534c0.498,0,0.917,0.349,0.917,0.917
		c0,0.03,0,0.169-0.05,0.368l-0.917,3.647c-0.249,0.986-1.176,1.515-1.874,1.515c-0.478,0-0.876-0.22-0.876-0.618
		c0-0.358,0.289-0.568,0.538-0.568c0.269,0,0.378,0.189,0.378,0.35c0,0.199-0.149,0.458-0.448,0.527
		c0.179,0.09,0.329,0.09,0.389,0.09c0.558,0,1.036-0.567,1.226-1.325L263.237,58.269z M263.765,55.788
		c-0.229,0-0.369-0.159-0.369-0.358c0-0.3,0.299-0.528,0.528-0.528c0.239,0,0.378,0.169,0.378,0.358
		C264.303,55.529,264.034,55.788,263.765,55.788z"/>
</g>
<g>
	<path d="M272.441,62.936c-0.158,0-1.333-0.933-2.18-2.654c-0.746-1.534-0.947-3.241-0.947-4.518c0-1.765,0.33-3.299,1.061-4.748
		c0.703-1.405,1.879-2.438,2.065-2.438c0.058,0,0.129,0.029,0.129,0.115c0,0.043,0,0.071-0.144,0.2
		c-1.664,1.693-2.338,4.088-2.338,6.871c0,2.926,0.803,5.293,2.238,6.741c0.244,0.244,0.244,0.272,0.244,0.315
		C272.571,62.906,272.499,62.936,272.441,62.936z"/>
</g>
<g>
	<path d="M277.431,58.23c-0.057,0.229-0.057,0.33-0.057,0.345c0,0.215,0,0.344,1.291,0.344c0.373,0,0.474,0,0.474,0.144
		c0,0.272-0.144,0.272-0.301,0.272c-0.358,0-0.746-0.028-1.104-0.028h-2.237c-0.359,0-0.732,0.028-1.09,0.028
		c-0.072,0-0.229,0-0.229-0.144c0-0.272,0.101-0.272,0.459-0.272c1.521,0,1.549-0.144,1.692-0.703l1.922-7.702
		c0.071-0.258,0.071-0.287,0.071-0.33c0-0.157-0.143-0.157-0.487-0.157h-0.961c-1.908,0-2.209,0.803-2.812,2.538
		c-0.058,0.187-0.086,0.244-0.201,0.244c-0.086,0-0.144-0.071-0.144-0.144c0-0.014,0.043-0.172,0.057-0.2l0.875-2.582
		c0.086-0.258,0.101-0.272,0.431-0.272h7.846c0.287,0,0.373,0,0.373,0.157c0,0.043,0,0.072-0.029,0.201l-0.416,2.539
		c-0.043,0.229-0.043,0.301-0.187,0.301c-0.086,0-0.144-0.086-0.144-0.144l0.015-0.172c0.086-0.53,0.143-1.075,0.143-1.291
		c0-1.118-0.674-1.176-2.108-1.176c-0.301,0-0.774,0-0.889,0.028c-0.215,0.058-0.244,0.187-0.33,0.531L277.431,58.23z"/>
</g>
<g>
	<path d="M284.494,58.269c0.04-0.169,0.07-0.278,0.07-0.508c0-0.419-0.18-0.458-0.319-0.458c-0.548,0-1.006,0.607-1.255,1.215
		c-0.08,0.189-0.089,0.2-0.179,0.2c-0.02,0-0.12,0-0.12-0.101c0-0.089,0.568-1.534,1.584-1.534c0.498,0,0.917,0.349,0.917,0.917
		c0,0.03,0,0.169-0.05,0.368l-0.917,3.647c-0.249,0.986-1.176,1.515-1.874,1.515c-0.478,0-0.876-0.22-0.876-0.618
		c0-0.358,0.289-0.568,0.538-0.568c0.269,0,0.378,0.189,0.378,0.35c0,0.199-0.149,0.458-0.448,0.527
		c0.179,0.09,0.329,0.09,0.389,0.09c0.558,0,1.036-0.567,1.225-1.325L284.494,58.269z M285.022,55.788
		c-0.229,0-0.368-0.159-0.368-0.358c0-0.3,0.299-0.528,0.527-0.528c0.239,0,0.379,0.169,0.379,0.358
		C285.561,55.529,285.292,55.788,285.022,55.788z"/>
</g>
<g>
	<path d="M288.125,62.605c-0.101,0.301-0.229,0.315-0.316,0.315c-0.114,0-0.258-0.101-0.258-0.272c0-0.029,0.086-0.244,0.086-0.259
		l4.806-13.497c0.114-0.315,0.243-0.315,0.315-0.315c0.114,0,0.258,0.101,0.258,0.272c0,0.029-0.086,0.244-0.086,0.259
		L288.125,62.605z"/>
	<path d="M297.859,58.23c-0.058,0.229-0.058,0.33-0.058,0.345c0,0.215,0,0.344,1.291,0.344c0.373,0,0.473,0,0.473,0.144
		c0,0.272-0.144,0.272-0.301,0.272c-0.358,0-0.746-0.028-1.104-0.028h-2.237c-0.358,0-0.731,0.028-1.091,0.028
		c-0.071,0-0.229,0-0.229-0.144c0-0.272,0.1-0.272,0.459-0.272c1.52,0,1.549-0.144,1.692-0.703l1.922-7.702
		c0.071-0.258,0.071-0.287,0.071-0.33c0-0.157-0.144-0.157-0.487-0.157H297.3c-1.908,0-2.209,0.803-2.812,2.538
		c-0.058,0.187-0.086,0.244-0.201,0.244c-0.086,0-0.143-0.071-0.143-0.144c0-0.014,0.043-0.172,0.057-0.2l0.875-2.582
		c0.086-0.258,0.101-0.272,0.431-0.272h7.846c0.287,0,0.373,0,0.373,0.157c0,0.043,0,0.072-0.029,0.201l-0.416,2.539
		c-0.043,0.229-0.043,0.301-0.187,0.301c-0.086,0-0.143-0.086-0.143-0.144l0.014-0.172c0.086-0.53,0.144-1.075,0.144-1.291
		c0-1.118-0.674-1.176-2.108-1.176c-0.301,0-0.774,0-0.889,0.028c-0.216,0.058-0.244,0.187-0.33,0.531L297.859,58.23z"/>
</g>
<g>
	<path d="M306.968,60.497c-0.703,1.405-1.879,2.438-2.065,2.438c-0.058,0-0.129-0.029-0.129-0.115c0-0.043,0-0.071,0.144-0.201
		c1.663-1.692,2.338-4.088,2.338-6.87c0-2.926-0.804-5.293-2.237-6.741c-0.244-0.244-0.244-0.272-0.244-0.315
		c0-0.086,0.071-0.115,0.129-0.115c0.158,0,1.334,0.933,2.18,2.654c0.804,1.663,0.947,3.442,0.947,4.532
		C308.029,57.484,307.699,59.034,306.968,60.497z"/>
</g>
<g>
	<path d="M314.001,50.718c0,1.017-0.907,1.923-2.122,1.923c-1.087,0-2.013-0.657-2.013-1.563c0-0.438,0.318-0.578,0.558-0.578
		c0.289,0,0.558,0.199,0.558,0.558c0,0.379-0.309,0.598-0.657,0.548c0.349,0.588,1.096,0.758,1.524,0.758
		c0.438,0,1.126-0.289,1.126-1.645c0-0.977-0.369-1.653-1.186-1.653h-0.438c-0.17,0-0.239,0-0.239-0.11
		c0-0.1,0.069-0.109,0.149-0.119c0.069,0,0.309-0.021,0.389-0.03c0.249-0.01,0.588-0.04,0.887-0.518
		c0.259-0.438,0.279-1.017,0.279-1.136c0-0.897-0.549-1.116-0.957-1.116c-0.358,0-1.017,0.129-1.325,0.617
		c0.149,0,0.618,0,0.618,0.499c0,0.288-0.199,0.508-0.509,0.508c-0.289,0-0.508-0.189-0.508-0.519c0-0.757,0.757-1.354,1.764-1.354
		c0.956,0,1.833,0.558,1.833,1.375c0,0.787-0.577,1.484-1.395,1.753C313.373,49.124,314.001,49.901,314.001,50.718z"/>
</g>
<g>
	<path d="M317.766,43.512h-2.582v-0.674h3.256v25.803h-3.256v-0.674h2.582V43.512z"/>
</g>
<g>
	<path d="M328.151,58.23c-0.058,0.229-0.058,0.33-0.058,0.345c0,0.215,0,0.344,1.291,0.344c0.373,0,0.473,0,0.473,0.144
		c0,0.272-0.143,0.272-0.301,0.272c-0.358,0-0.746-0.028-1.104-0.028h-2.237c-0.358,0-0.731,0.028-1.09,0.028
		c-0.072,0-0.23,0-0.23-0.144c0-0.272,0.101-0.272,0.459-0.272c1.521,0,1.55-0.144,1.693-0.703l1.922-7.702
		c0.071-0.258,0.071-0.287,0.071-0.33c0-0.157-0.144-0.157-0.487-0.157h-0.961c-1.908,0-2.209,0.803-2.812,2.538
		c-0.058,0.187-0.086,0.244-0.201,0.244c-0.086,0-0.144-0.071-0.144-0.144c0-0.014,0.044-0.172,0.058-0.2l0.875-2.582
		c0.086-0.258,0.101-0.272,0.431-0.272h7.846c0.287,0,0.373,0,0.373,0.157c0,0.043,0,0.072-0.029,0.201l-0.416,2.539
		c-0.043,0.229-0.043,0.301-0.186,0.301c-0.087,0-0.144-0.086-0.144-0.144l0.014-0.172c0.086-0.53,0.144-1.075,0.144-1.291
		c0-1.118-0.674-1.176-2.108-1.176c-0.301,0-0.774,0-0.89,0.028c-0.215,0.058-0.243,0.187-0.329,0.531L328.151,58.23z"/>
</g>
<g>
	<path d="M338.83,53.487c0,1.017-0.907,1.923-2.122,1.923c-1.087,0-2.013-0.657-2.013-1.563c0-0.438,0.318-0.578,0.558-0.578
		c0.289,0,0.558,0.199,0.558,0.558c0,0.379-0.309,0.598-0.657,0.548c0.349,0.588,1.096,0.758,1.524,0.758
		c0.438,0,1.126-0.289,1.126-1.645c0-0.977-0.369-1.653-1.186-1.653h-0.438c-0.17,0-0.239,0-0.239-0.11
		c0-0.1,0.069-0.109,0.149-0.119c0.069,0,0.309-0.021,0.389-0.03c0.249-0.01,0.588-0.04,0.887-0.518
		c0.259-0.438,0.279-1.017,0.279-1.136c0-0.897-0.549-1.116-0.957-1.116c-0.358,0-1.017,0.129-1.325,0.617
		c0.149,0,0.618,0,0.618,0.499c0,0.288-0.199,0.508-0.509,0.508c-0.289,0-0.508-0.189-0.508-0.519c0-0.757,0.757-1.354,1.764-1.354
		c0.956,0,1.833,0.558,1.833,1.375c0,0.787-0.577,1.484-1.395,1.753C338.202,51.894,338.83,52.671,338.83,53.487z"/>
</g>
</svg>
