<?xml version="1.0" encoding="iso-8859-1"?>
<!-- Generator: Adobe Illustrator 16.0.0, SVG Export Plug-In . SVG Version: 6.00 Build 0)  -->
<!DOCTYPE svg PUBLIC "-//W3C//DTD SVG 1.1//EN" "http://www.w3.org/Graphics/SVG/1.1/DTD/svg11.dtd">
<svg version="1.1" id="Layer_1" xmlns="http://www.w3.org/2000/svg" xmlns:xlink="http://www.w3.org/1999/xlink" x="0px" y="0px"
	 width="566.929px" height="85.039px" viewBox="0 0 566.929 85.039" style="enable-background:new 0 0 566.929 85.039;"
	 xml:space="preserve">
<g>
	<path d="M31.548,49.76c0.889-1.176,1.262-2.295,1.449-2.926c0.057-0.258,0.071-0.301,0.201-0.301c0.043,0,0.158,0,0.158,0.129
		c0,0.015-0.344,1.821-1.807,3.571c0,0.875,0,1.793,0.444,1.793c0.344,0,0.674-0.315,0.803-0.674
		c0.043-0.115,0.058-0.158,0.172-0.158c0.043,0,0.143,0,0.143,0.129c0,0.187-0.387,0.99-1.162,0.99
		c-0.617,0-1.062-0.401-1.262-1.205c-1.019,0.86-2.08,1.205-2.969,1.205c-1.463,0-2.238-1.133-2.238-2.381
		c0-2.037,1.879-4.088,3.758-4.088c1.521,0,2.31,1.305,2.31,2.696V49.76z M30.616,50.248c0-0.358,0.015-0.731,0.015-1.09
		c0-1.205,0-3.026-1.392-3.026c-0.646,0-1.449,0.444-2.037,1.448c-0.445,0.789-0.76,2.252-0.76,2.869
		c0,0.674,0.287,1.577,1.305,1.577c0.502,0,1.635-0.129,2.897-1.262C30.63,50.606,30.616,50.535,30.616,50.248z"/>
</g>
<g>
	<path d="M39.151,47.522c-0.215,0-0.459,0-0.459-0.272c0-0.258,0.258-0.258,0.459-0.258H47.6c0.215,0,0.459,0,0.459,0.272
		c0,0.258-0.258,0.258-0.459,0.258H39.151z M39.151,50.19c-0.215,0-0.459,0-0.459-0.272c0-0.258,0.258-0.258,0.459-0.258H47.6
		c0.215,0,0.459,0,0.459,0.272c0,0.258-0.258,0.258-0.459,0.258H39.151z"/>
</g>
<g>
	<path d="M68.423,41.36c0,0.517,0.043,0.688,1.305,0.688h0.445v0.416c-0.387-0.029-1.764-0.029-2.238-0.029
		c-0.473,0-1.865,0-2.252,0.029v-0.416h0.445c1.262,0,1.305-0.172,1.305-0.688v-7.473c-0.789,0.373-1.506,0.373-1.836,0.373v-0.416
		c1.478,0,2.195-0.531,2.539-0.918c0.287,0,0.287,0.014,0.287,0.344V41.36z"/>
</g>
<g>
	<rect x="54.024" y="48.297" width="27.56" height="0.574"/>
</g>
<g>
	<path d="M59.202,59.199h1.449v0.416h-1.449v1.306c0,0.53,0.043,0.674,1.076,0.674h0.287v0.416c-0.33-0.028-1.478-0.028-1.879-0.028
		c-0.402,0-1.535,0-1.865,0.028v-0.416h0.287c1.047,0,1.076-0.144,1.076-0.674v-1.306h-3.772v-0.416l4.317-6.698
		c0.115-0.172,0.158-0.172,0.272-0.172c0.201,0,0.201,0.071,0.201,0.344V59.199z M54.77,59.199h3.486v-5.407L54.77,59.199z"/>
</g>
<g>
	<path d="M63.93,59.845c-0.143,0.574-0.143,0.603-0.373,1.334c-0.172,0.603-0.287,0.976-0.703,0.976
		c-0.129,0-0.387-0.072-0.387-0.373c0-0.086,0-0.115,0.115-0.344c1.176-2.511,1.535-3.759,1.85-4.834h-0.817
		c-0.358,0-1.104,0-1.85,1.176c-0.072,0.086-0.086,0.129-0.187,0.129c-0.086,0-0.158-0.028-0.158-0.114s0.459-0.847,0.832-1.263
		c0.66-0.702,1.147-0.702,1.477-0.702h4.719c0.258,0,0.53,0,0.53,0.315c0,0.459-0.473,0.459-0.66,0.459h-1.606
		c-0.301,1.291-0.301,2.309-0.301,2.396c0,0.1,0,1.334,0.387,2.323c0.101,0.215,0.101,0.244,0.101,0.315
		c0,0.244-0.258,0.517-0.56,0.517c-0.588,0-0.588-1.549-0.588-1.75c0-1.147,0.244-2.194,0.631-3.801h-1.621L63.93,59.845z"/>
	<path d="M70.234,60.447c0,1.019,1.176,1.248,2.065,1.248c1.707,0,2.08-0.574,2.238-0.847c0.057-0.086,0.086-0.129,0.158-0.129
		s0.129,0.058,0.129,0.129c0,0.201-0.76,1.463-2.653,1.463c-1.377,0-2.266-0.788-2.266-1.778c0-0.703,0.487-1.478,1.319-1.95
		c-0.244-0.173-0.588-0.502-0.588-1.033c0-1.062,1.521-2.022,3.127-2.022c0.989,0,1.821,0.545,1.821,0.804
		c0,0.172-0.187,0.358-0.358,0.358c-0.101,0-0.144-0.043-0.229-0.101c-0.603-0.444-1.119-0.444-1.363-0.444
		c-1.276,0-2.682,0.517-2.682,1.405c0,0.315,0.172,0.646,0.617,0.86c0.502-0.215,0.933-0.258,1.291-0.258
		c0.731,0,1.004,0.101,1.004,0.358c0,0.416-0.746,0.416-1.119,0.416c-0.272,0-0.76,0-1.219-0.187
		C70.593,59.229,70.234,59.96,70.234,60.447z M72.744,58.64c0.517,0,0.545,0,0.789-0.114c-0.229-0.058-0.301-0.086-0.703-0.086
		c-0.1,0-0.473,0-0.86,0.129C72.256,58.64,72.486,58.64,72.744,58.64z"/>
</g>
<g>
	<path d="M80.319,63.227c-0.438,0.946-1.196,1.155-1.734,1.155c-0.488,0-1.215-0.199-1.644-1.006
		c-0.409-0.757-0.448-1.654-0.448-2.401c0-0.797,0.05-1.574,0.369-2.262c0.409-0.927,1.136-1.186,1.734-1.186
		c0.418,0,1.235,0.159,1.694,1.115c0.349,0.738,0.398,1.535,0.398,2.332C80.688,61.762,80.638,62.539,80.319,63.227z M79.751,62.918
		c0.109-0.638,0.109-1.315,0.109-2.062c0-0.628,0-1.386-0.1-1.943c-0.189-0.986-0.847-1.166-1.176-1.166
		c-0.249,0-0.996,0.09-1.186,1.275c-0.08,0.538-0.08,1.196-0.08,1.834c0,0.588,0,1.504,0.109,2.102
		c0.179,0.957,0.767,1.206,1.156,1.206C79.033,64.163,79.602,63.864,79.751,62.918z"/>
</g>
<g>
	<path d="M86.778,39.137c-0.215,0.918-0.215,1.276-0.215,1.478c0,1.061,0.43,1.707,1.248,1.707c0.545,0,1.908-0.215,2.826-1.434
		c0.129-0.129,0.144-0.144,0.187-0.144c0.058,0,0.144,0.072,0.144,0.158c0,0.187-1.233,1.707-3.185,1.707
		c-1.305,0-2.166-1.047-2.166-2.553c0-2.553,2.166-3.916,3.672-3.916c0.947,0,1.492,0.574,1.492,1.205
		c0,0.258-0.101,1.09-1.19,1.506c-0.688,0.258-1.664,0.287-2.051,0.287H86.778z M87.453,38.851c0.603,0,2.897,0,2.897-1.506
		c0-0.545-0.431-0.918-1.062-0.918c-0.459,0-1.822,0.215-2.438,2.424H87.453z"/>
</g>
<g>
	<path d="M95.676,37.259h-3.697c0-0.239,0-0.259,0.11-0.369l1.913-2.132c0.548-0.618,1.046-1.405,1.046-2.202
		c0-0.817-0.428-1.624-1.335-1.624c-0.578,0-1.116,0.369-1.345,1.016c0.03-0.01,0.05-0.01,0.129-0.01
		c0.349,0,0.528,0.259,0.528,0.518c0,0.409-0.349,0.528-0.518,0.528c-0.03,0-0.528,0-0.528-0.558c0-0.887,0.737-1.804,1.863-1.804
		c1.216,0,2.112,0.797,2.112,1.933c0,0.997-0.598,1.535-2.152,2.91l-1.056,1.026h1.793c0.219,0,0.876,0,0.946-0.08
		c0.1-0.149,0.169-0.588,0.219-0.887h0.249L95.676,37.259z"/>
</g>
<g>
	<rect x="83.975" y="48.297" width="13.982" height="0.574"/>
</g>
<g>
	<path d="M84.95,54.021v-0.416h5.063v0.416H84.95z"/>
</g>
<g>
	<path d="M86.751,56.818c0.588-0.746,1.306-1.133,2.123-1.133c1.09,0,1.592,0.646,1.592,1.506c0,0.832-0.646,2.524-0.904,3.213
		c-0.058,0.158-0.229,0.617-0.229,0.989c0,0.459,0.229,0.474,0.373,0.474c0.574,0,1.104-0.603,1.434-1.75
		c0.072-0.243,0.086-0.287,0.215-0.287c0.086,0,0.144,0.058,0.144,0.13c0,0.086-0.502,2.194-1.836,2.194
		c-0.688,0-1.133-0.517-1.133-1.162c0-0.258,0.072-0.444,0.201-0.789c0.315-0.86,0.875-2.424,0.875-3.227
		c0-0.574-0.201-1.004-0.774-1.004c-1.104,0-1.75,0.86-2.022,1.276s-0.272,0.43-0.43,1.032c-0.072,0.315-0.158,0.617-0.229,0.933
		l-0.646,2.596c-0.072,0.158-0.258,0.345-0.502,0.345c-0.144,0-0.387-0.058-0.387-0.373c0-0.086,0-0.115,0.057-0.33l2.08-8.305
		c0.015-0.043,0.043-0.157,0.043-0.244c0-0.143-0.015-0.272-0.717-0.272c-0.201,0-0.315,0-0.315-0.144
		c0-0.258,0.1-0.272,0.459-0.301c0.258-0.015,0.473-0.043,0.717-0.058c0.072-0.014,0.775-0.071,0.789-0.071
		c0.029,0,0.172,0,0.172,0.144c0,0.071-0.028,0.157-0.043,0.215L86.751,56.818z"/>
	<path d="M96.257,55.973c-0.904,0-1.678,0.774-2.051,1.448c-0.517,0.976-0.76,2.366-0.76,2.868c0,0.718,0.315,1.578,1.305,1.578
		c0.545,0,1.908-0.215,2.826-1.435c0.129-0.129,0.144-0.144,0.187-0.144c0.057,0,0.144,0.072,0.144,0.158
		c0,0.187-1.234,1.707-3.184,1.707c-1.463,0-2.238-1.133-2.238-2.381c0-2.037,1.879-4.088,3.758-4.088
		c0.99,0,1.649,0.53,1.649,1.219c0,0.574-0.387,0.861-0.731,0.861c-0.272,0-0.488-0.173-0.488-0.459c0-0.23,0.158-0.445,0.244-0.517
		c0.201-0.173,0.33-0.173,0.603-0.173C97.232,56.001,96.443,55.973,96.257,55.973z"/>
</g>
</svg>
