<?xml version="1.0" encoding="iso-8859-1"?>
<!-- Generator: Adobe Illustrator 16.0.0, SVG Export Plug-In . SVG Version: 6.00 Build 0)  -->
<!DOCTYPE svg PUBLIC "-//W3C//DTD SVG 1.1//EN" "http://www.w3.org/Graphics/SVG/1.1/DTD/svg11.dtd">
<svg version="1.1" id="Layer_1" xmlns="http://www.w3.org/2000/svg" xmlns:xlink="http://www.w3.org/1999/xlink" x="0px" y="0px"
	 width="566.929px" height="85.039px" viewBox="0 0 566.929 85.039" style="enable-background:new 0 0 566.929 85.039;"
	 xml:space="preserve">
<g>
	<path d="M31.161,47.932c-0.76,0-1.678-0.272-2.166-0.401c-1.334-0.401-1.735-0.401-2.18-0.416
		c-0.359,0.487-1.076,0.817-1.334,0.817c-0.101,0-0.129-0.058-0.129-0.086c0-0.058,0.057-0.244,0.516-0.66
		c0.029-0.043,0.861-0.86,1.406-3.012c0.588-2.295,1.076-3.815,2.08-5.035c0.674-0.803,2.037-1.635,3.199-1.635
		c0.932,0,1.233,0.688,1.233,1.348c0,0.646-0.158,0.76-0.373,0.932c-0.344,0.258-0.746,0.43-0.961,0.43
		c-0.115,0-0.115-0.071-0.115-0.1c0-0.043,0.058-0.301,0.058-0.531c0-0.358-0.129-1.19-0.99-1.19c-0.473,0-0.56,0.086-0.774,0.315
		c-1.019,1.033-1.693,3.701-1.965,4.776c-0.144,0.573-0.416,1.678-1.176,2.797c0.158-0.043,0.215-0.058,0.545-0.058
		c0.76,0,1.592,0.244,2.323,0.459c0.56,0.158,1.32,0.359,1.937,0.359c0.229,0,0.244,0,0.373-0.173c0-0.014,0.129-0.2,0.215-0.43
		c0.086-0.244,0.115-0.33,0.517-0.589c0.229-0.157,0.588-0.315,0.789-0.315c0.043,0,0.115,0.029,0.129,0.043
		C34.001,46.971,32.208,47.932,31.161,47.932z"/>
</g>
<g>
	<path d="M40.88,49.768h-5.75v-0.309h0.239c0.767,0,0.787-0.11,0.787-0.469V43.77c0-0.359-0.02-0.469-0.787-0.469H35.13v-0.309h5.61
		l0.279,2.242h-0.25c-0.159-1.386-0.428-1.934-1.953-1.934h-1.286c-0.468,0-0.488,0.07-0.488,0.398v2.392h0.897
		c0.966,0,1.076-0.309,1.076-1.166h0.249v2.641h-0.249c0-0.847-0.11-1.166-1.076-1.166h-0.897v2.661c0,0.328,0.02,0.398,0.488,0.398
		h1.325c1.714,0,1.943-0.728,2.192-2.262h0.249L40.88,49.768z"/>
	<path d="M48.736,49.787c-0.04,0.13-0.06,0.199-0.199,0.199c-0.13,0-0.16-0.1-0.189-0.188l-1.654-5.072l-1.644,5.062
		c-0.04,0.13-0.06,0.199-0.199,0.199c-0.129,0-0.159-0.1-0.189-0.188l-1.993-6.108c-0.12-0.368-0.159-0.418-0.907-0.418v-0.309
		c0.409,0.01,0.837,0.03,1.216,0.03c0.378,0,1.056,0,1.415-0.03v0.309c-0.259,0-0.837,0-0.837,0.299c0,0.029,0.01,0.1,0.02,0.129
		l1.604,4.902l1.385-4.274l-0.219-0.697c-0.12-0.358-0.329-0.358-0.896-0.358v-0.309c0.408,0.01,0.837,0.03,1.215,0.03
		c0.379,0,1.056,0,1.415-0.03v0.309c-0.259,0-0.837,0-0.837,0.299c0,0.05,0.02,0.109,0.03,0.149l1.594,4.882l1.495-4.604
		c0.02-0.06,0.05-0.139,0.05-0.199c0-0.189-0.199-0.518-0.867-0.527v-0.309c0.259,0.01,0.896,0.03,1.186,0.03
		c0.299,0,0.608-0.01,0.907-0.03v0.309c-0.389,0-0.817,0.1-0.997,0.667L48.736,49.787z"/>
</g>
<g>
	<path d="M57.676,42.969c-0.215,0-0.459,0-0.459-0.272c0-0.258,0.258-0.258,0.459-0.258h8.448c0.215,0,0.459,0,0.459,0.272
		c0,0.258-0.258,0.258-0.459,0.258H57.676z M57.676,45.637c-0.215,0-0.459,0-0.459-0.272c0-0.258,0.258-0.258,0.459-0.258h8.448
		c0.215,0,0.459,0,0.459,0.272c0,0.258-0.258,0.258-0.459,0.258H57.676z"/>
</g>
<g>
	<path d="M72.558,54.068c-0.258,0-0.387,0-0.387-0.158c0-0.015,0-0.086,0.144-0.258l7.43-8.707l-7.587-10.384
		c0-0.158,0-0.43,0.014-0.473c0.043-0.086,0.058-0.101,0.387-0.101h16.954l1.735,4.03h-0.358c-0.488-1.162-1.463-1.807-1.822-2.037
		c-1.133-0.717-2.381-0.961-3.155-1.076c-0.129-0.029-1.435-0.229-3.356-0.229h-7.86l6.684,9.137
		c0.101,0.144,0.101,0.187,0.101,0.215c0,0.072-0.029,0.115-0.129,0.229l-7.3,8.563h8.649c2.754,0,4.159-0.373,4.46-0.445
		c1.649-0.43,3.17-1.405,3.729-2.896h0.358l-1.735,4.59H72.558z"/>
</g>
<g>
	<path d="M81.45,64.707c0.358,0,0.996,0,1.873-0.887c0.349-0.359,0.867-1.176,0.867-1.813c0-0.479-0.249-0.737-0.358-0.848
		c-0.09-0.079-0.149-0.139-0.149-0.269c0-0.219,0.249-0.479,0.498-0.479c0.169,0,0.438,0.14,0.438,0.697
		c0,0.438-0.219,1.306-0.309,1.555c-0.109,0.299-0.319,0.737-0.727,1.195c-0.937,1.066-1.813,1.066-2.182,1.066
		c-0.13,0.498-0.249,0.997-0.379,1.484c-0.03,0.14-0.089,0.389-0.12,0.409c-0.02,0.04-0.069,0.04-0.089,0.04
		c-0.12,0-0.12-0.09-0.12-0.1c0-0.03,0.199-0.837,0.229-0.947c0.14-0.527,0.14-0.548,0.219-0.906
		c-0.957-0.06-1.733-0.469-1.733-1.415c0-0.169,0-0.429,0.478-1.684c0.129-0.349,0.229-0.599,0.229-0.857
		c0-0.318-0.169-0.318-0.249-0.318c-0.339,0-0.737,0.289-1.006,1.235c-0.05,0.159-0.06,0.18-0.159,0.18c-0.02,0-0.12,0-0.12-0.1
		c0-0.09,0.369-1.535,1.315-1.535c0.499,0,0.817,0.369,0.817,0.817c0,0.199-0.07,0.368-0.11,0.488
		c-0.538,1.395-0.538,1.654-0.538,1.854c0,0.657,0.379,1.026,1.136,1.115l1.654-6.586c0.04-0.18,0.05-0.199,0.149-0.199
		c0.05,0,0.12,0.01,0.12,0.109c0,0.05-0.02,0.11-0.03,0.149L81.45,64.707z"/>
</g>
<g>
	<path d="M98.314,35.841v-0.416h5.063v0.416H98.314z"/>
</g>
<g>
	<path d="M98.855,47.473c0.43,0,1.535,0,2.739-1.348c0.918-1.033,1.205-2.095,1.205-2.611c0-0.746-0.387-1.133-0.517-1.262
		c-0.057-0.058-0.158-0.158-0.158-0.33c0-0.287,0.315-0.631,0.66-0.631c0.143,0,0.573,0.1,0.573,0.961
		c0,0.731-0.344,2.008-0.487,2.381c-0.244,0.617-0.674,1.276-1.147,1.793c-1.291,1.334-2.424,1.334-2.955,1.334
		c-0.057,0.258-0.645,2.668-0.703,2.725c-0.029,0.058-0.086,0.058-0.115,0.058c-0.043,0-0.158,0-0.158-0.129
		c0-0.058,0.101-0.459,0.33-1.319c0.115-0.445,0.215-0.904,0.33-1.349c-1.291-0.101-2.438-0.631-2.438-2.008
		c0-0.33,0-0.646,0.775-2.683c0.244-0.631,0.244-0.946,0.244-1.004c0-0.459-0.244-0.473-0.373-0.473
		c-0.53,0-1.104,0.531-1.448,1.779c-0.058,0.2-0.072,0.258-0.201,0.258c-0.1,0-0.158-0.071-0.158-0.129
		c0-0.114,0.531-2.194,1.85-2.194c0.674,0,1.133,0.516,1.133,1.162c0,0.258-0.072,0.445-0.258,0.961
		c-0.674,1.778-0.674,2.108-0.674,2.424c0,0.86,0.444,1.463,1.635,1.606l2.367-9.496c0.058-0.215,0.072-0.287,0.201-0.287
		c0.043,0,0.158,0,0.158,0.129c0,0.015-0.058,0.201-0.058,0.215L98.855,47.473z"/>
	<path d="M110.511,43.471c0.43-0.975,0.933-1.95,0.961-1.979c0.029-0.058,0.101-0.058,0.129-0.058c0.129,0,0.144,0.101,0.144,0.115
		c0,0.043-0.201,0.431-0.301,0.66c-1.133,2.252-1.951,4.618-1.994,4.963c-0.072,0.573-0.158,1.204-0.502,2.467
		c-0.158,0.573-0.287,1.047-0.502,1.047c-0.115,0-0.158-0.129-0.158-0.244c0-0.401,0.474-2.18,0.746-3.069
		c0.086-0.286,0.187-0.588,0.187-1.491c0-1.42-0.287-3.644-2.281-3.644c-0.99,0-1.908,0.703-2.209,1.593
		c-0.072,0.186-0.072,0.215-0.201,0.215c-0.043,0-0.144,0-0.144-0.129c0-0.373,0.961-2.625,2.725-2.625
		c1.047,0,1.535,0.76,1.822,1.477c0.545,1.291,0.574,2.395,0.603,3.098C110.009,44.604,110.296,43.959,110.511,43.471z"/>
</g>
<g>
	<path d="M114.063,39.869c-0.07,0.279-0.14,0.558-0.14,0.847c0,0.538,0.239,0.867,0.737,0.867c0.807,0,1.286-0.907,1.295-0.957
		c0.03-0.1,0.14-0.519,0.259-1.017c0.149-0.618,0.338-1.365,0.468-1.863c0.08-0.339,0.338-0.349,0.388-0.349
		c0.15,0,0.289,0.09,0.289,0.269c0,0.06-0.1,0.438-0.149,0.667c-0.04,0.149-0.14,0.528-0.169,0.678
		c-0.089,0.358-0.189,0.717-0.279,1.076c-0.08,0.349-0.199,0.817-0.199,1.036c0,0.199,0.03,0.458,0.299,0.458
		c0.409,0,0.588-0.588,0.757-1.236c0.03-0.14,0.04-0.179,0.139-0.179c0.03,0,0.12,0,0.12,0.1c0,0.02-0.129,0.627-0.299,0.986
		c-0.159,0.319-0.389,0.548-0.737,0.548c-0.438,0-0.807-0.279-0.896-0.727c-0.239,0.279-0.628,0.727-1.325,0.727
		c-0.2,0-0.648-0.04-0.967-0.309c-0.378,1.534-0.508,2.052-0.548,2.142c-0.02,0.03-0.14,0.209-0.349,0.209
		c-0.169,0-0.279-0.119-0.279-0.269c0-0.021,0-0.04,0.03-0.159l1.435-5.77c0.09-0.349,0.369-0.359,0.398-0.359
		c0.169,0,0.289,0.1,0.289,0.269c0,0.05-0.1,0.429-0.149,0.638L114.063,39.869z"/>
</g>
<g>
	<path d="M130.811,61.224c-0.201,0-0.229,0-0.402-0.172c-0.588-0.517-1.133-1.104-1.42-1.435c-3.643-4.288-4.934-9.969-4.934-15.605
		c0-6.038,1.506-12.607,6.311-16.982c0.215-0.215,0.244-0.215,0.445-0.215c0.201,0,0.301,0,0.301,0.144c0,0.043,0,0.072-0.043,0.115
		c-0.631,0.631-1.807,1.807-2.94,3.844c-2.367,4.274-2.883,9.251-2.883,13.11c0,5.522,1.047,10.184,3.356,13.884
		c0.961,1.55,1.922,2.511,2.453,3.041c0.029,0.043,0.058,0.072,0.058,0.129C131.112,61.224,131.012,61.224,130.811,61.224z"/>
</g>
<g>
	<path d="M133.856,47.76c-0.688,0-1.133-0.517-1.133-1.162c0-0.258,0.086-0.487,0.172-0.717c0.488-1.306,0.488-1.334,1.004-2.668
		c0.115-0.315,0.301-0.789,0.301-1.162c0-0.459-0.244-0.473-0.373-0.473c-0.559,0-1.104,0.574-1.448,1.779
		c-0.058,0.2-0.072,0.258-0.201,0.258c-0.1,0-0.158-0.071-0.158-0.129c0-0.114,0.531-2.194,1.85-2.194
		c0.703,0,1.133,0.545,1.133,1.147c0,0.272-0.1,0.53-0.144,0.646c-0.33,0.889-0.66,1.778-1.004,2.668
		c-0.158,0.43-0.33,0.86-0.33,1.247c0,0.431,0.201,0.474,0.373,0.474c0.474,0,1.062-0.444,1.435-1.75
		c0.072-0.243,0.086-0.287,0.215-0.287c0.086,0,0.144,0.058,0.144,0.13C135.692,45.666,135.176,47.76,133.856,47.76z M134.86,39.354
		c-0.172,0-0.473-0.115-0.473-0.473c0-0.373,0.373-0.688,0.703-0.688c0.316,0,0.488,0.258,0.488,0.473
		C135.577,38.981,135.247,39.354,134.86,39.354z"/>
	<path d="M142.951,42.826c0.143-0.531,0.416-1.592,0.416-2.51c0-1.606-0.804-2.61-2.065-2.61c-0.388,0-1.478,0.101-2.065,1.162
		c0.186,0,0.631,0,0.631,0.445c0,0.244-0.215,0.703-0.717,0.703c-0.401,0-0.488-0.315-0.488-0.444c0-0.387,0.617-2.209,2.697-2.209
		c1.836,0,2.998,1.592,2.998,3.658c0,1.965-1.448,6.898-4.833,6.898c-1.951,0-2.553-1.649-2.553-2.524
		c0-2.28,2.065-4.331,4.088-4.331c1.291,0,1.793,0.961,1.879,1.764H142.951z M142.707,43.256c0-0.774-0.301-1.908-1.606-1.908
		c-1.492,0-2.309,1.449-2.496,1.879c-0.215,0.53-0.617,2.008-0.617,2.639c0,0.603,0.229,1.664,1.578,1.664
		C141.775,47.53,142.707,44.317,142.707,43.256z"/>
</g>
<g>
	<path d="M145.723,47.944c-0.07,0.279-0.14,0.558-0.14,0.847c0,0.538,0.239,0.867,0.737,0.867c0.807,0,1.286-0.907,1.295-0.957
		c0.03-0.1,0.14-0.518,0.259-1.016c0.149-0.618,0.338-1.365,0.468-1.863c0.08-0.339,0.338-0.35,0.388-0.35
		c0.15,0,0.289,0.09,0.289,0.27c0,0.06-0.1,0.438-0.149,0.668c-0.04,0.149-0.14,0.527-0.169,0.677
		c-0.089,0.359-0.189,0.718-0.279,1.076c-0.08,0.349-0.199,0.817-0.199,1.036c0,0.199,0.03,0.459,0.299,0.459
		c0.409,0,0.588-0.588,0.757-1.235c0.03-0.14,0.04-0.18,0.14-0.18c0.03,0,0.119,0,0.119,0.1c0,0.02-0.129,0.628-0.299,0.986
		c-0.159,0.319-0.389,0.548-0.737,0.548c-0.438,0-0.807-0.278-0.896-0.728c-0.239,0.279-0.628,0.728-1.325,0.728
		c-0.2,0-0.648-0.04-0.967-0.309c-0.378,1.534-0.508,2.053-0.548,2.143c-0.02,0.029-0.14,0.209-0.349,0.209
		c-0.169,0-0.279-0.12-0.279-0.27c0-0.02,0-0.039,0.03-0.159l1.435-5.769c0.09-0.35,0.369-0.359,0.398-0.359
		c0.169,0,0.289,0.1,0.289,0.27c0,0.05-0.1,0.428-0.149,0.638L145.723,47.944z"/>
</g>
<g>
	<path d="M155.192,44.317c-0.201,0-0.473,0-0.473-0.287s0.272-0.287,0.473-0.287h7.817c0.201,0,0.473,0,0.473,0.287
		s-0.272,0.287-0.473,0.287H155.192z"/>
</g>
<g>
	<path d="M174.2,41.563c0.215,0,0.373,0.158,0.373,0.358c0,0.029,0,0.058-0.043,0.229l-1.592,6.426
		c-0.186,0.774-1.147,1.965-2.998,1.965c-1.219,0-1.807-0.229-1.807-0.817c0-0.474,0.373-0.76,0.717-0.76
		c0.315,0,0.487,0.229,0.487,0.459c0,0.157-0.115,0.559-0.574,0.688c0.359,0.114,0.717,0.144,1.147,0.144
		c0.316,0,0.861,0,1.449-0.589c0.517-0.502,0.603-0.86,0.803-1.649c0.072-0.301,0.072-0.33,0.315-1.291
		c-0.258,0.287-0.932,0.89-1.692,0.89c-0.918,0-1.822-0.731-1.822-2.224c0-2.137,1.779-4.102,3.342-4.102
		c0.717,0,1.119,0.53,1.305,0.946C173.655,41.85,173.856,41.563,174.2,41.563z M173.397,43.041l0.043-0.201
		c0-0.086-0.187-1.262-1.133-1.262c-0.603,0-1.248,0.574-1.664,1.377c-0.315,0.645-0.746,2.252-0.746,3.012
		c0,0.989,0.444,1.362,0.918,1.362c0.444,0,1.047-0.272,1.635-1.032c0.186-0.216,0.215-0.272,0.272-0.502L173.397,43.041z"/>
</g>
<g>
	<path d="M175.875,41.104c-0.06,0.14-0.11,0.14-0.129,0.14c-0.08,0-0.339-0.07-0.339-0.18c0-0.05,0.02-0.1,0.03-0.139l1.206-4.344
		c0.04-0.13,0.129-0.458,0.528-0.458c0.279,0,0.558,0.219,0.558,0.518c0,0.04,0,0.129-0.069,0.279L175.875,41.104z"/>
</g>
<g>
	<path d="M183.681,36.807c0,0.517,0.043,0.688,1.305,0.688h0.445v0.416c-0.387-0.029-1.764-0.029-2.238-0.029
		c-0.473,0-1.865,0-2.252,0.029v-0.416h0.445c1.262,0,1.305-0.172,1.305-0.688v-7.473c-0.789,0.373-1.506,0.373-1.836,0.373v-0.416
		c1.478,0,2.195-0.531,2.539-0.918c0.287,0,0.287,0.014,0.287,0.344V36.807z"/>
</g>
<g>
	<rect x="179.55" y="43.742" width="7.024" height="0.574"/>
</g>
<g>
	<path d="M185.488,57.457h-5.235v-0.344l2.897-3.242c0.818-0.918,1.521-1.979,1.521-3.198c0-1.319-0.746-2.338-1.965-2.338
		c-0.932,0-1.707,0.659-1.979,1.635c0.043-0.015,0.072-0.015,0.201-0.015c0.401,0,0.674,0.273,0.674,0.675
		c0,0.459-0.373,0.674-0.674,0.674c-0.043,0-0.674,0-0.674-0.731c0-1.233,0.976-2.653,2.639-2.653c1.664,0,2.969,1.104,2.969,2.754
		c0,1.42-0.803,2.166-2.983,4.174c-0.373,0.344-1.248,1.262-1.635,1.592h2.654c0.43,0,1.248,0,1.348-0.129
		c0.144-0.229,0.258-1.019,0.301-1.263h0.315L185.488,57.457z"/>
</g>
<g>
	<path d="M192.603,43.557c-0.129,0.144-0.129,0.173-0.215,0.474l-0.517,2.065c-0.072,0.287-0.187,0.746-0.187,0.847
		c0,0.157,0,0.258,0.89,0.258c0.244,0,0.344,0,0.344,0.158c0,0.258-0.172,0.258-0.273,0.258c-0.258,0-0.559-0.028-0.817-0.028
		h-1.692c-0.272,0-0.574,0.028-0.832,0.028c-0.043,0-0.201,0-0.201-0.144c0-0.272,0.115-0.272,0.358-0.272
		c0.918-0.015,1.062-0.086,1.176-0.474c0.043-0.143,0.746-2.969,0.746-3.012s-0.043-0.201-0.058-0.244l-1.778-4.776
		c-0.129-0.33-0.258-0.459-0.961-0.459c-0.215,0-0.344,0-0.344-0.144c0-0.272,0.158-0.272,0.258-0.272
		c0.244,0,0.517,0.029,0.774,0.029h1.592c0.244,0,0.531-0.029,0.774-0.029c0.086,0,0.215,0,0.215,0.158
		c0,0.258-0.158,0.258-0.33,0.258c-0.172,0-0.76,0.029-0.76,0.33c0,0.029,0,0.058,0.086,0.258l1.621,4.361l3.414-3.916
		c0.287-0.33,0.402-0.545,0.402-0.703c0-0.086,0-0.301-0.431-0.33c-0.043,0-0.186-0.015-0.186-0.144
		c0-0.272,0.158-0.272,0.258-0.272c0.402,0,0.846,0.029,1.262,0.029h0.588c0.172,0,0.358-0.029,0.531-0.029
		c0.028,0,0.172,0,0.172,0.144c0,0.244-0.129,0.258-0.287,0.272c-0.502,0.043-1.033,0.201-1.664,0.846l-0.33,0.33L192.603,43.557z"
		/>
</g>
<g>
	<path d="M203.073,49.787c-0.04,0.13-0.06,0.199-0.199,0.199c-0.13,0-0.16-0.1-0.189-0.188l-1.654-5.072l-1.644,5.062
		c-0.04,0.13-0.06,0.199-0.199,0.199c-0.129,0-0.159-0.1-0.189-0.188l-1.993-6.108c-0.12-0.368-0.159-0.418-0.907-0.418v-0.309
		c0.409,0.01,0.837,0.03,1.216,0.03c0.378,0,1.056,0,1.415-0.03v0.309c-0.259,0-0.837,0-0.837,0.299c0,0.029,0.01,0.1,0.02,0.129
		l1.604,4.902l1.385-4.274l-0.219-0.697c-0.12-0.358-0.329-0.358-0.896-0.358v-0.309c0.408,0.01,0.837,0.03,1.215,0.03
		c0.379,0,1.056,0,1.415-0.03v0.309c-0.259,0-0.837,0-0.837,0.299c0,0.05,0.02,0.109,0.03,0.149l1.594,4.882l1.495-4.604
		c0.02-0.06,0.05-0.139,0.05-0.199c0-0.189-0.199-0.518-0.867-0.527v-0.309c0.259,0.01,0.896,0.03,1.186,0.03
		c0.299,0,0.608-0.01,0.907-0.03v0.309c-0.389,0-0.817,0.1-0.997,0.667L203.073,49.787z"/>
</g>
<g>
	<path d="M216.663,44.504c0,1.448-1.692,3.112-3.887,3.112h-4.919c-0.287,0-0.373,0-0.373-0.158c0-0.258,0.144-0.258,0.416-0.258
		c1.004,0,1.033-0.144,1.162-0.646l1.937-7.717c0.057-0.215,0.057-0.301,0.057-0.33c0-0.158,0-0.272-0.875-0.272
		c-0.215,0-0.344,0-0.344-0.144c0-0.272,0.129-0.272,0.401-0.272h4.604c1.621,0,2.611,0.86,2.611,1.979
		c0,1.319-1.42,2.41-2.983,2.696C215.63,42.61,216.663,43.327,216.663,44.504z M215.458,44.36c0-0.115,0-1.692-1.692-1.692h-2.696
		l-1.004,4.045c-0.029,0.129-0.058,0.215-0.058,0.315c0,0.114,0.014,0.144,0.172,0.157c0.086,0.015,0.115,0.015,0.316,0.015h1.936
		C214.21,47.2,215.458,45.737,215.458,44.36z M211.155,42.381h2.065c1.894,0,3.055-1.478,3.055-2.639c0-0.129,0-1.506-1.621-1.506
		h-1.865c-0.56,0-0.617,0.029-0.746,0.559L211.155,42.381z"/>
</g>
<g>
	<path d="M219.35,47.944c-0.07,0.279-0.14,0.558-0.14,0.847c0,0.538,0.239,0.867,0.737,0.867c0.807,0,1.286-0.907,1.295-0.957
		c0.03-0.1,0.14-0.518,0.259-1.016c0.149-0.618,0.338-1.365,0.468-1.863c0.08-0.339,0.338-0.35,0.388-0.35
		c0.15,0,0.289,0.09,0.289,0.27c0,0.06-0.1,0.438-0.149,0.668c-0.04,0.149-0.14,0.527-0.169,0.677
		c-0.089,0.359-0.189,0.718-0.279,1.076c-0.08,0.349-0.199,0.817-0.199,1.036c0,0.199,0.03,0.459,0.299,0.459
		c0.409,0,0.588-0.588,0.757-1.235c0.03-0.14,0.04-0.18,0.14-0.18c0.03,0,0.119,0,0.119,0.1c0,0.02-0.129,0.628-0.299,0.986
		c-0.159,0.319-0.389,0.548-0.737,0.548c-0.438,0-0.807-0.278-0.896-0.728c-0.239,0.279-0.628,0.728-1.325,0.728
		c-0.2,0-0.648-0.04-0.967-0.309c-0.378,1.534-0.508,2.053-0.548,2.143c-0.02,0.029-0.14,0.209-0.349,0.209
		c-0.169,0-0.279-0.12-0.279-0.27c0-0.02,0-0.039,0.03-0.159l1.435-5.769c0.09-0.35,0.369-0.359,0.398-0.359
		c0.169,0,0.289,0.1,0.289,0.27c0,0.05-0.1,0.428-0.149,0.638L219.35,47.944z"/>
</g>
<g>
	<path d="M228.819,44.317c-0.201,0-0.473,0-0.473-0.287s0.272-0.287,0.473-0.287h7.817c0.201,0,0.473,0,0.473,0.287
		s-0.272,0.287-0.473,0.287H228.819z"/>
</g>
<g>
	<path d="M247.827,41.563c0.215,0,0.373,0.158,0.373,0.358c0,0.029,0,0.058-0.043,0.229l-1.592,6.426
		c-0.186,0.774-1.147,1.965-2.998,1.965c-1.219,0-1.807-0.229-1.807-0.817c0-0.474,0.373-0.76,0.717-0.76
		c0.315,0,0.487,0.229,0.487,0.459c0,0.157-0.115,0.559-0.574,0.688c0.359,0.114,0.717,0.144,1.147,0.144
		c0.316,0,0.861,0,1.449-0.589c0.517-0.502,0.603-0.86,0.803-1.649c0.072-0.301,0.072-0.33,0.315-1.291
		c-0.258,0.287-0.932,0.89-1.692,0.89c-0.918,0-1.822-0.731-1.822-2.224c0-2.137,1.779-4.102,3.342-4.102
		c0.717,0,1.119,0.53,1.305,0.946C247.282,41.85,247.483,41.563,247.827,41.563z M247.024,43.041l0.043-0.201
		c0-0.086-0.187-1.262-1.133-1.262c-0.603,0-1.248,0.574-1.664,1.377c-0.315,0.645-0.746,2.252-0.746,3.012
		c0,0.989,0.444,1.362,0.918,1.362c0.444,0,1.047-0.272,1.635-1.032c0.186-0.216,0.215-0.272,0.272-0.502L247.024,43.041z"/>
</g>
<g>
	<path d="M254.07,36.807c0,0.517,0.043,0.688,1.305,0.688h0.445v0.416c-0.387-0.029-1.764-0.029-2.238-0.029
		c-0.473,0-1.864,0-2.252,0.029v-0.416h0.445c1.262,0,1.305-0.172,1.305-0.688v-7.473c-0.789,0.373-1.506,0.373-1.836,0.373v-0.416
		c1.478,0,2.194-0.531,2.539-0.918c0.287,0,0.287,0.014,0.287,0.344V36.807z"/>
</g>
<g>
	<rect x="249.939" y="43.742" width="7.024" height="0.574"/>
</g>
<g>
	<path d="M255.877,57.457h-5.235v-0.344l2.897-3.242c0.817-0.918,1.521-1.979,1.521-3.198c0-1.319-0.746-2.338-1.965-2.338
		c-0.933,0-1.707,0.659-1.979,1.635c0.043-0.015,0.072-0.015,0.201-0.015c0.402,0,0.674,0.273,0.674,0.675
		c0,0.459-0.373,0.674-0.674,0.674c-0.043,0-0.674,0-0.674-0.731c0-1.233,0.976-2.653,2.639-2.653c1.664,0,2.969,1.104,2.969,2.754
		c0,1.42-0.803,2.166-2.983,4.174c-0.373,0.344-1.248,1.262-1.635,1.592h2.654c0.43,0,1.248,0,1.348-0.129
		c0.144-0.229,0.258-1.019,0.301-1.263h0.315L255.877,57.457z"/>
</g>
<g>
	<path d="M260.868,39.053c-0.229,0-0.488,0-0.488-0.258c0-0.272,0.244-0.272,0.488-0.272h4.819c-0.272-0.387-0.359-0.731-0.359-0.86
		c0-0.215,0.172-0.272,0.258-0.272c0.201,0,0.244,0.172,0.287,0.287c0.043,0.172,0.143,0.56,0.545,0.832
		c0.086,0.072,0.201,0.144,0.201,0.272c0,0.158-0.101,0.201-0.244,0.287c-0.33,0.187-0.717,0.459-1.062,0.89
		c-0.101,0.144-0.158,0.229-0.287,0.229c-0.143,0-0.272-0.129-0.272-0.272c0-0.201,0.531-0.703,0.703-0.861H260.868z"/>
	<path d="M261.306,47.172c-0.043,0.215-0.115,0.603-0.559,0.603c-0.287,0-0.388-0.201-0.388-0.359c0-0.043,0-0.071,0.072-0.286
		l1.492-4.92h-1.19c-0.358,0-1.104,0-1.85,1.176c-0.072,0.086-0.086,0.129-0.187,0.129c-0.086,0-0.158-0.028-0.158-0.114
		s0.459-0.846,0.832-1.262c0.66-0.703,1.147-0.703,1.477-0.703h3.944c0.258,0,0.531,0,0.531,0.316c0,0.459-0.473,0.459-0.66,0.459
		h-2.381L261.306,47.172z"/>
</g>
<g>
	<path d="M269.778,49.768h-5.191v-0.309h0.239c0.767,0,0.787-0.11,0.787-0.469v-5.251c0-0.358-0.02-0.468-0.787-0.468h-0.239v-0.309
		c0.349,0.03,1.126,0.03,1.515,0.03c0.409,0,1.315,0,1.674-0.03v0.309h-0.329c-0.947,0-0.947,0.139-0.947,0.478v5.312
		c0,0.328,0.02,0.398,0.488,0.398h0.817c1.753,0,1.893-1.246,2.002-2.262h0.249L269.778,49.768z"/>
</g>
<g>
	<path d="M277.058,35.426c-0.229,0-0.488,0-0.488-0.258c0-0.272,0.244-0.272,0.488-0.272h4.819c-0.273-0.387-0.359-0.731-0.359-0.86
		c0-0.215,0.172-0.272,0.258-0.272c0.201,0,0.244,0.172,0.287,0.287c0.043,0.172,0.144,0.56,0.545,0.832
		c0.086,0.072,0.201,0.144,0.201,0.272c0,0.158-0.101,0.201-0.244,0.287c-0.33,0.187-0.717,0.459-1.062,0.89
		c-0.101,0.144-0.158,0.229-0.287,0.229c-0.143,0-0.272-0.129-0.272-0.272c0-0.201,0.531-0.703,0.703-0.861H277.058z"/>
</g>
<g>
	<path d="M279.216,47.645c-0.115,0.201-0.158,0.272-0.301,0.272c-0.172,0-0.186-0.086-0.201-0.329l-0.531-7.416l-4.274,7.473
		c-0.129,0.216-0.158,0.272-0.301,0.272c-0.172,0-0.187-0.086-0.201-0.329l-0.631-8.807c-0.029-0.459-0.043-0.545-0.717-0.545
		c-0.201,0-0.315,0-0.315-0.144c0-0.272,0.172-0.272,0.258-0.272c0.215,0,0.473,0.029,0.688,0.029h0.746
		c0.517,0,1.047-0.029,1.549-0.029c0.086,0,0.215,0,0.215,0.158c0,0.258-0.158,0.258-0.315,0.258
		c-0.975,0.014-0.975,0.373-0.975,0.531l0.53,7.401l3.715-6.526l-0.043-0.517c-0.057-0.875-0.057-0.889-0.717-0.889
		c-0.244,0-0.344,0-0.344-0.144c0-0.272,0.172-0.272,0.258-0.272c0.215,0,0.474,0.029,0.688,0.029h0.746
		c0.516,0,1.047-0.029,1.549-0.029c0.072,0,0.215,0,0.215,0.144c0,0.272-0.144,0.272-0.33,0.272
		c-0.803,0.014-0.961,0.287-0.961,0.459l0.517,7.473l3.916-6.856c0.143-0.244,0.2-0.344,0.2-0.531c0-0.445-0.459-0.531-0.746-0.545
		c-0.086,0-0.2-0.015-0.2-0.144c0-0.272,0.172-0.272,0.258-0.272c0.416,0,0.86,0.029,1.291,0.029c0.946,0,1.047-0.029,1.076-0.029
		c0.043,0,0.172,0,0.172,0.158c0,0.229-0.129,0.244-0.258,0.258c-0.861,0.086-1.177,0.617-1.507,1.176L279.216,47.645z"/>
</g>
<g>
	<path d="M286.128,47.944c-0.069,0.279-0.139,0.558-0.139,0.847c0,0.538,0.238,0.867,0.737,0.867c0.807,0,1.285-0.907,1.295-0.957
		c0.03-0.1,0.14-0.518,0.259-1.016c0.149-0.618,0.339-1.365,0.469-1.863c0.079-0.339,0.339-0.35,0.389-0.35
		c0.149,0,0.289,0.09,0.289,0.27c0,0.06-0.1,0.438-0.149,0.668c-0.04,0.149-0.14,0.527-0.17,0.677
		c-0.09,0.359-0.189,0.718-0.279,1.076c-0.079,0.349-0.199,0.817-0.199,1.036c0,0.199,0.03,0.459,0.299,0.459
		c0.409,0,0.588-0.588,0.758-1.235c0.03-0.14,0.04-0.18,0.14-0.18c0.029,0,0.119,0,0.119,0.1c0,0.02-0.129,0.628-0.299,0.986
		c-0.159,0.319-0.389,0.548-0.737,0.548c-0.438,0-0.807-0.278-0.896-0.728c-0.239,0.279-0.628,0.728-1.325,0.728
		c-0.199,0-0.647-0.04-0.967-0.309c-0.379,1.534-0.508,2.053-0.548,2.143c-0.021,0.029-0.14,0.209-0.349,0.209
		c-0.17,0-0.279-0.12-0.279-0.27c0-0.02,0-0.039,0.03-0.159l1.435-5.769c0.09-0.35,0.368-0.359,0.398-0.359
		c0.17,0,0.289,0.1,0.289,0.27c0,0.05-0.1,0.428-0.149,0.638L286.128,47.944z"/>
</g>
<g>
	<path d="M291.994,61.008c-0.215,0.215-0.244,0.215-0.445,0.215c-0.172,0-0.301,0-0.301-0.144c0-0.043,0.028-0.086,0.058-0.129
		c0.603-0.603,1.793-1.793,2.926-3.829c2.366-4.274,2.883-9.252,2.883-13.11c0-5.522-1.047-10.184-3.356-13.884
		c-0.961-1.549-1.922-2.51-2.424-3.026c-0.028-0.029-0.086-0.086-0.086-0.144c0-0.144,0.129-0.144,0.301-0.144
		c0.201,0,0.23,0,0.402,0.172c0.588,0.517,1.133,1.104,1.42,1.435c3.643,4.289,4.934,9.969,4.934,15.605
		C298.305,50.063,296.799,56.633,291.994,61.008z"/>
</g>
<g>
	<path d="M308.086,47.473c0.431,0,1.535,0,2.74-1.348c0.918-1.033,1.204-2.095,1.204-2.611c0-0.746-0.387-1.133-0.516-1.262
		c-0.058-0.058-0.158-0.158-0.158-0.33c0-0.287,0.315-0.631,0.66-0.631c0.144,0,0.573,0.1,0.573,0.961
		c0,0.731-0.344,2.008-0.487,2.381c-0.244,0.617-0.674,1.276-1.147,1.793c-1.291,1.334-2.424,1.334-2.955,1.334
		c-0.057,0.258-0.646,2.668-0.702,2.725c-0.029,0.058-0.087,0.058-0.115,0.058c-0.043,0-0.157,0-0.157-0.129
		c0-0.058,0.1-0.459,0.329-1.319c0.115-0.445,0.216-0.904,0.33-1.349c-1.291-0.101-2.438-0.631-2.438-2.008
		c0-0.33,0-0.646,0.774-2.683c0.244-0.631,0.244-0.946,0.244-1.004c0-0.459-0.244-0.473-0.373-0.473
		c-0.53,0-1.104,0.531-1.448,1.779c-0.058,0.2-0.072,0.258-0.201,0.258c-0.101,0-0.157-0.071-0.157-0.129
		c0-0.114,0.53-2.194,1.85-2.194c0.675,0,1.134,0.516,1.134,1.162c0,0.258-0.072,0.445-0.259,0.961
		c-0.674,1.778-0.674,2.108-0.674,2.424c0,0.86,0.444,1.463,1.635,1.606l2.367-9.496c0.057-0.215,0.071-0.287,0.2-0.287
		c0.043,0,0.158,0,0.158,0.129c0,0.015-0.058,0.201-0.058,0.215L308.086,47.473z"/>
</g>
</svg>
