<?xml version="1.0" encoding="iso-8859-1"?>
<!-- Generator: Adobe Illustrator 16.0.0, SVG Export Plug-In . SVG Version: 6.00 Build 0)  -->
<!DOCTYPE svg PUBLIC "-//W3C//DTD SVG 1.1//EN" "http://www.w3.org/Graphics/SVG/1.1/DTD/svg11.dtd">
<svg version="1.1" id="Layer_1" xmlns="http://www.w3.org/2000/svg" xmlns:xlink="http://www.w3.org/1999/xlink" x="0px" y="0px"
	 width="566.929px" height="85.039px" viewBox="0 0 566.929 85.039" style="enable-background:new 0 0 566.929 85.039;"
	 xml:space="preserve">
<g>
	<path d="M28.583,39.187c-0.101,0.43-0.215,0.86-0.315,1.291c-0.072,0.287-0.201,0.789-0.229,0.861
		c-0.115,0.215-0.316,0.301-0.488,0.301c-0.215,0-0.373-0.158-0.373-0.359c0-0.072,0.158-0.746,0.258-1.119
		c0.072-0.258,0.229-0.903,0.287-1.176c0.129-0.516,0.272-1.033,0.402-1.549c0.1-0.445,0.244-1.004,0.244-1.32
		c0-0.43-0.115-0.66-0.444-0.66c-0.574,0-0.832,0.818-1.062,1.692c-0.086,0.33-0.101,0.344-0.215,0.344
		c-0.1,0-0.158-0.071-0.158-0.129s0.201-0.918,0.459-1.435c0.244-0.487,0.56-0.76,1.019-0.76c0.631,0,1.219,0.444,1.262,1.262
		c0.258-0.359,0.932-1.262,2.208-1.262c1.09,0,1.592,0.646,1.592,1.506c0,0.817-0.603,2.424-0.889,3.213
		c-0.086,0.201-0.244,0.631-0.244,0.99c0,0.459,0.229,0.473,0.373,0.473c0.56,0,1.104-0.574,1.435-1.75
		c0.072-0.244,0.086-0.287,0.215-0.287c0.086,0,0.144,0.057,0.144,0.129c0,0.086-0.502,2.195-1.836,2.195
		c-0.688,0-1.133-0.517-1.133-1.162c0-0.258,0.071-0.444,0.201-0.789c0.287-0.775,0.875-2.41,0.875-3.228
		c0-0.574-0.201-1.004-0.775-1.004c-0.559,0-1.047,0.229-1.42,0.574c-0.531,0.459-0.889,1.176-0.918,1.262L28.583,39.187z"/>
</g>
<g>
	<path d="M37.416,37.521c0.03-0.12,0.04-0.149,0.04-0.189c0-0.129-0.09-0.139-0.269-0.159c-0.169-0.02-0.359-0.02-0.378-0.02
		c-0.189,0-0.279,0-0.279-0.109c0-0.199,0.1-0.199,0.289-0.199h3.348c1.195,0,1.853,0.638,1.853,1.375
		c0,0.946-1.046,1.684-2.083,1.873c0.967,0.109,1.544,0.688,1.544,1.405c0,0.977-1.176,2.152-2.75,2.152h-3.557
		c-0.179,0-0.269,0-0.269-0.109c0-0.199,0.1-0.199,0.269-0.199c0.787,0,0.807-0.08,0.907-0.469L37.416,37.521z M38.492,43.34
		c1.176,0,2.062-0.967,2.062-1.953c0-0.429-0.189-1.166-1.146-1.166h-1.883l-0.688,2.78c-0.05,0.179-0.05,0.199-0.05,0.229
		c0,0.08,0.03,0.09,0.129,0.101c0.06,0.01,0.08,0.01,0.219,0.01H38.492z M39.041,40.001c1.215,0,2.072-0.946,2.072-1.823
		c0-0.438-0.209-1.026-1.086-1.026h-1.286c-0.428,0-0.448,0.03-0.538,0.379l-0.618,2.471H39.041z"/>
</g>
<g>
	<rect x="26.102" y="47.328" width="16.94" height="0.574"/>
</g>
<g>
	<path d="M29.756,58.732c-0.101,0.431-0.215,0.861-0.315,1.291c-0.072,0.287-0.201,0.789-0.229,0.86
		c-0.115,0.216-0.316,0.302-0.488,0.302c-0.215,0-0.373-0.158-0.373-0.358c0-0.072,0.158-0.746,0.258-1.119
		c0.072-0.258,0.229-0.903,0.287-1.176c0.129-0.517,0.272-1.033,0.402-1.55c0.1-0.444,0.244-1.004,0.244-1.319
		c0-0.43-0.115-0.659-0.444-0.659c-0.574,0-0.832,0.817-1.062,1.692c-0.086,0.329-0.101,0.344-0.215,0.344
		c-0.1,0-0.158-0.071-0.158-0.129s0.201-0.918,0.459-1.435c0.244-0.487,0.56-0.76,1.019-0.76c0.631,0,1.219,0.444,1.262,1.262
		c0.258-0.358,0.932-1.262,2.208-1.262c1.09,0,1.592,0.646,1.592,1.506c0,0.817-0.603,2.424-0.889,3.213
		c-0.086,0.201-0.244,0.631-0.244,0.989c0,0.459,0.229,0.474,0.373,0.474c0.56,0,1.104-0.573,1.435-1.75
		c0.072-0.243,0.086-0.287,0.215-0.287c0.086,0,0.144,0.058,0.144,0.13c0,0.086-0.502,2.194-1.836,2.194
		c-0.688,0-1.133-0.517-1.133-1.162c0-0.258,0.071-0.444,0.201-0.789c0.287-0.774,0.875-2.409,0.875-3.227
		c0-0.574-0.201-1.004-0.775-1.004c-0.559,0-1.047,0.229-1.42,0.573c-0.531,0.459-0.889,1.176-0.918,1.263L29.756,58.732z"/>
</g>
<g>
	<path d="M36.029,60.713c-0.1,0-0.189,0-0.189-0.1c0-0.309,0.698-1.823,1.943-1.823c0.688,0,1.086,0.488,1.325,1.097
		c0.388,0.966,0.398,1.724,0.408,2.032c0.398-1.007,0.797-2.003,1.315-2.949c0.03-0.07,0.089-0.07,0.12-0.07c0.02,0,0.12,0,0.12,0.1
		c0,0.04-0.12,0.26-0.189,0.379c-0.398,0.787-1.036,2.272-1.355,3.259c-0.04,0.129-0.06,0.259-0.08,0.389
		c-0.04,0.309-0.139,0.876-0.369,1.713c-0.109,0.379-0.189,0.599-0.319,0.599c-0.08,0-0.129-0.07-0.129-0.18
		c0-0.259,0.299-1.415,0.518-2.143c0.07-0.199,0.12-0.368,0.12-0.977c0-0.787-0.109-2.53-1.614-2.53
		c-0.109,0-1.196,0.01-1.584,1.155L36.029,60.713z"/>
</g>
<g>
	<path d="M49.457,46.555c-0.215,0-0.459,0-0.459-0.272c0-0.258,0.258-0.258,0.459-0.258h8.448c0.215,0,0.459,0,0.459,0.272
		c0,0.258-0.258,0.258-0.459,0.258H49.457z M49.457,49.223c-0.215,0-0.459,0-0.459-0.272c0-0.258,0.258-0.258,0.459-0.258h8.448
		c0.215,0,0.459,0,0.459,0.272c0,0.258-0.258,0.258-0.459,0.258H49.457z"/>
</g>
<g>
	<path d="M82.585,41.496h-2.209c-0.315,0-0.358,0-0.358-0.272c0-1.019,0.502-2.338,0.746-3.026c0.401-1.062,0.803-2.137,0.803-3.228
		c0-2.208-1.535-3.284-2.955-3.284c-1.42,0-2.955,1.076-2.955,3.284c0,1.09,0.387,2.137,0.803,3.271
		c0.287,0.731,0.746,1.979,0.746,2.998c0,0.258-0.029,0.258-0.344,0.258h-2.224l-0.459-2.237h0.316
		c0.072,0.344,0.143,0.76,0.258,1.061c0.071,0.215,0.114,0.33,0.946,0.33h1.133c-0.158-0.803-0.588-1.478-1.19-2.41
		c-0.674-1.047-1.32-2.08-1.32-3.256c0-1.965,1.879-3.586,4.289-3.586c2.396,0,4.289,1.606,4.289,3.586
		c0,1.19-0.66,2.237-1.333,3.285c-0.588,0.889-1.004,1.578-1.176,2.381h1.133c0.832,0,0.875-0.115,0.947-0.344
		c0.115-0.301,0.187-0.674,0.258-1.047h0.315L82.585,41.496z"/>
</g>
<g>
	<path d="M85.338,39.842c0.299-0.309,0.708-0.598,1.166-0.598c0.797,0,1.325,0.688,1.325,1.594c0,1.435-1.226,2.919-2.401,2.919
		c-0.737,0-1.266-0.617-1.266-1.564c0-0.349,0.04-0.508,0.16-1.006l0.817-3.249c0.05-0.209,0.14-0.548,0.14-0.618
		c0-0.1-0.02-0.169-0.499-0.169c-0.149,0-0.239,0-0.239-0.12c0-0.179,0.109-0.189,0.189-0.199c0.259-0.02,0.986-0.1,1.216-0.1
		c0.129,0,0.129,0.1,0.129,0.11L85.338,39.842z M84.919,41.526c-0.16,0.628-0.16,0.817-0.16,1.006c0,0.737,0.329,1.007,0.668,1.007
		c0.389,0,0.847-0.359,1.176-1.026c0.179-0.379,0.508-1.524,0.508-2.112c0-0.638-0.269-0.937-0.627-0.937
		c-0.259,0-0.708,0.149-1.196,0.797c-0.09,0.109-0.09,0.129-0.149,0.349L84.919,41.526z"/>
</g>
<g>
	<rect x="64.329" y="47.328" width="33.36" height="0.574"/>
</g>
<g>
	<path d="M66.811,58.732c-0.101,0.431-0.215,0.861-0.315,1.291c-0.072,0.287-0.201,0.789-0.229,0.86
		c-0.115,0.216-0.316,0.302-0.488,0.302c-0.215,0-0.373-0.158-0.373-0.358c0-0.072,0.158-0.746,0.258-1.119
		c0.072-0.258,0.229-0.903,0.287-1.176c0.129-0.517,0.273-1.033,0.402-1.55c0.101-0.444,0.244-1.004,0.244-1.319
		c0-0.43-0.115-0.659-0.444-0.659c-0.574,0-0.846,0.846-1.062,1.692c-0.086,0.329-0.101,0.344-0.215,0.344
		c-0.1,0-0.158-0.071-0.158-0.129s0.201-0.933,0.459-1.448c0.272-0.546,0.603-0.746,1.019-0.746c0.631,0,1.219,0.444,1.262,1.262
		c0.258-0.358,0.932-1.262,2.209-1.262c1.076,0,1.549,0.616,1.592,1.391c0.574-0.846,1.348-1.391,2.31-1.391
		c1.09,0,1.592,0.646,1.592,1.506c0,0.832-0.646,2.524-0.903,3.213c-0.058,0.158-0.229,0.617-0.229,0.989
		c0,0.459,0.229,0.474,0.373,0.474c0.574,0,1.104-0.603,1.435-1.75c0.072-0.243,0.086-0.287,0.215-0.287
		c0.086,0,0.144,0.058,0.144,0.13c0,0.086-0.502,2.194-1.836,2.194c-0.688,0-1.133-0.517-1.133-1.162
		c0-0.258,0.072-0.444,0.201-0.789c0.315-0.86,0.875-2.424,0.875-3.227c0-0.574-0.201-1.004-0.775-1.004
		c-1.578,0-2.323,1.793-2.352,1.907c-0.215,0.875-0.588,2.353-0.861,3.428c-0.129,0.517-0.201,0.847-0.631,0.847
		c-0.215,0-0.373-0.158-0.373-0.358c0-0.058,0.086-0.431,0.144-0.646c0.029-0.158,0.301-1.22,0.416-1.649
		c0.172-0.688,0.172-0.731,0.358-1.478c0.172-0.674,0.172-0.961,0.172-1.047c0-0.574-0.201-1.004-0.775-1.004
		c-0.559,0-1.047,0.229-1.42,0.573c-0.531,0.459-0.889,1.176-0.918,1.263L66.811,58.732z"/>
</g>
<g>
	<path d="M78.071,60.305c0.13-0.518,0.16-0.628,0.16-0.837c0-0.329-0.11-0.458-0.309-0.458c-0.358,0-0.558,0.478-0.727,1.186
		c-0.06,0.219-0.07,0.229-0.169,0.229c-0.02,0-0.12,0-0.12-0.101c0-0.039,0.139-0.627,0.299-0.966c0.1-0.18,0.289-0.568,0.747-0.568
		c0.458,0,0.867,0.31,0.917,0.867c0.169-0.229,0.658-0.867,1.554-0.867c0.717,0,1.146,0.398,1.146,1.066
		c0,0.568-0.418,1.664-0.608,2.192c-0.09,0.219-0.179,0.458-0.179,0.707c0,0.229,0.07,0.329,0.239,0.329
		c0.488,0,0.817-0.559,1.016-1.235c0.05-0.149,0.05-0.18,0.149-0.18c0.03,0,0.12,0,0.12,0.1c0,0.08-0.369,1.534-1.305,1.534
		c-0.468,0-0.817-0.349-0.817-0.816c0-0.11,0.01-0.229,0.1-0.459c0.159-0.429,0.647-1.704,0.647-2.321
		c0-0.329-0.09-0.697-0.538-0.697c-0.947,0-1.475,0.906-1.624,1.215c-0.01,0.04-0.09,0.329-0.13,0.499
		c-0.05,0.229-0.109,0.448-0.169,0.667c-0.07,0.299-0.15,0.598-0.219,0.897c-0.06,0.249-0.18,0.717-0.189,0.737
		c-0.07,0.199-0.249,0.278-0.369,0.278c-0.149,0-0.289-0.09-0.289-0.269c0-0.05,0.06-0.279,0.09-0.429L78.071,60.305z"/>
</g>
<g>
	<path d="M85.576,58.732c-0.101,0.431-0.215,0.861-0.315,1.291c-0.072,0.287-0.201,0.789-0.229,0.86
		c-0.115,0.216-0.316,0.302-0.488,0.302c-0.215,0-0.373-0.158-0.373-0.358c0-0.072,0.158-0.746,0.258-1.119
		c0.072-0.258,0.229-0.903,0.287-1.176c0.129-0.517,0.272-1.033,0.402-1.55c0.1-0.444,0.244-1.004,0.244-1.319
		c0-0.43-0.115-0.659-0.444-0.659c-0.574,0-0.832,0.817-1.062,1.692c-0.086,0.329-0.101,0.344-0.215,0.344
		c-0.1,0-0.158-0.071-0.158-0.129s0.201-0.918,0.459-1.435c0.244-0.487,0.56-0.76,1.019-0.76c0.631,0,1.219,0.444,1.262,1.262
		c0.258-0.358,0.932-1.262,2.208-1.262c1.09,0,1.592,0.646,1.592,1.506c0,0.817-0.603,2.424-0.889,3.213
		c-0.086,0.201-0.244,0.631-0.244,0.989c0,0.459,0.229,0.474,0.373,0.474c0.56,0,1.104-0.573,1.435-1.75
		c0.072-0.243,0.086-0.287,0.215-0.287c0.086,0,0.144,0.058,0.144,0.13c0,0.086-0.502,2.194-1.836,2.194
		c-0.688,0-1.133-0.517-1.133-1.162c0-0.258,0.071-0.444,0.201-0.789c0.287-0.774,0.875-2.409,0.875-3.227
		c0-0.574-0.201-1.004-0.775-1.004c-0.559,0-1.047,0.229-1.42,0.573c-0.531,0.459-0.889,1.176-0.918,1.263L85.576,58.732z"/>
</g>
<g>
	<path d="M91.848,60.713c-0.1,0-0.189,0-0.189-0.1c0-0.309,0.698-1.823,1.943-1.823c0.688,0,1.086,0.488,1.325,1.097
		c0.388,0.966,0.398,1.724,0.408,2.032c0.398-1.007,0.797-2.003,1.315-2.949c0.03-0.07,0.09-0.07,0.12-0.07c0.02,0,0.12,0,0.12,0.1
		c0,0.04-0.12,0.26-0.189,0.379c-0.398,0.787-1.036,2.272-1.355,3.259c-0.04,0.129-0.06,0.259-0.08,0.389
		c-0.04,0.309-0.139,0.876-0.369,1.713c-0.109,0.379-0.189,0.599-0.319,0.599c-0.08,0-0.129-0.07-0.129-0.18
		c0-0.259,0.299-1.415,0.518-2.143c0.07-0.199,0.12-0.368,0.12-0.977c0-0.787-0.109-2.53-1.614-2.53
		c-0.109,0-1.195,0.01-1.584,1.155L91.848,60.713z"/>
</g>
<g>
	<path d="M103.817,36.304c0.387-0.014,0.875-0.057,1.305-0.688c0.416-0.617,0.459-1.42,0.459-1.692c0-1.406-0.932-1.621-1.405-1.621
		c-0.072,0-1.42,0-1.965,0.975c0.043-0.014,0.072-0.014,0.158-0.014c0.316,0,0.66,0.201,0.66,0.66c0,0.43-0.344,0.646-0.646,0.646
		c-0.215,0-0.66-0.115-0.66-0.688c0-1.047,1.061-1.922,2.496-1.922c1.391,0,2.567,0.832,2.567,1.965
		c0,1.119-0.803,2.166-2.051,2.524c1.377,0.244,2.438,1.276,2.438,2.596c0,1.449-1.262,2.754-2.969,2.754
		c-1.592,0-2.869-1.047-2.869-2.324c0-0.545,0.373-0.746,0.717-0.746c0.402,0,0.703,0.287,0.703,0.703
		c0,0.517-0.416,0.774-0.875,0.703c0.416,0.947,1.592,1.277,2.28,1.277c0.703,0,1.678-0.502,1.678-2.381
		c0-1.377-0.545-2.381-1.764-2.381h-0.66c-0.258,0-0.33,0-0.33-0.143c0-0.129,0.058-0.144,0.301-0.158L103.817,36.304z"/>
</g>
<g>
	<path d="M116.535,40.592c-0.029,0.115-0.029,0.215-0.029,0.229c0,0.144,0,0.258,0.875,0.258c0.215,0,0.344,0,0.344,0.144
		c0,0.272-0.158,0.272-0.272,0.272c-0.272,0-0.574-0.029-0.846-0.029h-1.692c-0.272,0-0.574,0.029-0.832,0.029
		c-0.043,0-0.201,0-0.201-0.144c0-0.272,0.129-0.272,0.301-0.272c0.846-0.014,1.076-0.014,1.233-0.444
		c0.029-0.086,0.76-3.084,1.004-4.031h-4.346l-0.99,3.987c-0.029,0.115-0.029,0.215-0.029,0.229c0,0.144,0,0.258,0.875,0.258
		c0.215,0,0.344,0,0.344,0.144c0,0.272-0.158,0.272-0.272,0.272c-0.273,0-0.574-0.029-0.846-0.029h-1.693
		c-0.272,0-0.574,0.029-0.832,0.029c-0.043,0-0.201,0-0.201-0.144c0-0.272,0.101-0.272,0.431-0.272c0.989,0,1.018-0.144,1.147-0.646
		l1.936-7.717c0.058-0.215,0.058-0.301,0.058-0.33c0-0.158,0-0.272-0.861-0.272c-0.272,0-0.373,0-0.373-0.144
		c0-0.272,0.172-0.272,0.272-0.272c0.273,0,0.574,0.029,0.847,0.029h1.692c0.272,0,0.574-0.029,0.832-0.029
		c0.086,0,0.215,0,0.215,0.158c0,0.258-0.144,0.258-0.401,0.258c-1.019,0-1.047,0.143-1.176,0.631l-0.861,3.442h4.332l0.875-3.471
		c0.057-0.215,0.057-0.301,0.057-0.33c0-0.158,0-0.272-0.86-0.272c-0.273,0-0.373,0-0.373-0.144c0-0.272,0.172-0.272,0.272-0.272
		c0.272,0,0.574,0.029,0.846,0.029h1.692c0.272,0,0.574-0.029,0.832-0.029c0.086,0,0.215,0,0.215,0.158
		c0,0.258-0.144,0.258-0.402,0.258c-1.018,0-1.047,0.143-1.176,0.631L116.535,40.592z"/>
</g>
<g>
	<path d="M124.714,36.29h-3.697c0-0.239,0-0.259,0.11-0.369l1.913-2.132c0.548-0.618,1.046-1.405,1.046-2.202
		c0-0.817-0.428-1.624-1.335-1.624c-0.578,0-1.116,0.369-1.345,1.016c0.03-0.01,0.05-0.01,0.129-0.01
		c0.349,0,0.528,0.259,0.528,0.518c0,0.409-0.349,0.528-0.518,0.528c-0.03,0-0.528,0-0.528-0.558c0-0.887,0.737-1.804,1.863-1.804
		c1.216,0,2.112,0.797,2.112,1.933c0,0.997-0.598,1.535-2.152,2.91l-1.056,1.026h1.793c0.219,0,0.876,0,0.946-0.08
		c0.1-0.149,0.169-0.587,0.219-0.887h0.249L124.714,36.29z"/>
</g>
<g>
	<path d="M123.625,44.106c-0.438,0.946-1.196,1.155-1.734,1.155c-0.488,0-1.215-0.199-1.644-1.006
		c-0.409-0.757-0.448-1.654-0.448-2.401c0-0.797,0.05-1.574,0.369-2.262c0.409-0.927,1.136-1.186,1.734-1.186
		c0.418,0,1.235,0.16,1.694,1.116c0.349,0.737,0.398,1.535,0.398,2.332C123.994,42.642,123.944,43.419,123.625,44.106z
		 M123.057,43.798c0.109-0.638,0.109-1.315,0.109-2.063c0-0.627,0-1.385-0.1-1.943c-0.189-0.986-0.847-1.166-1.176-1.166
		c-0.249,0-0.996,0.09-1.186,1.275c-0.08,0.538-0.08,1.196-0.08,1.833c0,0.588,0,1.504,0.109,2.102
		c0.179,0.957,0.767,1.206,1.156,1.206C122.339,45.043,122.908,44.744,123.057,43.798z"/>
</g>
<g>
	<rect x="100.079" y="47.328" width="26.587" height="0.574"/>
</g>
<g>
	<path d="M106.505,58.661c0,1.506-1.334,2.682-2.926,2.682c-1.463,0-2.912-0.946-2.912-2.467c0-1.047,0.717-2.008,2.108-2.653
		c-1.004-0.703-1.018-0.717-1.176-0.903c-0.402-0.488-0.545-0.976-0.545-1.463c0-1.306,1.119-2.353,2.539-2.353
		c1.319,0,2.524,0.86,2.524,2.108c0,1.205-1.047,1.864-1.764,2.252C105.472,56.553,106.505,57.198,106.505,58.661z M101.327,58.876
		c0,1.19,1.047,2.08,2.266,2.08c1.147,0,2.252-0.746,2.252-1.836c0-0.875-0.66-1.319-1.033-1.563
		c-0.387-0.258-1.349-0.875-1.736-1.133C102.145,56.854,101.327,57.758,101.327,58.876z M104.066,55.663
		c0.832-0.459,1.463-1.161,1.463-2.036c0-1.033-0.918-1.779-1.95-1.779c-0.961,0-1.937,0.588-1.937,1.521
		c0,0.703,0.574,1.076,0.76,1.205L104.066,55.663z"/>
</g>
<g>
	<path d="M109.986,58.876c-0.143,0.574-0.143,0.603-0.373,1.334c-0.172,0.603-0.287,0.976-0.703,0.976
		c-0.129,0-0.387-0.072-0.387-0.373c0-0.086,0-0.115,0.115-0.344c1.176-2.511,1.535-3.759,1.851-4.834h-0.818
		c-0.358,0-1.104,0-1.85,1.176c-0.072,0.086-0.086,0.129-0.187,0.129c-0.086,0-0.158-0.028-0.158-0.114s0.459-0.847,0.832-1.263
		c0.66-0.702,1.147-0.702,1.478-0.702h4.719c0.258,0,0.531,0,0.531,0.315c0,0.459-0.473,0.459-0.66,0.459h-1.606
		c-0.301,1.291-0.301,2.309-0.301,2.396c0,0.1,0,1.334,0.387,2.323c0.101,0.215,0.101,0.244,0.101,0.315
		c0,0.244-0.258,0.517-0.56,0.517c-0.588,0-0.588-1.549-0.588-1.75c0-1.147,0.244-2.194,0.631-3.801h-1.621L109.986,58.876z"/>
	<path d="M125.384,54.73c-0.057,0.259-0.072,0.273-0.229,0.273c-0.043,0-0.187,0-0.187-0.13c0-0.2,0.058-0.516,0.058-0.745
		c0-1.32-0.603-2.769-2.295-2.769c-1.262,0-2.596,0.703-3.5,1.735c-1.391,1.621-1.735,3.815-1.735,4.776
		c0,2.481,1.793,3.056,2.897,3.056c0.846,0,1.979-0.33,2.524-1.134c0.272-0.43,0.545-1.879,0.545-1.894c0-0.215,0-0.329-1.133-0.329
		h-0.358c0-0.015-0.115-0.015-0.115-0.158c0-0.258,0.172-0.258,0.301-0.258c0.588,0,1.219,0.028,1.821,0.028h0.775
		c0.258,0,0.53-0.028,0.774-0.028c0.043,0,0.187,0,0.187,0.144c0,0.272-0.172,0.272-0.229,0.272
		c-0.789,0.014-0.818,0.057-0.961,0.603c-0.101,0.43-0.158,0.631-0.272,1.104l-0.229,0.918c-0.072,0.259-0.187,0.761-0.201,0.789
		c-0.014,0-0.028,0.043-0.1,0.043c-0.101,0-0.416-0.387-0.574-0.932c-0.717,0.903-2.022,1.247-3.055,1.247
		c-2.152,0-3.787-1.52-3.787-3.887c0-3.385,3.227-6.512,6.296-6.512c0.215,0,0.832,0,1.449,0.388
		c0.56,0.329,0.846,0.831,0.918,0.946l0.99-1.19c0.115-0.144,0.172-0.144,0.201-0.144c0.029,0,0.129,0,0.129,0.129L125.384,54.73z"
		/>
</g>
</svg>
