<?xml version="1.0" encoding="iso-8859-1"?>
<!-- Generator: Adobe Illustrator 16.0.0, SVG Export Plug-In . SVG Version: 6.00 Build 0)  -->
<!DOCTYPE svg PUBLIC "-//W3C//DTD SVG 1.1//EN" "http://www.w3.org/Graphics/SVG/1.1/DTD/svg11.dtd">
<svg version="1.1" id="Layer_1" xmlns="http://www.w3.org/2000/svg" xmlns:xlink="http://www.w3.org/1999/xlink" x="0px" y="0px"
	 width="566.929px" height="85.039px" viewBox="0 0 566.929 85.039" style="enable-background:new 0 0 566.929 85.039;"
	 xml:space="preserve">
<g>
	<path d="M28.583,36.462c-0.101,0.43-0.215,0.86-0.315,1.291c-0.072,0.287-0.201,0.789-0.229,0.861
		c-0.115,0.215-0.316,0.301-0.488,0.301c-0.215,0-0.373-0.158-0.373-0.359c0-0.071,0.158-0.746,0.258-1.119
		c0.072-0.258,0.229-0.904,0.287-1.176c0.129-0.516,0.272-1.033,0.402-1.549c0.1-0.445,0.244-1.004,0.244-1.32
		c0-0.43-0.115-0.66-0.444-0.66c-0.574,0-0.832,0.817-1.062,1.692c-0.086,0.33-0.101,0.344-0.215,0.344
		c-0.1,0-0.158-0.072-0.158-0.129s0.201-0.918,0.459-1.434c0.244-0.488,0.56-0.76,1.019-0.76c0.631,0,1.219,0.444,1.262,1.262
		c0.258-0.359,0.932-1.262,2.208-1.262c1.09,0,1.592,0.645,1.592,1.506c0,0.817-0.603,2.424-0.889,3.213
		c-0.086,0.201-0.244,0.631-0.244,0.99c0,0.459,0.229,0.473,0.373,0.473c0.56,0,1.104-0.574,1.435-1.75
		c0.072-0.244,0.086-0.287,0.215-0.287c0.086,0,0.144,0.058,0.144,0.129c0,0.086-0.502,2.195-1.836,2.195
		c-0.688,0-1.133-0.517-1.133-1.162c0-0.258,0.071-0.444,0.201-0.789c0.287-0.774,0.875-2.41,0.875-3.228
		c0-0.574-0.201-1.004-0.775-1.004c-0.559,0-1.047,0.229-1.42,0.574c-0.531,0.459-0.889,1.176-0.918,1.262L28.583,36.462z"/>
</g>
<g>
	<path d="M35.941,38.033c0.13-0.518,0.16-0.627,0.16-0.837c0-0.329-0.11-0.458-0.309-0.458c-0.358,0-0.558,0.479-0.727,1.186
		c-0.06,0.219-0.07,0.229-0.169,0.229c-0.02,0-0.12,0-0.12-0.1c0-0.04,0.139-0.628,0.299-0.966c0.1-0.18,0.289-0.568,0.747-0.568
		c0.458,0,0.867,0.309,0.917,0.867c0.169-0.229,0.658-0.867,1.554-0.867c0.717,0,1.146,0.399,1.146,1.066
		c0,0.568-0.418,1.664-0.608,2.192c-0.09,0.219-0.179,0.458-0.179,0.708c0,0.229,0.07,0.329,0.239,0.329
		c0.488,0,0.817-0.558,1.016-1.236c0.05-0.149,0.05-0.179,0.149-0.179c0.03,0,0.12,0,0.12,0.1c0,0.08-0.369,1.534-1.305,1.534
		c-0.468,0-0.817-0.349-0.817-0.817c0-0.109,0.01-0.229,0.1-0.458c0.16-0.428,0.648-1.704,0.648-2.321
		c0-0.329-0.09-0.698-0.538-0.698c-0.947,0-1.475,0.907-1.624,1.216c-0.01,0.04-0.09,0.329-0.13,0.498
		c-0.05,0.229-0.109,0.449-0.169,0.667c-0.07,0.299-0.15,0.598-0.219,0.897c-0.06,0.249-0.18,0.717-0.189,0.737
		c-0.07,0.199-0.249,0.279-0.369,0.279c-0.149,0-0.289-0.089-0.289-0.269c0-0.05,0.06-0.279,0.09-0.429L35.941,38.033z"/>
</g>
<g>
	<rect x="26.102" y="44.603" width="14.863" height="0.574"/>
</g>
<g>
	<path d="M29.067,56.009c-0.101,0.431-0.215,0.861-0.315,1.291c-0.072,0.287-0.201,0.789-0.229,0.86
		c-0.115,0.216-0.316,0.302-0.488,0.302c-0.215,0-0.373-0.158-0.373-0.358c0-0.072,0.158-0.746,0.258-1.119
		c0.072-0.258,0.229-0.903,0.287-1.176c0.129-0.517,0.273-1.033,0.402-1.55c0.101-0.444,0.244-1.004,0.244-1.319
		c0-0.43-0.115-0.659-0.444-0.659c-0.574,0-0.832,0.817-1.062,1.692c-0.086,0.33-0.101,0.344-0.215,0.344
		c-0.1,0-0.158-0.071-0.158-0.129s0.201-0.918,0.459-1.435c0.244-0.487,0.56-0.76,1.019-0.76c0.631,0,1.219,0.444,1.262,1.262
		c0.258-0.358,0.932-1.262,2.209-1.262c1.09,0,1.592,0.646,1.592,1.506c0,0.817-0.603,2.424-0.889,3.213
		c-0.086,0.201-0.244,0.631-0.244,0.989c0,0.459,0.229,0.474,0.373,0.474c0.56,0,1.104-0.573,1.435-1.75
		c0.072-0.243,0.086-0.286,0.215-0.286c0.086,0,0.144,0.057,0.144,0.129c0,0.086-0.502,2.194-1.836,2.194
		c-0.688,0-1.133-0.517-1.133-1.162c0-0.258,0.072-0.444,0.201-0.789c0.287-0.774,0.875-2.409,0.875-3.227
		c0-0.574-0.201-1.004-0.775-1.004c-0.559,0-1.047,0.229-1.42,0.573c-0.531,0.459-0.889,1.176-0.918,1.263L29.067,56.009z"/>
</g>
<g>
	<path d="M36.536,57.25c0.04-0.169,0.07-0.278,0.07-0.508c0-0.379-0.14-0.458-0.309-0.458c-0.359,0-0.558,0.478-0.728,1.186
		c-0.06,0.219-0.069,0.229-0.169,0.229c-0.02,0-0.119,0-0.119-0.1c0-0.03,0.129-0.628,0.309-0.967
		c0.09-0.18,0.279-0.568,0.737-0.568c0.369,0,0.797,0.209,0.897,0.747c0.329-0.388,0.807-0.747,1.305-0.747
		c0.757,0,1.325,0.658,1.325,1.595c0,1.465-1.246,2.919-2.401,2.919c-0.508,0-0.787-0.349-0.917-0.638
		c-0.07,0.249-0.488,1.873-0.488,1.993c0,0.09,0,0.159,0.498,0.159c0.14,0,0.239,0,0.239,0.109c0,0.199-0.129,0.199-0.179,0.199
		c-0.319,0-0.658-0.029-0.987-0.029c-0.279,0-0.568,0.029-0.837,0.029c-0.08,0-0.129-0.039-0.129-0.119
		c0-0.189,0.109-0.189,0.229-0.189c0.438,0,0.458-0.069,0.538-0.408L36.536,57.25z M36.685,59.312c-0.03,0.12-0.03,0.14-0.03,0.16
		c0,0.06,0.129,0.887,0.787,0.887c0.369,0,0.847-0.329,1.186-1.026c0.179-0.379,0.508-1.524,0.508-2.112s-0.239-0.937-0.638-0.937
		c-0.169,0-0.458,0.069-0.807,0.378c-0.179,0.149-0.448,0.429-0.518,0.698L36.685,59.312z"/>
</g>
<g>
	<path d="M47.379,43.83c-0.215,0-0.459,0-0.459-0.272c0-0.258,0.258-0.258,0.459-0.258h8.448c0.215,0,0.459,0,0.459,0.272
		c0,0.258-0.258,0.258-0.459,0.258H47.379z M47.379,46.498c-0.215,0-0.459,0-0.459-0.272c0-0.258,0.258-0.258,0.459-0.258h8.448
		c0.215,0,0.459,0,0.459,0.272c0,0.258-0.258,0.258-0.459,0.258H47.379z"/>
</g>
<g>
	<path d="M62.863,45.15c-0.215,0.918-0.215,1.276-0.215,1.477c0,1.062,0.43,1.707,1.248,1.707c0.545,0,1.908-0.215,2.826-1.435
		c0.129-0.129,0.144-0.144,0.187-0.144c0.058,0,0.144,0.072,0.144,0.158c0,0.187-1.233,1.707-3.185,1.707
		c-1.305,0-2.166-1.047-2.166-2.553c0-2.554,2.166-3.916,3.672-3.916c0.947,0,1.492,0.574,1.492,1.205
		c0,0.258-0.101,1.09-1.19,1.506c-0.688,0.258-1.664,0.287-2.051,0.287H62.863z M63.538,44.863c0.603,0,2.897,0,2.897-1.506
		c0-0.545-0.431-0.918-1.062-0.918c-0.459,0-1.822,0.215-2.438,2.424H63.538z"/>
</g>
<g>
	<path d="M70.765,45.044c-0.1,0-0.957-0.647-1.554-1.873c-0.548-1.126-0.658-2.332-0.658-3.109c0-0.837,0.12-1.943,0.628-3.039
		c0.588-1.266,1.484-1.943,1.584-1.943c0.06,0,0.1,0.03,0.1,0.1c0,0.03,0,0.05-0.129,0.169c-1.226,1.246-1.604,2.979-1.604,4.713
		c0,1.525,0.319,3.408,1.564,4.664c0.169,0.169,0.169,0.189,0.169,0.219C70.865,45.015,70.825,45.044,70.765,45.044z"/>
</g>
<g>
	<path d="M72.896,39.664c0.13-0.518,0.16-0.627,0.16-0.837c0-0.378-0.149-0.458-0.309-0.458c-0.358,0-0.558,0.479-0.727,1.186
		c-0.06,0.219-0.07,0.229-0.169,0.229c-0.02,0-0.12,0-0.12-0.1c0-0.03,0.129-0.618,0.309-0.966c0.09-0.18,0.279-0.568,0.737-0.568
		c0.449,0,0.867,0.299,0.917,0.867c0.169-0.229,0.658-0.867,1.554-0.867c0.249,0,0.568,0.05,0.817,0.259
		c0.279,0.239,0.309,0.578,0.318,0.708c0.369-0.528,0.877-0.967,1.625-0.967c0.747,0,1.146,0.418,1.146,1.066
		c0,0.568-0.418,1.674-0.607,2.192c-0.09,0.219-0.18,0.458-0.18,0.708c0,0.229,0.07,0.329,0.239,0.329
		c0.548,0,0.867-0.708,1.017-1.236c0.05-0.149,0.05-0.179,0.149-0.179c0.03,0,0.12,0,0.12,0.1c0,0.08-0.369,1.534-1.306,1.534
		c-0.468,0-0.817-0.349-0.817-0.817c0-0.199,0.04-0.309,0.129-0.548c0.199-0.528,0.618-1.664,0.618-2.232
		c0-0.359-0.109-0.698-0.538-0.698c-1.086,0-1.614,1.196-1.645,1.325c-0.089,0.389-0.458,1.844-0.598,2.401
		c-0.08,0.319-0.14,0.568-0.448,0.568c-0.149,0-0.289-0.089-0.289-0.269c0-0.05,0.09-0.388,0.129-0.587
		c0.09-0.329,0.1-0.389,0.199-0.757c0.11-0.449,0.16-0.648,0.279-1.156c0.08-0.299,0.149-0.578,0.149-0.827
		c0-0.329-0.09-0.698-0.538-0.698c-0.947,0-1.475,0.907-1.624,1.216c-0.01,0.04-0.09,0.329-0.13,0.498
		c-0.05,0.229-0.109,0.449-0.169,0.667c-0.07,0.299-0.15,0.598-0.219,0.897c-0.06,0.249-0.18,0.717-0.189,0.737
		c-0.07,0.199-0.249,0.279-0.369,0.279c-0.149,0-0.289-0.089-0.289-0.269c0-0.05,0.06-0.279,0.09-0.428L72.896,39.664z"/>
</g>
<g>
	<path d="M81.263,42.716c0.035-0.153,0.105-0.439,0.153-0.627c0.049-0.188,0.112-0.446,0.112-0.579c0-0.188-0.049-0.342-0.23-0.342
		c-0.272,0-0.405,0.342-0.509,0.753c-0.049,0.188-0.056,0.209-0.153,0.209c-0.021,0-0.119,0-0.119-0.091
		c0-0.035,0.098-0.432,0.251-0.69c0.091-0.16,0.251-0.376,0.551-0.376c0.286,0,0.697,0.153,0.746,0.635
		c0.209-0.279,0.6-0.635,1.178-0.635c0.37,0,0.907,0.119,0.907,0.795c0,0.391-0.286,1.13-0.37,1.346
		c-0.125,0.313-0.161,0.404-0.161,0.565c0,0.146,0.028,0.243,0.174,0.243c0.279,0,0.579-0.285,0.739-0.844
		c0.028-0.076,0.035-0.118,0.133-0.118c0.021,0,0.111,0,0.111,0.091c0,0.104-0.307,1.066-1.004,1.066
		c-0.356,0-0.663-0.229-0.663-0.6c0-0.118,0.028-0.181,0.104-0.376c0.112-0.293,0.412-1.067,0.412-1.485
		c0-0.133-0.007-0.488-0.412-0.488c-0.523,0-0.851,0.362-1.046,0.642c-0.202,0.286-0.216,0.342-0.293,0.627
		c-0.035,0.161-0.077,0.314-0.119,0.467c-0.042,0.174-0.118,0.495-0.153,0.628c-0.035,0.146-0.091,0.369-0.125,0.432
		c-0.035,0.063-0.146,0.153-0.272,0.153c-0.111,0-0.237-0.069-0.237-0.223c0-0.021,0.042-0.195,0.07-0.286L81.263,42.716z"/>
</g>
<g>
	<path d="M86.768,40.262c-0.14,0-0.329,0-0.329-0.2c0-0.199,0.189-0.199,0.329-0.199h5.431c0.139,0,0.329,0,0.329,0.199
		c0,0.2-0.189,0.2-0.329,0.2H86.768z"/>
</g>
<g>
	<path d="M94.814,39.664c0.13-0.518,0.16-0.627,0.16-0.837c0-0.378-0.149-0.458-0.309-0.458c-0.358,0-0.558,0.479-0.727,1.186
		c-0.06,0.219-0.07,0.229-0.169,0.229c-0.02,0-0.12,0-0.12-0.1c0-0.03,0.129-0.618,0.309-0.966c0.09-0.18,0.279-0.568,0.737-0.568
		c0.449,0,0.867,0.299,0.917,0.867c0.169-0.229,0.658-0.867,1.554-0.867c0.249,0,0.568,0.05,0.817,0.259
		c0.279,0.239,0.309,0.578,0.318,0.708c0.369-0.528,0.877-0.967,1.625-0.967c0.747,0,1.146,0.418,1.146,1.066
		c0,0.568-0.418,1.674-0.607,2.192c-0.09,0.219-0.18,0.458-0.18,0.708c0,0.229,0.07,0.329,0.239,0.329
		c0.548,0,0.867-0.708,1.017-1.236c0.05-0.149,0.05-0.179,0.149-0.179c0.03,0,0.12,0,0.12,0.1c0,0.08-0.369,1.534-1.306,1.534
		c-0.468,0-0.817-0.349-0.817-0.817c0-0.199,0.04-0.309,0.129-0.548c0.199-0.528,0.618-1.664,0.618-2.232
		c0-0.359-0.109-0.698-0.538-0.698c-1.086,0-1.614,1.196-1.645,1.325c-0.089,0.389-0.458,1.844-0.598,2.401
		c-0.08,0.319-0.14,0.568-0.448,0.568c-0.149,0-0.289-0.089-0.289-0.269c0-0.05,0.09-0.388,0.129-0.587
		c0.09-0.329,0.1-0.389,0.199-0.757c0.11-0.449,0.16-0.648,0.279-1.156c0.08-0.299,0.149-0.578,0.149-0.827
		c0-0.329-0.09-0.698-0.538-0.698c-0.947,0-1.475,0.907-1.624,1.216c-0.01,0.04-0.09,0.329-0.13,0.498
		c-0.05,0.229-0.109,0.449-0.169,0.667c-0.07,0.299-0.15,0.598-0.219,0.897c-0.06,0.249-0.18,0.717-0.189,0.737
		c-0.07,0.199-0.249,0.279-0.369,0.279c-0.149,0-0.289-0.089-0.289-0.269c0-0.05,0.06-0.279,0.09-0.428L94.814,39.664z"/>
</g>
<g>
	<path d="M103.426,41.719c0.007-0.042,0.021-0.132,0.021-0.209c0-0.188-0.049-0.342-0.23-0.342c-0.272,0-0.405,0.349-0.509,0.753
		c-0.049,0.188-0.056,0.209-0.153,0.209c-0.021,0-0.119,0-0.119-0.091c0-0.042,0.112-0.46,0.251-0.697
		c0.112-0.188,0.279-0.37,0.551-0.37c0.209,0,0.6,0.091,0.718,0.488c0.188-0.195,0.558-0.488,0.99-0.488
		c0.481,0,1.046,0.349,1.046,1.165c0,1.039-0.941,1.98-1.792,1.98c-0.418,0-0.634-0.271-0.718-0.411
		c-0.077,0.293-0.174,0.67-0.258,1.039c-0.028,0.104-0.077,0.286-0.077,0.321c0,0.083,0.188,0.083,0.342,0.083
		c0.083,0,0.181,0,0.181,0.098c0,0.133-0.077,0.153-0.14,0.153c-0.23,0-0.495-0.027-0.732-0.027c-0.188,0-0.418,0.027-0.6,0.027
		c-0.035,0-0.098-0.027-0.098-0.104c0-0.146,0.098-0.146,0.188-0.146c0.279,0,0.293-0.056,0.342-0.251L103.426,41.719z
		 M103.6,43.211c-0.007,0.028-0.021,0.077-0.021,0.104c0,0.07,0.125,0.606,0.621,0.606c0.356,0,0.698-0.334,0.872-0.676
		c0.209-0.405,0.362-1.116,0.362-1.402c0-0.474-0.237-0.676-0.509-0.676c-0.223,0-0.572,0.104-0.977,0.642L103.6,43.211z"/>
</g>
<g>
	<path d="M108.965,43.102c-0.588,1.265-1.485,1.942-1.584,1.942c-0.06,0-0.1-0.04-0.1-0.1c0-0.029,0-0.05,0.129-0.169
		c1.236-1.256,1.604-3.009,1.604-4.713c0-2.082-0.568-3.667-1.544-4.653c-0.189-0.18-0.189-0.199-0.189-0.229
		c0-0.06,0.04-0.1,0.1-0.1c0.1,0,0.957,0.648,1.555,1.874c0.548,1.126,0.657,2.332,0.657,3.108
		C109.592,40.899,109.473,42.005,108.965,43.102z"/>
</g>
<g>
	<path d="M111.553,44.805c-0.06,0.17-0.089,0.239-0.219,0.239c-0.109,0-0.199-0.09-0.199-0.199c0-0.01,0-0.05,0.05-0.179
		l3.458-9.496c0.03-0.06,0.1-0.09,0.169-0.09c0.11,0,0.199,0.09,0.199,0.199c0,0.01,0,0.05-0.05,0.18L111.553,44.805z"/>
	<path d="M118.498,41.796c-0.04,0.149-0.04,0.199-0.04,0.209c0,0.159,0.08,0.189,0.369,0.219c0.259,0.02,0.389,0.02,0.638,0.02
		c0.259,0,0.339,0,0.339,0.11c0,0.199-0.12,0.199-0.219,0.199c-0.279,0-0.578-0.02-0.867-0.02c-0.269,0-0.548-0.01-0.827-0.01
		c-0.279,0-0.568,0.01-0.847,0.01c-0.269,0-0.548,0.02-0.817,0.02c-0.06,0-0.169,0-0.169-0.12c0-0.189,0.06-0.189,0.418-0.189
		c1.066,0,1.096-0.109,1.186-0.478l1.335-5.321c0.01-0.03,0.04-0.149,0.04-0.209c0-0.08,0-0.119-0.279-0.119h-0.389
		c-1.475,0-1.734,0.179-2.271,1.724c-0.06,0.159-0.07,0.209-0.169,0.209c-0.07,0-0.12-0.05-0.12-0.109c0-0.02,0.05-0.16,0.06-0.179
		l0.598-1.754c0.069-0.189,0.08-0.199,0.319-0.199h5.53c0.169,0,0.269,0,0.269,0.109c0,0.03-0.01,0.13-0.02,0.169l-0.269,1.734
		c-0.02,0.149-0.04,0.229-0.149,0.229c-0.09,0-0.12-0.069-0.12-0.129c0-0.03,0.02-0.149,0.03-0.189
		c0.04-0.259,0.08-0.647,0.08-0.797c0-0.777-0.449-0.817-1.455-0.817c-0.209,0-0.538,0-0.627,0.02c-0.12,0.03-0.16,0.09-0.229,0.369
		L118.498,41.796z"/>
</g>
<g>
	<path d="M126.849,43.052c0,0.14,0,0.328-0.199,0.328s-0.199-0.188-0.199-0.328v-2.79h-2.79c-0.14,0-0.329,0-0.329-0.2
		c0-0.199,0.189-0.199,0.329-0.199h2.79v-2.79c0-0.14,0-0.329,0.199-0.329s0.199,0.189,0.199,0.329v2.79h2.78
		c0.14,0,0.329,0,0.329,0.199c0,0.2-0.189,0.2-0.329,0.2h-2.78V43.052z"/>
	<path d="M133.721,45.044c-0.1,0-0.957-0.647-1.554-1.873c-0.548-1.126-0.658-2.332-0.658-3.109c0-0.837,0.12-1.943,0.628-3.039
		c0.588-1.266,1.484-1.943,1.584-1.943c0.06,0,0.1,0.03,0.1,0.1c0,0.03,0,0.05-0.129,0.169c-1.226,1.246-1.604,2.979-1.604,4.713
		c0,1.525,0.319,3.408,1.564,4.664c0.169,0.169,0.169,0.189,0.169,0.219C133.82,45.015,133.781,45.044,133.721,45.044z"/>
</g>
<g>
	<path d="M136.28,40.73c-0.07,0.279-0.14,0.558-0.14,0.847c0,0.538,0.239,0.867,0.737,0.867c0.807,0,1.286-0.907,1.295-0.957
		c0.03-0.1,0.14-0.519,0.259-1.017c0.149-0.618,0.338-1.365,0.468-1.863c0.08-0.339,0.338-0.349,0.388-0.349
		c0.15,0,0.289,0.09,0.289,0.269c0,0.06-0.1,0.438-0.149,0.667c-0.04,0.149-0.14,0.528-0.169,0.678
		c-0.089,0.358-0.189,0.717-0.279,1.076c-0.08,0.349-0.199,0.817-0.199,1.036c0,0.199,0.03,0.458,0.299,0.458
		c0.409,0,0.588-0.588,0.757-1.236c0.03-0.14,0.04-0.179,0.139-0.179c0.03,0,0.12,0,0.12,0.1c0,0.02-0.129,0.627-0.299,0.986
		c-0.159,0.319-0.389,0.548-0.737,0.548c-0.438,0-0.807-0.279-0.896-0.727c-0.239,0.279-0.628,0.727-1.325,0.727
		c-0.2,0-0.648-0.04-0.967-0.309c-0.378,1.535-0.508,2.052-0.548,2.142c-0.02,0.03-0.14,0.209-0.349,0.209
		c-0.169,0-0.279-0.119-0.279-0.269c0-0.021,0-0.04,0.03-0.159l1.435-5.77c0.09-0.349,0.369-0.359,0.398-0.359
		c0.169,0,0.289,0.1,0.289,0.269c0,0.05-0.1,0.429-0.149,0.638L136.28,40.73z"/>
</g>
<g>
	<path d="M141.522,42.458c-0.083,0.383-0.083,0.523-0.083,0.62c0,0.565,0.279,0.844,0.697,0.844c0.125,0,0.941,0,1.485-0.641
		c0.056-0.057,0.07-0.07,0.111-0.07c0.056,0,0.119,0.077,0.119,0.119c0,0.097-0.551,0.787-1.729,0.787
		c-0.815,0-1.255-0.606-1.255-1.311c0-1.192,1.129-1.834,1.966-1.834c0.481,0,0.865,0.23,0.865,0.614
		c0,0.209-0.098,0.544-0.614,0.725c-0.376,0.132-0.927,0.146-1.123,0.146H141.522z M141.92,42.263c0.3,0,1.479,0,1.479-0.676
		c0-0.265-0.258-0.418-0.565-0.418c-0.195,0-0.969,0.083-1.255,1.095H141.92z"/>
</g>
<g>
	<path d="M145.834,40.262c-0.14,0-0.329,0-0.329-0.2c0-0.199,0.189-0.199,0.329-0.199h5.431c0.139,0,0.329,0,0.329,0.199
		c0,0.2-0.189,0.2-0.329,0.2H145.834z"/>
</g>
<g>
	<path d="M154.31,40.73c-0.07,0.279-0.14,0.558-0.14,0.847c0,0.538,0.239,0.867,0.737,0.867c0.807,0,1.286-0.907,1.295-0.957
		c0.03-0.1,0.14-0.519,0.259-1.017c0.149-0.618,0.338-1.365,0.468-1.863c0.08-0.339,0.338-0.349,0.388-0.349
		c0.15,0,0.289,0.09,0.289,0.269c0,0.06-0.1,0.438-0.149,0.667c-0.04,0.149-0.14,0.528-0.169,0.678
		c-0.089,0.358-0.189,0.717-0.279,1.076c-0.08,0.349-0.199,0.817-0.199,1.036c0,0.199,0.03,0.458,0.299,0.458
		c0.409,0,0.588-0.588,0.757-1.236c0.03-0.14,0.04-0.179,0.14-0.179c0.03,0,0.119,0,0.119,0.1c0,0.02-0.129,0.627-0.299,0.986
		c-0.159,0.319-0.389,0.548-0.737,0.548c-0.438,0-0.807-0.279-0.896-0.727c-0.239,0.279-0.628,0.727-1.325,0.727
		c-0.2,0-0.648-0.04-0.967-0.309c-0.378,1.535-0.508,2.052-0.548,2.142c-0.02,0.03-0.14,0.209-0.349,0.209
		c-0.169,0-0.279-0.119-0.279-0.269c0-0.021,0-0.04,0.03-0.159l1.435-5.77c0.09-0.349,0.369-0.359,0.398-0.359
		c0.169,0,0.289,0.1,0.289,0.269c0,0.05-0.1,0.429-0.149,0.638L154.31,40.73z"/>
</g>
<g>
	<path d="M159.532,43.769c1.186-0.349,2.12-1.415,2.399-2.405c0.063-0.195,0.112-0.391,0.356-0.391c0.139,0,0.237,0.098,0.237,0.223
		c0,0.014-0.14,0.92-1.088,1.764c-0.746,0.662-1.632,0.99-2.252,1.088h-0.111c-0.028,0-0.132,0-0.132-0.098
		c0-0.028,0.035-0.167,0.209-0.864c0.104-0.405,0.237-0.956,0.349-1.409c0.028-0.09,0.063-0.23,0.063-0.272
		c0-0.062,0-0.104-0.335-0.104c-0.083,0-0.181,0-0.181-0.098c0-0.146,0.083-0.153,0.195-0.16c0.132-0.014,0.258-0.021,0.39-0.035
		c0.049,0,0.446-0.035,0.454-0.035c0.111,0,0.111,0.091,0.111,0.098c0,0.035-0.007,0.077-0.014,0.104L159.532,43.769z"/>
</g>
<g>
	<path d="M163.546,43.454c-0.083,0.384-0.083,0.522-0.083,0.62c0,0.565,0.279,0.844,0.697,0.844c0.125,0,0.941,0,1.485-0.641
		c0.056-0.057,0.07-0.07,0.111-0.07c0.056,0,0.119,0.077,0.119,0.119c0,0.097-0.551,0.787-1.729,0.787
		c-0.815,0-1.255-0.606-1.255-1.311c0-1.192,1.129-1.834,1.966-1.834c0.481,0,0.865,0.23,0.865,0.614
		c0,0.209-0.098,0.543-0.614,0.725c-0.376,0.133-0.927,0.146-1.123,0.146H163.546z M163.944,43.259c0.3,0,1.479,0,1.479-0.676
		c0-0.265-0.258-0.418-0.565-0.418c-0.195,0-0.969,0.083-1.255,1.095H163.944z"/>
</g>
<g>
	<path d="M169.452,43.102c-0.588,1.265-1.485,1.942-1.584,1.942c-0.06,0-0.1-0.04-0.1-0.1c0-0.029,0-0.05,0.129-0.169
		c1.236-1.256,1.604-3.009,1.604-4.713c0-2.082-0.568-3.667-1.544-4.653c-0.189-0.18-0.189-0.199-0.189-0.229
		c0-0.06,0.04-0.1,0.1-0.1c0.1,0,0.957,0.648,1.555,1.874c0.548,1.126,0.657,2.332,0.657,3.108
		C170.08,40.899,169.96,42.005,169.452,43.102z"/>
</g>
<g>
	<path d="M172.042,44.805c-0.06,0.17-0.089,0.239-0.219,0.239c-0.109,0-0.199-0.09-0.199-0.199c0-0.01,0-0.05,0.05-0.179
		l3.458-9.496c0.03-0.06,0.1-0.09,0.169-0.09c0.11,0,0.199,0.09,0.199,0.199c0,0.01,0,0.05-0.05,0.18L172.042,44.805z"/>
	<path d="M178.986,41.796c-0.04,0.149-0.04,0.199-0.04,0.209c0,0.159,0.08,0.189,0.369,0.219c0.259,0.02,0.389,0.02,0.638,0.02
		c0.259,0,0.339,0,0.339,0.11c0,0.199-0.12,0.199-0.219,0.199c-0.279,0-0.578-0.02-0.867-0.02c-0.269,0-0.548-0.01-0.827-0.01
		c-0.279,0-0.568,0.01-0.847,0.01c-0.269,0-0.548,0.02-0.817,0.02c-0.06,0-0.169,0-0.169-0.12c0-0.189,0.06-0.189,0.418-0.189
		c1.066,0,1.096-0.109,1.186-0.478l1.335-5.321c0.01-0.03,0.04-0.149,0.04-0.209c0-0.08,0-0.119-0.279-0.119h-0.389
		c-1.475,0-1.734,0.179-2.271,1.724c-0.06,0.159-0.07,0.209-0.169,0.209c-0.07,0-0.12-0.05-0.12-0.109c0-0.02,0.05-0.16,0.06-0.179
		l0.598-1.754c0.069-0.189,0.08-0.199,0.319-0.199h5.53c0.169,0,0.269,0,0.269,0.109c0,0.03-0.01,0.13-0.02,0.169l-0.269,1.734
		c-0.02,0.149-0.04,0.229-0.149,0.229c-0.09,0-0.12-0.069-0.12-0.129c0-0.03,0.02-0.149,0.03-0.189
		c0.04-0.259,0.08-0.647,0.08-0.797c0-0.777-0.449-0.817-1.455-0.817c-0.209,0-0.538,0-0.627,0.02c-0.12,0.03-0.16,0.09-0.229,0.369
		L178.986,41.796z"/>
</g>
</svg>
