<?xml version="1.0" encoding="iso-8859-1"?>
<!-- Generator: Adobe Illustrator 16.0.0, SVG Export Plug-In . SVG Version: 6.00 Build 0)  -->
<!DOCTYPE svg PUBLIC "-//W3C//DTD SVG 1.1//EN" "http://www.w3.org/Graphics/SVG/1.1/DTD/svg11.dtd">
<svg version="1.1" id="Layer_1" xmlns="http://www.w3.org/2000/svg" xmlns:xlink="http://www.w3.org/1999/xlink" x="0px" y="0px"
	 width="566.929px" height="85.039px" viewBox="0 0 566.929 85.039" style="enable-background:new 0 0 566.929 85.039;"
	 xml:space="preserve">
<g>
	<path d="M30.602,47.007c0.344,0.474,0.473,1.019,0.473,1.577c0,2.152-1.85,3.974-3.542,3.974c-1.291,0-2.08-1.019-2.08-2.237
		c0-1.693,1.549-4.088,3.701-4.088h3.17c0.258,0,0.531,0,0.531,0.315c0,0.459-0.474,0.459-0.66,0.459H30.602z M29.483,50.951
		c0.502-0.832,0.731-2.037,0.731-2.539c0-1.104-0.688-1.405-1.305-1.405c-2.108,0-2.625,2.854-2.625,3.715
		c0,0.989,0.531,1.549,1.262,1.549C28.192,52.271,28.966,51.797,29.483,50.951z"/>
</g>
<g>
	<path d="M35.88,52.922c-0.11,0.438-0.169,0.658-0.169,0.877c0,0.339,0.159,0.658,0.548,0.658c0.319,0,0.997-0.239,1.325-1.306
		c0.02-0.069,0.04-0.109,0.13-0.109c0.03,0,0.119,0,0.119,0.1c0,0.249-0.568,1.534-1.594,1.534c-0.598,0-0.957-0.389-1.076-0.757
		c-0.03,0.06-0.389,0.757-1.046,0.757c-0.438,0-0.937-0.199-0.937-0.657c0-0.319,0.249-0.578,0.548-0.578
		c0.149,0,0.369,0.08,0.369,0.349c0,0.279-0.219,0.488-0.468,0.538c0.209,0.13,0.438,0.13,0.498,0.13
		c0.438,0,0.787-0.419,0.947-1.036c0.369-1.396,0.538-2.062,0.538-2.372c0-0.577-0.349-0.667-0.538-0.667
		c-0.339,0-0.997,0.249-1.335,1.305c-0.02,0.09-0.05,0.11-0.13,0.11c-0.02,0-0.12,0-0.12-0.1c0-0.25,0.568-1.535,1.604-1.535
		c0.289,0,0.827,0.1,1.076,0.758c0.12-0.229,0.468-0.758,1.046-0.758c0.339,0,0.927,0.14,0.927,0.658
		c0,0.398-0.319,0.577-0.538,0.577c-0.269,0-0.378-0.188-0.378-0.349c0-0.239,0.199-0.488,0.478-0.538
		c-0.209-0.129-0.448-0.129-0.498-0.129c-0.698,0-0.927,0.916-0.986,1.176L35.88,52.922z"/>
</g>
<g>
	<path d="M44.777,47.007c0.344,0.474,0.473,1.019,0.473,1.577c0,2.152-1.85,3.974-3.542,3.974c-1.291,0-2.08-1.019-2.08-2.237
		c0-1.693,1.549-4.088,3.701-4.088h3.17c0.258,0,0.531,0,0.531,0.315c0,0.459-0.474,0.459-0.66,0.459H44.777z M43.659,50.951
		c0.502-0.832,0.731-2.037,0.731-2.539c0-1.104-0.688-1.405-1.305-1.405c-2.108,0-2.625,2.854-2.625,3.715
		c0,0.989,0.531,1.549,1.262,1.549C42.368,52.271,43.142,51.797,43.659,50.951z"/>
</g>
<g>
	<path d="M48.631,51.348c0.04-0.169,0.07-0.278,0.07-0.508c0-0.379-0.14-0.458-0.309-0.458c-0.359,0-0.558,0.478-0.728,1.186
		c-0.06,0.219-0.069,0.229-0.169,0.229c-0.02,0-0.119,0-0.119-0.1c0-0.03,0.129-0.628,0.309-0.967
		c0.09-0.18,0.279-0.568,0.737-0.568c0.369,0,0.797,0.209,0.897,0.747c0.329-0.388,0.807-0.747,1.305-0.747
		c0.757,0,1.325,0.658,1.325,1.595c0,1.465-1.246,2.919-2.401,2.919c-0.508,0-0.787-0.349-0.917-0.638
		c-0.07,0.249-0.488,1.873-0.488,1.993c0,0.09,0,0.159,0.498,0.159c0.14,0,0.239,0,0.239,0.109c0,0.199-0.129,0.199-0.179,0.199
		c-0.319,0-0.658-0.029-0.987-0.029c-0.279,0-0.568,0.029-0.837,0.029c-0.08,0-0.129-0.039-0.129-0.119
		c0-0.189,0.109-0.189,0.229-0.189c0.438,0,0.458-0.069,0.538-0.408L48.631,51.348z M48.781,53.41c-0.03,0.12-0.03,0.14-0.03,0.16
		c0,0.06,0.129,0.887,0.787,0.887c0.369,0,0.847-0.329,1.186-1.026c0.179-0.379,0.508-1.524,0.508-2.112s-0.239-0.937-0.638-0.937
		c-0.169,0-0.458,0.069-0.807,0.378c-0.179,0.149-0.448,0.429-0.518,0.698L48.781,53.41z"/>
</g>
<g>
	<path d="M58.284,51.511c-0.158,0.086-0.187,0.086-0.244,0.086c-0.158,0-0.287-0.129-0.287-0.287c0-0.187,0.129-0.244,0.258-0.301
		l7.544-3.572l-7.53-3.557c-0.187-0.086-0.272-0.129-0.272-0.302c0-0.157,0.129-0.286,0.287-0.286c0.043,0,0.072,0,0.258,0.101
		l7.946,3.743c0.144,0.071,0.272,0.129,0.272,0.315c0,0.172-0.143,0.244-0.272,0.302L58.284,51.511z M58.227,54.379
		c-0.201,0-0.473,0-0.473-0.287c0-0.286,0.287-0.286,0.488-0.286h7.788c0.215,0,0.488,0,0.488,0.286
		c0,0.287-0.272,0.287-0.473,0.287H58.227z"/>
</g>
<g>
	<path d="M73.876,34.72v-0.416h5.063v0.416H73.876z"/>
</g>
<g>
	<path d="M75.678,37.517c0.588-0.746,1.306-1.133,2.123-1.133c1.09,0,1.592,0.646,1.592,1.506c0,0.832-0.646,2.524-0.904,3.213
		c-0.058,0.158-0.229,0.617-0.229,0.99c0,0.459,0.229,0.473,0.373,0.473c0.574,0,1.104-0.603,1.434-1.75
		c0.072-0.244,0.086-0.287,0.215-0.287c0.086,0,0.144,0.057,0.144,0.129c0,0.086-0.502,2.195-1.836,2.195
		c-0.688,0-1.133-0.517-1.133-1.162c0-0.258,0.072-0.444,0.201-0.789c0.315-0.861,0.875-2.424,0.875-3.228
		c0-0.574-0.201-1.004-0.774-1.004c-1.104,0-1.75,0.861-2.022,1.277c-0.272,0.416-0.272,0.43-0.43,1.032
		c-0.072,0.316-0.158,0.617-0.229,0.933l-0.646,2.596c-0.072,0.158-0.258,0.344-0.502,0.344c-0.144,0-0.387-0.058-0.387-0.373
		c0-0.086,0-0.115,0.057-0.33l2.08-8.305c0.015-0.043,0.043-0.158,0.043-0.244c0-0.144-0.015-0.272-0.717-0.272
		c-0.201,0-0.315,0-0.315-0.144c0-0.258,0.1-0.272,0.459-0.301c0.258-0.014,0.473-0.043,0.717-0.057
		c0.072-0.015,0.775-0.072,0.789-0.072c0.029,0,0.172,0,0.172,0.144c0,0.071-0.028,0.158-0.043,0.215L75.678,37.517z"/>
</g>
<g>
	<rect x="72.901" y="48.541" width="7.937" height="0.574"/>
</g>
<g>
	<path d="M79.296,62.255h-5.235V61.91l2.897-3.241c0.817-0.918,1.521-1.979,1.521-3.198c0-1.319-0.746-2.338-1.965-2.338
		c-0.933,0-1.707,0.659-1.979,1.635c0.043-0.015,0.072-0.015,0.201-0.015c0.402,0,0.674,0.272,0.674,0.675
		c0,0.459-0.373,0.674-0.674,0.674c-0.043,0-0.674,0-0.674-0.731c0-1.233,0.976-2.653,2.639-2.653c1.664,0,2.969,1.104,2.969,2.754
		c0,1.42-0.803,2.166-2.983,4.174c-0.373,0.344-1.248,1.262-1.635,1.592h2.654c0.43,0,1.248,0,1.348-0.129
		c0.144-0.229,0.258-1.019,0.301-1.262h0.315L79.296,62.255z"/>
</g>
</svg>
