<?xml version="1.0" encoding="iso-8859-1"?>
<!-- Generator: Adobe Illustrator 16.0.0, SVG Export Plug-In . SVG Version: 6.00 Build 0)  -->
<!DOCTYPE svg PUBLIC "-//W3C//DTD SVG 1.1//EN" "http://www.w3.org/Graphics/SVG/1.1/DTD/svg11.dtd">
<svg version="1.1" id="Layer_1" xmlns="http://www.w3.org/2000/svg" xmlns:xlink="http://www.w3.org/1999/xlink" x="0px" y="0px"
	 width="566.929px" height="85.039px" viewBox="0 0 566.929 85.039" style="enable-background:new 0 0 566.929 85.039;"
	 xml:space="preserve">
<g>
	<path d="M26.571,54.422V40.079h1.922v0.531h-1.392v13.281h1.392v0.531H26.571z"/>
	<path d="M35.077,42.833l-0.229,0.215l-1.649-1.478l-1.635,1.478l-0.229-0.215l1.879-1.951L35.077,42.833z"/>
</g>
<g>
	<path d="M34.876,44.798c-0.66,0-1.147,0.631-1.363,1.491c-0.144,0.531-0.33,1.291-0.502,1.951
		c-0.229,0.946-0.287,1.176-0.287,1.491c0,0.588,0.272,0.961,0.775,0.961c0.645,0,1.477-0.588,1.864-1.851
		c0.043-0.114,0.058-0.186,0.187-0.186c0.086,0,0.144,0.057,0.144,0.129c0,0.315-0.774,2.194-2.238,2.194
		c-0.53,0-1.248-0.287-1.477-1.133c-0.301,0.588-0.789,1.133-1.478,1.133c-0.617,0-1.291-0.272-1.291-0.875
		c0-0.459,0.373-0.761,0.717-0.761c0.272,0,0.488,0.173,0.488,0.459c0,0.173-0.115,0.603-0.631,0.703
		c0.301,0.187,0.66,0.187,0.732,0.187c0.76,0,1.176-0.789,1.391-1.649c0.201-0.832,0.258-1.047,0.488-1.965
		c0.172-0.688,0.258-1.019,0.258-1.334c0-0.345-0.129-0.946-0.775-0.946c-0.416,0-1.377,0.301-1.865,1.893
		c-0.028,0.058-0.057,0.144-0.172,0.144c-0.101,0-0.158-0.071-0.158-0.129c0-0.315,0.774-2.194,2.237-2.194
		c0.258,0,1.147,0.058,1.478,1.133c0.129-0.272,0.617-1.133,1.492-1.133c0.603,0,1.291,0.272,1.291,0.875
		c0,0.387-0.301,0.76-0.731,0.76c-0.201,0-0.474-0.114-0.474-0.459c0-0.272,0.172-0.616,0.631-0.702
		C35.307,44.798,34.905,44.798,34.876,44.798z"/>
</g>
<g>
	<path d="M38.475,51.554c-0.229,0.607-0.289,0.747-0.289,0.996c0,0.229,0.07,0.329,0.239,0.329c0.508,0,0.837-0.608,1.016-1.235
		c0.05-0.149,0.05-0.18,0.149-0.18c0.03,0,0.12,0,0.12,0.1c0,0.09-0.369,1.534-1.305,1.534c-0.479,0-0.817-0.349-0.817-0.816
		c0-0.21,0.13-0.538,0.229-0.798c0.159-0.428,0.608-1.584,0.688-1.843c0.04-0.1,0.109-0.31,0.109-0.519
		c0-0.318-0.169-0.318-0.249-0.318c-0.339,0-0.737,0.299-1.006,1.235c-0.05,0.159-0.06,0.18-0.159,0.18c-0.02,0-0.12,0-0.12-0.1
		c0-0.09,0.378-1.535,1.315-1.535c0.499,0,0.817,0.369,0.817,0.817c0,0.189-0.05,0.329-0.13,0.528c-0.1,0.269-0.1,0.289-0.219,0.577
		L38.475,51.554z M39.093,47.289c-0.239,0-0.379-0.17-0.379-0.359c0-0.269,0.269-0.527,0.538-0.527c0.229,0,0.369,0.159,0.369,0.358
		C39.621,47.06,39.322,47.289,39.093,47.289z"/>
</g>
<g>
	<path d="M42.299,53.604c-0.072,0-0.144-0.072-0.144-0.144c0-0.029,0-0.058,0.158-0.229c0.832-0.933,0.918-1.865,0.918-2.338
		c0-0.072,0-0.272-0.029-0.272c-0.014,0-0.029,0-0.058,0.028c-0.129,0.129-0.287,0.187-0.473,0.187
		c-0.488,0-0.703-0.388-0.703-0.703s0.229-0.688,0.688-0.688c0.588,0,0.86,0.617,0.86,1.449
		C43.518,52.543,42.414,53.604,42.299,53.604z"/>
</g>
<g>
	<path d="M53.577,42.833l-0.229,0.215l-1.649-1.478l-1.635,1.478l-0.229-0.215l1.879-1.951L53.577,42.833z"/>
</g>
<g>
	<path d="M49.252,46.203c0.057-0.258,0.1-0.401,0.1-0.746c0-0.43-0.115-0.659-0.445-0.659c-0.573,0-0.846,0.846-1.061,1.692
		c-0.086,0.33-0.101,0.344-0.215,0.344c-0.101,0-0.158-0.071-0.158-0.129s0.201-0.933,0.459-1.448
		c0.272-0.546,0.603-0.746,1.019-0.746c0.574,0,1.133,0.373,1.248,1.09c0.158-0.201,0.933-1.09,1.851-1.09
		c1.076,0,1.821,0.933,1.821,2.252c0,2.108-1.75,4.217-3.371,4.217c-0.746,0-1.133-0.56-1.291-0.961
		c-0.086,0.33-0.731,2.797-0.731,2.969c0,0.115,0.043,0.215,0.703,0.215c0.244,0,0.344,0,0.344,0.158
		c0,0.258-0.172,0.258-0.258,0.258c-0.301,0-1.033-0.028-1.334-0.028h-0.617c-0.187,0-0.387,0.028-0.574,0.028
		c-0.158,0-0.172-0.114-0.172-0.144c0-0.272,0.144-0.272,0.316-0.272c0.588,0,0.645-0.114,0.746-0.545L49.252,46.203z M49.41,49.172
		c-0.015,0.072-0.043,0.187-0.043,0.229c0,0.058,0.158,1.291,1.133,1.291c0.66,0,1.32-0.688,1.678-1.463
		c0.358-0.746,0.76-2.366,0.76-3.055c0-0.746-0.287-1.377-0.918-1.377c-0.545,0-1.019,0.401-1.176,0.545
		c-0.229,0.2-0.631,0.616-0.731,1.019L49.41,49.172z"/>
</g>
<g>
	<path d="M56.955,49.77c0.04-0.169,0.07-0.278,0.07-0.508c0-0.418-0.18-0.458-0.319-0.458c-0.548,0-1.006,0.607-1.256,1.215
		c-0.08,0.189-0.089,0.2-0.179,0.2c-0.02,0-0.12,0-0.12-0.1c0-0.09,0.568-1.535,1.584-1.535c0.498,0,0.917,0.349,0.917,0.917
		c0,0.03,0,0.169-0.05,0.368l-0.917,3.647c-0.249,0.986-1.176,1.515-1.874,1.515c-0.478,0-0.876-0.22-0.876-0.618
		c0-0.358,0.289-0.568,0.538-0.568c0.269,0,0.378,0.189,0.378,0.35c0,0.199-0.149,0.458-0.448,0.527
		c0.179,0.09,0.329,0.09,0.389,0.09c0.558,0,1.036-0.567,1.226-1.325L56.955,49.77z M57.482,47.289
		c-0.229,0-0.369-0.159-0.369-0.359c0-0.299,0.299-0.527,0.528-0.527c0.239,0,0.378,0.169,0.378,0.358
		C58.021,47.03,57.751,47.289,57.482,47.289z"/>
</g>
<g>
	<path d="M61.459,54.422h-1.922v-0.531h1.391V40.609h-1.391v-0.531h1.922V54.422z"/>
	<path d="M68.374,46.188c-0.215,0-0.459,0-0.459-0.272c0-0.258,0.258-0.258,0.459-0.258h8.448c0.215,0,0.459,0,0.459,0.272
		c0,0.258-0.258,0.258-0.459,0.258H68.374z M68.374,48.856c-0.215,0-0.459,0-0.459-0.272c0-0.258,0.258-0.258,0.459-0.258h8.448
		c0.215,0,0.459,0,0.459,0.272c0,0.258-0.258,0.258-0.459,0.258H68.374z"/>
</g>
<g>
	<path d="M84.256,50.979c-0.688,0-1.133-0.517-1.133-1.162c0-0.258,0.086-0.487,0.172-0.717c0.488-1.306,0.488-1.334,1.004-2.668
		c0.115-0.315,0.301-0.789,0.301-1.162c0-0.459-0.244-0.473-0.373-0.473c-0.559,0-1.104,0.573-1.448,1.778
		c-0.058,0.2-0.072,0.258-0.201,0.258c-0.1,0-0.158-0.071-0.158-0.129c0-0.115,0.531-2.194,1.85-2.194
		c0.703,0,1.133,0.545,1.133,1.147c0,0.272-0.1,0.53-0.144,0.646c-0.33,0.889-0.66,1.778-1.004,2.668
		c-0.158,0.43-0.33,0.86-0.33,1.247c0,0.431,0.201,0.474,0.373,0.474c0.474,0,1.062-0.444,1.435-1.75
		c0.072-0.243,0.086-0.286,0.215-0.286c0.086,0,0.144,0.057,0.144,0.129C86.092,48.885,85.576,50.979,84.256,50.979z M85.26,42.574
		c-0.172,0-0.473-0.115-0.473-0.473c0-0.373,0.373-0.688,0.703-0.688c0.316,0,0.488,0.258,0.488,0.473
		C85.978,42.201,85.647,42.574,85.26,42.574z"/>
</g>
<g>
	<path d="M87.801,42.847v-0.416h5.063v0.416H87.801z"/>
</g>
<g>
	<path d="M89.602,45.644c0.588-0.746,1.306-1.133,2.123-1.133c1.09,0,1.592,0.646,1.592,1.506c0,0.832-0.646,2.524-0.904,3.213
		c-0.058,0.158-0.229,0.617-0.229,0.989c0,0.459,0.229,0.474,0.373,0.474c0.574,0,1.104-0.603,1.434-1.75
		c0.072-0.243,0.086-0.286,0.215-0.286c0.086,0,0.144,0.057,0.144,0.129c0,0.086-0.502,2.194-1.836,2.194
		c-0.688,0-1.133-0.517-1.133-1.162c0-0.258,0.072-0.444,0.201-0.789c0.315-0.86,0.875-2.424,0.875-3.227
		c0-0.574-0.201-1.004-0.774-1.004c-1.104,0-1.75,0.86-2.022,1.276s-0.272,0.43-0.43,1.032c-0.072,0.315-0.158,0.617-0.229,0.933
		l-0.646,2.596c-0.072,0.158-0.258,0.345-0.502,0.345c-0.144,0-0.387-0.058-0.387-0.373c0-0.086,0-0.114,0.057-0.33l2.08-8.305
		c0.015-0.043,0.043-0.158,0.043-0.244c0-0.144-0.015-0.272-0.717-0.272c-0.201,0-0.315,0-0.315-0.144
		c0-0.258,0.1-0.272,0.459-0.301c0.258-0.014,0.473-0.043,0.717-0.057c0.072-0.015,0.775-0.072,0.789-0.072
		c0.029,0,0.172,0,0.172,0.144c0,0.071-0.028,0.158-0.043,0.215L89.602,45.644z"/>
	<path d="M97.645,42.115c0-1.463,1.406-1.463,1.649-1.463c0.244,0,0.445,0,1.119,0.144c0.502,0.114,0.717,0.158,0.717,0.43
		c0,0.229-0.215,0.531-0.516,0.531c-0.187,0-0.516-0.187-0.646-0.272c-0.43-0.244-0.703-0.402-1.147-0.402
		c-0.631,0-0.817,0.43-0.817,0.674c0,0.688,0.86,1.793,1.391,2.467c0.358,0.474,0.961,1.263,0.961,2.553
		c0,1.908-1.147,4.231-2.84,4.231c-1.147,0-2.18-0.86-2.18-2.396c0-1.678,1.32-3.585,3.156-4.03
		C98.003,43.636,97.645,42.818,97.645,42.115z M96.167,49.015c0,1.334,0.803,1.706,1.362,1.706c1.277,0,1.879-2.251,1.879-3.37
		c0-0.933-0.215-1.362-0.76-2.496C96.698,45.371,96.167,48.082,96.167,49.015z"/>
</g>
<g>
	<path d="M102.668,51.554c-0.229,0.607-0.289,0.747-0.289,0.996c0,0.229,0.07,0.329,0.239,0.329c0.508,0,0.837-0.608,1.016-1.235
		c0.05-0.149,0.05-0.18,0.149-0.18c0.03,0,0.12,0,0.12,0.1c0,0.09-0.369,1.534-1.305,1.534c-0.479,0-0.817-0.349-0.817-0.816
		c0-0.21,0.129-0.538,0.229-0.798c0.159-0.428,0.608-1.584,0.688-1.843c0.04-0.1,0.109-0.31,0.109-0.519
		c0-0.318-0.169-0.318-0.249-0.318c-0.339,0-0.737,0.299-1.006,1.235c-0.05,0.159-0.06,0.18-0.159,0.18c-0.02,0-0.12,0-0.12-0.1
		c0-0.09,0.378-1.535,1.315-1.535c0.499,0,0.817,0.369,0.817,0.817c0,0.189-0.05,0.329-0.13,0.528c-0.1,0.269-0.1,0.289-0.219,0.577
		L102.668,51.554z M103.286,47.289c-0.239,0-0.379-0.17-0.379-0.359c0-0.269,0.269-0.527,0.538-0.527
		c0.229,0,0.369,0.159,0.369,0.358C103.813,47.06,103.515,47.289,103.286,47.289z"/>
	<path d="M107.306,49.77c0.04-0.169,0.07-0.278,0.07-0.508c0-0.418-0.18-0.458-0.319-0.458c-0.548,0-1.006,0.607-1.256,1.215
		c-0.08,0.189-0.089,0.2-0.179,0.2c-0.02,0-0.12,0-0.12-0.1c0-0.09,0.568-1.535,1.584-1.535c0.498,0,0.917,0.349,0.917,0.917
		c0,0.03,0,0.169-0.05,0.368l-0.917,3.647c-0.249,0.986-1.176,1.515-1.874,1.515c-0.478,0-0.876-0.22-0.876-0.618
		c0-0.358,0.289-0.568,0.538-0.568c0.269,0,0.378,0.189,0.378,0.35c0,0.199-0.149,0.458-0.448,0.527
		c0.179,0.09,0.329,0.09,0.389,0.09c0.558,0,1.036-0.567,1.226-1.325L107.306,49.77z M107.833,47.289
		c-0.229,0-0.369-0.159-0.369-0.359c0-0.299,0.299-0.527,0.528-0.527c0.239,0,0.378,0.169,0.378,0.358
		C108.372,47.03,108.103,47.289,107.833,47.289z"/>
</g>
</svg>
