<?xml version="1.0" encoding="iso-8859-1"?>
<!-- Generator: Adobe Illustrator 16.0.0, SVG Export Plug-In . SVG Version: 6.00 Build 0)  -->
<!DOCTYPE svg PUBLIC "-//W3C//DTD SVG 1.1//EN" "http://www.w3.org/Graphics/SVG/1.1/DTD/svg11.dtd">
<svg version="1.1" id="Layer_1" xmlns="http://www.w3.org/2000/svg" xmlns:xlink="http://www.w3.org/1999/xlink" x="0px" y="0px"
	 width="566.929px" height="85.039px" viewBox="0 0 566.929 85.039" style="enable-background:new 0 0 566.929 85.039;"
	 xml:space="preserve">
<g>
	<path d="M29.009,39.941c-0.344,0-0.66-0.258-0.66-0.66c0-0.402,0.315-0.66,0.66-0.66c0.359,0,0.66,0.301,0.66,0.66
		C29.669,39.64,29.368,39.941,29.009,39.941z M31.72,39.941c-0.358,0-0.66-0.301-0.66-0.66c0-0.359,0.301-0.66,0.66-0.66
		c0.344,0,0.66,0.258,0.66,0.66C32.38,39.683,32.064,39.941,31.72,39.941z"/>
</g>
<g>
	<path d="M30.357,52.088c-2.51,0-4.676-2.252-4.676-5.163c0-2.94,2.137-5.235,4.69-5.235c2.496,0,4.676,2.267,4.676,5.235
		C35.048,49.808,32.925,52.088,30.357,52.088z M33.786,46.91c0-3.514-1.893-4.934-3.428-4.934c-1.463,0-3.414,1.377-3.414,4.934
		c0,3.528,1.937,4.877,3.428,4.877C31.806,51.787,33.786,50.496,33.786,46.91z M32.997,47.857h-0.316v-0.488h-4.633v0.488h-0.315
		v-1.966h0.315v0.488h4.633v-0.488h0.316V47.857z"/>
</g>
<g>
	<path d="M40.047,53.003c-0.438,0.946-1.196,1.155-1.734,1.155c-0.488,0-1.215-0.199-1.644-1.006
		c-0.409-0.757-0.448-1.654-0.448-2.401c0-0.797,0.05-1.574,0.369-2.262c0.409-0.927,1.136-1.186,1.734-1.186
		c0.418,0,1.235,0.159,1.694,1.115c0.349,0.737,0.398,1.535,0.398,2.332C40.416,51.538,40.366,52.315,40.047,53.003z M39.479,52.694
		c0.109-0.638,0.109-1.315,0.109-2.062c0-0.628,0-1.386-0.1-1.943c-0.189-0.986-0.847-1.166-1.176-1.166
		c-0.249,0-0.996,0.09-1.186,1.275c-0.08,0.538-0.08,1.196-0.08,1.834c0,0.588,0,1.504,0.109,2.102
		c0.179,0.957,0.767,1.206,1.156,1.206C38.761,53.939,39.33,53.641,39.479,52.694z"/>
</g>
<g>
	<path d="M50.223,52.433c0,0.215,0,0.459-0.273,0.459c-0.258,0-0.258-0.258-0.258-0.459v-3.959h-3.959c-0.215,0-0.459,0-0.459-0.272
		c0-0.258,0.258-0.258,0.459-0.258h3.959v-3.959c0-0.215,0-0.459,0.272-0.459c0.258,0,0.258,0.258,0.258,0.459v3.959h3.958
		c0.215,0,0.459,0,0.459,0.272c0,0.258-0.258,0.258-0.459,0.258h-3.958V52.433z"/>
</g>
<g>
	<path d="M67.376,50.884c-0.029,0.114-0.029,0.215-0.029,0.229c0,0.144,0,0.258,0.875,0.258c0.215,0,0.344,0,0.344,0.144
		c0,0.272-0.158,0.272-0.272,0.272c-0.272,0-0.574-0.028-0.846-0.028h-1.692c-0.272,0-0.574,0.028-0.832,0.028
		c-0.043,0-0.201,0-0.201-0.144c0-0.272,0.129-0.272,0.301-0.272c0.846-0.015,1.076-0.015,1.233-0.444
		c0.029-0.086,0.76-3.084,1.004-4.03h-4.346l-0.99,3.987c-0.029,0.114-0.029,0.215-0.029,0.229c0,0.144,0,0.258,0.875,0.258
		c0.215,0,0.344,0,0.344,0.144c0,0.272-0.158,0.272-0.272,0.272c-0.273,0-0.574-0.028-0.846-0.028h-1.693
		c-0.272,0-0.574,0.028-0.832,0.028c-0.043,0-0.201,0-0.201-0.144c0-0.272,0.101-0.272,0.431-0.272c0.989,0,1.018-0.144,1.147-0.646
		l1.936-7.717c0.058-0.215,0.058-0.301,0.058-0.33c0-0.158,0-0.272-0.861-0.272c-0.272,0-0.373,0-0.373-0.144
		c0-0.272,0.172-0.272,0.272-0.272c0.273,0,0.574,0.029,0.847,0.029h1.692c0.272,0,0.574-0.029,0.832-0.029
		c0.086,0,0.215,0,0.215,0.158c0,0.258-0.144,0.258-0.401,0.258c-1.019,0-1.047,0.143-1.176,0.631L63.03,46.48h4.332l0.875-3.472
		c0.057-0.215,0.057-0.301,0.057-0.33c0-0.158,0-0.272-0.86-0.272c-0.273,0-0.373,0-0.373-0.144c0-0.272,0.172-0.272,0.272-0.272
		c0.272,0,0.574,0.029,0.846,0.029h1.692c0.272,0,0.574-0.029,0.832-0.029c0.086,0,0.215,0,0.215,0.158
		c0,0.258-0.144,0.258-0.402,0.258c-1.018,0-1.047,0.143-1.176,0.631L67.376,50.884z"/>
</g>
<g>
	<path d="M93.381,38.868c0,0.115,0,0.172-0.071,0.703c-0.015,0.072-0.187,1.377-0.187,1.721c0,0.646,0.229,0.803,0.588,0.803
		s0.947-0.258,1.291-1.276c0.029-0.115,0.057-0.201,0.172-0.201c0.086,0,0.158,0.043,0.158,0.144c0,0.201-0.502,1.621-1.664,1.621
		c-0.961,0-1.793-0.473-1.793-1.492c0-0.272,0.043-0.43,0.201-1.09c0.101-0.373,0.244-0.932,0.244-1.147
		c0-0.473-0.258-1.333-1.621-1.333h-1.721l-0.961,3.858c-0.028,0.115-0.028,0.215-0.028,0.229c0,0.144,0,0.258,0.875,0.258
		c0.215,0,0.344,0,0.344,0.144c0,0.272-0.158,0.272-0.272,0.272c-0.258,0-0.559-0.029-0.817-0.029h-1.692
		c-0.272,0-0.574,0.029-0.832,0.029c-0.043,0-0.201,0-0.201-0.144c0-0.272,0.1-0.272,0.43-0.272c0.99,0,1.019-0.144,1.147-0.646
		l1.937-7.717c0.057-0.215,0.057-0.301,0.057-0.33c0-0.158,0-0.272-0.861-0.272c-0.272,0-0.373,0-0.373-0.144
		c0-0.272,0.129-0.272,0.416-0.272h3.887c1.994,0,3.127,1.033,3.127,2.151c0,1.233-1.391,2.381-3.17,2.768
		C92.535,37.376,93.381,37.821,93.381,38.868z M89.049,37.032h1.621c2.883,0,3.256-2.108,3.256-2.84
		c0-1.119-0.918-1.492-2.152-1.492h-1.032c-0.56,0-0.617,0.029-0.746,0.559L89.049,37.032z"/>
</g>
<g>
	<rect x="72.556" y="47.913" width="35.135" height="0.574"/>
</g>
<g>
	<path d="M76.687,60.522c0,0.517,0.043,0.688,1.305,0.688h0.445v0.416c-0.387-0.028-1.764-0.028-2.238-0.028
		c-0.473,0-1.864,0-2.252,0.028v-0.416h0.445c1.262,0,1.305-0.172,1.305-0.688V53.05c-0.789,0.373-1.506,0.373-1.836,0.373v-0.416
		c1.478,0,2.194-0.531,2.539-0.918c0.287,0,0.287,0.015,0.287,0.344V60.522z"/>
	<path d="M88.487,62.272c0,0.215,0,0.459-0.272,0.459c-0.258,0-0.258-0.258-0.258-0.459v-3.959h-3.959c-0.215,0-0.459,0-0.459-0.272
		c0-0.258,0.258-0.258,0.459-0.258h3.959v-3.959c0-0.215,0-0.459,0.272-0.459c0.258,0,0.258,0.258,0.258,0.459v3.959h3.958
		c0.215,0,0.459,0,0.459,0.272c0,0.258-0.258,0.258-0.459,0.258h-3.958V62.272z"/>
</g>
<g>
	<path d="M105.544,58.414c0,0.115,0,0.172-0.071,0.703c-0.015,0.071-0.187,1.377-0.187,1.721c0,0.646,0.229,0.804,0.588,0.804
		s0.947-0.259,1.291-1.276c0.029-0.115,0.057-0.201,0.172-0.201c0.086,0,0.158,0.043,0.158,0.144c0,0.2-0.502,1.62-1.664,1.62
		c-0.961,0-1.793-0.473-1.793-1.491c0-0.272,0.043-0.431,0.201-1.09c0.101-0.373,0.244-0.933,0.244-1.147
		c0-0.474-0.258-1.334-1.621-1.334h-1.721l-0.961,3.858c-0.028,0.114-0.028,0.215-0.028,0.229c0,0.144,0,0.258,0.875,0.258
		c0.215,0,0.344,0,0.344,0.144c0,0.272-0.158,0.272-0.272,0.272c-0.258,0-0.559-0.028-0.817-0.028h-1.692
		c-0.272,0-0.574,0.028-0.832,0.028c-0.043,0-0.201,0-0.201-0.144c0-0.272,0.1-0.272,0.43-0.272c0.99,0,1.019-0.144,1.147-0.646
		l1.937-7.717c0.057-0.215,0.057-0.301,0.057-0.33c0-0.157,0-0.272-0.861-0.272c-0.272,0-0.373,0-0.373-0.143
		c0-0.273,0.129-0.273,0.416-0.273h3.887c1.994,0,3.127,1.033,3.127,2.152c0,1.233-1.391,2.381-3.17,2.768
		C104.698,56.922,105.544,57.367,105.544,58.414z M101.212,56.578h1.621c2.883,0,3.256-2.108,3.256-2.84
		c0-1.119-0.918-1.492-2.152-1.492h-1.032c-0.56,0-0.617,0.029-0.746,0.56L101.212,56.578z"/>
</g>
<g>
	<path d="M114.334,40.013c-0.373,0-0.688-0.315-0.688-0.688c0-0.387,0.301-0.703,0.703-0.703c0.344,0,0.688,0.272,0.688,0.703
		C115.037,39.669,114.765,40.013,114.334,40.013z"/>
</g>
<g>
	<path d="M114.338,52.088c-2.51,0-4.676-2.252-4.676-5.163c0-2.94,2.137-5.235,4.69-5.235c2.496,0,4.676,2.267,4.676,5.235
		C119.028,49.808,116.905,52.088,114.338,52.088z M117.766,46.91c0-3.514-1.893-4.934-3.428-4.934c-1.463,0-3.414,1.377-3.414,4.934
		c0,3.528,1.937,4.877,3.428,4.877C115.786,51.787,117.766,50.496,117.766,46.91z M116.977,47.857h-0.315v-0.488h-4.633v0.488
		h-0.315v-1.966h0.315v0.488h4.633v-0.488h0.315V47.857z"/>
</g>
<g>
	<path d="M124.027,53.003c-0.438,0.946-1.196,1.155-1.734,1.155c-0.488,0-1.215-0.199-1.644-1.006
		c-0.409-0.757-0.448-1.654-0.448-2.401c0-0.797,0.05-1.574,0.369-2.262c0.409-0.927,1.136-1.186,1.734-1.186
		c0.418,0,1.235,0.159,1.694,1.115c0.349,0.737,0.398,1.535,0.398,2.332C124.396,51.538,124.346,52.315,124.027,53.003z
		 M123.459,52.694c0.109-0.638,0.109-1.315,0.109-2.062c0-0.628,0-1.386-0.1-1.943c-0.189-0.986-0.847-1.166-1.176-1.166
		c-0.249,0-0.996,0.09-1.186,1.275c-0.08,0.538-0.08,1.196-0.08,1.834c0,0.588,0,1.504,0.109,2.102
		c0.179,0.957,0.767,1.206,1.156,1.206C122.741,53.939,123.31,53.641,123.459,52.694z"/>
</g>
<g>
	<path d="M134.203,52.433c0,0.215,0,0.459-0.272,0.459c-0.258,0-0.258-0.258-0.258-0.459v-3.959h-3.959
		c-0.215,0-0.459,0-0.459-0.272c0-0.258,0.258-0.258,0.459-0.258h3.959v-3.959c0-0.215,0-0.459,0.272-0.459
		c0.258,0,0.258,0.258,0.258,0.459v3.959h3.958c0.215,0,0.459,0,0.459,0.272c0,0.258-0.258,0.258-0.459,0.258h-3.958V52.433z"/>
</g>
<g>
	<path d="M145.146,48.087c0.531-0.201,1.061-0.746,1.205-0.918c1.019-1.147,1.664-1.707,2.453-1.707c0.646,0,0.976,0.43,0.976,0.846
		c0,0.459-0.344,0.789-0.731,0.789c-0.201,0-0.474-0.114-0.474-0.459c0-0.287,0.201-0.659,0.732-0.717
		c-0.101-0.086-0.187-0.172-0.517-0.172c-0.66,0-1.219,0.459-2.037,1.377c-0.201,0.215-0.717,0.774-1.234,1.09
		c1.32,0.172,2.08,0.646,2.08,1.491c0,0.173,0,0.187-0.058,0.445c-0.057,0.215-0.115,0.53-0.115,0.803
		c0,0.545,0.187,0.688,0.474,0.688c0.731,0,1.033-1.004,1.233-1.75c0.057-0.229,0.072-0.286,0.201-0.286
		c0.086,0,0.144,0.057,0.144,0.129c0,0.057-0.187,0.86-0.488,1.391c-0.115,0.201-0.459,0.804-1.119,0.804
		c-0.731,0-1.276-0.56-1.276-1.392c0-0.071,0-0.244,0.057-0.459c0.043-0.215,0.043-0.272,0.043-0.358
		c0-0.688-0.617-1.119-1.649-1.233c-0.603,2.353-0.545,2.151-0.674,2.682c-0.114,0.445-0.201,0.761-0.602,0.761
		c-0.144,0-0.387-0.058-0.387-0.373c0-0.086,0-0.114,0.057-0.33l2.051-8.204c0.072-0.258,0.072-0.287,0.072-0.344
		c0-0.144,0-0.272-0.732-0.272c-0.143,0-0.287,0-0.287-0.144c0-0.258,0.101-0.272,0.445-0.301c0.258-0.014,0.473-0.043,0.717-0.057
		c0.258-0.029,0.775-0.072,0.789-0.072c0.029,0,0.172,0,0.172,0.144c0,0.071-0.028,0.158-0.043,0.215L145.146,48.087z"/>
</g>
<g>
	<path d="M154.576,45.863h-3.697c0-0.239,0-0.259,0.11-0.369l1.913-2.132c0.548-0.618,1.046-1.405,1.046-2.202
		c0-0.817-0.428-1.624-1.335-1.624c-0.578,0-1.116,0.369-1.345,1.016c0.03-0.01,0.05-0.01,0.129-0.01
		c0.349,0,0.528,0.259,0.528,0.518c0,0.409-0.349,0.528-0.518,0.528c-0.03,0-0.528,0-0.528-0.558c0-0.887,0.737-1.804,1.863-1.804
		c1.216,0,2.112,0.797,2.112,1.933c0,0.997-0.598,1.535-2.152,2.909l-1.056,1.026h1.793c0.219,0,0.876,0,0.946-0.079
		c0.1-0.149,0.169-0.588,0.219-0.887h0.249L154.576,45.863z"/>
</g>
<g>
	<path d="M160.206,45.749c-0.904,0-1.678,0.774-2.051,1.448c-0.516,0.976-0.76,2.366-0.76,2.869c0,0.717,0.315,1.577,1.305,1.577
		c0.545,0,1.908-0.215,2.826-1.435c0.129-0.129,0.144-0.143,0.187-0.143c0.058,0,0.144,0.071,0.144,0.157
		c0,0.187-1.233,1.707-3.185,1.707c-1.463,0-2.237-1.133-2.237-2.381c0-2.037,1.879-4.088,3.758-4.088
		c0.99,0,1.649,0.53,1.649,1.219c0,0.574-0.387,0.86-0.731,0.86c-0.272,0-0.487-0.172-0.487-0.459c0-0.229,0.158-0.444,0.244-0.516
		c0.201-0.172,0.33-0.172,0.603-0.172C161.181,45.777,160.393,45.749,160.206,45.749z"/>
</g>
<g>
	<path d="M166.101,45.863h-3.697c0-0.239,0-0.259,0.11-0.369l1.913-2.132c0.548-0.618,1.046-1.405,1.046-2.202
		c0-0.817-0.428-1.624-1.335-1.624c-0.578,0-1.116,0.369-1.345,1.016c0.03-0.01,0.05-0.01,0.129-0.01
		c0.349,0,0.528,0.259,0.528,0.518c0,0.409-0.349,0.528-0.518,0.528c-0.03,0-0.528,0-0.528-0.558c0-0.887,0.737-1.804,1.863-1.804
		c1.216,0,2.112,0.797,2.112,1.933c0,0.997-0.598,1.535-2.152,2.909l-1.056,1.026h1.793c0.219,0,0.876,0,0.946-0.079
		c0.1-0.149,0.169-0.588,0.219-0.887h0.249L166.101,45.863z"/>
</g>
<g>
	<path d="M164.905,51.148c-0.876,0-1.116,0.607-1.116,0.896c0,0.448,0.398,0.519,0.757,0.598c0.438,0.09,0.727,0.14,0.996,0.419
		c0.12,0.119,0.309,0.368,0.309,0.728c0,0.448-0.389,1.653-2.003,1.653c-0.857,0-1.425-0.398-1.425-0.966
		c0-0.449,0.299-0.658,0.558-0.658c0.209,0,0.369,0.12,0.369,0.349c0,0.279-0.249,0.578-0.628,0.528
		c0.229,0.528,0.997,0.528,1.136,0.528c1.195,0,1.425-0.837,1.425-1.097c0-0.548-0.518-0.657-1.037-0.757
		c-0.289-0.06-1.026-0.209-1.026-0.986c0-0.438,0.369-1.455,1.684-1.455c0.757,0,1.186,0.409,1.186,0.857
		c0,0.389-0.239,0.558-0.458,0.558s-0.309-0.149-0.309-0.289c0-0.219,0.199-0.438,0.479-0.448
		C165.653,51.218,165.154,51.148,164.905,51.148z"/>
</g>
<g>
	<path d="M172.835,52.088c-2.51,0-4.676-2.252-4.676-5.163c0-2.94,2.137-5.235,4.69-5.235c2.496,0,4.676,2.267,4.676,5.235
		C177.525,49.808,175.403,52.088,172.835,52.088z M176.263,46.91c0-3.514-1.893-4.934-3.428-4.934c-1.463,0-3.414,1.377-3.414,4.934
		c0,3.528,1.937,4.877,3.428,4.877C174.284,51.787,176.263,50.496,176.263,46.91z M175.475,47.857h-0.316v-0.488h-4.633v0.488
		h-0.315v-1.966h0.315v0.488h4.633v-0.488h0.316V47.857z"/>
</g>
<g>
	<path d="M182.526,53.003c-0.438,0.946-1.196,1.155-1.734,1.155c-0.488,0-1.215-0.199-1.644-1.006
		c-0.409-0.757-0.448-1.654-0.448-2.401c0-0.797,0.05-1.574,0.369-2.262c0.409-0.927,1.136-1.186,1.734-1.186
		c0.418,0,1.235,0.159,1.694,1.115c0.349,0.737,0.398,1.535,0.398,2.332C182.895,51.538,182.845,52.315,182.526,53.003z
		 M181.958,52.694c0.109-0.638,0.109-1.315,0.109-2.062c0-0.628,0-1.386-0.1-1.943c-0.189-0.986-0.847-1.166-1.176-1.166
		c-0.249,0-0.996,0.09-1.186,1.275c-0.08,0.538-0.08,1.196-0.08,1.834c0,0.588,0,1.504,0.109,2.102
		c0.179,0.957,0.767,1.206,1.156,1.206C181.24,53.939,181.809,53.641,181.958,52.694z"/>
</g>
<g>
	<path d="M189.008,47.14c-0.215,0-0.459,0-0.459-0.272c0-0.258,0.258-0.258,0.459-0.258h8.448c0.215,0,0.459,0,0.459,0.272
		c0,0.258-0.258,0.258-0.459,0.258H189.008z M189.008,49.808c-0.215,0-0.459,0-0.459-0.272c0-0.258,0.258-0.258,0.459-0.258h8.448
		c0.215,0,0.459,0,0.459,0.272c0,0.258-0.258,0.258-0.459,0.258H189.008z"/>
</g>
<g>
	<path d="M204.35,48.488c-0.201,0-0.473,0-0.473-0.287s0.272-0.287,0.473-0.287h7.817c0.201,0,0.473,0,0.473,0.287
		s-0.272,0.287-0.473,0.287H204.35z"/>
</g>
<g>
	<path d="M217.556,39.941c-0.344,0-0.66-0.258-0.66-0.66c0-0.402,0.315-0.66,0.66-0.66c0.359,0,0.66,0.301,0.66,0.66
		C218.216,39.64,217.915,39.941,217.556,39.941z M220.267,39.941c-0.358,0-0.66-0.301-0.66-0.66c0-0.359,0.301-0.66,0.66-0.66
		c0.344,0,0.66,0.258,0.66,0.66C220.927,39.683,220.611,39.941,220.267,39.941z"/>
</g>
<g>
	<path d="M219.423,50.683c0,0.517,0.029,0.688,1.276,0.688h0.43v0.416c-0.387-0.028-1.778-0.028-2.251-0.028
		c-0.474,0-1.865,0-2.252,0.028v-0.416h0.43c1.248,0,1.276-0.172,1.276-0.688V49.88c-2.18-0.201-3.715-1.521-3.715-2.998
		c0-1.42,1.492-2.782,3.715-2.983v-0.804c0-0.516-0.028-0.688-1.276-0.688h-0.43v-0.416c0.387,0.029,1.778,0.029,2.252,0.029
		c0.473,0,1.864,0,2.251-0.029v0.416h-0.43c-1.248,0-1.276,0.172-1.276,0.688v0.789c2.137,0.187,3.772,1.478,3.772,3.013
		c0,1.477-1.592,2.811-3.772,2.997V50.683z M218.333,44.199c-1.578,0.201-2.41,1.119-2.41,2.697c0,1.562,0.846,2.48,2.41,2.682
		V44.199z M219.423,49.593c1.735-0.229,2.467-1.22,2.467-2.711c0-1.521-0.789-2.481-2.467-2.696V49.593z"/>
</g>
<g>
	<path d="M228.841,48.488c-0.201,0-0.474,0-0.474-0.287s0.272-0.287,0.474-0.287h7.817c0.201,0,0.473,0,0.473,0.287
		s-0.272,0.287-0.473,0.287H228.841z"/>
</g>
<g>
	<path d="M250.287,50.884c-0.029,0.114-0.029,0.215-0.029,0.229c0,0.144,0,0.258,0.875,0.258c0.215,0,0.344,0,0.344,0.144
		c0,0.272-0.158,0.272-0.272,0.272c-0.272,0-0.574-0.028-0.846-0.028h-1.692c-0.272,0-0.574,0.028-0.832,0.028
		c-0.043,0-0.201,0-0.201-0.144c0-0.272,0.129-0.272,0.301-0.272c0.846-0.015,1.076-0.015,1.233-0.444
		c0.029-0.086,0.76-3.084,1.004-4.03h-4.346l-0.99,3.987c-0.029,0.114-0.029,0.215-0.029,0.229c0,0.144,0,0.258,0.875,0.258
		c0.215,0,0.344,0,0.344,0.144c0,0.272-0.158,0.272-0.272,0.272c-0.273,0-0.574-0.028-0.846-0.028h-1.693
		c-0.272,0-0.574,0.028-0.832,0.028c-0.043,0-0.201,0-0.201-0.144c0-0.272,0.101-0.272,0.431-0.272c0.989,0,1.018-0.144,1.147-0.646
		l1.936-7.717c0.058-0.215,0.058-0.301,0.058-0.33c0-0.158,0-0.272-0.861-0.272c-0.272,0-0.373,0-0.373-0.144
		c0-0.272,0.172-0.272,0.272-0.272c0.273,0,0.574,0.029,0.847,0.029h1.692c0.272,0,0.574-0.029,0.832-0.029
		c0.086,0,0.215,0,0.215,0.158c0,0.258-0.144,0.258-0.401,0.258c-1.019,0-1.047,0.143-1.176,0.631l-0.861,3.443h4.332l0.875-3.472
		c0.057-0.215,0.057-0.301,0.057-0.33c0-0.158,0-0.272-0.86-0.272c-0.273,0-0.373,0-0.373-0.144c0-0.272,0.172-0.272,0.272-0.272
		c0.272,0,0.574,0.029,0.846,0.029h1.692c0.272,0,0.574-0.029,0.832-0.029c0.086,0,0.215,0,0.215,0.158
		c0,0.258-0.144,0.258-0.402,0.258c-1.018,0-1.047,0.143-1.176,0.631L250.287,50.884z"/>
</g>
<g>
	<path d="M276.291,38.868c0,0.115,0,0.172-0.071,0.703c-0.015,0.072-0.187,1.377-0.187,1.721c0,0.646,0.229,0.803,0.588,0.803
		s0.947-0.258,1.291-1.276c0.029-0.115,0.057-0.201,0.172-0.201c0.086,0,0.158,0.043,0.158,0.144c0,0.201-0.502,1.621-1.664,1.621
		c-0.961,0-1.793-0.473-1.793-1.492c0-0.272,0.043-0.43,0.201-1.09c0.101-0.373,0.244-0.932,0.244-1.147
		c0-0.473-0.258-1.333-1.621-1.333h-1.721l-0.961,3.858c-0.028,0.115-0.028,0.215-0.028,0.229c0,0.144,0,0.258,0.875,0.258
		c0.215,0,0.344,0,0.344,0.144c0,0.272-0.158,0.272-0.272,0.272c-0.258,0-0.559-0.029-0.817-0.029h-1.692
		c-0.272,0-0.574,0.029-0.832,0.029c-0.043,0-0.201,0-0.201-0.144c0-0.272,0.1-0.272,0.43-0.272c0.99,0,1.019-0.144,1.147-0.646
		l1.937-7.717c0.057-0.215,0.057-0.301,0.057-0.33c0-0.158,0-0.272-0.861-0.272c-0.272,0-0.373,0-0.373-0.144
		c0-0.272,0.129-0.272,0.416-0.272h3.887c1.994,0,3.127,1.033,3.127,2.151c0,1.233-1.391,2.381-3.17,2.768
		C275.445,37.376,276.291,37.821,276.291,38.868z M271.959,37.032h1.621c2.883,0,3.256-2.108,3.256-2.84
		c0-1.119-0.918-1.492-2.152-1.492h-1.032c-0.56,0-0.617,0.029-0.746,0.559L271.959,37.032z"/>
</g>
<g>
	<rect x="255.466" y="47.913" width="35.135" height="0.574"/>
</g>
<g>
	<path d="M259.597,60.522c0,0.517,0.043,0.688,1.305,0.688h0.445v0.416c-0.387-0.028-1.764-0.028-2.238-0.028
		c-0.473,0-1.865,0-2.252,0.028v-0.416h0.445c1.262,0,1.305-0.172,1.305-0.688V53.05c-0.789,0.373-1.506,0.373-1.836,0.373v-0.416
		c1.478,0,2.195-0.531,2.539-0.918c0.287,0,0.287,0.015,0.287,0.344V60.522z"/>
	<path d="M271.397,62.272c0,0.215,0,0.459-0.273,0.459c-0.258,0-0.258-0.258-0.258-0.459v-3.959h-3.959
		c-0.215,0-0.459,0-0.459-0.272c0-0.258,0.258-0.258,0.459-0.258h3.959v-3.959c0-0.215,0-0.459,0.272-0.459
		c0.258,0,0.258,0.258,0.258,0.459v3.959h3.958c0.215,0,0.459,0,0.459,0.272c0,0.258-0.258,0.258-0.459,0.258h-3.958V62.272z"/>
</g>
<g>
	<path d="M288.454,58.414c0,0.115,0,0.172-0.071,0.703c-0.015,0.071-0.187,1.377-0.187,1.721c0,0.646,0.229,0.804,0.588,0.804
		s0.946-0.259,1.291-1.276c0.028-0.115,0.058-0.201,0.172-0.201c0.086,0,0.158,0.043,0.158,0.144c0,0.2-0.502,1.62-1.664,1.62
		c-0.961,0-1.793-0.473-1.793-1.491c0-0.272,0.043-0.431,0.201-1.09c0.101-0.373,0.243-0.933,0.243-1.147
		c0-0.474-0.258-1.334-1.62-1.334h-1.722l-0.961,3.858c-0.028,0.114-0.028,0.215-0.028,0.229c0,0.144,0,0.258,0.875,0.258
		c0.215,0,0.344,0,0.344,0.144c0,0.272-0.157,0.272-0.272,0.272c-0.258,0-0.56-0.028-0.817-0.028h-1.692
		c-0.272,0-0.574,0.028-0.832,0.028c-0.043,0-0.201,0-0.201-0.144c0-0.272,0.1-0.272,0.43-0.272c0.99,0,1.019-0.144,1.147-0.646
		l1.937-7.717c0.058-0.215,0.058-0.301,0.058-0.33c0-0.157,0-0.272-0.861-0.272c-0.272,0-0.373,0-0.373-0.143
		c0-0.273,0.129-0.273,0.416-0.273h3.888c1.993,0,3.126,1.033,3.126,2.152c0,1.233-1.391,2.381-3.169,2.768
		C287.608,56.922,288.454,57.367,288.454,58.414z M284.123,56.578h1.62c2.884,0,3.256-2.108,3.256-2.84
		c0-1.119-0.918-1.492-2.151-1.492h-1.032c-0.56,0-0.617,0.029-0.746,0.56L284.123,56.578z"/>
</g>
<g>
	<path d="M296.854,40.013c-0.373,0-0.688-0.315-0.688-0.688c0-0.387,0.301-0.703,0.703-0.703c0.344,0,0.688,0.272,0.688,0.703
		C297.557,39.669,297.284,40.013,296.854,40.013z"/>
</g>
<g>
	<path d="M297.376,50.683c0,0.517,0.029,0.688,1.277,0.688h0.43v0.416c-0.387-0.028-1.778-0.028-2.252-0.028
		c-0.473,0-1.864,0-2.252,0.028v-0.416h0.431c1.248,0,1.276-0.172,1.276-0.688V49.88c-2.18-0.201-3.715-1.521-3.715-2.998
		c0-1.42,1.492-2.782,3.715-2.983v-0.804c0-0.516-0.028-0.688-1.276-0.688h-0.431v-0.416c0.388,0.029,1.779,0.029,2.252,0.029
		c0.474,0,1.865,0,2.252-0.029v0.416h-0.43c-1.248,0-1.277,0.172-1.277,0.688v0.789c2.138,0.187,3.772,1.478,3.772,3.013
		c0,1.477-1.592,2.811-3.772,2.997V50.683z M296.286,44.199c-1.577,0.201-2.409,1.119-2.409,2.697c0,1.562,0.846,2.48,2.409,2.682
		V44.199z M297.376,49.593c1.736-0.229,2.468-1.22,2.468-2.711c0-1.521-0.789-2.481-2.468-2.696V49.593z"/>
</g>
<g>
	<path d="M306.794,48.488c-0.201,0-0.474,0-0.474-0.287s0.272-0.287,0.474-0.287h7.816c0.201,0,0.474,0,0.474,0.287
		s-0.272,0.287-0.474,0.287H306.794z"/>
</g>
<g>
	<path d="M324.803,40.977c0,0.517,0.043,0.688,1.306,0.688h0.444v0.416c-0.388-0.029-1.765-0.029-2.237-0.029
		c-0.474,0-1.865,0-2.252,0.029v-0.416h0.444c1.262,0,1.306-0.172,1.306-0.688v-7.473c-0.789,0.373-1.507,0.373-1.836,0.373v-0.416
		c1.477,0,2.194-0.531,2.538-0.918c0.287,0,0.287,0.014,0.287,0.344V40.977z"/>
</g>
<g>
	<rect x="320.672" y="47.913" width="7.024" height="0.574"/>
</g>
<g>
	<path d="M323.741,56.435c0.388-0.015,0.875-0.058,1.306-0.688c0.416-0.616,0.459-1.42,0.459-1.692c0-1.405-0.933-1.621-1.406-1.621
		c-0.071,0-1.42,0-1.965,0.976c0.043-0.015,0.072-0.015,0.158-0.015c0.315,0,0.659,0.201,0.659,0.66
		c0,0.431-0.344,0.646-0.646,0.646c-0.215,0-0.659-0.115-0.659-0.688c0-1.047,1.062-1.922,2.495-1.922
		c1.392,0,2.567,0.832,2.567,1.965c0,1.119-0.803,2.166-2.051,2.524c1.377,0.244,2.438,1.276,2.438,2.596
		c0,1.449-1.262,2.754-2.969,2.754c-1.593,0-2.869-1.047-2.869-2.323c0-0.545,0.373-0.746,0.718-0.746
		c0.401,0,0.702,0.287,0.702,0.703c0,0.517-0.416,0.774-0.875,0.703c0.416,0.946,1.593,1.276,2.281,1.276
		c0.702,0,1.678-0.502,1.678-2.381c0-1.377-0.545-2.381-1.764-2.381h-0.66c-0.258,0-0.33,0-0.33-0.144
		c0-0.129,0.058-0.144,0.301-0.158L323.741,56.435z"/>
</g>
<g>
	<path d="M331.443,48.087c0.531-0.201,1.062-0.746,1.205-0.918c1.019-1.147,1.664-1.707,2.453-1.707c0.646,0,0.975,0.43,0.975,0.846
		c0,0.459-0.344,0.789-0.731,0.789c-0.2,0-0.473-0.114-0.473-0.459c0-0.287,0.2-0.659,0.731-0.717
		c-0.101-0.086-0.187-0.172-0.517-0.172c-0.66,0-1.219,0.459-2.037,1.377c-0.2,0.215-0.717,0.774-1.233,1.09
		c1.32,0.172,2.08,0.646,2.08,1.491c0,0.173,0,0.187-0.058,0.445c-0.058,0.215-0.114,0.53-0.114,0.803
		c0,0.545,0.187,0.688,0.473,0.688c0.731,0,1.033-1.004,1.234-1.75c0.057-0.229,0.071-0.286,0.2-0.286
		c0.086,0,0.144,0.057,0.144,0.129c0,0.057-0.187,0.86-0.487,1.391c-0.115,0.201-0.459,0.804-1.119,0.804
		c-0.731,0-1.276-0.56-1.276-1.392c0-0.071,0-0.244,0.058-0.459c0.043-0.215,0.043-0.272,0.043-0.358
		c0-0.688-0.617-1.119-1.649-1.233c-0.603,2.353-0.546,2.151-0.675,2.682c-0.114,0.445-0.2,0.761-0.603,0.761
		c-0.143,0-0.387-0.058-0.387-0.373c0-0.086,0-0.114,0.058-0.33l2.051-8.204c0.071-0.258,0.071-0.287,0.071-0.344
		c0-0.144,0-0.272-0.731-0.272c-0.144,0-0.286,0-0.286-0.144c0-0.258,0.1-0.272,0.444-0.301c0.258-0.014,0.474-0.043,0.717-0.057
		c0.259-0.029,0.774-0.072,0.789-0.072c0.028,0,0.172,0,0.172,0.144c0,0.071-0.028,0.158-0.043,0.215L331.443,48.087z"/>
</g>
<g>
	<path d="M340.873,45.863h-3.697c0-0.239,0-0.259,0.109-0.369l1.913-2.132c0.549-0.618,1.047-1.405,1.047-2.202
		c0-0.817-0.429-1.624-1.335-1.624c-0.578,0-1.116,0.369-1.346,1.016c0.03-0.01,0.05-0.01,0.13-0.01
		c0.349,0,0.527,0.259,0.527,0.518c0,0.409-0.349,0.528-0.518,0.528c-0.03,0-0.528,0-0.528-0.558c0-0.887,0.737-1.804,1.863-1.804
		c1.216,0,2.112,0.797,2.112,1.933c0,0.997-0.598,1.535-2.152,2.909l-1.056,1.026h1.793c0.22,0,0.877,0,0.947-0.079
		c0.1-0.149,0.169-0.588,0.219-0.887h0.249L340.873,45.863z"/>
</g>
<g>
	<path d="M348.125,49.563c1.621-0.387,2.051-1.993,2.065-3.528c0.015-1.965,0.617-2.209,1.291-2.209h0.474
		c0.229,0,0.344,0,0.344,0.144c0,0.115-0.086,0.13-0.172,0.144c-0.703,0.101-0.847,0.99-0.847,1.649
		c-0.014,1.506-0.358,3.772-3.155,4.117v0.803c0,0.517,0.028,0.688,1.276,0.688h0.431v0.416c-0.388-0.028-1.778-0.028-2.252-0.028
		s-1.865,0-2.252,0.028v-0.416h0.431c1.247,0,1.276-0.172,1.276-0.688V49.88c-2.022-0.272-3.069-1.736-3.084-3.787
		c-0.015-1.276-0.201-1.879-0.86-1.979c-0.058-0.014-0.144-0.028-0.144-0.144c0-0.144,0.114-0.144,0.344-0.144h0.459
		c0.847,0,1.277,0.589,1.291,2.022c0,0.904,0.043,3.228,1.994,3.701v-6.455c0-0.516-0.029-0.688-1.276-0.688h-0.431v-0.416
		c0.387,0.029,1.778,0.029,2.252,0.029s1.864,0,2.252-0.029v0.416h-0.431c-1.248,0-1.276,0.172-1.276,0.688V49.563z"/>
</g>
</svg>
