<?xml version="1.0" encoding="iso-8859-1"?>
<!-- Generator: Adobe Illustrator 16.0.0, SVG Export Plug-In . SVG Version: 6.00 Build 0)  -->
<!DOCTYPE svg PUBLIC "-//W3C//DTD SVG 1.1//EN" "http://www.w3.org/Graphics/SVG/1.1/DTD/svg11.dtd">
<svg version="1.1" id="Layer_1" xmlns="http://www.w3.org/2000/svg" xmlns:xlink="http://www.w3.org/1999/xlink" x="0px" y="0px"
	 width="566.929px" height="85.039px" viewBox="0 0 566.929 85.039" style="enable-background:new 0 0 566.929 85.039;"
	 xml:space="preserve">
<g>
	<path d="M34.775,49.438c0,1.448-1.692,3.112-3.887,3.112h-4.919c-0.287,0-0.373,0-0.373-0.158c0-0.258,0.144-0.258,0.416-0.258
		c1.004,0,1.033-0.144,1.162-0.646l1.937-7.717c0.057-0.215,0.057-0.301,0.057-0.33c0-0.157,0-0.272-0.875-0.272
		c-0.215,0-0.344,0-0.344-0.143c0-0.272,0.129-0.272,0.401-0.272h4.604c1.621,0,2.611,0.861,2.611,1.979
		c0,1.32-1.42,2.41-2.983,2.697C33.743,47.544,34.775,48.261,34.775,49.438z M33.57,49.294c0-0.115,0-1.692-1.692-1.692h-2.696
		l-1.004,4.045c-0.029,0.129-0.058,0.215-0.058,0.315c0,0.114,0.014,0.144,0.172,0.157c0.086,0.015,0.115,0.015,0.316,0.015h1.936
		C32.323,52.134,33.57,50.671,33.57,49.294z M29.268,47.314h2.065c1.894,0,3.055-1.478,3.055-2.639c0-0.13,0-1.507-1.621-1.507
		h-1.865c-0.56,0-0.617,0.029-0.746,0.56L29.268,47.314z"/>
</g>
<g>
	<path d="M36.833,54.373c1.136-0.368,2.65-1.484,3.288-3.746c0.08-0.289,0.309-0.329,0.389-0.329c0.169,0,0.289,0.1,0.289,0.27
		c0,0.09-0.269,1.444-1.584,2.67c-1.026,0.957-2.112,1.346-2.81,1.465h-0.14c-0.06,0-0.159-0.01-0.159-0.119
		c0-0.021,0.069-0.3,0.109-0.449l0.608-2.44c0.07-0.27,0.189-0.737,0.189-0.808c0-0.1-0.02-0.169-0.498-0.169
		c-0.149,0-0.239,0-0.239-0.12c0-0.179,0.11-0.189,0.189-0.199c0.259-0.02,0.986-0.1,1.216-0.1c0.129,0,0.129,0.1,0.129,0.109
		L36.833,54.373z"/>
</g>
<g>
	<path d="M46.851,47.902c-0.215,0-0.459,0-0.459-0.272c0-0.258,0.258-0.258,0.459-0.258h8.448c0.215,0,0.459,0,0.459,0.272
		c0,0.258-0.258,0.258-0.459,0.258H46.851z M46.851,50.57c-0.215,0-0.459,0-0.459-0.272c0-0.258,0.258-0.258,0.459-0.258h8.448
		c0.215,0,0.459,0,0.459,0.272c0,0.258-0.258,0.258-0.459,0.258H46.851z"/>
</g>
<g>
	<path d="M67.661,42.844h-5.235V42.5l2.897-3.242c0.817-0.918,1.521-1.979,1.521-3.198c0-1.32-0.746-2.338-1.965-2.338
		c-0.933,0-1.707,0.66-1.979,1.635c0.043-0.014,0.072-0.014,0.201-0.014c0.402,0,0.674,0.272,0.674,0.674
		c0,0.459-0.373,0.674-0.674,0.674c-0.043,0-0.674,0-0.674-0.731c0-1.233,0.976-2.653,2.639-2.653c1.664,0,2.969,1.104,2.969,2.754
		c0,1.42-0.803,2.166-2.983,4.174c-0.373,0.344-1.248,1.262-1.635,1.592h2.654c0.43,0,1.248,0,1.348-0.129
		c0.144-0.229,0.258-1.019,0.301-1.262h0.315L67.661,42.844z"/>
</g>
<g>
	<path d="M71.672,37.652c0.588-0.746,1.306-1.133,2.123-1.133c1.09,0,1.592,0.645,1.592,1.506c0,0.832-0.646,2.524-0.904,3.213
		c-0.058,0.158-0.229,0.617-0.229,0.99c0,0.459,0.229,0.473,0.373,0.473c0.574,0,1.104-0.602,1.434-1.75
		c0.072-0.244,0.086-0.287,0.215-0.287c0.086,0,0.144,0.058,0.144,0.129c0,0.086-0.502,2.195-1.836,2.195
		c-0.688,0-1.133-0.517-1.133-1.162c0-0.258,0.072-0.444,0.201-0.789c0.315-0.861,0.875-2.424,0.875-3.228
		c0-0.574-0.201-1.004-0.774-1.004c-1.104,0-1.75,0.861-2.022,1.276c-0.272,0.416-0.272,0.431-0.43,1.033
		c-0.072,0.315-0.158,0.617-0.229,0.932l-0.646,2.596c-0.072,0.158-0.258,0.344-0.502,0.344c-0.144,0-0.387-0.058-0.387-0.373
		c0-0.086,0-0.115,0.057-0.33l2.08-8.305c0.015-0.043,0.043-0.158,0.043-0.244c0-0.144-0.015-0.272-0.717-0.272
		c-0.201,0-0.315,0-0.315-0.144c0-0.258,0.1-0.272,0.459-0.301c0.258-0.014,0.473-0.043,0.717-0.057
		c0.072-0.015,0.775-0.072,0.789-0.072c0.029,0,0.172,0,0.172,0.143c0,0.072-0.028,0.158-0.043,0.215L71.672,37.652z"/>
	<path d="M78.567,42.414c1.908-0.631,3.873-2.41,4.719-5.408c0.029-0.1,0.129-0.487,0.545-0.487c0.187,0,0.373,0.129,0.373,0.358
		c0,0.057-0.258,1.822-2.108,3.729c-1.678,1.722-3.858,2.238-4.059,2.238h-0.301c-0.101,0-0.144-0.086-0.144-0.144l1.262-5.063
		c0.014-0.058,0.043-0.229,0.043-0.287c0-0.158-0.043-0.258-0.717-0.258c-0.201,0-0.315,0-0.315-0.144
		c0-0.258,0.144-0.272,0.301-0.287c0.215-0.014,1.563-0.143,1.664-0.143c0.115,0,0.158,0.086,0.158,0.143L78.567,42.414z"/>
</g>
<g>
	<path d="M89.232,35.935c0,1.016-0.907,1.923-2.123,1.923c-1.086,0-2.013-0.658-2.013-1.564c0-0.438,0.319-0.578,0.558-0.578
		c0.289,0,0.558,0.199,0.558,0.558c0,0.379-0.309,0.598-0.658,0.548c0.349,0.588,1.096,0.757,1.524,0.757
		c0.438,0,1.126-0.289,1.126-1.644c0-0.977-0.369-1.654-1.186-1.654h-0.438c-0.169,0-0.239,0-0.239-0.109
		c0-0.1,0.07-0.11,0.149-0.12c0.07,0,0.309-0.02,0.389-0.03c0.249-0.01,0.588-0.04,0.887-0.519c0.259-0.438,0.279-1.016,0.279-1.136
		c0-0.896-0.548-1.116-0.957-1.116c-0.358,0-1.016,0.129-1.325,0.618c0.149,0,0.618,0,0.618,0.498c0,0.289-0.199,0.508-0.508,0.508
		c-0.289,0-0.508-0.189-0.508-0.518c0-0.757,0.757-1.355,1.764-1.355c0.957,0,1.833,0.558,1.833,1.375
		c0,0.788-0.578,1.485-1.395,1.754C88.604,34.34,89.232,35.117,89.232,35.935z"/>
</g>
<g>
	<rect x="61.723" y="48.676" width="28.435" height="0.574"/>
</g>
<g>
	<path d="M74.524,56.352c-0.904,0-1.678,0.774-2.051,1.448c-0.516,0.976-0.76,2.366-0.76,2.868c0,0.718,0.315,1.578,1.305,1.578
		c0.545,0,1.908-0.215,2.826-1.435c0.129-0.129,0.144-0.144,0.187-0.144c0.058,0,0.144,0.072,0.144,0.158
		c0,0.187-1.233,1.707-3.185,1.707c-1.463,0-2.237-1.133-2.237-2.381c0-2.037,1.879-4.088,3.758-4.088
		c0.99,0,1.649,0.53,1.649,1.219c0,0.574-0.387,0.861-0.731,0.861c-0.272,0-0.487-0.173-0.487-0.459c0-0.23,0.158-0.445,0.244-0.517
		c0.201-0.173,0.33-0.173,0.603-0.173C75.5,56.38,74.711,56.352,74.524,56.352z"/>
</g>
<g>
	<path d="M80.418,58.246h-3.697c0-0.239,0-0.259,0.11-0.369l1.913-2.132c0.548-0.618,1.046-1.405,1.046-2.202
		c0-0.817-0.428-1.624-1.335-1.624c-0.578,0-1.116,0.369-1.345,1.017c0.03-0.01,0.05-0.01,0.129-0.01
		c0.349,0,0.528,0.259,0.528,0.518c0,0.408-0.349,0.528-0.518,0.528c-0.03,0-0.528,0-0.528-0.559c0-0.887,0.737-1.803,1.863-1.803
		c1.216,0,2.112,0.797,2.112,1.933c0,0.996-0.598,1.534-2.152,2.909l-1.056,1.026h1.793c0.219,0,0.876,0,0.946-0.079
		c0.1-0.149,0.169-0.588,0.219-0.887h0.249L80.418,58.246z"/>
</g>
<g>
	<path d="M123.443,41.74c0,0.517,0.043,0.688,1.305,0.688h0.445v0.416c-0.387-0.029-1.764-0.029-2.238-0.029
		c-0.473,0-1.864,0-2.252,0.029v-0.416h0.445c1.262,0,1.305-0.172,1.305-0.688v-7.473c-0.789,0.373-1.506,0.373-1.836,0.373v-0.416
		c1.478,0,2.194-0.531,2.539-0.918c0.287,0,0.287,0.014,0.287,0.344V41.74z"/>
</g>
<g>
	<rect x="92.549" y="48.676" width="60.549" height="0.574"/>
</g>
<g>
	<path d="M94.356,59.26c-0.215,0.918-0.215,1.277-0.215,1.478c0,1.062,0.43,1.707,1.248,1.707c0.545,0,1.908-0.215,2.826-1.435
		c0.129-0.129,0.144-0.143,0.187-0.143c0.057,0,0.144,0.071,0.144,0.157c0,0.187-1.234,1.707-3.184,1.707
		c-1.306,0-2.166-1.047-2.166-2.554c0-2.553,2.166-3.915,3.672-3.915c0.947,0,1.492,0.573,1.492,1.205
		c0,0.258-0.101,1.09-1.19,1.506c-0.688,0.258-1.664,0.286-2.051,0.286H94.356z M95.03,58.974c0.603,0,2.897,0,2.897-1.506
		c0-0.546-0.431-0.918-1.062-0.918c-0.459,0-1.822,0.215-2.438,2.424H95.03z"/>
</g>
<g>
	<path d="M101.142,54.807c0.369-0.458,0.847-0.768,1.475-0.768c0.747,0,1.146,0.419,1.146,1.066c0,0.578-0.449,1.764-0.608,2.192
		c-0.09,0.219-0.179,0.458-0.179,0.707c0,0.229,0.07,0.329,0.239,0.329c0.548,0,0.867-0.708,1.017-1.235
		c0.05-0.149,0.05-0.18,0.149-0.18c0.03,0,0.12,0,0.12,0.1c0,0.08-0.369,1.534-1.305,1.534c-0.469,0-0.817-0.349-0.817-0.816
		c0-0.199,0.05-0.319,0.13-0.549c0.239-0.607,0.618-1.693,0.618-2.231c0-0.358-0.11-0.697-0.538-0.697
		c-0.429,0-0.737,0.189-0.957,0.349c-0.339,0.269-0.648,0.827-0.678,0.916c-0.01,0.061-0.089,0.389-0.109,0.449
		c-0.05,0.229-0.11,0.448-0.169,0.667c-0.07,0.299-0.149,0.598-0.219,0.897l-0.189,0.757c-0.05,0.14-0.209,0.259-0.369,0.259
		c-0.09,0-0.289-0.05-0.289-0.278c0-0.061,0-0.08,0.04-0.22l1.445-5.739l0.03-0.199c0-0.1-0.02-0.169-0.498-0.169
		c-0.149,0-0.239,0-0.239-0.12c0-0.18,0.11-0.189,0.189-0.199c0.259-0.02,0.986-0.1,1.215-0.1c0.13,0,0.13,0.1,0.13,0.109
		L101.142,54.807z"/>
	<path d="M106.055,58.114c1.136-0.368,2.65-1.484,3.288-3.746c0.08-0.289,0.309-0.329,0.389-0.329c0.169,0,0.289,0.1,0.289,0.27
		c0,0.09-0.269,1.444-1.584,2.67c-1.026,0.957-2.112,1.346-2.81,1.465h-0.14c-0.06,0-0.159-0.01-0.159-0.119
		c0-0.021,0.069-0.3,0.109-0.449l0.608-2.44c0.07-0.27,0.189-0.737,0.189-0.808c0-0.1-0.02-0.169-0.499-0.169
		c-0.149,0-0.239,0-0.239-0.12c0-0.179,0.11-0.189,0.189-0.199c0.259-0.02,0.986-0.1,1.216-0.1c0.129,0,0.129,0.1,0.129,0.109
		L106.055,58.114z"/>
	<path d="M111.334,60.695c-0.06,0.169-0.089,0.239-0.219,0.239c-0.109,0-0.199-0.09-0.199-0.199c0-0.01,0-0.05,0.05-0.18
		l3.458-9.496c0.03-0.06,0.1-0.089,0.169-0.089c0.11,0,0.199,0.089,0.199,0.199c0,0.01,0,0.05-0.05,0.179L111.334,60.695z"/>
	<path d="M117.172,55.843c0.379-0.149,0.768-0.548,1.106-0.927c0.718-0.797,1.176-0.877,1.455-0.877
		c0.448,0,0.677,0.329,0.677,0.628c0,0.389-0.289,0.607-0.548,0.607c-0.269,0-0.378-0.188-0.378-0.349
		c0-0.119,0.089-0.508,0.568-0.538c-0.02-0.02-0.02-0.029-0.04-0.039c-0.08-0.061-0.09-0.061-0.209-0.08
		c-0.02-0.01-0.03-0.01-0.09-0.01c-0.488,0-0.947,0.428-1.425,0.956c-0.229,0.239-0.548,0.559-0.857,0.737
		c0.847,0.109,1.475,0.398,1.475,1.047c0,0.1,0,0.139-0.04,0.309c-0.04,0.159-0.08,0.389-0.08,0.558
		c0,0.359,0.129,0.469,0.319,0.469c0.438,0,0.667-0.509,0.867-1.235c0.03-0.14,0.04-0.18,0.139-0.18c0.03,0,0.12,0,0.12,0.1
		c0,0.02-0.109,0.568-0.359,1.006c-0.219,0.369-0.488,0.528-0.787,0.528c-0.518,0-0.917-0.398-0.917-0.986
		c0-0.109,0.02-0.229,0.04-0.349c0.03-0.1,0.03-0.14,0.03-0.209c0-0.658-0.817-0.817-1.156-0.848
		c-0.06,0.25-0.508,2.093-0.558,2.183c-0.06,0.119-0.209,0.209-0.339,0.209c-0.09,0-0.289-0.05-0.289-0.278
		c0-0.061,0-0.08,0.04-0.22l1.445-5.739l0.03-0.199c0-0.1-0.02-0.169-0.498-0.169c-0.149,0-0.239,0-0.239-0.12
		c0-0.18,0.11-0.189,0.189-0.199c0.259-0.02,0.986-0.1,1.215-0.1c0.13,0,0.13,0.1,0.13,0.109L117.172,55.843z"/>
	<path d="M123.774,57.687c-0.04,0.149-0.04,0.199-0.04,0.209c0,0.159,0.08,0.189,0.369,0.219c0.259,0.021,0.389,0.021,0.638,0.021
		c0.259,0,0.339,0,0.339,0.109c0,0.199-0.12,0.199-0.219,0.199c-0.279,0-0.578-0.02-0.867-0.02c-0.269,0-0.548-0.011-0.827-0.011
		c-0.279,0-0.568,0.011-0.847,0.011c-0.269,0-0.548,0.02-0.817,0.02c-0.06,0-0.169,0-0.169-0.119c0-0.189,0.06-0.189,0.418-0.189
		c1.066,0,1.096-0.11,1.186-0.479l1.335-5.321c0.01-0.029,0.04-0.149,0.04-0.209c0-0.079,0-0.119-0.279-0.119h-0.389
		c-1.475,0-1.734,0.179-2.271,1.724c-0.06,0.159-0.07,0.209-0.169,0.209c-0.07,0-0.12-0.05-0.12-0.109c0-0.02,0.05-0.159,0.06-0.18
		l0.598-1.753c0.069-0.189,0.08-0.2,0.319-0.2h5.53c0.169,0,0.269,0,0.269,0.11c0,0.029-0.01,0.129-0.02,0.169l-0.269,1.734
		c-0.02,0.149-0.04,0.229-0.149,0.229c-0.09,0-0.12-0.069-0.12-0.129c0-0.03,0.02-0.15,0.03-0.189c0.04-0.26,0.08-0.648,0.08-0.798
		c0-0.776-0.449-0.816-1.455-0.816c-0.209,0-0.538,0-0.627,0.02c-0.12,0.03-0.16,0.09-0.229,0.369L123.774,57.687z"/>
</g>
<g>
	<path d="M133.392,59.289c-0.201,0-0.473,0-0.473-0.287s0.272-0.287,0.473-0.287h7.817c0.201,0,0.473,0,0.473,0.287
		s-0.272,0.287-0.473,0.287H133.392z"/>
</g>
<g>
	<path d="M150.205,61.483c0,0.517,0.043,0.688,1.305,0.688h0.445v0.416c-0.387-0.028-1.764-0.028-2.238-0.028
		c-0.473,0-1.865,0-2.252,0.028v-0.416h0.445c1.262,0,1.305-0.172,1.305-0.688v-7.473c-0.789,0.373-1.506,0.373-1.836,0.373v-0.416
		c1.478,0,2.195-0.531,2.539-0.918c0.287,0,0.287,0.015,0.287,0.344V61.483z"/>
</g>
</svg>
