<?xml version="1.0" encoding="iso-8859-1"?>
<!-- Generator: Adobe Illustrator 16.0.0, SVG Export Plug-In . SVG Version: 6.00 Build 0)  -->
<!DOCTYPE svg PUBLIC "-//W3C//DTD SVG 1.1//EN" "http://www.w3.org/Graphics/SVG/1.1/DTD/svg11.dtd">
<svg version="1.1" id="Layer_1" xmlns="http://www.w3.org/2000/svg" xmlns:xlink="http://www.w3.org/1999/xlink" x="0px" y="0px"
	 width="566.929px" height="85.039px" viewBox="0 0 566.929 85.039" style="enable-background:new 0 0 566.929 85.039;"
	 xml:space="preserve">
<g>
	<path d="M26.757,49.521c0.474-1.908,2.008-3.213,3.271-3.213c0.99,0,1.922,0.76,1.922,2.295c0,2.166-1.836,4.174-3.457,4.174
		c-0.56,0-1.09-0.302-1.377-1.019c-0.459,1.765-0.861,3.485-0.918,3.614c-0.086,0.201-0.287,0.345-0.502,0.345
		c-0.215,0-0.388-0.144-0.388-0.358c0-0.087,0.029-0.173,0.043-0.244L26.757,49.521z M30.386,50.782
		c0.244-0.603,0.631-2.022,0.631-2.754c0-0.846-0.359-1.434-1.004-1.434c-0.215,0-1.621,0.071-2.353,2.926
		c-0.043,0.215-0.401,1.577-0.401,1.664c0,0.172,0.244,1.305,1.219,1.305C29.21,52.489,29.956,51.772,30.386,50.782z"/>
</g>
<g>
	<path d="M36.685,56.233c-0.158,0-1.334-0.933-2.181-2.654c-0.746-1.534-0.946-3.241-0.946-4.518c0-1.765,0.33-3.299,1.062-4.748
		c0.703-1.405,1.879-2.438,2.065-2.438c0.057,0,0.129,0.029,0.129,0.115c0,0.043,0,0.072-0.144,0.201
		c-1.664,1.693-2.338,4.087-2.338,6.871c0,2.926,0.803,5.292,2.237,6.741c0.244,0.244,0.244,0.272,0.244,0.315
		C36.813,56.204,36.742,56.233,36.685,56.233z"/>
</g>
<g>
	<path d="M44.142,47.842c0.143-0.53,0.416-1.592,0.416-2.51c0-1.606-0.804-2.61-2.065-2.61c-0.388,0-1.478,0.101-2.065,1.162
		c0.186,0,0.631,0,0.631,0.444c0,0.244-0.215,0.703-0.717,0.703c-0.401,0-0.488-0.316-0.488-0.445c0-0.387,0.617-2.208,2.697-2.208
		c1.836,0,2.998,1.592,2.998,3.658c0,1.965-1.448,6.898-4.833,6.898c-1.951,0-2.553-1.649-2.553-2.524
		c0-2.28,2.065-4.331,4.088-4.331c1.291,0,1.793,0.961,1.879,1.764H44.142z M43.897,48.272c0-0.774-0.301-1.907-1.606-1.907
		c-1.492,0-2.309,1.448-2.496,1.879c-0.215,0.53-0.617,2.008-0.617,2.639c0,0.603,0.229,1.664,1.578,1.664
		C42.965,52.547,43.897,49.334,43.897,48.272z"/>
</g>
<g>
	<path d="M46.345,53.739c-0.04,0.169-0.06,0.239-0.06,0.478c0,0.329,0.1,0.459,0.309,0.459c0.339,0,0.867-0.239,1.295-1.275
		c0.05-0.109,0.06-0.14,0.149-0.14c0.04,0,0.12,0,0.12,0.1c0,0.08-0.568,1.534-1.584,1.534c-0.538,0-0.917-0.378-0.917-0.916
		c0-0.18,0.04-0.35,0.757-3.179h-0.876c-0.199,0-0.279,0-0.279-0.12c0-0.189,0.1-0.189,0.299-0.189h0.937l0.389-1.584
		c0.089-0.349,0.369-0.358,0.398-0.358c0.169,0,0.289,0.1,0.289,0.269c0,0.061-0.05,0.26-0.409,1.674h0.877
		c0.179,0,0.279,0,0.279,0.11c0,0.199-0.1,0.199-0.299,0.199h-0.937L46.345,53.739z"/>
</g>
<g>
	<path d="M51.982,44.07c-0.229,0-0.488,0-0.488-0.259c0-0.272,0.244-0.272,0.488-0.272h4.819c-0.273-0.387-0.359-0.731-0.359-0.86
		c0-0.215,0.172-0.272,0.258-0.272c0.201,0,0.244,0.172,0.287,0.287c0.043,0.172,0.144,0.559,0.545,0.832
		c0.086,0.072,0.201,0.144,0.201,0.272c0,0.158-0.101,0.201-0.244,0.287c-0.33,0.187-0.717,0.459-1.062,0.89
		c-0.101,0.144-0.158,0.229-0.287,0.229c-0.143,0-0.272-0.129-0.272-0.272c0-0.201,0.531-0.703,0.703-0.86H51.982z"/>
	<path d="M52.32,52.776c-0.588,0-1.692-0.229-1.692-1.692c0-0.431,0.072-0.976,0.703-2.683c0.215-0.545,0.373-0.961,0.373-1.334
		c0-0.459-0.229-0.473-0.373-0.473c-0.545,0-1.104,0.545-1.448,1.778c-0.058,0.2-0.072,0.258-0.201,0.258
		c-0.1,0-0.158-0.071-0.158-0.129c0-0.115,0.531-2.194,1.85-2.194c0.688,0,1.133,0.53,1.133,1.147c0,0.287-0.072,0.473-0.244,0.932
		c-0.373,0.962-0.774,2.109-0.774,2.927c0,0.53,0.143,1.176,0.889,1.176c1.047,0,1.606-1.176,1.621-1.176
		c0.101-0.502,0.875-3.586,1.019-4.146c0.086-0.358,0.187-0.717,0.603-0.717c0.215,0,0.387,0.144,0.387,0.358
		c0,0.043,0,0.071-0.101,0.431c-0.187,0.774-0.373,1.506-0.588,2.338c-0.086,0.401-0.187,0.788-0.287,1.176
		c-0.144,0.603-0.187,0.746-0.187,1.076c0,0.186,0,0.659,0.43,0.659c0.574,0,0.832-0.76,1.09-1.75
		c0.057-0.215,0.072-0.286,0.201-0.286c0.086,0,0.144,0.057,0.144,0.129c0,0.043-0.187,0.889-0.43,1.405
		c-0.229,0.487-0.574,0.789-1.033,0.789c-0.344,0-1.033-0.172-1.219-0.976C53.74,52.146,53.238,52.776,52.32,52.776z"/>
</g>
<g>
	<path d="M66.032,53.278c0,0.215,0,0.459-0.272,0.459c-0.258,0-0.258-0.258-0.258-0.459v-3.959h-3.959c-0.215,0-0.459,0-0.459-0.272
		c0-0.258,0.258-0.258,0.459-0.258h3.959V44.83c0-0.215,0-0.459,0.272-0.459c0.258,0,0.258,0.258,0.258,0.459v3.959h3.958
		c0.215,0,0.459,0,0.459,0.272c0,0.258-0.258,0.258-0.459,0.258h-3.958V53.278z"/>
</g>
<g>
	<path d="M77.279,44.07c-0.229,0-0.488,0-0.488-0.259c0-0.272,0.244-0.272,0.488-0.272h4.819c-0.273-0.387-0.359-0.731-0.359-0.86
		c0-0.215,0.172-0.272,0.258-0.272c0.201,0,0.244,0.172,0.287,0.287c0.043,0.172,0.144,0.559,0.545,0.832
		c0.086,0.072,0.201,0.144,0.201,0.272c0,0.158-0.101,0.201-0.244,0.287c-0.33,0.187-0.717,0.459-1.062,0.89
		c-0.101,0.144-0.158,0.229-0.287,0.229c-0.143,0-0.272-0.129-0.272-0.272c0-0.201,0.531-0.703,0.703-0.86H77.279z"/>
	<path d="M77.617,52.776c-0.588,0-1.692-0.229-1.692-1.692c0-0.431,0.072-0.976,0.703-2.683C76.842,47.856,77,47.44,77,47.067
		c0-0.459-0.229-0.473-0.373-0.473c-0.545,0-1.104,0.545-1.448,1.778c-0.058,0.2-0.072,0.258-0.201,0.258
		c-0.1,0-0.158-0.071-0.158-0.129c0-0.115,0.531-2.194,1.85-2.194c0.688,0,1.133,0.53,1.133,1.147c0,0.287-0.072,0.473-0.244,0.932
		c-0.373,0.962-0.774,2.109-0.774,2.927c0,0.53,0.143,1.176,0.889,1.176c1.047,0,1.606-1.176,1.621-1.176
		c0.101-0.502,0.875-3.586,1.019-4.146c0.086-0.358,0.187-0.717,0.603-0.717c0.215,0,0.387,0.144,0.387,0.358
		c0,0.043,0,0.071-0.101,0.431c-0.187,0.774-0.373,1.506-0.588,2.338c-0.086,0.401-0.187,0.788-0.287,1.176
		c-0.144,0.603-0.187,0.746-0.187,1.076c0,0.186,0,0.659,0.43,0.659c0.574,0,0.832-0.76,1.09-1.75
		c0.057-0.215,0.072-0.286,0.201-0.286c0.086,0,0.144,0.057,0.144,0.129c0,0.043-0.187,0.889-0.43,1.405
		c-0.229,0.487-0.574,0.789-1.033,0.789c-0.344,0-1.033-0.172-1.219-0.976C79.037,52.146,78.535,52.776,77.617,52.776z"/>
</g>
<g>
	<path d="M86.864,40.444c-0.229,0-0.488,0-0.488-0.258c0-0.272,0.244-0.272,0.488-0.272h4.819c-0.273-0.387-0.359-0.731-0.359-0.86
		c0-0.215,0.172-0.272,0.258-0.272c0.201,0,0.244,0.172,0.287,0.287c0.043,0.172,0.144,0.56,0.545,0.832
		c0.086,0.072,0.201,0.144,0.201,0.272c0,0.158-0.101,0.201-0.244,0.287c-0.33,0.187-0.717,0.459-1.062,0.89
		c-0.101,0.144-0.158,0.229-0.287,0.229c-0.143,0-0.272-0.129-0.272-0.272c0-0.201,0.531-0.703,0.703-0.861H86.864z"/>
</g>
<g>
	<path d="M88.757,52.848c-0.101,0.187-0.129,0.259-0.373,0.259s-0.272-0.072-0.373-0.259l-4.848-9.725
		c-0.072-0.129-0.072-0.158-0.072-0.172c0-0.115,0.086-0.115,0.315-0.115h9.954c0.229,0,0.315,0,0.315,0.115
		c0,0.014,0,0.043-0.072,0.172L88.757,52.848z M88.8,51.758h0.014l3.93-7.903h-7.889L88.8,51.758z"/>
	<path d="M99.551,49.808c-0.416,0-0.76-0.345-0.76-0.761s0.344-0.76,0.76-0.76s0.76,0.344,0.76,0.76S99.967,49.808,99.551,49.808z"
		/>
</g>
<g>
	<path d="M107.59,44.07c-0.229,0-0.488,0-0.488-0.259c0-0.272,0.244-0.272,0.488-0.272h4.819c-0.272-0.387-0.359-0.731-0.359-0.86
		c0-0.215,0.172-0.272,0.258-0.272c0.201,0,0.244,0.172,0.287,0.287c0.043,0.172,0.143,0.559,0.545,0.832
		c0.086,0.072,0.201,0.144,0.201,0.272c0,0.158-0.101,0.201-0.244,0.287c-0.33,0.187-0.717,0.459-1.062,0.89
		c-0.101,0.144-0.158,0.229-0.287,0.229c-0.143,0-0.272-0.129-0.272-0.272c0-0.201,0.531-0.703,0.703-0.86H107.59z"/>
	<path d="M107.928,52.776c-0.588,0-1.692-0.229-1.692-1.692c0-0.431,0.072-0.976,0.703-2.683c0.215-0.545,0.373-0.961,0.373-1.334
		c0-0.459-0.229-0.473-0.373-0.473c-0.545,0-1.104,0.545-1.449,1.778c-0.057,0.2-0.071,0.258-0.201,0.258
		c-0.1,0-0.158-0.071-0.158-0.129c0-0.115,0.531-2.194,1.851-2.194c0.688,0,1.133,0.53,1.133,1.147c0,0.287-0.072,0.473-0.244,0.932
		c-0.373,0.962-0.775,2.109-0.775,2.927c0,0.53,0.144,1.176,0.89,1.176c1.047,0,1.606-1.176,1.621-1.176
		c0.101-0.502,0.875-3.586,1.019-4.146c0.086-0.358,0.187-0.717,0.602-0.717c0.215,0,0.388,0.144,0.388,0.358
		c0,0.043,0,0.071-0.101,0.431c-0.187,0.774-0.373,1.506-0.588,2.338c-0.086,0.401-0.187,0.788-0.287,1.176
		c-0.144,0.603-0.187,0.746-0.187,1.076c0,0.186,0,0.659,0.431,0.659c0.573,0,0.832-0.76,1.09-1.75
		c0.058-0.215,0.072-0.286,0.201-0.286c0.086,0,0.144,0.057,0.144,0.129c0,0.043-0.187,0.889-0.43,1.405
		c-0.229,0.487-0.574,0.789-1.033,0.789c-0.344,0-1.033-0.172-1.219-0.976C109.348,52.146,108.846,52.776,107.928,52.776z"/>
</g>
<g>
	<path d="M115.711,53.795c-0.703,1.405-1.879,2.438-2.065,2.438c-0.057,0-0.129-0.029-0.129-0.115c0-0.043,0-0.071,0.143-0.201
		c1.664-1.692,2.338-4.087,2.338-6.87c0-2.926-0.803-5.293-2.237-6.741c-0.244-0.244-0.244-0.272-0.244-0.315
		c0-0.086,0.072-0.115,0.129-0.115c0.158,0,1.334,0.932,2.18,2.654c0.803,1.663,0.947,3.442,0.947,4.532
		C116.773,50.782,116.443,52.332,115.711,53.795z"/>
	<path d="M123.412,47.985c-0.215,0-0.459,0-0.459-0.272c0-0.258,0.258-0.258,0.459-0.258h8.448c0.215,0,0.459,0,0.459,0.272
		c0,0.258-0.258,0.258-0.459,0.258H123.412z M123.412,50.653c-0.215,0-0.459,0-0.459-0.272c0-0.258,0.258-0.258,0.459-0.258h8.448
		c0.215,0,0.459,0,0.459,0.272c0,0.258-0.258,0.258-0.459,0.258H123.412z"/>
</g>
<g>
	<path d="M138.751,49.334c-0.201,0-0.474,0-0.474-0.287s0.272-0.287,0.474-0.287h7.817c0.201,0,0.473,0,0.473,0.287
		s-0.272,0.287-0.473,0.287H138.751z"/>
</g>
<g>
	<path d="M152.691,40.444c-0.229,0-0.488,0-0.488-0.258c0-0.272,0.244-0.272,0.488-0.272h4.819c-0.273-0.387-0.359-0.731-0.359-0.86
		c0-0.215,0.172-0.272,0.258-0.272c0.201,0,0.244,0.172,0.287,0.287c0.043,0.172,0.144,0.56,0.545,0.832
		c0.086,0.072,0.201,0.144,0.201,0.272c0,0.158-0.101,0.201-0.244,0.287c-0.33,0.187-0.717,0.459-1.062,0.89
		c-0.101,0.144-0.158,0.229-0.287,0.229c-0.143,0-0.272-0.129-0.272-0.272c0-0.201,0.531-0.703,0.703-0.861H152.691z"/>
</g>
<g>
	<path d="M154.585,52.848c-0.101,0.187-0.129,0.259-0.373,0.259s-0.272-0.072-0.373-0.259l-4.848-9.725
		c-0.072-0.129-0.072-0.158-0.072-0.172c0-0.115,0.086-0.115,0.315-0.115h9.954c0.229,0,0.315,0,0.315,0.115
		c0,0.014,0,0.043-0.072,0.172L154.585,52.848z M154.628,51.758h0.014l3.93-7.903h-7.889L154.628,51.758z"/>
</g>
<g>
	<path d="M163.528,51.729c-0.014,0.071-0.029,0.172-0.029,0.243c0,0.144,0.015,0.244,0.875,0.244c0.215,0,0.344,0,0.344,0.144
		c0,0.272-0.158,0.272-0.272,0.272c-0.272,0-0.574-0.028-0.846-0.028h-1.678c-0.272,0-0.56,0.028-0.832,0.028
		c-0.086,0-0.215,0-0.215-0.158c0-0.258,0.143-0.258,0.416-0.258c1.004,0,1.033-0.144,1.162-0.646l1.937-7.717
		c0.057-0.215,0.057-0.301,0.057-0.33c0-0.157,0-0.272-0.875-0.272c-0.215,0-0.344,0-0.344-0.143c0-0.273,0.129-0.273,0.402-0.273
		h4.432c1.807,0,2.754,1.018,2.754,2.137c0,1.635-1.979,3.098-3.959,3.098h-2.41L163.528,51.729z M164.503,47.728h2.022
		c1.306,0,1.994-0.545,2.238-0.804c0.66-0.659,0.846-1.879,0.846-2.252c0-1.075-0.889-1.42-1.965-1.42h-1.42
		c-0.56,0-0.617,0.029-0.746,0.56L164.503,47.728z"/>
</g>
<g>
	<path d="M180.116,53.278c0,0.215,0,0.459-0.272,0.459c-0.258,0-0.258-0.258-0.258-0.459v-3.959h-3.959
		c-0.215,0-0.459,0-0.459-0.272c0-0.258,0.258-0.258,0.459-0.258h3.959V44.83c0-0.215,0-0.459,0.272-0.459
		c0.258,0,0.258,0.258,0.258,0.459v3.959h3.958c0.215,0,0.459,0,0.459,0.272c0,0.258-0.258,0.258-0.459,0.258h-3.958V53.278z"/>
</g>
<g>
	<path d="M192.953,40.444c-0.229,0-0.488,0-0.488-0.258c0-0.272,0.244-0.272,0.488-0.272h4.819c-0.272-0.387-0.359-0.731-0.359-0.86
		c0-0.215,0.172-0.272,0.258-0.272c0.201,0,0.244,0.172,0.287,0.287c0.043,0.172,0.143,0.56,0.545,0.832
		c0.086,0.072,0.201,0.144,0.201,0.272c0,0.158-0.101,0.201-0.244,0.287c-0.33,0.187-0.717,0.459-1.062,0.89
		c-0.101,0.144-0.158,0.229-0.287,0.229c-0.143,0-0.272-0.129-0.272-0.272c0-0.201,0.531-0.703,0.703-0.861H192.953z"/>
</g>
<g>
	<path d="M194.847,52.848c-0.101,0.187-0.129,0.259-0.373,0.259s-0.272-0.072-0.373-0.259l-4.848-9.725
		c-0.072-0.129-0.072-0.158-0.072-0.172c0-0.115,0.086-0.115,0.315-0.115h9.954c0.229,0,0.315,0,0.315,0.115
		c0,0.014,0,0.043-0.072,0.172L194.847,52.848z M194.89,51.758h0.014l3.93-7.903h-7.889L194.89,51.758z"/>
	<path d="M205.641,49.808c-0.416,0-0.76-0.345-0.76-0.761s0.344-0.76,0.76-0.76s0.76,0.344,0.76,0.76S206.057,49.808,205.641,49.808
		z"/>
</g>
<g>
	<path d="M213.534,44.07c-0.229,0-0.488,0-0.488-0.259c0-0.272,0.244-0.272,0.488-0.272h4.819c-0.272-0.387-0.359-0.731-0.359-0.86
		c0-0.215,0.172-0.272,0.258-0.272c0.201,0,0.244,0.172,0.287,0.287c0.043,0.172,0.143,0.559,0.545,0.832
		c0.086,0.072,0.201,0.144,0.201,0.272c0,0.158-0.101,0.201-0.244,0.287c-0.33,0.187-0.717,0.459-1.062,0.89
		c-0.101,0.144-0.158,0.229-0.287,0.229c-0.143,0-0.272-0.129-0.272-0.272c0-0.201,0.531-0.703,0.703-0.86H213.534z"/>
	<path d="M213.972,52.188c-0.043,0.215-0.115,0.603-0.559,0.603c-0.287,0-0.388-0.201-0.388-0.359c0-0.043,0-0.071,0.072-0.286
		l1.492-4.92h-1.19c-0.358,0-1.104,0-1.85,1.176c-0.072,0.086-0.086,0.129-0.187,0.129c-0.086,0-0.158-0.028-0.158-0.114
		s0.459-0.847,0.832-1.263c0.66-0.702,1.147-0.702,1.477-0.702h3.944c0.258,0,0.531,0,0.531,0.315c0,0.459-0.473,0.459-0.66,0.459
		h-2.381L213.972,52.188z"/>
</g>
<g>
	<path d="M227.437,53.278c0,0.215,0,0.459-0.273,0.459c-0.258,0-0.258-0.258-0.258-0.459v-3.959h-3.959
		c-0.215,0-0.459,0-0.459-0.272c0-0.258,0.258-0.258,0.459-0.258h3.959V44.83c0-0.215,0-0.459,0.272-0.459
		c0.258,0,0.258,0.258,0.258,0.459v3.959h3.958c0.215,0,0.459,0,0.459,0.272c0,0.258-0.258,0.258-0.459,0.258h-3.958V53.278z"/>
</g>
<g>
	<path d="M237.678,49.521c0.474-1.908,2.008-3.213,3.271-3.213c0.99,0,1.922,0.76,1.922,2.295c0,2.166-1.836,4.174-3.457,4.174
		c-0.56,0-1.09-0.302-1.377-1.019c-0.459,1.765-0.861,3.485-0.918,3.614c-0.086,0.201-0.287,0.345-0.502,0.345
		c-0.215,0-0.388-0.144-0.388-0.358c0-0.087,0.029-0.173,0.043-0.244L237.678,49.521z M241.307,50.782
		c0.244-0.603,0.631-2.022,0.631-2.754c0-0.846-0.359-1.434-1.004-1.434c-0.215,0-1.621,0.071-2.353,2.926
		c-0.043,0.215-0.401,1.577-0.401,1.664c0,0.172,0.244,1.305,1.219,1.305C240.131,52.489,240.877,51.772,241.307,50.782z"/>
	<path d="M245.569,44.07c-0.229,0-0.488,0-0.488-0.259c0-0.272,0.244-0.272,0.488-0.272h4.819c-0.273-0.387-0.359-0.731-0.359-0.86
		c0-0.215,0.172-0.272,0.258-0.272c0.201,0,0.244,0.172,0.287,0.287c0.043,0.172,0.144,0.559,0.545,0.832
		c0.086,0.072,0.201,0.144,0.201,0.272c0,0.158-0.101,0.201-0.244,0.287c-0.33,0.187-0.717,0.459-1.062,0.89
		c-0.101,0.144-0.158,0.229-0.287,0.229c-0.143,0-0.272-0.129-0.272-0.272c0-0.201,0.531-0.703,0.703-0.86H245.569z"/>
	<path d="M249.421,46.58c0.215,0,0.373,0.157,0.373,0.358c0,0.028,0,0.058-0.043,0.229l-1.592,6.426
		c-0.186,0.774-1.147,1.965-2.998,1.965c-1.219,0-1.807-0.229-1.807-0.817c0-0.474,0.373-0.76,0.717-0.76
		c0.315,0,0.487,0.229,0.487,0.459c0,0.157-0.115,0.559-0.574,0.688c0.359,0.114,0.717,0.143,1.147,0.143
		c0.316,0,0.861,0,1.449-0.588c0.517-0.502,0.603-0.86,0.803-1.649c0.072-0.301,0.072-0.33,0.315-1.291
		c-0.258,0.287-0.932,0.89-1.692,0.89c-0.918,0-1.822-0.731-1.822-2.224c0-2.137,1.779-4.102,3.342-4.102
		c0.717,0,1.119,0.53,1.305,0.946C248.876,46.867,249.077,46.58,249.421,46.58z M248.618,48.058l0.043-0.201
		c0-0.086-0.187-1.262-1.133-1.262c-0.603,0-1.248,0.573-1.664,1.377c-0.315,0.646-0.746,2.251-0.746,3.012
		c0,0.989,0.444,1.362,0.918,1.362c0.444,0,1.047-0.272,1.635-1.032c0.186-0.216,0.215-0.272,0.272-0.502L248.618,48.058z"/>
</g>
</svg>
