<?xml version="1.0" encoding="iso-8859-1"?>
<!-- Generator: Adobe Illustrator 16.0.0, SVG Export Plug-In . SVG Version: 6.00 Build 0)  -->
<!DOCTYPE svg PUBLIC "-//W3C//DTD SVG 1.1//EN" "http://www.w3.org/Graphics/SVG/1.1/DTD/svg11.dtd">
<svg version="1.1" id="Layer_1" xmlns="http://www.w3.org/2000/svg" xmlns:xlink="http://www.w3.org/1999/xlink" x="0px" y="0px"
	 width="566.929px" height="85.039px" viewBox="0 0 566.929 85.039" style="enable-background:new 0 0 566.929 85.039;"
	 xml:space="preserve">
<g>
	<path d="M35.966,51.997c-0.029,0.114-0.029,0.215-0.029,0.229c0,0.144,0,0.258,0.875,0.258c0.215,0,0.344,0,0.344,0.144
		c0,0.272-0.158,0.272-0.272,0.272c-0.244,0-0.545-0.028-0.789-0.028h-1.692c-0.244,0-0.531,0.028-0.774,0.028
		c-0.086,0-0.215,0-0.215-0.158c0-0.258,0.144-0.258,0.416-0.258c1.004,0,1.033-0.144,1.162-0.646l2.08-8.305h-0.014l-5.766,9.122
		c-0.072,0.129-0.144,0.244-0.301,0.244c-0.129,0-0.144-0.043-0.187-0.388l-1.19-8.907h-0.014l-1.979,7.903
		c-0.058,0.201-0.058,0.216-0.058,0.358c0,0.517,0.459,0.603,0.933,0.617c0.057,0,0.201,0.015,0.201,0.144
		c0,0.272-0.158,0.272-0.258,0.272c-0.201,0-0.444-0.028-0.646-0.028h-0.688c-0.287,0-1.018,0.028-1.305,0.028
		c-0.057,0-0.187,0-0.187-0.158c0-0.243,0.172-0.258,0.215-0.258c0.961-0.043,1.291-0.358,1.463-1.047l1.836-7.315
		c0.058-0.215,0.058-0.301,0.058-0.33c0-0.157,0-0.272-0.875-0.272c-0.215,0-0.344,0-0.344-0.143c0-0.273,0.129-0.273,0.401-0.273
		h1.779c0.373,0,0.387,0,0.43,0.316l1.076,8.204l5.235-8.276c0.158-0.229,0.172-0.244,0.531-0.244h1.721
		c0.272,0,0.373,0,0.373,0.144c0,0.272-0.129,0.272-0.402,0.272c-1.018,0-1.047,0.144-1.176,0.632L35.966,51.997z"/>
</g>
<g>
	<path d="M42.721,53.627c-0.249,0.986-1.285,1.644-2.202,1.644c-0.787,0-1.315-0.468-1.315-1.086c0-0.677,0.488-0.797,0.667-0.797
		c0.169,0,0.438,0.1,0.438,0.419c0,0.299-0.259,0.638-0.647,0.638c-0.02,0-0.09,0-0.12-0.011c0.159,0.519,0.688,0.618,0.946,0.618
		c0.518,0,1.196-0.528,1.435-1.494l1.146-4.574c0.02-0.079,0.04-0.149,0.04-0.209c0-0.14-0.07-0.169-0.309-0.199
		c-0.25-0.02-0.349-0.02-0.578-0.02c-0.259,0-0.339,0-0.339-0.11c0-0.199,0.12-0.199,0.209-0.199c0.329,0,1.136,0.03,1.464,0.03
		c0.25,0,0.857-0.03,1.106-0.03c0.08,0,0.14,0.03,0.14,0.12c0,0.189-0.109,0.189-0.269,0.189c-0.548,0-0.568,0.089-0.647,0.418
		L42.721,53.627z"/>
</g>
<g>
	<path d="M50.695,48.253c-0.215,0-0.459,0-0.459-0.272c0-0.258,0.258-0.258,0.459-0.258h8.448c0.215,0,0.459,0,0.459,0.272
		c0,0.258-0.258,0.258-0.459,0.258H50.695z M50.695,50.921c-0.215,0-0.459,0-0.459-0.272c0-0.258,0.258-0.258,0.459-0.258h8.448
		c0.215,0,0.459,0,0.459,0.272c0,0.258-0.258,0.258-0.459,0.258H50.695z"/>
</g>
<g>
	<path d="M74.112,66.508c-0.201,0-0.229,0-0.402-0.172c-0.588-0.517-1.133-1.104-1.42-1.435c-3.643-4.289-4.934-9.969-4.934-15.605
		c0-6.039,1.506-12.608,6.311-16.982c0.215-0.215,0.244-0.215,0.445-0.215c0.201,0,0.301,0,0.301,0.144c0,0.043,0,0.072-0.043,0.115
		c-0.631,0.631-1.807,1.807-2.94,3.844c-2.366,4.274-2.883,9.252-2.883,13.11c0,5.521,1.047,10.184,3.356,13.884
		c0.961,1.549,1.922,2.51,2.453,3.041c0.029,0.043,0.057,0.071,0.057,0.129C74.413,66.508,74.313,66.508,74.112,66.508z"/>
</g>
<g>
	<path d="M87.062,38.003c0.387-0.014,0.875-0.057,1.305-0.688c0.416-0.617,0.459-1.42,0.459-1.692c0-1.406-0.932-1.621-1.405-1.621
		c-0.072,0-1.42,0-1.965,0.975c0.043-0.014,0.072-0.014,0.158-0.014c0.316,0,0.66,0.201,0.66,0.66c0,0.43-0.344,0.646-0.646,0.646
		c-0.215,0-0.66-0.115-0.66-0.688c0-1.047,1.061-1.922,2.496-1.922c1.391,0,2.567,0.832,2.567,1.965
		c0,1.119-0.803,2.166-2.051,2.524c1.377,0.244,2.438,1.276,2.438,2.596c0,1.449-1.262,2.753-2.969,2.753
		c-1.592,0-2.869-1.047-2.869-2.323c0-0.545,0.373-0.746,0.717-0.746c0.402,0,0.703,0.287,0.703,0.703
		c0,0.517-0.416,0.774-0.875,0.703c0.416,0.947,1.592,1.277,2.28,1.277c0.703,0,1.678-0.502,1.678-2.381
		c0-1.377-0.545-2.381-1.764-2.381h-0.66c-0.258,0-0.33,0-0.33-0.143c0-0.129,0.058-0.144,0.301-0.158L87.062,38.003z"/>
</g>
<g>
	<rect x="76.129" y="49.026" width="22.752" height="0.574"/>
</g>
<g>
	<path d="M81.307,59.93h1.449v0.416h-1.449v1.306c0,0.53,0.043,0.674,1.076,0.674h0.287v0.416c-0.33-0.028-1.478-0.028-1.879-0.028
		c-0.402,0-1.535,0-1.865,0.028v-0.416h0.287c1.047,0,1.076-0.144,1.076-0.674v-1.306h-3.772V59.93l4.317-6.698
		c0.115-0.172,0.158-0.172,0.272-0.172c0.201,0,0.201,0.071,0.201,0.344V59.93z M76.875,59.93h3.485v-5.407L76.875,59.93z"/>
</g>
<g>
	<path d="M86.035,60.575c-0.143,0.574-0.143,0.603-0.373,1.334c-0.172,0.603-0.287,0.976-0.703,0.976
		c-0.129,0-0.387-0.072-0.387-0.373c0-0.086,0-0.115,0.115-0.344c1.176-2.511,1.535-3.759,1.851-4.834h-0.818
		c-0.358,0-1.104,0-1.85,1.176c-0.072,0.086-0.086,0.129-0.187,0.129c-0.086,0-0.158-0.028-0.158-0.114s0.459-0.847,0.832-1.263
		c0.66-0.702,1.147-0.702,1.478-0.702h4.719c0.258,0,0.531,0,0.531,0.315c0,0.459-0.473,0.459-0.66,0.459h-1.606
		c-0.301,1.291-0.301,2.309-0.301,2.396c0,0.1,0,1.334,0.387,2.323c0.101,0.215,0.101,0.244,0.101,0.315
		c0,0.244-0.258,0.517-0.56,0.517c-0.588,0-0.588-1.549-0.588-1.75c0-1.147,0.244-2.194,0.631-3.801h-1.621L86.035,60.575z"/>
	<path d="M93.486,59.629c0.474-1.908,2.008-3.213,3.271-3.213c0.99,0,1.922,0.76,1.922,2.295c0,2.166-1.836,4.174-3.457,4.174
		c-0.56,0-1.09-0.302-1.377-1.019c-0.459,1.765-0.861,3.485-0.918,3.614c-0.086,0.201-0.287,0.345-0.502,0.345
		c-0.215,0-0.387-0.144-0.387-0.358c0-0.086,0.028-0.173,0.043-0.244L93.486,59.629z M97.115,60.891
		c0.244-0.603,0.631-2.022,0.631-2.754c0-0.846-0.359-1.434-1.004-1.434c-0.215,0-1.621,0.071-2.352,2.926
		c-0.043,0.215-0.402,1.577-0.402,1.664c0,0.172,0.244,1.305,1.219,1.305C95.939,62.598,96.685,61.881,97.115,60.891z"/>
</g>
<g>
	<path d="M101.324,66.293c-0.215,0.215-0.244,0.215-0.445,0.215c-0.172,0-0.301,0-0.301-0.144c0-0.043,0.029-0.086,0.058-0.129
		c0.602-0.603,1.793-1.793,2.926-3.83c2.367-4.274,2.883-9.251,2.883-13.109c0-5.522-1.047-10.184-3.356-13.884
		c-0.961-1.549-1.922-2.51-2.424-3.027c-0.028-0.028-0.086-0.086-0.086-0.143c0-0.144,0.129-0.144,0.301-0.144
		c0.201,0,0.229,0,0.402,0.172c0.588,0.516,1.133,1.104,1.42,1.434c3.643,4.289,4.934,9.968,4.934,15.606
		C107.635,55.349,106.129,61.918,101.324,66.293z"/>
</g>
<g>
	<path d="M113.566,35.157c0,0.369,0.03,0.478,0.927,0.478h0.319v0.309c-0.349-0.03-1.215-0.03-1.614-0.03
		c-0.398,0-1.265,0-1.614,0.03v-0.309h0.319c0.896,0,0.926-0.119,0.926-0.478v-5.162c-0.518,0.259-1.106,0.259-1.305,0.259v-0.309
		c0.319,0,1.196,0,1.813-0.638c0.229,0,0.229,0.02,0.229,0.259V35.157z"/>
</g>
<g>
	<path d="M116.584,38.196c-0.06,0.169-0.089,0.239-0.219,0.239c-0.109,0-0.199-0.09-0.199-0.2c0-0.01,0-0.05,0.05-0.179l3.458-9.496
		c0.03-0.06,0.1-0.09,0.169-0.09c0.11,0,0.199,0.09,0.199,0.199c0,0.01,0,0.05-0.05,0.18L116.584,38.196z"/>
</g>
<g>
	<path d="M124.794,35.944h-3.697c0-0.239,0-0.259,0.11-0.369l1.913-2.132c0.548-0.618,1.046-1.405,1.046-2.202
		c0-0.817-0.428-1.624-1.335-1.624c-0.578,0-1.116,0.369-1.345,1.016c0.03-0.01,0.05-0.01,0.129-0.01
		c0.349,0,0.528,0.259,0.528,0.518c0,0.409-0.349,0.528-0.518,0.528c-0.03,0-0.528,0-0.528-0.558c0-0.887,0.737-1.804,1.863-1.804
		c1.216,0,2.112,0.797,2.112,1.933c0,0.997-0.598,1.535-2.152,2.91l-1.056,1.026h1.793c0.219,0,0.876,0,0.946-0.08
		c0.1-0.149,0.169-0.588,0.219-0.887h0.249L124.794,35.944z"/>
</g>
<g>
	<path d="M138.209,66.508c-0.201,0-0.229,0-0.402-0.172c-0.588-0.517-1.133-1.104-1.42-1.435c-3.643-4.289-4.934-9.969-4.934-15.605
		c0-6.039,1.506-12.608,6.311-16.982c0.215-0.215,0.244-0.215,0.445-0.215c0.201,0,0.301,0,0.301,0.144c0,0.043,0,0.072-0.043,0.115
		c-0.631,0.631-1.807,1.807-2.94,3.844c-2.367,4.274-2.883,9.252-2.883,13.11c0,5.521,1.047,10.184,3.356,13.884
		c0.961,1.549,1.922,2.51,2.453,3.041c0.029,0.043,0.058,0.071,0.058,0.129C138.511,66.508,138.41,66.508,138.209,66.508z"/>
</g>
<g>
	<path d="M142.062,37.946c0.373-0.402,1.004-0.76,1.822-0.76c1.506,0,2.653,1.42,2.653,3.127c0,1.821-1.42,3.184-3.041,3.184
		c-1.592,0-2.567-1.391-2.567-2.61c0-0.56,0.373-0.688,0.631-0.688c0.358,0,0.631,0.229,0.631,0.631
		c0,0.488-0.387,0.631-0.631,0.631c-0.072,0-0.158-0.015-0.229-0.043c0.258,1.047,1.19,1.692,2.137,1.692
		c0.631,0,1.19-0.359,1.506-0.875c0.402-0.646,0.402-1.463,0.402-2.008c0-0.545-0.015-1.248-0.258-1.807
		c-0.115-0.244-0.488-0.947-1.248-0.947c-0.717,0-1.391,0.344-1.793,0.933c-0.143,0.172-0.158,0.187-0.229,0.187
		c-0.172,0-0.172-0.086-0.172-0.344v-4.26c0-0.229,0-0.315,0.115-0.315c0.014,0,0.043,0,0.144,0.043
		c0.272,0.115,0.946,0.402,1.893,0.402c0.373,0,1.062-0.043,1.865-0.388c0.129-0.057,0.158-0.057,0.187-0.057
		c0.086,0,0.115,0.072,0.115,0.129c0,0.201-1.033,1.392-2.654,1.392c-0.158,0-0.66-0.015-1.276-0.215V37.946z"/>
</g>
<g>
	<path d="M149.802,39.495c0.531-0.201,1.061-0.746,1.205-0.918c1.019-1.147,1.664-1.707,2.453-1.707c0.646,0,0.976,0.43,0.976,0.846
		c0,0.459-0.344,0.789-0.731,0.789c-0.201,0-0.474-0.115-0.474-0.459c0-0.287,0.201-0.66,0.732-0.717
		c-0.101-0.086-0.187-0.172-0.517-0.172c-0.66,0-1.219,0.459-2.037,1.377c-0.201,0.215-0.717,0.774-1.234,1.09
		c1.32,0.172,2.08,0.646,2.08,1.492c0,0.172,0,0.186-0.058,0.444c-0.057,0.215-0.115,0.531-0.115,0.803
		c0,0.545,0.187,0.688,0.474,0.688c0.731,0,1.033-1.004,1.233-1.75c0.057-0.229,0.072-0.287,0.201-0.287
		c0.086,0,0.144,0.057,0.144,0.129c0,0.058-0.187,0.861-0.488,1.392c-0.115,0.201-0.459,0.803-1.119,0.803
		c-0.731,0-1.276-0.56-1.276-1.392c0-0.071,0-0.244,0.057-0.459c0.043-0.215,0.043-0.272,0.043-0.358
		c0-0.688-0.617-1.119-1.649-1.233c-0.603,2.352-0.545,2.151-0.674,2.682c-0.114,0.445-0.201,0.76-0.602,0.76
		c-0.144,0-0.387-0.058-0.387-0.373c0-0.086,0-0.115,0.057-0.33l2.051-8.204c0.072-0.258,0.072-0.287,0.072-0.344
		c0-0.144,0-0.272-0.732-0.272c-0.143,0-0.287,0-0.287-0.144c0-0.258,0.101-0.272,0.445-0.301c0.258-0.014,0.473-0.043,0.717-0.057
		c0.258-0.029,0.775-0.072,0.789-0.072c0.029,0,0.172,0,0.172,0.144c0,0.071-0.028,0.158-0.043,0.215L149.802,39.495z"/>
</g>
<g>
	<path d="M157.484,39.218c0.03-0.12,0.04-0.149,0.04-0.189c0-0.129-0.09-0.139-0.269-0.159c-0.169-0.02-0.359-0.02-0.378-0.02
		c-0.189,0-0.279,0-0.279-0.109c0-0.199,0.1-0.199,0.289-0.199h3.348c1.195,0,1.853,0.638,1.853,1.375
		c0,0.946-1.046,1.684-2.083,1.873c0.967,0.109,1.544,0.688,1.544,1.405c0,0.977-1.176,2.152-2.75,2.152h-3.557
		c-0.179,0-0.269,0-0.269-0.109c0-0.199,0.1-0.199,0.269-0.199c0.787,0,0.807-0.08,0.907-0.469L157.484,39.218z M158.561,45.037
		c1.176,0,2.062-0.967,2.062-1.953c0-0.429-0.189-1.166-1.146-1.166h-1.883l-0.688,2.78c-0.05,0.179-0.05,0.199-0.05,0.229
		c0,0.08,0.03,0.09,0.129,0.101c0.06,0.01,0.08,0.01,0.219,0.01H158.561z M159.109,41.699c1.215,0,2.072-0.946,2.072-1.823
		c0-0.438-0.209-1.026-1.086-1.026h-1.286c-0.428,0-0.448,0.03-0.538,0.379l-0.618,2.471H159.109z"/>
</g>
<g>
	<path d="M167.169,42.091c-0.057,0.229-0.057,0.33-0.057,0.344c0,0.215,0,0.344,1.291,0.344c0.373,0,0.474,0,0.474,0.144
		c0,0.272-0.144,0.272-0.301,0.272c-0.359,0-0.746-0.028-1.104-0.028h-2.238c-0.358,0-0.731,0.028-1.09,0.028
		c-0.072,0-0.229,0-0.229-0.144c0-0.272,0.101-0.272,0.459-0.272c1.521,0,1.549-0.144,1.692-0.703l1.922-7.703
		c0.072-0.258,0.072-0.287,0.072-0.33c0-0.158-0.143-0.158-0.487-0.158h-0.961c-1.907,0-2.208,0.803-2.811,2.539
		c-0.057,0.187-0.086,0.244-0.201,0.244c-0.086,0-0.144-0.071-0.144-0.143c0-0.015,0.043-0.172,0.058-0.201l0.875-2.582
		c0.086-0.258,0.101-0.272,0.431-0.272h7.846c0.287,0,0.373,0,0.373,0.158c0,0.043,0,0.072-0.028,0.201l-0.416,2.539
		c-0.043,0.229-0.043,0.301-0.187,0.301c-0.086,0-0.144-0.086-0.144-0.143l0.015-0.172c0.086-0.531,0.143-1.076,0.143-1.291
		c0-1.119-0.674-1.176-2.108-1.176c-0.301,0-0.774,0-0.889,0.028c-0.215,0.058-0.244,0.187-0.33,0.531L167.169,42.091z"/>
</g>
<g>
	<rect x="140.226" y="49.026" width="33.068" height="0.574"/>
</g>
<g>
	<path d="M156.791,56.43c-0.057,0.259-0.072,0.273-0.229,0.273c-0.043,0-0.187,0-0.187-0.13c0-0.2,0.058-0.516,0.058-0.745
		c0-1.32-0.603-2.769-2.295-2.769c-1.262,0-2.596,0.703-3.5,1.735c-1.391,1.621-1.735,3.815-1.735,4.776
		c0,2.481,1.793,3.056,2.897,3.056c0.846,0,1.979-0.33,2.524-1.134c0.272-0.43,0.545-1.879,0.545-1.894c0-0.215,0-0.329-1.133-0.329
		h-0.358c0-0.015-0.115-0.015-0.115-0.158c0-0.258,0.172-0.258,0.301-0.258c0.588,0,1.219,0.028,1.821,0.028h0.775
		c0.258,0,0.531-0.028,0.774-0.028c0.043,0,0.187,0,0.187,0.144c0,0.272-0.172,0.272-0.229,0.272
		c-0.789,0.014-0.818,0.057-0.961,0.603c-0.101,0.43-0.158,0.631-0.273,1.104l-0.229,0.918c-0.071,0.259-0.186,0.761-0.201,0.789
		c-0.014,0-0.029,0.043-0.1,0.043c-0.101,0-0.416-0.387-0.574-0.932c-0.717,0.903-2.022,1.247-3.055,1.247
		c-2.151,0-3.787-1.52-3.787-3.887c0-3.385,3.227-6.512,6.296-6.512c0.215,0,0.832,0,1.449,0.388
		c0.56,0.329,0.846,0.831,0.918,0.946l0.99-1.19c0.115-0.144,0.172-0.144,0.201-0.144c0.029,0,0.129,0,0.129,0.129L156.791,56.43z"
		/>
	<path d="M159.465,65.094c-0.1,0.401-0.186,0.731-0.602,0.731c-0.215,0-0.388-0.144-0.388-0.358c0-0.086,0.029-0.173,0.043-0.244
		l2.08-8.305c0.115-0.459,0.43-0.502,0.56-0.502c0.187,0,0.373,0.129,0.373,0.358c0,0.086-0.115,0.545-0.186,0.817l-0.646,2.582
		c-0.058,0.244-0.187,0.746-0.187,1.162c0,0.674,0.258,1.262,1.062,1.262c0.903,0,1.463-0.774,1.635-1.019
		c0.187-0.229,0.187-0.258,0.258-0.545l1.004-3.987c0.115-0.431,0.416-0.487,0.545-0.487c0.215,0,0.387,0.144,0.387,0.358
		c0,0.058-0.158,0.674-0.244,1.019c-0.072,0.258-0.229,0.903-0.287,1.176c-0.129,0.517-0.272,1.033-0.402,1.549
		c-0.1,0.431-0.229,0.947-0.229,1.276c0,0.287,0.029,0.66,0.445,0.66c0.588,0,0.86-0.903,1.076-1.75
		c0.057-0.215,0.072-0.287,0.201-0.287c0.086,0,0.144,0.058,0.144,0.13c0,0.057-0.201,0.932-0.43,1.42
		c-0.258,0.517-0.603,0.774-1.033,0.774c-0.502,0-1.104-0.302-1.248-1.062c-0.33,0.444-0.961,1.062-1.879,1.062
		c-0.488,0-1.019-0.129-1.377-0.459C159.537,64.778,159.623,64.491,159.465,65.094z"/>
</g>
<g>
	<path d="M175.737,66.293c-0.215,0.215-0.244,0.215-0.445,0.215c-0.172,0-0.301,0-0.301-0.144c0-0.043,0.029-0.086,0.058-0.129
		c0.602-0.603,1.792-1.793,2.926-3.83c2.367-4.274,2.883-9.251,2.883-13.109c0-5.522-1.047-10.184-3.356-13.884
		c-0.961-1.549-1.922-2.51-2.424-3.027c-0.028-0.028-0.086-0.086-0.086-0.143c0-0.144,0.129-0.144,0.301-0.144
		c0.201,0,0.229,0,0.401,0.172c0.588,0.516,1.133,1.104,1.42,1.434c3.643,4.289,4.934,9.968,4.934,15.606
		C182.048,55.349,180.542,61.918,175.737,66.293z"/>
</g>
<g>
	<path d="M189.604,34.24c0,1.016-0.907,1.923-2.123,1.923c-1.086,0-2.013-0.658-2.013-1.564c0-0.438,0.319-0.578,0.558-0.578
		c0.289,0,0.558,0.199,0.558,0.558c0,0.379-0.309,0.598-0.658,0.548c0.349,0.588,1.096,0.757,1.524,0.757
		c0.438,0,1.126-0.289,1.126-1.644c0-0.977-0.369-1.654-1.186-1.654h-0.438c-0.169,0-0.239,0-0.239-0.109
		c0-0.1,0.07-0.11,0.149-0.12c0.07,0,0.309-0.02,0.389-0.03c0.249-0.01,0.588-0.04,0.887-0.519c0.259-0.438,0.279-1.016,0.279-1.136
		c0-0.896-0.548-1.116-0.957-1.116c-0.358,0-1.016,0.129-1.325,0.618c0.149,0,0.618,0,0.618,0.498c0,0.289-0.199,0.508-0.508,0.508
		c-0.289,0-0.508-0.189-0.508-0.518c0-0.757,0.757-1.355,1.764-1.355c0.957,0,1.833,0.558,1.833,1.375
		c0,0.788-0.578,1.485-1.395,1.754C188.976,32.646,189.604,33.423,189.604,34.24z"/>
</g>
<g>
	<path d="M190.998,38.196c-0.06,0.169-0.089,0.239-0.219,0.239c-0.109,0-0.199-0.09-0.199-0.2c0-0.01,0-0.05,0.05-0.179l3.458-9.496
		c0.03-0.06,0.1-0.09,0.169-0.09c0.11,0,0.199,0.09,0.199,0.199c0,0.01,0,0.05-0.05,0.18L190.998,38.196z"/>
</g>
<g>
	<path d="M199.208,35.944h-3.697c0-0.239,0-0.259,0.11-0.369l1.913-2.132c0.548-0.618,1.046-1.405,1.046-2.202
		c0-0.817-0.428-1.624-1.335-1.624c-0.578,0-1.116,0.369-1.345,1.016c0.03-0.01,0.05-0.01,0.129-0.01
		c0.349,0,0.528,0.259,0.528,0.518c0,0.409-0.349,0.528-0.518,0.528c-0.03,0-0.528,0-0.528-0.558c0-0.887,0.737-1.804,1.863-1.804
		c1.216,0,2.112,0.797,2.112,1.933c0,0.997-0.598,1.535-2.152,2.91l-1.056,1.026h1.793c0.219,0,0.876,0,0.946-0.08
		c0.1-0.149,0.169-0.588,0.219-0.887h0.249L199.208,35.944z"/>
</g>
</svg>
