<?xml version="1.0" encoding="iso-8859-1"?>
<!-- Generator: Adobe Illustrator 16.0.0, SVG Export Plug-In . SVG Version: 6.00 Build 0)  -->
<!DOCTYPE svg PUBLIC "-//W3C//DTD SVG 1.1//EN" "http://www.w3.org/Graphics/SVG/1.1/DTD/svg11.dtd">
<svg version="1.1" id="Layer_1" xmlns="http://www.w3.org/2000/svg" xmlns:xlink="http://www.w3.org/1999/xlink" x="0px" y="0px"
	 width="566.929px" height="85.039px" viewBox="0 0 566.929 85.039" style="enable-background:new 0 0 566.929 85.039;"
	 xml:space="preserve">
<g>
	<path d="M31.247,52.493c-0.101,0.187-0.129,0.259-0.373,0.259s-0.272-0.072-0.373-0.259l-4.848-9.725
		c-0.072-0.129-0.072-0.158-0.072-0.172c0-0.115,0.086-0.115,0.315-0.115h9.954c0.229,0,0.315,0,0.315,0.115
		c0,0.014,0,0.043-0.072,0.172L31.247,52.493z M31.29,51.403h0.014l3.93-7.903h-7.889L31.29,51.403z"/>
</g>
<g>
	<path d="M41.057,46.354H37.36c0-0.239,0-0.259,0.11-0.369l1.913-2.132c0.548-0.618,1.046-1.405,1.046-2.202
		c0-0.817-0.428-1.624-1.335-1.624c-0.578,0-1.116,0.369-1.345,1.016c0.03-0.01,0.05-0.01,0.129-0.01
		c0.349,0,0.528,0.259,0.528,0.518c0,0.409-0.349,0.528-0.518,0.528c-0.03,0-0.528,0-0.528-0.558c0-0.887,0.737-1.804,1.863-1.804
		c1.216,0,2.112,0.797,2.112,1.933c0,0.997-0.598,1.534-2.152,2.909l-1.056,1.026h1.793c0.219,0,0.876,0,0.946-0.079
		c0.1-0.149,0.169-0.588,0.219-0.887h0.249L41.057,46.354z"/>
</g>
<g>
	<path d="M47.662,45.924c1.592,0.101,2.682,1.134,2.682,2.582c0,1.808-1.865,3.815-4.317,3.944c-0.186,0.718-0.358,1.42-0.531,2.138
		c-0.057,0.187-0.143,0.53-0.172,0.559c-0.029,0.058-0.086,0.058-0.129,0.058c-0.144,0-0.144-0.086-0.144-0.114
		c0-0.058,0.115-0.531,0.315-1.291c0.115-0.444,0.215-0.903,0.33-1.349c-1.492-0.086-2.682-1.032-2.682-2.581
		c0-1.793,1.807-3.729,4.159-3.931c0.029,0,0.129-0.015,0.144-0.043c0.014-0.015,0.029-0.028,0.072-0.215l0.774-3.084
		c0.058-0.244,0.072-0.272,0.201-0.272c0.043,0,0.143,0,0.143,0.129L47.662,45.924z M47.261,46.226
		c-2.065,0.129-3.371,2.137-3.371,3.944c0,1.578,1.176,1.95,1.879,1.994L47.261,46.226z M46.099,52.149
		c2.238-0.172,3.371-2.324,3.371-3.944c0-1.406-0.946-1.937-1.893-1.994L46.099,52.149z"/>
</g>
<g>
	<path d="M55.874,47.631c-0.215,0-0.459,0-0.459-0.272c0-0.258,0.258-0.258,0.459-0.258h8.448c0.215,0,0.459,0,0.459,0.272
		c0,0.258-0.258,0.258-0.459,0.258H55.874z M55.874,50.299c-0.215,0-0.459,0-0.459-0.272c0-0.258,0.258-0.258,0.459-0.258h8.448
		c0.215,0,0.459,0,0.459,0.272c0,0.258-0.258,0.258-0.459,0.258H55.874z"/>
	<path d="M74.731,49.467h1.449v0.416h-1.449v1.306c0,0.53,0.043,0.674,1.076,0.674h0.287v0.416c-0.33-0.028-1.478-0.028-1.879-0.028
		c-0.402,0-1.535,0-1.865,0.028v-0.416h0.287c1.047,0,1.076-0.144,1.076-0.674v-1.306h-3.772v-0.416l4.317-6.698
		c0.115-0.172,0.158-0.172,0.272-0.172c0.201,0,0.201,0.072,0.201,0.344V49.467z M70.3,49.467h3.485V44.06L70.3,49.467z"/>
</g>
<g>
	<path d="M79.457,50.112c-0.143,0.574-0.143,0.603-0.373,1.334c-0.172,0.603-0.287,0.976-0.703,0.976
		c-0.129,0-0.387-0.072-0.387-0.373c0-0.086,0-0.115,0.115-0.344c1.176-2.511,1.535-3.759,1.85-4.834h-0.817
		c-0.358,0-1.104,0-1.85,1.176c-0.072,0.086-0.086,0.129-0.187,0.129c-0.086,0-0.158-0.028-0.158-0.114s0.459-0.847,0.832-1.263
		c0.66-0.702,1.147-0.702,1.477-0.702h4.719c0.258,0,0.53,0,0.53,0.315c0,0.459-0.473,0.459-0.66,0.459H82.24
		c-0.301,1.291-0.301,2.309-0.301,2.396c0,0.1,0,1.334,0.387,2.323c0.101,0.215,0.101,0.244,0.101,0.315
		c0,0.244-0.258,0.517-0.56,0.517c-0.588,0-0.588-1.549-0.588-1.75c0-1.147,0.244-2.194,0.631-3.801h-1.621L79.457,50.112z"/>
	<path d="M94.855,45.967c-0.057,0.259-0.072,0.273-0.229,0.273c-0.043,0-0.187,0-0.187-0.13c0-0.2,0.058-0.516,0.058-0.745
		c0-1.32-0.603-2.769-2.295-2.769c-1.262,0-2.596,0.703-3.5,1.735c-1.391,1.621-1.735,3.815-1.735,4.776
		c0,2.481,1.793,3.056,2.897,3.056c0.846,0,1.979-0.33,2.524-1.134c0.272-0.43,0.545-1.879,0.545-1.894c0-0.215,0-0.329-1.133-0.329
		h-0.358c0-0.015-0.115-0.015-0.115-0.158c0-0.258,0.172-0.258,0.301-0.258c0.588,0,1.219,0.028,1.821,0.028h0.775
		c0.258,0,0.531-0.028,0.774-0.028c0.043,0,0.187,0,0.187,0.144c0,0.272-0.172,0.272-0.229,0.272
		c-0.789,0.014-0.818,0.057-0.961,0.603c-0.101,0.43-0.158,0.631-0.273,1.104l-0.229,0.918c-0.071,0.259-0.186,0.761-0.201,0.789
		c-0.014,0-0.029,0.043-0.1,0.043c-0.101,0-0.416-0.387-0.574-0.932c-0.717,0.903-2.022,1.247-3.055,1.247
		c-2.151,0-3.787-1.52-3.787-3.887c0-3.385,3.227-6.512,6.296-6.512c0.215,0,0.832,0,1.449,0.387c0.56,0.33,0.846,0.832,0.918,0.947
		l0.99-1.19c0.115-0.144,0.172-0.144,0.201-0.144c0.029,0,0.129,0,0.129,0.129L94.855,45.967z"/>
	<path d="M97.989,49.166c0.474-1.908,2.008-3.213,3.271-3.213c0.99,0,1.922,0.76,1.922,2.295c0,2.166-1.836,4.174-3.457,4.174
		c-0.56,0-1.09-0.302-1.377-1.019c-0.459,1.765-0.861,3.485-0.918,3.614c-0.086,0.201-0.287,0.345-0.502,0.345
		c-0.215,0-0.387-0.144-0.387-0.358c0-0.086,0.028-0.173,0.043-0.244L97.989,49.166z M101.618,50.428
		c0.244-0.603,0.631-2.022,0.631-2.754c0-0.846-0.359-1.434-1.004-1.434c-0.215,0-1.621,0.071-2.352,2.926
		c-0.043,0.215-0.402,1.577-0.402,1.664c0,0.172,0.244,1.305,1.219,1.305C100.442,52.135,101.188,51.418,101.618,50.428z"/>
</g>
</svg>
