<?xml version="1.0" encoding="iso-8859-1"?>
<!-- Generator: Adobe Illustrator 16.0.0, SVG Export Plug-In . SVG Version: 6.00 Build 0)  -->
<!DOCTYPE svg PUBLIC "-//W3C//DTD SVG 1.1//EN" "http://www.w3.org/Graphics/SVG/1.1/DTD/svg11.dtd">
<svg version="1.1" id="Layer_1" xmlns="http://www.w3.org/2000/svg" xmlns:xlink="http://www.w3.org/1999/xlink" x="0px" y="0px"
	 width="566.929px" height="85.039px" viewBox="0 0 566.929 85.039" style="enable-background:new 0 0 566.929 85.039;"
	 xml:space="preserve">
<g>
	<path d="M33.57,52.161c-0.1,0.229-0.114,0.244-0.43,0.244h-7.2c-0.287,0-0.373,0-0.373-0.158c0-0.258,0.144-0.258,0.416-0.258
		c1.004,0,1.033-0.144,1.162-0.646l1.937-7.745c0.043-0.158,0.058-0.215,0.058-0.287c0-0.157,0-0.258-0.89-0.258
		c-0.244,0-0.344,0-0.344-0.158c0-0.258,0.144-0.258,0.416-0.258h7c0.258,0,0.387,0,0.387,0.158c0,0.029-0.028,0.172-0.028,0.215
		l-0.301,2.51c-0.029,0.258-0.086,0.315-0.187,0.315c-0.086,0-0.158-0.043-0.158-0.157c0-0.029,0.014-0.115,0.029-0.173
		c0.057-0.473,0.057-0.875,0.057-0.889c0-1.091-0.358-1.563-2.123-1.563h-2.051c-0.588,0-0.617,0.043-0.746,0.545l-0.889,3.528
		h1.363c1.276,0,1.563-0.315,1.85-1.42c0.058-0.201,0.072-0.258,0.201-0.258c0.086,0,0.144,0.071,0.144,0.143L32.05,48.92
		c-0.058,0.201-0.072,0.301-0.201,0.301c-0.086,0-0.158-0.043-0.158-0.143c0-0.044,0.015-0.101,0.043-0.158
		c0.101-0.431,0.101-0.56,0.101-0.703c0-0.43-0.086-0.674-1.205-0.674h-1.42l-0.989,3.959c-0.029,0.129-0.058,0.215-0.058,0.315
		c0,0.114,0.015,0.144,0.172,0.157c0.086,0.015,0.115,0.015,0.315,0.015h2.094c2.295,0,2.912-0.86,3.758-2.868
		c0.129-0.287,0.129-0.316,0.158-0.33c0.043-0.043,0.072-0.058,0.129-0.058c0.086,0,0.144,0.071,0.144,0.144
		c0,0.058-0.043,0.157-0.057,0.201L33.57,52.161z"/>
</g>
<g>
	<path d="M43.069,56.006c-0.158,0-1.333-0.933-2.18-2.654c-0.746-1.534-0.947-3.241-0.947-4.518c0-1.765,0.33-3.299,1.061-4.748
		c0.703-1.405,1.879-2.438,2.065-2.438c0.058,0,0.129,0.029,0.129,0.115c0,0.043,0,0.072-0.144,0.201
		c-1.664,1.693-2.338,4.087-2.338,6.871c0,2.926,0.803,5.293,2.238,6.741c0.244,0.244,0.244,0.272,0.244,0.315
		C43.199,55.977,43.127,56.006,43.069,56.006z"/>
</g>
<g>
	<path d="M46.553,48.705c0.531-0.201,1.061-0.746,1.205-0.918c1.019-1.147,1.664-1.707,2.453-1.707c0.646,0,0.976,0.43,0.976,0.846
		c0,0.459-0.344,0.789-0.731,0.789c-0.201,0-0.474-0.114-0.474-0.459c0-0.287,0.201-0.659,0.732-0.717
		c-0.101-0.086-0.187-0.172-0.517-0.172c-0.66,0-1.219,0.459-2.037,1.377c-0.201,0.215-0.717,0.774-1.234,1.09
		c1.32,0.172,2.08,0.646,2.08,1.491c0,0.173,0,0.187-0.058,0.445c-0.057,0.215-0.115,0.53-0.115,0.803
		c0,0.545,0.187,0.688,0.474,0.688c0.731,0,1.033-1.004,1.233-1.75c0.057-0.229,0.072-0.287,0.201-0.287
		c0.086,0,0.144,0.058,0.144,0.13c0,0.057-0.187,0.86-0.488,1.391c-0.115,0.201-0.459,0.804-1.119,0.804
		c-0.731,0-1.276-0.56-1.276-1.392c0-0.071,0-0.243,0.057-0.459c0.043-0.215,0.043-0.272,0.043-0.358
		c0-0.688-0.617-1.119-1.649-1.233c-0.603,2.353-0.545,2.151-0.674,2.682c-0.114,0.445-0.201,0.761-0.602,0.761
		c-0.144,0-0.387-0.058-0.387-0.373c0-0.086,0-0.115,0.057-0.33l2.051-8.204c0.072-0.258,0.072-0.287,0.072-0.345
		c0-0.143,0-0.272-0.732-0.272c-0.143,0-0.287,0-0.287-0.144c0-0.258,0.101-0.272,0.445-0.301c0.258-0.014,0.473-0.043,0.717-0.057
		c0.258-0.029,0.775-0.072,0.789-0.072c0.029,0,0.172,0,0.172,0.144c0,0.071-0.028,0.158-0.043,0.215L46.553,48.705z"/>
</g>
<g>
	<path d="M54.771,53.567c-0.703,1.405-1.879,2.438-2.065,2.438c-0.058,0-0.129-0.029-0.129-0.115c0-0.043,0-0.071,0.143-0.201
		c1.664-1.692,2.338-4.088,2.338-6.87c0-2.926-0.804-5.293-2.238-6.741c-0.244-0.244-0.244-0.272-0.244-0.315
		c0-0.086,0.071-0.115,0.129-0.115c0.158,0,1.334,0.932,2.18,2.654c0.803,1.663,0.947,3.442,0.947,4.532
		C55.832,50.555,55.502,52.104,54.771,53.567z"/>
	<path d="M62.471,47.758c-0.215,0-0.459,0-0.459-0.272c0-0.258,0.258-0.258,0.459-0.258h8.448c0.215,0,0.459,0,0.459,0.272
		c0,0.258-0.258,0.258-0.459,0.258H62.471z M62.471,50.426c-0.215,0-0.459,0-0.459-0.272c0-0.258,0.258-0.258,0.459-0.258h8.448
		c0.215,0,0.459,0,0.459,0.272c0,0.258-0.258,0.258-0.459,0.258H62.471z"/>
</g>
<g>
	<path d="M85.957,46.094c-0.058,0.259-0.072,0.273-0.229,0.273c-0.043,0-0.187,0-0.187-0.13c0-0.057,0.043-0.372,0.043-0.745
		c0-1.463-0.703-2.769-2.281-2.769c-1.363,0-2.711,0.803-3.5,1.721c-1.621,1.88-1.765,4.375-1.765,4.834
		c0,2.037,1.32,3.013,2.84,3.013c1.434,0,3.371-1.076,4.03-3.313c0.029-0.058,0.043-0.144,0.172-0.144c0.043,0,0.158,0,0.158,0.129
		c0,0.115-0.373,1.506-1.621,2.553c-0.832,0.703-1.836,1.19-2.983,1.19c-2.094,0-3.772-1.491-3.772-3.887
		c0-3.37,3.213-6.512,6.311-6.512c1.076,0,1.865,0.488,2.367,1.349l0.989-1.205c0.115-0.144,0.172-0.144,0.201-0.144
		c0.028,0,0.129,0,0.129,0.129L85.957,46.094z"/>
	<path d="M89.022,49.149c-0.129,0.573-0.158,0.946-0.158,1.219c0,1.392,0.803,1.894,1.563,1.894c0.43,0,0.961-0.172,1.506-0.53
		c0.072-0.058,0.101-0.072,0.144-0.072c0.086,0,0.129,0.086,0.129,0.173c0,0.143-0.903,0.717-1.821,0.717
		c-1.42,0-2.496-1.076-2.496-2.668c0-2.252,1.937-3.657,3.701-3.657h0.488c0.258,0,0.416,0,0.416,0.187
		c0,0.229-0.215,0.229-0.459,0.229h-0.416c-1.277,0-2.123,0.788-2.481,2.094h2.324c0.258,0,0.401,0,0.401,0.187
		c0,0.229-0.244,0.229-0.459,0.229H89.022z"/>
</g>
<g>
	<path d="M97.093,46.482h-3.697c0-0.239,0-0.259,0.11-0.369l1.913-2.132c0.548-0.618,1.046-1.405,1.046-2.202
		c0-0.817-0.428-1.624-1.335-1.624c-0.578,0-1.116,0.369-1.345,1.016c0.03-0.01,0.05-0.01,0.129-0.01
		c0.349,0,0.528,0.259,0.528,0.518c0,0.409-0.349,0.528-0.518,0.528c-0.03,0-0.528,0-0.528-0.558c0-0.887,0.737-1.804,1.863-1.804
		c1.216,0,2.112,0.797,2.112,1.933c0,0.997-0.598,1.534-2.152,2.909l-1.056,1.026h1.793c0.219,0,0.876,0,0.946-0.079
		c0.1-0.149,0.169-0.588,0.219-0.887h0.249L97.093,46.482z"/>
</g>
<g>
	<path d="M98.845,48.734c-0.06,0.169-0.089,0.239-0.219,0.239c-0.109,0-0.199-0.09-0.199-0.199c0-0.01,0-0.05,0.05-0.18l3.458-9.496
		c0.03-0.06,0.1-0.09,0.169-0.09c0.11,0,0.199,0.09,0.199,0.199c0,0.01,0,0.05-0.05,0.18L98.845,48.734z"/>
</g>
<g>
	<path d="M107.415,44.778c0,1.017-0.907,1.923-2.123,1.923c-1.086,0-2.013-0.657-2.013-1.563c0-0.438,0.319-0.578,0.558-0.578
		c0.289,0,0.558,0.199,0.558,0.558c0,0.379-0.309,0.598-0.658,0.548c0.349,0.588,1.096,0.758,1.524,0.758
		c0.438,0,1.126-0.289,1.126-1.645c0-0.977-0.369-1.653-1.186-1.653h-0.438c-0.169,0-0.239,0-0.239-0.11c0-0.1,0.07-0.11,0.149-0.12
		c0.07,0,0.309-0.02,0.389-0.03c0.249-0.01,0.588-0.04,0.887-0.519c0.259-0.438,0.279-1.016,0.279-1.136
		c0-0.896-0.548-1.116-0.957-1.116c-0.358,0-1.016,0.129-1.325,0.618c0.149,0,0.618,0,0.618,0.498c0,0.289-0.199,0.508-0.508,0.508
		c-0.289,0-0.508-0.189-0.508-0.518c0-0.757,0.757-1.355,1.764-1.355c0.957,0,1.833,0.558,1.833,1.375
		c0,0.787-0.578,1.484-1.395,1.753C106.787,43.185,107.415,43.962,107.415,44.778z"/>
</g>
<g>
	<path d="M110.893,48.705c0.531-0.201,1.061-0.746,1.205-0.918c1.019-1.147,1.664-1.707,2.453-1.707c0.646,0,0.976,0.43,0.976,0.846
		c0,0.459-0.344,0.789-0.731,0.789c-0.201,0-0.474-0.114-0.474-0.459c0-0.287,0.201-0.659,0.732-0.717
		c-0.101-0.086-0.187-0.172-0.517-0.172c-0.66,0-1.219,0.459-2.037,1.377c-0.201,0.215-0.717,0.774-1.234,1.09
		c1.32,0.172,2.08,0.646,2.08,1.491c0,0.173,0,0.187-0.058,0.445c-0.057,0.215-0.115,0.53-0.115,0.803
		c0,0.545,0.187,0.688,0.474,0.688c0.731,0,1.033-1.004,1.233-1.75c0.057-0.229,0.072-0.287,0.201-0.287
		c0.086,0,0.144,0.058,0.144,0.13c0,0.057-0.187,0.86-0.488,1.391c-0.115,0.201-0.459,0.804-1.119,0.804
		c-0.731,0-1.276-0.56-1.276-1.392c0-0.071,0-0.243,0.057-0.459c0.043-0.215,0.043-0.272,0.043-0.358
		c0-0.688-0.617-1.119-1.649-1.233c-0.603,2.353-0.545,2.151-0.674,2.682c-0.114,0.445-0.201,0.761-0.602,0.761
		c-0.144,0-0.387-0.058-0.387-0.373c0-0.086,0-0.115,0.057-0.33l2.051-8.204c0.072-0.258,0.072-0.287,0.072-0.345
		c0-0.143,0-0.272-0.732-0.272c-0.143,0-0.287,0-0.287-0.144c0-0.258,0.101-0.272,0.445-0.301c0.258-0.014,0.473-0.043,0.717-0.057
		c0.258-0.029,0.775-0.072,0.789-0.072c0.029,0,0.172,0,0.172,0.144c0,0.071-0.028,0.158-0.043,0.215L110.893,48.705z"/>
</g>
<g>
	<path d="M117.283,44.19c-0.14,0-0.329,0-0.329-0.199s0.189-0.199,0.329-0.199h5.431c0.139,0,0.329,0,0.329,0.199
		s-0.189,0.199-0.329,0.199H117.283z"/>
</g>
<g>
	<path d="M126.178,46.701c-1.116,0-1.804-0.966-1.804-1.823c0-0.458,0.349-0.527,0.488-0.527c0.329,0,0.499,0.249,0.499,0.487
		c0,0.239-0.169,0.488-0.499,0.488c-0.109,0-0.139-0.01-0.169-0.02c0.169,0.588,0.737,1.116,1.465,1.116
		c0.458,0,0.827-0.259,1.066-0.647c0.239-0.419,0.239-1.017,0.239-1.365c0-0.498-0.02-0.887-0.179-1.256
		c-0.08-0.179-0.329-0.638-0.847-0.638c-0.807,0-1.176,0.538-1.285,0.697c-0.04,0.061-0.06,0.09-0.129,0.09
		c-0.14,0-0.14-0.079-0.14-0.259v-2.949c0-0.16,0-0.239,0.1-0.239c0.02,0,0.04,0,0.12,0.03c0.468,0.209,0.927,0.279,1.325,0.279
		c0.667,0,1.156-0.199,1.355-0.289c0.05-0.03,0.07-0.03,0.08-0.03c0.07,0,0.1,0.05,0.1,0.11c0,0.129-0.698,1.036-1.923,1.036
		c-0.319,0-0.647-0.07-0.847-0.129v1.943c0.358-0.349,0.787-0.508,1.265-0.508c1.076,0,1.893,0.997,1.893,2.182
		C128.35,45.745,127.333,46.701,126.178,46.701z"/>
</g>
<g>
	<path d="M129.823,48.734c-0.06,0.169-0.089,0.239-0.219,0.239c-0.109,0-0.199-0.09-0.199-0.199c0-0.01,0-0.05,0.05-0.18
		l3.458-9.496c0.03-0.06,0.1-0.09,0.169-0.09c0.11,0,0.199,0.09,0.199,0.199c0,0.01,0,0.05-0.05,0.18L129.823,48.734z"/>
</g>
<g>
	<path d="M138.393,44.778c0,1.017-0.907,1.923-2.123,1.923c-1.086,0-2.013-0.657-2.013-1.563c0-0.438,0.319-0.578,0.558-0.578
		c0.289,0,0.558,0.199,0.558,0.558c0,0.379-0.309,0.598-0.658,0.548c0.349,0.588,1.096,0.758,1.524,0.758
		c0.438,0,1.126-0.289,1.126-1.645c0-0.977-0.369-1.653-1.186-1.653h-0.438c-0.169,0-0.239,0-0.239-0.11c0-0.1,0.07-0.11,0.149-0.12
		c0.07,0,0.309-0.02,0.389-0.03c0.249-0.01,0.588-0.04,0.887-0.519c0.259-0.438,0.279-1.016,0.279-1.136
		c0-0.896-0.548-1.116-0.957-1.116c-0.358,0-1.016,0.129-1.325,0.618c0.149,0,0.618,0,0.618,0.498c0,0.289-0.199,0.508-0.508,0.508
		c-0.289,0-0.508-0.189-0.508-0.518c0-0.757,0.757-1.355,1.764-1.355c0.957,0,1.833,0.558,1.833,1.375
		c0,0.787-0.578,1.484-1.395,1.753C137.765,43.185,138.393,43.962,138.393,44.778z"/>
</g>
</svg>
