<?xml version="1.0" encoding="iso-8859-1"?>
<!-- Generator: Adobe Illustrator 16.0.0, SVG Export Plug-In . SVG Version: 6.00 Build 0)  -->
<!DOCTYPE svg PUBLIC "-//W3C//DTD SVG 1.1//EN" "http://www.w3.org/Graphics/SVG/1.1/DTD/svg11.dtd">
<svg version="1.1" id="Layer_1" xmlns="http://www.w3.org/2000/svg" xmlns:xlink="http://www.w3.org/1999/xlink" x="0px" y="0px"
	 width="566.929px" height="85.039px" viewBox="0 0 566.929 85.039" style="enable-background:new 0 0 566.929 85.039;"
	 xml:space="preserve">
<g>
	<path d="M26.112,57.539c-0.258,0-0.388,0-0.388-0.158c0-0.015,0-0.086,0.144-0.258l7.43-8.707L25.71,38.032
		c0-0.158,0-0.43,0.014-0.473c0.043-0.086,0.058-0.101,0.388-0.101h16.954l1.735,4.03h-0.358c-0.488-1.162-1.463-1.807-1.822-2.037
		c-1.133-0.717-2.381-0.961-3.155-1.076c-0.129-0.029-1.435-0.229-3.356-0.229h-7.86l6.684,9.137
		c0.101,0.144,0.101,0.187,0.101,0.215c0,0.072-0.029,0.115-0.129,0.229l-7.301,8.563h8.649c2.754,0,4.159-0.373,4.46-0.445
		c1.649-0.43,3.17-1.405,3.729-2.896h0.358l-1.735,4.59H26.112z"/>
</g>
<g>
	<path d="M53.182,38.898c-0.229,0-0.488,0-0.488-0.258c0-0.272,0.244-0.272,0.488-0.272h4.819c-0.273-0.387-0.359-0.731-0.359-0.86
		c0-0.215,0.172-0.272,0.258-0.272c0.201,0,0.244,0.172,0.287,0.287c0.043,0.172,0.144,0.56,0.545,0.832
		c0.086,0.072,0.201,0.144,0.201,0.272c0,0.158-0.101,0.201-0.244,0.287c-0.33,0.187-0.717,0.459-1.062,0.89
		c-0.101,0.144-0.158,0.229-0.287,0.229c-0.143,0-0.272-0.129-0.272-0.272c0-0.201,0.531-0.703,0.703-0.861H53.182z"/>
</g>
<g>
	<path d="M51.362,50.068c-0.028,0.101-0.057,0.215-0.057,0.287c0,0.215,0.029,0.315,1.162,0.315c0.316,0,0.402,0,0.402,0.158
		c0,0.258-0.172,0.258-0.301,0.258c-0.315,0-0.66-0.028-0.976-0.028h-1.864c-0.273,0-0.56,0.028-0.832,0.028
		c-0.086,0-0.215,0-0.215-0.158c0-0.258,0.144-0.258,0.416-0.258c1.004,0,1.033-0.144,1.162-0.646l1.936-7.745
		c0.043-0.158,0.058-0.215,0.058-0.287c0-0.158,0-0.258-0.89-0.258c-0.244,0-0.344,0-0.344-0.158c0-0.258,0.144-0.258,0.416-0.258
		h6.799c0.258,0,0.387,0,0.387,0.158c0,0.029-0.029,0.172-0.029,0.215l-0.301,2.51c-0.029,0.258-0.086,0.315-0.187,0.315
		c-0.086,0-0.158-0.043-0.158-0.157c0-0.058,0.029-0.244,0.043-0.302c0.043-0.373,0.043-0.688,0.043-0.774
		c0-1.019-0.258-1.549-2.051-1.549h-1.922c-0.588,0-0.617,0.043-0.746,0.545l-0.932,3.715h1.305c1.248,0,1.535-0.302,1.836-1.377
		c0.058-0.244,0.072-0.302,0.201-0.302c0.101,0,0.144,0.087,0.144,0.144l-0.832,3.343c-0.057,0.229-0.072,0.286-0.186,0.286
		c-0.101,0-0.158-0.057-0.158-0.157c0-0.029,0.015-0.101,0.043-0.158c0.072-0.315,0.101-0.517,0.101-0.703
		c0-0.415-0.086-0.659-1.176-0.659H52.28L51.362,50.068z"/>
</g>
<g>
	<path d="M64.282,46.439c-0.215,0-0.459,0-0.459-0.272c0-0.258,0.258-0.258,0.459-0.258h8.448c0.215,0,0.459,0,0.459,0.272
		c0,0.258-0.258,0.258-0.459,0.258H64.282z M64.282,49.107c-0.215,0-0.459,0-0.459-0.272c0-0.258,0.258-0.258,0.459-0.258h8.448
		c0.215,0,0.459,0,0.459,0.272c0,0.258-0.258,0.258-0.459,0.258H64.282z"/>
	<path d="M83.843,49.811c-0.416,0.832-1.133,1.577-2.381,1.577c-0.746,0-1.735-0.344-2.295-1.434
		c-0.516-1.019-0.617-2.065-0.617-3.457c0-1.549,0.144-2.438,0.545-3.342c0.53-1.19,1.549-1.606,2.381-1.606
		c0.703,0,1.735,0.315,2.324,1.506c0.516,1.09,0.588,2.252,0.588,3.442C84.388,47.329,84.359,48.734,83.843,49.811z M83.14,49.251
		c0.158-0.875,0.158-1.965,0.158-2.926c0-0.976,0-2.108-0.186-2.927c-0.273-1.233-1.104-1.563-1.65-1.563
		c-0.617,0-1.348,0.445-1.592,1.406c-0.229,0.847-0.229,1.907-0.229,3.084c0,1.004,0,2.094,0.158,2.954
		c0.272,1.563,1.205,1.822,1.664,1.822C81.964,51.102,82.868,50.829,83.14,49.251z"/>
</g>
</svg>
