<?xml version="1.0" encoding="iso-8859-1"?>
<!-- Generator: Adobe Illustrator 16.0.0, SVG Export Plug-In . SVG Version: 6.00 Build 0)  -->
<!DOCTYPE svg PUBLIC "-//W3C//DTD SVG 1.1//EN" "http://www.w3.org/Graphics/SVG/1.1/DTD/svg11.dtd">
<svg version="1.1" id="Layer_1" xmlns="http://www.w3.org/2000/svg" xmlns:xlink="http://www.w3.org/1999/xlink" x="0px" y="0px"
	 width="566.929px" height="85.039px" viewBox="0 0 566.929 85.039" style="enable-background:new 0 0 566.929 85.039;"
	 xml:space="preserve">
<g>
	<path d="M30.068,41.161c-0.229,0-0.488,0-0.488-0.258c0-0.272,0.244-0.272,0.488-0.272h4.819c-0.273-0.387-0.359-0.731-0.359-0.86
		c0-0.215,0.172-0.272,0.258-0.272c0.201,0,0.244,0.172,0.287,0.287c0.043,0.172,0.144,0.56,0.545,0.832
		c0.086,0.072,0.201,0.144,0.201,0.272c0,0.158-0.101,0.201-0.244,0.287c-0.33,0.187-0.717,0.459-1.062,0.89
		c-0.101,0.144-0.158,0.229-0.287,0.229c-0.143,0-0.272-0.129-0.272-0.272c0-0.201,0.531-0.703,0.703-0.861H30.068z"/>
</g>
<g>
	<path d="M28.249,52.332c-0.028,0.101-0.057,0.215-0.057,0.287c0,0.215,0.029,0.315,1.162,0.315c0.315,0,0.402,0,0.402,0.158
		c0,0.258-0.172,0.258-0.301,0.258c-0.315,0-0.66-0.028-0.976-0.028h-1.864c-0.272,0-0.56,0.028-0.832,0.028
		c-0.086,0-0.215,0-0.215-0.158c0-0.258,0.144-0.258,0.416-0.258c1.004,0,1.033-0.144,1.162-0.646l1.937-7.745
		c0.043-0.158,0.058-0.215,0.058-0.287c0-0.157,0-0.258-0.89-0.258c-0.244,0-0.344,0-0.344-0.158c0-0.258,0.144-0.258,0.416-0.258
		h6.799c0.258,0,0.387,0,0.387,0.157c0,0.029-0.029,0.173-0.029,0.216l-0.301,2.51c-0.028,0.258-0.086,0.315-0.186,0.315
		c-0.086,0-0.158-0.043-0.158-0.157c0-0.058,0.028-0.244,0.043-0.302c0.043-0.373,0.043-0.688,0.043-0.774
		c0-1.019-0.258-1.549-2.051-1.549h-1.922c-0.588,0-0.617,0.043-0.746,0.545l-0.932,3.715h1.305c1.248,0,1.535-0.302,1.836-1.377
		c0.058-0.244,0.072-0.302,0.201-0.302c0.101,0,0.144,0.087,0.144,0.144l-0.832,3.343c-0.057,0.229-0.071,0.286-0.187,0.286
		c-0.1,0-0.158-0.057-0.158-0.157c0-0.029,0.015-0.101,0.043-0.158c0.071-0.315,0.1-0.517,0.1-0.703
		c0-0.415-0.086-0.659-1.176-0.659h-1.377L28.249,52.332z"/>
</g>
<g>
	<path d="M38.135,51.298c0.169,0,0.289,0.1,0.289,0.27c0,0.04,0,0.06-0.069,0.339c-0.15,0.567-0.189,0.757-0.359,1.395
		c-0.09,0.379-0.11,0.479-0.219,0.896c-0.109,0.438-0.129,0.519-0.129,0.737c0,0.199,0.03,0.459,0.299,0.459
		c0.409,0,0.588-0.588,0.757-1.235c0.03-0.14,0.04-0.18,0.139-0.18c0.03,0,0.12,0,0.12,0.1c0,0.02-0.129,0.628-0.299,0.986
		c-0.159,0.319-0.389,0.548-0.737,0.548c-0.478,0-0.827-0.328-0.907-0.747c-0.598,0.707-1.096,0.747-1.295,0.747
		c-0.777,0-1.325-0.657-1.325-1.594c0-1.455,1.236-2.92,2.401-2.92c0.448,0,0.737,0.27,0.917,0.638
		C37.747,51.518,37.896,51.298,38.135,51.298z M37.567,52.364c0.01-0.05,0.03-0.109,0.03-0.169c0-0.061-0.14-0.877-0.787-0.877
		c-0.399,0-0.847,0.368-1.156,0.956c-0.229,0.459-0.548,1.685-0.548,2.183c0,0.389,0.14,0.937,0.638,0.937
		c0.279,0,0.688-0.159,1.126-0.708c0.149-0.169,0.149-0.189,0.199-0.368L37.567,52.364z"/>
</g>
<g>
	<path d="M44.982,48.703c-0.215,0-0.459,0-0.459-0.272c0-0.258,0.258-0.258,0.459-0.258h8.448c0.215,0,0.459,0,0.459,0.272
		c0,0.258-0.258,0.258-0.459,0.258H44.982z M44.982,51.371c-0.215,0-0.459,0-0.459-0.272c0-0.258,0.258-0.258,0.459-0.258h8.448
		c0.215,0,0.459,0,0.459,0.272c0,0.258-0.258,0.258-0.459,0.258H44.982z"/>
</g>
<g>
	<path d="M60.324,50.052c-0.201,0-0.474,0-0.474-0.287s0.272-0.287,0.474-0.287h7.817c0.201,0,0.473,0,0.473,0.287
		s-0.272,0.287-0.473,0.287H60.324z"/>
</g>
<g>
	<path d="M74.98,41.161c-0.229,0-0.488,0-0.488-0.258c0-0.272,0.244-0.272,0.488-0.272h4.819c-0.273-0.387-0.359-0.731-0.359-0.86
		c0-0.215,0.172-0.272,0.258-0.272c0.201,0,0.244,0.172,0.287,0.287c0.043,0.172,0.144,0.56,0.545,0.832
		c0.086,0.072,0.201,0.144,0.201,0.272c0,0.158-0.101,0.201-0.244,0.287c-0.33,0.187-0.717,0.459-1.062,0.89
		c-0.101,0.144-0.158,0.229-0.287,0.229c-0.143,0-0.272-0.129-0.272-0.272c0-0.201,0.531-0.703,0.703-0.861H74.98z"/>
</g>
<g>
	<path d="M73.16,52.332c-0.028,0.101-0.057,0.215-0.057,0.287c0,0.215,0.029,0.315,1.162,0.315c0.316,0,0.402,0,0.402,0.158
		c0,0.258-0.172,0.258-0.301,0.258c-0.315,0-0.66-0.028-0.976-0.028h-1.864c-0.273,0-0.56,0.028-0.832,0.028
		c-0.086,0-0.215,0-0.215-0.158c0-0.258,0.144-0.258,0.416-0.258c1.004,0,1.033-0.144,1.162-0.646l1.936-7.745
		c0.043-0.158,0.058-0.215,0.058-0.287c0-0.157,0-0.258-0.89-0.258c-0.244,0-0.344,0-0.344-0.158c0-0.258,0.144-0.258,0.416-0.258
		h6.799c0.258,0,0.387,0,0.387,0.157c0,0.029-0.029,0.173-0.029,0.216l-0.301,2.51c-0.029,0.258-0.086,0.315-0.187,0.315
		c-0.086,0-0.158-0.043-0.158-0.157c0-0.058,0.029-0.244,0.043-0.302c0.043-0.373,0.043-0.688,0.043-0.774
		c0-1.019-0.258-1.549-2.051-1.549h-1.922c-0.588,0-0.617,0.043-0.746,0.545l-0.932,3.715h1.305c1.248,0,1.535-0.302,1.836-1.377
		c0.058-0.244,0.072-0.302,0.201-0.302c0.101,0,0.144,0.087,0.144,0.144l-0.832,3.343c-0.057,0.229-0.072,0.286-0.186,0.286
		c-0.101,0-0.158-0.057-0.158-0.157c0-0.029,0.015-0.101,0.043-0.158c0.072-0.315,0.101-0.517,0.101-0.703
		c0-0.415-0.086-0.659-1.176-0.659h-1.377L73.16,52.332z"/>
</g>
<g>
	<path d="M80.555,51.696c0.299-0.309,0.708-0.598,1.166-0.598c0.797,0,1.325,0.688,1.325,1.595c0,1.435-1.226,2.919-2.401,2.919
		c-0.737,0-1.266-0.617-1.266-1.564c0-0.349,0.04-0.508,0.16-1.006l0.817-3.248c0.05-0.21,0.14-0.549,0.14-0.618
		c0-0.1-0.02-0.169-0.499-0.169c-0.149,0-0.239,0-0.239-0.12c0-0.18,0.109-0.189,0.189-0.199c0.259-0.02,0.986-0.1,1.216-0.1
		c0.129,0,0.129,0.1,0.129,0.109L80.555,51.696z M80.137,53.381c-0.16,0.628-0.16,0.816-0.16,1.006c0,0.737,0.329,1.007,0.668,1.007
		c0.389,0,0.847-0.359,1.176-1.026c0.179-0.379,0.508-1.524,0.508-2.112c0-0.638-0.269-0.937-0.627-0.937
		c-0.259,0-0.708,0.149-1.196,0.797c-0.09,0.109-0.09,0.13-0.149,0.349L80.137,53.381z"/>
</g>
</svg>
