<?xml version="1.0" encoding="iso-8859-1"?>
<!-- Generator: Adobe Illustrator 16.0.0, SVG Export Plug-In . SVG Version: 6.00 Build 0)  -->
<!DOCTYPE svg PUBLIC "-//W3C//DTD SVG 1.1//EN" "http://www.w3.org/Graphics/SVG/1.1/DTD/svg11.dtd">
<svg version="1.1" id="Layer_1" xmlns="http://www.w3.org/2000/svg" xmlns:xlink="http://www.w3.org/1999/xlink" x="0px" y="0px"
	 width="566.929px" height="85.039px" viewBox="0 0 566.929 85.039" style="enable-background:new 0 0 566.929 85.039;"
	 xml:space="preserve">
<g>
	<path d="M27.274,63.115c1.162,0,1.822-2.696,2.08-3.743c0.474-1.994,0.89-4.39,1.262-6.584c1.578-9.381,3.529-16.581,3.572-16.739
		c0.789-2.926,1.592-4.489,2.682-4.489c0.789,0,1.563,0.56,1.563,1.334c0,0.502-0.359,0.717-0.703,0.717
		c-0.33,0-0.688-0.229-0.688-0.703c0-0.358,0.244-0.674,0.717-0.703c-0.058-0.058-0.416-0.33-0.86-0.33
		c-0.56,0-1.047,1.851-1.219,2.553c-0.488,1.85-1.019,4.719-1.549,7.774c-0.774,4.604-1.707,9.18-2.811,13.712
		c-1.019,4.159-1.836,7.516-4.016,7.516c-0.875,0-1.592-0.603-1.592-1.334c0-0.502,0.358-0.717,0.703-0.717
		c0.33,0,0.688,0.229,0.688,0.702c0,0.359-0.244,0.675-0.703,0.703C26.399,62.785,26.757,63.115,27.274,63.115z"/>
</g>
<g>
	<path d="M44.527,42.366c0-1.463,1.406-1.463,1.65-1.463c0.244,0,0.444,0,1.119,0.144c0.502,0.114,0.717,0.158,0.717,0.43
		c0,0.229-0.215,0.531-0.517,0.531c-0.187,0-0.517-0.187-0.646-0.272c-0.43-0.244-0.703-0.402-1.147-0.402
		c-0.631,0-0.817,0.43-0.817,0.674c0,0.688,0.86,1.793,1.391,2.467c0.359,0.474,0.961,1.263,0.961,2.553
		c0,1.908-1.147,4.231-2.84,4.231c-1.147,0-2.18-0.86-2.18-2.396c0-1.678,1.319-3.585,3.155-4.03
		C44.886,43.887,44.527,43.069,44.527,42.366z M43.05,49.266c0,1.334,0.803,1.707,1.362,1.707c1.277,0,1.879-2.252,1.879-3.371
		c0-0.933-0.215-1.362-0.76-2.496C43.581,45.622,43.05,48.333,43.05,49.266z"/>
	<path d="M51.71,50.184c-0.029,0.129-0.058,0.215-0.058,0.315c0,0.114,0.015,0.144,0.172,0.157c0.086,0.015,0.115,0.015,0.315,0.015
		h1.377c2.424,0,3.069-1.621,3.528-2.883c0.115-0.272,0.115-0.302,0.144-0.315c0.029-0.058,0.1-0.058,0.115-0.058
		c0.072,0,0.144,0.058,0.144,0.144c0,0.043-0.029,0.129-0.058,0.201l-1.104,3.055c-0.1,0.258-0.115,0.272-0.43,0.272h-6.426
		c-0.287,0-0.373,0-0.373-0.158c0-0.258,0.144-0.258,0.416-0.258c1.004,0,1.033-0.144,1.162-0.646l1.937-7.717
		c0.058-0.215,0.058-0.301,0.058-0.33c0-0.158,0-0.272-0.875-0.272c-0.215,0-0.344,0-0.344-0.144c0-0.272,0.158-0.272,0.272-0.272
		c0.272,0,0.588,0.029,0.86,0.029h1.922c0.287,0,0.617-0.029,0.903-0.029c0.058,0,0.215,0,0.215,0.144
		c0,0.272-0.101,0.272-0.488,0.272c-1.262,0-1.305,0.143-1.434,0.688L51.71,50.184z"/>
	<path d="M63.146,49.523c-0.101,0.401-0.101,0.703-0.101,0.76c0,0.287,0.029,0.66,0.445,0.66c0.588,0,0.86-0.903,1.076-1.75
		c0.057-0.215,0.072-0.287,0.201-0.287c0.086,0,0.144,0.058,0.144,0.13c0,0.057-0.201,0.932-0.43,1.42
		c-0.258,0.517-0.603,0.774-1.033,0.774c-0.431,0-1.104-0.244-1.248-1.09c-0.401,0.473-1.076,1.09-1.865,1.09
		c-0.975,0-1.807-0.832-1.807-2.252c0-2.123,1.75-4.217,3.371-4.217c0.746,0,1.133,0.573,1.291,0.946l0.875-3.485
		c0.014-0.043,0.043-0.158,0.043-0.244c0-0.144-0.014-0.272-0.717-0.272c-0.201,0-0.315,0-0.315-0.144
		c0-0.258,0.101-0.272,0.459-0.301c0.258-0.014,0.473-0.043,0.717-0.057c0.072-0.015,0.774-0.072,0.789-0.072
		c0.029,0,0.172,0,0.172,0.144c0,0.071-0.029,0.158-0.043,0.215L63.146,49.523z M62.974,46.568c0.015-0.028,0.058-0.215,0.058-0.229
		c0-0.114-0.187-1.29-1.133-1.29c-0.559,0-1.233,0.516-1.721,1.52c-0.272,0.603-0.717,2.209-0.717,2.998
		c0,0.847,0.33,1.377,0.918,1.377c0.674,0,1.305-0.616,1.621-1.019c0.201-0.272,0.201-0.301,0.272-0.545L62.974,46.568z"/>
	<path d="M67.017,49.811c-0.043,0.172-0.043,0.444-0.043,0.459c0,0.315,0.029,0.674,0.459,0.674c0.832,0,1.492-1.004,1.793-1.721
		c0.1-0.229,0.115-0.244,0.129-0.259c0.029-0.058,0.086-0.058,0.115-0.058c0.086,0,0.144,0.044,0.144,0.13
		c0,0.101-0.774,2.194-2.223,2.194c-0.803,0-1.277-0.617-1.277-1.291c0-0.187,0.043-0.33,0.158-0.832l0.946-3.786h-1.276
		c-0.272,0-0.373,0-0.373-0.144c0-0.272,0.129-0.272,0.416-0.272h1.348l0.56-2.281c0.115-0.459,0.445-0.502,0.56-0.502
		c0.186,0,0.373,0.129,0.373,0.358c0,0.101,0,0.129-0.057,0.33l-0.531,2.094h1.262c0.287,0,0.373,0,0.373,0.157
		c0,0.259-0.144,0.259-0.416,0.259h-1.32L67.017,49.811z"/>
</g>
<g>
	<path d="M75.551,46.439c-0.215,0-0.459,0-0.459-0.272c0-0.258,0.258-0.258,0.459-0.258H84c0.215,0,0.459,0,0.459,0.272
		c0,0.258-0.258,0.258-0.459,0.258H75.551z M75.551,49.107c-0.215,0-0.459,0-0.459-0.272c0-0.258,0.258-0.258,0.459-0.258H84
		c0.215,0,0.459,0,0.459,0.272c0,0.258-0.258,0.258-0.459,0.258H75.551z"/>
	<path d="M95.112,49.811c-0.416,0.832-1.133,1.577-2.381,1.577c-0.746,0-1.736-0.344-2.295-1.434
		c-0.517-1.019-0.617-2.065-0.617-3.457c0-1.549,0.144-2.438,0.545-3.342c0.531-1.19,1.549-1.606,2.381-1.606
		c0.703,0,1.735,0.315,2.324,1.506c0.516,1.09,0.588,2.252,0.588,3.442C95.657,47.329,95.628,48.734,95.112,49.811z M94.409,49.251
		c0.158-0.875,0.158-1.965,0.158-2.926c0-0.976,0-2.108-0.187-2.927c-0.272-1.233-1.104-1.563-1.649-1.563
		c-0.617,0-1.349,0.445-1.592,1.406c-0.229,0.847-0.229,1.907-0.229,3.084c0,1.004,0,2.094,0.158,2.954
		c0.272,1.563,1.205,1.822,1.664,1.822C93.233,51.102,94.137,50.829,94.409,49.251z"/>
</g>
</svg>
