<?xml version="1.0" encoding="iso-8859-1"?>
<!-- Generator: Adobe Illustrator 16.0.0, SVG Export Plug-In . SVG Version: 6.00 Build 0)  -->
<!DOCTYPE svg PUBLIC "-//W3C//DTD SVG 1.1//EN" "http://www.w3.org/Graphics/SVG/1.1/DTD/svg11.dtd">
<svg version="1.1" id="Layer_1" xmlns="http://www.w3.org/2000/svg" xmlns:xlink="http://www.w3.org/1999/xlink" x="0px" y="0px"
	 width="566.929px" height="85.039px" viewBox="0 0 566.929 85.039" style="enable-background:new 0 0 566.929 85.039;"
	 xml:space="preserve">
<g>
	<path d="M33.831,39.75c-0.101,0.402-0.101,0.703-0.101,0.76c0,0.287,0.029,0.66,0.445,0.66c0.588,0,0.86-0.903,1.076-1.75
		c0.057-0.215,0.072-0.287,0.201-0.287c0.086,0,0.144,0.058,0.144,0.129c0,0.058-0.201,0.933-0.43,1.42
		c-0.258,0.517-0.603,0.775-1.033,0.775c-0.431,0-1.104-0.244-1.248-1.09c-0.401,0.474-1.076,1.09-1.865,1.09
		c-0.975,0-1.807-0.832-1.807-2.252c0-2.123,1.75-4.217,3.371-4.217c0.746,0,1.133,0.574,1.291,0.946l0.875-3.485
		c0.014-0.043,0.043-0.158,0.043-0.244c0-0.144-0.014-0.272-0.717-0.272c-0.201,0-0.315,0-0.315-0.144
		c0-0.258,0.101-0.272,0.459-0.301c0.258-0.014,0.473-0.043,0.717-0.057c0.072-0.015,0.774-0.072,0.789-0.072
		c0.029,0,0.172,0,0.172,0.143c0,0.072-0.029,0.158-0.043,0.215L33.831,39.75z M33.658,36.796c0.015-0.029,0.058-0.215,0.058-0.229
		c0-0.115-0.187-1.291-1.133-1.291c-0.559,0-1.233,0.517-1.721,1.521c-0.272,0.603-0.717,2.209-0.717,2.998
		c0,0.846,0.33,1.377,0.918,1.377c0.674,0,1.305-0.617,1.621-1.018c0.201-0.272,0.201-0.301,0.272-0.545L33.658,36.796z"/>
</g>
<g>
	<rect x="26.102" y="47.146" width="12.372" height="0.574"/>
</g>
<g>
	<path d="M31.294,59.297c-0.101,0.401-0.101,0.703-0.101,0.76c0,0.287,0.029,0.66,0.445,0.66c0.588,0,0.86-0.903,1.076-1.75
		c0.057-0.215,0.072-0.287,0.201-0.287c0.086,0,0.144,0.058,0.144,0.13c0,0.057-0.201,0.932-0.43,1.42
		c-0.258,0.517-0.603,0.774-1.033,0.774c-0.431,0-1.104-0.244-1.248-1.09c-0.401,0.473-1.076,1.09-1.865,1.09
		c-0.975,0-1.807-0.832-1.807-2.252c0-2.123,1.75-4.217,3.371-4.217c0.746,0,1.133,0.573,1.291,0.946l0.875-3.485
		c0.014-0.043,0.043-0.157,0.043-0.244c0-0.143-0.014-0.272-0.717-0.272c-0.201,0-0.315,0-0.315-0.144
		c0-0.258,0.101-0.272,0.459-0.301c0.258-0.015,0.473-0.043,0.717-0.058c0.072-0.014,0.774-0.071,0.789-0.071
		c0.029,0,0.172,0,0.172,0.144c0,0.071-0.029,0.157-0.043,0.215L31.294,59.297z M31.122,56.342c0.015-0.028,0.058-0.215,0.058-0.229
		c0-0.114-0.187-1.29-1.133-1.29c-0.559,0-1.233,0.516-1.721,1.52c-0.272,0.603-0.717,2.209-0.717,2.998
		c0,0.847,0.33,1.377,0.918,1.377c0.674,0,1.305-0.616,1.621-1.019c0.201-0.272,0.201-0.301,0.272-0.545L31.122,56.342z"/>
	<path d="M35.166,59.584c-0.043,0.172-0.043,0.444-0.043,0.459c0,0.315,0.029,0.674,0.459,0.674c0.832,0,1.492-1.004,1.793-1.721
		c0.1-0.229,0.115-0.244,0.129-0.259c0.029-0.058,0.086-0.058,0.115-0.058c0.086,0,0.144,0.044,0.144,0.13
		c0,0.101-0.774,2.194-2.223,2.194c-0.803,0-1.277-0.617-1.277-1.291c0-0.187,0.043-0.33,0.158-0.832l0.946-3.786H34.09
		c-0.272,0-0.373,0-0.373-0.144c0-0.272,0.129-0.272,0.416-0.272h1.348l0.56-2.281c0.115-0.459,0.445-0.502,0.56-0.502
		c0.186,0,0.373,0.13,0.373,0.358c0,0.101,0,0.13-0.057,0.33l-0.531,2.095h1.262c0.287,0,0.373,0,0.373,0.157
		c0,0.259-0.144,0.259-0.416,0.259h-1.32L35.166,59.584z"/>
</g>
<g>
	<path d="M47.692,36.523c0.143-0.531,0.416-1.592,0.416-2.51c0-1.606-0.804-2.61-2.065-2.61c-0.388,0-1.478,0.1-2.065,1.162
		c0.186,0,0.631,0,0.631,0.445c0,0.244-0.215,0.703-0.717,0.703c-0.401,0-0.488-0.315-0.488-0.444c0-0.388,0.617-2.209,2.697-2.209
		c1.836,0,2.998,1.592,2.998,3.657c0,1.965-1.448,6.899-4.833,6.899c-1.951,0-2.553-1.649-2.553-2.524
		c0-2.281,2.065-4.332,4.088-4.332c1.291,0,1.793,0.961,1.879,1.764H47.692z M47.448,36.954c0-0.774-0.301-1.908-1.606-1.908
		c-1.492,0-2.309,1.449-2.496,1.879c-0.215,0.531-0.617,2.008-0.617,2.639c0,0.603,0.229,1.664,1.578,1.664
		C46.516,41.228,47.448,38.015,47.448,36.954z"/>
	<path d="M52.669,40.41c-0.029,0.129-0.058,0.215-0.058,0.316c0,0.115,0.014,0.143,0.172,0.158c0.086,0.014,0.115,0.014,0.315,0.014
		h1.377c2.424,0,3.069-1.621,3.528-2.883c0.115-0.272,0.115-0.301,0.144-0.316c0.029-0.057,0.101-0.057,0.115-0.057
		c0.072,0,0.144,0.057,0.144,0.144c0,0.043-0.029,0.129-0.058,0.201l-1.104,3.055c-0.1,0.258-0.115,0.272-0.43,0.272h-6.426
		c-0.287,0-0.373,0-0.373-0.158c0-0.258,0.144-0.258,0.416-0.258c1.004,0,1.033-0.144,1.162-0.646l1.936-7.716
		c0.058-0.215,0.058-0.301,0.058-0.33c0-0.158,0-0.272-0.875-0.272c-0.215,0-0.344,0-0.344-0.144c0-0.272,0.158-0.272,0.272-0.272
		c0.272,0,0.588,0.029,0.86,0.029h1.922c0.287,0,0.617-0.029,0.903-0.029c0.058,0,0.215,0,0.215,0.144
		c0,0.272-0.101,0.272-0.488,0.272c-1.262,0-1.305,0.144-1.434,0.688L52.669,40.41z"/>
</g>
<g>
	<rect x="40.865" y="47.146" width="18.354" height="0.574"/>
</g>
<g>
	<path d="M47.392,56.069c0.143-0.53,0.416-1.592,0.416-2.51c0-1.606-0.804-2.61-2.065-2.61c-0.388,0-1.478,0.101-2.065,1.162
		c0.186,0,0.631,0,0.631,0.444c0,0.244-0.215,0.703-0.717,0.703c-0.401,0-0.488-0.315-0.488-0.445c0-0.387,0.617-2.209,2.697-2.209
		c1.836,0,2.998,1.593,2.998,3.658c0,1.965-1.448,6.898-4.833,6.898c-1.951,0-2.553-1.649-2.553-2.524
		c0-2.28,2.065-4.331,4.088-4.331c1.291,0,1.793,0.961,1.879,1.764H47.392z M47.147,56.5c0-0.774-0.301-1.907-1.606-1.907
		c-1.492,0-2.309,1.448-2.496,1.879c-0.215,0.53-0.617,2.008-0.617,2.639c0,0.603,0.229,1.664,1.578,1.664
		C46.215,60.774,47.147,57.562,47.147,56.5z"/>
</g>
<g>
	<path d="M53.588,52.713c-0.373,0-0.688-0.315-0.688-0.688c0-0.388,0.301-0.703,0.703-0.703c0.344,0,0.688,0.272,0.688,0.703
		C54.291,52.369,54.019,52.713,53.588,52.713z"/>
</g>
<g>
	<path d="M53.393,62.739c-0.043,0.187-0.057,0.201-0.057,0.272c0,0.115,0.043,0.215,0.717,0.215c0.215,0,0.33,0,0.33,0.144
		c0,0.272-0.172,0.272-0.258,0.272c-0.215,0-0.459-0.028-0.674-0.028h-1.463c-0.201,0-0.459,0.028-0.66,0.028
		c-0.1,0-0.187-0.043-0.187-0.143c0-0.273,0.144-0.273,0.301-0.273c0.674-0.014,0.889-0.014,1.019-0.444l0.129-0.517
		c0.187-0.731,0.373-1.448,0.545-2.151l-0.015-0.014c-0.301,0.329-0.932,0.903-1.692,0.903c-0.976,0-1.807-0.832-1.807-2.252
		c0-2.123,1.75-4.217,3.371-4.217c0.617,0,1.062,0.387,1.319,1.032c0.272-0.502,0.832-1.019,0.947-1.019
		c0.072,0,0.129,0.058,0.129,0.13L53.393,62.739z M54.067,56.342c0.014-0.028,0.057-0.215,0.057-0.229
		c0-0.114-0.187-1.29-1.133-1.29c-0.56,0-1.233,0.516-1.721,1.52c-0.272,0.603-0.717,2.209-0.717,2.998
		c0,0.847,0.33,1.377,0.918,1.377c0.674,0,1.305-0.616,1.621-1.019c0.201-0.272,0.201-0.301,0.273-0.545L54.067,56.342z"/>
</g>
<g>
	<path d="M56.973,61.577c-0.229,0.607-0.289,0.747-0.289,0.996c0,0.229,0.07,0.329,0.239,0.329c0.508,0,0.837-0.608,1.016-1.235
		c0.05-0.149,0.05-0.18,0.149-0.18c0.03,0,0.12,0,0.12,0.1c0,0.09-0.369,1.534-1.305,1.534c-0.479,0-0.817-0.349-0.817-0.816
		c0-0.21,0.13-0.538,0.229-0.798c0.159-0.428,0.608-1.584,0.688-1.843c0.04-0.1,0.109-0.31,0.109-0.519
		c0-0.318-0.169-0.318-0.249-0.318c-0.339,0-0.737,0.299-1.006,1.235c-0.05,0.159-0.06,0.18-0.159,0.18c-0.02,0-0.12,0-0.12-0.1
		c0-0.09,0.378-1.535,1.315-1.535c0.499,0,0.817,0.369,0.817,0.817c0,0.189-0.05,0.329-0.13,0.528c-0.1,0.269-0.1,0.289-0.219,0.577
		L56.973,61.577z M57.591,57.312c-0.239,0-0.379-0.17-0.379-0.359c0-0.269,0.269-0.527,0.538-0.527c0.229,0,0.369,0.159,0.369,0.358
		C58.119,57.083,57.82,57.312,57.591,57.312z"/>
</g>
<g>
	<path d="M65.633,46.372c-0.215,0-0.459,0-0.459-0.272c0-0.258,0.258-0.258,0.459-0.258h8.448c0.215,0,0.459,0,0.459,0.272
		c0,0.258-0.258,0.258-0.459,0.258H65.633z M65.633,49.04c-0.215,0-0.459,0-0.459-0.272c0-0.258,0.258-0.258,0.459-0.258h8.448
		c0.215,0,0.459,0,0.459,0.272c0,0.258-0.258,0.258-0.459,0.258H65.633z"/>
</g>
<g>
	<path d="M87.333,36.523c0.143-0.531,0.416-1.592,0.416-2.51c0-1.606-0.803-2.61-2.065-2.61c-0.387,0-1.477,0.1-2.065,1.162
		c0.187,0,0.631,0,0.631,0.445c0,0.244-0.215,0.703-0.717,0.703c-0.401,0-0.487-0.315-0.487-0.444c0-0.388,0.617-2.209,2.696-2.209
		c1.836,0,2.998,1.592,2.998,3.657c0,1.965-1.449,6.899-4.833,6.899c-1.951,0-2.553-1.649-2.553-2.524
		c0-2.281,2.065-4.332,4.088-4.332c1.291,0,1.793,0.961,1.879,1.764H87.333z M87.089,36.954c0-0.774-0.301-1.908-1.606-1.908
		c-1.492,0-2.309,1.449-2.496,1.879c-0.215,0.531-0.617,2.008-0.617,2.639c0,0.603,0.229,1.664,1.578,1.664
		C86.157,41.228,87.089,38.015,87.089,36.954z"/>
	<path d="M92.311,40.41c-0.029,0.129-0.058,0.215-0.058,0.316c0,0.115,0.015,0.143,0.172,0.158c0.086,0.014,0.115,0.014,0.315,0.014
		h1.377c2.424,0,3.069-1.621,3.528-2.883c0.115-0.272,0.115-0.301,0.144-0.316c0.029-0.057,0.1-0.057,0.115-0.057
		c0.072,0,0.144,0.057,0.144,0.144c0,0.043-0.029,0.129-0.058,0.201l-1.104,3.055c-0.1,0.258-0.115,0.272-0.43,0.272H90.03
		c-0.287,0-0.373,0-0.373-0.158c0-0.258,0.144-0.258,0.416-0.258c1.004,0,1.033-0.144,1.162-0.646l1.937-7.716
		c0.058-0.215,0.058-0.301,0.058-0.33c0-0.158,0-0.272-0.875-0.272c-0.215,0-0.344,0-0.344-0.144c0-0.272,0.158-0.272,0.272-0.272
		c0.272,0,0.588,0.029,0.86,0.029h1.922c0.287,0,0.617-0.029,0.903-0.029c0.058,0,0.215,0,0.215,0.144
		c0,0.272-0.101,0.272-0.488,0.272c-1.262,0-1.305,0.144-1.434,0.688L92.311,40.41z"/>
</g>
<g>
	<rect x="80.506" y="47.146" width="18.354" height="0.574"/>
</g>
<g>
	<path d="M87.032,56.069c0.143-0.53,0.416-1.592,0.416-2.51c0-1.606-0.804-2.61-2.065-2.61c-0.388,0-1.478,0.101-2.065,1.162
		c0.186,0,0.631,0,0.631,0.444c0,0.244-0.215,0.703-0.717,0.703c-0.401,0-0.488-0.315-0.488-0.445c0-0.387,0.617-2.209,2.697-2.209
		c1.836,0,2.998,1.593,2.998,3.658c0,1.965-1.448,6.898-4.833,6.898c-1.951,0-2.553-1.649-2.553-2.524
		c0-2.28,2.065-4.331,4.088-4.331c1.291,0,1.793,0.961,1.879,1.764H87.032z M86.788,56.5c0-0.774-0.301-1.907-1.606-1.907
		c-1.492,0-2.309,1.448-2.496,1.879c-0.215,0.53-0.617,2.008-0.617,2.639c0,0.603,0.229,1.664,1.578,1.664
		C85.856,60.774,86.788,57.562,86.788,56.5z"/>
	<path d="M93.027,62.739c-0.043,0.187-0.057,0.201-0.057,0.272c0,0.115,0.043,0.215,0.717,0.215c0.215,0,0.33,0,0.33,0.144
		c0,0.272-0.172,0.272-0.258,0.272c-0.215,0-0.459-0.028-0.674-0.028h-1.463c-0.201,0-0.459,0.028-0.66,0.028
		c-0.1,0-0.187-0.043-0.187-0.143c0-0.273,0.144-0.273,0.301-0.273c0.674-0.014,0.889-0.014,1.019-0.444l0.129-0.517
		c0.187-0.731,0.373-1.448,0.545-2.151l-0.015-0.014c-0.301,0.329-0.932,0.903-1.692,0.903c-0.976,0-1.807-0.832-1.807-2.252
		c0-2.123,1.75-4.217,3.371-4.217c0.617,0,1.062,0.387,1.319,1.032c0.272-0.502,0.832-1.019,0.947-1.019
		c0.072,0,0.129,0.058,0.129,0.13L93.027,62.739z M93.702,56.342c0.014-0.028,0.057-0.215,0.057-0.229
		c0-0.114-0.187-1.29-1.133-1.29c-0.56,0-1.233,0.516-1.721,1.52c-0.272,0.603-0.717,2.209-0.717,2.998
		c0,0.847,0.33,1.377,0.918,1.377c0.674,0,1.305-0.616,1.621-1.019c0.201-0.272,0.201-0.301,0.273-0.545L93.702,56.342z"/>
</g>
<g>
	<path d="M96.614,61.577c-0.229,0.607-0.289,0.747-0.289,0.996c0,0.229,0.07,0.329,0.239,0.329c0.508,0,0.837-0.608,1.016-1.235
		c0.05-0.149,0.05-0.18,0.149-0.18c0.03,0,0.12,0,0.12,0.1c0,0.09-0.369,1.534-1.305,1.534c-0.479,0-0.817-0.349-0.817-0.816
		c0-0.21,0.129-0.538,0.229-0.798c0.159-0.428,0.608-1.584,0.688-1.843c0.04-0.1,0.109-0.31,0.109-0.519
		c0-0.318-0.169-0.318-0.249-0.318c-0.339,0-0.737,0.299-1.006,1.235c-0.05,0.159-0.06,0.18-0.159,0.18c-0.02,0-0.12,0-0.12-0.1
		c0-0.09,0.378-1.535,1.315-1.535c0.499,0,0.817,0.369,0.817,0.817c0,0.189-0.05,0.329-0.13,0.528c-0.1,0.269-0.1,0.289-0.219,0.577
		L96.614,61.577z M97.232,57.312c-0.239,0-0.379-0.17-0.379-0.359c0-0.269,0.269-0.527,0.538-0.527c0.229,0,0.369,0.159,0.369,0.358
		C97.76,57.083,97.461,57.312,97.232,57.312z"/>
</g>
</svg>
