<?xml version="1.0" encoding="iso-8859-1"?>
<!-- Generator: Adobe Illustrator 16.0.0, SVG Export Plug-In . SVG Version: 6.00 Build 0)  -->
<!DOCTYPE svg PUBLIC "-//W3C//DTD SVG 1.1//EN" "http://www.w3.org/Graphics/SVG/1.1/DTD/svg11.dtd">
<svg version="1.1" id="Layer_1" xmlns="http://www.w3.org/2000/svg" xmlns:xlink="http://www.w3.org/1999/xlink" x="0px" y="0px"
	 width="566.929px" height="85.039px" viewBox="0 0 566.929 85.039" style="enable-background:new 0 0 566.929 85.039;"
	 xml:space="preserve">
<g>
	<path d="M34.073,50.025c0.215,0.517,0.401,0.631,0.932,0.646c0.144,0,0.272,0,0.272,0.144c0,0.272-0.158,0.272-0.244,0.272
		c-0.215,0-0.459-0.028-0.674-0.028h-0.688c-0.502,0-1.033,0.028-1.535,0.028c-0.043,0-0.201,0-0.201-0.144
		c0-0.272,0.144-0.272,0.272-0.272s0.703-0.015,0.703-0.444c0-0.101-0.029-0.187-0.072-0.272c-0.588-1.406-1.348-3.242-1.764-4.16
		l-2.18,1.707l-0.559,2.224c-0.058,0.229-0.144,0.588-0.144,0.688c0,0.144,0,0.258,0.875,0.258c0.215,0,0.344,0,0.344,0.144
		c0,0.272-0.158,0.272-0.272,0.272c-0.272,0-0.574-0.028-0.847-0.028h-1.678c-0.272,0-0.56,0.028-0.832,0.028
		c-0.086,0-0.215,0-0.215-0.158c0-0.258,0.144-0.258,0.416-0.258c1.004,0,1.033-0.144,1.162-0.646l1.937-7.717
		c0.058-0.215,0.058-0.301,0.058-0.33c0-0.158,0-0.272-0.875-0.272c-0.215,0-0.344,0-0.344-0.144c0-0.272,0.158-0.272,0.272-0.272
		c0.258,0,0.574,0.029,0.832,0.029h1.692c0.272,0,0.574-0.029,0.832-0.029c0.072,0,0.215,0,0.215,0.144
		c0,0.272-0.129,0.272-0.401,0.272c-1.019,0-1.047,0.143-1.176,0.631l-1.19,4.733l5.623-4.374c0.115-0.086,0.545-0.431,0.545-0.717
		c0-0.201-0.187-0.258-0.344-0.272c-0.086,0-0.187-0.015-0.187-0.158c0-0.258,0.172-0.258,0.272-0.258
		c0.431,0,0.904,0.029,1.349,0.029h0.545c0.158,0,0.33-0.029,0.488-0.029c0.115,0,0.158,0.072,0.158,0.158
		c0,0.244-0.144,0.244-0.244,0.258c-0.989,0.086-1.621,0.588-3.542,2.08c-0.459,0.358-0.933,0.717-1.392,1.09
		c-0.244,0.187-0.258,0.201-0.258,0.216c0,0.043,0.057,0.157,0.072,0.2L34.073,50.025z"/>
</g>
<g>
	<path d="M43.106,46.439c-0.215,0-0.459,0-0.459-0.272c0-0.258,0.258-0.258,0.459-0.258h8.448c0.215,0,0.459,0,0.459,0.272
		c0,0.258-0.258,0.258-0.459,0.258H43.106z M43.106,49.107c-0.215,0-0.459,0-0.459-0.272c0-0.258,0.258-0.258,0.459-0.258h8.448
		c0.215,0,0.459,0,0.459,0.272c0,0.258-0.258,0.258-0.459,0.258H43.106z"/>
</g>
<g>
	<path d="M60.484,51.115c-0.144,0.229-0.215,0.272-0.387,0.272c-0.201,0-0.201-0.043-0.244-0.344l-1.147-8.85
		c-0.043-0.359-0.086-0.488-0.817-0.488c-0.229,0-0.33,0-0.33-0.158c0-0.258,0.172-0.258,0.258-0.258
		c0.014,0,0.445,0.029,1.492,0.029h0.803c0.244,0,0.531-0.029,0.774-0.029c0.043,0,0.201,0,0.201,0.144
		c0,0.272-0.129,0.272-0.344,0.272c-0.158,0-0.904,0.029-0.904,0.444l1.004,7.731l4.504-7.143c0.014-0.015,0.215-0.344,0.215-0.56
		c0-0.172-0.058-0.43-0.588-0.473c-0.057,0-0.187-0.015-0.187-0.144c0-0.272,0.144-0.272,0.258-0.272
		c0.401,0,0.832,0.029,1.248,0.029c0.258,0,0.875-0.029,1.133-0.029c0.129,0,0.158,0.086,0.158,0.144
		c0,0.258-0.115,0.258-0.258,0.272c-0.732,0.057-1.176,0.401-1.664,1.176L60.484,51.115z"/>
</g>
<g>
	<path d="M66.169,52.971c-0.1,0.109-0.13,0.109-0.149,0.109c-0.08,0-0.11-0.07-0.11-0.109c0-0.03,0.01-0.04,0.07-0.16l0.927-1.653
		l-1.734-0.798c-0.109-0.05-0.159-0.069-0.159-0.149c0-0.05,0.04-0.1,0.109-0.1c0.03,0,0.1,0.01,0.149,0.021l1.843,0.368
		l0.219-1.873c0.02-0.169,0.05-0.22,0.13-0.22c0.089,0,0.1,0.04,0.119,0.22l0.229,1.873c1.495-0.299,1.983-0.389,1.993-0.389
		c0.07,0,0.109,0.05,0.109,0.1c0,0.04-0.01,0.08-0.149,0.149l-1.733,0.798c0.129,0.238,0.189,0.358,0.389,0.717
		c0.289,0.509,0.598,1.046,0.598,1.097c0,0.039-0.03,0.109-0.11,0.109c-0.01,0-0.04,0-0.08-0.05
		c-0.299-0.299-0.588-0.618-0.877-0.937c-0.069-0.07-0.448-0.509-0.488-0.509c-0.03,0-0.1,0.07-0.11,0.09L66.169,52.971z"/>
</g>
<g>
	<path d="M77.547,46.512c0,0.258,0,0.33-0.158,0.33c-0.043,0-0.144,0-0.158-0.115c-0.029-0.444-0.115-1.778-1.678-1.778
		c-1.291,0-1.592,0.659-1.592,1.104c0,0.86,1.047,1.062,1.478,1.147c0.947,0.172,1.334,0.258,1.85,0.702
		c0.129,0.13,0.603,0.589,0.603,1.363c0,1.133-0.746,1.965-2.252,1.965c-0.244,0-1.019,0-1.563-0.674
		c-0.215,0.229-0.215,0.258-0.287,0.358c-0.244,0.301-0.258,0.315-0.33,0.315c-0.144,0-0.144-0.072-0.144-0.33v-1.95
		c0-0.259,0-0.33,0.158-0.33c0.043,0,0.101,0,0.129,0.058c0.014,0.014,0.014,0.028,0.072,0.286c0.315,1.435,1.004,1.979,1.951,1.979
		c1.262,0,1.621-0.688,1.621-1.305c0-0.402-0.187-0.718-0.444-0.933c-0.359-0.287-0.545-0.33-1.334-0.487
		c-0.66-0.13-1.147-0.23-1.606-0.632c-0.545-0.502-0.545-1.004-0.545-1.161c0-0.789,0.517-1.736,2.252-1.736
		c0.459,0,0.904,0.086,1.348,0.445c0.101-0.129,0.373-0.445,0.488-0.445c0.144,0,0.144,0.072,0.144,0.33V46.512z"/>
	<path d="M80.851,44.762v5.278c0,0.56,0.057,0.631,0.989,0.631v0.416c-0.487-0.028-1.319-0.028-1.477-0.028
		c-0.416,0-1.104,0-1.506,0.028v-0.416c0.933,0,1.09,0,1.09-0.646v-3.901c0-0.703-0.129-0.789-1.047-0.789v-0.416L80.851,44.762z
		 M80.176,42.94c-0.344,0-0.688-0.272-0.688-0.703c0-0.388,0.315-0.688,0.688-0.688c0.401,0,0.703,0.33,0.703,0.703
		C80.879,42.567,80.621,42.94,80.176,42.94z"/>
	<path d="M88.683,50.24c0.014,0.431,0.373,0.431,1.09,0.431v0.416c-0.373-0.028-1.147-0.028-1.563-0.028
		c-0.401,0-1.176,0-1.549,0.028v-0.416c0.932,0,1.09,0,1.09-0.646v-3.37c0-0.875-0.201-1.606-1.09-1.606s-1.879,0.803-1.879,2.309
		v2.668c0,0.646,0.172,0.646,1.09,0.646v0.416c-0.373-0.028-1.147-0.028-1.563-0.028c-0.401,0-1.176,0-1.549,0.028v-0.416
		c0.932,0,1.09,0,1.09-0.646v-3.887c0-0.703-0.114-0.804-1.09-0.804v-0.416l1.951-0.157v1.478h0.014
		c0.115-0.287,0.66-1.478,2.051-1.478c0.488,0,1.162,0.086,1.578,0.646c0.33,0.459,0.33,0.86,0.33,2.194V50.24z"/>
	<path d="M94.65,54.688c-0.158,0-1.334-0.933-2.181-2.654c-0.746-1.534-0.946-3.241-0.946-4.518c0-1.765,0.33-3.299,1.062-4.748
		c0.703-1.405,1.879-2.438,2.065-2.438c0.057,0,0.129,0.029,0.129,0.115c0,0.043,0,0.072-0.144,0.201
		c-1.664,1.692-2.338,4.087-2.338,6.871c0,2.926,0.803,5.293,2.237,6.741c0.244,0.244,0.244,0.272,0.244,0.315
		C94.779,54.658,94.708,54.688,94.65,54.688z"/>
</g>
<g>
	<path d="M97.776,51.23c-0.688,0-1.133-0.517-1.133-1.162c0-0.258,0.086-0.487,0.172-0.717c0.488-1.306,0.488-1.334,1.004-2.668
		c0.115-0.315,0.301-0.789,0.301-1.162c0-0.459-0.244-0.473-0.373-0.473c-0.559,0-1.104,0.573-1.449,1.778
		c-0.057,0.2-0.071,0.258-0.201,0.258c-0.1,0-0.158-0.071-0.158-0.129c0-0.114,0.531-2.194,1.851-2.194
		c0.703,0,1.133,0.545,1.133,1.147c0,0.272-0.101,0.53-0.144,0.646c-0.33,0.889-0.66,1.778-1.004,2.668
		c-0.158,0.43-0.33,0.86-0.33,1.247c0,0.431,0.201,0.474,0.373,0.474c0.474,0,1.062-0.444,1.435-1.75
		c0.072-0.243,0.086-0.287,0.215-0.287c0.086,0,0.144,0.058,0.144,0.13C99.612,49.137,99.096,51.23,97.776,51.23z M98.78,42.825
		c-0.172,0-0.473-0.115-0.473-0.473c0-0.373,0.373-0.688,0.703-0.688c0.316,0,0.488,0.258,0.488,0.473
		C99.498,42.452,99.168,42.825,98.78,42.825z"/>
</g>
<g>
	<path d="M103.329,52.249c-0.703,1.405-1.879,2.438-2.065,2.438c-0.057,0-0.129-0.029-0.129-0.115c0-0.043,0-0.071,0.143-0.201
		c1.664-1.692,2.338-4.088,2.338-6.87c0-2.926-0.803-5.292-2.237-6.741c-0.244-0.244-0.244-0.272-0.244-0.315
		c0-0.086,0.072-0.115,0.129-0.115c0.158,0,1.334,0.932,2.18,2.653c0.803,1.664,0.947,3.443,0.947,4.533
		C104.39,49.236,104.06,50.786,103.329,52.249z"/>
</g>
</svg>
