<?xml version="1.0" encoding="iso-8859-1"?>
<!-- Generator: Adobe Illustrator 16.0.0, SVG Export Plug-In . SVG Version: 6.00 Build 0)  -->
<!DOCTYPE svg PUBLIC "-//W3C//DTD SVG 1.1//EN" "http://www.w3.org/Graphics/SVG/1.1/DTD/svg11.dtd">
<svg version="1.1" id="Layer_1" xmlns="http://www.w3.org/2000/svg" xmlns:xlink="http://www.w3.org/1999/xlink" x="0px" y="0px"
	 width="566.929px" height="85.039px" viewBox="0 0 566.929 85.039" style="enable-background:new 0 0 566.929 85.039;"
	 xml:space="preserve">
<g>
	<path d="M28.608,52.008c-0.144,0.229-0.215,0.272-0.387,0.272c-0.201,0-0.201-0.043-0.244-0.344l-1.147-8.85
		c-0.043-0.359-0.086-0.488-0.817-0.488c-0.229,0-0.33,0-0.33-0.158c0-0.258,0.172-0.258,0.258-0.258
		c0.014,0,0.445,0.029,1.492,0.029h0.803c0.244,0,0.531-0.029,0.774-0.029c0.043,0,0.201,0,0.201,0.144
		c0,0.272-0.129,0.272-0.344,0.272c-0.158,0-0.904,0.029-0.904,0.445l1.004,7.73l4.504-7.143c0.014-0.015,0.215-0.345,0.215-0.56
		c0-0.172-0.058-0.43-0.588-0.473c-0.057,0-0.187-0.015-0.187-0.144c0-0.272,0.144-0.272,0.258-0.272
		c0.401,0,0.832,0.029,1.248,0.029c0.258,0,0.875-0.029,1.133-0.029c0.129,0,0.158,0.086,0.158,0.144
		c0,0.258-0.115,0.258-0.258,0.272c-0.732,0.057-1.176,0.401-1.664,1.176L28.608,52.008z"/>
</g>
<g>
	<path d="M41.436,47.332c-0.215,0-0.459,0-0.459-0.272c0-0.258,0.258-0.258,0.459-0.258h8.448c0.215,0,0.459,0,0.459,0.272
		c0,0.258-0.258,0.258-0.459,0.258H41.436z M41.436,50c-0.215,0-0.459,0-0.459-0.272c0-0.258,0.258-0.258,0.459-0.258h8.448
		c0.215,0,0.459,0,0.459,0.272C50.343,50,50.084,50,49.884,50H41.436z"/>
</g>
<g>
	<path d="M56.776,48.681c-0.201,0-0.473,0-0.473-0.287s0.272-0.287,0.473-0.287h7.817c0.201,0,0.473,0,0.473,0.287
		s-0.272,0.287-0.473,0.287H56.776z"/>
</g>
<g>
	<path d="M72.596,45.927c0.215,0,0.373,0.157,0.373,0.358c0,0.028,0,0.058-0.043,0.229l-1.592,6.426
		c-0.187,0.774-1.147,1.965-2.998,1.965c-1.219,0-1.807-0.229-1.807-0.817c0-0.474,0.373-0.76,0.717-0.76
		c0.316,0,0.488,0.229,0.488,0.459c0,0.157-0.115,0.559-0.574,0.688c0.359,0.114,0.717,0.144,1.147,0.144
		c0.315,0,0.861,0,1.449-0.589c0.517-0.502,0.603-0.86,0.803-1.649c0.072-0.301,0.072-0.33,0.315-1.291
		c-0.258,0.287-0.932,0.89-1.692,0.89c-0.918,0-1.821-0.731-1.821-2.224c0-2.137,1.778-4.102,3.342-4.102
		c0.717,0,1.119,0.53,1.305,0.946C72.051,46.214,72.252,45.927,72.596,45.927z M71.793,47.404l0.043-0.201
		c0-0.086-0.186-1.262-1.133-1.262c-0.603,0-1.248,0.573-1.664,1.377c-0.315,0.645-0.746,2.252-0.746,3.012
		c0,0.989,0.445,1.362,0.918,1.362c0.445,0,1.047-0.272,1.635-1.032c0.187-0.216,0.215-0.272,0.272-0.502L71.793,47.404z"/>
</g>
<g>
	<path d="M77.707,46.055H74.01c0-0.239,0-0.259,0.11-0.369l1.913-2.132c0.548-0.618,1.046-1.405,1.046-2.202
		c0-0.817-0.428-1.624-1.335-1.624c-0.578,0-1.116,0.369-1.345,1.016c0.03-0.01,0.05-0.01,0.129-0.01
		c0.349,0,0.528,0.259,0.528,0.518c0,0.409-0.349,0.528-0.518,0.528c-0.03,0-0.528,0-0.528-0.558c0-0.887,0.737-1.804,1.863-1.804
		c1.216,0,2.112,0.797,2.112,1.933c0,0.997-0.598,1.535-2.152,2.909l-1.056,1.026h1.793c0.219,0,0.876,0,0.946-0.079
		c0.1-0.149,0.169-0.588,0.219-0.887h0.249L77.707,46.055z"/>
</g>
<g>
	<path d="M81.994,38.945c-0.215,0.918-0.215,1.276-0.215,1.478c0,1.061,0.43,1.707,1.248,1.707c0.545,0,1.908-0.215,2.826-1.434
		c0.129-0.129,0.144-0.144,0.187-0.144c0.058,0,0.144,0.072,0.144,0.158c0,0.187-1.233,1.707-3.185,1.707
		c-1.305,0-2.166-1.047-2.166-2.553c0-2.553,2.166-3.916,3.672-3.916c0.947,0,1.492,0.574,1.492,1.205
		c0,0.258-0.101,1.09-1.19,1.506c-0.688,0.258-1.664,0.287-2.051,0.287H81.994z M82.668,38.658c0.603,0,2.897,0,2.897-1.506
		c0-0.545-0.431-0.918-1.062-0.918c-0.459,0-1.822,0.215-2.438,2.424H82.668z"/>
</g>
<g>
	<path d="M87.854,34.775c-0.14,0-0.329,0-0.329-0.2c0-0.199,0.189-0.199,0.329-0.199h5.431c0.139,0,0.329,0,0.329,0.199
		c0,0.2-0.189,0.2-0.329,0.2H87.854z"/>
</g>
<g>
	<path d="M95.9,34.177c0.13-0.518,0.16-0.627,0.16-0.837c0-0.378-0.149-0.458-0.309-0.458c-0.358,0-0.558,0.479-0.727,1.186
		c-0.06,0.219-0.07,0.229-0.169,0.229c-0.02,0-0.12,0-0.12-0.1c0-0.03,0.129-0.618,0.309-0.966c0.09-0.18,0.279-0.568,0.737-0.568
		c0.449,0,0.867,0.299,0.917,0.867c0.169-0.229,0.658-0.867,1.554-0.867c0.249,0,0.568,0.05,0.817,0.259
		c0.279,0.239,0.309,0.578,0.318,0.708c0.369-0.528,0.877-0.967,1.625-0.967c0.747,0,1.146,0.418,1.146,1.066
		c0,0.568-0.418,1.674-0.607,2.192c-0.09,0.219-0.18,0.458-0.18,0.708c0,0.229,0.07,0.329,0.239,0.329
		c0.548,0,0.867-0.708,1.017-1.236c0.05-0.149,0.05-0.179,0.149-0.179c0.03,0,0.12,0,0.12,0.1c0,0.08-0.369,1.534-1.306,1.534
		c-0.468,0-0.817-0.349-0.817-0.817c0-0.199,0.04-0.309,0.129-0.548c0.199-0.528,0.618-1.664,0.618-2.232
		c0-0.359-0.109-0.698-0.538-0.698c-1.086,0-1.614,1.196-1.645,1.325c-0.089,0.389-0.458,1.844-0.598,2.401
		c-0.08,0.319-0.14,0.568-0.448,0.568c-0.149,0-0.289-0.089-0.289-0.269c0-0.05,0.09-0.388,0.129-0.587
		c0.09-0.329,0.1-0.389,0.199-0.757c0.11-0.449,0.16-0.648,0.279-1.156c0.08-0.299,0.149-0.578,0.149-0.827
		c0-0.329-0.09-0.698-0.538-0.698c-0.947,0-1.475,0.907-1.624,1.216c-0.01,0.04-0.09,0.329-0.13,0.498
		c-0.05,0.229-0.109,0.449-0.169,0.667c-0.07,0.299-0.15,0.598-0.219,0.897c-0.06,0.249-0.18,0.717-0.189,0.737
		c-0.07,0.199-0.249,0.279-0.369,0.279c-0.149,0-0.289-0.089-0.289-0.269c0-0.05,0.06-0.279,0.09-0.428L95.9,34.177z"/>
	<path d="M106.282,32.882c-0.548,0-1.096,0.429-1.405,0.997c-0.339,0.618-0.538,1.584-0.538,1.993c0,0.598,0.269,1.086,0.896,1.086
		c0.12,0,1.206,0,1.993-0.987c0.06-0.08,0.08-0.1,0.129-0.1c0.06,0,0.12,0.07,0.12,0.13c0,0.119-0.837,1.175-2.262,1.175
		c-1.036,0-1.614-0.787-1.614-1.684c0-1.405,1.325-2.83,2.67-2.83c0.707,0,1.175,0.369,1.175,0.857c0,0.399-0.269,0.638-0.558,0.638
		c-0.189,0-0.369-0.109-0.369-0.349c0-0.07,0.02-0.239,0.179-0.389c0.14-0.139,0.279-0.139,0.438-0.139
		C106.999,33.012,106.621,32.882,106.282,32.882z"/>
</g>
<g>
	<path d="M109.089,39.229c0,0.14,0,0.329-0.2,0.329c-0.199,0-0.199-0.189-0.199-0.329v-9.306c0-0.14,0-0.329,0.199-0.329
		c0.2,0,0.2,0.189,0.2,0.329V39.229z"/>
</g>
<g>
	<path d="M112.117,31.138c-0.169,0-0.349,0-0.349-0.199s0.179-0.199,0.349-0.199h3.358c-0.159-0.209-0.239-0.528-0.239-0.578
		c0-0.08,0.06-0.209,0.199-0.209c0.14,0,0.18,0.129,0.2,0.219c0.08,0.239,0.189,0.418,0.408,0.568c0.07,0.05,0.14,0.1,0.14,0.199
		c0,0.12-0.1,0.169-0.169,0.209c-0.438,0.219-0.667,0.498-0.787,0.647c-0.05,0.06-0.1,0.129-0.189,0.129
		c-0.1,0-0.199-0.1-0.199-0.199c0-0.179,0.329-0.458,0.468-0.588H112.117z"/>
	<path d="M111.729,34.177c0.13-0.518,0.16-0.627,0.16-0.837c0-0.378-0.14-0.458-0.309-0.458c-0.358,0-0.558,0.479-0.727,1.186
		c-0.06,0.219-0.07,0.229-0.169,0.229c-0.02,0-0.12,0-0.12-0.1c0-0.03,0.129-0.628,0.309-0.966c0.09-0.18,0.279-0.568,0.737-0.568
		c0.469,0,0.827,0.319,0.907,0.768c0.189-0.279,0.628-0.768,1.275-0.768c0.508,0,0.827,0.299,0.827,0.648
		c0,0.358-0.279,0.588-0.548,0.588s-0.379-0.189-0.379-0.349c0-0.259,0.219-0.499,0.518-0.548c-0.01,0-0.159-0.12-0.418-0.12
		c-0.428,0-0.717,0.259-0.797,0.329c-0.239,0.219-0.518,0.688-0.558,0.817c-0.06,0.269-0.239,0.966-0.319,1.295
		c-0.04,0.179-0.378,1.534-0.398,1.574c-0.07,0.199-0.249,0.279-0.369,0.279c-0.149,0-0.289-0.089-0.289-0.269
		c0-0.05,0.06-0.279,0.09-0.428L111.729,34.177z"/>
</g>
<g>
	<path d="M116.628,39.229c0,0.14,0,0.329-0.2,0.329c-0.199,0-0.199-0.189-0.199-0.329v-9.306c0-0.14,0-0.329,0.199-0.329
		c0.2,0,0.2,0.189,0.2,0.329V39.229z"/>
</g>
<g>
	<path d="M118.777,39.319c-0.06,0.169-0.089,0.239-0.219,0.239c-0.109,0-0.199-0.09-0.199-0.2c0-0.01,0-0.05,0.05-0.179l3.458-9.496
		c0.03-0.06,0.1-0.09,0.169-0.09c0.11,0,0.199,0.09,0.199,0.199c0,0.01,0,0.05-0.05,0.18L118.777,39.319z"/>
</g>
<g>
	<path d="M123.48,31.497v-0.309h3.597v0.309H123.48z"/>
</g>
<g>
	<path d="M124.875,33.43c0.369-0.458,0.847-0.768,1.475-0.768c0.748,0,1.146,0.418,1.146,1.066c0,0.578-0.449,1.764-0.608,2.192
		c-0.09,0.219-0.179,0.458-0.179,0.708c0,0.229,0.069,0.329,0.239,0.329c0.548,0,0.867-0.708,1.017-1.236
		c0.05-0.149,0.05-0.179,0.149-0.179c0.03,0,0.12,0,0.12,0.1c0,0.08-0.369,1.534-1.305,1.534c-0.468,0-0.817-0.349-0.817-0.817
		c0-0.199,0.05-0.319,0.13-0.548c0.239-0.608,0.618-1.694,0.618-2.232c0-0.359-0.11-0.698-0.538-0.698
		c-0.429,0-0.737,0.189-0.957,0.349c-0.339,0.269-0.648,0.827-0.678,0.917c-0.01,0.06-0.089,0.389-0.109,0.448
		c-0.05,0.229-0.11,0.449-0.169,0.667c-0.07,0.299-0.149,0.598-0.219,0.897l-0.189,0.757c-0.05,0.14-0.209,0.259-0.369,0.259
		c-0.09,0-0.289-0.05-0.289-0.279c0-0.06,0-0.08,0.04-0.219l1.445-5.739l0.03-0.199c0-0.1-0.02-0.169-0.498-0.169
		c-0.149,0-0.239,0-0.239-0.12c0-0.179,0.109-0.189,0.189-0.199c0.259-0.02,0.986-0.1,1.215-0.1c0.13,0,0.13,0.1,0.13,0.11
		L124.875,33.43z"/>
</g>
<g>
	<rect x="80.187" y="48.104" width="48.844" height="0.574"/>
</g>
<g>
	<path d="M99.545,64.932c0,0.201,0,0.474-0.287,0.474c-0.287,0-0.287-0.272-0.287-0.474V51.535c0-0.201,0-0.474,0.287-0.474
		c0.287,0,0.287,0.272,0.287,0.474V64.932z"/>
</g>
<g>
	<path d="M103.858,53.257c-0.229,0-0.488,0-0.488-0.259c0-0.272,0.244-0.272,0.488-0.272h4.819c-0.273-0.387-0.359-0.731-0.359-0.86
		c0-0.215,0.172-0.272,0.258-0.272c0.201,0,0.244,0.172,0.287,0.287c0.043,0.172,0.144,0.559,0.545,0.831
		c0.086,0.072,0.201,0.144,0.201,0.273c0,0.157-0.101,0.2-0.244,0.286c-0.33,0.187-0.717,0.459-1.062,0.89
		c-0.101,0.144-0.158,0.229-0.287,0.229c-0.143,0-0.272-0.129-0.272-0.272c0-0.201,0.531-0.703,0.703-0.86H103.858z"/>
	<path d="M106.204,55.781c-0.588,0-0.961,0.329-1.133,0.487c-0.358,0.315-0.746,1.019-0.789,1.147
		c-0.043,0.187-0.101,0.416-0.158,0.617c-0.072,0.315-0.158,0.616-0.229,0.932c-0.086,0.33-0.617,2.496-0.66,2.61
		c-0.086,0.287-0.358,0.388-0.516,0.388c-0.215,0-0.373-0.158-0.373-0.358c0-0.072,0.158-0.746,0.258-1.119
		c0.072-0.258,0.229-0.903,0.287-1.176c0.129-0.517,0.273-1.033,0.402-1.55c0.101-0.444,0.244-1.004,0.244-1.319
		c0-0.416-0.1-0.659-0.444-0.659c-0.574,0-0.846,0.831-1.062,1.692c-0.086,0.329-0.101,0.344-0.215,0.344
		c-0.1,0-0.158-0.071-0.158-0.129c0-0.071,0.215-0.933,0.459-1.448c0.172-0.316,0.459-0.746,1.019-0.746
		c0.574,0,1.147,0.373,1.248,1.133c0.603-0.875,1.262-1.133,1.836-1.133c0.717,0,1.162,0.401,1.162,0.86
		c0,0.431-0.33,0.774-0.731,0.774c-0.201,0-0.474-0.114-0.474-0.459c0-0.315,0.229-0.631,0.674-0.717
		C106.663,55.824,106.433,55.781,106.204,55.781z"/>
</g>
<g>
	<path d="M110.25,64.932c0,0.201,0,0.474-0.287,0.474c-0.287,0-0.287-0.272-0.287-0.474V51.535c0-0.201,0-0.474,0.287-0.474
		c0.287,0,0.287,0.272,0.287,0.474V64.932z"/>
</g>
</svg>
