<?xml version="1.0" encoding="iso-8859-1"?>
<!-- Generator: Adobe Illustrator 16.0.0, SVG Export Plug-In . SVG Version: 6.00 Build 0)  -->
<!DOCTYPE svg PUBLIC "-//W3C//DTD SVG 1.1//EN" "http://www.w3.org/Graphics/SVG/1.1/DTD/svg11.dtd">
<svg version="1.1" id="Layer_1" xmlns="http://www.w3.org/2000/svg" xmlns:xlink="http://www.w3.org/1999/xlink" x="0px" y="0px"
	 width="566.929px" height="85.039px" viewBox="0 0 566.929 85.039" style="enable-background:new 0 0 566.929 85.039;"
	 xml:space="preserve">
<g>
	<path d="M33.241,44.593c-0.058,0.229-0.072,0.272-0.201,0.272c-0.043,0-0.158,0-0.158-0.129c0-0.057,0.072-0.444,0.072-0.817
		c0-1.362-0.66-2.223-2.065-2.223c-1.362,0-2.582,1.233-2.582,2.438c0,0.488,0.187,0.832,0.43,1.076
		c0.258,0.229,0.387,0.272,1.348,0.53c1.32,0.345,1.578,0.416,1.879,0.718c0.545,0.53,0.688,1.062,0.688,1.664
		c0,1.792-1.692,3.585-3.542,3.585c-1.334,0-2.08-0.573-2.424-1.09c-0.215,0.287-0.43,0.574-0.66,0.86
		c-0.172,0.216-0.187,0.229-0.244,0.229c-0.029,0-0.144,0-0.144-0.129c0-0.014,0.058-0.2,0.058-0.215l0.731-2.94
		c0.057-0.244,0.072-0.272,0.201-0.272c0.115,0,0.144,0.071,0.144,0.129c0,0.029-0.015,0.101-0.015,0.144
		c-0.043,0.144-0.1,0.487-0.1,0.76c0,1.606,1.305,2.108,2.481,2.108c1.434,0,2.667-1.377,2.667-2.71
		c0-0.675-0.287-1.005-0.344-1.076c-0.301-0.315-0.487-0.373-1.219-0.573c-0.431-0.101-1.277-0.33-1.435-0.388
		c-0.703-0.244-1.348-0.875-1.348-1.951c0-1.62,1.649-3.284,3.471-3.284c0.602,0,1.549,0.158,2.022,1.09
		c0.015-0.014,0.603-0.76,0.688-0.86c0.172-0.215,0.187-0.229,0.244-0.229c0.029,0,0.129,0,0.129,0.129L33.241,44.593z"/>
</g>
<g>
	<path d="M39.6,46.759c-0.215,0-0.459,0-0.459-0.272c0-0.258,0.258-0.258,0.459-0.258h8.448c0.215,0,0.459,0,0.459,0.272
		c0,0.258-0.258,0.258-0.459,0.258H39.6z M39.6,49.427c-0.215,0-0.459,0-0.459-0.272c0-0.258,0.258-0.258,0.459-0.258h8.448
		c0.215,0,0.459,0,0.459,0.272c0,0.258-0.258,0.258-0.459,0.258H39.6z"/>
</g>
<g>
	<path d="M55.83,47.706c0.531-0.201,1.062-0.746,1.205-0.918c1.019-1.147,1.664-1.707,2.453-1.707c0.646,0,0.976,0.43,0.976,0.846
		c0,0.459-0.344,0.789-0.731,0.789c-0.201,0-0.474-0.114-0.474-0.459c0-0.287,0.201-0.659,0.731-0.717
		c-0.1-0.086-0.186-0.172-0.516-0.172c-0.66,0-1.219,0.459-2.037,1.377c-0.201,0.215-0.717,0.774-1.233,1.09
		c1.319,0.172,2.08,0.646,2.08,1.491c0,0.173,0,0.187-0.058,0.445c-0.057,0.215-0.115,0.53-0.115,0.803
		c0,0.545,0.187,0.688,0.474,0.688c0.731,0,1.033-1.004,1.233-1.75c0.058-0.229,0.072-0.286,0.201-0.286
		c0.086,0,0.144,0.057,0.144,0.129c0,0.057-0.187,0.86-0.488,1.391c-0.115,0.201-0.459,0.804-1.119,0.804
		c-0.731,0-1.276-0.56-1.276-1.392c0-0.071,0-0.244,0.057-0.459c0.043-0.215,0.043-0.272,0.043-0.358
		c0-0.688-0.617-1.119-1.649-1.233c-0.603,2.353-0.545,2.151-0.674,2.682c-0.115,0.445-0.201,0.761-0.603,0.761
		c-0.144,0-0.387-0.058-0.387-0.373c0-0.086,0-0.114,0.057-0.33l2.051-8.204c0.072-0.258,0.072-0.287,0.072-0.344
		c0-0.144,0-0.272-0.731-0.272c-0.144,0-0.287,0-0.287-0.144c0-0.258,0.101-0.272,0.445-0.301c0.258-0.014,0.473-0.043,0.717-0.057
		c0.258-0.029,0.775-0.072,0.789-0.072c0.029,0,0.172,0,0.172,0.144c0,0.071-0.029,0.158-0.043,0.215L55.83,47.706z"/>
</g>
<g>
	<path d="M63.511,47.43c0.03-0.119,0.04-0.149,0.04-0.189c0-0.129-0.09-0.14-0.269-0.159c-0.169-0.02-0.359-0.02-0.378-0.02
		c-0.189,0-0.279,0-0.279-0.11c0-0.199,0.1-0.199,0.289-0.199h3.348c1.195,0,1.853,0.638,1.853,1.375
		c0,0.947-1.046,1.685-2.083,1.873c0.967,0.11,1.544,0.688,1.544,1.405c0,0.977-1.176,2.152-2.75,2.152H61.27
		c-0.179,0-0.269,0-0.269-0.109c0-0.199,0.1-0.199,0.269-0.199c0.787,0,0.807-0.08,0.907-0.469L63.511,47.43z M64.587,53.249
		c1.176,0,2.062-0.967,2.062-1.953c0-0.429-0.189-1.166-1.146-1.166h-1.883l-0.688,2.78c-0.05,0.179-0.05,0.199-0.05,0.229
		c0,0.08,0.03,0.09,0.129,0.1c0.06,0.011,0.08,0.011,0.219,0.011H64.587z M65.136,49.911c1.215,0,2.072-0.947,2.072-1.824
		c0-0.438-0.209-1.025-1.086-1.025h-1.286c-0.428,0-0.448,0.029-0.538,0.378l-0.618,2.472H65.136z"/>
</g>
<g>
	<path d="M73.995,50.345c0,0.646,0.172,0.646,1.09,0.646v0.416c-0.401-0.028-1.119-0.028-1.549-0.028c-0.431,0-1.133,0-1.535,0.028
		V50.99c0.933,0,1.09,0,1.09-0.646v-7.516c0-0.703-0.115-0.803-1.09-0.803V41.61l1.994-0.158V50.345z"/>
	<path d="M81.827,50.56c0.014,0.431,0.373,0.431,1.09,0.431v0.416c-0.373-0.028-1.147-0.028-1.563-0.028
		c-0.402,0-1.176,0-1.549,0.028V50.99c0.932,0,1.09,0,1.09-0.646v-3.37c0-0.875-0.201-1.606-1.09-1.606s-1.879,0.803-1.879,2.309
		v2.668c0,0.646,0.172,0.646,1.09,0.646v0.416c-0.373-0.028-1.147-0.028-1.563-0.028c-0.402,0-1.176,0-1.549,0.028V50.99
		c0.932,0,1.09,0,1.09-0.646v-3.887c0-0.703-0.115-0.804-1.09-0.804v-0.416l1.951-0.157v1.478h0.014
		c0.115-0.287,0.66-1.478,2.051-1.478c0.488,0,1.162,0.086,1.578,0.646c0.33,0.459,0.33,0.86,0.33,2.194V50.56z"/>
	<path d="M94.694,51.406h-2.208c-0.316,0-0.359,0-0.359-0.272c0-1.019,0.502-2.338,0.746-3.026c0.401-1.062,0.803-2.138,0.803-3.228
		c0-2.208-1.535-3.284-2.955-3.284s-2.955,1.076-2.955,3.284c0,1.09,0.387,2.138,0.803,3.271c0.287,0.731,0.746,1.979,0.746,2.998
		c0,0.258-0.029,0.258-0.344,0.258h-2.223l-0.459-2.237h0.315c0.072,0.344,0.144,0.76,0.258,1.062
		c0.072,0.215,0.115,0.329,0.947,0.329h1.133c-0.158-0.803-0.588-1.477-1.19-2.409c-0.674-1.047-1.32-2.08-1.32-3.256
		c0-1.965,1.879-3.586,4.289-3.586c2.396,0,4.289,1.606,4.289,3.586c0,1.19-0.66,2.237-1.334,3.284
		c-0.588,0.89-1.004,1.578-1.176,2.381h1.133c0.832,0,0.875-0.114,0.946-0.344c0.115-0.302,0.187-0.674,0.258-1.047h0.315
		L94.694,51.406z"/>
</g>
</svg>
