<?xml version="1.0" encoding="iso-8859-1"?>
<!-- Generator: Adobe Illustrator 16.0.0, SVG Export Plug-In . SVG Version: 6.00 Build 0)  -->
<!DOCTYPE svg PUBLIC "-//W3C//DTD SVG 1.1//EN" "http://www.w3.org/Graphics/SVG/1.1/DTD/svg11.dtd">
<svg version="1.1" id="Layer_1" xmlns="http://www.w3.org/2000/svg" xmlns:xlink="http://www.w3.org/1999/xlink" x="0px" y="0px"
	 width="566.929px" height="85.039px" viewBox="0 0 566.929 85.039" style="enable-background:new 0 0 566.929 85.039;"
	 xml:space="preserve">
<g>
	<path d="M33.27,37.918c0.143-0.531,0.416-1.592,0.416-2.51c0-1.606-0.804-2.61-2.065-2.61c-0.388,0-1.478,0.101-2.065,1.162
		c0.186,0,0.631,0,0.631,0.445c0,0.244-0.215,0.703-0.717,0.703c-0.401,0-0.488-0.315-0.488-0.444c0-0.387,0.617-2.209,2.697-2.209
		c1.836,0,2.998,1.592,2.998,3.658c0,1.965-1.448,6.899-4.833,6.899c-1.951,0-2.553-1.649-2.553-2.524
		c0-2.281,2.065-4.332,4.088-4.332c1.291,0,1.793,0.961,1.879,1.764H33.27z M33.025,38.349c0-0.774-0.301-1.908-1.606-1.908
		c-1.492,0-2.309,1.449-2.496,1.879c-0.215,0.531-0.617,2.008-0.617,2.639c0,0.603,0.229,1.664,1.578,1.664
		C32.093,42.623,33.025,39.41,33.025,38.349z"/>
	<path d="M38.261,41.805c-0.014,0.072-0.029,0.172-0.029,0.244c0,0.143,0.015,0.244,0.875,0.244c0.215,0,0.344,0,0.344,0.144
		c0,0.272-0.158,0.272-0.272,0.272c-0.272,0-0.574-0.029-0.846-0.029h-1.678c-0.272,0-0.56,0.029-0.832,0.029
		c-0.086,0-0.215,0-0.215-0.158c0-0.258,0.143-0.258,0.416-0.258c1.004,0,1.032-0.144,1.162-0.646l1.936-7.717
		c0.058-0.215,0.058-0.301,0.058-0.33c0-0.158,0-0.272-0.875-0.272c-0.215,0-0.344,0-0.344-0.144c0-0.272,0.129-0.272,0.402-0.272
		h4.432c1.808,0,2.754,1.018,2.754,2.137c0,1.635-1.979,3.098-3.958,3.098h-2.41L38.261,41.805z M39.236,37.804h2.022
		c1.305,0,1.994-0.545,2.238-0.803c0.66-0.66,0.846-1.879,0.846-2.252c0-1.076-0.889-1.42-1.965-1.42h-1.42
		c-0.559,0-0.617,0.029-0.746,0.559L39.236,37.804z"/>
</g>
<g>
	<rect x="26.102" y="48.541" width="20.483" height="0.574"/>
</g>
<g>
	<path d="M32.628,57.464c0.143-0.53,0.416-1.592,0.416-2.51c0-1.606-0.803-2.61-2.065-2.61c-0.387,0-1.477,0.101-2.065,1.162
		c0.187,0,0.631,0,0.631,0.444c0,0.244-0.215,0.703-0.717,0.703c-0.401,0-0.487-0.315-0.487-0.445c0-0.387,0.617-2.209,2.696-2.209
		c1.836,0,2.998,1.593,2.998,3.658c0,1.965-1.449,6.898-4.833,6.898c-1.951,0-2.553-1.649-2.553-2.524
		c0-2.28,2.065-4.331,4.088-4.331c1.291,0,1.793,0.961,1.879,1.764H32.628z M32.384,57.895c0-0.774-0.301-1.907-1.606-1.907
		c-1.492,0-2.309,1.448-2.496,1.879c-0.215,0.53-0.617,2.008-0.617,2.639c0,0.603,0.229,1.664,1.578,1.664
		C31.452,62.169,32.384,58.956,32.384,57.895z"/>
	<path d="M36.773,59.945c-0.101,0.431-0.215,0.861-0.315,1.291c-0.072,0.287-0.201,0.789-0.229,0.86
		c-0.115,0.216-0.316,0.302-0.488,0.302c-0.215,0-0.373-0.158-0.373-0.358c0-0.072,0.158-0.746,0.258-1.119
		c0.072-0.258,0.229-0.903,0.287-1.176c0.129-0.517,0.273-1.033,0.402-1.55c0.101-0.444,0.244-1.004,0.244-1.319
		c0-0.43-0.115-0.659-0.444-0.659c-0.574,0-0.846,0.846-1.062,1.692c-0.086,0.329-0.101,0.344-0.215,0.344
		c-0.1,0-0.158-0.071-0.158-0.129s0.201-0.933,0.459-1.448c0.272-0.546,0.603-0.746,1.019-0.746c0.631,0,1.219,0.444,1.262,1.262
		c0.258-0.358,0.932-1.262,2.209-1.262c1.076,0,1.549,0.616,1.592,1.391c0.574-0.846,1.348-1.391,2.31-1.391
		c1.09,0,1.592,0.646,1.592,1.506c0,0.832-0.646,2.524-0.903,3.213c-0.058,0.158-0.229,0.617-0.229,0.989
		c0,0.459,0.229,0.474,0.373,0.474c0.574,0,1.104-0.603,1.435-1.75c0.072-0.243,0.086-0.287,0.215-0.287
		c0.086,0,0.144,0.058,0.144,0.13c0,0.086-0.502,2.194-1.836,2.194c-0.688,0-1.133-0.517-1.133-1.162
		c0-0.258,0.072-0.444,0.201-0.789c0.315-0.86,0.875-2.424,0.875-3.227c0-0.574-0.201-1.004-0.775-1.004
		c-1.578,0-2.323,1.793-2.352,1.907c-0.215,0.875-0.588,2.353-0.861,3.428c-0.129,0.517-0.201,0.847-0.631,0.847
		c-0.215,0-0.373-0.158-0.373-0.358c0-0.058,0.086-0.431,0.144-0.646c0.029-0.158,0.301-1.22,0.416-1.649
		C40,59.057,40,59.014,40.187,58.268c0.172-0.674,0.172-0.961,0.172-1.047c0-0.574-0.201-1.004-0.775-1.004
		c-0.559,0-1.047,0.229-1.42,0.573c-0.531,0.459-0.889,1.176-0.918,1.263L36.773,59.945z"/>
</g>
<g>
	<path d="M53,47.767c-0.215,0-0.459,0-0.459-0.272c0-0.258,0.258-0.258,0.459-0.258h8.448c0.215,0,0.459,0,0.459,0.272
		c0,0.258-0.258,0.258-0.459,0.258H53z M53,50.435c-0.215,0-0.459,0-0.459-0.272c0-0.258,0.258-0.258,0.459-0.258h8.448
		c0.215,0,0.459,0,0.459,0.272c0,0.258-0.258,0.258-0.459,0.258H53z"/>
</g>
<g>
	<path d="M68.34,49.115c-0.201,0-0.474,0-0.474-0.287s0.272-0.287,0.474-0.287h7.817c0.201,0,0.473,0,0.473,0.287
		s-0.272,0.287-0.473,0.287H68.34z"/>
</g>
<g>
	<path d="M90.996,36.398c-0.057,0.258-0.072,0.272-0.229,0.272c-0.043,0-0.187,0-0.187-0.129c0-0.201,0.058-0.517,0.058-0.746
		c0-1.319-0.603-2.768-2.295-2.768c-1.262,0-2.596,0.703-3.5,1.735c-1.391,1.621-1.735,3.815-1.735,4.776
		c0,2.481,1.793,3.055,2.897,3.055c0.846,0,1.979-0.33,2.524-1.133c0.272-0.43,0.545-1.879,0.545-1.893c0-0.215,0-0.33-1.133-0.33
		h-0.358c0-0.014-0.115-0.014-0.115-0.158c0-0.258,0.172-0.258,0.301-0.258c0.588,0,1.219,0.029,1.821,0.029h0.775
		c0.258,0,0.531-0.029,0.774-0.029c0.043,0,0.187,0,0.187,0.144c0,0.272-0.172,0.272-0.229,0.272
		c-0.789,0.015-0.818,0.058-0.961,0.603c-0.101,0.43-0.158,0.631-0.273,1.104l-0.229,0.918c-0.071,0.258-0.186,0.76-0.201,0.789
		c-0.014,0-0.029,0.043-0.1,0.043c-0.101,0-0.416-0.387-0.574-0.933c-0.717,0.904-2.022,1.248-3.055,1.248
		c-2.151,0-3.787-1.521-3.787-3.887c0-3.385,3.227-6.512,6.296-6.512c0.215,0,0.832,0,1.449,0.387
		c0.56,0.33,0.846,0.832,0.918,0.947l0.99-1.19c0.115-0.144,0.172-0.144,0.201-0.144c0.029,0,0.129,0,0.129,0.129L90.996,36.398z"/>
	<path d="M94.761,40.4c-0.101,0.43-0.215,0.86-0.315,1.291c-0.072,0.287-0.201,0.789-0.229,0.861
		c-0.115,0.215-0.316,0.301-0.488,0.301c-0.215,0-0.373-0.158-0.373-0.359c0-0.072,0.158-0.746,0.258-1.119
		c0.072-0.258,0.229-0.903,0.287-1.176c0.129-0.516,0.273-1.033,0.402-1.549c0.101-0.445,0.244-1.004,0.244-1.32
		c0-0.43-0.115-0.66-0.444-0.66c-0.574,0-0.846,0.846-1.062,1.692c-0.086,0.33-0.101,0.344-0.215,0.344
		c-0.1,0-0.158-0.071-0.158-0.129s0.201-0.932,0.459-1.449c0.272-0.545,0.603-0.746,1.019-0.746c0.631,0,1.219,0.444,1.262,1.262
		c0.258-0.359,0.932-1.262,2.209-1.262c1.076,0,1.549,0.617,1.592,1.391c0.574-0.846,1.348-1.391,2.31-1.391
		c1.09,0,1.592,0.646,1.592,1.506c0,0.832-0.646,2.524-0.903,3.213c-0.058,0.158-0.229,0.617-0.229,0.99
		c0,0.459,0.229,0.473,0.373,0.473c0.574,0,1.104-0.603,1.435-1.75c0.072-0.244,0.086-0.287,0.215-0.287
		c0.086,0,0.144,0.057,0.144,0.129c0,0.086-0.502,2.195-1.836,2.195c-0.688,0-1.133-0.517-1.133-1.162
		c0-0.258,0.072-0.444,0.201-0.789c0.315-0.861,0.875-2.424,0.875-3.228c0-0.574-0.201-1.004-0.775-1.004
		c-1.578,0-2.323,1.793-2.352,1.908c-0.215,0.875-0.588,2.353-0.861,3.428c-0.129,0.516-0.201,0.846-0.631,0.846
		c-0.215,0-0.373-0.158-0.373-0.359c0-0.057,0.086-0.43,0.144-0.645c0.029-0.158,0.301-1.219,0.416-1.65
		c0.172-0.688,0.172-0.731,0.358-1.477c0.172-0.674,0.172-0.961,0.172-1.047c0-0.574-0.201-1.004-0.775-1.004
		c-0.559,0-1.047,0.229-1.42,0.574c-0.531,0.459-0.889,1.176-0.918,1.262L94.761,40.4z"/>
</g>
<g>
	<rect x="79.03" y="48.541" width="27.707" height="0.574"/>
</g>
<g>
	<path d="M84.208,59.443h1.449v0.416h-1.449v1.306c0,0.53,0.043,0.674,1.076,0.674h0.287v0.416c-0.33-0.028-1.478-0.028-1.879-0.028
		c-0.402,0-1.535,0-1.865,0.028v-0.416h0.287c1.047,0,1.076-0.144,1.076-0.674v-1.306h-3.772v-0.416l4.317-6.698
		c0.115-0.172,0.158-0.172,0.272-0.172c0.201,0,0.201,0.071,0.201,0.344V59.443z M79.775,59.443h3.486v-5.407L79.775,59.443z"/>
</g>
<g>
	<path d="M88.936,60.089c-0.143,0.574-0.143,0.603-0.373,1.334c-0.172,0.603-0.287,0.976-0.703,0.976
		c-0.129,0-0.387-0.072-0.387-0.373c0-0.086,0-0.115,0.115-0.344c1.176-2.511,1.535-3.759,1.851-4.834h-0.818
		c-0.358,0-1.104,0-1.85,1.176c-0.072,0.086-0.086,0.129-0.187,0.129c-0.086,0-0.158-0.028-0.158-0.114s0.459-0.847,0.832-1.263
		c0.66-0.702,1.147-0.702,1.478-0.702h4.719c0.258,0,0.531,0,0.531,0.315c0,0.459-0.473,0.459-0.66,0.459h-1.606
		c-0.301,1.291-0.301,2.309-0.301,2.396c0,0.1,0,1.334,0.387,2.323c0.101,0.215,0.101,0.244,0.101,0.315
		c0,0.244-0.258,0.517-0.56,0.517c-0.588,0-0.588-1.549-0.588-1.75c0-1.147,0.244-2.194,0.631-3.801h-1.621L88.936,60.089z"/>
	<path d="M99.472,56.217c-0.588,0-0.961,0.329-1.133,0.487c-0.358,0.315-0.746,1.019-0.789,1.147
		c-0.043,0.187-0.101,0.416-0.158,0.617c-0.072,0.315-0.158,0.616-0.229,0.932c-0.086,0.33-0.617,2.496-0.66,2.61
		c-0.086,0.287-0.358,0.388-0.516,0.388c-0.215,0-0.373-0.158-0.373-0.358c0-0.072,0.158-0.746,0.258-1.119
		c0.072-0.258,0.229-0.903,0.287-1.176c0.129-0.517,0.272-1.033,0.402-1.55c0.1-0.444,0.244-1.004,0.244-1.319
		c0-0.416-0.1-0.659-0.444-0.659c-0.574,0-0.847,0.831-1.062,1.692c-0.086,0.329-0.101,0.344-0.215,0.344
		c-0.1,0-0.158-0.071-0.158-0.129c0-0.071,0.215-0.933,0.459-1.448c0.172-0.316,0.459-0.746,1.019-0.746
		c0.574,0,1.147,0.373,1.248,1.133c0.603-0.875,1.262-1.133,1.836-1.133c0.717,0,1.162,0.401,1.162,0.86
		c0,0.431-0.33,0.774-0.731,0.774c-0.201,0-0.474-0.114-0.474-0.459c0-0.315,0.229-0.631,0.674-0.717
		C99.931,56.26,99.701,56.217,99.472,56.217z"/>
</g>
<g>
	<path d="M101.536,56.158l3.059-4.673c0.08-0.12,0.11-0.12,0.199-0.12c0.16,0,0.16,0.061,0.16,0.26v4.533h0.996v0.309h-0.996v0.867
		c0,0.358,0.02,0.469,0.757,0.469h0.209v0.309c-0.409-0.03-0.937-0.03-1.355-0.03s-0.937,0-1.345,0.03v-0.309h0.209
		c0.737,0,0.757-0.11,0.757-0.469v-0.867h-2.65V56.158z M104.246,52.441l-2.431,3.717h2.431V52.441z"/>
</g>
</svg>
