<?xml version="1.0" encoding="iso-8859-1"?>
<!-- Generator: Adobe Illustrator 16.0.0, SVG Export Plug-In . SVG Version: 6.00 Build 0)  -->
<!DOCTYPE svg PUBLIC "-//W3C//DTD SVG 1.1//EN" "http://www.w3.org/Graphics/SVG/1.1/DTD/svg11.dtd">
<svg version="1.1" id="Layer_1" xmlns="http://www.w3.org/2000/svg" xmlns:xlink="http://www.w3.org/1999/xlink" x="0px" y="0px"
	 width="566.929px" height="85.039px" viewBox="0 0 566.929 85.039" style="enable-background:new 0 0 566.929 85.039;"
	 xml:space="preserve">
<g>
	<path d="M33.68,37.918c0.143-0.531,0.416-1.592,0.416-2.51c0-1.606-0.803-2.61-2.065-2.61c-0.387,0-1.477,0.101-2.065,1.162
		c0.187,0,0.631,0,0.631,0.445c0,0.244-0.215,0.703-0.717,0.703c-0.401,0-0.487-0.315-0.487-0.444c0-0.387,0.617-2.209,2.696-2.209
		c1.836,0,2.998,1.592,2.998,3.658c0,1.965-1.449,6.899-4.833,6.899c-1.951,0-2.553-1.649-2.553-2.524
		c0-2.281,2.065-4.332,4.088-4.332c1.291,0,1.793,0.961,1.879,1.764H33.68z M33.436,38.349c0-0.774-0.301-1.908-1.606-1.908
		c-1.492,0-2.309,1.449-2.496,1.879c-0.215,0.531-0.617,2.008-0.617,2.639c0,0.603,0.229,1.664,1.578,1.664
		C32.504,42.623,33.436,39.41,33.436,38.349z"/>
	<path d="M39.403,41.604c-0.057,0.229-0.057,0.33-0.057,0.344c0,0.215,0,0.344,1.291,0.344c0.373,0,0.474,0,0.474,0.144
		c0,0.272-0.144,0.272-0.301,0.272c-0.358,0-0.746-0.029-1.104-0.029h-2.237c-0.359,0-0.732,0.029-1.09,0.029
		c-0.072,0-0.229,0-0.229-0.144c0-0.272,0.101-0.272,0.459-0.272c1.521,0,1.549-0.144,1.692-0.703l1.922-7.703
		c0.071-0.258,0.071-0.287,0.071-0.33c0-0.158-0.143-0.158-0.487-0.158h-0.961c-1.908,0-2.209,0.803-2.812,2.539
		c-0.058,0.187-0.086,0.244-0.201,0.244c-0.086,0-0.144-0.071-0.144-0.143c0-0.015,0.043-0.172,0.057-0.201l0.875-2.582
		c0.086-0.258,0.101-0.272,0.431-0.272h7.846c0.287,0,0.373,0,0.373,0.158c0,0.043,0,0.072-0.029,0.201l-0.416,2.539
		c-0.043,0.229-0.043,0.301-0.187,0.301c-0.086,0-0.144-0.086-0.144-0.143l0.015-0.172c0.086-0.531,0.143-1.076,0.143-1.291
		c0-1.119-0.674-1.176-2.108-1.176c-0.301,0-0.774,0-0.889,0.028c-0.215,0.058-0.244,0.187-0.33,0.531L39.403,41.604z"/>
</g>
<g>
	<rect x="26.102" y="48.541" width="20.483" height="0.574"/>
</g>
<g>
	<path d="M32.628,57.464c0.143-0.53,0.416-1.592,0.416-2.51c0-1.606-0.803-2.61-2.065-2.61c-0.387,0-1.477,0.101-2.065,1.162
		c0.187,0,0.631,0,0.631,0.444c0,0.244-0.215,0.703-0.717,0.703c-0.401,0-0.487-0.315-0.487-0.445c0-0.387,0.617-2.209,2.696-2.209
		c1.836,0,2.998,1.593,2.998,3.658c0,1.965-1.449,6.898-4.833,6.898c-1.951,0-2.553-1.649-2.553-2.524
		c0-2.28,2.065-4.331,4.088-4.331c1.291,0,1.793,0.961,1.879,1.764H32.628z M32.384,57.895c0-0.774-0.301-1.907-1.606-1.907
		c-1.492,0-2.309,1.448-2.496,1.879c-0.215,0.53-0.617,2.008-0.617,2.639c0,0.603,0.229,1.664,1.578,1.664
		C31.452,62.169,32.384,58.956,32.384,57.895z"/>
	<path d="M36.773,59.945c-0.101,0.431-0.215,0.861-0.315,1.291c-0.072,0.287-0.201,0.789-0.229,0.86
		c-0.115,0.216-0.316,0.302-0.488,0.302c-0.215,0-0.373-0.158-0.373-0.358c0-0.072,0.158-0.746,0.258-1.119
		c0.072-0.258,0.229-0.903,0.287-1.176c0.129-0.517,0.273-1.033,0.402-1.55c0.101-0.444,0.244-1.004,0.244-1.319
		c0-0.43-0.115-0.659-0.444-0.659c-0.574,0-0.846,0.846-1.062,1.692c-0.086,0.329-0.101,0.344-0.215,0.344
		c-0.1,0-0.158-0.071-0.158-0.129s0.201-0.933,0.459-1.448c0.272-0.546,0.603-0.746,1.019-0.746c0.631,0,1.219,0.444,1.262,1.262
		c0.258-0.358,0.932-1.262,2.209-1.262c1.076,0,1.549,0.616,1.592,1.391c0.574-0.846,1.348-1.391,2.31-1.391
		c1.09,0,1.592,0.646,1.592,1.506c0,0.832-0.646,2.524-0.903,3.213c-0.058,0.158-0.229,0.617-0.229,0.989
		c0,0.459,0.229,0.474,0.373,0.474c0.574,0,1.104-0.603,1.435-1.75c0.072-0.243,0.086-0.287,0.215-0.287
		c0.086,0,0.144,0.058,0.144,0.13c0,0.086-0.502,2.194-1.836,2.194c-0.688,0-1.133-0.517-1.133-1.162
		c0-0.258,0.072-0.444,0.201-0.789c0.315-0.86,0.875-2.424,0.875-3.227c0-0.574-0.201-1.004-0.775-1.004
		c-1.578,0-2.323,1.793-2.352,1.907c-0.215,0.875-0.588,2.353-0.861,3.428c-0.129,0.517-0.201,0.847-0.631,0.847
		c-0.215,0-0.373-0.158-0.373-0.358c0-0.058,0.086-0.431,0.144-0.646c0.029-0.158,0.301-1.22,0.416-1.649
		C40,59.057,40,59.014,40.187,58.268c0.172-0.674,0.172-0.961,0.172-1.047c0-0.574-0.201-1.004-0.775-1.004
		c-0.559,0-1.047,0.229-1.42,0.573c-0.531,0.459-0.889,1.176-0.918,1.263L36.773,59.945z"/>
</g>
<g>
	<path d="M53,47.767c-0.215,0-0.459,0-0.459-0.272c0-0.258,0.258-0.258,0.459-0.258h8.448c0.215,0,0.459,0,0.459,0.272
		c0,0.258-0.258,0.258-0.459,0.258H53z M53,50.435c-0.215,0-0.459,0-0.459-0.272c0-0.258,0.258-0.258,0.459-0.258h8.448
		c0.215,0,0.459,0,0.459,0.272c0,0.258-0.258,0.258-0.459,0.258H53z"/>
</g>
<g>
	<path d="M68.34,49.115c-0.201,0-0.474,0-0.474-0.287s0.272-0.287,0.474-0.287h7.817c0.201,0,0.473,0,0.473,0.287
		s-0.272,0.287-0.473,0.287H68.34z"/>
</g>
<g>
	<path d="M99.302,37.517c0.387-0.014,0.875-0.057,1.305-0.688c0.416-0.617,0.459-1.42,0.459-1.692c0-1.406-0.932-1.621-1.405-1.621
		c-0.072,0-1.42,0-1.965,0.975c0.043-0.014,0.072-0.014,0.158-0.014c0.316,0,0.66,0.201,0.66,0.66c0,0.43-0.344,0.646-0.646,0.646
		c-0.215,0-0.66-0.115-0.66-0.688c0-1.047,1.062-1.922,2.496-1.922c1.391,0,2.567,0.832,2.567,1.965
		c0,1.119-0.803,2.166-2.051,2.524c1.377,0.244,2.438,1.276,2.438,2.596c0,1.449-1.262,2.754-2.969,2.754
		c-1.592,0-2.869-1.047-2.869-2.324c0-0.545,0.373-0.746,0.717-0.746c0.402,0,0.703,0.287,0.703,0.703
		c0,0.517-0.416,0.774-0.875,0.703c0.416,0.947,1.592,1.277,2.28,1.277c0.703,0,1.678-0.502,1.678-2.381
		c0-1.377-0.545-2.381-1.764-2.381h-0.66c-0.258,0-0.33,0-0.33-0.143c0-0.129,0.058-0.144,0.301-0.158L99.302,37.517z"/>
</g>
<g>
	<rect x="79.03" y="48.541" width="41.429" height="0.574"/>
</g>
<g>
	<path d="M80.794,57.65c0.144-0.401,0.617-1.506,1.894-1.506c1.434,0,2.768,1.276,2.768,3.185c0,1.864-1.334,3.227-2.897,3.227
		c-1.219,0-2.94-0.889-2.94-4.833c0-3.156,1.894-5.006,3.701-5.006c1.248,0,1.793,0.731,1.793,1.478
		c0,0.416-0.244,0.631-0.603,0.631c-0.373,0-0.588-0.272-0.588-0.588c0-0.589,0.545-0.589,0.717-0.589
		c-0.273-0.43-0.789-0.588-1.305-0.588c-0.775,0-2.539,0.574-2.539,4.203V57.65z M84.007,61.236c0.272-0.545,0.272-1.19,0.272-1.922
		c0-0.617,0-1.334-0.229-1.864c-0.215-0.488-0.631-1.019-1.42-1.019c-1.291,0-1.807,1.42-1.807,2.553
		c0,1.004,0.144,1.707,0.272,2.08c0.129,0.301,0.56,1.104,1.463,1.104C83.132,62.169,83.648,61.925,84.007,61.236z"/>
	<path d="M91.231,59.443h1.449v0.416h-1.449v1.306c0,0.53,0.043,0.674,1.076,0.674h0.287v0.416c-0.33-0.028-1.478-0.028-1.879-0.028
		c-0.402,0-1.535,0-1.865,0.028v-0.416h0.287c1.047,0,1.076-0.144,1.076-0.674v-1.306H86.44v-0.416l4.317-6.698
		c0.115-0.172,0.158-0.172,0.272-0.172c0.201,0,0.201,0.071,0.201,0.344V59.443z M86.799,59.443h3.486v-5.407L86.799,59.443z"/>
</g>
<g>
	<path d="M98.915,56.202c0.215,0,0.373,0.157,0.373,0.358c0,0.086-0.129,0.603-0.66,2.754c-0.115,0.416-0.187,0.731-0.287,1.09
		c-0.129,0.56-0.172,0.718-0.172,1.047c0,0.287,0.029,0.66,0.445,0.66c0.588,0,0.86-0.903,1.076-1.75
		c0.057-0.215,0.072-0.287,0.201-0.287c0.086,0,0.144,0.058,0.144,0.13c0,0.057-0.201,0.932-0.43,1.42
		c-0.258,0.517-0.603,0.774-1.033,0.774c-0.431,0-1.104-0.244-1.248-1.09c-0.402,0.473-1.076,1.09-1.865,1.09
		c-0.975,0-1.807-0.832-1.807-2.252c0-2.123,1.75-4.217,3.371-4.217c0.746,0,1.133,0.573,1.291,0.946
		C98.341,56.704,98.456,56.202,98.915,56.202z M98.097,57.736c0.015-0.028,0.058-0.215,0.058-0.229c0-0.114-0.187-1.29-1.133-1.29
		c-0.56,0-1.233,0.516-1.721,1.52c-0.272,0.603-0.717,2.209-0.717,2.998c0,0.847,0.33,1.377,0.918,1.377
		c0.674,0,1.306-0.616,1.621-1.019c0.201-0.272,0.201-0.301,0.272-0.545L98.097,57.736z"/>
	<path d="M104.797,56.217c-0.904,0-1.678,0.774-2.051,1.448c-0.517,0.976-0.76,2.366-0.76,2.868c0,0.718,0.315,1.578,1.305,1.578
		c0.545,0,1.908-0.215,2.826-1.435c0.129-0.129,0.144-0.144,0.187-0.144c0.057,0,0.144,0.072,0.144,0.158
		c0,0.187-1.234,1.707-3.184,1.707c-1.463,0-2.238-1.133-2.238-2.381c0-2.037,1.879-4.088,3.758-4.088
		c0.99,0,1.649,0.53,1.649,1.219c0,0.574-0.387,0.861-0.731,0.861c-0.272,0-0.488-0.173-0.488-0.459c0-0.23,0.158-0.445,0.244-0.517
		c0.201-0.173,0.33-0.173,0.603-0.173C105.772,56.245,104.983,56.217,104.797,56.217z"/>
	<path d="M109.379,60.089c-0.143,0.574-0.143,0.603-0.373,1.334c-0.172,0.603-0.287,0.976-0.703,0.976
		c-0.129,0-0.387-0.072-0.387-0.373c0-0.086,0-0.115,0.115-0.344c1.176-2.511,1.535-3.759,1.851-4.834h-0.818
		c-0.358,0-1.104,0-1.85,1.176c-0.072,0.086-0.086,0.129-0.187,0.129c-0.086,0-0.158-0.028-0.158-0.114s0.459-0.847,0.832-1.263
		c0.66-0.702,1.147-0.702,1.478-0.702h4.719c0.258,0,0.531,0,0.531,0.315c0,0.459-0.473,0.459-0.66,0.459h-1.606
		c-0.301,1.291-0.301,2.309-0.301,2.396c0,0.1,0,1.334,0.387,2.323c0.101,0.215,0.101,0.244,0.101,0.315
		c0,0.244-0.258,0.517-0.56,0.517c-0.588,0-0.588-1.549-0.588-1.75c0-1.147,0.244-2.194,0.631-3.801h-1.621L109.379,60.089z"/>
</g>
<g>
	<path d="M119.175,58.111h-3.697c0-0.239,0-0.259,0.11-0.369l1.913-2.132c0.548-0.618,1.046-1.405,1.046-2.202
		c0-0.817-0.428-1.624-1.335-1.624c-0.578,0-1.116,0.369-1.345,1.017c0.03-0.01,0.05-0.01,0.129-0.01
		c0.349,0,0.528,0.259,0.528,0.518c0,0.408-0.349,0.528-0.518,0.528c-0.03,0-0.528,0-0.528-0.559c0-0.887,0.737-1.803,1.863-1.803
		c1.216,0,2.112,0.797,2.112,1.933c0,0.996-0.598,1.534-2.152,2.909l-1.056,1.026h1.793c0.219,0,0.876,0,0.946-0.079
		c0.1-0.149,0.169-0.588,0.219-0.887h0.249L119.175,58.111z"/>
</g>
<g>
	<path d="M131.134,40.601c0,0.158-0.043,0.33-0.072,0.473c-0.058,0.215-0.115,0.531-0.115,0.803c0,0.502,0.158,0.688,0.473,0.688
		c0.731,0,1.047-1.062,1.234-1.75c0.057-0.229,0.072-0.287,0.201-0.287c0.086,0,0.144,0.057,0.144,0.129
		c0,0.058-0.187,0.846-0.488,1.406c-0.215,0.373-0.545,0.789-1.133,0.789c-0.703,0-1.262-0.531-1.262-1.392
		c0-0.086,0-0.244,0.058-0.516c0.043-0.158,0.043-0.201,0.043-0.301c0-0.703-0.617-1.162-2.438-1.248
		c-0.029,0.086-0.617,2.481-0.703,2.783c-0.072,0.301-0.158,0.674-0.588,0.674c-0.215,0-0.373-0.158-0.373-0.359
		c0-0.086,0-0.115,0.043-0.287l1.334-5.321c0.115-0.459,0.43-0.502,0.559-0.502c0.187,0,0.373,0.129,0.373,0.358l-0.545,2.281
		c0.588-0.187,1.004-0.502,1.836-1.234c0.631-0.53,1.477-1.262,2.338-1.262c0.502,0,0.531,0.373,0.531,0.459
		c0,0.273-0.258,0.703-0.717,0.703c-0.144,0-0.473-0.072-0.473-0.459c0-0.101,0.014-0.215,0.071-0.301
		c-0.545,0.215-0.86,0.444-1.721,1.19c-0.359,0.301-0.89,0.746-1.363,1.004C129.327,39.166,131.134,39.295,131.134,40.601z"/>
	<path d="M136.725,41.805c-0.029,0.129-0.058,0.215-0.058,0.316c0,0.115,0.015,0.143,0.172,0.158
		c0.086,0.014,0.115,0.014,0.315,0.014h1.377c2.424,0,3.069-1.621,3.528-2.883c0.115-0.272,0.115-0.301,0.144-0.315
		c0.029-0.058,0.1-0.058,0.115-0.058c0.072,0,0.144,0.058,0.144,0.144c0,0.043-0.029,0.129-0.058,0.201l-1.104,3.055
		c-0.1,0.258-0.115,0.272-0.43,0.272h-6.426c-0.287,0-0.373,0-0.373-0.158c0-0.258,0.144-0.258,0.416-0.258
		c1.004,0,1.033-0.144,1.162-0.646l1.937-7.717c0.058-0.215,0.058-0.301,0.058-0.33c0-0.158,0-0.272-0.875-0.272
		c-0.215,0-0.344,0-0.344-0.144c0-0.272,0.158-0.272,0.272-0.272c0.272,0,0.588,0.029,0.86,0.029h1.922
		c0.287,0,0.617-0.029,0.903-0.029c0.058,0,0.215,0,0.215,0.144c0,0.272-0.101,0.272-0.488,0.272c-1.262,0-1.305,0.143-1.434,0.688
		L136.725,41.805z"/>
</g>
<g>
	<path d="M144.423,41.972c0.13-0.518,0.16-0.627,0.16-0.837c0-0.378-0.14-0.458-0.309-0.458c-0.358,0-0.558,0.479-0.727,1.186
		c-0.06,0.219-0.07,0.229-0.169,0.229c-0.02,0-0.12,0-0.12-0.1c0-0.03,0.129-0.628,0.309-0.966c0.09-0.18,0.279-0.568,0.737-0.568
		c0.469,0,0.827,0.319,0.907,0.768c0.189-0.279,0.628-0.768,1.275-0.768c0.508,0,0.827,0.299,0.827,0.648
		c0,0.358-0.279,0.588-0.548,0.588s-0.379-0.189-0.379-0.349c0-0.259,0.219-0.499,0.518-0.548c-0.01,0-0.159-0.12-0.418-0.12
		c-0.428,0-0.717,0.259-0.797,0.329c-0.239,0.219-0.518,0.688-0.558,0.817c-0.06,0.269-0.239,0.967-0.319,1.295
		c-0.04,0.18-0.378,1.535-0.398,1.575c-0.07,0.199-0.249,0.278-0.369,0.278c-0.149,0-0.289-0.09-0.289-0.269
		c0-0.05,0.06-0.279,0.09-0.429L144.423,41.972z"/>
</g>
<g>
	<rect x="122.85" y="48.541" width="27.864" height="0.574"/>
</g>
<g>
	<path d="M127.784,56.217c-0.588,0-0.961,0.329-1.133,0.487c-0.358,0.315-0.746,1.019-0.789,1.147
		c-0.043,0.187-0.101,0.416-0.158,0.617c-0.072,0.315-0.158,0.616-0.229,0.932c-0.086,0.33-0.617,2.496-0.66,2.61
		c-0.086,0.287-0.358,0.388-0.516,0.388c-0.215,0-0.373-0.158-0.373-0.358c0-0.072,0.158-0.746,0.258-1.119
		c0.072-0.258,0.229-0.903,0.287-1.176c0.129-0.517,0.272-1.033,0.402-1.55c0.1-0.444,0.244-1.004,0.244-1.319
		c0-0.416-0.1-0.659-0.444-0.659c-0.574,0-0.847,0.831-1.062,1.692c-0.086,0.329-0.101,0.344-0.215,0.344
		c-0.1,0-0.158-0.071-0.158-0.129c0-0.071,0.215-0.933,0.459-1.448c0.172-0.316,0.459-0.746,1.019-0.746
		c0.574,0,1.147,0.373,1.248,1.133c0.603-0.875,1.262-1.133,1.836-1.133c0.717,0,1.162,0.401,1.162,0.86
		c0,0.431-0.33,0.774-0.731,0.774c-0.201,0-0.474-0.114-0.474-0.459c0-0.315,0.229-0.631,0.674-0.717
		C128.243,56.26,128.014,56.217,127.784,56.217z"/>
</g>
<g>
	<path d="M129.85,56.158l3.059-4.673c0.08-0.12,0.11-0.12,0.199-0.12c0.16,0,0.16,0.061,0.16,0.26v4.533h0.996v0.309h-0.996v0.867
		c0,0.358,0.02,0.469,0.757,0.469h0.209v0.309c-0.409-0.03-0.937-0.03-1.355-0.03s-0.937,0-1.345,0.03v-0.309h0.209
		c0.737,0,0.757-0.11,0.757-0.469v-0.867h-2.65V56.158z M132.56,52.441l-2.431,3.717h2.431V52.441z"/>
</g>
<g>
	<path d="M139.109,61.15c-0.057,0.229-0.057,0.33-0.057,0.345c0,0.215,0,0.344,1.291,0.344c0.373,0,0.474,0,0.474,0.144
		c0,0.272-0.144,0.272-0.301,0.272c-0.358,0-0.746-0.028-1.104-0.028h-2.237c-0.359,0-0.732,0.028-1.09,0.028
		c-0.072,0-0.229,0-0.229-0.144c0-0.272,0.101-0.272,0.459-0.272c1.521,0,1.549-0.144,1.692-0.703l1.922-7.702
		c0.071-0.258,0.071-0.287,0.071-0.33c0-0.157-0.143-0.157-0.487-0.157h-0.961c-1.908,0-2.209,0.803-2.812,2.538
		c-0.058,0.187-0.086,0.244-0.201,0.244c-0.086,0-0.144-0.071-0.144-0.144c0-0.014,0.043-0.172,0.057-0.2l0.875-2.582
		c0.086-0.258,0.101-0.272,0.431-0.272h7.846c0.287,0,0.373,0,0.373,0.157c0,0.043,0,0.072-0.029,0.201l-0.416,2.539
		c-0.043,0.229-0.043,0.301-0.187,0.301c-0.086,0-0.144-0.086-0.144-0.144l0.015-0.172c0.086-0.53,0.143-1.075,0.143-1.291
		c0-1.118-0.674-1.176-2.108-1.176c-0.301,0-0.774,0-0.889,0.028c-0.215,0.058-0.244,0.187-0.33,0.531L139.109,61.15z"/>
</g>
<g>
	<path d="M149.788,56.407c0,1.017-0.907,1.923-2.123,1.923c-1.086,0-2.013-0.657-2.013-1.563c0-0.438,0.319-0.578,0.558-0.578
		c0.289,0,0.558,0.199,0.558,0.558c0,0.379-0.309,0.598-0.658,0.548c0.349,0.588,1.096,0.758,1.524,0.758
		c0.438,0,1.126-0.289,1.126-1.645c0-0.977-0.369-1.653-1.186-1.653h-0.438c-0.169,0-0.239,0-0.239-0.11
		c0-0.1,0.07-0.109,0.149-0.119c0.07,0,0.309-0.021,0.389-0.03c0.249-0.01,0.588-0.04,0.887-0.518
		c0.259-0.438,0.279-1.017,0.279-1.136c0-0.897-0.548-1.116-0.957-1.116c-0.358,0-1.016,0.129-1.325,0.617
		c0.149,0,0.618,0,0.618,0.499c0,0.288-0.199,0.508-0.508,0.508c-0.289,0-0.508-0.189-0.508-0.519c0-0.757,0.757-1.354,1.764-1.354
		c0.957,0,1.833,0.558,1.833,1.375c0,0.787-0.578,1.484-1.395,1.753C149.16,54.813,149.788,55.591,149.788,56.407z"/>
</g>
</svg>
