<?xml version="1.0" encoding="iso-8859-1"?>
<!-- Generator: Adobe Illustrator 16.0.0, SVG Export Plug-In . SVG Version: 6.00 Build 0)  -->
<!DOCTYPE svg PUBLIC "-//W3C//DTD SVG 1.1//EN" "http://www.w3.org/Graphics/SVG/1.1/DTD/svg11.dtd">
<svg version="1.1" id="Layer_1" xmlns="http://www.w3.org/2000/svg" xmlns:xlink="http://www.w3.org/1999/xlink" x="0px" y="0px"
	 width="566.929px" height="85.039px" viewBox="0 0 566.929 85.039" style="enable-background:new 0 0 566.929 85.039;"
	 xml:space="preserve">
<g>
	<path d="M32.628,32.727c0.143-0.531,0.416-1.592,0.416-2.51c0-1.606-0.803-2.61-2.065-2.61c-0.387,0-1.477,0.1-2.065,1.162
		c0.187,0,0.631,0,0.631,0.445c0,0.244-0.215,0.703-0.717,0.703c-0.401,0-0.487-0.315-0.487-0.444c0-0.388,0.617-2.209,2.696-2.209
		c1.836,0,2.998,1.592,2.998,3.657c0,1.965-1.449,6.899-4.833,6.899c-1.951,0-2.553-1.649-2.553-2.524
		c0-2.281,2.065-4.332,4.088-4.332c1.291,0,1.793,0.961,1.879,1.764H32.628z M32.384,33.157c0-0.774-0.301-1.908-1.606-1.908
		c-1.492,0-2.309,1.449-2.496,1.879c-0.215,0.531-0.617,2.008-0.617,2.639c0,0.603,0.229,1.664,1.578,1.664
		C31.452,37.431,32.384,34.218,32.384,33.157z"/>
	<path d="M43.615,28.997c0.158-0.172,0.187-0.315,0.201-0.416l0.014-0.028c0-0.272-0.244-0.388-0.473-0.416
		c-0.086,0-0.187-0.015-0.187-0.158c0-0.258,0.172-0.258,0.272-0.258c0.445,0,0.947,0.029,1.406,0.029h0.66
		c0.201,0,0.416-0.029,0.617-0.029c0.058,0,0.187,0,0.187,0.158c0,0.244-0.144,0.244-0.287,0.258
		c-1.162,0.072-1.736,0.66-2.353,1.305c-0.129,0.144-0.459,0.502-0.602,0.646c-0.603,0.646-1.291,1.362-1.822,1.951l1.893,4.446
		c0.244,0.531,0.272,0.603,1.133,0.617c0.129,0,0.272,0,0.272,0.144c0,0.272-0.158,0.272-0.258,0.272
		c-0.244,0-0.516-0.029-0.774-0.029h-1.578c-0.244,0-0.531,0.029-0.774,0.029c-0.072,0-0.215,0-0.215-0.144
		c0-0.258,0.158-0.272,0.244-0.272c0.459-0.029,0.775-0.287,0.775-0.416c0-0.014-0.058-0.158-0.072-0.187l-1.506-3.528
		c-0.315,0.315-1.076,1.147-1.391,1.478c-0.287,0.301-0.99,1.076-1.276,1.391c-0.416,0.43-0.588,0.603-0.588,0.846
		c0,0.229,0.187,0.387,0.474,0.416c0.086,0,0.187,0.014,0.187,0.158c0,0.258-0.172,0.258-0.273,0.258
		c-0.444,0-0.946-0.029-1.405-0.029h-0.674c-0.201,0-0.416,0.029-0.617,0.029c-0.158,0-0.172-0.101-0.172-0.144
		c0-0.258,0.115-0.258,0.287-0.272c1.062-0.057,1.678-0.603,2.194-1.162c1.047-1.09,2.094-2.209,3.113-3.328l-1.707-3.988
		c-0.144-0.344-0.201-0.487-1.033-0.487c-0.187,0-0.315,0-0.315-0.144c0-0.272,0.144-0.272,0.258-0.272
		c0.015,0,0.646,0.029,1.521,0.029H39.8c0.244,0,0.531-0.029,0.774-0.029c0.086,0,0.215,0,0.215,0.158
		c0,0.244-0.158,0.258-0.244,0.258c-0.172,0.014-0.603,0.072-0.789,0.416l1.348,3.141L43.615,28.997z"/>
</g>
<g>
	<path d="M47.64,38.234c-0.229,0.607-0.289,0.747-0.289,0.996c0,0.229,0.07,0.329,0.239,0.329c0.508,0,0.837-0.608,1.016-1.236
		c0.05-0.149,0.05-0.179,0.149-0.179c0.03,0,0.12,0,0.12,0.1c0,0.09-0.369,1.534-1.305,1.534c-0.479,0-0.817-0.349-0.817-0.817
		c0-0.209,0.13-0.538,0.229-0.797c0.159-0.429,0.608-1.584,0.688-1.843c0.04-0.1,0.109-0.309,0.109-0.519
		c0-0.319-0.169-0.319-0.249-0.319c-0.339,0-0.737,0.299-1.006,1.236c-0.05,0.159-0.06,0.179-0.159,0.179c-0.02,0-0.12,0-0.12-0.1
		c0-0.09,0.378-1.535,1.315-1.535c0.499,0,0.817,0.369,0.817,0.817c0,0.189-0.05,0.329-0.13,0.528c-0.1,0.269-0.1,0.289-0.219,0.578
		L47.64,38.234z M48.258,33.97c-0.239,0-0.379-0.169-0.379-0.359c0-0.269,0.269-0.528,0.538-0.528c0.229,0,0.369,0.16,0.369,0.359
		C48.786,33.74,48.487,33.97,48.258,33.97z"/>
</g>
<g>
	<rect x="26.102" y="43.349" width="23.784" height="0.574"/>
</g>
<g>
	<path d="M37.886,52.272c0.143-0.53,0.416-1.592,0.416-2.51c0-1.606-0.803-2.61-2.065-2.61c-0.387,0-1.477,0.101-2.065,1.162
		c0.187,0,0.631,0,0.631,0.444c0,0.244-0.215,0.703-0.717,0.703c-0.401,0-0.487-0.315-0.487-0.445c0-0.387,0.617-2.209,2.696-2.209
		c1.836,0,2.998,1.593,2.998,3.658c0,1.965-1.449,6.898-4.833,6.898c-1.951,0-2.553-1.649-2.553-2.524
		c0-2.28,2.065-4.331,4.088-4.331c1.291,0,1.793,0.961,1.879,1.764H37.886z M37.642,52.703c0-0.774-0.301-1.907-1.606-1.907
		c-1.492,0-2.309,1.448-2.496,1.879c-0.215,0.53-0.617,2.008-0.617,2.639c0,0.603,0.229,1.664,1.578,1.664
		C36.71,56.978,37.642,53.765,37.642,52.703z"/>
	<path d="M41.314,55.787c-0.043,0.172-0.043,0.444-0.043,0.459c0,0.315,0.029,0.674,0.459,0.674c0.832,0,1.492-1.004,1.793-1.721
		c0.1-0.229,0.115-0.244,0.129-0.259c0.029-0.058,0.086-0.058,0.115-0.058c0.086,0,0.144,0.044,0.144,0.13
		c0,0.101-0.774,2.194-2.223,2.194c-0.803,0-1.277-0.617-1.277-1.291c0-0.187,0.043-0.33,0.158-0.832l0.946-3.786h-1.276
		c-0.272,0-0.373,0-0.373-0.144c0-0.272,0.129-0.272,0.416-0.272h1.348l0.56-2.281c0.115-0.459,0.445-0.502,0.56-0.502
		c0.186,0,0.373,0.13,0.373,0.358c0,0.101,0,0.13-0.057,0.33l-0.531,2.095h1.262c0.287,0,0.373,0,0.373,0.157
		c0,0.259-0.144,0.259-0.416,0.259h-1.32L41.314,55.787z"/>
</g>
<g>
	<path d="M56.3,42.575c-0.215,0-0.459,0-0.459-0.272c0-0.258,0.258-0.258,0.459-0.258h8.448c0.215,0,0.459,0,0.459,0.272
		c0,0.258-0.258,0.258-0.459,0.258H56.3z M56.3,45.243c-0.215,0-0.459,0-0.459-0.272c0-0.258,0.258-0.258,0.459-0.258h8.448
		c0.215,0,0.459,0,0.459,0.272c0,0.258-0.258,0.258-0.459,0.258H56.3z"/>
</g>
<g>
	<path d="M71.183,53.675c-0.258,0-0.387,0-0.387-0.158c0-0.014,0-0.086,0.144-0.258l7.43-8.706l-7.587-10.385
		c0-0.158,0-0.43,0.014-0.473c0.043-0.086,0.058-0.101,0.387-0.101h16.954l1.735,4.03h-0.358c-0.488-1.162-1.463-1.807-1.822-2.037
		c-1.133-0.717-2.381-0.961-3.155-1.076c-0.129-0.029-1.435-0.229-3.356-0.229h-7.86l6.684,9.136
		c0.101,0.144,0.101,0.187,0.101,0.216c0,0.071-0.029,0.114-0.129,0.229l-7.3,8.562h8.649c2.754,0,4.159-0.373,4.46-0.444
		c1.649-0.431,3.17-1.406,3.729-2.897h0.358l-1.735,4.59H71.183z"/>
</g>
<g>
	<path d="M80.892,60.856c0.04-0.169,0.07-0.278,0.07-0.508c0-0.419-0.18-0.458-0.319-0.458c-0.548,0-1.006,0.607-1.256,1.215
		c-0.08,0.189-0.089,0.2-0.179,0.2c-0.02,0-0.12,0-0.12-0.101c0-0.089,0.568-1.534,1.584-1.534c0.498,0,0.917,0.349,0.917,0.917
		c0,0.03,0,0.169-0.05,0.368l-0.917,3.647c-0.249,0.986-1.176,1.515-1.874,1.515c-0.478,0-0.876-0.22-0.876-0.618
		c0-0.358,0.289-0.568,0.538-0.568c0.269,0,0.378,0.189,0.378,0.35c0,0.199-0.149,0.458-0.448,0.527
		c0.179,0.09,0.329,0.09,0.389,0.09c0.558,0,1.036-0.567,1.226-1.325L80.892,60.856z M81.419,58.376
		c-0.229,0-0.369-0.159-0.369-0.358c0-0.3,0.299-0.528,0.528-0.528c0.239,0,0.378,0.169,0.378,0.358
		C81.958,58.117,81.688,58.376,81.419,58.376z"/>
</g>
<g>
	<path d="M94.99,35.954c0,1.019,1.176,1.248,2.065,1.248c1.707,0,2.08-0.574,2.238-0.846c0.057-0.086,0.086-0.129,0.158-0.129
		s0.129,0.058,0.129,0.129c0,0.201-0.76,1.463-2.653,1.463c-1.377,0-2.266-0.789-2.266-1.779c0-0.703,0.487-1.477,1.319-1.951
		c-0.244-0.172-0.588-0.502-0.588-1.033c0-1.061,1.521-2.022,3.127-2.022c0.989,0,1.821,0.545,1.821,0.803
		c0,0.172-0.187,0.359-0.358,0.359c-0.101,0-0.144-0.043-0.229-0.101c-0.603-0.444-1.119-0.444-1.363-0.444
		c-1.276,0-2.682,0.516-2.682,1.405c0,0.316,0.172,0.646,0.617,0.861c0.502-0.215,0.933-0.258,1.291-0.258
		c0.731,0,1.004,0.101,1.004,0.359c0,0.416-0.746,0.416-1.119,0.416c-0.272,0-0.76,0-1.219-0.186
		C95.349,34.734,94.99,35.466,94.99,35.954z M97.5,34.146c0.517,0,0.545,0,0.789-0.115c-0.229-0.058-0.301-0.086-0.703-0.086
		c-0.1,0-0.473,0-0.86,0.129C97.012,34.146,97.242,34.146,97.5,34.146z"/>
</g>
<g>
	<path d="M103.75,36.451c0.04-0.169,0.07-0.279,0.07-0.508c0-0.418-0.18-0.458-0.319-0.458c-0.548,0-1.006,0.608-1.256,1.216
		c-0.08,0.189-0.089,0.199-0.179,0.199c-0.02,0-0.12,0-0.12-0.1c0-0.09,0.568-1.535,1.584-1.535c0.498,0,0.917,0.349,0.917,0.917
		c0,0.03,0,0.169-0.05,0.369l-0.917,3.647c-0.249,0.986-1.176,1.514-1.874,1.514c-0.478,0-0.876-0.219-0.876-0.618
		c0-0.359,0.289-0.568,0.538-0.568c0.269,0,0.378,0.189,0.378,0.349c0,0.199-0.149,0.458-0.448,0.528
		c0.179,0.089,0.329,0.089,0.389,0.089c0.558,0,1.036-0.568,1.226-1.325L103.75,36.451z M104.277,33.97
		c-0.229,0-0.369-0.16-0.369-0.359c0-0.299,0.299-0.528,0.528-0.528c0.239,0,0.378,0.169,0.378,0.359
		C104.815,33.71,104.546,33.97,104.277,33.97z"/>
	<path d="M107.214,38.234c-0.229,0.607-0.289,0.747-0.289,0.996c0,0.229,0.07,0.329,0.239,0.329c0.508,0,0.837-0.608,1.016-1.236
		c0.05-0.149,0.05-0.179,0.149-0.179c0.03,0,0.12,0,0.12,0.1c0,0.09-0.369,1.534-1.305,1.534c-0.479,0-0.817-0.349-0.817-0.817
		c0-0.209,0.13-0.538,0.229-0.797c0.159-0.429,0.608-1.584,0.688-1.843c0.04-0.1,0.109-0.309,0.109-0.519
		c0-0.319-0.169-0.319-0.249-0.319c-0.339,0-0.737,0.299-1.006,1.236c-0.05,0.159-0.06,0.179-0.159,0.179c-0.02,0-0.12,0-0.12-0.1
		c0-0.09,0.378-1.535,1.315-1.535c0.499,0,0.817,0.369,0.817,0.817c0,0.189-0.05,0.329-0.13,0.528c-0.1,0.269-0.1,0.289-0.219,0.578
		L107.214,38.234z M107.832,33.97c-0.239,0-0.379-0.169-0.379-0.359c0-0.269,0.269-0.528,0.538-0.528
		c0.229,0,0.369,0.16,0.369,0.359C108.36,33.74,108.061,33.97,107.832,33.97z"/>
</g>
<g>
	<rect x="94.287" y="43.349" width="15.177" height="0.574"/>
</g>
<g>
	<path d="M98.791,58.942c-0.043,0.187-0.057,0.201-0.057,0.272c0,0.115,0.043,0.215,0.717,0.215c0.215,0,0.33,0,0.33,0.144
		c0,0.272-0.172,0.272-0.258,0.272c-0.215,0-0.459-0.028-0.674-0.028h-1.463c-0.201,0-0.459,0.028-0.66,0.028
		c-0.1,0-0.187-0.043-0.187-0.143c0-0.273,0.144-0.273,0.301-0.273c0.674-0.014,0.89-0.014,1.019-0.444l0.129-0.517
		c0.187-0.731,0.373-1.448,0.545-2.151l-0.014-0.014c-0.301,0.329-0.932,0.903-1.692,0.903c-0.976,0-1.807-0.832-1.807-2.252
		c0-2.123,1.75-4.217,3.371-4.217c0.617,0,1.061,0.387,1.319,1.032c0.272-0.502,0.832-1.019,0.947-1.019
		c0.072,0,0.129,0.058,0.129,0.13L98.791,58.942z M99.465,52.545c0.014-0.028,0.057-0.215,0.057-0.229
		c0-0.114-0.186-1.29-1.133-1.29c-0.56,0-1.234,0.516-1.721,1.52c-0.272,0.603-0.717,2.209-0.717,2.998
		c0,0.847,0.33,1.377,0.918,1.377c0.674,0,1.305-0.616,1.621-1.019c0.201-0.272,0.201-0.301,0.272-0.545L99.465,52.545z"/>
</g>
<g>
	<path d="M103.577,55.996c0.04-0.169,0.07-0.278,0.07-0.508c0-0.418-0.18-0.458-0.319-0.458c-0.548,0-1.006,0.607-1.256,1.215
		c-0.08,0.189-0.089,0.2-0.179,0.2c-0.02,0-0.12,0-0.12-0.1c0-0.09,0.568-1.535,1.584-1.535c0.498,0,0.917,0.349,0.917,0.917
		c0,0.03,0,0.169-0.05,0.368l-0.917,3.647c-0.249,0.986-1.176,1.515-1.874,1.515c-0.478,0-0.876-0.22-0.876-0.618
		c0-0.358,0.289-0.568,0.538-0.568c0.269,0,0.378,0.189,0.378,0.35c0,0.199-0.149,0.458-0.448,0.527
		c0.179,0.09,0.329,0.09,0.389,0.09c0.558,0,1.036-0.567,1.226-1.325L103.577,55.996z M104.104,53.516
		c-0.229,0-0.369-0.159-0.369-0.359c0-0.299,0.299-0.527,0.528-0.527c0.239,0,0.378,0.169,0.378,0.358
		C104.643,53.257,104.374,53.516,104.104,53.516z"/>
	<path d="M107.042,57.78c-0.229,0.607-0.289,0.747-0.289,0.996c0,0.229,0.07,0.329,0.239,0.329c0.508,0,0.837-0.608,1.016-1.235
		c0.05-0.149,0.05-0.18,0.149-0.18c0.03,0,0.12,0,0.12,0.1c0,0.09-0.369,1.534-1.305,1.534c-0.479,0-0.817-0.349-0.817-0.816
		c0-0.21,0.13-0.538,0.229-0.798c0.159-0.428,0.608-1.584,0.688-1.843c0.04-0.1,0.109-0.31,0.109-0.519
		c0-0.318-0.169-0.318-0.249-0.318c-0.339,0-0.737,0.299-1.006,1.235c-0.05,0.159-0.06,0.18-0.159,0.18c-0.02,0-0.12,0-0.12-0.1
		c0-0.09,0.378-1.535,1.315-1.535c0.499,0,0.817,0.369,0.817,0.817c0,0.189-0.05,0.329-0.13,0.528c-0.1,0.269-0.1,0.289-0.219,0.577
		L107.042,57.78z M107.659,53.516c-0.239,0-0.379-0.17-0.379-0.359c0-0.269,0.269-0.527,0.538-0.527
		c0.229,0,0.369,0.159,0.369,0.358C108.187,53.286,107.888,53.516,107.659,53.516z"/>
</g>
<g>
	<path d="M115.511,43.924c-0.201,0-0.473,0-0.473-0.287s0.272-0.287,0.473-0.287h7.817c0.201,0,0.473,0,0.473,0.287
		s-0.272,0.287-0.473,0.287H115.511z"/>
</g>
<g>
	<path d="M129.397,53.675c-0.258,0-0.387,0-0.387-0.158c0-0.014,0-0.086,0.144-0.258l7.43-8.706l-7.587-10.385
		c0-0.158,0-0.43,0.014-0.473c0.043-0.086,0.058-0.101,0.387-0.101h16.954l1.735,4.03h-0.358c-0.488-1.162-1.463-1.807-1.822-2.037
		c-1.133-0.717-2.381-0.961-3.155-1.076c-0.129-0.029-1.435-0.229-3.356-0.229h-7.86l6.684,9.136
		c0.101,0.144,0.101,0.187,0.101,0.216c0,0.071-0.029,0.114-0.129,0.229l-7.3,8.562h8.649c2.754,0,4.159-0.373,4.46-0.444
		c1.649-0.431,3.17-1.406,3.729-2.897h0.358l-1.735,4.59H129.397z"/>
</g>
<g>
	<path d="M137.627,61.822c0.379-0.149,0.768-0.548,1.106-0.927c0.718-0.797,1.176-0.877,1.455-0.877
		c0.448,0,0.677,0.329,0.677,0.628c0,0.389-0.289,0.607-0.548,0.607c-0.269,0-0.378-0.188-0.378-0.349
		c0-0.119,0.089-0.508,0.568-0.538c-0.02-0.02-0.02-0.029-0.04-0.039c-0.08-0.061-0.09-0.061-0.209-0.08
		c-0.02-0.01-0.03-0.01-0.09-0.01c-0.488,0-0.947,0.428-1.425,0.956c-0.229,0.239-0.548,0.559-0.857,0.737
		c0.847,0.109,1.475,0.398,1.475,1.047c0,0.1,0,0.139-0.04,0.309c-0.04,0.159-0.08,0.389-0.08,0.558
		c0,0.359,0.129,0.469,0.319,0.469c0.438,0,0.667-0.509,0.867-1.235c0.03-0.14,0.04-0.18,0.139-0.18c0.03,0,0.12,0,0.12,0.1
		c0,0.02-0.109,0.568-0.359,1.006c-0.219,0.369-0.488,0.528-0.787,0.528c-0.518,0-0.917-0.398-0.917-0.986
		c0-0.109,0.02-0.229,0.04-0.349c0.03-0.1,0.03-0.14,0.03-0.209c0-0.658-0.817-0.817-1.156-0.848
		c-0.06,0.25-0.508,2.093-0.558,2.183c-0.06,0.119-0.209,0.209-0.339,0.209c-0.09,0-0.289-0.05-0.289-0.278
		c0-0.061,0-0.08,0.04-0.22l1.445-5.739l0.03-0.199c0-0.1-0.02-0.169-0.498-0.169c-0.149,0-0.239,0-0.239-0.12
		c0-0.18,0.11-0.189,0.189-0.199c0.259-0.02,0.986-0.1,1.215-0.1c0.13,0,0.13,0.1,0.13,0.109L137.627,61.822z"/>
</g>
<g>
	<path d="M153.205,35.954c0,1.019,1.176,1.248,2.065,1.248c1.707,0,2.08-0.574,2.238-0.846c0.057-0.086,0.086-0.129,0.158-0.129
		s0.129,0.058,0.129,0.129c0,0.201-0.76,1.463-2.653,1.463c-1.377,0-2.266-0.789-2.266-1.779c0-0.703,0.487-1.477,1.319-1.951
		c-0.244-0.172-0.588-0.502-0.588-1.033c0-1.061,1.521-2.022,3.127-2.022c0.989,0,1.821,0.545,1.821,0.803
		c0,0.172-0.187,0.359-0.358,0.359c-0.101,0-0.144-0.043-0.229-0.101c-0.603-0.444-1.119-0.444-1.363-0.444
		c-1.276,0-2.682,0.516-2.682,1.405c0,0.316,0.172,0.646,0.617,0.861c0.502-0.215,0.933-0.258,1.291-0.258
		c0.731,0,1.004,0.101,1.004,0.359c0,0.416-0.746,0.416-1.119,0.416c-0.272,0-0.76,0-1.219-0.186
		C153.563,34.734,153.205,35.466,153.205,35.954z M155.715,34.146c0.517,0,0.545,0,0.789-0.115
		c-0.229-0.058-0.301-0.086-0.703-0.086c-0.1,0-0.473,0-0.86,0.129C155.227,34.146,155.457,34.146,155.715,34.146z"/>
</g>
<g>
	<path d="M160.76,38.234c-0.229,0.607-0.289,0.747-0.289,0.996c0,0.229,0.07,0.329,0.239,0.329c0.508,0,0.837-0.608,1.016-1.236
		c0.05-0.149,0.05-0.179,0.149-0.179c0.03,0,0.12,0,0.12,0.1c0,0.09-0.369,1.534-1.305,1.534c-0.479,0-0.817-0.349-0.817-0.817
		c0-0.209,0.13-0.538,0.229-0.797c0.159-0.429,0.608-1.584,0.688-1.843c0.04-0.1,0.109-0.309,0.109-0.519
		c0-0.319-0.169-0.319-0.249-0.319c-0.339,0-0.737,0.299-1.006,1.236c-0.05,0.159-0.06,0.179-0.159,0.179c-0.02,0-0.12,0-0.12-0.1
		c0-0.09,0.378-1.535,1.315-1.535c0.499,0,0.817,0.369,0.817,0.817c0,0.189-0.05,0.329-0.13,0.528c-0.1,0.269-0.1,0.289-0.219,0.578
		L160.76,38.234z M161.378,33.97c-0.239,0-0.379-0.169-0.379-0.359c0-0.269,0.269-0.528,0.538-0.528c0.229,0,0.369,0.16,0.369,0.359
		C161.906,33.74,161.607,33.97,161.378,33.97z"/>
	<path d="M164.332,37.068c0.379-0.149,0.768-0.548,1.106-0.927c0.718-0.797,1.176-0.877,1.455-0.877
		c0.448,0,0.677,0.329,0.677,0.628c0,0.389-0.289,0.608-0.548,0.608c-0.269,0-0.378-0.189-0.378-0.349
		c0-0.12,0.089-0.508,0.568-0.538c-0.02-0.02-0.02-0.03-0.04-0.04c-0.08-0.06-0.09-0.06-0.209-0.08c-0.02-0.01-0.03-0.01-0.09-0.01
		c-0.488,0-0.947,0.429-1.425,0.957c-0.229,0.239-0.548,0.558-0.857,0.737c0.847,0.11,1.475,0.399,1.475,1.046
		c0,0.1,0,0.14-0.04,0.309c-0.04,0.159-0.08,0.389-0.08,0.558c0,0.359,0.129,0.469,0.319,0.469c0.438,0,0.667-0.508,0.867-1.236
		c0.03-0.14,0.04-0.179,0.139-0.179c0.03,0,0.12,0,0.12,0.1c0,0.02-0.109,0.568-0.359,1.006c-0.219,0.369-0.488,0.528-0.787,0.528
		c-0.518,0-0.917-0.398-0.917-0.986c0-0.109,0.02-0.229,0.04-0.349c0.03-0.1,0.03-0.14,0.03-0.209c0-0.658-0.817-0.817-1.156-0.847
		c-0.06,0.249-0.508,2.092-0.558,2.182c-0.06,0.12-0.209,0.209-0.339,0.209c-0.09,0-0.289-0.05-0.289-0.279
		c0-0.06,0-0.08,0.04-0.219l1.445-5.739l0.03-0.199c0-0.1-0.02-0.169-0.498-0.169c-0.149,0-0.239,0-0.239-0.12
		c0-0.179,0.11-0.189,0.189-0.199c0.259-0.02,0.986-0.1,1.215-0.1c0.13,0,0.13,0.1,0.13,0.11L164.332,37.068z"/>
</g>
<g>
	<rect x="152.502" y="43.349" width="16.004" height="0.574"/>
</g>
<g>
	<path d="M157.006,58.942c-0.043,0.187-0.057,0.201-0.057,0.272c0,0.115,0.043,0.215,0.717,0.215c0.215,0,0.33,0,0.33,0.144
		c0,0.272-0.172,0.272-0.258,0.272c-0.215,0-0.459-0.028-0.674-0.028h-1.463c-0.201,0-0.459,0.028-0.66,0.028
		c-0.1,0-0.187-0.043-0.187-0.143c0-0.273,0.144-0.273,0.301-0.273c0.674-0.014,0.89-0.014,1.019-0.444l0.129-0.517
		c0.187-0.731,0.373-1.448,0.545-2.151l-0.014-0.014c-0.301,0.329-0.932,0.903-1.692,0.903c-0.976,0-1.807-0.832-1.807-2.252
		c0-2.123,1.75-4.217,3.371-4.217c0.617,0,1.061,0.387,1.319,1.032c0.272-0.502,0.832-1.019,0.947-1.019
		c0.072,0,0.129,0.058,0.129,0.13L157.006,58.942z M157.681,52.545c0.014-0.028,0.057-0.215,0.057-0.229
		c0-0.114-0.186-1.29-1.133-1.29c-0.56,0-1.234,0.516-1.721,1.52c-0.272,0.603-0.717,2.209-0.717,2.998
		c0,0.847,0.33,1.377,0.918,1.377c0.674,0,1.305-0.616,1.621-1.019c0.201-0.272,0.201-0.301,0.272-0.545L157.681,52.545z"/>
</g>
<g>
	<path d="M160.587,57.78c-0.229,0.607-0.289,0.747-0.289,0.996c0,0.229,0.07,0.329,0.239,0.329c0.508,0,0.837-0.608,1.016-1.235
		c0.05-0.149,0.05-0.18,0.149-0.18c0.03,0,0.12,0,0.12,0.1c0,0.09-0.369,1.534-1.305,1.534c-0.479,0-0.817-0.349-0.817-0.816
		c0-0.21,0.129-0.538,0.229-0.798c0.159-0.428,0.608-1.584,0.688-1.843c0.04-0.1,0.109-0.31,0.109-0.519
		c0-0.318-0.169-0.318-0.249-0.318c-0.339,0-0.737,0.299-1.006,1.235c-0.05,0.159-0.06,0.18-0.159,0.18c-0.02,0-0.12,0-0.12-0.1
		c0-0.09,0.378-1.535,1.315-1.535c0.499,0,0.817,0.369,0.817,0.817c0,0.189-0.05,0.329-0.13,0.528c-0.1,0.269-0.1,0.289-0.219,0.577
		L160.587,57.78z M161.205,53.516c-0.239,0-0.379-0.17-0.379-0.359c0-0.269,0.269-0.527,0.538-0.527
		c0.229,0,0.369,0.159,0.369,0.358C161.732,53.286,161.434,53.516,161.205,53.516z"/>
	<path d="M164.158,56.614c0.379-0.149,0.768-0.548,1.106-0.927c0.718-0.797,1.176-0.877,1.455-0.877
		c0.448,0,0.677,0.329,0.677,0.628c0,0.389-0.289,0.607-0.548,0.607c-0.269,0-0.378-0.188-0.378-0.349
		c0-0.119,0.089-0.508,0.568-0.538c-0.02-0.02-0.02-0.029-0.04-0.039c-0.08-0.061-0.09-0.061-0.209-0.08
		c-0.02-0.01-0.03-0.01-0.09-0.01c-0.488,0-0.947,0.428-1.425,0.956c-0.229,0.239-0.548,0.559-0.857,0.737
		c0.847,0.109,1.475,0.398,1.475,1.047c0,0.1,0,0.139-0.04,0.309c-0.04,0.159-0.08,0.389-0.08,0.558
		c0,0.359,0.129,0.469,0.319,0.469c0.438,0,0.667-0.509,0.867-1.235c0.03-0.14,0.04-0.18,0.14-0.18c0.03,0,0.12,0,0.12,0.1
		c0,0.02-0.109,0.568-0.359,1.006c-0.219,0.369-0.488,0.528-0.787,0.528c-0.518,0-0.917-0.398-0.917-0.986
		c0-0.109,0.02-0.229,0.04-0.349c0.03-0.1,0.03-0.14,0.03-0.209c0-0.658-0.817-0.817-1.156-0.848
		c-0.06,0.25-0.508,2.093-0.558,2.183c-0.06,0.119-0.209,0.209-0.339,0.209c-0.09,0-0.289-0.05-0.289-0.278
		c0-0.061,0-0.08,0.04-0.22l1.445-5.739l0.03-0.199c0-0.1-0.02-0.169-0.498-0.169c-0.149,0-0.239,0-0.239-0.12
		c0-0.18,0.109-0.189,0.189-0.199c0.259-0.02,0.986-0.1,1.215-0.1c0.13,0,0.13,0.1,0.13,0.109L164.158,56.614z"/>
</g>
</svg>
