<?xml version="1.0" encoding="iso-8859-1"?>
<!-- Generator: Adobe Illustrator 16.0.0, SVG Export Plug-In . SVG Version: 6.00 Build 0)  -->
<!DOCTYPE svg PUBLIC "-//W3C//DTD SVG 1.1//EN" "http://www.w3.org/Graphics/SVG/1.1/DTD/svg11.dtd">
<svg version="1.1" id="Layer_1" xmlns="http://www.w3.org/2000/svg" xmlns:xlink="http://www.w3.org/1999/xlink" x="0px" y="0px"
	 width="566.929px" height="85.039px" viewBox="0 0 566.929 85.039" style="enable-background:new 0 0 566.929 85.039;"
	 xml:space="preserve">
<g>
	<path d="M28.249,51.578c-0.028,0.101-0.057,0.215-0.057,0.287c0,0.215,0.029,0.315,1.162,0.315c0.315,0,0.402,0,0.402,0.158
		c0,0.258-0.172,0.258-0.301,0.258c-0.315,0-0.66-0.028-0.976-0.028h-1.864c-0.272,0-0.56,0.028-0.832,0.028
		c-0.086,0-0.215,0-0.215-0.158c0-0.258,0.144-0.258,0.416-0.258c1.004,0,1.033-0.144,1.162-0.646l1.937-7.745
		c0.043-0.158,0.058-0.215,0.058-0.287c0-0.157,0-0.258-0.89-0.258c-0.244,0-0.344,0-0.344-0.158c0-0.258,0.144-0.258,0.416-0.258
		h6.799c0.258,0,0.387,0,0.387,0.158c0,0.029-0.029,0.172-0.029,0.215l-0.301,2.51c-0.028,0.258-0.086,0.315-0.186,0.315
		c-0.086,0-0.158-0.043-0.158-0.157c0-0.058,0.028-0.244,0.043-0.302c0.043-0.373,0.043-0.688,0.043-0.774
		c0-1.019-0.258-1.549-2.051-1.549h-1.922c-0.588,0-0.617,0.043-0.746,0.545l-0.932,3.715h1.305c1.248,0,1.535-0.302,1.836-1.377
		c0.058-0.244,0.072-0.302,0.201-0.302c0.101,0,0.144,0.087,0.144,0.144l-0.832,3.343c-0.057,0.229-0.071,0.286-0.187,0.286
		c-0.1,0-0.158-0.057-0.158-0.157c0-0.029,0.015-0.101,0.043-0.158c0.071-0.315,0.1-0.517,0.1-0.703
		c0-0.415-0.086-0.659-1.176-0.659h-1.377L28.249,51.578z"/>
</g>
<g>
	<path d="M41.169,47.949c-0.215,0-0.459,0-0.459-0.272c0-0.258,0.258-0.258,0.459-0.258h8.448c0.215,0,0.459,0,0.459,0.272
		c0,0.258-0.258,0.258-0.459,0.258H41.169z M41.169,50.617c-0.215,0-0.459,0-0.459-0.272c0-0.258,0.258-0.258,0.459-0.258h8.448
		c0.215,0,0.459,0,0.459,0.272c0,0.258-0.258,0.258-0.459,0.258H41.169z"/>
</g>
<g>
	<path d="M60.542,47.189c0.344,0.473,0.473,1.019,0.473,1.577c0,2.152-1.85,3.974-3.542,3.974c-1.291,0-2.08-1.019-2.08-2.237
		c0-1.692,1.549-4.088,3.701-4.088h3.17c0.258,0,0.531,0,0.531,0.315c0,0.459-0.474,0.459-0.66,0.459H60.542z M59.423,51.134
		c0.502-0.832,0.731-2.037,0.731-2.539c0-1.104-0.688-1.405-1.305-1.405c-2.109,0-2.625,2.854-2.625,3.715
		c0,0.989,0.531,1.549,1.262,1.549C58.132,52.453,58.906,51.979,59.423,51.134z"/>
</g>
<g>
	<path d="M65.76,48.62c0.03-0.119,0.04-0.149,0.04-0.189c0-0.129-0.09-0.14-0.269-0.159c-0.169-0.02-0.359-0.02-0.378-0.02
		c-0.189,0-0.279,0-0.279-0.11c0-0.199,0.1-0.199,0.289-0.199h3.348c1.195,0,1.853,0.638,1.853,1.375
		c0,0.947-1.046,1.685-2.083,1.873c0.967,0.11,1.544,0.688,1.544,1.405c0,0.977-1.176,2.152-2.75,2.152h-3.557
		c-0.179,0-0.269,0-0.269-0.109c0-0.199,0.1-0.199,0.269-0.199c0.787,0,0.807-0.08,0.907-0.469L65.76,48.62z M66.836,54.439
		c1.176,0,2.062-0.967,2.062-1.953c0-0.429-0.189-1.166-1.146-1.166H65.87l-0.688,2.78c-0.05,0.179-0.05,0.199-0.05,0.229
		c0,0.08,0.03,0.09,0.129,0.101c0.06,0.01,0.08,0.01,0.219,0.01H66.836z M67.385,51.102c1.215,0,2.072-0.947,2.072-1.824
		c0-0.438-0.209-1.025-1.086-1.025h-1.286c-0.428,0-0.448,0.029-0.538,0.378l-0.618,2.472H67.385z"/>
</g>
<g>
	<path d="M75.444,51.492c-0.057,0.229-0.057,0.33-0.057,0.345c0,0.215,0,0.344,1.291,0.344c0.373,0,0.474,0,0.474,0.144
		c0,0.272-0.144,0.272-0.301,0.272c-0.358,0-0.746-0.028-1.104-0.028h-2.237c-0.359,0-0.732,0.028-1.09,0.028
		c-0.072,0-0.229,0-0.229-0.144c0-0.272,0.101-0.272,0.459-0.272c1.521,0,1.549-0.144,1.692-0.703l1.922-7.702
		c0.071-0.258,0.071-0.287,0.071-0.33c0-0.157-0.143-0.157-0.487-0.157h-0.961c-1.908,0-2.209,0.803-2.812,2.538
		c-0.058,0.187-0.086,0.244-0.201,0.244c-0.086,0-0.144-0.071-0.144-0.144c0-0.014,0.043-0.172,0.057-0.2l0.875-2.582
		c0.086-0.258,0.101-0.272,0.431-0.272h7.846c0.287,0,0.373,0,0.373,0.158c0,0.042,0,0.072-0.029,0.201l-0.416,2.539
		c-0.043,0.229-0.043,0.301-0.187,0.301c-0.086,0-0.144-0.086-0.144-0.144l0.015-0.172c0.086-0.53,0.143-1.075,0.143-1.291
		c0-1.118-0.674-1.176-2.108-1.176c-0.301,0-0.774,0-0.889,0.028c-0.215,0.058-0.244,0.187-0.33,0.531L75.444,51.492z"/>
</g>
<g>
	<path d="M81.849,44.72l3.059-4.673c0.08-0.12,0.11-0.12,0.199-0.12c0.16,0,0.16,0.06,0.16,0.259v4.533h0.996v0.309h-0.996v0.867
		c0,0.358,0.02,0.469,0.757,0.469h0.209v0.309c-0.409-0.03-0.937-0.03-1.355-0.03s-0.937,0-1.345,0.03v-0.309h0.209
		c0.737,0,0.757-0.11,0.757-0.469v-0.867h-2.65V44.72z M84.559,41.003l-2.431,3.716h2.431V41.003z"/>
</g>
</svg>
