<?xml version="1.0" encoding="iso-8859-1"?>
<!-- Generator: Adobe Illustrator 16.0.0, SVG Export Plug-In . SVG Version: 6.00 Build 0)  -->
<!DOCTYPE svg PUBLIC "-//W3C//DTD SVG 1.1//EN" "http://www.w3.org/Graphics/SVG/1.1/DTD/svg11.dtd">
<svg version="1.1" id="Layer_1" xmlns="http://www.w3.org/2000/svg" xmlns:xlink="http://www.w3.org/1999/xlink" x="0px" y="0px"
	 width="566.929px" height="85.039px" viewBox="0 0 566.929 85.039" style="enable-background:new 0 0 566.929 85.039;"
	 xml:space="preserve">
<g>
	<path d="M28.583,41.689c-0.101,0.43-0.215,0.86-0.315,1.291c-0.072,0.287-0.201,0.789-0.229,0.86
		c-0.115,0.216-0.316,0.302-0.488,0.302c-0.215,0-0.373-0.158-0.373-0.358c0-0.072,0.158-0.746,0.258-1.119
		c0.072-0.258,0.229-0.903,0.287-1.176c0.129-0.516,0.272-1.033,0.402-1.549c0.1-0.445,0.244-1.004,0.244-1.32
		c0-0.43-0.115-0.66-0.444-0.66c-0.574,0-0.832,0.818-1.062,1.692c-0.086,0.33-0.101,0.344-0.215,0.344
		c-0.1,0-0.158-0.071-0.158-0.129s0.201-0.918,0.459-1.435c0.244-0.487,0.56-0.76,1.019-0.76c0.631,0,1.219,0.444,1.262,1.262
		c0.258-0.359,0.932-1.262,2.208-1.262c1.09,0,1.592,0.646,1.592,1.506c0,0.817-0.603,2.424-0.889,3.213
		c-0.086,0.201-0.244,0.631-0.244,0.989c0,0.459,0.229,0.474,0.373,0.474c0.56,0,1.104-0.573,1.435-1.75
		c0.072-0.244,0.086-0.287,0.215-0.287c0.086,0,0.144,0.057,0.144,0.129c0,0.086-0.502,2.195-1.836,2.195
		c-0.688,0-1.133-0.517-1.133-1.162c0-0.258,0.071-0.444,0.201-0.789c0.287-0.775,0.875-2.41,0.875-3.228
		c0-0.574-0.201-1.004-0.775-1.004c-0.559,0-1.047,0.229-1.42,0.574c-0.531,0.459-0.889,1.176-0.918,1.262L28.583,41.689z"/>
</g>
<g>
	<path d="M38.562,39.29c0,0.14,0,0.329-0.199,0.329s-0.199-0.189-0.199-0.329V36.5h-2.79c-0.14,0-0.329,0-0.329-0.2
		c0-0.199,0.189-0.199,0.329-0.199h2.79v-2.79c0-0.14,0-0.329,0.199-0.329s0.199,0.189,0.199,0.329v2.79h2.78
		c0.14,0,0.329,0,0.329,0.199c0,0.2-0.189,0.2-0.329,0.2h-2.78V39.29z"/>
</g>
<g>
	<rect x="26.102" y="49.829" width="16.632" height="0.574"/>
</g>
<g>
	<path d="M29.967,61.234c-0.101,0.431-0.215,0.861-0.315,1.291c-0.072,0.287-0.201,0.789-0.229,0.86
		c-0.115,0.216-0.316,0.302-0.488,0.302c-0.215,0-0.373-0.158-0.373-0.358c0-0.072,0.158-0.746,0.258-1.119
		c0.072-0.258,0.229-0.903,0.287-1.176c0.129-0.517,0.272-1.033,0.402-1.55c0.1-0.444,0.244-1.004,0.244-1.319
		c0-0.43-0.115-0.659-0.444-0.659c-0.574,0-0.832,0.817-1.062,1.692c-0.086,0.329-0.101,0.344-0.215,0.344
		c-0.1,0-0.158-0.071-0.158-0.129s0.201-0.918,0.459-1.435c0.244-0.487,0.56-0.76,1.019-0.76c0.631,0,1.219,0.444,1.262,1.262
		c0.258-0.358,0.932-1.262,2.208-1.262c1.09,0,1.592,0.646,1.592,1.506c0,0.817-0.603,2.424-0.889,3.213
		c-0.086,0.201-0.244,0.631-0.244,0.989c0,0.459,0.229,0.474,0.373,0.474c0.56,0,1.104-0.573,1.435-1.75
		c0.072-0.243,0.086-0.287,0.215-0.287c0.086,0,0.144,0.058,0.144,0.13c0,0.086-0.502,2.194-1.836,2.194
		c-0.688,0-1.133-0.517-1.133-1.162c0-0.258,0.071-0.444,0.201-0.789c0.287-0.774,0.875-2.409,0.875-3.227
		c0-0.574-0.201-1.004-0.775-1.004c-0.559,0-1.047,0.229-1.42,0.573c-0.531,0.459-0.889,1.176-0.918,1.263L29.967,61.234z"/>
</g>
<g>
	<path d="M40.086,58.463c-0.438,0.946-1.196,1.155-1.734,1.155c-0.488,0-1.215-0.199-1.644-1.006
		c-0.409-0.757-0.448-1.654-0.448-2.401c0-0.797,0.05-1.574,0.369-2.262c0.409-0.927,1.136-1.186,1.734-1.186
		c0.418,0,1.235,0.159,1.694,1.115c0.349,0.738,0.398,1.535,0.398,2.332C40.455,56.998,40.405,57.775,40.086,58.463z M39.518,58.154
		c0.109-0.638,0.109-1.315,0.109-2.062c0-0.628,0-1.386-0.1-1.943c-0.189-0.986-0.847-1.166-1.176-1.166
		c-0.249,0-0.996,0.09-1.186,1.275c-0.08,0.538-0.08,1.196-0.08,1.834c0,0.588,0,1.504,0.109,2.102
		c0.179,0.957,0.767,1.206,1.156,1.206C38.8,59.399,39.369,59.101,39.518,58.154z"/>
</g>
<g>
	<path d="M46.412,51.394c-0.101,0.431-0.215,0.861-0.315,1.291c-0.072,0.287-0.201,0.789-0.229,0.86
		c-0.115,0.216-0.316,0.302-0.488,0.302c-0.215,0-0.373-0.158-0.373-0.358c0-0.072,0.158-0.746,0.258-1.119
		c0.072-0.258,0.229-0.903,0.287-1.176c0.129-0.517,0.272-1.033,0.402-1.55c0.1-0.444,0.244-1.004,0.244-1.319
		c0-0.43-0.115-0.659-0.444-0.659c-0.574,0-0.832,0.817-1.062,1.692c-0.086,0.33-0.101,0.344-0.215,0.344
		c-0.1,0-0.158-0.071-0.158-0.129s0.201-0.918,0.459-1.435c0.244-0.487,0.56-0.76,1.019-0.76c0.631,0,1.219,0.444,1.262,1.262
		c0.258-0.358,0.932-1.262,2.208-1.262c1.09,0,1.592,0.646,1.592,1.506c0,0.817-0.603,2.424-0.889,3.213
		c-0.086,0.201-0.244,0.631-0.244,0.989c0,0.459,0.229,0.474,0.373,0.474c0.56,0,1.104-0.573,1.435-1.75
		c0.072-0.243,0.086-0.286,0.215-0.286c0.086,0,0.144,0.057,0.144,0.129c0,0.086-0.502,2.194-1.836,2.194
		c-0.688,0-1.133-0.517-1.133-1.162c0-0.258,0.071-0.444,0.201-0.789c0.287-0.774,0.875-2.409,0.875-3.227
		c0-0.574-0.201-1.004-0.775-1.004c-0.559,0-1.047,0.229-1.42,0.573c-0.531,0.459-0.889,1.176-0.918,1.263L46.412,51.394z"/>
</g>
<g>
	<path d="M53.65,53.554c-0.149,0.607-0.159,0.917-0.159,1.036c0,0.319,0.09,1.156,0.867,1.156c0.12,0,1.206,0,1.993-0.986
		c0.06-0.08,0.08-0.1,0.129-0.1c0.06,0,0.12,0.069,0.12,0.129c0,0.12-0.837,1.176-2.262,1.176c-0.976,0-1.564-0.787-1.564-1.804
		c0-1.743,1.504-2.71,2.61-2.71c0.688,0,1.066,0.409,1.066,0.847c0,0.14-0.05,0.728-0.748,1.026
		c-0.498,0.21-1.235,0.229-1.524,0.229H53.65z M54.119,53.335c0.408,0,2.002,0,2.002-1.037c0-0.338-0.269-0.627-0.737-0.627
		c-0.259,0-1.285,0.149-1.674,1.664H54.119z"/>
</g>
<g>
	<path d="M62.67,49.056c-0.215,0-0.459,0-0.459-0.272c0-0.258,0.258-0.258,0.459-0.258h8.448c0.215,0,0.459,0,0.459,0.272
		c0,0.258-0.258,0.258-0.459,0.258H62.67z M62.67,51.724c-0.215,0-0.459,0-0.459-0.272c0-0.258,0.258-0.258,0.459-0.258h8.448
		c0.215,0,0.459,0,0.459,0.272c0,0.258-0.258,0.258-0.459,0.258H62.67z"/>
</g>
<g>
	<path d="M84.643,45.519c0.631,0,1.377-0.517,1.692-1.42c0.043-0.158,0.072-0.229,0.158-0.229c0.072,0,0.129,0.058,0.129,0.144
		s-0.631,2.768-2.338,2.768c-1.147,0-1.147-1.075-1.147-1.491c0-0.272,0-0.345,0.086-1.205c-0.459,0.144-0.932,0.215-1.42,0.215
		c-2.08,0-3.571-1.534-3.571-3.786c0-3.313,3.098-6.612,6.167-6.612c2.008,0,3.557,1.449,3.557,3.815
		c0,2.596-1.836,5.207-4.303,6.196C83.725,45.017,83.911,45.519,84.643,45.519z M80.957,43.367c0-0.703,0.66-1.478,1.435-1.478
		c0.947,0,1.147,0.86,1.219,1.592c2.696-1.578,3.198-5.135,3.198-6.196c0-1.864-1.004-3.069-2.496-3.069
		c-1.119,0-2.539,0.731-3.6,2.367c-0.947,1.449-1.32,3.356-1.32,4.36c0,1.32,0.545,2.51,1.678,2.897
		C81.014,43.74,80.957,43.524,80.957,43.367z M83.266,43.381c0-0.717-0.158-1.205-0.875-1.205c-0.646,0-1.147,0.66-1.147,1.176
		c0,0.631,0.502,0.631,0.646,0.631c0.401,0,0.846-0.086,1.362-0.315C83.266,43.582,83.266,43.468,83.266,43.381z"/>
</g>
<g>
	<path d="M92.743,39.29c0,0.14,0,0.329-0.199,0.329s-0.199-0.189-0.199-0.329V36.5h-2.79c-0.14,0-0.329,0-0.329-0.2
		c0-0.199,0.189-0.199,0.329-0.199h2.79v-2.79c0-0.14,0-0.329,0.199-0.329s0.199,0.189,0.199,0.329v2.79h2.78
		c0.139,0,0.329,0,0.329,0.199c0,0.2-0.189,0.2-0.329,0.2h-2.78V39.29z"/>
</g>
<g>
	<rect x="77.543" y="49.829" width="19.372" height="0.574"/>
</g>
<g>
	<path d="M86.027,65.064c0.631,0,1.377-0.517,1.692-1.42c0.043-0.158,0.072-0.229,0.158-0.229c0.072,0,0.129,0.058,0.129,0.144
		s-0.631,2.768-2.338,2.768c-1.147,0-1.147-1.075-1.147-1.491c0-0.272,0-0.345,0.086-1.205c-0.459,0.144-0.932,0.215-1.42,0.215
		c-2.08,0-3.571-1.534-3.571-3.786c0-3.313,3.098-6.612,6.167-6.612c2.008,0,3.557,1.448,3.557,3.815
		c0,2.596-1.836,5.206-4.303,6.196C85.109,64.562,85.295,65.064,86.027,65.064z M82.34,62.913c0-0.703,0.66-1.478,1.435-1.478
		c0.947,0,1.147,0.86,1.219,1.592c2.696-1.577,3.198-5.135,3.198-6.196c0-1.864-1.004-3.069-2.496-3.069
		c-1.119,0-2.539,0.731-3.6,2.367c-0.947,1.448-1.32,3.355-1.32,4.36c0,1.319,0.545,2.51,1.678,2.896
		C82.398,63.286,82.34,63.07,82.34,62.913z M84.65,62.927c0-0.717-0.158-1.204-0.875-1.204c-0.646,0-1.147,0.659-1.147,1.176
		c0,0.631,0.502,0.631,0.646,0.631c0.401,0,0.846-0.086,1.362-0.315C84.65,63.128,84.65,63.014,84.65,62.927z"/>
</g>
<g>
	<path d="M94.267,58.463c-0.438,0.946-1.196,1.155-1.734,1.155c-0.488,0-1.215-0.199-1.644-1.006
		c-0.409-0.757-0.448-1.654-0.448-2.401c0-0.797,0.05-1.574,0.369-2.262c0.409-0.927,1.136-1.186,1.734-1.186
		c0.418,0,1.235,0.159,1.694,1.115c0.349,0.738,0.398,1.535,0.398,2.332C94.635,56.998,94.585,57.775,94.267,58.463z M93.699,58.154
		c0.109-0.638,0.109-1.315,0.109-2.062c0-0.628,0-1.386-0.1-1.943c-0.189-0.986-0.847-1.166-1.176-1.166
		c-0.249,0-0.996,0.09-1.186,1.275c-0.08,0.538-0.08,1.196-0.08,1.834c0,0.588,0,1.504,0.109,2.102
		c0.179,0.957,0.767,1.206,1.156,1.206C92.981,59.399,93.549,59.101,93.699,58.154z"/>
</g>
<g>
	<path d="M104.049,53.703h-5.235v-0.344l2.897-3.242c0.817-0.918,1.521-1.979,1.521-3.198c0-1.319-0.746-2.338-1.965-2.338
		c-0.933,0-1.707,0.659-1.979,1.635c0.043-0.015,0.072-0.015,0.201-0.015c0.402,0,0.674,0.273,0.674,0.675
		c0,0.459-0.373,0.674-0.674,0.674c-0.043,0-0.674,0-0.674-0.731c0-1.233,0.976-2.653,2.639-2.653c1.664,0,2.969,1.104,2.969,2.754
		c0,1.42-0.803,2.166-2.983,4.174c-0.373,0.344-1.248,1.262-1.635,1.592h2.654c0.43,0,1.248,0,1.348-0.129
		c0.144-0.229,0.258-1.019,0.301-1.263h0.315L104.049,53.703z"/>
</g>
<g>
	<path d="M110.862,47.599c-0.158,0-1.333-0.933-2.18-2.654c-0.746-1.534-0.947-3.241-0.947-4.518c0-1.765,0.33-3.299,1.061-4.748
		c0.703-1.405,1.879-2.438,2.065-2.438c0.058,0,0.129,0.029,0.129,0.115c0,0.043,0,0.072-0.144,0.201
		c-1.664,1.692-2.338,4.088-2.338,6.871c0,2.926,0.803,5.292,2.238,6.741c0.244,0.244,0.244,0.272,0.244,0.315
		C110.992,47.569,110.92,47.599,110.862,47.599z"/>
	<path d="M117.73,43.998h-5.235v-0.344l2.897-3.242c0.817-0.918,1.521-1.979,1.521-3.198c0-1.32-0.746-2.338-1.965-2.338
		c-0.933,0-1.707,0.66-1.979,1.635c0.043-0.014,0.072-0.014,0.201-0.014c0.402,0,0.674,0.272,0.674,0.674
		c0,0.459-0.373,0.674-0.674,0.674c-0.043,0-0.674,0-0.674-0.731c0-1.233,0.976-2.653,2.639-2.653c1.664,0,2.969,1.104,2.969,2.754
		c0,1.42-0.803,2.166-2.983,4.174c-0.373,0.344-1.248,1.262-1.635,1.592h2.654c0.43,0,1.248,0,1.348-0.129
		c0.144-0.229,0.258-1.019,0.301-1.262h0.315L117.73,43.998z"/>
</g>
<g>
	<path d="M121.699,41.832c-0.143,0.574-0.143,0.603-0.373,1.334c-0.172,0.603-0.287,0.976-0.703,0.976
		c-0.129,0-0.387-0.072-0.387-0.373c0-0.086,0-0.114,0.115-0.345c1.176-2.51,1.535-3.757,1.851-4.833h-0.818
		c-0.358,0-1.104,0-1.85,1.176c-0.072,0.086-0.086,0.129-0.187,0.129c-0.086,0-0.158-0.029-0.158-0.115s0.459-0.846,0.832-1.262
		c0.66-0.703,1.147-0.703,1.478-0.703h4.719c0.258,0,0.531,0,0.531,0.316c0,0.459-0.473,0.459-0.66,0.459h-1.606
		c-0.301,1.291-0.301,2.309-0.301,2.395c0,0.101,0,1.334,0.387,2.324c0.101,0.215,0.101,0.244,0.101,0.315
		c0,0.244-0.258,0.517-0.56,0.517c-0.588,0-0.588-1.549-0.588-1.75c0-1.147,0.244-2.194,0.631-3.801h-1.621L121.699,41.832z"/>
	<path d="M129.782,41.689c-0.101,0.43-0.215,0.86-0.315,1.291c-0.072,0.287-0.201,0.789-0.229,0.86
		c-0.115,0.216-0.316,0.302-0.488,0.302c-0.215,0-0.373-0.158-0.373-0.358c0-0.072,0.158-0.746,0.258-1.119
		c0.072-0.258,0.229-0.903,0.287-1.176c0.129-0.516,0.272-1.033,0.402-1.549c0.1-0.445,0.244-1.004,0.244-1.32
		c0-0.43-0.115-0.66-0.444-0.66c-0.574,0-0.847,0.846-1.062,1.692c-0.086,0.33-0.101,0.344-0.215,0.344
		c-0.1,0-0.158-0.071-0.158-0.129s0.201-0.932,0.459-1.449c0.272-0.545,0.603-0.746,1.019-0.746c0.631,0,1.219,0.444,1.262,1.262
		c0.258-0.359,0.932-1.262,2.208-1.262c1.076,0,1.549,0.617,1.592,1.391c0.574-0.846,1.348-1.391,2.309-1.391
		c1.09,0,1.592,0.646,1.592,1.506c0,0.832-0.646,2.524-0.904,3.213c-0.057,0.158-0.229,0.617-0.229,0.989
		c0,0.459,0.229,0.474,0.373,0.474c0.574,0,1.104-0.603,1.435-1.75c0.072-0.244,0.086-0.287,0.215-0.287
		c0.086,0,0.144,0.057,0.144,0.129c0,0.086-0.502,2.195-1.836,2.195c-0.688,0-1.133-0.517-1.133-1.162
		c0-0.258,0.071-0.444,0.201-0.789c0.315-0.861,0.875-2.424,0.875-3.228c0-0.574-0.201-1.004-0.775-1.004
		c-1.578,0-2.323,1.793-2.352,1.908c-0.215,0.875-0.588,2.353-0.861,3.428c-0.129,0.517-0.201,0.847-0.631,0.847
		c-0.215,0-0.373-0.158-0.373-0.358c0-0.058,0.086-0.431,0.144-0.646c0.029-0.158,0.301-1.219,0.416-1.65
		c0.172-0.688,0.172-0.731,0.358-1.477c0.172-0.674,0.172-0.961,0.172-1.047c0-0.574-0.201-1.004-0.775-1.004
		c-0.559,0-1.047,0.229-1.42,0.574c-0.531,0.459-0.889,1.176-0.918,1.262L129.782,41.689z"/>
</g>
<g>
	<path d="M140.921,43.849c-0.149,0.607-0.159,0.917-0.159,1.036c0,0.319,0.09,1.156,0.867,1.156c0.12,0,1.206,0,1.993-0.986
		c0.06-0.08,0.08-0.1,0.129-0.1c0.06,0,0.12,0.069,0.12,0.129c0,0.12-0.837,1.176-2.262,1.176c-0.976,0-1.564-0.787-1.564-1.804
		c0-1.743,1.504-2.71,2.61-2.71c0.688,0,1.066,0.409,1.066,0.847c0,0.14-0.05,0.727-0.748,1.026
		c-0.498,0.21-1.235,0.229-1.524,0.229H140.921z M141.39,43.63c0.408,0,2.002,0,2.002-1.037c0-0.339-0.269-0.628-0.737-0.628
		c-0.259,0-1.285,0.149-1.674,1.665H141.39z"/>
</g>
<g>
	<path d="M147.276,40.297c0.531-0.201,1.062-0.746,1.205-0.918c1.019-1.147,1.664-1.707,2.453-1.707c0.646,0,0.976,0.43,0.976,0.846
		c0,0.459-0.344,0.789-0.731,0.789c-0.201,0-0.474-0.115-0.474-0.459c0-0.287,0.201-0.66,0.731-0.717
		c-0.1-0.086-0.186-0.172-0.516-0.172c-0.66,0-1.219,0.459-2.037,1.377c-0.201,0.215-0.717,0.774-1.233,1.09
		c1.319,0.172,2.08,0.646,2.08,1.492c0,0.172,0,0.186-0.058,0.444c-0.057,0.215-0.115,0.531-0.115,0.803
		c0,0.545,0.187,0.688,0.474,0.688c0.731,0,1.033-1.004,1.233-1.75c0.058-0.229,0.072-0.287,0.201-0.287
		c0.086,0,0.144,0.057,0.144,0.129c0,0.058-0.187,0.861-0.488,1.391c-0.115,0.201-0.459,0.804-1.119,0.804
		c-0.731,0-1.276-0.56-1.276-1.392c0-0.071,0-0.244,0.057-0.459c0.043-0.215,0.043-0.272,0.043-0.358
		c0-0.688-0.617-1.119-1.649-1.233c-0.603,2.353-0.545,2.151-0.674,2.682c-0.115,0.445-0.201,0.761-0.603,0.761
		c-0.144,0-0.387-0.058-0.387-0.373c0-0.086,0-0.114,0.057-0.33l2.051-8.204c0.072-0.258,0.072-0.287,0.072-0.344
		c0-0.144,0-0.272-0.731-0.272c-0.144,0-0.287,0-0.287-0.144c0-0.258,0.101-0.272,0.445-0.301c0.258-0.014,0.473-0.043,0.717-0.057
		c0.258-0.029,0.775-0.072,0.789-0.072c0.029,0,0.172,0,0.172,0.144c0,0.071-0.029,0.158-0.043,0.215L147.276,40.297z"/>
	<path d="M156.576,42.894c-0.057,0.229-0.057,0.33-0.057,0.345c0,0.215,0,0.344,1.291,0.344c0.373,0,0.474,0,0.474,0.144
		c0,0.272-0.144,0.272-0.301,0.272c-0.358,0-0.746-0.028-1.104-0.028h-2.237c-0.359,0-0.732,0.028-1.09,0.028
		c-0.072,0-0.229,0-0.229-0.144c0-0.272,0.101-0.272,0.459-0.272c1.521,0,1.549-0.144,1.692-0.703l1.922-7.703
		c0.071-0.258,0.071-0.287,0.071-0.33c0-0.158-0.143-0.158-0.487-0.158h-0.961c-1.908,0-2.209,0.803-2.812,2.539
		c-0.058,0.187-0.086,0.244-0.201,0.244c-0.086,0-0.144-0.071-0.144-0.143c0-0.015,0.043-0.172,0.057-0.201l0.875-2.582
		c0.086-0.258,0.101-0.272,0.431-0.272h7.846c0.287,0,0.373,0,0.373,0.158c0,0.043,0,0.072-0.029,0.201l-0.416,2.539
		c-0.043,0.229-0.043,0.301-0.187,0.301c-0.086,0-0.144-0.086-0.144-0.143l0.015-0.172c0.086-0.531,0.143-1.076,0.143-1.291
		c0-1.119-0.674-1.176-2.108-1.176c-0.301,0-0.774,0-0.889,0.028c-0.215,0.058-0.244,0.187-0.33,0.531L156.576,42.894z"/>
</g>
<g>
	<path d="M165.678,45.16c-0.703,1.405-1.879,2.438-2.065,2.438c-0.057,0-0.129-0.029-0.129-0.115c0-0.043,0-0.071,0.143-0.201
		c1.664-1.692,2.338-4.087,2.338-6.87c0-2.926-0.803-5.292-2.237-6.741c-0.244-0.244-0.244-0.272-0.244-0.315
		c0-0.086,0.072-0.115,0.129-0.115c0.158,0,1.334,0.932,2.18,2.653c0.803,1.664,0.947,3.442,0.947,4.533
		C166.74,42.148,166.41,43.697,165.678,45.16z"/>
</g>
<g>
	<path d="M170.88,30.833c-0.119,0-0.182,0-0.182-0.098c0-0.077,0.056-0.091,0.07-0.091c0.035-0.007,0.049-0.007,0.223-0.021
		c0.349-0.021,0.544-0.035,0.774-0.3c0.182-0.216,0.279-0.537,0.279-0.83c0-0.606-0.439-0.76-0.753-0.76
		c-0.258,0-0.739,0.077-0.983,0.384c0.216,0.014,0.355,0.16,0.355,0.363c0,0.195-0.14,0.355-0.355,0.355
		c-0.209,0-0.363-0.133-0.363-0.37c0-0.558,0.593-0.935,1.367-0.935s1.409,0.412,1.409,0.962c0,0.425-0.265,0.948-0.997,1.213
		c0.767,0.16,1.213,0.704,1.213,1.248c0,0.697-0.669,1.346-1.639,1.346c-0.844,0-1.569-0.426-1.569-1.081
		c0-0.286,0.195-0.404,0.391-0.404c0.216,0,0.383,0.16,0.383,0.383c0,0.146-0.077,0.376-0.404,0.391
		c0.293,0.412,0.907,0.488,1.186,0.488c0.404,0,0.906-0.258,0.906-1.123c0-0.746-0.39-1.123-0.934-1.123H170.88z"/>
</g>
<g>
	<rect x="169.353" y="34.395" width="3.971" height="0.398"/>
</g>
<g>
	<path d="M172.666,40.52h-2.873c0-0.195,0-0.209,0.07-0.272l1.68-1.66c0.223-0.251,0.656-0.732,0.656-1.339
		c0-0.565-0.363-1.109-1.06-1.109c-0.328,0-0.802,0.154-1.018,0.649c0.363,0,0.412,0.244,0.412,0.369c0,0.251-0.203,0.37-0.37,0.37
		c-0.07,0-0.37-0.035-0.37-0.39c0-0.642,0.585-1.249,1.45-1.249c0.893,0,1.632,0.516,1.632,1.36c0,0.663-0.481,1.095-0.997,1.506
		c-0.418,0.328-0.663,0.523-1.395,1.171h1.283c0.098,0,0.635,0,0.69-0.042c0.091-0.069,0.161-0.481,0.181-0.634h0.237L172.666,40.52
		z"/>
</g>
<g>
	<rect x="106.33" y="49.829" width="68.688" height="0.574"/>
</g>
<g>
	<path d="M136.817,58.352c0.588-0.746,1.305-1.133,2.123-1.133c1.09,0,1.592,0.646,1.592,1.506c0,0.832-0.646,2.524-0.904,3.213
		c-0.057,0.158-0.229,0.617-0.229,0.989c0,0.459,0.229,0.474,0.373,0.474c0.574,0,1.104-0.603,1.434-1.75
		c0.072-0.243,0.086-0.287,0.215-0.287c0.086,0,0.144,0.058,0.144,0.13c0,0.086-0.502,2.194-1.836,2.194
		c-0.688,0-1.133-0.517-1.133-1.162c0-0.258,0.072-0.444,0.201-0.789c0.316-0.86,0.875-2.424,0.875-3.227
		c0-0.574-0.201-1.004-0.774-1.004c-1.104,0-1.75,0.86-2.022,1.276s-0.272,0.43-0.43,1.032c-0.072,0.315-0.158,0.617-0.229,0.933
		l-0.646,2.596c-0.072,0.158-0.258,0.345-0.502,0.345c-0.144,0-0.387-0.058-0.387-0.373c0-0.086,0-0.115,0.057-0.33l2.08-8.305
		c0.014-0.043,0.043-0.157,0.043-0.244c0-0.143-0.015-0.272-0.717-0.272c-0.201,0-0.315,0-0.315-0.144
		c0-0.258,0.1-0.272,0.459-0.301c0.258-0.015,0.473-0.043,0.717-0.058c0.072-0.014,0.775-0.071,0.789-0.071
		c0.029,0,0.172,0,0.172,0.144c0,0.071-0.029,0.157-0.043,0.215L136.817,58.352z"/>
</g>
<g>
	<path d="M146.531,57.695c0,1.017-0.907,1.923-2.123,1.923c-1.086,0-2.013-0.657-2.013-1.563c0-0.438,0.319-0.578,0.558-0.578
		c0.289,0,0.558,0.199,0.558,0.558c0,0.379-0.309,0.598-0.658,0.548c0.349,0.588,1.096,0.758,1.524,0.758
		c0.438,0,1.126-0.289,1.126-1.645c0-0.977-0.369-1.653-1.186-1.653h-0.438c-0.169,0-0.239,0-0.239-0.11
		c0-0.1,0.07-0.109,0.149-0.119c0.07,0,0.309-0.021,0.389-0.03c0.249-0.01,0.588-0.04,0.887-0.518
		c0.259-0.438,0.279-1.017,0.279-1.136c0-0.897-0.548-1.116-0.957-1.116c-0.358,0-1.016,0.129-1.325,0.617
		c0.149,0,0.618,0,0.618,0.499c0,0.288-0.199,0.508-0.508,0.508c-0.289,0-0.508-0.189-0.508-0.519c0-0.757,0.757-1.354,1.764-1.354
		c0.957,0,1.833,0.558,1.833,1.375c0,0.787-0.578,1.484-1.395,1.754C145.903,56.102,146.531,56.879,146.531,57.695z"/>
</g>
<g>
	<path d="M178.021,50.375c-0.215,0.918-0.215,1.277-0.215,1.478c0,1.062,0.43,1.707,1.248,1.707c0.545,0,1.908-0.215,2.826-1.435
		c0.129-0.129,0.144-0.143,0.187-0.143c0.057,0,0.144,0.071,0.144,0.157c0,0.187-1.234,1.707-3.184,1.707
		c-1.306,0-2.166-1.047-2.166-2.554c0-2.553,2.166-3.915,3.672-3.915c0.947,0,1.492,0.573,1.492,1.205
		c0,0.258-0.101,1.09-1.19,1.506c-0.688,0.258-1.664,0.286-2.051,0.286H178.021z M178.695,50.089c0.603,0,2.897,0,2.897-1.506
		c0-0.546-0.431-0.918-1.062-0.918c-0.459,0-1.822,0.215-2.438,2.424H178.695z"/>
</g>
<g>
	<path d="M183.88,45.488c-0.14,0-0.329,0-0.329-0.199s0.189-0.199,0.329-0.199h5.431c0.139,0,0.329,0,0.329,0.199
		s-0.189,0.199-0.329,0.199H183.88z"/>
</g>
<g>
	<path d="M194.422,41.544c0.161,0.523,0.753,2.162,1.137,2.162c0.125,0,0.314-0.098,0.383-0.293
		c0.021-0.049,0.035-0.083,0.119-0.083c0.035,0,0.119,0,0.119,0.09c0,0.119-0.209,0.481-0.676,0.481c-0.167,0-0.69-0.014-0.92-0.425
		c-0.265-0.46-0.495-1.13-0.614-1.472c-0.098,0.111-0.37,0.383-0.481,0.488c-0.125,0.132-0.453,0.467-0.585,0.6
		c-0.146,0.146-0.495,0.522-0.642,0.662c-0.063,0.056-0.083,0.077-0.132,0.077c-0.056,0-0.112-0.056-0.112-0.111
		c0-0.042,0.021-0.057,0.07-0.119l1.799-1.841c-0.321-0.899-0.355-0.99-0.53-1.36c-0.098-0.209-0.383-0.802-0.606-0.802
		c-0.105,0-0.307,0.07-0.391,0.293c-0.014,0.049-0.028,0.083-0.119,0.083c-0.028,0-0.119,0-0.119-0.091
		c0-0.098,0.188-0.481,0.684-0.481c0.488,0,0.781,0.167,0.948,0.481c0.223,0.418,0.286,0.593,0.586,1.416l1.688-1.729
		c0.077-0.077,0.09-0.098,0.146-0.098c0.062,0,0.111,0.049,0.111,0.111c0,0.049-0.021,0.07-0.098,0.146L194.422,41.544z"/>
</g>
<g>
	<path d="M197.922,42.753c0.175-0.433,0.216-0.537,0.216-0.697c0-0.188-0.062-0.244-0.174-0.244c-0.258,0-0.565,0.251-0.746,0.851
		c-0.021,0.077-0.028,0.112-0.125,0.112c-0.021,0-0.119,0-0.119-0.091c0-0.119,0.321-1.067,1.011-1.067
		c0.383,0,0.663,0.265,0.663,0.593c0,0.07-0.021,0.153-0.042,0.223c-0.028,0.083-0.279,0.718-0.342,0.885
		c-0.077,0.182-0.153,0.37-0.223,0.559c-0.062,0.153-0.111,0.285-0.111,0.446c0,0.153,0.035,0.243,0.174,0.243
		c0.272,0,0.579-0.285,0.739-0.844c0.028-0.076,0.035-0.118,0.132-0.118c0.021,0,0.111,0,0.111,0.091
		c0,0.104-0.307,1.066-1.004,1.066c-0.384,0-0.663-0.265-0.663-0.593c0-0.118,0.035-0.202,0.063-0.292L197.922,42.753z
		 M198.515,40.717c-0.188,0-0.279-0.146-0.279-0.265c0-0.202,0.202-0.383,0.391-0.383c0.195,0,0.279,0.153,0.279,0.265
		C198.905,40.521,198.717,40.717,198.515,40.717z"/>
	<path d="M201.167,44.761c-0.76,0-1.27-0.522-1.27-1.22c0-0.956,0.977-1.925,2.008-1.925c0.684,0,1.262,0.446,1.262,1.22
		C203.167,43.841,202.164,44.761,201.167,44.761z M202.206,43.932c0.307-0.488,0.39-1.179,0.39-1.346
		c0-0.516-0.321-0.774-0.697-0.774c-0.313,0-0.718,0.181-1.018,0.614c-0.272,0.397-0.404,1.081-0.404,1.367
		c0,0.551,0.349,0.773,0.697,0.773S201.94,44.343,202.206,43.932z"/>
	<path d="M204.471,43.359c0.035-0.153,0.105-0.439,0.153-0.627c0.049-0.188,0.112-0.446,0.112-0.579c0-0.188-0.049-0.342-0.23-0.342
		c-0.272,0-0.405,0.342-0.509,0.753c-0.049,0.188-0.056,0.209-0.153,0.209c-0.021,0-0.119,0-0.119-0.091
		c0-0.035,0.098-0.432,0.251-0.69c0.091-0.16,0.251-0.376,0.551-0.376c0.286,0,0.697,0.153,0.746,0.635
		c0.209-0.279,0.6-0.635,1.178-0.635c0.37,0,0.907,0.119,0.907,0.795c0,0.391-0.286,1.13-0.37,1.346
		c-0.125,0.313-0.161,0.404-0.161,0.565c0,0.146,0.028,0.243,0.174,0.243c0.279,0,0.579-0.285,0.739-0.844
		c0.028-0.076,0.035-0.118,0.133-0.118c0.021,0,0.111,0,0.111,0.091c0,0.104-0.307,1.066-1.004,1.066
		c-0.356,0-0.663-0.229-0.663-0.6c0-0.118,0.028-0.181,0.104-0.376c0.112-0.293,0.412-1.067,0.412-1.485
		c0-0.133-0.007-0.488-0.412-0.488c-0.523,0-0.851,0.362-1.046,0.642c-0.202,0.286-0.216,0.342-0.293,0.628
		c-0.035,0.16-0.077,0.313-0.119,0.467c-0.042,0.174-0.118,0.495-0.153,0.628c-0.035,0.146-0.091,0.369-0.125,0.432
		c-0.035,0.063-0.146,0.153-0.272,0.153c-0.111,0-0.237-0.069-0.237-0.223c0-0.021,0.042-0.195,0.07-0.286L204.471,43.359z"/>
</g>
<g>
	<rect x="191.668" y="45.09" width="17.152" height="0.398"/>
</g>
<g>
	<path d="M196.646,49.367c0.286-0.119,0.516-0.335,0.809-0.614c0.355-0.327,0.718-0.613,1.116-0.613c0.37,0,0.537,0.258,0.537,0.488
		c0,0.293-0.209,0.446-0.397,0.446c-0.16,0-0.279-0.104-0.279-0.258c0-0.104,0.063-0.342,0.363-0.391
		c-0.056-0.07-0.146-0.091-0.23-0.091c-0.391,0-0.739,0.328-1.095,0.662c-0.118,0.104-0.376,0.335-0.579,0.461
		c0.293,0.021,1.13,0.118,1.13,0.738c0,0.077-0.028,0.195-0.035,0.217c-0.042,0.181-0.042,0.195-0.042,0.313
		c0,0.188,0.056,0.362,0.244,0.362c0.342,0,0.53-0.495,0.614-0.795c0.035-0.132,0.042-0.167,0.14-0.167c0.021,0,0.111,0,0.111,0.091
		c0,0.007-0.209,1.066-0.886,1.066c-0.334,0-0.739-0.223-0.739-0.718c0-0.077,0-0.111,0.028-0.216
		c0.014-0.07,0.014-0.105,0.014-0.14c0-0.363-0.397-0.523-0.893-0.572c-0.028,0.098-0.328,1.325-0.341,1.354
		c-0.042,0.153-0.133,0.292-0.321,0.292c-0.154,0-0.237-0.118-0.237-0.223c0-0.014,0-0.028,0.035-0.153l0.983-3.947
		c0.014-0.062,0.028-0.104,0.028-0.153c0-0.056,0-0.104-0.334-0.104c-0.084,0-0.182,0-0.182-0.098c0-0.146,0.098-0.153,0.154-0.16
		c0.174-0.014,0.753-0.07,0.893-0.07c0.083,0,0.111,0.063,0.111,0.098c0,0.008-0.021,0.098-0.028,0.112L196.646,49.367z"/>
	<path d="M202.025,50.657c-0.028,0.098-0.028,0.111-0.028,0.16c0,0.084,0.014,0.111,0.251,0.133
		c0.132,0.007,0.272,0.014,0.404,0.014c0.216,0,0.286,0,0.286,0.098c0,0.153-0.104,0.153-0.16,0.153
		c-0.188,0-0.397-0.014-0.586-0.021c-0.195-0.008-0.432-0.008-0.627-0.008s-0.404,0.008-0.6,0.008s-0.404,0.021-0.6,0.021
		c-0.105,0-0.119-0.077-0.119-0.098c0-0.153,0.062-0.153,0.314-0.153c0.732,0,0.753-0.069,0.815-0.328l0.921-3.668
		c0.028-0.104,0.028-0.139,0.028-0.146c0-0.062-0.007-0.069-0.216-0.069h-0.293c-1.06,0-1.29,0.069-1.694,1.186
		c-0.042,0.133-0.056,0.167-0.146,0.167c-0.104,0-0.119-0.069-0.119-0.098c0-0.034,0.028-0.098,0.035-0.125l0.439-1.234
		c0.049-0.146,0.063-0.146,0.237-0.146h4.289c0.125,0,0.209,0,0.209,0.098l-0.188,1.332c-0.014,0.111-0.028,0.174-0.133,0.174
		c-0.07,0-0.119-0.034-0.119-0.104l0.014-0.076c0.049-0.363,0.049-0.454,0.049-0.565c0-0.251-0.014-0.453-0.328-0.551
		c-0.174-0.056-0.356-0.056-0.781-0.056c-0.139,0-0.383,0-0.418,0.007c-0.153,0.014-0.167,0.035-0.216,0.237L202.025,50.657z"/>
</g>
</svg>
