<?xml version="1.0" encoding="iso-8859-1"?>
<!-- Generator: Adobe Illustrator 16.0.0, SVG Export Plug-In . SVG Version: 6.00 Build 0)  -->
<!DOCTYPE svg PUBLIC "-//W3C//DTD SVG 1.1//EN" "http://www.w3.org/Graphics/SVG/1.1/DTD/svg11.dtd">
<svg version="1.1" id="Layer_1" xmlns="http://www.w3.org/2000/svg" xmlns:xlink="http://www.w3.org/1999/xlink" x="0px" y="0px"
	 width="566.929px" height="85.039px" viewBox="0 0 566.929 85.039" style="enable-background:new 0 0 566.929 85.039;"
	 xml:space="preserve">
<g>
	<path d="M35.966,51.148c-0.029,0.114-0.029,0.215-0.029,0.229c0,0.144,0,0.258,0.875,0.258c0.215,0,0.344,0,0.344,0.144
		c0,0.272-0.158,0.272-0.272,0.272c-0.244,0-0.545-0.028-0.789-0.028h-1.692c-0.244,0-0.531,0.028-0.774,0.028
		c-0.086,0-0.215,0-0.215-0.158c0-0.258,0.144-0.258,0.416-0.258c1.004,0,1.033-0.144,1.162-0.646l2.08-8.305h-0.014l-5.766,9.122
		c-0.072,0.13-0.144,0.244-0.301,0.244c-0.129,0-0.144-0.043-0.187-0.388l-1.19-8.907h-0.014l-1.979,7.903
		c-0.058,0.201-0.058,0.216-0.058,0.359c0,0.516,0.459,0.602,0.933,0.616c0.057,0,0.201,0.015,0.201,0.144
		c0,0.272-0.158,0.272-0.258,0.272c-0.201,0-0.444-0.028-0.646-0.028h-0.688c-0.287,0-1.018,0.028-1.305,0.028
		c-0.057,0-0.187,0-0.187-0.158c0-0.243,0.172-0.258,0.215-0.258c0.961-0.043,1.291-0.358,1.463-1.047l1.836-7.315
		c0.058-0.215,0.058-0.301,0.058-0.33c0-0.158,0-0.272-0.875-0.272c-0.215,0-0.344,0-0.344-0.144c0-0.272,0.129-0.272,0.401-0.272
		h1.779c0.373,0,0.387,0,0.43,0.315l1.076,8.205l5.235-8.276c0.158-0.229,0.172-0.244,0.531-0.244h1.721
		c0.272,0,0.373,0,0.373,0.144c0,0.272-0.129,0.272-0.402,0.272c-1.018,0-1.047,0.143-1.176,0.631L35.966,51.148z"/>
</g>
<g>
	<path d="M45.122,49.78c0,0.209,0,0.239-0.159,0.239c-0.14,0-0.14-0.03-0.16-0.17c-0.199-1.454-1.086-2.361-2.172-2.361
		c-0.608,0-2.551,0.339-2.551,3.318c0,2.969,1.953,3.308,2.561,3.308c1.086,0,2.152-0.816,2.232-2.242
		c0.01-0.1,0.01-0.159,0.12-0.159c0.129,0,0.129,0.07,0.129,0.17c0,1.155-0.977,2.54-2.601,2.54c-1.853,0-3.467-1.563-3.467-3.626
		c0-2.033,1.604-3.617,3.467-3.617c0.957,0,1.465,0.498,1.833,0.856l0.498-0.737c0.08-0.119,0.12-0.119,0.16-0.119
		c0.109,0,0.109,0.069,0.109,0.239V49.78z"/>
	<path d="M50.245,53.597c0.01,0.299,0.259,0.299,0.777,0.299v0.309c-0.338-0.01-0.857-0.03-1.116-0.03
		c-0.269,0-0.777,0.021-1.126,0.03v-0.309c0.667,0,0.777,0,0.777-0.448v-2.322c0-0.567-0.11-1.105-0.737-1.105
		c-0.638,0-1.345,0.558-1.345,1.594v1.834c0,0.448,0.109,0.448,0.777,0.448v0.309c-0.338-0.01-0.857-0.03-1.116-0.03
		c-0.269,0-0.777,0.021-1.126,0.03v-0.309c0.667,0,0.777,0,0.777-0.448v-5.182c0-0.488-0.08-0.558-0.777-0.558v-0.31l1.435-0.109
		v3.468h0.01c0.159-0.359,0.598-0.957,1.435-0.957c0.578,0,0.907,0.199,1.046,0.369c0.309,0.358,0.309,0.667,0.309,1.524V53.597z"/>
</g>
<g>
	<path d="M56.943,47.404c-0.215,0-0.459,0-0.459-0.272c0-0.258,0.258-0.258,0.459-0.258h8.448c0.215,0,0.459,0,0.459,0.272
		c0,0.258-0.258,0.258-0.459,0.258H56.943z M56.943,50.072c-0.215,0-0.459,0-0.459-0.272c0-0.258,0.258-0.258,0.459-0.258h8.448
		c0.215,0,0.459,0,0.459,0.272c0,0.258-0.258,0.258-0.459,0.258H56.943z"/>
	<path d="M73.693,46.859c0.387-0.015,0.875-0.058,1.305-0.688c0.416-0.616,0.459-1.42,0.459-1.692c0-1.405-0.932-1.621-1.405-1.621
		c-0.072,0-1.42,0-1.965,0.975c0.043-0.015,0.072-0.015,0.158-0.015c0.316,0,0.66,0.201,0.66,0.66c0,0.431-0.344,0.646-0.646,0.646
		c-0.215,0-0.66-0.115-0.66-0.688c0-1.047,1.062-1.922,2.496-1.922c1.391,0,2.567,0.832,2.567,1.965
		c0,1.119-0.803,2.166-2.051,2.524c1.377,0.244,2.438,1.276,2.438,2.596c0,1.449-1.262,2.754-2.969,2.754
		c-1.592,0-2.869-1.047-2.869-2.323c0-0.545,0.373-0.746,0.717-0.746c0.402,0,0.703,0.287,0.703,0.703
		c0,0.517-0.416,0.774-0.875,0.703c0.416,0.946,1.592,1.276,2.28,1.276c0.703,0,1.678-0.502,1.678-2.381
		c0-1.377-0.545-2.381-1.764-2.381h-0.66c-0.258,0-0.33,0-0.33-0.144c0-0.129,0.058-0.144,0.301-0.158L73.693,46.859z"/>
</g>
<g>
	<path d="M79.581,52.052c-0.344,0-0.688-0.287-0.688-0.703c0-0.344,0.287-0.688,0.703-0.688c0.344,0,0.688,0.287,0.688,0.703
		C80.283,51.707,79.996,52.052,79.581,52.052z"/>
</g>
<g>
	<path d="M85.677,50.947c0,0.517,0.043,0.688,1.305,0.688h0.445v0.416c-0.387-0.028-1.764-0.028-2.238-0.028
		c-0.473,0-1.865,0-2.252,0.028v-0.416h0.445c1.262,0,1.305-0.172,1.305-0.688v-7.473c-0.789,0.373-1.506,0.373-1.836,0.373v-0.416
		c1.478,0,2.195-0.531,2.539-0.918c0.287,0,0.287,0.014,0.287,0.344V50.947z"/>
	<path d="M90.405,46.802c0.373-0.401,1.004-0.76,1.822-0.76c1.506,0,2.653,1.42,2.653,3.127c0,1.821-1.42,3.184-3.041,3.184
		c-1.592,0-2.568-1.391-2.568-2.61c0-0.559,0.373-0.688,0.631-0.688c0.358,0,0.631,0.229,0.631,0.632
		c0,0.487-0.387,0.631-0.631,0.631c-0.072,0-0.158-0.015-0.229-0.043c0.258,1.047,1.19,1.692,2.137,1.692
		c0.631,0,1.19-0.358,1.506-0.875c0.402-0.646,0.402-1.463,0.402-2.008s-0.015-1.248-0.258-1.808
		c-0.115-0.244-0.488-0.946-1.248-0.946c-0.717,0-1.391,0.344-1.793,0.932c-0.143,0.173-0.158,0.187-0.229,0.187
		c-0.172,0-0.172-0.086-0.172-0.344v-4.26c0-0.229,0-0.315,0.115-0.315c0.014,0,0.043,0,0.144,0.043
		c0.272,0.115,0.946,0.402,1.893,0.402c0.373,0,1.062-0.043,1.865-0.388c0.129-0.057,0.158-0.057,0.187-0.057
		c0.086,0,0.115,0.072,0.115,0.129c0,0.201-1.033,1.391-2.654,1.391c-0.158,0-0.66-0.014-1.276-0.215V46.802z"/>
</g>
<g>
	<path d="M107.723,65.66c-0.201,0-0.229,0-0.402-0.172c-0.588-0.517-1.133-1.104-1.42-1.435c-3.643-4.289-4.934-9.969-4.934-15.605
		c0-6.039,1.506-12.608,6.311-16.982c0.215-0.215,0.244-0.215,0.445-0.215c0.201,0,0.301,0,0.301,0.144c0,0.043,0,0.072-0.043,0.115
		c-0.631,0.631-1.807,1.807-2.94,3.844c-2.367,4.274-2.883,9.252-2.883,13.11c0,5.521,1.047,10.184,3.356,13.884
		c0.961,1.549,1.922,2.51,2.453,3.041c0.029,0.043,0.058,0.071,0.058,0.129C108.024,65.66,107.924,65.66,107.723,65.66z"/>
</g>
<g>
	<path d="M111.906,41.902h2.481c2.496,0,3.126-1.119,3.729-2.969c0.115-0.359,0.129-0.373,0.244-0.373
		c0.086,0,0.144,0.072,0.144,0.144c0,0.057-0.029,0.158-0.043,0.201l-1.004,3.17c-0.086,0.258-0.101,0.272-0.431,0.272h-6.125
		c-0.272,0-0.344,0-0.344-0.115c0-0.158,0.058-0.215,0.187-0.373l7.86-8.893h-2.353c-2.266,0-2.969,0.99-3.5,2.539
		c-0.058,0.187-0.086,0.244-0.201,0.244c-0.101,0-0.144-0.086-0.144-0.143c0-0.029,0-0.058,0.043-0.201l0.789-2.582
		c0.086-0.258,0.1-0.272,0.43-0.272h5.924c0.33,0,0.344,0.014,0.344,0.115c0,0.144-0.072,0.229-0.158,0.33L111.906,41.902z"/>
</g>
<g>
	<rect x="109.74" y="48.179" width="10.645" height="0.574"/>
</g>
<g>
	<path d="M117.255,51.896c0.129-0.216,0.215-0.244,0.358-0.244c0.158,0,0.215,0.028,0.244,0.315l0.875,8.95
		c0.043,0.431,0.057,0.56,0.846,0.56c0.215,0,0.344,0,0.344,0.144c0,0.272-0.158,0.272-0.258,0.272
		c-0.014,0-0.646-0.028-1.521-0.028h-0.817c-0.244,0-0.531,0.028-0.774,0.028c-0.086,0-0.215,0-0.215-0.158
		c0-0.258,0.158-0.258,0.315-0.258c0.229,0,0.961-0.028,0.961-0.459c0-0.272-0.172-1.764-0.215-2.137
		c-0.015-0.13-0.015-0.244-0.029-0.373h-3.658l-1.09,1.807c-0.187,0.316-0.272,0.474-0.272,0.675c0,0.344,0.272,0.459,0.602,0.487
		c0.086,0,0.201,0.015,0.201,0.144c0,0.272-0.172,0.272-0.258,0.272c-0.402,0-0.861-0.028-1.276-0.028
		c-0.258,0-0.904,0.028-1.162,0.028c-0.1,0-0.172-0.058-0.172-0.144c0-0.258,0.115-0.258,0.272-0.272
		c0.688-0.043,1.176-0.33,1.678-1.176L117.255,51.896z M117.327,58.092l-0.488-4.819l-2.883,4.819H117.327z"/>
</g>
<g>
	<path d="M122.828,65.445c-0.215,0.215-0.244,0.215-0.445,0.215c-0.172,0-0.301,0-0.301-0.144c0-0.043,0.029-0.086,0.058-0.129
		c0.602-0.603,1.793-1.793,2.926-3.83c2.367-4.274,2.883-9.251,2.883-13.109c0-5.522-1.047-10.184-3.356-13.884
		c-0.961-1.549-1.922-2.51-2.424-3.027c-0.028-0.028-0.086-0.086-0.086-0.143c0-0.144,0.129-0.144,0.301-0.144
		c0.201,0,0.229,0,0.402,0.172c0.588,0.516,1.133,1.104,1.42,1.434c3.643,4.289,4.934,9.969,4.934,15.606
		C129.139,54.501,127.633,61.07,122.828,65.445z"/>
</g>
<g>
	<path d="M136.336,35.097h-3.697c0-0.239,0-0.259,0.11-0.369l1.913-2.132c0.548-0.618,1.046-1.405,1.046-2.202
		c0-0.817-0.428-1.624-1.335-1.624c-0.578,0-1.116,0.369-1.345,1.016c0.03-0.01,0.05-0.01,0.129-0.01
		c0.349,0,0.528,0.259,0.528,0.518c0,0.409-0.349,0.528-0.518,0.528c-0.03,0-0.528,0-0.528-0.558c0-0.887,0.737-1.804,1.863-1.804
		c1.216,0,2.112,0.797,2.112,1.933c0,0.997-0.598,1.535-2.152,2.91l-1.056,1.026h1.793c0.219,0,0.876,0,0.946-0.08
		c0.1-0.149,0.169-0.588,0.219-0.887h0.249L136.336,35.097z"/>
</g>
<g>
	<path d="M149.75,65.66c-0.201,0-0.229,0-0.402-0.172c-0.588-0.517-1.133-1.104-1.42-1.435c-3.643-4.289-4.934-9.969-4.934-15.605
		c0-6.039,1.506-12.608,6.311-16.982c0.215-0.215,0.244-0.215,0.445-0.215c0.201,0,0.301,0,0.301,0.144c0,0.043,0,0.072-0.043,0.115
		c-0.631,0.631-1.807,1.807-2.94,3.844c-2.366,4.274-2.883,9.252-2.883,13.11c0,5.521,1.047,10.184,3.356,13.884
		c0.961,1.549,1.922,2.51,2.453,3.041c0.029,0.043,0.057,0.071,0.057,0.129C150.051,65.66,149.951,65.66,149.75,65.66z"/>
</g>
<g>
	<path d="M160.451,34.358v-0.416h5.063v0.416H160.451z"/>
</g>
<g>
	<path d="M162.253,37.155c0.588-0.746,1.306-1.133,2.123-1.133c1.09,0,1.592,0.645,1.592,1.506c0,0.832-0.646,2.524-0.904,3.213
		c-0.058,0.158-0.229,0.617-0.229,0.99c0,0.459,0.229,0.473,0.373,0.473c0.574,0,1.104-0.602,1.434-1.75
		c0.072-0.244,0.086-0.287,0.215-0.287c0.086,0,0.144,0.058,0.144,0.129c0,0.086-0.502,2.195-1.836,2.195
		c-0.688,0-1.133-0.517-1.133-1.162c0-0.258,0.072-0.444,0.201-0.789c0.315-0.861,0.875-2.424,0.875-3.228
		c0-0.574-0.201-1.004-0.774-1.004c-1.104,0-1.75,0.861-2.022,1.276c-0.272,0.416-0.272,0.431-0.43,1.033
		c-0.072,0.315-0.158,0.617-0.229,0.932l-0.646,2.596c-0.072,0.158-0.258,0.344-0.502,0.344c-0.144,0-0.387-0.058-0.387-0.373
		c0-0.086,0-0.115,0.057-0.33l2.08-8.305c0.015-0.043,0.043-0.158,0.043-0.244c0-0.144-0.015-0.272-0.717-0.272
		c-0.201,0-0.315,0-0.315-0.144c0-0.258,0.1-0.272,0.459-0.301c0.258-0.014,0.473-0.043,0.717-0.057
		c0.072-0.015,0.775-0.072,0.789-0.072c0.029,0,0.172,0,0.172,0.143c0,0.072-0.028,0.158-0.043,0.215L162.253,37.155z"/>
	<path d="M171.759,36.309c-0.904,0-1.678,0.774-2.051,1.449c-0.517,0.975-0.76,2.367-0.76,2.869c0,0.717,0.315,1.578,1.305,1.578
		c0.545,0,1.908-0.215,2.826-1.434c0.129-0.129,0.144-0.144,0.187-0.144c0.057,0,0.144,0.072,0.144,0.158
		c0,0.187-1.234,1.707-3.184,1.707c-1.463,0-2.238-1.133-2.238-2.381c0-2.037,1.879-4.087,3.758-4.087
		c0.99,0,1.649,0.531,1.649,1.219c0,0.573-0.387,0.86-0.731,0.86c-0.272,0-0.488-0.172-0.488-0.459c0-0.229,0.158-0.445,0.244-0.517
		c0.201-0.172,0.33-0.172,0.603-0.172C172.734,36.337,171.945,36.309,171.759,36.309z"/>
</g>
<g>
	<rect x="151.767" y="48.179" width="29.4" height="0.574"/>
</g>
<g>
	<path d="M161.563,55.582c-0.057,0.258-0.072,0.272-0.229,0.272c-0.043,0-0.187,0-0.187-0.13c0-0.2,0.058-0.516,0.058-0.745
		c0-1.32-0.603-2.769-2.295-2.769c-1.262,0-2.596,0.703-3.5,1.735c-1.391,1.621-1.735,3.815-1.735,4.776
		c0,2.481,1.793,3.055,2.897,3.055c0.846,0,1.979-0.329,2.524-1.133c0.272-0.43,0.545-1.879,0.545-1.894
		c0-0.215,0-0.329-1.133-0.329h-0.358c0-0.015-0.115-0.015-0.115-0.158c0-0.258,0.172-0.258,0.301-0.258
		c0.588,0,1.219,0.028,1.821,0.028h0.775c0.258,0,0.53-0.028,0.774-0.028c0.043,0,0.187,0,0.187,0.144
		c0,0.272-0.172,0.272-0.229,0.272c-0.789,0.014-0.818,0.057-0.961,0.602c-0.101,0.431-0.158,0.632-0.272,1.104l-0.229,0.918
		c-0.072,0.259-0.187,0.761-0.201,0.789c-0.014,0-0.028,0.043-0.1,0.043c-0.101,0-0.416-0.387-0.574-0.932
		c-0.717,0.903-2.022,1.247-3.055,1.247c-2.152,0-3.787-1.52-3.787-3.887c0-3.385,3.227-6.512,6.296-6.512
		c0.215,0,0.832,0,1.449,0.388c0.56,0.329,0.846,0.831,0.918,0.946l0.99-1.19c0.115-0.144,0.172-0.144,0.201-0.144
		c0.029,0,0.129,0,0.129,0.129L161.563,55.582z"/>
	<path d="M165.329,59.583c-0.101,0.431-0.215,0.861-0.315,1.291c-0.072,0.287-0.201,0.789-0.229,0.86
		c-0.115,0.216-0.316,0.302-0.488,0.302c-0.215,0-0.373-0.158-0.373-0.358c0-0.072,0.158-0.746,0.258-1.119
		c0.072-0.258,0.229-0.903,0.287-1.176c0.129-0.517,0.272-1.033,0.402-1.55c0.1-0.444,0.244-1.004,0.244-1.319
		c0-0.43-0.115-0.659-0.444-0.659c-0.574,0-0.847,0.846-1.062,1.692c-0.086,0.33-0.101,0.344-0.215,0.344
		c-0.1,0-0.158-0.071-0.158-0.129s0.201-0.933,0.459-1.448c0.272-0.546,0.603-0.746,1.019-0.746c0.631,0,1.219,0.444,1.262,1.262
		c0.258-0.358,0.932-1.262,2.208-1.262c1.076,0,1.549,0.616,1.592,1.392c0.574-0.847,1.348-1.392,2.309-1.392
		c1.09,0,1.592,0.646,1.592,1.506c0,0.832-0.646,2.524-0.904,3.213c-0.057,0.158-0.229,0.617-0.229,0.989
		c0,0.459,0.229,0.474,0.373,0.474c0.574,0,1.104-0.603,1.435-1.75c0.072-0.243,0.086-0.286,0.215-0.286
		c0.086,0,0.144,0.057,0.144,0.129c0,0.086-0.502,2.194-1.836,2.194c-0.688,0-1.133-0.517-1.133-1.162
		c0-0.258,0.071-0.444,0.201-0.789c0.315-0.86,0.875-2.424,0.875-3.227c0-0.574-0.201-1.004-0.775-1.004
		c-1.578,0-2.323,1.792-2.352,1.907c-0.215,0.875-0.588,2.353-0.861,3.428c-0.129,0.517-0.201,0.847-0.631,0.847
		c-0.215,0-0.373-0.158-0.373-0.358c0-0.058,0.086-0.431,0.144-0.646c0.029-0.158,0.301-1.22,0.416-1.649
		c0.172-0.688,0.172-0.731,0.358-1.478c0.172-0.674,0.172-0.961,0.172-1.047c0-0.574-0.201-1.004-0.775-1.004
		c-0.559,0-1.047,0.229-1.42,0.573c-0.531,0.459-0.889,1.176-0.918,1.263L165.329,59.583z"/>
</g>
<g>
	<path d="M179.33,57.748h-3.697c0-0.239,0-0.259,0.11-0.369l1.913-2.132c0.548-0.618,1.046-1.405,1.046-2.202
		c0-0.817-0.428-1.624-1.335-1.624c-0.578,0-1.116,0.369-1.345,1.017c0.03-0.01,0.05-0.01,0.129-0.01
		c0.349,0,0.528,0.259,0.528,0.518c0,0.408-0.349,0.528-0.518,0.528c-0.03,0-0.528,0-0.528-0.559c0-0.887,0.737-1.803,1.863-1.803
		c1.216,0,2.112,0.797,2.112,1.933c0,0.996-0.598,1.534-2.152,2.909L176.4,56.98h1.793c0.219,0,0.876,0,0.946-0.079
		c0.1-0.149,0.169-0.588,0.219-0.887h0.249L179.33,57.748z"/>
</g>
<g>
	<path d="M176.878,64.941v1.674c0,0.448,0.11,0.448,0.777,0.448v0.309c-0.349-0.01-0.857-0.029-1.126-0.029
		c-0.259,0-0.777,0.02-1.116,0.029v-0.309c0.668,0,0.777,0,0.777-0.448v-4.663c0-0.438-0.07-0.498-0.777-0.498v-0.31l1.435-0.109
		v0.658c0.199-0.22,0.618-0.658,1.395-0.658c1.116,0,2.083,0.986,2.083,2.252c0,1.285-1.037,2.262-2.222,2.262
		c-0.757,0-1.176-0.538-1.226-0.697V64.941z M176.878,64.304c0,0.199,0,0.209,0.14,0.418c0.269,0.409,0.647,0.608,1.046,0.608
		c0.738,0,1.435-0.837,1.435-2.043c0-1.126-0.608-2.003-1.335-2.003c-0.508,0-0.997,0.289-1.286,0.798V64.304z"/>
</g>
<g>
	<path d="M183.611,65.445c-0.215,0.215-0.244,0.215-0.445,0.215c-0.172,0-0.301,0-0.301-0.144c0-0.043,0.029-0.086,0.058-0.129
		c0.602-0.603,1.792-1.793,2.926-3.83c2.367-4.274,2.883-9.251,2.883-13.109c0-5.522-1.047-10.184-3.356-13.884
		c-0.961-1.549-1.922-2.51-2.424-3.027c-0.028-0.028-0.086-0.086-0.086-0.143c0-0.144,0.129-0.144,0.301-0.144
		c0.201,0,0.229,0,0.401,0.172c0.588,0.516,1.133,1.104,1.42,1.434c3.643,4.289,4.934,9.969,4.934,15.606
		C189.922,54.501,188.416,61.07,183.611,65.445z"/>
</g>
<g>
	<path d="M197.477,33.394c0,1.016-0.907,1.923-2.123,1.923c-1.086,0-2.013-0.658-2.013-1.564c0-0.438,0.319-0.578,0.558-0.578
		c0.289,0,0.558,0.199,0.558,0.558c0,0.379-0.309,0.598-0.658,0.548c0.349,0.588,1.096,0.757,1.524,0.757
		c0.438,0,1.126-0.289,1.126-1.644c0-0.977-0.369-1.654-1.186-1.654h-0.438c-0.169,0-0.239,0-0.239-0.109
		c0-0.1,0.07-0.11,0.149-0.12c0.07,0,0.309-0.02,0.389-0.03c0.249-0.01,0.588-0.04,0.887-0.519c0.259-0.438,0.279-1.016,0.279-1.136
		c0-0.896-0.548-1.116-0.957-1.116c-0.358,0-1.016,0.129-1.325,0.618c0.149,0,0.618,0,0.618,0.498c0,0.289-0.199,0.508-0.508,0.508
		c-0.289,0-0.508-0.189-0.508-0.518c0-0.757,0.757-1.355,1.764-1.355c0.957,0,1.833,0.558,1.833,1.375
		c0,0.788-0.578,1.485-1.395,1.754C196.849,31.799,197.477,32.576,197.477,33.394z"/>
</g>
<g>
	<path d="M198.871,37.349c-0.06,0.169-0.089,0.239-0.219,0.239c-0.109,0-0.199-0.09-0.199-0.2c0-0.01,0-0.05,0.05-0.179l3.458-9.496
		c0.03-0.06,0.1-0.09,0.169-0.09c0.11,0,0.199,0.09,0.199,0.199c0,0.01,0,0.05-0.05,0.18L198.871,37.349z"/>
</g>
<g>
	<path d="M207.081,35.097h-3.697c0-0.239,0-0.259,0.11-0.369l1.913-2.132c0.548-0.618,1.046-1.405,1.046-2.202
		c0-0.817-0.428-1.624-1.335-1.624c-0.578,0-1.116,0.369-1.345,1.016c0.03-0.01,0.05-0.01,0.129-0.01
		c0.349,0,0.528,0.259,0.528,0.518c0,0.409-0.349,0.528-0.518,0.528c-0.03,0-0.528,0-0.528-0.558c0-0.887,0.737-1.804,1.863-1.804
		c1.216,0,2.112,0.797,2.112,1.933c0,0.997-0.598,1.535-2.152,2.91l-1.056,1.026h1.793c0.219,0,0.876,0,0.946-0.08
		c0.1-0.149,0.169-0.588,0.219-0.887h0.249L207.081,35.097z"/>
</g>
<g>
	<path d="M213.238,49.742c-0.101,0.431-0.215,0.861-0.315,1.291c-0.072,0.287-0.201,0.789-0.229,0.86
		c-0.115,0.216-0.316,0.302-0.488,0.302c-0.215,0-0.373-0.158-0.373-0.358c0-0.072,0.158-0.746,0.258-1.119
		c0.072-0.258,0.229-0.903,0.287-1.176c0.129-0.517,0.273-1.033,0.402-1.55c0.101-0.444,0.244-1.004,0.244-1.319
		c0-0.43-0.115-0.659-0.444-0.659c-0.574,0-0.846,0.846-1.062,1.692c-0.086,0.329-0.101,0.344-0.215,0.344
		c-0.1,0-0.158-0.071-0.158-0.129s0.201-0.933,0.459-1.448c0.272-0.546,0.603-0.746,1.019-0.746c0.631,0,1.219,0.444,1.262,1.262
		c0.258-0.358,0.932-1.262,2.209-1.262c1.076,0,1.549,0.616,1.592,1.391c0.574-0.846,1.348-1.391,2.31-1.391
		c1.09,0,1.592,0.646,1.592,1.506c0,0.832-0.646,2.524-0.903,3.213c-0.058,0.158-0.229,0.617-0.229,0.989
		c0,0.459,0.229,0.474,0.373,0.474c0.574,0,1.104-0.603,1.435-1.75c0.072-0.243,0.086-0.287,0.215-0.287
		c0.086,0,0.144,0.058,0.144,0.13c0,0.086-0.502,2.194-1.836,2.194c-0.688,0-1.133-0.517-1.133-1.162
		c0-0.258,0.072-0.444,0.201-0.789c0.315-0.86,0.875-2.424,0.875-3.227c0-0.574-0.201-1.004-0.775-1.004
		c-1.578,0-2.323,1.793-2.352,1.907c-0.215,0.875-0.588,2.353-0.861,3.428c-0.129,0.517-0.201,0.847-0.631,0.847
		c-0.215,0-0.373-0.158-0.373-0.358c0-0.058,0.086-0.431,0.144-0.646c0.029-0.158,0.301-1.22,0.416-1.649
		c0.172-0.688,0.172-0.731,0.358-1.478c0.172-0.674,0.172-0.961,0.172-1.047c0-0.574-0.201-1.004-0.775-1.004
		c-0.559,0-1.047,0.229-1.42,0.573c-0.531,0.459-0.889,1.176-0.918,1.263L213.238,49.742z"/>
</g>
<g>
	<path d="M224.788,53.706v1.674c0,0.448,0.11,0.448,0.777,0.448v0.309c-0.349-0.01-0.857-0.029-1.126-0.029
		c-0.259,0-0.777,0.02-1.116,0.029v-0.309c0.668,0,0.777,0,0.777-0.448v-4.663c0-0.438-0.07-0.498-0.777-0.498v-0.31l1.435-0.109
		v0.658c0.199-0.22,0.618-0.658,1.395-0.658c1.116,0,2.083,0.986,2.083,2.252c0,1.285-1.037,2.262-2.222,2.262
		c-0.757,0-1.176-0.538-1.226-0.697V53.706z M224.788,53.068c0,0.199,0,0.209,0.14,0.418c0.269,0.409,0.647,0.608,1.046,0.608
		c0.738,0,1.435-0.837,1.435-2.043c0-1.126-0.608-2.003-1.335-2.003c-0.508,0-0.997,0.289-1.286,0.798V53.068z"/>
</g>
</svg>
