<?xml version="1.0" encoding="iso-8859-1"?>
<!-- Generator: Adobe Illustrator 16.0.0, SVG Export Plug-In . SVG Version: 6.00 Build 0)  -->
<!DOCTYPE svg PUBLIC "-//W3C//DTD SVG 1.1//EN" "http://www.w3.org/Graphics/SVG/1.1/DTD/svg11.dtd">
<svg version="1.1" id="Layer_1" xmlns="http://www.w3.org/2000/svg" xmlns:xlink="http://www.w3.org/1999/xlink" x="0px" y="0px"
	 width="566.929px" height="85.039px" viewBox="0 0 566.929 85.039" style="enable-background:new 0 0 566.929 85.039;"
	 xml:space="preserve">
<g>
	<path d="M33.57,49.122c0,0.114,0,0.172-0.071,0.703c-0.015,0.071-0.187,1.377-0.187,1.721c0,0.646,0.229,0.804,0.588,0.804
		s0.947-0.259,1.291-1.277c0.029-0.114,0.057-0.2,0.172-0.2c0.086,0,0.158,0.043,0.158,0.144c0,0.2-0.502,1.62-1.664,1.62
		c-0.961,0-1.793-0.473-1.793-1.491c0-0.272,0.043-0.431,0.201-1.09c0.101-0.373,0.244-0.933,0.244-1.147
		c0-0.474-0.258-1.334-1.621-1.334h-1.721l-0.961,3.858c-0.028,0.114-0.028,0.215-0.028,0.229c0,0.144,0,0.258,0.875,0.258
		c0.215,0,0.344,0,0.344,0.144c0,0.272-0.158,0.272-0.272,0.272c-0.258,0-0.559-0.028-0.817-0.028h-1.692
		c-0.272,0-0.574,0.028-0.832,0.028c-0.043,0-0.201,0-0.201-0.144c0-0.272,0.1-0.272,0.43-0.272c0.99,0,1.019-0.144,1.147-0.646
		l1.937-7.717c0.057-0.215,0.057-0.301,0.057-0.33c0-0.157,0-0.272-0.861-0.272c-0.272,0-0.373,0-0.373-0.144
		c0-0.272,0.129-0.272,0.416-0.272h3.887c1.994,0,3.127,1.033,3.127,2.152c0,1.233-1.391,2.381-3.17,2.768
		C32.724,47.631,33.57,48.075,33.57,49.122z M29.239,47.286h1.621c2.883,0,3.256-2.108,3.256-2.84c0-1.119-0.918-1.492-2.152-1.492
		h-1.032c-0.56,0-0.617,0.029-0.746,0.559L29.239,47.286z"/>
</g>
<g>
	<path d="M41.488,49.743c-0.04,0.17-0.05,0.199-0.149,0.199c-0.12,0-0.12-0.089-0.12-0.1c0-0.06,0.04-0.239,0.04-0.558
		c0-1.116-0.608-1.545-1.435-1.545c-0.946,0-1.744,0.848-1.744,1.654c0,0.528,0.339,0.817,0.608,0.907
		c0.09,0.02,0.448,0.119,0.667,0.179c0.887,0.229,1.036,0.27,1.266,0.498c0.149,0.14,0.488,0.479,0.488,1.166
		c0,1.235-1.176,2.561-2.531,2.561c-0.578,0-1.255-0.139-1.684-0.717l-0.488,0.567c-0.12,0.14-0.129,0.149-0.179,0.149
		c-0.06,0-0.11-0.039-0.11-0.1c0-0.029,0.558-2.301,0.598-2.341c0.03-0.03,0.05-0.04,0.1-0.04s0.119,0.01,0.119,0.109
		c0,0.021-0.01,0.03-0.02,0.07c-0.01,0.06-0.06,0.299-0.06,0.538c0,1.235,1.106,1.454,1.744,1.454c0.977,0,1.793-0.937,1.793-1.833
		c0-0.817-0.548-0.967-0.917-1.057l-1.066-0.278c-0.508-0.149-1.037-0.608-1.037-1.415c0-1.206,1.196-2.352,2.461-2.352
		c0.647,0,1.166,0.249,1.425,0.717l0.478-0.567c0.12-0.14,0.13-0.149,0.18-0.149c0.089,0,0.109,0.069,0.109,0.1L41.488,49.743z"/>
</g>
<g>
	<path d="M47.999,47.688c-0.215,0-0.459,0-0.459-0.272c0-0.258,0.258-0.258,0.459-0.258h8.448c0.215,0,0.459,0,0.459,0.272
		c0,0.258-0.258,0.258-0.459,0.258H47.999z M47.999,50.355c-0.215,0-0.459,0-0.459-0.272c0-0.258,0.258-0.258,0.459-0.258h8.448
		c0.215,0,0.459,0,0.459,0.272c0,0.258-0.258,0.258-0.459,0.258H47.999z"/>
</g>
<g>
	<path d="M68.809,42.629h-5.235v-0.344l2.897-3.242c0.818-0.918,1.521-1.979,1.521-3.198c0-1.32-0.746-2.338-1.965-2.338
		c-0.932,0-1.707,0.66-1.979,1.635c0.043-0.014,0.072-0.014,0.201-0.014c0.401,0,0.674,0.272,0.674,0.674
		c0,0.459-0.373,0.674-0.674,0.674c-0.043,0-0.674,0-0.674-0.731c0-1.233,0.976-2.653,2.639-2.653c1.664,0,2.969,1.104,2.969,2.754
		c0,1.42-0.803,2.166-2.983,4.174c-0.373,0.344-1.248,1.262-1.635,1.592h2.654c0.43,0,1.248,0,1.348-0.129
		c0.144-0.229,0.258-1.019,0.301-1.262h0.315L68.809,42.629z"/>
</g>
<g>
	<path d="M80.954,41.725c-0.029,0.115-0.029,0.215-0.029,0.229c0,0.144,0,0.258,0.875,0.258c0.215,0,0.344,0,0.344,0.144
		c0,0.272-0.158,0.272-0.272,0.272c-0.244,0-0.545-0.029-0.789-0.029H79.39c-0.244,0-0.531,0.029-0.774,0.029
		c-0.086,0-0.215,0-0.215-0.158c0-0.258,0.144-0.258,0.416-0.258c1.004,0,1.033-0.144,1.162-0.646l2.08-8.305h-0.014l-5.766,9.123
		c-0.072,0.129-0.144,0.244-0.301,0.244c-0.129,0-0.144-0.043-0.187-0.387l-1.19-8.907h-0.014l-1.979,7.903
		c-0.058,0.201-0.058,0.215-0.058,0.358c0,0.516,0.459,0.603,0.933,0.617c0.057,0,0.201,0.015,0.201,0.144
		c0,0.272-0.158,0.272-0.258,0.272c-0.201,0-0.444-0.029-0.646-0.029h-0.688c-0.287,0-1.018,0.029-1.305,0.029
		c-0.057,0-0.187,0-0.187-0.158c0-0.244,0.172-0.258,0.215-0.258c0.961-0.043,1.291-0.358,1.463-1.047l1.836-7.315
		c0.058-0.215,0.058-0.301,0.058-0.33c0-0.158,0-0.272-0.875-0.272c-0.215,0-0.344,0-0.344-0.144c0-0.272,0.129-0.272,0.401-0.272
		h1.779c0.373,0,0.387,0,0.43,0.315l1.076,8.205l5.235-8.276c0.158-0.229,0.172-0.244,0.531-0.244h1.721
		c0.272,0,0.373,0,0.373,0.144c0,0.272-0.129,0.272-0.402,0.272c-1.018,0-1.047,0.143-1.176,0.631L80.954,41.725z"/>
	<path d="M94.773,36.318c-0.057,0.258-0.072,0.272-0.229,0.272c-0.043,0-0.187,0-0.187-0.129c0-0.201,0.058-0.517,0.058-0.746
		c0-1.319-0.603-2.768-2.295-2.768c-1.262,0-2.596,0.703-3.5,1.735c-1.391,1.621-1.735,3.815-1.735,4.776
		c0,2.481,1.793,3.055,2.897,3.055c0.846,0,1.979-0.33,2.524-1.133c0.272-0.43,0.545-1.879,0.545-1.893c0-0.215,0-0.33-1.133-0.33
		h-0.358c0-0.014-0.115-0.014-0.115-0.158c0-0.258,0.172-0.258,0.301-0.258c0.588,0,1.219,0.029,1.821,0.029h0.775
		c0.258,0,0.531-0.029,0.774-0.029c0.043,0,0.187,0,0.187,0.144c0,0.272-0.172,0.272-0.229,0.272
		c-0.789,0.015-0.818,0.058-0.961,0.603c-0.101,0.43-0.158,0.631-0.273,1.104l-0.229,0.918c-0.071,0.258-0.186,0.76-0.201,0.789
		c-0.014,0-0.029,0.043-0.1,0.043c-0.101,0-0.416-0.387-0.574-0.933c-0.717,0.904-2.022,1.248-3.055,1.248
		c-2.151,0-3.787-1.521-3.787-3.887c0-3.385,3.227-6.512,6.296-6.512c0.215,0,0.832,0,1.449,0.387
		c0.56,0.33,0.846,0.832,0.918,0.947l0.99-1.19c0.115-0.144,0.172-0.144,0.201-0.144c0.029,0,0.129,0,0.129,0.129L94.773,36.318z"/>
</g>
<g>
	<rect x="62.871" y="48.461" width="33.192" height="0.574"/>
</g>
<g>
	<path d="M78.051,56.137c-0.904,0-1.678,0.774-2.051,1.448c-0.517,0.976-0.76,2.366-0.76,2.868c0,0.718,0.315,1.578,1.305,1.578
		c0.545,0,1.908-0.215,2.826-1.435c0.129-0.129,0.144-0.144,0.187-0.144c0.057,0,0.144,0.072,0.144,0.158
		c0,0.187-1.234,1.707-3.184,1.707c-1.463,0-2.238-1.133-2.238-2.381c0-2.037,1.879-4.088,3.758-4.088
		c0.99,0,1.649,0.53,1.649,1.219c0,0.574-0.387,0.861-0.731,0.861c-0.272,0-0.488-0.173-0.488-0.459c0-0.23,0.158-0.445,0.244-0.517
		c0.201-0.173,0.33-0.173,0.603-0.173C79.026,56.165,78.237,56.137,78.051,56.137z"/>
</g>
<g>
	<path d="M83.945,58.031h-3.697c0-0.239,0-0.259,0.11-0.369l1.913-2.132c0.548-0.618,1.046-1.405,1.046-2.202
		c0-0.817-0.428-1.624-1.335-1.624c-0.578,0-1.116,0.369-1.345,1.017c0.03-0.01,0.05-0.01,0.129-0.01
		c0.349,0,0.528,0.259,0.528,0.518c0,0.408-0.349,0.528-0.518,0.528c-0.03,0-0.528,0-0.528-0.559c0-0.887,0.737-1.803,1.863-1.803
		c1.216,0,2.112,0.797,2.112,1.933c0,0.996-0.598,1.534-2.152,2.909l-1.056,1.026h1.793c0.219,0,0.876,0,0.946-0.079
		c0.1-0.149,0.169-0.588,0.219-0.887h0.249L83.945,58.031z"/>
</g>
</svg>
