<?xml version="1.0" encoding="iso-8859-1"?>
<!-- Generator: Adobe Illustrator 16.0.0, SVG Export Plug-In . SVG Version: 6.00 Build 0)  -->
<!DOCTYPE svg PUBLIC "-//W3C//DTD SVG 1.1//EN" "http://www.w3.org/Graphics/SVG/1.1/DTD/svg11.dtd">
<svg version="1.1" id="Layer_1" xmlns="http://www.w3.org/2000/svg" xmlns:xlink="http://www.w3.org/1999/xlink" x="0px" y="0px"
	 width="566.929px" height="85.039px" viewBox="0 0 566.929 85.039" style="enable-background:new 0 0 566.929 85.039;"
	 xml:space="preserve">
<g>
	<path d="M31.565,41.126c-0.373,0-0.688-0.315-0.688-0.688c0-0.387,0.301-0.703,0.703-0.703c0.344,0,0.688,0.272,0.688,0.703
		C32.268,40.782,31.996,41.126,31.565,41.126z"/>
</g>
<g>
	<path d="M28.235,51.997c-0.014,0.071-0.029,0.172-0.029,0.243c0,0.144,0.015,0.244,0.875,0.244c0.215,0,0.344,0,0.344,0.144
		c0,0.272-0.158,0.272-0.272,0.272c-0.272,0-0.574-0.028-0.846-0.028h-1.678c-0.272,0-0.56,0.028-0.832,0.028
		c-0.086,0-0.215,0-0.215-0.158c0-0.258,0.143-0.258,0.416-0.258c1.004,0,1.033-0.144,1.162-0.646l1.937-7.717
		c0.057-0.215,0.057-0.301,0.057-0.33c0-0.157,0-0.272-0.875-0.272c-0.215,0-0.344,0-0.344-0.143c0-0.273,0.129-0.273,0.402-0.273
		h4.432c1.807,0,2.754,1.019,2.754,2.138c0,1.635-1.979,3.098-3.959,3.098h-2.41L28.235,51.997z M29.21,47.995h2.022
		c1.306,0,1.994-0.545,2.238-0.804c0.66-0.659,0.846-1.879,0.846-2.252c0-1.075-0.889-1.42-1.965-1.42h-1.42
		c-0.56,0-0.617,0.029-0.746,0.56L29.21,47.995z"/>
</g>
<g>
	<path d="M35.605,51.245c0.299-0.309,0.708-0.598,1.166-0.598c0.797,0,1.325,0.688,1.325,1.595c0,1.435-1.226,2.919-2.401,2.919
		c-0.737,0-1.266-0.617-1.266-1.564c0-0.349,0.04-0.508,0.16-1.006l0.817-3.248c0.05-0.21,0.14-0.549,0.14-0.618
		c0-0.1-0.02-0.169-0.499-0.169c-0.149,0-0.239,0-0.239-0.12c0-0.18,0.109-0.189,0.189-0.199c0.259-0.02,0.986-0.1,1.216-0.1
		c0.129,0,0.129,0.1,0.129,0.109L35.605,51.245z M35.187,52.93c-0.16,0.628-0.16,0.816-0.16,1.006c0,0.737,0.329,1.007,0.668,1.007
		c0.389,0,0.847-0.359,1.176-1.026c0.179-0.379,0.508-1.524,0.508-2.112c0-0.638-0.269-0.937-0.627-0.937
		c-0.259,0-0.708,0.149-1.196,0.797c-0.09,0.109-0.09,0.13-0.149,0.349L35.187,52.93z"/>
	<path d="M39.353,56.975c-0.05,0-0.1-0.04-0.1-0.109c0-0.03,0-0.05,0.11-0.159c0.329-0.329,0.678-0.927,0.678-1.664
		c0-0.14-0.01-0.149-0.02-0.149c-0.01,0-0.02,0.01-0.05,0.029c-0.1,0.09-0.229,0.13-0.349,0.13c-0.329,0-0.528-0.259-0.528-0.528
		c0-0.278,0.199-0.528,0.528-0.528c0.389,0,0.638,0.389,0.638,1.047C40.259,56.208,39.462,56.975,39.353,56.975z"/>
</g>
<g>
	<path d="M45.049,55.271c-1.893,0-3.487-1.584-3.487-3.626c0-2.043,1.614-3.617,3.467-3.617c0.986,0,1.524,0.538,1.843,0.856
		l0.499-0.737c0.08-0.119,0.119-0.119,0.159-0.119c0.11,0,0.11,0.069,0.11,0.239v2.361c0,0.209,0,0.239-0.16,0.239
		c-0.14,0-0.14-0.03-0.159-0.17c-0.2-1.465-1.106-2.361-2.172-2.361c-0.598,0-2.561,0.329-2.561,3.309
		c0,2.969,1.973,3.317,2.62,3.317c0.279,0,1.544-0.09,1.544-1.205v-0.638c0-0.369-0.03-0.479-0.926-0.479h-0.319v-0.309
		c0.358,0.029,1.206,0.029,1.604,0.029c0.299,0,0.847-0.02,1.216-0.029v0.309c-0.648,0-0.688,0.05-0.688,0.438v1.733
		c0,0.149,0,0.229-0.09,0.229c-0.11,0-0.508-0.398-0.638-0.618C46.574,55.012,45.777,55.271,45.049,55.271z"/>
	<path d="M54.372,52.82l0.13,0.797c0.139,0.927,0.219,1.435,0.707,1.435c0.25,0,0.598-0.18,0.658-0.887
		c0.01-0.069,0.01-0.159,0.12-0.159c0.129,0,0.129,0.109,0.129,0.169c0,0.279-0.169,1.096-0.946,1.096
		c-0.299,0-0.847-0.06-1.255-0.418c-0.409-0.379-0.409-0.777-0.409-1.425c0-0.668,0-0.977-0.379-1.335
		c-0.349-0.339-0.767-0.339-0.926-0.339h-1.146v2.521c0,0.358,0.02,0.469,0.787,0.469h0.239v0.309
		c-0.359-0.03-1.066-0.03-1.455-0.03c-0.389,0-1.096,0-1.455,0.03v-0.309h0.239c0.767,0,0.787-0.11,0.787-0.469v-5.251
		c0-0.358-0.02-0.468-0.787-0.468H49.17v-0.31h3.129c1.464,0,2.601,0.837,2.601,1.794c0,0.777-0.777,1.385-1.744,1.624
		C53.704,51.854,54.192,52.182,54.372,52.82z M52.16,51.534c1.475,0,1.714-0.807,1.714-1.494c0-1.445-1.116-1.484-2.013-1.484
		c-0.199,0-0.488,0-0.588,0.02c-0.219,0.03-0.219,0.149-0.219,0.379v2.58H52.16z"/>
</g>
<g>
	<path d="M61.873,48.253c-0.215,0-0.459,0-0.459-0.272c0-0.258,0.258-0.258,0.459-0.258h8.448c0.215,0,0.459,0,0.459,0.272
		c0,0.258-0.258,0.258-0.459,0.258H61.873z M61.873,50.921c-0.215,0-0.459,0-0.459-0.272c0-0.258,0.258-0.258,0.459-0.258h8.448
		c0.215,0,0.459,0,0.459,0.272c0,0.258-0.258,0.258-0.459,0.258H61.873z"/>
</g>
<g>
	<path d="M77.213,49.602c-0.201,0-0.474,0-0.474-0.287s0.272-0.287,0.474-0.287h7.817c0.201,0,0.473,0,0.473,0.287
		s-0.272,0.287-0.473,0.287H77.213z"/>
</g>
<g>
	<path d="M92.034,42.091c0,0.517,0.043,0.688,1.305,0.688h0.445v0.416c-0.387-0.028-1.764-0.028-2.238-0.028
		c-0.473,0-1.864,0-2.252,0.028v-0.416h0.445c1.262,0,1.305-0.172,1.305-0.688v-7.473c-0.789,0.373-1.506,0.373-1.836,0.373v-0.416
		c1.478,0,2.194-0.531,2.539-0.918c0.287,0,0.287,0.014,0.287,0.344V42.091z"/>
	<path d="M100.176,38.548c-0.287,0.732-0.832,1.506-1.893,1.506c-1.435,0-2.769-1.291-2.769-3.184c0-1.894,1.392-3.213,2.969-3.213
		c1.262,0,2.869,0.961,2.869,4.819c0,3.112-1.735,5.02-3.528,5.02c-1.248,0-1.965-0.602-1.965-1.491
		c0-0.373,0.229-0.617,0.603-0.617s0.588,0.272,0.588,0.588c0,0.531-0.516,0.617-0.617,0.588h-0.086
		c0.359,0.502,1.119,0.545,1.463,0.545c0.861,0,2.367-0.703,2.367-4.088V38.548z M100.147,37.186c0-0.215,0-1.435-0.287-2.137
		c-0.144-0.33-0.56-1.047-1.377-1.047c-0.774,0-1.162,0.416-1.42,0.803c-0.373,0.588-0.373,1.276-0.373,2.08
		c0,0.646,0,1.334,0.229,1.879c0.129,0.272,0.517,1.004,1.42,1.004C99.602,39.767,100.147,38.39,100.147,37.186z"/>
	<path d="M107.888,43.195h-5.235v-0.344l2.897-3.242c0.817-0.918,1.521-1.979,1.521-3.198c0-1.32-0.746-2.338-1.965-2.338
		c-0.933,0-1.707,0.66-1.979,1.635c0.043-0.014,0.072-0.014,0.201-0.014c0.402,0,0.674,0.272,0.674,0.674
		c0,0.459-0.373,0.674-0.674,0.674c-0.043,0-0.674,0-0.674-0.731c0-1.233,0.976-2.653,2.639-2.653c1.664,0,2.969,1.104,2.969,2.754
		c0,1.42-0.803,2.166-2.983,4.174c-0.373,0.344-1.248,1.262-1.635,1.592h2.654c0.43,0,1.248,0,1.348-0.129
		c0.144-0.229,0.258-1.019,0.301-1.262h0.315L107.888,43.195z"/>
</g>
<g>
	<path d="M111.857,41.029c-0.143,0.574-0.143,0.603-0.373,1.334c-0.172,0.603-0.287,0.976-0.703,0.976
		c-0.129,0-0.387-0.072-0.387-0.373c0-0.086,0-0.115,0.115-0.344c1.176-2.51,1.535-3.758,1.851-4.833h-0.818
		c-0.358,0-1.104,0-1.85,1.176c-0.072,0.086-0.086,0.129-0.187,0.129c-0.086,0-0.158-0.029-0.158-0.115s0.459-0.846,0.832-1.262
		c0.66-0.703,1.147-0.703,1.478-0.703h4.719c0.258,0,0.531,0,0.531,0.316c0,0.459-0.473,0.459-0.66,0.459h-1.606
		c-0.301,1.291-0.301,2.309-0.301,2.395c0,0.101,0,1.334,0.387,2.324c0.101,0.215,0.101,0.244,0.101,0.315
		c0,0.244-0.258,0.517-0.56,0.517c-0.588,0-0.588-1.549-0.588-1.75c0-1.147,0.244-2.194,0.631-3.801h-1.621L111.857,41.029z"/>
	<path d="M127.255,36.884c-0.057,0.258-0.072,0.272-0.229,0.272c-0.043,0-0.187,0-0.187-0.129c0-0.201,0.058-0.517,0.058-0.746
		c0-1.319-0.603-2.768-2.295-2.768c-1.262,0-2.596,0.703-3.5,1.735c-1.391,1.621-1.735,3.815-1.735,4.776
		c0,2.481,1.793,3.055,2.897,3.055c0.846,0,1.979-0.33,2.524-1.133c0.272-0.43,0.545-1.879,0.545-1.893c0-0.215,0-0.33-1.133-0.33
		h-0.358c0-0.014-0.115-0.014-0.115-0.158c0-0.258,0.172-0.258,0.301-0.258c0.588,0,1.219,0.029,1.821,0.029h0.775
		c0.258,0,0.53-0.029,0.774-0.029c0.043,0,0.187,0,0.187,0.144c0,0.272-0.172,0.272-0.229,0.272
		c-0.789,0.015-0.818,0.058-0.961,0.603c-0.101,0.43-0.158,0.631-0.272,1.104l-0.229,0.918c-0.072,0.258-0.187,0.76-0.201,0.789
		c-0.014,0-0.028,0.043-0.1,0.043c-0.101,0-0.416-0.387-0.574-0.932c-0.717,0.904-2.022,1.248-3.055,1.248
		c-2.152,0-3.787-1.52-3.787-3.887c0-3.385,3.227-6.512,6.296-6.512c0.215,0,0.832,0,1.449,0.387c0.56,0.33,0.846,0.832,0.918,0.947
		l0.99-1.19c0.115-0.144,0.172-0.144,0.201-0.144c0.029,0,0.129,0,0.129,0.129L127.255,36.884z"/>
</g>
<g>
	<path d="M130.839,38.208c-1.116,0-1.804-0.966-1.804-1.823c0-0.458,0.349-0.528,0.488-0.528c0.329,0,0.499,0.249,0.499,0.488
		s-0.169,0.488-0.499,0.488c-0.109,0-0.139-0.01-0.169-0.02c0.169,0.588,0.737,1.116,1.465,1.116c0.458,0,0.827-0.259,1.066-0.648
		c0.239-0.418,0.239-1.016,0.239-1.365c0-0.499-0.02-0.887-0.179-1.256c-0.08-0.179-0.329-0.638-0.847-0.638
		c-0.807,0-1.176,0.538-1.285,0.698c-0.04,0.06-0.06,0.089-0.129,0.089c-0.14,0-0.14-0.08-0.14-0.259v-2.949
		c0-0.16,0-0.239,0.1-0.239c0.02,0,0.04,0,0.12,0.03c0.468,0.209,0.927,0.279,1.325,0.279c0.667,0,1.156-0.199,1.355-0.289
		c0.05-0.03,0.07-0.03,0.08-0.03c0.07,0,0.1,0.05,0.1,0.11c0,0.129-0.698,1.036-1.923,1.036c-0.319,0-0.647-0.07-0.847-0.129v1.943
		c0.358-0.349,0.787-0.508,1.265-0.508c1.076,0,1.893,0.997,1.893,2.182C133.011,37.251,131.995,38.208,130.839,38.208z"/>
</g>
<g>
	<path d="M134.484,40.24c-0.06,0.169-0.089,0.239-0.219,0.239c-0.109,0-0.199-0.09-0.199-0.2c0-0.01,0-0.05,0.05-0.179l3.458-9.496
		c0.03-0.06,0.1-0.09,0.169-0.09c0.11,0,0.199,0.09,0.199,0.199c0,0.01,0,0.05-0.05,0.18L134.484,40.24z"/>
</g>
<g>
	<path d="M143.054,36.285c0,1.016-0.907,1.923-2.123,1.923c-1.086,0-2.013-0.658-2.013-1.564c0-0.438,0.319-0.578,0.558-0.578
		c0.289,0,0.558,0.199,0.558,0.558c0,0.379-0.309,0.598-0.658,0.548c0.349,0.588,1.096,0.757,1.524,0.757
		c0.438,0,1.126-0.289,1.126-1.644c0-0.977-0.369-1.654-1.186-1.654h-0.438c-0.169,0-0.239,0-0.239-0.109
		c0-0.1,0.07-0.11,0.149-0.12c0.07,0,0.309-0.02,0.389-0.03c0.249-0.01,0.588-0.04,0.887-0.519c0.259-0.438,0.279-1.016,0.279-1.136
		c0-0.896-0.548-1.116-0.957-1.116c-0.358,0-1.016,0.129-1.325,0.618c0.149,0,0.618,0,0.618,0.498c0,0.289-0.199,0.508-0.508,0.508
		c-0.289,0-0.508-0.189-0.508-0.518c0-0.757,0.757-1.355,1.764-1.355c0.957,0,1.833,0.558,1.833,1.375
		c0,0.787-0.578,1.484-1.395,1.753C142.426,34.69,143.054,35.467,143.054,36.285z"/>
</g>
<g>
	<rect x="87.903" y="49.026" width="56.076" height="0.574"/>
</g>
<g>
	<path d="M108.503,57.491c0.373-0.401,1.004-0.76,1.822-0.76c1.506,0,2.653,1.42,2.653,3.127c0,1.821-1.42,3.184-3.041,3.184
		c-1.592,0-2.568-1.391-2.568-2.61c0-0.559,0.373-0.688,0.631-0.688c0.358,0,0.631,0.229,0.631,0.632
		c0,0.487-0.387,0.631-0.631,0.631c-0.072,0-0.158-0.015-0.229-0.043c0.258,1.047,1.19,1.692,2.137,1.692
		c0.631,0,1.19-0.358,1.506-0.875c0.402-0.646,0.402-1.463,0.402-2.008s-0.015-1.248-0.258-1.808
		c-0.115-0.244-0.488-0.946-1.248-0.946c-0.717,0-1.391,0.344-1.793,0.932c-0.143,0.173-0.158,0.187-0.229,0.187
		c-0.172,0-0.172-0.086-0.172-0.344v-4.26c0-0.229,0-0.316,0.115-0.316c0.014,0,0.043,0,0.144,0.044
		c0.272,0.114,0.946,0.401,1.893,0.401c0.373,0,1.062-0.043,1.865-0.388c0.129-0.058,0.158-0.058,0.187-0.058
		c0.086,0,0.115,0.072,0.115,0.13c0,0.2-1.033,1.391-2.654,1.391c-0.158,0-0.66-0.014-1.276-0.215V57.491z"/>
</g>
<g>
	<path d="M118.036,56.703c-0.904,0-1.678,0.774-2.051,1.448c-0.516,0.976-0.76,2.366-0.76,2.868c0,0.718,0.315,1.578,1.305,1.578
		c0.545,0,1.908-0.215,2.826-1.435c0.129-0.129,0.144-0.144,0.187-0.144c0.058,0,0.144,0.072,0.144,0.158
		c0,0.187-1.233,1.707-3.185,1.707c-1.463,0-2.237-1.133-2.237-2.381c0-2.037,1.879-4.088,3.758-4.088
		c0.99,0,1.649,0.53,1.649,1.219c0,0.574-0.387,0.861-0.731,0.861c-0.272,0-0.487-0.173-0.487-0.459c0-0.23,0.158-0.445,0.244-0.517
		c0.201-0.173,0.33-0.173,0.603-0.173C119.011,56.731,118.223,56.703,118.036,56.703z"/>
</g>
<g>
	<path d="M122.038,58.814c-1.116,0-1.804-0.966-1.804-1.823c0-0.458,0.349-0.527,0.488-0.527c0.329,0,0.499,0.249,0.499,0.487
		c0,0.239-0.169,0.488-0.499,0.488c-0.109,0-0.139-0.01-0.169-0.02c0.169,0.588,0.737,1.116,1.465,1.116
		c0.458,0,0.827-0.259,1.066-0.647c0.239-0.419,0.239-1.017,0.239-1.365c0-0.498-0.02-0.887-0.179-1.256
		c-0.08-0.18-0.329-0.638-0.847-0.638c-0.807,0-1.176,0.538-1.285,0.697c-0.04,0.061-0.06,0.09-0.129,0.09
		c-0.14,0-0.14-0.079-0.14-0.259v-2.949c0-0.159,0-0.239,0.1-0.239c0.02,0,0.04,0,0.12,0.03c0.468,0.209,0.927,0.278,1.325,0.278
		c0.667,0,1.156-0.199,1.355-0.289c0.05-0.029,0.07-0.029,0.08-0.029c0.069,0,0.1,0.05,0.1,0.109c0,0.13-0.698,1.036-1.923,1.036
		c-0.319,0-0.647-0.069-0.847-0.13v1.943c0.358-0.349,0.787-0.508,1.265-0.508c1.076,0,1.893,0.996,1.893,2.182
		C124.209,57.858,123.193,58.814,122.038,58.814z"/>
</g>
<g>
	<path d="M157.305,66.508c-0.201,0-0.229,0-0.402-0.172c-0.588-0.517-1.133-1.104-1.42-1.435c-3.643-4.289-4.934-9.969-4.934-15.605
		c0-6.039,1.506-12.608,6.311-16.982c0.215-0.215,0.244-0.215,0.445-0.215c0.201,0,0.301,0,0.301,0.144c0,0.043,0,0.072-0.043,0.115
		c-0.631,0.631-1.807,1.807-2.94,3.844c-2.367,4.274-2.883,9.252-2.883,13.11c0,5.521,1.047,10.184,3.356,13.884
		c0.961,1.549,1.922,2.51,2.453,3.041c0.029,0.043,0.058,0.071,0.058,0.129C157.606,66.508,157.506,66.508,157.305,66.508z"/>
</g>
<g>
	<path d="M163.489,42.292c-0.014,0.072-0.029,0.172-0.029,0.244c0,0.143,0.015,0.244,0.875,0.244c0.215,0,0.344,0,0.344,0.144
		c0,0.272-0.158,0.272-0.272,0.272c-0.272,0-0.574-0.028-0.846-0.028h-1.678c-0.272,0-0.56,0.028-0.832,0.028
		c-0.086,0-0.215,0-0.215-0.158c0-0.258,0.143-0.258,0.416-0.258c1.004,0,1.033-0.144,1.162-0.646l1.937-7.717
		c0.057-0.215,0.057-0.301,0.057-0.33c0-0.158,0-0.272-0.875-0.272c-0.215,0-0.344,0-0.344-0.144c0-0.272,0.129-0.272,0.402-0.272
		h4.432c1.807,0,2.754,1.018,2.754,2.137c0,1.635-1.979,3.098-3.959,3.098h-2.41L163.489,42.292z M164.464,38.29h2.022
		c1.306,0,1.994-0.545,2.238-0.803c0.66-0.66,0.846-1.879,0.846-2.252c0-1.076-0.889-1.42-1.965-1.42h-1.42
		c-0.56,0-0.617,0.029-0.746,0.559L164.464,38.29z"/>
</g>
<g>
	<path d="M170.859,41.54c0.299-0.309,0.708-0.598,1.166-0.598c0.797,0,1.325,0.688,1.325,1.594c0,1.435-1.226,2.919-2.401,2.919
		c-0.737,0-1.266-0.617-1.266-1.564c0-0.349,0.04-0.508,0.16-1.006l0.817-3.249c0.05-0.209,0.14-0.548,0.14-0.618
		c0-0.1-0.02-0.169-0.499-0.169c-0.149,0-0.239,0-0.239-0.12c0-0.179,0.109-0.189,0.189-0.199c0.259-0.02,0.986-0.1,1.216-0.1
		c0.129,0,0.129,0.1,0.129,0.11L170.859,41.54z M170.44,43.224c-0.16,0.628-0.16,0.816-0.16,1.006c0,0.737,0.329,1.007,0.668,1.007
		c0.389,0,0.847-0.359,1.176-1.026c0.179-0.379,0.508-1.524,0.508-2.112c0-0.638-0.269-0.937-0.627-0.937
		c-0.259,0-0.708,0.149-1.196,0.797c-0.09,0.109-0.09,0.129-0.149,0.349L170.44,43.224z"/>
</g>
<g>
	<rect x="159.322" y="49.026" width="15.507" height="0.574"/>
</g>
<g>
	<path d="M165.26,62.741h-5.235v-0.345l2.897-3.241c0.817-0.918,1.521-1.979,1.521-3.198c0-1.319-0.746-2.338-1.965-2.338
		c-0.933,0-1.707,0.659-1.979,1.635c0.043-0.015,0.072-0.015,0.201-0.015c0.402,0,0.674,0.272,0.674,0.675
		c0,0.459-0.373,0.674-0.674,0.674c-0.043,0-0.674,0-0.674-0.731c0-1.233,0.976-2.653,2.639-2.653c1.664,0,2.969,1.104,2.969,2.754
		c0,1.42-0.803,2.166-2.983,4.174c-0.373,0.344-1.248,1.262-1.635,1.592h2.654c0.43,0,1.248,0,1.348-0.129
		c0.144-0.229,0.258-1.019,0.301-1.262h0.315L165.26,62.741z"/>
</g>
<g>
	<path d="M169.228,60.575c-0.143,0.574-0.143,0.603-0.373,1.334c-0.172,0.603-0.287,0.976-0.703,0.976
		c-0.129,0-0.387-0.072-0.387-0.373c0-0.086,0-0.115,0.115-0.344c1.176-2.511,1.535-3.759,1.851-4.834h-0.818
		c-0.358,0-1.104,0-1.85,1.176c-0.072,0.086-0.086,0.129-0.187,0.129c-0.086,0-0.158-0.028-0.158-0.114s0.459-0.847,0.832-1.263
		c0.66-0.702,1.147-0.702,1.478-0.702h4.719c0.258,0,0.531,0,0.531,0.315c0,0.459-0.473,0.459-0.66,0.459h-1.606
		c-0.301,1.291-0.301,2.309-0.301,2.396c0,0.1,0,1.334,0.387,2.323c0.101,0.215,0.101,0.244,0.101,0.315
		c0,0.244-0.258,0.517-0.56,0.517c-0.588,0-0.588-1.549-0.588-1.75c0-1.147,0.244-2.194,0.631-3.801h-1.621L169.228,60.575z"/>
</g>
<g>
	<path d="M177.272,66.293c-0.215,0.215-0.244,0.215-0.445,0.215c-0.172,0-0.301,0-0.301-0.144c0-0.043,0.029-0.086,0.058-0.129
		c0.602-0.603,1.792-1.793,2.926-3.83c2.367-4.274,2.883-9.251,2.883-13.109c0-5.522-1.047-10.184-3.356-13.884
		c-0.961-1.549-1.922-2.51-2.424-3.027c-0.028-0.028-0.086-0.086-0.086-0.143c0-0.144,0.129-0.144,0.301-0.144
		c0.201,0,0.229,0,0.401,0.172c0.588,0.516,1.133,1.104,1.42,1.434c3.643,4.289,4.934,9.968,4.934,15.606
		C183.583,55.349,182.077,61.918,177.272,66.293z"/>
</g>
<g>
	<path d="M187.74,33.652c-0.14,0-0.329,0-0.329-0.2c0-0.199,0.189-0.199,0.329-0.199h5.431c0.139,0,0.329,0,0.329,0.199
		c0,0.2-0.189,0.2-0.329,0.2H187.74z"/>
</g>
<g>
	<path d="M196.635,36.163c-1.116,0-1.804-0.966-1.804-1.823c0-0.458,0.349-0.528,0.488-0.528c0.329,0,0.499,0.249,0.499,0.488
		s-0.169,0.488-0.499,0.488c-0.109,0-0.139-0.01-0.169-0.02c0.169,0.588,0.737,1.116,1.465,1.116c0.458,0,0.827-0.259,1.066-0.648
		c0.239-0.418,0.239-1.016,0.239-1.365c0-0.498-0.02-0.887-0.179-1.255c-0.08-0.179-0.329-0.638-0.847-0.638
		c-0.807,0-1.176,0.538-1.285,0.698c-0.04,0.06-0.06,0.089-0.129,0.089c-0.14,0-0.14-0.08-0.14-0.259v-2.949
		c0-0.16,0-0.239,0.1-0.239c0.02,0,0.04,0,0.12,0.03c0.468,0.209,0.927,0.279,1.325,0.279c0.667,0,1.156-0.199,1.355-0.289
		c0.05-0.03,0.07-0.03,0.08-0.03c0.07,0,0.1,0.05,0.1,0.11c0,0.129-0.698,1.036-1.923,1.036c-0.319,0-0.647-0.07-0.847-0.129v1.943
		c0.358-0.349,0.787-0.508,1.265-0.508c1.076,0,1.893,0.997,1.893,2.182C198.807,35.207,197.791,36.163,196.635,36.163z"/>
</g>
<g>
	<path d="M200.28,38.196c-0.06,0.169-0.089,0.239-0.219,0.239c-0.109,0-0.199-0.09-0.199-0.2c0-0.01,0-0.05,0.05-0.179l3.458-9.496
		c0.03-0.06,0.1-0.09,0.169-0.09c0.11,0,0.199,0.09,0.199,0.199c0,0.01,0,0.05-0.05,0.18L200.28,38.196z"/>
</g>
<g>
	<path d="M208.85,34.24c0,1.016-0.907,1.923-2.123,1.923c-1.086,0-2.013-0.658-2.013-1.564c0-0.438,0.319-0.578,0.558-0.578
		c0.289,0,0.558,0.199,0.558,0.558c0,0.379-0.309,0.598-0.658,0.548c0.349,0.588,1.096,0.757,1.524,0.757
		c0.438,0,1.126-0.289,1.126-1.644c0-0.977-0.369-1.654-1.186-1.654h-0.438c-0.169,0-0.239,0-0.239-0.109
		c0-0.1,0.07-0.11,0.149-0.12c0.07,0,0.309-0.02,0.389-0.03c0.249-0.01,0.588-0.04,0.887-0.519c0.259-0.438,0.279-1.016,0.279-1.136
		c0-0.896-0.548-1.116-0.957-1.116c-0.358,0-1.016,0.129-1.325,0.618c0.149,0,0.618,0,0.618,0.498c0,0.289-0.199,0.508-0.508,0.508
		c-0.289,0-0.508-0.189-0.508-0.518c0-0.757,0.757-1.355,1.764-1.355c0.957,0,1.833,0.558,1.833,1.375
		c0,0.788-0.578,1.485-1.395,1.754C208.222,32.646,208.85,33.423,208.85,34.24z"/>
</g>
<g>
	<path d="M217.917,57.903c-0.258,0-1.19-1.091-1.334-1.263c-1.879-2.424-2.237-5.307-2.237-7.344c0-3.198,0.932-5.78,2.396-7.516
		c0.186-0.215,0.961-1.076,1.176-1.076c0.058,0,0.172,0,0.172,0.143c0,0.029,0,0.058-0.129,0.187
		c-1.721,1.865-2.625,4.504-2.625,8.276c0,1.334,0.129,2.812,0.459,4.116c0.603,2.338,1.578,3.5,2.237,4.203
		c0.029,0.043,0.058,0.071,0.058,0.129C218.09,57.903,217.975,57.903,217.917,57.903z"/>
</g>
<g>
	<path d="M222.873,51.796c0,0.517,0.043,0.688,1.305,0.688h0.445V52.9c-0.387-0.028-1.764-0.028-2.238-0.028
		c-0.473,0-1.865,0-2.252,0.028v-0.416h0.445c1.262,0,1.305-0.172,1.305-0.688v-7.473c-0.789,0.373-1.506,0.373-1.836,0.373V44.28
		c1.478,0,2.195-0.531,2.539-0.918c0.287,0,0.287,0.015,0.287,0.344V51.796z"/>
</g>
<g>
	<path d="M230.617,49.602c-0.201,0-0.474,0-0.474-0.287s0.272-0.287,0.474-0.287h7.817c0.201,0,0.473,0,0.473,0.287
		s-0.272,0.287-0.473,0.287H230.617z"/>
</g>
<g>
	<path d="M245.106,49.572c-0.215,0.918-0.215,1.277-0.215,1.478c0,1.062,0.43,1.707,1.248,1.707c0.545,0,1.908-0.215,2.826-1.435
		c0.129-0.129,0.144-0.143,0.187-0.143c0.057,0,0.144,0.071,0.144,0.157c0,0.187-1.234,1.707-3.184,1.707
		c-1.306,0-2.166-1.047-2.166-2.554c0-2.553,2.166-3.915,3.672-3.915c0.947,0,1.492,0.573,1.492,1.205
		c0,0.258-0.101,1.09-1.19,1.506c-0.688,0.258-1.664,0.286-2.051,0.286H245.106z M245.78,49.286c0.603,0,2.897,0,2.897-1.506
		c0-0.546-0.431-0.918-1.062-0.918c-0.459,0-1.822,0.215-2.438,2.424H245.78z"/>
</g>
<g>
	<path d="M254.005,46.976h-3.697c0-0.239,0-0.259,0.11-0.369l1.913-2.132c0.548-0.618,1.046-1.405,1.046-2.202
		c0-0.817-0.428-1.624-1.335-1.624c-0.578,0-1.116,0.369-1.345,1.016c0.03-0.01,0.05-0.01,0.129-0.01
		c0.349,0,0.528,0.259,0.528,0.518c0,0.409-0.349,0.528-0.518,0.528c-0.03,0-0.528,0-0.528-0.558c0-0.887,0.737-1.804,1.863-1.804
		c1.216,0,2.112,0.797,2.112,1.933c0,0.996-0.598,1.534-2.152,2.909l-1.056,1.026h1.793c0.219,0,0.876,0,0.946-0.079
		c0.1-0.149,0.169-0.588,0.219-0.887h0.249L254.005,46.976z"/>
</g>
<g>
	<path d="M257.269,56.827c-0.172,0.201-0.961,1.076-1.176,1.076c-0.072,0-0.172-0.029-0.172-0.144c0-0.028,0-0.058,0.129-0.187
		c0.731-0.804,1.578-1.95,2.123-3.959c0.373-1.405,0.502-2.868,0.502-4.317c0-1.334-0.129-2.811-0.459-4.116
		c-0.588-2.281-1.52-3.442-2.208-4.188c-0.058-0.043-0.086-0.086-0.086-0.143c0-0.115,0.101-0.144,0.172-0.144
		c0.258,0,1.19,1.09,1.334,1.262c1.879,2.424,2.237,5.307,2.237,7.344C259.664,52.51,258.731,55.092,257.269,56.827z"/>
</g>
<g>
	<path d="M263.021,42.112c-0.14,0-0.329,0-0.329-0.2c0-0.199,0.189-0.199,0.329-0.199h5.431c0.139,0,0.329,0,0.329,0.199
		c0,0.2-0.189,0.2-0.329,0.2H263.021z"/>
</g>
<g>
	<path d="M273.011,40.229c-0.438,0.618-0.578,1.475-0.618,1.704c-0.08,0.538-0.109,1.086-0.109,1.634v0.508
		c0,0.1,0,0.548-0.458,0.548s-0.458-0.448-0.458-0.548c0-1.016,0.329-2.401,1.226-3.746c0.219-0.329,1.007-1.415,1.116-1.574h-2.062
		c-0.129,0-0.907,0-0.977,0.06c-0.129,0.12-0.219,0.748-0.249,0.907h-0.249l0.329-2.053h0.249c0.04,0.189,0.06,0.319,1.275,0.319
		h2.421c0,0.209,0,0.229-0.09,0.349L273.011,40.229z"/>
</g>
<g>
	<path d="M275.561,46.655c-0.06,0.169-0.089,0.239-0.219,0.239c-0.109,0-0.199-0.09-0.199-0.199c0-0.01,0-0.05,0.05-0.18
		l3.458-9.496c0.03-0.06,0.1-0.09,0.169-0.09c0.11,0,0.199,0.09,0.199,0.199c0,0.01,0,0.05-0.05,0.18L275.561,46.655z"/>
</g>
<g>
	<path d="M283.771,44.403h-3.697c0-0.239,0-0.259,0.11-0.369l1.913-2.132c0.548-0.618,1.046-1.405,1.046-2.202
		c0-0.817-0.429-1.624-1.335-1.624c-0.578,0-1.116,0.369-1.345,1.016c0.03-0.01,0.05-0.01,0.129-0.01
		c0.349,0,0.528,0.259,0.528,0.518c0,0.409-0.349,0.528-0.518,0.528c-0.03,0-0.528,0-0.528-0.558c0-0.887,0.737-1.804,1.863-1.804
		c1.216,0,2.112,0.797,2.112,1.933c0,0.997-0.598,1.535-2.152,2.91l-1.056,1.026h1.793c0.219,0,0.876,0,0.947-0.079
		c0.1-0.149,0.169-0.588,0.219-0.887h0.249L283.771,44.403z"/>
</g>
<g>
	<path d="M297.186,66.508c-0.201,0-0.229,0-0.401-0.172c-0.589-0.517-1.134-1.104-1.421-1.435
		c-3.643-4.289-4.934-9.969-4.934-15.605c0-6.039,1.506-12.608,6.311-16.982c0.216-0.215,0.244-0.215,0.445-0.215
		c0.2,0,0.301,0,0.301,0.144c0,0.043,0,0.072-0.043,0.115c-0.631,0.631-1.807,1.807-2.94,3.844
		c-2.366,4.274-2.883,9.252-2.883,13.11c0,5.521,1.047,10.184,3.356,13.884c0.961,1.549,1.922,2.51,2.453,3.041
		c0.028,0.043,0.057,0.071,0.057,0.129C297.486,66.508,297.386,66.508,297.186,66.508z"/>
</g>
<g>
	<path d="M302.138,51.796c0,0.517,0.043,0.688,1.306,0.688h0.444V52.9c-0.388-0.028-1.765-0.028-2.237-0.028
		c-0.474,0-1.865,0-2.252,0.028v-0.416h0.444c1.263,0,1.306-0.172,1.306-0.688v-7.473c-0.789,0.373-1.507,0.373-1.836,0.373V44.28
		c1.477,0,2.194-0.531,2.538-0.918c0.287,0,0.287,0.015,0.287,0.344V51.796z"/>
	<path d="M313.938,53.546c0,0.215,0,0.459-0.272,0.459c-0.258,0-0.258-0.258-0.258-0.459v-3.959h-3.959
		c-0.215,0-0.459,0-0.459-0.272c0-0.258,0.259-0.258,0.459-0.258h3.959v-3.959c0-0.215,0-0.459,0.272-0.459
		c0.258,0,0.258,0.258,0.258,0.459v3.959h3.959c0.215,0,0.459,0,0.459,0.272c0,0.258-0.258,0.258-0.459,0.258h-3.959V53.546z"/>
</g>
<g>
	<path d="M328.262,37.271c-0.674,0.961-1.019,2.625-1.019,4.762v0.717c0,0.187,0,0.746-0.603,0.746
		c-0.588,0-0.588-0.573-0.588-0.731c0-2.697,1.448-5.049,1.836-5.608l1.521-2.18h-3.041c-0.2,0-1.276,0-1.392,0.086
		c-0.186,0.158-0.315,1.047-0.358,1.306h-0.315l0.444-2.869h0.316c0.057,0.273,0.086,0.459,1.821,0.459h3.457v0.33L328.262,37.271z"
		/>
	<path d="M333.621,38.003c0.388-0.014,0.875-0.057,1.306-0.688c0.416-0.617,0.459-1.42,0.459-1.692c0-1.406-0.933-1.621-1.406-1.621
		c-0.071,0-1.42,0-1.965,0.975c0.043-0.014,0.072-0.014,0.158-0.014c0.315,0,0.659,0.201,0.659,0.66c0,0.43-0.344,0.646-0.646,0.646
		c-0.215,0-0.659-0.115-0.659-0.688c0-1.047,1.062-1.922,2.495-1.922c1.392,0,2.567,0.832,2.567,1.965
		c0,1.119-0.803,2.166-2.051,2.524c1.377,0.244,2.438,1.276,2.438,2.596c0,1.449-1.263,2.753-2.969,2.753
		c-1.593,0-2.869-1.047-2.869-2.323c0-0.545,0.373-0.746,0.718-0.746c0.401,0,0.702,0.287,0.702,0.703
		c0,0.517-0.416,0.774-0.875,0.703c0.416,0.947,1.593,1.277,2.281,1.277c0.702,0,1.678-0.502,1.678-2.381
		c0-1.377-0.545-2.381-1.765-2.381h-0.659c-0.259,0-0.33,0-0.33-0.143c0-0.129,0.058-0.144,0.302-0.158L333.621,38.003z"/>
</g>
<g>
	<rect x="323.528" y="49.026" width="14.047" height="0.574"/>
</g>
<g>
	<path d="M329.467,62.741h-5.235v-0.345l2.897-3.241c0.817-0.918,1.52-1.979,1.52-3.198c0-1.319-0.745-2.338-1.965-2.338
		c-0.932,0-1.707,0.659-1.979,1.635c0.043-0.015,0.072-0.015,0.201-0.015c0.401,0,0.674,0.272,0.674,0.675
		c0,0.459-0.373,0.674-0.674,0.674c-0.043,0-0.674,0-0.674-0.731c0-1.233,0.975-2.653,2.639-2.653s2.97,1.104,2.97,2.754
		c0,1.42-0.804,2.166-2.984,4.174c-0.372,0.344-1.247,1.262-1.635,1.592h2.653c0.431,0,1.248,0,1.349-0.129
		c0.144-0.229,0.258-1.019,0.301-1.262h0.316L329.467,62.741z"/>
	<path d="M335.729,59.93h1.449v0.416h-1.449v1.306c0,0.53,0.043,0.674,1.076,0.674h0.286v0.416
		c-0.329-0.028-1.477-0.028-1.879-0.028c-0.401,0-1.534,0-1.864,0.028v-0.416h0.287c1.047,0,1.075-0.144,1.075-0.674v-1.306h-3.771
		V59.93l4.316-6.698c0.115-0.172,0.158-0.172,0.273-0.172c0.2,0,0.2,0.071,0.2,0.344V59.93z M331.298,59.93h3.485v-5.407
		L331.298,59.93z"/>
</g>
<g>
	<path d="M340.577,49.572c-0.216,0.918-0.216,1.277-0.216,1.478c0,1.062,0.431,1.707,1.248,1.707c0.545,0,1.908-0.215,2.826-1.435
		c0.129-0.129,0.143-0.143,0.186-0.143c0.058,0,0.144,0.071,0.144,0.157c0,0.187-1.233,1.707-3.184,1.707
		c-1.306,0-2.166-1.047-2.166-2.554c0-2.553,2.166-3.915,3.672-3.915c0.946,0,1.491,0.573,1.491,1.205c0,0.258-0.1,1.09-1.19,1.506
		c-0.688,0.258-1.663,0.286-2.051,0.286H340.577z M341.251,49.286c0.603,0,2.897,0,2.897-1.506c0-0.546-0.431-0.918-1.062-0.918
		c-0.459,0-1.821,0.215-2.438,2.424H341.251z"/>
</g>
<g>
	<path d="M349.477,46.976h-3.697c0-0.239,0-0.259,0.109-0.369l1.913-2.132c0.549-0.618,1.047-1.405,1.047-2.202
		c0-0.817-0.429-1.624-1.335-1.624c-0.578,0-1.116,0.369-1.346,1.016c0.03-0.01,0.05-0.01,0.13-0.01
		c0.349,0,0.527,0.259,0.527,0.518c0,0.409-0.349,0.528-0.518,0.528c-0.03,0-0.528,0-0.528-0.558c0-0.887,0.737-1.804,1.863-1.804
		c1.216,0,2.112,0.797,2.112,1.933c0,0.996-0.598,1.534-2.152,2.909l-1.056,1.026h1.793c0.22,0,0.877,0,0.947-0.079
		c0.1-0.149,0.169-0.588,0.219-0.887h0.249L349.477,46.976z"/>
</g>
<g>
	<path d="M359.671,53.546c0,0.215,0,0.459-0.272,0.459c-0.258,0-0.258-0.258-0.258-0.459v-3.959h-3.959
		c-0.215,0-0.459,0-0.459-0.272c0-0.258,0.258-0.258,0.459-0.258h3.959v-3.959c0-0.215,0-0.459,0.272-0.459
		c0.258,0,0.258,0.258,0.258,0.459v3.959h3.959c0.215,0,0.459,0,0.459,0.272c0,0.258-0.258,0.258-0.459,0.258h-3.959V53.546z"/>
</g>
<g>
	<path d="M372.326,38.003c0.388-0.014,0.875-0.057,1.306-0.688c0.416-0.617,0.459-1.42,0.459-1.692c0-1.406-0.933-1.621-1.406-1.621
		c-0.071,0-1.42,0-1.965,0.975c0.043-0.014,0.072-0.014,0.158-0.014c0.315,0,0.659,0.201,0.659,0.66c0,0.43-0.344,0.646-0.646,0.646
		c-0.215,0-0.659-0.115-0.659-0.688c0-1.047,1.062-1.922,2.495-1.922c1.392,0,2.567,0.832,2.567,1.965
		c0,1.119-0.803,2.166-2.051,2.524c1.377,0.244,2.438,1.276,2.438,2.596c0,1.449-1.263,2.753-2.969,2.753
		c-1.593,0-2.869-1.047-2.869-2.323c0-0.545,0.373-0.746,0.718-0.746c0.401,0,0.702,0.287,0.702,0.703
		c0,0.517-0.416,0.774-0.875,0.703c0.416,0.947,1.593,1.277,2.281,1.277c0.702,0,1.678-0.502,1.678-2.381
		c0-1.377-0.545-2.381-1.765-2.381h-0.659c-0.259,0-0.33,0-0.33-0.143c0-0.129,0.058-0.144,0.302-0.158L372.326,38.003z"/>
	<path d="M381.014,37.271c-0.674,0.961-1.019,2.625-1.019,4.762v0.717c0,0.187,0,0.746-0.603,0.746
		c-0.588,0-0.588-0.573-0.588-0.731c0-2.697,1.448-5.049,1.836-5.608l1.521-2.18h-3.041c-0.2,0-1.276,0-1.392,0.086
		c-0.186,0.158-0.315,1.047-0.358,1.306h-0.315l0.444-2.869h0.316c0.057,0.273,0.086,0.459,1.821,0.459h3.457v0.33L381.014,37.271z"
		/>
</g>
<g>
	<rect x="369.257" y="49.026" width="14.047" height="0.574"/>
</g>
<g>
	<path d="M374.507,58.094c-0.287,0.731-0.832,1.506-1.894,1.506c-1.435,0-2.769-1.29-2.769-3.184s1.392-3.213,2.97-3.213
		c1.262,0,2.868,0.961,2.868,4.819c0,3.112-1.735,5.02-3.528,5.02c-1.248,0-1.965-0.602-1.965-1.491
		c0-0.373,0.229-0.617,0.603-0.617c0.372,0,0.588,0.272,0.588,0.589c0,0.53-0.517,0.616-0.617,0.588h-0.086
		c0.358,0.502,1.119,0.545,1.463,0.545c0.86,0,2.367-0.703,2.367-4.088V58.094z M374.478,56.731c0-0.215,0-1.435-0.286-2.138
		c-0.144-0.329-0.56-1.047-1.377-1.047c-0.775,0-1.162,0.416-1.421,0.804c-0.372,0.588-0.372,1.276-0.372,2.079
		c0,0.646,0,1.334,0.229,1.88c0.129,0.272,0.516,1.004,1.42,1.004C373.933,59.313,374.478,57.937,374.478,56.731z"/>
	<path d="M378.045,58.137c0.143-0.401,0.616-1.506,1.893-1.506c1.435,0,2.769,1.276,2.769,3.185c0,1.864-1.334,3.227-2.897,3.227
		c-1.219,0-2.94-0.889-2.94-4.833c0-3.156,1.894-5.006,3.701-5.006c1.247,0,1.792,0.731,1.792,1.478
		c0,0.416-0.243,0.631-0.602,0.631c-0.373,0-0.589-0.272-0.589-0.588c0-0.589,0.546-0.589,0.718-0.589
		c-0.272-0.43-0.789-0.588-1.306-0.588c-0.774,0-2.538,0.574-2.538,4.203V58.137z M381.258,61.723
		c0.272-0.545,0.272-1.19,0.272-1.922c0-0.617,0-1.334-0.229-1.864c-0.216-0.488-0.632-1.019-1.42-1.019
		c-1.291,0-1.808,1.42-1.808,2.553c0,1.004,0.144,1.707,0.272,2.08c0.129,0.301,0.56,1.104,1.463,1.104
		C380.383,62.655,380.898,62.411,381.258,61.723z"/>
</g>
<g>
	<path d="M386.308,49.572c-0.216,0.918-0.216,1.277-0.216,1.478c0,1.062,0.431,1.707,1.248,1.707c0.545,0,1.908-0.215,2.826-1.435
		c0.129-0.129,0.143-0.143,0.186-0.143c0.058,0,0.144,0.071,0.144,0.157c0,0.187-1.233,1.707-3.184,1.707
		c-1.306,0-2.166-1.047-2.166-2.554c0-2.553,2.166-3.915,3.672-3.915c0.946,0,1.491,0.573,1.491,1.205c0,0.258-0.1,1.09-1.19,1.506
		c-0.688,0.258-1.663,0.286-2.051,0.286H386.308z M386.981,49.286c0.603,0,2.897,0,2.897-1.506c0-0.546-0.431-0.918-1.062-0.918
		c-0.459,0-1.821,0.215-2.438,2.424H386.981z"/>
</g>
<g>
	<path d="M391.289,45.022l3.059-4.673c0.08-0.12,0.109-0.12,0.199-0.12c0.159,0,0.159,0.06,0.159,0.259v4.533h0.997v0.309h-0.997
		v0.867c0,0.358,0.021,0.469,0.758,0.469h0.209v0.309c-0.408-0.03-0.937-0.03-1.355-0.03c-0.418,0-0.937,0-1.345,0.03v-0.309h0.209
		c0.737,0,0.758-0.11,0.758-0.469v-0.867h-2.65V45.022z M393.999,41.306l-2.432,3.716h2.432V41.306z"/>
</g>
<g>
	<path d="M397.738,66.293c-0.215,0.215-0.244,0.215-0.445,0.215c-0.172,0-0.301,0-0.301-0.144c0-0.043,0.028-0.086,0.058-0.129
		c0.603-0.603,1.793-1.793,2.926-3.83c2.366-4.274,2.883-9.251,2.883-13.109c0-5.522-1.047-10.184-3.356-13.884
		c-0.961-1.549-1.922-2.51-2.424-3.027c-0.028-0.028-0.086-0.086-0.086-0.143c0-0.144,0.129-0.144,0.301-0.144
		c0.201,0,0.23,0,0.402,0.172c0.588,0.516,1.133,1.104,1.42,1.434c3.643,4.289,4.934,9.968,4.934,15.606
		C404.049,55.349,402.543,61.918,397.738,66.293z"/>
</g>
<g>
	<path d="M411.923,50.591c-0.101,0.431-0.215,0.861-0.315,1.291c-0.072,0.287-0.201,0.789-0.229,0.86
		c-0.115,0.216-0.315,0.302-0.488,0.302c-0.215,0-0.372-0.158-0.372-0.358c0-0.072,0.157-0.746,0.258-1.119
		c0.071-0.258,0.229-0.903,0.287-1.176c0.129-0.517,0.272-1.033,0.401-1.55c0.101-0.444,0.244-1.004,0.244-1.319
		c0-0.43-0.115-0.659-0.445-0.659c-0.573,0-0.846,0.846-1.062,1.692c-0.086,0.33-0.1,0.344-0.215,0.344
		c-0.101,0-0.157-0.071-0.157-0.129s0.2-0.933,0.459-1.448c0.272-0.546,0.602-0.746,1.018-0.746c0.632,0,1.22,0.444,1.263,1.262
		c0.258-0.358,0.933-1.262,2.209-1.262c1.075,0,1.549,0.616,1.592,1.392c0.574-0.847,1.349-1.392,2.31-1.392
		c1.09,0,1.592,0.646,1.592,1.506c0,0.832-0.646,2.524-0.903,3.213c-0.058,0.158-0.229,0.617-0.229,0.989
		c0,0.459,0.229,0.474,0.373,0.474c0.573,0,1.104-0.603,1.434-1.75c0.072-0.243,0.087-0.286,0.216-0.286
		c0.086,0,0.144,0.057,0.144,0.129c0,0.086-0.503,2.194-1.836,2.194c-0.688,0-1.134-0.517-1.134-1.162
		c0-0.258,0.072-0.444,0.201-0.789c0.315-0.86,0.875-2.424,0.875-3.227c0-0.574-0.201-1.004-0.774-1.004
		c-1.578,0-2.324,1.792-2.353,1.907c-0.215,0.875-0.588,2.353-0.86,3.428c-0.13,0.517-0.201,0.847-0.632,0.847
		c-0.215,0-0.372-0.158-0.372-0.358c0-0.058,0.086-0.431,0.143-0.646c0.029-0.158,0.302-1.22,0.416-1.649
		c0.173-0.688,0.173-0.731,0.359-1.478c0.172-0.674,0.172-0.961,0.172-1.047c0-0.574-0.201-1.004-0.774-1.004
		c-0.56,0-1.047,0.229-1.42,0.573c-0.531,0.459-0.89,1.176-0.918,1.263L411.923,50.591z"/>
</g>
<g>
	<path d="M423.292,51.833c0.04-0.169,0.069-0.278,0.069-0.508c0-0.379-0.14-0.458-0.309-0.458c-0.358,0-0.558,0.478-0.728,1.186
		c-0.06,0.219-0.069,0.229-0.169,0.229c-0.021,0-0.12,0-0.12-0.101c0-0.029,0.13-0.627,0.31-0.966
		c0.089-0.18,0.278-0.568,0.737-0.568c0.368,0,0.797,0.209,0.896,0.747c0.329-0.388,0.807-0.747,1.306-0.747
		c0.757,0,1.325,0.658,1.325,1.595c0,1.465-1.246,2.919-2.401,2.919c-0.509,0-0.787-0.349-0.917-0.638
		c-0.07,0.249-0.488,1.873-0.488,1.993c0,0.09,0,0.159,0.498,0.159c0.14,0,0.239,0,0.239,0.109c0,0.199-0.13,0.199-0.18,0.199
		c-0.318,0-0.657-0.029-0.986-0.029c-0.278,0-0.567,0.029-0.837,0.029c-0.079,0-0.13-0.039-0.13-0.119
		c0-0.189,0.11-0.189,0.229-0.189c0.438,0,0.459-0.069,0.538-0.408L423.292,51.833z M423.441,53.896c-0.03,0.12-0.03,0.14-0.03,0.16
		c0,0.06,0.13,0.887,0.787,0.887c0.369,0,0.848-0.329,1.187-1.026c0.179-0.379,0.508-1.524,0.508-2.112s-0.239-0.937-0.638-0.937
		c-0.17,0-0.458,0.069-0.808,0.378c-0.179,0.149-0.448,0.429-0.518,0.698L423.441,53.896z"/>
</g>
<g>
	<path d="M429.721,50.591c-0.101,0.431-0.215,0.861-0.315,1.291c-0.072,0.287-0.201,0.789-0.229,0.86
		c-0.115,0.216-0.315,0.302-0.488,0.302c-0.215,0-0.372-0.158-0.372-0.358c0-0.072,0.157-0.746,0.258-1.119
		c0.071-0.258,0.229-0.903,0.287-1.176c0.129-0.517,0.272-1.033,0.401-1.55c0.101-0.444,0.244-1.004,0.244-1.319
		c0-0.43-0.115-0.659-0.445-0.659c-0.573,0-0.846,0.846-1.062,1.692c-0.086,0.33-0.1,0.344-0.215,0.344
		c-0.101,0-0.157-0.071-0.157-0.129s0.2-0.933,0.459-1.448c0.272-0.546,0.602-0.746,1.018-0.746c0.632,0,1.22,0.444,1.263,1.262
		c0.258-0.358,0.933-1.262,2.209-1.262c1.075,0,1.549,0.616,1.592,1.392c0.574-0.847,1.349-1.392,2.31-1.392
		c1.09,0,1.592,0.646,1.592,1.506c0,0.832-0.646,2.524-0.903,3.213c-0.058,0.158-0.229,0.617-0.229,0.989
		c0,0.459,0.229,0.474,0.373,0.474c0.573,0,1.104-0.603,1.434-1.75c0.072-0.243,0.086-0.286,0.216-0.286
		c0.086,0,0.144,0.057,0.144,0.129c0,0.086-0.502,2.194-1.836,2.194c-0.688,0-1.134-0.517-1.134-1.162
		c0-0.258,0.072-0.444,0.201-0.789c0.315-0.86,0.875-2.424,0.875-3.227c0-0.574-0.201-1.004-0.774-1.004
		c-1.578,0-2.324,1.792-2.353,1.907c-0.215,0.875-0.588,2.353-0.86,3.428c-0.129,0.517-0.201,0.847-0.632,0.847
		c-0.215,0-0.372-0.158-0.372-0.358c0-0.058,0.086-0.431,0.143-0.646c0.029-0.158,0.302-1.22,0.416-1.649
		c0.173-0.688,0.173-0.731,0.359-1.478c0.172-0.674,0.172-0.961,0.172-1.047c0-0.574-0.201-1.004-0.774-1.004
		c-0.56,0-1.048,0.229-1.42,0.573c-0.531,0.459-0.89,1.176-0.918,1.263L429.721,50.591z"/>
</g>
<g>
	<path d="M442.615,50.867c-0.548,0-1.096,0.428-1.405,0.996c-0.339,0.618-0.538,1.584-0.538,1.993c0,0.598,0.27,1.086,0.897,1.086
		c0.119,0,1.205,0,1.992-0.986c0.06-0.08,0.08-0.1,0.13-0.1c0.06,0,0.119,0.069,0.119,0.129c0,0.12-0.837,1.176-2.262,1.176
		c-1.036,0-1.614-0.787-1.614-1.684c0-1.405,1.325-2.83,2.671-2.83c0.707,0,1.176,0.369,1.176,0.857c0,0.398-0.27,0.638-0.559,0.638
		c-0.189,0-0.368-0.11-0.368-0.349c0-0.07,0.02-0.239,0.179-0.389c0.14-0.14,0.279-0.14,0.438-0.14
		C443.333,50.996,442.954,50.867,442.615,50.867z"/>
</g>
<g>
	<path d="M451.259,56.501c-0.157,0-1.334-0.933-2.18-2.654c-0.746-1.534-0.947-3.241-0.947-4.518c0-1.765,0.33-3.299,1.062-4.748
		c0.703-1.405,1.879-2.438,2.065-2.438c0.058,0,0.129,0.029,0.129,0.115c0,0.043,0,0.072-0.143,0.201
		c-1.664,1.693-2.339,4.087-2.339,6.871c0,2.926,0.804,5.292,2.238,6.741c0.243,0.244,0.243,0.272,0.243,0.315
		C451.388,56.472,451.316,56.501,451.259,56.501z"/>
</g>
<g>
	<path d="M454.671,50.591c-0.101,0.431-0.215,0.861-0.315,1.291c-0.072,0.287-0.201,0.789-0.229,0.86
		c-0.115,0.216-0.315,0.302-0.488,0.302c-0.215,0-0.372-0.158-0.372-0.358c0-0.072,0.157-0.746,0.258-1.119
		c0.071-0.258,0.229-0.903,0.287-1.176c0.129-0.517,0.272-1.033,0.401-1.55c0.101-0.444,0.244-1.004,0.244-1.319
		c0-0.43-0.115-0.659-0.445-0.659c-0.573,0-0.846,0.846-1.062,1.692c-0.086,0.33-0.1,0.344-0.215,0.344
		c-0.101,0-0.157-0.071-0.157-0.129s0.2-0.933,0.459-1.448c0.272-0.546,0.602-0.746,1.018-0.746c0.632,0,1.22,0.444,1.263,1.262
		c0.258-0.358,0.933-1.262,2.209-1.262c1.075,0,1.549,0.616,1.592,1.392c0.574-0.847,1.349-1.392,2.31-1.392
		c1.09,0,1.592,0.646,1.592,1.506c0,0.832-0.646,2.524-0.903,3.213c-0.058,0.158-0.229,0.617-0.229,0.989
		c0,0.459,0.229,0.474,0.373,0.474c0.573,0,1.104-0.603,1.434-1.75c0.072-0.243,0.087-0.286,0.216-0.286
		c0.086,0,0.144,0.057,0.144,0.129c0,0.086-0.503,2.194-1.836,2.194c-0.688,0-1.134-0.517-1.134-1.162
		c0-0.258,0.072-0.444,0.201-0.789c0.315-0.86,0.875-2.424,0.875-3.227c0-0.574-0.201-1.004-0.774-1.004
		c-1.578,0-2.324,1.792-2.353,1.907c-0.215,0.875-0.588,2.353-0.86,3.428c-0.13,0.517-0.201,0.847-0.632,0.847
		c-0.215,0-0.372-0.158-0.372-0.358c0-0.058,0.086-0.431,0.143-0.646c0.029-0.158,0.302-1.22,0.416-1.649
		c0.173-0.688,0.173-0.731,0.359-1.478c0.172-0.674,0.172-0.961,0.172-1.047c0-0.574-0.201-1.004-0.774-1.004
		c-0.56,0-1.047,0.229-1.42,0.573c-0.531,0.459-0.89,1.176-0.918,1.263L454.671,50.591z"/>
</g>
<g>
	<path d="M466.041,51.833c0.04-0.169,0.069-0.278,0.069-0.508c0-0.379-0.14-0.458-0.309-0.458c-0.358,0-0.558,0.478-0.728,1.186
		c-0.06,0.219-0.069,0.229-0.169,0.229c-0.021,0-0.12,0-0.12-0.101c0-0.029,0.13-0.627,0.31-0.966
		c0.089-0.18,0.278-0.568,0.737-0.568c0.368,0,0.797,0.209,0.896,0.747c0.329-0.388,0.807-0.747,1.306-0.747
		c0.757,0,1.325,0.658,1.325,1.595c0,1.465-1.246,2.919-2.401,2.919c-0.509,0-0.787-0.349-0.917-0.638
		c-0.07,0.249-0.488,1.873-0.488,1.993c0,0.09,0,0.159,0.498,0.159c0.14,0,0.239,0,0.239,0.109c0,0.199-0.13,0.199-0.18,0.199
		c-0.318,0-0.657-0.029-0.986-0.029c-0.278,0-0.567,0.029-0.837,0.029c-0.079,0-0.129-0.039-0.129-0.119
		c0-0.189,0.109-0.189,0.229-0.189c0.438,0,0.459-0.069,0.538-0.408L466.041,51.833z M466.19,53.896c-0.03,0.12-0.03,0.14-0.03,0.16
		c0,0.06,0.13,0.887,0.787,0.887c0.369,0,0.848-0.329,1.187-1.026c0.179-0.379,0.508-1.524,0.508-2.112s-0.239-0.937-0.638-0.937
		c-0.17,0-0.458,0.069-0.808,0.378c-0.179,0.149-0.448,0.429-0.518,0.698L466.19,53.896z"/>
</g>
<g>
	<path d="M478.897,53.546c0,0.215,0,0.459-0.272,0.459c-0.258,0-0.258-0.258-0.258-0.459v-3.959h-3.959
		c-0.215,0-0.459,0-0.459-0.272c0-0.258,0.258-0.258,0.459-0.258h3.959v-3.959c0-0.215,0-0.459,0.272-0.459
		c0.258,0,0.258,0.258,0.258,0.459v3.959h3.959c0.215,0,0.459,0,0.459,0.272c0,0.258-0.258,0.258-0.459,0.258h-3.959V53.546z"/>
</g>
<g>
	<path d="M489.771,50.591c-0.101,0.431-0.215,0.861-0.315,1.291c-0.072,0.287-0.201,0.789-0.229,0.86
		c-0.115,0.216-0.315,0.302-0.488,0.302c-0.215,0-0.372-0.158-0.372-0.358c0-0.072,0.157-0.746,0.258-1.119
		c0.071-0.258,0.229-0.903,0.287-1.176c0.129-0.517,0.272-1.033,0.401-1.55c0.101-0.444,0.244-1.004,0.244-1.319
		c0-0.43-0.115-0.659-0.445-0.659c-0.573,0-0.846,0.846-1.062,1.692c-0.086,0.33-0.1,0.344-0.215,0.344
		c-0.101,0-0.157-0.071-0.157-0.129s0.2-0.933,0.459-1.448c0.272-0.546,0.602-0.746,1.018-0.746c0.632,0,1.22,0.444,1.263,1.262
		c0.258-0.358,0.933-1.262,2.209-1.262c1.075,0,1.549,0.616,1.592,1.392c0.574-0.847,1.349-1.392,2.31-1.392
		c1.09,0,1.592,0.646,1.592,1.506c0,0.832-0.646,2.524-0.903,3.213c-0.058,0.158-0.229,0.617-0.229,0.989
		c0,0.459,0.229,0.474,0.373,0.474c0.573,0,1.104-0.603,1.434-1.75c0.072-0.243,0.087-0.286,0.216-0.286
		c0.086,0,0.144,0.057,0.144,0.129c0,0.086-0.503,2.194-1.836,2.194c-0.688,0-1.134-0.517-1.134-1.162
		c0-0.258,0.072-0.444,0.201-0.789c0.315-0.86,0.875-2.424,0.875-3.227c0-0.574-0.201-1.004-0.774-1.004
		c-1.578,0-2.324,1.792-2.353,1.907c-0.215,0.875-0.588,2.353-0.86,3.428c-0.13,0.517-0.201,0.847-0.632,0.847
		c-0.215,0-0.372-0.158-0.372-0.358c0-0.058,0.086-0.431,0.143-0.646c0.029-0.158,0.302-1.22,0.416-1.649
		c0.173-0.688,0.173-0.731,0.359-1.478c0.172-0.674,0.172-0.961,0.172-1.047c0-0.574-0.201-1.004-0.774-1.004
		c-0.56,0-1.047,0.229-1.42,0.573c-0.531,0.459-0.89,1.176-0.918,1.263L489.771,50.591z"/>
</g>
<g>
	<path d="M502.665,50.867c-0.548,0-1.096,0.428-1.405,0.996c-0.339,0.618-0.538,1.584-0.538,1.993c0,0.598,0.27,1.086,0.897,1.086
		c0.119,0,1.205,0,1.992-0.986c0.06-0.08,0.08-0.1,0.13-0.1c0.06,0,0.119,0.069,0.119,0.129c0,0.12-0.837,1.176-2.262,1.176
		c-1.036,0-1.614-0.787-1.614-1.684c0-1.405,1.325-2.83,2.671-2.83c0.707,0,1.176,0.369,1.176,0.857c0,0.398-0.27,0.638-0.559,0.638
		c-0.188,0-0.368-0.11-0.368-0.349c0-0.07,0.02-0.239,0.18-0.389c0.139-0.14,0.278-0.14,0.438-0.14
		C503.383,50.996,503.004,50.867,502.665,50.867z"/>
</g>
<g>
	<path d="M507.368,54.062c-0.703,1.405-1.879,2.438-2.065,2.438c-0.058,0-0.129-0.029-0.129-0.115c0-0.043,0-0.071,0.144-0.201
		c1.663-1.692,2.338-4.087,2.338-6.87c0-2.926-0.804-5.293-2.237-6.741c-0.244-0.244-0.244-0.272-0.244-0.315
		c0-0.086,0.071-0.115,0.129-0.115c0.158,0,1.334,0.932,2.18,2.654c0.804,1.663,0.947,3.442,0.947,4.532
		C508.43,51.05,508.1,52.6,507.368,54.062z"/>
</g>
<g>
	<path d="M511.004,43.695c-0.14,0-0.329,0-0.329-0.199s0.189-0.199,0.329-0.199h5.43c0.14,0,0.329,0,0.329,0.199
		s-0.189,0.199-0.329,0.199H511.004z"/>
</g>
<g>
	<path d="M520.526,45.2c0,0.368,0.029,0.479,0.927,0.479h0.318v0.309c-0.349-0.03-1.216-0.03-1.614-0.03s-1.266,0-1.614,0.03v-0.309
		h0.319c0.896,0,0.927-0.12,0.927-0.479v-5.162c-0.519,0.259-1.106,0.259-1.306,0.259v-0.309c0.319,0,1.195,0,1.813-0.638
		c0.229,0,0.229,0.02,0.229,0.259V45.2z"/>
</g>
<g>
	<path d="M523.545,48.239c-0.061,0.169-0.09,0.239-0.22,0.239c-0.109,0-0.199-0.09-0.199-0.199c0-0.01,0-0.05,0.05-0.18l3.458-9.496
		c0.029-0.06,0.1-0.09,0.169-0.09c0.109,0,0.199,0.09,0.199,0.199c0,0.01,0,0.05-0.05,0.18L523.545,48.239z"/>
</g>
<g>
	<path d="M532.113,44.283c0,1.017-0.907,1.923-2.122,1.923c-1.087,0-2.013-0.657-2.013-1.563c0-0.438,0.318-0.578,0.558-0.578
		c0.289,0,0.558,0.199,0.558,0.558c0,0.379-0.309,0.598-0.657,0.548c0.349,0.588,1.096,0.758,1.524,0.758
		c0.438,0,1.126-0.289,1.126-1.645c0-0.977-0.369-1.654-1.186-1.654h-0.438c-0.17,0-0.239,0-0.239-0.109
		c0-0.1,0.069-0.11,0.149-0.12c0.069,0,0.309-0.02,0.389-0.03c0.249-0.01,0.588-0.04,0.887-0.519
		c0.259-0.438,0.279-1.016,0.279-1.136c0-0.896-0.549-1.116-0.957-1.116c-0.358,0-1.017,0.129-1.325,0.618
		c0.149,0,0.618,0,0.618,0.498c0,0.289-0.199,0.508-0.509,0.508c-0.289,0-0.508-0.189-0.508-0.518c0-0.757,0.757-1.355,1.764-1.355
		c0.956,0,1.833,0.558,1.833,1.375c0,0.787-0.577,1.484-1.395,1.753C531.485,42.689,532.113,43.467,532.113,44.283z"/>
</g>
</svg>
