<?xml version="1.0" encoding="iso-8859-1"?>
<!-- Generator: Adobe Illustrator 16.0.0, SVG Export Plug-In . SVG Version: 6.00 Build 0)  -->
<!DOCTYPE svg PUBLIC "-//W3C//DTD SVG 1.1//EN" "http://www.w3.org/Graphics/SVG/1.1/DTD/svg11.dtd">
<svg version="1.1" id="Layer_1" xmlns="http://www.w3.org/2000/svg" xmlns:xlink="http://www.w3.org/1999/xlink" x="0px" y="0px"
	 width="566.929px" height="85.039px" viewBox="0 0 566.929 85.039" style="enable-background:new 0 0 566.929 85.039;"
	 xml:space="preserve">
<g>
	<path d="M30.1,49.895c-0.101,0.401-0.101,0.703-0.101,0.76c0,0.287,0.029,0.66,0.445,0.66c0.588,0,0.86-0.903,1.076-1.75
		c0.057-0.215,0.072-0.287,0.201-0.287c0.086,0,0.144,0.058,0.144,0.13c0,0.057-0.201,0.932-0.43,1.42
		c-0.258,0.517-0.603,0.774-1.033,0.774c-0.431,0-1.104-0.244-1.248-1.09c-0.402,0.473-1.076,1.09-1.865,1.09
		c-0.975,0-1.807-0.832-1.807-2.252c0-2.123,1.75-4.217,3.371-4.217c0.746,0,1.133,0.573,1.291,0.946l0.875-3.485
		c0.014-0.043,0.043-0.158,0.043-0.244c0-0.144-0.015-0.272-0.717-0.272c-0.201,0-0.315,0-0.315-0.144
		c0-0.258,0.1-0.272,0.459-0.301c0.258-0.014,0.473-0.043,0.717-0.057c0.071-0.015,0.774-0.072,0.789-0.072
		c0.029,0,0.172,0,0.172,0.144c0,0.071-0.029,0.158-0.043,0.215L30.1,49.895z M29.927,46.939c0.015-0.028,0.058-0.215,0.058-0.229
		c0-0.114-0.187-1.29-1.133-1.29c-0.56,0-1.233,0.516-1.721,1.52c-0.272,0.603-0.717,2.209-0.717,2.998
		c0,0.847,0.33,1.377,0.918,1.377c0.674,0,1.306-0.616,1.621-1.019c0.201-0.272,0.201-0.301,0.272-0.545L29.927,46.939z"/>
	<path d="M34.085,47.198c0-0.588,0.502-2.065,2.381-2.065c1.119,0,1.664,0.616,1.664,1.219s-0.402,0.761-0.603,0.761
		c-0.129,0-0.401-0.086-0.401-0.388c0-0.015,0.028-0.56,0.66-0.56c-0.144-0.516-0.731-0.745-1.334-0.745
		c-1.363,0-1.621,1.032-1.621,1.319c0,0.646,0.617,0.774,1.004,0.86c0.774,0.158,1.119,0.229,1.477,0.574
		c0.459,0.459,0.459,0.86,0.459,1.075c0,0.746-0.645,2.353-2.825,2.353c-1.147,0-2.008-0.531-2.008-1.377
		c0-0.646,0.416-0.89,0.731-0.89c0.287,0,0.488,0.158,0.488,0.459c0,0.315-0.287,0.761-0.86,0.688
		c0.287,0.789,1.362,0.832,1.664,0.832c1.664,0,2.065-1.162,2.065-1.606c0-0.688-0.646-0.918-0.832-0.976
		c-0.086-0.014-0.473-0.1-0.717-0.143C35.147,48.518,34.085,48.288,34.085,47.198z"/>
</g>
<g>
	<path d="M43.018,45.534h-3.697c0-0.239,0-0.259,0.11-0.369l1.913-2.132c0.548-0.618,1.046-1.405,1.046-2.202
		c0-0.817-0.428-1.624-1.335-1.624c-0.578,0-1.116,0.369-1.345,1.016c0.03-0.01,0.05-0.01,0.129-0.01
		c0.349,0,0.528,0.259,0.528,0.518c0,0.409-0.349,0.528-0.518,0.528c-0.03,0-0.528,0-0.528-0.558c0-0.887,0.737-1.804,1.863-1.804
		c1.216,0,2.112,0.797,2.112,1.933c0,0.997-0.598,1.535-2.152,2.909l-1.056,1.026h1.793c0.219,0,0.876,0,0.946-0.079
		c0.1-0.149,0.169-0.588,0.219-0.887h0.249L43.018,45.534z"/>
</g>
<g>
	<path d="M49.521,46.811c-0.215,0-0.459,0-0.459-0.272c0-0.258,0.258-0.258,0.459-0.258h8.448c0.215,0,0.459,0,0.459,0.272
		c0,0.258-0.258,0.258-0.459,0.258H49.521z M49.521,49.479c-0.215,0-0.459,0-0.459-0.272c0-0.258,0.258-0.258,0.459-0.258h8.448
		c0.215,0,0.459,0,0.459,0.272c0,0.258-0.258,0.258-0.459,0.258H49.521z"/>
</g>
<g>
	<path d="M64.862,48.159c-0.201,0-0.474,0-0.474-0.287s0.272-0.287,0.474-0.287h7.817c0.201,0,0.473,0,0.473,0.287
		s-0.272,0.287-0.473,0.287H64.862z"/>
</g>
<g>
	<path d="M82.499,56.461c-0.258,0-1.19-1.09-1.334-1.263c-1.879-2.424-2.237-5.307-2.237-7.344c0-3.198,0.932-5.78,2.395-7.516
		c0.187-0.215,0.961-1.076,1.176-1.076c0.058,0,0.172,0,0.172,0.144c0,0.029,0,0.058-0.129,0.187
		c-1.721,1.865-2.625,4.503-2.625,8.276c0,1.334,0.129,2.812,0.459,4.116c0.602,2.339,1.578,3.5,2.237,4.203
		c0.029,0.043,0.058,0.071,0.058,0.129C82.671,56.461,82.556,56.461,82.499,56.461z"/>
</g>
<g>
	<path d="M87.453,50.354c0,0.517,0.043,0.688,1.305,0.688h0.445v0.416c-0.387-0.028-1.764-0.028-2.238-0.028
		c-0.473,0-1.864,0-2.252,0.028v-0.416h0.445c1.262,0,1.305-0.172,1.305-0.688v-7.473c-0.789,0.373-1.506,0.373-1.836,0.373v-0.416
		c1.478,0,2.194-0.531,2.539-0.918c0.287,0,0.287,0.014,0.287,0.344V50.354z"/>
</g>
<g>
	<path d="M95.198,48.159c-0.201,0-0.474,0-0.474-0.287s0.272-0.287,0.474-0.287h7.817c0.201,0,0.473,0,0.473,0.287
		s-0.272,0.287-0.473,0.287H95.198z"/>
</g>
<g>
	<path d="M115.955,50.497c0.172,0.545,0.445,0.545,1.219,0.545v0.416c-0.373-0.028-1.262-0.028-1.678-0.028
		c-0.401,0-1.506,0-1.836,0.028v-0.416c0.358,0,1.104,0,1.104-0.431c0-0.028,0-0.057-0.072-0.258l-2.352-7.258l-2.238,6.899
		c-0.072,0.215-0.072,0.258-0.072,0.315c0,0.315,0.272,0.717,1.004,0.731v0.416c-0.358-0.028-1.061-0.028-1.448-0.028
		c-0.617,0-0.646,0-1.262,0.028v-0.416c0.487-0.015,1.076-0.129,1.348-0.961l2.783-8.606c0.072-0.229,0.158-0.258,0.287-0.258
		c0.158,0,0.229,0.015,0.315,0.301L115.955,50.497z"/>
</g>
<g>
	<path d="M122.564,45.42c-0.588,0-0.961,0.329-1.133,0.487c-0.358,0.315-0.746,1.019-0.789,1.147
		c-0.043,0.187-0.101,0.416-0.158,0.617c-0.072,0.315-0.158,0.616-0.229,0.932c-0.086,0.33-0.617,2.496-0.66,2.61
		c-0.086,0.287-0.358,0.388-0.516,0.388c-0.215,0-0.373-0.158-0.373-0.358c0-0.072,0.158-0.746,0.258-1.119
		c0.072-0.258,0.229-0.903,0.287-1.176c0.129-0.517,0.273-1.033,0.402-1.55c0.101-0.444,0.244-1.004,0.244-1.319
		c0-0.416-0.1-0.659-0.444-0.659c-0.574,0-0.846,0.831-1.062,1.692c-0.086,0.329-0.101,0.344-0.215,0.344
		c-0.1,0-0.158-0.071-0.158-0.129c0-0.071,0.215-0.933,0.459-1.448c0.172-0.316,0.459-0.746,1.019-0.746
		c0.574,0,1.147,0.373,1.248,1.133c0.603-0.875,1.262-1.133,1.836-1.133c0.717,0,1.162,0.401,1.162,0.86
		c0,0.431-0.33,0.774-0.731,0.774c-0.201,0-0.474-0.114-0.474-0.459c0-0.315,0.229-0.631,0.674-0.717
		C123.023,45.463,122.793,45.42,122.564,45.42z"/>
</g>
<g>
	<path d="M128.546,45.534h-3.697c0-0.239,0-0.259,0.11-0.369l1.913-2.132c0.548-0.618,1.046-1.405,1.046-2.202
		c0-0.817-0.428-1.624-1.335-1.624c-0.578,0-1.116,0.369-1.345,1.016c0.03-0.01,0.05-0.01,0.129-0.01
		c0.349,0,0.528,0.259,0.528,0.518c0,0.409-0.349,0.528-0.518,0.528c-0.03,0-0.528,0-0.528-0.558c0-0.887,0.737-1.804,1.863-1.804
		c1.216,0,2.112,0.797,2.112,1.933c0,0.997-0.598,1.535-2.152,2.909l-1.056,1.026h1.793c0.219,0,0.876,0,0.946-0.079
		c0.1-0.149,0.169-0.588,0.219-0.887h0.249L128.546,45.534z"/>
</g>
<g>
	<path d="M131.81,55.385c-0.172,0.201-0.961,1.076-1.176,1.076c-0.072,0-0.172-0.029-0.172-0.144c0-0.028,0-0.058,0.129-0.187
		c0.731-0.803,1.578-1.951,2.123-3.959c0.373-1.405,0.502-2.868,0.502-4.317c0-1.334-0.129-2.811-0.459-4.116
		c-0.588-2.281-1.52-3.442-2.208-4.188c-0.058-0.043-0.086-0.086-0.086-0.143c0-0.115,0.101-0.144,0.172-0.144
		c0.258,0,1.19,1.09,1.334,1.262c1.879,2.424,2.237,5.307,2.237,7.344C134.205,51.067,133.272,53.649,131.81,55.385z"/>
</g>
<g>
	<path d="M143.988,49.895c-0.101,0.401-0.101,0.703-0.101,0.76c0,0.287,0.029,0.66,0.445,0.66c0.588,0,0.86-0.903,1.076-1.75
		c0.057-0.215,0.072-0.287,0.201-0.287c0.086,0,0.144,0.058,0.144,0.13c0,0.057-0.201,0.932-0.43,1.42
		c-0.258,0.517-0.603,0.774-1.033,0.774c-0.431,0-1.104-0.244-1.248-1.09c-0.402,0.473-1.076,1.09-1.865,1.09
		c-0.975,0-1.807-0.832-1.807-2.252c0-2.123,1.75-4.217,3.371-4.217c0.746,0,1.133,0.573,1.291,0.946l0.875-3.485
		c0.014-0.043,0.043-0.158,0.043-0.244c0-0.144-0.015-0.272-0.717-0.272c-0.201,0-0.315,0-0.315-0.144
		c0-0.258,0.1-0.272,0.459-0.301c0.258-0.014,0.473-0.043,0.717-0.057c0.071-0.015,0.774-0.072,0.789-0.072
		c0.029,0,0.172,0,0.172,0.144c0,0.071-0.029,0.158-0.043,0.215L143.988,49.895z M143.816,46.939
		c0.015-0.028,0.058-0.215,0.058-0.229c0-0.114-0.187-1.29-1.133-1.29c-0.56,0-1.233,0.516-1.721,1.52
		c-0.272,0.603-0.717,2.209-0.717,2.998c0,0.847,0.33,1.377,0.918,1.377c0.674,0,1.306-0.616,1.621-1.019
		c0.201-0.272,0.201-0.301,0.272-0.545L143.816,46.939z"/>
	<path d="M147.859,50.182c-0.043,0.172-0.043,0.444-0.043,0.459c0,0.315,0.029,0.674,0.459,0.674c0.832,0,1.492-1.004,1.793-1.721
		c0.101-0.229,0.115-0.244,0.129-0.259c0.029-0.058,0.086-0.058,0.115-0.058c0.086,0,0.144,0.044,0.144,0.13
		c0,0.101-0.774,2.194-2.223,2.194c-0.803,0-1.276-0.617-1.276-1.291c0-0.187,0.043-0.33,0.158-0.832l0.946-3.786h-1.276
		c-0.272,0-0.373,0-0.373-0.144c0-0.272,0.129-0.272,0.416-0.272h1.348l0.56-2.281c0.115-0.459,0.445-0.502,0.56-0.502
		c0.187,0,0.373,0.129,0.373,0.358c0,0.101,0,0.129-0.057,0.33l-0.531,2.095h1.262c0.287,0,0.373,0,0.373,0.157
		c0,0.259-0.144,0.259-0.416,0.259h-1.32L147.859,50.182z"/>
</g>
<g>
	<path d="M155.363,45.534h-3.697c0-0.239,0-0.259,0.11-0.369l1.913-2.132c0.548-0.618,1.046-1.405,1.046-2.202
		c0-0.817-0.428-1.624-1.335-1.624c-0.578,0-1.116,0.369-1.345,1.016c0.03-0.01,0.05-0.01,0.129-0.01
		c0.349,0,0.528,0.259,0.528,0.518c0,0.409-0.349,0.528-0.518,0.528c-0.03,0-0.528,0-0.528-0.558c0-0.887,0.737-1.804,1.863-1.804
		c1.216,0,2.112,0.797,2.112,1.933c0,0.997-0.598,1.535-2.152,2.909l-1.056,1.026h1.793c0.219,0,0.876,0,0.946-0.079
		c0.1-0.149,0.169-0.588,0.219-0.887h0.249L155.363,45.534z"/>
</g>
<g>
	<path d="M165.559,52.104c0,0.215,0,0.459-0.273,0.459c-0.258,0-0.258-0.258-0.258-0.459v-3.959h-3.959
		c-0.215,0-0.459,0-0.459-0.272c0-0.258,0.258-0.258,0.459-0.258h3.959v-3.959c0-0.215,0-0.459,0.272-0.459
		c0.258,0,0.258,0.258,0.258,0.459v3.959h3.958c0.215,0,0.459,0,0.459,0.272c0,0.258-0.258,0.258-0.459,0.258h-3.958V52.104z"/>
</g>
<g>
	<path d="M199.018,40.648c0,0.517,0.043,0.688,1.305,0.688h0.445v0.416c-0.387-0.029-1.764-0.029-2.238-0.029
		c-0.473,0-1.864,0-2.252,0.029v-0.416h0.445c1.262,0,1.305-0.172,1.305-0.688v-7.473c-0.789,0.373-1.506,0.373-1.836,0.373v-0.416
		c1.478,0,2.194-0.531,2.539-0.918c0.287,0,0.287,0.014,0.287,0.344V40.648z"/>
</g>
<g>
	<rect x="175.145" y="47.584" width="46.508" height="0.574"/>
</g>
<g>
	<path d="M179.276,60.194c0,0.517,0.043,0.688,1.305,0.688h0.445v0.416c-0.387-0.028-1.764-0.028-2.238-0.028
		c-0.473,0-1.864,0-2.252,0.028v-0.416h0.445c1.262,0,1.305-0.172,1.305-0.688v-7.473c-0.789,0.373-1.506,0.373-1.836,0.373v-0.416
		c1.478,0,2.194-0.531,2.539-0.918c0.287,0,0.287,0.015,0.287,0.344V60.194z"/>
</g>
<g>
	<path d="M187.02,58c-0.201,0-0.473,0-0.473-0.287s0.272-0.287,0.473-0.287h7.817c0.201,0,0.473,0,0.473,0.287
		S195.038,58,194.837,58H187.02z"/>
</g>
<g>
	<path d="M207.777,60.338c0.172,0.545,0.445,0.545,1.219,0.545v0.416c-0.373-0.028-1.262-0.028-1.678-0.028
		c-0.401,0-1.506,0-1.836,0.028v-0.416c0.358,0,1.104,0,1.104-0.431c0-0.028,0-0.057-0.072-0.258l-2.352-7.258l-2.238,6.899
		c-0.072,0.215-0.072,0.258-0.072,0.315c0,0.315,0.272,0.717,1.004,0.731v0.416c-0.358-0.028-1.061-0.028-1.448-0.028
		c-0.617,0-0.646,0-1.262,0.028v-0.416c0.487-0.015,1.076-0.129,1.348-0.961l2.783-8.605c0.072-0.23,0.158-0.259,0.287-0.259
		c0.158,0,0.229,0.015,0.315,0.302L207.777,60.338z"/>
</g>
<g>
	<path d="M214.386,55.261c-0.588,0-0.961,0.329-1.133,0.487c-0.358,0.315-0.746,1.019-0.789,1.147
		c-0.043,0.187-0.101,0.416-0.158,0.616c-0.072,0.316-0.158,0.617-0.229,0.933c-0.086,0.33-0.617,2.496-0.66,2.61
		c-0.086,0.287-0.358,0.388-0.516,0.388c-0.215,0-0.373-0.158-0.373-0.358c0-0.072,0.158-0.746,0.258-1.119
		c0.072-0.258,0.229-0.903,0.287-1.176c0.129-0.517,0.273-1.033,0.402-1.55c0.101-0.444,0.244-1.004,0.244-1.319
		c0-0.416-0.1-0.659-0.444-0.659c-0.574,0-0.846,0.831-1.062,1.692c-0.086,0.33-0.101,0.344-0.215,0.344
		c-0.1,0-0.158-0.071-0.158-0.129c0-0.071,0.215-0.933,0.459-1.448c0.172-0.316,0.459-0.746,1.019-0.746
		c0.574,0,1.147,0.373,1.248,1.133c0.603-0.875,1.262-1.133,1.836-1.133c0.717,0,1.162,0.401,1.162,0.86
		c0,0.431-0.33,0.774-0.731,0.774c-0.201,0-0.474-0.114-0.474-0.459c0-0.315,0.229-0.631,0.674-0.717
		C214.845,55.304,214.616,55.261,214.386,55.261z"/>
</g>
<g>
	<path d="M220.368,57.154h-3.697c0-0.239,0-0.259,0.11-0.369l1.913-2.132c0.548-0.618,1.046-1.405,1.046-2.202
		c0-0.817-0.428-1.624-1.335-1.624c-0.578,0-1.116,0.369-1.345,1.017c0.03-0.01,0.05-0.01,0.129-0.01
		c0.349,0,0.528,0.259,0.528,0.518c0,0.408-0.349,0.528-0.518,0.528c-0.03,0-0.528,0-0.528-0.559c0-0.887,0.737-1.803,1.863-1.803
		c1.216,0,2.112,0.797,2.112,1.933c0,0.996-0.598,1.534-2.152,2.909l-1.056,1.026h1.793c0.219,0,0.876,0,0.946-0.079
		c0.1-0.149,0.169-0.588,0.219-0.887h0.249L220.368,57.154z"/>
</g>
<g>
	<path d="M228.041,49.895c-0.101,0.401-0.101,0.703-0.101,0.76c0,0.287,0.029,0.66,0.445,0.66c0.588,0,0.86-0.903,1.076-1.75
		c0.057-0.215,0.072-0.287,0.201-0.287c0.086,0,0.144,0.058,0.144,0.13c0,0.057-0.201,0.932-0.43,1.42
		c-0.258,0.517-0.603,0.774-1.033,0.774c-0.431,0-1.104-0.244-1.248-1.09c-0.401,0.473-1.076,1.09-1.865,1.09
		c-0.975,0-1.807-0.832-1.807-2.252c0-2.123,1.75-4.217,3.371-4.217c0.746,0,1.133,0.573,1.291,0.946l0.875-3.485
		c0.014-0.043,0.043-0.158,0.043-0.244c0-0.144-0.014-0.272-0.717-0.272c-0.201,0-0.315,0-0.315-0.144
		c0-0.258,0.101-0.272,0.459-0.301c0.258-0.014,0.473-0.043,0.717-0.057c0.072-0.015,0.774-0.072,0.789-0.072
		c0.029,0,0.172,0,0.172,0.144c0,0.071-0.029,0.158-0.043,0.215L228.041,49.895z M227.868,46.939
		c0.015-0.028,0.058-0.215,0.058-0.229c0-0.114-0.187-1.29-1.133-1.29c-0.559,0-1.233,0.516-1.721,1.52
		c-0.272,0.603-0.717,2.209-0.717,2.998c0,0.847,0.33,1.377,0.918,1.377c0.674,0,1.305-0.616,1.621-1.019
		c0.201-0.272,0.201-0.301,0.272-0.545L227.868,46.939z"/>
	<path d="M235.082,45.42c-0.588,0-0.961,0.329-1.133,0.487c-0.358,0.315-0.746,1.019-0.789,1.147
		c-0.043,0.187-0.101,0.416-0.158,0.617c-0.072,0.315-0.158,0.616-0.229,0.932c-0.086,0.33-0.617,2.496-0.66,2.61
		c-0.086,0.287-0.358,0.388-0.516,0.388c-0.215,0-0.373-0.158-0.373-0.358c0-0.072,0.158-0.746,0.258-1.119
		c0.072-0.258,0.229-0.903,0.287-1.176c0.129-0.517,0.273-1.033,0.402-1.55c0.101-0.444,0.244-1.004,0.244-1.319
		c0-0.416-0.1-0.659-0.444-0.659c-0.574,0-0.846,0.831-1.062,1.692c-0.086,0.329-0.101,0.344-0.215,0.344
		c-0.1,0-0.158-0.071-0.158-0.129c0-0.071,0.215-0.933,0.459-1.448c0.172-0.316,0.459-0.746,1.019-0.746
		c0.574,0,1.147,0.373,1.248,1.133c0.603-0.875,1.262-1.133,1.836-1.133c0.717,0,1.162,0.401,1.162,0.86
		c0,0.431-0.33,0.774-0.731,0.774c-0.201,0-0.474-0.114-0.474-0.459c0-0.315,0.229-0.631,0.674-0.717
		C235.541,45.463,235.311,45.42,235.082,45.42z"/>
</g>
<g>
	<path d="M241.063,45.534h-3.697c0-0.239,0-0.259,0.11-0.369l1.913-2.132c0.548-0.618,1.046-1.405,1.046-2.202
		c0-0.817-0.428-1.624-1.335-1.624c-0.578,0-1.116,0.369-1.345,1.016c0.03-0.01,0.05-0.01,0.129-0.01
		c0.349,0,0.528,0.259,0.528,0.518c0,0.409-0.349,0.528-0.518,0.528c-0.03,0-0.528,0-0.528-0.558c0-0.887,0.737-1.804,1.863-1.804
		c1.216,0,2.112,0.797,2.112,1.933c0,0.997-0.598,1.535-2.152,2.909l-1.056,1.026h1.793c0.219,0,0.876,0,0.946-0.079
		c0.1-0.149,0.169-0.588,0.219-0.887h0.249L241.063,45.534z"/>
</g>
<g>
	<path d="M251.258,52.104c0,0.215,0,0.459-0.273,0.459c-0.258,0-0.258-0.258-0.258-0.459v-3.959h-3.959
		c-0.215,0-0.459,0-0.459-0.272c0-0.258,0.258-0.258,0.459-0.258h3.959v-3.959c0-0.215,0-0.459,0.272-0.459
		c0.258,0,0.258,0.258,0.258,0.459v3.959h3.958c0.215,0,0.459,0,0.459,0.272c0,0.258-0.258,0.258-0.459,0.258h-3.958V52.104z"/>
</g>
<g>
	<path d="M264.583,45.42c-0.588,0-0.961,0.329-1.133,0.487c-0.358,0.315-0.746,1.019-0.789,1.147
		c-0.043,0.187-0.101,0.416-0.158,0.617c-0.072,0.315-0.158,0.616-0.229,0.932c-0.086,0.33-0.617,2.496-0.66,2.61
		c-0.086,0.287-0.358,0.388-0.516,0.388c-0.215,0-0.373-0.158-0.373-0.358c0-0.072,0.158-0.746,0.258-1.119
		c0.072-0.258,0.229-0.903,0.287-1.176c0.129-0.517,0.272-1.033,0.402-1.55c0.1-0.444,0.244-1.004,0.244-1.319
		c0-0.416-0.1-0.659-0.444-0.659c-0.574,0-0.847,0.831-1.062,1.692c-0.086,0.329-0.101,0.344-0.215,0.344
		c-0.1,0-0.158-0.071-0.158-0.129c0-0.071,0.215-0.933,0.459-1.448c0.172-0.316,0.459-0.746,1.019-0.746
		c0.574,0,1.147,0.373,1.248,1.133c0.603-0.875,1.262-1.133,1.836-1.133c0.717,0,1.162,0.401,1.162,0.86
		c0,0.431-0.33,0.774-0.731,0.774c-0.201,0-0.474-0.114-0.474-0.459c0-0.315,0.229-0.631,0.674-0.717
		C265.042,45.463,264.812,45.42,264.583,45.42z"/>
</g>
<g>
	<path d="M270.564,45.534h-3.697c0-0.239,0-0.259,0.11-0.369l1.913-2.132c0.548-0.618,1.046-1.405,1.046-2.202
		c0-0.817-0.428-1.624-1.335-1.624c-0.578,0-1.116,0.369-1.345,1.016c0.03-0.01,0.05-0.01,0.129-0.01
		c0.349,0,0.528,0.259,0.528,0.518c0,0.409-0.349,0.528-0.518,0.528c-0.03,0-0.528,0-0.528-0.558c0-0.887,0.737-1.804,1.863-1.804
		c1.216,0,2.112,0.797,2.112,1.933c0,0.997-0.598,1.535-2.152,2.909l-1.056,1.026h1.793c0.219,0,0.876,0,0.946-0.079
		c0.1-0.149,0.169-0.588,0.219-0.887h0.249L270.564,45.534z"/>
</g>
<g>
	<path d="M277.042,49.895c-0.101,0.401-0.101,0.703-0.101,0.76c0,0.287,0.029,0.66,0.445,0.66c0.588,0,0.86-0.903,1.076-1.75
		c0.057-0.215,0.072-0.287,0.201-0.287c0.086,0,0.144,0.058,0.144,0.13c0,0.057-0.201,0.932-0.43,1.42
		c-0.258,0.517-0.603,0.774-1.033,0.774c-0.431,0-1.104-0.244-1.248-1.09c-0.401,0.473-1.076,1.09-1.865,1.09
		c-0.975,0-1.807-0.832-1.807-2.252c0-2.123,1.75-4.217,3.371-4.217c0.746,0,1.133,0.573,1.291,0.946l0.875-3.485
		c0.014-0.043,0.043-0.158,0.043-0.244c0-0.144-0.014-0.272-0.717-0.272c-0.201,0-0.315,0-0.315-0.144
		c0-0.258,0.101-0.272,0.459-0.301c0.258-0.014,0.473-0.043,0.717-0.057c0.072-0.015,0.774-0.072,0.789-0.072
		c0.029,0,0.172,0,0.172,0.144c0,0.071-0.029,0.158-0.043,0.215L277.042,49.895z M276.869,46.939
		c0.015-0.028,0.058-0.215,0.058-0.229c0-0.114-0.187-1.29-1.133-1.29c-0.559,0-1.233,0.516-1.721,1.52
		c-0.272,0.603-0.717,2.209-0.717,2.998c0,0.847,0.33,1.377,0.918,1.377c0.674,0,1.305-0.616,1.621-1.019
		c0.201-0.272,0.201-0.301,0.272-0.545L276.869,46.939z"/>
</g>
<g>
	<path d="M288.185,51.458h-2.209c-0.315,0-0.358,0-0.358-0.272c0-1.019,0.502-2.338,0.745-3.026
		c0.402-1.062,0.804-2.138,0.804-3.228c0-2.208-1.535-3.284-2.955-3.284s-2.955,1.076-2.955,3.284c0,1.09,0.387,2.138,0.803,3.271
		c0.287,0.731,0.746,1.979,0.746,2.998c0,0.258-0.029,0.258-0.344,0.258h-2.223l-0.459-2.237h0.315
		c0.072,0.344,0.144,0.76,0.258,1.062c0.072,0.215,0.115,0.329,0.947,0.329h1.133c-0.158-0.803-0.588-1.477-1.19-2.409
		c-0.674-1.047-1.32-2.08-1.32-3.256c0-1.965,1.879-3.586,4.289-3.586c2.396,0,4.289,1.606,4.289,3.586
		c0,1.19-0.66,2.237-1.334,3.284c-0.588,0.89-1.004,1.578-1.177,2.381h1.134c0.832,0,0.875-0.114,0.946-0.344
		c0.115-0.301,0.187-0.674,0.259-1.047h0.315L288.185,51.458z"/>
</g>
<g>
	<path d="M293.488,45.534h-3.697c0-0.239,0-0.259,0.109-0.369l1.913-2.132c0.549-0.618,1.047-1.405,1.047-2.202
		c0-0.817-0.429-1.624-1.335-1.624c-0.578,0-1.116,0.369-1.346,1.016c0.03-0.01,0.05-0.01,0.13-0.01
		c0.349,0,0.527,0.259,0.527,0.518c0,0.409-0.349,0.528-0.518,0.528c-0.03,0-0.528,0-0.528-0.558c0-0.887,0.737-1.804,1.863-1.804
		c1.216,0,2.112,0.797,2.112,1.933c0,0.997-0.598,1.535-2.152,2.909l-1.056,1.026h1.793c0.22,0,0.877,0,0.947-0.079
		c0.1-0.149,0.169-0.588,0.219-0.887h0.249L293.488,45.534z"/>
</g>
</svg>
