<?xml version="1.0" encoding="iso-8859-1"?>
<!-- Generator: Adobe Illustrator 16.0.0, SVG Export Plug-In . SVG Version: 6.00 Build 0)  -->
<!DOCTYPE svg PUBLIC "-//W3C//DTD SVG 1.1//EN" "http://www.w3.org/Graphics/SVG/1.1/DTD/svg11.dtd">
<svg version="1.1" id="Layer_1" xmlns="http://www.w3.org/2000/svg" xmlns:xlink="http://www.w3.org/1999/xlink" x="0px" y="0px"
	 width="566.929px" height="85.039px" viewBox="0 0 566.929 85.039" style="enable-background:new 0 0 566.929 85.039;"
	 xml:space="preserve">
<g>
	<path d="M33.671,50.184c-0.029,0.114-0.029,0.215-0.029,0.229c0,0.144,0,0.258,0.875,0.258c0.215,0,0.344,0,0.344,0.144
		c0,0.272-0.158,0.272-0.272,0.272c-0.272,0-0.574-0.028-0.846-0.028H32.05c-0.272,0-0.574,0.028-0.832,0.028
		c-0.043,0-0.201,0-0.201-0.144c0-0.272,0.129-0.272,0.301-0.272c0.846-0.015,1.076-0.015,1.233-0.444
		c0.029-0.086,0.76-3.084,1.004-4.03H29.21l-0.989,3.987c-0.029,0.114-0.029,0.215-0.029,0.229c0,0.144,0,0.258,0.875,0.258
		c0.215,0,0.344,0,0.344,0.144c0,0.272-0.158,0.272-0.272,0.272c-0.272,0-0.574-0.028-0.847-0.028H26.6
		c-0.272,0-0.574,0.028-0.832,0.028c-0.043,0-0.201,0-0.201-0.144c0-0.272,0.101-0.272,0.43-0.272c0.99,0,1.019-0.144,1.147-0.646
		l1.937-7.717c0.058-0.215,0.058-0.301,0.058-0.33c0-0.158,0-0.272-0.861-0.272c-0.272,0-0.373,0-0.373-0.144
		c0-0.272,0.172-0.272,0.273-0.272c0.272,0,0.573,0.029,0.846,0.029h1.692c0.272,0,0.574-0.029,0.832-0.029
		c0.086,0,0.215,0,0.215,0.158c0,0.258-0.143,0.258-0.401,0.258c-1.019,0-1.047,0.143-1.176,0.631l-0.86,3.443h4.332l0.875-3.472
		c0.057-0.215,0.057-0.301,0.057-0.33c0-0.158,0-0.272-0.86-0.272c-0.272,0-0.373,0-0.373-0.144c0-0.272,0.172-0.272,0.272-0.272
		c0.272,0,0.574,0.029,0.846,0.029h1.692c0.273,0,0.574-0.029,0.832-0.029c0.086,0,0.215,0,0.215,0.158
		c0,0.258-0.144,0.258-0.402,0.258c-1.018,0-1.047,0.143-1.176,0.631L33.671,50.184z"/>
</g>
<g>
	<path d="M41.849,45.164h-3.697c0-0.239,0-0.259,0.11-0.369l1.913-2.132c0.548-0.618,1.046-1.405,1.046-2.202
		c0-0.817-0.428-1.624-1.335-1.624c-0.578,0-1.116,0.369-1.345,1.016c0.03-0.01,0.05-0.01,0.129-0.01
		c0.349,0,0.528,0.259,0.528,0.518c0,0.409-0.349,0.528-0.518,0.528c-0.03,0-0.528,0-0.528-0.558c0-0.887,0.737-1.804,1.863-1.804
		c1.216,0,2.112,0.797,2.112,1.933c0,0.997-0.598,1.535-2.152,2.909l-1.056,1.026h1.793c0.219,0,0.876,0,0.946-0.079
		c0.1-0.149,0.169-0.588,0.219-0.887h0.249L41.849,45.164z"/>
</g>
<g>
	<path d="M48.352,46.439c-0.215,0-0.459,0-0.459-0.272c0-0.258,0.258-0.258,0.459-0.258H56.8c0.215,0,0.459,0,0.459,0.272
		c0,0.258-0.258,0.258-0.459,0.258H48.352z M48.352,49.107c-0.215,0-0.459,0-0.459-0.272c0-0.258,0.258-0.258,0.459-0.258H56.8
		c0.215,0,0.459,0,0.459,0.272c0,0.258-0.258,0.258-0.459,0.258H48.352z"/>
</g>
<g>
	<path d="M70.792,50.184c-0.029,0.114-0.029,0.215-0.029,0.229c0,0.144,0,0.258,0.875,0.258c0.215,0,0.344,0,0.344,0.144
		c0,0.272-0.158,0.272-0.272,0.272c-0.272,0-0.574-0.028-0.846-0.028h-1.692c-0.272,0-0.574,0.028-0.832,0.028
		c-0.043,0-0.201,0-0.201-0.144c0-0.272,0.129-0.272,0.301-0.272c0.846-0.015,1.076-0.015,1.233-0.444
		c0.029-0.086,0.76-3.084,1.004-4.03h-4.346l-0.99,3.987c-0.029,0.114-0.029,0.215-0.029,0.229c0,0.144,0,0.258,0.875,0.258
		c0.215,0,0.344,0,0.344,0.144c0,0.272-0.158,0.272-0.272,0.272c-0.273,0-0.574-0.028-0.846-0.028h-1.693
		c-0.272,0-0.574,0.028-0.832,0.028c-0.043,0-0.201,0-0.201-0.144c0-0.272,0.101-0.272,0.431-0.272c0.989,0,1.018-0.144,1.147-0.646
		l1.936-7.717c0.058-0.215,0.058-0.301,0.058-0.33c0-0.158,0-0.272-0.861-0.272c-0.272,0-0.373,0-0.373-0.144
		c0-0.272,0.172-0.272,0.272-0.272c0.273,0,0.574,0.029,0.847,0.029h1.692c0.272,0,0.574-0.029,0.832-0.029
		c0.086,0,0.215,0,0.215,0.158c0,0.258-0.144,0.258-0.401,0.258c-1.019,0-1.047,0.143-1.176,0.631l-0.861,3.443h4.332l0.875-3.472
		c0.057-0.215,0.057-0.301,0.057-0.33c0-0.158,0-0.272-0.86-0.272c-0.273,0-0.373,0-0.373-0.144c0-0.272,0.172-0.272,0.272-0.272
		c0.272,0,0.574,0.029,0.846,0.029h1.692c0.272,0,0.574-0.029,0.832-0.029c0.086,0,0.215,0,0.215,0.158
		c0,0.258-0.144,0.258-0.402,0.258c-1.018,0-1.047,0.143-1.176,0.631L70.792,50.184z"/>
</g>
<g>
	<path d="M78.971,45.164h-3.697c0-0.239,0-0.259,0.11-0.369l1.913-2.132c0.548-0.618,1.046-1.405,1.046-2.202
		c0-0.817-0.428-1.624-1.335-1.624c-0.578,0-1.116,0.369-1.345,1.016c0.03-0.01,0.05-0.01,0.129-0.01
		c0.349,0,0.528,0.259,0.528,0.518c0,0.409-0.349,0.528-0.518,0.528c-0.03,0-0.528,0-0.528-0.558c0-0.887,0.737-1.804,1.863-1.804
		c1.216,0,2.112,0.797,2.112,1.933c0,0.997-0.598,1.535-2.152,2.909l-1.056,1.026h1.793c0.219,0,0.876,0,0.946-0.079
		c0.1-0.149,0.169-0.588,0.219-0.887h0.249L78.971,45.164z"/>
</g>
<g>
	<path d="M77.883,53.697c-0.438,0.946-1.196,1.155-1.734,1.155c-0.488,0-1.215-0.199-1.644-1.006
		c-0.409-0.757-0.448-1.654-0.448-2.401c0-0.797,0.05-1.574,0.369-2.262c0.409-0.927,1.136-1.186,1.734-1.186
		c0.418,0,1.235,0.159,1.694,1.115c0.349,0.738,0.398,1.535,0.398,2.332C78.251,52.232,78.202,53.01,77.883,53.697z M77.315,53.389
		c0.109-0.638,0.109-1.315,0.109-2.062c0-0.628,0-1.386-0.1-1.943c-0.189-0.986-0.847-1.166-1.176-1.166
		c-0.249,0-0.996,0.09-1.186,1.275c-0.08,0.538-0.08,1.196-0.08,1.834c0,0.588,0,1.504,0.109,2.102
		c0.179,0.957,0.767,1.206,1.156,1.206C76.597,54.634,77.166,54.335,77.315,53.389z"/>
</g>
<g>
	<path d="M85.888,34.589h3.256v0.674h-2.582v24.455h2.582v0.674h-3.256V34.589z"/>
</g>
<g>
	<path d="M98.457,51.087h-2.209c-0.315,0-0.358,0-0.358-0.272c0-1.019,0.502-2.338,0.746-3.026c0.401-1.062,0.803-2.138,0.803-3.228
		c0-2.208-1.535-3.284-2.955-3.284c-1.42,0-2.955,1.076-2.955,3.284c0,1.09,0.387,2.138,0.803,3.271
		c0.287,0.731,0.746,1.979,0.746,2.998c0,0.258-0.029,0.258-0.344,0.258h-2.224l-0.459-2.237h0.316
		c0.072,0.344,0.143,0.76,0.258,1.062c0.071,0.215,0.114,0.329,0.946,0.329h1.133c-0.158-0.803-0.588-1.477-1.19-2.409
		c-0.674-1.047-1.32-2.08-1.32-3.256c0-1.965,1.879-3.586,4.289-3.586c2.396,0,4.289,1.606,4.289,3.586
		c0,1.19-0.66,2.237-1.333,3.284c-0.588,0.89-1.004,1.578-1.176,2.381h1.133c0.832,0,0.875-0.114,0.947-0.344
		c0.115-0.301,0.187-0.674,0.258-1.047h0.315L98.457,51.087z"/>
</g>
<g>
	<path d="M101.021,50.35c0.13-0.518,0.16-0.628,0.16-0.837c0-0.379-0.149-0.458-0.309-0.458c-0.358,0-0.558,0.478-0.727,1.186
		c-0.06,0.219-0.07,0.229-0.169,0.229c-0.02,0-0.12,0-0.12-0.101c0-0.029,0.129-0.617,0.309-0.966
		c0.09-0.18,0.279-0.568,0.737-0.568c0.449,0,0.867,0.299,0.917,0.867c0.169-0.229,0.658-0.867,1.554-0.867
		c0.249,0,0.568,0.05,0.817,0.259c0.279,0.239,0.309,0.578,0.318,0.708c0.369-0.528,0.877-0.967,1.625-0.967
		c0.747,0,1.146,0.419,1.146,1.066c0,0.568-0.418,1.674-0.607,2.192c-0.09,0.219-0.18,0.458-0.18,0.707
		c0,0.229,0.07,0.329,0.239,0.329c0.548,0,0.867-0.708,1.017-1.235c0.05-0.149,0.05-0.18,0.149-0.18c0.03,0,0.12,0,0.12,0.1
		c0,0.08-0.369,1.534-1.306,1.534c-0.468,0-0.817-0.349-0.817-0.816c0-0.199,0.04-0.31,0.129-0.549
		c0.199-0.527,0.618-1.664,0.618-2.231c0-0.358-0.109-0.697-0.538-0.697c-1.086,0-1.614,1.195-1.645,1.325
		c-0.089,0.389-0.458,1.843-0.598,2.401c-0.08,0.318-0.14,0.567-0.448,0.567c-0.149,0-0.289-0.09-0.289-0.269
		c0-0.05,0.09-0.389,0.129-0.588c0.09-0.329,0.1-0.389,0.199-0.758c0.11-0.448,0.16-0.647,0.279-1.155
		c0.08-0.299,0.149-0.578,0.149-0.827c0-0.329-0.09-0.697-0.538-0.697c-0.947,0-1.475,0.906-1.624,1.215
		c-0.01,0.04-0.09,0.329-0.13,0.499c-0.05,0.229-0.109,0.448-0.169,0.667c-0.07,0.299-0.15,0.598-0.219,0.897
		c-0.06,0.249-0.18,0.717-0.189,0.737c-0.07,0.199-0.249,0.278-0.369,0.278c-0.149,0-0.289-0.09-0.289-0.269
		c0-0.05,0.06-0.279,0.09-0.429L101.021,50.35z"/>
</g>
<g>
	<path d="M114.65,45.034c0.215,0,0.373,0.157,0.373,0.358c0,0.086-0.129,0.603-0.66,2.754c-0.115,0.416-0.187,0.731-0.287,1.09
		c-0.129,0.56-0.172,0.718-0.172,1.047c0,0.287,0.029,0.66,0.445,0.66c0.588,0,0.86-0.903,1.076-1.75
		c0.057-0.215,0.072-0.287,0.201-0.287c0.086,0,0.144,0.058,0.144,0.13c0,0.057-0.201,0.932-0.43,1.42
		c-0.258,0.517-0.603,0.774-1.033,0.774c-0.431,0-1.104-0.244-1.248-1.09c-0.401,0.473-1.076,1.09-1.865,1.09
		c-0.975,0-1.807-0.832-1.807-2.252c0-2.123,1.75-4.217,3.371-4.217c0.746,0,1.133,0.573,1.291,0.946
		C114.076,45.536,114.191,45.034,114.65,45.034z M113.832,46.568c0.015-0.028,0.058-0.215,0.058-0.229
		c0-0.114-0.187-1.29-1.133-1.29c-0.559,0-1.233,0.516-1.721,1.52c-0.272,0.603-0.717,2.209-0.717,2.998
		c0,0.847,0.33,1.377,0.918,1.377c0.674,0,1.305-0.616,1.621-1.019c0.201-0.272,0.201-0.301,0.272-0.545L113.832,46.568z"/>
</g>
<g>
	<path d="M117.342,42.873c-0.14,0-0.329,0-0.329-0.2c0-0.199,0.189-0.199,0.329-0.199h5.431c0.139,0,0.329,0,0.329,0.199
		c0,0.2-0.189,0.2-0.329,0.2H117.342z"/>
</g>
<g>
	<path d="M128.488,43.46c0,1.017-0.907,1.923-2.123,1.923c-1.086,0-2.013-0.657-2.013-1.563c0-0.438,0.319-0.578,0.558-0.578
		c0.289,0,0.558,0.199,0.558,0.558c0,0.379-0.309,0.598-0.658,0.548c0.349,0.588,1.096,0.758,1.524,0.758
		c0.438,0,1.126-0.289,1.126-1.645c0-0.976-0.369-1.654-1.186-1.654h-0.438c-0.169,0-0.239,0-0.239-0.109
		c0-0.1,0.07-0.11,0.149-0.12c0.07,0,0.309-0.02,0.389-0.03c0.249-0.01,0.588-0.04,0.887-0.519c0.259-0.438,0.279-1.016,0.279-1.136
		c0-0.896-0.548-1.116-0.957-1.116c-0.358,0-1.016,0.129-1.325,0.618c0.149,0,0.618,0,0.618,0.498c0,0.289-0.199,0.508-0.508,0.508
		c-0.289,0-0.508-0.189-0.508-0.518c0-0.757,0.757-1.355,1.764-1.355c0.957,0,1.833,0.558,1.833,1.375
		c0,0.787-0.578,1.484-1.395,1.753C127.86,41.866,128.488,42.643,128.488,43.46z"/>
</g>
<g>
	<path d="M138.325,51.732c0,0.215,0,0.459-0.272,0.459c-0.258,0-0.258-0.258-0.258-0.459v-3.959h-3.959
		c-0.215,0-0.459,0-0.459-0.272c0-0.258,0.258-0.258,0.459-0.258h3.959v-3.959c0-0.215,0-0.459,0.272-0.459
		c0.258,0,0.258,0.258,0.258,0.459v3.959h3.958c0.215,0,0.459,0,0.459,0.272c0,0.258-0.258,0.258-0.459,0.258h-3.958V51.732z"/>
	<path d="M155.749,51.087h-2.208c-0.316,0-0.359,0-0.359-0.272c0-1.019,0.502-2.338,0.746-3.026
		c0.401-1.062,0.803-2.138,0.803-3.228c0-2.208-1.535-3.284-2.955-3.284s-2.955,1.076-2.955,3.284c0,1.09,0.387,2.138,0.803,3.271
		c0.287,0.731,0.746,1.979,0.746,2.998c0,0.258-0.029,0.258-0.344,0.258h-2.223l-0.459-2.237h0.315
		c0.072,0.344,0.144,0.76,0.258,1.062c0.072,0.215,0.115,0.329,0.947,0.329h1.133c-0.158-0.803-0.588-1.477-1.19-2.409
		c-0.674-1.047-1.32-2.08-1.32-3.256c0-1.965,1.879-3.586,4.289-3.586c2.396,0,4.289,1.606,4.289,3.586
		c0,1.19-0.66,2.237-1.334,3.284c-0.588,0.89-1.004,1.578-1.176,2.381h1.133c0.832,0,0.875-0.114,0.946-0.344
		c0.115-0.301,0.187-0.674,0.258-1.047h0.315L155.749,51.087z"/>
</g>
<g>
	<path d="M158.314,50.35c0.13-0.518,0.16-0.628,0.16-0.837c0-0.379-0.14-0.458-0.309-0.458c-0.358,0-0.558,0.478-0.727,1.186
		c-0.06,0.219-0.07,0.229-0.169,0.229c-0.02,0-0.12,0-0.12-0.101c0-0.029,0.129-0.627,0.309-0.966
		c0.09-0.18,0.279-0.568,0.737-0.568c0.469,0,0.827,0.319,0.907,0.768c0.189-0.279,0.628-0.768,1.275-0.768
		c0.508,0,0.827,0.299,0.827,0.647c0,0.359-0.279,0.588-0.548,0.588s-0.379-0.188-0.379-0.349c0-0.259,0.219-0.498,0.518-0.548
		c-0.01,0-0.159-0.119-0.418-0.119c-0.428,0-0.717,0.259-0.797,0.328c-0.239,0.22-0.518,0.688-0.558,0.817
		c-0.06,0.27-0.239,0.967-0.319,1.295c-0.04,0.18-0.378,1.535-0.398,1.575c-0.07,0.199-0.249,0.278-0.369,0.278
		c-0.149,0-0.289-0.09-0.289-0.269c0-0.05,0.06-0.279,0.09-0.429L158.314,50.35z"/>
</g>
<g>
	<path d="M167.968,45.034c0.215,0,0.373,0.157,0.373,0.358c0,0.086-0.129,0.603-0.66,2.754c-0.115,0.416-0.187,0.731-0.287,1.09
		c-0.129,0.56-0.172,0.718-0.172,1.047c0,0.287,0.029,0.66,0.445,0.66c0.588,0,0.86-0.903,1.076-1.75
		c0.057-0.215,0.072-0.287,0.201-0.287c0.086,0,0.144,0.058,0.144,0.13c0,0.057-0.201,0.932-0.43,1.42
		c-0.258,0.517-0.603,0.774-1.033,0.774c-0.431,0-1.104-0.244-1.248-1.09c-0.402,0.473-1.076,1.09-1.865,1.09
		c-0.975,0-1.807-0.832-1.807-2.252c0-2.123,1.75-4.217,3.371-4.217c0.746,0,1.133,0.573,1.291,0.946
		C167.394,45.536,167.509,45.034,167.968,45.034z M167.15,46.568c0.015-0.028,0.058-0.215,0.058-0.229
		c0-0.114-0.187-1.29-1.133-1.29c-0.56,0-1.233,0.516-1.721,1.52c-0.272,0.603-0.717,2.209-0.717,2.998
		c0,0.847,0.33,1.377,0.918,1.377c0.674,0,1.306-0.616,1.621-1.019c0.201-0.272,0.201-0.301,0.272-0.545L167.15,46.568z"/>
</g>
<g>
	<path d="M170.66,42.873c-0.14,0-0.329,0-0.329-0.2c0-0.199,0.189-0.199,0.329-0.199h5.431c0.139,0,0.329,0,0.329,0.199
		c0,0.2-0.189,0.2-0.329,0.2H170.66z"/>
</g>
<g>
	<path d="M177.532,43.211l3.059-4.673c0.08-0.12,0.11-0.12,0.199-0.12c0.16,0,0.16,0.06,0.16,0.259v4.533h0.996v0.309h-0.996v0.867
		c0,0.358,0.02,0.469,0.757,0.469h0.209v0.309c-0.409-0.03-0.937-0.03-1.355-0.03s-0.937,0-1.345,0.03v-0.309h0.209
		c0.737,0,0.757-0.11,0.757-0.469V43.52h-2.65V43.211z M180.242,39.495l-2.431,3.716h2.431V39.495z"/>
</g>
<g>
	<path d="M191.643,51.732c0,0.215,0,0.459-0.273,0.459c-0.258,0-0.258-0.258-0.258-0.459v-3.959h-3.959
		c-0.215,0-0.459,0-0.459-0.272c0-0.258,0.258-0.258,0.459-0.258h3.959v-3.959c0-0.215,0-0.459,0.272-0.459
		c0.258,0,0.258,0.258,0.258,0.459v3.959h3.958c0.215,0,0.459,0,0.459,0.272c0,0.258-0.258,0.258-0.459,0.258h-3.958V51.732z"/>
	<path d="M209.066,51.087h-2.209c-0.315,0-0.358,0-0.358-0.272c0-1.019,0.502-2.338,0.746-3.026
		c0.401-1.062,0.803-2.138,0.803-3.228c0-2.208-1.535-3.284-2.955-3.284c-1.42,0-2.955,1.076-2.955,3.284
		c0,1.09,0.387,2.138,0.803,3.271c0.287,0.731,0.746,1.979,0.746,2.998c0,0.258-0.029,0.258-0.344,0.258h-2.224l-0.459-2.237h0.316
		c0.072,0.344,0.143,0.76,0.258,1.062c0.071,0.215,0.114,0.329,0.946,0.329h1.133c-0.158-0.803-0.588-1.477-1.19-2.409
		c-0.674-1.047-1.32-2.08-1.32-3.256c0-1.965,1.879-3.586,4.289-3.586c2.396,0,4.289,1.606,4.289,3.586
		c0,1.19-0.66,2.237-1.333,3.284c-0.588,0.89-1.004,1.578-1.176,2.381h1.133c0.832,0,0.875-0.114,0.947-0.344
		c0.115-0.301,0.187-0.674,0.258-1.047h0.315L209.066,51.087z"/>
</g>
<g>
	<path d="M212.002,50.639c0.379-0.149,0.768-0.548,1.106-0.927c0.718-0.797,1.176-0.877,1.455-0.877
		c0.448,0,0.677,0.329,0.677,0.628c0,0.389-0.289,0.607-0.548,0.607c-0.269,0-0.378-0.188-0.378-0.349
		c0-0.119,0.089-0.508,0.568-0.538c-0.02-0.02-0.02-0.029-0.04-0.039c-0.08-0.061-0.09-0.061-0.209-0.08
		c-0.02-0.01-0.03-0.01-0.09-0.01c-0.488,0-0.947,0.428-1.425,0.956c-0.229,0.239-0.548,0.559-0.857,0.737
		c0.847,0.109,1.475,0.398,1.475,1.047c0,0.1,0,0.139-0.04,0.309c-0.04,0.159-0.08,0.389-0.08,0.558
		c0,0.359,0.129,0.469,0.319,0.469c0.438,0,0.667-0.509,0.867-1.235c0.03-0.14,0.04-0.18,0.139-0.18c0.03,0,0.12,0,0.12,0.1
		c0,0.02-0.109,0.568-0.359,1.006c-0.219,0.369-0.488,0.528-0.787,0.528c-0.518,0-0.917-0.398-0.917-0.986
		c0-0.109,0.02-0.229,0.04-0.349c0.03-0.1,0.03-0.14,0.03-0.209c0-0.658-0.817-0.817-1.156-0.848
		c-0.06,0.25-0.508,2.093-0.558,2.183c-0.06,0.119-0.209,0.209-0.339,0.209c-0.09,0-0.289-0.05-0.289-0.278
		c0-0.061,0-0.08,0.04-0.22l1.445-5.739l0.03-0.199c0-0.1-0.02-0.169-0.498-0.169c-0.149,0-0.239,0-0.239-0.12
		c0-0.18,0.11-0.189,0.189-0.199c0.259-0.02,0.986-0.1,1.215-0.1c0.13,0,0.13,0.1,0.13,0.109L212.002,50.639z"/>
</g>
<g>
	<path d="M222.015,45.034c0.215,0,0.373,0.157,0.373,0.358c0,0.086-0.129,0.603-0.66,2.754c-0.115,0.416-0.187,0.731-0.287,1.09
		c-0.129,0.56-0.172,0.718-0.172,1.047c0,0.287,0.029,0.66,0.445,0.66c0.588,0,0.86-0.903,1.076-1.75
		c0.057-0.215,0.072-0.287,0.201-0.287c0.086,0,0.144,0.058,0.144,0.13c0,0.057-0.201,0.932-0.43,1.42
		c-0.258,0.517-0.603,0.774-1.033,0.774c-0.431,0-1.104-0.244-1.248-1.09c-0.402,0.473-1.076,1.09-1.865,1.09
		c-0.975,0-1.807-0.832-1.807-2.252c0-2.123,1.75-4.217,3.371-4.217c0.746,0,1.133,0.573,1.291,0.946
		C221.441,45.536,221.556,45.034,222.015,45.034z M221.197,46.568c0.015-0.028,0.058-0.215,0.058-0.229
		c0-0.114-0.187-1.29-1.133-1.29c-0.56,0-1.233,0.516-1.721,1.52c-0.272,0.603-0.717,2.209-0.717,2.998
		c0,0.847,0.33,1.377,0.918,1.377c0.674,0,1.306-0.616,1.621-1.019c0.201-0.272,0.201-0.301,0.272-0.545L221.197,46.568z"/>
</g>
<g>
	<path d="M224.707,42.873c-0.14,0-0.329,0-0.329-0.2c0-0.199,0.189-0.199,0.329-0.199h5.431c0.139,0,0.329,0,0.329,0.199
		c0,0.2-0.189,0.2-0.329,0.2H224.707z"/>
</g>
<g>
	<path d="M235.495,45.164h-3.697c0-0.239,0-0.259,0.11-0.369l1.913-2.132c0.548-0.618,1.046-1.405,1.046-2.202
		c0-0.817-0.428-1.624-1.335-1.624c-0.578,0-1.116,0.369-1.345,1.016c0.03-0.01,0.05-0.01,0.129-0.01
		c0.349,0,0.528,0.259,0.528,0.518c0,0.409-0.349,0.528-0.518,0.528c-0.03,0-0.528,0-0.528-0.558c0-0.887,0.737-1.804,1.863-1.804
		c1.216,0,2.112,0.797,2.112,1.933c0,0.997-0.598,1.535-2.152,2.909l-1.056,1.026h1.793c0.219,0,0.876,0,0.946-0.079
		c0.1-0.149,0.169-0.588,0.219-0.887h0.249L235.495,45.164z"/>
</g>
<g>
	<path d="M245.69,51.732c0,0.215,0,0.459-0.273,0.459c-0.258,0-0.258-0.258-0.258-0.459v-3.959H241.2c-0.215,0-0.459,0-0.459-0.272
		c0-0.258,0.258-0.258,0.459-0.258h3.959v-3.959c0-0.215,0-0.459,0.272-0.459c0.258,0,0.258,0.258,0.258,0.459v3.959h3.958
		c0.215,0,0.459,0,0.459,0.272c0,0.258-0.258,0.258-0.459,0.258h-3.958V51.732z"/>
	<path d="M263.113,51.087h-2.209c-0.315,0-0.358,0-0.358-0.272c0-1.019,0.502-2.338,0.746-3.026
		c0.401-1.062,0.803-2.138,0.803-3.228c0-2.208-1.535-3.284-2.955-3.284c-1.42,0-2.955,1.076-2.955,3.284
		c0,1.09,0.387,2.138,0.803,3.271c0.287,0.731,0.746,1.979,0.746,2.998c0,0.258-0.029,0.258-0.344,0.258h-2.224l-0.459-2.237h0.316
		c0.072,0.344,0.143,0.76,0.258,1.062c0.071,0.215,0.114,0.329,0.946,0.329h1.133c-0.158-0.803-0.588-1.477-1.19-2.409
		c-0.674-1.047-1.32-2.08-1.32-3.256c0-1.965,1.879-3.586,4.289-3.586c2.396,0,4.289,1.606,4.289,3.586
		c0,1.19-0.66,2.237-1.333,3.284c-0.588,0.89-1.004,1.578-1.176,2.381h1.133c0.832,0,0.875-0.114,0.947-0.344
		c0.115-0.301,0.187-0.674,0.258-1.047h0.315L263.113,51.087z"/>
</g>
<g>
	<path d="M269.906,52.502c0.119,0.368,0.149,0.429,0.907,0.429v0.309c-0.389-0.01-0.837-0.03-1.226-0.03
		c-0.379,0-1.086,0-1.435,0.03v-0.309c0.259,0,0.847,0,0.847-0.299c0-0.021,0-0.04-0.05-0.18l-1.575-4.902l-1.495,4.644
		c-0.05,0.14-0.05,0.169-0.05,0.219c0,0.239,0.229,0.508,0.768,0.519v0.309c-0.309-0.01-0.837-0.03-1.126-0.03
		c-0.09,0-0.598,0.011-0.927,0.03v-0.309c0.697,0,0.897-0.389,0.997-0.688l1.913-5.929c0.05-0.17,0.069-0.209,0.229-0.209
		c0.109,0,0.169,0.02,0.229,0.209L269.906,52.502z"/>
</g>
<g>
	<path d="M277.481,45.034c0.215,0,0.373,0.157,0.373,0.358c0,0.086-0.129,0.603-0.66,2.754c-0.115,0.416-0.187,0.731-0.287,1.09
		c-0.129,0.56-0.172,0.718-0.172,1.047c0,0.287,0.029,0.66,0.445,0.66c0.588,0,0.86-0.903,1.076-1.75
		c0.057-0.215,0.072-0.287,0.201-0.287c0.086,0,0.144,0.058,0.144,0.13c0,0.057-0.201,0.932-0.43,1.42
		c-0.258,0.517-0.603,0.774-1.033,0.774c-0.431,0-1.104-0.244-1.248-1.09c-0.401,0.473-1.076,1.09-1.865,1.09
		c-0.975,0-1.807-0.832-1.807-2.252c0-2.123,1.75-4.217,3.371-4.217c0.746,0,1.133,0.573,1.291,0.946
		C276.907,45.536,277.022,45.034,277.481,45.034z M276.663,46.568c0.015-0.028,0.058-0.215,0.058-0.229
		c0-0.114-0.187-1.29-1.133-1.29c-0.559,0-1.233,0.516-1.721,1.52c-0.272,0.603-0.717,2.209-0.717,2.998
		c0,0.847,0.33,1.377,0.918,1.377c0.674,0,1.305-0.616,1.621-1.019c0.201-0.272,0.201-0.301,0.272-0.545L276.663,46.568z"/>
</g>
<g>
	<path d="M280.173,42.873c-0.14,0-0.329,0-0.329-0.2c0-0.199,0.189-0.199,0.329-0.199h5.431c0.14,0,0.328,0,0.328,0.199
		c0,0.2-0.188,0.2-0.328,0.2H280.173z"/>
</g>
<g>
	<path d="M291.318,43.46c0,1.017-0.907,1.923-2.122,1.923c-1.087,0-2.013-0.657-2.013-1.563c0-0.438,0.318-0.578,0.558-0.578
		c0.289,0,0.558,0.199,0.558,0.558c0,0.379-0.309,0.598-0.657,0.548c0.349,0.588,1.096,0.758,1.524,0.758
		c0.438,0,1.126-0.289,1.126-1.645c0-0.976-0.369-1.654-1.186-1.654h-0.438c-0.17,0-0.239,0-0.239-0.109
		c0-0.1,0.069-0.11,0.149-0.12c0.069,0,0.309-0.02,0.389-0.03c0.249-0.01,0.588-0.04,0.887-0.519
		c0.259-0.438,0.279-1.016,0.279-1.136c0-0.896-0.549-1.116-0.957-1.116c-0.358,0-1.017,0.129-1.325,0.618
		c0.149,0,0.618,0,0.618,0.498c0,0.289-0.199,0.508-0.509,0.508c-0.289,0-0.508-0.189-0.508-0.518c0-0.757,0.757-1.355,1.764-1.355
		c0.956,0,1.833,0.558,1.833,1.375c0,0.787-0.577,1.484-1.395,1.753C290.69,41.866,291.318,42.643,291.318,43.46z"/>
	<path d="M294.944,47.655c-0.1,0-0.956-0.647-1.554-1.873c-0.549-1.126-0.658-2.332-0.658-3.109c0-0.837,0.12-1.943,0.628-3.039
		c0.588-1.266,1.484-1.943,1.584-1.943c0.06,0,0.1,0.03,0.1,0.1c0,0.03,0,0.05-0.129,0.169c-1.226,1.246-1.604,2.979-1.604,4.713
		c0,1.524,0.318,3.408,1.564,4.663c0.169,0.17,0.169,0.189,0.169,0.22C295.044,47.625,295.004,47.655,294.944,47.655z"/>
	<path d="M298.55,44.377c0,0.368,0.029,0.479,0.927,0.479h0.318v0.309c-0.349-0.03-1.216-0.03-1.614-0.03s-1.266,0-1.614,0.03
		v-0.309h0.319c0.896,0,0.927-0.12,0.927-0.479v-5.162c-0.519,0.259-1.106,0.259-1.306,0.259v-0.309c0.319,0,1.195,0,1.813-0.638
		c0.229,0,0.229,0.02,0.229,0.259V44.377z"/>
	<path d="M304.677,45.662c0,0.14,0,0.329-0.199,0.329s-0.199-0.189-0.199-0.329v-2.79h-2.79c-0.14,0-0.329,0-0.329-0.2
		c0-0.199,0.189-0.199,0.329-0.199h2.79v-2.79c0-0.14,0-0.329,0.199-0.329s0.199,0.189,0.199,0.329v2.79h2.78
		c0.14,0,0.328,0,0.328,0.199c0,0.2-0.188,0.2-0.328,0.2h-2.78V45.662z"/>
</g>
<g>
	<path d="M312.535,43.46c-0.039,0.14-0.109,0.448-0.109,0.728c0,0.568,0.27,0.867,0.737,0.867c0.488,0,0.837-0.349,1.096-0.877
		c0.26-0.508,0.549-1.485,0.549-1.824c0-0.478-0.249-0.737-0.359-0.847c-0.09-0.08-0.149-0.14-0.149-0.269
		c0-0.219,0.249-0.479,0.498-0.479c0.17,0,0.438,0.15,0.438,0.698c0,0.478-0.318,1.813-0.657,2.59
		c-0.259,0.598-0.697,1.226-1.445,1.226c-0.299,0-0.986-0.06-1.245-0.697c-0.398,0.697-0.867,0.697-1.036,0.697
		c-0.747,0-1.415-0.349-1.415-1.255c0-0.379,0.12-0.837,0.559-2.013c0.069-0.169,0.179-0.448,0.179-0.697
		c0-0.319-0.159-0.329-0.249-0.329c-0.349,0-0.737,0.309-1.006,1.236c-0.05,0.159-0.061,0.179-0.16,0.179c-0.02,0-0.119,0-0.119-0.1
		c0-0.09,0.368-1.535,1.315-1.535c0.488,0,0.816,0.369,0.816,0.817c0,0.199-0.06,0.339-0.169,0.638
		c-0.469,1.226-0.519,1.614-0.519,1.933c0,0.17,0,0.907,0.798,0.907c0.389,0,0.688-0.31,0.916-0.837c-0.01-0.05-0.01-0.07-0.01-0.18
		c0-0.18,0.02-0.358,0.09-0.657c0.069-0.26,0.538-2.163,0.567-2.232c0.07-0.199,0.25-0.279,0.369-0.279
		c0.149,0,0.289,0.09,0.289,0.269c0,0.06-0.1,0.428-0.149,0.647L312.535,43.46z"/>
</g>
<g>
	<path d="M318.004,45.712c-0.588,1.266-1.484,1.943-1.584,1.943c-0.061,0-0.1-0.04-0.1-0.1c0-0.03,0-0.05,0.129-0.17
		c1.235-1.255,1.604-3.009,1.604-4.713c0-2.082-0.568-3.667-1.545-4.653c-0.188-0.18-0.188-0.199-0.188-0.229
		c0-0.06,0.039-0.1,0.1-0.1c0.1,0,0.956,0.648,1.554,1.874c0.548,1.126,0.658,2.332,0.658,3.108
		C318.632,43.51,318.512,44.616,318.004,45.712z"/>
</g>
<g>
	<path d="M322.964,35.264h-2.582v-0.674h3.256v25.803h-3.256v-0.674h2.582V35.264z"/>
</g>
</svg>
