<?xml version="1.0" encoding="iso-8859-1"?>
<!-- Generator: Adobe Illustrator 16.0.0, SVG Export Plug-In . SVG Version: 6.00 Build 0)  -->
<!DOCTYPE svg PUBLIC "-//W3C//DTD SVG 1.1//EN" "http://www.w3.org/Graphics/SVG/1.1/DTD/svg11.dtd">
<svg version="1.1" id="Layer_1" xmlns="http://www.w3.org/2000/svg" xmlns:xlink="http://www.w3.org/1999/xlink" x="0px" y="0px"
	 width="566.929px" height="85.039px" viewBox="0 0 566.929 85.039" style="enable-background:new 0 0 566.929 85.039;"
	 xml:space="preserve">
<g>
	<path d="M26.514,51.563h3.973c2.295,0,3.199-0.416,3.457-2.782h0.315l-0.373,3.342h-7.846c-0.229,0-0.344,0-0.344-0.144
		c0-0.058,0.028-0.101,0.143-0.229l3.328-3.93l-3.485-5.164c0-0.33,0.015-0.33,0.359-0.33h7.846l0.373,3.199h-0.315
		c-0.272-2.267-1.004-2.783-3.414-2.783h-3.385l2.897,4.303c0.086,0.114,0.086,0.144,0.086,0.172c0,0.071-0.028,0.101-0.143,0.244
		L26.514,51.563z"/>
</g>
<g>
	<path d="M40.024,52.422c0,1.097-0.797,2.072-1.963,2.072c-0.887,0-1.524-0.358-1.833-0.697c-0.329,0.528-0.359,0.559-0.359,0.568
		c-0.07,0.109-0.08,0.129-0.149,0.129c-0.109,0-0.109-0.069-0.109-0.238v-1.993c0-0.18,0-0.249,0.129-0.249c0.03,0,0.109,0,0.12,0.1
		c0.01,0.358,0.04,0.996,0.618,1.534c0.528,0.488,1.285,0.538,1.574,0.538c0.837,0,1.335-0.717,1.335-1.425
		c0-0.329-0.1-0.657-0.309-0.917c-0.279-0.368-0.578-0.438-0.847-0.508c-0.698-0.169-1.206-0.289-1.315-0.329
		c-0.777-0.269-1.305-0.996-1.305-1.823c0-1.056,0.837-1.933,1.943-1.933c0.887,0,1.295,0.408,1.594,0.697l0.349-0.568
		c0.07-0.119,0.08-0.129,0.149-0.129c0.11,0,0.11,0.069,0.11,0.239v2.002c0,0.189,0,0.239-0.13,0.239
		c-0.109,0-0.109-0.06-0.119-0.119c-0.06-0.448-0.279-2.083-1.943-2.083c-0.777,0-1.315,0.608-1.315,1.306
		c0,0.578,0.389,1.116,1.006,1.266l1.275,0.309C39.366,50.608,40.024,51.426,40.024,52.422z"/>
	<path d="M46.665,49.742h-0.249c-0.16-1.375-0.409-1.934-1.903-1.934h-1.196c-0.468,0-0.488,0.07-0.488,0.398v2.521h0.857
		c0.957,0,1.056-0.329,1.056-1.166h0.25v2.641h-0.25c0-0.848-0.1-1.166-1.056-1.166h-0.857v2.451c0,0.349,0,0.479,0.947,0.479h0.329
		v0.309c-0.358-0.03-1.265-0.03-1.674-0.03c-0.389,0-1.166,0-1.515,0.03v-0.309h0.239c0.767,0,0.787-0.11,0.787-0.469v-5.221
		c0-0.359-0.02-0.469-0.787-0.469h-0.239V47.5h5.47L46.665,49.742z"/>
	<path d="M52.64,52.043l0.13,0.798c0.139,0.927,0.219,1.435,0.707,1.435c0.25,0,0.598-0.18,0.658-0.887
		c0.01-0.07,0.01-0.159,0.12-0.159c0.129,0,0.129,0.109,0.129,0.169c0,0.279-0.169,1.096-0.946,1.096
		c-0.299,0-0.847-0.06-1.255-0.418c-0.409-0.379-0.409-0.777-0.409-1.425c0-0.668,0-0.977-0.378-1.335
		c-0.349-0.339-0.768-0.339-0.927-0.339h-1.146v2.521c0,0.358,0.02,0.469,0.787,0.469h0.239v0.309
		c-0.359-0.03-1.066-0.03-1.455-0.03c-0.389,0-1.096,0-1.455,0.03v-0.309h0.239c0.767,0,0.787-0.11,0.787-0.469v-5.251
		c0-0.358-0.02-0.468-0.787-0.468h-0.239v-0.31h3.129c1.465,0,2.601,0.837,2.601,1.794c0,0.777-0.777,1.385-1.744,1.624
		C51.972,51.077,52.46,51.406,52.64,52.043z M50.428,50.758c1.475,0,1.714-0.807,1.714-1.494c0-1.445-1.116-1.484-2.013-1.484
		c-0.199,0-0.488,0-0.588,0.02c-0.219,0.03-0.219,0.149-0.219,0.379v2.58H50.428z"/>
</g>
<g>
	<path d="M66.48,49.685c0.531,0.832,1.291,2.008,2.453,2.008c0.072,0,0.244-0.028,0.33-0.043v0.574
		c-0.015,0-0.244,0.058-0.517,0.058c-1.75,0-2.725-1.507-3.342-2.468c-0.502,1.062-1.592,2.468-3.227,2.468
		c-1.621,0-2.467-1.679-2.467-3.242c0-1.664,0.932-3.256,2.496-3.256c1.75,0,2.726,1.506,3.342,2.467
		c0.502-1.061,1.592-2.467,3.227-2.467c0.043,0,0.315,0,0.445,0.043c0.028,0.029,0.043,0.043,0.043,0.416
		c-0.158-0.043-0.316-0.043-0.387-0.043c-1.606,0-2.582,1.592-3.012,2.553L66.48,49.685z M64.473,48.38
		c-0.531-0.832-1.291-2.009-2.453-2.009c-1.176,0-1.994,1.233-1.994,2.668c0,1.334,0.674,2.826,2.051,2.826
		c1.606,0,2.582-1.593,3.012-2.554L64.473,48.38z"/>
</g>
<g>
	<path d="M78.582,55.724c-0.158,0-1.333-0.933-2.18-2.654c-0.746-1.534-0.947-3.241-0.947-4.518c0-1.765,0.33-3.299,1.061-4.748
		c0.703-1.405,1.879-2.438,2.065-2.438c0.058,0,0.129,0.029,0.129,0.115c0,0.043,0,0.072-0.144,0.201
		c-1.664,1.693-2.338,4.087-2.338,6.871c0,2.926,0.803,5.292,2.238,6.741c0.244,0.244,0.244,0.272,0.244,0.315
		C78.711,55.694,78.64,55.724,78.582,55.724z"/>
	<path d="M81.119,51.563h3.973c2.295,0,3.198-0.416,3.457-2.782h0.316l-0.373,3.342h-7.846c-0.229,0-0.344,0-0.344-0.144
		c0-0.058,0.028-0.101,0.143-0.229l3.328-3.93l-3.485-5.164c0-0.33,0.015-0.33,0.359-0.33h7.846l0.373,3.199h-0.316
		c-0.272-2.267-1.004-2.783-3.414-2.783H81.75l2.897,4.303c0.086,0.114,0.086,0.144,0.086,0.172c0,0.071-0.029,0.101-0.144,0.244
		L81.119,51.563z"/>
</g>
<g>
	<path d="M90.714,52.95c0,0.318,0.209,0.628,0.528,0.668c0.069,0.01,0.498,0.01,0.747,0.01c0.608,0,1.186,0,1.714,0.278
		c0.508,0.279,0.647,0.788,0.647,1.137c0,0.776-1.036,1.285-2.212,1.285c-1.215,0-2.202-0.548-2.202-1.266
		c0-0.398,0.319-0.827,0.917-0.996c-0.309-0.199-0.438-0.578-0.438-0.887c0-0.349,0.179-0.678,0.309-0.827
		c-0.249-0.209-0.468-0.588-0.468-1.026c0-0.768,0.688-1.455,1.614-1.455c0.219,0,0.638,0.03,1.056,0.359
		c0.418-0.409,0.857-0.469,1.056-0.469c0.389,0,0.508,0.318,0.508,0.488c0,0.229-0.189,0.299-0.289,0.299
		c-0.159,0-0.289-0.119-0.289-0.289c0-0.119,0.05-0.229,0.16-0.269c-0.03-0.011-0.08-0.011-0.1-0.011
		c-0.179,0-0.538,0.05-0.897,0.389c0.25,0.229,0.409,0.599,0.409,0.967c0,0.768-0.688,1.455-1.614,1.455
		c-0.189,0-0.598-0.03-0.986-0.31C90.714,52.682,90.714,52.91,90.714,52.95z M93.833,55.062c0-0.856-1.116-0.856-1.973-0.856h-0.588
		c-0.438,0.029-0.817,0.398-0.817,0.856c0,0.528,0.688,1.036,1.694,1.036C93.125,56.099,93.833,55.601,93.833,55.062z
		 M92.578,52.163c0.149-0.249,0.16-0.568,0.16-0.837c0-0.229,0-1.226-0.867-1.226c-0.398,0-0.627,0.279-0.708,0.398
		c-0.149,0.249-0.159,0.568-0.159,0.837c0,0.229,0,1.226,0.867,1.226C92.269,52.562,92.498,52.282,92.578,52.163z"/>
	<path d="M96.652,54.385c-0.628,0-1.594-0.249-1.594-1.056c0-0.438,0.249-0.957,0.997-1.296c0.627-0.299,1.325-0.328,1.833-0.358
		v-0.369c0-0.887-0.568-1.275-1.056-1.275c-0.319,0-0.807,0.11-1.076,0.459c0.458,0.01,0.508,0.339,0.508,0.458
		c0,0.259-0.179,0.459-0.458,0.459c-0.259,0-0.458-0.17-0.458-0.469c0-0.657,0.688-1.126,1.504-1.126
		c0.479,0,0.977,0.159,1.365,0.548c0.358,0.369,0.358,0.758,0.358,1.176v1.993c0,0.05,0.04,0.498,0.369,0.498
		c0.109,0,0.358-0.06,0.358-0.638v-0.558h0.249v0.558c0,0.807-0.607,0.946-0.817,0.946c-0.468,0-0.737-0.418-0.777-0.816
		C97.769,53.986,97.31,54.385,96.652,54.385z M95.825,53.318c0,0.499,0.409,0.848,0.897,0.848c0.448,0,1.166-0.339,1.166-1.285
		v-0.997C96.244,51.943,95.825,52.771,95.825,53.318z"/>
	<path d="M100.378,51.884c-0.269-0.219-0.429-0.498-0.429-0.847c0-0.558,0.379-1.226,1.594-1.226c0.15,0,0.558,0,0.937,0.279
		c0.04-0.03,0.139-0.12,0.169-0.16c0.13-0.119,0.15-0.119,0.2-0.119c0.109,0,0.109,0.069,0.109,0.239v1.006
		c0,0.189,0,0.239-0.129,0.239c-0.02,0-0.11,0-0.12-0.09c-0.02-0.309-0.07-1.205-1.166-1.205c-0.857,0-1.116,0.408-1.116,0.757
		c0,0.578,0.667,0.708,1.226,0.817c0.418,0.08,0.807,0.159,1.136,0.479c0.12,0.119,0.418,0.418,0.418,0.946
		c0,0.718-0.458,1.385-1.604,1.385c-0.209,0-0.658-0.01-1.096-0.428c-0.179,0.188-0.179,0.209-0.199,0.229
		c-0.189,0.189-0.199,0.199-0.249,0.199c-0.11,0-0.11-0.069-0.11-0.239v-1.314c0-0.18,0-0.25,0.13-0.25c0.1,0,0.109,0.04,0.139,0.17
		c0.189,0.847,0.548,1.415,1.385,1.415c0.777,0,1.126-0.398,1.126-0.907c0-0.717-0.817-0.877-1.036-0.916
		C100.976,52.203,100.697,52.144,100.378,51.884z"/>
</g>
<g>
	<path d="M107.031,53.285c-0.703,1.405-1.879,2.438-2.065,2.438c-0.058,0-0.129-0.029-0.129-0.115c0-0.043,0-0.071,0.143-0.201
		c1.664-1.692,2.338-4.087,2.338-6.87c0-2.926-0.804-5.293-2.238-6.741c-0.244-0.244-0.244-0.272-0.244-0.315
		c0-0.086,0.071-0.115,0.129-0.115c0.158,0,1.334,0.932,2.18,2.654c0.803,1.663,0.947,3.442,0.947,4.532
		C108.093,50.272,107.763,51.822,107.031,53.285z"/>
</g>
<g>
	<path d="M112.44,44.423c0,0.368,0.03,0.479,0.927,0.479h0.319v0.309c-0.349-0.03-1.215-0.03-1.614-0.03
		c-0.398,0-1.265,0-1.614,0.03v-0.309h0.319c0.896,0,0.926-0.12,0.926-0.479v-5.162c-0.518,0.259-1.106,0.259-1.305,0.259v-0.309
		c0.319,0,1.196,0,1.813-0.638c0.229,0,0.229,0.02,0.229,0.259V44.423z"/>
</g>
<g>
	<path d="M115.878,45.21c-0.289,0-0.528-0.239-0.528-0.528s0.239-0.528,0.528-0.528c0.289,0,0.528,0.239,0.528,0.528
		S116.167,45.21,115.878,45.21z"/>
</g>
<g>
	<path d="M117.539,43.257l3.059-4.673c0.08-0.12,0.11-0.12,0.199-0.12c0.16,0,0.16,0.06,0.16,0.259v4.533h0.996v0.309h-0.996v0.867
		c0,0.358,0.02,0.469,0.757,0.469h0.209v0.309c-0.409-0.03-0.937-0.03-1.355-0.03s-0.937,0-1.345,0.03v-0.309h0.209
		c0.737,0,0.757-0.11,0.757-0.469v-0.867h-2.65V43.257z M120.249,39.541l-2.431,3.716h2.431V39.541z"/>
</g>
<g>
	<path d="M126.316,44.812h2.78c0.139,0,0.329,0,0.329,0.199s-0.189,0.199-0.329,0.199h-5.969c-0.14,0-0.329,0-0.329-0.199
		s0.189-0.199,0.329-0.199h2.79v-2.72h-2.79c-0.14,0-0.329,0-0.329-0.199s0.189-0.199,0.329-0.199h2.79v-2.8
		c0-0.139,0-0.319,0.199-0.319s0.199,0.209,0.199,0.359v2.76h2.78c0.139,0,0.329,0,0.329,0.199s-0.189,0.199-0.329,0.199h-2.78
		V44.812z"/>
</g>
<g>
	<path d="M134.205,44.273c-0.438,0.946-1.196,1.155-1.734,1.155c-0.488,0-1.215-0.199-1.644-1.006
		c-0.409-0.757-0.448-1.654-0.448-2.401c0-0.797,0.05-1.574,0.369-2.262c0.409-0.927,1.136-1.186,1.734-1.186
		c0.418,0,1.235,0.16,1.694,1.116c0.349,0.737,0.398,1.535,0.398,2.332C134.574,42.809,134.524,43.586,134.205,44.273z
		 M133.637,43.965c0.109-0.638,0.109-1.315,0.109-2.063c0-0.627,0-1.385-0.1-1.943c-0.189-0.986-0.847-1.166-1.176-1.166
		c-0.249,0-0.996,0.09-1.186,1.275c-0.08,0.538-0.08,1.196-0.08,1.833c0,0.588,0,1.504,0.109,2.102
		c0.179,0.957,0.767,1.206,1.156,1.206C132.919,45.21,133.488,44.911,133.637,43.965z"/>
</g>
<g>
	<path d="M136.356,45.21c-0.289,0-0.528-0.239-0.528-0.528s0.239-0.528,0.528-0.528c0.289,0,0.528,0.239,0.528,0.528
		S136.645,45.21,136.356,45.21z"/>
</g>
<g>
	<path d="M140.668,44.423c0,0.368,0.03,0.479,0.927,0.479h0.319v0.309c-0.349-0.03-1.215-0.03-1.614-0.03
		c-0.398,0-1.265,0-1.614,0.03v-0.309h0.319c0.896,0,0.926-0.12,0.926-0.479v-5.162c-0.518,0.259-1.106,0.259-1.305,0.259v-0.309
		c0.319,0,1.196,0,1.813-0.638c0.229,0,0.229,0.02,0.229,0.259V44.423z"/>
	<path d="M145.022,45.429c-1.116,0-1.804-0.966-1.804-1.823c0-0.458,0.349-0.527,0.488-0.527c0.329,0,0.499,0.249,0.499,0.487
		c0,0.239-0.169,0.488-0.499,0.488c-0.109,0-0.139-0.01-0.169-0.02c0.169,0.588,0.737,1.116,1.465,1.116
		c0.458,0,0.827-0.26,1.066-0.647c0.239-0.419,0.239-1.017,0.239-1.365c0-0.499-0.02-0.887-0.179-1.256
		c-0.08-0.179-0.329-0.638-0.847-0.638c-0.807,0-1.176,0.538-1.285,0.698c-0.04,0.06-0.06,0.089-0.129,0.089
		c-0.14,0-0.14-0.08-0.14-0.259v-2.949c0-0.16,0-0.239,0.1-0.239c0.02,0,0.04,0,0.12,0.03c0.468,0.209,0.927,0.279,1.325,0.279
		c0.667,0,1.156-0.199,1.355-0.289c0.05-0.03,0.07-0.03,0.08-0.03c0.07,0,0.1,0.05,0.1,0.11c0,0.129-0.698,1.036-1.923,1.036
		c-0.319,0-0.647-0.07-0.847-0.129v1.943c0.358-0.349,0.787-0.508,1.265-0.508c1.076,0,1.893,0.997,1.893,2.182
		C147.194,44.473,146.178,45.429,145.022,45.429z"/>
</g>
</svg>
