<?xml version="1.0" encoding="iso-8859-1"?>
<!-- Generator: Adobe Illustrator 16.0.0, SVG Export Plug-In . SVG Version: 6.00 Build 0)  -->
<!DOCTYPE svg PUBLIC "-//W3C//DTD SVG 1.1//EN" "http://www.w3.org/Graphics/SVG/1.1/DTD/svg11.dtd">
<svg version="1.1" id="Layer_1" xmlns="http://www.w3.org/2000/svg" xmlns:xlink="http://www.w3.org/1999/xlink" x="0px" y="0px"
	 width="566.929px" height="85.039px" viewBox="0 0 566.929 85.039" style="enable-background:new 0 0 566.929 85.039;"
	 xml:space="preserve">
<g>
	<path d="M26.757,38.92c0.474-1.908,2.008-3.213,3.271-3.213c0.99,0,1.922,0.76,1.922,2.295c0,2.166-1.836,4.174-3.457,4.174
		c-0.56,0-1.09-0.301-1.377-1.019c-0.459,1.764-0.861,3.485-0.918,3.614c-0.086,0.201-0.287,0.345-0.502,0.345
		c-0.215,0-0.388-0.144-0.388-0.358c0-0.086,0.029-0.173,0.043-0.244L26.757,38.92z M30.386,40.182
		c0.244-0.603,0.631-2.022,0.631-2.754c0-0.846-0.359-1.435-1.004-1.435c-0.215,0-1.621,0.072-2.353,2.926
		c-0.043,0.215-0.401,1.578-0.401,1.664c0,0.172,0.244,1.305,1.219,1.305C29.21,41.889,29.956,41.172,30.386,40.182z"/>
</g>
<g>
	<path d="M37.371,37.385c-0.215,0-0.459,0-0.459-0.272c0-0.258,0.258-0.258,0.459-0.258h8.448c0.215,0,0.459,0,0.459,0.272
		c0,0.258-0.258,0.258-0.459,0.258H37.371z M37.371,40.053c-0.215,0-0.459,0-0.459-0.272c0-0.258,0.258-0.258,0.459-0.258h8.448
		c0.215,0,0.459,0,0.459,0.273c0,0.258-0.258,0.258-0.459,0.258H37.371z"/>
</g>
<g>
	<path d="M86.61,29.215c0.474-1.908,2.008-3.213,3.271-3.213c0.99,0,1.922,0.76,1.922,2.295c0,2.166-1.836,4.174-3.457,4.174
		c-0.56,0-1.09-0.301-1.377-1.019c-0.459,1.764-0.861,3.485-0.918,3.615c-0.086,0.201-0.287,0.344-0.502,0.344
		c-0.215,0-0.388-0.144-0.388-0.359c0-0.086,0.029-0.172,0.043-0.244L86.61,29.215z M90.239,30.477
		c0.244-0.603,0.631-2.022,0.631-2.754c0-0.846-0.359-1.435-1.004-1.435c-0.215,0-1.621,0.072-2.353,2.926
		c-0.043,0.215-0.401,1.578-0.401,1.664c0,0.172,0.244,1.305,1.219,1.305C89.062,32.184,89.809,31.467,90.239,30.477z"/>
</g>
<g>
	<path d="M96.22,33.542c-0.438,0.946-1.196,1.156-1.734,1.156c-0.488,0-1.215-0.199-1.644-1.006
		c-0.409-0.757-0.448-1.654-0.448-2.401c0-0.797,0.05-1.574,0.369-2.262c0.409-0.927,1.136-1.186,1.734-1.186
		c0.418,0,1.235,0.16,1.694,1.116c0.349,0.737,0.398,1.534,0.398,2.332C96.588,32.078,96.539,32.855,96.22,33.542z M95.652,33.233
		c0.109-0.638,0.109-1.315,0.109-2.062c0-0.627,0-1.385-0.1-1.943c-0.189-0.986-0.847-1.166-1.176-1.166
		c-0.249,0-0.996,0.09-1.186,1.275c-0.08,0.538-0.08,1.196-0.08,1.833c0,0.588,0,1.504,0.109,2.103
		c0.179,0.957,0.767,1.206,1.156,1.206C94.934,34.479,95.502,34.18,95.652,33.233z"/>
</g>
<g>
	<rect x="52.243" y="38.159" width="77.759" height="0.574"/>
</g>
<g>
	<path d="M58.418,50.987c0.13-0.518,0.16-0.628,0.16-0.837c0-0.379-0.14-0.458-0.309-0.458c-0.358,0-0.558,0.478-0.727,1.186
		c-0.06,0.219-0.07,0.229-0.169,0.229c-0.02,0-0.12,0-0.12-0.1c0-0.03,0.129-0.628,0.309-0.967c0.09-0.18,0.279-0.568,0.737-0.568
		c0.469,0,0.827,0.319,0.907,0.768c0.189-0.279,0.628-0.768,1.275-0.768c0.508,0,0.827,0.299,0.827,0.647
		c0,0.359-0.279,0.588-0.548,0.588s-0.379-0.188-0.379-0.349c0-0.259,0.219-0.498,0.518-0.548c-0.01,0-0.159-0.119-0.418-0.119
		c-0.428,0-0.717,0.259-0.797,0.328c-0.239,0.22-0.518,0.688-0.558,0.817c-0.06,0.27-0.239,0.967-0.319,1.295
		c-0.04,0.18-0.378,1.535-0.398,1.575c-0.07,0.199-0.249,0.278-0.369,0.278c-0.149,0-0.289-0.09-0.289-0.269
		c0-0.05,0.06-0.279,0.09-0.429L58.418,50.987z"/>
</g>
<g>
	<rect x="53.438" y="55.652" width="11.823" height="0.574"/>
</g>
<g>
	<path d="M59.546,62.261c0,0.14-0.02,0.329-0.04,0.468c-0.04,0.319-0.1,0.827-0.1,1.137c0,0.389,0.07,0.607,0.399,0.607
		c0.229,0,0.657-0.169,0.907-0.906c0.02-0.07,0.04-0.14,0.129-0.14c0.01,0,0.12,0,0.12,0.119c0,0.14-0.349,1.146-1.196,1.146
		c-0.129,0-1.325,0-1.325-1.075c0-0.2,0.09-0.568,0.159-0.848c0.06-0.229,0.14-0.538,0.14-0.688c0-0.349-0.179-0.906-1.086-0.906
		h-1.186l-0.657,2.641c-0.01,0.06-0.03,0.109-0.03,0.169c0,0.18,0.279,0.18,0.648,0.18c0.189,0,0.279,0,0.279,0.109
		c0,0.199-0.12,0.199-0.199,0.199c-0.279,0-0.986-0.03-1.265-0.03c-0.279,0-0.977,0.03-1.256,0.03c-0.02,0-0.139,0-0.139-0.109
		c0-0.199,0.089-0.199,0.269-0.199c0.787,0,0.807-0.08,0.907-0.469l1.335-5.351c0.03-0.119,0.04-0.149,0.04-0.189
		c0-0.129-0.09-0.14-0.269-0.159c-0.169-0.02-0.359-0.02-0.379-0.02c-0.189,0-0.279,0-0.279-0.11c0-0.199,0.09-0.199,0.289-0.199
		h2.839c1.306,0,2.202,0.638,2.202,1.495c0,1.006-1.186,1.703-2.192,1.923C58.878,61.185,59.546,61.493,59.546,62.261z
		 M56.527,60.955h1.116c0.897,0,1.425-0.318,1.684-0.577c0.389-0.389,0.548-1.076,0.548-1.415c0-0.986-1.106-0.986-1.813-0.986
		c-0.2,0-0.519,0-0.608,0.01c-0.189,0.029-0.219,0.129-0.279,0.368L56.527,60.955z"/>
</g>
<g>
	<path d="M63.346,63.088c-0.118,0-0.362,0.014-0.551,0.133c-0.153,0.098-0.279,0.285-0.279,0.446c0,0.153,0.125,0.3,0.383,0.349
		c0.042,0.014,0.216,0.041,0.279,0.056c0.258,0.049,0.962,0.174,0.962,0.815c0,0.272-0.237,1.15-1.521,1.15
		c-0.676,0-1.123-0.258-1.123-0.676c0-0.307,0.202-0.468,0.404-0.468c0.146,0,0.272,0.084,0.272,0.259
		c0,0.194-0.153,0.369-0.383,0.397c0.16,0.229,0.558,0.292,0.837,0.292c0.083,0,0.425,0,0.697-0.153
		c0.292-0.174,0.37-0.438,0.37-0.558c0-0.349-0.446-0.433-0.593-0.46c-0.481-0.084-0.607-0.111-0.788-0.251
		c-0.098-0.084-0.244-0.251-0.244-0.509c0-0.217,0.195-1.019,1.283-1.019c0.425,0,0.927,0.153,0.927,0.606
		c0,0.355-0.265,0.397-0.334,0.397c-0.091,0-0.23-0.062-0.23-0.223c0-0.14,0.112-0.286,0.293-0.328
		C63.855,63.108,63.492,63.088,63.346,63.088z"/>
</g>
<g>
	<path d="M75.676,68.158c-0.115-0.101-0.316-0.33-0.459-0.502c0-0.015-0.531-0.603-0.918-1.162
		c-2.252-3.327-2.869-7.172-2.869-10.57c0-2.382,0.33-4.69,0.947-6.584c0.99-3.026,2.524-5.021,3.887-6.196
		c0.129-0.115,0.158-0.115,0.344-0.115c0.172,0,0.272,0,0.272,0.143c0,0.029,0,0.072-0.043,0.115
		c-2.51,2.539-4.317,6.282-4.317,12.65c0,3.442,0.574,6.985,2.123,9.739c0.89,1.578,1.664,2.366,2.181,2.883
		c0.028,0.043,0.057,0.072,0.057,0.129c0,0.13-0.115,0.144-0.158,0.144h-0.315c-0.015,0-0.144-0.144-0.172-0.157L75.676,68.158z"/>
</g>
<g>
	<path d="M81.547,58.422c0,0.517,0.043,0.688,1.305,0.688h0.445v0.416c-0.387-0.028-1.764-0.028-2.238-0.028
		c-0.473,0-1.865,0-2.252,0.028V59.11h0.445c1.262,0,1.305-0.172,1.305-0.688v-7.473c-0.789,0.373-1.506,0.373-1.836,0.373v-0.416
		c1.478,0,2.195-0.531,2.539-0.918c0.287,0,0.287,0.014,0.287,0.344V58.422z"/>
	<path d="M93.347,60.172c0,0.215,0,0.459-0.273,0.459c-0.258,0-0.258-0.258-0.258-0.459v-3.959h-3.959c-0.215,0-0.459,0-0.459-0.272
		c0-0.258,0.258-0.258,0.459-0.258h3.959v-3.959c0-0.215,0-0.459,0.272-0.459c0.258,0,0.258,0.258,0.258,0.459v3.959h3.958
		c0.215,0,0.459,0,0.459,0.272c0,0.258-0.258,0.258-0.459,0.258h-3.958V60.172z"/>
</g>
<g>
	<path d="M107.917,50.987c0.13-0.518,0.16-0.628,0.16-0.837c0-0.379-0.14-0.458-0.309-0.458c-0.358,0-0.558,0.478-0.727,1.186
		c-0.06,0.219-0.07,0.229-0.169,0.229c-0.02,0-0.12,0-0.12-0.1c0-0.03,0.129-0.628,0.309-0.967c0.09-0.18,0.279-0.568,0.737-0.568
		c0.469,0,0.827,0.319,0.907,0.768c0.189-0.279,0.628-0.768,1.275-0.768c0.508,0,0.827,0.299,0.827,0.647
		c0,0.359-0.279,0.588-0.548,0.588s-0.379-0.188-0.379-0.349c0-0.259,0.219-0.498,0.518-0.548c-0.01,0-0.159-0.119-0.418-0.119
		c-0.428,0-0.717,0.259-0.797,0.328c-0.239,0.22-0.518,0.688-0.558,0.817c-0.06,0.27-0.239,0.967-0.319,1.295
		c-0.04,0.18-0.378,1.535-0.398,1.575c-0.07,0.199-0.249,0.278-0.369,0.278c-0.149,0-0.289-0.09-0.289-0.269
		c0-0.05,0.06-0.279,0.09-0.429L107.917,50.987z"/>
</g>
<g>
	<rect x="102.936" y="55.652" width="11.823" height="0.574"/>
</g>
<g>
	<path d="M109.044,62.261c0,0.14-0.02,0.329-0.04,0.468c-0.04,0.319-0.1,0.827-0.1,1.137c0,0.389,0.07,0.607,0.399,0.607
		c0.229,0,0.657-0.169,0.907-0.906c0.02-0.07,0.04-0.14,0.129-0.14c0.01,0,0.12,0,0.12,0.119c0,0.14-0.349,1.146-1.196,1.146
		c-0.129,0-1.325,0-1.325-1.075c0-0.2,0.09-0.568,0.159-0.848c0.06-0.229,0.14-0.538,0.14-0.688c0-0.349-0.179-0.906-1.086-0.906
		h-1.186l-0.657,2.641c-0.01,0.06-0.03,0.109-0.03,0.169c0,0.18,0.279,0.18,0.648,0.18c0.189,0,0.279,0,0.279,0.109
		c0,0.199-0.12,0.199-0.199,0.199c-0.279,0-0.986-0.03-1.265-0.03c-0.279,0-0.977,0.03-1.256,0.03c-0.02,0-0.139,0-0.139-0.109
		c0-0.199,0.089-0.199,0.269-0.199c0.787,0,0.807-0.08,0.907-0.469l1.335-5.351c0.03-0.119,0.04-0.149,0.04-0.189
		c0-0.129-0.09-0.14-0.269-0.159c-0.169-0.02-0.359-0.02-0.379-0.02c-0.189,0-0.279,0-0.279-0.11c0-0.199,0.09-0.199,0.289-0.199
		h2.839c1.306,0,2.202,0.638,2.202,1.495c0,1.006-1.186,1.703-2.192,1.923C108.376,61.185,109.044,61.493,109.044,62.261z
		 M106.025,60.955h1.116c0.897,0,1.425-0.318,1.684-0.577c0.389-0.389,0.548-1.076,0.548-1.415c0-0.986-1.106-0.986-1.813-0.986
		c-0.2,0-0.519,0-0.608,0.01c-0.189,0.029-0.219,0.129-0.279,0.368L106.025,60.955z"/>
</g>
<g>
	<path d="M112.844,63.088c-0.118,0-0.362,0.014-0.551,0.133c-0.153,0.098-0.279,0.285-0.279,0.446c0,0.153,0.125,0.3,0.383,0.349
		c0.042,0.014,0.216,0.041,0.279,0.056c0.258,0.049,0.962,0.174,0.962,0.815c0,0.272-0.237,1.15-1.521,1.15
		c-0.676,0-1.123-0.258-1.123-0.676c0-0.307,0.202-0.468,0.404-0.468c0.146,0,0.272,0.084,0.272,0.259
		c0,0.194-0.153,0.369-0.383,0.397c0.16,0.229,0.558,0.292,0.837,0.292c0.083,0,0.425,0,0.697-0.153
		c0.292-0.174,0.37-0.438,0.37-0.558c0-0.349-0.446-0.433-0.593-0.46c-0.481-0.084-0.607-0.111-0.788-0.251
		c-0.098-0.084-0.244-0.251-0.244-0.509c0-0.217,0.195-1.019,1.283-1.019c0.425,0,0.927,0.153,0.927,0.606
		c0,0.355-0.265,0.397-0.334,0.397c-0.091,0-0.23-0.062-0.23-0.223c0-0.14,0.112-0.286,0.293-0.328
		C113.353,63.108,112.99,63.088,112.844,63.088z"/>
</g>
<g>
	<path d="M120.975,62.521c-0.99,3.026-2.524,5.02-3.887,6.196c-0.129,0.114-0.158,0.114-0.344,0.114c-0.144,0-0.272,0-0.272-0.144
		c0-0.043,0.028-0.086,0.057-0.114c2.582-2.625,4.303-6.426,4.303-12.65c0-3.442-0.574-6.985-2.123-9.739
		c-0.889-1.578-1.664-2.367-2.151-2.869c-0.029-0.028-0.086-0.086-0.086-0.144c0-0.143,0.129-0.143,0.272-0.143
		c0.187,0,0.215,0,0.315,0.086c0.344,0.301,0.875,0.86,1.076,1.09c2.826,3.228,3.787,7.602,3.787,11.719
		C121.922,58.232,121.606,60.557,120.975,62.521z"/>
</g>
<g>
	<path d="M128.718,46.874h-3.697c0-0.239,0-0.259,0.11-0.369l1.913-2.132c0.548-0.618,1.046-1.405,1.046-2.202
		c0-0.817-0.428-1.624-1.335-1.624c-0.578,0-1.116,0.369-1.345,1.016c0.03-0.01,0.05-0.01,0.129-0.01
		c0.349,0,0.528,0.259,0.528,0.518c0,0.409-0.349,0.528-0.518,0.528c-0.03,0-0.528,0-0.528-0.558c0-0.887,0.737-1.804,1.863-1.804
		c1.216,0,2.112,0.797,2.112,1.933c0,0.996-0.598,1.534-2.152,2.909l-1.056,1.026h1.793c0.219,0,0.876,0,0.946-0.079
		c0.1-0.149,0.169-0.588,0.219-0.887h0.249L128.718,46.874z"/>
</g>
</svg>
