<?xml version="1.0" encoding="iso-8859-1"?>
<!-- Generator: Adobe Illustrator 16.0.0, SVG Export Plug-In . SVG Version: 6.00 Build 0)  -->
<!DOCTYPE svg PUBLIC "-//W3C//DTD SVG 1.1//EN" "http://www.w3.org/Graphics/SVG/1.1/DTD/svg11.dtd">
<svg version="1.1" id="Layer_1" xmlns="http://www.w3.org/2000/svg" xmlns:xlink="http://www.w3.org/1999/xlink" x="0px" y="0px"
	 width="566.929px" height="85.039px" viewBox="0 0 566.929 85.039" style="enable-background:new 0 0 566.929 85.039;"
	 xml:space="preserve">
<g>
	<path d="M27.188,54.199c0,0.201,0,0.474-0.287,0.474c-0.287,0-0.287-0.272-0.287-0.474V40.803c0-0.201,0-0.473,0.287-0.473
		c0.287,0,0.287,0.272,0.287,0.473V54.199z"/>
</g>
<g>
	<path d="M34.83,51.087h-5.235v-0.345l2.897-3.241c0.817-0.918,1.521-1.979,1.521-3.198c0-1.32-0.746-2.338-1.965-2.338
		c-0.933,0-1.707,0.66-1.979,1.635c0.043-0.015,0.072-0.015,0.201-0.015c0.402,0,0.674,0.272,0.674,0.675
		c0,0.459-0.373,0.674-0.674,0.674c-0.043,0-0.674,0-0.674-0.731c0-1.233,0.976-2.653,2.639-2.653c1.664,0,2.969,1.104,2.969,2.754
		c0,1.42-0.803,2.166-2.983,4.174c-0.373,0.344-1.248,1.262-1.635,1.592h2.654c0.43,0,1.248,0,1.348-0.129
		c0.144-0.229,0.258-1.019,0.301-1.262h0.315L34.83,51.087z"/>
</g>
<g>
	<path d="M39.974,49.982c-0.057,0.229-0.057,0.33-0.057,0.345c0,0.215,0,0.344,1.291,0.344c0.373,0,0.474,0,0.474,0.144
		c0,0.272-0.144,0.272-0.301,0.272c-0.358,0-0.746-0.028-1.104-0.028h-2.237c-0.359,0-0.732,0.028-1.09,0.028
		c-0.072,0-0.229,0-0.229-0.144c0-0.272,0.101-0.272,0.459-0.272c1.521,0,1.549-0.144,1.692-0.703l1.922-7.702
		c0.071-0.258,0.071-0.287,0.071-0.33c0-0.158-0.143-0.158-0.487-0.158h-0.961c-1.908,0-2.209,0.803-2.812,2.538
		c-0.058,0.187-0.086,0.244-0.201,0.244c-0.086,0-0.144-0.071-0.144-0.144c0-0.014,0.043-0.172,0.057-0.2l0.875-2.582
		c0.086-0.258,0.101-0.272,0.431-0.272h7.846c0.287,0,0.373,0,0.373,0.158c0,0.043,0,0.072-0.029,0.201l-0.416,2.539
		c-0.043,0.229-0.043,0.301-0.187,0.301c-0.086,0-0.144-0.086-0.144-0.144l0.015-0.172c0.086-0.53,0.143-1.075,0.143-1.291
		c0-1.119-0.674-1.176-2.108-1.176c-0.301,0-0.774,0-0.889,0.028c-0.215,0.058-0.244,0.187-0.33,0.531L39.974,49.982z"/>
</g>
<g>
	<path d="M48.38,54.199c0,0.201,0,0.474-0.287,0.474c-0.287,0-0.287-0.272-0.287-0.474V40.803c0-0.201,0-0.473,0.287-0.473
		c0.287,0,0.287,0.272,0.287,0.473V54.199z"/>
</g>
<g>
	<path d="M55.302,46.439c-0.215,0-0.459,0-0.459-0.272c0-0.258,0.258-0.258,0.459-0.258h8.448c0.215,0,0.459,0,0.459,0.272
		c0,0.258-0.258,0.258-0.459,0.258H55.302z M55.302,49.107c-0.215,0-0.459,0-0.459-0.272c0-0.258,0.258-0.258,0.459-0.258h8.448
		c0.215,0,0.459,0,0.459,0.272c0,0.258-0.258,0.258-0.459,0.258H55.302z"/>
</g>
<g>
	<path d="M71.261,54.199c0,0.201,0,0.474-0.287,0.474c-0.287,0-0.287-0.272-0.287-0.474V40.803c0-0.201,0-0.473,0.287-0.473
		c0.287,0,0.287,0.272,0.287,0.473V54.199z"/>
</g>
<g>
	<path d="M76.666,51.115c-0.144,0.229-0.215,0.272-0.387,0.272c-0.201,0-0.201-0.043-0.244-0.344l-1.147-8.85
		c-0.043-0.359-0.086-0.488-0.817-0.488c-0.229,0-0.33,0-0.33-0.158c0-0.258,0.172-0.258,0.258-0.258
		c0.014,0,0.445,0.029,1.492,0.029h0.803c0.244,0,0.531-0.029,0.774-0.029c0.043,0,0.201,0,0.201,0.144
		c0,0.272-0.129,0.272-0.344,0.272c-0.158,0-0.904,0.029-0.904,0.444l1.004,7.731l4.504-7.143c0.014-0.015,0.215-0.344,0.215-0.56
		c0-0.172-0.058-0.43-0.588-0.473c-0.057,0-0.187-0.015-0.187-0.144c0-0.272,0.144-0.272,0.258-0.272
		c0.401,0,0.832,0.029,1.248,0.029c0.258,0,0.875-0.029,1.133-0.029c0.129,0,0.158,0.086,0.158,0.144
		c0,0.258-0.115,0.258-0.258,0.272c-0.732,0.057-1.176,0.401-1.664,1.176L76.666,51.115z"/>
</g>
<g>
	<path d="M86.557,54.199c0,0.201,0,0.474-0.287,0.474c-0.287,0-0.287-0.272-0.287-0.474V40.803c0-0.201,0-0.473,0.287-0.473
		c0.287,0,0.287,0.272,0.287,0.473V54.199z"/>
</g>
</svg>
