<?xml version="1.0" encoding="iso-8859-1"?>
<!-- Generator: Adobe Illustrator 16.0.0, SVG Export Plug-In . SVG Version: 6.00 Build 0)  -->
<!DOCTYPE svg PUBLIC "-//W3C//DTD SVG 1.1//EN" "http://www.w3.org/Graphics/SVG/1.1/DTD/svg11.dtd">
<svg version="1.1" id="Layer_1" xmlns="http://www.w3.org/2000/svg" xmlns:xlink="http://www.w3.org/1999/xlink" x="0px" y="0px"
	 width="566.929px" height="85.039px" viewBox="0 0 566.929 85.039" style="enable-background:new 0 0 566.929 85.039;"
	 xml:space="preserve">
<g>
	<path d="M33.943,52.335h-2.209c-0.315,0-0.358,0-0.358-0.272c0-1.019,0.502-2.338,0.746-3.026c0.401-1.062,0.803-2.138,0.803-3.228
		c0-2.209-1.535-3.284-2.955-3.284c-1.42,0-2.955,1.075-2.955,3.284c0,1.09,0.387,2.138,0.803,3.271
		c0.287,0.731,0.746,1.979,0.746,2.998c0,0.258-0.029,0.258-0.344,0.258h-2.224l-0.459-2.237h0.316
		c0.072,0.344,0.143,0.76,0.258,1.062c0.071,0.215,0.114,0.329,0.946,0.329h1.133c-0.158-0.803-0.588-1.477-1.19-2.409
		c-0.674-1.047-1.32-2.08-1.32-3.256c0-1.965,1.879-3.586,4.289-3.586c2.396,0,4.289,1.606,4.289,3.586
		c0,1.19-0.66,2.237-1.333,3.284c-0.588,0.89-1.004,1.578-1.176,2.381h1.133c0.832,0,0.875-0.114,0.947-0.344
		c0.115-0.301,0.187-0.674,0.258-1.047h0.315L33.943,52.335z"/>
	<path d="M40.274,47.688c-0.215,0-0.459,0-0.459-0.272c0-0.258,0.258-0.258,0.459-0.258h8.448c0.215,0,0.459,0,0.459,0.272
		c0,0.258-0.258,0.258-0.459,0.258H40.274z M40.274,50.355c-0.215,0-0.459,0-0.459-0.272c0-0.258,0.258-0.258,0.459-0.258h8.448
		c0.215,0,0.459,0,0.459,0.272c0,0.258-0.258,0.258-0.459,0.258H40.274z"/>
</g>
<g>
	<path d="M61.569,40.248c0,1.506-1.334,2.682-2.926,2.682c-1.463,0-2.912-0.947-2.912-2.467c0-1.047,0.717-2.008,2.109-2.653
		c-1.004-0.703-1.019-0.717-1.176-0.904c-0.402-0.487-0.545-0.975-0.545-1.463c0-1.305,1.119-2.352,2.539-2.352
		c1.319,0,2.524,0.86,2.524,2.108c0,1.205-1.047,1.864-1.764,2.252C60.536,38.14,61.569,38.785,61.569,40.248z M56.391,40.463
		c0,1.19,1.047,2.08,2.266,2.08c1.147,0,2.252-0.746,2.252-1.836c0-0.875-0.66-1.32-1.033-1.563
		c-0.387-0.258-1.348-0.875-1.736-1.133C57.208,38.44,56.391,39.344,56.391,40.463z M59.13,37.25
		c0.832-0.459,1.463-1.162,1.463-2.037c0-1.033-0.918-1.778-1.951-1.778c-0.961,0-1.936,0.588-1.936,1.52
		c0,0.703,0.574,1.076,0.76,1.205L59.13,37.25z"/>
</g>
<g>
	<path d="M65.049,40.463c-0.143,0.574-0.143,0.603-0.373,1.334c-0.172,0.603-0.287,0.976-0.703,0.976
		c-0.129,0-0.387-0.072-0.387-0.373c0-0.086,0-0.115,0.115-0.344c1.176-2.51,1.535-3.758,1.85-4.833h-0.817
		c-0.358,0-1.104,0-1.85,1.176c-0.072,0.086-0.086,0.129-0.187,0.129c-0.086,0-0.158-0.029-0.158-0.115s0.459-0.846,0.832-1.262
		c0.66-0.703,1.147-0.703,1.477-0.703h4.719c0.258,0,0.53,0,0.53,0.316c0,0.459-0.473,0.459-0.66,0.459h-1.606
		c-0.301,1.291-0.301,2.309-0.301,2.395c0,0.101,0,1.334,0.387,2.324c0.101,0.215,0.101,0.244,0.101,0.315
		c0,0.244-0.258,0.517-0.56,0.517c-0.588,0-0.588-1.549-0.588-1.75c0-1.147,0.244-2.194,0.631-3.801h-1.621L65.049,40.463z"/>
	<path d="M80.447,36.318c-0.057,0.258-0.072,0.272-0.229,0.272c-0.043,0-0.187,0-0.187-0.129c0-0.201,0.058-0.517,0.058-0.746
		c0-1.319-0.603-2.768-2.295-2.768c-1.262,0-2.596,0.703-3.5,1.735c-1.391,1.621-1.735,3.815-1.735,4.776
		c0,2.481,1.793,3.055,2.897,3.055c0.846,0,1.979-0.33,2.524-1.133c0.272-0.43,0.545-1.879,0.545-1.893c0-0.215,0-0.33-1.133-0.33
		h-0.358c0-0.014-0.115-0.014-0.115-0.158c0-0.258,0.172-0.258,0.301-0.258c0.588,0,1.219,0.029,1.821,0.029h0.775
		c0.258,0,0.531-0.029,0.774-0.029c0.043,0,0.187,0,0.187,0.144c0,0.272-0.172,0.272-0.229,0.272
		c-0.789,0.015-0.818,0.058-0.961,0.603c-0.101,0.43-0.158,0.631-0.273,1.104l-0.229,0.918c-0.071,0.258-0.186,0.76-0.201,0.789
		c-0.014,0-0.029,0.043-0.1,0.043c-0.101,0-0.416-0.387-0.574-0.933c-0.717,0.904-2.022,1.248-3.055,1.248
		c-2.151,0-3.787-1.521-3.787-3.887c0-3.385,3.227-6.512,6.296-6.512c0.215,0,0.832,0,1.449,0.387
		c0.56,0.33,0.846,0.832,0.918,0.947l0.99-1.19c0.115-0.144,0.172-0.144,0.201-0.144c0.029,0,0.129,0,0.129,0.129L80.447,36.318z"/>
	<path d="M83.581,39.517c0.474-1.908,2.008-3.213,3.271-3.213c0.99,0,1.922,0.76,1.922,2.295c0,2.166-1.836,4.174-3.457,4.174
		c-0.56,0-1.09-0.301-1.377-1.019c-0.459,1.765-0.861,3.485-0.918,3.614c-0.086,0.201-0.287,0.345-0.502,0.345
		c-0.215,0-0.387-0.144-0.387-0.358c0-0.087,0.028-0.173,0.043-0.244L83.581,39.517z M87.21,40.779
		c0.244-0.603,0.631-2.022,0.631-2.754c0-0.846-0.359-1.435-1.004-1.435c-0.215,0-1.621,0.072-2.352,2.926
		c-0.043,0.215-0.402,1.578-0.402,1.664c0,0.172,0.244,1.305,1.219,1.305C86.034,42.485,86.78,41.769,87.21,40.779z"/>
</g>
<g>
	<rect x="55.143" y="48.461" width="33.832" height="0.574"/>
</g>
<g>
	<path d="M62.503,56.982c0.387-0.015,0.875-0.058,1.305-0.688c0.416-0.616,0.459-1.42,0.459-1.692c0-1.405-0.932-1.621-1.405-1.621
		c-0.072,0-1.42,0-1.965,0.976c0.043-0.015,0.072-0.015,0.158-0.015c0.316,0,0.66,0.201,0.66,0.66c0,0.431-0.344,0.646-0.646,0.646
		c-0.215,0-0.66-0.115-0.66-0.688c0-1.047,1.062-1.922,2.496-1.922c1.391,0,2.567,0.832,2.567,1.965
		c0,1.119-0.803,2.166-2.051,2.524c1.377,0.244,2.438,1.276,2.438,2.596c0,1.449-1.262,2.754-2.969,2.754
		c-1.592,0-2.869-1.047-2.869-2.323c0-0.545,0.373-0.746,0.717-0.746c0.402,0,0.703,0.287,0.703,0.703
		c0,0.517-0.416,0.774-0.875,0.703c0.416,0.946,1.592,1.276,2.28,1.276c0.703,0,1.678-0.502,1.678-2.381
		c0-1.377-0.545-2.381-1.764-2.381h-0.66c-0.258,0-0.33,0-0.33-0.144c0-0.129,0.058-0.144,0.301-0.158L62.503,56.982z"/>
</g>
<g>
	<path d="M75.222,61.271c-0.029,0.114-0.029,0.215-0.029,0.229c0,0.144,0,0.258,0.875,0.258c0.215,0,0.344,0,0.344,0.144
		c0,0.272-0.158,0.272-0.272,0.272c-0.272,0-0.574-0.028-0.846-0.028h-1.692c-0.272,0-0.574,0.028-0.832,0.028
		c-0.043,0-0.201,0-0.201-0.144c0-0.272,0.129-0.272,0.301-0.272c0.846-0.015,1.076-0.015,1.233-0.444
		c0.029-0.086,0.76-3.084,1.004-4.03h-4.346l-0.989,3.987c-0.029,0.114-0.029,0.215-0.029,0.229c0,0.144,0,0.258,0.875,0.258
		c0.215,0,0.344,0,0.344,0.144c0,0.272-0.158,0.272-0.272,0.272c-0.272,0-0.574-0.028-0.847-0.028H68.15
		c-0.272,0-0.574,0.028-0.832,0.028c-0.043,0-0.201,0-0.201-0.144c0-0.272,0.101-0.272,0.43-0.272c0.99,0,1.019-0.144,1.147-0.646
		l1.937-7.717c0.058-0.215,0.058-0.301,0.058-0.33c0-0.157,0-0.272-0.861-0.272c-0.272,0-0.373,0-0.373-0.144
		c0-0.272,0.172-0.272,0.273-0.272c0.272,0,0.573,0.029,0.846,0.029h1.692c0.272,0,0.574-0.029,0.832-0.029
		c0.086,0,0.215,0,0.215,0.158c0,0.258-0.143,0.258-0.401,0.258c-1.019,0-1.047,0.144-1.176,0.632l-0.86,3.442h4.332l0.875-3.472
		c0.057-0.215,0.057-0.301,0.057-0.33c0-0.157,0-0.272-0.86-0.272c-0.272,0-0.373,0-0.373-0.144c0-0.272,0.172-0.272,0.272-0.272
		c0.272,0,0.574,0.029,0.846,0.029h1.692c0.273,0,0.574-0.029,0.832-0.029c0.086,0,0.215,0,0.215,0.158
		c0,0.258-0.144,0.258-0.402,0.258c-1.018,0-1.047,0.144-1.176,0.632L75.222,61.271z"/>
</g>
<g>
	<path d="M83.4,58.031h-3.697c0-0.239,0-0.259,0.11-0.369l1.913-2.132c0.548-0.618,1.046-1.405,1.046-2.202
		c0-0.817-0.428-1.624-1.335-1.624c-0.578,0-1.116,0.369-1.345,1.017c0.03-0.01,0.05-0.01,0.129-0.01
		c0.349,0,0.528,0.259,0.528,0.518c0,0.408-0.349,0.528-0.518,0.528c-0.03,0-0.528,0-0.528-0.559c0-0.887,0.737-1.803,1.863-1.803
		c1.216,0,2.112,0.797,2.112,1.933c0,0.996-0.598,1.534-2.152,2.909l-1.056,1.026h1.793c0.219,0,0.876,0,0.946-0.079
		c0.1-0.149,0.169-0.588,0.219-0.887h0.249L83.4,58.031z"/>
</g>
</svg>
