<?xml version="1.0" encoding="iso-8859-1"?>
<!-- Generator: Adobe Illustrator 16.0.0, SVG Export Plug-In . SVG Version: 6.00 Build 0)  -->
<!DOCTYPE svg PUBLIC "-//W3C//DTD SVG 1.1//EN" "http://www.w3.org/Graphics/SVG/1.1/DTD/svg11.dtd">
<svg version="1.1" id="Layer_1" xmlns="http://www.w3.org/2000/svg" xmlns:xlink="http://www.w3.org/1999/xlink" x="0px" y="0px"
	 width="566.929px" height="85.039px" viewBox="0 0 566.929 85.039" style="enable-background:new 0 0 566.929 85.039;"
	 xml:space="preserve">
<g>
	<path d="M28.264,54.11c-0.129,0-0.846,0-1.363-0.444c-0.445-0.402-0.488-0.99-0.488-1.306c0-0.345,0-0.789,0.688-2.625
		c0.215-0.545,0.373-0.961,0.373-1.334c0-0.473-0.244-0.473-0.373-0.473c-0.545,0-1.104,0.545-1.448,1.778
		c-0.058,0.2-0.072,0.258-0.201,0.258c-0.1,0-0.158-0.071-0.158-0.129c0-0.115,0.531-2.194,1.85-2.194
		c0.703,0,1.133,0.545,1.133,1.147c0,0.287-0.057,0.43-0.287,1.019c-0.388,1.032-0.717,2.036-0.717,2.754
		c0,0.53,0.172,1.262,1.047,1.262c1.721,0,2.582-3.356,2.582-3.959c0-0.745-0.373-1.133-0.517-1.262
		c-0.057-0.058-0.158-0.158-0.158-0.33c0-0.287,0.315-0.631,0.66-0.631c0.115,0,0.574,0.058,0.574,0.961
		C31.462,49.42,30.645,54.11,28.264,54.11z"/>
</g>
<g>
	<path d="M37.43,49.319c-0.215,0-0.459,0-0.459-0.272c0-0.258,0.258-0.258,0.459-0.258h8.448c0.215,0,0.459,0,0.459,0.272
		c0,0.258-0.258,0.258-0.459,0.258H37.43z M37.43,51.987c-0.215,0-0.459,0-0.459-0.272c0-0.258,0.258-0.258,0.459-0.258h8.448
		c0.215,0,0.459,0,0.459,0.272c0,0.258-0.258,0.258-0.459,0.258H37.43z"/>
</g>
<g>
	<path d="M65.136,30.959c0.043-0.201,0.086-0.387,0.315-0.387c0.172,0,0.287,0.129,0.287,0.287c0,0.071-0.029,0.201-0.058,0.301
		l-7.889,33.463c-0.086,0.373-0.129,0.373-0.603,0.373l-3.313-15.391l-0.975,1.535c-0.014-0.015-0.201-0.172-0.201-0.229
		c0-0.015,0-0.043,0.1-0.172l1.879-2.955l3.098,14.372h0.015L65.136,30.959z"/>
</g>
<g>
	<rect x="65.454" y="30.572" width="28.56" height="0.574"/>
</g>
<g>
	<path d="M76.446,37.951c-0.057,0.258-0.072,0.272-0.229,0.272c-0.043,0-0.187,0-0.187-0.129c0-0.201,0.058-0.517,0.058-0.746
		c0-1.319-0.603-2.768-2.295-2.768c-1.262,0-2.596,0.703-3.5,1.735c-1.391,1.621-1.735,3.815-1.735,4.776
		c0,2.481,1.793,3.055,2.897,3.055c0.846,0,1.979-0.329,2.524-1.133c0.272-0.43,0.545-1.879,0.545-1.893c0-0.215,0-0.33-1.133-0.33
		h-0.358c0-0.014-0.115-0.014-0.115-0.158c0-0.258,0.172-0.258,0.301-0.258c0.588,0,1.219,0.029,1.821,0.029h0.775
		c0.258,0,0.53-0.029,0.774-0.029c0.043,0,0.187,0,0.187,0.144c0,0.272-0.172,0.272-0.229,0.272
		c-0.789,0.015-0.818,0.058-0.961,0.603c-0.101,0.43-0.158,0.631-0.272,1.104l-0.229,0.917c-0.072,0.259-0.187,0.761-0.201,0.789
		c-0.014,0-0.028,0.043-0.1,0.043c-0.101,0-0.416-0.387-0.574-0.932c-0.717,0.903-2.022,1.247-3.055,1.247
		c-2.152,0-3.787-1.52-3.787-3.887c0-3.385,3.227-6.512,6.296-6.512c0.215,0,0.832,0,1.449,0.387c0.56,0.33,0.846,0.832,0.918,0.947
		l0.99-1.19c0.115-0.144,0.172-0.144,0.201-0.144c0.029,0,0.129,0,0.129,0.129L76.446,37.951z"/>
	<path d="M88.789,43.358c-0.029,0.114-0.029,0.215-0.029,0.229c0,0.144,0,0.258,0.875,0.258c0.215,0,0.344,0,0.344,0.144
		c0,0.272-0.158,0.272-0.272,0.272c-0.244,0-0.545-0.028-0.789-0.028h-1.693c-0.244,0-0.531,0.028-0.774,0.028
		c-0.086,0-0.215,0-0.215-0.158c0-0.258,0.144-0.258,0.416-0.258c1.004,0,1.033-0.144,1.162-0.646l2.08-8.305h-0.014l-5.766,9.122
		c-0.072,0.129-0.144,0.244-0.301,0.244c-0.129,0-0.144-0.043-0.187-0.388l-1.19-8.907H82.42l-1.979,7.903
		c-0.058,0.201-0.058,0.215-0.058,0.358c0,0.517,0.459,0.603,0.933,0.617c0.057,0,0.201,0.015,0.201,0.144
		c0,0.272-0.158,0.272-0.258,0.272c-0.201,0-0.444-0.028-0.646-0.028h-0.688c-0.287,0-1.018,0.028-1.305,0.028
		c-0.057,0-0.187,0-0.187-0.158c0-0.243,0.172-0.258,0.215-0.258c0.961-0.043,1.291-0.358,1.463-1.047l1.836-7.315
		c0.058-0.215,0.058-0.301,0.058-0.33c0-0.158,0-0.272-0.875-0.272c-0.215,0-0.344,0-0.344-0.144c0-0.272,0.129-0.272,0.401-0.272
		h1.779c0.373,0,0.387,0,0.43,0.315l1.076,8.205l5.235-8.276c0.158-0.229,0.172-0.244,0.531-0.244h1.721
		c0.272,0,0.373,0,0.373,0.144c0,0.272-0.129,0.272-0.402,0.272c-1.018,0-1.047,0.143-1.176,0.631L88.789,43.358z"/>
</g>
<g>
	<rect x="66.65" y="50.094" width="26.169" height="0.574"/>
</g>
<g>
	<path d="M81.308,57.77c-0.588,0-0.961,0.329-1.133,0.487c-0.358,0.315-0.746,1.019-0.789,1.147
		c-0.043,0.187-0.101,0.416-0.158,0.617c-0.072,0.315-0.158,0.616-0.229,0.932c-0.086,0.33-0.617,2.496-0.66,2.61
		c-0.086,0.287-0.358,0.388-0.516,0.388c-0.215,0-0.373-0.158-0.373-0.358c0-0.072,0.158-0.746,0.258-1.119
		c0.072-0.258,0.229-0.903,0.287-1.176c0.129-0.517,0.273-1.033,0.402-1.55c0.101-0.444,0.244-1.004,0.244-1.319
		c0-0.416-0.1-0.659-0.444-0.659c-0.574,0-0.846,0.831-1.062,1.692c-0.086,0.329-0.101,0.344-0.215,0.344
		c-0.1,0-0.158-0.071-0.158-0.129c0-0.071,0.215-0.933,0.459-1.448c0.172-0.316,0.459-0.746,1.019-0.746
		c0.574,0,1.147,0.373,1.248,1.133c0.603-0.875,1.262-1.133,1.836-1.133c0.717,0,1.162,0.401,1.162,0.86
		c0,0.431-0.33,0.774-0.731,0.774c-0.201,0-0.474-0.114-0.474-0.459c0-0.315,0.229-0.631,0.674-0.717
		C81.767,57.812,81.538,57.77,81.308,57.77z"/>
</g>
</svg>
