<?xml version="1.0" encoding="iso-8859-1"?>
<!-- Generator: Adobe Illustrator 16.0.0, SVG Export Plug-In . SVG Version: 6.00 Build 0)  -->
<!DOCTYPE svg PUBLIC "-//W3C//DTD SVG 1.1//EN" "http://www.w3.org/Graphics/SVG/1.1/DTD/svg11.dtd">
<svg version="1.1" id="Layer_1" xmlns="http://www.w3.org/2000/svg" xmlns:xlink="http://www.w3.org/1999/xlink" x="0px" y="0px"
	 width="566.929px" height="85.039px" viewBox="0 0 566.929 85.039" style="enable-background:new 0 0 566.929 85.039;"
	 xml:space="preserve">
<g>
	<path d="M33.943,51.326h-2.209c-0.315,0-0.358,0-0.358-0.272c0-1.019,0.502-2.338,0.746-3.026c0.401-1.062,0.803-2.138,0.803-3.228
		c0-2.208-1.535-3.284-2.955-3.284c-1.42,0-2.955,1.076-2.955,3.284c0,1.09,0.387,2.138,0.803,3.271
		c0.287,0.731,0.746,1.979,0.746,2.998c0,0.258-0.029,0.258-0.344,0.258h-2.224l-0.459-2.237h0.316
		c0.072,0.344,0.143,0.76,0.258,1.062c0.071,0.215,0.114,0.329,0.946,0.329h1.133c-0.158-0.803-0.588-1.477-1.19-2.409
		c-0.674-1.047-1.32-2.08-1.32-3.256c0-1.965,1.879-3.586,4.289-3.586c2.396,0,4.289,1.606,4.289,3.586
		c0,1.19-0.66,2.237-1.333,3.284c-0.588,0.89-1.004,1.578-1.176,2.381h1.133c0.832,0,0.875-0.114,0.947-0.344
		c0.115-0.302,0.187-0.674,0.258-1.047h0.315L33.943,51.326z"/>
</g>
<g>
	<path d="M36.506,50.589c0.13-0.518,0.16-0.628,0.16-0.837c0-0.379-0.149-0.458-0.309-0.458c-0.358,0-0.558,0.478-0.727,1.186
		c-0.06,0.219-0.07,0.229-0.169,0.229c-0.02,0-0.12,0-0.12-0.1c0-0.03,0.129-0.618,0.309-0.967c0.09-0.18,0.279-0.568,0.737-0.568
		c0.449,0,0.867,0.299,0.917,0.867c0.169-0.229,0.658-0.867,1.554-0.867c0.249,0,0.568,0.05,0.817,0.26
		c0.279,0.238,0.309,0.577,0.319,0.707c0.369-0.528,0.876-0.967,1.624-0.967c0.747,0,1.146,0.419,1.146,1.066
		c0,0.568-0.418,1.674-0.607,2.192c-0.09,0.219-0.18,0.458-0.18,0.707c0,0.229,0.07,0.329,0.239,0.329
		c0.548,0,0.867-0.708,1.017-1.235c0.05-0.149,0.05-0.18,0.149-0.18c0.03,0,0.119,0,0.119,0.1c0,0.08-0.369,1.534-1.305,1.534
		c-0.468,0-0.817-0.349-0.817-0.816c0-0.199,0.04-0.31,0.129-0.549c0.199-0.527,0.618-1.664,0.618-2.231
		c0-0.358-0.109-0.697-0.538-0.697c-1.086,0-1.614,1.195-1.644,1.325c-0.089,0.389-0.458,1.843-0.598,2.401
		c-0.08,0.318-0.14,0.567-0.448,0.567c-0.149,0-0.289-0.09-0.289-0.269c0-0.05,0.09-0.389,0.129-0.588
		c0.09-0.329,0.1-0.389,0.199-0.758c0.11-0.448,0.16-0.647,0.279-1.155c0.08-0.299,0.149-0.578,0.149-0.827
		c0-0.329-0.09-0.697-0.538-0.697c-0.947,0-1.475,0.906-1.624,1.215c-0.01,0.04-0.09,0.329-0.13,0.499
		c-0.05,0.229-0.109,0.448-0.169,0.667c-0.07,0.299-0.15,0.598-0.219,0.897c-0.06,0.249-0.18,0.717-0.189,0.737
		c-0.07,0.199-0.249,0.278-0.369,0.278c-0.149,0-0.289-0.09-0.289-0.269c0-0.05,0.06-0.279,0.09-0.429L36.506,50.589z"/>
</g>
<g>
	<path d="M49.516,46.679c-0.215,0-0.459,0-0.459-0.272c0-0.258,0.258-0.258,0.459-0.258h8.448c0.215,0,0.459,0,0.459,0.272
		c0,0.258-0.258,0.258-0.459,0.258H49.516z M49.516,49.347c-0.215,0-0.459,0-0.459-0.272c0-0.258,0.258-0.258,0.459-0.258h8.448
		c0.215,0,0.459,0,0.459,0.272c0,0.258-0.258,0.258-0.459,0.258H49.516z"/>
	<path d="M69.077,50.05c-0.416,0.832-1.133,1.577-2.381,1.577c-0.746,0-1.735-0.344-2.295-1.434
		c-0.516-1.019-0.617-2.065-0.617-3.457c0-1.549,0.144-2.438,0.545-3.342c0.53-1.19,1.549-1.606,2.381-1.606
		c0.703,0,1.735,0.315,2.324,1.506c0.516,1.09,0.588,2.252,0.588,3.442C69.622,47.568,69.593,48.974,69.077,50.05z M68.374,49.49
		c0.158-0.875,0.158-1.965,0.158-2.926c0-0.976,0-2.108-0.186-2.926c-0.273-1.234-1.104-1.564-1.65-1.564
		c-0.617,0-1.348,0.445-1.592,1.406c-0.229,0.846-0.229,1.907-0.229,3.084c0,1.004,0,2.094,0.158,2.954
		c0.272,1.563,1.205,1.822,1.664,1.822C67.198,51.341,68.101,51.068,68.374,49.49z"/>
</g>
<g>
	<path d="M72.152,51.326c-0.344,0-0.688-0.287-0.688-0.703c0-0.344,0.287-0.688,0.703-0.688c0.344,0,0.688,0.287,0.688,0.703
		C72.855,50.982,72.568,51.326,72.152,51.326z"/>
</g>
<g>
	<path d="M77.188,46.134c0.387-0.015,0.875-0.058,1.305-0.688c0.416-0.616,0.459-1.42,0.459-1.692c0-1.406-0.932-1.621-1.405-1.621
		c-0.072,0-1.42,0-1.965,0.975c0.043-0.015,0.072-0.015,0.158-0.015c0.316,0,0.66,0.201,0.66,0.66c0,0.431-0.344,0.646-0.646,0.646
		c-0.215,0-0.66-0.115-0.66-0.688c0-1.047,1.061-1.922,2.496-1.922c1.391,0,2.567,0.832,2.567,1.965
		c0,1.119-0.803,2.166-2.051,2.524c1.377,0.244,2.438,1.276,2.438,2.596c0,1.449-1.262,2.754-2.969,2.754
		c-1.592,0-2.869-1.047-2.869-2.323c0-0.545,0.373-0.746,0.717-0.746c0.402,0,0.703,0.287,0.703,0.703
		c0,0.517-0.416,0.774-0.875,0.703c0.416,0.946,1.592,1.276,2.28,1.276c0.703,0,1.678-0.502,1.678-2.381
		c0-1.377-0.545-2.381-1.764-2.381h-0.66c-0.258,0-0.33,0-0.33-0.144c0-0.129,0.058-0.144,0.301-0.158L77.188,46.134z"/>
	<path d="M87.022,50.05c-0.416,0.832-1.133,1.577-2.381,1.577c-0.746,0-1.736-0.344-2.295-1.434
		c-0.517-1.019-0.617-2.065-0.617-3.457c0-1.549,0.144-2.438,0.545-3.342c0.531-1.19,1.549-1.606,2.381-1.606
		c0.703,0,1.735,0.315,2.324,1.506c0.516,1.09,0.588,2.252,0.588,3.442C87.567,47.568,87.539,48.974,87.022,50.05z M86.319,49.49
		c0.158-0.875,0.158-1.965,0.158-2.926c0-0.976,0-2.108-0.187-2.926c-0.272-1.234-1.104-1.564-1.649-1.564
		c-0.617,0-1.349,0.445-1.592,1.406c-0.229,0.846-0.229,1.907-0.229,3.084c0,1.004,0,2.094,0.158,2.954
		c0.272,1.563,1.205,1.822,1.664,1.822C85.144,51.341,86.047,51.068,86.319,49.49z"/>
	<path d="M94.591,48.945c0,1.506-1.334,2.682-2.926,2.682c-1.463,0-2.912-0.946-2.912-2.467c0-1.047,0.717-2.008,2.108-2.653
		c-1.004-0.703-1.018-0.717-1.176-0.903c-0.402-0.488-0.545-0.976-0.545-1.463c0-1.306,1.119-2.353,2.539-2.353
		c1.319,0,2.524,0.86,2.524,2.108c0,1.205-1.047,1.864-1.764,2.252C93.558,46.837,94.591,47.482,94.591,48.945z M89.413,49.16
		c0,1.19,1.047,2.08,2.266,2.08c1.147,0,2.252-0.746,2.252-1.836c0-0.875-0.66-1.319-1.033-1.563
		c-0.387-0.258-1.349-0.875-1.736-1.133C90.23,47.138,89.413,48.042,89.413,49.16z M92.152,45.947
		c0.832-0.459,1.463-1.162,1.463-2.036c0-1.033-0.918-1.779-1.95-1.779c-0.961,0-1.937,0.588-1.937,1.52
		c0,0.703,0.574,1.076,0.76,1.205L92.152,45.947z"/>
</g>
<g>
	<path d="M104.243,50.752h4.002c0.201,0,0.473,0,0.473,0.287s-0.272,0.287-0.473,0.287h-8.592c-0.201,0-0.473,0-0.473-0.287
		s0.272-0.287,0.473-0.287h4.016v-3.915h-4.016c-0.201,0-0.473,0-0.473-0.287s0.272-0.287,0.473-0.287h4.016v-4.03
		c0-0.201,0-0.459,0.287-0.459c0.287,0,0.287,0.301,0.287,0.517v3.973h4.002c0.201,0,0.473,0,0.473,0.287s-0.272,0.287-0.473,0.287
		h-4.002V50.752z"/>
</g>
<g>
	<path d="M118.604,50.05c-0.416,0.832-1.133,1.577-2.381,1.577c-0.746,0-1.735-0.344-2.295-1.434
		c-0.516-1.019-0.617-2.065-0.617-3.457c0-1.549,0.144-2.438,0.545-3.342c0.53-1.19,1.549-1.606,2.381-1.606
		c0.703,0,1.735,0.315,2.324,1.506c0.516,1.09,0.588,2.252,0.588,3.442C119.149,47.568,119.12,48.974,118.604,50.05z M117.901,49.49
		c0.158-0.875,0.158-1.965,0.158-2.926c0-0.976,0-2.108-0.186-2.926c-0.273-1.234-1.104-1.564-1.65-1.564
		c-0.617,0-1.348,0.445-1.592,1.406c-0.229,0.846-0.229,1.907-0.229,3.084c0,1.004,0,2.094,0.158,2.954
		c0.272,1.563,1.205,1.822,1.664,1.822C116.725,51.341,117.628,51.068,117.901,49.49z"/>
</g>
<g>
	<path d="M121.684,51.326c-0.344,0-0.688-0.287-0.688-0.703c0-0.344,0.287-0.688,0.703-0.688c0.344,0,0.688,0.287,0.688,0.703
		C122.386,50.982,122.1,51.326,121.684,51.326z"/>
</g>
<g>
	<path d="M129.53,50.05c-0.416,0.832-1.133,1.577-2.381,1.577c-0.746,0-1.735-0.344-2.295-1.434
		c-0.516-1.019-0.617-2.065-0.617-3.457c0-1.549,0.144-2.438,0.545-3.342c0.53-1.19,1.549-1.606,2.381-1.606
		c0.703,0,1.735,0.315,2.324,1.506c0.516,1.09,0.588,2.252,0.588,3.442C130.075,47.568,130.046,48.974,129.53,50.05z M128.827,49.49
		c0.158-0.875,0.158-1.965,0.158-2.926c0-0.976,0-2.108-0.186-2.926c-0.273-1.234-1.104-1.564-1.65-1.564
		c-0.617,0-1.348,0.445-1.592,1.406c-0.229,0.846-0.229,1.907-0.229,3.084c0,1.004,0,2.094,0.158,2.954
		c0.272,1.563,1.205,1.822,1.664,1.822C127.651,51.341,128.554,51.068,128.827,49.49z"/>
	<path d="M134.803,50.222c0,0.517,0.043,0.688,1.305,0.688h0.445v0.416c-0.387-0.028-1.764-0.028-2.238-0.028
		c-0.473,0-1.864,0-2.252,0.028V50.91h0.445c1.262,0,1.305-0.172,1.305-0.688v-7.473c-0.789,0.373-1.506,0.373-1.836,0.373v-0.416
		c1.478,0,2.194-0.531,2.539-0.918c0.287,0,0.287,0.014,0.287,0.344V50.222z"/>
	<path d="M143.634,51.326h-5.235v-0.344l2.897-3.242c0.817-0.918,1.521-1.979,1.521-3.198c0-1.319-0.746-2.338-1.965-2.338
		c-0.933,0-1.707,0.66-1.979,1.635c0.043-0.015,0.072-0.015,0.201-0.015c0.402,0,0.674,0.273,0.674,0.675
		c0,0.459-0.373,0.674-0.674,0.674c-0.043,0-0.674,0-0.674-0.731c0-1.233,0.976-2.653,2.639-2.653c1.664,0,2.969,1.104,2.969,2.754
		c0,1.42-0.803,2.166-2.983,4.174c-0.373,0.344-1.248,1.262-1.635,1.592h2.654c0.43,0,1.248,0,1.348-0.129
		c0.144-0.229,0.258-1.019,0.301-1.263h0.315L143.634,51.326z"/>
</g>
</svg>
