<?xml version="1.0" encoding="iso-8859-1"?>
<!-- Generator: Adobe Illustrator 16.0.0, SVG Export Plug-In . SVG Version: 6.00 Build 0)  -->
<!DOCTYPE svg PUBLIC "-//W3C//DTD SVG 1.1//EN" "http://www.w3.org/Graphics/SVG/1.1/DTD/svg11.dtd">
<svg version="1.1" id="Layer_1" xmlns="http://www.w3.org/2000/svg" xmlns:xlink="http://www.w3.org/1999/xlink" x="0px" y="0px"
	 width="566.929px" height="85.039px" viewBox="0 0 566.929 85.039" style="enable-background:new 0 0 566.929 85.039;"
	 xml:space="preserve">
<g>
	<path d="M28.378,51.23c-0.731,0-1.965-0.272-1.965-1.778c0-0.546,0.144-1.134,0.818-2.927c0.244-0.631,0.244-0.932,0.244-1.004
		c0-0.459-0.229-0.473-0.373-0.473c-0.53,0-1.09,0.516-1.448,1.778c-0.058,0.2-0.072,0.258-0.201,0.258
		c-0.1,0-0.158-0.071-0.158-0.129c0-0.114,0.531-2.194,1.85-2.194c0.703,0,1.133,0.545,1.133,1.147c0,0.287-0.072,0.474-0.244,0.918
		c-0.646,1.707-0.746,2.338-0.746,2.797c0,0.244,0,1.319,1.133,1.319c0.445,0,0.674-0.244,0.832-0.401
		c0.014-0.028,0.473-0.574,0.473-0.918c0-0.315,0-0.474,0.058-0.718c0.057-0.315,0.66-2.739,0.803-3.299
		c0.086-0.344,0.187-0.702,0.603-0.702c0.215,0,0.387,0.144,0.387,0.358c0,0.058-0.129,0.56-0.201,0.846l-0.603,2.41
		c-0.057,0.244-0.187,0.746-0.187,1.162c0,0.659,0.258,1.262,1.062,1.262c0.746,0,1.277-0.573,1.678-1.448
		c0.301-0.675,0.703-2.022,0.703-2.511c0-0.745-0.373-1.133-0.502-1.262c-0.071-0.058-0.172-0.158-0.172-0.33
		c0-0.287,0.315-0.631,0.66-0.631c0.129,0,0.574,0.086,0.574,0.961c0,0.846-0.531,2.739-0.86,3.571
		c-0.402,0.989-1.047,1.937-2.137,1.937c-0.545,0-1.435-0.158-1.75-1.019C29.268,51.23,28.622,51.23,28.378,51.23z"/>
</g>
<g>
	<path d="M40.552,46.439c-0.215,0-0.459,0-0.459-0.272c0-0.258,0.258-0.258,0.459-0.258H49c0.215,0,0.459,0,0.459,0.272
		c0,0.258-0.258,0.258-0.459,0.258H40.552z M40.552,49.107c-0.215,0-0.459,0-0.459-0.272c0-0.258,0.258-0.258,0.459-0.258H49
		c0.215,0,0.459,0,0.459,0.272c0,0.258-0.258,0.258-0.459,0.258H40.552z"/>
</g>
<g>
	<path d="M57.558,50.184c-0.014,0.071-0.029,0.172-0.029,0.243c0,0.144,0.015,0.244,0.875,0.244c0.215,0,0.344,0,0.344,0.144
		c0,0.272-0.158,0.272-0.272,0.272c-0.272,0-0.574-0.028-0.846-0.028h-1.678c-0.272,0-0.56,0.028-0.832,0.028
		c-0.086,0-0.215,0-0.215-0.158c0-0.258,0.143-0.258,0.416-0.258c1.004,0,1.032-0.144,1.162-0.646l1.936-7.717
		c0.058-0.215,0.058-0.301,0.058-0.33c0-0.158,0-0.272-0.875-0.272c-0.215,0-0.344,0-0.344-0.144c0-0.272,0.129-0.272,0.402-0.272
		h4.432c1.808,0,2.754,1.018,2.754,2.137c0,1.635-1.979,3.098-3.958,3.098h-2.41L57.558,50.184z M58.533,46.182h2.022
		c1.305,0,1.994-0.545,2.238-0.804c0.66-0.659,0.846-1.879,0.846-2.252c0-1.075-0.889-1.419-1.965-1.419h-1.42
		c-0.559,0-0.617,0.029-0.746,0.559L58.533,46.182z"/>
	<path d="M65.809,54.357c-0.1,0.301-0.229,0.315-0.315,0.315c-0.115,0-0.258-0.101-0.258-0.272c0-0.029,0.086-0.244,0.086-0.259
		l4.805-13.497c0.115-0.315,0.244-0.315,0.315-0.315c0.115,0,0.258,0.1,0.258,0.272c0,0.029-0.086,0.244-0.086,0.258L65.809,54.357z
		"/>
	<path d="M73.334,47.975c0.474-1.908,2.008-3.213,3.271-3.213c0.99,0,1.922,0.76,1.922,2.295c0,2.166-1.836,4.174-3.457,4.174
		c-0.56,0-1.09-0.302-1.377-1.019c-0.459,1.765-0.861,3.485-0.918,3.614c-0.086,0.201-0.287,0.345-0.502,0.345
		c-0.215,0-0.387-0.144-0.387-0.358c0-0.086,0.028-0.173,0.043-0.244L73.334,47.975z M76.963,49.236
		c0.244-0.603,0.631-2.022,0.631-2.754c0-0.846-0.359-1.434-1.004-1.434c-0.215,0-1.621,0.071-2.352,2.926
		c-0.043,0.215-0.402,1.577-0.402,1.664c0,0.172,0.244,1.305,1.219,1.305C75.787,50.943,76.533,50.227,76.963,49.236z"/>
</g>
</svg>
