<?xml version="1.0" encoding="iso-8859-1"?>
<!-- Generator: Adobe Illustrator 16.0.0, SVG Export Plug-In . SVG Version: 6.00 Build 0)  -->
<!DOCTYPE svg PUBLIC "-//W3C//DTD SVG 1.1//EN" "http://www.w3.org/Graphics/SVG/1.1/DTD/svg11.dtd">
<svg version="1.1" id="Layer_1" xmlns="http://www.w3.org/2000/svg" xmlns:xlink="http://www.w3.org/1999/xlink" x="0px" y="0px"
	 width="566.929px" height="85.039px" viewBox="0 0 566.929 85.039" style="enable-background:new 0 0 566.929 85.039;"
	 xml:space="preserve">
<g>
	<path d="M28.378,51.67c-0.731,0-1.965-0.272-1.965-1.778c0-0.546,0.144-1.134,0.818-2.927c0.244-0.631,0.244-0.932,0.244-1.004
		c0-0.459-0.229-0.473-0.373-0.473c-0.53,0-1.09,0.516-1.448,1.778c-0.058,0.2-0.072,0.258-0.201,0.258
		c-0.1,0-0.158-0.071-0.158-0.129c0-0.114,0.531-2.194,1.85-2.194c0.703,0,1.133,0.545,1.133,1.147c0,0.287-0.072,0.474-0.244,0.918
		c-0.646,1.707-0.746,2.338-0.746,2.797c0,0.244,0,1.319,1.133,1.319c0.445,0,0.674-0.244,0.832-0.401
		c0.014-0.028,0.473-0.574,0.473-0.918c0-0.315,0-0.474,0.058-0.718c0.057-0.315,0.66-2.739,0.803-3.299
		c0.086-0.344,0.187-0.702,0.603-0.702c0.215,0,0.387,0.144,0.387,0.358c0,0.058-0.129,0.56-0.201,0.846l-0.603,2.41
		c-0.057,0.244-0.187,0.746-0.187,1.162c0,0.659,0.258,1.262,1.062,1.262c0.746,0,1.277-0.573,1.678-1.448
		c0.301-0.675,0.703-2.022,0.703-2.511c0-0.745-0.373-1.133-0.502-1.262c-0.071-0.058-0.172-0.158-0.172-0.33
		c0-0.287,0.315-0.631,0.66-0.631c0.129,0,0.574,0.086,0.574,0.961c0,0.846-0.531,2.739-0.86,3.571
		c-0.402,0.989-1.047,1.937-2.137,1.937c-0.545,0-1.435-0.158-1.75-1.019C29.268,51.67,28.622,51.67,28.378,51.67z"/>
</g>
<g>
	<path d="M40.552,46.879c-0.215,0-0.459,0-0.459-0.272c0-0.258,0.258-0.258,0.459-0.258H49c0.215,0,0.459,0,0.459,0.272
		c0,0.258-0.258,0.258-0.459,0.258H40.552z M40.552,49.547c-0.215,0-0.459,0-0.459-0.272c0-0.258,0.258-0.258,0.459-0.258H49
		c0.215,0,0.459,0,0.459,0.272c0,0.258-0.258,0.258-0.459,0.258H40.552z"/>
</g>
<g>
	<path d="M55.894,48.228c-0.201,0-0.473,0-0.473-0.287s0.272-0.287,0.473-0.287h7.817c0.201,0,0.473,0,0.473,0.287
		s-0.272,0.287-0.473,0.287H55.894z"/>
</g>
<g>
	<path d="M69.519,50.422c0,0.517,0.043,0.688,1.305,0.688h0.445v0.416c-0.387-0.028-1.764-0.028-2.238-0.028
		c-0.473,0-1.864,0-2.252,0.028V51.11h0.445c1.262,0,1.305-0.172,1.305-0.688v-7.473c-0.789,0.373-1.506,0.373-1.836,0.373v-0.416
		c1.478,0,2.194-0.531,2.539-0.918c0.287,0,0.287,0.014,0.287,0.344V50.422z"/>
</g>
</svg>
