<?xml version="1.0" encoding="iso-8859-1"?>
<!-- Generator: Adobe Illustrator 16.0.0, SVG Export Plug-In . SVG Version: 6.00 Build 0)  -->
<!DOCTYPE svg PUBLIC "-//W3C//DTD SVG 1.1//EN" "http://www.w3.org/Graphics/SVG/1.1/DTD/svg11.dtd">
<svg version="1.1" id="Layer_1" xmlns="http://www.w3.org/2000/svg" xmlns:xlink="http://www.w3.org/1999/xlink" x="0px" y="0px"
	 width="566.929px" height="85.039px" viewBox="0 0 566.929 85.039" style="enable-background:new 0 0 566.929 85.039;"
	 xml:space="preserve">
<g>
	<path d="M33.943,51.326h-2.209c-0.315,0-0.358,0-0.358-0.272c0-1.019,0.502-2.338,0.746-3.026c0.401-1.062,0.803-2.138,0.803-3.228
		c0-2.208-1.535-3.284-2.955-3.284c-1.42,0-2.955,1.076-2.955,3.284c0,1.09,0.387,2.138,0.803,3.271
		c0.287,0.731,0.746,1.979,0.746,2.998c0,0.258-0.029,0.258-0.344,0.258h-2.224l-0.459-2.237h0.316
		c0.072,0.344,0.143,0.76,0.258,1.062c0.071,0.215,0.114,0.329,0.946,0.329h1.133c-0.158-0.803-0.588-1.477-1.19-2.409
		c-0.674-1.047-1.32-2.08-1.32-3.256c0-1.965,1.879-3.586,4.289-3.586c2.396,0,4.289,1.606,4.289,3.586
		c0,1.19-0.66,2.237-1.333,3.284c-0.588,0.89-1.004,1.578-1.176,2.381h1.133c0.832,0,0.875-0.114,0.947-0.344
		c0.115-0.302,0.187-0.674,0.258-1.047h0.315L33.943,51.326z"/>
</g>
<g>
	<path d="M40.731,52.741c0.119,0.368,0.149,0.429,0.907,0.429v0.309c-0.389-0.01-0.837-0.03-1.226-0.03c-0.379,0-1.086,0-1.435,0.03
		V53.17c0.259,0,0.847,0,0.847-0.299c0-0.021,0-0.04-0.05-0.18L38.2,47.789l-1.495,4.644c-0.05,0.14-0.05,0.169-0.05,0.219
		c0,0.239,0.229,0.509,0.768,0.519v0.309c-0.309-0.01-0.837-0.03-1.126-0.03c-0.09,0-0.598,0.011-0.927,0.03V53.17
		c0.697,0,0.897-0.389,0.997-0.688l1.913-5.929c0.05-0.17,0.069-0.209,0.229-0.209c0.109,0,0.169,0.02,0.229,0.209L40.731,52.741z"
		/>
</g>
<g>
	<path d="M47.687,46.679c-0.215,0-0.459,0-0.459-0.272c0-0.258,0.258-0.258,0.459-0.258h8.448c0.215,0,0.459,0,0.459,0.272
		c0,0.258-0.258,0.258-0.459,0.258H47.687z M47.687,49.347c-0.215,0-0.459,0-0.459-0.272c0-0.258,0.258-0.258,0.459-0.258h8.448
		c0.215,0,0.459,0,0.459,0.272c0,0.258-0.258,0.258-0.459,0.258H47.687z"/>
	<path d="M67.248,50.05c-0.416,0.832-1.133,1.577-2.381,1.577c-0.746,0-1.735-0.344-2.295-1.434
		c-0.516-1.019-0.617-2.065-0.617-3.457c0-1.549,0.144-2.438,0.545-3.342c0.53-1.19,1.549-1.606,2.381-1.606
		c0.703,0,1.735,0.315,2.324,1.506c0.516,1.09,0.588,2.252,0.588,3.442C67.792,47.568,67.764,48.974,67.248,50.05z M66.544,49.49
		c0.158-0.875,0.158-1.965,0.158-2.926c0-0.976,0-2.108-0.186-2.926c-0.273-1.234-1.104-1.564-1.65-1.564
		c-0.617,0-1.348,0.445-1.592,1.406c-0.229,0.846-0.229,1.907-0.229,3.084c0,1.004,0,2.094,0.158,2.954
		c0.272,1.563,1.205,1.822,1.664,1.822C65.369,51.341,66.272,51.068,66.544,49.49z"/>
</g>
<g>
	<path d="M70.325,51.326c-0.344,0-0.688-0.287-0.688-0.703c0-0.344,0.287-0.688,0.703-0.688c0.344,0,0.688,0.287,0.688,0.703
		C71.027,50.982,70.74,51.326,70.325,51.326z"/>
</g>
<g>
	<path d="M74.054,46.722c0.144-0.401,0.617-1.506,1.894-1.506c1.434,0,2.768,1.276,2.768,3.185c0,1.864-1.334,3.227-2.897,3.227
		c-1.219,0-2.94-0.889-2.94-4.833c0-3.155,1.894-5.006,3.701-5.006c1.248,0,1.793,0.731,1.793,1.478
		c0,0.416-0.244,0.631-0.603,0.631c-0.373,0-0.588-0.272-0.588-0.588c0-0.588,0.545-0.588,0.717-0.588
		c-0.272-0.43-0.789-0.588-1.306-0.588c-0.774,0-2.539,0.574-2.539,4.203V46.722z M77.267,50.308
		c0.272-0.545,0.272-1.19,0.272-1.922c0-0.616,0-1.334-0.229-1.864c-0.215-0.488-0.631-1.019-1.42-1.019
		c-1.291,0-1.807,1.42-1.807,2.553c0,1.004,0.144,1.707,0.272,2.08c0.129,0.301,0.56,1.104,1.463,1.104
		C76.392,51.24,76.909,50.996,77.267,50.308z"/>
	<path d="M84.563,46.679c-0.287,0.731-0.832,1.506-1.893,1.506c-1.435,0-2.769-1.29-2.769-3.184s1.392-3.213,2.969-3.213
		c1.262,0,2.869,0.961,2.869,4.819c0,3.112-1.735,5.02-3.528,5.02c-1.248,0-1.965-0.602-1.965-1.491
		c0-0.373,0.229-0.617,0.603-0.617s0.588,0.272,0.588,0.589c0,0.53-0.517,0.616-0.617,0.588h-0.086
		c0.358,0.502,1.119,0.545,1.463,0.545c0.861,0,2.367-0.703,2.367-4.088V46.679z M84.534,45.316c0-0.215,0-1.435-0.287-2.137
		c-0.144-0.331-0.56-1.047-1.377-1.047c-0.774,0-1.162,0.416-1.42,0.803c-0.373,0.588-0.373,1.276-0.373,2.08
		c0,0.645,0,1.333,0.229,1.879c0.129,0.272,0.517,1.004,1.42,1.004C83.989,47.898,84.534,46.521,84.534,45.316z"/>
	<path d="M90.468,50.222c0,0.517,0.043,0.688,1.305,0.688h0.445v0.416c-0.387-0.028-1.764-0.028-2.238-0.028
		c-0.473,0-1.865,0-2.252,0.028V50.91h0.445c1.262,0,1.305-0.172,1.305-0.688v-7.473c-0.789,0.373-1.506,0.373-1.836,0.373v-0.416
		c1.478,0,2.195-0.531,2.539-0.918c0.287,0,0.287,0.014,0.287,0.344V50.222z"/>
	<path d="M97.491,50.222c0,0.517,0.043,0.688,1.305,0.688h0.445v0.416c-0.387-0.028-1.764-0.028-2.238-0.028
		c-0.473,0-1.865,0-2.252,0.028V50.91h0.445c1.262,0,1.305-0.172,1.305-0.688v-7.473c-0.789,0.373-1.506,0.373-1.836,0.373v-0.416
		c1.478,0,2.195-0.531,2.539-0.918c0.287,0,0.287,0.014,0.287,0.344V50.222z"/>
</g>
<g>
	<path d="M109.438,50.752h4.002c0.201,0,0.473,0,0.473,0.287s-0.272,0.287-0.473,0.287h-8.592c-0.201,0-0.473,0-0.473-0.287
		s0.272-0.287,0.473-0.287h4.016v-3.915h-4.016c-0.201,0-0.473,0-0.473-0.287s0.272-0.287,0.473-0.287h4.016v-4.03
		c0-0.201,0-0.459,0.287-0.459c0.287,0,0.287,0.301,0.287,0.517v3.973h4.002c0.201,0,0.473,0,0.473,0.287s-0.272,0.287-0.473,0.287
		h-4.002V50.752z"/>
</g>
<g>
	<path d="M123.799,50.05c-0.416,0.832-1.133,1.577-2.381,1.577c-0.746,0-1.736-0.344-2.295-1.434
		c-0.517-1.019-0.617-2.065-0.617-3.457c0-1.549,0.144-2.438,0.545-3.342c0.531-1.19,1.549-1.606,2.381-1.606
		c0.703,0,1.735,0.315,2.324,1.506c0.516,1.09,0.588,2.252,0.588,3.442C124.344,47.568,124.315,48.974,123.799,50.05z
		 M123.096,49.49c0.158-0.875,0.158-1.965,0.158-2.926c0-0.976,0-2.108-0.187-2.926c-0.272-1.234-1.104-1.564-1.649-1.564
		c-0.617,0-1.349,0.445-1.592,1.406c-0.229,0.846-0.229,1.907-0.229,3.084c0,1.004,0,2.094,0.158,2.954
		c0.272,1.563,1.205,1.822,1.664,1.822C121.92,51.341,122.823,51.068,123.096,49.49z"/>
</g>
<g>
	<path d="M126.878,51.326c-0.344,0-0.688-0.287-0.688-0.703c0-0.344,0.287-0.688,0.703-0.688c0.344,0,0.688,0.287,0.688,0.703
		C127.581,50.982,127.294,51.326,126.878,51.326z"/>
</g>
<g>
	<path d="M134.725,50.05c-0.416,0.832-1.133,1.577-2.381,1.577c-0.746,0-1.736-0.344-2.295-1.434
		c-0.517-1.019-0.617-2.065-0.617-3.457c0-1.549,0.144-2.438,0.545-3.342c0.531-1.19,1.549-1.606,2.381-1.606
		c0.703,0,1.735,0.315,2.324,1.506c0.516,1.09,0.588,2.252,0.588,3.442C135.27,47.568,135.241,48.974,134.725,50.05z M134.021,49.49
		c0.158-0.875,0.158-1.965,0.158-2.926c0-0.976,0-2.108-0.187-2.926c-0.272-1.234-1.104-1.564-1.649-1.564
		c-0.617,0-1.349,0.445-1.592,1.406c-0.229,0.846-0.229,1.907-0.229,3.084c0,1.004,0,2.094,0.158,2.954
		c0.272,1.563,1.205,1.822,1.664,1.822C132.846,51.341,133.749,51.068,134.021,49.49z"/>
	<path d="M141.748,50.05c-0.416,0.832-1.133,1.577-2.381,1.577c-0.746,0-1.736-0.344-2.295-1.434
		c-0.517-1.019-0.617-2.065-0.617-3.457c0-1.549,0.144-2.438,0.545-3.342c0.531-1.19,1.549-1.606,2.381-1.606
		c0.703,0,1.735,0.315,2.324,1.506c0.516,1.09,0.588,2.252,0.588,3.442C142.293,47.568,142.264,48.974,141.748,50.05z
		 M141.045,49.49c0.158-0.875,0.158-1.965,0.158-2.926c0-0.976,0-2.108-0.187-2.926c-0.272-1.234-1.104-1.564-1.649-1.564
		c-0.617,0-1.349,0.445-1.592,1.406c-0.229,0.846-0.229,1.907-0.229,3.084c0,1.004,0,2.094,0.158,2.954
		c0.272,1.563,1.205,1.822,1.664,1.822C139.869,51.341,140.772,51.068,141.045,49.49z"/>
	<path d="M144.655,46.722c0.144-0.401,0.617-1.506,1.894-1.506c1.434,0,2.768,1.276,2.768,3.185c0,1.864-1.334,3.227-2.897,3.227
		c-1.219,0-2.94-0.889-2.94-4.833c0-3.155,1.894-5.006,3.701-5.006c1.248,0,1.793,0.731,1.793,1.478
		c0,0.416-0.244,0.631-0.603,0.631c-0.373,0-0.588-0.272-0.588-0.588c0-0.588,0.545-0.588,0.717-0.588
		c-0.272-0.43-0.789-0.588-1.306-0.588c-0.774,0-2.539,0.574-2.539,4.203V46.722z M147.868,50.308
		c0.272-0.545,0.272-1.19,0.272-1.922c0-0.616,0-1.334-0.229-1.864c-0.215-0.488-0.631-1.019-1.42-1.019
		c-1.291,0-1.807,1.42-1.807,2.553c0,1.004,0.144,1.707,0.272,2.08c0.129,0.301,0.56,1.104,1.463,1.104
		C146.993,51.24,147.509,50.996,147.868,50.308z"/>
	<path d="M155.852,51.326h-5.235v-0.344l2.897-3.242c0.818-0.918,1.521-1.979,1.521-3.198c0-1.319-0.746-2.338-1.965-2.338
		c-0.932,0-1.707,0.66-1.979,1.635c0.043-0.015,0.072-0.015,0.201-0.015c0.401,0,0.674,0.273,0.674,0.675
		c0,0.459-0.373,0.674-0.674,0.674c-0.043,0-0.674,0-0.674-0.731c0-1.233,0.976-2.653,2.639-2.653c1.664,0,2.969,1.104,2.969,2.754
		c0,1.42-0.803,2.166-2.983,4.174c-0.373,0.344-1.248,1.262-1.635,1.592h2.654c0.43,0,1.248,0,1.348-0.129
		c0.144-0.229,0.258-1.019,0.301-1.263h0.315L155.852,51.326z"/>
</g>
</svg>
