<?xml version="1.0" encoding="utf-8"?>
<!-- Generator: Adobe Illustrator 16.0.0, SVG Export Plug-In . SVG Version: 6.00 Build 0)  -->
<!DOCTYPE svg PUBLIC "-//W3C//DTD SVG 1.1//EN" "http://www.w3.org/Graphics/SVG/1.1/DTD/svg11.dtd">
<svg version="1.1" id="Layer_1" xmlns="http://www.w3.org/2000/svg" xmlns:xlink="http://www.w3.org/1999/xlink" x="0px" y="0px"
	 width="566.929px" height="85.039px" viewBox="-676.036 583.02 566.929 85.039"
	 enable-background="new -676.036 583.02 566.929 85.039" xml:space="preserve">
<g>
	<g>
		<path d="M-670.227,586.814c-0.76,0-1.678-0.271-2.166-0.4c-1.334-0.402-1.735-0.402-2.18-0.416
			c-0.359,0.486-1.076,0.816-1.334,0.816c-0.101,0-0.129-0.059-0.129-0.086c0-0.059,0.057-0.244,0.516-0.66
			c0.029-0.043,0.861-0.859,1.406-3.012c0.588-2.295,1.076-3.814,2.08-5.033c0.674-0.805,2.037-1.636,3.199-1.636
			c0.932,0,1.233,0.688,1.233,1.349c0,0.645-0.158,0.76-0.373,0.932c-0.344,0.258-0.746,0.432-0.961,0.432
			c-0.115,0-0.115-0.072-0.115-0.102c0-0.043,0.058-0.301,0.058-0.531c0-0.357-0.129-1.189-0.99-1.189
			c-0.473,0-0.561,0.086-0.774,0.314c-1.019,1.033-1.693,3.701-1.965,4.777c-0.144,0.572-0.416,1.678-1.176,2.797
			c0.158-0.043,0.215-0.059,0.545-0.059c0.76,0,1.592,0.244,2.323,0.459c0.56,0.158,1.32,0.359,1.937,0.359
			c0.229,0,0.244,0,0.373-0.174c0-0.014,0.129-0.199,0.215-0.43c0.086-0.244,0.115-0.33,0.517-0.588
			c0.229-0.158,0.588-0.316,0.789-0.316c0.043,0,0.115,0.029,0.129,0.043C-667.387,585.854-669.18,586.814-670.227,586.814z"/>
	</g>
	<g>
		<path d="M-660.469,589.557c0.429,0,0.847-0.299,0.907-0.838c0.01-0.1,0.02-0.178,0.11-0.178c0.109,0,0.109,0.109,0.109,0.209
			c0,0.508-0.189,1.832-1.206,1.832c-0.927,0-1.066-0.916-1.215-1.863c-0.289,0.092-0.638,0.15-0.947,0.15
			c-1.812,0-3.318-1.584-3.318-3.598c0-2.053,1.524-3.646,3.308-3.646c1.813,0,3.318,1.615,3.318,3.646
			c0,1.506-0.847,2.779-2.023,3.309C-661.186,589.219-660.937,589.557-660.469,589.557z M-663.517,588.012
			c0-0.406,0.309-0.836,0.817-0.836c0.588,0,0.907,0.498,1.126,1.057c1.056-0.777,1.176-2.184,1.176-2.959
			c0-2.541-1.355-3.398-2.321-3.398c-0.917,0-2.312,0.809-2.312,3.398c0,2.291,1.116,3.02,1.654,3.219
			C-663.388,588.471-663.517,588.281-663.517,588.012z M-662.7,587.395c-0.388,0-0.598,0.33-0.598,0.617
			c0,0.15,0.08,0.607,0.588,0.607c0.219,0,0.538-0.039,0.877-0.229C-661.943,587.814-662.162,587.395-662.7,587.395z"/>
		<path d="M-652.212,584.227c0,0.209,0,0.238-0.159,0.238c-0.14,0-0.14-0.029-0.16-0.17c-0.199-1.453-1.086-2.359-2.172-2.359
			c-0.608,0-2.551,0.338-2.551,3.316c0,2.969,1.953,3.309,2.561,3.309c1.086,0,2.152-0.816,2.232-2.242
			c0.01-0.1,0.01-0.158,0.12-0.158c0.129,0,0.129,0.07,0.129,0.17c0,1.154-0.977,2.539-2.601,2.539
			c-1.853,0-3.467-1.562-3.467-3.625c0-2.033,1.604-3.617,3.467-3.617c0.957,0,1.465,0.498,1.833,0.855l0.498-0.736
			c0.08-0.119,0.12-0.119,0.16-0.119c0.109,0,0.109,0.068,0.109,0.238L-652.212,584.227L-652.212,584.227z"/>
		<path d="M-647.646,581.844c1.704,0,3.049,1.564,3.049,3.459c0,1.873-1.375,3.348-3.049,3.348h-3.647v-0.309h0.239
			c0.767,0,0.787-0.109,0.787-0.469v-5.252c0-0.357-0.02-0.467-0.787-0.467h-0.239v-0.311H-647.646L-647.646,581.844z
			 M-647.916,588.342c1.006,0,1.574-0.578,1.773-0.848c0.359-0.488,0.548-1.086,0.548-2.191c0-0.777-0.09-1.635-0.519-2.223
			c-0.508-0.707-1.195-0.926-1.813-0.926h-0.997c-0.468,0-0.488,0.068-0.488,0.396v5.393c0,0.328,0.02,0.398,0.488,0.398H-647.916z"
			/>
	</g>
	<g>
		<path d="M-638.315,581.852c-0.215,0-0.459,0-0.459-0.271c0-0.258,0.258-0.258,0.459-0.258h8.448c0.215,0,0.459,0,0.459,0.271
			c0,0.258-0.258,0.258-0.459,0.258H-638.315z M-638.315,584.52c-0.215,0-0.459,0-0.459-0.271c0-0.258,0.258-0.258,0.459-0.258
			h8.448c0.215,0,0.459,0,0.459,0.271c0,0.258-0.258,0.258-0.459,0.258H-638.315z"/>
		<path d="M-622.627,578.51v-0.416h5.063v0.416H-622.627z"/>
	</g>
	<g>
		<path d="M-620.306,588.379c-0.043,0.188-0.057,0.201-0.057,0.271c0,0.115,0.043,0.215,0.717,0.215c0.215,0,0.33,0,0.33,0.145
			c0,0.271-0.172,0.271-0.258,0.271c-0.215,0-0.459-0.027-0.674-0.027h-1.463c-0.201,0-0.459,0.027-0.66,0.027
			c-0.1,0-0.187-0.043-0.187-0.143c0-0.273,0.144-0.273,0.301-0.273c0.674-0.014,0.89-0.014,1.019-0.443l0.129-0.518
			c0.187-0.73,0.373-1.447,0.545-2.15l-0.014-0.014c-0.301,0.328-0.932,0.902-1.692,0.902c-0.976,0-1.807-0.832-1.807-2.252
			c0-2.123,1.75-4.217,3.371-4.217c0.617,0,1.061,0.387,1.319,1.031c0.272-0.502,0.832-1.018,0.947-1.018
			c0.072,0,0.129,0.057,0.129,0.129L-620.306,588.379z M-619.632,581.98c0.014-0.027,0.057-0.215,0.057-0.229
			c0-0.115-0.186-1.291-1.133-1.291c-0.56,0-1.234,0.518-1.721,1.521c-0.272,0.602-0.717,2.209-0.717,2.998
			c0,0.846,0.33,1.377,0.918,1.377c0.674,0,1.305-0.617,1.621-1.02c0.201-0.271,0.201-0.301,0.271-0.545L-619.632,581.98z"/>
	</g>
	<g>
		<path d="M-610.972,590.1c-0.158,0-1.333-0.934-2.18-2.654c-0.746-1.533-0.947-3.24-0.947-4.518c0-1.766,0.33-3.299,1.061-4.748
			c0.703-1.404,1.879-2.438,2.065-2.438c0.058,0,0.129,0.029,0.129,0.115c0,0.043,0,0.071-0.144,0.201
			c-1.664,1.691-2.338,4.086-2.338,6.869c0,2.928,0.803,5.293,2.238,6.742c0.244,0.244,0.244,0.271,0.244,0.314
			C-610.843,590.07-610.914,590.1-610.972,590.1z"/>
	</g>
	<g>
		<path d="M-607.819,586.643c-0.688,0-1.133-0.518-1.133-1.162c0-0.258,0.086-0.486,0.172-0.717
			c0.488-1.307,0.488-1.334,1.004-2.668c0.115-0.314,0.301-0.789,0.301-1.162c0-0.459-0.244-0.473-0.373-0.473
			c-0.559,0-1.104,0.572-1.449,1.777c-0.057,0.201-0.071,0.258-0.201,0.258c-0.1,0-0.158-0.07-0.158-0.129
			c0-0.113,0.531-2.193,1.851-2.193c0.703,0,1.133,0.545,1.133,1.146c0,0.271-0.101,0.531-0.144,0.646
			c-0.33,0.889-0.66,1.777-1.004,2.668c-0.158,0.43-0.33,0.859-0.33,1.246c0,0.432,0.201,0.475,0.373,0.475
			c0.474,0,1.062-0.443,1.435-1.75c0.072-0.242,0.086-0.287,0.215-0.287c0.086,0,0.145,0.059,0.145,0.131
			C-605.982,584.549-606.499,586.643-607.819,586.643z M-606.814,578.238c-0.172,0-0.473-0.115-0.473-0.475
			c0-0.373,0.373-0.688,0.703-0.688c0.316,0,0.488,0.258,0.488,0.473C-606.097,577.865-606.427,578.238-606.814,578.238z"/>
		<path d="M-598.853,582.354c0.431-0.975,0.933-1.949,0.961-1.979c0.029-0.057,0.101-0.057,0.129-0.057
			c0.129,0,0.143,0.1,0.143,0.113c0,0.043-0.201,0.432-0.301,0.66c-1.133,2.252-1.951,4.617-1.994,4.963
			c-0.071,0.572-0.158,1.203-0.502,2.467c-0.158,0.572-0.287,1.047-0.502,1.047c-0.115,0-0.158-0.129-0.158-0.244
			c0-0.4,0.473-2.18,0.746-3.068c0.086-0.287,0.186-0.588,0.186-1.492c0-1.42-0.287-3.643-2.28-3.643
			c-0.99,0-1.908,0.703-2.209,1.592c-0.072,0.188-0.072,0.215-0.201,0.215c-0.043,0-0.144,0-0.144-0.129
			c0-0.373,0.961-2.625,2.725-2.625c1.047,0,1.535,0.762,1.822,1.479c0.545,1.291,0.574,2.395,0.603,3.098
			C-599.354,583.488-599.068,582.842-598.853,582.354z"/>
	</g>
	<g>
		<path d="M-595.3,578.752c-0.07,0.279-0.14,0.559-0.14,0.848c0,0.537,0.239,0.867,0.737,0.867c0.807,0,1.286-0.906,1.295-0.957
			c0.03-0.1,0.14-0.518,0.259-1.016c0.149-0.619,0.338-1.366,0.468-1.864c0.08-0.339,0.338-0.349,0.388-0.349
			c0.15,0,0.289,0.09,0.289,0.269c0,0.06-0.1,0.438-0.149,0.667c-0.04,0.148-0.14,0.527-0.169,0.678
			c-0.089,0.357-0.189,0.717-0.279,1.074c-0.08,0.35-0.199,0.818-0.199,1.037c0,0.199,0.03,0.459,0.299,0.459
			c0.409,0,0.588-0.588,0.757-1.234c0.03-0.141,0.04-0.182,0.14-0.182c0.03,0,0.119,0,0.119,0.102c0,0.02-0.129,0.627-0.299,0.984
			c-0.159,0.32-0.389,0.549-0.737,0.549c-0.438,0-0.807-0.277-0.896-0.729c-0.239,0.279-0.628,0.729-1.325,0.729
			c-0.2,0-0.648-0.039-0.967-0.309c-0.378,1.533-0.508,2.053-0.548,2.143c-0.02,0.029-0.14,0.209-0.349,0.209
			c-0.169,0-0.279-0.119-0.279-0.27c0-0.02,0-0.039,0.03-0.16l1.435-5.768c0.09-0.35,0.369-0.359,0.398-0.359
			c0.169,0,0.289,0.1,0.289,0.27c0,0.049-0.1,0.428-0.149,0.637L-595.3,578.752z"/>
	</g>
	<g>
		<path d="M-584.156,581.709c0.143-0.531,0.416-1.592,0.416-2.51c0-1.607-0.804-2.61-2.065-2.61c-0.388,0-1.478,0.101-2.065,1.161
			c0.186,0,0.631,0,0.631,0.445c0,0.244-0.215,0.703-0.717,0.703c-0.401,0-0.488-0.316-0.488-0.445c0-0.387,0.617-2.209,2.697-2.209
			c1.836,0,2.998,1.592,2.998,3.658c0,1.965-1.448,6.898-4.833,6.898c-1.951,0-2.553-1.648-2.553-2.523
			c0-2.281,2.065-4.332,4.088-4.332c1.291,0,1.793,0.961,1.879,1.764H-584.156L-584.156,581.709z M-584.4,582.139
			c0-0.773-0.301-1.906-1.606-1.906c-1.492,0-2.309,1.447-2.496,1.879c-0.215,0.529-0.617,2.008-0.617,2.639
			c0,0.604,0.229,1.664,1.578,1.664C-585.332,586.414-584.4,583.201-584.4,582.139z"/>
	</g>
	<g>
		<path d="M-581.383,586.828c-0.07,0.279-0.14,0.557-0.14,0.846c0,0.539,0.239,0.867,0.737,0.867c0.807,0,1.286-0.906,1.295-0.957
			c0.03-0.1,0.14-0.518,0.259-1.016c0.149-0.617,0.338-1.365,0.468-1.863c0.08-0.338,0.338-0.35,0.388-0.35
			c0.15,0,0.289,0.09,0.289,0.27c0,0.061-0.1,0.439-0.149,0.668c-0.04,0.15-0.14,0.527-0.169,0.678
			c-0.089,0.359-0.189,0.719-0.279,1.076c-0.08,0.35-0.199,0.816-0.199,1.035c0,0.199,0.03,0.459,0.299,0.459
			c0.409,0,0.588-0.588,0.757-1.234c0.03-0.141,0.04-0.18,0.14-0.18c0.03,0,0.119,0,0.119,0.1c0,0.02-0.129,0.629-0.299,0.986
			c-0.159,0.318-0.389,0.547-0.737,0.547c-0.438,0-0.807-0.277-0.896-0.727c-0.239,0.279-0.628,0.727-1.325,0.727
			c-0.2,0-0.648-0.039-0.967-0.309c-0.378,1.535-0.508,2.053-0.548,2.143c-0.02,0.029-0.14,0.209-0.349,0.209
			c-0.169,0-0.279-0.119-0.279-0.27c0-0.02,0-0.039,0.03-0.158l1.435-5.77c0.09-0.35,0.369-0.359,0.398-0.359
			c0.169,0,0.289,0.1,0.289,0.271c0,0.049-0.1,0.428-0.149,0.637L-581.383,586.828z"/>
	</g>
	<g>
		<path d="M-571.913,583.201c-0.201,0-0.473,0-0.473-0.287s0.272-0.287,0.473-0.287h7.817c0.201,0,0.473,0,0.473,0.287
			s-0.272,0.287-0.473,0.287H-571.913z"/>
	</g>
	<g>
		<path d="M-556.749,584.189c-0.101,0.432-0.215,0.861-0.315,1.291c-0.072,0.287-0.201,0.789-0.229,0.859
			c-0.115,0.217-0.316,0.303-0.488,0.303c-0.215,0-0.373-0.158-0.373-0.357c0-0.072,0.158-0.746,0.258-1.119
			c0.072-0.258,0.229-0.904,0.287-1.176c0.129-0.518,0.273-1.033,0.402-1.551c0.101-0.443,0.244-1.004,0.244-1.318
			c0-0.43-0.115-0.66-0.444-0.66c-0.574,0-0.846,0.848-1.062,1.693c-0.086,0.328-0.101,0.344-0.215,0.344
			c-0.1,0-0.158-0.072-0.158-0.129c0-0.059,0.201-0.934,0.459-1.449c0.272-0.545,0.603-0.746,1.019-0.746
			c0.631,0,1.219,0.445,1.262,1.264c0.258-0.359,0.932-1.264,2.209-1.264c1.076,0,1.549,0.617,1.592,1.393
			c0.574-0.848,1.348-1.393,2.31-1.393c1.09,0,1.592,0.646,1.592,1.506c0,0.832-0.646,2.525-0.903,3.215
			c-0.058,0.156-0.229,0.615-0.229,0.988c0,0.459,0.229,0.475,0.373,0.475c0.574,0,1.104-0.604,1.435-1.75
			c0.072-0.244,0.086-0.287,0.215-0.287c0.086,0,0.144,0.057,0.144,0.129c0,0.086-0.502,2.195-1.836,2.195
			c-0.688,0-1.133-0.518-1.133-1.162c0-0.258,0.072-0.445,0.201-0.789c0.315-0.861,0.875-2.424,0.875-3.229
			c0-0.572-0.201-1.004-0.775-1.004c-1.578,0-2.323,1.793-2.352,1.908c-0.215,0.875-0.588,2.352-0.861,3.428
			c-0.129,0.518-0.201,0.848-0.631,0.848c-0.215,0-0.373-0.158-0.373-0.359c0-0.057,0.086-0.43,0.144-0.646
			c0.029-0.156,0.301-1.219,0.416-1.648c0.172-0.688,0.172-0.73,0.358-1.479c0.172-0.674,0.172-0.961,0.172-1.047
			c0-0.572-0.201-1.004-0.775-1.004c-0.559,0-1.047,0.23-1.42,0.574c-0.531,0.459-0.889,1.176-0.918,1.262L-556.749,584.189z"/>
	</g>
	<g>
		<path d="M-543.961,587.662c-0.703,1.404-1.879,2.438-2.065,2.438c-0.057,0-0.129-0.029-0.129-0.115c0-0.043,0-0.07,0.143-0.201
			c1.664-1.691,2.338-4.088,2.338-6.869c0-2.926-0.803-5.293-2.237-6.741c-0.244-0.244-0.244-0.272-0.244-0.315
			c0-0.086,0.072-0.115,0.129-0.115c0.158,0,1.334,0.933,2.18,2.654c0.803,1.664,0.947,3.441,0.947,4.531
			C-542.898,584.648-543.229,586.199-543.961,587.662z"/>
	</g>
	<g>
		<path d="M-534.759,588.379c-0.043,0.188-0.057,0.201-0.057,0.271c0,0.115,0.043,0.215,0.717,0.215c0.215,0,0.33,0,0.33,0.145
			c0,0.271-0.172,0.271-0.258,0.271c-0.215,0-0.459-0.027-0.674-0.027h-1.463c-0.201,0-0.459,0.027-0.66,0.027
			c-0.1,0-0.187-0.043-0.187-0.143c0-0.273,0.144-0.273,0.301-0.273c0.674-0.014,0.89-0.014,1.02-0.443l0.129-0.518
			c0.187-0.73,0.373-1.447,0.545-2.15l-0.014-0.014c-0.301,0.328-0.932,0.902-1.692,0.902c-0.976,0-1.807-0.832-1.807-2.252
			c0-2.123,1.75-4.217,3.371-4.217c0.617,0,1.061,0.387,1.319,1.031c0.272-0.502,0.832-1.018,0.947-1.018
			c0.072,0,0.129,0.057,0.129,0.129L-534.759,588.379z M-534.083,581.98c0.014-0.027,0.057-0.215,0.057-0.229
			c0-0.115-0.186-1.291-1.133-1.291c-0.56,0-1.234,0.518-1.721,1.521c-0.272,0.602-0.717,2.209-0.717,2.998
			c0,0.846,0.33,1.377,0.918,1.377c0.674,0,1.305-0.617,1.621-1.02c0.201-0.271,0.201-0.301,0.272-0.545L-534.083,581.98z"/>
	</g>
	<g>
		<path d="M-523.436,587.145c0,0.215,0,0.459-0.272,0.459c-0.258,0-0.258-0.258-0.258-0.459v-3.959h-3.959
			c-0.215,0-0.459,0-0.459-0.271c0-0.258,0.258-0.258,0.459-0.258h3.959v-3.959c0-0.215,0-0.459,0.272-0.459
			c0.258,0,0.258,0.258,0.258,0.459v3.959h3.958c0.215,0,0.459,0,0.459,0.271c0,0.258-0.258,0.258-0.459,0.258h-3.958V587.145z"/>
	</g>
	<g>
		<path d="M-508.721,580.447c0.215,0,0.373,0.156,0.373,0.357c0,0.027,0,0.059-0.043,0.229l-1.592,6.426
			c-0.187,0.775-1.147,1.965-2.998,1.965c-1.219,0-1.807-0.229-1.807-0.816c0-0.475,0.373-0.76,0.717-0.76
			c0.315,0,0.487,0.229,0.487,0.459c0,0.156-0.115,0.559-0.574,0.688c0.359,0.115,0.717,0.145,1.147,0.145
			c0.316,0,0.861,0,1.449-0.59c0.517-0.502,0.603-0.859,0.803-1.648c0.072-0.301,0.072-0.33,0.315-1.291
			c-0.258,0.287-0.932,0.891-1.692,0.891c-0.918,0-1.822-0.73-1.822-2.225c0-2.137,1.779-4.102,3.342-4.102
			c0.717,0,1.119,0.529,1.305,0.945C-509.266,580.734-509.064,580.447-508.721,580.447z M-509.523,581.924l0.043-0.201
			c0-0.086-0.188-1.262-1.133-1.262c-0.603,0-1.248,0.572-1.664,1.377c-0.315,0.645-0.746,2.252-0.746,3.012
			c0,0.988,0.444,1.361,0.918,1.361c0.444,0,1.047-0.271,1.635-1.031c0.186-0.217,0.215-0.271,0.272-0.502L-509.523,581.924z"/>
	</g>
	<g>
		<path d="M-505.798,578.51v-0.416h5.063v0.416H-505.798z"/>
	</g>
	<g>
		<path d="M-503.473,588.379c-0.043,0.188-0.057,0.201-0.057,0.271c0,0.115,0.043,0.215,0.717,0.215c0.215,0,0.33,0,0.33,0.145
			c0,0.271-0.172,0.271-0.258,0.271c-0.215,0-0.459-0.027-0.674-0.027h-1.463c-0.201,0-0.459,0.027-0.66,0.027
			c-0.1,0-0.187-0.043-0.187-0.143c0-0.273,0.144-0.273,0.301-0.273c0.674-0.014,0.89-0.014,1.019-0.443l0.129-0.518
			c0.187-0.73,0.373-1.447,0.545-2.15l-0.014-0.014c-0.301,0.328-0.932,0.902-1.692,0.902c-0.976,0-1.807-0.832-1.807-2.252
			c0-2.123,1.75-4.217,3.371-4.217c0.617,0,1.061,0.387,1.319,1.031c0.272-0.502,0.832-1.018,0.947-1.018
			c0.072,0,0.129,0.057,0.129,0.129L-503.473,588.379z M-502.799,581.98c0.014-0.027,0.057-0.215,0.057-0.229
			c0-0.115-0.186-1.291-1.133-1.291c-0.56,0-1.234,0.518-1.721,1.521c-0.272,0.602-0.717,2.209-0.717,2.998
			c0,0.846,0.33,1.377,0.918,1.377c0.674,0,1.305-0.617,1.621-1.02c0.201-0.271,0.201-0.301,0.272-0.545L-502.799,581.98z"/>
		<path d="M-494.663,582.354c0.431-0.975,0.933-1.949,0.961-1.979c0.029-0.057,0.101-0.057,0.129-0.057
			c0.129,0,0.143,0.1,0.143,0.113c0,0.043-0.201,0.432-0.301,0.66c-1.133,2.252-1.951,4.617-1.994,4.963
			c-0.071,0.572-0.158,1.203-0.502,2.467c-0.158,0.572-0.287,1.047-0.502,1.047c-0.115,0-0.158-0.129-0.158-0.244
			c0-0.4,0.473-2.18,0.746-3.068c0.086-0.287,0.186-0.588,0.186-1.492c0-1.42-0.287-3.643-2.28-3.643
			c-0.99,0-1.908,0.703-2.209,1.592c-0.072,0.188-0.072,0.215-0.201,0.215c-0.043,0-0.144,0-0.144-0.129
			c0-0.373,0.961-2.625,2.725-2.625c1.047,0,1.535,0.762,1.822,1.479c0.545,1.291,0.574,2.395,0.603,3.098
			C-495.165,583.488-494.878,582.842-494.663,582.354z"/>
	</g>
	<g>
		<path d="M-491.112,578.752c-0.07,0.279-0.14,0.559-0.14,0.848c0,0.537,0.239,0.867,0.737,0.867c0.807,0,1.286-0.906,1.295-0.957
			c0.03-0.1,0.14-0.518,0.259-1.016c0.149-0.619,0.338-1.366,0.468-1.864c0.08-0.339,0.338-0.349,0.388-0.349
			c0.15,0,0.289,0.09,0.289,0.269c0,0.06-0.1,0.438-0.149,0.667c-0.04,0.148-0.14,0.527-0.169,0.678
			c-0.089,0.357-0.189,0.717-0.279,1.074c-0.08,0.35-0.199,0.818-0.199,1.037c0,0.199,0.03,0.459,0.299,0.459
			c0.409,0,0.588-0.588,0.757-1.234c0.03-0.141,0.04-0.182,0.139-0.182c0.03,0,0.12,0,0.12,0.102c0,0.02-0.129,0.627-0.299,0.984
			c-0.159,0.32-0.389,0.549-0.737,0.549c-0.438,0-0.807-0.277-0.896-0.729c-0.239,0.279-0.628,0.729-1.325,0.729
			c-0.2,0-0.648-0.039-0.967-0.309c-0.378,1.533-0.508,2.053-0.548,2.143c-0.02,0.029-0.14,0.209-0.349,0.209
			c-0.169,0-0.279-0.119-0.279-0.27c0-0.02,0-0.039,0.03-0.16l1.435-5.768c0.09-0.35,0.369-0.359,0.397-0.359
			c0.169,0,0.289,0.1,0.289,0.27c0,0.049-0.1,0.428-0.149,0.637L-491.112,578.752z"/>
	</g>
	<g>
		<path d="M-482.435,585.395c-0.057,0.229-0.057,0.33-0.057,0.346c0,0.215,0,0.344,1.291,0.344c0.373,0,0.474,0,0.474,0.145
			c0,0.271-0.144,0.271-0.301,0.271c-0.359,0-0.746-0.029-1.104-0.029h-2.238c-0.358,0-0.731,0.029-1.09,0.029
			c-0.072,0-0.229,0-0.229-0.145c0-0.271,0.101-0.271,0.459-0.271c1.521,0,1.549-0.145,1.692-0.703l1.922-7.703
			c0.072-0.257,0.072-0.285,0.072-0.328c0-0.158-0.143-0.158-0.487-0.158h-0.961c-1.907,0-2.208,0.803-2.811,2.537
			c-0.057,0.188-0.086,0.244-0.201,0.244c-0.086,0-0.144-0.07-0.144-0.145c0-0.014,0.043-0.172,0.058-0.199l0.875-2.582
			c0.086-0.258,0.101-0.271,0.431-0.271h7.846c0.287,0,0.373,0,0.373,0.158c0,0.043,0,0.071-0.028,0.2l-0.416,2.538
			c-0.043,0.23-0.043,0.303-0.187,0.303c-0.086,0-0.144-0.088-0.144-0.145l0.015-0.172c0.086-0.531,0.143-1.076,0.143-1.291
			c0-1.119-0.674-1.176-2.108-1.176c-0.301,0-0.774,0-0.889,0.027c-0.215,0.059-0.244,0.188-0.33,0.531L-482.435,585.395z"/>
	</g>
	<g>
		<path d="M-474.126,584.445c0.169,0,0.289,0.1,0.289,0.27c0,0.041,0,0.061-0.069,0.34c-0.15,0.566-0.189,0.758-0.359,1.395
			c-0.09,0.379-0.11,0.479-0.219,0.896c-0.109,0.438-0.129,0.52-0.129,0.736c0,0.199,0.03,0.459,0.299,0.459
			c0.409,0,0.588-0.588,0.757-1.234c0.03-0.141,0.04-0.18,0.139-0.18c0.03,0,0.12,0,0.12,0.1c0,0.02-0.129,0.629-0.299,0.986
			c-0.159,0.318-0.389,0.547-0.737,0.547c-0.478,0-0.827-0.326-0.907-0.746c-0.598,0.707-1.096,0.746-1.295,0.746
			c-0.777,0-1.325-0.656-1.325-1.594c0-1.455,1.236-2.92,2.401-2.92c0.448,0,0.737,0.271,0.917,0.639
			C-474.514,584.666-474.365,584.445-474.126,584.445z M-474.694,585.512c0.01-0.051,0.03-0.109,0.03-0.17s-0.14-0.877-0.787-0.877
			c-0.399,0-0.847,0.369-1.156,0.957c-0.229,0.459-0.548,1.686-0.548,2.184c0,0.389,0.14,0.936,0.638,0.936
			c0.279,0,0.688-0.158,1.126-0.707c0.149-0.17,0.149-0.189,0.199-0.369L-474.694,585.512z"/>
	</g>
	<g>
		<path d="M-468.164,588.379c-0.043,0.188-0.057,0.201-0.057,0.271c0,0.115,0.043,0.215,0.717,0.215c0.215,0,0.33,0,0.33,0.145
			c0,0.271-0.172,0.271-0.258,0.271c-0.215,0-0.459-0.027-0.674-0.027h-1.463c-0.201,0-0.459,0.027-0.66,0.027
			c-0.1,0-0.187-0.043-0.187-0.143c0-0.273,0.144-0.273,0.301-0.273c0.674-0.014,0.889-0.014,1.019-0.443l0.129-0.518
			c0.187-0.73,0.373-1.447,0.545-2.15l-0.015-0.014c-0.301,0.328-0.932,0.902-1.692,0.902c-0.976,0-1.807-0.832-1.807-2.252
			c0-2.123,1.75-4.217,3.371-4.217c0.617,0,1.062,0.387,1.319,1.031c0.272-0.502,0.832-1.018,0.947-1.018
			c0.072,0,0.129,0.057,0.129,0.129L-468.164,588.379z M-467.49,581.98c0.014-0.027,0.057-0.215,0.057-0.229
			c0-0.115-0.187-1.291-1.133-1.291c-0.56,0-1.233,0.518-1.721,1.521c-0.272,0.602-0.717,2.209-0.717,2.998
			c0,0.846,0.33,1.377,0.918,1.377c0.674,0,1.305-0.617,1.621-1.02c0.201-0.271,0.201-0.301,0.273-0.545L-467.49,581.98z"/>
		<path d="M-458.293,576.503c0.129-0.216,0.215-0.244,0.358-0.244c0.158,0,0.215,0.028,0.244,0.315l0.875,8.949
			c0.043,0.432,0.057,0.561,0.846,0.561c0.215,0,0.344,0,0.344,0.145c0,0.271-0.158,0.271-0.258,0.271
			c-0.014,0-0.646-0.029-1.521-0.029h-0.817c-0.244,0-0.531,0.029-0.774,0.029c-0.086,0-0.215,0-0.215-0.158
			c0-0.258,0.158-0.258,0.315-0.258c0.229,0,0.961-0.029,0.961-0.459c0-0.271-0.172-1.766-0.215-2.137
			c-0.015-0.131-0.015-0.244-0.029-0.373h-3.658l-1.09,1.807c-0.187,0.314-0.272,0.475-0.272,0.674c0,0.346,0.272,0.459,0.602,0.488
			c0.086,0,0.201,0.014,0.201,0.145c0,0.271-0.172,0.271-0.258,0.271c-0.402,0-0.861-0.029-1.276-0.029
			c-0.258,0-0.904,0.029-1.162,0.029c-0.1,0-0.172-0.059-0.172-0.145c0-0.258,0.115-0.258,0.272-0.271
			c0.688-0.043,1.176-0.33,1.678-1.176L-458.293,576.503z M-458.221,582.699l-0.488-4.82l-2.883,4.82H-458.221z"/>
	</g>
	<g>
		<path d="M-451.088,576.371c0.169,0,0.289,0.1,0.289,0.269c0,0.04,0,0.06-0.069,0.339c-0.15,0.566-0.189,0.756-0.359,1.395
			c-0.09,0.379-0.11,0.479-0.219,0.896c-0.109,0.438-0.129,0.518-0.129,0.736c0,0.199,0.03,0.459,0.299,0.459
			c0.409,0,0.588-0.588,0.757-1.234c0.03-0.141,0.04-0.182,0.139-0.182c0.03,0,0.12,0,0.12,0.102c0,0.02-0.129,0.627-0.299,0.984
			c-0.159,0.32-0.389,0.549-0.737,0.549c-0.478,0-0.827-0.328-0.907-0.746c-0.598,0.707-1.096,0.746-1.295,0.746
			c-0.777,0-1.325-0.656-1.325-1.594c0-1.455,1.236-2.92,2.401-2.92c0.448,0,0.737,0.27,0.917,0.639
			C-451.476,576.59-451.327,576.371-451.088,576.371z M-451.656,577.438c0.01-0.051,0.03-0.109,0.03-0.17
			c0-0.06-0.14-0.877-0.787-0.877c-0.399,0-0.847,0.369-1.156,0.957c-0.229,0.459-0.548,1.686-0.548,2.184
			c0,0.389,0.14,0.936,0.638,0.936c0.279,0,0.688-0.158,1.126-0.707c0.149-0.17,0.149-0.189,0.199-0.367L-451.656,577.438z"/>
	</g>
	<g>
		<path d="M-453.34,588.223c-0.07,0.279-0.14,0.559-0.14,0.848c0,0.537,0.239,0.867,0.737,0.867c0.807,0,1.286-0.908,1.295-0.957
			c0.03-0.102,0.14-0.52,0.259-1.018c0.149-0.617,0.338-1.363,0.468-1.861c0.08-0.34,0.338-0.352,0.388-0.352
			c0.15,0,0.289,0.09,0.289,0.271c0,0.059-0.1,0.438-0.149,0.668c-0.04,0.148-0.14,0.525-0.169,0.676
			c-0.089,0.359-0.189,0.719-0.279,1.076c-0.08,0.35-0.199,0.816-0.199,1.037c0,0.197,0.03,0.459,0.299,0.459
			c0.409,0,0.588-0.588,0.757-1.236c0.03-0.139,0.04-0.18,0.14-0.18c0.03,0,0.119,0,0.119,0.1c0,0.021-0.129,0.629-0.299,0.986
			c-0.159,0.318-0.389,0.549-0.737,0.549c-0.438,0-0.807-0.279-0.896-0.729c-0.239,0.279-0.628,0.729-1.325,0.729
			c-0.2,0-0.648-0.041-0.967-0.311c-0.378,1.535-0.508,2.055-0.548,2.145c-0.02,0.029-0.14,0.209-0.349,0.209
			c-0.169,0-0.279-0.121-0.279-0.271c0-0.02,0-0.039,0.03-0.158l1.435-5.77c0.09-0.35,0.369-0.357,0.398-0.357
			c0.169,0,0.289,0.1,0.289,0.27c0,0.049-0.1,0.428-0.149,0.637L-453.34,588.223z"/>
	</g>
	<g>
		<path d="M-443.87,583.201c-0.201,0-0.473,0-0.473-0.287s0.272-0.287,0.473-0.287h7.817c0.201,0,0.473,0,0.473,0.287
			s-0.272,0.287-0.473,0.287H-443.87z"/>
	</g>
	<g>
		<path d="M-425.861,575.689c0,0.518,0.043,0.688,1.305,0.688h0.445v0.416c-0.387-0.029-1.764-0.029-2.238-0.029
			c-0.473,0-1.864,0-2.252,0.029v-0.416h0.445c1.262,0,1.305-0.172,1.305-0.688v-7.473c-0.789,0.373-1.506,0.373-1.836,0.373v-0.416
			c1.478,0,2.194-0.531,2.539-0.918c0.287,0,0.287,0.014,0.287,0.344V575.689z"/>
	</g>
	<g>
		<rect x="-429.992" y="582.625" width="7.024" height="0.574"/>
	</g>
	<g>
		<path d="M-424.813,593.529h1.449v0.416h-1.449v1.305c0,0.531,0.043,0.674,1.076,0.674h0.287v0.416
			c-0.33-0.027-1.478-0.027-1.879-0.027c-0.402,0-1.535,0-1.865,0.027v-0.416h0.287c1.047,0,1.076-0.145,1.076-0.674v-1.307h-3.772
			v-0.416l4.317-6.697c0.115-0.172,0.158-0.172,0.272-0.172c0.201,0,0.201,0.07,0.201,0.344V593.529z M-429.246,593.529h3.486
			v-5.408L-429.246,593.529z"/>
	</g>
	<g>
		<path d="M-418.431,585.48c-0.028,0.102-0.057,0.215-0.057,0.287c0,0.215,0.029,0.314,1.162,0.314c0.314,0,0.4,0,0.4,0.158
			c0,0.258-0.172,0.258-0.301,0.258c-0.314,0-0.66-0.027-0.976-0.027h-1.864c-0.272,0-0.56,0.027-0.832,0.027
			c-0.086,0-0.215,0-0.215-0.158c0-0.258,0.144-0.258,0.416-0.258c1.004,0,1.033-0.143,1.162-0.645l1.937-7.746
			c0.043-0.158,0.058-0.215,0.058-0.287c0-0.158,0-0.258-0.89-0.258c-0.244,0-0.344,0-0.344-0.158c0-0.258,0.144-0.258,0.417-0.258
			h6.799c0.258,0,0.387,0,0.387,0.158c0,0.029-0.027,0.172-0.027,0.215l-0.303,2.51c-0.027,0.258-0.086,0.314-0.186,0.314
			c-0.087,0-0.158-0.043-0.158-0.156c0-0.059,0.028-0.244,0.043-0.303c0.043-0.373,0.043-0.688,0.043-0.773
			c0-1.02-0.258-1.549-2.051-1.549h-1.923c-0.588,0-0.616,0.043-0.745,0.545l-0.933,3.715h1.306c1.247,0,1.534-0.301,1.836-1.377
			c0.057-0.244,0.071-0.301,0.2-0.301c0.101,0,0.144,0.086,0.144,0.143l-0.832,3.344c-0.058,0.229-0.07,0.285-0.187,0.285
			c-0.101,0-0.157-0.057-0.157-0.156c0-0.029,0.014-0.102,0.043-0.158c0.071-0.314,0.102-0.518,0.102-0.703
			c0-0.414-0.088-0.658-1.178-0.658h-1.376L-418.431,585.48z"/>
	</g>
	<g>
		<path d="M-406.593,576.371c0.17,0,0.289,0.1,0.289,0.269c0,0.04,0,0.06-0.069,0.339c-0.149,0.566-0.188,0.756-0.358,1.395
			c-0.09,0.379-0.109,0.479-0.22,0.896c-0.108,0.438-0.13,0.518-0.13,0.736c0,0.199,0.029,0.459,0.299,0.459
			c0.409,0,0.588-0.588,0.758-1.234c0.029-0.141,0.04-0.182,0.141-0.182c0.029,0,0.119,0,0.119,0.102
			c0,0.02-0.129,0.627-0.299,0.984c-0.16,0.32-0.39,0.549-0.738,0.549c-0.479,0-0.826-0.328-0.905-0.746
			c-0.599,0.707-1.097,0.746-1.296,0.746c-0.777,0-1.325-0.656-1.325-1.594c0-1.455,1.235-2.92,2.401-2.92
			c0.447,0,0.736,0.27,0.916,0.639C-406.982,576.59-406.833,576.371-406.593,576.371z M-407.161,577.438
			c0.01-0.051,0.028-0.109,0.028-0.17c0-0.06-0.139-0.877-0.787-0.877c-0.397,0-0.846,0.369-1.154,0.957
			c-0.229,0.459-0.548,1.686-0.548,2.184c0,0.389,0.14,0.936,0.638,0.936c0.278,0,0.688-0.158,1.127-0.707
			c0.148-0.17,0.148-0.189,0.198-0.367L-407.161,577.438z"/>
	</g>
	<g>
		<path d="M-410.796,588.223c-0.069,0.279-0.139,0.559-0.139,0.848c0,0.537,0.237,0.867,0.736,0.867
			c0.807,0,1.285-0.908,1.295-0.957c0.03-0.102,0.141-0.52,0.26-1.018c0.148-0.617,0.338-1.363,0.469-1.861
			c0.078-0.34,0.338-0.352,0.389-0.352c0.148,0,0.289,0.09,0.289,0.271c0,0.059-0.1,0.438-0.148,0.668
			c-0.041,0.148-0.141,0.525-0.17,0.676c-0.091,0.359-0.189,0.719-0.279,1.076c-0.08,0.35-0.199,0.816-0.199,1.037
			c0,0.197,0.029,0.459,0.299,0.459c0.408,0,0.588-0.588,0.758-1.236c0.03-0.139,0.04-0.18,0.141-0.18c0.028,0,0.119,0,0.119,0.1
			c0,0.021-0.129,0.629-0.3,0.986c-0.159,0.318-0.389,0.549-0.737,0.549c-0.438,0-0.807-0.279-0.896-0.729
			c-0.239,0.279-0.628,0.729-1.325,0.729c-0.199,0-0.646-0.041-0.967-0.311c-0.379,1.535-0.508,2.055-0.549,2.145
			c-0.02,0.029-0.139,0.209-0.348,0.209c-0.17,0-0.279-0.121-0.279-0.271c0-0.02,0-0.039,0.029-0.158l1.436-5.77
			c0.09-0.35,0.367-0.357,0.398-0.357c0.17,0,0.289,0.1,0.289,0.27c0,0.049-0.101,0.428-0.149,0.637L-410.796,588.223z"/>
		<path d="M-405.421,589.717c1.137-0.367,2.65-1.484,3.289-3.746c0.078-0.289,0.309-0.328,0.389-0.328c0.169,0,0.288,0.1,0.288,0.27
			c0,0.09-0.269,1.443-1.584,2.67c-1.026,0.957-2.112,1.346-2.81,1.465h-0.141c-0.061,0-0.158-0.01-0.158-0.119
			c0-0.021,0.068-0.301,0.108-0.449l0.606-2.439c0.07-0.27,0.189-0.738,0.189-0.809c0-0.1-0.02-0.168-0.498-0.168
			c-0.148,0-0.238,0-0.238-0.121c0-0.18,0.108-0.189,0.188-0.199c0.26-0.02,0.986-0.1,1.217-0.1c0.13,0,0.13,0.1,0.13,0.109
			L-405.421,589.717z"/>
	</g>
	<g>
		<path d="M-397.282,585.48c-0.028,0.102-0.058,0.215-0.058,0.287c0,0.215,0.029,0.314,1.162,0.314c0.314,0,0.4,0,0.4,0.158
			c0,0.258-0.172,0.258-0.301,0.258c-0.314,0-0.66-0.027-0.977-0.027h-1.863c-0.272,0-0.561,0.027-0.832,0.027
			c-0.086,0-0.215,0-0.215-0.158c0-0.258,0.144-0.258,0.416-0.258c1.004,0,1.031-0.143,1.16-0.645l1.938-7.746
			c0.043-0.158,0.059-0.215,0.059-0.287c0-0.158,0-0.258-0.891-0.258c-0.243,0-0.344,0-0.344-0.158c0-0.258,0.144-0.258,0.416-0.258
			h6.798c0.259,0,0.388,0,0.388,0.158c0,0.029-0.027,0.172-0.027,0.215l-0.303,2.51c-0.027,0.258-0.086,0.314-0.188,0.314
			c-0.086,0-0.156-0.043-0.156-0.156c0-0.059,0.027-0.244,0.043-0.303c0.043-0.373,0.043-0.688,0.043-0.773
			c0-1.02-0.26-1.549-2.051-1.549h-1.924c-0.588,0-0.615,0.043-0.744,0.545l-0.934,3.715h1.307c1.246,0,1.533-0.301,1.836-1.377
			c0.057-0.244,0.07-0.301,0.199-0.301c0.102,0,0.145,0.086,0.145,0.143l-0.832,3.344c-0.059,0.229-0.07,0.285-0.188,0.285
			c-0.101,0-0.156-0.057-0.156-0.156c0-0.029,0.014-0.102,0.043-0.158c0.07-0.314,0.102-0.518,0.102-0.703
			c0-0.414-0.088-0.658-1.178-0.658h-1.377L-397.282,585.48z"/>
	</g>
	<g>
		<path d="M-387.697,578.752c-0.068,0.279-0.139,0.559-0.139,0.848c0,0.537,0.238,0.867,0.736,0.867
			c0.808,0,1.285-0.906,1.295-0.957c0.031-0.1,0.141-0.518,0.26-1.016c0.148-0.619,0.339-1.366,0.469-1.864
			c0.079-0.339,0.339-0.349,0.389-0.349c0.149,0,0.289,0.09,0.289,0.269c0,0.06-0.1,0.438-0.148,0.667
			c-0.041,0.148-0.141,0.527-0.17,0.678c-0.09,0.357-0.189,0.717-0.279,1.074c-0.079,0.35-0.199,0.818-0.199,1.037
			c0,0.199,0.03,0.459,0.299,0.459c0.409,0,0.588-0.588,0.758-1.234c0.031-0.141,0.041-0.182,0.141-0.182
			c0.029,0,0.119,0,0.119,0.102c0,0.02-0.129,0.627-0.299,0.984c-0.16,0.32-0.389,0.549-0.737,0.549
			c-0.438,0-0.808-0.277-0.896-0.729c-0.24,0.279-0.629,0.729-1.326,0.729c-0.199,0-0.646-0.039-0.967-0.309
			c-0.379,1.533-0.508,2.053-0.548,2.143c-0.021,0.029-0.14,0.209-0.349,0.209c-0.17,0-0.279-0.119-0.279-0.27
			c0-0.02,0-0.039,0.03-0.16l1.435-5.768c0.09-0.35,0.368-0.359,0.398-0.359c0.17,0,0.289,0.1,0.289,0.27
			c0,0.049-0.1,0.428-0.148,0.637L-387.697,578.752z"/>
		<path d="M-382.321,580.246c1.136-0.367,2.649-1.484,3.288-3.745c0.079-0.289,0.309-0.329,0.389-0.329c0.17,0,0.289,0.1,0.289,0.27
			c0,0.09-0.27,1.443-1.584,2.67c-1.027,0.957-2.113,1.346-2.811,1.465h-0.141c-0.06,0-0.158-0.01-0.158-0.119
			c0-0.021,0.068-0.301,0.109-0.449l0.605-2.439c0.07-0.271,0.189-0.738,0.189-0.809c0-0.1-0.02-0.169-0.498-0.169
			c-0.148,0-0.238,0-0.238-0.12c0-0.18,0.109-0.189,0.188-0.199c0.259-0.021,0.986-0.101,1.216-0.101
			c0.129,0,0.129,0.101,0.129,0.11L-382.321,580.246z"/>
	</g>
	<g>
		<path d="M-387.394,585.84c0.17,0,0.289,0.102,0.289,0.271c0,0.039,0,0.059-0.07,0.338c-0.148,0.568-0.188,0.758-0.358,1.395
			c-0.089,0.381-0.108,0.48-0.22,0.896c-0.108,0.438-0.129,0.52-0.129,0.738c0,0.197,0.029,0.459,0.299,0.459
			c0.408,0,0.588-0.588,0.758-1.236c0.029-0.139,0.04-0.18,0.141-0.18c0.028,0,0.119,0,0.119,0.1c0,0.021-0.13,0.629-0.3,0.986
			c-0.159,0.318-0.39,0.549-0.737,0.549c-0.479,0-0.826-0.328-0.906-0.748c-0.598,0.707-1.096,0.748-1.295,0.748
			c-0.777,0-1.326-0.658-1.326-1.594c0-1.455,1.236-2.92,2.402-2.92c0.447,0,0.736,0.27,0.916,0.637
			C-387.784,586.061-387.634,585.84-387.394,585.84z M-387.962,586.908c0.011-0.051,0.029-0.109,0.029-0.17s-0.14-0.877-0.787-0.877
			c-0.397,0-0.846,0.369-1.154,0.957c-0.229,0.459-0.549,1.684-0.549,2.182c0,0.389,0.14,0.938,0.639,0.938
			c0.277,0,0.688-0.158,1.126-0.707c0.149-0.17,0.149-0.189,0.198-0.369L-387.962,586.908z"/>
	</g>
</g>
</svg>
