<?xml version="1.0" encoding="utf-8"?>
<!-- Generator: Adobe Illustrator 16.0.0, SVG Export Plug-In . SVG Version: 6.00 Build 0)  -->
<!DOCTYPE svg PUBLIC "-//W3C//DTD SVG 1.1//EN" "http://www.w3.org/Graphics/SVG/1.1/DTD/svg11.dtd">
<svg version="1.1" id="Layer_1" xmlns="http://www.w3.org/2000/svg" xmlns:xlink="http://www.w3.org/1999/xlink" x="0px" y="0px"
	 width="566.929px" height="85.039px" viewBox="-676.036 583.02 566.929 85.039"
	 enable-background="new -676.036 583.02 566.929 85.039" xml:space="preserve">
<g>
	<path d="M-670.227,586.815c-0.76,0-1.678-0.271-2.166-0.4c-1.334-0.4-1.735-0.4-2.18-0.416c-0.359,0.486-1.076,0.816-1.334,0.816
		c-0.101,0-0.129-0.057-0.129-0.086c0-0.057,0.057-0.244,0.516-0.66c0.029-0.043,0.861-0.859,1.406-3.012
		c0.588-2.295,1.076-3.814,2.08-5.035c0.674-0.803,2.037-1.635,3.199-1.635c0.932,0,1.233,0.688,1.233,1.348
		c0,0.646-0.158,0.76-0.373,0.932c-0.344,0.259-0.746,0.431-0.961,0.431c-0.115,0-0.115-0.071-0.115-0.101
		c0-0.043,0.058-0.301,0.058-0.53c0-0.358-0.129-1.19-0.99-1.19c-0.473,0-0.561,0.086-0.774,0.315
		c-1.019,1.032-1.693,3.7-1.965,4.776c-0.144,0.574-0.416,1.678-1.176,2.797c0.158-0.043,0.215-0.059,0.545-0.059
		c0.76,0,1.592,0.244,2.323,0.459c0.56,0.158,1.32,0.359,1.937,0.359c0.229,0,0.244,0,0.373-0.174c0-0.014,0.129-0.199,0.215-0.43
		c0.086-0.244,0.115-0.33,0.517-0.588c0.229-0.158,0.588-0.316,0.789-0.316c0.043,0,0.115,0.029,0.129,0.045
		C-667.387,585.854-669.18,586.815-670.227,586.815z"/>
</g>
<g>
	<path d="M-660.469,589.558c0.429,0,0.847-0.299,0.907-0.836c0.01-0.102,0.02-0.18,0.11-0.18c0.109,0,0.109,0.109,0.109,0.209
		c0,0.508-0.189,1.832-1.206,1.832c-0.927,0-1.066-0.916-1.215-1.861c-0.289,0.09-0.638,0.148-0.947,0.148
		c-1.812,0-3.318-1.584-3.318-3.598c0-2.053,1.524-3.646,3.308-3.646c1.813,0,3.318,1.615,3.318,3.646
		c0,1.506-0.847,2.781-2.023,3.309C-661.186,589.22-660.937,589.558-660.469,589.558z M-663.517,588.015
		c0-0.408,0.309-0.838,0.817-0.838c0.588,0,0.907,0.498,1.126,1.057c1.056-0.777,1.176-2.182,1.176-2.959
		c0-2.541-1.355-3.398-2.321-3.398c-0.917,0-2.312,0.809-2.312,3.398c0,2.291,1.116,3.02,1.654,3.219
		C-663.388,588.472-663.517,588.282-663.517,588.015z M-662.7,587.396c-0.388,0-0.598,0.33-0.598,0.619
		c0,0.148,0.08,0.605,0.588,0.605c0.219,0,0.538-0.039,0.877-0.229C-661.943,587.815-662.162,587.396-662.7,587.396z"/>
	<path d="M-652.76,588.651h-5.75v-0.309h0.239c0.767,0,0.787-0.109,0.787-0.469v-5.221c0-0.359-0.02-0.469-0.787-0.469h-0.239
		v-0.311h5.61l0.279,2.242h-0.249c-0.159-1.385-0.428-1.934-1.953-1.934h-1.285c-0.468,0-0.488,0.07-0.488,0.398v2.393h0.897
		c0.966,0,1.076-0.311,1.076-1.166h0.249v2.641h-0.249c0-0.848-0.11-1.166-1.076-1.166h-0.897v2.66c0,0.328,0.02,0.398,0.488,0.398
		h1.325c1.714,0,1.943-0.729,2.192-2.262h0.249L-652.76,588.651z"/>
	<path d="M-648.062,581.847c1.704,0,3.049,1.562,3.049,3.457c0,1.873-1.375,3.348-3.049,3.348h-3.647v-0.309h0.239
		c0.767,0,0.787-0.109,0.787-0.469v-5.252c0-0.357-0.02-0.467-0.787-0.467h-0.239v-0.311h3.647V581.847z M-648.331,588.345
		c1.006,0,1.574-0.578,1.773-0.85c0.359-0.486,0.548-1.086,0.548-2.189c0-0.777-0.09-1.635-0.519-2.225
		c-0.508-0.707-1.195-0.926-1.813-0.926h-0.997c-0.468,0-0.488,0.07-0.488,0.398v5.391c0,0.328,0.02,0.398,0.488,0.398h1.008
		V588.345z"/>
</g>
<g>
	<path d="M-638.73,581.853c-0.215,0-0.459,0-0.459-0.271c0-0.258,0.258-0.258,0.459-0.258h8.448c0.215,0,0.459,0,0.459,0.271
		c0,0.258-0.258,0.258-0.459,0.258H-638.73z M-638.73,584.521c-0.215,0-0.459,0-0.459-0.271c0-0.258,0.258-0.258,0.459-0.258h8.448
		c0.215,0,0.459,0,0.459,0.271c0,0.258-0.258,0.258-0.459,0.258H-638.73z"/>
</g>
<g>
	<path d="M-623.848,592.952c-0.258,0-0.388,0-0.388-0.156c0-0.016,0-0.088,0.144-0.26l7.43-8.707l-7.587-10.383
		c0-0.158,0-0.431,0.014-0.474c0.043-0.086,0.058-0.101,0.388-0.101h16.954l1.735,4.029h-0.358
		c-0.488-1.162-1.463-1.807-1.822-2.037c-1.133-0.717-2.381-0.961-3.155-1.076c-0.129-0.028-1.435-0.229-3.356-0.229h-7.86
		l6.684,9.137c0.101,0.145,0.101,0.188,0.101,0.215c0,0.072-0.029,0.115-0.129,0.23l-7.301,8.562h8.649
		c2.754,0,4.159-0.373,4.46-0.445c1.649-0.43,3.17-1.404,3.729-2.896h0.358l-1.735,4.59H-623.848z"/>
</g>
<g>
	<path d="M-616.227,600.108c0.13-0.518,0.16-0.627,0.16-0.836c0-0.33-0.11-0.459-0.309-0.459c-0.358,0-0.558,0.479-0.727,1.186
		c-0.06,0.221-0.07,0.23-0.169,0.23c-0.02,0-0.12,0-0.12-0.1c0-0.041,0.139-0.629,0.299-0.969c0.1-0.18,0.289-0.566,0.747-0.566
		s0.867,0.309,0.917,0.865c0.169-0.229,0.658-0.865,1.554-0.865c0.717,0,1.146,0.396,1.146,1.064c0,0.568-0.418,1.664-0.608,2.193
		c-0.09,0.219-0.179,0.457-0.179,0.707c0,0.229,0.07,0.328,0.239,0.328c0.488,0,0.817-0.559,1.016-1.234
		c0.05-0.148,0.05-0.18,0.149-0.18c0.03,0,0.12,0,0.12,0.1c0,0.08-0.369,1.533-1.305,1.533c-0.468,0-0.817-0.348-0.817-0.816
		c0-0.109,0.01-0.229,0.1-0.459c0.159-0.428,0.647-1.701,0.647-2.32c0-0.328-0.09-0.697-0.538-0.697
		c-0.947,0-1.475,0.906-1.624,1.215c-0.01,0.041-0.09,0.33-0.13,0.5c-0.05,0.229-0.109,0.447-0.169,0.666
		c-0.07,0.299-0.15,0.598-0.219,0.898c-0.06,0.248-0.18,0.717-0.189,0.736c-0.07,0.199-0.249,0.277-0.369,0.277
		c-0.149,0-0.289-0.09-0.289-0.268c0-0.051,0.06-0.279,0.09-0.43L-616.227,600.108z"/>
</g>
<g>
	<path d="M-598.093,574.725v-0.416h5.063v0.416H-598.093z"/>
</g>
<g>
	<path d="M-597.551,586.356c0.43,0,1.535,0,2.739-1.348c0.918-1.033,1.205-2.096,1.205-2.611c0-0.744-0.387-1.133-0.517-1.262
		c-0.057-0.059-0.158-0.158-0.158-0.33c0-0.287,0.315-0.631,0.66-0.631c0.143,0,0.573,0.1,0.573,0.961
		c0,0.73-0.344,2.008-0.487,2.381c-0.244,0.617-0.674,1.275-1.147,1.793c-1.291,1.334-2.424,1.334-2.955,1.334
		c-0.057,0.258-0.645,2.668-0.703,2.727c-0.029,0.057-0.086,0.057-0.115,0.057c-0.043,0-0.158,0-0.158-0.129
		c0-0.059,0.101-0.459,0.33-1.318c0.115-0.445,0.215-0.904,0.33-1.35c-1.291-0.102-2.438-0.631-2.438-2.008
		c0-0.33,0-0.646,0.775-2.684c0.244-0.631,0.244-0.945,0.244-1.004c0-0.459-0.244-0.473-0.373-0.473
		c-0.53,0-1.104,0.531-1.448,1.779c-0.058,0.199-0.072,0.258-0.201,0.258c-0.1,0-0.158-0.07-0.158-0.129
		c0-0.115,0.531-2.194,1.85-2.194c0.674,0,1.133,0.517,1.133,1.162c0,0.259-0.072,0.444-0.258,0.962
		c-0.674,1.777-0.674,2.107-0.674,2.424c0,0.859,0.444,1.463,1.635,1.605l2.367-9.496c0.058-0.215,0.072-0.287,0.201-0.287
		c0.043,0,0.158,0,0.158,0.129c0,0.016-0.058,0.201-0.058,0.215L-597.551,586.356z"/>
</g>
<g>
	<path d="M-591.353,585.763c0.13-0.52,0.16-0.629,0.16-0.838c0-0.328-0.11-0.457-0.309-0.457c-0.358,0-0.558,0.477-0.727,1.186
		c-0.06,0.219-0.07,0.229-0.169,0.229c-0.02,0-0.12,0-0.12-0.102c0-0.039,0.139-0.627,0.299-0.965c0.1-0.18,0.289-0.568,0.747-0.568
		s0.867,0.311,0.917,0.867c0.169-0.229,0.658-0.867,1.554-0.867c0.717,0,1.146,0.398,1.146,1.066c0,0.568-0.418,1.664-0.608,2.191
		c-0.09,0.219-0.179,0.459-0.179,0.707c0,0.229,0.07,0.328,0.239,0.328c0.488,0,0.817-0.559,1.016-1.234
		c0.05-0.148,0.05-0.18,0.149-0.18c0.03,0,0.12,0,0.12,0.1c0,0.08-0.369,1.535-1.305,1.535c-0.468,0-0.817-0.35-0.817-0.816
		c0-0.111,0.01-0.229,0.1-0.459c0.159-0.43,0.647-1.705,0.647-2.322c0-0.328-0.09-0.695-0.538-0.695
		c-0.947,0-1.475,0.904-1.624,1.215c-0.01,0.039-0.09,0.328-0.13,0.498c-0.05,0.229-0.109,0.449-0.169,0.668
		c-0.07,0.299-0.15,0.598-0.219,0.896c-0.06,0.248-0.18,0.717-0.189,0.736c-0.07,0.199-0.249,0.279-0.369,0.279
		c-0.149,0-0.289-0.09-0.289-0.27c0-0.051,0.06-0.279,0.09-0.43L-591.353,585.763z"/>
</g>
<g>
	<path d="M-579.407,590.101c-0.158,0-1.333-0.934-2.18-2.654c-0.746-1.533-0.947-3.24-0.947-4.518c0-1.766,0.33-3.299,1.061-4.748
		c0.703-1.404,1.879-2.438,2.065-2.438c0.058,0,0.129,0.029,0.129,0.115c0,0.043,0,0.071-0.144,0.2
		c-1.664,1.692-2.338,4.089-2.338,6.872c0,2.926,0.803,5.291,2.238,6.74c0.244,0.244,0.244,0.271,0.244,0.314
		C-579.277,590.071-579.349,590.101-579.407,590.101z"/>
</g>
<g>
	<path d="M-576.253,586.644c-0.688,0-1.133-0.518-1.133-1.162c0-0.258,0.086-0.486,0.172-0.717c0.488-1.307,0.488-1.334,1.004-2.668
		c0.115-0.314,0.301-0.789,0.301-1.162c0-0.459-0.244-0.473-0.373-0.473c-0.559,0-1.104,0.574-1.448,1.779
		c-0.058,0.199-0.072,0.258-0.201,0.258c-0.1,0-0.158-0.07-0.158-0.129c0-0.115,0.531-2.194,1.85-2.194
		c0.703,0,1.133,0.545,1.133,1.147c0,0.271-0.1,0.529-0.144,0.646c-0.33,0.889-0.66,1.777-1.004,2.668
		c-0.158,0.43-0.33,0.859-0.33,1.246c0,0.432,0.201,0.475,0.373,0.475c0.474,0,1.062-0.445,1.435-1.75
		c0.072-0.244,0.086-0.287,0.215-0.287c0.086,0,0.144,0.059,0.144,0.129C-574.417,584.55-574.933,586.644-576.253,586.644z
		 M-575.249,578.239c-0.172,0-0.473-0.115-0.473-0.474c0-0.373,0.373-0.688,0.703-0.688c0.316,0,0.488,0.258,0.488,0.474
		C-574.532,577.866-574.862,578.239-575.249,578.239z"/>
	<path d="M-567.287,582.354c0.43-0.975,0.933-1.949,0.961-1.979c0.029-0.059,0.101-0.059,0.129-0.059
		c0.129,0,0.144,0.102,0.144,0.115c0,0.043-0.201,0.432-0.301,0.66c-1.133,2.252-1.951,4.617-1.994,4.963
		c-0.072,0.574-0.158,1.205-0.502,2.467c-0.158,0.574-0.287,1.047-0.502,1.047c-0.115,0-0.158-0.129-0.158-0.244
		c0-0.4,0.474-2.18,0.746-3.068c0.086-0.285,0.187-0.588,0.187-1.49c0-1.42-0.287-3.645-2.281-3.645
		c-0.99,0-1.908,0.703-2.209,1.592c-0.072,0.188-0.072,0.217-0.201,0.217c-0.043,0-0.144,0-0.144-0.129
		c0-0.373,0.961-2.626,2.725-2.626c1.047,0,1.535,0.76,1.822,1.478c0.545,1.291,0.574,2.396,0.603,3.098
		C-567.789,583.489-567.502,582.845-567.287,582.354z"/>
</g>
<g>
	<path d="M-563.734,578.754c-0.07,0.278-0.14,0.558-0.14,0.847c0,0.538,0.239,0.867,0.737,0.867c0.807,0,1.286-0.907,1.295-0.957
		c0.03-0.1,0.14-0.52,0.259-1.018c0.149-0.617,0.338-1.364,0.468-1.862c0.08-0.339,0.338-0.349,0.388-0.349
		c0.15,0,0.289,0.09,0.289,0.269c0,0.06-0.1,0.438-0.149,0.667c-0.04,0.148-0.14,0.527-0.169,0.678
		c-0.089,0.358-0.189,0.717-0.279,1.076c-0.08,0.35-0.199,0.816-0.199,1.036c0,0.198,0.03,0.458,0.299,0.458
		c0.409,0,0.588-0.588,0.757-1.236c0.03-0.14,0.04-0.179,0.139-0.179c0.03,0,0.12,0,0.12,0.101c0,0.02-0.129,0.627-0.299,0.985
		c-0.159,0.319-0.389,0.548-0.737,0.548c-0.438,0-0.807-0.279-0.896-0.727c-0.239,0.279-0.628,0.727-1.325,0.727
		c-0.2,0-0.648-0.04-0.967-0.309c-0.378,1.533-0.508,2.053-0.548,2.143c-0.021,0.029-0.14,0.209-0.349,0.209
		c-0.169,0-0.279-0.119-0.279-0.27c0-0.02,0-0.039,0.03-0.158l1.435-5.77c0.09-0.35,0.369-0.359,0.398-0.359
		c0.169,0,0.289,0.1,0.289,0.27c0,0.049-0.1,0.428-0.149,0.637L-563.734,578.754z"/>
</g>
<g>
	<path d="M-552.59,581.71c0.143-0.53,0.416-1.592,0.416-2.51c0-1.606-0.803-2.61-2.065-2.61c-0.387,0-1.477,0.101-2.065,1.161
		c0.187,0,0.631,0,0.631,0.445c0,0.244-0.215,0.703-0.717,0.703c-0.401,0-0.487-0.314-0.487-0.443c0-0.387,0.617-2.209,2.696-2.209
		c1.836,0,2.998,1.592,2.998,3.658c0,1.965-1.449,6.898-4.833,6.898c-1.951,0-2.553-1.65-2.553-2.525c0-2.279,2.065-4.33,4.088-4.33
		c1.291,0,1.793,0.961,1.879,1.764h0.012V581.71z M-552.833,582.14c0-0.773-0.301-1.908-1.606-1.908
		c-1.492,0-2.309,1.449-2.496,1.879c-0.215,0.531-0.617,2.008-0.617,2.639c0,0.604,0.229,1.664,1.578,1.664
		C-553.766,586.415-552.833,583.202-552.833,582.14z"/>
</g>
<g>
	<path d="M-549.818,586.829c-0.07,0.279-0.14,0.559-0.14,0.848c0,0.537,0.239,0.865,0.737,0.865c0.807,0,1.286-0.906,1.295-0.957
		c0.03-0.1,0.14-0.518,0.259-1.016c0.149-0.617,0.338-1.365,0.468-1.863c0.08-0.338,0.338-0.35,0.388-0.35
		c0.15,0,0.289,0.09,0.289,0.27c0,0.061-0.1,0.439-0.149,0.67c-0.04,0.148-0.14,0.525-0.169,0.676
		c-0.089,0.359-0.189,0.719-0.279,1.076c-0.08,0.35-0.199,0.816-0.199,1.035c0,0.199,0.03,0.459,0.299,0.459
		c0.409,0,0.588-0.588,0.757-1.234c0.03-0.141,0.04-0.18,0.139-0.18c0.03,0,0.12,0,0.12,0.1c0,0.02-0.129,0.629-0.299,0.986
		c-0.159,0.318-0.389,0.549-0.737,0.549c-0.438,0-0.807-0.279-0.896-0.729c-0.239,0.279-0.628,0.729-1.325,0.729
		c-0.2,0-0.648-0.041-0.967-0.311c-0.378,1.535-0.508,2.055-0.548,2.145c-0.021,0.027-0.14,0.209-0.349,0.209
		c-0.169,0-0.279-0.121-0.279-0.271c0-0.02,0-0.039,0.03-0.158l1.435-5.77c0.09-0.35,0.369-0.359,0.398-0.359
		c0.169,0,0.289,0.102,0.289,0.271c0,0.049-0.1,0.428-0.149,0.637L-549.818,586.829z"/>
</g>
<g>
	<path d="M-540.348,583.202c-0.201,0-0.474,0-0.474-0.287s0.272-0.287,0.474-0.287h7.817c0.201,0,0.473,0,0.473,0.287
		s-0.272,0.287-0.473,0.287H-540.348z"/>
</g>
<g>
	<path d="M-525.183,584.19c-0.101,0.432-0.215,0.861-0.315,1.291c-0.072,0.287-0.201,0.789-0.229,0.861
		c-0.115,0.215-0.316,0.301-0.488,0.301c-0.215,0-0.373-0.158-0.373-0.357c0-0.072,0.158-0.746,0.258-1.119
		c0.072-0.258,0.229-0.902,0.287-1.176c0.129-0.518,0.272-1.033,0.402-1.551c0.1-0.443,0.244-1.002,0.244-1.318
		c0-0.43-0.115-0.66-0.444-0.66c-0.574,0-0.847,0.846-1.062,1.693c-0.086,0.33-0.101,0.344-0.215,0.344
		c-0.1,0-0.158-0.07-0.158-0.129s0.201-0.932,0.459-1.449c0.272-0.545,0.603-0.746,1.019-0.746c0.631,0,1.219,0.443,1.262,1.262
		c0.258-0.359,0.932-1.262,2.208-1.262c1.076,0,1.549,0.617,1.592,1.393c0.574-0.848,1.348-1.393,2.309-1.393
		c1.09,0,1.592,0.646,1.592,1.506c0,0.832-0.646,2.523-0.904,3.213c-0.057,0.158-0.229,0.617-0.229,0.99
		c0,0.459,0.229,0.473,0.373,0.473c0.574,0,1.104-0.602,1.435-1.75c0.072-0.242,0.086-0.285,0.215-0.285
		c0.086,0,0.144,0.057,0.144,0.129c0,0.086-0.502,2.193-1.836,2.193c-0.688,0-1.133-0.518-1.133-1.162
		c0-0.258,0.071-0.443,0.201-0.789c0.315-0.859,0.875-2.424,0.875-3.227c0-0.574-0.201-1.004-0.775-1.004
		c-1.578,0-2.323,1.793-2.352,1.908c-0.215,0.875-0.588,2.354-0.861,3.428c-0.129,0.518-0.201,0.848-0.631,0.848
		c-0.215,0-0.373-0.158-0.373-0.359c0-0.057,0.086-0.43,0.144-0.645c0.029-0.158,0.301-1.221,0.416-1.65
		c0.172-0.688,0.172-0.73,0.358-1.477c0.172-0.674,0.172-0.961,0.172-1.048c0-0.574-0.201-1.004-0.775-1.004
		c-0.559,0-1.047,0.229-1.42,0.573c-0.531,0.459-0.889,1.178-0.918,1.264L-525.183,584.19z"/>
</g>
<g>
	<path d="M-513.924,585.763c0.13-0.52,0.16-0.629,0.16-0.838c0-0.328-0.11-0.457-0.309-0.457c-0.358,0-0.558,0.477-0.727,1.186
		c-0.06,0.219-0.07,0.229-0.169,0.229c-0.02,0-0.12,0-0.12-0.102c0-0.039,0.139-0.627,0.299-0.965c0.1-0.18,0.289-0.568,0.747-0.568
		s0.867,0.311,0.917,0.867c0.169-0.229,0.658-0.867,1.554-0.867c0.717,0,1.146,0.398,1.146,1.066c0,0.568-0.418,1.664-0.608,2.191
		c-0.09,0.219-0.179,0.459-0.179,0.707c0,0.229,0.07,0.328,0.239,0.328c0.488,0,0.817-0.559,1.016-1.234
		c0.05-0.148,0.05-0.18,0.149-0.18c0.03,0,0.12,0,0.12,0.1c0,0.08-0.369,1.535-1.305,1.535c-0.468,0-0.817-0.35-0.817-0.816
		c0-0.111,0.01-0.229,0.1-0.459c0.159-0.43,0.647-1.705,0.647-2.322c0-0.328-0.09-0.695-0.538-0.695
		c-0.947,0-1.475,0.904-1.624,1.215c-0.01,0.039-0.09,0.328-0.13,0.498c-0.05,0.229-0.109,0.449-0.169,0.668
		c-0.07,0.299-0.15,0.598-0.219,0.896c-0.06,0.248-0.18,0.717-0.189,0.736c-0.07,0.199-0.249,0.279-0.369,0.279
		c-0.149,0-0.289-0.09-0.289-0.27c0-0.051,0.06-0.279,0.09-0.43L-513.924,585.763z"/>
</g>
<g>
	<path d="M-505.917,587.663c-0.703,1.404-1.879,2.438-2.065,2.438c-0.057,0-0.129-0.029-0.129-0.115c0-0.043,0-0.07,0.143-0.201
		c1.664-1.691,2.338-4.086,2.338-6.869c0-2.926-0.803-5.293-2.237-6.741c-0.244-0.244-0.244-0.272-0.244-0.315
		c0-0.086,0.072-0.115,0.129-0.115c0.158,0,1.334,0.933,2.18,2.654c0.803,1.663,0.947,3.443,0.947,4.533
		C-504.854,584.649-505.185,586.2-505.917,587.663z"/>
</g>
<g>
	<path d="M-496.657,586.356c0.43,0,1.535,0,2.739-1.348c0.918-1.033,1.205-2.096,1.205-2.611c0-0.744-0.387-1.133-0.517-1.262
		c-0.057-0.059-0.158-0.158-0.158-0.33c0-0.287,0.315-0.631,0.66-0.631c0.143,0,0.573,0.1,0.573,0.961
		c0,0.73-0.344,2.008-0.487,2.381c-0.244,0.617-0.674,1.275-1.147,1.793c-1.291,1.334-2.424,1.334-2.955,1.334
		c-0.057,0.258-0.645,2.668-0.703,2.727c-0.029,0.057-0.086,0.057-0.115,0.057c-0.043,0-0.158,0-0.158-0.129
		c0-0.059,0.101-0.459,0.33-1.318c0.115-0.445,0.215-0.904,0.33-1.35c-1.291-0.102-2.438-0.631-2.438-2.008
		c0-0.33,0-0.646,0.775-2.684c0.244-0.631,0.244-0.945,0.244-1.004c0-0.459-0.244-0.473-0.373-0.473
		c-0.53,0-1.104,0.531-1.448,1.779c-0.058,0.199-0.072,0.258-0.201,0.258c-0.1,0-0.158-0.07-0.158-0.129
		c0-0.115,0.531-2.194,1.85-2.194c0.674,0,1.133,0.517,1.133,1.162c0,0.259-0.072,0.444-0.258,0.962
		c-0.674,1.777-0.674,2.107-0.674,2.424c0,0.859,0.444,1.463,1.635,1.605l2.367-9.496c0.058-0.215,0.072-0.287,0.201-0.287
		c0.043,0,0.158,0,0.158,0.129c0,0.016-0.058,0.201-0.058,0.215L-496.657,586.356z"/>
</g>
<g>
	<path d="M-490.458,585.763c0.13-0.52,0.16-0.629,0.16-0.838c0-0.328-0.11-0.457-0.309-0.457c-0.358,0-0.558,0.477-0.728,1.186
		c-0.06,0.219-0.07,0.229-0.169,0.229c-0.02,0-0.12,0-0.12-0.102c0-0.039,0.139-0.627,0.299-0.965c0.1-0.18,0.289-0.568,0.747-0.568
		s0.867,0.311,0.917,0.867c0.169-0.229,0.658-0.867,1.554-0.867c0.717,0,1.146,0.398,1.146,1.066c0,0.568-0.418,1.664-0.608,2.191
		c-0.09,0.219-0.179,0.459-0.179,0.707c0,0.229,0.07,0.328,0.239,0.328c0.488,0,0.817-0.559,1.016-1.234
		c0.05-0.148,0.05-0.18,0.149-0.18c0.03,0,0.12,0,0.12,0.1c0,0.08-0.369,1.535-1.305,1.535c-0.468,0-0.817-0.35-0.817-0.816
		c0-0.111,0.01-0.229,0.1-0.459c0.16-0.43,0.648-1.705,0.648-2.322c0-0.328-0.09-0.695-0.538-0.695
		c-0.947,0-1.475,0.904-1.624,1.215c-0.01,0.039-0.09,0.328-0.13,0.498c-0.05,0.229-0.109,0.449-0.169,0.668
		c-0.07,0.299-0.15,0.598-0.219,0.896c-0.06,0.248-0.18,0.717-0.189,0.736c-0.07,0.199-0.249,0.279-0.369,0.279
		c-0.149,0-0.289-0.09-0.289-0.27c0-0.051,0.06-0.279,0.09-0.43L-490.458,585.763z"/>
</g>
<g>
	<path d="M-480.583,583.202c-0.201,0-0.473,0-0.473-0.287s0.272-0.287,0.473-0.287h7.817c0.201,0,0.473,0,0.473,0.287
		s-0.271,0.287-0.473,0.287H-480.583z"/>
</g>
<g>
	<path d="M-462.575,575.69c0,0.518,0.043,0.688,1.305,0.688h0.445v0.416c-0.387-0.029-1.764-0.029-2.238-0.029
		c-0.473,0-1.864,0-2.252,0.029v-0.416h0.445c1.262,0,1.305-0.173,1.305-0.688v-7.473c-0.789,0.373-1.506,0.373-1.836,0.373v-0.416
		c1.478,0,2.194-0.531,2.539-0.918c0.287,0,0.287,0.014,0.287,0.344V575.69z"/>
</g>
<g>
	<rect x="-466.706" y="582.626" width="7.024" height="0.574"/>
</g>
<g>
	<path d="M-461.528,593.528h1.449v0.416h-1.449v1.307c0,0.529,0.043,0.674,1.076,0.674h0.287v0.416
		c-0.33-0.027-1.478-0.027-1.879-0.027c-0.402,0-1.535,0-1.865,0.027v-0.416h0.287c1.047,0,1.076-0.145,1.076-0.674v-1.307h-3.772
		v-0.416l4.317-6.697c0.115-0.172,0.158-0.172,0.272-0.172c0.201,0,0.201,0.07,0.201,0.344V593.528z M-465.96,593.528h3.486v-5.406
		L-465.96,593.528z"/>
</g>
<g>
	<path d="M-455.145,585.481c-0.028,0.102-0.057,0.217-0.057,0.287c0,0.215,0.029,0.314,1.162,0.314c0.316,0,0.402,0,0.402,0.158
		c0,0.258-0.172,0.258-0.301,0.258c-0.315,0-0.66-0.027-0.976-0.027h-1.864c-0.273,0-0.56,0.027-0.832,0.027
		c-0.086,0-0.215,0-0.215-0.156c0-0.26,0.144-0.26,0.416-0.26c1.004,0,1.033-0.143,1.162-0.645l1.936-7.746
		c0.043-0.158,0.058-0.215,0.058-0.287c0-0.158,0-0.258-0.89-0.258c-0.244,0-0.344,0-0.344-0.158c0-0.258,0.144-0.258,0.416-0.258
		h6.799c0.258,0,0.387,0,0.387,0.158c0,0.029-0.029,0.172-0.029,0.215l-0.301,2.51c-0.029,0.258-0.086,0.315-0.187,0.315
		c-0.086,0-0.158-0.043-0.158-0.157c0-0.058,0.029-0.244,0.043-0.302c0.043-0.373,0.043-0.688,0.043-0.774
		c0-1.019-0.258-1.549-2.051-1.549h-1.922c-0.588,0-0.617,0.043-0.746,0.545l-0.932,3.715h1.305c1.248,0,1.535-0.301,1.836-1.377
		c0.058-0.244,0.072-0.301,0.201-0.301c0.101,0,0.144,0.086,0.144,0.145l-0.832,3.342c-0.057,0.229-0.072,0.285-0.186,0.285
		c-0.101,0-0.158-0.057-0.158-0.156c0-0.029,0.015-0.102,0.043-0.158c0.072-0.314,0.101-0.516,0.101-0.701
		c0-0.416-0.086-0.66-1.176-0.66h-1.377L-455.145,585.481z"/>
</g>
<g>
	<path d="M-447.511,586.829c-0.07,0.279-0.14,0.559-0.14,0.848c0,0.537,0.239,0.865,0.737,0.865c0.807,0,1.286-0.906,1.295-0.957
		c0.03-0.1,0.14-0.518,0.259-1.016c0.149-0.617,0.338-1.365,0.468-1.863c0.08-0.338,0.338-0.35,0.388-0.35
		c0.15,0,0.289,0.09,0.289,0.27c0,0.061-0.1,0.439-0.149,0.67c-0.04,0.148-0.14,0.525-0.169,0.676
		c-0.089,0.359-0.189,0.719-0.279,1.076c-0.08,0.35-0.199,0.816-0.199,1.035c0,0.199,0.03,0.459,0.299,0.459
		c0.409,0,0.588-0.588,0.757-1.234c0.03-0.141,0.04-0.18,0.14-0.18c0.03,0,0.119,0,0.119,0.1c0,0.02-0.129,0.629-0.299,0.986
		c-0.159,0.318-0.389,0.549-0.737,0.549c-0.438,0-0.807-0.279-0.896-0.729c-0.239,0.279-0.628,0.729-1.325,0.729
		c-0.2,0-0.648-0.041-0.967-0.311c-0.378,1.535-0.508,2.055-0.548,2.145c-0.02,0.027-0.14,0.209-0.349,0.209
		c-0.169,0-0.279-0.121-0.279-0.271c0-0.02,0-0.039,0.03-0.158l1.435-5.77c0.09-0.35,0.369-0.359,0.398-0.359
		c0.169,0,0.289,0.102,0.289,0.271c0,0.049-0.1,0.428-0.149,0.637L-447.511,586.829z"/>
	<path d="M-442.136,588.323c1.136-0.369,2.65-1.484,3.288-3.746c0.08-0.289,0.309-0.33,0.389-0.33c0.169,0,0.289,0.102,0.289,0.271
		c0,0.09-0.269,1.443-1.584,2.67c-1.026,0.957-2.112,1.346-2.81,1.465h-0.14c-0.06,0-0.159-0.01-0.159-0.119
		c0-0.021,0.069-0.301,0.109-0.449l0.608-2.439c0.07-0.271,0.189-0.738,0.189-0.809c0-0.1-0.02-0.17-0.498-0.17
		c-0.149,0-0.239,0-0.239-0.119c0-0.18,0.11-0.189,0.189-0.199c0.259-0.02,0.986-0.1,1.216-0.1c0.129,0,0.129,0.1,0.129,0.109
		L-442.136,588.323z"/>
</g>
<g>
	<path d="M-433.995,585.481c-0.028,0.102-0.057,0.217-0.057,0.287c0,0.215,0.029,0.314,1.162,0.314c0.315,0,0.402,0,0.402,0.158
		c0,0.258-0.172,0.258-0.301,0.258c-0.315,0-0.66-0.027-0.976-0.027h-1.864c-0.272,0-0.56,0.027-0.832,0.027
		c-0.086,0-0.215,0-0.215-0.156c0-0.26,0.144-0.26,0.416-0.26c1.004,0,1.033-0.143,1.162-0.645l1.937-7.746
		c0.043-0.158,0.058-0.215,0.058-0.287c0-0.158,0-0.258-0.89-0.258c-0.244,0-0.344,0-0.344-0.158c0-0.258,0.144-0.258,0.416-0.258
		h6.799c0.258,0,0.387,0,0.387,0.158c0,0.029-0.029,0.172-0.029,0.215l-0.301,2.51c-0.028,0.258-0.086,0.315-0.187,0.315
		c-0.086,0-0.158-0.043-0.158-0.157c0-0.058,0.028-0.244,0.043-0.302c0.043-0.373,0.043-0.688,0.043-0.774
		c0-1.019-0.258-1.549-2.051-1.549h-1.922c-0.588,0-0.617,0.043-0.746,0.545l-0.932,3.715h1.305c1.248,0,1.535-0.301,1.836-1.377
		c0.058-0.244,0.072-0.301,0.201-0.301c0.101,0,0.144,0.086,0.144,0.145l-0.832,3.342c-0.057,0.229-0.071,0.285-0.187,0.285
		c-0.1,0-0.158-0.057-0.158-0.156c0-0.029,0.015-0.102,0.043-0.158c0.071-0.314,0.1-0.516,0.1-0.701c0-0.416-0.086-0.66-1.176-0.66
		h-1.377L-433.995,585.481z"/>
</g>
<g>
	<path d="M-424.409,578.754c-0.07,0.278-0.14,0.558-0.14,0.847c0,0.538,0.239,0.867,0.737,0.867c0.807,0,1.286-0.907,1.295-0.957
		c0.03-0.1,0.14-0.52,0.259-1.018c0.149-0.617,0.338-1.364,0.468-1.862c0.08-0.339,0.338-0.349,0.388-0.349
		c0.15,0,0.289,0.09,0.289,0.269c0,0.06-0.1,0.438-0.149,0.667c-0.04,0.148-0.14,0.527-0.169,0.678
		c-0.089,0.358-0.189,0.717-0.279,1.076c-0.08,0.35-0.199,0.816-0.199,1.036c0,0.198,0.03,0.458,0.299,0.458
		c0.409,0,0.588-0.588,0.757-1.236c0.03-0.14,0.04-0.179,0.139-0.179c0.03,0,0.12,0,0.12,0.101c0,0.02-0.129,0.627-0.299,0.985
		c-0.159,0.319-0.389,0.548-0.737,0.548c-0.438,0-0.807-0.279-0.896-0.727c-0.239,0.279-0.628,0.727-1.325,0.727
		c-0.2,0-0.648-0.04-0.967-0.309c-0.378,1.533-0.508,2.053-0.548,2.143c-0.02,0.029-0.14,0.209-0.349,0.209
		c-0.169,0-0.279-0.119-0.279-0.27c0-0.02,0-0.039,0.03-0.158l1.435-5.77c0.09-0.35,0.369-0.359,0.398-0.359
		c0.169,0,0.289,0.1,0.289,0.27c0,0.049-0.1,0.428-0.149,0.637L-424.409,578.754z"/>
	<path d="M-419.034,580.247c1.136-0.368,2.649-1.484,3.288-3.746c0.08-0.289,0.309-0.329,0.389-0.329
		c0.17,0,0.289,0.101,0.289,0.269c0,0.09-0.27,1.445-1.584,2.67c-1.026,0.957-2.113,1.346-2.81,1.465h-0.14
		c-0.06,0-0.159-0.01-0.159-0.119c0-0.021,0.069-0.299,0.109-0.448l0.608-2.44c0.07-0.27,0.189-0.738,0.189-0.808
		c0-0.101-0.02-0.169-0.499-0.169c-0.149,0-0.239,0-0.239-0.12c0-0.181,0.11-0.188,0.189-0.2c0.259-0.02,0.986-0.1,1.215-0.1
		c0.13,0,0.13,0.1,0.13,0.109L-419.034,580.247z"/>
</g>
<g>
	<path d="M-409.384,583.202c-0.201,0-0.473,0-0.473-0.287s0.271-0.287,0.473-0.287h7.816c0.201,0,0.475,0,0.475,0.287
		s-0.272,0.287-0.475,0.287H-409.384z"/>
</g>
<g>
	<path d="M-395.497,592.952c-0.259,0-0.388,0-0.388-0.156c0-0.016,0-0.088,0.144-0.26l7.431-8.707l-7.588-10.383
		c0-0.158,0-0.431,0.014-0.474c0.043-0.086,0.059-0.101,0.389-0.101h16.954l1.736,4.029h-0.359
		c-0.488-1.162-1.463-1.807-1.822-2.037c-1.133-0.717-2.381-0.961-3.154-1.076c-0.129-0.028-1.436-0.229-3.355-0.229h-7.86
		l6.684,9.137c0.1,0.145,0.1,0.188,0.1,0.215c0,0.072-0.027,0.115-0.129,0.23l-7.301,8.562h8.651c2.754,0,4.158-0.373,4.461-0.445
		c1.648-0.43,3.17-1.404,3.729-2.896h0.359l-1.736,4.59H-395.497z"/>
</g>
<g>
	<path d="M-387.876,600.108c0.129-0.518,0.16-0.627,0.16-0.836c0-0.33-0.109-0.459-0.311-0.459c-0.357,0-0.559,0.479-0.727,1.186
		c-0.061,0.221-0.07,0.23-0.17,0.23c-0.021,0-0.119,0-0.119-0.1c0-0.041,0.139-0.629,0.299-0.969c0.1-0.18,0.289-0.566,0.746-0.566
		c0.459,0,0.867,0.309,0.918,0.865c0.168-0.229,0.656-0.865,1.555-0.865c0.717,0,1.146,0.396,1.146,1.064
		c0,0.568-0.42,1.664-0.607,2.193c-0.09,0.219-0.18,0.457-0.18,0.707c0,0.229,0.068,0.328,0.238,0.328
		c0.488,0,0.816-0.559,1.016-1.234c0.051-0.148,0.051-0.18,0.15-0.18c0.029,0,0.119,0,0.119,0.1c0,0.08-0.369,1.533-1.307,1.533
		c-0.467,0-0.814-0.348-0.814-0.816c0-0.109,0.01-0.229,0.1-0.459c0.158-0.428,0.646-1.701,0.646-2.32
		c0-0.328-0.09-0.697-0.537-0.697c-0.947,0-1.477,0.906-1.625,1.215c-0.01,0.041-0.09,0.33-0.129,0.5
		c-0.051,0.229-0.109,0.447-0.17,0.666c-0.07,0.299-0.148,0.598-0.221,0.898c-0.059,0.248-0.178,0.717-0.188,0.736
		c-0.07,0.199-0.25,0.277-0.369,0.277c-0.148,0-0.289-0.09-0.289-0.268c0-0.051,0.061-0.279,0.09-0.43L-387.876,600.108z"/>
</g>
<g>
	<path d="M-369.257,588.38c-0.043,0.188-0.057,0.201-0.057,0.271c0,0.115,0.043,0.215,0.717,0.215c0.215,0,0.33,0,0.33,0.145
		c0,0.271-0.172,0.271-0.26,0.271c-0.215,0-0.459-0.027-0.674-0.027h-1.463c-0.201,0-0.459,0.027-0.66,0.027
		c-0.1,0-0.186-0.043-0.186-0.143c0-0.273,0.143-0.273,0.301-0.273c0.674-0.014,0.889-0.014,1.02-0.443l0.129-0.518
		c0.186-0.73,0.373-1.447,0.545-2.15l-0.016-0.014c-0.301,0.328-0.932,0.902-1.691,0.902c-0.977,0-1.809-0.832-1.809-2.252
		c0-2.123,1.75-4.217,3.371-4.217c0.617,0,1.062,0.387,1.32,1.033c0.271-0.502,0.832-1.02,0.945-1.02
		c0.07,0,0.129,0.057,0.129,0.129L-369.257,588.38z M-368.583,581.981c0.016-0.027,0.059-0.215,0.059-0.229
		c0-0.113-0.188-1.291-1.135-1.291c-0.559,0-1.232,0.517-1.721,1.52c-0.271,0.604-0.717,2.209-0.717,2.998
		c0,0.848,0.33,1.377,0.918,1.377c0.674,0,1.305-0.615,1.621-1.018c0.199-0.273,0.199-0.303,0.271-0.547L-368.583,581.981z"/>
</g>
<g>
	<path d="M-365.905,585.763c0.129-0.52,0.158-0.629,0.158-0.838c0-0.328-0.107-0.457-0.309-0.457c-0.359,0-0.559,0.477-0.729,1.186
		c-0.059,0.219-0.068,0.229-0.17,0.229c-0.02,0-0.119,0-0.119-0.102c0-0.039,0.141-0.627,0.301-0.965
		c0.1-0.18,0.287-0.568,0.746-0.568s0.867,0.311,0.916,0.867c0.17-0.229,0.658-0.867,1.557-0.867c0.717,0,1.145,0.398,1.145,1.066
		c0,0.568-0.418,1.664-0.605,2.191c-0.09,0.219-0.182,0.459-0.182,0.707c0,0.229,0.07,0.328,0.24,0.328
		c0.488,0,0.816-0.559,1.016-1.234c0.051-0.148,0.051-0.18,0.15-0.18c0.029,0,0.119,0,0.119,0.1c0,0.08-0.369,1.535-1.307,1.535
		c-0.469,0-0.816-0.35-0.816-0.816c0-0.111,0.01-0.229,0.1-0.459c0.16-0.43,0.648-1.705,0.648-2.322c0-0.328-0.09-0.695-0.539-0.695
		c-0.945,0-1.475,0.904-1.623,1.215c-0.01,0.039-0.09,0.328-0.131,0.498c-0.049,0.229-0.109,0.449-0.168,0.668
		c-0.07,0.299-0.15,0.598-0.221,0.896c-0.061,0.248-0.18,0.717-0.189,0.736c-0.068,0.199-0.248,0.279-0.367,0.279
		c-0.148,0-0.289-0.09-0.289-0.27c0-0.051,0.061-0.279,0.09-0.43L-365.905,585.763z"/>
</g>
<g>
	<path d="M-357.034,574.725v-0.416h5.062v0.416H-357.034z"/>
</g>
<g>
	<path d="M-356.493,586.356c0.432,0,1.535,0,2.74-1.348c0.918-1.033,1.203-2.096,1.203-2.611c0-0.744-0.387-1.133-0.516-1.262
		c-0.059-0.059-0.158-0.158-0.158-0.33c0-0.287,0.314-0.631,0.66-0.631c0.145,0,0.572,0.1,0.572,0.961
		c0,0.73-0.344,2.008-0.486,2.381c-0.244,0.617-0.674,1.275-1.146,1.793c-1.291,1.334-2.424,1.334-2.955,1.334
		c-0.059,0.258-0.646,2.668-0.703,2.727c-0.027,0.057-0.086,0.057-0.113,0.057c-0.043,0-0.158,0-0.158-0.129
		c0-0.059,0.1-0.459,0.33-1.318c0.115-0.445,0.215-0.904,0.33-1.35c-1.291-0.102-2.439-0.631-2.439-2.008
		c0-0.33,0-0.646,0.775-2.684c0.244-0.631,0.244-0.945,0.244-1.004c0-0.459-0.244-0.473-0.373-0.473
		c-0.531,0-1.105,0.531-1.449,1.779c-0.059,0.199-0.072,0.258-0.201,0.258c-0.1,0-0.156-0.07-0.156-0.129
		c0-0.115,0.529-2.194,1.85-2.194c0.676,0,1.135,0.517,1.135,1.162c0,0.259-0.072,0.444-0.26,0.962
		c-0.674,1.777-0.674,2.107-0.674,2.424c0,0.859,0.443,1.463,1.635,1.605l2.367-9.496c0.057-0.215,0.07-0.287,0.199-0.287
		c0.043,0,0.158,0,0.158,0.129c0,0.016-0.057,0.201-0.057,0.215L-356.493,586.356z"/>
</g>
<g>
	<path d="M-350.294,585.763c0.129-0.52,0.158-0.629,0.158-0.838c0-0.328-0.109-0.457-0.309-0.457c-0.359,0-0.559,0.477-0.729,1.186
		c-0.059,0.219-0.07,0.229-0.17,0.229c-0.02,0-0.119,0-0.119-0.102c0-0.039,0.141-0.627,0.299-0.965
		c0.102-0.18,0.289-0.568,0.748-0.568s0.867,0.311,0.916,0.867c0.17-0.229,0.658-0.867,1.555-0.867c0.719,0,1.146,0.398,1.146,1.066
		c0,0.568-0.418,1.664-0.607,2.191c-0.09,0.219-0.18,0.459-0.18,0.707c0,0.229,0.07,0.328,0.24,0.328
		c0.488,0,0.814-0.559,1.016-1.234c0.051-0.148,0.051-0.18,0.15-0.18c0.027,0,0.119,0,0.119,0.1c0,0.08-0.369,1.535-1.307,1.535
		c-0.469,0-0.816-0.35-0.816-0.816c0-0.111,0.01-0.229,0.1-0.459c0.16-0.43,0.648-1.705,0.648-2.322
		c0-0.328-0.092-0.695-0.539-0.695c-0.945,0-1.475,0.904-1.623,1.215c-0.01,0.039-0.09,0.328-0.131,0.498
		c-0.051,0.229-0.109,0.449-0.168,0.668c-0.07,0.299-0.15,0.598-0.221,0.896c-0.061,0.248-0.18,0.717-0.189,0.736
		c-0.068,0.199-0.248,0.279-0.367,0.279c-0.15,0-0.289-0.09-0.289-0.27c0-0.051,0.059-0.279,0.09-0.43L-350.294,585.763z"/>
</g>
<g>
	<path d="M-338.874,582.354c0.43-0.975,0.934-1.949,0.961-1.979c0.029-0.059,0.102-0.059,0.129-0.059
		c0.129,0,0.145,0.102,0.145,0.115c0,0.043-0.201,0.432-0.301,0.66c-1.135,2.252-1.951,4.617-1.994,4.963
		c-0.072,0.574-0.158,1.205-0.502,2.467c-0.158,0.574-0.287,1.047-0.502,1.047c-0.115,0-0.158-0.129-0.158-0.244
		c0-0.4,0.475-2.18,0.746-3.068c0.086-0.285,0.188-0.588,0.188-1.49c0-1.42-0.287-3.645-2.281-3.645
		c-0.988,0-1.906,0.703-2.209,1.592c-0.07,0.188-0.07,0.217-0.199,0.217c-0.043,0-0.145,0-0.145-0.129
		c0-0.373,0.961-2.626,2.727-2.626c1.047,0,1.533,0.76,1.82,1.478c0.545,1.291,0.574,2.396,0.604,3.098
		C-339.376,583.489-339.089,582.845-338.874,582.354z"/>
</g>
<g>
	<path d="M-335.323,578.754c-0.068,0.278-0.139,0.558-0.139,0.847c0,0.538,0.238,0.867,0.736,0.867c0.807,0,1.285-0.907,1.295-0.957
		c0.029-0.1,0.141-0.52,0.26-1.018c0.148-0.617,0.338-1.364,0.469-1.862c0.078-0.339,0.338-0.349,0.389-0.349
		c0.148,0,0.289,0.09,0.289,0.269c0,0.06-0.1,0.438-0.148,0.667c-0.041,0.148-0.141,0.527-0.17,0.678
		c-0.09,0.358-0.189,0.717-0.279,1.076c-0.08,0.35-0.199,0.816-0.199,1.036c0,0.198,0.029,0.458,0.299,0.458
		c0.408,0,0.588-0.588,0.758-1.236c0.029-0.14,0.041-0.179,0.141-0.179c0.029,0,0.119,0,0.119,0.101c0,0.02-0.129,0.627-0.299,0.985
		c-0.16,0.319-0.391,0.548-0.738,0.548c-0.438,0-0.807-0.279-0.895-0.727c-0.24,0.279-0.629,0.727-1.326,0.727
		c-0.199,0-0.646-0.04-0.967-0.309c-0.379,1.533-0.508,2.053-0.549,2.143c-0.02,0.029-0.139,0.209-0.348,0.209
		c-0.17,0-0.279-0.119-0.279-0.27c0-0.02,0-0.039,0.029-0.158l1.436-5.77c0.09-0.35,0.367-0.359,0.398-0.359
		c0.17,0,0.289,0.1,0.289,0.27c0,0.049-0.1,0.428-0.15,0.637L-335.323,578.754z"/>
</g>
<g>
	<path d="M-323.245,576.504c0.129-0.216,0.215-0.244,0.359-0.244c0.156,0,0.215,0.028,0.242,0.315l0.875,8.949
		c0.043,0.432,0.059,0.561,0.848,0.561c0.215,0,0.344,0,0.344,0.145c0,0.271-0.158,0.271-0.258,0.271
		c-0.016,0-0.646-0.027-1.521-0.027h-0.816c-0.244,0-0.531,0.027-0.775,0.027c-0.086,0-0.215,0-0.215-0.158
		c0-0.258,0.158-0.258,0.316-0.258c0.229,0,0.961-0.027,0.961-0.459c0-0.271-0.174-1.764-0.217-2.137
		c-0.014-0.131-0.014-0.244-0.027-0.373h-3.658l-1.09,1.807c-0.188,0.316-0.273,0.475-0.273,0.676c0,0.344,0.273,0.459,0.604,0.486
		c0.086,0,0.201,0.016,0.201,0.145c0,0.271-0.172,0.271-0.258,0.271c-0.402,0-0.861-0.027-1.277-0.027
		c-0.258,0-0.902,0.027-1.16,0.027c-0.102,0-0.174-0.059-0.174-0.145c0-0.258,0.115-0.258,0.271-0.271
		c0.689-0.043,1.178-0.33,1.68-1.176L-323.245,576.504z M-323.173,582.7l-0.488-4.819l-2.883,4.819H-323.173z"/>
</g>
<g>
	<path d="M-318.29,586.829c-0.07,0.279-0.139,0.559-0.139,0.848c0,0.537,0.236,0.865,0.736,0.865c0.807,0,1.285-0.906,1.295-0.957
		c0.029-0.1,0.141-0.518,0.26-1.016c0.148-0.617,0.338-1.365,0.469-1.863c0.078-0.338,0.338-0.35,0.389-0.35
		c0.148,0,0.289,0.09,0.289,0.27c0,0.061-0.1,0.439-0.148,0.67c-0.041,0.148-0.141,0.525-0.17,0.676
		c-0.092,0.359-0.189,0.719-0.279,1.076c-0.08,0.35-0.199,0.816-0.199,1.035c0,0.199,0.029,0.459,0.299,0.459
		c0.408,0,0.588-0.588,0.758-1.234c0.029-0.141,0.041-0.18,0.141-0.18c0.029,0,0.119,0,0.119,0.1c0,0.02-0.129,0.629-0.299,0.986
		c-0.16,0.318-0.391,0.549-0.738,0.549c-0.438,0-0.807-0.279-0.896-0.729c-0.238,0.279-0.627,0.729-1.324,0.729
		c-0.199,0-0.646-0.041-0.967-0.311c-0.379,1.535-0.508,2.055-0.549,2.145c-0.02,0.027-0.139,0.209-0.348,0.209
		c-0.17,0-0.279-0.121-0.279-0.271c0-0.02,0-0.039,0.029-0.158l1.436-5.77c0.09-0.35,0.367-0.359,0.398-0.359
		c0.17,0,0.289,0.102,0.289,0.271c0,0.049-0.102,0.428-0.15,0.637L-318.29,586.829z"/>
</g>
<g>
	<path d="M-309.284,586.356c0.432,0,1.535,0,2.74-1.348c0.918-1.033,1.205-2.096,1.205-2.611c0-0.744-0.387-1.133-0.516-1.262
		c-0.059-0.059-0.158-0.158-0.158-0.33c0-0.287,0.314-0.631,0.66-0.631c0.143,0,0.572,0.1,0.572,0.961
		c0,0.73-0.344,2.008-0.486,2.381c-0.244,0.617-0.674,1.275-1.148,1.793c-1.291,1.334-2.424,1.334-2.955,1.334
		c-0.057,0.258-0.645,2.668-0.701,2.727c-0.029,0.057-0.088,0.057-0.115,0.057c-0.043,0-0.156,0-0.156-0.129
		c0-0.059,0.1-0.459,0.328-1.318c0.115-0.445,0.217-0.904,0.33-1.35c-1.291-0.102-2.438-0.631-2.438-2.008
		c0-0.33,0-0.646,0.773-2.684c0.244-0.631,0.244-0.945,0.244-1.004c0-0.459-0.244-0.473-0.373-0.473
		c-0.529,0-1.104,0.531-1.447,1.779c-0.059,0.199-0.072,0.258-0.201,0.258c-0.102,0-0.158-0.07-0.158-0.129
		c0-0.115,0.531-2.194,1.852-2.194c0.674,0,1.133,0.517,1.133,1.162c0,0.259-0.072,0.444-0.258,0.962
		c-0.674,1.777-0.674,2.107-0.674,2.424c0,0.859,0.443,1.463,1.635,1.605l2.367-9.496c0.057-0.215,0.07-0.287,0.199-0.287
		c0.043,0,0.158,0,0.158,0.129c0,0.016-0.059,0.201-0.059,0.215L-309.284,586.356z"/>
</g>
<g>
	<path d="M-303.085,585.763c0.129-0.52,0.158-0.629,0.158-0.838c0-0.328-0.109-0.457-0.309-0.457c-0.359,0-0.559,0.477-0.729,1.186
		c-0.059,0.219-0.07,0.229-0.17,0.229c-0.02,0-0.119,0-0.119-0.102c0-0.039,0.141-0.627,0.299-0.965
		c0.102-0.18,0.289-0.568,0.748-0.568s0.867,0.311,0.916,0.867c0.17-0.229,0.658-0.867,1.557-0.867c0.717,0,1.145,0.398,1.145,1.066
		c0,0.568-0.418,1.664-0.605,2.191c-0.092,0.219-0.182,0.459-0.182,0.707c0,0.229,0.07,0.328,0.24,0.328
		c0.488,0,0.816-0.559,1.016-1.234c0.051-0.148,0.051-0.18,0.15-0.18c0.029,0,0.119,0,0.119,0.1c0,0.08-0.369,1.535-1.307,1.535
		c-0.469,0-0.816-0.35-0.816-0.816c0-0.111,0.01-0.229,0.1-0.459c0.16-0.43,0.648-1.705,0.648-2.322c0-0.328-0.09-0.695-0.539-0.695
		c-0.945,0-1.475,0.904-1.623,1.215c-0.01,0.039-0.09,0.328-0.131,0.498c-0.049,0.229-0.109,0.449-0.168,0.668
		c-0.07,0.299-0.15,0.598-0.221,0.896c-0.061,0.248-0.18,0.717-0.189,0.736c-0.068,0.199-0.248,0.279-0.367,0.279
		c-0.148,0-0.289-0.09-0.289-0.27c0-0.051,0.061-0.279,0.09-0.43L-303.085,585.763z"/>
</g>
</svg>
