<?xml version="1.0" encoding="utf-8"?>
<!-- Generator: Adobe Illustrator 16.0.0, SVG Export Plug-In . SVG Version: 6.00 Build 0)  -->
<!DOCTYPE svg PUBLIC "-//W3C//DTD SVG 1.1//EN" "http://www.w3.org/Graphics/SVG/1.1/DTD/svg11.dtd">
<svg version="1.1" id="Layer_1" xmlns="http://www.w3.org/2000/svg" xmlns:xlink="http://www.w3.org/1999/xlink" x="0px" y="0px"
	 width="566.929px" height="85.039px" viewBox="-676.036 583.02 566.929 85.039"
	 enable-background="new -676.036 583.02 566.929 85.039" xml:space="preserve">
<g>
	<path d="M-670.227,586.896c-0.76,0-1.678-0.272-2.166-0.401c-1.334-0.401-1.735-0.401-2.18-0.416
		c-0.359,0.487-1.076,0.817-1.334,0.817c-0.101,0-0.129-0.059-0.129-0.086c0-0.059,0.057-0.244,0.516-0.66
		c0.029-0.043,0.861-0.86,1.406-3.012c0.588-2.295,1.076-3.815,2.08-5.035c0.674-0.804,2.037-1.635,3.199-1.635
		c0.932,0,1.233,0.688,1.233,1.348c0,0.646-0.158,0.761-0.373,0.934c-0.344,0.258-0.746,0.43-0.961,0.43
		c-0.115,0-0.115-0.07-0.115-0.101c0-0.043,0.058-0.301,0.058-0.53c0-0.357-0.129-1.189-0.99-1.189
		c-0.473,0-0.561,0.086-0.774,0.314c-1.019,1.033-1.693,3.7-1.965,4.776c-0.144,0.573-0.416,1.678-1.176,2.797
		c0.158-0.043,0.215-0.058,0.545-0.058c0.76,0,1.592,0.244,2.323,0.459c0.56,0.158,1.32,0.358,1.937,0.358
		c0.229,0,0.244,0,0.373-0.173c0-0.014,0.129-0.199,0.215-0.43c0.086-0.244,0.115-0.33,0.517-0.59
		c0.229-0.156,0.588-0.314,0.789-0.314c0.043,0,0.115,0.029,0.129,0.043C-667.387,585.935-669.18,586.896-670.227,586.896z"/>
</g>
<g>
	<path d="M-660.478,587.955c0,0.358,0.02,0.469,0.787,0.469h0.239v0.31c-0.349-0.03-1.096-0.03-1.475-0.03s-1.116,0-1.465,0.03
		v-0.31h0.239c0.767,0,0.787-0.11,0.787-0.469v-2.61h-2.979v2.61c0,0.358,0.02,0.469,0.788,0.469h0.239v0.31
		c-0.349-0.03-1.096-0.03-1.475-0.03c-0.378,0-1.116,0-1.465,0.03v-0.31h0.239c0.767,0,0.787-0.11,0.787-0.469v-5.251
		c0-0.357-0.021-0.468-0.787-0.468h-0.239v-0.31c0.349,0.029,1.096,0.029,1.475,0.029c0.378,0,1.116,0,1.464-0.029v0.31h-0.239
		c-0.768,0-0.788,0.108-0.788,0.468v2.332h2.979v-2.332c0-0.357-0.02-0.468-0.787-0.468h-0.239v-0.31
		c0.349,0.029,1.096,0.029,1.475,0.029c0.379,0,1.116,0,1.465-0.029v0.31h-0.239c-0.767,0-0.787,0.108-0.787,0.468L-660.478,587.955
		L-660.478,587.955z"/>
	<path d="M-657.35,587.985c0,0.389,0.04,0.438,0.697,0.438v0.309c-0.338-0.01-0.688-0.029-1.036-0.029
		c-0.239,0-0.777,0.021-1.096,0.029v-0.309c0.668,0,0.777,0,0.777-0.447v-2.682c0-0.488-0.09-0.548-0.737-0.548v-0.31l1.395-0.109
		V587.985z M-657.839,583.123c-0.309,0-0.528-0.26-0.528-0.528c0-0.259,0.219-0.527,0.528-0.527c0.279,0,0.528,0.209,0.528,0.527
		C-657.31,582.913-657.56,583.123-657.839,583.123z"/>
	<path d="M-655.291,587.407c0,0.318,0.209,0.628,0.528,0.668c0.069,0.01,0.498,0.01,0.747,0.01c0.608,0,1.186,0,1.714,0.278
		c0.508,0.278,0.647,0.788,0.647,1.137c0,0.776-1.036,1.285-2.212,1.285c-1.215,0-2.202-0.548-2.202-1.267
		c0-0.397,0.319-0.826,0.917-0.996c-0.309-0.198-0.438-0.577-0.438-0.887c0-0.349,0.179-0.678,0.309-0.826
		c-0.249-0.209-0.468-0.588-0.468-1.026c0-0.769,0.688-1.455,1.614-1.455c0.219,0,0.638,0.03,1.056,0.358
		c0.418-0.408,0.857-0.469,1.056-0.469c0.389,0,0.508,0.318,0.508,0.488c0,0.229-0.189,0.299-0.289,0.299
		c-0.159,0-0.289-0.119-0.289-0.289c0-0.119,0.05-0.229,0.16-0.269c-0.03-0.011-0.08-0.011-0.1-0.011
		c-0.179,0-0.538,0.05-0.897,0.389c0.25,0.229,0.409,0.599,0.409,0.967c0,0.768-0.688,1.455-1.614,1.455
		c-0.189,0-0.598-0.029-0.986-0.311C-655.291,587.138-655.291,587.367-655.291,587.407z M-652.172,589.519
		c0-0.855-1.116-0.855-1.973-0.855h-0.588c-0.438,0.029-0.817,0.398-0.817,0.855c0,0.528,0.688,1.037,1.694,1.037
		C-652.88,590.556-652.172,590.058-652.172,589.519z M-653.428,586.62c0.149-0.249,0.16-0.568,0.16-0.837
		c0-0.229,0-1.226-0.867-1.226c-0.398,0-0.627,0.278-0.708,0.397c-0.149,0.249-0.159,0.567-0.159,0.837c0,0.229,0,1.227,0.867,1.227
		C-653.737,587.019-653.507,586.739-653.428,586.62z"/>
	<path d="M-650.309,587.407c0,0.318,0.209,0.628,0.528,0.668c0.069,0.01,0.498,0.01,0.747,0.01c0.608,0,1.186,0,1.714,0.278
		c0.508,0.278,0.647,0.788,0.647,1.137c0,0.776-1.036,1.285-2.212,1.285c-1.215,0-2.202-0.548-2.202-1.267
		c0-0.397,0.319-0.826,0.917-0.996c-0.309-0.198-0.438-0.577-0.438-0.887c0-0.349,0.179-0.678,0.309-0.826
		c-0.249-0.209-0.468-0.588-0.468-1.026c0-0.769,0.688-1.455,1.614-1.455c0.219,0,0.638,0.03,1.056,0.358
		c0.418-0.408,0.857-0.469,1.056-0.469c0.389,0,0.508,0.318,0.508,0.488c0,0.229-0.189,0.299-0.289,0.299
		c-0.159,0-0.289-0.119-0.289-0.289c0-0.119,0.05-0.229,0.16-0.269c-0.03-0.011-0.08-0.011-0.1-0.011
		c-0.179,0-0.538,0.05-0.897,0.389c0.25,0.229,0.409,0.599,0.409,0.967c0,0.768-0.688,1.455-1.614,1.455
		c-0.189,0-0.598-0.029-0.986-0.311C-650.309,587.138-650.309,587.367-650.309,587.407z M-647.19,589.519
		c0-0.855-1.116-0.855-1.973-0.855h-0.588c-0.438,0.029-0.817,0.398-0.817,0.855c0,0.528,0.688,1.037,1.694,1.037
		C-647.897,590.556-647.19,590.058-647.19,589.519z M-648.446,586.62c0.149-0.249,0.16-0.568,0.16-0.837
		c0-0.229,0-1.226-0.867-1.226c-0.398,0-0.627,0.278-0.708,0.397c-0.149,0.249-0.159,0.567-0.159,0.837c0,0.229,0,1.227,0.867,1.227
		C-648.755,587.019-648.526,586.739-648.446,586.62z"/>
	<path d="M-645.627,586.341c-0.269-0.219-0.429-0.498-0.429-0.847c0-0.558,0.379-1.226,1.594-1.226c0.15,0,0.558,0,0.937,0.278
		c0.04-0.03,0.139-0.12,0.169-0.159c0.13-0.119,0.15-0.119,0.2-0.119c0.109,0,0.109,0.068,0.109,0.238v1.006
		c0,0.189,0,0.239-0.129,0.239c-0.02,0-0.11,0-0.12-0.09c-0.02-0.31-0.07-1.205-1.166-1.205c-0.857,0-1.116,0.408-1.116,0.757
		c0,0.578,0.667,0.708,1.226,0.817c0.418,0.08,0.807,0.159,1.136,0.479c0.12,0.118,0.418,0.418,0.418,0.945
		c0,0.718-0.458,1.385-1.604,1.385c-0.209,0-0.658-0.01-1.096-0.429c-0.179,0.188-0.179,0.21-0.199,0.229
		c-0.189,0.188-0.199,0.198-0.249,0.198c-0.11,0-0.11-0.069-0.11-0.239v-1.313c0-0.181,0-0.25,0.13-0.25
		c0.1,0,0.109,0.04,0.139,0.17c0.189,0.847,0.548,1.415,1.385,1.415c0.777,0,1.126-0.398,1.126-0.907
		c0-0.717-0.817-0.877-1.036-0.916C-645.03,586.66-645.308,586.601-645.627,586.341z"/>
</g>
<g>
	<path d="M-636.739,581.933c-0.215,0-0.459,0-0.459-0.271c0-0.258,0.258-0.258,0.459-0.258h8.448c0.215,0,0.459,0,0.459,0.271
		c0,0.258-0.258,0.258-0.459,0.258H-636.739z M-636.739,584.601c-0.215,0-0.459,0-0.459-0.272c0-0.258,0.258-0.258,0.459-0.258
		h8.448c0.215,0,0.459,0,0.459,0.272c0,0.258-0.258,0.258-0.459,0.258H-636.739z"/>
	<path d="M-618.526,590.181c-0.158,0-1.334-0.933-2.181-2.653c-0.746-1.534-0.946-3.241-0.946-4.519c0-1.765,0.33-3.299,1.062-4.748
		c0.703-1.404,1.879-2.438,2.065-2.438c0.057,0,0.129,0.029,0.129,0.115c0,0.043,0,0.072-0.144,0.201
		c-1.664,1.692-2.338,4.086-2.338,6.871c0,2.926,0.803,5.293,2.237,6.74c0.244,0.244,0.244,0.271,0.244,0.314
		C-618.396,590.151-618.469,590.181-618.526,590.181z"/>
</g>
<g>
	<path d="M-608.924,574.95l-0.229,0.215l-1.649-1.477l-1.635,1.477l-0.229-0.215l1.879-1.951L-608.924,574.95z"/>
</g>
<g>
	<path d="M-613.409,577.802c0.057-0.215,0.057-0.301,0.057-0.33c0-0.156,0-0.271-0.875-0.271c-0.215,0-0.344,0-0.344-0.145
		c0-0.271,0.129-0.271,0.402-0.271h4.604c2.051,0,3.285,1.535,3.285,3.6c0,3.198-2.826,6.196-5.723,6.196h-4.547
		c-0.287,0-0.373,0-0.373-0.158c0-0.258,0.143-0.258,0.416-0.258c1.004,0,1.033-0.144,1.162-0.646L-613.409,577.802z
		 M-614.299,585.677c-0.028,0.129-0.057,0.215-0.057,0.315c0,0.114,0.014,0.144,0.172,0.157c0.086,0.015,0.115,0.015,0.316,0.015
		h1.635c1.649,0,2.74-0.989,3.141-1.463c1.392-1.578,1.678-4.073,1.678-4.791c0-1.979-1.233-2.71-2.582-2.71h-1.578
		c-0.56,0-0.617,0.029-0.746,0.559L-614.299,585.677z"/>
</g>
<g>
	<path d="M-601.869,585.017c0.309,0.438,0.309,0.916,0.309,1.086c0,1.535-1.325,2.74-2.501,2.74c-0.907,0-1.495-0.697-1.495-1.574
		c0-1.187,1.106-2.83,2.611-2.83h2.271c0.18,0,0.389,0,0.389,0.238c0,0.34-0.358,0.34-0.488,0.34H-601.869z M-602.737,587.776
		c0.339-0.51,0.538-1.326,0.538-1.795c0-0.309-0.08-0.967-0.917-0.967c-0.339,0-0.937,0.141-1.355,0.828
		c-0.349,0.588-0.468,1.404-0.468,1.703c0,0.717,0.398,1.076,0.887,1.076C-603.663,588.623-603.125,588.363-602.737,587.776z"/>
</g>
<g>
	<path d="M-594.065,580.226c1.592,0.101,2.682,1.134,2.682,2.582c0,1.808-1.865,3.814-4.317,3.943
		c-0.186,0.719-0.358,1.42-0.531,2.139c-0.057,0.187-0.143,0.529-0.172,0.559c-0.029,0.058-0.086,0.058-0.129,0.058
		c-0.144,0-0.144-0.086-0.144-0.114c0-0.058,0.115-0.53,0.315-1.291c0.115-0.443,0.215-0.902,0.33-1.349
		c-1.492-0.086-2.682-1.032-2.682-2.581c0-1.793,1.807-3.729,4.159-3.931c0.029,0,0.129-0.015,0.144-0.043
		c0.014-0.015,0.029-0.028,0.072-0.216l0.774-3.084c0.058-0.243,0.072-0.271,0.201-0.271c0.043,0,0.143,0,0.143,0.129
		L-594.065,580.226z M-594.467,580.527c-2.065,0.129-3.371,2.137-3.371,3.944c0,1.577,1.176,1.949,1.879,1.993L-594.467,580.527z
		 M-595.629,586.451c2.238-0.172,3.371-2.324,3.371-3.944c0-1.406-0.946-1.937-1.893-1.994L-595.629,586.451z"/>
</g>
<g>
	<path d="M-588.09,587.742c-0.703,1.405-1.879,2.438-2.065,2.438c-0.057,0-0.129-0.029-0.129-0.115c0-0.043,0-0.071,0.143-0.201
		c1.664-1.692,2.338-4.088,2.338-6.87c0-2.926-0.803-5.293-2.237-6.741c-0.244-0.244-0.244-0.271-0.244-0.314
		c0-0.086,0.072-0.115,0.129-0.115c0.158,0,1.334,0.932,2.18,2.654c0.803,1.662,0.947,3.441,0.947,4.531
		C-587.028,584.729-587.357,586.279-588.09,587.742z"/>
</g>
<g>
	<path d="M-583.208,577.169c0.14,0.707,0.14,0.777,0.14,1.315c0,0.956-0.05,1.981-0.09,2.61c-0.02,0.508-0.05,1.035-0.11,1.533
		c-0.02,0.131-0.02,0.18-0.139,0.18c-0.11,0-0.12-0.06-0.129-0.198c-0.09-0.946-0.2-2.621-0.2-4.125c0-0.528,0-0.608,0.14-1.326
		c0.05-0.249,0.08-0.448,0.1-0.697c-0.199,0.021-0.448,0.091-0.478,0.101c-0.209,0.06-0.499,0.14-0.708,0.14
		c-0.309,0-0.369-0.209-0.369-0.339c0-0.051,0.02-0.329,0.369-0.329c0.209,0,0.498,0.08,0.688,0.139
		c0.189,0.05,0.389,0.091,0.498,0.101c-0.01-0.289-0.04-0.608-0.109-1.066c-0.04-0.238-0.13-0.816-0.13-1.166
		c0-0.089,0-0.408,0.339-0.408c0.329,0,0.329,0.329,0.329,0.408c0,0.369-0.06,0.737-0.11,1.105c-0.109,0.648-0.12,0.928-0.129,1.127
		c0.199-0.021,0.448-0.09,0.478-0.101c0.209-0.06,0.499-0.139,0.708-0.139c0.309,0,0.369,0.209,0.369,0.338
		c0,0.05-0.02,0.329-0.369,0.329c-0.209,0-0.498-0.08-0.688-0.141c-0.189-0.049-0.389-0.09-0.498-0.1
		C-583.288,576.729-583.259,576.938-583.208,577.169z"/>
</g>
<g>
	<path d="M-576.152,590.181c-0.158,0-1.333-0.933-2.18-2.653c-0.746-1.534-0.947-3.241-0.947-4.519c0-1.765,0.33-3.299,1.061-4.748
		c0.703-1.404,1.879-2.438,2.065-2.438c0.058,0,0.129,0.029,0.129,0.115c0,0.043,0,0.072-0.145,0.201
		c-1.664,1.692-2.338,4.086-2.338,6.871c0,2.926,0.803,5.293,2.238,6.74c0.244,0.244,0.244,0.271,0.244,0.314
		C-576.021,590.151-576.094,590.181-576.152,590.181z"/>
</g>
<g>
	<path d="M-566.547,574.95l-0.229,0.215l-1.649-1.477l-1.635,1.477l-0.229-0.215l1.879-1.951L-566.547,574.95z"/>
</g>
<g>
	<path d="M-571.033,577.802c0.057-0.215,0.057-0.301,0.057-0.33c0-0.156,0-0.271-0.875-0.271c-0.215,0-0.344,0-0.344-0.145
		c0-0.271,0.129-0.271,0.402-0.271h4.604c2.051,0,3.285,1.535,3.285,3.6c0,3.198-2.826,6.196-5.723,6.196h-4.547
		c-0.287,0-0.373,0-0.373-0.158c0-0.258,0.143-0.258,0.416-0.258c1.004,0,1.033-0.144,1.162-0.646L-571.033,577.802z
		 M-571.922,585.677c-0.028,0.129-0.057,0.215-0.057,0.315c0,0.114,0.014,0.144,0.172,0.157c0.086,0.015,0.115,0.015,0.316,0.015
		h1.635c1.649,0,2.74-0.989,3.141-1.463c1.392-1.578,1.678-4.073,1.678-4.791c0-1.979-1.233-2.71-2.582-2.71h-1.578
		c-0.56,0-0.617,0.029-0.746,0.559L-571.922,585.677z"/>
</g>
<g>
	<path d="M-559.102,576.938c0.309,0.438,0.309,0.918,0.309,1.086c0,1.535-1.325,2.74-2.501,2.74c-0.907,0-1.495-0.696-1.495-1.574
		c0-1.186,1.106-2.829,2.611-2.829h2.272c0.179,0,0.388,0,0.388,0.239c0,0.338-0.358,0.338-0.488,0.338H-559.102L-559.102,576.938z
		 M-559.97,579.7c0.339-0.51,0.538-1.326,0.538-1.794c0-0.31-0.08-0.968-0.917-0.968c-0.339,0-0.937,0.141-1.355,0.828
		c-0.349,0.588-0.468,1.404-0.468,1.703c0,0.717,0.398,1.076,0.887,1.076C-560.896,580.547-560.357,580.287-559.97,579.7z"/>
</g>
<g>
	<path d="M-551.299,580.226c1.592,0.101,2.682,1.134,2.682,2.582c0,1.808-1.864,3.814-4.317,3.943
		c-0.187,0.719-0.358,1.42-0.53,2.139c-0.058,0.187-0.144,0.529-0.172,0.559c-0.029,0.058-0.086,0.058-0.129,0.058
		c-0.144,0-0.144-0.086-0.144-0.114c0-0.058,0.115-0.53,0.315-1.291c0.115-0.443,0.215-0.902,0.33-1.349
		c-1.492-0.086-2.682-1.032-2.682-2.581c0-1.793,1.807-3.729,4.159-3.931c0.029,0,0.129-0.015,0.144-0.043
		c0.015-0.015,0.029-0.028,0.072-0.216l0.774-3.084c0.058-0.243,0.072-0.271,0.201-0.271c0.043,0,0.144,0,0.144,0.129
		L-551.299,580.226z M-551.7,580.527c-2.065,0.129-3.371,2.137-3.371,3.944c0,1.577,1.176,1.949,1.879,1.993L-551.7,580.527z
		 M-552.862,586.451c2.238-0.172,3.371-2.324,3.371-3.944c0-1.406-0.946-1.937-1.893-1.994L-552.862,586.451z"/>
</g>
<g>
	<path d="M-545.323,587.742c-0.703,1.405-1.879,2.438-2.065,2.438c-0.058,0-0.129-0.029-0.129-0.115c0-0.043,0-0.071,0.143-0.201
		c1.664-1.692,2.338-4.088,2.338-6.87c0-2.926-0.804-5.293-2.238-6.741c-0.244-0.244-0.244-0.271-0.244-0.314
		c0-0.086,0.071-0.115,0.129-0.115c0.158,0,1.334,0.932,2.18,2.654c0.803,1.662,0.947,3.441,0.947,4.531
		C-544.261,584.729-544.591,586.279-545.323,587.742z"/>
	<path d="M-533.935,587.226c0,0.215,0,0.459-0.273,0.459c-0.258,0-0.258-0.258-0.258-0.459v-3.959h-3.959
		c-0.215,0-0.459,0-0.459-0.272c0-0.258,0.258-0.258,0.459-0.258h3.959v-3.959c0-0.216,0-0.459,0.272-0.459
		c0.258,0,0.258,0.258,0.258,0.459v3.959h3.958c0.215,0,0.459,0,0.459,0.272c0,0.258-0.258,0.258-0.459,0.258h-3.958
		L-533.935,587.226L-533.935,587.226z"/>
</g>
<g>
	<path d="M-524.151,588.933c-0.1,0.401-0.187,0.731-0.602,0.731c-0.215,0-0.387-0.144-0.387-0.358c0-0.086,0.028-0.172,0.043-0.244
		l2.08-8.305c0.115-0.459,0.43-0.502,0.56-0.502c0.186,0,0.373,0.129,0.373,0.358c0,0.086-0.115,0.545-0.187,0.817l-0.645,2.582
		c-0.058,0.243-0.187,0.746-0.187,1.161c0,0.675,0.258,1.263,1.061,1.263c0.904,0,1.463-0.774,1.635-1.02
		c0.187-0.229,0.187-0.258,0.258-0.545l1.004-3.986c0.115-0.432,0.416-0.488,0.545-0.488c0.215,0,0.388,0.145,0.388,0.358
		c0,0.058-0.158,0.675-0.244,1.019c-0.072,0.259-0.229,0.904-0.287,1.177c-0.129,0.517-0.272,1.033-0.402,1.549
		c-0.1,0.431-0.229,0.947-0.229,1.276c0,0.287,0.029,0.66,0.445,0.66c0.588,0,0.86-0.903,1.076-1.75
		c0.058-0.215,0.072-0.287,0.201-0.287c0.086,0,0.144,0.058,0.144,0.13c0,0.057-0.201,0.932-0.43,1.42
		c-0.258,0.517-0.603,0.774-1.033,0.774c-0.502,0-1.104-0.303-1.248-1.062c-0.33,0.443-0.961,1.062-1.879,1.062
		c-0.488,0-1.019-0.129-1.377-0.459C-524.079,588.617-523.992,588.33-524.151,588.933z"/>
	<path d="M-511.769,580.226c1.592,0.101,2.682,1.134,2.682,2.582c0,1.808-1.865,3.814-4.317,3.943
		c-0.186,0.719-0.358,1.42-0.531,2.139c-0.057,0.187-0.143,0.529-0.172,0.559c-0.029,0.058-0.086,0.058-0.129,0.058
		c-0.144,0-0.144-0.086-0.144-0.114c0-0.058,0.115-0.53,0.315-1.291c0.115-0.443,0.215-0.902,0.33-1.349
		c-1.492-0.086-2.682-1.032-2.682-2.581c0-1.793,1.807-3.729,4.159-3.931c0.029,0,0.129-0.015,0.144-0.043
		c0.014-0.015,0.029-0.028,0.072-0.216l0.774-3.084c0.058-0.243,0.072-0.271,0.201-0.271c0.043,0,0.143,0,0.143,0.129
		L-511.769,580.226z M-512.17,580.527c-2.065,0.129-3.371,2.137-3.371,3.944c0,1.577,1.176,1.949,1.879,1.993L-512.17,580.527z
		 M-513.332,586.451c2.238-0.172,3.371-2.324,3.371-3.944c0-1.406-0.946-1.937-1.893-1.994L-513.332,586.451z"/>
</g>
<g>
	<path d="M-506.375,577.169c0.14,0.707,0.14,0.777,0.14,1.315c0,0.956-0.05,1.981-0.09,2.61c-0.02,0.508-0.05,1.035-0.11,1.533
		c-0.02,0.131-0.02,0.18-0.139,0.18c-0.11,0-0.12-0.06-0.129-0.198c-0.09-0.946-0.2-2.621-0.2-4.125c0-0.528,0-0.608,0.14-1.326
		c0.05-0.249,0.08-0.448,0.1-0.697c-0.199,0.021-0.448,0.091-0.478,0.101c-0.209,0.06-0.499,0.14-0.708,0.14
		c-0.309,0-0.369-0.209-0.369-0.339c0-0.051,0.02-0.329,0.369-0.329c0.209,0,0.498,0.08,0.688,0.139
		c0.189,0.05,0.389,0.091,0.498,0.101c-0.01-0.289-0.04-0.608-0.109-1.066c-0.04-0.238-0.13-0.816-0.13-1.166
		c0-0.089,0-0.408,0.339-0.408c0.329,0,0.329,0.329,0.329,0.408c0,0.369-0.061,0.737-0.11,1.105
		c-0.109,0.648-0.12,0.928-0.129,1.127c0.199-0.021,0.448-0.09,0.478-0.101c0.209-0.06,0.499-0.139,0.708-0.139
		c0.309,0,0.369,0.209,0.369,0.338c0,0.05-0.02,0.329-0.369,0.329c-0.209,0-0.498-0.08-0.688-0.141
		c-0.189-0.049-0.389-0.09-0.498-0.1C-506.454,576.729-506.425,576.938-506.375,577.169z"/>
</g>
<g>
	<path d="M-498.529,580.226c1.592,0.101,2.682,1.134,2.682,2.582c0,1.808-1.865,3.814-4.317,3.943
		c-0.186,0.719-0.358,1.42-0.531,2.139c-0.057,0.187-0.143,0.529-0.172,0.559c-0.029,0.058-0.086,0.058-0.129,0.058
		c-0.144,0-0.144-0.086-0.144-0.114c0-0.058,0.115-0.53,0.315-1.291c0.115-0.443,0.215-0.902,0.33-1.349
		c-1.492-0.086-2.682-1.032-2.682-2.581c0-1.793,1.807-3.729,4.159-3.931c0.029,0,0.129-0.015,0.144-0.043
		c0.014-0.015,0.029-0.028,0.072-0.216l0.774-3.084c0.058-0.243,0.072-0.271,0.201-0.271c0.043,0,0.143,0,0.143,0.129
		L-498.529,580.226z M-498.93,580.527c-2.065,0.129-3.371,2.137-3.371,3.944c0,1.577,1.176,1.949,1.879,1.993L-498.93,580.527z
		 M-500.092,586.451c2.238-0.172,3.371-2.324,3.371-3.944c0-1.406-0.946-1.937-1.893-1.994L-500.092,586.451z"/>
</g>
<g>
	<path d="M-490.685,583.281c-0.201,0-0.474,0-0.474-0.287s0.272-0.287,0.474-0.287h7.817c0.201,0,0.473,0,0.473,0.287
		s-0.272,0.287-0.473,0.287H-490.685z"/>
</g>
<g>
	<path d="M-470.688,585.892c0.058,0.172,0.158,0.431,0.287,0.588c0.057,0.058,0.072,0.072,0.072,0.129
		c0,0.115-0.101,0.115-0.158,0.115h-0.272c-0.401,0-0.43,0-0.574-0.129c-0.201-0.188-0.272-0.389-0.344-0.604
		c-0.444-1.205-0.903-2.523-1.276-3.645c-1.305,1.549-3.356,4.061-3.586,4.274c-0.086,0.086-0.244,0.115-0.301,0.115
		c-0.229,0-0.401-0.173-0.401-0.373c0-0.187,0.115-0.302,0.287-0.474l3.729-3.772c0.115-0.114,0.129-0.129,0.129-0.144
		c0-0.028-1.477-4.317-1.621-4.59c-0.229-0.416-0.402-0.445-0.617-0.474c-0.072-0.015-0.158-0.029-0.158-0.144
		c0-0.144,0.158-0.144,0.244-0.144c0.187,0,1.319,0,1.678,1.019L-470.688,585.892z"/>
</g>
<g>
	<path d="M-465.276,590.181c-0.158,0-1.333-0.933-2.18-2.653c-0.746-1.534-0.947-3.241-0.947-4.519c0-1.765,0.33-3.299,1.061-4.748
		c0.703-1.404,1.879-2.438,2.065-2.438c0.058,0,0.129,0.029,0.129,0.115c0,0.043,0,0.072-0.144,0.201
		c-1.664,1.692-2.338,4.086-2.338,6.871c0,2.926,0.803,5.293,2.238,6.74c0.244,0.244,0.244,0.271,0.244,0.314
		C-465.146,590.151-465.218,590.181-465.276,590.181z"/>
</g>
<g>
	<path d="M-459.024,580.226c1.592,0.101,2.682,1.134,2.682,2.582c0,1.808-1.865,3.814-4.317,3.943
		c-0.186,0.719-0.358,1.42-0.531,2.139c-0.057,0.187-0.143,0.529-0.172,0.559c-0.029,0.058-0.086,0.058-0.129,0.058
		c-0.144,0-0.144-0.086-0.144-0.114c0-0.058,0.115-0.53,0.315-1.291c0.115-0.443,0.215-0.902,0.33-1.349
		c-1.492-0.086-2.682-1.032-2.682-2.581c0-1.793,1.807-3.729,4.159-3.931c0.029,0,0.129-0.015,0.144-0.043
		c0.014-0.015,0.029-0.028,0.072-0.216l0.774-3.084c0.058-0.243,0.072-0.271,0.201-0.271c0.043,0,0.143,0,0.143,0.129
		L-459.024,580.226z M-459.426,580.527c-2.065,0.129-3.371,2.137-3.371,3.944c0,1.577,1.176,1.949,1.879,1.993L-459.426,580.527z
		 M-460.588,586.451c2.238-0.172,3.371-2.324,3.371-3.944c0-1.406-0.946-1.937-1.893-1.994L-460.588,586.451z"/>
</g>
<g>
	<path d="M-453.631,577.169c0.14,0.707,0.14,0.777,0.14,1.315c0,0.956-0.05,1.981-0.09,2.61c-0.02,0.508-0.05,1.035-0.11,1.533
		c-0.021,0.131-0.021,0.18-0.139,0.18c-0.11,0-0.12-0.06-0.129-0.198c-0.09-0.946-0.2-2.621-0.2-4.125c0-0.528,0-0.608,0.14-1.326
		c0.05-0.249,0.08-0.448,0.1-0.697c-0.199,0.021-0.448,0.091-0.478,0.101c-0.209,0.06-0.499,0.14-0.708,0.14
		c-0.309,0-0.369-0.209-0.369-0.339c0-0.051,0.02-0.329,0.369-0.329c0.209,0,0.498,0.08,0.688,0.139
		c0.189,0.05,0.389,0.091,0.498,0.101c-0.01-0.289-0.04-0.608-0.109-1.066c-0.04-0.238-0.13-0.816-0.13-1.166
		c0-0.089,0-0.408,0.339-0.408c0.329,0,0.329,0.329,0.329,0.408c0,0.369-0.06,0.737-0.11,1.105c-0.109,0.648-0.12,0.928-0.129,1.127
		c0.199-0.021,0.448-0.09,0.478-0.101c0.209-0.06,0.499-0.139,0.708-0.139c0.309,0,0.369,0.209,0.369,0.338
		c0,0.05-0.02,0.329-0.369,0.329c-0.209,0-0.498-0.08-0.688-0.141c-0.189-0.049-0.389-0.09-0.498-0.1
		C-453.71,576.729-453.68,576.938-453.631,577.169z"/>
</g>
<g>
	<path d="M-445.784,580.226c1.592,0.101,2.682,1.134,2.682,2.582c0,1.808-1.865,3.814-4.317,3.943
		c-0.186,0.719-0.358,1.42-0.531,2.139c-0.057,0.187-0.143,0.529-0.172,0.559c-0.029,0.058-0.086,0.058-0.129,0.058
		c-0.144,0-0.144-0.086-0.144-0.114c0-0.058,0.115-0.53,0.315-1.291c0.115-0.443,0.215-0.902,0.33-1.349
		c-1.492-0.086-2.682-1.032-2.682-2.581c0-1.793,1.807-3.729,4.159-3.931c0.029,0,0.129-0.015,0.144-0.043
		c0.014-0.015,0.029-0.028,0.072-0.216l0.774-3.084c0.058-0.243,0.072-0.271,0.201-0.271c0.043,0,0.143,0,0.143,0.129
		L-445.784,580.226z M-446.186,580.527c-2.065,0.129-3.371,2.137-3.371,3.944c0,1.577,1.176,1.949,1.879,1.993L-446.186,580.527z
		 M-447.348,586.451c2.238-0.172,3.371-2.324,3.371-3.944c0-1.406-0.946-1.937-1.893-1.994L-447.348,586.451z"/>
</g>
<g>
	<path d="M-439.808,587.742c-0.703,1.405-1.879,2.438-2.065,2.438c-0.057,0-0.129-0.029-0.129-0.115c0-0.043,0-0.071,0.143-0.201
		c1.664-1.692,2.338-4.088,2.338-6.87c0-2.926-0.803-5.293-2.237-6.741c-0.244-0.244-0.244-0.271-0.244-0.314
		c0-0.086,0.072-0.115,0.129-0.115c0.158,0,1.334,0.932,2.18,2.654c0.803,1.662,0.947,3.441,0.947,4.531
		C-438.747,584.729-439.077,586.279-439.808,587.742z"/>
</g>
<g>
	<path d="M-433.134,580.656h-3.697c0-0.239,0-0.259,0.11-0.369l1.913-2.132c0.548-0.618,1.046-1.405,1.046-2.202
		c0-0.817-0.428-1.624-1.335-1.624c-0.578,0-1.116,0.369-1.345,1.016c0.03-0.01,0.05-0.01,0.129-0.01
		c0.349,0,0.528,0.26,0.528,0.518c0,0.41-0.349,0.528-0.518,0.528c-0.03,0-0.528,0-0.528-0.558c0-0.887,0.737-1.805,1.863-1.805
		c1.216,0,2.112,0.797,2.112,1.934c0,0.997-0.598,1.534-2.152,2.909l-1.056,1.026h1.793c0.219,0,0.876,0,0.946-0.08
		c0.1-0.148,0.169-0.588,0.219-0.887h0.249L-433.134,580.656z"/>
</g>
</svg>
