<?xml version="1.0" encoding="utf-8"?>
<!-- Generator: Adobe Illustrator 16.0.0, SVG Export Plug-In . SVG Version: 6.00 Build 0)  -->
<!DOCTYPE svg PUBLIC "-//W3C//DTD SVG 1.1//EN" "http://www.w3.org/Graphics/SVG/1.1/DTD/svg11.dtd">
<svg version="1.1" id="Layer_1" xmlns="http://www.w3.org/2000/svg" xmlns:xlink="http://www.w3.org/1999/xlink" x="0px" y="0px"
	 width="415.75px" height="427.664px" viewBox="-751.625 754.333 415.75 427.664"
	 enable-background="new -751.625 754.333 415.75 427.664" xml:space="preserve">
<g>
	<path fill="#0D0D0D" d="M-751.609,904.397c0-49.026,0-98.053,0.001-147.078c0-3.062-0.277-2.983,3.086-2.983
		c97.952,0.004,195.902,0.004,293.854,0.004c0.517,0,1.033-0.021,1.548,0.007c1.118,0.061,1.364,0.291,1.468,1.408
		c0.046,0.496,0.022,0.999,0.022,1.499c0.001,98.108,0,196.215,0.004,294.323c0,3.06-0.098,2.746-2.807,2.746
		c-98.179,0.002-196.361,0-294.541,0.006c-3.06,0-2.629-0.087-2.629-2.519C-751.61,1002.671-751.609,953.535-751.609,904.397z"/>
	<path fill="#FFFFFF" d="M-503.263,755.827c0.513,1.046,0.212,2.18,0.375,3.264c0.451,0.454,0.893,0.506,1.321-0.029
		c0.006-0.665,0.032-1.331,0.012-1.996c-0.025-0.809,0.275-1.271,1.189-1.208c0.398,0.027,0.799,0,1.202,0
		c15.116,0,30.231,0,45.348,0c0.604,0.445,0.421,1.093,0.426,1.671c0.017,2.135,0.02,4.269,0,6.401
		c-0.009,0.744-0.622,1.252-0.808,1.928c-0.989,1.579-2.681,2.572-3.69,4.137c-1.538,1.534-2.994,3.14-4.323,4.85
		c-0.625,1.411-2.13,2.128-2.879,3.44c-0.343,0.416-0.786,0.717-1.23,1.017c-1.275,1.883-2.969,3.442-4.276,5.296
		c-1.278,1.466-2.598,2.896-3.808,4.417c-1.508,1.714-3.158,3.311-4.521,5.145c-0.201,0.329-0.487,0.598-0.685,0.927
		c-0.477,0.453-0.854,0.99-1.279,1.488c-0.564,0.41-1.096,0.851-1.436,1.469c-0.438,0.502-1.238,0.657-1.419,1.405
		c-1.426,0.878-2.172,2.315-3.131,3.578c-1.18,1.877-2.772,3.438-4.192,5.129c-1.502,1.638-3.436,2.914-4.435,4.973
		c-1.262,1.158-1.996,2.738-3.289,3.872c-0.728,0.462-1.4,0.882-1.885,1.704c-0.645,1.094-1.383,2.236-2.671,2.826
		c-0.524,0.239-0.598,0.733-0.657,1.223c-0.443,0.964-1.269,1.65-1.903,2.476c-0.263,0.349-0.565,0.668-0.845,1.007
		c-0.307,0.234-0.568,0.521-0.88,0.75c-1.1,0.169-1.101,1.284-1.708,1.884c-1.181,1.165-2.362,2.331-3.476,3.559
		c-1.209,0.853-2.34,1.767-2.671,3.292c-1.819,1.746-3.227,3.836-5.013,5.61c-1.365,0.877-2.021,2.32-2.975,3.527
		c-0.986,0.695-1.568,1.726-2.325,2.615c-2.017,2.372-4.407,4.425-6.32,6.889c-1.369,1.393-2.449,3.013-3.782,4.441
		c-0.879,0.94-1.904,1.719-2.808,2.622c-1.958,1.959-3.189,4.414-5.071,6.408c-0.861,0.912-1.888,1.629-2.754,2.558
		c-2.038,2.184-3.486,4.802-5.676,6.862c-1.663,1.566-3.349,3.129-4.748,4.931c-1.259,1.621-2.372,3.354-3.899,4.763
		c-3.181,2.937-5.774,6.353-8.49,9.67c-0.282,0.345-0.635,0.638-1.037,0.859c-0.427,0.538-1.184,0.684-1.591,1.247
		c-0.349,0.317-0.415,0.78-0.623,1.17c-3.937,4.592-7.983,9.094-12.145,13.498c-0.546,0.602-1.388,0.956-1.615,1.826
		c-2.272,2.83-4.983,5.285-7.25,8.138c-1.48,1.861-3.246,3.555-4.994,5.229c-1.783,1.71-3.332,3.639-5.014,5.444
		c-1.645,1.767-3.35,3.488-4.919,5.315c-2.849,3.317-6.163,6.222-9.038,9.493c-4.668,5.308-9.741,10.239-14.546,15.412
		c-5.045,5.432-10.524,10.451-15.551,15.892c-1.054,0.552-2.051,1.152-2.284,2.432c-0.668,0.871-1.461,1.623-2.315,2.318
		c-2.512,1.584-4.913,3.278-6.272,5.997c-0.662,0.879-1.468,1.622-2.317,2.324c-2.524,1.54-4.839,3.287-6.25,5.929
		c-0.719,1.078-1.652,1.982-2.684,2.755c-3.474,2.598-6.385,5.782-9.66,8.585c-1.251,0.793-2.629,1.451-3.314,2.863
		c-4.325,4.127-9.324,7.519-13.612,11.686c-0.73,0.709-1.833,0.95-2.385,1.862c-0.914,0.919-2.585,0.771-3.182,2.131
		c-0.064,0.15-0.161,0.275-0.269,0.395c-0.539,0.447-1.018,0.964-1.613,1.351c-3.384,2.33-6.702,4.749-10.097,7.064
		c-0.808,0.239-1.351,0.867-2.025,1.308c-4.62,3.188-9.572,5.826-14.594,8.351c-0.4,0.206-0.838,0.331-1.244,0.53
		c-0.127,0.094-0.268,0.153-0.411,0.21c-0.431,0.168-0.853,0.354-1.286,0.52c-2.48,1.354-5.259,1.949-7.875,2.955
		c-0.6,0.188-1.219,0.262-1.847,0.263c-1.515,0.132-3.02,0.374-4.554,0.338c-2.051-0.049-2.068-0.033-2.072-2.095
		c-0.007-3.771-0.002-7.54-0.002-11.312c0-10.59,0-21.18,0-31.77c0-2.153,0.004-2.154,2.236-2.486
		c0.792-0.118,1.407-0.325,0.798-1.265c-0.572-0.015-1.147-0.073-1.715-0.033c-0.9,0.062-1.238-0.438-1.332-1.175
		c-0.063-0.493-0.061-0.996-0.061-1.494c-0.003-14.532-0.002-29.064-0.002-43.597c0-0.222-0.004-0.444,0.006-0.665
		c0.063-1.46,0.188-1.582,1.701-1.679c0.342-0.021,0.701,0.02,1.023-0.069c0.508-0.141,0.757-0.466,0.465-0.994
		c-0.104-0.047-0.206-0.122-0.313-0.131c-2.978-0.23-2.978-0.23-2.978-3.098c0-14.467,0-28.936,0-43.402
		c0-2.378,0-2.378,2.479-2.505c0.433-0.049,0.935-0.104,0.903-0.676c-0.018-0.332-0.377-0.308-0.649-0.315
		c-0.823-0.154-1.765,0.38-2.476-0.409c-0.141-0.663-0.083-1.331-0.083-1.996c-0.003-14.324-0.003-28.648-0.002-42.973
		c0-2.678,0.002-2.678,2.801-2.812c0.504-0.15,0.821-0.449,0.603-0.976c-0.159-0.386-0.526-0.498-0.973-0.533
		c-2.429-0.19-2.431-0.205-2.431-2.594c-0.003-14.409-0.006-28.816,0.007-43.225c0-0.754-0.224-1.562,0.347-2.242l-0.002-0.015
		c0.754-0.355,1.56-0.093,2.337-0.179c0.462-0.052,0.757-0.248,0.709-0.737c-0.038-0.395-0.322-0.541-0.699-0.587
		c-0.772-0.096-1.579,0.19-2.325-0.19c-0.522-0.548-0.449-1.234-0.449-1.895c-0.003-14.656-0.002-29.312-0.001-43.968
		c0-0.333-0.011-0.67,0.037-0.998c0.152-1.056,0.451-1.313,1.536-1.357c0.343-0.014,0.688-0.003,1.032-0.003
		c14.384,0,28.768,0,43.152,0c0.172,0,0.344-0.001,0.516,0c1.929,0.015,1.939,0.023,1.997,1.821
		c0.007,0.222-0.003,0.445,0.012,0.665c0.025,0.39,0.021,0.829,0.606,0.801c0.526-0.025,0.583-0.43,0.652-0.827
		c0.422-2.46,0.425-2.46,2.985-2.46c14.499,0,28.997-0.006,43.496,0.022c0.587,0.001,1.424-0.44,1.759,0.514
		c0.521,0.681,0.197,1.476,0.326,2.208c0.154,0.882,0.559,1.173,1.303,0.425c-0.174-3.847,0.271-3.157,3.211-3.161
		c14.135-0.016,28.27-0.008,42.405-0.008c0.4,0,0.802-0.016,1.201,0.005c1.109,0.055,1.482,0.415,1.585,1.519
		c0.045,0.495,0.05,0.994,0.119,1.485c0.018,0.138,0.178,0.255,0.388,0.251s0.347-0.115,0.371-0.264
		c0.062-0.38,0.124-0.773,0.087-1.153c-0.069-0.708,0.199-1.296,0.571-1.864c0.448-0.375,0.987-0.205,1.483-0.205
		c14.931-0.01,29.864-0.009,44.796-0.006c1.865,0,2.152,0.255,2.536,2.141c-0.002,0.14,0,0.292,0.003,0.446
		c0-0.154,0.001-0.307,0.004-0.474c0.191-1.378,0.77-2.148,2.423-2.144c14.912,0.048,29.825,0.027,44.736,0.034
		C-504.135,755.627-503.657,755.489-503.263,755.827z"/>
	<path fill="#FFFFFF" d="M-652.178,1052.59c-0.569,0.035-1.138,0.099-1.707,0.099c-14.672,0.006-29.344,0.01-44.016-0.007
		c-0.703-0.001-1.492,0.269-2.096-0.357c-0.242-0.785-0.247-1.599-0.348-2.402c-0.09-0.717-0.379-1.38-1.263-0.539
		c0.075,1.157-0.744,1.922-1.314,2.795c-0.202,0.31-0.536,0.416-0.877,0.457c-0.396,0.049-0.798,0.056-1.198,0.056
		c-10.474,0.003-20.947,0.003-31.419-0.003c-0.572,0-1.143-0.043-1.715-0.069c-0.373-1.095,0.571-1.325,1.235-1.648
		c2.246-1.097,4.589-1.988,6.881-2.987c0.628-0.274,1.227-0.596,1.815-0.935c0.256-0.18,0.515-0.361,0.797-0.504
		c0.126-0.081,0.257-0.157,0.386-0.236c0.314-0.225,0.68-0.334,1.048-0.444c2.857-0.942,5.194-2.784,7.668-4.337
		c3.874-2.432,7.841-4.75,11.417-7.614c0.88-0.706,1.665-1.519,2.596-2.162c0.3-0.241,0.656-0.391,0.996-0.569
		c0.417-0.23,0.765-0.559,1.183-0.785c0.987-0.287,1.639-0.993,2.278-1.719c6.026-5.039,12.162-9.948,18.062-15.14
		c4.001-3.519,7.748-7.297,11.835-10.726c1.278-0.585,2.468-1.255,2.826-2.735c1.836-1.813,3.924-3.354,5.828-5.108
		c5.485-5.051,10.27-10.744,15.69-15.839c3.702-3.479,7.31-7.043,10.735-10.765c3.202-3.478,6.583-6.782,9.857-10.187
		c0.31-0.327,0.678-0.6,0.966-0.954c0.105-0.127,0.232-0.225,0.372-0.314c0.498-0.275,1.064-0.431,1.498-0.824
		c0.163-0.076,0.333-0.106,0.514-0.101c1.011,0.267,0.877,0.934,0.613,1.644c-0.04,0.16-0.104,0.313-0.187,0.457
		c-0.275,0.337-0.639,0.618-0.794,1.037c-0.204,0.55-0.591,1.221,0.204,1.551c0.795,0.328,1.433,0.06,1.542-0.899
		c0.019-0.159,0.082-0.312,0.141-0.466c0.415-0.729,1.109-1.284,1.395-2.091c0.07-0.257,0.006-0.515-0.031-0.769
		c-0.104-1.042-1.856-0.94-1.639-2.197c0.317-1.894,1.864-2.943,3.084-4.222c0.295-0.213,0.628-0.329,0.992-0.357
		c0.172-0.028,0.343-0.01,0.509,0.042c0.773,0.462,0.785,2.2,2.361,1.314c1.304-1.011,2.194-2.293,2.723-3.817
		c-0.19-1.024-1.268-1.905-0.544-3.084c0.056-0.153,0.141-0.29,0.248-0.414c0.87-0.638,1.559-1.469,2.394-2.14
		c0.462-0.371,0.846-0.953,1.599-0.805c1.207,0.977,1.871,1.003,2.729-0.177c0.645-0.885,1.898-1.488,1.649-2.867
		c-1.832-2.194-0.041-3.488,1.229-5.005c1-1.195,2.035-1.727,3.536-1.021c0.252,0.016,0.496,0.127,0.76,0.069
		c0.122-0.055,0.241-0.098,0.361-0.153c1.009-0.765,2.018-1.518,2.518-2.713c0.052-0.284,0.042-0.566-0.034-0.849
		c-0.165-0.38-0.265-0.771-0.314-1.178c-0.164-1.983,2.187-4.319,4.417-4.402c2.851-0.332,4.345-2.124,4.104-4.938
		c0.235-2.306,1.805-4.176,3.885-4.644c0.42,0.067,0.843,0.123,1.26,0.211c1.096,0.369,1.351-0.559,1.834-1.122
		c0.079-0.137,0.17-0.264,0.263-0.391c0.369-0.542,1.275-0.579,1.349-1.379c-0.036-0.192-0.034-0.385-0.029-0.577
		c-0.008-0.133-0.006-0.266-0.01-0.398c-0.064-0.36,0.071-0.694,0.127-1.039c0.014-2.282,1.516-3.972,3.877-4.39
		c0.994-0.177,1.835-0.596,2.365-1.476c0.712-0.706,1.395-1.436,1.876-2.312c0.073-0.197,0.13-0.401,0.233-0.587
		c0.05-0.13,0.104-0.257,0.151-0.388c0.097-0.351,0.105-0.704,0.044-1.062c0.351-1.907,1.779-2.903,3.413-3.676
		c0.439-0.207,0.961-0.284,1.398-0.532c0.109-0.088,0.226-0.168,0.332-0.258c0.139-0.153,0.292-0.293,0.457-0.422
		c0.1-0.102,0.207-0.193,0.307-0.294c0.317-0.277,0.582-0.599,0.824-0.939c0.436-0.392,0.847-0.801,1.096-1.336
		c0.134-0.327,0.407-0.578,0.504-0.925c0.088-1.635,1.807-2.413,2.165-3.905c0.224-0.396,0.547-0.725,1.02-0.748
		c1.403-0.069,2.148-0.986,2.838-1.991c0.925-0.642,1.745-1.349,1.729-2.585c0.564-2.161,1.829-3.832,3.747-5.047
		c2.054-0.51,3.283-1.963,4.361-3.587c0.766-2.56,1.898-4.846,4.681-5.9c0.707-0.536,1.667-0.777,2.05-1.687
		c0.697-0.651,1.408-1.29,1.602-2.274c0.074-0.226,0.116-0.462,0.248-0.667c0.127-0.207,0.253-0.415,0.355-0.637
		c0.21-0.439,0.384-0.894,0.604-1.33c0.958-1.106,1.641-2.502,3.241-2.948c0.434-0.312,1.021-0.368,1.385-0.794
		c1.071-0.666,1.679-1.684,2.238-2.742c0.078-0.141,0.165-0.274,0.253-0.409c0.294-0.45,0.751-0.778,0.874-1.358
		c0.338-1.6,1.442-2.635,2.834-3.433c0.6-0.013,1.128-0.201,1.564-0.612c0.225-0.164,0.393-0.382,0.564-0.595
		c0.397-0.403,0.526-0.967,0.869-1.404c0.838-0.627,1.412-1.467,1.976-2.315c0.62-0.45,0.739-1.109,0.802-1.795
		c0.625-1.938,2.374-2.75,3.963-3.721c0.313-0.232,0.65-0.434,0.968-0.662c1.188-0.624,1.434-1.866,2.007-2.891
		c0.884-0.998,0.991-2.397,2.004-3.379c0.923-0.895,1.79-1.817,2.901-2.494c1.09-0.577,1.706-1.575,2.377-2.521
		c0.162-0.256,0.37-0.472,0.601-0.667c0.099-0.11,0.22-0.19,0.345-0.267c0.235-0.15,0.494-0.261,0.73-0.411
		c0.519-0.469,0.466-1.076,0.451-1.674c0.714-1.941,2.583-2.85,3.978-4.182c1.182-0.554,1.559-1.801,2.403-2.646
		c0.653-0.397,1.034-1.045,1.388-1.652c1.171-2.013,2.708-3.705,4.529-5.174c0.814-0.528,1.236-1.418,1.969-2.023
		c0.466-0.231,0.868-0.522,1.016-1.043c0.077-0.281,0.167-0.557,0.261-0.835c0.063-0.146,0.149-0.279,0.249-0.403
		c0.67-0.667,1.227-1.434,1.684-2.229c0.603-1.051,1.445-1.775,2.505-2.319c1.196-0.72,1.41-2.216,2.528-2.998
		c0.955-0.786,1.68-1.712,2.208-2.834c0.74-1.572,2.135-2.639,3.437-3.76c1.229-0.994,2.131-2.269,3.143-3.449
		c1.885-2.075,3.189-4.613,5.427-6.409c0.749-0.599,1.392-1.299,2.029-2.006c1.299-1.004,2.214-2.222,2.905-3.729
		c0.708-1.541,2.26-2.547,3.388-3.834c0.302-0.279,0.538-0.604,0.719-0.971c0.311-0.488,0.774-0.8,1.285-1.062
		c1.554-0.43,1.74-0.346,1.742,1.126c0.021,11.021,0.003,22.043,0.025,33.063c0.001,1.152-0.42,1.619-1.612,1.498
		c-0.496-0.05-1.032-0.126-1.512,0.141c-0.348,0.924,0.153,1.15,0.987,1.212c2.044,0.149,2.05,0.168,2.05,2.197
		c0.003,14.633,0.001,29.266,0.001,43.898c0,0.111,0.001,0.221-0.001,0.332c-0.031,1.991-0.031,1.991-2.058,2.094
		c-0.342,0.017-0.691-0.003-0.974,0.237c0.105,0.825,0.797,0.696,1.306,0.66c1.468-0.104,1.826,0.571,1.822,1.889
		c-0.039,10.627-0.015,21.253-0.025,31.879c-0.004,4.704,0.047,9.409-0.031,14.109c-0.381,1.117-1.351,0.434-2.038,0.612
		c-0.396,0.104-1.06-0.222-1.1,0.435c-0.043,0.676,0.561,0.711,1.11,0.671c1.82-0.051,2.053,0.118,2.054,1.772
		c0.014,15.153-0.005,30.306,0.029,45.457c0.004,1.332-0.458,1.827-1.798,1.658c-0.439-0.056-0.919-0.106-1.344,0.14
		c-0.644,0.542,0.014,0.806,0.319,0.93c0.4,0.162,0.897,0.102,1.352,0.138c1.238,0.098,1.307,0.163,1.37,1.414
		c0.018,0.388,0.007,0.777,0.007,1.166c0.001,14.379,0.001,28.76,0,43.14c0,2.824-0.003,2.824-2.961,2.913
		c-0.686,1.127,0.175,1.187,0.952,1.274c2.071,0.234,2.078,0.228,2.08,2.298c0.002,14.464,0.002,28.93-0.001,43.395
		c0,0.769,0.078,1.558-0.361,2.264c-0.569,0.031-1.138,0.091-1.706,0.093c-14.642,0.004-29.282,0.004-43.922,0.002
		c-0.287,0-0.573,0.009-0.858-0.002c-1.282-0.045-1.286-0.047-1.32-1.338c-0.017-0.665-0.017-1.329-0.023-1.993
		c-0.426-0.542-0.861-0.498-1.304-0.023c-0.023,0.665-0.042,1.329-0.071,1.993c-0.055,1.312-0.059,1.316-1.34,1.362
		c-0.171,0.007-0.343,0.001-0.515,0.001c-14.828,0-29.656,0.002-44.483-0.002c-0.571-0.002-1.142-0.055-1.713-0.083
		c-0.337-0.411-0.703-0.808-0.742-1.34c-0.011,0.034-0.014-0.012-0.004,0.017c-0.03,0.569-0.289,0.995-0.73,1.322
		c-0.628,0.028-1.256,0.082-1.885,0.082c-14.843,0.006-29.686,0.004-44.528,0.004c-0.286,0-0.574,0.013-0.859-0.004
		c-1.218-0.061-1.306-0.151-1.368-1.394c-0.027-0.553-0.032-1.107-0.09-1.658c-0.012-0.117-0.189-0.278-0.318-0.31
		c-0.25-0.062-0.461,0.085-0.48,0.332c-0.052,0.662-0.063,1.327-0.095,1.991c-0.031,0.66-0.365,1.027-1.071,1.031
		c-0.286,0.002-0.573,0.011-0.859,0.011c-14.9,0-29.8,0-44.701-0.002c-0.343,0-0.685-0.037-1.028-0.056
		c-0.763-0.67-0.688-1.558-0.695-2.435c-0.004-0.49-0.003-1.093-0.709-1.082c-0.729,0.011-0.598,0.639-0.659,1.113
		C-651.924,1051.021-651.531,1051.88-652.178,1052.59z"/>
	<path fill="#9C9C9C" d="M-701.723,1031.264c-0.43,0.104-0.67,0.466-1.005,0.696c-0.24,0.362-0.77,0.328-1.007,0.691
		c-3.005,2.204-5.982,4.446-9.123,6.472c-3.801,2.45-7.601,4.905-11.607,7.037c-0.397,0.213-0.843,0.339-1.266,0.506
		c-0.301,0.289-0.747,0.357-1.047,0.65h0.002c-0.251,0.195-0.466,0.434-0.734,0.613c-1.139,0.475-2.318,0.874-3.409,1.436
		c-2.347,1.209-5.018,1.737-7.212,3.255c-3.485,0.02-6.971,0.063-10.457,0.053c-1.219-0.006-1.474-0.306-1.552-1.494
		c-0.029-0.442-0.012-0.887-0.012-1.33c-0.001-14.184-0.001-28.367-0.001-42.553c0-0.276-0.002-0.554,0.001-0.831
		c0.029-1.891,0.198-2.065,2.145-2.185c0.62-0.038,1.353,0.084,1.207-0.904c0.715,0.16,0.814,0.524,0.366,1.058
		c-0.459,0.546-1.119,0.456-1.739,0.516c-1.155,0.113-1.226,0.191-1.3,1.314c-0.026,0.388-0.012,0.775-0.012,1.164
		c0,14.019,0,28.038,0,42.057c0,0.056,0,0.109,0,0.165c0.009,2.39,0.217,2.608,2.642,2.326c1.301-0.151,2.583-0.459,3.874-0.696
		c0.375-0.423,1.029-0.223,1.426-0.597c2.693-0.712,5.31-1.632,7.855-2.739c0.359-0.408,1.021-0.242,1.368-0.676l0.001-0.004
		c0.371-0.392,1.029-0.227,1.375-0.663c0.22-0.058,0.462-0.075,0.656-0.179c4.731-2.501,9.5-4.946,13.822-8.104
		c0.799-0.286,1.415-0.84,2.073-1.33c3.444-2.172,6.713-4.575,9.961-7.009c0.771-0.203,1.305-0.695,1.722-1.33l0,0.002
		c1.3-0.573,2.093-1.826,3.401-2.389c0.829-1.323,2.356-1.865,3.473-2.888c2.529-2.316,5.203-4.489,7.884-6.643
		c1.586-1.274,3.054-2.659,4.521-4.052c1.524-0.591,2.324-1.962,3.442-2.992c2.571-2.185,5.096-4.415,7.471-6.807
		c1.025-1.031,2.385-1.703,3.361-2.807c0.405-0.459,0.925-0.823,1.216-1.379c2.331-1.96,4.393-4.183,6.533-6.329
		c0.842-0.519,1.531-1.184,2.064-2.001c2.333-1.959,4.394-4.181,6.533-6.328c0.842-0.517,1.532-1.184,2.065-2.001
		c0.911-0.8,1.973-1.475,2.401-2.68c1.745-1.358,3.09-3.104,4.726-4.569c3.146-2.823,6.038-5.908,8.903-8.974
		c2.523-2.699,5.395-5.102,7.62-8.068c0.498-0.665,1.2-1.184,1.796-1.781c1.901-1.909,3.791-3.847,5.567-5.852
		c2.417-2.728,5.164-5.163,7.487-7.936c2.521-3.007,5.387-5.694,7.933-8.675c1.772-2.072,3.658-4.088,5.631-6.016
		c1.519-1.484,3.015-3.032,4.34-4.683c1.197-1.489,2.608-2.784,3.799-4.274c0.797-0.996,1.885-1.759,2.533-2.904
		c0.236-0.417,0.664-0.761,1.149-0.973c0.694-0.494,0.984-1.272,1.445-1.931c1.975-1.612,3.423-3.693,5.198-5.491
		c2.122-2.149,4.042-4.487,6.042-6.749c0.295-0.334,0.545-0.707,0.816-1.061c0.238-0.367,0.713-0.478,0.959-0.837
		c0.702-0.455,0.826-1.327,1.428-1.853c0.532-0.245,0.931-0.648,1.293-1.074c3.458-4.048,7.049-7.981,10.628-11.93
		c3.195-3.525,6.353-7.085,9.507-10.646c2.489-2.809,5.022-5.582,7.451-8.439c2.721-3.199,5.521-6.33,8.322-9.46
		c0.371-0.415,0.837-0.748,1.26-1.119c0.218-0.206,0.369-0.53,0.772-0.41c0.595,1.09,0.467,2.241,0.3,3.395
		c-0.879,0.108-1.368,0.714-1.872,1.331c-0.385,0.471-0.588,1.096-1.194,1.39c-0.394,0.219-0.465,0.652-0.692,0.981
		c-0.013,0.217-0.026,0.434-0.039,0.651c-1.05,0.393-2.142,0.412-3.101,1.35c-1.276,1.247-1.08,2.536-0.997,3.939
		c-2.035,0.301-3.865,2.253-3.869,4.231c-0.001,0.618-0.198,1.048-0.659,1.415c-1.578-1.449-1.573-1.445-2.955,0.271
		c-0.772,0.96-1.507,1.936-1.797,3.152c-0.88,0.988-1.729,2.009-2.656,2.954c-0.602,0.611-0.401,1.319-0.463,2.006
		c-2.162-0.202-3.188,1.103-3.981,2.79c0.714,0.459,1.319-0.856,1.993-0.067c-0.662,1.803-1.152,2.159-3.058,2.14
		c-0.404-0.004-0.648,0.138-0.8,0.477c-0.911,1.224-2.489,2.001-2.66,3.722c-1.09,0.415-2.085,0.84-2.928,1.784
		c-1.013,1.135-1.043,1.923,0.101,2.836c-0.233,0.802-0.794,1.131-1.552,0.756c-0.671-0.331-1.084-0.085-1.506,0.33
		c-0.796,0.786-1.668,1.515-2.193,2.525c-0.271,0.297-0.238,0.761-0.589,1.014c-1.717,0.331-2.084,2.074-3.276,2.96
		c-0.171,0.127-0.218,0.405-0.055,0.604c0.166,0.203,0.413,0.154,0.624,0.073c0.439-0.17,0.866-0.29,1.283,0.041
		c-0.022,1.049-0.898,1.475-1.596,2.014c-0.378,0.293-0.762,0.062-1.119-0.119c-0.438-0.224-0.91-0.295-1.296,0.014
		c-1.241,0.995-2.307,2.116-2.507,3.769c0.092,0.077,0.134,0.164,0.127,0.26c-0.008,0.101-0.023,0.15-0.047,0.15
		c-2.672,0.543-3.685,2.684-4.818,4.709c-0.161,0.044-0.316,0.032-0.468-0.037c-1.714,0.979-2.917,2.341-3.4,4.246
		c-1.786,1.524-3.406,3.18-4.441,5.296c-1.81,0.279-3.761,2.175-4.148,4.03c-1.18,1.989-2.878,3.625-4.085,5.596
		c-1.205-0.715-1.324-0.72-2.138,0.171c-0.904,0.984-1.781,1.994-2.679,3.003c0.618,0.678,1.633,0.886,1.701,1.879
		c-1.835,0.613-3.199,1.784-4.284,3.32c-0.279,0.395-0.765,0.454-1.239,0.23c-0.379-0.525-0.7-0.307-1.086,0.032
		c-1.044,0.914-2.095,1.815-2.719,3.076l0.009-0.01c-1.013,1.667-2.602,2.877-3.759,4.429c-0.435,0.584-0.962,1.082-1.735,1.242
		l-0.002,0.005c-0.216,0.236-0.451,0.456-0.688,0.67c-1.212,1.064-2.255,2.267-3.135,3.604c-0.458,0.889-0.788,1.9-2.053,2.02
		l0.007,0.005c-0.45,0.454-0.972,0.844-1.328,1.383l-0.006,0.005c-0.18,0.587-0.655,0.935-1.115,1.296
		c-1.15,0.661-2.003,1.644-2.832,2.619c-0.766,0.899-1.594,1.733-2.417,2.578c-3.875,3.982-7.717,7.998-11.602,11.973
		c-1.415,1.446-2.899,2.832-4.383,4.213c-3.955,3.682-7.278,7.941-11.325,11.543c-1.808,1.608-3.469,3.372-5.223,5.04
		c-1.011,0.964-1.903,2.059-3.235,2.681c-0.394,0.183-0.707,0.56-0.897,0.981c-1.151,0.889-2.147,1.932-3.109,3.008
		c-0.188,0.123-0.408,0.217-0.56,0.374c-2.779,2.863-5.9,5.379-8.784,8.14c-1.687,1.613-3.516,3.126-5.347,4.613
		c-1.484,1.206-2.921,2.47-4.364,3.722c-2.841,2.466-5.727,4.881-8.794,7.078c-0.741,0.533-1.152,1.39-2.021,1.763
		C-700.14,1029.906-700.808,1030.73-701.723,1031.264z"/>
	<path fill="#5D5D5D" d="M-455.74,770.514c-0.074,0.359-0.34,0.537-0.667,0.657c-0.662,0.52-1.382,0.508-2.016,0.04
		c-0.67-0.494-0.462-1.164-0.158-1.794c1.168-1.314,2.335-2.631,3.504-3.946c0.365-0.442,1.153-0.368,1.336-1.032
		c0.13-2.862,0.232-5.725-0.076-8.583c0.719,0.175,0.813,0.741,0.792,1.305c-0.105,2.981,0.403,5.995-0.493,8.938
		c-0.164,0.539-0.271,1.144,0.015,1.632c0.58,0.984,0.494,2.032,0.494,3.08c0.003,10.268,0.003,20.534,0.001,30.802
		c-0.001,2.852-0.063,2.906-2.972,2.843c-0.171-0.004-0.343-0.025-0.514-0.038c0.529-0.485,1.195-0.283,1.801-0.305
		c0.73-0.024,1.03-0.361,1.031-1.028c0.001-0.389,0.016-0.776,0.016-1.164c0.001-10.423,0.001-20.845,0-31.269
		c0-0.222,0.014-0.444-0.004-0.664c-0.031-0.373,0.144-0.877-0.257-1.068c-0.519-0.246-0.709,0.43-1.123,0.561
		C-455.409,769.731-455.465,770.195-455.74,770.514z"/>
	<path fill="#3A3A3A" d="M-456.501,953.668c0.518-0.521,1.189-0.298,1.787-0.297c0.826,0.002,1.126-0.371,1.118-1.107
		c-0.005-0.444,0.01-0.888,0.01-1.331c0.001-14.521,0.006-29.044-0.001-43.566c-0.001-2.748,0.177-2.349-2.506-2.385
		c-0.494-0.181-0.745-0.45-0.368-0.948c0.495,0.223,1.005,0.106,1.52,0.097c1.165-0.021,1.795,0.534,1.929,1.665
		c0.05,0.438,0.029,0.888,0.031,1.331c0,14.652,0.001,29.304-0.001,43.957c0,2.613-0.059,2.664-2.831,2.619
		C-456.044,953.7-456.273,953.681-456.501,953.668z"/>
	<path fill="#2A2A2A" d="M-503.263,755.827c-0.743,0.021-1.485,0.059-2.227,0.059c-14.13,0.003-28.259,0.003-42.389,0.003
		c-0.458,0-0.915-0.006-1.373,0.001c-1.639,0.027-1.717,0.107-1.758,1.722c-0.013,0.498-0.035,0.996-0.052,1.493
		c-0.454,0.376-0.905,0.38-1.354-0.006c-0.02-0.664-0.045-1.329-0.056-1.993c-0.013-0.8-0.368-1.247-1.25-1.216
		c-0.514,0.019-1.029-0.001-1.543-0.001c-14.356,0-28.711,0-43.067-0.003c-0.743,0-1.485-0.034-2.228-0.052
		c0.603-0.432,1.304-0.368,1.987-0.368c14.729-0.001,29.456,0.004,44.184-0.014c0.998-0.001,1.948,0.519,2.82,0.448
		c0.849-0.07,1.72-0.443,2.647-0.442c14.499,0.01,29,0.006,43.497,0.01C-504.688,755.467-503.924,755.37-503.263,755.827z"/>
	<path fill="#3A3A3A" d="M-453.755,903.35c0.25-0.644,0.164-1.315,0.166-1.977c0.004-14.593,0.002-29.185,0.002-43.776
		c0-0.333-0.021-0.667-0.005-0.999c0.036-0.758-0.341-1.116-1.108-1.17c-0.676-0.046-1.399,0.072-1.976-0.403
		c-0.39-0.321-0.299-0.544,0.189-0.638c0.595,0.437,1.312,0.312,1.983,0.407c1.068,0.151,1.375,0.463,1.495,1.487
		c0.038,0.329,0.025,0.665,0.025,0.997c0.001,14.747,0.007,29.494-0.014,44.241c0,0.767,0.347,1.736-0.809,2.124
		c-0.105-0.084-0.133-0.156-0.083-0.215C-453.846,903.376-453.801,903.35-453.755,903.35z"/>
	<path fill="#D3D3D3" d="M-749.477,805.784c0.013,4.494,0.034,8.988,0.037,13.482c0.006,10.377,0.001,20.755,0.002,31.133
		c0,0.499-0.01,0.999,0.005,1.498c0.048,1.571,0.178,1.694,1.768,1.728c0.227,0.005,0.468-0.038,0.68,0.019
		c0.527,0.141,0.958,0.458,1.051,0.99c0.103,0.59-0.274,0.923-0.851,1.052c-0.164-0.22-0.156-0.43,0.041-0.627
		c0.119-0.341,0.167-0.692-0.304-0.78c-0.389-0.072-0.797-0.046-1.196-0.063c-1.495-0.062-1.752-0.314-1.814-1.79
		c-0.009-0.221-0.003-0.443-0.003-0.665c0-14.698-0.007-29.396,0.02-44.095C-750.042,807.027-750.473,806.175-749.477,805.784z"/>
	<path fill="#ACACAC" d="M-453.746,1052.598c-0.003-14.819-0.006-29.64-0.009-44.46c0-0.5,0.009-0.999-0.004-1.499
		c-0.038-1.517-0.041-1.525-1.633-1.676c-0.519-0.049-1.061-0.043-1.432-0.448c-0.529-0.579-0.421-0.995,0.409-1.146
		c-0.047,0.401-0.086,0.813,0.484,0.878c0.396,0.045,0.799,0.031,1.198,0.062c1.073,0.078,1.415,0.371,1.538,1.388
		c0.055,0.438,0.031,0.887,0.032,1.33c0,14.372,0.005,28.744-0.016,43.115C-453.18,1050.977-452.847,1051.937-453.746,1052.598z"/>
	<path fill="#9B9B9B" d="M-746.745,855.058c-0.014,0.209-0.027,0.418-0.041,0.626c-2.59,0.148-2.707-0.494-2.704,2.655
		c0.013,15.007,0.012,30.013,0.015,45.02c-0.247,0.188-0.482,0.265-0.672-0.069c-0.002-15.201-0.004-30.402-0.006-45.605
		c0-0.332-0.013-0.667,0.011-0.997c0.083-1.186,0.472-1.571,1.68-1.634C-747.892,855.023-747.318,855.054-746.745,855.058z"/>
	<path fill="#363636" d="M-746.825,904.983c-0.515-0.001-1.029-0.019-1.543-0.003c-1.244,0.04-1.308,0.101-1.382,1.354
		c-0.026,0.44-0.012,0.886-0.012,1.327c0,14.226,0,28.452,0,42.679c0,0.11,0,0.221,0,0.332c0.011,2.477,0.011,2.479,2.47,2.707
		c0.238,0.023,0.441,0.089,0.578,0.289c-0.743,0.008-1.486,0.031-2.228,0.018c-0.822-0.015-1.264-0.433-1.281-1.241
		c-0.009-0.442-0.021-0.886-0.021-1.329c0-14.677,0-29.354,0-44.031c0-0.332-0.011-0.664,0.01-0.996
		c0.084-1.339,0.636-1.91,1.982-2.019c0.512-0.042,1.029-0.014,1.542-0.019C-746.459,904.396-746.436,904.713-746.825,904.983z"/>
	<path fill="#C4C4C4" d="M-652.178,1052.59c0.003-0.933-0.011-1.865,0.015-2.798c0.014-0.534,0.229-1.007,0.838-1.078
		c0.719-0.084,1.011,0.442,1.124,0.998c0.196,0.967,0.106,1.976,0.442,2.924c-0.604,0.102-0.819-0.222-0.842-0.737
		c-0.029-0.654-0.039-1.312-0.074-1.967c-0.013-0.213-0.073-0.474-0.326-0.502c-0.372-0.042-0.46,0.265-0.48,0.536
		c-0.04,0.545-0.03,1.092-0.056,1.639C-651.558,1052.045-651.559,1052.51-652.178,1052.59z"/>
	<path fill="#2D2D2D" d="M-551.066,1049.315c0.021,1.099,0.043,2.196,0.066,3.293c-0.493-0.131-0.984-0.038-1.476-0.001
		c0.022-1.095,0.044-2.188,0.067-3.283C-551.965,1048.929-551.517,1048.936-551.066,1049.315z"/>
	<path fill="#C4C4C4" d="M-749.457,804.076c0.843-0.102,1.689-0.118,2.529-0.009c0.454,0.059,0.931,0.213,0.946,0.762
		c0.018,0.599-0.419,0.901-0.968,0.935c-0.84,0.05-1.687,0.009-2.531,0.006c0.454-0.441,1.046-0.317,1.595-0.373
		c0.441-0.044,1.044-0.006,1.072-0.557c0.035-0.663-0.623-0.441-1.021-0.503C-748.376,804.257-748.968,804.476-749.457,804.076z"/>
	<path fill="#D0D0D0" d="M-650.498,759.023c-0.104,0.425-0.342,0.723-0.832,0.63c-0.426-0.08-0.702-0.377-0.781-0.788
		c-0.159-0.82-0.102-1.648-0.016-2.474c0.961,0.386,0.504,1.212,0.571,1.848C-651.482,758.937-651.236,759.246-650.498,759.023z"/>
	<path fill="#A7A7A7" d="M-701.608,1049.383c0.087-0.324,0.192-0.664,0.621-0.638c0.516,0.034,0.826,0.398,0.909,0.833
		c0.173,0.905,0.208,1.827,0.082,2.746c-0.446-0.664-0.628-1.4-0.628-2.184C-700.625,1049.489-700.98,1049.27-701.608,1049.383z"/>
	<path fill="#A2A2A2" d="M-453.755,903.35c-0.012,0.099-0.029,0.196-0.052,0.294c-0.881,0.148-1.864-0.334-2.656,0.39
		c-0.063,0.383,0.127,0.674,0.368,0.948c-0.584,0.04-1.012-0.154-1.019-0.778c-0.007-0.631,0.5-0.814,1.019-0.843
		C-455.316,903.316-454.536,903.349-453.755,903.35z"/>
	<path fill="#363636" d="M-750.147,903.29c0.224,0.022,0.448,0.045,0.672,0.068c0.882,0.025,1.764,0.051,2.646,0.076
		c0.124,0.06,0.167,0.123,0.13,0.19c-0.038,0.068-0.077,0.103-0.117,0.103C-747.938,903.665-749.129,904.098-750.147,903.29z"/>
	<path fill="#C6C6C6" d="M-746.815,903.727c0.001-0.098-0.003-0.194-0.014-0.293c1.05,0.628,1.051,0.918,0.003,1.548
		c0.039-0.311,0.077-0.62,0.115-0.931C-746.745,903.945-746.779,903.836-746.815,903.727z"/>
	<path fill="#B8B8B8" d="M-502.878,1049.337c0.611-0.883,0.756-0.88,1.303,0.022
		C-502.009,1049.352-502.445,1049.343-502.878,1049.337z"/>
	<path fill="#C3C3C3" d="M-501.567,759.061c-0.579,0.844-0.676,0.846-1.321,0.029C-502.449,759.08-502.007,759.07-501.567,759.061z"
		/>
	<path fill="#5F5F5F" d="M-487.404,807.109c-0.602,0.646-0.93,1.515-1.734,1.994c-2.087,0.718-2.688,0.376-2.494-1.415
		c1.218-1.789,2.692-3.373,4.198-4.931c0.154-0.123,0.325-0.214,0.515-0.271c1.634,0.145,1.496,1.182,1.227,2.285v-0.001
		c-0.301,0.341-0.231,0.808-0.427,1.185C-486.444,806.448-487.025,806.672-487.404,807.109z"/>
	<path fill="#5E5E5E" d="M-495.301,816.136c-0.704,0.869-1.294,1.826-2.13,2.594c-0.276,0.246-0.64,0.165-0.961,0.243
		c-0.639,0.157-1.243,0.17-1.647-0.447c-0.344-0.526-0.235-1.051,0.116-1.526c0.197-0.267,0.256-0.607,0.513-0.835
		c0.856-0.422,1.167-1.304,1.761-1.946c0.491-0.529,1.057-0.994,1.589-1.487c0.626-0.474,1.323-0.802,1.945-0.105
		c0.522,0.585,0.476,1.33,0.07,1.987C-494.389,815.17-494.738,815.741-495.301,816.136z"/>
	<path fill="#9F9F9F" d="M-531.781,853.736c-0.245,0.109-0.49,0.217-0.734,0.326c0.083-0.388,0.259-0.734,0.539-1.021
		c2.619-2.687,5.01-5.564,7.47-8.385c0.14-0.16,0.374-0.244,0.564-0.364c0.163,0.045,0.297,0.131,0.41,0.252
		c0.232,0.984,0.307,1.976,0.091,2.975c-0.105,0.215-0.271,0.385-0.442,0.553c-0.567,0.535-1.194,1.022-1.685,1.617
		c-0.555,0.677-1.119,1.388-1.088,2.343c0.016,0.477-0.172,0.854-0.649,1.056c-1.107-0.94-2.133-1.033-3.1,0.213
		C-530.729,853.722-531.222,853.888-531.781,853.736z"/>
	<path fill="#5D5D5D" d="M-470.287,787.362c-0.576,0.531-1.08,1.108-1.538,1.749c-0.434,0.607-0.859,1.342-1.801,1.372
		c-1.707,0.176-2.022-0.275-1.432-2.054c1.259-1.447,2.517-2.894,3.775-4.341c0.63-0.334,1.263-0.559,1.856,0.058
		c0.515,0.535,0.261,1.109,0.126,1.708C-469.446,786.492-469.864,786.917-470.287,787.362z"/>
	<path fill="#5C5C5C" d="M-503.602,825.734c-0.761,0.926-1.401,1.955-2.39,2.69c-2.282,0.34-2.812-0.175-2.108-2.047
		c0.087-0.346,0.325-0.557,0.658-0.683c0.522-0.251,0.254-0.988,0.802-1.226c0.672-0.683,1.345-1.365,2.017-2.049
		c0.613-0.522,1.29-1.012,2.059-0.368c0.746,0.626,0.59,1.444,0.208,2.225c-0.143,0.292-0.318,0.569-0.547,0.81l-0.011-0.009
		C-503.132,825.307-503.363,825.525-503.602,825.734z"/>
	<path fill="#5E5E5E" d="M-462.988,778.801c-0.481,0.739-1.012,1.438-1.732,1.984c-0.659,0.316-1.348,0.635-1.997,0.051
		c-0.611-0.548-0.341-1.175-0.032-1.771c0.271-0.47,0.622-0.882,1-1.276c0.729-1.264,1.997-2.098,2.806-3.298
		c0.561-0.531,1.191-0.668,1.834-0.186c0.736,0.552,0.556,1.33,0.253,1.968C-461.333,777.275-462.044,778.142-462.988,778.801z"/>
	<path fill="#5D5D5D" d="M-479.161,797.458c-0.376,0.534-0.849,0.985-1.189,1.562c-0.32,0.542-0.803,1.052-1.552,1.121
		c-1.92-0.16-2.208-0.902-1.049-2.701c0.396-0.496,0.776-1.008,1.322-1.368c0.502-0.526,0.969-1.082,1.396-1.667
		c0.215-0.229,0.431-0.457,0.646-0.686c0.572-0.505,1.24-0.697,1.823-0.141c0.577,0.552,0.583,1.282,0.21,1.993
		C-477.944,796.315-478.585,796.861-479.161,797.458z"/>
	<path fill="#9D9D9D" d="M-495.301,816.136c0.094-0.511,0.509-0.835,0.772-1.247c0.771-1.205,0.435-1.905-1.026-2.142
		c-0.165-0.027-0.337-0.012-0.505-0.017c1.022-2.054,2.613-3.641,4.428-5.043c0.321,1.316,1.338,1.48,2.494,1.416
		c-0.206,0.26-0.398,0.521-0.711,0.689c-1.907,1.035-3.007,2.701-3.862,4.582C-494.042,815.1-494.284,815.965-495.301,816.136z"/>
	<path fill="#A4A4A4" d="M-462.988,778.801c0.19-0.802,0.999-1.158,1.391-1.832c0.9-1.538,0.569-2.197-1.349-2.478
		c0.235-0.863,1.068-1.274,1.583-1.928c0.864-1.096,1.849-2.103,2.784-3.146c0.413,1.557,0.576,1.689,2.173,1.756
		c-0.791,0.825-1.546,1.685-2.379,2.469c-0.827,0.777-1.441,1.65-1.886,2.686C-461.132,777.391-461.774,778.365-462.988,778.801z"/>
	<path fill="#9C9C9C" d="M-502.903,825.085c0.048-0.21,0.094-0.42,0.145-0.629c0.453-1.842,0.137-2.187-1.865-2.036
		c0.013-0.42,0.244-0.731,0.536-1.011c1.389-1.327,2.569-2.814,3.652-4.385c0.242-0.352,0.679-0.578,1.026-0.861
		c-0.036,0.214-0.068,0.429-0.108,0.643c-0.284,1.489-0.007,1.827,1.583,1.921c0.167,0.011,0.336,0.002,0.505,0.003
		c-1.759,0.821-2.999,2.182-4.098,3.69c-0.451,0.597-0.135,1.438-0.68,2.005C-502.338,824.745-502.494,825.042-502.903,825.085z"/>
	<path fill="#9E9E9E" d="M-466.423,778.782c-0.171,1.739-0.122,1.797,1.705,2.003c-0.682,0.72-1.489,1.303-2.173,2.033
		c-0.881,0.944-1.695,1.883-2.127,3.103c-0.223,0.627-0.522,1.228-1.267,1.441c0.119-0.24,0.238-0.479,0.358-0.72
		c0.763-1.526,0.393-2.224-1.356-2.556c1.485-1.774,2.971-3.549,4.457-5.323C-466.684,778.592-466.549,778.599-466.423,778.782z"/>
	<path fill="#9D9D9D" d="M-508.1,826.377c0.335,1.62,0.434,1.718,2.108,2.047c-1.738,0.563-2.562,2.119-3.764,3.265
		c-0.297,0.283-0.376,0.678-0.367,1.08c0.015,0.585-0.144,1.099-0.651,1.465c-0.159-0.027-0.302-0.089-0.431-0.184
		c-0.39-0.808-1.122-1.236-1.897-1.62c-0.109-0.115-0.179-0.25-0.215-0.403c1.46-1.701,2.919-3.401,4.378-5.103
		C-508.714,826.663-508.45,826.46-508.1,826.377z"/>
	<path fill="#9C9C9C" d="M-479.161,797.458c0.188-0.476,0.565-0.828,0.85-1.24c0.37-0.535,0.915-1.072,0.508-1.809
		c-0.385-0.696-1.058-0.775-1.783-0.691c1.241-1.979,3.033-3.517,4.528-5.291c-0.012,1.005,0.48,1.68,1.432,2.054
		c-0.653,0.746-1.306,1.492-1.958,2.239c-0.722,0.826-1.479,1.573-1.709,2.758C-477.464,796.372-478.219,797.079-479.161,797.458z"
		/>
	<path fill="#9C9C9C" d="M-513.775,837.768c-1.904,0.535-3.079,1.932-4.222,3.363c-0.578,0.299-0.211,1.001-0.625,1.372
		c-1.199,0.515-1.358-0.799-2.086-1.112c-0.092-0.125-0.147-0.265-0.155-0.419c0.118-0.496,0.388-0.939,0.743-1.277
		c1.456-1.384,2.502-3.118,4.058-4.412c0.155,0.015,0.297,0.062,0.427,0.146c0.574,0.636,0.731,1.604,1.661,1.957
		C-513.869,837.494-513.802,837.622-513.775,837.768z"/>
	<path fill="#A0A0A0" d="M-482.951,797.44c-0.451,1.191,0.145,2.003,1.049,2.701c-1.466,1.389-2.718,2.941-3.79,4.631
		c-0.106-0.897-0.615-1.534-1.388-1.998c-0.467-0.928,0.446-1.252,0.88-1.714c0.68-0.725,1.472-1.349,1.875-2.284
		C-483.854,798.341-483.552,797.746-482.951,797.44z"/>
	<path fill="#CFCFCF" d="M-652.812,984.039c-0.214,0.798-0.887,1.262-1.43,1.815c-1.135,1.156-2.28,2.306-3.43,3.448
		c-0.475,0.472-0.932,0.981-1.674,1.064c0.088-0.398,0.38-0.651,0.663-0.928c1.554-1.516,3.093-3.045,4.64-4.568
		C-653.688,984.518-653.35,984.14-652.812,984.039z"/>
	<path fill="#CFCFCF" d="M-661.41,992.368c-0.213,0.8-0.887,1.261-1.43,1.813c-1.136,1.156-2.28,2.308-3.43,3.45
		c-0.474,0.472-0.931,0.982-1.673,1.065c0.088-0.4,0.38-0.652,0.663-0.929c1.554-1.516,3.093-3.046,4.64-4.569
		C-662.286,992.847-661.946,992.469-661.41,992.368z"/>
	<path fill="#969696" d="M-523.887,844.734c-0.018-0.146-0.037-0.293-0.054-0.439c1.003-1.127,1.556-2.646,3.076-3.323
		c0.045,0.062,0.089,0.123,0.134,0.185C-520.379,842.89-522.155,844.903-523.887,844.734z"/>
	<path fill="#ADADAD" d="M-516.063,835.282c0.508-1.408,1.654-2.311,2.746-3.255c0.074,0.042,0.146,0.082,0.219,0.124
		c0.509,1.678-0.897,3.326-2.836,3.326C-515.977,835.413-516.02,835.346-516.063,835.282z"/>
	<path fill="#C6C6C6" d="M-484.324,798.775c-0.003,0.858-0.608,1.372-1.154,1.929c-0.615,0.627-1.392,1.143-1.6,2.069
		c-0.118-0.007-0.236-0.012-0.354-0.017c-0.019-0.654,0.313-1.165,0.748-1.613C-485.91,800.344-485.112,799.564-484.324,798.775z"/>
	<path fill="#C9C9C9" d="M-679.991,1009.688c-0.865,1.302-1.585,2.762-3.442,2.992
		C-682.241,1011.731-681.398,1010.404-679.991,1009.688z"/>
	<path fill="#C8C8C8" d="M-699.309,1026.263c-1.111,0.827-1.821,2.188-3.401,2.387
		C-701.749,1027.625-700.771,1026.62-699.309,1026.263z"/>
	<path fill="#CFCFCF" d="M-648.347,979.356c-0.151,1.439-1.075,2.229-2.401,2.682C-650.188,980.941-649.078,980.308-648.347,979.356
		z"/>
	<path fill="#CECECE" d="M-585.419,912.722c-0.103,0.911-0.511,1.605-1.445,1.931C-586.568,913.878-586.132,913.204-585.419,912.722
		z"/>
	<path fill="#CECECE" d="M-570.977,896.731c-0.234,0.816-0.511,1.605-1.393,1.997c-0.119-0.078-0.162-0.157-0.125-0.241
		c0.037-0.084,0.074-0.126,0.112-0.126C-572.011,897.739-571.693,897.073-570.977,896.731z"/>
	<path fill="#D0D0D0" d="M-714.393,1036.989c-0.422,0.836-1.141,1.237-2.073,1.33
		C-715.847,1037.769-715.269,1037.161-714.393,1036.989z"/>
	<path fill="#ACACAC" d="M-453.741,764.439c0.016,0.903-0.625,1.012-1.336,1.032C-454.938,764.755-454.246,764.71-453.741,764.439z"
		/>
	<path fill="#9C9C9C" d="M-480.232,794.404c-0.115,0.832-0.7,1.294-1.396,1.668C-481.434,795.304-480.952,794.761-480.232,794.404z"
		/>
	<path fill="#CDCDCD" d="M-741.543,1050.682c-0.322,0.542-0.843,0.64-1.426,0.596
		C-742.675,1050.673-742.131,1050.628-741.543,1050.682z"/>
	<path fill="#C2C2C2" d="M-552.415,759.098c0.45,0.002,0.901,0.005,1.353,0.006C-551.697,759.899-551.784,759.899-552.415,759.098z"
		/>
	<path fill="#C8C8C8" d="M-702.709,1028.649c-0.224,0.87-0.82,1.286-1.722,1.331
		C-703.858,1029.537-703.284,1029.093-702.709,1028.649z"/>
	<path fill="#AAAAAA" d="M-506.64,824.469c0.029,0.591-0.269,0.981-0.802,1.226C-507.419,825.136-507.274,824.654-506.64,824.469z"
		/>
	<path fill="#CDCDCD" d="M-732.321,1047.267c-0.31,0.503-0.776,0.707-1.368,0.675
		C-733.408,1047.385-732.897,1047.263-732.321,1047.267z"/>
	<path fill="#CDCDCD" d="M-730.944,1046.6c-0.312,0.506-0.783,0.702-1.376,0.663C-732.026,1046.719-731.519,1046.593-730.944,1046.6
		z"/>
	<path fill="#D1D1D1" d="M-572.383,898.361c0.004,0.122,0.009,0.244,0.013,0.366c-0.187,0.426-0.523,0.649-0.994,0.694
		C-573.268,898.868-572.824,898.616-572.383,898.361z"/>
	<path fill="#9E9E9E" d="M-466.423,778.782c-0.134-0.006-0.269-0.012-0.401-0.019c0.281-0.403,0.511-0.86,1.075-0.974
		C-465.787,778.241-466.078,778.528-466.423,778.782z"/>
	<path fill="#5F5F5F" d="M-548.617,875.758c-0.704-0.713-0.688-1.523-0.122-2.24c0.89-1.128,1.87-2.188,2.844-3.252
		c0.323-0.353,0.677-0.816,1.28-0.581c0.605,0.235,0.754,0.801,0.813,1.348c0.045,0.428-0.038,0.868-0.064,1.304
		c-0.782,0.913-1.569,1.822-2.346,2.74C-546.857,875.838-547.657,876.057-548.617,875.758z"/>
	<path fill="#606060" d="M-589.897,923.001c-0.616-0.784-0.484-1.468,0.203-2.174c0.854-0.876,1.632-1.819,2.439-2.737
		c0.501-0.57,1.082-0.775,1.799-0.385c1.036,1.226,1.062,1.555-0.003,2.658c-0.855,0.886-1.489,1.953-2.47,2.735
		C-588.826,923.813-588.81,923.831-589.897,923.001z"/>
	<path fill="#636363" d="M-697.25,1045.28c1-1.187,1.962-2.401,3.017-3.538c0.339-0.365,0.721-1.069,1.5-0.325
		c0.866,0.829,1.126,1.347,0.553,2.097c-0.705,0.921-1.492,1.782-2.245,2.671c-0.283,0.333-0.702,0.573-0.763,1.056
		c-0.426,0.447-0.876,0.4-1.34,0.062c-0.23-0.223-0.461-0.445-0.691-0.666C-697.589,1046.191-697.582,1045.738-697.25,1045.28z"/>
	<path fill="#5F5F5F" d="M-531.781,853.736c0.732-0.758,1.457-1.524,2.201-2.272c0.441-0.444,0.946-0.854,1.635-0.602
		c0.664,0.245,0.573,0.871,0.612,1.407c0.021,0.273,0.02,0.547,0.028,0.82c-0.016,0.093-0.039,0.184-0.071,0.273
		c-1.212,0.751-1.651,2.148-2.703,3.034c-0.347,0.428-0.753,0.742-1.365,0.65c-0.151-0.164-0.298-0.332-0.456-0.492
		c-0.96-0.968-0.967-1.062-0.207-2.241C-531.986,854.128-531.888,853.929-531.781,853.736z"/>
	<path fill="#5E5E5E" d="M-539.338,866.691c-0.154-0.312-0.404-0.485-0.732-0.639c-1.054-0.49-1.195-0.796-0.581-1.737
		c0.878-1.347,2.011-2.51,3.225-3.586c0.532-0.471,1.084-0.583,1.579,0.104c0.157,0.219,0.402,0.38,0.606,0.567
		c-0.005,0.219-0.01,0.438-0.014,0.657c-0.378,1.109-1.383,1.759-2.068,2.643C-537.738,865.607-538.565,866.123-539.338,866.691z"/>
	<path fill="#5E5E5E" d="M-581.643,913.348c-0.551-0.961-0.346-1.746,0.48-2.501c0.656-0.598,1.167-1.342,1.778-1.988
		c1.188-1.26,1.199-1.25,2.49-0.066c0.376,0.042,0.552,0.305,0.7,0.598c0.005,0.092-0.004,0.183-0.028,0.272
		c-0.223,0.29-0.384,0.622-0.651,0.883c-0.553,0.409-0.883,1.006-1.339,1.498c-0.026,0.095-0.038,0.19-0.031,0.29
		c-0.719,0.851-1.168,2.047-2.637,1.942C-581.187,914.006-581.547,913.781-581.643,913.348z"/>
	<path fill="#676767" d="M-679.467,1028.377c-0.719,0.026-1.519-1.004-1.381-1.692c0.062-0.313,0.195-0.658,0.409-0.891
		c0.859-0.938,1.663-1.917,2.473-2.896c0.691-0.835,1.313-0.847,2.012-0.228c0.734,0.651,0.818,1.228,0.138,1.986
		c-0.965,1.075-1.768,2.291-2.916,3.207C-678.991,1028.069-679.275,1028.245-679.467,1028.377z"/>
	<path fill="#5E5E5E" d="M-570.332,902.702c-0.382,0.328-0.758,0.663-1.146,0.983c-0.763,0.631-1.227,0.624-1.944,0.074
		c-0.665-0.51-0.523-1.068-0.105-1.584c0.976-1.2,1.989-2.372,3.007-3.539c0.54-0.617,1.077-0.472,1.567,0.088
		c0.376,0.077,0.438,0.465,0.694,0.66l0.014-0.012c0.364,0.447,0.367,0.892-0.011,1.334
		C-569.124,901.2-569.623,902.052-570.332,902.702z"/>
	<path fill="#636363" d="M-646.983,987.007c0.916-0.601,1.418-1.561,2.157-2.314c0.746-0.763,1.08-0.798,1.724-0.274
		c0.815,0.66,0.978,1.269,0.417,1.967c-0.832,1.039-1.677,2.074-2.598,3.036c-1.005,1.054-1.094,1.021-2.411,0.244
		c-0.442-0.559-0.369-1.111,0.02-1.66l-0.002,0.006C-647.353,987.738-647.287,987.296-646.983,987.007z"/>
	<path fill="#5D5D5D" d="M-553.725,883.442c-0.398,0.395-0.816,0.774-1.191,1.189c-0.611,0.676-1.242,0.639-1.955,0.157
		c-0.699-0.474-0.83-0.832-0.223-1.48c0.928-0.986,1.715-2.075,2.606-3.083c0.965-1.089,1.445-1.021,2.406,0.122
		c0.109,0.129,0.229,0.248,0.343,0.372C-551.639,882.148-552.888,882.654-553.725,883.442z"/>
	<path fill="#5E5E5E" d="M-671.27,1018.761c-1.009-0.042-1.729-1.167-1.279-1.916c0.254-0.421,0.633-0.771,0.951-1.156
		c0.565-0.683,1.228-1.268,1.684-2.064c0.609-1.062,1.32-1.19,2.06-0.616c0.906,0.703,0.969,1.325,0.178,2.236
		c-0.875,1.009-1.688,2.072-2.715,2.951C-670.68,1018.444-670.858,1018.87-671.27,1018.761z"/>
	<path fill="#606060" d="M-689.319,1036.647c0.583-1.931,2.312-3.043,3.509-4.529c0.428-0.532,1.124-0.351,1.653,0.136
		c0.667,0.614,0.818,1.121,0.276,1.696c-1.145,1.212-2.055,2.623-3.351,3.703c-0.465,0.329-0.92,0.365-1.354-0.053l0.018-0.021
		C-688.998,1037.405-689.01,1036.915-689.319,1036.647z"/>
	<path fill="#5D5D5D" d="M-598.131,932.626c-0.183-1.334-0.009-2.529,1.332-3.29c0.358-0.203,0.539-0.546,0.674-0.92
		c0.342-0.948,1.057-1.387,2.078-1.386c0.271,0.179,0.582,0.315,0.712,0.64c0.407,0.575,0.391,1.154,0.021,1.735
		c-0.946,1.083-1.893,2.165-2.838,3.248c-0.216,0.398-0.729,0.374-1.015,0.671C-597.723,933.401-597.818,932.873-598.131,932.626z"
		/>
	<path fill="#616161" d="M-663.857,1008.987c-0.11-0.112-0.222-0.227-0.333-0.339c-0.393-0.553-0.328-1.102,0.017-1.648
		c0.912-1.056,1.806-2.128,2.743-3.164c0.766-0.846,1.167-0.886,1.843-0.304c0.888,0.768,0.943,1.234,0.214,2.107
		c-0.923,1.105-1.861,2.201-2.792,3.301C-662.715,1009.399-663.282,1009.336-663.857,1008.987z"/>
	<path fill="#616161" d="M-634.926,974.968c0.914,0.915,1.044,1.36,0.426,2.064c-0.913,1.04-1.892,2.026-2.848,3.029
		c-0.504,0.53-1.046,0.84-1.75,0.282c-0.75-0.594-0.819-0.907-0.232-1.811c0.842-1.297,2.029-2.322,2.992-3.526
		C-635.878,974.636-635.407,974.655-634.926,974.968z"/>
	<path fill="#606060" d="M-655.614,999.333c-0.556-0.401-0.779-0.751-0.372-1.503c0.758-1.399,2.064-2.332,2.952-3.606
		c0.403-0.58,1-0.693,1.632-0.249c0.7,0.49,1.032,1.365,0.476,1.852c-1.225,1.074-1.778,2.705-3.248,3.548
		C-654.664,999.675-655.145,999.693-655.614,999.333z"/>
	<path fill="#626262" d="M-617.729,957.7c-0.526,0.596-1.264,1.037-1.467,1.87c-0.379,0.761-1.023,1.311-1.645,1.859
		c-0.658,0.583-1.302,0.621-2.045-0.047c-0.744-0.666-0.763-1.34-0.245-2.004c0.47-0.604,1.059-1.133,1.622-1.672l-0.019,0.012
		c0.176-0.215,0.344-0.437,0.454-0.688c0.931-2.138,1.717-2.283,3.444-0.629C-617.386,956.854-617.421,957.286-617.729,957.7z"/>
	<path fill="#5C5C5C" d="M-563.07,894.399c-0.219,0.057-0.452,0.085-0.656,0.176c-0.655,0.293-1.138-0.051-1.503-0.467
		c-0.414-0.47-0.349-1.093,0.024-1.545c0.926-1.117,1.877-2.222,2.909-3.244c0.661-0.653,0.929-0.545,1.963,0.391
		c0.064,0.06,0.129,0.12,0.192,0.182c0.206,0.438,0.119,0.843-0.139,1.229c-0.155,0.586-0.68,0.877-1.075,1.272
		c-0.617,0.232-0.565,0.978-1.062,1.302l-0.003,0.004C-562.624,893.944-562.873,894.148-563.07,894.399L-563.07,894.399z"/>
	<path fill="#606060" d="M-609.178,947.357c0.003,0.565-0.442,0.894-0.785,1.226c-1.034,1.007-1.791,2.218-2.689,3.322
		c-0.752,0.572-1.446,0.493-2.035-0.218c-0.644-0.781-0.76-1.682-0.153-2.477c0.541-0.708,1.163-1.375,1.803-2.015
		C-611.205,945.367-610.808,945.384-609.178,947.357z"/>
	<path fill="#646464" d="M-626.323,967.404c-0.317,0.752-1.207,1.108-1.428,1.929c-0.376,0.408-0.725,0.842-1.095,1.256
		c-0.681,0.76-1.374,0.893-2.187,0.224c-0.791-0.649-0.594-1.334-0.073-2.018c0.202-0.263,0.418-0.518,0.635-0.771
		c0.967-0.559,1.338-1.608,2.075-2.354c0.829-0.838,1.204-0.781,2.096,0.249C-626.006,966.418-625.997,966.913-626.323,967.404z"/>
	<path fill="#5E5E5E" d="M-606.8,940.981c1.085-0.729,1.682-1.88,2.563-2.791c1.277-1.317,1.267-1.366,2.989-0.511
		c0.074,0.51,0.016,0.956-0.377,1.374c-0.8,0.854-1.521,1.777-2.319,2.632c-1.261,1.346-2.384,1.1-3.168-0.663
		C-607.021,940.919-606.917,940.902-606.8,940.981z"/>
	<path fill="#DBDBDB" d="M-609.178,947.357c-1.824-1.432-1.816-1.426-3.456,0.426c-0.48,0.541-1.019,1.035-1.529,1.551
		c-0.565,0.572-0.781,1.243-0.402,1.964c0.407,0.777,1.13,0.831,1.914,0.607c-0.571,0.849-1.251,0.691-1.996,0.229
		c-0.817-0.506-0.97-1.406-1.414-2.134c1.546-2.15,3.231-4.173,5.494-5.671c-0.328,0.639-0.502,1.174,0.416,1.577
		C-609.595,946.149-609.259,946.718-609.178,947.357z"/>
	<path fill="#EBEBEB" d="M-617.796,956.358c-1.547-0.944-1.703-0.919-2.792,0.496c-0.263,0.343-0.445,0.764-0.942,0.862
		c0.051-0.523,0.323-1.106-0.409-1.418c0.452-0.895,1.067-1.634,2.053-2.02c0.174,0.357,0.443,0.612,0.838,0.737
		c0.727,0.229,1.225,0.72,1.623,1.327C-617.543,956.468-617.667,956.473-617.796,956.358z"/>
	<path fill="#EBEBEB" d="M-621.51,957.707c-0.236,0.722-0.926,1.112-1.329,1.714c-0.527,0.788-0.448,1.271,0.265,1.862
		c0.62,0.517,1.093,0.327,1.635-0.153c0.584-0.516,1.006-1.206,1.744-1.56c-0.044,0.854-0.687,1.358-1.24,1.888
		c-0.729,0.696-1.711,0.736-2.45,0.182c-0.779-0.582-0.991-1.657-0.405-2.501C-622.854,958.508-622.335,957.913-621.51,957.707z"/>
	<path fill="#C4C4C4" d="M-630.47,968.023c-0.041,0.463-0.362,0.791-0.588,1.166c-0.326,0.542-0.282,1.051,0.248,1.461
		c0.522,0.407,1.028,0.361,1.533-0.051c0.513-0.418,0.838-1.05,1.527-1.267c-0.083,0.652-0.574,1.048-1.011,1.466
		c-0.992,0.946-1.426,0.986-2.295,0.262c-0.884-0.736-0.952-1.44-0.181-2.419C-631.041,968.39-630.729,968.226-630.47,968.023z"/>
	<path fill="#DBDBDB" d="M-606.8,940.981c-0.104,0.02-0.208,0.033-0.313,0.041c-1.259,1.003-2.335,2.186-3.463,3.317
		c0.023-0.39,0.108-0.765,0.355-1.076c0.982-1.247,2.168-2.288,3.372-3.352C-606.488,940.383-606.807,940.672-606.8,940.981z"/>
	<path fill="#DCDCDC" d="M-560.333,889.709c0.039-1.838,1.411-2.733,2.75-3.651c-0.155,0.754-0.754,1.203-1.266,1.707
		c-0.572,0.564-1.071,1.147-0.863,2.021c-0.229,0.147-0.439,0.122-0.631-0.065L-560.333,889.709z"/>
	<path fill="#D3D3D3" d="M-669.404,1003.623c0.67-1.356,1.628-2.437,3.11-3.008
		C-667.131,1001.812-668.166,1002.816-669.404,1003.623z"/>
	<path fill="#DDDDDD" d="M-580.989,914.042c0.601,0.003,1.048-0.26,1.462-0.675c0.383-0.387,0.851-0.692,1.282-1.034
		c-0.167,0.929-0.802,1.527-1.561,2.02c-0.592,0.384-1.154,0.4-1.569-0.271C-581.266,913.896-581.136,913.884-580.989,914.042z"/>
	<path fill="#A6A6A6" d="M-530.077,856.397c0.676-1.199,1.301-2.442,2.702-3.034C-528.263,854.383-528.715,855.771-530.077,856.397z
		"/>
	<path fill="#C4C4C4" d="M-510.774,834.234c-0.535,1.164-1.352,2.117-2.35,2.934c-0.183-0.051-0.322-0.157-0.418-0.317
		c0.024-1.728,0.991-2.763,2.699-2.887C-510.821,834.054-510.798,834.144-510.774,834.234z"/>
	<path fill="#9C9C9C" d="M-537.321,864.7c0.333-1.143,1.352-1.781,2.067-2.644C-535.294,863.414-536.434,863.964-537.321,864.7z"/>
	<path fill="#CFCFCF" d="M-701.723,1031.264c0.642-0.854,1.338-1.646,2.448-1.951
		C-699.867,1030.227-700.6,1030.975-701.723,1031.264z"/>
	<path fill="#D8D8D8" d="M-518.792,842.435c0.105-0.526,0.116-1.106,0.795-1.304c-0.11,0.676,0.161,1.462-0.611,1.942
		c-0.14,0.045-0.245,0.003-0.313-0.124C-518.979,842.755-518.965,842.576-518.792,842.435z"/>
	<path fill="#9C9C9C" d="M-518.608,843.074c-0.311,1.115-1.208,1.757-2.082,2.418c-0.178-0.077-0.299-0.204-0.365-0.384
		c0.208-1.553,0.733-2.026,2.24-2.014C-518.748,843.083-518.678,843.077-518.608,843.074z"/>
	<path fill="#B6B6B6" d="M-578.214,912.043c0.082-0.83,0.664-1.292,1.327-1.693c0.142-0.107,0.276-0.104,0.401,0.027
		C-576.993,911-577.444,911.675-578.214,912.043z"/>
	<path fill="#CECECE" d="M-523.883,848.073c0-0.232,0-0.466,0-0.699c0.375-0.347,0.79-0.56,1.322-0.347
		c0.179,0.088,0.314,0.22,0.408,0.392C-522.52,848.159-523.227,848.052-523.883,848.073z"/>
	<path fill="#C7C7C7" d="M-487.404,807.109c0.1-0.618,0.749-0.843,1.024-1.334c0.178-0.224,0.379-0.2,0.593-0.056
		C-486.024,806.511-486.64,806.892-487.404,807.109z"/>
	<path fill="#9B9B9B" d="M-593.312,929.407c-0.007-0.578-0.014-1.157-0.021-1.736C-592.436,928.458-592.433,928.623-593.312,929.407
		z"/>
	<path fill="#CECECE" d="M-502.207,824.425c-0.002-0.741,0.083-1.455,0.679-2.006C-501.564,823.149-501.362,823.954-502.207,824.425
		z"/>
	<path fill="#C8C8C8" d="M-647.676,988.005c-0.007,0.554-0.014,1.107-0.02,1.66C-648.534,988.936-648.533,988.854-647.676,988.005z"
		/>
	<path fill="#EBEBEB" d="M-623.26,957.687c0.162-0.715,0.559-1.217,1.328-1.383C-622.121,956.994-622.583,957.437-623.26,957.687z"
		/>
	<path fill="#C3C3C3" d="M-568.256,899.385c-0.39-0.063-0.597-0.308-0.694-0.66c0.104-0.327,0.287-0.587,0.631-0.714
		C-568.298,898.469-568.278,898.927-568.256,899.385z"/>
	<path fill="#9E9E9E" d="M-634.926,974.968c-0.471,0.012-0.941,0.025-1.413,0.039C-635.725,974.162-635.56,974.158-634.926,974.968z
		"/>
	<path fill="#929292" d="M-626.323,967.404c0.008-0.495,0.016-0.991,0.024-1.486C-625.456,966.541-625.458,966.754-626.323,967.404z
		"/>
	<path fill="#D3D3D3" d="M-568.253,900.708c0.003-0.444,0.008-0.89,0.011-1.334C-567.458,900.019-567.458,900.065-568.253,900.708z"
		/>
	<path fill="#D3D3D3" d="M-617.796,956.358c0.123-0.004,0.247-0.01,0.371-0.014c0.335,0.544,0.395,1.029-0.304,1.355
		C-617.751,957.252-617.774,956.805-617.796,956.358z"/>
	<path fill="#C7C7C7" d="M-688.586,1037.6c0.451,0.018,0.903,0.036,1.354,0.053C-687.892,1038.414-687.974,1038.411-688.586,1037.6z
		"/>
	<path fill="#C0C0C0" d="M-697.25,1045.28c0.01,0.45,0.02,0.902,0.031,1.355C-698.039,1046.027-698.04,1045.979-697.25,1045.28z"/>
	<path fill="#909090" d="M-560.342,889.72c0.209,0.021,0.42,0.043,0.631,0.065c0.008,0.523,0.261,1.147-0.569,1.336
		C-560.301,890.654-560.322,890.187-560.342,889.72z"/>
	<path fill="#D3D3D3" d="M-696.529,1047.301c0.446-0.021,0.893-0.043,1.34-0.062
		C-695.783,1048.075-695.854,1048.079-696.529,1047.301z"/>
	<path fill="#B8B8B8" d="M-551.066,1049.315c-0.448,0.004-0.896,0.006-1.343,0.009
		C-551.802,1048.466-551.667,1048.466-551.066,1049.315z"/>
	<path fill="#A3A3A3" d="M-655.614,999.333c0.48,0.014,0.96,0.027,1.441,0.041C-654.765,1000.196-654.987,1000.189-655.614,999.333z
		"/>
	<path fill="#C4C4C4" d="M-663.857,1008.987c0.565-0.015,1.129-0.031,1.693-0.046
		C-662.99,1009.795-663.045,1009.797-663.857,1008.987z"/>
	<path fill="#9C9C9C" d="M-562.418,893.696c0.101-0.627,0.357-1.137,1.062-1.301C-561.673,892.856-561.712,893.531-562.418,893.696z
		"/>
	<path fill="#C2C2C2" d="M-664.172,1007c-0.007,0.549-0.012,1.099-0.017,1.648C-664.975,1007.924-664.975,1007.924-664.172,1007z"/>
	<path fill="#9C9C9C" d="M-520.691,845.492c-0.125,0.606-0.396,1.105-1.044,1.324c-0.161-0.068-0.275-0.182-0.346-0.337
		c-0.06-0.851,0.312-1.267,1.222-1.141C-520.803,845.39-520.747,845.441-520.691,845.492z"/>
	<path fill="#D2D2D2" d="M-703.735,1032.652c0.156-0.476,0.517-0.672,1.007-0.691
		C-702.895,1032.421-703.249,1032.627-703.735,1032.652z"/>
	<path fill="#EBEBEB" d="M-624.381,958.987c0.223-0.552,0.657-0.935,1.116-1.296C-623.302,958.394-623.733,958.778-624.381,958.987z
		"/>
	<path fill="#AAAAAA" d="M-597.165,933.325c0.169-0.462,0.524-0.663,1.015-0.671C-596.3,933.147-596.627,933.384-597.165,933.325z"
		/>
	<path fill="#CDCDCD" d="M-726.778,1047.316c0.24-0.383,0.576-0.618,1.047-0.651
		C-725.922,1047.122-726.301,1047.294-726.778,1047.316z"/>
	<path fill="#B2B2B2" d="M-689.319,1036.647c0.399,0.198,0.701,0.471,0.751,0.933
		C-689.083,1037.468-689.311,1037.142-689.319,1036.647z"/>
	<path fill="#D2D2D2" d="M-580.989,914.042c-0.128,0.014-0.257,0.026-0.386,0.038c-0.308-0.125-0.546-0.32-0.68-0.621
		c0.137-0.036,0.276-0.073,0.413-0.109C-581.424,913.581-581.207,913.811-580.989,914.042z"/>
	<path fill="#8C8C8C" d="M-455.74,770.514c0.01-0.492,0.266-0.825,0.712-1.035C-455.045,769.966-455.241,770.338-455.74,770.514z"/>
	<path fill="#C8C8C8" d="M-646.983,987.007c0.005,0.488-0.219,0.828-0.694,1.004C-647.659,987.539-647.387,987.231-646.983,987.007z
		"/>
	<path fill="#CDCDCD" d="M-535.202,860.75c-0.008-0.485,0.179-0.841,0.691-0.982C-534.597,860.19-534.847,860.504-535.202,860.75z"
		/>
	<path fill="#A0A0A0" d="M-485.787,805.719c-0.197,0.019-0.396,0.037-0.593,0.055c0.189-0.36,0.351-0.737,0.688-1.003
		C-485.724,805.086-485.754,805.404-485.787,805.719z"/>
	<path fill="#929292" d="M-503.602,825.734c0.098-0.347,0.312-0.582,0.687-0.657C-503.003,825.434-503.185,825.7-503.602,825.734z"
		/>
	<path fill="#C4C4C4" d="M-513.124,837.167c-0.149,0.269-0.343,0.494-0.652,0.601c-0.094-0.023-0.186-0.045-0.28-0.068
		c-0.085-0.58,0.119-0.86,0.76-0.691C-513.238,837.061-513.181,837.115-513.124,837.167z"/>
	<path fill="#9C9C9C" d="M-522.154,847.418c-0.134-0.023-0.269-0.048-0.403-0.072c-0.201-0.609,0.042-0.817,0.661-0.681
		c0.053,0.051,0.106,0.101,0.161,0.149C-521.875,847.017-522.014,847.217-522.154,847.418z"/>
	<path fill="#CDCDCD" d="M-727.51,1047.93c0.142-0.321,0.363-0.552,0.734-0.614C-726.911,1047.644-727.133,1047.872-727.51,1047.93z
		"/>
	<path fill="#DBDBDB" d="M-616.751,950.675c0.12-0.329,0.328-0.573,0.688-0.67C-616.173,950.343-616.388,950.582-616.751,950.675z"
		/>
	<path fill="#A7A7A7" d="M-576.487,910.377c-0.134-0.01-0.267-0.018-0.4-0.027c0.106-0.332,0.304-0.584,0.664-0.688
		C-576.203,909.938-576.287,910.178-576.487,910.377z"/>
	<path fill="#A7A7A7" d="M-576.195,909.39c-0.233-0.199-0.466-0.399-0.7-0.598c0.015-0.139,0.031-0.276,0.045-0.415
		C-576.489,908.629-576.175,908.911-576.195,909.39z"/>
	<path fill="#9C9C9C" d="M-563.071,894.4c0.063-0.367,0.287-0.595,0.652-0.699C-562.468,894.082-562.685,894.314-563.071,894.4z"/>
	<path fill="#5C5C5C" d="M-521.896,846.666c-0.3,0.155-0.523,0.378-0.661,0.681c-0.442,0.01-0.884,0.019-1.327,0.027
		c-0.59-0.88-0.901-1.759-0.003-2.64c1.367-0.934,2.133-2.362,3.156-3.578c1.118-0.245,1.472,0.597,1.938,1.278
		c-0.008,0.219-0.015,0.439-0.023,0.66c-0.681,0.748-1.362,1.496-2.043,2.244C-521.204,845.781-521.55,846.223-521.896,846.666z"/>
	<path fill="#5C5C5C" d="M-513.294,837.008c-0.342,0.142-0.544,0.423-0.761,0.692c-2.018-0.021-2.149-0.175-1.879-2.224
		c1.109-0.978,2.23-1.945,2.836-3.326c0.614-0.071,1.148-0.817,1.858-0.143c0.616,0.586,0.65,1.23,0.396,1.955
		C-511.573,835.044-512.781,835.765-513.294,837.008z"/>
</g>
</svg>
