<?xml version="1.0" encoding="utf-8"?>
<!-- Generator: Adobe Illustrator 16.0.0, SVG Export Plug-In . SVG Version: 6.00 Build 0)  -->
<!DOCTYPE svg PUBLIC "-//W3C//DTD SVG 1.1//EN" "http://www.w3.org/Graphics/SVG/1.1/DTD/svg11.dtd">
<svg version="1.1" id="Layer_1" xmlns="http://www.w3.org/2000/svg" xmlns:xlink="http://www.w3.org/1999/xlink" x="0px" y="0px"
	 width="415.751px" height="427.665px" viewBox="0 0 415.751 427.665" enable-background="new 0 0 415.751 427.665"
	 xml:space="preserve">
<g>
	<path fill-rule="evenodd" clip-rule="evenodd" fill="#0D0D0D" d="M0.022,214.14c0-70.636-0.001-141.271,0.001-211.906
		c0-4.41-0.387-4.298,4.307-4.298c136.712,0.006,273.423,0.005,410.134,0.006c0.72,0,1.441-0.03,2.159,0.01
		c1.562,0.087,1.905,0.419,2.049,2.029c0.064,0.715,0.032,1.439,0.032,2.159c0.001,141.351,0,282.701,0.006,424.052
		c0,4.409-0.138,3.957-3.918,3.957c-137.03,0.002-274.062,0-411.093,0.007c-4.271,0-3.67-0.124-3.67-3.629
		C0.02,355.73,0.022,284.936,0.022,214.14z"/>
	<path fill-rule="evenodd" clip-rule="evenodd" fill="#FFFFFF" d="M346.64,0.085c0.716,1.507,0.296,3.14,0.522,4.702
		c0.63,0.654,1.246,0.729,1.844-0.042c0.008-0.959,0.045-1.918,0.017-2.876c-0.035-1.166,0.383-1.831,1.66-1.741
		c0.556,0.04,1.117,0,1.678,0c21.097,0,42.193,0,63.291,0c0.844,0.641,0.589,1.574,0.595,2.408c0.023,3.075,0.027,6.15,0,9.222
		c-0.013,1.072-0.868,1.805-1.128,2.778c-1.381,2.275-3.742,3.706-5.149,5.96c-2.148,2.21-4.179,4.524-6.035,6.987
		c-0.87,2.033-2.972,3.066-4.017,4.957c-0.479,0.599-1.098,1.032-1.717,1.465c-1.779,2.712-4.144,4.959-5.968,7.63
		c-1.784,2.111-3.626,4.173-5.315,6.364c-2.104,2.469-4.407,4.769-6.309,7.412c-0.28,0.474-0.68,0.861-0.957,1.336
		c-0.666,0.652-1.19,1.426-1.784,2.143c-0.787,0.592-1.53,1.225-2.004,2.116c-0.611,0.723-1.728,0.947-1.98,2.026
		c-1.991,1.263-3.032,3.335-4.37,5.154c-1.646,2.705-3.869,4.953-5.852,7.39c-2.096,2.359-4.794,4.198-6.189,7.165
		c-1.762,1.668-2.785,3.945-4.59,5.578c-1.016,0.666-1.954,1.27-2.631,2.455c-0.899,1.576-1.929,3.223-3.727,4.072
		c-0.731,0.345-0.835,1.057-0.917,1.762c-0.62,1.388-1.771,2.378-2.657,3.566c-0.367,0.502-0.788,0.963-1.179,1.452
		c-0.429,0.337-0.793,0.75-1.229,1.08c-1.535,0.243-1.536,1.85-2.385,2.714c-1.647,1.678-3.297,3.358-4.851,5.127
		c-1.688,1.229-3.266,2.545-3.728,4.742c-2.539,2.516-4.505,5.528-6.996,8.084c-1.906,1.264-2.822,3.343-4.152,5.083
		c-1.376,1.002-2.189,2.485-3.245,3.767c-2.814,3.417-6.15,6.375-8.82,9.925c-1.911,2.006-3.418,4.34-5.28,6.399
		c-1.226,1.356-2.657,2.476-3.918,3.778c-2.732,2.823-4.45,6.36-7.077,9.233c-1.203,1.314-2.636,2.347-3.844,3.684
		c-2.844,3.147-4.866,6.918-7.922,9.888c-2.32,2.256-4.674,4.508-6.627,7.103c-1.757,2.336-3.311,4.833-5.442,6.863
		c-4.439,4.23-8.058,9.153-11.849,13.932c-0.394,0.497-0.887,0.918-1.448,1.237c-0.596,0.777-1.652,0.985-2.221,1.798
		c-0.486,0.457-0.578,1.124-0.868,1.686c-5.494,6.615-11.143,13.102-16.951,19.447c-0.763,0.867-1.938,1.377-2.255,2.63
		c-3.172,4.078-6.954,7.616-10.119,11.726c-2.065,2.682-4.53,5.121-6.97,7.533c-2.489,2.462-4.65,5.241-6.998,7.844
		c-2.295,2.545-4.675,5.024-6.865,7.657c-3.976,4.78-8.602,8.966-12.615,13.678c-6.515,7.647-13.595,14.753-20.301,22.206
		c-7.042,7.825-14.689,15.058-21.705,22.896c-1.471,0.795-2.863,1.661-3.188,3.504c-0.933,1.253-2.039,2.338-3.231,3.339
		c-3.507,2.283-6.857,4.724-8.754,8.642c-0.924,1.266-2.049,2.336-3.234,3.347c-3.523,2.219-6.754,4.737-8.722,8.544
		c-1.004,1.552-2.307,2.855-3.746,3.967c-4.849,3.743-8.912,8.331-13.482,12.37c-1.747,1.143-3.669,2.09-4.625,4.124
		c-6.037,5.946-13.014,10.833-18.999,16.837c-1.019,1.021-2.559,1.369-3.329,2.683c-1.275,1.325-3.607,1.109-4.441,3.071
		c-0.089,0.216-0.224,0.397-0.375,0.569c-0.752,0.644-1.421,1.388-2.251,1.944c-4.724,3.357-9.354,6.843-14.093,10.178
		c-1.127,0.345-1.885,1.251-2.826,1.884c-6.448,4.593-13.36,8.395-20.369,12.032c-0.559,0.298-1.17,0.477-1.737,0.764
		c-0.177,0.135-0.374,0.221-0.574,0.302c-0.601,0.242-1.19,0.511-1.795,0.749c-3.461,1.951-7.34,2.808-10.991,4.258
		c-0.837,0.27-1.701,0.376-2.577,0.378c-2.115,0.19-4.215,0.54-6.357,0.487c-2.862-0.07-2.886-0.048-2.891-3.018
		c-0.01-5.433-0.003-10.864-0.003-16.297c0-15.258-0.001-30.516,0.001-45.773c0-3.101,0.005-3.104,3.121-3.582
		c1.106-0.17,1.964-0.469,1.114-1.823c-0.798-0.021-1.601-0.104-2.394-0.047c-1.256,0.089-1.728-0.63-1.858-1.692
		c-0.088-0.711-0.085-1.436-0.085-2.153c-0.004-20.938-0.003-41.876-0.003-62.813c0-0.32-0.006-0.64,0.008-0.959
		c0.089-2.104,0.263-2.28,2.374-2.418c0.478-0.031,0.979,0.028,1.428-0.1c0.709-0.202,1.057-0.672,0.649-1.433
		c-0.146-0.067-0.287-0.176-0.438-0.188c-4.156-0.332-4.156-0.331-4.156-4.463c0-20.844,0-41.688,0-62.532
		c0-3.426,0.001-3.426,3.46-3.61c0.605-0.071,1.305-0.149,1.261-0.973c-0.025-0.478-0.526-0.444-0.906-0.455
		c-1.149-0.223-2.463,0.547-3.455-0.59c-0.196-0.955-0.115-1.918-0.116-2.875c-0.005-20.638-0.004-41.276-0.003-61.914
		c0-3.858,0.003-3.858,3.909-4.052c0.703-0.217,1.146-0.647,0.842-1.406c-0.222-0.555-0.734-0.717-1.358-0.768
		c-3.39-0.275-3.393-0.295-3.393-3.737C2.498,116.809,2.494,96.05,2.513,75.292c0.001-1.087-0.312-2.252,0.485-3.232l-0.004-0.02
		c1.053-0.513,2.177-0.134,3.262-0.258c0.645-0.074,1.057-0.357,0.99-1.061c-0.053-0.569-0.449-0.78-0.975-0.847
		c-1.078-0.137-2.203,0.275-3.245-0.275c-0.729-0.789-0.627-1.777-0.627-2.728C2.394,45.755,2.395,24.639,2.397,3.523
		c0-0.479-0.015-0.965,0.051-1.438c0.213-1.52,0.63-1.891,2.145-1.955C5.071,0.11,5.552,0.126,6.032,0.126
		c20.076,0,40.152,0,60.228,0c0.24,0,0.48-0.002,0.72,0c2.692,0.02,2.707,0.033,2.787,2.623c0.01,0.32-0.005,0.641,0.016,0.959
		c0.036,0.561,0.03,1.195,0.847,1.154c0.733-0.037,0.813-0.62,0.909-1.193c0.59-3.544,0.594-3.543,4.167-3.543
		c20.236,0,40.472-0.009,60.708,0.032c0.82,0.001,1.988-0.634,2.455,0.741c0.727,0.979,0.275,2.125,0.455,3.18
		c0.216,1.271,0.781,1.691,1.819,0.612c-0.243-5.543,0.379-4.549,4.482-4.554c19.728-0.023,39.456-0.011,59.185-0.011
		c0.559,0,1.119-0.022,1.677,0.006c1.547,0.079,2.068,0.599,2.212,2.189c0.064,0.713,0.071,1.432,0.166,2.14
		c0.026,0.197,0.249,0.366,0.542,0.361c0.292-0.005,0.484-0.167,0.518-0.38c0.085-0.548,0.172-1.115,0.12-1.662
		c-0.095-1.02,0.277-1.867,0.797-2.686c0.625-0.539,1.378-0.295,2.07-0.295c20.841-0.014,41.682-0.013,62.523-0.009
		c2.602,0,3.004,0.367,3.54,3.085c-0.003,0.2-0.001,0.421,0.005,0.642c-0.001-0.221,0.002-0.442,0.005-0.682
		c0.268-1.986,1.074-3.095,3.382-3.088c20.813,0.069,41.627,0.039,62.439,0.049C345.422-0.203,346.091-0.402,346.64,0.085z"/>
	<path fill-rule="evenodd" clip-rule="evenodd" fill="#FFFFFF" d="M138.798,427.653c-0.794,0.05-1.589,0.143-2.383,0.143
		c-20.478,0.008-40.955,0.013-61.433-0.011c-0.982-0.002-2.083,0.388-2.926-0.515c-0.337-1.131-0.345-2.303-0.486-3.46
		c-0.126-1.035-0.529-1.989-1.763-0.779c0.104,1.669-1.039,2.77-1.835,4.028c-0.282,0.446-0.748,0.6-1.224,0.659
		c-0.552,0.07-1.114,0.079-1.672,0.079c-14.618,0.004-29.235,0.004-43.852-0.003c-0.798,0-1.595-0.064-2.393-0.1
		c-0.52-1.579,0.797-1.91,1.723-2.376c3.135-1.579,6.405-2.864,9.605-4.304c0.877-0.394,1.712-0.857,2.533-1.346
		c0.358-0.26,0.719-0.521,1.112-0.727c0.176-0.117,0.359-0.226,0.539-0.339c0.438-0.325,0.948-0.482,1.462-0.64
		c3.988-1.358,7.249-4.012,10.703-6.249c5.407-3.503,10.943-6.843,15.934-10.97c1.229-1.017,2.323-2.187,3.623-3.115
		c0.419-0.348,0.916-0.563,1.39-0.821c0.582-0.332,1.068-0.804,1.651-1.13c1.377-0.414,2.287-1.433,3.179-2.477
		c8.411-7.261,16.975-14.335,25.209-21.812c5.585-5.071,10.814-10.515,16.519-15.453c1.784-0.845,3.445-1.809,3.944-3.942
		c2.562-2.614,5.477-4.833,8.134-7.36c7.655-7.278,14.333-15.48,21.898-22.821c5.166-5.012,10.202-10.147,14.983-15.508
		c4.469-5.01,9.188-9.772,13.758-14.677c0.432-0.472,0.946-0.865,1.348-1.375c0.146-0.184,0.324-0.324,0.518-0.453
		c0.695-0.396,1.486-0.621,2.091-1.187c0.228-0.11,0.466-0.155,0.717-0.144c1.412,0.382,1.225,1.343,0.856,2.367
		c-0.056,0.23-0.146,0.45-0.261,0.658c-0.384,0.485-0.892,0.891-1.108,1.494c-0.285,0.792-0.825,1.76,0.285,2.234
		c1.109,0.473,2,0.085,2.153-1.294c0.026-0.232,0.114-0.453,0.197-0.673c0.578-1.051,1.548-1.849,1.946-3.011
		c0.098-0.371,0.009-0.743-0.043-1.108c-0.146-1.501-2.59-1.356-2.287-3.166c0.443-2.729,2.602-4.241,4.305-6.083
		c0.412-0.306,0.876-0.474,1.385-0.514c0.24-0.041,0.479-0.015,0.71,0.059c1.079,0.666,1.096,3.171,3.295,1.896
		c1.82-1.458,3.063-3.306,3.8-5.501c-0.265-1.477-1.77-2.745-0.76-4.442c0.078-0.222,0.197-0.418,0.346-0.599
		c1.214-0.918,2.176-2.115,3.342-3.082c0.645-0.535,1.181-1.372,2.232-1.16c1.684,1.408,2.61,1.445,3.808-0.253
		c0.9-1.277,2.649-2.146,2.302-4.131c-2.557-3.163-0.057-5.025,1.715-7.212c1.396-1.723,2.84-2.488,4.934-1.471
		c0.353,0.025,0.693,0.184,1.062,0.101c0.169-0.079,0.336-0.142,0.503-0.222c1.408-1.1,2.817-2.185,3.514-3.907
		c0.073-0.411,0.06-0.817-0.047-1.224c-0.229-0.546-0.369-1.111-0.438-1.697c-0.229-2.856,3.052-6.222,6.165-6.342
		c3.979-0.477,6.064-3.06,5.729-7.115c0.328-3.322,2.518-6.017,5.422-6.691c0.585,0.098,1.176,0.178,1.757,0.304
		c1.53,0.533,1.886-0.804,2.561-1.617c0.11-0.196,0.237-0.378,0.367-0.562c0.515-0.781,1.78-0.833,1.882-1.987
		c-0.049-0.276-0.047-0.553-0.04-0.832c-0.011-0.191-0.009-0.382-0.014-0.574c-0.09-0.518,0.1-0.999,0.177-1.495
		c0.021-3.289,2.116-5.723,5.413-6.326c1.386-0.254,2.561-0.859,3.301-2.126c0.993-1.018,1.946-2.068,2.619-3.332
		c0.102-0.284,0.182-0.578,0.325-0.845c0.069-0.187,0.146-0.37,0.211-0.559c0.135-0.505,0.148-1.014,0.062-1.529
		c0.49-2.748,2.483-4.183,4.763-5.295c0.614-0.3,1.342-0.411,1.951-0.768c0.152-0.127,0.314-0.242,0.463-0.371
		c0.193-0.222,0.408-0.422,0.638-0.608c0.14-0.146,0.289-0.279,0.428-0.424c0.443-0.4,0.812-0.863,1.15-1.353
		c0.608-0.564,1.183-1.154,1.53-1.926c0.187-0.47,0.569-0.833,0.704-1.332c0.123-2.354,2.521-3.476,3.021-5.627
		c0.313-0.569,0.763-1.043,1.423-1.077c1.959-0.1,2.999-1.421,3.962-2.869c1.29-0.924,2.435-1.942,2.414-3.723
		c0.786-3.115,2.552-5.522,5.229-7.272c2.866-0.734,4.582-2.828,6.087-5.168c1.068-3.688,2.648-6.983,6.533-8.501
		c0.986-0.772,2.326-1.12,2.861-2.431c0.973-0.937,1.965-1.858,2.237-3.276c0.104-0.325,0.162-0.666,0.345-0.961
		c0.178-0.299,0.354-0.599,0.497-0.917c0.292-0.634,0.536-1.288,0.841-1.917c1.339-1.594,2.292-3.605,4.524-4.247
		c0.605-0.449,1.425-0.531,1.934-1.145c1.493-0.958,2.343-2.426,3.123-3.95c0.109-0.203,0.23-0.396,0.353-0.59
		c0.411-0.649,1.049-1.122,1.22-1.958c0.472-2.305,2.013-3.795,3.955-4.944c0.837-0.019,1.575-0.291,2.182-0.883
		c0.315-0.236,0.549-0.55,0.788-0.856c0.555-0.582,0.734-1.394,1.213-2.024c1.169-0.903,1.97-2.114,2.757-3.335
		c0.865-0.649,1.031-1.599,1.12-2.586c0.873-2.794,3.312-3.964,5.531-5.362c0.438-0.335,0.908-0.625,1.352-0.954
		c1.658-0.9,2.001-2.688,2.801-4.164c1.234-1.439,1.383-3.454,2.798-4.869c1.288-1.288,2.498-2.619,4.049-3.593
		c1.521-0.831,2.38-2.269,3.317-3.633c0.225-0.369,0.516-0.679,0.838-0.961c0.137-0.159,0.308-0.274,0.481-0.384
		c0.328-0.216,0.69-0.375,1.02-0.592c0.724-0.676,0.651-1.551,0.63-2.413c0.996-2.796,3.604-4.105,5.551-6.024
		c1.65-0.797,2.176-2.595,3.355-3.812c0.911-0.574,1.442-1.506,1.936-2.381c1.636-2.9,3.78-5.338,6.322-7.454
		c1.135-0.762,1.725-2.043,2.748-2.915c0.651-0.334,1.212-0.753,1.418-1.504c0.106-0.406,0.234-0.802,0.365-1.202
		c0.088-0.211,0.208-0.402,0.347-0.582c0.935-0.961,1.713-2.066,2.349-3.212c0.842-1.514,2.017-2.558,3.496-3.342
		c1.67-1.036,1.97-3.193,3.529-4.32c1.332-1.131,2.344-2.465,3.082-4.082c1.033-2.265,2.979-3.802,4.797-5.417
		c1.715-1.433,2.973-3.269,4.385-4.969c2.632-2.991,4.452-6.647,7.575-9.235c1.044-0.863,1.944-1.87,2.832-2.889
		c1.812-1.446,3.089-3.203,4.055-5.374c0.987-2.22,3.153-3.669,4.729-5.523c0.421-0.403,0.749-0.872,1.002-1.399
		c0.434-0.704,1.081-1.152,1.793-1.532c2.169-0.619,2.428-0.498,2.432,1.623c0.029,15.879,0.004,31.758,0.035,47.637
		c0.003,1.661-0.585,2.333-2.25,2.159c-0.691-0.072-1.438-0.183-2.108,0.202c-0.487,1.331,0.213,1.657,1.377,1.746
		c2.852,0.216,2.861,0.242,2.861,3.165c0.004,21.083,0.002,42.165,0.002,63.248c0,0.16,0.001,0.319-0.002,0.479
		c-0.044,2.868-0.044,2.869-2.874,3.016c-0.477,0.024-0.964-0.004-1.358,0.342c0.146,1.189,1.113,1.003,1.821,0.951
		c2.049-0.149,2.55,0.823,2.543,2.722c-0.054,15.31-0.022,30.62-0.034,45.93c-0.006,6.777,0.065,13.555-0.043,20.327
		c-0.532,1.61-1.885,0.626-2.845,0.884c-0.552,0.148-1.478-0.32-1.535,0.624c-0.06,0.976,0.783,1.027,1.549,0.967
		c2.541-0.071,2.865,0.171,2.867,2.556c0.019,21.831-0.008,43.661,0.042,65.492c0.005,1.92-0.639,2.632-2.511,2.388
		c-0.612-0.08-1.282-0.153-1.875,0.201c-0.897,0.782,0.021,1.163,0.446,1.341c0.559,0.234,1.251,0.146,1.887,0.198
		c1.729,0.14,1.824,0.234,1.911,2.037c0.026,0.559,0.011,1.12,0.011,1.68c0.001,20.718,0.002,41.436,0,62.154
		c0,4.069-0.004,4.069-4.133,4.198c-0.957,1.622,0.244,1.708,1.327,1.835c2.892,0.338,2.902,0.329,2.903,3.311
		c0.004,20.841,0.004,41.681-0.002,62.521c0,1.109,0.11,2.244-0.504,3.263c-0.794,0.045-1.588,0.131-2.381,0.132
		c-20.435,0.007-40.869,0.006-61.303,0.005c-0.399,0-0.799,0.011-1.197-0.004c-1.789-0.065-1.795-0.067-1.841-1.928
		c-0.024-0.957-0.023-1.915-0.034-2.872c-0.593-0.78-1.2-0.716-1.819-0.033c-0.032,0.957-0.06,1.915-0.098,2.872
		c-0.076,1.89-0.083,1.895-1.871,1.963c-0.239,0.009-0.479,0.002-0.72,0.002c-20.695,0-41.391,0.001-62.086-0.005
		c-0.796-0.001-1.593-0.077-2.39-0.118c-0.471-0.592-0.981-1.164-1.035-1.93c-0.015,0.049-0.019-0.019-0.006,0.022
		c-0.042,0.822-0.403,1.435-1.019,1.905c-0.877,0.042-1.754,0.12-2.631,0.12c-20.717,0.007-41.433,0.006-62.149,0.006
		c-0.399,0-0.8,0.016-1.199-0.006c-1.7-0.088-1.822-0.22-1.909-2.008c-0.038-0.797-0.045-1.597-0.125-2.39
		c-0.017-0.169-0.264-0.401-0.445-0.447c-0.348-0.088-0.643,0.123-0.67,0.479c-0.072,0.955-0.088,1.913-0.132,2.87
		c-0.043,0.95-0.51,1.479-1.495,1.486c-0.399,0.002-0.799,0.015-1.199,0.015c-20.796,0-41.592,0.001-62.389-0.003
		c-0.479-0.001-0.956-0.053-1.435-0.08c-1.065-0.965-0.96-2.245-0.97-3.508c-0.006-0.706-0.004-1.575-0.989-1.56
		c-1.017,0.016-0.835,0.92-0.92,1.604C139.153,425.391,139.701,426.63,138.798,427.653z"/>
	<path fill-rule="evenodd" clip-rule="evenodd" fill="#9C9C9C" d="M69.648,396.927c-0.6,0.149-0.935,0.671-1.403,1.003
		c-0.335,0.521-1.074,0.472-1.406,0.997c-4.194,3.175-8.35,6.405-12.733,9.323c-5.305,3.53-10.609,7.066-16.201,10.14
		c-0.554,0.305-1.176,0.487-1.766,0.728c-0.42,0.416-1.043,0.516-1.461,0.937h0.003c-0.351,0.282-0.651,0.625-1.024,0.883
		c-1.59,0.683-3.235,1.26-4.758,2.069c-3.276,1.742-7.003,2.503-10.067,4.689c-4.864,0.03-9.729,0.092-14.594,0.075
		c-1.701-0.006-2.057-0.438-2.166-2.151c-0.04-0.637-0.017-1.277-0.017-1.916c-0.001-20.436-0.001-40.872-0.001-61.309
		c0-0.399-0.003-0.799,0.002-1.197c0.041-2.725,0.276-2.976,2.994-3.148c0.865-0.055,1.888,0.121,1.684-1.304
		c0.998,0.23,1.136,0.756,0.51,1.524c-0.641,0.788-1.561,0.658-2.427,0.745c-1.613,0.162-1.711,0.275-1.815,1.892
		c-0.036,0.558-0.016,1.117-0.016,1.677c-0.001,20.198-0.001,40.396-0.001,60.594c0,0.08,0,0.159,0,0.239
		c0.012,3.443,0.302,3.757,3.687,3.351c1.816-0.219,3.605-0.662,5.406-1.003c0.524-0.61,1.436-0.321,1.991-0.861
		c3.759-1.025,7.41-2.351,10.963-3.946c0.501-0.589,1.425-0.349,1.909-0.974l0.001-0.005c0.518-0.564,1.436-0.326,1.92-0.956
		c0.307-0.083,0.645-0.108,0.916-0.256c6.604-3.604,13.259-7.127,19.292-11.676c1.115-0.412,1.974-1.209,2.893-1.916
		c4.806-3.129,9.369-6.593,13.902-10.098c1.076-0.294,1.822-1.003,2.404-1.917l-0.001,0.002c1.814-0.826,2.921-2.63,4.747-3.44
		c1.157-1.908,3.288-2.688,4.847-4.162c3.53-3.337,7.261-6.468,11.003-9.57c2.214-1.836,4.262-3.832,6.31-5.838
		c2.127-0.851,3.244-2.826,4.804-4.31c3.589-3.148,7.113-6.361,10.427-9.806c1.431-1.487,3.329-2.455,4.691-4.045
		c0.566-0.661,1.291-1.186,1.697-1.986c3.253-2.825,6.132-6.026,9.118-9.119c1.175-0.746,2.137-1.706,2.881-2.883
		c3.256-2.822,6.132-6.025,9.118-9.117c1.176-0.746,2.138-1.706,2.882-2.884c1.272-1.152,2.754-2.124,3.351-3.862
		c2.435-1.957,4.313-4.469,6.595-6.582c4.391-4.067,8.428-8.512,12.427-12.928c3.521-3.889,7.53-7.35,10.636-11.626
		c0.694-0.957,1.674-1.705,2.506-2.566c2.654-2.751,5.29-5.542,7.77-8.43c3.374-3.929,7.207-7.439,10.451-11.434
		c3.518-4.331,7.518-8.205,11.071-12.498c2.473-2.986,5.106-5.89,7.86-8.668c2.119-2.138,4.207-4.369,6.056-6.746
		c1.671-2.147,3.64-4.011,5.303-6.158c1.112-1.436,2.63-2.535,3.535-4.185c0.33-0.601,0.926-1.097,1.604-1.401
		c0.969-0.712,1.373-1.834,2.017-2.782c2.756-2.323,4.777-5.322,7.254-7.911c2.962-3.097,5.643-6.465,8.434-9.725
		c0.412-0.481,0.761-1.017,1.139-1.527c0.331-0.529,0.996-0.688,1.338-1.205c0.979-0.657,1.154-1.912,1.994-2.671
		c0.742-0.352,1.298-0.933,1.805-1.546c4.826-5.833,9.839-11.501,14.834-17.189c4.459-5.079,8.866-10.208,13.269-15.338
		c3.473-4.047,7.01-8.044,10.399-12.16c3.797-4.609,7.705-9.12,11.614-13.63c0.518-0.597,1.169-1.078,1.759-1.613
		c0.304-0.297,0.515-0.764,1.078-0.59c0.83,1.57,0.652,3.228,0.419,4.89c-1.227,0.157-1.909,1.029-2.613,1.918
		c-0.538,0.679-0.821,1.579-1.667,2.002c-0.549,0.316-0.647,0.94-0.965,1.415c-0.018,0.312-0.037,0.625-0.055,0.937
		c-1.466,0.566-2.989,0.594-4.328,1.945c-1.781,1.797-1.506,3.654-1.392,5.677c-2.839,0.433-5.393,3.246-5.399,6.096
		c-0.002,0.889-0.276,1.51-0.92,2.038c-2.202-2.088-2.195-2.082-4.124,0.391c-1.078,1.383-2.104,2.788-2.507,4.541
		c-1.23,1.424-2.413,2.894-3.708,4.256c-0.839,0.881-0.56,1.901-0.646,2.89c-3.018-0.291-4.45,1.588-5.557,4.02
		c0.996,0.661,1.841-1.234,2.781-0.097c-0.923,2.598-1.608,3.111-4.267,3.083c-0.565-0.006-0.904,0.198-1.118,0.686
		c-1.271,1.764-3.473,2.882-3.712,5.362c-1.521,0.599-2.911,1.21-4.087,2.571c-1.413,1.635-1.457,2.771,0.141,4.085
		c-0.325,1.156-1.108,1.63-2.165,1.09c-0.937-0.478-1.515-0.123-2.102,0.475c-1.112,1.134-2.329,2.183-3.061,3.64
		c-0.379,0.426-0.331,1.095-0.822,1.459c-2.397,0.478-2.909,2.989-4.572,4.265c-0.239,0.184-0.304,0.584-0.077,0.87
		c0.232,0.292,0.577,0.222,0.872,0.104c0.612-0.244,1.208-0.417,1.791,0.06c-0.031,1.511-1.254,2.124-2.228,2.902
		c-0.527,0.421-1.064,0.089-1.561-0.172c-0.611-0.322-1.271-0.425-1.81,0.02c-1.731,1.433-3.22,3.049-3.499,5.43
		c0.129,0.111,0.188,0.236,0.178,0.374c-0.012,0.144-0.034,0.216-0.066,0.216c-3.73,0.783-5.143,3.866-6.725,6.784
		c-0.225,0.065-0.441,0.047-0.652-0.052c-2.393,1.41-4.073,3.372-4.746,6.116c-2.494,2.197-4.754,4.583-6.2,7.631
		c-2.526,0.403-5.249,3.134-5.789,5.807c-1.647,2.866-4.017,5.222-5.701,8.062c-1.681-1.031-1.847-1.036-2.985,0.246
		c-1.261,1.419-2.485,2.873-3.739,4.327c0.862,0.976,2.279,1.276,2.374,2.706c-2.562,0.884-4.465,2.572-5.979,4.784
		c-0.39,0.569-1.068,0.655-1.729,0.333c-0.529-0.756-0.977-0.442-1.516,0.045c-1.457,1.318-2.924,2.617-3.795,4.433l0.012-0.014
		c-1.414,2.402-3.631,4.144-5.246,6.381c-0.607,0.842-1.343,1.559-2.421,1.789l-0.003,0.007c-0.301,0.341-0.63,0.656-0.961,0.966
		c-1.692,1.533-3.147,3.266-4.375,5.19c-0.639,1.282-1.1,2.739-2.865,2.911l0.01,0.008c-0.628,0.654-1.357,1.215-1.854,1.992
		l-0.008,0.006c-0.251,0.845-0.914,1.347-1.557,1.867c-1.605,0.954-2.796,2.369-3.953,3.774c-1.069,1.296-2.225,2.497-3.373,3.715
		c-5.409,5.738-10.771,11.522-16.193,17.249c-1.975,2.085-4.046,4.08-6.117,6.07c-5.52,5.305-10.158,11.442-15.807,16.631
		c-2.523,2.318-4.842,4.858-7.289,7.263c-1.411,1.388-2.657,2.965-4.516,3.86c-0.549,0.265-0.986,0.807-1.252,1.414
		c-1.607,1.283-2.997,2.785-4.34,4.334c-0.263,0.178-0.57,0.314-0.782,0.539c-3.878,4.125-8.234,7.75-12.26,11.727
		c-2.354,2.325-4.907,4.504-7.462,6.647c-2.072,1.738-4.077,3.558-6.092,5.363c-3.965,3.552-7.993,7.032-12.273,10.198
		c-1.035,0.767-1.608,2.002-2.82,2.539C71.858,394.97,70.925,396.156,69.648,396.927z"/>
	<path fill-rule="evenodd" clip-rule="evenodd" fill="#5D5D5D" d="M412.967,21.246c-0.104,0.517-0.474,0.774-0.929,0.948
		c-0.924,0.748-1.93,0.73-2.815,0.057c-0.936-0.712-0.644-1.678-0.22-2.585c1.63-1.895,3.26-3.791,4.89-5.686
		c0.509-0.637,1.61-0.531,1.865-1.487c0.181-4.124,0.325-8.248-0.106-12.366c1.004,0.252,1.135,1.069,1.107,1.88
		c-0.148,4.296,0.562,8.638-0.688,12.877c-0.229,0.776-0.379,1.647,0.022,2.351c0.807,1.417,0.688,2.928,0.688,4.438
		c0.005,14.792,0.005,29.584,0.002,44.377c-0.001,4.109-0.087,4.188-4.148,4.096c-0.239-0.005-0.478-0.036-0.717-0.054
		c0.738-0.699,1.668-0.409,2.514-0.439c1.02-0.036,1.438-0.521,1.44-1.482c0.001-0.559,0.021-1.118,0.021-1.677
		c0.001-15.017,0.001-30.033,0-45.05c0-0.32,0.02-0.641-0.006-0.958c-0.043-0.538,0.202-1.264-0.36-1.539
		c-0.724-0.354-0.99,0.619-1.566,0.808C413.43,20.118,413.352,20.785,412.967,21.246z"/>
	<path fill-rule="evenodd" clip-rule="evenodd" fill="#3A3A3A" d="M411.904,285.129c0.723-0.751,1.66-0.43,2.494-0.428
		c1.154,0.002,1.573-0.535,1.561-1.596c-0.008-0.639,0.015-1.278,0.015-1.917c0.002-20.923,0.006-41.846-0.003-62.769
		c-0.001-3.96,0.246-3.384-3.497-3.437c-0.691-0.26-1.039-0.648-0.514-1.366c0.69,0.321,1.402,0.153,2.12,0.14
		c1.626-0.032,2.506,0.77,2.691,2.399c0.072,0.632,0.042,1.278,0.043,1.917c0.001,21.111,0.003,42.221-0.001,63.332
		c0,3.767-0.082,3.838-3.951,3.775C412.543,285.174,412.224,285.146,411.904,285.129z"/>
	<path fill-rule="evenodd" clip-rule="evenodd" fill="#2A2A2A" d="M346.64,0.085c-1.037,0.029-2.073,0.084-3.109,0.084
		c-19.721,0.005-39.441,0.004-59.162,0.004c-0.639,0-1.277-0.008-1.916,0.002c-2.287,0.039-2.396,0.155-2.453,2.48
		c-0.017,0.717-0.048,1.435-0.072,2.152c-0.633,0.54-1.263,0.547-1.89-0.009c-0.027-0.957-0.064-1.914-0.079-2.871
		c-0.018-1.153-0.513-1.797-1.743-1.752c-0.718,0.026-1.437-0.002-2.155-0.002c-20.037,0-40.073,0-60.11-0.004
		c-1.036,0-2.072-0.049-3.108-0.075c0.84-0.621,1.819-0.529,2.773-0.529c20.556-0.003,41.112,0.005,61.668-0.02
		c1.392-0.002,2.719,0.746,3.936,0.644c1.185-0.1,2.4-0.637,3.695-0.636c20.236,0.013,40.474,0.007,60.709,0.014
		C344.651-0.433,345.718-0.573,346.64,0.085z"/>
	<path fill-rule="evenodd" clip-rule="evenodd" fill="#3A3A3A" d="M415.738,212.632c0.351-0.927,0.23-1.896,0.231-2.849
		c0.007-21.024,0.005-42.047,0.005-63.071c-0.001-0.479-0.03-0.96-0.008-1.438c0.05-1.092-0.478-1.609-1.548-1.686
		c-0.943-0.067-1.952,0.103-2.758-0.582c-0.544-0.462-0.417-0.783,0.264-0.919c0.831,0.63,1.83,0.45,2.767,0.587
		c1.492,0.218,1.921,0.667,2.087,2.143c0.053,0.474,0.035,0.958,0.035,1.437c0.002,21.247,0.009,42.494-0.019,63.741
		c-0.001,1.104,0.483,2.501-1.129,3.06c-0.147-0.122-0.187-0.225-0.116-0.31C415.612,212.67,415.675,212.632,415.738,212.632z"/>
	<path fill-rule="evenodd" clip-rule="evenodd" fill="#D3D3D3" d="M2.998,72.06c0.018,6.476,0.047,12.951,0.051,19.427
		c0.008,14.951,0.002,29.902,0.003,44.854c0,0.719-0.014,1.439,0.007,2.159c0.067,2.264,0.249,2.441,2.467,2.489
		c0.317,0.007,0.653-0.056,0.949,0.026c0.735,0.203,1.337,0.661,1.467,1.427c0.144,0.85-0.382,1.33-1.188,1.515
		c-0.229-0.316-0.218-0.618,0.057-0.902c0.166-0.493,0.232-0.998-0.424-1.125c-0.542-0.105-1.112-0.067-1.669-0.091
		c-2.087-0.09-2.445-0.453-2.532-2.579c-0.013-0.319-0.005-0.64-0.005-0.959c0-21.176-0.009-42.353,0.028-63.529
		C2.209,73.851,1.607,72.626,2.998,72.06z"/>
	<path fill-rule="evenodd" clip-rule="evenodd" fill="#ACACAC" d="M415.751,427.665c-0.004-21.353-0.008-42.705-0.012-64.058
		c-0.001-0.72,0.012-1.439-0.006-2.159c-0.053-2.185-0.056-2.197-2.28-2.414c-0.724-0.07-1.479-0.062-1.997-0.646
		c-0.739-0.835-0.588-1.435,0.57-1.651c-0.066,0.577-0.122,1.171,0.675,1.265c0.554,0.065,1.116,0.046,1.673,0.088
		c1.497,0.113,1.974,0.536,2.146,2c0.076,0.632,0.043,1.277,0.044,1.917c0.001,20.706,0.009,41.413-0.021,62.119
		C416.542,425.329,417.006,426.711,415.751,427.665z"/>
	<path fill-rule="evenodd" clip-rule="evenodd" fill="#9B9B9B" d="M6.81,143.054c-0.019,0.301-0.038,0.602-0.057,0.902
		c-3.616,0.214-3.778-0.712-3.774,3.825C2.996,169.402,2.995,191.023,3,212.644c-0.345,0.27-0.673,0.381-0.938-0.099
		c-0.003-21.902-0.006-43.804-0.008-65.707c0-0.479-0.018-0.961,0.015-1.438c0.116-1.707,0.658-2.263,2.345-2.353
		C5.209,143.004,6.011,143.049,6.81,143.054z"/>
	<path fill-rule="evenodd" clip-rule="evenodd" fill="#363636" d="M6.698,214.984c-0.718-0.002-1.436-0.026-2.153-0.003
		c-1.736,0.056-1.825,0.145-1.929,1.95c-0.037,0.636-0.017,1.276-0.017,1.914c0,20.496,0,40.992,0,61.489c0,0.159,0,0.319,0,0.479
		c0.015,3.569,0.015,3.571,3.447,3.901c0.332,0.032,0.616,0.126,0.807,0.416c-1.037,0.011-2.074,0.045-3.109,0.025
		c-1.147-0.022-1.764-0.623-1.788-1.789c-0.013-0.638-0.029-1.276-0.029-1.915c-0.001-21.146-0.001-42.292-0.001-63.438
		c0-0.479-0.015-0.958,0.014-1.436c0.117-1.928,0.887-2.752,2.767-2.909c0.714-0.06,1.436-0.02,2.153-0.025
		C7.209,214.139,7.242,214.596,6.698,214.984z"/>
	<path fill-rule="evenodd" clip-rule="evenodd" fill="#C4C4C4" d="M138.798,427.653c0.004-1.344-0.016-2.688,0.02-4.031
		c0.02-0.769,0.319-1.452,1.17-1.554c1.004-0.121,1.412,0.637,1.569,1.439c0.274,1.391,0.148,2.845,0.617,4.212
		c-0.844,0.146-1.143-0.32-1.175-1.062c-0.04-0.944-0.054-1.89-0.104-2.834c-0.017-0.307-0.101-0.681-0.454-0.722
		c-0.519-0.062-0.643,0.38-0.67,0.77c-0.055,0.785-0.042,1.575-0.078,2.362C139.664,426.867,139.662,427.537,138.798,427.653z"/>
	<path fill-rule="evenodd" clip-rule="evenodd" fill="#2D2D2D" d="M279.92,422.935c0.03,1.581,0.061,3.163,0.092,4.744
		c-0.687-0.191-1.373-0.056-2.06-0.002c0.031-1.577,0.062-3.154,0.094-4.731C278.667,422.378,279.292,422.387,279.92,422.935z"/>
	<path fill-rule="evenodd" clip-rule="evenodd" fill="#C4C4C4" d="M3.026,69.599c1.176-0.145,2.358-0.17,3.53-0.012
		c0.633,0.085,1.299,0.308,1.321,1.099c0.024,0.862-0.585,1.299-1.351,1.346c-1.173,0.071-2.354,0.012-3.533,0.008
		c0.633-0.636,1.46-0.457,2.227-0.537c0.615-0.064,1.457-0.009,1.496-0.802c0.048-0.956-0.87-0.637-1.426-0.724
		C4.534,69.861,3.707,70.177,3.026,69.599z"/>
	<path fill-rule="evenodd" clip-rule="evenodd" fill="#D0D0D0" d="M141.143,4.69c-0.146,0.612-0.478,1.04-1.161,0.908
		c-0.595-0.115-0.979-0.543-1.09-1.136c-0.222-1.183-0.143-2.375-0.023-3.563c1.342,0.555,0.704,1.746,0.797,2.661
		C139.769,4.567,140.113,5.011,141.143,4.69z"/>
	<path fill-rule="evenodd" clip-rule="evenodd" fill="#A7A7A7" d="M69.808,423.031c0.122-0.467,0.269-0.956,0.867-0.917
		c0.719,0.048,1.152,0.573,1.268,1.198c0.242,1.305,0.291,2.633,0.114,3.958c-0.623-0.958-0.876-2.018-0.876-3.147
		C71.181,423.184,70.684,422.869,69.808,423.031z"/>
	<path fill-rule="evenodd" clip-rule="evenodd" fill="#A2A2A2" d="M415.738,212.632c-0.017,0.142-0.041,0.283-0.072,0.422
		c-1.231,0.215-2.601-0.48-3.707,0.562c-0.087,0.552,0.178,0.973,0.515,1.366c-0.816,0.06-1.413-0.221-1.422-1.12
		c-0.01-0.91,0.697-1.174,1.422-1.216C413.559,212.583,414.649,212.631,415.738,212.632z"/>
	<path fill-rule="evenodd" clip-rule="evenodd" fill="#363636" d="M2.062,212.544c0.313,0.033,0.625,0.066,0.938,0.099
		c1.231,0.037,2.462,0.073,3.693,0.11c0.173,0.086,0.233,0.177,0.182,0.274c-0.053,0.099-0.107,0.148-0.163,0.148
		C5.146,213.084,3.483,213.71,2.062,212.544z"/>
	<path fill-rule="evenodd" clip-rule="evenodd" fill="#C6C6C6" d="M6.713,213.175c0.001-0.141-0.005-0.281-0.019-0.422
		c1.465,0.904,1.466,1.322,0.004,2.23c0.054-0.447,0.107-0.894,0.161-1.34C6.811,213.488,6.762,213.332,6.713,213.175z"/>
	<path fill-rule="evenodd" clip-rule="evenodd" fill="#B8B8B8" d="M347.176,422.965c0.854-1.271,1.056-1.267,1.819,0.033
		C348.389,422.986,347.782,422.976,347.176,422.965z"/>
	<path fill-rule="evenodd" clip-rule="evenodd" fill="#C3C3C3" d="M349.006,4.744c-0.808,1.216-0.943,1.219-1.844,0.042
		C347.776,4.772,348.392,4.758,349.006,4.744z"/>
	<path fill-rule="evenodd" clip-rule="evenodd" fill="#5F5F5F" d="M368.774,73.971c-0.841,0.929-1.298,2.181-2.42,2.873
		c-2.913,1.034-3.751,0.542-3.48-2.04c1.699-2.577,3.758-4.859,5.859-7.104c0.215-0.177,0.453-0.307,0.719-0.389
		c2.281,0.208,2.087,1.703,1.712,3.292l0.001-0.002c-0.421,0.492-0.323,1.164-0.596,1.708
		C370.114,73.018,369.304,73.342,368.774,73.971z"/>
	<path fill-rule="evenodd" clip-rule="evenodd" fill="#5E5E5E" d="M357.752,86.976c-0.982,1.253-1.806,2.632-2.972,3.738
		c-0.385,0.355-0.893,0.238-1.341,0.351c-0.891,0.225-1.736,0.243-2.3-0.646c-0.48-0.758-0.328-1.513,0.162-2.198
		c0.275-0.384,0.357-0.876,0.717-1.204c1.196-0.607,1.629-1.879,2.458-2.803c0.685-0.763,1.475-1.433,2.218-2.144
		c0.873-0.681,1.846-1.155,2.714-0.151c0.729,0.842,0.665,1.916,0.099,2.863C359.026,85.585,358.538,86.407,357.752,86.976z"/>
	<path fill-rule="evenodd" clip-rule="evenodd" fill="#9F9F9F" d="M306.837,141.149c-0.342,0.157-0.684,0.313-1.025,0.47
		c0.116-0.559,0.363-1.059,0.753-1.471c3.655-3.871,6.992-8.017,10.426-12.08c0.195-0.231,0.522-0.352,0.788-0.524
		c0.227,0.064,0.414,0.188,0.571,0.362c0.325,1.419,0.429,2.847,0.128,4.286c-0.147,0.31-0.379,0.555-0.617,0.796
		c-0.791,0.771-1.667,1.473-2.35,2.33c-0.775,0.975-1.564,2-1.52,3.376c0.022,0.687-0.24,1.231-0.906,1.521
		c-1.545-1.355-2.978-1.489-4.326,0.307C308.306,141.129,307.617,141.369,306.837,141.149z"/>
	<path fill-rule="evenodd" clip-rule="evenodd" fill="#5D5D5D" d="M392.665,45.52c-0.804,0.765-1.509,1.596-2.147,2.519
		c-0.606,0.875-1.198,1.934-2.514,1.976c-2.382,0.255-2.822-0.396-1.997-2.958c1.756-2.085,3.512-4.169,5.268-6.254
		c0.88-0.481,1.762-0.804,2.59,0.084c0.719,0.77,0.365,1.597,0.176,2.46C393.838,44.266,393.254,44.879,392.665,45.52z"/>
	<path fill-rule="evenodd" clip-rule="evenodd" fill="#5C5C5C" d="M346.167,100.805c-1.063,1.334-1.955,2.816-3.336,3.877
		c-3.185,0.489-3.925-0.253-2.943-2.949c0.123-0.499,0.455-0.803,0.918-0.984c0.73-0.362,0.355-1.425,1.12-1.766
		c0.938-0.984,1.877-1.968,2.815-2.953c0.855-0.753,1.8-1.457,2.872-0.529c1.042,0.902,0.825,2.08,0.292,3.204
		c-0.199,0.421-0.443,0.821-0.764,1.167l-0.016-0.013C346.822,100.189,346.501,100.504,346.167,100.805z"/>
	<path fill-rule="evenodd" clip-rule="evenodd" fill="#5E5E5E" d="M402.852,33.185c-0.672,1.066-1.413,2.074-2.417,2.86
		c-0.921,0.455-1.881,0.914-2.789,0.072c-0.852-0.789-0.476-1.692-0.044-2.55c0.378-0.677,0.867-1.271,1.394-1.838
		c1.018-1.822,2.787-3.023,3.916-4.753c0.783-0.765,1.662-0.963,2.561-0.267c1.027,0.795,0.775,1.917,0.353,2.836
		C405.161,30.986,404.169,32.237,402.852,33.185z"/>
	<path fill-rule="evenodd" clip-rule="evenodd" fill="#5D5D5D" d="M380.28,60.067c-0.525,0.769-1.186,1.42-1.66,2.25
		c-0.447,0.78-1.121,1.514-2.167,1.614c-2.679-0.23-3.081-1.3-1.464-3.892c0.553-0.714,1.083-1.451,1.846-1.97
		c0.7-0.759,1.352-1.559,1.948-2.402c0.301-0.33,0.602-0.659,0.902-0.988c0.799-0.727,1.731-1.005,2.545-0.202
		c0.806,0.795,0.813,1.847,0.294,2.87C381.978,58.419,381.083,59.205,380.28,60.067z"/>
	<path fill-rule="evenodd" clip-rule="evenodd" fill="#9D9D9D" d="M357.752,86.976c0.131-0.736,0.711-1.202,1.079-1.796
		c1.075-1.737,0.607-2.745-1.432-3.086c-0.23-0.039-0.471-0.017-0.705-0.023c1.426-2.96,3.646-5.246,6.18-7.266
		c0.447,1.896,1.867,2.133,3.48,2.04c-0.287,0.374-0.556,0.75-0.992,0.994c-2.662,1.49-4.198,3.891-5.391,6.601
		C359.511,85.485,359.173,86.731,357.752,86.976z"/>
	<path fill-rule="evenodd" clip-rule="evenodd" fill="#A4A4A4" d="M402.852,33.185c0.265-1.155,1.394-1.668,1.942-2.639
		c1.256-2.216,0.795-3.166-1.883-3.57c0.328-1.244,1.489-1.836,2.208-2.777c1.206-1.579,2.581-3.029,3.885-4.533
		c0.577,2.243,0.805,2.433,3.034,2.529c-1.103,1.19-2.159,2.428-3.321,3.557c-1.154,1.12-2.011,2.379-2.633,3.869
		C405.442,31.154,404.546,32.557,402.852,33.185z"/>
	<path fill-rule="evenodd" clip-rule="evenodd" fill="#9C9C9C" d="M347.142,99.871c0.067-0.302,0.132-0.605,0.203-0.906
		c0.631-2.655,0.191-3.15-2.604-2.935c0.018-0.604,0.34-1.054,0.747-1.455c1.94-1.912,3.587-4.056,5.099-6.318
		c0.338-0.506,0.947-0.832,1.432-1.241c-0.05,0.308-0.095,0.618-0.151,0.925c-0.396,2.146-0.01,2.633,2.208,2.769
		c0.234,0.014,0.47,0.003,0.705,0.004c-2.455,1.182-4.185,3.143-5.719,5.316c-0.63,0.86-0.188,2.073-0.948,2.89
		C347.93,99.38,347.713,99.806,347.142,99.871z"/>
	<path fill-rule="evenodd" clip-rule="evenodd" fill="#9E9E9E" d="M398.058,33.157c-0.24,2.506-0.171,2.59,2.377,2.887
		c-0.95,1.036-2.078,1.876-3.032,2.929c-1.23,1.36-2.365,2.713-2.969,4.471c-0.311,0.902-0.729,1.768-1.768,2.075
		c0.166-0.346,0.333-0.691,0.5-1.037c1.065-2.199,0.549-3.203-1.892-3.681c2.073-2.557,4.147-5.113,6.221-7.67
		C397.694,32.885,397.882,32.894,398.058,33.157z"/>
	<path fill-rule="evenodd" clip-rule="evenodd" fill="#9D9D9D" d="M339.888,101.732c0.468,2.335,0.606,2.475,2.943,2.949
		c-2.426,0.812-3.577,3.054-5.254,4.704c-0.414,0.407-0.526,0.976-0.512,1.556c0.021,0.843-0.201,1.582-0.908,2.111
		c-0.222-0.04-0.422-0.128-0.602-0.266c-0.544-1.163-1.566-1.781-2.648-2.333c-0.153-0.166-0.251-0.361-0.3-0.582
		c2.037-2.45,4.074-4.9,6.11-7.351C339.032,102.143,339.401,101.852,339.888,101.732z"/>
	<path fill-rule="evenodd" clip-rule="evenodd" fill="#9C9C9C" d="M380.28,60.067c0.262-0.686,0.789-1.194,1.186-1.788
		c0.515-0.771,1.277-1.544,0.709-2.605c-0.538-1.004-1.477-1.118-2.489-0.996c1.732-2.852,4.232-5.067,6.321-7.623
		c-0.019,1.447,0.669,2.419,1.997,2.958c-0.911,1.075-1.822,2.15-2.733,3.226c-1.008,1.191-2.066,2.267-2.385,3.974
		C382.647,58.5,381.595,59.519,380.28,60.067z"/>
	<path fill-rule="evenodd" clip-rule="evenodd" fill="#9C9C9C" d="M331.968,118.143c-2.658,0.771-4.297,2.784-5.894,4.846
		c-0.806,0.431-0.294,1.443-0.872,1.977c-1.673,0.741-1.896-1.152-2.912-1.603c-0.129-0.18-0.205-0.38-0.217-0.603
		c0.165-0.715,0.541-1.354,1.037-1.841c2.032-1.994,3.493-4.492,5.664-6.357c0.216,0.022,0.415,0.091,0.596,0.212
		c0.801,0.915,1.02,2.311,2.318,2.819C331.837,117.748,331.93,117.931,331.968,118.143z"/>
	<path fill-rule="evenodd" clip-rule="evenodd" fill="#A0A0A0" d="M374.989,60.039c-0.629,1.718,0.202,2.886,1.464,3.892
		c-2.046,2-3.792,4.238-5.289,6.673c-0.148-1.294-0.858-2.211-1.937-2.88c-0.652-1.336,0.622-1.803,1.228-2.468
		c0.95-1.044,2.055-1.944,2.618-3.292C373.729,61.339,374.15,60.481,374.989,60.039z"/>
	<path fill-rule="evenodd" clip-rule="evenodd" fill="#CFCFCF" d="M137.912,328.886c-0.299,1.15-1.237,1.817-1.995,2.614
		c-1.584,1.667-3.182,3.323-4.787,4.97c-0.662,0.679-1.301,1.414-2.336,1.532c0.123-0.574,0.531-0.938,0.926-1.335
		c2.168-2.185,4.317-4.388,6.475-6.583C136.691,329.577,137.163,329.032,137.912,328.886z"/>
	<path fill-rule="evenodd" clip-rule="evenodd" fill="#CFCFCF" d="M125.913,340.885c-0.297,1.152-1.238,1.816-1.996,2.613
		c-1.585,1.667-3.182,3.324-4.787,4.972c-0.662,0.679-1.3,1.415-2.336,1.534c0.123-0.575,0.531-0.94,0.925-1.337
		c2.168-2.185,4.317-4.389,6.476-6.585C124.691,341.576,125.164,341.032,125.913,340.885z"/>
	<path fill-rule="evenodd" clip-rule="evenodd" fill="#969696" d="M317.855,128.179c-0.025-0.211-0.051-0.422-0.076-0.633
		c1.401-1.623,2.172-3.811,4.294-4.787c0.062,0.089,0.124,0.177,0.188,0.265C322.751,125.524,320.272,128.423,317.855,128.179z"/>
	<path fill-rule="evenodd" clip-rule="evenodd" fill="#ADADAD" d="M328.774,114.56c0.709-2.028,2.309-3.327,3.833-4.688
		c0.103,0.059,0.204,0.118,0.306,0.179c0.71,2.416-1.253,4.791-3.959,4.791C328.895,114.749,328.834,114.654,328.774,114.56z"/>
	<path fill-rule="evenodd" clip-rule="evenodd" fill="#C6C6C6" d="M373.073,61.963c-0.004,1.236-0.849,1.976-1.611,2.778
		c-0.859,0.904-1.943,1.648-2.234,2.981c-0.164-0.008-0.329-0.015-0.494-0.023c-0.027-0.942,0.437-1.678,1.043-2.324
		C370.859,64.224,371.973,63.1,373.073,61.963z"/>
	<path fill-rule="evenodd" clip-rule="evenodd" fill="#C9C9C9" d="M99.979,365.841c-1.208,1.875-2.212,3.978-4.804,4.31
		C96.839,368.783,98.015,366.871,99.979,365.841z"/>
	<path fill-rule="evenodd" clip-rule="evenodd" fill="#C8C8C8" d="M73.017,389.721c-1.551,1.191-2.542,3.153-4.747,3.439
		C69.612,391.684,70.976,390.234,73.017,389.721z"/>
	<path fill-rule="evenodd" clip-rule="evenodd" fill="#CFCFCF" d="M144.145,322.14c-0.211,2.073-1.501,3.211-3.351,3.862
		C141.575,324.423,143.125,323.511,144.145,322.14z"/>
	<path fill-rule="evenodd" clip-rule="evenodd" fill="#CECECE" d="M231.974,226.135c-0.143,1.312-0.714,2.312-2.017,2.782
		C230.369,227.801,230.979,226.829,231.974,226.135z"/>
	<path fill-rule="evenodd" clip-rule="evenodd" fill="#CECECE" d="M252.132,203.096c-0.327,1.176-0.713,2.312-1.945,2.876
		c-0.166-0.112-0.225-0.227-0.175-0.347c0.051-0.121,0.103-0.182,0.156-0.182C250.687,204.547,251.131,203.588,252.132,203.096z"/>
	<path fill-rule="evenodd" clip-rule="evenodd" fill="#D0D0D0" d="M51.964,405.174c-0.589,1.205-1.593,1.784-2.893,1.916
		C49.935,406.299,50.742,405.423,51.964,405.174z"/>
	<path fill-rule="evenodd" clip-rule="evenodd" fill="#ACACAC" d="M415.758,12.493c0.021,1.302-0.872,1.457-1.865,1.487
		C414.087,12.948,415.054,12.885,415.758,12.493z"/>
	<path fill-rule="evenodd" clip-rule="evenodd" fill="#9C9C9C" d="M378.783,55.666c-0.159,1.198-0.977,1.863-1.948,2.402
		C377.107,56.962,377.779,56.179,378.783,55.666z"/>
	<path fill-rule="evenodd" clip-rule="evenodd" fill="#CDCDCD" d="M14.07,424.902c-0.449,0.782-1.176,0.923-1.991,0.861
		C12.49,424.892,13.25,424.827,14.07,424.902z"/>
	<path fill-rule="evenodd" clip-rule="evenodd" fill="#C2C2C2" d="M278.037,4.798c0.63,0.003,1.259,0.006,1.89,0.009
		C279.04,5.952,278.919,5.951,278.037,4.798z"/>
	<path fill-rule="evenodd" clip-rule="evenodd" fill="#C8C8C8" d="M68.271,393.159c-0.312,1.253-1.145,1.853-2.404,1.917
		C66.668,394.438,67.469,393.799,68.271,393.159z"/>
	<path fill-rule="evenodd" clip-rule="evenodd" fill="#AAAAAA" d="M341.926,98.982c0.042,0.852-0.374,1.414-1.12,1.766
		C340.839,99.944,341.042,99.248,341.926,98.982z"/>
	<path fill-rule="evenodd" clip-rule="evenodd" fill="#CDCDCD" d="M26.942,419.982c-0.432,0.725-1.083,1.02-1.909,0.974
		C25.425,420.152,26.137,419.978,26.942,419.982z"/>
	<path fill-rule="evenodd" clip-rule="evenodd" fill="#CDCDCD" d="M28.864,419.021c-0.435,0.73-1.093,1.013-1.92,0.956
		C27.353,419.194,28.061,419.012,28.864,419.021z"/>
	<path fill-rule="evenodd" clip-rule="evenodd" fill="#D1D1D1" d="M250.168,205.443c0.006,0.176,0.013,0.352,0.019,0.528
		c-0.26,0.613-0.73,0.935-1.387,1C248.933,206.173,249.553,205.811,250.168,205.443z"/>
	<path fill-rule="evenodd" clip-rule="evenodd" fill="#9E9E9E" d="M398.058,33.157c-0.188-0.008-0.375-0.017-0.562-0.026
		c0.394-0.581,0.714-1.241,1.5-1.403C398.946,32.378,398.54,32.792,398.058,33.157z"/>
	<path fill-rule="evenodd" clip-rule="evenodd" fill="#5F5F5F" d="M283.339,172.879c-0.983-1.027-0.961-2.195-0.171-3.228
		c1.242-1.625,2.61-3.154,3.969-4.685c0.452-0.509,0.945-1.177,1.788-0.838c0.844,0.339,1.052,1.154,1.134,1.942
		c0.063,0.616-0.053,1.251-0.089,1.878c-1.092,1.315-2.19,2.626-3.275,3.948C285.795,172.993,284.679,173.309,283.339,172.879z"/>
	<path fill-rule="evenodd" clip-rule="evenodd" fill="#606060" d="M225.723,240.945c-0.859-1.131-0.676-2.114,0.284-3.132
		c1.191-1.262,2.277-2.622,3.404-3.944c0.7-0.822,1.51-1.117,2.512-0.555c1.445,1.766,1.482,2.241-0.005,3.83
		c-1.194,1.276-2.077,2.815-3.447,3.942C227.22,242.114,227.24,242.139,225.723,240.945z"/>
	<path fill-rule="evenodd" clip-rule="evenodd" fill="#636363" d="M75.89,417.119c1.395-1.708,2.739-3.459,4.211-5.097
		c0.473-0.526,1.007-1.541,2.094-0.468c1.209,1.195,1.571,1.941,0.771,3.02c-0.984,1.326-2.082,2.569-3.133,3.848
		c-0.395,0.48-0.979,0.826-1.065,1.521c-0.595,0.646-1.223,0.578-1.87,0.088c-0.322-0.32-0.644-0.64-0.965-0.959
		C75.418,418.432,75.428,417.78,75.89,417.119z"/>
	<path fill-rule="evenodd" clip-rule="evenodd" fill="#5F5F5F" d="M306.837,141.149c1.022-1.093,2.033-2.197,3.072-3.274
		c0.616-0.64,1.32-1.23,2.282-0.866c0.927,0.352,0.8,1.254,0.855,2.027c0.028,0.393,0.026,0.788,0.038,1.182
		c-0.022,0.134-0.055,0.265-0.098,0.393c-1.692,1.082-2.305,3.096-3.772,4.371c-0.485,0.618-1.052,1.07-1.906,0.938
		c-0.211-0.236-0.416-0.479-0.636-0.709c-1.339-1.395-1.35-1.531-0.288-3.229C306.552,141.715,306.688,141.428,306.837,141.149z"/>
	<path fill-rule="evenodd" clip-rule="evenodd" fill="#5E5E5E" d="M296.289,159.814c-0.214-0.449-0.563-0.699-1.021-0.919
		c-1.47-0.708-1.668-1.147-0.811-2.504c1.227-1.941,2.808-3.616,4.502-5.166c0.742-0.678,1.513-0.84,2.203,0.148
		c0.22,0.316,0.561,0.548,0.846,0.819c-0.007,0.315-0.014,0.63-0.02,0.946c-0.526,1.599-1.93,2.534-2.885,3.808
		C298.522,158.252,297.368,158.996,296.289,159.814z"/>
	<path fill-rule="evenodd" clip-rule="evenodd" fill="#5E5E5E" d="M237.245,227.038c-0.77-1.386-0.483-2.517,0.67-3.604
		c0.915-0.862,1.629-1.934,2.482-2.866c1.658-1.813,1.673-1.8,3.475-0.095c0.525,0.061,0.77,0.439,0.976,0.862
		c0.008,0.133-0.006,0.263-0.039,0.391c-0.31,0.419-0.535,0.898-0.908,1.272c-0.772,0.591-1.233,1.45-1.87,2.159
		c-0.037,0.136-0.052,0.275-0.043,0.417c-1.004,1.227-1.631,2.949-3.681,2.799C237.881,227.985,237.377,227.66,237.245,227.038z"/>
	<path fill-rule="evenodd" clip-rule="evenodd" fill="#676767" d="M100.71,392.769c-1.003,0.037-2.119-1.449-1.928-2.44
		c0.087-0.452,0.272-0.948,0.571-1.284c1.199-1.352,2.322-2.761,3.452-4.171c0.965-1.203,1.833-1.221,2.808-0.329
		c1.024,0.937,1.142,1.768,0.192,2.861c-1.347,1.549-2.467,3.302-4.07,4.622C101.375,392.323,100.979,392.576,100.71,392.769z"/>
	<path fill-rule="evenodd" clip-rule="evenodd" fill="#5E5E5E" d="M253.031,211.697c-0.532,0.473-1.058,0.955-1.599,1.417
		c-1.064,0.909-1.712,0.9-2.713,0.107c-0.928-0.735-0.73-1.54-0.146-2.282c1.361-1.729,2.776-3.418,4.197-5.099
		c0.753-0.89,1.503-0.68,2.188,0.127c0.525,0.111,0.611,0.669,0.968,0.951l0.02-0.017c0.507,0.645,0.511,1.285-0.016,1.921
		C254.718,209.533,254.021,210.762,253.031,211.697z"/>
	<path fill-rule="evenodd" clip-rule="evenodd" fill="#636363" d="M146.048,333.163c1.278-0.865,1.98-2.248,3.01-3.335
		c1.041-1.099,1.507-1.149,2.406-0.396c1.138,0.952,1.364,1.828,0.582,2.835c-1.16,1.497-2.34,2.987-3.626,4.375
		c-1.403,1.516-1.527,1.47-3.366,0.35c-0.617-0.804-0.514-1.6,0.028-2.391l-0.003,0.009
		C145.533,334.215,145.625,333.578,146.048,333.163z"/>
	<path fill-rule="evenodd" clip-rule="evenodd" fill="#5D5D5D" d="M276.21,183.949c-0.556,0.569-1.139,1.116-1.662,1.713
		c-0.853,0.974-1.734,0.921-2.729,0.226c-0.974-0.682-1.158-1.199-0.31-2.132c1.294-1.421,2.394-2.991,3.637-4.442
		c1.346-1.569,2.016-1.471,3.359,0.176c0.151,0.185,0.319,0.357,0.479,0.535C279.122,182.084,277.378,182.813,276.21,183.949z"/>
	<path fill-rule="evenodd" clip-rule="evenodd" fill="#5E5E5E" d="M112.152,378.913c-1.408-0.061-2.414-1.682-1.785-2.76
		c0.354-0.607,0.883-1.112,1.327-1.667c0.789-0.983,1.713-1.826,2.35-2.974c0.85-1.531,1.842-1.715,2.874-0.888
		c1.264,1.014,1.352,1.91,0.249,3.223c-1.221,1.453-2.355,2.986-3.789,4.252C112.975,378.455,112.726,379.069,112.152,378.913z"/>
	<path fill-rule="evenodd" clip-rule="evenodd" fill="#606060" d="M86.96,404.683c0.814-2.782,3.227-4.385,4.898-6.527
		c0.598-0.766,1.569-0.505,2.307,0.196c0.931,0.885,1.142,1.616,0.385,2.443c-1.598,1.747-2.868,3.779-4.676,5.337
		c-0.65,0.474-1.284,0.524-1.891-0.077l0.025-0.03C87.408,405.773,87.391,405.066,86.96,404.683z"/>
	<path fill-rule="evenodd" clip-rule="evenodd" fill="#5D5D5D" d="M214.232,254.813c-0.256-1.923-0.012-3.645,1.858-4.741
		c0.501-0.293,0.752-0.786,0.941-1.326c0.478-1.364,1.476-1.997,2.901-1.995c0.378,0.257,0.812,0.455,0.995,0.921
		c0.567,0.828,0.545,1.662,0.028,2.501c-1.32,1.56-2.641,3.119-3.961,4.679c-0.3,0.574-1.016,0.539-1.415,0.966
		C214.801,255.928,214.669,255.166,214.232,254.813z"/>
	<path fill-rule="evenodd" clip-rule="evenodd" fill="#616161" d="M122.497,364.83c-0.154-0.162-0.31-0.325-0.464-0.488
		c-0.548-0.797-0.458-1.588,0.023-2.375c1.273-1.521,2.521-3.067,3.829-4.559c1.068-1.219,1.628-1.277,2.572-0.437
		c1.24,1.106,1.317,1.778,0.3,3.036c-1.289,1.594-2.598,3.172-3.897,4.756C124.091,365.424,123.3,365.334,122.497,364.83z"/>
	<path fill-rule="evenodd" clip-rule="evenodd" fill="#616161" d="M162.877,315.816c1.276,1.319,1.457,1.961,0.595,2.976
		c-1.274,1.498-2.641,2.919-3.975,4.365c-0.704,0.763-1.461,1.208-2.443,0.405c-1.046-0.854-1.143-1.306-0.323-2.609
		c1.175-1.867,2.832-3.346,4.175-5.08C161.548,315.338,162.206,315.366,162.877,315.816z"/>
	<path fill-rule="evenodd" clip-rule="evenodd" fill="#606060" d="M134.002,350.923c-0.776-0.578-1.088-1.083-0.519-2.167
		c1.058-2.015,2.88-3.359,4.119-5.195c0.563-0.836,1.396-1,2.279-0.36c0.977,0.707,1.44,1.967,0.664,2.669
		c-1.709,1.547-2.482,3.897-4.533,5.111C135.329,351.415,134.657,351.439,134.002,350.923z"/>
	<path fill-rule="evenodd" clip-rule="evenodd" fill="#626262" d="M186.879,290.938c-0.734,0.858-1.764,1.493-2.048,2.694
		c-0.529,1.094-1.428,1.888-2.296,2.679c-0.919,0.839-1.817,0.894-2.855-0.068c-1.038-0.96-1.065-1.931-0.341-2.887
		c0.656-0.869,1.478-1.634,2.263-2.409l-0.026,0.016c0.246-0.308,0.48-0.629,0.633-0.99c1.299-3.08,2.397-3.29,4.807-0.906
		C187.358,289.719,187.308,290.341,186.879,290.938z"/>
	<path fill-rule="evenodd" clip-rule="evenodd" fill="#5C5C5C" d="M263.167,199.735c-0.307,0.082-0.632,0.123-0.916,0.253
		c-0.915,0.422-1.589-0.073-2.099-0.672c-0.577-0.678-0.487-1.575,0.034-2.226c1.292-1.609,2.62-3.201,4.061-4.674
		c0.922-0.942,1.296-0.785,2.74,0.562c0.09,0.087,0.179,0.175,0.268,0.262c0.287,0.63,0.166,1.214-0.195,1.772
		c-0.215,0.844-0.949,1.264-1.5,1.833c-0.861,0.335-0.789,1.408-1.482,1.876l-0.004,0.006c-0.285,0.352-0.632,0.647-0.908,1.007
		L263.167,199.735z"/>
	<path fill-rule="evenodd" clip-rule="evenodd" fill="#606060" d="M198.814,276.036c0.005,0.814-0.617,1.287-1.095,1.766
		c-1.444,1.451-2.5,3.194-3.754,4.786c-1.05,0.825-2.018,0.712-2.84-0.315c-0.899-1.125-1.061-2.421-0.214-3.567
		c0.755-1.021,1.623-1.982,2.517-2.903C195.984,273.169,196.538,273.194,198.814,276.036z"/>
	<path fill-rule="evenodd" clip-rule="evenodd" fill="#646464" d="M174.884,304.918c-0.443,1.084-1.685,1.598-1.993,2.78
		c-0.526,0.588-1.011,1.212-1.528,1.809c-0.951,1.095-1.917,1.286-3.052,0.322c-1.103-0.936-0.829-1.922-0.101-2.906
		c0.281-0.38,0.583-0.747,0.886-1.113c1.35-0.804,1.868-2.317,2.896-3.391c1.157-1.208,1.681-1.125,2.925,0.359
		C175.326,303.498,175.34,304.211,174.884,304.918z"/>
	<path fill-rule="evenodd" clip-rule="evenodd" fill="#5E5E5E" d="M202.132,266.85c1.515-1.05,2.348-2.71,3.577-4.021
		c1.783-1.9,1.768-1.969,4.173-0.737c0.102,0.734,0.021,1.377-0.527,1.981c-1.117,1.229-2.122,2.56-3.237,3.79
		c-1.76,1.94-3.328,1.584-4.422-0.955C201.823,266.76,201.969,266.734,202.132,266.85z"/>
	<path fill-rule="evenodd" clip-rule="evenodd" fill="#DBDBDB" d="M198.814,276.036c-2.546-2.064-2.535-2.055-4.824,0.612
		c-0.67,0.78-1.421,1.492-2.134,2.235c-0.789,0.824-1.09,1.792-0.562,2.831c0.568,1.119,1.578,1.197,2.672,0.874
		c-0.798,1.222-1.747,0.996-2.786,0.331c-1.14-0.729-1.353-2.027-1.973-3.075c2.158-3.097,4.51-6.011,7.667-8.169
		c-0.458,0.919-0.701,1.691,0.58,2.27C198.232,274.296,198.7,275.115,198.814,276.036z"/>
	<path fill-rule="evenodd" clip-rule="evenodd" fill="#EBEBEB" d="M186.785,289.005c-2.159-1.362-2.376-1.326-3.896,0.714
		c-0.367,0.495-0.621,1.099-1.315,1.243c0.071-0.754,0.451-1.595-0.571-2.043c0.631-1.29,1.489-2.355,2.865-2.911
		c0.243,0.516,0.619,0.883,1.17,1.062c1.014,0.33,1.709,1.038,2.265,1.913C187.138,289.163,186.965,289.17,186.785,289.005z"/>
	<path fill-rule="evenodd" clip-rule="evenodd" fill="#EBEBEB" d="M181.602,290.947c-0.329,1.039-1.293,1.603-1.855,2.469
		c-0.736,1.135-0.625,1.83,0.369,2.684c0.866,0.745,1.525,0.47,2.282-0.221c0.815-0.744,1.404-1.738,2.434-2.248
		c-0.062,1.231-0.959,1.958-1.73,2.72c-1.017,1.003-2.389,1.061-3.42,0.263c-1.087-0.841-1.383-2.39-0.566-3.603
		C179.726,292.102,180.45,291.245,181.602,290.947z"/>
	<path fill-rule="evenodd" clip-rule="evenodd" fill="#C4C4C4" d="M169.096,305.81c-0.056,0.667-0.505,1.139-0.821,1.681
		c-0.455,0.781-0.393,1.513,0.346,2.106c0.729,0.585,1.435,0.518,2.14-0.075c0.716-0.602,1.169-1.512,2.131-1.824
		c-0.116,0.94-0.8,1.51-1.411,2.111c-1.385,1.363-1.991,1.422-3.203,0.378c-1.234-1.062-1.329-2.076-0.253-3.485
		C168.299,306.341,168.734,306.104,169.096,305.81z"/>
	<path fill-rule="evenodd" clip-rule="evenodd" fill="#DBDBDB" d="M202.132,266.85c-0.145,0.027-0.29,0.046-0.437,0.058
		c-1.757,1.446-3.259,3.149-4.833,4.78c0.032-0.56,0.151-1.101,0.496-1.551c1.371-1.796,3.027-3.296,4.706-4.829
		C202.568,265.988,202.123,266.405,202.132,266.85z"/>
	<path fill-rule="evenodd" clip-rule="evenodd" fill="#DCDCDC" d="M266.987,192.979c0.054-2.648,1.968-3.938,3.838-5.261
		c-0.217,1.086-1.053,1.733-1.767,2.459c-0.798,0.813-1.494,1.654-1.204,2.911c-0.32,0.213-0.613,0.175-0.881-0.094L266.987,192.979
		z"/>
	<path fill-rule="evenodd" clip-rule="evenodd" fill="#D3D3D3" d="M114.755,357.102c0.936-1.956,2.273-3.511,4.341-4.333
		C117.928,354.492,116.484,355.939,114.755,357.102z"/>
	<path fill-rule="evenodd" clip-rule="evenodd" fill="#DDDDDD" d="M238.157,228.037c0.838,0.005,1.463-0.375,2.04-0.973
		c0.536-0.555,1.188-0.998,1.79-1.49c-0.233,1.338-1.119,2.201-2.179,2.91c-0.827,0.554-1.61,0.576-2.191-0.39
		C237.771,227.827,237.951,227.808,238.157,228.037z"/>
	<path fill-rule="evenodd" clip-rule="evenodd" fill="#A6A6A6" d="M309.215,144.982c0.944-1.727,1.816-3.517,3.772-4.371
		C311.746,142.082,311.116,144.081,309.215,144.982z"/>
	<path fill-rule="evenodd" clip-rule="evenodd" fill="#C4C4C4" d="M336.157,113.052c-0.747,1.677-1.887,3.05-3.279,4.226
		c-0.257-0.073-0.45-0.227-0.584-0.458c0.033-2.488,1.383-3.979,3.766-4.159C336.091,112.792,336.124,112.922,336.157,113.052z"/>
	<path fill-rule="evenodd" clip-rule="evenodd" fill="#9C9C9C" d="M299.104,156.945c0.465-1.645,1.887-2.566,2.885-3.808
		C301.934,155.093,300.342,155.886,299.104,156.945z"/>
	<path fill-rule="evenodd" clip-rule="evenodd" fill="#CFCFCF" d="M69.648,396.927c0.896-1.232,1.868-2.372,3.417-2.812
		C72.238,395.432,71.216,396.51,69.648,396.927z"/>
	<path fill-rule="evenodd" clip-rule="evenodd" fill="#D8D8D8" d="M324.966,124.867c0.146-0.758,0.162-1.593,1.108-1.878
		c-0.153,0.973,0.226,2.107-0.853,2.798c-0.195,0.064-0.341,0.005-0.438-0.177C324.705,125.328,324.724,125.07,324.966,124.867z"/>
	<path fill-rule="evenodd" clip-rule="evenodd" fill="#9C9C9C" d="M325.222,125.787c-0.435,1.607-1.686,2.532-2.906,3.484
		c-0.248-0.111-0.417-0.295-0.509-0.552c0.29-2.238,1.024-2.92,3.126-2.902C325.028,125.801,325.125,125.791,325.222,125.787z"/>
	<path fill-rule="evenodd" clip-rule="evenodd" fill="#B6B6B6" d="M242.03,225.157c0.114-1.195,0.926-1.861,1.852-2.44
		c0.197-0.155,0.385-0.151,0.559,0.039C243.734,223.655,243.104,224.627,242.03,225.157z"/>
	<path fill-rule="evenodd" clip-rule="evenodd" fill="#CECECE" d="M317.86,132.99c0-0.336,0-0.671-0.001-1.007
		c0.524-0.5,1.102-0.806,1.845-0.501c0.249,0.128,0.439,0.317,0.57,0.565C319.763,133.113,318.776,132.96,317.86,132.99z"/>
	<path fill-rule="evenodd" clip-rule="evenodd" fill="#C7C7C7" d="M368.774,73.971c0.139-0.892,1.045-1.214,1.429-1.923
		c0.249-0.322,0.53-0.288,0.829-0.079C370.699,73.109,369.841,73.658,368.774,73.971z"/>
	<path fill-rule="evenodd" clip-rule="evenodd" fill="#9B9B9B" d="M220.957,250.174c-0.009-0.834-0.019-1.667-0.028-2.501
		C222.181,248.806,222.184,249.043,220.957,250.174z"/>
	<path fill-rule="evenodd" clip-rule="evenodd" fill="#CECECE" d="M348.113,98.919c-0.002-1.068,0.117-2.096,0.948-2.89
		C349.011,97.08,349.294,98.24,348.113,98.919z"/>
	<path fill-rule="evenodd" clip-rule="evenodd" fill="#C8C8C8" d="M145.082,334.601c-0.01,0.797-0.019,1.594-0.028,2.391
		C143.884,335.942,143.886,335.822,145.082,334.601z"/>
	<path fill-rule="evenodd" clip-rule="evenodd" fill="#EBEBEB" d="M179.159,290.918c0.226-1.029,0.78-1.751,1.854-1.992
		C180.749,289.92,180.104,290.559,179.159,290.918z"/>
	<path fill-rule="evenodd" clip-rule="evenodd" fill="#C3C3C3" d="M255.928,206.919c-0.544-0.092-0.834-0.442-0.968-0.951
		c0.145-0.471,0.4-0.846,0.881-1.029C255.869,205.599,255.898,206.259,255.928,206.919z"/>
	<path fill-rule="evenodd" clip-rule="evenodd" fill="#9E9E9E" d="M162.877,315.816c-0.657,0.019-1.314,0.038-1.972,0.057
		C161.762,314.655,161.992,314.648,162.877,315.816z"/>
	<path fill-rule="evenodd" clip-rule="evenodd" fill="#929292" d="M174.884,304.918c0.011-0.713,0.021-1.427,0.033-2.141
		C176.095,303.675,176.091,303.982,174.884,304.918z"/>
	<path fill-rule="evenodd" clip-rule="evenodd" fill="#D3D3D3" d="M255.932,208.824c0.005-0.641,0.011-1.281,0.016-1.921
		C257.042,207.832,257.042,207.898,255.932,208.824z"/>
	<path fill-rule="evenodd" clip-rule="evenodd" fill="#D3D3D3" d="M186.785,289.005c0.172-0.007,0.345-0.014,0.518-0.021
		c0.467,0.783,0.55,1.483-0.424,1.954C186.848,290.293,186.816,289.649,186.785,289.005z"/>
	<path fill-rule="evenodd" clip-rule="evenodd" fill="#C7C7C7" d="M87.983,406.055c0.63,0.025,1.26,0.052,1.891,0.077
		C88.952,407.228,88.837,407.223,87.983,406.055z"/>
	<path fill-rule="evenodd" clip-rule="evenodd" fill="#C0C0C0" d="M75.89,417.119c0.014,0.65,0.028,1.302,0.043,1.953
		C74.79,418.195,74.789,418.127,75.89,417.119z"/>
	<path fill-rule="evenodd" clip-rule="evenodd" fill="#909090" d="M266.974,192.994c0.293,0.031,0.587,0.062,0.881,0.094
		c0.01,0.755,0.365,1.653-0.795,1.925C267.031,194.34,267.002,193.667,266.974,192.994z"/>
	<path fill-rule="evenodd" clip-rule="evenodd" fill="#D3D3D3" d="M76.897,420.031c0.623-0.029,1.247-0.059,1.87-0.088
		C77.938,421.147,77.839,421.152,76.897,420.031z"/>
	<path fill-rule="evenodd" clip-rule="evenodd" fill="#B8B8B8" d="M279.92,422.935c-0.625,0.004-1.25,0.007-1.874,0.011
		C278.894,421.712,279.083,421.711,279.92,422.935z"/>
	<path fill-rule="evenodd" clip-rule="evenodd" fill="#A3A3A3" d="M134.002,350.923c0.67,0.019,1.341,0.038,2.011,0.058
		C135.188,352.164,134.878,352.155,134.002,350.923z"/>
	<path fill-rule="evenodd" clip-rule="evenodd" fill="#C4C4C4" d="M122.497,364.83c0.788-0.021,1.576-0.044,2.363-0.066
		C123.708,365.995,123.631,365.998,122.497,364.83z"/>
	<path fill-rule="evenodd" clip-rule="evenodd" fill="#9C9C9C" d="M264.077,198.723c0.141-0.905,0.497-1.638,1.482-1.876
		C265.115,197.512,265.062,198.484,264.077,198.723z"/>
	<path fill-rule="evenodd" clip-rule="evenodd" fill="#C2C2C2" d="M122.057,361.967c-0.009,0.792-0.016,1.583-0.023,2.375
		C120.937,363.299,120.937,363.299,122.057,361.967z"/>
	<path fill-rule="evenodd" clip-rule="evenodd" fill="#9C9C9C" d="M322.315,129.271c-0.175,0.874-0.553,1.592-1.457,1.909
		c-0.225-0.099-0.385-0.262-0.482-0.487c-0.085-1.225,0.434-1.824,1.704-1.642C322.158,129.125,322.237,129.198,322.315,129.271z"/>
	<path fill-rule="evenodd" clip-rule="evenodd" fill="#D2D2D2" d="M66.839,398.927c0.218-0.687,0.721-0.97,1.406-0.997
		C68.012,398.594,67.518,398.891,66.839,398.927z"/>
	<path fill-rule="evenodd" clip-rule="evenodd" fill="#EBEBEB" d="M177.595,292.792c0.31-0.796,0.917-1.346,1.557-1.867
		C179.101,291.937,178.498,292.49,177.595,292.792z"/>
	<path fill-rule="evenodd" clip-rule="evenodd" fill="#AAAAAA" d="M215.581,255.818c0.236-0.666,0.731-0.954,1.415-0.966
		C216.788,255.562,216.331,255.905,215.581,255.818z"/>
	<path fill-rule="evenodd" clip-rule="evenodd" fill="#CDCDCD" d="M34.678,420.054c0.335-0.551,0.804-0.891,1.461-0.938
		C35.873,419.773,35.344,420.021,34.678,420.054z"/>
	<path fill-rule="evenodd" clip-rule="evenodd" fill="#B2B2B2" d="M86.96,404.683c0.557,0.285,0.979,0.676,1.049,1.342
		C87.29,405.865,86.972,405.395,86.96,404.683z"/>
	<path fill-rule="evenodd" clip-rule="evenodd" fill="#D2D2D2" d="M238.157,228.037c-0.18,0.019-0.359,0.037-0.539,0.056
		c-0.43-0.18-0.763-0.461-0.949-0.896c0.191-0.052,0.384-0.105,0.576-0.158C237.549,227.371,237.853,227.704,238.157,228.037z"/>
	<path fill-rule="evenodd" clip-rule="evenodd" fill="#8C8C8C" d="M412.967,21.246c0.014-0.709,0.371-1.189,0.994-1.491
		C413.937,20.457,413.664,20.993,412.967,21.246z"/>
	<path fill-rule="evenodd" clip-rule="evenodd" fill="#C8C8C8" d="M146.048,333.163c0.007,0.703-0.306,1.192-0.969,1.446
		C145.106,333.929,145.485,333.484,146.048,333.163z"/>
	<path fill-rule="evenodd" clip-rule="evenodd" fill="#CDCDCD" d="M302.063,151.255c-0.012-0.699,0.25-1.211,0.965-1.415
		C302.907,150.448,302.558,150.9,302.063,151.255z"/>
	<path fill-rule="evenodd" clip-rule="evenodd" fill="#A0A0A0" d="M371.032,71.969c-0.276,0.026-0.553,0.052-0.829,0.078
		c0.264-0.52,0.491-1.063,0.961-1.446C371.12,71.057,371.076,71.513,371.032,71.969z"/>
	<path fill-rule="evenodd" clip-rule="evenodd" fill="#929292" d="M346.167,100.805c0.137-0.5,0.435-0.839,0.959-0.947
		C347.002,100.372,346.748,100.755,346.167,100.805z"/>
	<path fill-rule="evenodd" clip-rule="evenodd" fill="#C4C4C4" d="M332.878,117.278c-0.21,0.387-0.48,0.711-0.911,0.864
		c-0.13-0.032-0.26-0.064-0.391-0.097c-0.118-0.836,0.167-1.241,1.062-0.997C332.718,117.125,332.798,117.202,332.878,117.278z"/>
	<path fill-rule="evenodd" clip-rule="evenodd" fill="#9C9C9C" d="M320.274,132.047c-0.188-0.034-0.375-0.068-0.562-0.103
		c-0.281-0.88,0.058-1.178,0.922-0.982c0.074,0.073,0.148,0.145,0.224,0.216C320.663,131.469,320.469,131.758,320.274,132.047z"/>
	<path fill-rule="evenodd" clip-rule="evenodd" fill="#CDCDCD" d="M33.657,420.937c0.198-0.461,0.506-0.794,1.024-0.883
		C34.493,420.526,34.182,420.854,33.657,420.937z"/>
	<path fill-rule="evenodd" clip-rule="evenodd" fill="#DBDBDB" d="M188.243,280.817c0.167-0.474,0.457-0.827,0.961-0.966
		C189.05,280.338,188.751,280.682,188.243,280.817z"/>
	<path fill-rule="evenodd" clip-rule="evenodd" fill="#A7A7A7" d="M244.44,222.756c-0.187-0.013-0.373-0.026-0.559-0.039
		c0.148-0.479,0.424-0.841,0.927-0.99C244.836,222.124,244.719,222.469,244.44,222.756z"/>
	<path fill-rule="evenodd" clip-rule="evenodd" fill="#A7A7A7" d="M244.848,221.335c-0.325-0.288-0.65-0.576-0.976-0.863
		c0.021-0.198,0.042-0.397,0.062-0.597C244.437,220.239,244.876,220.642,244.848,221.335z"/>
	<path fill-rule="evenodd" clip-rule="evenodd" fill="#9C9C9C" d="M263.165,199.736c0.088-0.529,0.4-0.856,0.909-1.007
		C264.007,199.277,263.703,199.613,263.165,199.736z"/>
	<path fill-rule="evenodd" clip-rule="evenodd" fill="#5C5C5C" d="M320.634,130.962c-0.418,0.224-0.731,0.545-0.922,0.982
		c-0.618,0.013-1.235,0.026-1.853,0.039c-0.824-1.268-1.257-2.535-0.004-3.804c1.907-1.345,2.978-3.403,4.405-5.156
		c1.561-0.352,2.055,0.861,2.706,1.843c-0.012,0.316-0.022,0.633-0.034,0.95c-0.95,1.079-1.9,2.157-2.852,3.235
		C321.599,129.688,321.116,130.325,320.634,130.962z"/>
	<path fill-rule="evenodd" clip-rule="evenodd" fill="#5C5C5C" d="M332.639,117.048c-0.476,0.204-0.759,0.61-1.062,0.998
		c-2.817-0.03-3-0.252-2.623-3.204c1.548-1.408,3.112-2.803,3.959-4.791c0.857-0.104,1.602-1.179,2.593-0.206
		c0.86,0.844,0.908,1.773,0.554,2.817C335.042,114.219,333.356,115.257,332.639,117.048z"/>
</g>
</svg>
