<?xml version="1.0" encoding="iso-8859-1"?>
<!-- Generator: Adobe Illustrator 16.0.0, SVG Export Plug-In . SVG Version: 6.00 Build 0)  -->
<!DOCTYPE svg PUBLIC "-//W3C//DTD SVG 1.1//EN" "http://www.w3.org/Graphics/SVG/1.1/DTD/svg11.dtd">
<svg version="1.1" id="Layer_1" xmlns="http://www.w3.org/2000/svg" xmlns:xlink="http://www.w3.org/1999/xlink" x="0px" y="0px"
	 width="566.929px" height="85.039px" viewBox="0 0 566.929 85.039" style="enable-background:new 0 0 566.929 85.039;"
	 xml:space="preserve">
<g>
	<path d="M33.78,47.889l-0.794,3.742c-0.009,0.019-0.017,0.054-0.021,0.105c-0.005,0.053-0.012,0.098-0.021,0.135
		c-0.009,0.038-0.023,0.066-0.042,0.085c-0.113,0.114-0.657,0.293-1.63,0.539c-1.672,0.368-2.996,0.16-3.968-0.624
		c-0.501-0.425-0.851-0.916-1.049-1.474c-0.397-0.992-0.411-2.079-0.043-3.26c0.321-1.049,0.881-1.978,1.68-2.785
		s1.722-1.344,2.771-1.608c0.945-0.236,1.899-0.208,2.863,0.085c0.321,0.094,0.69,0.251,1.105,0.468l-0.382,0.992
		c-0.52-0.369-0.803-0.562-0.851-0.581c-0.312-0.151-0.685-0.255-1.12-0.312s-0.87-0.048-1.304,0.027
		c-0.954,0.189-1.783,0.686-2.487,1.488c-0.704,0.804-1.174,1.706-1.41,2.707c-0.236,1.077-0.142,2.013,0.284,2.807
		c0.227,0.425,0.505,0.751,0.836,0.978c0.822,0.605,2.018,0.681,3.586,0.228c0.189-0.057,0.298-0.108,0.326-0.156
		c0-0.01,0.151-0.718,0.453-2.126c0.057-0.321,0.109-0.558,0.156-0.709h-2.225c0.057-0.34,0.113-0.581,0.17-0.723l0.227-0.028H33.78
		z"/>
</g>
<g>
	<path d="M35.995,54.42c0,0.007-0.03,0.153-0.089,0.441s-0.123,0.58-0.188,0.878c-0.066,0.298-0.103,0.46-0.109,0.486
		c-0.04,0.105-0.119,0.182-0.238,0.229c-0.119,0.046-0.228,0.036-0.328-0.03c-0.086-0.066-0.105-0.205-0.06-0.417
		c0.033-0.152,0.147-0.685,0.342-1.597c0.195-0.913,0.382-1.788,0.561-2.624c0.179-0.837,0.274-1.285,0.288-1.345
		c0.033-0.159,0.06-0.258,0.079-0.298c0.08-0.179,0.222-0.251,0.427-0.218c0.146,0.02,0.218,0.103,0.218,0.248
		c0,0.02-0.031,0.18-0.094,0.48c-0.063,0.302-0.134,0.639-0.213,1.013c-0.079,0.373-0.132,0.623-0.159,0.749
		c-0.093,0.43-0.139,0.707-0.139,0.833c0,0.437,0.148,0.731,0.446,0.883c0.297,0.152,0.602,0.149,0.913-0.01
		c0.199-0.105,0.371-0.258,0.516-0.456s0.268-0.441,0.367-0.729c0.099-0.288,0.177-0.546,0.233-0.773
		c0.056-0.229,0.117-0.512,0.184-0.849c0.006-0.046,0.013-0.084,0.02-0.114c0.006-0.029,0.013-0.061,0.02-0.094
		c0.013-0.066,0.035-0.162,0.064-0.288s0.051-0.222,0.064-0.288c0.033-0.165,0.06-0.271,0.08-0.317
		c0.092-0.146,0.218-0.218,0.377-0.218c0.165,0.013,0.254,0.096,0.268,0.248c0,0.026-0.048,0.271-0.144,0.734
		c-0.096,0.463-0.198,0.949-0.308,1.458c-0.109,0.51-0.167,0.78-0.173,0.813c-0.033,0.146-0.057,0.255-0.07,0.327
		c-0.013,0.073-0.01,0.169,0.01,0.288c0.02,0.119,0.073,0.212,0.159,0.277c0.105,0.093,0.208,0.116,0.308,0.07
		c0.132-0.08,0.251-0.351,0.357-0.814c0.006-0.013,0.015-0.041,0.025-0.084s0.018-0.083,0.025-0.119
		c0.006-0.036,0.013-0.058,0.02-0.064c0.013-0.013,0.073-0.02,0.179-0.02h0.486c-0.007,0.053-0.043,0.202-0.109,0.446
		c-0.185,0.522-0.417,0.877-0.694,1.062c-0.258,0.165-0.541,0.188-0.848,0.069c-0.308-0.119-0.498-0.33-0.571-0.635
		c-0.218,0.231-0.437,0.403-0.655,0.516c-0.437,0.219-0.886,0.255-1.349,0.109c-0.146-0.046-0.255-0.096-0.328-0.148
		c-0.02-0.007-0.048-0.023-0.084-0.05C36.043,54.453,36.015,54.434,35.995,54.42z"/>
	<path d="M42.395,54.062c0.04-0.02,0.099-0.043,0.178-0.069c0.08-0.026,0.136-0.046,0.169-0.06c0.674-0.277,1.268-0.697,1.781-1.26
		s0.891-1.207,1.136-1.935c0.013-0.04,0.032-0.1,0.055-0.179c0.023-0.079,0.038-0.139,0.045-0.179
		c0.033-0.146,0.053-0.222,0.06-0.229c0.079-0.158,0.205-0.237,0.377-0.237c0.079,0,0.139,0.02,0.178,0.059
		c0.093,0.066,0.106,0.232,0.04,0.496c-0.139,0.523-0.361,1.025-0.665,1.509c-0.43,0.681-0.98,1.262-1.652,1.741
		s-1.394,0.798-2.167,0.957l0.03-0.169l-0.367,0.169l0.992-4.683h0.674l-0.367,1.736l-0.298,1.418L42.395,54.062z"/>
</g>
<g>
	<path d="M55.698,48.526v-3.926c0-0.16,0.004-0.26,0.014-0.298c0.028-0.142,0.118-0.212,0.269-0.212c0.151,0,0.241,0.07,0.27,0.212
		c0.009,0.028,0.014,0.123,0.014,0.283v3.94h3.926c0.161,0,0.255,0.005,0.284,0.015c0.142,0.028,0.212,0.118,0.212,0.269
		c0,0.151-0.071,0.241-0.212,0.27c-0.028,0.01-0.123,0.015-0.284,0.015h-3.926v3.939c0,0.161-0.005,0.256-0.014,0.284
		c-0.028,0.142-0.118,0.212-0.27,0.212c-0.151,0-0.241-0.07-0.269-0.212c-0.01-0.028-0.014-0.123-0.014-0.284v-3.939h-3.94
		c-0.161,0-0.255-0.005-0.283-0.015c-0.142-0.028-0.213-0.118-0.213-0.27c0-0.15,0.071-0.24,0.213-0.269
		c0.028-0.01,0.123-0.015,0.283-0.015H55.698z"/>
	<path d="M65.038,52.552c0.123-0.396,0.706-2.107,1.75-5.131c1.044-3.023,1.585-4.583,1.623-4.677
		c0.038-0.095,0.076-0.146,0.113-0.156h0.255h0.468c0.132,0,0.21,0.007,0.234,0.021c0.023,0.014,0.059,0.068,0.106,0.163
		c0.208,0.671,1.134,3.363,2.778,8.078c0.057,0.189,0.151,0.473,0.283,0.851s0.231,0.662,0.298,0.851h-0.78
		c-0.161,0-0.25-0.015-0.269-0.043c-0.047-0.047-0.142-0.307-0.284-0.779l-0.595-1.743c-0.803-2.268-1.413-4.077-1.828-5.429
		c-0.151-0.481-0.241-0.793-0.27-0.935h-0.014c-0.246,0.841-0.503,1.677-0.772,2.508c-0.269,0.832-0.624,1.883-1.063,3.154
		c-0.439,1.271-0.721,2.081-0.843,2.431l-0.284,0.836H65.038z"/>
</g>
<g>
	<path d="M78.995,50.78c-0.085,0.18-0.222,0.373-0.411,0.581c-0.624,0.718-1.333,1.03-2.126,0.936
		c-0.709-0.123-1.212-0.489-1.51-1.099c-0.297-0.609-0.347-1.335-0.148-2.176c0.264-1.067,0.827-1.937,1.687-2.607l0.383-0.256
		c0.255-0.15,0.52-0.264,0.793-0.34c0.274-0.075,0.56-0.094,0.857-0.057c0.298,0.038,0.555,0.146,0.772,0.326
		c0.189,0.17,0.373,0.468,0.553,0.893l0.227-1.119l0.057-0.1c0.179-0.009,0.468-0.014,0.864-0.014
		c-0.501,2.409-0.954,4.54-1.36,6.392c-0.132,0.604-0.27,1.035-0.411,1.29c-0.236,0.425-0.551,0.791-0.942,1.099
		c-0.392,0.307-0.82,0.508-1.283,0.602c-0.832,0.143-1.635,0.043-2.41-0.297c-0.057-0.028-0.118-0.06-0.184-0.093
		c-0.066-0.033-0.14-0.07-0.22-0.113c-0.081-0.042-0.144-0.073-0.191-0.092l0.17-0.779c0.047,0.019,0.118,0.059,0.213,0.12
		c0.094,0.062,0.165,0.102,0.212,0.12c0.482,0.265,1.058,0.416,1.729,0.454c0.283,0.019,0.496,0.014,0.638-0.015
		c0.349-0.075,0.664-0.25,0.942-0.524c0.279-0.273,0.484-0.591,0.617-0.949c0.085-0.208,0.189-0.628,0.312-1.262
		c0.009-0.028,0.04-0.158,0.092-0.39c0.052-0.231,0.083-0.408,0.092-0.531H78.995z M79.094,46.599
		c-0.189-0.132-0.414-0.182-0.673-0.148s-0.491,0.092-0.694,0.177c-0.204,0.085-0.395,0.189-0.574,0.312
		c-0.406,0.273-0.744,0.631-1.013,1.069c-0.27,0.439-0.438,0.905-0.503,1.396c-0.057,0.396-0.017,0.782,0.121,1.155
		c0.137,0.373,0.371,0.649,0.702,0.829c0.302,0.17,0.614,0.241,0.936,0.213c0.444-0.038,0.841-0.274,1.19-0.709
		c0.378-0.473,0.675-1.2,0.893-2.183c0.076-0.321,0.132-0.6,0.17-0.836C79.646,47.232,79.462,46.807,79.094,46.599z"/>
</g>
<g>
	<path d="M82.073,54.42c0,0.007-0.03,0.153-0.089,0.441s-0.123,0.58-0.188,0.878c-0.066,0.298-0.103,0.46-0.109,0.486
		c-0.04,0.105-0.119,0.182-0.238,0.229c-0.119,0.046-0.228,0.036-0.328-0.03c-0.086-0.066-0.105-0.205-0.06-0.417
		c0.033-0.152,0.147-0.685,0.342-1.597c0.195-0.913,0.382-1.788,0.561-2.624c0.179-0.837,0.274-1.285,0.288-1.345
		c0.033-0.159,0.06-0.258,0.079-0.298c0.08-0.179,0.222-0.251,0.427-0.218c0.146,0.02,0.218,0.103,0.218,0.248
		c0,0.02-0.031,0.18-0.094,0.48c-0.063,0.302-0.134,0.639-0.213,1.013c-0.079,0.373-0.132,0.623-0.159,0.749
		c-0.093,0.43-0.139,0.707-0.139,0.833c0,0.437,0.148,0.731,0.446,0.883c0.297,0.152,0.602,0.149,0.913-0.01
		c0.199-0.105,0.371-0.258,0.516-0.456s0.268-0.441,0.367-0.729c0.099-0.288,0.177-0.546,0.233-0.773
		c0.056-0.229,0.117-0.512,0.184-0.849c0.006-0.046,0.013-0.084,0.02-0.114c0.006-0.029,0.013-0.061,0.02-0.094
		c0.013-0.066,0.035-0.162,0.064-0.288s0.051-0.222,0.064-0.288c0.033-0.165,0.06-0.271,0.08-0.317
		c0.092-0.146,0.218-0.218,0.377-0.218c0.165,0.013,0.254,0.096,0.268,0.248c0,0.026-0.048,0.271-0.144,0.734
		c-0.096,0.463-0.198,0.949-0.308,1.458c-0.109,0.51-0.167,0.78-0.173,0.813c-0.033,0.146-0.057,0.255-0.07,0.327
		c-0.013,0.073-0.01,0.169,0.01,0.288c0.02,0.119,0.073,0.212,0.159,0.277c0.105,0.093,0.208,0.116,0.308,0.07
		c0.132-0.08,0.251-0.351,0.357-0.814c0.006-0.013,0.015-0.041,0.025-0.084s0.018-0.083,0.025-0.119
		c0.006-0.036,0.013-0.058,0.02-0.064c0.013-0.013,0.073-0.02,0.179-0.02h0.486c-0.007,0.053-0.043,0.202-0.109,0.446
		c-0.185,0.522-0.417,0.877-0.694,1.062c-0.258,0.165-0.541,0.188-0.848,0.069c-0.308-0.119-0.498-0.33-0.571-0.635
		c-0.218,0.231-0.437,0.403-0.655,0.516c-0.437,0.219-0.886,0.255-1.349,0.109c-0.146-0.046-0.255-0.096-0.328-0.148
		c-0.02-0.007-0.048-0.023-0.084-0.05C82.121,54.453,82.093,54.434,82.073,54.42z"/>
	<path d="M88.473,54.062c0.04-0.02,0.099-0.043,0.178-0.069c0.08-0.026,0.136-0.046,0.169-0.06c0.674-0.277,1.268-0.697,1.781-1.26
		s0.891-1.207,1.136-1.935c0.013-0.04,0.032-0.1,0.055-0.179c0.023-0.079,0.038-0.139,0.045-0.179
		c0.033-0.146,0.053-0.222,0.06-0.229c0.079-0.158,0.205-0.237,0.377-0.237c0.079,0,0.139,0.02,0.178,0.059
		c0.093,0.066,0.106,0.232,0.04,0.496c-0.139,0.523-0.361,1.025-0.665,1.509c-0.43,0.681-0.98,1.262-1.652,1.741
		s-1.394,0.798-2.167,0.957l0.03-0.169l-0.367,0.169l0.992-4.683h0.674l-0.367,1.736l-0.298,1.418L88.473,54.062z"/>
</g>
<g>
	<path d="M98.17,50.043c0.057-0.094,0.198-0.142,0.425-0.142h8.093h0.595c0.123,0.02,0.208,0.083,0.255,0.191
		s0.023,0.205-0.071,0.29c-0.057,0.058-0.156,0.086-0.297,0.086h-8.575c-0.142,0-0.227-0.005-0.255-0.015
		c-0.085-0.019-0.146-0.073-0.184-0.163C98.118,50.201,98.123,50.119,98.17,50.043z M98.34,47.166
		c0.019-0.01,0.099-0.015,0.241-0.015h8.122L107,47.138c0.199,0,0.298,0.005,0.298,0.014c0.113,0.02,0.191,0.085,0.234,0.199
		c0.042,0.113,0.021,0.208-0.064,0.283c-0.057,0.057-0.161,0.085-0.312,0.085h-8.519c-0.151,0-0.241-0.005-0.269-0.015
		c-0.151-0.028-0.229-0.115-0.234-0.262S98.199,47.204,98.34,47.166z"/>
</g>
<g>
	<path d="M116.254,37.75c-0.028-0.01-0.108-0.036-0.241-0.078s-0.232-0.083-0.298-0.121c-0.614-0.264-1.044-0.689-1.29-1.275
		c-0.161-0.425-0.161-0.855,0-1.29c0.161-0.435,0.425-0.798,0.793-1.091c0.567-0.463,1.276-0.685,2.126-0.666
		c0.652,0.019,1.25,0.227,1.793,0.624s0.857,0.907,0.942,1.531c0.038,0.425-0.028,0.799-0.198,1.12
		c-0.246,0.454-0.633,0.799-1.162,1.035c-0.076,0.038-0.182,0.081-0.319,0.127c-0.137,0.047-0.22,0.076-0.248,0.085
		c0.548,0.161,0.978,0.382,1.29,0.666c0.359,0.312,0.609,0.68,0.751,1.105c0.142,0.435,0.142,0.891,0,1.368
		c-0.142,0.477-0.378,0.881-0.709,1.212c-0.633,0.624-1.436,0.926-2.409,0.907c-0.662-0.019-1.271-0.233-1.829-0.645
		s-0.912-0.933-1.063-1.566c-0.047-0.208-0.071-0.401-0.071-0.581c0-0.5,0.161-0.968,0.482-1.403
		C114.945,38.34,115.498,37.986,116.254,37.75z M116.977,38.104c-0.615,0.047-1.096,0.265-1.446,0.652
		c-0.34,0.407-0.503,0.896-0.489,1.467s0.172,1.037,0.475,1.396c0.444,0.501,1.067,0.718,1.871,0.652
		c0.473-0.038,0.872-0.167,1.198-0.39s0.546-0.532,0.659-0.928c0.132-0.35,0.163-0.742,0.092-1.177
		c-0.071-0.434-0.239-0.789-0.503-1.063C118.389,38.26,117.771,38.057,116.977,38.104z M116.977,33.937
		c-0.586,0.047-1.03,0.213-1.333,0.496c-0.302,0.284-0.465,0.664-0.489,1.141c-0.024,0.477,0.101,0.872,0.375,1.184
		c0.435,0.491,1.101,0.699,1.999,0.624c0.567-0.047,1.016-0.255,1.346-0.624c0.255-0.302,0.378-0.678,0.369-1.127
		c-0.01-0.449-0.142-0.82-0.397-1.113C118.441,34.074,117.818,33.88,116.977,33.937z"/>
</g>
<g>
	<path d="M121.328,38.217c0.038-0.113,0.198-0.387,0.482-0.822c0.444-0.624,0.93-1.025,1.459-1.205
		c0.104-0.038,0.225-0.066,0.362-0.085c0.137-0.019,0.246-0.03,0.326-0.035s0.21-0.005,0.39,0c0.18,0.005,0.293,0.007,0.34,0.007
		h4.323c0.312,0,0.496,0.066,0.553,0.199c0.019,0.057,0.028,0.094,0.028,0.113c0.009,0.113-0.023,0.222-0.099,0.326
		s-0.17,0.17-0.283,0.198c-0.066,0.019-0.218,0.028-0.454,0.028h-1.162c-0.076,0-0.128,0.019-0.156,0.057
		c-0.009,0.019-0.028,0.109-0.057,0.27s-0.057,0.331-0.085,0.51c-0.028,0.179-0.047,0.283-0.057,0.312
		c-0.246,1.663-0.194,2.939,0.156,3.827c0.009,0.019,0.028,0.064,0.057,0.135s0.045,0.121,0.05,0.149
		c0.004,0.028,0.012,0.071,0.021,0.127s0.007,0.106-0.007,0.149s-0.036,0.087-0.064,0.135c-0.094,0.132-0.22,0.22-0.375,0.262
		s-0.291-0.002-0.404-0.135c-0.123-0.161-0.255-0.572-0.397-1.233c-0.198-1.096-0.142-2.461,0.17-4.096
		c0.038-0.208,0.071-0.364,0.1-0.468h-1.163c-0.293,1.795-0.803,3.6-1.53,5.414c-0.066,0.17-0.142,0.298-0.227,0.383
		c-0.095,0.085-0.201,0.132-0.319,0.142s-0.225-0.023-0.319-0.099c-0.104-0.104-0.123-0.255-0.057-0.454l0.397-1.021
		c0.312-0.878,0.694-2.333,1.148-4.365h-0.524c-0.35,0-0.605,0.047-0.766,0.142c-0.302,0.161-0.59,0.482-0.864,0.964
		c-0.057,0.085-0.095,0.132-0.114,0.142c-0.028,0.019-0.113,0.028-0.255,0.028H121.328z"/>
	<path d="M138.974,38.104l-0.794,3.742c-0.009,0.019-0.017,0.055-0.021,0.106c-0.005,0.052-0.012,0.097-0.021,0.135
		s-0.023,0.066-0.042,0.085c-0.113,0.113-0.657,0.293-1.63,0.539c-1.672,0.369-2.996,0.161-3.968-0.624
		c-0.501-0.425-0.851-0.917-1.049-1.474c-0.397-0.992-0.411-2.079-0.043-3.26c0.321-1.049,0.881-1.977,1.68-2.785
		c0.798-0.808,1.722-1.344,2.771-1.608c0.945-0.236,1.899-0.208,2.863,0.085c0.321,0.094,0.69,0.25,1.105,0.468l-0.382,0.992
		c-0.52-0.368-0.803-0.562-0.851-0.581c-0.312-0.151-0.685-0.255-1.12-0.312s-0.87-0.047-1.304,0.028
		c-0.954,0.189-1.783,0.685-2.487,1.488s-1.174,1.706-1.41,2.707c-0.236,1.077-0.142,2.012,0.284,2.806
		c0.227,0.425,0.505,0.751,0.836,0.978c0.822,0.604,2.018,0.68,3.586,0.227c0.189-0.057,0.298-0.108,0.326-0.156
		c0-0.009,0.151-0.718,0.453-2.126c0.057-0.321,0.109-0.558,0.156-0.708h-2.225c0.057-0.34,0.113-0.581,0.17-0.723l0.227-0.028
		H138.974z"/>
</g>
<g>
	<rect x="113.49" y="48.525" width="27.186" height="0.574"/>
</g>
<g>
	<path d="M126.688,60.49c-0.009,0.037-0.021,0.122-0.035,0.255c-0.014,0.132-0.028,0.25-0.042,0.354
		c-0.014,0.104-0.026,0.165-0.036,0.184c-0.019,0.02-0.109,0.085-0.27,0.198c-0.368,0.236-0.772,0.421-1.211,0.553
		c-0.439,0.133-0.917,0.175-1.432,0.128c-0.515-0.047-0.952-0.231-1.311-0.553c-0.331-0.302-0.565-0.688-0.702-1.155
		c-0.137-0.468-0.168-0.961-0.092-1.48c0.113-0.784,0.427-1.508,0.942-2.169c0.515-0.661,1.136-1.129,1.864-1.403
		c0.312-0.113,0.702-0.175,1.169-0.184c0.467-0.01,0.872,0.042,1.211,0.155c0.217,0.066,0.524,0.213,0.921,0.439l-0.298,0.779
		c-0.435-0.264-0.666-0.406-0.694-0.425c-0.293-0.123-0.628-0.198-1.006-0.227s-0.742,0.009-1.091,0.113
		c-0.586,0.188-1.056,0.558-1.41,1.105s-0.588,1.157-0.702,1.828c-0.076,0.473-0.052,0.921,0.071,1.347
		c0.123,0.425,0.369,0.737,0.737,0.936c0.472,0.236,1.063,0.26,1.771,0.07c0.387-0.094,0.78-0.269,1.176-0.524
		c0.047-0.028,0.121-0.08,0.22-0.155C126.539,60.584,126.622,60.527,126.688,60.49z"/>
</g>
<g>
	<path d="M128.395,56.207v-0.366c0-0.14,0.03-0.248,0.089-0.328c0.066-0.105,0.278-0.427,0.635-0.962l1.28-1.955
		c0.317-0.462,0.549-0.813,0.694-1.051l0.089-0.119c0.02-0.014,0.096-0.021,0.228-0.021h0.566v4.247h1.161v0.555h-1.161v1.776
		h-0.635v-1.776H128.395z M131.371,52.001l-0.218,0.406l-1.27,2.005l-0.803,1.24h2.292V52.001z"/>
</g>
<g>
	<path d="M142.765,43.51c0.057-0.341,0.113-0.582,0.17-0.723c0.123-0.038,0.468-0.05,1.035-0.036s0.926,0.017,1.077,0.007h7.058
		l-0.156,0.751h-3.812c-0.17,0-0.265,0.014-0.284,0.042c-0.028,0.048-0.042,0.104-0.042,0.17c-1.001,4.63-1.616,7.512-1.842,8.646
		l-0.057,0.156c-0.019,0.019-0.109,0.028-0.27,0.028h-0.708l1.927-9.042H142.765z"/>
</g>
<g>
	<path d="M151.766,54.42c0,0.007-0.03,0.153-0.089,0.441s-0.123,0.58-0.188,0.878c-0.066,0.298-0.103,0.46-0.109,0.486
		c-0.04,0.105-0.119,0.182-0.238,0.229c-0.119,0.046-0.228,0.036-0.328-0.03c-0.086-0.066-0.105-0.205-0.06-0.417
		c0.033-0.152,0.147-0.685,0.342-1.597c0.195-0.913,0.382-1.788,0.561-2.624c0.179-0.837,0.274-1.285,0.288-1.345
		c0.033-0.159,0.06-0.258,0.079-0.298c0.08-0.179,0.222-0.251,0.427-0.218c0.146,0.02,0.218,0.103,0.218,0.248
		c0,0.02-0.031,0.18-0.094,0.48c-0.063,0.302-0.134,0.639-0.213,1.013c-0.079,0.373-0.132,0.623-0.159,0.749
		c-0.093,0.43-0.139,0.707-0.139,0.833c0,0.437,0.148,0.731,0.446,0.883c0.297,0.152,0.602,0.149,0.913-0.01
		c0.199-0.105,0.371-0.258,0.516-0.456s0.268-0.441,0.367-0.729c0.099-0.288,0.177-0.546,0.233-0.773
		c0.056-0.229,0.117-0.512,0.184-0.849c0.006-0.046,0.013-0.084,0.02-0.114c0.006-0.029,0.013-0.061,0.02-0.094
		c0.013-0.066,0.035-0.162,0.064-0.288s0.051-0.222,0.064-0.288c0.033-0.165,0.06-0.271,0.08-0.317
		c0.092-0.146,0.218-0.218,0.377-0.218c0.165,0.013,0.254,0.096,0.268,0.248c0,0.026-0.048,0.271-0.144,0.734
		c-0.096,0.463-0.198,0.949-0.308,1.458c-0.109,0.51-0.167,0.78-0.173,0.813c-0.033,0.146-0.057,0.255-0.07,0.327
		c-0.013,0.073-0.01,0.169,0.01,0.288c0.02,0.119,0.073,0.212,0.159,0.277c0.105,0.093,0.208,0.116,0.308,0.07
		c0.132-0.08,0.251-0.351,0.357-0.814c0.006-0.013,0.015-0.041,0.025-0.084s0.018-0.083,0.025-0.119
		c0.006-0.036,0.013-0.058,0.02-0.064c0.013-0.013,0.073-0.02,0.179-0.02h0.486c-0.007,0.053-0.043,0.202-0.109,0.446
		c-0.185,0.522-0.417,0.877-0.694,1.062c-0.258,0.165-0.541,0.188-0.848,0.069c-0.308-0.119-0.498-0.33-0.571-0.635
		c-0.218,0.231-0.437,0.403-0.655,0.516c-0.437,0.219-0.886,0.255-1.349,0.109c-0.146-0.046-0.255-0.096-0.328-0.148
		c-0.02-0.007-0.048-0.023-0.084-0.05C151.814,54.453,151.786,54.434,151.766,54.42z"/>
	<path d="M158.166,54.062c0.04-0.02,0.099-0.043,0.178-0.069c0.08-0.026,0.136-0.046,0.169-0.06c0.674-0.277,1.268-0.697,1.781-1.26
		s0.891-1.207,1.136-1.935c0.013-0.04,0.032-0.1,0.055-0.179c0.023-0.079,0.038-0.139,0.045-0.179
		c0.033-0.146,0.053-0.222,0.06-0.229c0.079-0.158,0.205-0.237,0.377-0.237c0.079,0,0.139,0.02,0.178,0.059
		c0.093,0.066,0.106,0.232,0.04,0.496c-0.139,0.523-0.361,1.025-0.665,1.509c-0.43,0.681-0.98,1.262-1.652,1.741
		s-1.394,0.798-2.167,0.957l0.03-0.169l-0.367,0.169l0.992-4.683h0.674l-0.367,1.736l-0.298,1.418L158.166,54.062z"/>
</g>
</svg>
