<?xml version="1.0" encoding="iso-8859-1"?>
<!-- Generator: Adobe Illustrator 16.0.0, SVG Export Plug-In . SVG Version: 6.00 Build 0)  -->
<!DOCTYPE svg PUBLIC "-//W3C//DTD SVG 1.1//EN" "http://www.w3.org/Graphics/SVG/1.1/DTD/svg11.dtd">
<svg version="1.1" id="Layer_1" xmlns="http://www.w3.org/2000/svg" xmlns:xlink="http://www.w3.org/1999/xlink" x="0px" y="0px"
	 width="566.929px" height="85.039px" viewBox="0 0 566.929 85.039" style="enable-background:new 0 0 566.929 85.039;"
	 xml:space="preserve">
<g>
	<path d="M34.646,66.194c-0.201,0-0.229,0-0.402-0.172c-0.588-0.517-1.133-1.104-1.42-1.435c-3.643-4.288-4.934-9.969-4.934-15.605
		c0-6.038,1.506-12.607,6.311-16.982c0.215-0.215,0.244-0.215,0.445-0.215c0.201,0,0.301,0,0.301,0.144c0,0.043,0,0.072-0.043,0.115
		c-0.631,0.631-1.807,1.807-2.94,3.844c-2.366,4.274-2.883,9.251-2.883,13.11c0,5.522,1.047,10.184,3.356,13.884
		c0.961,1.55,1.922,2.511,2.453,3.041c0.029,0.043,0.057,0.072,0.057,0.129C34.947,66.194,34.847,66.194,34.646,66.194z"/>
</g>
<g>
	<path d="M41.06,33.8h0.893v0.893H41.06V33.8z"/>
</g>
<g>
	<path d="M39.059,37.485c0.009-0.123,0.033-0.307,0.071-0.553c0-0.114,0.014-0.189,0.042-0.227c0.028-0.028,0.108-0.071,0.241-0.127
		c0.274-0.132,0.649-0.253,1.127-0.361c0.477-0.108,0.905-0.149,1.283-0.121c0.463,0.047,0.845,0.208,1.148,0.482
		c0.397,0.388,0.571,0.898,0.524,1.531c-0.01,0.066-0.066,0.342-0.17,0.829c-0.104,0.487-0.215,1.004-0.333,1.552
		c-0.118,0.548-0.182,0.851-0.191,0.907c0,0.01-0.021,0.113-0.064,0.312c-0.042,0.198-0.087,0.411-0.135,0.638
		c-0.047,0.227-0.08,0.378-0.099,0.454c0,0.104-0.071,0.156-0.212,0.156c-0.028,0-0.047,0-0.057,0h-0.652l0.213-0.992
		c-0.529,0.567-1.262,0.917-2.197,1.049c-0.492,0.075-0.884,0.062-1.177-0.042c-0.35-0.161-0.564-0.463-0.645-0.907
		c-0.081-0.444-0.031-0.822,0.148-1.134c0.435-0.85,1.465-1.398,3.09-1.644c0.094-0.009,0.199-0.019,0.312-0.028
		c0.113-0.009,0.236-0.019,0.368-0.028s0.236-0.019,0.312-0.028h0.227c0.114,0,0.17-0.071,0.17-0.212
		c0.009-0.047,0.03-0.14,0.063-0.277c0.033-0.137,0.062-0.267,0.085-0.39c0.023-0.123,0.035-0.227,0.035-0.312
		c0.009-0.284-0.057-0.541-0.198-0.772s-0.335-0.38-0.581-0.447c-0.066-0.019-0.232-0.028-0.496-0.028
		c-0.539,0-1.073,0.128-1.602,0.383c-0.076,0.038-0.185,0.097-0.326,0.177C39.243,37.403,39.134,37.457,39.059,37.485z
		 M42.276,39.625c-1.333,0-2.348,0.274-3.047,0.822c-0.227,0.18-0.397,0.397-0.51,0.652c-0.113,0.255-0.113,0.496,0,0.723
		c0.151,0.293,0.458,0.468,0.921,0.524c0.377,0.047,0.758,0.005,1.141-0.127c0.383-0.132,0.688-0.34,0.914-0.624
		c0.151-0.188,0.274-0.52,0.369-0.992L42.276,39.625z"/>
</g>
<g>
	<rect x="36.663" y="48.714" width="7.216" height="0.574"/>
</g>
<g>
	<path d="M39.059,56.795c0.009-0.123,0.033-0.307,0.071-0.553c0-0.113,0.014-0.189,0.042-0.227c0.028-0.028,0.108-0.071,0.241-0.128
		c0.274-0.132,0.649-0.253,1.127-0.361c0.477-0.108,0.905-0.148,1.283-0.12c0.463,0.047,0.845,0.207,1.148,0.481
		c0.397,0.388,0.571,0.897,0.524,1.53c-0.01,0.066-0.066,0.343-0.17,0.829c-0.104,0.487-0.215,1.005-0.333,1.553
		s-0.182,0.85-0.191,0.907c0,0.009-0.021,0.113-0.064,0.312s-0.087,0.411-0.135,0.638s-0.08,0.378-0.099,0.453
		c0,0.104-0.071,0.156-0.212,0.156c-0.028,0-0.047,0-0.057,0h-0.652l0.213-0.992c-0.529,0.567-1.262,0.917-2.197,1.049
		c-0.492,0.075-0.884,0.062-1.177-0.042c-0.35-0.161-0.564-0.463-0.645-0.907c-0.081-0.444-0.031-0.822,0.148-1.134
		c0.435-0.851,1.465-1.398,3.09-1.645c0.094-0.009,0.199-0.019,0.312-0.028s0.236-0.019,0.368-0.028s0.236-0.019,0.312-0.028h0.227
		c0.114,0,0.17-0.071,0.17-0.213c0.009-0.047,0.03-0.139,0.063-0.276c0.033-0.137,0.062-0.267,0.085-0.39
		c0.023-0.122,0.035-0.227,0.035-0.312c0.009-0.283-0.057-0.541-0.198-0.772s-0.335-0.381-0.581-0.446
		c-0.066-0.02-0.232-0.028-0.496-0.028c-0.539,0-1.073,0.127-1.602,0.383c-0.076,0.037-0.185,0.097-0.326,0.177
		S39.134,56.767,39.059,56.795z M42.276,58.935c-1.333,0-2.348,0.274-3.047,0.822c-0.227,0.18-0.397,0.397-0.51,0.652
		s-0.113,0.496,0,0.723c0.151,0.293,0.458,0.468,0.921,0.524c0.377,0.047,0.758,0.005,1.141-0.128
		c0.383-0.132,0.688-0.34,0.914-0.623c0.151-0.189,0.274-0.52,0.369-0.992L42.276,58.935z"/>
</g>
<g>
	<path d="M46.322,65.979c-0.215,0.215-0.244,0.215-0.445,0.215c-0.172,0-0.301,0-0.301-0.144c0-0.043,0.029-0.086,0.058-0.129
		c0.602-0.603,1.793-1.793,2.926-3.829c2.367-4.274,2.883-9.252,2.883-13.11c0-5.521-1.047-10.184-3.356-13.884
		c-0.961-1.549-1.922-2.51-2.424-3.026c-0.028-0.029-0.086-0.086-0.086-0.144c0-0.144,0.129-0.144,0.301-0.144
		c0.201,0,0.229,0,0.402,0.172c0.588,0.517,1.133,1.104,1.42,1.435c3.643,4.289,4.934,9.969,4.934,15.605
		C52.633,55.035,51.127,61.604,46.322,65.979z"/>
</g>
<g>
	<path d="M56.478,30.732c-0.04-0.033-0.091-0.089-0.154-0.168c-0.063-0.08-0.101-0.126-0.114-0.139
		c-0.073-0.086-0.109-0.139-0.109-0.159c-0.013-0.033,0-0.096,0.04-0.188c0.125-0.351,0.311-0.648,0.556-0.893
		c0.397-0.37,0.898-0.555,1.503-0.555c0.605,0,1.116,0.175,1.533,0.525c0.337,0.278,0.555,0.64,0.655,1.086
		c0.099,0.447,0.049,0.868-0.149,1.265c-0.073,0.132-0.152,0.258-0.238,0.377s-0.202,0.245-0.347,0.377s-0.251,0.227-0.317,0.283
		c-0.066,0.056-0.202,0.164-0.407,0.323c-0.205,0.159-0.321,0.248-0.347,0.268c-0.225,0.179-0.536,0.445-0.933,0.799
		c-0.397,0.354-0.688,0.607-0.873,0.759h3.661v0.585H56.17v-0.367c0-0.092,0.005-0.15,0.015-0.173
		c0.01-0.023,0.038-0.058,0.084-0.104c0.146-0.125,0.409-0.362,0.789-0.709c0.38-0.348,0.656-0.59,0.828-0.729
		c0.04-0.033,0.137-0.111,0.293-0.233c0.155-0.123,0.27-0.215,0.342-0.278s0.178-0.157,0.317-0.283
		c0.139-0.126,0.248-0.238,0.327-0.337c0.08-0.099,0.166-0.213,0.258-0.342c0.092-0.129,0.164-0.261,0.213-0.397
		c0.049-0.135,0.084-0.273,0.104-0.412c0.046-0.377-0.023-0.711-0.208-1.002c-0.284-0.423-0.731-0.658-1.339-0.705
		c-0.291-0.02-0.542,0.013-0.754,0.099C57.004,29.489,56.683,29.965,56.478,30.732z"/>
</g>
<g>
	<path d="M66.252,50.232c0.057-0.094,0.198-0.142,0.425-0.142h8.093h0.595c0.123,0.02,0.208,0.083,0.255,0.191
		s0.023,0.205-0.071,0.29c-0.057,0.058-0.156,0.086-0.297,0.086h-8.575c-0.142,0-0.227-0.005-0.255-0.015
		c-0.085-0.019-0.146-0.073-0.184-0.163C66.2,50.391,66.205,50.309,66.252,50.232z M66.422,47.355
		c0.019-0.01,0.099-0.015,0.241-0.015h8.122l0.297-0.014c0.199,0,0.298,0.005,0.298,0.014c0.113,0.02,0.191,0.085,0.234,0.199
		c0.042,0.113,0.021,0.208-0.064,0.283c-0.057,0.057-0.161,0.085-0.312,0.085H66.72c-0.151,0-0.241-0.005-0.269-0.015
		c-0.151-0.028-0.229-0.115-0.234-0.262S66.281,47.394,66.422,47.355z"/>
</g>
<g>
	<path d="M84.337,37.939c-0.028-0.01-0.108-0.036-0.241-0.078s-0.232-0.083-0.298-0.121c-0.614-0.264-1.044-0.689-1.29-1.275
		c-0.161-0.425-0.161-0.855,0-1.29c0.161-0.435,0.425-0.798,0.793-1.091c0.567-0.463,1.276-0.685,2.126-0.666
		c0.652,0.019,1.25,0.227,1.793,0.624s0.857,0.907,0.942,1.531c0.038,0.425-0.028,0.799-0.198,1.12
		c-0.246,0.454-0.633,0.799-1.162,1.035c-0.076,0.038-0.182,0.081-0.319,0.127c-0.137,0.047-0.22,0.076-0.248,0.085
		c0.548,0.161,0.978,0.382,1.29,0.666c0.359,0.312,0.609,0.68,0.751,1.105c0.142,0.435,0.142,0.891,0,1.368
		c-0.142,0.477-0.378,0.881-0.709,1.212c-0.633,0.624-1.436,0.926-2.409,0.907c-0.662-0.02-1.271-0.234-1.829-0.645
		s-0.912-0.933-1.063-1.566c-0.047-0.208-0.071-0.401-0.071-0.581c0-0.5,0.161-0.968,0.482-1.403
		C83.028,38.529,83.581,38.175,84.337,37.939z M85.06,38.293c-0.615,0.047-1.096,0.265-1.446,0.652
		c-0.34,0.407-0.503,0.896-0.489,1.467s0.172,1.037,0.475,1.396c0.444,0.501,1.067,0.718,1.871,0.652
		c0.473-0.038,0.872-0.167,1.198-0.39s0.546-0.532,0.659-0.928c0.132-0.35,0.163-0.742,0.092-1.177
		c-0.071-0.434-0.239-0.789-0.503-1.063C86.472,38.449,85.854,38.246,85.06,38.293z M85.06,34.126
		c-0.586,0.047-1.03,0.213-1.333,0.496c-0.302,0.284-0.465,0.664-0.489,1.141c-0.024,0.477,0.101,0.872,0.375,1.184
		c0.435,0.491,1.101,0.699,1.999,0.624c0.567-0.047,1.016-0.255,1.346-0.624c0.255-0.302,0.378-0.678,0.369-1.127
		c-0.01-0.449-0.142-0.82-0.397-1.113C86.524,34.263,85.901,34.069,85.06,34.126z"/>
</g>
<g>
	<path d="M89.41,38.406c0.038-0.113,0.198-0.387,0.482-0.822c0.444-0.624,0.93-1.025,1.459-1.205
		c0.104-0.038,0.225-0.066,0.362-0.085c0.137-0.019,0.246-0.03,0.326-0.035s0.21-0.005,0.39,0c0.18,0.005,0.293,0.007,0.34,0.007
		h4.323c0.312,0,0.496,0.066,0.553,0.199c0.019,0.057,0.028,0.094,0.028,0.113c0.009,0.113-0.023,0.222-0.099,0.326
		s-0.17,0.17-0.283,0.198c-0.066,0.019-0.218,0.028-0.454,0.028h-1.162c-0.076,0-0.128,0.019-0.156,0.057
		c-0.009,0.019-0.028,0.109-0.057,0.27s-0.057,0.331-0.085,0.51c-0.028,0.179-0.047,0.283-0.057,0.312
		c-0.246,1.663-0.194,2.939,0.156,3.827c0.009,0.019,0.028,0.064,0.057,0.135s0.045,0.121,0.05,0.149
		c0.004,0.028,0.012,0.071,0.021,0.127s0.007,0.106-0.007,0.149s-0.036,0.087-0.064,0.135c-0.094,0.132-0.22,0.22-0.375,0.262
		c-0.156,0.043-0.291-0.002-0.404-0.135c-0.123-0.161-0.255-0.572-0.397-1.233c-0.198-1.096-0.142-2.461,0.17-4.096
		c0.038-0.208,0.071-0.364,0.1-0.468h-1.163c-0.293,1.795-0.803,3.6-1.53,5.414c-0.066,0.17-0.142,0.298-0.227,0.383
		c-0.095,0.085-0.201,0.133-0.319,0.142s-0.225-0.023-0.319-0.099c-0.104-0.104-0.123-0.255-0.057-0.454l0.397-1.021
		c0.312-0.878,0.694-2.333,1.148-4.365h-0.524c-0.35,0-0.605,0.047-0.766,0.142c-0.302,0.161-0.59,0.482-0.864,0.964
		c-0.057,0.085-0.095,0.132-0.114,0.142c-0.028,0.019-0.113,0.028-0.255,0.028H89.41z"/>
	<path d="M107.056,38.293l-0.794,3.742c-0.009,0.019-0.017,0.055-0.021,0.106c-0.005,0.052-0.012,0.097-0.021,0.135
		s-0.023,0.066-0.042,0.085c-0.113,0.113-0.657,0.293-1.63,0.539c-1.672,0.368-2.996,0.161-3.968-0.624
		c-0.501-0.425-0.851-0.917-1.049-1.474c-0.397-0.992-0.411-2.079-0.043-3.26c0.321-1.049,0.881-1.977,1.68-2.785
		c0.798-0.808,1.722-1.344,2.771-1.608c0.945-0.236,1.899-0.208,2.863,0.085c0.321,0.094,0.69,0.25,1.105,0.468l-0.382,0.992
		c-0.52-0.368-0.803-0.562-0.851-0.581c-0.312-0.151-0.685-0.255-1.12-0.312s-0.87-0.047-1.304,0.028
		c-0.954,0.189-1.783,0.685-2.487,1.488s-1.174,1.706-1.41,2.707c-0.236,1.077-0.142,2.012,0.284,2.806
		c0.227,0.425,0.505,0.751,0.836,0.978c0.822,0.604,2.018,0.68,3.586,0.227c0.189-0.057,0.298-0.108,0.326-0.156
		c0-0.009,0.151-0.718,0.453-2.126c0.057-0.321,0.109-0.558,0.156-0.708h-2.225c0.057-0.34,0.113-0.581,0.17-0.723l0.227-0.028
		H107.056z"/>
</g>
<g>
	<rect x="81.573" y="48.714" width="27.186" height="0.574"/>
</g>
<g>
	<path d="M92.706,55.052l-0.312-0.439c-0.066-0.085-0.099-0.151-0.099-0.198c0-0.057,0.089-0.199,0.269-0.426
		c0.302-0.387,0.68-0.689,1.134-0.907c0.851-0.406,1.698-0.468,2.544-0.184c0.845,0.283,1.363,0.784,1.552,1.502
		c0.151,0.614,0.009,1.229-0.425,1.843c-0.227,0.303-0.505,0.558-0.836,0.766c-0.057,0.037-0.135,0.082-0.234,0.134
		c-0.1,0.053-0.168,0.088-0.206,0.106c0.255,0.038,0.539,0.151,0.85,0.341c0.614,0.35,1.011,0.821,1.191,1.417
		c0.16,0.501,0.158,0.992-0.007,1.474c-0.166,0.482-0.423,0.884-0.772,1.205c-0.17,0.161-0.383,0.312-0.638,0.453
		c-0.775,0.406-1.644,0.478-2.608,0.213c-0.708-0.208-1.342-0.628-1.899-1.262c-0.076-0.094-0.116-0.158-0.12-0.191
		c-0.005-0.032,0.002-0.105,0.021-0.219c0.057-0.312,0.09-0.478,0.099-0.496c0.359,0.481,0.723,0.826,1.091,1.034
		c0.34,0.208,0.704,0.361,1.092,0.461c0.387,0.099,0.787,0.115,1.197,0.049c0.411-0.065,0.763-0.23,1.056-0.495
		c0.331-0.303,0.529-0.709,0.595-1.22c0.066-0.51-0.005-0.959-0.212-1.346c-0.227-0.444-0.586-0.756-1.078-0.936
		c-0.236-0.085-0.595-0.128-1.077-0.128h-0.949v-0.709c0.812-0.047,1.36-0.122,1.644-0.227c0.359-0.132,0.659-0.352,0.9-0.659
		c0.241-0.307,0.38-0.649,0.418-1.027c0.047-0.416-0.066-0.774-0.34-1.077c-0.284-0.283-0.664-0.441-1.141-0.475
		s-0.891,0.04-1.24,0.22c-0.435,0.18-0.812,0.473-1.134,0.879c-0.047,0.066-0.106,0.158-0.177,0.276S92.734,55.004,92.706,55.052z"
		/>
</g>
<g>
	<path d="M111.924,52.019l-0.411,1.928c0,0.019-0.026,0.155-0.078,0.411c-0.052,0.255-0.097,0.448-0.134,0.581
		c-0.057,0.17-0.17,0.295-0.34,0.375s-0.326,0.055-0.468-0.078c-0.095-0.085-0.109-0.273-0.042-0.566l0.297-1.432
		c0.539-2.57,0.851-3.992,0.936-4.267c0.236-0.803,0.662-1.511,1.276-2.126c0.377-0.358,0.805-0.623,1.283-0.793
		c0.477-0.17,0.933-0.165,1.368,0.014c0.368,0.17,0.656,0.411,0.864,0.723c0.293,0.436,0.439,1.002,0.439,1.701
		c0,0.661-0.14,1.307-0.418,1.935c-0.279,0.629-0.664,1.165-1.155,1.608c-0.369,0.331-0.777,0.569-1.226,0.716
		s-0.881,0.145-1.297-0.007C112.486,52.628,112.188,52.387,111.924,52.019z M114.66,46.646c-0.567,0.057-1.054,0.369-1.46,0.936
		c-0.491,0.681-0.779,1.63-0.865,2.849c-0.028,0.388,0.043,0.747,0.213,1.077c0.17,0.331,0.43,0.534,0.779,0.609
		c0.085,0.02,0.213,0.028,0.383,0.028c0.435-0.037,0.841-0.245,1.219-0.623c0.482-0.491,0.822-1.262,1.021-2.311
		c0.066-0.415,0.099-0.694,0.099-0.836c0-0.822-0.231-1.352-0.694-1.588C115.174,46.694,114.943,46.646,114.66,46.646z"/>
</g>
<g>
	<path d="M125.491,48.716V44.79c0-0.16,0.004-0.26,0.014-0.298c0.028-0.142,0.118-0.212,0.269-0.212c0.151,0,0.241,0.07,0.27,0.212
		c0.009,0.028,0.014,0.123,0.014,0.283v3.94h3.926c0.161,0,0.255,0.005,0.284,0.015c0.142,0.028,0.212,0.118,0.212,0.269
		c0,0.151-0.071,0.241-0.212,0.27c-0.028,0.01-0.123,0.015-0.284,0.015h-3.926v3.939c0,0.161-0.005,0.256-0.014,0.284
		c-0.028,0.142-0.118,0.212-0.27,0.212c-0.151,0-0.241-0.07-0.269-0.212c-0.01-0.028-0.014-0.123-0.014-0.284v-3.939h-3.94
		c-0.161,0-0.255-0.005-0.283-0.015c-0.142-0.028-0.213-0.118-0.213-0.27c0-0.15,0.071-0.24,0.213-0.269
		c0.028-0.01,0.123-0.015,0.283-0.015H125.491z"/>
</g>
<g>
	<path d="M142.093,41.369c-0.009,0.038-0.021,0.123-0.035,0.255c-0.014,0.133-0.028,0.25-0.042,0.354s-0.026,0.166-0.036,0.185
		c-0.019,0.019-0.109,0.085-0.27,0.198c-0.368,0.236-0.772,0.42-1.211,0.553s-0.917,0.174-1.432,0.127
		c-0.515-0.047-0.952-0.231-1.311-0.553c-0.331-0.302-0.565-0.688-0.702-1.155c-0.137-0.467-0.168-0.961-0.092-1.481
		c0.113-0.784,0.427-1.507,0.942-2.168c0.515-0.661,1.136-1.129,1.864-1.403c0.312-0.113,0.702-0.174,1.169-0.184
		c0.467-0.009,0.872,0.042,1.211,0.156c0.217,0.066,0.524,0.213,0.921,0.439l-0.298,0.78c-0.435-0.265-0.666-0.406-0.694-0.425
		c-0.293-0.123-0.628-0.199-1.006-0.227s-0.742,0.01-1.091,0.114c-0.586,0.189-1.056,0.558-1.41,1.105s-0.588,1.157-0.702,1.828
		c-0.076,0.473-0.052,0.921,0.071,1.347c0.123,0.425,0.369,0.737,0.737,0.935c0.472,0.236,1.063,0.26,1.771,0.071
		c0.387-0.095,0.78-0.27,1.176-0.524c0.047-0.028,0.121-0.081,0.22-0.156C141.944,41.463,142.027,41.407,142.093,41.369z"/>
</g>
<g>
	<path d="M144.344,33.269c-0.04-0.033-0.091-0.089-0.154-0.168c-0.063-0.08-0.101-0.126-0.114-0.139
		c-0.073-0.086-0.109-0.139-0.109-0.159c-0.013-0.033,0-0.096,0.04-0.188c0.125-0.351,0.311-0.648,0.556-0.893
		c0.397-0.37,0.898-0.555,1.503-0.555c0.605,0,1.116,0.175,1.533,0.525c0.337,0.278,0.555,0.64,0.655,1.086
		c0.099,0.447,0.049,0.868-0.149,1.265c-0.073,0.132-0.152,0.258-0.238,0.377s-0.202,0.245-0.347,0.377s-0.251,0.227-0.317,0.283
		c-0.066,0.056-0.202,0.164-0.407,0.323c-0.205,0.159-0.321,0.248-0.347,0.268c-0.225,0.179-0.536,0.445-0.933,0.799
		c-0.397,0.354-0.688,0.607-0.873,0.759h3.661v0.585h-4.266v-0.367c0-0.092,0.005-0.15,0.015-0.173
		c0.01-0.023,0.038-0.058,0.084-0.104c0.146-0.125,0.409-0.362,0.789-0.709c0.38-0.348,0.656-0.59,0.828-0.729
		c0.04-0.033,0.137-0.111,0.293-0.233c0.155-0.123,0.27-0.215,0.342-0.278s0.178-0.157,0.317-0.283
		c0.139-0.126,0.248-0.238,0.327-0.337c0.08-0.099,0.166-0.213,0.258-0.342c0.092-0.129,0.164-0.261,0.213-0.397
		c0.049-0.135,0.084-0.273,0.104-0.412c0.046-0.377-0.023-0.711-0.208-1.002c-0.284-0.423-0.731-0.658-1.339-0.705
		c-0.291-0.02-0.542,0.013-0.754,0.099C144.87,32.026,144.549,32.502,144.344,33.269z"/>
</g>
<g>
	<rect x="135.63" y="48.714" width="13.716" height="0.574"/>
</g>
<g>
	<path d="M140.028,55.052l-0.312-0.439c-0.066-0.085-0.099-0.151-0.099-0.198c0-0.057,0.089-0.199,0.269-0.426
		c0.302-0.387,0.68-0.689,1.134-0.907c0.851-0.406,1.698-0.468,2.544-0.184c0.845,0.283,1.363,0.784,1.552,1.502
		c0.151,0.614,0.009,1.229-0.425,1.843c-0.227,0.303-0.505,0.558-0.836,0.766c-0.057,0.037-0.135,0.082-0.234,0.134
		c-0.1,0.053-0.168,0.088-0.206,0.106c0.255,0.038,0.539,0.151,0.85,0.341c0.614,0.35,1.011,0.821,1.191,1.417
		c0.16,0.501,0.158,0.992-0.007,1.474c-0.166,0.482-0.423,0.884-0.772,1.205c-0.17,0.161-0.383,0.312-0.638,0.453
		c-0.775,0.406-1.644,0.478-2.608,0.213c-0.708-0.208-1.342-0.628-1.899-1.262c-0.076-0.094-0.116-0.158-0.12-0.191
		c-0.005-0.032,0.002-0.105,0.021-0.219c0.057-0.312,0.09-0.478,0.099-0.496c0.359,0.481,0.723,0.826,1.091,1.034
		c0.34,0.208,0.704,0.361,1.092,0.461c0.387,0.099,0.787,0.115,1.197,0.049c0.411-0.065,0.763-0.23,1.056-0.495
		c0.331-0.303,0.529-0.709,0.595-1.22c0.066-0.51-0.005-0.959-0.212-1.346c-0.227-0.444-0.586-0.756-1.078-0.936
		c-0.236-0.085-0.595-0.128-1.077-0.128h-0.949v-0.709c0.812-0.047,1.36-0.122,1.644-0.227c0.359-0.132,0.659-0.352,0.9-0.659
		c0.241-0.307,0.38-0.649,0.418-1.027c0.047-0.416-0.066-0.774-0.34-1.077c-0.284-0.283-0.664-0.441-1.141-0.475
		s-0.891,0.04-1.24,0.22c-0.435,0.18-0.812,0.473-1.134,0.879c-0.047,0.066-0.106,0.158-0.177,0.276S140.057,55.004,140.028,55.052z
		"/>
</g>
<g>
	<path d="M150.952,52.741c0.123-0.396,0.706-2.107,1.75-5.131c1.044-3.023,1.585-4.583,1.623-4.677
		c0.038-0.095,0.076-0.146,0.113-0.156h0.255h0.468c0.132,0,0.21,0.007,0.234,0.021c0.023,0.014,0.059,0.068,0.106,0.163
		c0.208,0.671,1.134,3.363,2.778,8.078c0.057,0.189,0.151,0.473,0.283,0.851s0.231,0.662,0.298,0.851h-0.78
		c-0.161,0-0.25-0.015-0.269-0.043c-0.047-0.047-0.142-0.307-0.284-0.779l-0.595-1.743c-0.803-2.268-1.413-4.077-1.828-5.429
		c-0.151-0.481-0.241-0.793-0.27-0.935h-0.014c-0.246,0.841-0.503,1.677-0.772,2.508c-0.269,0.832-0.624,1.883-1.063,3.154
		c-0.439,1.271-0.721,2.081-0.843,2.431l-0.284,0.836H150.952z"/>
</g>
<g>
	<path d="M163.82,48.73c0.019-0.01,0.094-0.015,0.227-0.015h7.441h0.539c0.113,0.02,0.187,0.085,0.22,0.198
		c0.033,0.114,0.012,0.208-0.064,0.284c-0.028,0.028-0.071,0.052-0.127,0.07c-0.057,0.02-0.106,0.028-0.149,0.028
		s-0.099-0.002-0.17-0.007s-0.116-0.007-0.135-0.007h-7.54c-0.142,0-0.222-0.005-0.241-0.015c-0.142-0.037-0.21-0.125-0.206-0.262
		C163.619,48.87,163.688,48.777,163.82,48.73z"/>
</g>
<g>
	<path d="M179.85,42.905h0.851l-1.347,6.364l3.728-3.09l0.156-0.113c0.236-0.009,0.6-0.014,1.091-0.014v0.014l-2.792,2.311
		l-0.212,0.213c0.047,0.15,0.132,0.347,0.255,0.588c0.123,0.241,0.203,0.409,0.241,0.503l1.432,3.062
		c-0.52,0-0.841-0.01-0.964-0.028c-0.199-0.378-0.468-0.931-0.808-1.658c-0.34-0.728-0.572-1.214-0.694-1.46l-0.184-0.425
		c-0.17,0.122-0.404,0.312-0.702,0.566c-0.298,0.255-0.513,0.435-0.645,0.539l-0.17,0.17c-0.227,1.039-0.378,1.743-0.454,2.111
		l-0.057,0.156c-0.104,0.019-0.374,0.028-0.808,0.028L179.85,42.905z"/>
</g>
<g>
	<path d="M193.825,41.369c-0.009,0.038-0.021,0.123-0.035,0.255c-0.014,0.133-0.028,0.25-0.042,0.354s-0.026,0.166-0.036,0.185
		c-0.019,0.019-0.109,0.085-0.27,0.198c-0.368,0.236-0.772,0.42-1.211,0.553s-0.917,0.174-1.432,0.127
		c-0.515-0.047-0.952-0.231-1.311-0.553c-0.331-0.302-0.565-0.688-0.702-1.155c-0.137-0.467-0.168-0.961-0.092-1.481
		c0.113-0.784,0.427-1.507,0.942-2.168c0.515-0.661,1.136-1.129,1.864-1.403c0.312-0.113,0.702-0.174,1.169-0.184
		c0.467-0.009,0.872,0.042,1.211,0.156c0.217,0.066,0.524,0.213,0.921,0.439l-0.298,0.78c-0.435-0.265-0.666-0.406-0.694-0.425
		c-0.293-0.123-0.628-0.199-1.006-0.227s-0.742,0.01-1.091,0.114c-0.586,0.189-1.056,0.558-1.41,1.105s-0.588,1.157-0.702,1.828
		c-0.076,0.473-0.052,0.921,0.071,1.347c0.123,0.425,0.369,0.737,0.737,0.935c0.472,0.236,1.063,0.26,1.771,0.071
		c0.387-0.095,0.78-0.27,1.176-0.524c0.047-0.028,0.121-0.081,0.22-0.156C193.676,41.463,193.759,41.407,193.825,41.369z"/>
</g>
<g>
	<path d="M196.077,33.269c-0.04-0.033-0.091-0.089-0.154-0.168c-0.063-0.08-0.101-0.126-0.114-0.139
		c-0.073-0.086-0.109-0.139-0.109-0.159c-0.013-0.033,0-0.096,0.04-0.188c0.125-0.351,0.311-0.648,0.556-0.893
		c0.397-0.37,0.898-0.555,1.503-0.555c0.605,0,1.116,0.175,1.533,0.525c0.337,0.278,0.555,0.64,0.655,1.086
		c0.099,0.447,0.049,0.868-0.149,1.265c-0.073,0.132-0.152,0.258-0.238,0.377s-0.202,0.245-0.347,0.377s-0.251,0.227-0.317,0.283
		c-0.066,0.056-0.202,0.164-0.407,0.323c-0.205,0.159-0.321,0.248-0.347,0.268c-0.225,0.179-0.536,0.445-0.933,0.799
		c-0.397,0.354-0.688,0.607-0.873,0.759h3.661v0.585h-4.266v-0.367c0-0.092,0.005-0.15,0.015-0.173
		c0.01-0.023,0.038-0.058,0.084-0.104c0.146-0.125,0.409-0.362,0.789-0.709c0.38-0.348,0.656-0.59,0.828-0.729
		c0.04-0.033,0.137-0.111,0.293-0.233c0.155-0.123,0.27-0.215,0.342-0.278s0.178-0.157,0.317-0.283
		c0.139-0.126,0.248-0.238,0.327-0.337c0.08-0.099,0.166-0.213,0.258-0.342c0.092-0.129,0.164-0.261,0.213-0.397
		c0.049-0.135,0.084-0.273,0.104-0.412c0.046-0.377-0.023-0.711-0.208-1.002c-0.284-0.423-0.731-0.658-1.339-0.705
		c-0.291-0.02-0.542,0.013-0.754,0.099C196.603,32.026,196.282,32.502,196.077,33.269z"/>
</g>
<g>
	<rect x="185.966" y="48.714" width="16.508" height="0.574"/>
</g>
<g>
	<path d="M189.438,52.43h2.834h0.879c1.219,0.075,2.112,0.463,2.679,1.162c0.094,0.132,0.179,0.283,0.255,0.453
		c0.265,0.69,0.127,1.366-0.411,2.027c-0.454,0.558-1.082,0.982-1.885,1.275c-0.359,0.132-0.662,0.218-0.907,0.255l2.168,4.663
		c-0.52,0-0.846-0.01-0.978-0.028c-0.227-0.416-0.52-1.03-0.878-1.843c-0.359-0.812-0.605-1.351-0.737-1.615
		c-0.246-0.548-0.406-0.894-0.482-1.035c-0.094-0.028-0.326-0.042-0.694-0.042h-1.984l-0.935,4.436l-0.043,0.1
		c-0.123,0.019-0.444,0.028-0.963,0.028L189.438,52.43z M189.453,56.993h1.913h0.751c0.746-0.047,1.36-0.185,1.842-0.411
		c0.416-0.198,0.753-0.486,1.013-0.864s0.352-0.774,0.276-1.19c-0.113-0.463-0.392-0.809-0.836-1.035
		c-0.435-0.207-1.11-0.312-2.027-0.312h-2.126L189.453,56.993z"/>
</g>
<g>
	<path d="M197.473,53.628c-0.04-0.033-0.091-0.089-0.154-0.169c-0.063-0.079-0.101-0.125-0.114-0.139
		c-0.073-0.086-0.109-0.139-0.109-0.158c-0.013-0.033,0-0.097,0.04-0.188c0.125-0.351,0.311-0.648,0.556-0.894
		c0.397-0.37,0.898-0.556,1.503-0.556c0.605,0,1.116,0.176,1.533,0.526c0.337,0.277,0.555,0.64,0.655,1.086
		c0.099,0.446,0.049,0.868-0.149,1.265c-0.073,0.133-0.152,0.259-0.238,0.378c-0.086,0.118-0.202,0.244-0.347,0.377
		c-0.146,0.132-0.251,0.227-0.317,0.282c-0.066,0.057-0.202,0.164-0.407,0.322c-0.205,0.159-0.321,0.248-0.347,0.269
		c-0.225,0.178-0.536,0.444-0.933,0.798c-0.397,0.354-0.688,0.607-0.873,0.76h3.661v0.585h-4.266v-0.367
		c0-0.093,0.005-0.15,0.015-0.174c0.01-0.022,0.038-0.058,0.084-0.104c0.146-0.126,0.409-0.362,0.789-0.71
		c0.38-0.347,0.656-0.59,0.828-0.729c0.04-0.033,0.137-0.111,0.293-0.233c0.155-0.122,0.27-0.215,0.342-0.278
		c0.073-0.062,0.178-0.156,0.317-0.282c0.139-0.126,0.248-0.238,0.327-0.338c0.08-0.099,0.166-0.213,0.258-0.342
		c0.092-0.129,0.164-0.262,0.213-0.396c0.049-0.136,0.084-0.273,0.104-0.412c0.046-0.377-0.023-0.711-0.208-1.002
		c-0.284-0.424-0.731-0.658-1.339-0.704c-0.291-0.021-0.542,0.013-0.754,0.099C197.999,52.385,197.678,52.86,197.473,53.628z"/>
</g>
</svg>
