<?xml version="1.0" encoding="iso-8859-1"?>
<!-- Generator: Adobe Illustrator 16.0.0, SVG Export Plug-In . SVG Version: 6.00 Build 0)  -->
<!DOCTYPE svg PUBLIC "-//W3C//DTD SVG 1.1//EN" "http://www.w3.org/Graphics/SVG/1.1/DTD/svg11.dtd">
<svg version="1.1" id="Layer_1" xmlns="http://www.w3.org/2000/svg" xmlns:xlink="http://www.w3.org/1999/xlink" x="0px" y="0px"
	 width="566.929px" height="85.039px" viewBox="0 0 566.929 85.039" style="enable-background:new 0 0 566.929 85.039;"
	 xml:space="preserve">
<g>
	<path d="M29.058,34.507h0.893V35.4h-0.893V34.507z M31.936,34.507h0.893V35.4h-0.893V34.507z"/>
</g>
<g>
	<path d="M28.498,38.192c0.009-0.123,0.033-0.307,0.071-0.553c0-0.114,0.014-0.189,0.042-0.227c0.028-0.028,0.108-0.071,0.241-0.127
		c0.274-0.132,0.649-0.253,1.127-0.361c0.477-0.108,0.905-0.149,1.283-0.121c0.463,0.047,0.845,0.208,1.148,0.482
		c0.397,0.388,0.571,0.898,0.524,1.531c-0.01,0.066-0.066,0.342-0.17,0.829c-0.104,0.487-0.215,1.004-0.333,1.552
		c-0.118,0.548-0.182,0.851-0.191,0.907c0,0.01-0.021,0.113-0.064,0.312c-0.042,0.198-0.087,0.411-0.135,0.638
		c-0.047,0.227-0.08,0.378-0.099,0.454c0,0.104-0.071,0.155-0.212,0.155c-0.028,0-0.047,0-0.057,0H31.02l0.213-0.992
		c-0.529,0.567-1.262,0.917-2.197,1.049c-0.492,0.075-0.884,0.062-1.177-0.042c-0.35-0.161-0.564-0.463-0.645-0.908
		c-0.081-0.444-0.031-0.822,0.148-1.134c0.435-0.85,1.465-1.398,3.09-1.644c0.094-0.009,0.199-0.019,0.312-0.028
		c0.113-0.009,0.236-0.019,0.368-0.028s0.236-0.019,0.312-0.028h0.227c0.114,0,0.17-0.071,0.17-0.212
		c0.009-0.047,0.03-0.14,0.063-0.277c0.033-0.137,0.062-0.267,0.085-0.39c0.023-0.123,0.035-0.227,0.035-0.312
		c0.009-0.284-0.057-0.541-0.198-0.772s-0.335-0.38-0.581-0.447c-0.066-0.019-0.232-0.028-0.496-0.028
		c-0.539,0-1.073,0.128-1.602,0.383c-0.076,0.038-0.185,0.097-0.326,0.177C28.682,38.11,28.573,38.164,28.498,38.192z
		 M31.715,40.333c-1.333,0-2.348,0.274-3.047,0.822c-0.227,0.18-0.397,0.397-0.51,0.652c-0.113,0.255-0.113,0.496,0,0.723
		c0.151,0.293,0.458,0.468,0.921,0.524c0.377,0.048,0.758,0.005,1.141-0.127c0.383-0.132,0.688-0.34,0.914-0.624
		c0.151-0.188,0.274-0.52,0.369-0.992L31.715,40.333z"/>
</g>
<g>
	<rect x="26.102" y="49.421" width="7.216" height="0.574"/>
</g>
<g>
	<path d="M28.498,57.502c0.009-0.123,0.033-0.307,0.071-0.553c0-0.113,0.014-0.189,0.042-0.227c0.028-0.028,0.108-0.071,0.241-0.128
		c0.274-0.132,0.649-0.253,1.127-0.361c0.477-0.108,0.905-0.148,1.283-0.12c0.463,0.047,0.845,0.207,1.148,0.481
		c0.397,0.388,0.571,0.897,0.524,1.53c-0.01,0.066-0.066,0.343-0.17,0.829c-0.104,0.487-0.215,1.005-0.333,1.553
		s-0.182,0.85-0.191,0.907c0,0.009-0.021,0.113-0.064,0.312s-0.087,0.411-0.135,0.638s-0.08,0.378-0.099,0.453
		c0,0.104-0.071,0.156-0.212,0.156c-0.028,0-0.047,0-0.057,0H31.02l0.213-0.992c-0.529,0.567-1.262,0.917-2.197,1.049
		c-0.492,0.075-0.884,0.062-1.177-0.042c-0.35-0.161-0.564-0.463-0.645-0.907c-0.081-0.444-0.031-0.822,0.148-1.134
		c0.435-0.851,1.465-1.398,3.09-1.645c0.094-0.009,0.199-0.019,0.312-0.028s0.236-0.019,0.368-0.028s0.236-0.019,0.312-0.028h0.227
		c0.114,0,0.17-0.071,0.17-0.213c0.009-0.047,0.03-0.139,0.063-0.276c0.033-0.137,0.062-0.267,0.085-0.39
		c0.023-0.122,0.035-0.227,0.035-0.312c0.009-0.283-0.057-0.541-0.198-0.772s-0.335-0.381-0.581-0.446
		c-0.066-0.02-0.232-0.028-0.496-0.028c-0.539,0-1.073,0.127-1.602,0.383c-0.076,0.037-0.185,0.097-0.326,0.177
		S28.573,57.474,28.498,57.502z M31.715,59.642c-1.333,0-2.348,0.274-3.047,0.822c-0.227,0.18-0.397,0.397-0.51,0.652
		s-0.113,0.496,0,0.723c0.151,0.293,0.458,0.468,0.921,0.524c0.377,0.047,0.758,0.005,1.141-0.128
		c0.383-0.132,0.688-0.34,0.914-0.623c0.151-0.189,0.274-0.52,0.369-0.992L31.715,59.642z"/>
</g>
<g>
	<path d="M39.288,50.939c0.057-0.094,0.198-0.142,0.425-0.142h8.093h0.595c0.123,0.02,0.208,0.083,0.255,0.191
		s0.023,0.205-0.071,0.29c-0.057,0.058-0.156,0.086-0.297,0.086h-8.575c-0.142,0-0.227-0.005-0.255-0.015
		c-0.085-0.019-0.146-0.073-0.184-0.163C39.235,51.098,39.24,51.016,39.288,50.939z M39.458,48.062
		c0.019-0.01,0.099-0.015,0.241-0.015h8.122l0.297-0.014c0.199,0,0.298,0.005,0.298,0.014c0.113,0.02,0.191,0.085,0.234,0.199
		c0.042,0.113,0.021,0.208-0.064,0.283c-0.057,0.057-0.161,0.085-0.312,0.085h-8.519c-0.151,0-0.241-0.005-0.269-0.015
		c-0.151-0.028-0.229-0.115-0.234-0.262S39.316,48.101,39.458,48.062z"/>
</g>
<g>
	<path d="M54.801,49.438c0.019-0.01,0.094-0.015,0.227-0.015h7.441h0.539c0.113,0.02,0.187,0.085,0.22,0.198
		c0.033,0.114,0.012,0.208-0.064,0.284c-0.028,0.028-0.071,0.052-0.127,0.07c-0.057,0.02-0.106,0.028-0.149,0.028
		s-0.099-0.002-0.17-0.007s-0.116-0.007-0.135-0.007h-7.54c-0.142,0-0.222-0.005-0.241-0.015c-0.142-0.037-0.21-0.125-0.206-0.262
		C54.6,49.577,54.668,49.484,54.801,49.438z"/>
</g>
<g>
	<path d="M66.042,41.098v-0.482c0-0.198,0.042-0.354,0.127-0.468l0.17-0.283l0.667-1.021l2.608-4.082
		c0.188-0.302,0.302-0.468,0.34-0.496c0.028-0.019,0.132-0.028,0.312-0.028h0.765v6.109h1.616v0.751h-1.616v2.565h-0.893v-2.565
		H66.042z M70.181,35.046c-0.028,0.066-0.074,0.163-0.135,0.291c-0.062,0.127-0.111,0.225-0.149,0.291
		c-0.198,0.35-0.536,0.905-1.013,1.665c-0.478,0.761-0.912,1.448-1.304,2.062s-0.598,0.945-0.616,0.992h3.217V35.046z"/>
</g>
<g>
	<path d="M73.469,39.113c0.038-0.113,0.198-0.387,0.482-0.822c0.444-0.624,0.93-1.025,1.459-1.205
		c0.104-0.038,0.225-0.066,0.362-0.085c0.137-0.019,0.246-0.03,0.326-0.035s0.21-0.005,0.39,0c0.18,0.005,0.293,0.007,0.34,0.007
		h4.323c0.312,0,0.496,0.066,0.553,0.199c0.019,0.057,0.028,0.094,0.028,0.113c0.009,0.113-0.023,0.222-0.099,0.326
		s-0.17,0.17-0.283,0.198c-0.066,0.019-0.218,0.028-0.454,0.028h-1.162c-0.076,0-0.128,0.019-0.156,0.057
		c-0.009,0.019-0.028,0.109-0.057,0.27s-0.057,0.331-0.085,0.51c-0.028,0.179-0.047,0.283-0.057,0.312
		c-0.246,1.663-0.194,2.939,0.156,3.827c0.009,0.019,0.028,0.064,0.057,0.135s0.045,0.121,0.05,0.148
		c0.004,0.029,0.012,0.071,0.021,0.128s0.007,0.106-0.007,0.149c-0.014,0.042-0.036,0.087-0.064,0.135
		c-0.094,0.132-0.22,0.219-0.375,0.262c-0.156,0.042-0.291-0.003-0.404-0.135c-0.123-0.16-0.255-0.572-0.397-1.233
		c-0.198-1.096-0.142-2.461,0.17-4.096c0.038-0.208,0.071-0.364,0.1-0.468h-1.163c-0.293,1.795-0.803,3.6-1.53,5.414
		c-0.066,0.17-0.142,0.298-0.227,0.383c-0.095,0.085-0.201,0.132-0.319,0.142s-0.225-0.023-0.319-0.099
		c-0.104-0.104-0.123-0.256-0.057-0.454l0.397-1.021c0.312-0.878,0.694-2.333,1.148-4.365h-0.524c-0.35,0-0.605,0.047-0.766,0.142
		c-0.302,0.161-0.59,0.482-0.864,0.964c-0.057,0.085-0.095,0.132-0.114,0.142c-0.028,0.019-0.113,0.028-0.255,0.028H73.469z"/>
	<path d="M91.114,39l-0.794,3.742c-0.009,0.019-0.017,0.055-0.021,0.106c-0.005,0.052-0.012,0.097-0.021,0.135
		s-0.023,0.066-0.042,0.085c-0.113,0.113-0.657,0.293-1.63,0.538c-1.672,0.368-2.996,0.16-3.968-0.624
		c-0.501-0.425-0.851-0.917-1.049-1.474c-0.397-0.992-0.411-2.079-0.043-3.26c0.321-1.049,0.881-1.977,1.68-2.785
		c0.798-0.808,1.722-1.344,2.771-1.608c0.945-0.236,1.899-0.208,2.863,0.085c0.321,0.094,0.69,0.25,1.105,0.468L91.582,35.4
		c-0.52-0.368-0.803-0.562-0.851-0.581c-0.312-0.151-0.685-0.255-1.12-0.312s-0.87-0.047-1.304,0.028
		c-0.954,0.189-1.783,0.685-2.487,1.488s-1.174,1.706-1.41,2.707c-0.236,1.077-0.142,2.012,0.284,2.806
		c0.227,0.425,0.505,0.751,0.836,0.978c0.822,0.604,2.018,0.68,3.586,0.227c0.189-0.057,0.298-0.108,0.326-0.156
		c0-0.009,0.151-0.718,0.453-2.126c0.057-0.321,0.109-0.558,0.156-0.708h-2.225c0.057-0.34,0.113-0.581,0.17-0.723L88.223,39H91.114
		z"/>
</g>
<g>
	<rect x="65.631" y="49.421" width="27.186" height="0.574"/>
</g>
<g>
	<path d="M76.764,55.759l-0.312-0.439c-0.066-0.085-0.099-0.151-0.099-0.198c0-0.057,0.089-0.199,0.269-0.426
		c0.302-0.387,0.68-0.689,1.134-0.907c0.851-0.406,1.698-0.468,2.544-0.184c0.845,0.283,1.363,0.784,1.552,1.502
		c0.151,0.614,0.009,1.229-0.425,1.843c-0.227,0.303-0.505,0.558-0.836,0.766c-0.057,0.037-0.135,0.082-0.234,0.134
		c-0.1,0.053-0.168,0.088-0.206,0.106c0.255,0.038,0.539,0.151,0.85,0.341c0.614,0.35,1.011,0.821,1.191,1.417
		c0.16,0.501,0.158,0.992-0.007,1.474c-0.166,0.482-0.423,0.884-0.772,1.205c-0.17,0.161-0.383,0.312-0.638,0.453
		c-0.775,0.406-1.644,0.478-2.608,0.213c-0.708-0.208-1.342-0.628-1.899-1.262c-0.076-0.094-0.116-0.158-0.12-0.191
		c-0.005-0.032,0.002-0.105,0.021-0.219c0.057-0.312,0.09-0.478,0.099-0.496c0.359,0.481,0.723,0.826,1.091,1.034
		c0.34,0.208,0.704,0.361,1.092,0.461c0.387,0.099,0.787,0.115,1.197,0.049c0.411-0.065,0.763-0.23,1.056-0.495
		c0.331-0.303,0.529-0.709,0.595-1.22c0.066-0.51-0.005-0.959-0.212-1.346c-0.227-0.444-0.586-0.756-1.078-0.936
		c-0.236-0.085-0.595-0.128-1.077-0.128h-0.949v-0.709c0.812-0.047,1.36-0.122,1.644-0.227c0.359-0.132,0.659-0.352,0.9-0.659
		c0.241-0.307,0.38-0.649,0.418-1.027c0.047-0.416-0.066-0.774-0.34-1.077c-0.284-0.283-0.664-0.441-1.141-0.475
		s-0.891,0.04-1.24,0.22c-0.435,0.18-0.812,0.473-1.134,0.879c-0.047,0.066-0.106,0.158-0.177,0.276S76.792,55.711,76.764,55.759z"
		/>
</g>
<g>
	<path d="M103.202,61.926c-0.114-0.101-0.315-0.33-0.459-0.502c0-0.015-0.53-0.603-0.918-1.162
		c-2.251-3.327-2.868-7.172-2.868-10.57c0-2.382,0.33-4.69,0.946-6.584c0.99-3.026,2.524-5.02,3.887-6.196
		c0.129-0.115,0.158-0.115,0.344-0.115c0.172,0,0.272,0,0.272,0.144c0,0.029,0,0.072-0.043,0.115
		c-2.51,2.539-4.317,6.282-4.317,12.65c0,3.442,0.574,6.985,2.123,9.739c0.889,1.578,1.664,2.366,2.18,2.883
		c0.029,0.043,0.058,0.072,0.058,0.129c0,0.13-0.115,0.144-0.158,0.144h-0.315c-0.015,0-0.144-0.144-0.172-0.157L103.202,61.926z"/>
</g>
<g>
	<path d="M106.913,52.726l-0.411,1.928c0,0.019-0.026,0.155-0.078,0.411c-0.052,0.255-0.097,0.448-0.134,0.581
		c-0.057,0.17-0.17,0.295-0.34,0.375s-0.326,0.055-0.468-0.078c-0.095-0.085-0.109-0.273-0.042-0.566l0.297-1.432
		c0.539-2.57,0.851-3.992,0.936-4.267c0.236-0.803,0.662-1.511,1.276-2.126c0.377-0.358,0.805-0.623,1.283-0.793
		c0.477-0.17,0.933-0.165,1.368,0.014c0.368,0.17,0.656,0.411,0.864,0.723c0.293,0.436,0.439,1.002,0.439,1.701
		c0,0.661-0.14,1.307-0.418,1.935c-0.279,0.629-0.664,1.165-1.155,1.608c-0.369,0.331-0.777,0.569-1.226,0.716
		s-0.881,0.145-1.297-0.007C107.475,53.335,107.177,53.094,106.913,52.726z M109.648,47.354c-0.567,0.057-1.054,0.369-1.46,0.936
		c-0.491,0.681-0.779,1.63-0.865,2.849c-0.028,0.388,0.043,0.747,0.213,1.077c0.17,0.331,0.43,0.534,0.779,0.609
		c0.085,0.02,0.213,0.028,0.383,0.028c0.435-0.037,0.841-0.245,1.219-0.623c0.482-0.491,0.822-1.262,1.021-2.311
		c0.066-0.415,0.099-0.694,0.099-0.836c0-0.822-0.231-1.352-0.694-1.588C110.163,47.401,109.932,47.354,109.648,47.354z"/>
</g>
<g>
	<path d="M120.479,49.423v-3.926c0-0.16,0.004-0.26,0.014-0.298c0.028-0.142,0.118-0.212,0.269-0.212c0.151,0,0.241,0.07,0.27,0.212
		c0.009,0.028,0.014,0.123,0.014,0.283v3.94h3.926c0.161,0,0.255,0.005,0.284,0.015c0.142,0.028,0.212,0.118,0.212,0.269
		c0,0.151-0.071,0.241-0.212,0.27c-0.028,0.01-0.123,0.015-0.284,0.015h-3.926v3.939c0,0.161-0.005,0.256-0.014,0.284
		c-0.028,0.142-0.118,0.212-0.27,0.212c-0.151,0-0.241-0.07-0.269-0.212c-0.01-0.028-0.014-0.123-0.014-0.284V49.99h-3.94
		c-0.161,0-0.255-0.005-0.283-0.015c-0.142-0.028-0.213-0.118-0.213-0.27c0-0.15,0.071-0.24,0.213-0.269
		c0.028-0.01,0.123-0.015,0.283-0.015H120.479z"/>
	<path d="M130.669,46.234l-0.312-0.439c-0.066-0.085-0.099-0.151-0.099-0.198c0-0.057,0.089-0.199,0.269-0.426
		c0.302-0.387,0.68-0.689,1.134-0.907c0.851-0.406,1.698-0.468,2.544-0.184c0.845,0.283,1.363,0.784,1.552,1.502
		c0.151,0.614,0.009,1.229-0.425,1.843c-0.227,0.303-0.505,0.558-0.836,0.766c-0.057,0.037-0.135,0.082-0.234,0.134
		c-0.1,0.053-0.168,0.088-0.206,0.106c0.255,0.038,0.539,0.151,0.85,0.341c0.614,0.35,1.011,0.821,1.191,1.417
		c0.16,0.501,0.158,0.992-0.007,1.474c-0.166,0.482-0.423,0.884-0.772,1.205c-0.17,0.161-0.383,0.312-0.638,0.453
		c-0.775,0.406-1.644,0.478-2.608,0.213c-0.708-0.208-1.342-0.628-1.899-1.262c-0.076-0.094-0.116-0.158-0.12-0.191
		c-0.005-0.032,0.002-0.105,0.021-0.219c0.057-0.312,0.09-0.478,0.099-0.496c0.359,0.481,0.723,0.826,1.091,1.034
		c0.34,0.208,0.704,0.361,1.092,0.461c0.387,0.099,0.787,0.115,1.197,0.049c0.411-0.065,0.763-0.23,1.056-0.495
		c0.331-0.303,0.529-0.709,0.595-1.22c0.066-0.51-0.005-0.959-0.212-1.346c-0.227-0.444-0.586-0.756-1.078-0.936
		c-0.236-0.085-0.595-0.128-1.077-0.128h-0.949v-0.709c0.812-0.047,1.36-0.122,1.644-0.227c0.359-0.132,0.659-0.352,0.9-0.659
		c0.241-0.307,0.38-0.649,0.418-1.027c0.047-0.416-0.066-0.774-0.34-1.077c-0.284-0.283-0.664-0.441-1.141-0.475
		s-0.891,0.04-1.24,0.22c-0.435,0.18-0.812,0.473-1.134,0.879c-0.047,0.066-0.106,0.158-0.177,0.276S130.698,46.187,130.669,46.234z
		"/>
</g>
<g>
	<path d="M144.285,37.937c0.34-0.34,0.772-0.63,1.297-0.872c0.524-0.241,1.042-0.291,1.552-0.149
		c0.425,0.133,0.751,0.409,0.978,0.829c0.227,0.421,0.354,0.876,0.383,1.368c0.038,0.822-0.135,1.618-0.517,2.388
		c-0.383,0.771-0.915,1.373-1.595,1.807c-0.265,0.17-0.541,0.298-0.829,0.383s-0.591,0.108-0.907,0.071
		c-0.316-0.038-0.593-0.151-0.829-0.341c-0.161-0.132-0.34-0.368-0.539-0.708l-0.694,3.317h-0.907l1.914-9.057h0.893L144.285,37.937
		z M146.255,37.611c-0.586-0.104-1.162,0.076-1.729,0.539c-0.104,0.094-0.175,0.158-0.213,0.191
		c-0.038,0.034-0.076,0.088-0.113,0.163c-0.038,0.076-0.066,0.17-0.085,0.284l-0.085,0.411c-0.227,1.04-0.393,1.819-0.496,2.338
		c0,0.019-0.017,0.09-0.05,0.212c-0.033,0.123-0.049,0.218-0.049,0.284c0,0.009,0.028,0.113,0.085,0.312
		c0.236,0.52,0.628,0.76,1.176,0.723c0.397-0.029,0.779-0.156,1.148-0.383c0.756-0.454,1.275-1.143,1.559-2.069
		c0.076-0.236,0.127-0.524,0.156-0.864c0.047-0.473-0.047-0.921-0.283-1.347C147.039,37.979,146.699,37.715,146.255,37.611z"/>
</g>
<g>
	<rect x="138.059" y="49.421" width="13.716" height="0.574"/>
</g>
<g>
	<path d="M144.522,61.386c-0.009,0.037-0.021,0.122-0.035,0.255c-0.014,0.132-0.028,0.25-0.042,0.354
		c-0.014,0.104-0.026,0.165-0.036,0.184c-0.019,0.02-0.109,0.085-0.27,0.198c-0.368,0.236-0.772,0.421-1.211,0.553
		c-0.439,0.133-0.917,0.175-1.432,0.128c-0.515-0.047-0.952-0.231-1.311-0.553c-0.331-0.302-0.565-0.688-0.702-1.155
		c-0.137-0.468-0.168-0.961-0.092-1.48c0.113-0.784,0.427-1.508,0.942-2.169c0.515-0.661,1.136-1.129,1.864-1.403
		c0.312-0.113,0.702-0.175,1.169-0.184c0.467-0.01,0.872,0.042,1.211,0.155c0.217,0.066,0.524,0.213,0.921,0.439l-0.298,0.779
		c-0.435-0.264-0.666-0.406-0.694-0.425c-0.293-0.123-0.628-0.198-1.006-0.227s-0.742,0.009-1.091,0.113
		c-0.586,0.188-1.056,0.558-1.41,1.105s-0.588,1.157-0.702,1.828c-0.076,0.473-0.052,0.921,0.071,1.347
		c0.123,0.425,0.369,0.737,0.737,0.936c0.472,0.236,1.063,0.26,1.771,0.07c0.387-0.094,0.78-0.269,1.176-0.524
		c0.047-0.028,0.121-0.08,0.22-0.155C144.373,61.479,144.456,61.423,144.522,61.386z"/>
</g>
<g>
	<path d="M146.773,54.335c-0.04-0.033-0.091-0.089-0.154-0.169c-0.063-0.079-0.101-0.125-0.114-0.139
		c-0.073-0.086-0.109-0.139-0.109-0.158c-0.013-0.033,0-0.097,0.04-0.188c0.125-0.351,0.311-0.648,0.556-0.894
		c0.397-0.37,0.898-0.556,1.503-0.556c0.605,0,1.116,0.176,1.533,0.526c0.337,0.277,0.555,0.64,0.655,1.086
		c0.099,0.446,0.049,0.868-0.149,1.265c-0.073,0.133-0.152,0.259-0.238,0.378c-0.086,0.118-0.202,0.244-0.347,0.377
		c-0.146,0.132-0.251,0.227-0.317,0.282c-0.066,0.057-0.202,0.164-0.407,0.322c-0.205,0.159-0.321,0.248-0.347,0.269
		c-0.225,0.178-0.536,0.444-0.933,0.798c-0.397,0.354-0.688,0.607-0.873,0.76h3.661v0.585h-4.266v-0.367
		c0-0.093,0.005-0.15,0.015-0.174c0.01-0.022,0.038-0.058,0.084-0.104c0.146-0.126,0.409-0.362,0.789-0.71
		c0.38-0.347,0.656-0.59,0.828-0.729c0.04-0.033,0.137-0.111,0.293-0.233c0.155-0.122,0.27-0.215,0.342-0.278
		c0.073-0.062,0.178-0.156,0.317-0.282c0.139-0.126,0.248-0.238,0.327-0.338c0.08-0.099,0.166-0.213,0.258-0.342
		c0.092-0.129,0.164-0.262,0.213-0.396c0.049-0.136,0.084-0.273,0.104-0.412c0.046-0.377-0.023-0.711-0.208-1.002
		c-0.284-0.424-0.731-0.658-1.339-0.704c-0.291-0.021-0.542,0.013-0.754,0.099C147.299,53.092,146.979,53.567,146.773,54.335z"/>
</g>
<g>
	<path d="M157.99,56.289c-0.99,3.026-2.524,5.02-3.887,6.196c-0.129,0.114-0.158,0.114-0.344,0.114c-0.144,0-0.273,0-0.273-0.144
		c0-0.043,0.029-0.086,0.058-0.114c2.582-2.625,4.303-6.426,4.303-12.65c0-3.442-0.573-6.985-2.123-9.739
		c-0.889-1.578-1.664-2.367-2.151-2.869c-0.029-0.028-0.086-0.086-0.086-0.143c0-0.144,0.129-0.144,0.273-0.144
		c0.186,0,0.215,0,0.315,0.086c0.344,0.301,0.875,0.861,1.076,1.09c2.826,3.227,3.787,7.602,3.787,11.719
		C158.937,52,158.622,54.324,157.99,56.289z"/>
</g>
<g>
	<path d="M169.918,49.423v-3.926c0-0.16,0.004-0.26,0.014-0.298c0.028-0.142,0.118-0.212,0.269-0.212c0.151,0,0.241,0.07,0.27,0.212
		c0.009,0.028,0.014,0.123,0.014,0.283v3.94h3.926c0.161,0,0.255,0.005,0.284,0.015c0.142,0.028,0.212,0.118,0.212,0.269
		c0,0.151-0.071,0.241-0.212,0.27c-0.028,0.01-0.123,0.015-0.284,0.015h-3.926v3.939c0,0.161-0.005,0.256-0.014,0.284
		c-0.028,0.142-0.118,0.212-0.27,0.212c-0.151,0-0.241-0.07-0.269-0.212c-0.01-0.028-0.014-0.123-0.014-0.284V49.99h-3.94
		c-0.161,0-0.255-0.005-0.283-0.015c-0.142-0.028-0.213-0.118-0.213-0.27c0-0.15,0.071-0.24,0.213-0.269
		c0.028-0.01,0.123-0.015,0.283-0.015H169.918z"/>
</g>
<g>
	<path d="M186.52,42.076c-0.009,0.038-0.021,0.123-0.035,0.255c-0.014,0.133-0.028,0.25-0.042,0.354s-0.026,0.166-0.036,0.185
		c-0.019,0.019-0.109,0.085-0.27,0.199c-0.368,0.236-0.772,0.42-1.211,0.553c-0.439,0.132-0.917,0.174-1.432,0.127
		c-0.515-0.047-0.952-0.231-1.311-0.553c-0.331-0.302-0.565-0.688-0.702-1.155c-0.137-0.467-0.168-0.961-0.092-1.481
		c0.113-0.784,0.427-1.507,0.942-2.168c0.515-0.661,1.136-1.129,1.864-1.403c0.312-0.113,0.702-0.174,1.169-0.184
		c0.467-0.009,0.872,0.042,1.211,0.156c0.217,0.066,0.524,0.213,0.921,0.439l-0.298,0.78c-0.435-0.265-0.666-0.406-0.694-0.425
		c-0.293-0.123-0.628-0.199-1.006-0.227s-0.742,0.01-1.091,0.114c-0.586,0.189-1.056,0.558-1.41,1.105s-0.588,1.157-0.702,1.828
		c-0.076,0.473-0.052,0.921,0.071,1.347c0.123,0.425,0.369,0.737,0.737,0.935c0.472,0.237,1.063,0.26,1.771,0.071
		c0.387-0.095,0.78-0.27,1.176-0.524c0.047-0.028,0.121-0.081,0.22-0.156C186.371,42.17,186.454,42.114,186.52,42.076z"/>
</g>
<g>
	<path d="M188.771,33.976c-0.04-0.033-0.091-0.089-0.154-0.168c-0.063-0.08-0.101-0.126-0.114-0.139
		c-0.073-0.086-0.109-0.139-0.109-0.159c-0.013-0.033,0-0.096,0.04-0.188c0.125-0.351,0.311-0.648,0.556-0.893
		c0.397-0.37,0.898-0.555,1.503-0.555c0.605,0,1.116,0.175,1.533,0.525c0.337,0.278,0.555,0.64,0.655,1.086
		c0.099,0.447,0.049,0.868-0.149,1.265c-0.073,0.132-0.152,0.258-0.238,0.377s-0.202,0.245-0.347,0.377s-0.251,0.227-0.317,0.283
		c-0.066,0.056-0.202,0.164-0.407,0.323c-0.205,0.159-0.321,0.248-0.347,0.268c-0.225,0.179-0.536,0.445-0.933,0.799
		c-0.397,0.354-0.688,0.607-0.873,0.759h3.661v0.585h-4.266v-0.367c0-0.092,0.005-0.15,0.015-0.173
		c0.01-0.023,0.038-0.058,0.084-0.104c0.146-0.125,0.409-0.362,0.789-0.709c0.38-0.348,0.656-0.59,0.828-0.729
		c0.04-0.033,0.137-0.111,0.293-0.233c0.155-0.123,0.27-0.215,0.342-0.278s0.178-0.157,0.317-0.283
		c0.139-0.126,0.248-0.238,0.327-0.337c0.08-0.099,0.166-0.213,0.258-0.342c0.092-0.129,0.164-0.261,0.213-0.397
		c0.049-0.135,0.084-0.273,0.104-0.412c0.046-0.377-0.023-0.711-0.208-1.002c-0.284-0.423-0.731-0.658-1.339-0.705
		c-0.291-0.02-0.542,0.013-0.754,0.099C189.297,32.733,188.977,33.209,188.771,33.976z"/>
</g>
<g>
	<rect x="180.057" y="49.421" width="13.716" height="0.574"/>
</g>
<g>
	<path d="M184.455,55.759l-0.312-0.439c-0.066-0.085-0.099-0.151-0.099-0.198c0-0.057,0.089-0.199,0.269-0.426
		c0.302-0.387,0.68-0.689,1.134-0.907c0.851-0.406,1.698-0.468,2.544-0.184c0.845,0.283,1.363,0.784,1.552,1.502
		c0.151,0.614,0.009,1.229-0.425,1.843c-0.227,0.303-0.505,0.558-0.836,0.766c-0.057,0.037-0.135,0.082-0.234,0.134
		c-0.1,0.053-0.168,0.088-0.206,0.106c0.255,0.038,0.539,0.151,0.85,0.341c0.614,0.35,1.011,0.821,1.191,1.417
		c0.16,0.501,0.158,0.992-0.007,1.474c-0.166,0.482-0.423,0.884-0.772,1.205c-0.17,0.161-0.383,0.312-0.638,0.453
		c-0.775,0.406-1.644,0.478-2.608,0.213c-0.708-0.208-1.342-0.628-1.899-1.262c-0.076-0.094-0.116-0.158-0.12-0.191
		c-0.005-0.032,0.002-0.105,0.021-0.219c0.057-0.312,0.09-0.478,0.099-0.496c0.359,0.481,0.723,0.826,1.091,1.034
		c0.34,0.208,0.704,0.361,1.092,0.461c0.387,0.099,0.787,0.115,1.197,0.049c0.411-0.065,0.763-0.23,1.056-0.495
		c0.331-0.303,0.529-0.709,0.595-1.22c0.066-0.51-0.005-0.959-0.212-1.346c-0.227-0.444-0.586-0.756-1.078-0.936
		c-0.236-0.085-0.595-0.128-1.077-0.128h-0.949v-0.709c0.812-0.047,1.36-0.122,1.644-0.227c0.359-0.132,0.659-0.352,0.9-0.659
		c0.241-0.307,0.38-0.649,0.418-1.027c0.047-0.416-0.066-0.774-0.34-1.077c-0.284-0.283-0.664-0.441-1.141-0.475
		s-0.891,0.04-1.24,0.22c-0.435,0.18-0.812,0.473-1.134,0.879c-0.047,0.066-0.106,0.158-0.177,0.276S184.483,55.711,184.455,55.759z
		"/>
</g>
<g>
	<path d="M195.379,53.448c0.123-0.396,0.706-2.107,1.75-5.131c1.044-3.023,1.585-4.582,1.623-4.677s0.076-0.146,0.113-0.156h0.255
		h0.468c0.132,0,0.21,0.007,0.234,0.021c0.023,0.014,0.059,0.068,0.106,0.163c0.208,0.671,1.134,3.363,2.778,8.078
		c0.057,0.189,0.151,0.473,0.283,0.851s0.231,0.662,0.298,0.851h-0.78c-0.161,0-0.25-0.015-0.269-0.043
		c-0.047-0.047-0.142-0.307-0.284-0.779l-0.595-1.743c-0.803-2.268-1.413-4.077-1.828-5.429c-0.151-0.481-0.241-0.793-0.27-0.935
		h-0.014c-0.246,0.841-0.503,1.677-0.772,2.508c-0.269,0.832-0.624,1.883-1.063,3.154c-0.439,1.271-0.721,2.081-0.843,2.431
		l-0.284,0.836H195.379z"/>
</g>
</svg>
