<?xml version="1.0" encoding="iso-8859-1"?>
<!-- Generator: Adobe Illustrator 16.0.0, SVG Export Plug-In . SVG Version: 6.00 Build 0)  -->
<!DOCTYPE svg PUBLIC "-//W3C//DTD SVG 1.1//EN" "http://www.w3.org/Graphics/SVG/1.1/DTD/svg11.dtd">
<svg version="1.1" id="Layer_1" xmlns="http://www.w3.org/2000/svg" xmlns:xlink="http://www.w3.org/1999/xlink" x="0px" y="0px"
	 width="566.929px" height="85.039px" viewBox="0 0 566.929 85.039" style="enable-background:new 0 0 566.929 85.039;"
	 xml:space="preserve">
<g>
	<path d="M26.537,44.67h0.907c0.066,0.425,0.163,1.027,0.291,1.807s0.241,1.491,0.34,2.133c0.1,0.643,0.187,1.257,0.262,1.843
		l3.289-5.627l0.113-0.142c0.179-0.009,0.468-0.014,0.865-0.014l-3.827,6.533l-0.127,0.171c-0.142,0.019-0.487,0.028-1.035,0.028
		c-0.085-0.52-0.253-1.557-0.503-3.111C26.861,46.736,26.669,45.529,26.537,44.67z"/>
</g>
<g>
	<path d="M37.806,48.851c0.057-0.094,0.198-0.142,0.425-0.142h8.093h0.595c0.123,0.02,0.208,0.083,0.255,0.191
		s0.023,0.205-0.071,0.29c-0.057,0.058-0.156,0.086-0.297,0.086H38.23c-0.142,0-0.227-0.005-0.255-0.015
		c-0.085-0.019-0.146-0.073-0.184-0.163C37.753,49.009,37.758,48.927,37.806,48.851z M37.976,45.974
		c0.019-0.01,0.099-0.015,0.241-0.015h8.122l0.297-0.014c0.199,0,0.298,0.005,0.298,0.014c0.113,0.02,0.191,0.085,0.234,0.199
		c0.042,0.113,0.021,0.208-0.064,0.283c-0.057,0.057-0.161,0.085-0.312,0.085h-8.519c-0.151,0-0.241-0.005-0.269-0.015
		c-0.151-0.028-0.229-0.115-0.234-0.262S37.834,46.012,37.976,45.974z"/>
</g>
<g>
	<path d="M55.403,41.523h0.992c-0.198,0.974-0.505,2.424-0.921,4.351h5.102c0.028,0,0.052-0.002,0.071-0.007
		s0.038-0.014,0.057-0.028c0.019-0.014,0.033-0.025,0.042-0.035c0.009-0.01,0.016-0.028,0.021-0.057s0.009-0.048,0.014-0.057
		c0.005-0.01,0.009-0.031,0.014-0.064c0.005-0.032,0.007-0.054,0.007-0.063l0.17-0.794c0.066-0.321,0.177-0.843,0.333-1.565
		c0.156-0.723,0.271-1.283,0.347-1.68h0.992c-0.009,0.057-0.34,1.625-0.992,4.706c-0.652,3.081-0.992,4.687-1.021,4.819
		c-0.019,0.142-0.042,0.231-0.071,0.269c-0.019,0.028-0.104,0.043-0.255,0.043h-0.737l1.006-4.733h-5.13l-0.114,0.028
		c-0.227,0.973-0.548,2.451-0.963,4.436l-0.071,0.241c-0.132,0.019-0.458,0.028-0.978,0.028L55.403,41.523z"/>
</g>
<g>
	<path d="M65.053,46.848c0.271-0.026,0.544,0.012,0.819,0.114c0.274,0.103,0.504,0.25,0.689,0.441
		c0.516,0.536,0.774,1.433,0.774,2.689c0,0.893-0.08,1.58-0.238,2.063c-0.304,0.886-0.863,1.375-1.677,1.468
		c-0.675,0.066-1.23-0.139-1.667-0.615c-0.47-0.522-0.705-1.432-0.705-2.728c0-0.88,0.092-1.564,0.278-2.054
		c0.125-0.312,0.276-0.566,0.451-0.765s0.402-0.356,0.68-0.476C64.59,46.935,64.788,46.888,65.053,46.848z M66.214,47.84
		c-0.179-0.218-0.409-0.361-0.69-0.432c-0.281-0.069-0.561-0.051-0.838,0.055c-0.364,0.173-0.612,0.434-0.744,0.784
		c-0.126,0.311-0.195,0.725-0.208,1.24c0,0.039-0.002,0.098-0.005,0.174c-0.003,0.076-0.005,0.134-0.005,0.173v0.486
		c0,0.774,0.062,1.356,0.188,1.746c0.085,0.252,0.178,0.44,0.278,0.565c0.277,0.351,0.641,0.51,1.091,0.477
		c0.827-0.066,1.28-0.761,1.359-2.084c0.013-0.185,0.02-0.32,0.02-0.406v-0.525c0-0.86-0.069-1.466-0.208-1.816
		C66.379,48.092,66.299,47.946,66.214,47.84z"/>
</g>
<g>
	<path d="M71.84,41.523h2.976c0.689,0,1.101,0.005,1.233,0.014c1.011,0.104,1.819,0.553,2.424,1.347
		c0.35,0.463,0.581,0.999,0.694,1.608c0.114,0.609,0.118,1.205,0.014,1.786s-0.288,1.141-0.553,1.68
		c-0.416,0.831-1.011,1.562-1.786,2.189c-0.775,0.629-1.649,1.019-2.622,1.169c-0.208,0.028-0.836,0.043-1.885,0.043h-2.579
		L71.84,41.523z M70.89,50.608h1.913c0.699,0,1.177-0.023,1.432-0.071c0.907-0.142,1.691-0.521,2.353-1.141
		c0.662-0.619,1.134-1.377,1.417-2.274c0.142-0.463,0.234-0.915,0.276-1.354c0.042-0.438,0.007-0.893-0.106-1.36
		c-0.113-0.468-0.321-0.871-0.624-1.212c-0.217-0.264-0.517-0.477-0.9-0.638c-0.383-0.16-0.787-0.255-1.212-0.283
		c0-0.009-0.137-0.014-0.411-0.014l-0.397,0.014h-1.97L70.89,50.608z"/>
</g>
</svg>
