<?xml version="1.0" encoding="iso-8859-1"?>
<!-- Generator: Adobe Illustrator 16.0.0, SVG Export Plug-In . SVG Version: 6.00 Build 0)  -->
<!DOCTYPE svg PUBLIC "-//W3C//DTD SVG 1.1//EN" "http://www.w3.org/Graphics/SVG/1.1/DTD/svg11.dtd">
<svg version="1.1" id="Layer_1" xmlns="http://www.w3.org/2000/svg" xmlns:xlink="http://www.w3.org/1999/xlink" x="0px" y="0px"
	 width="566.93px" height="85.04px" viewBox="0 0 566.93 85.04" style="enable-background:new 0 0 566.93 85.04;"
	 xml:space="preserve">
<g>
	<path d="M26.296,48.555c0.019-0.01,0.094-0.015,0.227-0.015h7.441h0.539c0.113,0.02,0.187,0.085,0.22,0.198
		c0.033,0.114,0.012,0.208-0.064,0.284c-0.028,0.028-0.071,0.052-0.127,0.07c-0.057,0.02-0.106,0.028-0.149,0.028
		s-0.099-0.002-0.17-0.007s-0.116-0.007-0.135-0.007h-7.54c-0.142,0-0.222-0.005-0.241-0.015c-0.142-0.037-0.21-0.125-0.206-0.262
		C26.095,48.694,26.164,48.602,26.296,48.555z"/>
</g>
<g>
	<path d="M42.393,50.979c-0.009,0.037-0.021,0.122-0.035,0.255c-0.014,0.132-0.028,0.25-0.042,0.354
		c-0.014,0.104-0.026,0.165-0.036,0.184c-0.019,0.02-0.109,0.085-0.27,0.198c-0.368,0.236-0.772,0.421-1.211,0.553
		c-0.439,0.133-0.917,0.175-1.432,0.128c-0.515-0.047-0.952-0.231-1.311-0.553c-0.331-0.302-0.565-0.688-0.702-1.155
		c-0.137-0.468-0.168-0.961-0.092-1.48c0.113-0.784,0.427-1.508,0.942-2.169c0.515-0.661,1.136-1.129,1.864-1.403
		c0.312-0.113,0.702-0.175,1.169-0.184c0.467-0.01,0.872,0.042,1.211,0.155c0.217,0.066,0.524,0.213,0.921,0.439l-0.298,0.779
		c-0.435-0.264-0.666-0.406-0.694-0.425c-0.293-0.123-0.628-0.198-1.006-0.227s-0.742,0.009-1.091,0.113
		c-0.586,0.188-1.056,0.558-1.41,1.105s-0.588,1.157-0.702,1.828c-0.076,0.473-0.052,0.921,0.071,1.347
		c0.123,0.425,0.369,0.737,0.737,0.936c0.472,0.236,1.063,0.26,1.771,0.07c0.387-0.094,0.78-0.269,1.176-0.524
		c0.047-0.028,0.121-0.08,0.22-0.155C42.244,51.072,42.327,51.016,42.393,50.979z"/>
</g>
<g>
	<path d="M44.645,42.169c-0.04-0.033-0.091-0.089-0.154-0.169c-0.063-0.079-0.101-0.125-0.114-0.139
		c-0.073-0.086-0.109-0.139-0.109-0.158c-0.013-0.033,0-0.097,0.04-0.188c0.125-0.351,0.311-0.648,0.556-0.894
		c0.397-0.37,0.898-0.556,1.503-0.556c0.605,0,1.116,0.176,1.533,0.526c0.337,0.277,0.555,0.64,0.655,1.086
		c0.099,0.446,0.049,0.868-0.149,1.265c-0.073,0.133-0.152,0.259-0.238,0.378c-0.086,0.118-0.202,0.244-0.347,0.377
		c-0.146,0.132-0.251,0.227-0.317,0.282c-0.066,0.057-0.202,0.164-0.407,0.322c-0.205,0.159-0.321,0.248-0.347,0.269
		c-0.225,0.178-0.536,0.444-0.933,0.798c-0.397,0.354-0.688,0.607-0.873,0.76h3.661v0.585h-4.266v-0.367
		c0-0.093,0.005-0.15,0.015-0.174c0.01-0.022,0.038-0.058,0.084-0.104c0.146-0.126,0.409-0.362,0.789-0.71
		c0.38-0.347,0.656-0.59,0.828-0.729c0.04-0.033,0.137-0.111,0.293-0.233c0.155-0.122,0.27-0.215,0.342-0.278
		c0.073-0.062,0.178-0.156,0.317-0.282c0.139-0.126,0.248-0.238,0.327-0.338c0.08-0.099,0.166-0.213,0.258-0.342
		c0.092-0.129,0.164-0.262,0.213-0.396c0.049-0.136,0.084-0.273,0.104-0.412c0.046-0.377-0.023-0.711-0.208-1.002
		c-0.284-0.424-0.731-0.658-1.339-0.704c-0.291-0.021-0.542,0.013-0.754,0.099C45.171,40.926,44.85,41.401,44.645,42.169z"/>
</g>
<g>
	<path d="M57.002,42.729h0.893l-1.587,7.54c-0.227,1.039-0.378,1.743-0.454,2.111l-0.057,0.156
		c-0.123,0.019-0.421,0.028-0.893,0.028l0.212-1.034c-0.198,0.217-0.382,0.392-0.553,0.524c-0.368,0.283-0.763,0.472-1.183,0.566
		c-0.421,0.095-0.849,0.057-1.283-0.113c-0.454-0.227-0.785-0.619-0.992-1.177c-0.208-0.557-0.25-1.186-0.127-1.885
		c0.198-1.209,0.741-2.188,1.63-2.934c0.406-0.35,0.845-0.579,1.318-0.688c0.472-0.108,0.954-0.055,1.446,0.163
		c0.151,0.075,0.302,0.187,0.454,0.333c0.151,0.146,0.255,0.295,0.312,0.446h0.014L57.002,42.729z M55.868,47.052
		c-0.161-0.273-0.402-0.448-0.723-0.524c-0.321-0.075-0.638-0.073-0.949,0.008c-0.312,0.08-0.586,0.2-0.822,0.361
		c-0.841,0.52-1.347,1.436-1.517,2.749c-0.132,0.86,0.023,1.498,0.468,1.914c0.369,0.312,0.794,0.448,1.275,0.41
		c0.482-0.037,0.921-0.264,1.318-0.68c0.227-0.227,0.359-0.454,0.397-0.681c0.349-1.644,0.548-2.57,0.595-2.777
		c0.057-0.293,0.085-0.449,0.085-0.468C55.986,47.316,55.943,47.213,55.868,47.052z"/>
	<path d="M58.717,48.016c0.038-0.113,0.198-0.387,0.482-0.822c0.444-0.613,0.926-1.016,1.445-1.204
		c0.199-0.076,0.628-0.113,1.29-0.113h3.628c0.312,0,0.496,0.062,0.553,0.184c0.066,0.143,0.049,0.286-0.05,0.433
		s-0.225,0.229-0.375,0.248h-0.312h-2.197c-0.009,0.057-0.196,0.938-0.56,2.644c-0.364,1.705-0.555,2.605-0.574,2.7
		c-0.038,0.188-0.081,0.312-0.127,0.368c-0.076,0.104-0.18,0.175-0.312,0.213c-0.132,0.037-0.255,0.019-0.368-0.057
		c-0.114-0.086-0.151-0.241-0.114-0.468c0.718-3.298,1.101-5.098,1.148-5.4h-0.878c-0.359,0-0.624,0.043-0.794,0.128
		c-0.321,0.17-0.619,0.496-0.893,0.978c-0.057,0.085-0.095,0.133-0.114,0.142c-0.028,0.02-0.113,0.028-0.255,0.028H58.717z"/>
</g>
<g>
	<path d="M67.536,42.169c-0.04-0.033-0.091-0.089-0.154-0.169c-0.063-0.079-0.101-0.125-0.114-0.139
		c-0.073-0.086-0.109-0.139-0.109-0.158c-0.013-0.033,0-0.097,0.04-0.188c0.125-0.351,0.311-0.648,0.556-0.894
		c0.397-0.37,0.898-0.556,1.503-0.556c0.605,0,1.116,0.176,1.533,0.526c0.337,0.277,0.555,0.64,0.655,1.086
		c0.099,0.446,0.049,0.868-0.149,1.265c-0.073,0.133-0.152,0.259-0.238,0.378c-0.086,0.118-0.202,0.244-0.347,0.377
		c-0.146,0.132-0.251,0.227-0.317,0.282c-0.066,0.057-0.202,0.164-0.407,0.322c-0.205,0.159-0.321,0.248-0.347,0.269
		c-0.225,0.178-0.536,0.444-0.933,0.798c-0.397,0.354-0.688,0.607-0.873,0.76h3.661v0.585h-4.266v-0.367
		c0-0.093,0.005-0.15,0.015-0.174c0.01-0.022,0.038-0.058,0.084-0.104c0.146-0.126,0.409-0.362,0.789-0.71
		c0.38-0.347,0.656-0.59,0.828-0.729c0.04-0.033,0.137-0.111,0.293-0.233c0.155-0.122,0.27-0.215,0.342-0.278
		c0.073-0.062,0.178-0.156,0.317-0.282c0.139-0.126,0.248-0.238,0.327-0.338c0.08-0.099,0.166-0.213,0.258-0.342
		c0.092-0.129,0.164-0.262,0.213-0.396c0.049-0.136,0.084-0.273,0.104-0.412c0.046-0.377-0.023-0.711-0.208-1.002
		c-0.284-0.424-0.731-0.658-1.339-0.704c-0.291-0.021-0.542,0.013-0.754,0.099C68.062,40.926,67.741,41.401,67.536,42.169z"/>
</g>
<g>
	<path d="M77.311,50.057c0.057-0.094,0.198-0.142,0.425-0.142h8.093h0.595c0.123,0.02,0.208,0.083,0.255,0.191
		s0.023,0.205-0.071,0.29c-0.057,0.058-0.156,0.086-0.297,0.086h-8.575c-0.142,0-0.227-0.005-0.255-0.015
		c-0.085-0.019-0.146-0.073-0.184-0.163C77.258,50.215,77.263,50.133,77.311,50.057z M77.48,47.18
		c0.019-0.01,0.099-0.015,0.241-0.015h8.122l0.297-0.014c0.199,0,0.298,0.005,0.298,0.014c0.113,0.02,0.191,0.085,0.234,0.199
		c0.042,0.113,0.021,0.208-0.064,0.283c-0.057,0.057-0.161,0.085-0.312,0.085h-8.519c-0.151,0-0.241-0.005-0.269-0.015
		c-0.151-0.028-0.229-0.115-0.234-0.262S77.339,47.218,77.48,47.18z"/>
</g>
<g>
	<path d="M92.824,48.555c0.019-0.01,0.094-0.015,0.227-0.015h7.441h0.539c0.113,0.02,0.187,0.085,0.22,0.198
		c0.033,0.114,0.012,0.208-0.064,0.284c-0.028,0.028-0.071,0.052-0.127,0.07c-0.057,0.02-0.106,0.028-0.149,0.028
		s-0.099-0.002-0.17-0.007s-0.116-0.007-0.135-0.007h-7.54c-0.142,0-0.222-0.005-0.241-0.015c-0.142-0.037-0.21-0.125-0.206-0.262
		C92.623,48.694,92.691,48.602,92.824,48.555z"/>
</g>
<g>
	<path d="M108.921,50.979c-0.009,0.037-0.021,0.122-0.035,0.255c-0.014,0.132-0.028,0.25-0.042,0.354
		c-0.014,0.104-0.026,0.165-0.036,0.184c-0.019,0.02-0.109,0.085-0.27,0.198c-0.368,0.236-0.772,0.421-1.211,0.553
		c-0.439,0.133-0.917,0.175-1.432,0.128c-0.515-0.047-0.952-0.231-1.311-0.553c-0.331-0.302-0.565-0.688-0.702-1.155
		c-0.137-0.468-0.168-0.961-0.092-1.48c0.113-0.784,0.427-1.508,0.942-2.169c0.515-0.661,1.136-1.129,1.864-1.403
		c0.312-0.113,0.702-0.175,1.169-0.184c0.467-0.01,0.872,0.042,1.211,0.155c0.217,0.066,0.524,0.213,0.921,0.439l-0.298,0.779
		c-0.435-0.264-0.666-0.406-0.694-0.425c-0.293-0.123-0.628-0.198-1.006-0.227s-0.742,0.009-1.091,0.113
		c-0.586,0.188-1.056,0.558-1.41,1.105s-0.588,1.157-0.702,1.828c-0.076,0.473-0.052,0.921,0.071,1.347
		c0.123,0.425,0.369,0.737,0.737,0.936c0.472,0.236,1.063,0.26,1.771,0.07c0.387-0.094,0.78-0.269,1.176-0.524
		c0.047-0.028,0.121-0.08,0.22-0.155C108.772,51.072,108.855,51.016,108.921,50.979z"/>
</g>
<g>
	<path d="M111.173,42.169c-0.04-0.033-0.091-0.089-0.154-0.169c-0.063-0.079-0.101-0.125-0.114-0.139
		c-0.073-0.086-0.109-0.139-0.109-0.158c-0.013-0.033,0-0.097,0.04-0.188c0.125-0.351,0.311-0.648,0.556-0.894
		c0.397-0.37,0.898-0.556,1.503-0.556c0.605,0,1.116,0.176,1.533,0.526c0.337,0.277,0.555,0.64,0.655,1.086
		c0.099,0.446,0.049,0.868-0.149,1.265c-0.073,0.133-0.152,0.259-0.238,0.378c-0.086,0.118-0.202,0.244-0.347,0.377
		c-0.146,0.132-0.251,0.227-0.317,0.282c-0.066,0.057-0.202,0.164-0.407,0.322c-0.205,0.159-0.321,0.248-0.347,0.269
		c-0.225,0.178-0.536,0.444-0.933,0.798c-0.397,0.354-0.688,0.607-0.873,0.76h3.661v0.585h-4.266v-0.367
		c0-0.093,0.005-0.15,0.015-0.174c0.01-0.022,0.038-0.058,0.084-0.104c0.146-0.126,0.409-0.362,0.789-0.71
		c0.38-0.347,0.656-0.59,0.828-0.729c0.04-0.033,0.137-0.111,0.293-0.233c0.155-0.122,0.27-0.215,0.342-0.278
		c0.073-0.062,0.178-0.156,0.317-0.282c0.139-0.126,0.248-0.238,0.327-0.338c0.08-0.099,0.166-0.213,0.258-0.342
		c0.092-0.129,0.164-0.262,0.213-0.396c0.049-0.136,0.084-0.273,0.104-0.412c0.046-0.377-0.023-0.711-0.208-1.002
		c-0.284-0.424-0.731-0.658-1.339-0.704c-0.291-0.021-0.542,0.013-0.754,0.099C111.699,40.926,111.378,41.401,111.173,42.169z"/>
</g>
<g>
	<path d="M123.53,42.729h0.893l-1.587,7.54c-0.227,1.039-0.378,1.743-0.454,2.111l-0.057,0.156
		c-0.123,0.019-0.421,0.028-0.893,0.028l0.212-1.034c-0.198,0.217-0.382,0.392-0.553,0.524c-0.368,0.283-0.763,0.472-1.183,0.566
		c-0.421,0.095-0.849,0.057-1.283-0.113c-0.454-0.227-0.785-0.619-0.992-1.177c-0.208-0.557-0.25-1.186-0.127-1.885
		c0.198-1.209,0.741-2.188,1.63-2.934c0.406-0.35,0.845-0.579,1.318-0.688c0.472-0.108,0.954-0.055,1.446,0.163
		c0.151,0.075,0.302,0.187,0.454,0.333c0.151,0.146,0.255,0.295,0.312,0.446h0.014L123.53,42.729z M122.396,47.052
		c-0.161-0.273-0.402-0.448-0.723-0.524c-0.321-0.075-0.638-0.073-0.949,0.008c-0.312,0.08-0.586,0.2-0.822,0.361
		c-0.841,0.52-1.347,1.436-1.517,2.749c-0.132,0.86,0.023,1.498,0.468,1.914c0.369,0.312,0.794,0.448,1.275,0.41
		c0.482-0.037,0.921-0.264,1.318-0.68c0.227-0.227,0.359-0.454,0.397-0.681c0.349-1.644,0.548-2.57,0.595-2.777
		c0.057-0.293,0.085-0.449,0.085-0.468C122.514,47.316,122.471,47.213,122.396,47.052z"/>
	<path d="M126.534,45.876h1.248l0.113-0.028c0.066-0.189,0.137-0.501,0.212-0.936s0.151-0.742,0.227-0.922
		c0.104-0.019,0.382-0.028,0.836-0.028l-0.411,1.914h2.197l-0.142,0.708h-2.013c-0.085,0-0.137,0.01-0.156,0.028
		c-0.019,0.02-0.038,0.062-0.057,0.128c-0.009,0.02-0.014,0.033-0.014,0.043c-0.558,2.409-0.855,3.836-0.893,4.28
		c-0.019,0.491,0.109,0.779,0.383,0.864c0.227,0.075,0.572,0.033,1.035-0.128c0.142-0.057,0.288-0.127,0.439-0.212
		c0.019-0.01,0.066-0.043,0.142-0.1s0.137-0.095,0.184-0.113c0,0.057,0.005,0.14,0.014,0.248c0.01,0.108,0.015,0.191,0.015,0.248
		c0,0.104-0.005,0.165-0.015,0.185c-0.076,0.094-0.288,0.198-0.638,0.312c-0.548,0.208-1.058,0.312-1.531,0.312
		c-0.387,0-0.657-0.123-0.808-0.368c-0.189-0.331-0.184-0.926,0.014-1.786l0.581-2.735c0.019-0.095,0.042-0.222,0.071-0.383
		c0.028-0.16,0.057-0.31,0.085-0.446s0.062-0.263,0.099-0.376h-1.36L126.534,45.876z"/>
</g>
<g>
	<path d="M132.17,42.169c-0.04-0.033-0.091-0.089-0.154-0.169c-0.063-0.079-0.101-0.125-0.114-0.139
		c-0.073-0.086-0.109-0.139-0.109-0.158c-0.013-0.033,0-0.097,0.04-0.188c0.125-0.351,0.311-0.648,0.556-0.894
		c0.397-0.37,0.898-0.556,1.503-0.556c0.605,0,1.116,0.176,1.533,0.526c0.337,0.277,0.555,0.64,0.655,1.086
		c0.099,0.446,0.049,0.868-0.149,1.265c-0.073,0.133-0.152,0.259-0.238,0.378c-0.086,0.118-0.202,0.244-0.347,0.377
		c-0.146,0.132-0.251,0.227-0.317,0.282c-0.066,0.057-0.202,0.164-0.407,0.322c-0.205,0.159-0.321,0.248-0.347,0.269
		c-0.225,0.178-0.536,0.444-0.933,0.798c-0.397,0.354-0.688,0.607-0.873,0.76h3.661v0.585h-4.266v-0.367
		c0-0.093,0.005-0.15,0.015-0.174c0.01-0.022,0.038-0.058,0.084-0.104c0.146-0.126,0.409-0.362,0.789-0.71
		c0.38-0.347,0.656-0.59,0.828-0.729c0.04-0.033,0.137-0.111,0.293-0.233c0.155-0.122,0.27-0.215,0.342-0.278
		c0.073-0.062,0.178-0.156,0.317-0.282c0.139-0.126,0.248-0.238,0.327-0.338c0.08-0.099,0.166-0.213,0.258-0.342
		c0.092-0.129,0.164-0.262,0.213-0.396c0.049-0.136,0.084-0.273,0.104-0.412c0.046-0.377-0.023-0.711-0.208-1.002
		c-0.284-0.424-0.731-0.658-1.339-0.704c-0.291-0.021-0.542,0.013-0.754,0.099C132.696,40.926,132.375,41.401,132.17,42.169z"/>
</g>
<g>
	<path d="M145.551,48.54v-3.926c0-0.16,0.004-0.26,0.014-0.298c0.028-0.142,0.118-0.212,0.269-0.212c0.151,0,0.241,0.07,0.27,0.212
		c0.009,0.028,0.014,0.123,0.014,0.283v3.94h3.926c0.161,0,0.255,0.005,0.284,0.015c0.142,0.028,0.212,0.118,0.212,0.269
		c0,0.151-0.071,0.241-0.212,0.27c-0.028,0.01-0.123,0.015-0.284,0.015h-3.926v3.939c0,0.161-0.005,0.256-0.014,0.284
		c-0.028,0.142-0.118,0.212-0.27,0.212c-0.151,0-0.241-0.07-0.269-0.212c-0.01-0.028-0.014-0.123-0.014-0.284v-3.939h-3.94
		c-0.161,0-0.255-0.005-0.283-0.015c-0.142-0.028-0.213-0.118-0.213-0.27c0-0.15,0.071-0.24,0.213-0.269
		c0.028-0.01,0.123-0.015,0.283-0.015H145.551z"/>
</g>
<g>
	<path d="M156.89,47.095c0.009-0.123,0.033-0.307,0.071-0.553c0-0.113,0.014-0.189,0.042-0.227c0.028-0.028,0.108-0.071,0.241-0.128
		c0.274-0.132,0.649-0.253,1.127-0.361c0.477-0.108,0.905-0.148,1.283-0.12c0.463,0.047,0.845,0.207,1.148,0.481
		c0.397,0.388,0.571,0.897,0.524,1.53c-0.01,0.066-0.066,0.343-0.17,0.829c-0.104,0.487-0.215,1.005-0.333,1.553
		s-0.182,0.85-0.191,0.907c0,0.009-0.021,0.113-0.064,0.312s-0.087,0.411-0.135,0.638s-0.08,0.378-0.099,0.453
		c0,0.104-0.071,0.156-0.212,0.156c-0.028,0-0.047,0-0.057,0h-0.652l0.213-0.992c-0.529,0.567-1.262,0.917-2.197,1.049
		c-0.492,0.075-0.884,0.062-1.177-0.042c-0.35-0.161-0.564-0.463-0.645-0.907c-0.081-0.444-0.031-0.822,0.148-1.134
		c0.435-0.851,1.465-1.398,3.09-1.645c0.094-0.009,0.199-0.019,0.312-0.028s0.236-0.019,0.368-0.028s0.236-0.019,0.312-0.028h0.227
		c0.114,0,0.17-0.071,0.17-0.213c0.009-0.047,0.03-0.139,0.063-0.276c0.033-0.137,0.062-0.267,0.085-0.39
		c0.023-0.122,0.035-0.227,0.035-0.312c0.009-0.283-0.057-0.541-0.198-0.772s-0.335-0.381-0.581-0.446
		c-0.066-0.02-0.232-0.028-0.496-0.028c-0.539,0-1.073,0.127-1.602,0.383c-0.076,0.037-0.185,0.097-0.326,0.177
		S156.965,47.066,156.89,47.095z M160.107,49.234c-1.333,0-2.348,0.274-3.047,0.822c-0.227,0.18-0.397,0.397-0.51,0.652
		s-0.113,0.496,0,0.723c0.151,0.293,0.458,0.468,0.921,0.524c0.377,0.047,0.758,0.005,1.141-0.128
		c0.383-0.132,0.688-0.34,0.914-0.623c0.151-0.189,0.274-0.52,0.369-0.992L160.107,49.234z"/>
</g>
<g>
	<path d="M169.02,55.712h-0.468c-0.132,0-0.212-0.005-0.241-0.015c-0.113-0.057-0.321-0.236-0.624-0.538
		c-0.548-0.548-0.992-1.162-1.333-1.843c-0.728-1.455-1.054-3.118-0.978-4.988c0.057-1.2,0.281-2.299,0.673-3.296
		s0.928-1.835,1.609-2.516c0.321-0.321,0.539-0.51,0.652-0.567c0.028-0.009,0.108-0.014,0.241-0.014h0.468
		c-0.038,0.048-0.165,0.165-0.382,0.354c-0.444,0.378-0.889,0.982-1.333,1.814c-0.614,1.181-0.955,2.589-1.021,4.224
		c-0.057,1.332,0.092,2.589,0.447,3.77c0.354,1.181,0.886,2.159,1.594,2.934c0.132,0.151,0.236,0.26,0.312,0.326
		C168.854,55.547,168.982,55.664,169.02,55.712z"/>
</g>
<g>
	<path d="M171.546,45.876h1.248l0.113-0.028c0.066-0.189,0.137-0.501,0.212-0.936s0.151-0.742,0.227-0.922
		c0.104-0.019,0.382-0.028,0.836-0.028l-0.411,1.914h2.197l-0.142,0.708h-2.013c-0.085,0-0.137,0.01-0.156,0.028
		c-0.019,0.02-0.038,0.062-0.057,0.128c-0.009,0.02-0.014,0.033-0.014,0.043c-0.558,2.409-0.855,3.836-0.893,4.28
		c-0.019,0.491,0.109,0.779,0.383,0.864c0.227,0.075,0.572,0.033,1.035-0.128c0.142-0.057,0.288-0.127,0.439-0.212
		c0.019-0.01,0.066-0.043,0.142-0.1s0.137-0.095,0.184-0.113c0,0.057,0.005,0.14,0.014,0.248c0.01,0.108,0.015,0.191,0.015,0.248
		c0,0.104-0.005,0.165-0.015,0.185c-0.076,0.094-0.288,0.198-0.638,0.312c-0.548,0.208-1.058,0.312-1.531,0.312
		c-0.387,0-0.657-0.123-0.808-0.368c-0.189-0.331-0.184-0.926,0.014-1.786l0.581-2.735c0.019-0.095,0.042-0.222,0.071-0.383
		c0.028-0.16,0.057-0.31,0.085-0.446s0.062-0.263,0.099-0.376h-1.36L171.546,45.876z"/>
</g>
<g>
	<path d="M177.148,41.936h0.467c0.142,0,0.222,0.005,0.241,0.014c0.113,0.058,0.321,0.236,0.624,0.539
		c0.548,0.548,0.992,1.162,1.333,1.843c0.727,1.455,1.053,3.118,0.978,4.988c-0.057,1.2-0.281,2.299-0.673,3.296
		c-0.393,0.996-0.929,1.835-1.609,2.516c-0.321,0.321-0.539,0.51-0.652,0.566c-0.028,0.01-0.109,0.015-0.241,0.015h-0.467
		c0.038-0.048,0.165-0.165,0.382-0.354c0.076-0.066,0.18-0.175,0.312-0.326c0.416-0.463,0.76-0.973,1.035-1.53
		c0.746-1.475,1.082-3.198,1.006-5.173c-0.095-2.362-0.775-4.267-2.041-5.712c-0.132-0.151-0.236-0.26-0.312-0.326
		C177.313,42.101,177.186,41.983,177.148,41.936z"/>
</g>
<g>
	<path d="M191.831,42.729h0.893l-1.587,7.54c-0.227,1.039-0.378,1.743-0.454,2.111l-0.057,0.156
		c-0.123,0.019-0.421,0.028-0.893,0.028l0.212-1.034c-0.198,0.217-0.382,0.392-0.553,0.524c-0.368,0.283-0.763,0.472-1.183,0.566
		c-0.421,0.095-0.849,0.057-1.283-0.113c-0.454-0.227-0.785-0.619-0.992-1.177c-0.208-0.557-0.25-1.186-0.127-1.885
		c0.198-1.209,0.741-2.188,1.63-2.934c0.406-0.35,0.845-0.579,1.318-0.688c0.472-0.108,0.954-0.055,1.446,0.163
		c0.151,0.075,0.302,0.187,0.454,0.333c0.151,0.146,0.255,0.295,0.312,0.446h0.014L191.831,42.729z M190.697,47.052
		c-0.161-0.273-0.402-0.448-0.723-0.524c-0.321-0.075-0.638-0.073-0.949,0.008c-0.312,0.08-0.586,0.2-0.822,0.361
		c-0.841,0.52-1.347,1.436-1.517,2.749c-0.132,0.86,0.023,1.498,0.468,1.914c0.369,0.312,0.794,0.448,1.275,0.41
		c0.482-0.037,0.921-0.264,1.318-0.68c0.227-0.227,0.359-0.454,0.397-0.681c0.349-1.644,0.548-2.57,0.595-2.777
		c0.057-0.293,0.085-0.449,0.085-0.468C190.815,47.316,190.772,47.213,190.697,47.052z"/>
</g>
<g>
	<path d="M201.312,39.563c0.014-0.198,0.227-0.312,0.397-0.227c0.113,0.042,0.142,0.156,0.198,0.255
		c0.114,0.227,0.298,0.439,0.511,0.567c0.156,0.099,0.411,0.184,0.34,0.439c-0.028,0.156-0.184,0.198-0.312,0.255
		c-0.383,0.17-0.638,0.383-0.907,0.652c-0.114,0.127-0.241,0.297-0.439,0.227c-0.156-0.042-0.241-0.227-0.17-0.383
		c0.1-0.212,0.326-0.397,0.51-0.539h-4.692c-0.284,0-0.581,0-0.581-0.298c0.014-0.142,0.127-0.241,0.255-0.269
		c0.114-0.014,0.241,0,0.354,0h4.862C201.567,40.13,201.284,39.776,201.312,39.563z"/>
</g>
<g>
	<path d="M193.984,42.729h9.085v0.751h-7.81l3.189,4.039l0.071,0.128c-0.019,0.066-0.081,0.17-0.184,0.312l-2.679,3.812h7.413v0.794
		h-9.085l2.948-4.209l0.439-0.596v-0.015l-0.723-0.893l-2.523-3.188l-0.127-0.185C193.989,43.32,193.984,43.069,193.984,42.729z"/>
</g>
<g>
	<path d="M204.753,42.169c-0.04-0.033-0.091-0.089-0.154-0.169c-0.063-0.079-0.101-0.125-0.114-0.139
		c-0.073-0.086-0.109-0.139-0.109-0.158c-0.013-0.033,0-0.097,0.04-0.188c0.125-0.351,0.311-0.648,0.556-0.894
		c0.397-0.37,0.898-0.556,1.503-0.556c0.605,0,1.116,0.176,1.533,0.526c0.337,0.277,0.555,0.64,0.655,1.086
		c0.099,0.446,0.049,0.868-0.149,1.265c-0.073,0.133-0.152,0.259-0.238,0.378c-0.086,0.118-0.202,0.244-0.347,0.377
		c-0.146,0.132-0.251,0.227-0.317,0.282c-0.066,0.057-0.202,0.164-0.407,0.322c-0.205,0.159-0.321,0.248-0.347,0.269
		c-0.225,0.178-0.536,0.444-0.933,0.798c-0.397,0.354-0.688,0.607-0.873,0.76h3.661v0.585h-4.266v-0.367
		c0-0.093,0.005-0.15,0.015-0.174c0.01-0.022,0.038-0.058,0.084-0.104c0.146-0.126,0.409-0.362,0.789-0.71
		c0.38-0.347,0.656-0.59,0.828-0.729c0.04-0.033,0.137-0.111,0.293-0.233c0.155-0.122,0.27-0.215,0.342-0.278
		c0.073-0.062,0.178-0.156,0.317-0.282c0.139-0.126,0.248-0.238,0.327-0.338c0.08-0.099,0.166-0.213,0.258-0.342
		c0.092-0.129,0.164-0.262,0.213-0.396c0.049-0.136,0.084-0.273,0.104-0.412c0.046-0.377-0.023-0.711-0.208-1.002
		c-0.284-0.424-0.731-0.658-1.339-0.704c-0.291-0.021-0.542,0.013-0.754,0.099C205.279,40.926,204.958,41.401,204.753,42.169z"/>
</g>
</svg>
