<?xml version="1.0" encoding="iso-8859-1"?>
<!-- Generator: Adobe Illustrator 16.0.0, SVG Export Plug-In . SVG Version: 6.00 Build 0)  -->
<!DOCTYPE svg PUBLIC "-//W3C//DTD SVG 1.1//EN" "http://www.w3.org/Graphics/SVG/1.1/DTD/svg11.dtd">
<svg version="1.1" id="Layer_1" xmlns="http://www.w3.org/2000/svg" xmlns:xlink="http://www.w3.org/1999/xlink" x="0px" y="0px"
	 width="566.93px" height="85.04px" viewBox="0 0 566.93 85.04" style="enable-background:new 0 0 566.93 85.04;"
	 xml:space="preserve">
<g>
	<path d="M27.458,45.733h0.893l-1.375,6.505l-0.057,0.156c-0.113,0.019-0.406,0.028-0.879,0.028L27.458,45.733z M27.94,43.479
		c0.085-0.463,0.151-0.751,0.198-0.864c0.113-0.02,0.406-0.028,0.879-0.028l-0.185,0.893H27.94z"/>
</g>
<g>
	<path d="M30.554,43.479h5.357v0.751h-5.357V43.479z"/>
</g>
<g>
	<path d="M33.104,42.587h0.893l-0.936,4.464h0.014c0.123-0.227,0.312-0.448,0.567-0.666c0.624-0.557,1.318-0.808,2.083-0.751
		c0.604,0.057,1.016,0.274,1.233,0.652c0.18,0.35,0.189,0.912,0.028,1.687l-0.638,2.962c-0.132,0.699-0.227,1.144-0.283,1.332
		c0,0.104-0.071,0.156-0.213,0.156c-0.028,0-0.047,0-0.057,0h-0.666l0.893-4.195c0.009-0.047,0.028-0.135,0.057-0.262
		c0.028-0.128,0.047-0.225,0.057-0.291c0.009-0.066,0.019-0.153,0.028-0.262c0.009-0.109,0.004-0.206-0.014-0.291
		c-0.019-0.085-0.047-0.17-0.085-0.255c-0.208-0.406-0.676-0.586-1.403-0.539c-0.435,0.057-0.806,0.26-1.113,0.609
		s-0.541,0.757-0.701,1.219c-0.038,0.123-0.111,0.438-0.22,0.943c-0.109,0.505-0.225,1.062-0.347,1.672
		c-0.123,0.609-0.208,1.014-0.255,1.212c-0.009,0.028-0.021,0.076-0.036,0.142c-0.014,0.066-0.026,0.118-0.035,0.156
		c0,0.038-0.005,0.066-0.014,0.085c-0.01,0.019-0.028,0.033-0.057,0.042c-0.028,0.01-0.05,0.015-0.064,0.015s-0.042,0-0.085,0
		s-0.069,0-0.078,0h-0.638L33.104,42.587z"/>
	<path d="M40.375,44.245c-0.028,0.01-0.052,0.026-0.071,0.05s-0.038,0.054-0.057,0.092s-0.038,0.066-0.057,0.085
		c-0.123,0.151-0.284,0.213-0.482,0.185l-0.042-0.015c-0.028-0.009-0.047-0.019-0.057-0.028c-0.161-0.094-0.189-0.293-0.085-0.595
		c0.179-0.558,0.51-0.979,0.992-1.262c0.434-0.255,0.926-0.392,1.474-0.411c0.548-0.019,1.054,0.08,1.517,0.298
		c0.454,0.217,0.834,0.538,1.141,0.964c0.307,0.425,0.517,0.902,0.631,1.432c0.198,0.85,0.156,1.842-0.128,2.976
		c-0.463,1.806-1.2,3.104-2.211,3.898c-0.747,0.566-1.559,0.812-2.438,0.736c-0.879-0.057-1.573-0.505-2.083-1.347
		c-0.34-0.613-0.411-1.355-0.213-2.225c0.189-0.917,0.624-1.715,1.304-2.396c0.435-0.435,0.855-0.723,1.261-0.864
		c0.558-0.161,1.077-0.182,1.559-0.064c0.482,0.119,0.888,0.324,1.219,0.617c0.255,0.217,0.458,0.491,0.609,0.822
		c0.019,0.037,0.045,0.104,0.078,0.198s0.059,0.16,0.078,0.198c0.019-0.132,0.038-0.231,0.057-0.298
		c0.009-0.075,0.026-0.182,0.049-0.318c0.024-0.138,0.041-0.239,0.05-0.305c0.132-1.276-0.071-2.216-0.609-2.821
		c-0.274-0.302-0.624-0.528-1.049-0.68c-0.369-0.142-0.785-0.163-1.247-0.064c-0.463,0.1-0.799,0.324-1.006,0.674
		C40.465,43.938,40.403,44.094,40.375,44.245z M42.062,46.399c-0.586-0.028-1.094,0.099-1.524,0.383
		c-0.43,0.283-0.768,0.656-1.013,1.119c-0.151,0.284-0.293,0.737-0.425,1.361c-0.113,0.633-0.127,1.105-0.042,1.417
		c0.208,0.604,0.543,0.978,1.006,1.119c0.444,0.171,0.982,0.18,1.616,0.028c0.472-0.15,0.874-0.396,1.205-0.736
		c0.217-0.246,0.43-0.564,0.638-0.957c0.208-0.392,0.354-0.772,0.439-1.141c0.113-0.378,0.116-0.777,0.007-1.198
		c-0.109-0.42-0.324-0.753-0.645-0.999C42.983,46.531,42.562,46.399,42.062,46.399z"/>
</g>
<g>
	<path d="M46.062,49.866h0.893l0.079-0.021c0.046-0.132,0.098-0.35,0.154-0.654c0.056-0.304,0.107-0.52,0.154-0.645
		c0.08-0.014,0.285-0.021,0.615-0.021l-0.288,1.34h1.567c-0.04,0.238-0.079,0.406-0.119,0.506c-0.086,0.026-0.339,0.034-0.759,0.024
		s-0.686-0.011-0.799-0.005c-0.013,0.086-0.058,0.303-0.134,0.65c-0.076,0.347-0.157,0.728-0.243,1.141s-0.146,0.696-0.178,0.849
		c-0.04,0.172-0.066,0.301-0.08,0.387s-0.01,0.19,0.01,0.312c0.02,0.122,0.073,0.217,0.159,0.282
		c0.073,0.054,0.208,0.073,0.407,0.06c0.218-0.02,0.433-0.082,0.645-0.188c0.026-0.02,0.078-0.055,0.154-0.104
		c0.076-0.05,0.137-0.085,0.184-0.104c0,0.04,0.001,0.1,0.005,0.179s0.005,0.139,0.005,0.179c0,0.093-0.003,0.142-0.01,0.148
		c-0.026,0.033-0.179,0.109-0.457,0.229c-0.403,0.146-0.777,0.218-1.121,0.218c-0.278,0-0.473-0.096-0.585-0.287
		c-0.06-0.119-0.089-0.274-0.089-0.467c0-0.179,0.04-0.446,0.119-0.804c0.179-0.893,0.367-1.785,0.566-2.679h-0.962L46.062,49.866z"
		/>
</g>
<g>
	<path d="M54.039,42.459c0-0.019,0-0.059,0-0.12s0-0.106,0-0.135s0.002-0.068,0.007-0.12c0.004-0.053,0.014-0.09,0.028-0.114
		c0.014-0.023,0.033-0.052,0.057-0.085c0.023-0.032,0.054-0.057,0.092-0.07c0.038-0.015,0.085-0.021,0.142-0.021
		c0.161,0.028,0.241,0.193,0.241,0.496v12.543c0,0.028,0.002,0.08,0.007,0.156c0.004,0.075,0.007,0.137,0.007,0.185
		c0,0.047-0.007,0.101-0.021,0.162s-0.038,0.111-0.071,0.149c-0.033,0.037-0.078,0.062-0.135,0.07
		c-0.028,0.01-0.066,0.015-0.113,0.015c-0.047-0.01-0.088-0.026-0.121-0.05c-0.033-0.023-0.057-0.05-0.071-0.078
		s-0.026-0.068-0.036-0.12s-0.014-0.092-0.014-0.12s0-0.071,0-0.128s0-0.095,0-0.113V42.459z"/>
</g>
<g>
	<path d="M62.794,42.587h0.907l-1.956,9.24c0.567-0.009,1.12-0.269,1.658-0.779c0.548-0.51,0.959-1.152,1.233-1.928
		c0.094-0.264,0.189-0.653,0.283-1.169c0.094-0.515,0.128-0.933,0.099-1.254c-0.009-0.057-0.031-0.143-0.063-0.256
		c-0.033-0.113-0.052-0.195-0.057-0.248c-0.005-0.052,0.012-0.134,0.049-0.248c0.019-0.065,0.068-0.129,0.149-0.191
		c0.08-0.061,0.158-0.101,0.234-0.12c0.028-0.009,0.076-0.014,0.142-0.014c0.255,0,0.406,0.24,0.454,0.723
		c0.094,0.651-0.009,1.517-0.312,2.594c-0.236,0.793-0.673,1.54-1.311,2.239c-0.638,0.699-1.368,1.134-2.19,1.304
		c-0.113,0.028-0.231,0.043-0.354,0.043c-0.009,0-0.033,0.004-0.071,0.014s-0.066,0.019-0.085,0.028
		c-0.019,0.019-0.055,0.151-0.106,0.397c-0.052,0.245-0.106,0.512-0.163,0.801c-0.057,0.288-0.09,0.446-0.1,0.475
		c-0.076,0.273-0.123,0.496-0.142,0.666h-0.907c0-0.038,0.036-0.225,0.106-0.56c0.071-0.336,0.146-0.69,0.227-1.063
		c0.081-0.373,0.121-0.564,0.121-0.574c0.047-0.151,0.023-0.227-0.071-0.227c-0.416-0.085-0.749-0.18-0.999-0.283
		c-0.25-0.104-0.484-0.26-0.702-0.468c-0.34-0.359-0.52-0.836-0.539-1.432c0-0.435,0.231-1.332,0.694-2.693
		c0.104-0.292,0.156-0.538,0.156-0.736c0-0.18-0.052-0.321-0.156-0.426c-0.123-0.094-0.253-0.13-0.39-0.105
		c-0.137,0.023-0.262,0.082-0.375,0.177c-0.312,0.283-0.529,0.771-0.652,1.46H56.7c0.019-0.133,0.075-0.331,0.17-0.596
		c0.293-0.746,0.713-1.266,1.261-1.559c0.236-0.142,0.515-0.206,0.836-0.191c0.321,0.014,0.581,0.12,0.78,0.318
		c0.094,0.114,0.16,0.204,0.198,0.27c0.085,0.161,0.13,0.338,0.135,0.531c0.004,0.194-0.002,0.333-0.021,0.419
		c-0.019,0.085-0.066,0.255-0.142,0.51l-0.213,0.609l-0.17,0.567c-0.104,0.34-0.175,0.586-0.212,0.736
		c-0.038,0.151-0.052,0.369-0.042,0.652c0.009,0.283,0.075,0.524,0.198,0.723c0.284,0.454,0.742,0.719,1.375,0.794L62.794,42.587z"
		/>
</g>
<g>
	<path d="M68.255,42.472l0.964,2.48l1.318,3.332c0.042,0.127,0.127,0.255,0.127,0.396s-0.085,0.283-0.142,0.411
		c-0.085,0.241-2.381,6.096-2.438,6.209c-0.042,0.128-0.113,0.241-0.255,0.27c-0.255,0.028-0.369-0.213-0.283-0.439l0.737-1.899
		c0,0,1.503-3.8,1.616-4.111c0.014-0.028,0.156-0.34,0.156-0.439c0-0.113-0.071-0.241-0.113-0.34l-2.311-5.897
		c-0.085-0.184-0.227-0.439-0.014-0.595c0.028-0.028,0.071-0.028,0.099-0.042C68.042,41.678,68.127,42.231,68.255,42.472z"/>
</g>
<g>
	<path d="M77.009,49.914c0.057-0.094,0.198-0.142,0.425-0.142h8.093h0.595c0.123,0.02,0.208,0.083,0.255,0.191
		s0.023,0.205-0.071,0.29c-0.057,0.058-0.156,0.086-0.297,0.086h-8.575c-0.142,0-0.227-0.005-0.255-0.015
		c-0.085-0.019-0.146-0.073-0.184-0.163C76.957,50.072,76.962,49.99,77.009,49.914z M77.179,47.037
		c0.019-0.01,0.099-0.015,0.241-0.015h8.122l0.297-0.014c0.199,0,0.298,0.005,0.298,0.014c0.113,0.02,0.191,0.085,0.234,0.199
		c0.042,0.113,0.021,0.208-0.064,0.283c-0.057,0.057-0.161,0.085-0.312,0.085h-8.519c-0.151,0-0.241-0.005-0.269-0.015
		c-0.151-0.028-0.229-0.115-0.234-0.262S77.038,47.075,77.179,47.037z"/>
</g>
<g>
	<path d="M95.774,41.536c0.123-0.113,0.449-0.423,0.978-0.929c0.529-0.505,0.94-0.886,1.233-1.141
		c0.132-0.02,0.359-0.028,0.681-0.028c0.075,0.047,0.283,0.227,0.624,0.538c0.151,0.151,0.413,0.399,0.787,0.744
		c0.373,0.345,0.659,0.617,0.857,0.815c-0.321,0-0.553-0.005-0.694-0.015c-0.265-0.217-0.817-0.703-1.659-1.46l-0.227-0.17
		c-0.236,0.18-0.56,0.456-0.971,0.829c-0.411,0.374-0.716,0.641-0.915,0.801C96.327,41.531,96.095,41.536,95.774,41.536z"/>
</g>
<g>
	<path d="M94.605,42.587h0.992c-0.198,0.973-0.505,2.424-0.921,4.351h5.102c0.028,0,0.052-0.002,0.071-0.007
		s0.038-0.014,0.057-0.028c0.019-0.014,0.033-0.025,0.042-0.035c0.009-0.01,0.016-0.028,0.021-0.057s0.009-0.048,0.014-0.057
		c0.005-0.01,0.009-0.031,0.014-0.064c0.005-0.032,0.007-0.054,0.007-0.063l0.17-0.794c0.066-0.321,0.177-0.843,0.333-1.565
		c0.156-0.724,0.271-1.283,0.347-1.68h0.992c-0.009,0.057-0.34,1.625-0.992,4.705c-0.652,3.081-0.992,4.687-1.021,4.819
		c-0.019,0.142-0.042,0.231-0.071,0.269c-0.019,0.028-0.104,0.043-0.255,0.043h-0.737l1.006-4.733h-5.13l-0.114,0.028
		c-0.227,0.973-0.548,2.451-0.963,4.436L93.5,52.395c-0.132,0.019-0.458,0.028-0.978,0.028L94.605,42.587z"/>
</g>
<g>
	<path d="M106.33,42.459c0-0.019,0-0.059,0-0.12s0-0.106,0-0.135s0.002-0.068,0.007-0.12c0.004-0.053,0.014-0.09,0.028-0.114
		c0.014-0.023,0.033-0.052,0.057-0.085c0.023-0.032,0.054-0.057,0.092-0.07c0.038-0.015,0.085-0.021,0.142-0.021
		c0.161,0.028,0.241,0.193,0.241,0.496v12.543c0,0.028,0.002,0.08,0.007,0.156c0.004,0.075,0.007,0.137,0.007,0.185
		c0,0.047-0.007,0.101-0.021,0.162s-0.038,0.111-0.071,0.149c-0.033,0.037-0.078,0.062-0.135,0.07
		c-0.028,0.01-0.066,0.015-0.113,0.015c-0.047-0.01-0.088-0.026-0.121-0.05c-0.033-0.023-0.057-0.05-0.071-0.078
		s-0.026-0.068-0.036-0.12s-0.014-0.092-0.014-0.12s0-0.071,0-0.128s0-0.095,0-0.113V42.459z"/>
</g>
<g>
	<path d="M115.085,42.587h0.907l-1.956,9.24c0.567-0.009,1.12-0.269,1.658-0.779c0.548-0.51,0.959-1.152,1.233-1.928
		c0.094-0.264,0.189-0.653,0.283-1.169c0.094-0.515,0.128-0.933,0.099-1.254c-0.009-0.057-0.031-0.143-0.063-0.256
		c-0.033-0.113-0.052-0.195-0.057-0.248c-0.005-0.052,0.012-0.134,0.049-0.248c0.019-0.065,0.068-0.129,0.149-0.191
		c0.08-0.061,0.158-0.101,0.234-0.12c0.028-0.009,0.076-0.014,0.142-0.014c0.255,0,0.406,0.24,0.454,0.723
		c0.094,0.651-0.009,1.517-0.312,2.594c-0.236,0.793-0.673,1.54-1.311,2.239c-0.638,0.699-1.368,1.134-2.19,1.304
		c-0.113,0.028-0.231,0.043-0.354,0.043c-0.009,0-0.033,0.004-0.071,0.014s-0.066,0.019-0.085,0.028
		c-0.019,0.019-0.055,0.151-0.106,0.397c-0.052,0.245-0.106,0.512-0.163,0.801c-0.057,0.288-0.09,0.446-0.1,0.475
		c-0.076,0.273-0.123,0.496-0.142,0.666h-0.907c0-0.038,0.036-0.225,0.106-0.56c0.071-0.336,0.146-0.69,0.227-1.063
		c0.081-0.373,0.121-0.564,0.121-0.574c0.047-0.151,0.023-0.227-0.071-0.227c-0.416-0.085-0.749-0.18-0.999-0.283
		c-0.25-0.104-0.484-0.26-0.702-0.468c-0.34-0.359-0.52-0.836-0.539-1.432c0-0.435,0.231-1.332,0.694-2.693
		c0.104-0.292,0.156-0.538,0.156-0.736c0-0.18-0.052-0.321-0.156-0.426c-0.123-0.094-0.253-0.13-0.39-0.105
		c-0.137,0.023-0.262,0.082-0.375,0.177c-0.312,0.283-0.529,0.771-0.652,1.46h-0.907c0.019-0.133,0.075-0.331,0.17-0.596
		c0.293-0.746,0.713-1.266,1.261-1.559c0.236-0.142,0.515-0.206,0.836-0.191c0.321,0.014,0.581,0.12,0.78,0.318
		c0.094,0.114,0.16,0.204,0.198,0.27c0.085,0.161,0.13,0.338,0.135,0.531c0.004,0.194-0.002,0.333-0.021,0.419
		c-0.019,0.085-0.066,0.255-0.142,0.51l-0.213,0.609l-0.17,0.567c-0.104,0.34-0.175,0.586-0.212,0.736
		c-0.038,0.151-0.052,0.369-0.042,0.652c0.009,0.283,0.075,0.524,0.198,0.723c0.284,0.454,0.742,0.719,1.375,0.794L115.085,42.587z"
		/>
</g>
<g>
	<path d="M120.545,42.472l0.964,2.48l1.318,3.332c0.042,0.127,0.127,0.255,0.127,0.396s-0.085,0.283-0.142,0.411
		c-0.085,0.241-2.381,6.096-2.438,6.209c-0.042,0.128-0.114,0.241-0.255,0.27c-0.255,0.028-0.369-0.213-0.284-0.439l0.737-1.899
		c0,0,1.502-3.8,1.616-4.111c0.014-0.028,0.156-0.34,0.156-0.439c0-0.113-0.071-0.241-0.113-0.34l-2.311-5.897
		c-0.085-0.184-0.227-0.439-0.014-0.595c0.028-0.028,0.071-0.028,0.099-0.042C120.333,41.678,120.417,42.231,120.545,42.472z"/>
</g>
</svg>
