<?xml version="1.0" encoding="iso-8859-1"?>
<!-- Generator: Adobe Illustrator 16.0.0, SVG Export Plug-In . SVG Version: 6.00 Build 0)  -->
<!DOCTYPE svg PUBLIC "-//W3C//DTD SVG 1.1//EN" "http://www.w3.org/Graphics/SVG/1.1/DTD/svg11.dtd">
<svg version="1.1" id="Layer_1" xmlns="http://www.w3.org/2000/svg" xmlns:xlink="http://www.w3.org/1999/xlink" x="0px" y="0px"
	 width="566.929px" height="85.039px" viewBox="0 0 566.929 85.039" style="enable-background:new 0 0 566.929 85.039;"
	 xml:space="preserve">
<g>
	<path d="M27.458,50.958c0.369-0.047,0.6-0.065,0.694-0.057c0.151,0.01,0.305,0.023,0.46,0.043c0.156,0.019,0.329,0.05,0.518,0.092
		c0.189,0.043,0.331,0.076,0.425,0.1c0.094,0.023,0.26,0.068,0.496,0.135c0.236,0.065,0.382,0.108,0.439,0.127
		c0.567,0.151,1.034,0.251,1.403,0.298c0.038,0,0.097,0.002,0.177,0.007c0.08,0.005,0.139,0.007,0.177,0.007
		c0.208,0,0.378-0.179,0.51-0.538c0.019-0.028,0.038-0.071,0.057-0.128c0.019-0.057,0.033-0.099,0.042-0.127
		c0.151-0.256,0.444-0.463,0.879-0.624c0.17-0.065,0.292-0.09,0.368-0.07c0.076,0.019,0.095,0.09,0.057,0.212
		c-0.038,0.161-0.113,0.331-0.227,0.511c-0.321,0.51-0.855,0.954-1.602,1.332c-0.558,0.265-1.172,0.354-1.842,0.27
		c-0.331-0.038-0.792-0.14-1.382-0.305c-0.59-0.165-0.971-0.268-1.141-0.305c-0.416-0.104-0.771-0.156-1.063-0.156
		c-0.047,0-0.092,0.015-0.135,0.043s-0.09,0.07-0.142,0.127c-0.052,0.057-0.087,0.095-0.106,0.113
		c-0.312,0.293-0.657,0.468-1.035,0.524c-0.17,0-0.194-0.085-0.071-0.255c0.104-0.17,0.227-0.316,0.369-0.439
		c0.435-0.406,0.822-1.072,1.162-1.998c0.104-0.312,0.274-0.931,0.51-1.856c0.274-0.992,0.562-1.843,0.864-2.552
		c0.303-0.709,0.69-1.304,1.163-1.786c0.321-0.34,0.725-0.643,1.211-0.907c0.487-0.264,0.971-0.425,1.453-0.482
		c0.416-0.047,0.746,0,0.992,0.142c0.425,0.255,0.6,0.714,0.524,1.375c-0.019,0.208-0.057,0.359-0.114,0.453
		c-0.057,0.095-0.156,0.194-0.297,0.298c-0.34,0.255-0.628,0.383-0.865,0.383c-0.123,0-0.166-0.085-0.127-0.255
		c0.123-0.728-0.042-1.21-0.496-1.446c-0.255-0.122-0.539-0.137-0.851-0.042c-0.151,0.038-0.316,0.18-0.496,0.425
		c-0.614,0.775-1.167,2.117-1.658,4.025c-0.019,0.066-0.054,0.196-0.106,0.39c-0.052,0.194-0.085,0.317-0.1,0.369
		s-0.04,0.153-0.078,0.305c-0.038,0.151-0.069,0.257-0.092,0.318s-0.057,0.154-0.099,0.276c-0.042,0.123-0.081,0.223-0.113,0.298
		c-0.033,0.076-0.076,0.168-0.128,0.276c-0.052,0.108-0.106,0.22-0.163,0.333c-0.038,0.076-0.081,0.153-0.128,0.234
		c-0.047,0.08-0.102,0.167-0.163,0.262C27.531,50.826,27.487,50.901,27.458,50.958z"/>
</g>
<g>
	<path d="M39.911,54.303c-0.536,0.238-1.128,0.308-1.776,0.209c-0.615-0.106-1.166-0.376-1.652-0.809
		c-0.486-0.434-0.829-0.954-1.027-1.562c-0.218-0.668-0.242-1.361-0.069-2.079c0.172-0.718,0.519-1.317,1.042-1.801
		c0.384-0.356,0.852-0.616,1.404-0.778s1.123-0.16,1.711,0.005c0.661,0.186,1.227,0.562,1.697,1.131
		c0.502,0.615,0.773,1.34,0.813,2.173c0.04,0.833-0.159,1.577-0.595,2.232c-0.113,0.172-0.268,0.36-0.466,0.565
		c-0.199,0.205-0.384,0.351-0.556,0.437l1.329,1.479c-0.364,0-0.631-0.004-0.803-0.01c-0.073-0.066-0.175-0.176-0.308-0.328
		l-0.457-0.525L39.911,54.303z M40.049,53.608c0.106-0.053,0.235-0.148,0.387-0.287c0.331-0.291,0.577-0.668,0.739-1.132
		c0.162-0.463,0.233-0.934,0.213-1.413c-0.02-0.479-0.144-0.946-0.372-1.399c-0.228-0.453-0.547-0.809-0.957-1.066
		c-0.443-0.265-0.923-0.396-1.439-0.396c-0.476,0-0.962,0.158-1.458,0.476c-0.364,0.265-0.652,0.61-0.863,1.037
		c-0.212,0.427-0.326,0.863-0.342,1.31s0.038,0.892,0.164,1.335c0.159,0.522,0.447,0.964,0.863,1.324s0.919,0.561,1.508,0.6
		c0.318,0.033,0.658-0.01,1.022-0.129c-0.013-0.013-0.417-0.476-1.21-1.389c0.331,0,0.572,0.004,0.725,0.01
		c0.072,0.066,0.175,0.176,0.307,0.328l0.466,0.516L40.049,53.608z"/>
	<path d="M48.909,53.311l0.03,0.417c0.026,0.139,0.007,0.219-0.06,0.238c-0.529,0.311-1.091,0.479-1.687,0.506
		c-0.331,0.02-0.648,0.007-0.952-0.04c-0.562-0.112-1.062-0.356-1.498-0.733c-0.549-0.47-0.918-1.072-1.106-1.806
		c-0.188-0.734-0.164-1.445,0.074-2.134c0.205-0.621,0.554-1.142,1.047-1.562c0.493-0.42,1.083-0.669,1.771-0.749
		c0.502-0.046,0.999-0.013,1.488,0.1c0.205,0.046,0.479,0.126,0.823,0.238l-0.129,0.724c-0.397-0.198-0.632-0.311-0.705-0.337
		c-0.417-0.146-0.815-0.205-1.195-0.179s-0.721,0.111-1.022,0.253c-0.301,0.143-0.557,0.332-0.769,0.57
		c-0.292,0.324-0.506,0.688-0.645,1.092c-0.192,0.549-0.223,1.128-0.094,1.736s0.398,1.121,0.809,1.537
		c0.396,0.397,0.863,0.636,1.399,0.715c0.172,0.026,0.43,0.033,0.774,0.02c0.377-0.02,0.727-0.109,1.051-0.268
		c0.066-0.033,0.164-0.09,0.293-0.169S48.836,53.344,48.909,53.311z"/>
	<path d="M50.536,47.517h1.975c0.615,0,0.985,0.007,1.111,0.021c0.734,0.093,1.373,0.42,1.915,0.982
		c0.529,0.568,0.843,1.243,0.942,2.023s-0.033,1.498-0.397,2.153c-0.231,0.437-0.562,0.809-0.992,1.116
		c-0.43,0.307-0.916,0.497-1.458,0.57c-0.119,0.013-0.486,0.02-1.102,0.02h-1.994V47.517z M51.211,53.847H52.6h0.318
		c0.205,0.007,0.307,0.007,0.307,0c0.768-0.053,1.379-0.308,1.835-0.764c0.536-0.536,0.791-1.267,0.764-2.192
		c-0.013-0.477-0.114-0.92-0.303-1.33s-0.461-0.74-0.818-0.992c-0.364-0.258-0.781-0.416-1.25-0.476
		c-0.132-0.014-0.437-0.021-0.913-0.021h-1.329V53.847z"/>
</g>
<g>
	<path d="M62.377,49.768c0.057-0.094,0.198-0.142,0.425-0.142h8.093h0.595c0.123,0.02,0.208,0.083,0.255,0.191
		s0.023,0.205-0.071,0.29c-0.057,0.058-0.156,0.086-0.297,0.086h-8.575c-0.142,0-0.227-0.005-0.255-0.015
		c-0.085-0.019-0.146-0.073-0.184-0.163C62.325,49.926,62.33,49.844,62.377,49.768z M62.547,46.891
		c0.019-0.01,0.099-0.015,0.241-0.015h8.122l0.297-0.014c0.199,0,0.298,0.005,0.298,0.014c0.113,0.02,0.191,0.085,0.234,0.199
		c0.042,0.113,0.021,0.208-0.064,0.283c-0.057,0.057-0.161,0.085-0.312,0.085h-8.519c-0.151,0-0.241-0.005-0.269-0.015
		c-0.151-0.028-0.229-0.115-0.234-0.262S62.406,46.929,62.547,46.891z"/>
	<path d="M79.059,43.333h5.357v0.751h-5.357V43.333z"/>
</g>
<g>
	<path d="M81.987,51.185c-0.643,0.729-1.337,1.13-2.083,1.205c-0.179,0.019-0.354,0.005-0.524-0.042
		c-0.453-0.095-0.82-0.338-1.098-0.73c-0.279-0.392-0.442-0.838-0.489-1.339c-0.066-0.728,0.045-1.448,0.333-2.162
		c0.288-0.713,0.71-1.315,1.268-1.807c0.17-0.133,0.303-0.231,0.397-0.298c0.265-0.17,0.541-0.305,0.829-0.404
		c0.288-0.099,0.595-0.139,0.921-0.12c0.326,0.02,0.607,0.123,0.843,0.312c0.17,0.143,0.316,0.331,0.439,0.567
		c0.057,0.151,0.104,0.265,0.142,0.34l0.227-1.119l0.057-0.1c0.179-0.009,0.468-0.014,0.864-0.014l-1.941,9.17h-0.907l0.17-0.865
		l0.411-1.885L81.987,51.185z M81.519,46.196c-0.472,0.038-0.926,0.222-1.36,0.553c-0.416,0.303-0.754,0.694-1.014,1.176
		c-0.26,0.482-0.404,0.979-0.432,1.488c-0.057,1.002,0.236,1.691,0.879,2.069c0.264,0.161,0.553,0.227,0.864,0.198
		c0.52-0.037,0.987-0.307,1.403-0.808c0.179-0.255,0.279-0.406,0.298-0.453c0.009-0.028,0.111-0.486,0.305-1.375
		c0.193-0.888,0.295-1.365,0.305-1.432c0-0.037-0.01-0.165-0.028-0.383c-0.095-0.453-0.274-0.756-0.539-0.907
		C82.02,46.22,81.793,46.177,81.519,46.196z"/>
</g>
<g>
	<path d="M91.827,55.423h-0.468c-0.132,0-0.212-0.005-0.241-0.015c-0.113-0.057-0.321-0.236-0.624-0.538
		c-0.548-0.548-0.992-1.162-1.333-1.843c-0.728-1.455-1.054-3.118-0.978-4.988c0.057-1.2,0.281-2.299,0.673-3.296
		s0.928-1.835,1.609-2.516c0.321-0.321,0.539-0.51,0.652-0.567c0.028-0.009,0.108-0.014,0.241-0.014h0.468
		c-0.038,0.047-0.165,0.166-0.382,0.354c-0.444,0.378-0.889,0.982-1.333,1.814c-0.614,1.181-0.955,2.589-1.021,4.224
		c-0.057,1.332,0.092,2.589,0.447,3.77c0.354,1.181,0.886,2.159,1.594,2.934c0.132,0.151,0.236,0.26,0.312,0.326
		C91.662,55.258,91.79,55.375,91.827,55.423z"/>
</g>
<g>
	<path d="M95.219,45.587h0.893l-1.375,6.505l-0.057,0.156c-0.113,0.019-0.406,0.028-0.879,0.028L95.219,45.587z M95.701,43.333
		c0.085-0.463,0.151-0.751,0.198-0.864c0.113-0.019,0.406-0.029,0.879-0.029l-0.185,0.893H95.701z"/>
	<path d="M97.231,48.421c0.057-0.312,0.165-0.623,0.326-0.936c0.387-0.765,0.926-1.337,1.616-1.715
		c0.387-0.217,0.815-0.316,1.282-0.297c0.468,0.019,0.876,0.165,1.226,0.439c0.69,0.538,1.143,1.479,1.361,2.82
		c0.019,0.151,0.038,0.26,0.057,0.325c0.236-0.736,0.628-1.804,1.176-3.203l0.127-0.24c0.123-0.02,0.42-0.028,0.893-0.028
		c-0.009,0.028-0.13,0.31-0.361,0.843c-0.231,0.534-0.484,1.12-0.758,1.758s-0.458,1.079-0.553,1.325
		c-0.227,0.566-0.374,0.959-0.439,1.177c-0.019,0.057-0.028,0.137-0.028,0.24c-0.009,0.057-0.017,0.116-0.021,0.178
		c-0.005,0.062-0.01,0.132-0.014,0.212c-0.005,0.081-0.007,0.14-0.007,0.178c-0.057,0.604-0.175,1.332-0.354,2.183
		c-0.17,0.822-0.411,1.224-0.723,1.204c-0.189-0.009-0.284-0.17-0.284-0.481c0-0.473,0.222-1.507,0.667-3.104
		c0-0.02,0.009-0.06,0.028-0.121c0.019-0.062,0.028-0.106,0.028-0.135c0.038-0.302-0.118-1.157-0.468-2.565
		c-0.104-0.358-0.198-0.646-0.284-0.864c-0.085-0.217-0.22-0.446-0.404-0.688s-0.404-0.408-0.659-0.503
		c-0.529-0.188-1.049-0.075-1.559,0.34c-0.491,0.416-0.812,0.969-0.963,1.658H97.231z"/>
</g>
<g>
	<path d="M107.105,46.166c0,0.007-0.03,0.153-0.089,0.441s-0.123,0.58-0.188,0.878c-0.066,0.298-0.103,0.46-0.109,0.486
		c-0.04,0.105-0.119,0.182-0.238,0.229c-0.119,0.046-0.228,0.036-0.328-0.03c-0.086-0.066-0.105-0.205-0.06-0.417
		c0.033-0.152,0.147-0.685,0.342-1.597c0.195-0.913,0.382-1.788,0.561-2.624c0.179-0.837,0.274-1.285,0.288-1.345
		c0.033-0.159,0.06-0.258,0.079-0.298c0.08-0.178,0.222-0.251,0.427-0.218c0.146,0.02,0.218,0.103,0.218,0.248
		c0,0.02-0.031,0.181-0.094,0.481s-0.134,0.638-0.213,1.011c-0.079,0.374-0.132,0.624-0.159,0.75
		c-0.093,0.43-0.139,0.707-0.139,0.833c0,0.437,0.148,0.731,0.446,0.883c0.297,0.152,0.602,0.149,0.913-0.01
		c0.199-0.105,0.371-0.258,0.516-0.456s0.268-0.441,0.367-0.729c0.099-0.288,0.177-0.546,0.233-0.773
		c0.056-0.229,0.117-0.511,0.184-0.849c0.006-0.046,0.013-0.084,0.02-0.114c0.006-0.03,0.013-0.061,0.02-0.094
		c0.013-0.066,0.035-0.162,0.064-0.288c0.03-0.125,0.051-0.222,0.064-0.288c0.033-0.166,0.06-0.271,0.08-0.317
		c0.092-0.146,0.218-0.218,0.377-0.218c0.165,0.013,0.254,0.096,0.268,0.248c0,0.026-0.048,0.271-0.144,0.734
		c-0.096,0.462-0.198,0.95-0.308,1.458c-0.109,0.51-0.167,0.78-0.173,0.813c-0.033,0.146-0.057,0.255-0.07,0.327
		c-0.013,0.073-0.01,0.169,0.01,0.288c0.02,0.119,0.073,0.212,0.159,0.277c0.105,0.093,0.208,0.116,0.308,0.07
		c0.132-0.08,0.251-0.351,0.357-0.814c0.006-0.013,0.015-0.041,0.025-0.084s0.018-0.083,0.025-0.119
		c0.006-0.036,0.013-0.058,0.02-0.064c0.013-0.013,0.073-0.02,0.179-0.02h0.486c-0.007,0.053-0.043,0.202-0.109,0.446
		c-0.185,0.522-0.417,0.877-0.694,1.062c-0.258,0.165-0.541,0.188-0.848,0.069c-0.308-0.119-0.498-0.33-0.571-0.635
		c-0.218,0.231-0.437,0.403-0.655,0.516c-0.437,0.219-0.886,0.255-1.349,0.109c-0.146-0.046-0.255-0.096-0.328-0.148
		c-0.02-0.007-0.048-0.023-0.084-0.05C107.153,46.199,107.125,46.18,107.105,46.166z"/>
</g>
<g>
	<path d="M115.476,44.099c-0.028,0.01-0.052,0.026-0.071,0.05s-0.038,0.054-0.057,0.092s-0.038,0.066-0.057,0.085
		c-0.123,0.151-0.284,0.213-0.482,0.185l-0.042-0.015c-0.028-0.009-0.047-0.019-0.057-0.028c-0.161-0.094-0.189-0.293-0.085-0.595
		c0.179-0.558,0.51-0.979,0.992-1.262c0.434-0.255,0.926-0.392,1.474-0.411s1.054,0.081,1.517,0.298
		c0.454,0.217,0.834,0.539,1.141,0.964c0.307,0.425,0.517,0.902,0.631,1.432c0.198,0.85,0.156,1.842-0.128,2.976
		c-0.463,1.806-1.2,3.104-2.211,3.898c-0.747,0.566-1.559,0.812-2.438,0.736c-0.879-0.057-1.573-0.505-2.083-1.347
		c-0.34-0.613-0.411-1.355-0.213-2.225c0.189-0.917,0.624-1.715,1.304-2.396c0.435-0.435,0.855-0.723,1.261-0.864
		c0.558-0.161,1.077-0.182,1.559-0.064c0.482,0.119,0.888,0.324,1.219,0.617c0.255,0.217,0.458,0.491,0.609,0.822
		c0.019,0.037,0.045,0.104,0.078,0.198s0.059,0.16,0.078,0.198c0.019-0.132,0.038-0.231,0.057-0.298
		c0.009-0.075,0.026-0.182,0.049-0.318c0.024-0.138,0.041-0.239,0.05-0.305c0.132-1.276-0.071-2.216-0.609-2.821
		c-0.274-0.302-0.624-0.529-1.049-0.68c-0.369-0.142-0.785-0.163-1.247-0.064c-0.463,0.099-0.799,0.324-1.006,0.673
		C115.565,43.791,115.504,43.947,115.476,44.099z M117.163,46.253c-0.586-0.028-1.094,0.099-1.524,0.383
		c-0.43,0.283-0.768,0.656-1.013,1.119c-0.151,0.284-0.293,0.737-0.425,1.361c-0.113,0.633-0.127,1.105-0.042,1.417
		c0.208,0.604,0.543,0.978,1.006,1.119c0.444,0.171,0.982,0.18,1.616,0.028c0.472-0.15,0.874-0.396,1.205-0.736
		c0.217-0.246,0.43-0.564,0.638-0.957c0.208-0.392,0.354-0.772,0.439-1.141c0.113-0.378,0.116-0.777,0.007-1.198
		c-0.109-0.42-0.324-0.753-0.645-0.999C118.083,46.385,117.663,46.253,117.163,46.253z"/>
</g>
<g>
	<path d="M121.327,54.145c0,0.007-0.03,0.153-0.089,0.441s-0.123,0.58-0.188,0.878c-0.066,0.298-0.103,0.46-0.109,0.486
		c-0.04,0.105-0.119,0.182-0.238,0.229c-0.119,0.046-0.228,0.036-0.328-0.03c-0.086-0.066-0.105-0.205-0.06-0.417
		c0.033-0.152,0.147-0.685,0.342-1.597c0.195-0.913,0.382-1.788,0.561-2.624c0.179-0.837,0.274-1.285,0.288-1.345
		c0.033-0.159,0.06-0.258,0.079-0.298c0.08-0.179,0.222-0.251,0.427-0.218c0.146,0.02,0.218,0.103,0.218,0.248
		c0,0.02-0.031,0.18-0.094,0.48c-0.063,0.302-0.134,0.639-0.213,1.013c-0.079,0.373-0.132,0.623-0.159,0.749
		c-0.093,0.43-0.139,0.707-0.139,0.833c0,0.437,0.148,0.731,0.446,0.883c0.297,0.152,0.602,0.149,0.913-0.01
		c0.199-0.105,0.371-0.258,0.516-0.456s0.268-0.441,0.367-0.729c0.099-0.288,0.177-0.546,0.233-0.773
		c0.056-0.229,0.117-0.512,0.184-0.849c0.006-0.046,0.013-0.084,0.02-0.114c0.006-0.029,0.013-0.061,0.02-0.094
		c0.013-0.066,0.035-0.162,0.064-0.288s0.051-0.222,0.064-0.288c0.033-0.165,0.06-0.271,0.08-0.317
		c0.092-0.146,0.218-0.218,0.377-0.218c0.165,0.013,0.254,0.096,0.268,0.248c0,0.026-0.048,0.271-0.144,0.734
		c-0.096,0.463-0.198,0.949-0.308,1.458c-0.109,0.51-0.167,0.78-0.173,0.813c-0.033,0.146-0.057,0.255-0.07,0.327
		c-0.013,0.073-0.01,0.169,0.01,0.288c0.02,0.119,0.073,0.212,0.159,0.277c0.105,0.093,0.208,0.116,0.308,0.07
		c0.132-0.08,0.251-0.351,0.357-0.814c0.006-0.013,0.015-0.041,0.025-0.084s0.018-0.083,0.025-0.119
		c0.006-0.036,0.013-0.058,0.02-0.064c0.013-0.013,0.073-0.02,0.179-0.02h0.486c-0.007,0.053-0.043,0.202-0.109,0.446
		c-0.185,0.522-0.417,0.877-0.694,1.062c-0.258,0.165-0.541,0.188-0.848,0.069c-0.308-0.119-0.498-0.33-0.571-0.635
		c-0.218,0.231-0.437,0.403-0.655,0.516c-0.437,0.219-0.886,0.255-1.349,0.109c-0.146-0.046-0.255-0.096-0.328-0.148
		c-0.02-0.007-0.048-0.023-0.084-0.05C121.375,54.178,121.347,54.158,121.327,54.145z"/>
</g>
<g>
	<path d="M131.401,48.266c0.019-0.01,0.094-0.015,0.227-0.015h7.441h0.539c0.113,0.02,0.187,0.085,0.22,0.198
		c0.033,0.114,0.012,0.208-0.064,0.284c-0.028,0.028-0.071,0.052-0.127,0.07c-0.057,0.02-0.106,0.028-0.149,0.028
		s-0.099-0.002-0.17-0.007s-0.116-0.007-0.135-0.007h-7.54c-0.142,0-0.222-0.005-0.241-0.015c-0.142-0.037-0.21-0.125-0.206-0.262
		C131.2,48.405,131.269,48.312,131.401,48.266z"/>
</g>
<g>
	<path d="M147.346,46.976c0.057-0.123,0.198-0.307,0.425-0.553c0.642-0.709,1.394-1.021,2.253-0.936
		c0.491,0.038,0.855,0.18,1.091,0.426c0.161,0.16,0.265,0.392,0.312,0.694c0,0.028,0.002,0.087,0.007,0.177s0.012,0.158,0.021,0.206
		c0.094-0.161,0.236-0.346,0.425-0.554c0.481-0.528,1.034-0.841,1.658-0.935c0.416-0.057,0.796-0.031,1.141,0.077
		c0.345,0.109,0.588,0.301,0.73,0.574c0.18,0.341,0.189,0.898,0.028,1.673l-0.638,2.962c-0.132,0.699-0.227,1.144-0.284,1.332
		c0,0.104-0.071,0.156-0.212,0.156c-0.028,0-0.047,0-0.057,0h-0.666l0.893-4.195c0.009-0.047,0.028-0.135,0.057-0.262
		c0.028-0.128,0.047-0.225,0.057-0.291c0.009-0.066,0.019-0.153,0.028-0.262c0.009-0.109,0.004-0.206-0.014-0.291
		c-0.019-0.085-0.047-0.17-0.085-0.255c-0.132-0.265-0.392-0.43-0.779-0.496c-0.614-0.133-1.127-0.015-1.538,0.354
		c-0.411,0.368-0.716,0.846-0.915,1.431c-0.038,0.123-0.111,0.438-0.22,0.943c-0.108,0.505-0.224,1.062-0.347,1.672
		c-0.123,0.609-0.208,1.014-0.255,1.212c-0.01,0.038-0.021,0.09-0.036,0.156s-0.026,0.113-0.035,0.142
		c0,0.038-0.005,0.066-0.014,0.085c-0.01,0.019-0.028,0.033-0.057,0.042c-0.028,0.01-0.05,0.015-0.064,0.015s-0.042,0-0.085,0
		s-0.069,0-0.078,0h-0.638l0.893-4.195c0.009-0.047,0.028-0.135,0.057-0.262c0.028-0.128,0.047-0.225,0.057-0.291
		c0.009-0.066,0.019-0.153,0.028-0.262c0.009-0.109,0.004-0.206-0.014-0.291c-0.019-0.085-0.047-0.17-0.085-0.255
		c-0.133-0.265-0.393-0.43-0.78-0.496c-0.614-0.133-1.126-0.015-1.538,0.354c-0.411,0.368-0.716,0.846-0.914,1.431
		c-0.038,0.123-0.111,0.438-0.22,0.943c-0.109,0.505-0.225,1.062-0.347,1.672c-0.123,0.609-0.208,1.014-0.255,1.212
		c-0.009,0.028-0.021,0.076-0.036,0.142c-0.014,0.066-0.026,0.118-0.035,0.156c0,0.038-0.005,0.066-0.014,0.085
		c-0.01,0.019-0.028,0.033-0.057,0.042c-0.028,0.01-0.05,0.015-0.064,0.015s-0.042,0-0.085,0s-0.069,0-0.078,0h-0.638l1.417-6.689
		h0.864l-0.283,1.389H147.346z"/>
</g>
<g>
	<path d="M156.824,41.646h0.467c0.142,0,0.222,0.005,0.241,0.014c0.113,0.057,0.321,0.236,0.624,0.539
		c0.548,0.548,0.992,1.162,1.333,1.843c0.727,1.455,1.053,3.118,0.978,4.988c-0.057,1.2-0.281,2.299-0.673,3.296
		c-0.393,0.996-0.929,1.835-1.609,2.516c-0.321,0.321-0.539,0.51-0.652,0.566c-0.028,0.01-0.109,0.015-0.241,0.015h-0.467
		c0.038-0.048,0.165-0.165,0.382-0.354c0.076-0.066,0.18-0.175,0.312-0.326c0.416-0.463,0.76-0.973,1.035-1.53
		c0.746-1.475,1.082-3.198,1.006-5.173c-0.095-2.362-0.775-4.267-2.041-5.712c-0.132-0.151-0.236-0.26-0.312-0.326
		C156.989,41.812,156.862,41.694,156.824,41.646z"/>
</g>
<g>
	<path d="M169.636,51.185c-0.643,0.729-1.337,1.13-2.083,1.205c-0.179,0.019-0.354,0.005-0.524-0.042
		c-0.453-0.095-0.82-0.338-1.098-0.73c-0.279-0.392-0.442-0.838-0.489-1.339c-0.066-0.728,0.045-1.448,0.333-2.162
		c0.288-0.713,0.71-1.315,1.268-1.807c0.17-0.133,0.303-0.231,0.397-0.298c0.265-0.17,0.541-0.305,0.829-0.404
		c0.288-0.099,0.595-0.139,0.921-0.12c0.326,0.02,0.607,0.123,0.843,0.312c0.17,0.143,0.316,0.331,0.439,0.567
		c0.057,0.151,0.104,0.265,0.142,0.34l0.227-1.119l0.057-0.1c0.179-0.009,0.468-0.014,0.864-0.014l-1.941,9.17h-0.907l0.17-0.865
		l0.411-1.885L169.636,51.185z M169.168,46.196c-0.472,0.038-0.926,0.222-1.36,0.553c-0.416,0.303-0.754,0.694-1.014,1.176
		c-0.26,0.482-0.404,0.979-0.432,1.488c-0.057,1.002,0.236,1.691,0.879,2.069c0.264,0.161,0.553,0.227,0.864,0.198
		c0.52-0.037,0.987-0.307,1.403-0.808c0.179-0.255,0.279-0.406,0.298-0.453c0.009-0.028,0.111-0.486,0.305-1.375
		c0.193-0.888,0.295-1.365,0.305-1.432c0-0.037-0.01-0.165-0.028-0.383c-0.095-0.453-0.274-0.756-0.539-0.907
		C169.669,46.22,169.442,46.177,169.168,46.196z"/>
</g>
<g>
	<path d="M180.548,48.251v-3.926c0-0.16,0.004-0.26,0.014-0.298c0.028-0.142,0.118-0.212,0.269-0.212c0.151,0,0.241,0.07,0.27,0.212
		c0.009,0.028,0.014,0.123,0.014,0.283v3.94h3.926c0.161,0,0.255,0.005,0.284,0.015c0.142,0.028,0.212,0.118,0.212,0.269
		c0,0.151-0.071,0.241-0.212,0.27c-0.028,0.01-0.123,0.015-0.284,0.015h-3.926v3.939c0,0.161-0.005,0.256-0.014,0.284
		c-0.028,0.142-0.118,0.212-0.27,0.212c-0.151,0-0.241-0.07-0.269-0.212c-0.01-0.028-0.014-0.123-0.014-0.284v-3.939h-3.94
		c-0.161,0-0.255-0.005-0.283-0.015c-0.142-0.028-0.213-0.118-0.213-0.27c0-0.15,0.071-0.24,0.213-0.269
		c0.028-0.01,0.123-0.015,0.283-0.015H180.548z"/>
</g>
<g>
	<path d="M195.104,50.505c-0.085,0.18-0.222,0.373-0.411,0.581c-0.624,0.718-1.333,1.03-2.126,0.936
		c-0.709-0.123-1.212-0.489-1.51-1.099c-0.297-0.609-0.347-1.335-0.148-2.176c0.264-1.067,0.827-1.937,1.687-2.607l0.383-0.256
		c0.255-0.15,0.52-0.264,0.793-0.34c0.274-0.075,0.56-0.094,0.857-0.057c0.298,0.038,0.555,0.146,0.772,0.326
		c0.189,0.17,0.373,0.468,0.553,0.893l0.227-1.119l0.057-0.1c0.179-0.009,0.468-0.014,0.864-0.014
		c-0.501,2.409-0.954,4.54-1.36,6.392c-0.132,0.604-0.27,1.035-0.411,1.29c-0.236,0.425-0.551,0.791-0.942,1.099
		c-0.392,0.307-0.82,0.508-1.283,0.602c-0.832,0.143-1.635,0.043-2.41-0.297c-0.057-0.028-0.118-0.06-0.184-0.093
		c-0.066-0.033-0.14-0.07-0.22-0.113c-0.081-0.042-0.144-0.073-0.191-0.092l0.17-0.779c0.047,0.019,0.118,0.059,0.213,0.12
		c0.094,0.062,0.165,0.102,0.212,0.12c0.482,0.265,1.058,0.416,1.729,0.454c0.283,0.019,0.496,0.014,0.638-0.015
		c0.349-0.075,0.664-0.25,0.942-0.524c0.279-0.273,0.484-0.591,0.617-0.949c0.085-0.208,0.189-0.628,0.312-1.262
		c0.009-0.028,0.04-0.158,0.092-0.39c0.052-0.231,0.083-0.408,0.092-0.531H195.104z M195.203,46.323
		c-0.189-0.132-0.414-0.182-0.673-0.148s-0.491,0.092-0.694,0.177c-0.204,0.085-0.395,0.189-0.574,0.312
		c-0.406,0.273-0.744,0.631-1.013,1.069c-0.27,0.439-0.438,0.905-0.503,1.396c-0.057,0.396-0.017,0.782,0.121,1.155
		c0.137,0.373,0.371,0.649,0.702,0.829c0.302,0.17,0.614,0.241,0.936,0.213c0.444-0.038,0.841-0.274,1.19-0.709
		c0.378-0.473,0.675-1.2,0.893-2.183c0.076-0.321,0.132-0.6,0.17-0.836C195.756,46.957,195.571,46.531,195.203,46.323z"/>
</g>
<g>
	<path d="M200.071,43.333h5.357v0.751h-5.357V43.333z"/>
</g>
<g>
	<path d="M202.993,51.185c-0.643,0.729-1.337,1.13-2.083,1.205c-0.179,0.019-0.354,0.005-0.524-0.042
		c-0.453-0.095-0.82-0.338-1.098-0.73c-0.279-0.392-0.442-0.838-0.489-1.339c-0.066-0.728,0.045-1.448,0.333-2.162
		c0.288-0.713,0.71-1.315,1.268-1.807c0.17-0.133,0.303-0.231,0.397-0.298c0.265-0.17,0.541-0.305,0.829-0.404
		c0.288-0.099,0.595-0.139,0.921-0.12c0.326,0.02,0.607,0.123,0.843,0.312c0.17,0.143,0.316,0.331,0.439,0.567
		c0.057,0.151,0.104,0.265,0.142,0.34l0.227-1.119l0.057-0.1c0.179-0.009,0.468-0.014,0.864-0.014l-1.941,9.17h-0.907l0.17-0.865
		l0.411-1.885L202.993,51.185z M202.525,46.196c-0.472,0.038-0.926,0.222-1.36,0.553c-0.416,0.303-0.754,0.694-1.014,1.176
		c-0.26,0.482-0.404,0.979-0.432,1.488c-0.057,1.002,0.236,1.691,0.879,2.069c0.264,0.161,0.553,0.227,0.864,0.198
		c0.52-0.037,0.987-0.307,1.403-0.808c0.179-0.255,0.279-0.406,0.298-0.453c0.009-0.028,0.111-0.486,0.305-1.375
		c0.193-0.888,0.295-1.365,0.305-1.432c0-0.037-0.01-0.165-0.028-0.383c-0.095-0.453-0.274-0.756-0.539-0.907
		C203.026,46.22,202.799,46.177,202.525,46.196z"/>
	<path d="M205.473,48.421c0.057-0.312,0.165-0.623,0.326-0.936c0.387-0.765,0.926-1.337,1.616-1.715
		c0.387-0.217,0.815-0.316,1.282-0.297c0.468,0.019,0.876,0.165,1.226,0.439c0.69,0.538,1.143,1.479,1.361,2.82
		c0.019,0.151,0.038,0.26,0.057,0.325c0.236-0.736,0.628-1.804,1.176-3.203l0.127-0.24c0.123-0.02,0.42-0.028,0.893-0.028
		c-0.009,0.028-0.13,0.31-0.361,0.843c-0.231,0.534-0.484,1.12-0.758,1.758s-0.458,1.079-0.553,1.325
		c-0.227,0.566-0.374,0.959-0.439,1.177c-0.019,0.057-0.028,0.137-0.028,0.24c-0.009,0.057-0.017,0.116-0.021,0.178
		c-0.005,0.062-0.01,0.132-0.014,0.212c-0.005,0.081-0.007,0.14-0.007,0.178c-0.057,0.604-0.175,1.332-0.354,2.183
		c-0.17,0.822-0.411,1.224-0.723,1.204c-0.189-0.009-0.284-0.17-0.284-0.481c0-0.473,0.222-1.507,0.667-3.104
		c0-0.02,0.009-0.06,0.028-0.121c0.019-0.062,0.028-0.106,0.028-0.135c0.038-0.302-0.118-1.157-0.468-2.565
		c-0.104-0.358-0.198-0.646-0.284-0.864c-0.085-0.217-0.22-0.446-0.404-0.688s-0.404-0.408-0.659-0.503
		c-0.529-0.188-1.049-0.075-1.559,0.34c-0.491,0.416-0.812,0.969-0.963,1.658H205.473z"/>
</g>
<g>
	<path d="M215.35,46.166c0,0.007-0.03,0.153-0.089,0.441s-0.123,0.58-0.188,0.878c-0.066,0.298-0.103,0.46-0.109,0.486
		c-0.04,0.105-0.119,0.182-0.238,0.229c-0.119,0.046-0.228,0.036-0.328-0.03c-0.086-0.066-0.105-0.205-0.06-0.417
		c0.033-0.152,0.147-0.685,0.342-1.597c0.195-0.913,0.382-1.788,0.561-2.624c0.179-0.837,0.274-1.285,0.288-1.345
		c0.033-0.159,0.06-0.258,0.079-0.298c0.08-0.178,0.222-0.251,0.427-0.218c0.146,0.02,0.218,0.103,0.218,0.248
		c0,0.02-0.031,0.181-0.094,0.481s-0.134,0.638-0.213,1.011c-0.079,0.374-0.132,0.624-0.159,0.75
		c-0.093,0.43-0.139,0.707-0.139,0.833c0,0.437,0.148,0.731,0.446,0.883c0.297,0.152,0.602,0.149,0.913-0.01
		c0.199-0.105,0.371-0.258,0.516-0.456s0.268-0.441,0.367-0.729c0.099-0.288,0.177-0.546,0.233-0.773
		c0.056-0.229,0.117-0.511,0.184-0.849c0.006-0.046,0.013-0.084,0.02-0.114c0.006-0.03,0.013-0.061,0.02-0.094
		c0.013-0.066,0.035-0.162,0.064-0.288c0.03-0.125,0.051-0.222,0.064-0.288c0.033-0.166,0.06-0.271,0.08-0.317
		c0.092-0.146,0.218-0.218,0.377-0.218c0.165,0.013,0.254,0.096,0.268,0.248c0,0.026-0.048,0.271-0.144,0.734
		c-0.096,0.462-0.198,0.95-0.308,1.458c-0.109,0.51-0.167,0.78-0.173,0.813c-0.033,0.146-0.057,0.255-0.07,0.327
		c-0.013,0.073-0.01,0.169,0.01,0.288c0.02,0.119,0.073,0.212,0.159,0.277c0.105,0.093,0.208,0.116,0.308,0.07
		c0.132-0.08,0.251-0.351,0.357-0.814c0.006-0.013,0.015-0.041,0.025-0.084s0.018-0.083,0.025-0.119
		c0.006-0.036,0.013-0.058,0.02-0.064c0.013-0.013,0.073-0.02,0.179-0.02h0.486c-0.007,0.053-0.043,0.202-0.109,0.446
		c-0.185,0.522-0.417,0.877-0.694,1.062c-0.258,0.165-0.541,0.188-0.848,0.069c-0.308-0.119-0.498-0.33-0.571-0.635
		c-0.218,0.231-0.437,0.403-0.655,0.516c-0.437,0.219-0.886,0.255-1.349,0.109c-0.146-0.046-0.255-0.096-0.328-0.148
		c-0.02-0.007-0.048-0.023-0.084-0.05C215.398,46.199,215.37,46.18,215.35,46.166z"/>
</g>
<g>
	<path d="M221.778,43.234c0.057-0.341,0.113-0.582,0.17-0.723c0.123-0.038,0.468-0.05,1.035-0.036s0.926,0.017,1.077,0.007h7.058
		l-0.156,0.751h-3.812c-0.17,0-0.265,0.014-0.284,0.042c-0.028,0.048-0.042,0.104-0.042,0.17c-1.001,4.63-1.616,7.512-1.842,8.646
		l-0.057,0.156c-0.019,0.019-0.109,0.028-0.27,0.028h-0.708l1.927-9.042H221.778z"/>
</g>
<g>
	<path d="M231.097,50.603c0-0.014,0.02-0.148,0.06-0.407c0-0.085,0.01-0.142,0.03-0.168c0.046-0.06,0.265-0.149,0.655-0.269
		c0.238-0.079,0.526-0.129,0.863-0.148c0.482-0.026,0.85,0.05,1.101,0.229c0.053,0.039,0.125,0.105,0.218,0.198
		c0.218,0.251,0.317,0.568,0.298,0.952c-0.014,0.126-0.127,0.691-0.342,1.696c-0.215,1.006-0.333,1.542-0.353,1.607
		c0,0.073-0.053,0.109-0.159,0.109c-0.02,0-0.033,0-0.04,0h-0.476l0.149-0.694c-0.404,0.403-0.926,0.648-1.568,0.734
		c-0.357,0.053-0.632,0.046-0.823-0.021c-0.238-0.086-0.398-0.27-0.481-0.551c-0.083-0.28-0.078-0.533,0.015-0.759
		c0.152-0.456,0.542-0.795,1.17-1.017s1.323-0.332,2.083-0.332c0.007-0.054,0.037-0.199,0.089-0.437
		c0.053-0.238,0.066-0.424,0.04-0.556c-0.02-0.172-0.086-0.319-0.198-0.441c-0.112-0.123-0.248-0.197-0.407-0.224
		c-0.509-0.086-1.082,0.043-1.716,0.387C231.212,50.547,231.143,50.583,231.097,50.603z M233.428,52.081
		c-0.509,0-0.976,0.066-1.399,0.198c-0.297,0.079-0.545,0.195-0.744,0.347c-0.159,0.119-0.283,0.264-0.372,0.432
		c-0.089,0.169-0.098,0.336-0.025,0.501c0.1,0.212,0.308,0.338,0.625,0.378c0.277,0.039,0.565,0.011,0.863-0.085
		c0.298-0.096,0.516-0.236,0.655-0.422c0.093-0.112,0.172-0.311,0.238-0.595C233.342,52.465,233.395,52.213,233.428,52.081z"/>
</g>
<g>
	<path d="M240.572,51.185c-0.643,0.729-1.337,1.13-2.083,1.205c-0.179,0.019-0.354,0.005-0.524-0.042
		c-0.453-0.095-0.82-0.338-1.098-0.73c-0.279-0.392-0.442-0.838-0.489-1.339c-0.066-0.728,0.045-1.448,0.333-2.162
		c0.288-0.713,0.71-1.315,1.268-1.807c0.17-0.133,0.303-0.231,0.397-0.298c0.265-0.17,0.541-0.305,0.829-0.404
		c0.288-0.099,0.595-0.139,0.921-0.12c0.326,0.02,0.607,0.123,0.843,0.312c0.17,0.143,0.316,0.331,0.439,0.567
		c0.057,0.151,0.104,0.265,0.142,0.34l0.227-1.119l0.057-0.1c0.179-0.009,0.468-0.014,0.864-0.014l-1.941,9.17h-0.907l0.17-0.865
		l0.411-1.885L240.572,51.185z M240.104,46.196c-0.472,0.038-0.926,0.222-1.36,0.553c-0.416,0.303-0.754,0.694-1.014,1.176
		c-0.26,0.482-0.404,0.979-0.432,1.488c-0.057,1.002,0.236,1.691,0.879,2.069c0.264,0.161,0.553,0.227,0.864,0.198
		c0.52-0.037,0.987-0.307,1.403-0.808c0.179-0.255,0.279-0.406,0.298-0.453c0.009-0.028,0.111-0.486,0.305-1.375
		c0.193-0.888,0.295-1.365,0.305-1.432c0-0.037-0.01-0.165-0.028-0.383c-0.095-0.453-0.274-0.756-0.539-0.907
		C240.605,46.22,240.378,46.177,240.104,46.196z"/>
	<path d="M243.506,52.276l5.811-9.737l0.142-0.199c0.142-0.019,0.496-0.028,1.063-0.028l1.715,9.964h-1.049l-0.496-2.962h-4.124
		l-0.369,0.028c-0.208,0.293-0.501,0.772-0.879,1.438s-0.68,1.155-0.907,1.467C244.29,52.267,243.988,52.276,243.506,52.276z
		 M249.713,43.348l-2.905,4.903l-0.17,0.312h3.912c-0.047-0.321-0.177-1.099-0.39-2.332
		C249.947,44.998,249.799,44.037,249.713,43.348z"/>
</g>
<g>
	<path d="M254.357,42.624c0-0.013,0.02-0.149,0.06-0.407c0-0.086,0.01-0.142,0.03-0.169c0.046-0.059,0.265-0.148,0.655-0.268
		c0.238-0.08,0.526-0.129,0.863-0.149c0.482-0.026,0.85,0.05,1.101,0.228c0.053,0.04,0.125,0.106,0.218,0.199
		c0.218,0.251,0.317,0.569,0.298,0.952c-0.014,0.126-0.127,0.691-0.342,1.696c-0.215,1.006-0.333,1.542-0.353,1.607
		c0,0.073-0.053,0.109-0.159,0.109c-0.02,0-0.033,0-0.04,0h-0.476l0.149-0.694c-0.404,0.403-0.926,0.648-1.568,0.734
		c-0.357,0.053-0.632,0.046-0.823-0.021c-0.238-0.086-0.398-0.27-0.481-0.551c-0.083-0.28-0.078-0.533,0.015-0.759
		c0.152-0.456,0.542-0.795,1.17-1.017s1.323-0.332,2.083-0.332c0.007-0.054,0.037-0.199,0.089-0.438
		c0.053-0.237,0.066-0.422,0.04-0.555c-0.02-0.172-0.086-0.319-0.198-0.441c-0.112-0.122-0.248-0.197-0.407-0.223
		c-0.509-0.086-1.082,0.043-1.716,0.387C254.473,42.568,254.404,42.604,254.357,42.624z M256.689,44.103
		c-0.509,0-0.976,0.066-1.399,0.198c-0.297,0.079-0.545,0.195-0.744,0.347c-0.159,0.119-0.283,0.264-0.372,0.432
		c-0.089,0.169-0.098,0.336-0.025,0.501c0.1,0.212,0.308,0.338,0.625,0.378c0.277,0.039,0.565,0.011,0.863-0.085
		c0.298-0.096,0.516-0.236,0.655-0.422c0.093-0.112,0.172-0.311,0.238-0.595C256.603,44.486,256.656,44.234,256.689,44.103z"/>
</g>
<g>
	<path d="M254.04,55.522c0,0.007-0.03,0.153-0.089,0.441s-0.123,0.58-0.188,0.878c-0.066,0.298-0.103,0.46-0.109,0.486
		c-0.04,0.105-0.119,0.182-0.238,0.229c-0.119,0.046-0.228,0.036-0.328-0.03c-0.086-0.066-0.105-0.205-0.06-0.417
		c0.033-0.152,0.147-0.685,0.342-1.597c0.195-0.913,0.382-1.788,0.561-2.624c0.179-0.837,0.274-1.285,0.288-1.345
		c0.033-0.159,0.06-0.258,0.079-0.298c0.08-0.179,0.222-0.251,0.427-0.218c0.146,0.02,0.218,0.103,0.218,0.248
		c0,0.02-0.031,0.18-0.094,0.48c-0.063,0.302-0.134,0.639-0.213,1.013c-0.079,0.373-0.132,0.623-0.159,0.749
		c-0.093,0.43-0.139,0.707-0.139,0.833c0,0.437,0.148,0.731,0.446,0.883c0.297,0.152,0.602,0.149,0.913-0.01
		c0.199-0.105,0.371-0.258,0.516-0.456s0.268-0.441,0.367-0.729c0.099-0.288,0.177-0.546,0.233-0.773
		c0.056-0.229,0.117-0.512,0.184-0.849c0.006-0.046,0.013-0.084,0.02-0.114c0.006-0.029,0.013-0.061,0.02-0.094
		c0.013-0.066,0.035-0.162,0.064-0.288s0.051-0.222,0.064-0.288c0.033-0.165,0.06-0.271,0.08-0.317
		c0.092-0.146,0.218-0.218,0.377-0.218c0.165,0.013,0.254,0.096,0.268,0.248c0,0.026-0.048,0.271-0.144,0.734
		c-0.096,0.463-0.198,0.949-0.308,1.458c-0.109,0.51-0.167,0.78-0.173,0.813c-0.033,0.146-0.057,0.255-0.07,0.327
		c-0.013,0.073-0.01,0.169,0.01,0.288c0.02,0.119,0.073,0.212,0.159,0.277c0.105,0.093,0.208,0.116,0.308,0.07
		c0.132-0.08,0.251-0.351,0.357-0.814c0.006-0.013,0.015-0.041,0.025-0.084s0.018-0.083,0.025-0.119
		c0.006-0.036,0.013-0.058,0.02-0.064c0.013-0.013,0.073-0.02,0.179-0.02h0.486c-0.007,0.053-0.043,0.202-0.109,0.446
		c-0.185,0.522-0.417,0.877-0.694,1.062c-0.258,0.165-0.541,0.188-0.848,0.069c-0.308-0.119-0.498-0.33-0.571-0.635
		c-0.218,0.231-0.437,0.403-0.655,0.516c-0.437,0.219-0.886,0.255-1.349,0.109c-0.146-0.046-0.255-0.096-0.328-0.148
		c-0.02-0.007-0.048-0.023-0.084-0.05C254.088,55.556,254.06,55.536,254.04,55.522z"/>
</g>
<g>
	<path d="M264.114,48.266c0.019-0.01,0.094-0.015,0.227-0.015h7.441h0.539c0.113,0.02,0.187,0.085,0.22,0.198
		c0.033,0.114,0.012,0.208-0.064,0.284c-0.028,0.028-0.071,0.052-0.127,0.07c-0.057,0.02-0.106,0.028-0.149,0.028
		s-0.099-0.002-0.17-0.007s-0.116-0.007-0.135-0.007h-7.54c-0.142,0-0.222-0.005-0.241-0.015c-0.142-0.037-0.21-0.125-0.206-0.262
		C263.913,48.405,263.981,48.312,264.114,48.266z"/>
</g>
<g>
	<path d="M279.582,33.888c0.945,0,1.715-0.217,2.31-0.652c0.047-0.028,0.09-0.062,0.127-0.1c0.038-0.038,0.066-0.066,0.085-0.085
		c0.019-0.019,0.042-0.038,0.071-0.057c0.028-0.019,0.063-0.03,0.106-0.035s0.097-0.007,0.163-0.007v8.83h1.857v0.708h-4.635v-0.708
		h1.856v-7.597c-0.633,0.274-1.28,0.411-1.941,0.411V33.888z"/>
</g>
<g>
	<rect x="278.094" y="48.249" width="7.441" height="0.574"/>
</g>
<g>
	<path d="M278.505,59.235v-0.481c0-0.199,0.042-0.354,0.127-0.468l0.17-0.284l0.667-1.021l2.608-4.081
		c0.188-0.303,0.302-0.468,0.34-0.496c0.028-0.02,0.132-0.028,0.312-0.028h0.766v6.108h1.615v0.751h-1.615v2.565h-0.894v-2.565
		H278.505z M282.644,53.184c-0.028,0.066-0.074,0.163-0.135,0.29c-0.062,0.128-0.111,0.225-0.149,0.291
		c-0.198,0.35-0.536,0.905-1.013,1.665c-0.478,0.761-0.912,1.448-1.304,2.062s-0.598,0.945-0.616,0.992h3.217V53.184z"/>
</g>
<g>
	<path d="M290.203,42.454h6.42c-0.095,0.435-0.155,0.681-0.184,0.737c-0.359,0.02-1.25,0.025-2.672,0.021
		c-1.422-0.005-2.332-0.008-2.729-0.008l-0.808,3.785h4.818c-0.065,0.453-0.123,0.694-0.17,0.723
		c-0.019,0.019-0.108,0.028-0.27,0.028h-4.224c-0.17,0-0.265,0.009-0.283,0.028c-0.019,0.01-0.035,0.033-0.05,0.07
		c-0.014,0.038-0.023,0.078-0.028,0.121c-0.005,0.042-0.012,0.073-0.021,0.092l-0.171,0.822c-0.283,1.304-0.505,2.353-0.666,3.146
		c-0.028,0.132-0.052,0.208-0.07,0.227c-0.02,0.019-0.109,0.028-0.27,0.028h-0.709L290.203,42.454z"/>
</g>
<g>
	<path d="M298.746,42.624c0-0.013,0.02-0.149,0.06-0.407c0-0.086,0.01-0.142,0.03-0.169c0.046-0.059,0.264-0.148,0.654-0.268
		c0.238-0.08,0.525-0.129,0.863-0.149c0.482-0.026,0.85,0.05,1.102,0.228c0.053,0.04,0.125,0.106,0.218,0.199
		c0.219,0.251,0.317,0.569,0.298,0.952c-0.014,0.126-0.128,0.691-0.343,1.696c-0.215,1.006-0.332,1.542-0.352,1.607
		c0,0.073-0.054,0.109-0.159,0.109c-0.02,0-0.033,0-0.039,0h-0.477l0.148-0.694c-0.403,0.403-0.926,0.648-1.567,0.734
		c-0.357,0.053-0.632,0.046-0.823-0.021c-0.238-0.086-0.398-0.27-0.481-0.551c-0.083-0.28-0.078-0.533,0.015-0.759
		c0.152-0.456,0.543-0.795,1.171-1.017c0.629-0.222,1.323-0.332,2.084-0.332c0.006-0.054,0.036-0.199,0.089-0.438
		c0.053-0.237,0.066-0.422,0.04-0.555c-0.021-0.172-0.086-0.319-0.198-0.441c-0.113-0.122-0.248-0.197-0.407-0.223
		c-0.51-0.086-1.081,0.043-1.717,0.387C298.862,42.568,298.792,42.604,298.746,42.624z M301.078,44.103
		c-0.51,0-0.977,0.066-1.399,0.198c-0.298,0.079-0.546,0.195-0.744,0.347c-0.158,0.119-0.282,0.264-0.372,0.432
		c-0.089,0.169-0.098,0.336-0.024,0.501c0.099,0.212,0.308,0.338,0.625,0.378c0.277,0.039,0.565,0.011,0.863-0.085
		c0.297-0.096,0.516-0.236,0.654-0.422c0.093-0.112,0.172-0.311,0.238-0.595C300.991,44.486,301.045,44.234,301.078,44.103z"/>
</g>
<g>
	<path d="M296.362,55.522c0,0.007-0.029,0.153-0.089,0.441s-0.123,0.58-0.188,0.878c-0.066,0.298-0.104,0.46-0.109,0.486
		c-0.04,0.105-0.119,0.182-0.238,0.229c-0.119,0.046-0.229,0.036-0.327-0.03c-0.086-0.066-0.106-0.205-0.06-0.417
		c0.033-0.152,0.146-0.685,0.342-1.597c0.195-0.913,0.382-1.788,0.561-2.624c0.179-0.837,0.274-1.285,0.288-1.345
		c0.033-0.159,0.06-0.258,0.079-0.298c0.079-0.179,0.222-0.251,0.427-0.218c0.146,0.02,0.218,0.103,0.218,0.248
		c0,0.02-0.031,0.18-0.094,0.48c-0.062,0.302-0.134,0.639-0.213,1.013c-0.08,0.373-0.133,0.623-0.159,0.749
		c-0.093,0.43-0.139,0.707-0.139,0.833c0,0.437,0.148,0.731,0.446,0.883c0.298,0.152,0.602,0.149,0.913-0.01
		c0.198-0.105,0.37-0.258,0.516-0.456s0.268-0.441,0.367-0.729c0.099-0.288,0.177-0.546,0.233-0.773
		c0.056-0.229,0.117-0.512,0.183-0.849c0.007-0.046,0.014-0.084,0.021-0.114c0.006-0.029,0.013-0.061,0.02-0.094
		c0.014-0.066,0.035-0.162,0.064-0.288c0.03-0.126,0.052-0.222,0.064-0.288c0.033-0.165,0.06-0.271,0.079-0.317
		c0.093-0.146,0.219-0.218,0.377-0.218c0.166,0.013,0.255,0.096,0.269,0.248c0,0.026-0.048,0.271-0.145,0.734
		c-0.096,0.463-0.198,0.949-0.307,1.458c-0.109,0.51-0.168,0.78-0.174,0.813c-0.033,0.146-0.057,0.255-0.069,0.327
		c-0.014,0.073-0.011,0.169,0.01,0.288c0.02,0.119,0.072,0.212,0.158,0.277c0.106,0.093,0.209,0.116,0.308,0.07
		c0.133-0.08,0.252-0.351,0.357-0.814c0.007-0.013,0.015-0.041,0.024-0.084c0.011-0.043,0.019-0.083,0.025-0.119
		c0.006-0.036,0.013-0.058,0.02-0.064c0.014-0.013,0.073-0.02,0.179-0.02h0.486c-0.007,0.053-0.043,0.202-0.109,0.446
		c-0.186,0.522-0.417,0.877-0.694,1.062c-0.258,0.165-0.541,0.188-0.849,0.069s-0.497-0.33-0.57-0.635
		c-0.218,0.231-0.437,0.403-0.654,0.516c-0.437,0.219-0.887,0.255-1.35,0.109c-0.146-0.046-0.255-0.096-0.327-0.148
		c-0.021-0.007-0.049-0.023-0.085-0.05S296.382,55.536,296.362,55.522z"/>
	<path d="M302.762,55.165c0.039-0.02,0.099-0.043,0.179-0.069c0.079-0.026,0.135-0.046,0.168-0.06
		c0.675-0.277,1.269-0.697,1.781-1.26s0.892-1.207,1.136-1.935c0.014-0.04,0.031-0.1,0.055-0.179s0.038-0.139,0.045-0.179
		c0.033-0.146,0.053-0.222,0.06-0.229c0.079-0.158,0.205-0.237,0.377-0.237c0.079,0,0.139,0.02,0.179,0.059
		c0.092,0.066,0.105,0.232,0.039,0.496c-0.139,0.523-0.36,1.025-0.664,1.509c-0.431,0.681-0.981,1.262-1.652,1.741
		s-1.394,0.798-2.168,0.957l0.03-0.169l-0.367,0.169l0.992-4.683h0.675l-0.367,1.736l-0.298,1.418L302.762,55.165z"/>
</g>
<g>
	<path d="M311.158,42.454h6.42c-0.095,0.435-0.155,0.681-0.184,0.737c-0.359,0.02-1.25,0.025-2.672,0.021
		c-1.422-0.005-2.332-0.008-2.729-0.008l-0.808,3.785h4.818c-0.065,0.453-0.123,0.694-0.17,0.723
		c-0.019,0.019-0.108,0.028-0.27,0.028h-4.224c-0.17,0-0.265,0.009-0.283,0.028c-0.019,0.01-0.035,0.033-0.05,0.07
		c-0.014,0.038-0.023,0.078-0.028,0.121c-0.005,0.042-0.012,0.073-0.021,0.092l-0.171,0.822c-0.283,1.304-0.505,2.353-0.666,3.146
		c-0.028,0.132-0.052,0.208-0.07,0.227c-0.02,0.019-0.109,0.028-0.27,0.028h-0.709L311.158,42.454z"/>
</g>
<g>
	<path d="M319.385,46.166c0,0.007-0.029,0.153-0.089,0.441s-0.123,0.58-0.188,0.878c-0.066,0.298-0.104,0.46-0.109,0.486
		c-0.04,0.105-0.119,0.182-0.238,0.229c-0.119,0.046-0.229,0.036-0.327-0.03c-0.086-0.066-0.106-0.205-0.06-0.417
		c0.033-0.152,0.146-0.685,0.342-1.597c0.195-0.913,0.382-1.788,0.561-2.624c0.179-0.837,0.274-1.285,0.288-1.345
		c0.033-0.159,0.06-0.258,0.079-0.298c0.079-0.178,0.222-0.251,0.427-0.218c0.146,0.02,0.218,0.103,0.218,0.248
		c0,0.02-0.031,0.181-0.094,0.481s-0.134,0.638-0.213,1.011c-0.08,0.374-0.133,0.624-0.159,0.75
		c-0.093,0.43-0.139,0.707-0.139,0.833c0,0.437,0.148,0.731,0.446,0.883c0.298,0.152,0.602,0.149,0.913-0.01
		c0.198-0.105,0.37-0.258,0.516-0.456s0.268-0.441,0.367-0.729c0.099-0.288,0.177-0.546,0.233-0.773
		c0.056-0.229,0.117-0.511,0.183-0.849c0.007-0.046,0.014-0.084,0.021-0.114c0.006-0.03,0.013-0.061,0.02-0.094
		c0.014-0.066,0.035-0.162,0.064-0.288c0.03-0.125,0.052-0.222,0.064-0.288c0.033-0.166,0.06-0.271,0.079-0.317
		c0.093-0.146,0.219-0.218,0.377-0.218c0.166,0.013,0.255,0.096,0.269,0.248c0,0.026-0.048,0.271-0.145,0.734
		c-0.096,0.462-0.198,0.95-0.307,1.458c-0.109,0.51-0.168,0.78-0.174,0.813c-0.033,0.146-0.057,0.255-0.069,0.327
		c-0.014,0.073-0.011,0.169,0.01,0.288c0.02,0.119,0.072,0.212,0.158,0.277c0.106,0.093,0.209,0.116,0.308,0.07
		c0.133-0.08,0.252-0.351,0.357-0.814c0.007-0.013,0.015-0.041,0.024-0.084c0.011-0.043,0.019-0.083,0.025-0.119
		c0.006-0.036,0.013-0.058,0.02-0.064c0.014-0.013,0.073-0.02,0.179-0.02h0.486c-0.007,0.053-0.043,0.202-0.109,0.446
		c-0.186,0.522-0.417,0.877-0.694,1.062c-0.258,0.165-0.541,0.188-0.849,0.069s-0.497-0.33-0.57-0.635
		c-0.218,0.231-0.437,0.403-0.654,0.516c-0.437,0.219-0.887,0.255-1.35,0.109c-0.146-0.046-0.255-0.096-0.327-0.148
		c-0.021-0.007-0.049-0.023-0.085-0.05S319.404,46.18,319.385,46.166z"/>
	<path d="M325.784,45.809c0.039-0.02,0.099-0.043,0.179-0.069c0.079-0.026,0.135-0.046,0.168-0.06
		c0.675-0.277,1.269-0.697,1.781-1.26s0.892-1.207,1.136-1.935c0.014-0.04,0.031-0.1,0.055-0.179
		c0.023-0.08,0.038-0.139,0.045-0.179c0.033-0.146,0.053-0.222,0.06-0.228c0.079-0.159,0.205-0.238,0.377-0.238
		c0.079,0,0.139,0.02,0.179,0.06c0.092,0.066,0.105,0.231,0.039,0.496c-0.139,0.522-0.36,1.025-0.664,1.508
		c-0.431,0.681-0.981,1.262-1.652,1.741s-1.394,0.798-2.168,0.957l0.03-0.169l-0.367,0.169l0.992-4.683h0.675l-0.367,1.736
		l-0.298,1.418L325.784,45.809z"/>
</g>
<g>
	<path d="M317.636,51.98c0-0.014,0.02-0.148,0.06-0.407c0-0.085,0.01-0.142,0.03-0.168c0.046-0.06,0.264-0.149,0.654-0.269
		c0.238-0.079,0.525-0.129,0.863-0.148c0.482-0.026,0.85,0.05,1.102,0.229c0.053,0.039,0.125,0.105,0.218,0.198
		c0.219,0.251,0.317,0.568,0.298,0.952c-0.014,0.126-0.128,0.691-0.343,1.696c-0.215,1.006-0.332,1.542-0.352,1.607
		c0,0.073-0.054,0.109-0.159,0.109c-0.02,0-0.033,0-0.039,0h-0.477l0.148-0.694c-0.403,0.403-0.926,0.648-1.567,0.734
		c-0.357,0.053-0.632,0.046-0.823-0.021c-0.238-0.086-0.398-0.27-0.481-0.551c-0.083-0.28-0.078-0.533,0.015-0.759
		c0.152-0.456,0.543-0.795,1.171-1.017c0.629-0.222,1.323-0.332,2.084-0.332c0.006-0.054,0.036-0.199,0.089-0.437
		c0.053-0.238,0.066-0.424,0.04-0.556c-0.021-0.172-0.086-0.319-0.198-0.441c-0.113-0.123-0.248-0.197-0.407-0.224
		c-0.51-0.086-1.081,0.043-1.717,0.387C317.752,51.925,317.682,51.961,317.636,51.98z M319.968,53.459
		c-0.51,0-0.977,0.066-1.399,0.198c-0.298,0.079-0.546,0.195-0.744,0.347c-0.158,0.119-0.282,0.264-0.372,0.432
		c-0.089,0.169-0.098,0.336-0.024,0.501c0.099,0.212,0.308,0.338,0.625,0.378c0.277,0.039,0.565,0.011,0.863-0.085
		c0.297-0.096,0.516-0.236,0.654-0.422c0.093-0.112,0.172-0.311,0.238-0.595C319.881,53.843,319.935,53.591,319.968,53.459z"/>
</g>
</svg>
