<?xml version="1.0" encoding="iso-8859-1"?>
<!-- Generator: Adobe Illustrator 16.0.0, SVG Export Plug-In . SVG Version: 6.00 Build 0)  -->
<!DOCTYPE svg PUBLIC "-//W3C//DTD SVG 1.1//EN" "http://www.w3.org/Graphics/SVG/1.1/DTD/svg11.dtd">
<svg version="1.1" id="Layer_1" xmlns="http://www.w3.org/2000/svg" xmlns:xlink="http://www.w3.org/1999/xlink" x="0px" y="0px"
	 width="566.929px" height="85.039px" viewBox="0 0 566.929 85.039" style="enable-background:new 0 0 566.929 85.039;"
	 xml:space="preserve">
<g>
	<path d="M27.458,46.831c0.369-0.047,0.6-0.065,0.694-0.057c0.151,0.01,0.305,0.023,0.46,0.043c0.156,0.019,0.329,0.05,0.518,0.092
		c0.189,0.043,0.331,0.076,0.425,0.1c0.094,0.023,0.26,0.068,0.496,0.135c0.236,0.065,0.382,0.108,0.439,0.127
		c0.567,0.151,1.034,0.251,1.403,0.298c0.038,0,0.097,0.002,0.177,0.007c0.08,0.005,0.139,0.007,0.177,0.007
		c0.208,0,0.378-0.179,0.51-0.538c0.019-0.028,0.038-0.071,0.057-0.128c0.019-0.057,0.033-0.099,0.042-0.127
		c0.151-0.256,0.444-0.463,0.879-0.624c0.17-0.065,0.292-0.09,0.368-0.07c0.076,0.019,0.095,0.09,0.057,0.212
		c-0.038,0.161-0.113,0.331-0.227,0.511c-0.321,0.51-0.855,0.954-1.602,1.332c-0.558,0.265-1.172,0.354-1.842,0.27
		c-0.331-0.038-0.792-0.14-1.382-0.305c-0.59-0.165-0.971-0.268-1.141-0.305c-0.416-0.104-0.771-0.156-1.063-0.156
		c-0.047,0-0.092,0.015-0.135,0.043s-0.09,0.07-0.142,0.127c-0.052,0.057-0.087,0.095-0.106,0.113
		c-0.312,0.293-0.657,0.468-1.035,0.524c-0.17,0-0.194-0.085-0.071-0.255c0.104-0.17,0.227-0.316,0.369-0.439
		c0.435-0.406,0.822-1.072,1.162-1.998c0.104-0.312,0.274-0.931,0.51-1.856c0.274-0.993,0.562-1.843,0.864-2.552
		c0.303-0.708,0.69-1.304,1.163-1.786c0.321-0.34,0.725-0.643,1.211-0.907c0.487-0.264,0.971-0.425,1.453-0.482
		c0.416-0.047,0.746,0,0.992,0.142c0.425,0.255,0.6,0.714,0.524,1.375c-0.019,0.208-0.057,0.359-0.114,0.454
		c-0.057,0.095-0.156,0.194-0.297,0.297c-0.34,0.255-0.628,0.383-0.865,0.383c-0.123,0-0.166-0.085-0.127-0.255
		c0.123-0.728-0.042-1.209-0.496-1.446c-0.255-0.123-0.539-0.137-0.851-0.042c-0.151,0.038-0.316,0.18-0.496,0.425
		c-0.614,0.775-1.167,2.117-1.658,4.025c-0.019,0.066-0.054,0.196-0.106,0.39c-0.052,0.194-0.085,0.317-0.1,0.369
		s-0.04,0.153-0.078,0.305c-0.038,0.151-0.069,0.257-0.092,0.318s-0.057,0.154-0.099,0.276c-0.042,0.123-0.081,0.223-0.113,0.298
		c-0.033,0.076-0.076,0.168-0.128,0.276c-0.052,0.108-0.106,0.22-0.163,0.333c-0.038,0.076-0.081,0.153-0.128,0.234
		c-0.047,0.08-0.102,0.167-0.163,0.262C27.531,46.699,27.487,46.774,27.458,46.831z"/>
</g>
<g>
	<path d="M39.911,50.176c-0.536,0.238-1.128,0.308-1.776,0.209c-0.615-0.106-1.166-0.376-1.652-0.809
		c-0.486-0.434-0.829-0.954-1.027-1.562c-0.218-0.668-0.242-1.361-0.069-2.079c0.172-0.718,0.519-1.317,1.042-1.801
		c0.384-0.356,0.852-0.616,1.404-0.778s1.123-0.16,1.711,0.005c0.661,0.186,1.227,0.562,1.697,1.131
		c0.502,0.615,0.773,1.34,0.813,2.173c0.04,0.833-0.159,1.577-0.595,2.232c-0.113,0.172-0.268,0.36-0.466,0.565
		c-0.199,0.205-0.384,0.351-0.556,0.437l1.329,1.479c-0.364,0-0.631-0.004-0.803-0.01c-0.073-0.066-0.175-0.176-0.308-0.328
		l-0.457-0.525L39.911,50.176z M40.049,49.481c0.106-0.053,0.235-0.148,0.387-0.287c0.331-0.291,0.577-0.668,0.739-1.132
		c0.162-0.463,0.233-0.934,0.213-1.413c-0.02-0.479-0.144-0.946-0.372-1.399c-0.228-0.453-0.547-0.809-0.957-1.066
		c-0.443-0.265-0.923-0.396-1.439-0.396c-0.476,0-0.962,0.158-1.458,0.476c-0.364,0.265-0.652,0.61-0.863,1.037
		c-0.212,0.427-0.326,0.863-0.342,1.31s0.038,0.892,0.164,1.335c0.159,0.522,0.447,0.964,0.863,1.324s0.919,0.561,1.508,0.6
		c0.318,0.033,0.658-0.01,1.022-0.129c-0.013-0.013-0.417-0.476-1.21-1.389c0.331,0,0.572,0.004,0.725,0.01
		c0.072,0.066,0.175,0.176,0.307,0.328l0.466,0.516L40.049,49.481z"/>
	<path d="M43.69,43.41h4.762v0.556h-4.068v2.46h3.77v0.556h-3.77v2.709h4.217v0.585H43.69V43.41z"/>
	<path d="M50.089,43.39h1.975c0.615,0,0.985,0.007,1.111,0.021c0.734,0.093,1.373,0.42,1.915,0.982
		c0.529,0.568,0.843,1.243,0.942,2.023s-0.033,1.498-0.397,2.153c-0.231,0.437-0.562,0.809-0.992,1.116
		c-0.43,0.307-0.916,0.497-1.458,0.57c-0.119,0.013-0.486,0.02-1.102,0.02h-1.994V43.39z M50.764,49.72h1.389h0.318
		c0.205,0.007,0.307,0.007,0.307,0c0.768-0.053,1.379-0.308,1.835-0.764c0.536-0.536,0.791-1.267,0.764-2.192
		c-0.013-0.477-0.114-0.92-0.303-1.33s-0.461-0.74-0.818-0.992c-0.364-0.258-0.781-0.416-1.25-0.476
		c-0.132-0.014-0.437-0.021-0.913-0.021h-1.329V49.72z"/>
</g>
<g>
	<path d="M61.931,45.641c0.057-0.094,0.198-0.142,0.425-0.142h8.093h0.595c0.123,0.02,0.208,0.083,0.255,0.191
		s0.023,0.205-0.071,0.29c-0.057,0.058-0.156,0.086-0.297,0.086h-8.575c-0.142,0-0.227-0.005-0.255-0.015
		c-0.085-0.019-0.146-0.073-0.184-0.163C61.878,45.799,61.883,45.717,61.931,45.641z M62.101,42.764
		c0.019-0.009,0.099-0.014,0.241-0.014h8.122l0.297-0.014c0.199,0,0.298,0.005,0.298,0.014c0.113,0.019,0.191,0.085,0.234,0.198
		c0.042,0.113,0.021,0.208-0.064,0.284c-0.057,0.057-0.161,0.085-0.312,0.085h-8.519c-0.151,0-0.241-0.005-0.269-0.015
		c-0.151-0.028-0.229-0.115-0.234-0.262S61.959,42.801,62.101,42.764z"/>
</g>
<g>
	<path d="M77.26,54.447c-0.258,0-0.387,0-0.387-0.157c0-0.015,0-0.086,0.144-0.258l7.43-8.707l-7.587-10.384
		c0-0.158,0-0.43,0.014-0.473c0.043-0.086,0.058-0.101,0.387-0.101h16.954l1.735,4.03h-0.358c-0.488-1.162-1.463-1.807-1.822-2.037
		c-1.133-0.717-2.381-0.961-3.155-1.076c-0.129-0.029-1.435-0.229-3.356-0.229h-7.86l6.684,9.137
		c0.101,0.144,0.101,0.187,0.101,0.215c0,0.072-0.029,0.115-0.129,0.229l-7.3,8.563h8.649c2.754,0,4.159-0.373,4.46-0.445
		c1.649-0.43,3.17-1.405,3.729-2.897h0.358l-1.735,4.59H77.26z"/>
</g>
<g>
	<path d="M85.921,60.773c0.145-0.238,0.344-0.451,0.595-0.64c0.251-0.188,0.512-0.31,0.784-0.362
		c0.152-0.033,0.337-0.043,0.556-0.029c0.43,0.026,0.724,0.179,0.883,0.456c0.132,0.245,0.142,0.642,0.03,1.19l-0.446,2.063
		c-0.093,0.49-0.159,0.801-0.199,0.933c0,0.073-0.053,0.109-0.159,0.109c-0.02,0-0.033,0-0.04,0h-0.496
		c0.357-1.693,0.565-2.669,0.625-2.927c0.006-0.02,0.018-0.069,0.035-0.148c0.017-0.08,0.028-0.136,0.035-0.169
		c0.007-0.033,0.013-0.084,0.02-0.154c0.006-0.069,0.008-0.125,0.005-0.168s-0.01-0.093-0.02-0.149
		c-0.01-0.056-0.028-0.107-0.055-0.153c-0.099-0.186-0.288-0.298-0.565-0.338c-0.437-0.072-0.814,0.027-1.131,0.298
		c-0.251,0.219-0.446,0.526-0.585,0.923c-0.014,0.047-0.063,0.27-0.149,0.67s-0.179,0.825-0.278,1.274
		c-0.099,0.45-0.152,0.698-0.159,0.744c-0.014,0.079-0.027,0.146-0.04,0.198c0,0.027-0.003,0.047-0.01,0.06
		c-0.007,0.014-0.02,0.023-0.04,0.03c-0.02,0.007-0.037,0.01-0.05,0.01s-0.035,0-0.064,0s-0.048,0-0.055,0h-0.476l0.992-4.683h0.645
		l-0.199,0.962H85.921z"/>
</g>
<g>
	<path d="M103.325,36.057h5.357v0.751h-5.357V36.057z"/>
</g>
<g>
	<path d="M105.645,38.313h0.907l-1.956,9.241c0.567-0.009,1.12-0.269,1.658-0.779c0.548-0.51,0.959-1.152,1.233-1.928
		c0.094-0.264,0.189-0.653,0.283-1.169c0.094-0.515,0.128-0.933,0.099-1.254c-0.009-0.057-0.031-0.142-0.063-0.255
		c-0.033-0.113-0.052-0.196-0.057-0.248c-0.005-0.052,0.012-0.135,0.049-0.248c0.019-0.066,0.068-0.13,0.149-0.191
		c0.08-0.062,0.158-0.102,0.234-0.121c0.028-0.009,0.076-0.014,0.142-0.014c0.255,0,0.406,0.241,0.454,0.723
		c0.094,0.652-0.009,1.517-0.312,2.594c-0.236,0.793-0.673,1.54-1.311,2.239c-0.638,0.699-1.368,1.134-2.19,1.304
		c-0.113,0.028-0.231,0.043-0.354,0.043c-0.009,0-0.033,0.004-0.071,0.014s-0.066,0.019-0.085,0.028
		c-0.019,0.019-0.055,0.151-0.106,0.397c-0.052,0.245-0.106,0.512-0.163,0.801c-0.057,0.288-0.09,0.446-0.1,0.475
		c-0.076,0.273-0.123,0.496-0.142,0.666h-0.907c0-0.038,0.036-0.225,0.106-0.56c0.071-0.336,0.146-0.69,0.227-1.063
		c0.081-0.373,0.121-0.564,0.121-0.574c0.047-0.151,0.023-0.227-0.071-0.227c-0.416-0.085-0.749-0.18-0.999-0.283
		c-0.25-0.104-0.484-0.26-0.702-0.468c-0.34-0.359-0.52-0.836-0.539-1.432c0-0.435,0.231-1.332,0.694-2.693
		c0.104-0.292,0.156-0.538,0.156-0.736c0-0.18-0.052-0.321-0.156-0.425c-0.123-0.094-0.253-0.13-0.39-0.106
		c-0.137,0.024-0.262,0.083-0.375,0.177c-0.312,0.283-0.529,0.77-0.652,1.46H99.55c0.019-0.133,0.075-0.331,0.17-0.596
		c0.293-0.746,0.713-1.266,1.261-1.559c0.236-0.142,0.515-0.206,0.836-0.191s0.581,0.12,0.78,0.319
		c0.094,0.113,0.16,0.203,0.198,0.269c0.085,0.161,0.13,0.338,0.135,0.532c0.004,0.194-0.002,0.333-0.021,0.418
		s-0.066,0.255-0.142,0.51l-0.213,0.609l-0.17,0.567c-0.104,0.34-0.175,0.586-0.212,0.736c-0.038,0.151-0.052,0.369-0.042,0.652
		c0.009,0.283,0.075,0.524,0.198,0.723c0.284,0.454,0.742,0.719,1.375,0.794L105.645,38.313z"/>
</g>
<g>
	<path d="M111.362,46.555c0.145-0.238,0.344-0.451,0.595-0.64c0.251-0.188,0.512-0.31,0.784-0.362
		c0.152-0.033,0.337-0.043,0.556-0.029c0.43,0.026,0.724,0.179,0.883,0.456c0.132,0.245,0.142,0.642,0.03,1.19l-0.446,2.063
		c-0.093,0.49-0.159,0.801-0.199,0.933c0,0.073-0.053,0.109-0.159,0.109c-0.02,0-0.033,0-0.04,0h-0.496
		c0.357-1.693,0.565-2.669,0.625-2.927c0.006-0.02,0.018-0.069,0.035-0.148c0.017-0.08,0.028-0.136,0.035-0.169
		c0.007-0.033,0.013-0.084,0.02-0.154c0.006-0.069,0.008-0.125,0.005-0.168s-0.01-0.093-0.02-0.149
		c-0.01-0.056-0.028-0.107-0.055-0.153c-0.099-0.186-0.288-0.298-0.565-0.338c-0.437-0.072-0.814,0.027-1.131,0.298
		c-0.251,0.219-0.446,0.526-0.585,0.923c-0.014,0.047-0.063,0.27-0.149,0.67s-0.179,0.825-0.278,1.274
		c-0.099,0.45-0.152,0.698-0.159,0.744c-0.014,0.079-0.027,0.146-0.04,0.198c0,0.027-0.003,0.047-0.01,0.06
		c-0.007,0.014-0.02,0.023-0.04,0.03c-0.02,0.007-0.037,0.01-0.05,0.01s-0.035,0-0.064,0s-0.048,0-0.055,0h-0.476l0.992-4.683h0.645
		l-0.199,0.962H111.362z"/>
</g>
<g>
	<path d="M122.42,51.296h-0.468c-0.132,0-0.212-0.005-0.241-0.015c-0.113-0.057-0.321-0.236-0.624-0.538
		c-0.548-0.548-0.992-1.162-1.333-1.843c-0.728-1.455-1.054-3.118-0.978-4.988c0.057-1.2,0.281-2.299,0.673-3.296
		c0.392-0.997,0.928-1.835,1.609-2.516c0.321-0.321,0.539-0.51,0.652-0.567c0.028-0.009,0.108-0.014,0.241-0.014h0.468
		c-0.038,0.047-0.165,0.166-0.382,0.354c-0.444,0.378-0.889,0.982-1.333,1.814c-0.614,1.181-0.955,2.589-1.021,4.224
		c-0.057,1.332,0.092,2.589,0.447,3.77c0.354,1.181,0.886,2.159,1.594,2.934c0.132,0.151,0.236,0.26,0.312,0.326
		C122.255,51.131,122.383,51.248,122.42,51.296z"/>
</g>
<g>
	<path d="M125.812,41.459h0.893l-1.375,6.505l-0.057,0.156c-0.113,0.019-0.406,0.028-0.879,0.028L125.812,41.459z M126.294,39.206
		c0.085-0.463,0.151-0.751,0.198-0.864c0.113-0.019,0.406-0.029,0.879-0.029l-0.185,0.893H126.294z"/>
	<path d="M127.825,44.294c0.057-0.312,0.165-0.623,0.326-0.936c0.387-0.765,0.926-1.336,1.616-1.714
		c0.387-0.217,0.815-0.316,1.282-0.298c0.468,0.019,0.876,0.166,1.226,0.439c0.69,0.539,1.143,1.479,1.361,2.821
		c0.019,0.151,0.038,0.26,0.057,0.325c0.236-0.736,0.628-1.805,1.176-3.203l0.127-0.241c0.123-0.019,0.42-0.028,0.893-0.028
		c-0.009,0.028-0.13,0.31-0.361,0.843c-0.231,0.534-0.484,1.12-0.758,1.758s-0.458,1.079-0.553,1.325
		c-0.227,0.566-0.374,0.959-0.439,1.177c-0.019,0.057-0.028,0.137-0.028,0.24c-0.009,0.057-0.017,0.116-0.021,0.178
		c-0.005,0.062-0.01,0.132-0.014,0.212c-0.005,0.081-0.007,0.14-0.007,0.178c-0.057,0.604-0.175,1.332-0.354,2.183
		c-0.17,0.822-0.411,1.224-0.723,1.204c-0.189-0.009-0.284-0.17-0.284-0.481c0-0.473,0.222-1.507,0.667-3.104
		c0-0.02,0.009-0.06,0.028-0.121c0.019-0.062,0.028-0.106,0.028-0.135c0.038-0.302-0.118-1.157-0.468-2.565
		c-0.104-0.358-0.198-0.646-0.284-0.864c-0.085-0.217-0.22-0.446-0.404-0.688c-0.184-0.241-0.404-0.408-0.659-0.503
		c-0.529-0.189-1.049-0.076-1.559,0.34c-0.491,0.416-0.812,0.968-0.963,1.658H127.825z"/>
</g>
<g>
	<path d="M137.698,42.039c0,0.006-0.03,0.154-0.089,0.441s-0.123,0.58-0.188,0.878c-0.066,0.298-0.103,0.46-0.109,0.486
		c-0.04,0.105-0.119,0.182-0.238,0.229c-0.119,0.046-0.228,0.036-0.328-0.03c-0.086-0.066-0.105-0.205-0.06-0.417
		c0.033-0.152,0.147-0.684,0.342-1.597c0.195-0.913,0.382-1.787,0.561-2.624c0.179-0.836,0.274-1.285,0.288-1.344
		c0.033-0.159,0.06-0.258,0.079-0.298c0.08-0.178,0.222-0.251,0.427-0.218c0.146,0.02,0.218,0.103,0.218,0.248
		c0,0.02-0.031,0.181-0.094,0.481s-0.134,0.638-0.213,1.012c-0.079,0.374-0.132,0.624-0.159,0.749
		c-0.093,0.43-0.139,0.708-0.139,0.833c0,0.437,0.148,0.731,0.446,0.883c0.297,0.152,0.602,0.149,0.913-0.01
		c0.199-0.105,0.371-0.258,0.516-0.456c0.146-0.199,0.268-0.442,0.367-0.729c0.099-0.288,0.177-0.545,0.233-0.774
		c0.056-0.228,0.117-0.511,0.184-0.848c0.006-0.046,0.013-0.084,0.02-0.114c0.006-0.03,0.013-0.061,0.02-0.094
		c0.013-0.066,0.035-0.162,0.064-0.288c0.03-0.125,0.051-0.222,0.064-0.288c0.033-0.166,0.06-0.271,0.08-0.317
		c0.092-0.146,0.218-0.218,0.377-0.218c0.165,0.013,0.254,0.096,0.268,0.248c0,0.026-0.048,0.271-0.144,0.734
		c-0.096,0.463-0.198,0.949-0.308,1.458c-0.109,0.509-0.167,0.78-0.173,0.813c-0.033,0.146-0.057,0.255-0.07,0.328
		s-0.01,0.168,0.01,0.288c0.02,0.119,0.073,0.212,0.159,0.278c0.105,0.093,0.208,0.116,0.308,0.069
		c0.132-0.08,0.251-0.351,0.357-0.813c0.006-0.013,0.015-0.042,0.025-0.084s0.018-0.083,0.025-0.119
		c0.006-0.036,0.013-0.058,0.02-0.064c0.013-0.013,0.073-0.02,0.179-0.02h0.486c-0.007,0.053-0.043,0.202-0.109,0.446
		c-0.185,0.522-0.417,0.876-0.694,1.062c-0.258,0.166-0.541,0.188-0.848,0.069c-0.308-0.119-0.498-0.331-0.571-0.635
		c-0.218,0.231-0.437,0.403-0.655,0.516c-0.437,0.219-0.886,0.255-1.349,0.109c-0.146-0.046-0.255-0.096-0.328-0.149
		c-0.02-0.006-0.048-0.023-0.084-0.049C137.746,42.072,137.718,42.052,137.698,42.039z"/>
</g>
<g>
	<path d="M146.068,39.972c-0.028,0.009-0.052,0.026-0.071,0.049c-0.019,0.024-0.038,0.055-0.057,0.092s-0.038,0.066-0.057,0.085
		c-0.123,0.151-0.284,0.212-0.482,0.184l-0.042-0.014c-0.028-0.009-0.047-0.019-0.057-0.028c-0.161-0.094-0.189-0.292-0.085-0.595
		c0.179-0.557,0.51-0.978,0.992-1.261c0.434-0.255,0.926-0.392,1.474-0.411s1.054,0.081,1.517,0.298
		c0.454,0.217,0.834,0.539,1.141,0.963c0.307,0.425,0.517,0.903,0.631,1.432c0.198,0.851,0.156,1.843-0.128,2.976
		c-0.463,1.806-1.2,3.104-2.211,3.898c-0.747,0.566-1.559,0.812-2.438,0.736c-0.879-0.057-1.573-0.505-2.083-1.347
		c-0.34-0.613-0.411-1.355-0.213-2.225c0.189-0.917,0.624-1.715,1.304-2.396c0.435-0.435,0.855-0.723,1.261-0.864
		c0.558-0.161,1.077-0.182,1.559-0.064s0.888,0.324,1.219,0.617c0.255,0.217,0.458,0.491,0.609,0.822
		c0.019,0.038,0.045,0.104,0.078,0.199s0.059,0.16,0.078,0.198c0.019-0.132,0.038-0.231,0.057-0.298
		c0.009-0.075,0.026-0.182,0.049-0.319c0.024-0.137,0.041-0.238,0.05-0.305c0.132-1.275-0.071-2.216-0.609-2.82
		c-0.274-0.302-0.624-0.529-1.049-0.68c-0.369-0.142-0.785-0.163-1.247-0.064c-0.463,0.099-0.799,0.324-1.006,0.673
		C146.158,39.665,146.097,39.82,146.068,39.972z M147.755,42.126c-0.586-0.028-1.094,0.099-1.524,0.382
		c-0.43,0.284-0.768,0.657-1.013,1.12c-0.151,0.284-0.293,0.737-0.425,1.361c-0.113,0.633-0.127,1.105-0.042,1.417
		c0.208,0.604,0.543,0.978,1.006,1.119c0.444,0.171,0.982,0.18,1.616,0.028c0.472-0.15,0.874-0.396,1.205-0.736
		c0.217-0.246,0.43-0.564,0.638-0.957c0.208-0.392,0.354-0.772,0.439-1.141c0.113-0.378,0.116-0.777,0.007-1.198
		c-0.109-0.42-0.324-0.753-0.645-0.999C148.676,42.258,148.256,42.126,147.755,42.126z"/>
</g>
<g>
	<path d="M151.92,50.018c0,0.007-0.03,0.153-0.089,0.441s-0.123,0.58-0.188,0.878c-0.066,0.298-0.103,0.46-0.109,0.486
		c-0.04,0.105-0.119,0.182-0.238,0.229c-0.119,0.046-0.228,0.036-0.328-0.03c-0.086-0.066-0.105-0.205-0.06-0.417
		c0.033-0.152,0.147-0.685,0.342-1.597c0.195-0.913,0.382-1.788,0.561-2.624c0.179-0.837,0.274-1.285,0.288-1.345
		c0.033-0.159,0.06-0.258,0.079-0.298c0.08-0.179,0.222-0.251,0.427-0.218c0.146,0.02,0.218,0.103,0.218,0.248
		c0,0.02-0.031,0.18-0.094,0.48c-0.063,0.302-0.134,0.639-0.213,1.013c-0.079,0.373-0.132,0.623-0.159,0.749
		c-0.093,0.43-0.139,0.707-0.139,0.833c0,0.437,0.148,0.731,0.446,0.883c0.297,0.152,0.602,0.149,0.913-0.01
		c0.199-0.105,0.371-0.258,0.516-0.456s0.268-0.441,0.367-0.729c0.099-0.288,0.177-0.546,0.233-0.773
		c0.056-0.229,0.117-0.512,0.184-0.849c0.006-0.046,0.013-0.084,0.02-0.114c0.006-0.029,0.013-0.061,0.02-0.094
		c0.013-0.066,0.035-0.162,0.064-0.288s0.051-0.222,0.064-0.288c0.033-0.165,0.06-0.271,0.08-0.317
		c0.092-0.146,0.218-0.218,0.377-0.218c0.165,0.013,0.254,0.096,0.268,0.248c0,0.026-0.048,0.271-0.144,0.734
		c-0.096,0.463-0.198,0.949-0.308,1.458c-0.109,0.51-0.167,0.78-0.173,0.813c-0.033,0.146-0.057,0.255-0.07,0.327
		c-0.013,0.073-0.01,0.169,0.01,0.288c0.02,0.119,0.073,0.212,0.159,0.277c0.105,0.093,0.208,0.116,0.308,0.07
		c0.132-0.08,0.251-0.351,0.357-0.814c0.006-0.013,0.015-0.041,0.025-0.084s0.018-0.083,0.025-0.119
		c0.006-0.036,0.013-0.058,0.02-0.064c0.013-0.013,0.073-0.02,0.179-0.02h0.486c-0.007,0.053-0.043,0.202-0.109,0.446
		c-0.185,0.522-0.417,0.877-0.694,1.062c-0.258,0.165-0.541,0.188-0.848,0.069c-0.308-0.119-0.498-0.33-0.571-0.635
		c-0.218,0.231-0.437,0.403-0.655,0.516c-0.437,0.219-0.886,0.255-1.349,0.109c-0.146-0.046-0.255-0.096-0.328-0.148
		c-0.02-0.007-0.048-0.023-0.084-0.05C151.968,50.051,151.94,50.031,151.92,50.018z"/>
</g>
<g>
	<path d="M161.994,44.139c0.019-0.01,0.094-0.015,0.227-0.015h7.441h0.539c0.113,0.02,0.187,0.085,0.22,0.198
		c0.033,0.114,0.012,0.208-0.064,0.284c-0.028,0.028-0.071,0.052-0.127,0.07c-0.057,0.02-0.106,0.028-0.149,0.028
		s-0.099-0.002-0.17-0.007s-0.116-0.007-0.135-0.007h-7.54c-0.142,0-0.222-0.005-0.241-0.015c-0.142-0.037-0.21-0.125-0.206-0.262
		C161.793,44.278,161.861,44.186,161.994,44.139z"/>
</g>
<g>
	<path d="M177.938,42.849c0.057-0.123,0.198-0.307,0.425-0.553c0.642-0.708,1.394-1.021,2.253-0.936
		c0.491,0.038,0.855,0.18,1.091,0.425c0.161,0.161,0.265,0.392,0.312,0.694c0,0.028,0.002,0.087,0.007,0.177
		s0.012,0.158,0.021,0.206c0.094-0.161,0.236-0.345,0.425-0.553c0.481-0.529,1.034-0.841,1.658-0.936
		c0.416-0.057,0.796-0.03,1.141,0.078c0.345,0.109,0.588,0.3,0.73,0.574c0.18,0.34,0.189,0.898,0.028,1.673l-0.638,2.962
		c-0.132,0.699-0.227,1.144-0.284,1.332c0,0.104-0.071,0.156-0.212,0.156c-0.028,0-0.047,0-0.057,0h-0.666l0.893-4.195
		c0.009-0.047,0.028-0.135,0.057-0.262c0.028-0.128,0.047-0.225,0.057-0.291c0.009-0.066,0.019-0.153,0.028-0.263
		c0.009-0.108,0.004-0.205-0.014-0.29c-0.019-0.085-0.047-0.17-0.085-0.255c-0.132-0.265-0.392-0.43-0.779-0.496
		c-0.614-0.132-1.127-0.014-1.538,0.354c-0.411,0.369-0.716,0.846-0.915,1.431c-0.038,0.123-0.111,0.438-0.22,0.943
		c-0.108,0.505-0.224,1.062-0.347,1.672c-0.123,0.609-0.208,1.014-0.255,1.212c-0.01,0.038-0.021,0.09-0.036,0.156
		s-0.026,0.113-0.035,0.142c0,0.038-0.005,0.066-0.014,0.085c-0.01,0.019-0.028,0.033-0.057,0.042
		c-0.028,0.01-0.05,0.015-0.064,0.015s-0.042,0-0.085,0s-0.069,0-0.078,0h-0.638l0.893-4.195c0.009-0.047,0.028-0.135,0.057-0.262
		c0.028-0.128,0.047-0.225,0.057-0.291c0.009-0.066,0.019-0.153,0.028-0.263c0.009-0.108,0.004-0.205-0.014-0.29
		c-0.019-0.085-0.047-0.17-0.085-0.255c-0.133-0.265-0.393-0.43-0.78-0.496c-0.614-0.132-1.126-0.014-1.538,0.354
		c-0.411,0.369-0.716,0.846-0.914,1.431c-0.038,0.123-0.111,0.438-0.22,0.943c-0.109,0.505-0.225,1.062-0.347,1.672
		c-0.123,0.609-0.208,1.014-0.255,1.212c-0.009,0.028-0.021,0.076-0.036,0.142c-0.014,0.066-0.026,0.118-0.035,0.156
		c0,0.038-0.005,0.066-0.014,0.085c-0.01,0.019-0.028,0.033-0.057,0.042c-0.028,0.01-0.05,0.015-0.064,0.015s-0.042,0-0.085,0
		s-0.069,0-0.078,0h-0.638l1.417-6.69h0.864l-0.283,1.389H177.938z"/>
</g>
<g>
	<path d="M188.497,46.555c0.145-0.238,0.344-0.451,0.595-0.64c0.251-0.188,0.512-0.31,0.784-0.362
		c0.152-0.033,0.337-0.043,0.556-0.029c0.43,0.026,0.724,0.179,0.883,0.456c0.132,0.245,0.142,0.642,0.03,1.19l-0.446,2.063
		c-0.093,0.49-0.159,0.801-0.199,0.933c0,0.073-0.053,0.109-0.159,0.109c-0.02,0-0.033,0-0.04,0h-0.496
		c0.357-1.693,0.565-2.669,0.625-2.927c0.006-0.02,0.018-0.069,0.035-0.148c0.017-0.08,0.028-0.136,0.035-0.169
		c0.007-0.033,0.013-0.084,0.02-0.154c0.006-0.069,0.008-0.125,0.005-0.168s-0.01-0.093-0.02-0.149
		c-0.01-0.056-0.028-0.107-0.055-0.153c-0.099-0.186-0.288-0.298-0.565-0.338c-0.437-0.072-0.814,0.027-1.131,0.298
		c-0.251,0.219-0.446,0.526-0.585,0.923c-0.014,0.047-0.063,0.27-0.149,0.67s-0.179,0.825-0.278,1.274
		c-0.099,0.45-0.152,0.698-0.159,0.744c-0.014,0.079-0.027,0.146-0.04,0.198c0,0.027-0.003,0.047-0.01,0.06
		c-0.007,0.014-0.02,0.023-0.04,0.03c-0.02,0.007-0.037,0.01-0.05,0.01s-0.035,0-0.064,0s-0.048,0-0.055,0h-0.476l0.992-4.683h0.645
		l-0.199,0.962H188.497z"/>
</g>
<g>
	<path d="M193.069,37.52h0.467c0.142,0,0.222,0.005,0.241,0.014c0.113,0.057,0.321,0.236,0.624,0.539
		c0.548,0.548,0.992,1.162,1.333,1.842c0.727,1.456,1.053,3.118,0.978,4.989c-0.057,1.2-0.281,2.299-0.673,3.296
		c-0.393,0.996-0.929,1.835-1.609,2.516c-0.321,0.321-0.539,0.51-0.652,0.566c-0.028,0.01-0.109,0.015-0.241,0.015h-0.467
		c0.038-0.048,0.165-0.165,0.382-0.354c0.076-0.066,0.18-0.175,0.312-0.326c0.416-0.463,0.76-0.973,1.035-1.53
		c0.746-1.475,1.082-3.198,1.006-5.173c-0.095-2.362-0.775-4.267-2.041-5.712c-0.132-0.151-0.236-0.26-0.312-0.326
		C193.234,37.685,193.107,37.567,193.069,37.52z"/>
</g>
<g>
	<path d="M206.902,38.313h0.907l-1.956,9.241c0.567-0.009,1.12-0.269,1.658-0.779c0.548-0.51,0.959-1.152,1.233-1.928
		c0.094-0.264,0.189-0.653,0.283-1.169c0.094-0.515,0.128-0.933,0.099-1.254c-0.009-0.057-0.031-0.142-0.063-0.255
		c-0.033-0.113-0.052-0.196-0.057-0.248c-0.005-0.052,0.012-0.135,0.049-0.248c0.019-0.066,0.068-0.13,0.149-0.191
		c0.08-0.062,0.158-0.102,0.234-0.121c0.028-0.009,0.076-0.014,0.142-0.014c0.255,0,0.406,0.241,0.454,0.723
		c0.094,0.652-0.009,1.517-0.312,2.594c-0.236,0.793-0.673,1.54-1.311,2.239c-0.638,0.699-1.368,1.134-2.19,1.304
		c-0.113,0.028-0.231,0.043-0.354,0.043c-0.009,0-0.033,0.004-0.071,0.014s-0.066,0.019-0.085,0.028
		c-0.019,0.019-0.055,0.151-0.106,0.397c-0.052,0.245-0.106,0.512-0.163,0.801c-0.057,0.288-0.09,0.446-0.1,0.475
		c-0.076,0.273-0.123,0.496-0.142,0.666h-0.907c0-0.038,0.036-0.225,0.106-0.56c0.071-0.336,0.146-0.69,0.227-1.063
		c0.081-0.373,0.121-0.564,0.121-0.574c0.047-0.151,0.023-0.227-0.071-0.227c-0.416-0.085-0.749-0.18-0.999-0.283
		c-0.25-0.104-0.484-0.26-0.702-0.468c-0.34-0.359-0.52-0.836-0.539-1.432c0-0.435,0.231-1.332,0.694-2.693
		c0.104-0.292,0.156-0.538,0.156-0.736c0-0.18-0.052-0.321-0.156-0.425c-0.123-0.094-0.253-0.13-0.39-0.106
		c-0.137,0.024-0.262,0.083-0.375,0.177c-0.312,0.283-0.529,0.77-0.652,1.46h-0.907c0.019-0.133,0.075-0.331,0.17-0.596
		c0.293-0.746,0.713-1.266,1.261-1.559c0.236-0.142,0.515-0.206,0.836-0.191s0.581,0.12,0.78,0.319
		c0.094,0.113,0.16,0.203,0.198,0.269c0.085,0.161,0.13,0.338,0.135,0.532c0.004,0.194-0.002,0.333-0.021,0.418
		s-0.066,0.255-0.142,0.51l-0.213,0.609l-0.17,0.567c-0.104,0.34-0.175,0.586-0.212,0.736c-0.038,0.151-0.052,0.369-0.042,0.652
		c0.009,0.283,0.075,0.524,0.198,0.723c0.284,0.454,0.742,0.719,1.375,0.794L206.902,38.313z"/>
</g>
<g>
	<path d="M212.619,46.555c0.145-0.238,0.344-0.451,0.595-0.64c0.251-0.188,0.512-0.31,0.784-0.362
		c0.152-0.033,0.337-0.043,0.556-0.029c0.43,0.026,0.724,0.179,0.883,0.456c0.132,0.245,0.142,0.642,0.03,1.19l-0.446,2.063
		c-0.093,0.49-0.159,0.801-0.199,0.933c0,0.073-0.053,0.109-0.159,0.109c-0.02,0-0.033,0-0.04,0h-0.496
		c0.357-1.693,0.565-2.669,0.625-2.927c0.006-0.02,0.018-0.069,0.035-0.148c0.017-0.08,0.028-0.136,0.035-0.169
		c0.007-0.033,0.013-0.084,0.02-0.154c0.006-0.069,0.008-0.125,0.005-0.168s-0.01-0.093-0.02-0.149
		c-0.01-0.056-0.028-0.107-0.055-0.153c-0.099-0.186-0.288-0.298-0.565-0.338c-0.437-0.072-0.814,0.027-1.131,0.298
		c-0.251,0.219-0.446,0.526-0.585,0.923c-0.014,0.047-0.063,0.27-0.149,0.67s-0.179,0.825-0.278,1.274
		c-0.099,0.45-0.152,0.698-0.159,0.744c-0.014,0.079-0.027,0.146-0.04,0.198c0,0.027-0.003,0.047-0.01,0.06
		c-0.007,0.014-0.02,0.023-0.04,0.03c-0.02,0.007-0.037,0.01-0.05,0.01s-0.035,0-0.064,0s-0.048,0-0.055,0h-0.476l0.992-4.683h0.645
		l-0.199,0.962H212.619z"/>
</g>
<g>
	<path d="M220.908,44.139c0.019-0.01,0.094-0.015,0.227-0.015h7.441h0.539c0.113,0.02,0.187,0.085,0.22,0.198
		c0.033,0.114,0.012,0.208-0.064,0.284c-0.028,0.028-0.071,0.052-0.127,0.07c-0.057,0.02-0.106,0.028-0.149,0.028
		s-0.099-0.002-0.17-0.007s-0.116-0.007-0.135-0.007h-7.54c-0.142,0-0.222-0.005-0.241-0.015c-0.142-0.037-0.21-0.125-0.206-0.262
		C220.707,44.278,220.775,44.186,220.908,44.139z"/>
</g>
<g>
	<path d="M236.375,29.761c0.945,0,1.715-0.217,2.31-0.652c0.047-0.028,0.09-0.062,0.127-0.1c0.038-0.038,0.066-0.066,0.085-0.085
		c0.019-0.019,0.042-0.038,0.071-0.057c0.028-0.019,0.063-0.03,0.106-0.035s0.097-0.007,0.163-0.007v8.83h1.857v0.708h-4.635v-0.708
		h1.856v-7.597c-0.633,0.274-1.28,0.411-1.941,0.411V29.761z"/>
</g>
<g>
	<rect x="234.887" y="44.122" width="7.441" height="0.574"/>
</g>
<g>
	<path d="M235.298,55.109v-0.481c0-0.199,0.042-0.354,0.127-0.468l0.17-0.284l0.667-1.021l2.608-4.081
		c0.188-0.303,0.302-0.468,0.34-0.496c0.028-0.02,0.132-0.028,0.312-0.028h0.765v6.108h1.616v0.751h-1.616v2.565h-0.893v-2.565
		H235.298z M239.437,49.058c-0.028,0.066-0.074,0.163-0.135,0.29c-0.062,0.128-0.111,0.225-0.149,0.291
		c-0.198,0.35-0.536,0.905-1.013,1.665c-0.478,0.761-0.912,1.448-1.304,2.062s-0.598,0.945-0.616,0.992h3.217V49.058z"/>
</g>
<g>
	<path d="M246.997,38.327h6.42c-0.095,0.435-0.156,0.681-0.185,0.737c-0.359,0.019-1.25,0.026-2.671,0.021
		c-1.422-0.004-2.332-0.007-2.729-0.007l-0.808,3.784h4.819c-0.066,0.454-0.123,0.695-0.17,0.723
		c-0.019,0.019-0.108,0.028-0.269,0.028h-4.224c-0.17,0-0.265,0.009-0.284,0.028c-0.019,0.01-0.035,0.033-0.049,0.07
		c-0.014,0.038-0.024,0.078-0.028,0.121c-0.005,0.042-0.012,0.073-0.021,0.092l-0.17,0.822c-0.284,1.304-0.506,2.353-0.666,3.146
		c-0.028,0.132-0.052,0.208-0.071,0.227s-0.108,0.028-0.269,0.028h-0.708L246.997,38.327z"/>
</g>
<g>
	<path d="M253.156,50.018c0,0.007-0.03,0.153-0.089,0.441s-0.123,0.58-0.188,0.878c-0.066,0.298-0.103,0.46-0.109,0.486
		c-0.04,0.105-0.119,0.182-0.238,0.229c-0.119,0.046-0.228,0.036-0.328-0.03c-0.086-0.066-0.105-0.205-0.06-0.417
		c0.033-0.152,0.147-0.685,0.342-1.597c0.195-0.913,0.382-1.788,0.561-2.624c0.179-0.837,0.274-1.285,0.288-1.345
		c0.033-0.159,0.06-0.258,0.079-0.298c0.08-0.179,0.222-0.251,0.427-0.218c0.146,0.02,0.218,0.103,0.218,0.248
		c0,0.02-0.031,0.18-0.094,0.48c-0.063,0.302-0.134,0.639-0.213,1.013c-0.079,0.373-0.132,0.623-0.159,0.749
		c-0.093,0.43-0.139,0.707-0.139,0.833c0,0.437,0.148,0.731,0.446,0.883c0.297,0.152,0.602,0.149,0.913-0.01
		c0.199-0.105,0.371-0.258,0.516-0.456s0.268-0.441,0.367-0.729c0.099-0.288,0.177-0.546,0.233-0.773
		c0.056-0.229,0.117-0.512,0.184-0.849c0.006-0.046,0.013-0.084,0.02-0.114c0.006-0.029,0.013-0.061,0.02-0.094
		c0.013-0.066,0.035-0.162,0.064-0.288s0.051-0.222,0.064-0.288c0.033-0.165,0.06-0.271,0.08-0.317
		c0.092-0.146,0.218-0.218,0.377-0.218c0.165,0.013,0.254,0.096,0.268,0.248c0,0.026-0.048,0.271-0.144,0.734
		c-0.096,0.463-0.198,0.949-0.308,1.458c-0.109,0.51-0.167,0.78-0.173,0.813c-0.033,0.146-0.057,0.255-0.07,0.327
		c-0.013,0.073-0.01,0.169,0.01,0.288c0.02,0.119,0.073,0.212,0.159,0.277c0.105,0.093,0.208,0.116,0.308,0.07
		c0.132-0.08,0.251-0.351,0.357-0.814c0.006-0.013,0.015-0.041,0.025-0.084s0.018-0.083,0.025-0.119
		c0.006-0.036,0.013-0.058,0.02-0.064c0.013-0.013,0.073-0.02,0.179-0.02h0.486c-0.007,0.053-0.043,0.202-0.109,0.446
		c-0.185,0.522-0.417,0.877-0.694,1.062c-0.258,0.165-0.541,0.188-0.848,0.069c-0.308-0.119-0.498-0.33-0.571-0.635
		c-0.218,0.231-0.437,0.403-0.655,0.516c-0.437,0.219-0.886,0.255-1.349,0.109c-0.146-0.046-0.255-0.096-0.328-0.148
		c-0.02-0.007-0.048-0.023-0.084-0.05C253.204,50.051,253.176,50.031,253.156,50.018z"/>
	<path d="M259.556,49.66c0.04-0.02,0.099-0.043,0.178-0.069c0.08-0.026,0.136-0.046,0.169-0.06c0.674-0.277,1.268-0.697,1.781-1.26
		s0.891-1.207,1.136-1.935c0.013-0.04,0.032-0.1,0.055-0.179c0.023-0.079,0.038-0.139,0.045-0.179
		c0.033-0.146,0.053-0.222,0.06-0.229c0.079-0.158,0.205-0.237,0.377-0.237c0.079,0,0.139,0.02,0.178,0.059
		c0.093,0.066,0.106,0.232,0.04,0.496c-0.139,0.523-0.361,1.025-0.665,1.509c-0.43,0.681-0.98,1.262-1.652,1.741
		s-1.394,0.798-2.167,0.957l0.03-0.169l-0.367,0.169l0.992-4.683h0.674l-0.367,1.736l-0.298,1.418L259.556,49.66z"/>
</g>
<g>
	<path d="M267.953,38.327h6.42c-0.095,0.435-0.156,0.681-0.185,0.737c-0.359,0.019-1.25,0.026-2.671,0.021
		c-1.422-0.004-2.332-0.007-2.729-0.007l-0.808,3.784h4.819c-0.066,0.454-0.123,0.695-0.17,0.723
		c-0.019,0.019-0.108,0.028-0.269,0.028h-4.224c-0.17,0-0.265,0.009-0.284,0.028c-0.019,0.01-0.035,0.033-0.049,0.07
		c-0.014,0.038-0.024,0.078-0.028,0.121c-0.005,0.042-0.012,0.073-0.021,0.092l-0.17,0.822c-0.284,1.304-0.506,2.353-0.666,3.146
		c-0.028,0.132-0.052,0.208-0.071,0.227s-0.108,0.028-0.269,0.028h-0.708L267.953,38.327z"/>
</g>
<g>
	<path d="M276.179,42.039c0,0.006-0.03,0.154-0.089,0.441s-0.123,0.58-0.188,0.878c-0.066,0.298-0.103,0.46-0.109,0.486
		c-0.04,0.105-0.119,0.182-0.238,0.229c-0.119,0.046-0.228,0.036-0.328-0.03c-0.086-0.066-0.105-0.205-0.06-0.417
		c0.033-0.152,0.147-0.684,0.342-1.597c0.195-0.913,0.382-1.787,0.561-2.624c0.179-0.836,0.274-1.285,0.288-1.344
		c0.033-0.159,0.06-0.258,0.079-0.298c0.08-0.178,0.222-0.251,0.427-0.218c0.146,0.02,0.218,0.103,0.218,0.248
		c0,0.02-0.031,0.181-0.094,0.481s-0.134,0.638-0.213,1.012c-0.079,0.374-0.132,0.624-0.159,0.749
		c-0.093,0.43-0.139,0.708-0.139,0.833c0,0.437,0.148,0.731,0.446,0.883c0.297,0.152,0.602,0.149,0.913-0.01
		c0.199-0.105,0.371-0.258,0.516-0.456c0.146-0.199,0.268-0.442,0.367-0.729c0.099-0.288,0.177-0.545,0.233-0.774
		c0.056-0.228,0.117-0.511,0.184-0.848c0.006-0.046,0.013-0.084,0.02-0.114c0.006-0.03,0.013-0.061,0.02-0.094
		c0.013-0.066,0.035-0.162,0.064-0.288c0.03-0.125,0.051-0.222,0.064-0.288c0.033-0.166,0.06-0.271,0.08-0.317
		c0.092-0.146,0.218-0.218,0.377-0.218c0.165,0.013,0.254,0.096,0.268,0.248c0,0.026-0.048,0.271-0.144,0.734
		c-0.096,0.463-0.198,0.949-0.308,1.458c-0.109,0.509-0.167,0.78-0.173,0.813c-0.033,0.146-0.057,0.255-0.07,0.328
		s-0.01,0.168,0.01,0.288c0.02,0.119,0.073,0.212,0.159,0.278c0.105,0.093,0.208,0.116,0.308,0.069
		c0.132-0.08,0.251-0.351,0.357-0.813c0.006-0.013,0.015-0.042,0.025-0.084s0.018-0.083,0.025-0.119
		c0.006-0.036,0.013-0.058,0.02-0.064c0.013-0.013,0.073-0.02,0.179-0.02h0.486c-0.007,0.053-0.043,0.202-0.109,0.446
		c-0.185,0.522-0.417,0.876-0.694,1.062c-0.258,0.166-0.541,0.188-0.848,0.069c-0.308-0.119-0.498-0.331-0.571-0.635
		c-0.218,0.231-0.437,0.403-0.655,0.516c-0.437,0.219-0.886,0.255-1.349,0.109c-0.146-0.046-0.255-0.096-0.328-0.149
		c-0.02-0.006-0.048-0.023-0.084-0.049C276.227,42.072,276.199,42.052,276.179,42.039z"/>
	<path d="M282.579,41.682c0.04-0.02,0.099-0.043,0.178-0.069c0.08-0.026,0.136-0.046,0.169-0.06c0.674-0.278,1.268-0.698,1.781-1.26
		c0.512-0.562,0.891-1.207,1.135-1.935c0.014-0.04,0.031-0.1,0.055-0.179c0.023-0.08,0.039-0.139,0.045-0.179
		c0.033-0.146,0.053-0.222,0.061-0.228c0.078-0.159,0.205-0.238,0.377-0.238c0.078,0,0.139,0.02,0.178,0.06
		c0.092,0.066,0.105,0.231,0.039,0.496c-0.139,0.522-0.359,1.025-0.664,1.508c-0.43,0.682-0.98,1.262-1.652,1.741
		c-0.67,0.48-1.393,0.799-2.167,0.958l0.03-0.168l-0.367,0.168l0.992-4.683h0.674l-0.367,1.736l-0.297,1.419L282.579,41.682z"/>
</g>
<g>
	<path d="M292.041,44.139c0.02-0.01,0.095-0.015,0.228-0.015h7.44h0.539c0.113,0.02,0.186,0.085,0.219,0.198
		c0.033,0.114,0.013,0.208-0.063,0.284c-0.028,0.028-0.07,0.052-0.127,0.07c-0.057,0.02-0.106,0.028-0.149,0.028
		c-0.042,0-0.099-0.002-0.17-0.007s-0.116-0.007-0.135-0.007h-7.54c-0.142,0-0.222-0.005-0.241-0.015
		c-0.142-0.037-0.21-0.125-0.205-0.262S291.909,44.186,292.041,44.139z"/>
</g>
<g>
	<path d="M306.03,54.447c-0.259,0-0.388,0-0.388-0.157c0-0.015,0-0.086,0.144-0.258l7.43-8.707l-7.587-10.384
		c0-0.158,0-0.43,0.014-0.473c0.043-0.086,0.058-0.101,0.388-0.101h16.953l1.736,4.03h-0.359c-0.487-1.162-1.463-1.807-1.821-2.037
		c-1.133-0.717-2.381-0.961-3.155-1.076c-0.129-0.029-1.435-0.229-3.356-0.229h-7.86l6.685,9.137c0.1,0.144,0.1,0.187,0.1,0.215
		c0,0.072-0.028,0.115-0.129,0.229l-7.301,8.563h8.649c2.754,0,4.159-0.373,4.461-0.445c1.649-0.43,3.17-1.405,3.729-2.897h0.359
		l-1.736,4.59H306.03z"/>
</g>
<g>
	<path d="M314.691,60.773c0.146-0.238,0.344-0.451,0.596-0.64c0.251-0.188,0.513-0.31,0.783-0.362
		c0.152-0.033,0.338-0.043,0.556-0.029c0.431,0.026,0.725,0.179,0.884,0.456c0.132,0.245,0.142,0.642,0.029,1.19l-0.446,2.063
		c-0.093,0.49-0.159,0.801-0.198,0.933c0,0.073-0.054,0.109-0.159,0.109c-0.02,0-0.033,0-0.039,0H316.2
		c0.356-1.693,0.565-2.669,0.625-2.927c0.006-0.02,0.018-0.069,0.034-0.148c0.017-0.08,0.028-0.136,0.035-0.169
		c0.006-0.033,0.013-0.084,0.02-0.154c0.007-0.069,0.008-0.125,0.005-0.168s-0.01-0.093-0.02-0.149
		c-0.01-0.056-0.028-0.107-0.055-0.153c-0.1-0.186-0.288-0.298-0.565-0.338c-0.437-0.072-0.813,0.027-1.131,0.298
		c-0.252,0.219-0.447,0.526-0.586,0.923c-0.013,0.047-0.062,0.27-0.148,0.67s-0.179,0.825-0.278,1.274
		c-0.099,0.45-0.151,0.698-0.158,0.744c-0.014,0.079-0.026,0.146-0.04,0.198c0,0.027-0.003,0.047-0.01,0.06
		c-0.007,0.014-0.02,0.023-0.04,0.03c-0.02,0.007-0.036,0.01-0.049,0.01c-0.014,0-0.035,0-0.064,0c-0.03,0-0.049,0-0.055,0h-0.477
		l0.992-4.683h0.645l-0.198,0.962H314.691z"/>
</g>
<g>
	<path d="M333.396,47.058c-0.643,0.729-1.338,1.13-2.084,1.205c-0.18,0.019-0.354,0.005-0.524-0.042
		c-0.453-0.095-0.819-0.338-1.099-0.73c-0.278-0.392-0.441-0.838-0.488-1.339c-0.066-0.728,0.045-1.448,0.333-2.162
		c0.288-0.713,0.711-1.315,1.269-1.807c0.17-0.132,0.302-0.231,0.396-0.298c0.265-0.17,0.541-0.305,0.829-0.404
		s0.596-0.139,0.921-0.121c0.326,0.019,0.607,0.123,0.844,0.312c0.17,0.142,0.316,0.331,0.439,0.567
		c0.057,0.151,0.104,0.265,0.142,0.34l0.227-1.12l0.057-0.099c0.18-0.009,0.468-0.014,0.865-0.014l-1.942,9.17h-0.907l0.171-0.865
		l0.411-1.885L333.396,47.058z M332.928,42.069c-0.473,0.038-0.927,0.222-1.361,0.553c-0.415,0.302-0.753,0.694-1.013,1.176
		c-0.26,0.482-0.404,0.979-0.433,1.488c-0.057,1.002,0.236,1.691,0.879,2.069c0.265,0.161,0.553,0.227,0.864,0.198
		c0.52-0.037,0.987-0.307,1.403-0.808c0.18-0.255,0.278-0.406,0.298-0.453c0.009-0.028,0.11-0.486,0.305-1.375
		c0.193-0.888,0.295-1.365,0.305-1.432c0-0.037-0.01-0.165-0.028-0.383c-0.095-0.453-0.274-0.755-0.539-0.907
		C333.428,42.093,333.201,42.05,332.928,42.069z"/>
</g>
<g>
	<path d="M337.495,46.555c0.146-0.238,0.344-0.451,0.596-0.64c0.251-0.188,0.513-0.31,0.783-0.362
		c0.152-0.033,0.338-0.043,0.556-0.029c0.431,0.026,0.725,0.179,0.884,0.456c0.132,0.245,0.142,0.642,0.029,1.19l-0.446,2.063
		c-0.093,0.49-0.159,0.801-0.198,0.933c0,0.073-0.054,0.109-0.159,0.109c-0.02,0-0.033,0-0.039,0h-0.496
		c0.356-1.693,0.565-2.669,0.625-2.927c0.006-0.02,0.018-0.069,0.034-0.148c0.017-0.08,0.028-0.136,0.035-0.169
		c0.006-0.033,0.013-0.084,0.02-0.154c0.007-0.069,0.008-0.125,0.005-0.168s-0.01-0.093-0.02-0.149
		c-0.01-0.056-0.028-0.107-0.055-0.153c-0.1-0.186-0.288-0.298-0.565-0.338c-0.437-0.072-0.813,0.027-1.131,0.298
		c-0.252,0.219-0.447,0.526-0.586,0.923c-0.013,0.047-0.062,0.27-0.148,0.67s-0.179,0.825-0.278,1.274
		c-0.099,0.45-0.151,0.698-0.158,0.744c-0.014,0.079-0.026,0.146-0.04,0.198c0,0.027-0.003,0.047-0.01,0.06
		c-0.007,0.014-0.02,0.023-0.04,0.03c-0.02,0.007-0.036,0.01-0.049,0.01c-0.014,0-0.035,0-0.064,0c-0.03,0-0.049,0-0.055,0h-0.477
		l0.992-4.683h0.645l-0.198,0.962H337.495z"/>
</g>
<g>
	<path d="M345.429,36.057h5.358v0.751h-5.358V36.057z"/>
</g>
<g>
	<path d="M347.751,38.313h0.906l-1.955,9.241c0.566-0.009,1.119-0.269,1.658-0.779c0.548-0.51,0.959-1.152,1.232-1.928
		c0.095-0.264,0.189-0.653,0.284-1.169c0.094-0.515,0.127-0.933,0.099-1.254c-0.01-0.057-0.03-0.142-0.063-0.255
		s-0.052-0.196-0.057-0.248s0.012-0.135,0.05-0.248c0.019-0.066,0.068-0.13,0.148-0.191s0.158-0.102,0.234-0.121
		c0.028-0.009,0.075-0.014,0.142-0.014c0.255,0,0.406,0.241,0.453,0.723c0.095,0.652-0.01,1.517-0.312,2.594
		c-0.236,0.793-0.674,1.54-1.312,2.239s-1.367,1.134-2.189,1.304c-0.113,0.028-0.231,0.043-0.354,0.043
		c-0.01,0-0.033,0.004-0.07,0.014c-0.038,0.01-0.066,0.019-0.085,0.028c-0.02,0.019-0.055,0.151-0.106,0.397
		c-0.053,0.245-0.106,0.512-0.163,0.801c-0.057,0.288-0.09,0.446-0.1,0.475c-0.075,0.273-0.123,0.496-0.142,0.666h-0.907
		c0-0.038,0.035-0.225,0.106-0.56c0.071-0.336,0.146-0.69,0.227-1.063s0.121-0.564,0.121-0.574c0.047-0.151,0.023-0.227-0.071-0.227
		c-0.416-0.085-0.749-0.18-0.999-0.283c-0.251-0.104-0.484-0.26-0.702-0.468c-0.34-0.359-0.52-0.836-0.538-1.432
		c0-0.435,0.231-1.332,0.694-2.693c0.104-0.292,0.156-0.538,0.156-0.736c0-0.18-0.053-0.321-0.156-0.425
		c-0.123-0.094-0.253-0.13-0.39-0.106c-0.137,0.024-0.263,0.083-0.376,0.177c-0.312,0.283-0.529,0.77-0.651,1.46h-0.907
		c0.019-0.133,0.075-0.331,0.17-0.596c0.293-0.746,0.713-1.266,1.262-1.559c0.235-0.142,0.515-0.206,0.836-0.191
		s0.581,0.12,0.779,0.319c0.095,0.113,0.161,0.203,0.198,0.269c0.086,0.161,0.13,0.338,0.135,0.532s-0.002,0.333-0.021,0.418
		c-0.02,0.085-0.066,0.255-0.143,0.51l-0.212,0.609l-0.17,0.567c-0.104,0.34-0.176,0.586-0.213,0.736
		c-0.038,0.151-0.052,0.369-0.043,0.652c0.01,0.283,0.076,0.524,0.199,0.723c0.283,0.454,0.741,0.719,1.374,0.794L347.751,38.313z"
		/>
</g>
<g>
	<path d="M353.467,46.555c0.146-0.238,0.344-0.451,0.596-0.64c0.251-0.188,0.513-0.31,0.783-0.362
		c0.152-0.033,0.338-0.043,0.556-0.029c0.431,0.026,0.725,0.179,0.884,0.456c0.132,0.245,0.142,0.642,0.029,1.19l-0.446,2.063
		c-0.093,0.49-0.159,0.801-0.198,0.933c0,0.073-0.054,0.109-0.159,0.109c-0.02,0-0.033,0-0.039,0h-0.496
		c0.356-1.693,0.565-2.669,0.625-2.927c0.006-0.02,0.018-0.069,0.034-0.148c0.017-0.08,0.028-0.136,0.035-0.169
		c0.006-0.033,0.013-0.084,0.02-0.154c0.007-0.069,0.008-0.125,0.005-0.168s-0.01-0.093-0.02-0.149
		c-0.01-0.056-0.028-0.107-0.055-0.153c-0.1-0.186-0.288-0.298-0.565-0.338c-0.437-0.072-0.813,0.027-1.131,0.298
		c-0.252,0.219-0.447,0.526-0.586,0.923c-0.013,0.047-0.062,0.27-0.148,0.67s-0.179,0.825-0.278,1.274
		c-0.099,0.45-0.151,0.698-0.158,0.744c-0.014,0.079-0.026,0.146-0.04,0.198c0,0.027-0.003,0.047-0.01,0.06
		c-0.007,0.014-0.02,0.023-0.04,0.03c-0.02,0.007-0.036,0.01-0.049,0.01c-0.014,0-0.035,0-0.064,0c-0.03,0-0.049,0-0.055,0h-0.477
		l0.992-4.683h0.645l-0.198,0.962H353.467z"/>
</g>
<g>
	<path d="M357.174,44.294c0.058-0.312,0.166-0.623,0.326-0.936c0.388-0.765,0.926-1.336,1.616-1.714
		c0.387-0.217,0.814-0.316,1.282-0.298c0.468,0.019,0.877,0.166,1.227,0.439c0.689,0.539,1.143,1.479,1.36,2.821
		c0.019,0.151,0.037,0.26,0.057,0.325c0.236-0.736,0.628-1.805,1.177-3.203l0.127-0.241c0.123-0.019,0.421-0.028,0.894-0.028
		c-0.01,0.028-0.131,0.31-0.362,0.843c-0.231,0.534-0.483,1.12-0.758,1.758s-0.458,1.079-0.553,1.325
		c-0.227,0.566-0.373,0.959-0.439,1.177c-0.019,0.057-0.028,0.137-0.028,0.24c-0.01,0.057-0.017,0.116-0.021,0.178
		s-0.009,0.132-0.014,0.212c-0.005,0.081-0.007,0.14-0.007,0.178c-0.058,0.604-0.176,1.332-0.354,2.183
		c-0.17,0.822-0.411,1.224-0.724,1.204c-0.188-0.009-0.283-0.17-0.283-0.481c0-0.473,0.222-1.507,0.666-3.104
		c0-0.02,0.01-0.06,0.028-0.121c0.02-0.062,0.028-0.106,0.028-0.135c0.038-0.302-0.118-1.157-0.468-2.565
		c-0.104-0.358-0.198-0.646-0.283-0.864c-0.085-0.217-0.22-0.446-0.403-0.688c-0.185-0.241-0.404-0.408-0.659-0.503
		c-0.529-0.189-1.049-0.076-1.56,0.34c-0.491,0.416-0.812,0.968-0.964,1.658H357.174z"/>
</g>
<g>
	<path d="M367.042,42.039c0,0.006-0.029,0.154-0.089,0.441s-0.123,0.58-0.188,0.878c-0.066,0.298-0.104,0.46-0.109,0.486
		c-0.04,0.105-0.119,0.182-0.238,0.229c-0.119,0.046-0.229,0.036-0.327-0.03c-0.086-0.066-0.106-0.205-0.06-0.417
		c0.033-0.152,0.146-0.684,0.342-1.597c0.195-0.913,0.382-1.787,0.561-2.624c0.179-0.836,0.274-1.285,0.288-1.344
		c0.033-0.159,0.06-0.258,0.079-0.298c0.079-0.178,0.222-0.251,0.427-0.218c0.146,0.02,0.218,0.103,0.218,0.248
		c0,0.02-0.031,0.181-0.094,0.481s-0.134,0.638-0.213,1.012c-0.08,0.374-0.133,0.624-0.159,0.749
		c-0.093,0.43-0.139,0.708-0.139,0.833c0,0.437,0.148,0.731,0.446,0.883c0.298,0.152,0.602,0.149,0.913-0.01
		c0.198-0.105,0.37-0.258,0.516-0.456c0.146-0.199,0.268-0.442,0.367-0.729c0.099-0.288,0.177-0.545,0.233-0.774
		c0.056-0.228,0.117-0.511,0.183-0.848c0.007-0.046,0.014-0.084,0.021-0.114c0.006-0.03,0.013-0.061,0.02-0.094
		c0.014-0.066,0.035-0.162,0.064-0.288c0.03-0.125,0.052-0.222,0.064-0.288c0.033-0.166,0.06-0.271,0.079-0.317
		c0.093-0.146,0.219-0.218,0.377-0.218c0.166,0.013,0.255,0.096,0.269,0.248c0,0.026-0.048,0.271-0.145,0.734
		c-0.096,0.463-0.198,0.949-0.307,1.458c-0.109,0.509-0.168,0.78-0.174,0.813c-0.033,0.146-0.057,0.255-0.069,0.328
		c-0.014,0.073-0.011,0.168,0.01,0.288c0.02,0.119,0.072,0.212,0.158,0.278c0.106,0.093,0.209,0.116,0.308,0.069
		c0.133-0.08,0.252-0.351,0.357-0.813c0.007-0.013,0.015-0.042,0.024-0.084c0.011-0.043,0.019-0.083,0.025-0.119
		c0.006-0.036,0.013-0.058,0.02-0.064c0.014-0.013,0.073-0.02,0.179-0.02h0.486c-0.007,0.053-0.043,0.202-0.109,0.446
		c-0.186,0.522-0.417,0.876-0.694,1.062c-0.258,0.166-0.541,0.188-0.849,0.069s-0.497-0.331-0.57-0.635
		c-0.218,0.231-0.437,0.403-0.654,0.516c-0.437,0.219-0.887,0.255-1.35,0.109c-0.146-0.046-0.255-0.096-0.327-0.149
		c-0.021-0.006-0.049-0.023-0.085-0.049S367.062,42.052,367.042,42.039z"/>
</g>
<g>
	<path d="M372.989,48.149l5.811-9.737l0.142-0.199c0.143-0.019,0.496-0.028,1.063-0.028l1.715,9.964h-1.049l-0.496-2.962h-4.124
		l-0.369,0.028c-0.208,0.293-0.501,0.772-0.878,1.438c-0.379,0.666-0.681,1.155-0.907,1.467
		C373.773,48.14,373.471,48.149,372.989,48.149z M379.197,39.22l-2.906,4.904l-0.17,0.312h3.912
		c-0.048-0.321-0.177-1.099-0.39-2.332C379.431,40.872,379.282,39.91,379.197,39.22z"/>
</g>
<g>
	<path d="M383.514,50.018c0,0.007-0.029,0.153-0.089,0.441s-0.123,0.58-0.188,0.878c-0.066,0.298-0.104,0.46-0.109,0.486
		c-0.04,0.105-0.119,0.182-0.238,0.229c-0.119,0.046-0.229,0.036-0.327-0.03c-0.086-0.066-0.106-0.205-0.06-0.417
		c0.033-0.152,0.146-0.685,0.342-1.597c0.195-0.913,0.382-1.788,0.561-2.624c0.179-0.837,0.274-1.285,0.288-1.345
		c0.033-0.159,0.06-0.258,0.079-0.298c0.079-0.179,0.222-0.251,0.427-0.218c0.146,0.02,0.218,0.103,0.218,0.248
		c0,0.02-0.031,0.18-0.094,0.48c-0.062,0.302-0.134,0.639-0.213,1.013c-0.08,0.373-0.133,0.623-0.159,0.749
		c-0.093,0.43-0.139,0.707-0.139,0.833c0,0.437,0.148,0.731,0.446,0.883c0.298,0.152,0.602,0.149,0.913-0.01
		c0.198-0.105,0.37-0.258,0.516-0.456s0.268-0.441,0.367-0.729c0.099-0.288,0.177-0.546,0.233-0.773
		c0.056-0.229,0.117-0.512,0.183-0.849c0.007-0.046,0.014-0.084,0.021-0.114c0.006-0.029,0.013-0.061,0.02-0.094
		c0.014-0.066,0.035-0.162,0.064-0.288c0.03-0.126,0.052-0.222,0.064-0.288c0.033-0.165,0.06-0.271,0.079-0.317
		c0.093-0.146,0.219-0.218,0.377-0.218c0.166,0.013,0.255,0.096,0.269,0.248c0,0.026-0.048,0.271-0.145,0.734
		c-0.096,0.463-0.198,0.949-0.307,1.458c-0.109,0.51-0.168,0.78-0.174,0.813c-0.033,0.146-0.057,0.255-0.069,0.327
		c-0.014,0.073-0.011,0.169,0.01,0.288c0.02,0.119,0.072,0.212,0.158,0.277c0.106,0.093,0.209,0.116,0.308,0.07
		c0.133-0.08,0.252-0.351,0.357-0.814c0.007-0.013,0.015-0.041,0.024-0.084c0.011-0.043,0.019-0.083,0.025-0.119
		c0.006-0.036,0.013-0.058,0.02-0.064c0.014-0.013,0.073-0.02,0.179-0.02h0.486c-0.007,0.053-0.043,0.202-0.109,0.446
		c-0.186,0.522-0.417,0.877-0.694,1.062c-0.258,0.165-0.541,0.188-0.849,0.069s-0.497-0.33-0.57-0.635
		c-0.218,0.231-0.437,0.403-0.654,0.516c-0.437,0.219-0.887,0.255-1.35,0.109c-0.146-0.046-0.255-0.096-0.327-0.148
		c-0.021-0.007-0.049-0.023-0.085-0.05S383.533,50.031,383.514,50.018z"/>
</g>
<g>
	<path d="M395.555,38.313h0.906l-1.955,9.241c0.566-0.009,1.119-0.269,1.658-0.779c0.548-0.51,0.959-1.152,1.232-1.928
		c0.095-0.264,0.189-0.653,0.284-1.169c0.094-0.515,0.127-0.933,0.099-1.254c-0.01-0.057-0.03-0.142-0.063-0.255
		s-0.052-0.196-0.057-0.248s0.012-0.135,0.05-0.248c0.019-0.066,0.068-0.13,0.148-0.191s0.158-0.102,0.234-0.121
		c0.028-0.009,0.075-0.014,0.142-0.014c0.255,0,0.406,0.241,0.453,0.723c0.095,0.652-0.01,1.517-0.312,2.594
		c-0.236,0.793-0.674,1.54-1.312,2.239s-1.367,1.134-2.189,1.304c-0.113,0.028-0.231,0.043-0.354,0.043
		c-0.01,0-0.033,0.004-0.07,0.014c-0.038,0.01-0.066,0.019-0.085,0.028c-0.02,0.019-0.055,0.151-0.106,0.397
		c-0.053,0.245-0.106,0.512-0.163,0.801c-0.057,0.288-0.09,0.446-0.1,0.475c-0.075,0.273-0.123,0.496-0.142,0.666h-0.907
		c0-0.038,0.035-0.225,0.106-0.56c0.071-0.336,0.146-0.69,0.227-1.063s0.121-0.564,0.121-0.574c0.047-0.151,0.023-0.227-0.071-0.227
		c-0.416-0.085-0.749-0.18-0.999-0.283c-0.251-0.104-0.484-0.26-0.702-0.468c-0.34-0.359-0.52-0.836-0.538-1.432
		c0-0.435,0.231-1.332,0.694-2.693c0.104-0.292,0.156-0.538,0.156-0.736c0-0.18-0.053-0.321-0.156-0.425
		c-0.123-0.094-0.253-0.13-0.39-0.106c-0.137,0.024-0.263,0.083-0.376,0.177c-0.312,0.283-0.529,0.77-0.651,1.46h-0.907
		c0.019-0.133,0.075-0.331,0.17-0.596c0.293-0.746,0.713-1.266,1.262-1.559c0.235-0.142,0.515-0.206,0.836-0.191
		s0.581,0.12,0.779,0.319c0.095,0.113,0.161,0.203,0.198,0.269c0.086,0.161,0.13,0.338,0.135,0.532s-0.002,0.333-0.021,0.418
		c-0.02,0.085-0.066,0.255-0.143,0.51l-0.212,0.609l-0.17,0.567c-0.104,0.34-0.176,0.586-0.213,0.736
		c-0.038,0.151-0.052,0.369-0.043,0.652c0.01,0.283,0.076,0.524,0.199,0.723c0.283,0.454,0.741,0.719,1.374,0.794L395.555,38.313z"
		/>
</g>
<g>
	<path d="M401.271,46.555c0.146-0.238,0.344-0.451,0.596-0.64c0.251-0.188,0.513-0.31,0.783-0.362
		c0.152-0.033,0.338-0.043,0.556-0.029c0.431,0.026,0.725,0.179,0.884,0.456c0.132,0.245,0.142,0.642,0.029,1.19l-0.446,2.063
		c-0.093,0.49-0.159,0.801-0.198,0.933c0,0.073-0.054,0.109-0.159,0.109c-0.02,0-0.033,0-0.039,0h-0.496
		c0.356-1.693,0.565-2.669,0.625-2.927c0.006-0.02,0.018-0.069,0.034-0.148c0.017-0.08,0.028-0.136,0.035-0.169
		c0.006-0.033,0.013-0.084,0.02-0.154c0.007-0.069,0.008-0.125,0.005-0.168s-0.01-0.093-0.02-0.149
		c-0.01-0.056-0.028-0.107-0.055-0.153c-0.1-0.186-0.288-0.298-0.565-0.338c-0.437-0.072-0.813,0.027-1.131,0.298
		c-0.252,0.219-0.447,0.526-0.586,0.923c-0.013,0.047-0.062,0.27-0.148,0.67s-0.179,0.825-0.278,1.274
		c-0.099,0.45-0.151,0.698-0.158,0.744c-0.014,0.079-0.026,0.146-0.04,0.198c0,0.027-0.003,0.047-0.01,0.06
		c-0.007,0.014-0.02,0.023-0.04,0.03c-0.02,0.007-0.036,0.01-0.049,0.01c-0.014,0-0.035,0-0.064,0c-0.03,0-0.049,0-0.055,0h-0.477
		l0.992-4.683h0.645l-0.198,0.962H401.271z"/>
</g>
</svg>
