<?xml version="1.0" encoding="iso-8859-1"?>
<!-- Generator: Adobe Illustrator 16.0.0, SVG Export Plug-In . SVG Version: 6.00 Build 0)  -->
<!DOCTYPE svg PUBLIC "-//W3C//DTD SVG 1.1//EN" "http://www.w3.org/Graphics/SVG/1.1/DTD/svg11.dtd">
<svg version="1.1" id="Layer_1" xmlns="http://www.w3.org/2000/svg" xmlns:xlink="http://www.w3.org/1999/xlink" x="0px" y="0px"
	 width="566.929px" height="85.039px" viewBox="0 0 566.929 85.039" style="enable-background:new 0 0 566.929 85.039;"
	 xml:space="preserve">
<g>
	<path d="M27.458,50.789c0.369-0.047,0.6-0.065,0.694-0.057c0.151,0.01,0.305,0.023,0.46,0.043c0.156,0.019,0.329,0.05,0.518,0.092
		c0.189,0.043,0.331,0.076,0.425,0.1c0.094,0.023,0.26,0.068,0.496,0.135c0.236,0.065,0.382,0.108,0.439,0.127
		c0.567,0.151,1.034,0.251,1.403,0.298c0.038,0,0.097,0.002,0.177,0.007c0.08,0.005,0.139,0.007,0.177,0.007
		c0.208,0,0.378-0.179,0.51-0.538c0.019-0.028,0.038-0.071,0.057-0.128c0.019-0.057,0.033-0.099,0.042-0.127
		c0.151-0.256,0.444-0.463,0.879-0.624c0.17-0.065,0.292-0.09,0.368-0.07c0.076,0.019,0.095,0.09,0.057,0.212
		c-0.038,0.161-0.113,0.331-0.227,0.511c-0.321,0.51-0.855,0.954-1.602,1.332c-0.558,0.265-1.172,0.354-1.842,0.27
		c-0.331-0.038-0.792-0.14-1.382-0.305c-0.59-0.165-0.971-0.268-1.141-0.305c-0.416-0.104-0.771-0.156-1.063-0.156
		c-0.047,0-0.092,0.015-0.135,0.043s-0.09,0.07-0.142,0.127c-0.052,0.057-0.087,0.095-0.106,0.113
		c-0.312,0.293-0.657,0.468-1.035,0.524c-0.17,0-0.194-0.085-0.071-0.255c0.104-0.17,0.227-0.316,0.369-0.439
		c0.435-0.406,0.822-1.072,1.162-1.998c0.104-0.312,0.274-0.931,0.51-1.856c0.274-0.992,0.562-1.843,0.864-2.552
		c0.303-0.709,0.69-1.304,1.163-1.786c0.321-0.34,0.725-0.642,1.211-0.907c0.487-0.264,0.971-0.425,1.453-0.482
		c0.416-0.047,0.746,0,0.992,0.142c0.425,0.255,0.6,0.714,0.524,1.375c-0.019,0.208-0.057,0.359-0.114,0.453
		c-0.057,0.095-0.156,0.194-0.297,0.298c-0.34,0.255-0.628,0.383-0.865,0.383c-0.123,0-0.166-0.085-0.127-0.255
		c0.123-0.728-0.042-1.21-0.496-1.445c-0.255-0.123-0.539-0.137-0.851-0.043c-0.151,0.037-0.316,0.18-0.496,0.425
		c-0.614,0.775-1.167,2.117-1.658,4.025c-0.019,0.066-0.054,0.196-0.106,0.39c-0.052,0.194-0.085,0.317-0.1,0.369
		s-0.04,0.153-0.078,0.305c-0.038,0.151-0.069,0.257-0.092,0.318s-0.057,0.154-0.099,0.276c-0.042,0.123-0.081,0.223-0.113,0.298
		c-0.033,0.076-0.076,0.168-0.128,0.276c-0.052,0.108-0.106,0.22-0.163,0.333c-0.038,0.076-0.081,0.153-0.128,0.234
		c-0.047,0.08-0.102,0.167-0.163,0.262C27.531,50.657,27.487,50.732,27.458,50.789z"/>
</g>
<g>
	<path d="M35.694,47.348h0.695v3.026h3.8v-3.026h0.694v6.886h-0.694V50.93h-3.8v3.304h-0.695V47.348z"/>
	<path d="M42.718,47.348h0.655v0.655h-0.655V47.348z M42.718,49.551h0.655v4.683h-0.655V49.551z"/>
	<path d="M47.957,52.974c-0.073,0.225-0.207,0.439-0.402,0.645c-0.195,0.205-0.409,0.334-0.64,0.387
		c-0.522,0.14-1.015,0.017-1.478-0.367c-0.231-0.191-0.42-0.439-0.565-0.744c-0.199-0.442-0.26-0.917-0.184-1.423
		c0.076-0.506,0.27-0.944,0.58-1.314c0.225-0.271,0.506-0.469,0.843-0.591c0.337-0.122,0.665-0.131,0.982-0.024
		c0.357,0.132,0.655,0.403,0.893,0.813v-0.883h0.655v4.514c0,0.542-0.099,0.959-0.298,1.25c-0.132,0.212-0.309,0.391-0.531,0.536
		s-0.461,0.234-0.719,0.268c-0.43,0.046-0.867,0.01-1.31-0.109c-0.179-0.039-0.38-0.105-0.605-0.198
		c-0.014-0.007-0.037-0.017-0.07-0.029c-0.033-0.014-0.063-0.027-0.089-0.04c-0.026-0.014-0.046-0.03-0.059-0.05
		c-0.014-0.02-0.02-0.076-0.02-0.169v-0.396c0.02,0.007,0.107,0.046,0.263,0.119c0.155,0.072,0.273,0.122,0.353,0.148
		c0.317,0.112,0.661,0.179,1.032,0.199c0.482,0.032,0.847-0.106,1.091-0.417c0.192-0.245,0.288-0.635,0.288-1.171v-0.952H47.957z
		 M46.875,49.997c-0.509,0.04-0.906,0.281-1.19,0.725c-0.285,0.442-0.394,0.912-0.328,1.408c0.04,0.331,0.17,0.625,0.392,0.883
		c0.222,0.259,0.494,0.421,0.818,0.486c0.284,0.073,0.529,0.043,0.734-0.089c0.205-0.133,0.36-0.324,0.466-0.575
		c0.105-0.252,0.172-0.593,0.198-1.022c0-0.013,0.003-0.031,0.01-0.055c0.007-0.022,0.01-0.041,0.01-0.055v-0.287
		c0-0.066,0-0.134,0-0.204c0-0.069,0.001-0.11,0.005-0.124c0.003-0.013,0.001-0.039-0.005-0.079
		c-0.007-0.039-0.014-0.069-0.02-0.089c-0.007-0.021-0.02-0.066-0.04-0.139c-0.172-0.45-0.43-0.705-0.774-0.765
		C47.093,50.004,47,49.997,46.875,49.997z"/>
	<path d="M53.225,52.974c-0.073,0.225-0.207,0.439-0.402,0.645c-0.195,0.205-0.409,0.334-0.64,0.387
		c-0.522,0.14-1.015,0.017-1.478-0.367c-0.231-0.191-0.42-0.439-0.565-0.744c-0.199-0.442-0.26-0.917-0.184-1.423
		c0.076-0.506,0.27-0.944,0.58-1.314c0.225-0.271,0.506-0.469,0.843-0.591c0.337-0.122,0.665-0.131,0.982-0.024
		c0.357,0.132,0.655,0.403,0.893,0.813v-0.883h0.655v4.514c0,0.542-0.099,0.959-0.298,1.25c-0.132,0.212-0.309,0.391-0.531,0.536
		s-0.461,0.234-0.719,0.268c-0.43,0.046-0.867,0.01-1.31-0.109c-0.179-0.039-0.38-0.105-0.605-0.198
		c-0.014-0.007-0.037-0.017-0.07-0.029c-0.033-0.014-0.063-0.027-0.089-0.04c-0.026-0.014-0.046-0.03-0.059-0.05
		c-0.014-0.02-0.02-0.076-0.02-0.169v-0.396c0.02,0.007,0.107,0.046,0.263,0.119c0.155,0.072,0.273,0.122,0.353,0.148
		c0.317,0.112,0.661,0.179,1.032,0.199c0.482,0.032,0.847-0.106,1.091-0.417c0.192-0.245,0.288-0.635,0.288-1.171v-0.952H53.225z
		 M52.143,49.997c-0.509,0.04-0.906,0.281-1.19,0.725c-0.285,0.442-0.394,0.912-0.328,1.408c0.04,0.331,0.17,0.625,0.392,0.883
		c0.222,0.259,0.494,0.421,0.818,0.486c0.284,0.073,0.529,0.043,0.734-0.089c0.205-0.133,0.36-0.324,0.466-0.575
		c0.105-0.252,0.172-0.593,0.198-1.022c0-0.013,0.003-0.031,0.01-0.055c0.007-0.022,0.01-0.041,0.01-0.055v-0.287
		c0-0.066,0-0.134,0-0.204c0-0.069,0.001-0.11,0.005-0.124c0.003-0.013,0.001-0.039-0.005-0.079
		c-0.007-0.039-0.014-0.069-0.02-0.089c-0.007-0.021-0.02-0.066-0.04-0.139c-0.172-0.45-0.43-0.705-0.774-0.765
		C52.361,50.004,52.269,49.997,52.143,49.997z"/>
	<path d="M55.139,53.241c0.549,0.324,1.048,0.496,1.498,0.516c0.496,0.047,0.86-0.036,1.091-0.248
		c0.106-0.099,0.177-0.22,0.213-0.361c0.036-0.143,0.028-0.283-0.025-0.422c-0.086-0.186-0.22-0.319-0.402-0.402
		c-0.182-0.082-0.426-0.148-0.734-0.198s-0.521-0.094-0.64-0.134c-0.364-0.126-0.635-0.308-0.813-0.546
		c-0.166-0.211-0.245-0.458-0.238-0.739c0.007-0.28,0.096-0.527,0.268-0.739c0.278-0.356,0.767-0.535,1.468-0.535
		c0.536,0,1.058,0.109,1.568,0.327l-0.1,0.575c-0.06-0.02-0.141-0.056-0.243-0.108c-0.103-0.053-0.184-0.09-0.243-0.109
		c-0.258-0.119-0.601-0.177-1.027-0.174c-0.427,0.004-0.729,0.101-0.908,0.293c-0.1,0.112-0.154,0.241-0.164,0.387
		c-0.01,0.146,0.028,0.277,0.114,0.396c0.106,0.14,0.253,0.242,0.441,0.308c0.188,0.066,0.415,0.118,0.68,0.154
		s0.459,0.077,0.585,0.124c0.311,0.112,0.569,0.286,0.774,0.521c0.205,0.235,0.297,0.534,0.278,0.898
		c-0.02,0.218-0.076,0.41-0.169,0.575c-0.304,0.535-0.906,0.771-1.806,0.704c-0.575-0.053-1.028-0.169-1.359-0.347
		c-0.126-0.06-0.192-0.1-0.199-0.119c-0.013-0.021-0.005-0.109,0.025-0.269C55.104,53.41,55.126,53.301,55.139,53.241z"/>
</g>
<g>
	<path d="M64.109,49.599c0.057-0.094,0.198-0.142,0.425-0.142h8.093h0.595c0.123,0.02,0.208,0.083,0.255,0.191
		s0.023,0.205-0.071,0.29c-0.057,0.058-0.156,0.086-0.297,0.086h-8.575c-0.142,0-0.227-0.005-0.255-0.015
		c-0.085-0.019-0.146-0.073-0.184-0.163C64.057,49.757,64.062,49.675,64.109,49.599z M64.279,46.722
		c0.019-0.01,0.099-0.015,0.241-0.015h8.122l0.297-0.014c0.199,0,0.298,0.005,0.298,0.014c0.113,0.02,0.191,0.085,0.234,0.199
		c0.042,0.113,0.021,0.208-0.064,0.283c-0.057,0.057-0.161,0.085-0.312,0.085h-8.519c-0.151,0-0.241-0.005-0.269-0.015
		c-0.151-0.028-0.229-0.115-0.234-0.262S64.138,46.76,64.279,46.722z"/>
	<path d="M83.172,55.254h-0.468c-0.132,0-0.212-0.005-0.241-0.015c-0.113-0.057-0.321-0.236-0.624-0.538
		c-0.548-0.548-0.992-1.162-1.333-1.843c-0.728-1.455-1.054-3.118-0.978-4.988c0.057-1.2,0.281-2.299,0.673-3.296
		s0.928-1.835,1.609-2.516c0.321-0.321,0.539-0.51,0.652-0.567c0.028-0.009,0.108-0.014,0.241-0.014h0.468
		c-0.038,0.047-0.165,0.166-0.382,0.354c-0.444,0.378-0.889,0.982-1.333,1.814c-0.614,1.181-0.955,2.589-1.021,4.224
		c-0.057,1.332,0.092,2.589,0.447,3.77c0.354,1.181,0.886,2.159,1.594,2.934c0.132,0.151,0.236,0.26,0.312,0.326
		C83.007,55.089,83.134,55.206,83.172,55.254z"/>
</g>
<g>
	<path d="M88.072,41.218c0.123-0.113,0.449-0.422,0.978-0.928c0.529-0.505,0.94-0.886,1.233-1.141
		c0.132-0.019,0.359-0.029,0.681-0.029c0.075,0.048,0.283,0.227,0.624,0.539c0.151,0.151,0.413,0.399,0.787,0.744
		c0.373,0.345,0.659,0.617,0.857,0.815c-0.321,0-0.553-0.004-0.694-0.014c-0.265-0.217-0.817-0.704-1.659-1.459l-0.227-0.17
		c-0.236,0.18-0.56,0.456-0.971,0.829c-0.411,0.374-0.716,0.641-0.915,0.801C88.625,41.214,88.393,41.218,88.072,41.218z"/>
</g>
<g>
	<path d="M87.494,42.271h2.976c0.689,0,1.101,0.005,1.233,0.014c1.011,0.104,1.819,0.553,2.424,1.347
		c0.35,0.463,0.581,0.999,0.694,1.608c0.114,0.609,0.118,1.205,0.014,1.786s-0.288,1.141-0.553,1.68
		c-0.416,0.831-1.011,1.562-1.786,2.189c-0.775,0.629-1.649,1.019-2.622,1.169c-0.208,0.028-0.836,0.043-1.885,0.043H85.41
		L87.494,42.271z M86.544,51.356h1.913c0.699,0,1.177-0.023,1.432-0.071c0.907-0.142,1.691-0.521,2.353-1.141
		c0.662-0.619,1.134-1.377,1.417-2.274c0.142-0.463,0.234-0.915,0.276-1.354c0.042-0.438,0.007-0.893-0.106-1.36
		c-0.113-0.468-0.321-0.871-0.624-1.212c-0.217-0.264-0.517-0.477-0.9-0.638c-0.383-0.16-0.787-0.255-1.212-0.283
		c0-0.009-0.137-0.014-0.411-0.014l-0.397,0.014h-1.97L86.544,51.356z"/>
</g>
<g>
	<path d="M99.486,50.195c0.132,0.231,0.218,0.431,0.258,0.596c0.073,0.291,0.089,0.602,0.05,0.933
		c-0.106,0.807-0.48,1.481-1.121,2.023c-0.305,0.252-0.632,0.42-0.982,0.506s-0.711,0.063-1.082-0.069
		c-0.218-0.072-0.43-0.244-0.635-0.516c-0.205-0.298-0.311-0.661-0.317-1.092c-0.007-0.43,0.066-0.81,0.218-1.141
		c0.324-0.813,0.843-1.382,1.558-1.706c0.053-0.021,0.101-0.038,0.144-0.055s0.088-0.031,0.134-0.045
		c0.046-0.013,0.083-0.024,0.109-0.034c0.026-0.011,0.066-0.019,0.119-0.025c0.053-0.007,0.089-0.012,0.109-0.015
		c0.02-0.003,0.063-0.005,0.129-0.005c0.066,0,0.107,0,0.124,0c0.016,0,0.066,0,0.148,0c0.083,0,0.137,0,0.164,0h1.954
		c0.02,0,0.058-0.002,0.114-0.005c0.056-0.004,0.101-0.005,0.134-0.005s0.071,0.006,0.114,0.02s0.078,0.029,0.104,0.05
		c0.093,0.086,0.114,0.19,0.064,0.312c-0.049,0.122-0.127,0.203-0.233,0.243c-0.046,0.02-0.198,0.029-0.457,0.029H99.486z
		 M98.643,50.314c-0.337-0.152-0.685-0.162-1.042-0.029c-0.132,0.053-0.228,0.099-0.288,0.139c-0.562,0.351-0.896,1.019-1.002,2.004
		c-0.053,0.608,0.116,1.019,0.506,1.23c0.271,0.165,0.595,0.185,0.972,0.06c0.642-0.212,1.065-0.777,1.27-1.697
		c0.198-0.733,0.119-1.263-0.238-1.587c-0.013-0.014-0.03-0.026-0.049-0.04c-0.02-0.013-0.043-0.027-0.069-0.044
		C98.676,50.333,98.656,50.321,98.643,50.314z"/>
</g>
<g>
	<path d="M105.188,52.532c-0.708-0.057-1.333-0.378-1.871-0.964c-0.189-0.235-0.335-0.472-0.439-0.708
		c-0.227-0.558-0.303-1.127-0.227-1.708s0.255-1.129,0.539-1.645c0.284-0.515,0.643-0.966,1.077-1.354
		c0.766-0.651,1.512-1.024,2.239-1.119c0.17-0.038,0.265-0.066,0.284-0.085c0.028-0.038,0.042-0.1,0.042-0.185
		c0.312-1.427,0.477-2.192,0.496-2.296c0.028-0.104,0.047-0.161,0.057-0.17c0.019-0.019,0.104-0.029,0.255-0.029h0.638l-0.581,2.721
		c0.472,0.028,0.931,0.198,1.375,0.511c0.444,0.321,0.768,0.741,0.971,1.261c0.203,0.521,0.271,1.063,0.206,1.631
		c-0.095,0.774-0.39,1.495-0.886,2.161s-1.098,1.179-1.807,1.537c-0.624,0.293-1.11,0.439-1.459,0.439
		c-0.028,0.114-0.09,0.395-0.185,0.844c-0.094,0.448-0.165,0.796-0.212,1.042l-0.057,0.142l-0.255,0.028h-0.638L105.188,52.532z
		 M106.634,45.701c-0.633,0.076-1.219,0.336-1.758,0.779c-0.765,0.634-1.219,1.498-1.36,2.594c-0.142,1.068,0.108,1.843,0.751,2.324
		c0.312,0.256,0.671,0.397,1.077,0.426l1.148-5.442L106.634,45.701z M106.251,51.824c0.217-0.01,0.472-0.076,0.765-0.198
		c0.662-0.246,1.2-0.671,1.616-1.276c0.416-0.604,0.666-1.275,0.751-2.013c0.123-1.058-0.156-1.813-0.836-2.268
		c-0.34-0.217-0.675-0.34-1.006-0.368l-0.935,4.45l-0.241,1.12L106.251,51.824z"/>
</g>
<g>
	<path d="M111.323,41.478h0.467c0.142,0,0.222,0.005,0.241,0.014c0.113,0.057,0.321,0.236,0.624,0.539
		c0.548,0.548,0.992,1.162,1.333,1.843c0.727,1.455,1.053,3.118,0.978,4.988c-0.057,1.2-0.281,2.299-0.673,3.296
		c-0.393,0.996-0.929,1.835-1.609,2.516c-0.321,0.321-0.539,0.51-0.652,0.566c-0.028,0.01-0.109,0.015-0.241,0.015h-0.467
		c0.038-0.048,0.165-0.165,0.382-0.354c0.076-0.066,0.18-0.175,0.312-0.326c0.416-0.463,0.76-0.973,1.035-1.53
		c0.746-1.475,1.082-3.198,1.006-5.173c-0.095-2.362-0.775-4.267-2.041-5.712c-0.132-0.151-0.236-0.26-0.312-0.326
		C111.488,41.643,111.361,41.525,111.323,41.478z"/>
</g>
<g>
	<path d="M118.442,41.87c0-0.172-0.046-0.559-0.139-1.161c-0.027-0.172-0.06-0.463-0.1-0.873c-0.013-0.278,0.043-0.453,0.169-0.526
		c0.053-0.033,0.129-0.05,0.228-0.05c0.053,0.014,0.093,0.027,0.119,0.04c0.106,0.053,0.167,0.144,0.184,0.272
		c0.017,0.129,0.015,0.243-0.005,0.342c-0.007,0.205-0.046,0.526-0.119,0.962s-0.109,0.768-0.109,0.992
		c0.119-0.013,0.285-0.048,0.496-0.104c0.212-0.056,0.354-0.091,0.427-0.104c0.205-0.046,0.357-0.046,0.457,0
		c0.152,0.06,0.22,0.177,0.203,0.353s-0.104,0.279-0.263,0.312c-0.113,0.026-0.355-0.005-0.729-0.094
		c-0.374-0.089-0.57-0.134-0.59-0.134c0,0.086,0.023,0.268,0.07,0.546c0.092,0.45,0.147,0.775,0.164,0.978
		c0.017,0.201,0.015,0.527-0.005,0.977c-0.02,0.82-0.033,1.31-0.04,1.469c-0.027,0.363-0.043,0.645-0.05,0.844
		c0,0.013-0.03,0.393-0.089,1.141c0,0.007-0.001,0.033-0.005,0.079s-0.007,0.079-0.01,0.1c-0.003,0.02-0.01,0.046-0.02,0.079
		s-0.025,0.056-0.044,0.069c-0.02,0.014-0.046,0.02-0.08,0.02s-0.061-0.006-0.084-0.02c-0.023-0.014-0.04-0.036-0.049-0.069
		c-0.01-0.033-0.017-0.057-0.02-0.069c-0.003-0.014-0.007-0.045-0.01-0.095c-0.003-0.049-0.005-0.077-0.005-0.084
		c0-0.014-0.014-0.17-0.04-0.472c-0.026-0.301-0.043-0.527-0.049-0.679c-0.007-0.199-0.023-0.48-0.05-0.844
		c-0.007-0.126-0.02-0.511-0.04-1.156c-0.02-0.645-0.023-1.053-0.01-1.225c0.013-0.186,0.07-0.533,0.169-1.042
		c0.046-0.278,0.069-0.459,0.069-0.546c-0.112,0.014-0.27,0.046-0.471,0.1c-0.202,0.053-0.333,0.086-0.392,0.099
		c-0.192,0.04-0.344,0.049-0.456,0.03c-0.159-0.033-0.247-0.137-0.263-0.312s0.051-0.293,0.204-0.353
		c0.099-0.046,0.251-0.046,0.457,0c0.072,0.014,0.215,0.048,0.426,0.104C118.158,41.822,118.323,41.856,118.442,41.87z"/>
</g>
<g>
	<path d="M126.265,55.254h-0.468c-0.132,0-0.212-0.005-0.241-0.015c-0.113-0.057-0.321-0.236-0.624-0.538
		c-0.548-0.548-0.992-1.162-1.333-1.843c-0.728-1.455-1.054-3.118-0.978-4.988c0.057-1.2,0.281-2.299,0.673-3.296
		s0.928-1.835,1.609-2.516c0.321-0.321,0.539-0.51,0.652-0.567c0.028-0.009,0.108-0.014,0.241-0.014h0.468
		c-0.038,0.047-0.165,0.166-0.382,0.354c-0.444,0.378-0.889,0.982-1.333,1.814c-0.614,1.181-0.955,2.589-1.021,4.224
		c-0.057,1.332,0.092,2.589,0.447,3.77c0.354,1.181,0.886,2.159,1.594,2.934c0.132,0.151,0.236,0.26,0.312,0.326
		C126.1,55.089,126.228,55.206,126.265,55.254z"/>
</g>
<g>
	<path d="M131.157,41.218c0.123-0.113,0.449-0.422,0.978-0.928c0.529-0.505,0.94-0.886,1.233-1.141
		c0.132-0.019,0.359-0.029,0.681-0.029c0.075,0.048,0.283,0.227,0.624,0.539c0.151,0.151,0.413,0.399,0.787,0.744
		c0.373,0.345,0.659,0.617,0.857,0.815c-0.321,0-0.553-0.004-0.694-0.014c-0.265-0.217-0.817-0.704-1.659-1.459l-0.227-0.17
		c-0.236,0.18-0.56,0.456-0.971,0.829c-0.411,0.374-0.716,0.641-0.915,0.801C131.709,41.214,131.478,41.218,131.157,41.218z"/>
</g>
<g>
	<path d="M130.579,42.271h2.976c0.689,0,1.101,0.005,1.233,0.014c1.011,0.104,1.819,0.553,2.424,1.347
		c0.35,0.463,0.581,0.999,0.694,1.608c0.114,0.609,0.118,1.205,0.014,1.786s-0.288,1.141-0.553,1.68
		c-0.416,0.831-1.011,1.562-1.786,2.189c-0.775,0.629-1.649,1.019-2.622,1.169c-0.208,0.028-0.836,0.043-1.885,0.043h-2.579
		L130.579,42.271z M129.629,51.356h1.913c0.699,0,1.177-0.023,1.432-0.071c0.907-0.142,1.691-0.521,2.353-1.141
		c0.662-0.619,1.134-1.377,1.417-2.274c0.142-0.463,0.234-0.915,0.276-1.354c0.042-0.438,0.007-0.893-0.106-1.36
		c-0.113-0.468-0.321-0.871-0.624-1.212c-0.217-0.264-0.517-0.477-0.9-0.638c-0.383-0.16-0.787-0.255-1.212-0.283
		c0-0.009-0.137-0.014-0.411-0.014l-0.397,0.014h-1.97L129.629,51.356z"/>
</g>
<g>
	<path d="M142.984,42.217c0.132,0.232,0.218,0.43,0.258,0.595c0.073,0.292,0.089,0.602,0.05,0.933
		c-0.106,0.807-0.48,1.481-1.121,2.023c-0.305,0.252-0.632,0.42-0.982,0.506s-0.711,0.063-1.082-0.069
		c-0.218-0.072-0.43-0.244-0.635-0.516c-0.205-0.298-0.311-0.661-0.317-1.092c-0.007-0.43,0.066-0.81,0.218-1.141
		c0.324-0.813,0.843-1.382,1.558-1.707c0.053-0.02,0.101-0.038,0.144-0.054s0.088-0.032,0.134-0.045
		c0.046-0.013,0.083-0.025,0.109-0.035s0.066-0.018,0.119-0.025c0.053-0.006,0.089-0.011,0.109-0.015
		c0.02-0.003,0.063-0.005,0.129-0.005c0.066,0,0.107,0,0.124,0c0.016,0,0.066,0,0.148,0c0.083,0,0.137,0,0.164,0h1.954
		c0.02,0,0.058-0.002,0.114-0.005c0.056-0.003,0.101-0.005,0.134-0.005s0.071,0.007,0.114,0.02s0.078,0.03,0.104,0.05
		c0.093,0.086,0.114,0.19,0.064,0.312c-0.049,0.122-0.127,0.203-0.233,0.243c-0.046,0.02-0.198,0.03-0.457,0.03H142.984z
		 M142.141,42.336c-0.337-0.152-0.685-0.162-1.042-0.03c-0.132,0.053-0.228,0.099-0.288,0.139c-0.562,0.351-0.896,1.019-1.002,2.004
		c-0.053,0.608,0.116,1.019,0.506,1.23c0.271,0.165,0.595,0.185,0.972,0.06c0.642-0.212,1.065-0.777,1.27-1.697
		c0.198-0.733,0.119-1.263-0.238-1.587c-0.013-0.013-0.03-0.026-0.049-0.04c-0.02-0.013-0.043-0.028-0.069-0.045
		C142.174,42.354,142.154,42.343,142.141,42.336z"/>
</g>
<g>
	<path d="M148.687,52.532c-0.708-0.057-1.333-0.378-1.871-0.964c-0.189-0.235-0.335-0.472-0.439-0.708
		c-0.227-0.558-0.303-1.127-0.227-1.708s0.255-1.129,0.539-1.645c0.284-0.515,0.643-0.966,1.077-1.354
		c0.766-0.651,1.512-1.024,2.239-1.119c0.17-0.038,0.265-0.066,0.284-0.085c0.028-0.038,0.042-0.1,0.042-0.185
		c0.312-1.427,0.477-2.192,0.496-2.296c0.028-0.104,0.047-0.161,0.057-0.17c0.019-0.019,0.104-0.029,0.255-0.029h0.638l-0.581,2.721
		c0.472,0.028,0.931,0.198,1.375,0.511c0.444,0.321,0.768,0.741,0.971,1.261c0.203,0.521,0.271,1.063,0.206,1.631
		c-0.095,0.774-0.39,1.495-0.886,2.161s-1.098,1.179-1.807,1.537c-0.624,0.293-1.11,0.439-1.459,0.439
		c-0.028,0.114-0.09,0.395-0.185,0.844c-0.094,0.448-0.165,0.796-0.212,1.042l-0.057,0.142l-0.255,0.028h-0.638L148.687,52.532z
		 M150.133,45.701c-0.633,0.076-1.219,0.336-1.758,0.779c-0.765,0.634-1.219,1.498-1.36,2.594c-0.142,1.068,0.108,1.843,0.751,2.324
		c0.312,0.256,0.671,0.397,1.077,0.426l1.148-5.442L150.133,45.701z M149.75,51.824c0.217-0.01,0.472-0.076,0.765-0.198
		c0.662-0.246,1.2-0.671,1.616-1.276c0.416-0.604,0.666-1.275,0.751-2.013c0.123-1.058-0.156-1.813-0.836-2.268
		c-0.34-0.217-0.675-0.34-1.006-0.368l-0.935,4.45l-0.241,1.12L149.75,51.824z"/>
</g>
<g>
	<path d="M154.822,41.478h0.467c0.142,0,0.222,0.005,0.241,0.014c0.113,0.057,0.321,0.236,0.624,0.539
		c0.548,0.548,0.992,1.162,1.333,1.843c0.727,1.455,1.053,3.118,0.978,4.988c-0.057,1.2-0.281,2.299-0.673,3.296
		c-0.393,0.996-0.929,1.835-1.609,2.516c-0.321,0.321-0.539,0.51-0.652,0.566c-0.028,0.01-0.109,0.015-0.241,0.015h-0.467
		c0.038-0.048,0.165-0.165,0.382-0.354c0.076-0.066,0.18-0.175,0.312-0.326c0.416-0.463,0.76-0.973,1.035-1.53
		c0.746-1.475,1.082-3.198,1.006-5.173c-0.095-2.362-0.775-4.267-2.041-5.712c-0.132-0.151-0.236-0.26-0.312-0.326
		C154.987,41.643,154.86,41.525,154.822,41.478z"/>
	<path d="M168.159,48.082v-3.926c0-0.16,0.004-0.26,0.014-0.298c0.028-0.142,0.118-0.212,0.269-0.212c0.151,0,0.241,0.07,0.27,0.212
		c0.009,0.028,0.014,0.123,0.014,0.283v3.94h3.926c0.161,0,0.255,0.005,0.284,0.015c0.142,0.028,0.212,0.118,0.212,0.269
		c0,0.151-0.071,0.241-0.212,0.27c-0.028,0.01-0.123,0.015-0.284,0.015h-3.926v3.939c0,0.161-0.005,0.256-0.014,0.284
		c-0.028,0.142-0.118,0.212-0.27,0.212c-0.151,0-0.241-0.07-0.269-0.212c-0.01-0.028-0.014-0.123-0.014-0.284v-3.939h-3.94
		c-0.161,0-0.255-0.005-0.283-0.015c-0.142-0.028-0.213-0.118-0.213-0.27c0-0.15,0.071-0.24,0.213-0.269
		c0.028-0.01,0.123-0.015,0.283-0.015H168.159z"/>
</g>
<g>
	<path d="M179.009,51.711c-0.303,1.54-0.492,2.414-0.567,2.622c-0.057,0.15-0.166,0.264-0.326,0.34
		c-0.161,0.075-0.312,0.062-0.454-0.043c-0.104-0.085-0.123-0.283-0.057-0.595c0.085-0.406,0.193-0.907,0.326-1.503l1.19-5.626
		c0.161-0.804,0.26-1.238,0.297-1.305c0.132-0.235,0.326-0.33,0.581-0.283c0.189,0.028,0.284,0.146,0.284,0.354
		c0,0.028-0.045,0.258-0.135,0.688s-0.191,0.912-0.305,1.445c-0.113,0.534-0.189,0.891-0.227,1.07
		c-0.132,0.614-0.199,1.021-0.199,1.219c0,0.633,0.203,1.059,0.61,1.275c0.416,0.208,0.845,0.203,1.29-0.014
		c0.765-0.426,1.323-1.512,1.672-3.26c0.019-0.085,0.068-0.321,0.149-0.709c0.08-0.388,0.158-0.751,0.234-1.091
		c0.075-0.341,0.123-0.529,0.142-0.567c0.113-0.208,0.284-0.312,0.51-0.312c0.236,0.019,0.354,0.137,0.354,0.354
		c0,0.047-0.024,0.179-0.071,0.396l-0.142,0.681l-0.694,3.245c-0.104,0.511-0.118,0.855-0.042,1.035
		c0.047,0.104,0.108,0.188,0.184,0.255c0.246,0.218,0.454,0.188,0.624-0.085c0.114-0.17,0.25-0.596,0.411-1.275l0.042-0.128
		c0.019-0.019,0.099-0.028,0.241-0.028h0.652c-0.01,0.132-0.066,0.354-0.17,0.666c-0.265,0.766-0.605,1.275-1.021,1.53
		c-0.35,0.208-0.737,0.22-1.162,0.036c-0.425-0.185-0.667-0.479-0.723-0.886c-0.038,0.037-0.151,0.146-0.34,0.325
		c-0.161,0.143-0.345,0.274-0.553,0.397c-0.387,0.217-0.836,0.31-1.346,0.276S179.34,52.013,179.009,51.711z"/>
	<path d="M189.214,52.532c-0.708-0.057-1.333-0.378-1.871-0.964c-0.189-0.235-0.335-0.472-0.439-0.708
		c-0.227-0.558-0.303-1.127-0.227-1.708s0.255-1.129,0.539-1.645c0.284-0.515,0.643-0.966,1.077-1.354
		c0.766-0.651,1.512-1.024,2.239-1.119c0.17-0.038,0.265-0.066,0.284-0.085c0.028-0.038,0.042-0.1,0.042-0.185
		c0.312-1.427,0.477-2.192,0.496-2.296c0.028-0.104,0.047-0.161,0.057-0.17c0.019-0.019,0.104-0.029,0.255-0.029h0.638l-0.581,2.721
		c0.472,0.028,0.931,0.198,1.375,0.511c0.444,0.321,0.768,0.741,0.971,1.261c0.203,0.521,0.271,1.063,0.206,1.631
		c-0.095,0.774-0.39,1.495-0.886,2.161s-1.098,1.179-1.807,1.537c-0.624,0.293-1.11,0.439-1.459,0.439
		c-0.028,0.114-0.09,0.395-0.185,0.844c-0.094,0.448-0.165,0.796-0.212,1.042l-0.057,0.142l-0.255,0.028h-0.638L189.214,52.532z
		 M190.66,45.701c-0.633,0.076-1.219,0.336-1.758,0.779c-0.765,0.634-1.219,1.498-1.36,2.594c-0.142,1.068,0.108,1.843,0.751,2.324
		c0.312,0.256,0.671,0.397,1.077,0.426l1.148-5.442L190.66,45.701z M190.277,51.824c0.217-0.01,0.472-0.076,0.765-0.198
		c0.662-0.246,1.2-0.671,1.616-1.276c0.416-0.604,0.666-1.275,0.751-2.013c0.123-1.058-0.156-1.813-0.836-2.268
		c-0.34-0.217-0.675-0.34-1.006-0.368l-0.935,4.45l-0.241,1.12L190.277,51.824z"/>
</g>
<g>
	<path d="M196.674,41.87c0-0.172-0.046-0.559-0.139-1.161c-0.027-0.172-0.06-0.463-0.1-0.873c-0.013-0.278,0.043-0.453,0.169-0.526
		c0.053-0.033,0.129-0.05,0.228-0.05c0.053,0.014,0.093,0.027,0.119,0.04c0.106,0.053,0.167,0.144,0.184,0.272
		c0.017,0.129,0.015,0.243-0.005,0.342c-0.007,0.205-0.046,0.526-0.119,0.962s-0.109,0.768-0.109,0.992
		c0.119-0.013,0.285-0.048,0.496-0.104c0.212-0.056,0.354-0.091,0.427-0.104c0.205-0.046,0.357-0.046,0.457,0
		c0.152,0.06,0.22,0.177,0.203,0.353s-0.104,0.279-0.263,0.312c-0.113,0.026-0.355-0.005-0.729-0.094
		c-0.374-0.089-0.57-0.134-0.59-0.134c0,0.086,0.023,0.268,0.07,0.546c0.092,0.45,0.147,0.775,0.164,0.978
		c0.017,0.201,0.015,0.527-0.005,0.977c-0.02,0.82-0.033,1.31-0.04,1.469c-0.027,0.363-0.043,0.645-0.05,0.844
		c0,0.013-0.03,0.393-0.089,1.141c0,0.007-0.001,0.033-0.005,0.079s-0.007,0.079-0.01,0.1c-0.003,0.02-0.01,0.046-0.02,0.079
		s-0.025,0.056-0.044,0.069c-0.02,0.014-0.046,0.02-0.08,0.02s-0.061-0.006-0.084-0.02c-0.023-0.014-0.04-0.036-0.049-0.069
		c-0.01-0.033-0.017-0.057-0.02-0.069c-0.003-0.014-0.007-0.045-0.01-0.095c-0.003-0.049-0.005-0.077-0.005-0.084
		c0-0.014-0.014-0.17-0.04-0.472c-0.026-0.301-0.043-0.527-0.049-0.679c-0.007-0.199-0.023-0.48-0.05-0.844
		c-0.007-0.126-0.02-0.511-0.04-1.156c-0.02-0.645-0.023-1.053-0.01-1.225c0.013-0.186,0.07-0.533,0.169-1.042
		c0.046-0.278,0.069-0.459,0.069-0.546c-0.112,0.014-0.27,0.046-0.471,0.1c-0.202,0.053-0.333,0.086-0.392,0.099
		c-0.192,0.04-0.344,0.049-0.456,0.03c-0.159-0.033-0.247-0.137-0.263-0.312s0.051-0.293,0.204-0.353
		c0.099-0.046,0.251-0.046,0.457,0c0.072,0.014,0.215,0.048,0.426,0.104C196.39,41.822,196.555,41.856,196.674,41.87z"/>
</g>
<g>
	<path d="M202.74,52.532c-0.708-0.057-1.333-0.378-1.871-0.964c-0.189-0.235-0.335-0.472-0.439-0.708
		c-0.227-0.558-0.303-1.127-0.227-1.708s0.255-1.129,0.539-1.645c0.284-0.515,0.643-0.966,1.077-1.354
		c0.766-0.651,1.512-1.024,2.239-1.119c0.17-0.038,0.265-0.066,0.284-0.085c0.028-0.038,0.042-0.1,0.042-0.185
		c0.312-1.427,0.477-2.192,0.496-2.296c0.028-0.104,0.047-0.161,0.057-0.17c0.019-0.019,0.104-0.029,0.255-0.029h0.638l-0.581,2.721
		c0.472,0.028,0.931,0.198,1.375,0.511c0.444,0.321,0.768,0.741,0.971,1.261c0.203,0.521,0.271,1.063,0.206,1.631
		c-0.095,0.774-0.39,1.495-0.886,2.161s-1.098,1.179-1.807,1.537c-0.624,0.293-1.11,0.439-1.459,0.439
		c-0.028,0.114-0.09,0.395-0.185,0.844c-0.094,0.448-0.165,0.796-0.212,1.042l-0.057,0.142l-0.255,0.028H202.3L202.74,52.532z
		 M204.186,45.701c-0.633,0.076-1.219,0.336-1.758,0.779c-0.765,0.634-1.219,1.498-1.36,2.594c-0.142,1.068,0.108,1.843,0.751,2.324
		c0.312,0.256,0.671,0.397,1.077,0.426l1.148-5.442L204.186,45.701z M203.803,51.824c0.217-0.01,0.472-0.076,0.765-0.198
		c0.662-0.246,1.2-0.671,1.616-1.276c0.416-0.604,0.666-1.275,0.751-2.013c0.123-1.058-0.156-1.813-0.836-2.268
		c-0.34-0.217-0.675-0.34-1.006-0.368l-0.935,4.45l-0.241,1.12L203.803,51.824z"/>
</g>
<g>
	<path d="M212.592,48.097c0.019-0.01,0.094-0.015,0.227-0.015h7.441h0.539c0.113,0.02,0.187,0.085,0.22,0.198
		c0.033,0.114,0.012,0.208-0.064,0.284c-0.028,0.028-0.071,0.052-0.127,0.07c-0.057,0.02-0.106,0.028-0.149,0.028
		s-0.099-0.002-0.17-0.007s-0.116-0.007-0.135-0.007h-7.54c-0.142,0-0.222-0.005-0.241-0.015c-0.142-0.037-0.21-0.125-0.206-0.262
		C212.391,48.236,212.459,48.144,212.592,48.097z"/>
</g>
<g>
	<path d="M230.45,47.812c-0.038,0.038-0.574,0.69-1.609,1.956c-1.035,1.267-1.585,1.947-1.651,2.041
		c-0.161,0.189-0.255,0.293-0.283,0.312c-0.227,0.16-0.43,0.15-0.609-0.029c-0.151-0.17-0.104-0.396,0.142-0.68l3.473-4.139
		c0.104-0.132,0.16-0.213,0.17-0.241c0.009-0.047-0.024-0.142-0.099-0.283l-0.284-0.652l-0.793-1.87
		c-0.199-0.511-0.345-0.817-0.439-0.922c-0.142-0.179-0.425-0.288-0.851-0.326c-0.019,0-0.062-0.002-0.127-0.007
		c-0.066-0.004-0.116-0.009-0.149-0.014c-0.033-0.004-0.068-0.019-0.106-0.042c-0.038-0.023-0.066-0.059-0.085-0.106
		c-0.038-0.104-0.028-0.205,0.028-0.305c0.057-0.099,0.137-0.167,0.241-0.205c0.047-0.019,0.151-0.029,0.312-0.029
		c0.038,0,0.09,0.002,0.156,0.007c0.066,0.005,0.113,0.007,0.142,0.007c0.708,0.019,1.167,0.222,1.375,0.61
		c0.038,0.066,0.156,0.335,0.354,0.808l0.624,1.445l1.843,4.294l0.708,1.659c0.265,0.586,0.468,0.959,0.609,1.119h-0.638
		c-0.198,0-0.326-0.019-0.383-0.057c-0.057-0.038-0.113-0.087-0.17-0.148s-0.104-0.121-0.142-0.178
		c-0.038-0.057-0.083-0.135-0.135-0.233c-0.052-0.1-0.087-0.175-0.106-0.227c-0.019-0.053-0.054-0.138-0.106-0.256
		c-0.052-0.118-0.083-0.191-0.092-0.22c-0.047-0.122-0.25-0.597-0.609-1.424C230.799,48.651,230.563,48.097,230.45,47.812z"/>
</g>
<g>
	<path d="M239.003,55.254h-0.468c-0.132,0-0.212-0.005-0.241-0.015c-0.113-0.057-0.321-0.236-0.624-0.538
		c-0.548-0.548-0.992-1.162-1.333-1.843c-0.728-1.455-1.054-3.118-0.978-4.988c0.057-1.2,0.281-2.299,0.673-3.296
		s0.928-1.835,1.609-2.516c0.321-0.321,0.539-0.51,0.652-0.567c0.028-0.009,0.108-0.014,0.241-0.014h0.468
		c-0.038,0.047-0.165,0.166-0.382,0.354c-0.444,0.378-0.889,0.982-1.333,1.814c-0.614,1.181-0.955,2.589-1.021,4.224
		c-0.057,1.332,0.092,2.589,0.447,3.77c0.354,1.181,0.886,2.159,1.594,2.934c0.132,0.151,0.236,0.26,0.312,0.326
		C238.838,55.089,238.966,55.206,239.003,55.254z"/>
</g>
<g>
	<path d="M243.033,52.532c-0.708-0.057-1.333-0.378-1.871-0.964c-0.189-0.235-0.335-0.472-0.439-0.708
		c-0.227-0.558-0.303-1.127-0.227-1.708s0.255-1.129,0.539-1.645c0.284-0.515,0.643-0.966,1.077-1.354
		c0.766-0.651,1.512-1.024,2.239-1.119c0.17-0.038,0.265-0.066,0.284-0.085c0.028-0.038,0.042-0.1,0.042-0.185
		c0.312-1.427,0.477-2.192,0.496-2.296c0.028-0.104,0.047-0.161,0.057-0.17c0.019-0.019,0.104-0.029,0.255-0.029h0.638l-0.581,2.721
		c0.472,0.028,0.931,0.198,1.375,0.511c0.444,0.321,0.768,0.741,0.971,1.261c0.203,0.521,0.271,1.063,0.206,1.631
		c-0.095,0.774-0.39,1.495-0.886,2.161s-1.098,1.179-1.807,1.537c-0.624,0.293-1.11,0.439-1.459,0.439
		c-0.028,0.114-0.09,0.395-0.185,0.844c-0.094,0.448-0.165,0.796-0.212,1.042l-0.057,0.142l-0.255,0.028h-0.638L243.033,52.532z
		 M244.479,45.701c-0.633,0.076-1.219,0.336-1.758,0.779c-0.765,0.634-1.219,1.498-1.36,2.594c-0.142,1.068,0.108,1.843,0.751,2.324
		c0.312,0.256,0.671,0.397,1.077,0.426l1.148-5.442L244.479,45.701z M244.096,51.824c0.217-0.01,0.472-0.076,0.765-0.198
		c0.662-0.246,1.2-0.671,1.616-1.276c0.416-0.604,0.666-1.275,0.751-2.013c0.123-1.058-0.156-1.813-0.836-2.268
		c-0.34-0.217-0.675-0.34-1.006-0.368l-0.935,4.45l-0.241,1.12L244.096,51.824z"/>
</g>
<g>
	<path d="M250.499,41.87c0-0.172-0.046-0.559-0.139-1.161c-0.027-0.172-0.06-0.463-0.1-0.873c-0.013-0.278,0.043-0.453,0.169-0.526
		c0.053-0.033,0.129-0.05,0.228-0.05c0.053,0.014,0.093,0.027,0.119,0.04c0.106,0.053,0.167,0.144,0.184,0.272
		c0.017,0.129,0.015,0.243-0.005,0.342c-0.007,0.205-0.046,0.526-0.119,0.962s-0.109,0.768-0.109,0.992
		c0.119-0.013,0.285-0.048,0.496-0.104c0.212-0.056,0.354-0.091,0.427-0.104c0.205-0.046,0.357-0.046,0.457,0
		c0.152,0.06,0.22,0.177,0.203,0.353s-0.104,0.279-0.263,0.312c-0.113,0.026-0.355-0.005-0.729-0.094
		c-0.374-0.089-0.57-0.134-0.59-0.134c0,0.086,0.023,0.268,0.07,0.546c0.092,0.45,0.147,0.775,0.164,0.978
		c0.017,0.201,0.015,0.527-0.005,0.977c-0.02,0.82-0.033,1.31-0.04,1.469c-0.027,0.363-0.043,0.645-0.05,0.844
		c0,0.013-0.03,0.393-0.089,1.141c0,0.007-0.001,0.033-0.005,0.079s-0.007,0.079-0.01,0.1c-0.003,0.02-0.01,0.046-0.02,0.079
		s-0.025,0.056-0.044,0.069c-0.02,0.014-0.046,0.02-0.08,0.02s-0.061-0.006-0.084-0.02c-0.023-0.014-0.04-0.036-0.049-0.069
		c-0.01-0.033-0.017-0.057-0.02-0.069c-0.003-0.014-0.007-0.045-0.01-0.095c-0.003-0.049-0.005-0.077-0.005-0.084
		c0-0.014-0.014-0.17-0.04-0.472c-0.026-0.301-0.043-0.527-0.049-0.679c-0.007-0.199-0.023-0.48-0.05-0.844
		c-0.007-0.126-0.02-0.511-0.04-1.156c-0.02-0.645-0.023-1.053-0.01-1.225c0.013-0.186,0.07-0.533,0.169-1.042
		c0.046-0.278,0.069-0.459,0.069-0.546c-0.112,0.014-0.27,0.046-0.471,0.1c-0.202,0.053-0.333,0.086-0.392,0.099
		c-0.192,0.04-0.344,0.049-0.456,0.03c-0.159-0.033-0.247-0.137-0.263-0.312s0.051-0.293,0.204-0.353
		c0.099-0.046,0.251-0.046,0.457,0c0.072,0.014,0.215,0.048,0.426,0.104C250.215,41.822,250.38,41.856,250.499,41.87z"/>
</g>
<g>
	<path d="M256.565,52.532c-0.708-0.057-1.333-0.378-1.871-0.964c-0.189-0.235-0.335-0.472-0.439-0.708
		c-0.227-0.558-0.303-1.127-0.227-1.708s0.255-1.129,0.539-1.645c0.284-0.515,0.643-0.966,1.077-1.354
		c0.766-0.651,1.512-1.024,2.239-1.119c0.17-0.038,0.265-0.066,0.284-0.085c0.028-0.038,0.042-0.1,0.042-0.185
		c0.312-1.427,0.477-2.192,0.496-2.296c0.028-0.104,0.047-0.161,0.057-0.17c0.019-0.019,0.104-0.029,0.255-0.029h0.638l-0.581,2.721
		c0.472,0.028,0.931,0.198,1.375,0.511c0.444,0.321,0.768,0.741,0.971,1.261c0.203,0.521,0.271,1.063,0.206,1.631
		c-0.095,0.774-0.39,1.495-0.886,2.161s-1.098,1.179-1.807,1.537c-0.624,0.293-1.11,0.439-1.459,0.439
		c-0.028,0.114-0.09,0.395-0.185,0.844c-0.094,0.448-0.165,0.796-0.212,1.042l-0.057,0.142l-0.255,0.028h-0.638L256.565,52.532z
		 M258.011,45.701c-0.633,0.076-1.219,0.336-1.758,0.779c-0.765,0.634-1.219,1.498-1.36,2.594c-0.142,1.068,0.108,1.843,0.751,2.324
		c0.312,0.256,0.671,0.397,1.077,0.426l1.148-5.442L258.011,45.701z M257.628,51.824c0.217-0.01,0.472-0.076,0.765-0.198
		c0.662-0.246,1.2-0.671,1.616-1.276c0.416-0.604,0.666-1.275,0.751-2.013c0.123-1.058-0.156-1.813-0.836-2.268
		c-0.34-0.217-0.675-0.34-1.006-0.368l-0.935,4.45l-0.241,1.12L257.628,51.824z"/>
</g>
<g>
	<path d="M262.7,41.478h0.467c0.142,0,0.222,0.005,0.241,0.014c0.113,0.057,0.321,0.236,0.624,0.539
		c0.548,0.548,0.992,1.162,1.333,1.843c0.727,1.455,1.053,3.118,0.978,4.988c-0.057,1.2-0.281,2.299-0.673,3.296
		c-0.393,0.996-0.929,1.835-1.609,2.516c-0.321,0.321-0.539,0.51-0.652,0.566c-0.028,0.01-0.109,0.015-0.241,0.015H262.7
		c0.038-0.048,0.165-0.165,0.382-0.354c0.076-0.066,0.18-0.175,0.312-0.326c0.416-0.463,0.76-0.973,1.035-1.53
		c0.746-1.475,1.082-3.198,1.006-5.173c-0.095-2.362-0.775-4.267-2.041-5.712c-0.132-0.151-0.236-0.26-0.312-0.326
		C262.865,41.643,262.738,41.525,262.7,41.478z"/>
</g>
<g>
	<path d="M268.509,41.711c-0.04-0.033-0.091-0.089-0.154-0.168c-0.063-0.08-0.101-0.126-0.114-0.139
		c-0.073-0.086-0.109-0.139-0.109-0.159c-0.013-0.033,0-0.096,0.04-0.188c0.125-0.351,0.311-0.648,0.556-0.893
		c0.397-0.37,0.898-0.555,1.503-0.555c0.605,0,1.116,0.175,1.533,0.525c0.337,0.278,0.555,0.64,0.655,1.086
		c0.099,0.447,0.049,0.868-0.149,1.265c-0.073,0.132-0.152,0.258-0.238,0.377s-0.202,0.245-0.347,0.376
		c-0.146,0.133-0.251,0.228-0.317,0.283c-0.066,0.057-0.202,0.164-0.407,0.322c-0.205,0.159-0.321,0.248-0.347,0.269
		c-0.225,0.178-0.536,0.444-0.933,0.798c-0.397,0.354-0.688,0.607-0.873,0.76h3.661v0.585h-4.266v-0.367
		c0-0.093,0.005-0.15,0.015-0.174c0.01-0.022,0.038-0.058,0.084-0.104c0.146-0.126,0.409-0.362,0.789-0.71
		c0.38-0.347,0.656-0.59,0.828-0.729c0.04-0.033,0.137-0.111,0.293-0.233c0.155-0.122,0.27-0.215,0.342-0.278
		c0.073-0.062,0.178-0.156,0.317-0.282c0.139-0.126,0.248-0.238,0.327-0.337c0.08-0.1,0.166-0.214,0.258-0.343
		c0.092-0.129,0.164-0.261,0.213-0.397c0.049-0.135,0.084-0.273,0.104-0.412c0.046-0.377-0.023-0.711-0.208-1.002
		c-0.284-0.423-0.731-0.658-1.339-0.705c-0.291-0.02-0.542,0.013-0.754,0.099C269.035,40.468,268.714,40.944,268.509,41.711z"/>
</g>
</svg>
