<?xml version="1.0" encoding="iso-8859-1"?>
<!-- Generator: Adobe Illustrator 16.0.0, SVG Export Plug-In . SVG Version: 6.00 Build 0)  -->
<!DOCTYPE svg PUBLIC "-//W3C//DTD SVG 1.1//EN" "http://www.w3.org/Graphics/SVG/1.1/DTD/svg11.dtd">
<svg version="1.1" id="Layer_1" xmlns="http://www.w3.org/2000/svg" xmlns:xlink="http://www.w3.org/1999/xlink" x="0px" y="0px"
	 width="566.929px" height="85.039px" viewBox="0 0 566.929 85.039" style="enable-background:new 0 0 566.929 85.039;"
	 xml:space="preserve">
<g>
	<path d="M28.937,36.163c-0.028,0.009-0.052,0.026-0.071,0.049c-0.019,0.024-0.038,0.055-0.057,0.092s-0.038,0.066-0.057,0.085
		c-0.123,0.151-0.284,0.212-0.482,0.184l-0.042-0.014c-0.028-0.009-0.047-0.019-0.057-0.028c-0.161-0.094-0.189-0.292-0.085-0.595
		c0.179-0.557,0.51-0.978,0.992-1.261c0.434-0.255,0.926-0.392,1.474-0.411s1.054,0.081,1.517,0.298
		c0.454,0.217,0.834,0.539,1.141,0.963c0.307,0.425,0.517,0.903,0.631,1.432c0.198,0.851,0.156,1.843-0.128,2.977
		c-0.463,1.805-1.2,3.104-2.211,3.898c-0.747,0.566-1.559,0.812-2.438,0.736c-0.879-0.057-1.573-0.505-2.083-1.347
		c-0.34-0.614-0.411-1.355-0.213-2.225c0.189-0.917,0.624-1.715,1.304-2.396c0.435-0.435,0.855-0.723,1.261-0.864
		c0.558-0.161,1.077-0.182,1.559-0.064s0.888,0.324,1.219,0.617c0.255,0.217,0.458,0.491,0.609,0.822
		c0.019,0.038,0.045,0.104,0.078,0.199c0.033,0.094,0.059,0.161,0.078,0.198c0.019-0.132,0.038-0.231,0.057-0.298
		c0.009-0.075,0.026-0.182,0.049-0.319c0.024-0.137,0.041-0.238,0.05-0.305c0.132-1.275-0.071-2.216-0.609-2.82
		c-0.274-0.302-0.624-0.529-1.049-0.68c-0.369-0.142-0.785-0.163-1.247-0.064c-0.463,0.099-0.799,0.324-1.006,0.673
		C29.026,35.856,28.965,36.012,28.937,36.163z M30.624,38.317c-0.586-0.028-1.094,0.099-1.524,0.382
		c-0.43,0.284-0.768,0.657-1.013,1.12c-0.151,0.284-0.293,0.737-0.425,1.361c-0.113,0.633-0.127,1.105-0.042,1.417
		c0.208,0.604,0.543,0.978,1.006,1.119c0.444,0.171,0.982,0.18,1.616,0.028c0.472-0.15,0.874-0.396,1.205-0.737
		c0.217-0.245,0.43-0.564,0.638-0.957s0.354-0.772,0.439-1.141c0.113-0.378,0.116-0.777,0.007-1.198
		c-0.109-0.42-0.324-0.753-0.645-1C31.544,38.45,31.124,38.317,30.624,38.317z"/>
</g>
<g>
	<path d="M38.164,32.844c0-0.595,0.27-1.044,0.808-1.346c0.189-0.094,0.42-0.142,0.694-0.142c0.236,0.019,0.536,0.133,0.9,0.34
		c0.364,0.208,0.607,0.331,0.73,0.369c0.18,0.066,0.35,0.085,0.51,0.057c0.18-0.028,0.324-0.116,0.433-0.262
		c0.108-0.146,0.167-0.314,0.177-0.503h0.709c0,0.596-0.27,1.044-0.808,1.347c-0.189,0.095-0.42,0.142-0.694,0.142
		c-0.236-0.019-0.537-0.132-0.9-0.34c-0.364-0.208-0.607-0.331-0.73-0.369c-0.18-0.066-0.35-0.085-0.51-0.057
		c-0.18,0.028-0.324,0.116-0.433,0.262c-0.108,0.146-0.167,0.314-0.177,0.503H38.164z"/>
</g>
<g>
	<path d="M37.719,34.519h6.42c-0.095,0.435-0.156,0.681-0.185,0.737c-0.359,0.019-1.25,0.026-2.671,0.021
		c-1.422-0.004-2.332-0.007-2.729-0.007l-0.808,3.784h4.819c-0.066,0.454-0.123,0.694-0.17,0.723
		c-0.019,0.019-0.108,0.028-0.269,0.028h-4.224c-0.17,0-0.265,0.01-0.284,0.029c-0.019,0.009-0.035,0.033-0.049,0.071
		s-0.024,0.078-0.028,0.12c-0.005,0.042-0.012,0.073-0.021,0.092l-0.17,0.822c-0.284,1.304-0.506,2.353-0.666,3.146
		c-0.028,0.132-0.052,0.208-0.071,0.227s-0.108,0.028-0.269,0.028h-0.708L37.719,34.519z"/>
</g>
<g>
	<path d="M48.991,38.305c-0.311,0.285-0.676,0.524-1.096,0.719c-0.42,0.195-0.862,0.28-1.325,0.253
		c-0.522-0.033-0.924-0.256-1.206-0.67c-0.281-0.413-0.395-0.872-0.342-1.374c0.046-0.496,0.2-0.959,0.461-1.389
		c0.261-0.43,0.6-0.777,1.017-1.042c0.304-0.192,0.623-0.309,0.958-0.352c0.333-0.043,0.666,0.008,0.997,0.153
		c0.271,0.126,0.498,0.334,0.679,0.625c0.182,0.291,0.303,0.615,0.362,0.972c0,0.026,0.005,0.101,0.015,0.223
		c0.01,0.123,0.021,0.217,0.035,0.283l0.198-0.407c0.106-0.258,0.254-0.701,0.446-1.33c0.086-0.013,0.308-0.02,0.665-0.02
		c-0.172,0.879-0.526,1.693-1.062,2.44c-0.014,0.013-0.032,0.038-0.055,0.074c-0.023,0.037-0.042,0.064-0.055,0.084
		c-0.046,0.06-0.069,0.099-0.069,0.119c-0.013,0.04-0.01,0.125,0.01,0.258c0.06,0.49,0.179,0.761,0.357,0.813
		c0.073,0.02,0.144,0.014,0.213-0.02c0.07-0.033,0.118-0.083,0.144-0.149h0.675c-0.04,0.265-0.225,0.468-0.556,0.61
		c-0.331,0.142-0.632,0.147-0.903,0.015C49.285,39.066,49.097,38.769,48.991,38.305z M47.84,34.992
		c-0.357-0.093-0.731-0.013-1.121,0.238c-0.589,0.37-0.936,1.051-1.042,2.043c-0.066,0.675,0.113,1.121,0.536,1.339
		c0.191,0.113,0.423,0.159,0.694,0.139c0.351-0.026,0.693-0.129,1.027-0.308s0.617-0.397,0.848-0.655
		c0.066-0.066,0.104-0.124,0.114-0.174c0.01-0.049,0.005-0.127-0.015-0.233l-0.03-0.457c-0.006-0.04-0.01-0.101-0.01-0.184
		c0-0.083-0.003-0.144-0.01-0.184C48.746,35.633,48.416,35.111,47.84,34.992z"/>
	<path d="M51.154,40.855c0.007-0.112,0.44-2.156,1.3-6.131c0.073-0.364,0.162-0.641,0.268-0.833
		c0.225-0.404,0.539-0.741,0.942-1.012c0.403-0.271,0.843-0.459,1.319-0.565c0.748-0.152,1.356-0.089,1.826,0.188
		c0.132,0.073,0.256,0.182,0.372,0.327c0.116,0.146,0.184,0.305,0.203,0.477c0.046,0.304-0.035,0.605-0.243,0.903
		c-0.208,0.297-0.468,0.516-0.779,0.655c0.238,0.211,0.4,0.4,0.486,0.565c0.166,0.297,0.26,0.642,0.283,1.032
		s-0.031,0.771-0.164,1.141c-0.172,0.463-0.455,0.861-0.848,1.195c-0.394,0.334-0.832,0.557-1.315,0.67
		c-0.741,0.165-1.409,0.073-2.004-0.278c-0.284-0.152-0.46-0.298-0.526-0.437h-0.01c-0.066,0.351-0.172,0.863-0.317,1.538
		l-0.119,0.565H51.154z M55.5,32.759c-0.477,0.04-0.917,0.179-1.32,0.417c-0.403,0.238-0.698,0.559-0.883,0.962
		c-0.053,0.105-0.125,0.37-0.218,0.793l-0.278,1.33c-0.073,0.357-0.125,0.599-0.159,0.724c-0.099,0.47-0.096,0.837,0.01,1.101
		c0.146,0.351,0.41,0.604,0.794,0.759c0.383,0.155,0.774,0.203,1.17,0.144c0.371-0.053,0.691-0.182,0.962-0.387
		c0.542-0.41,0.843-1.088,0.903-2.034c0.026-0.291-0.008-0.581-0.104-0.868c-0.096-0.288-0.237-0.491-0.422-0.61
		c-0.04-0.026-0.105-0.026-0.198,0c-0.218,0.046-0.479,0.069-0.784,0.069c-0.457,0-0.761-0.04-0.913-0.119
		c-0.086-0.046-0.124-0.109-0.114-0.188c0.01-0.079,0.055-0.142,0.134-0.188c0.139-0.092,0.41-0.145,0.813-0.159
		c0.403-0.013,0.714,0.017,0.933,0.089c0.093,0.04,0.149,0.056,0.169,0.05c0.026-0.007,0.096-0.046,0.208-0.119
		c0.152-0.112,0.276-0.263,0.372-0.452c0.096-0.188,0.144-0.378,0.144-0.57c0-0.218-0.056-0.383-0.168-0.496
		c-0.172-0.165-0.453-0.248-0.844-0.248H55.5z"/>
</g>
<g>
	<rect x="26.102" y="50.099" width="32.29" height="0.574"/>
</g>
<g>
	<path d="M33.351,55.475c-0.028,0.01-0.052,0.026-0.071,0.05s-0.038,0.054-0.057,0.092s-0.038,0.066-0.057,0.085
		c-0.123,0.151-0.284,0.213-0.482,0.185l-0.042-0.015c-0.028-0.009-0.047-0.019-0.057-0.028c-0.161-0.094-0.189-0.293-0.085-0.595
		c0.179-0.558,0.51-0.979,0.992-1.262c0.434-0.255,0.926-0.392,1.474-0.411c0.548-0.019,1.054,0.08,1.517,0.298
		c0.454,0.217,0.834,0.538,1.141,0.964c0.307,0.425,0.517,0.902,0.631,1.432c0.198,0.85,0.156,1.842-0.128,2.976
		c-0.463,1.806-1.2,3.104-2.211,3.898c-0.747,0.566-1.559,0.812-2.438,0.736c-0.879-0.057-1.573-0.505-2.083-1.347
		c-0.34-0.613-0.411-1.355-0.213-2.225c0.189-0.917,0.624-1.715,1.304-2.396c0.435-0.435,0.855-0.723,1.261-0.864
		c0.558-0.161,1.077-0.182,1.559-0.064c0.482,0.119,0.888,0.324,1.219,0.617c0.255,0.217,0.458,0.491,0.609,0.822
		c0.019,0.037,0.045,0.104,0.078,0.198s0.059,0.16,0.078,0.198c0.019-0.132,0.038-0.231,0.057-0.298
		c0.009-0.075,0.026-0.182,0.049-0.318c0.024-0.138,0.041-0.239,0.05-0.305c0.132-1.276-0.071-2.216-0.609-2.821
		c-0.274-0.302-0.624-0.528-1.049-0.68c-0.369-0.142-0.785-0.163-1.247-0.064c-0.463,0.1-0.799,0.324-1.006,0.674
		C33.44,55.167,33.379,55.323,33.351,55.475z M35.038,57.629c-0.586-0.028-1.094,0.099-1.524,0.383
		c-0.43,0.283-0.768,0.656-1.013,1.119c-0.151,0.284-0.293,0.737-0.425,1.361c-0.113,0.633-0.127,1.105-0.042,1.417
		c0.208,0.604,0.543,0.978,1.006,1.119c0.444,0.171,0.982,0.18,1.616,0.028c0.472-0.15,0.874-0.396,1.205-0.736
		c0.217-0.246,0.43-0.564,0.638-0.957c0.208-0.392,0.354-0.772,0.439-1.141c0.113-0.378,0.116-0.777,0.007-1.198
		c-0.109-0.42-0.324-0.753-0.645-0.999C35.958,57.761,35.538,57.629,35.038,57.629z"/>
	<path d="M40.154,56.963c0.454,0,0.784,0.005,0.992,0.014c0.17,0.236,0.394,0.596,0.673,1.077c0.279,0.482,0.447,0.766,0.503,0.851
		l0.383,0.652l0.624-0.609c0.113-0.114,0.404-0.409,0.872-0.887c0.468-0.477,0.838-0.838,1.113-1.084
		c0.208-0.009,0.534-0.014,0.978-0.014c-0.057,0.075-0.125,0.151-0.205,0.227c-0.081,0.075-0.17,0.161-0.27,0.255
		c-0.099,0.095-0.172,0.166-0.22,0.213l-1.729,1.687l-0.624,0.609c-0.142,0.142-0.218,0.227-0.227,0.255
		c0,0.02,0.042,0.104,0.127,0.255c1.001,1.56,1.663,2.622,1.984,3.189c-0.539,0-0.874-0.01-1.006-0.028
		c-0.227-0.368-0.534-0.904-0.921-1.608c-0.388-0.704-0.629-1.137-0.723-1.297l-2.565,2.664l-0.269,0.255
		c-0.208,0.01-0.534,0.015-0.978,0.015l0.751-0.751l2.679-2.622l0.057-0.085L40.154,56.963z"/>
</g>
<g>
	<path d="M50.952,58.664c-0.311,0.284-0.676,0.524-1.096,0.719c-0.42,0.195-0.862,0.279-1.325,0.253
		c-0.522-0.033-0.924-0.256-1.206-0.669c-0.281-0.414-0.395-0.872-0.342-1.375c0.046-0.496,0.2-0.959,0.461-1.389
		s0.6-0.777,1.017-1.042c0.304-0.191,0.623-0.309,0.958-0.352c0.333-0.043,0.666,0.008,0.997,0.153
		c0.271,0.126,0.498,0.334,0.679,0.625c0.182,0.291,0.303,0.615,0.362,0.973c0,0.026,0.005,0.101,0.015,0.223
		c0.01,0.123,0.021,0.217,0.035,0.283l0.198-0.407c0.106-0.258,0.254-0.7,0.446-1.329c0.086-0.013,0.308-0.02,0.665-0.02
		c-0.172,0.88-0.526,1.693-1.062,2.44c-0.014,0.014-0.032,0.038-0.055,0.074c-0.023,0.037-0.042,0.064-0.055,0.085
		c-0.046,0.06-0.069,0.099-0.069,0.118c-0.013,0.04-0.01,0.126,0.01,0.259c0.06,0.489,0.179,0.761,0.357,0.813
		c0.073,0.02,0.144,0.013,0.213-0.021c0.07-0.032,0.118-0.082,0.144-0.148h0.675c-0.04,0.265-0.225,0.468-0.556,0.61
		c-0.331,0.142-0.632,0.146-0.903,0.015C51.246,59.425,51.058,59.127,50.952,58.664z M49.801,55.35
		c-0.357-0.092-0.731-0.013-1.121,0.238c-0.589,0.371-0.936,1.052-1.042,2.044c-0.066,0.675,0.113,1.121,0.536,1.34
		c0.191,0.112,0.423,0.158,0.694,0.139c0.351-0.026,0.693-0.129,1.027-0.308s0.617-0.396,0.848-0.655
		c0.066-0.065,0.104-0.124,0.114-0.173c0.01-0.05,0.005-0.128-0.015-0.233l-0.03-0.456c-0.006-0.04-0.01-0.102-0.01-0.184
		c0-0.083-0.003-0.145-0.01-0.184C50.707,55.991,50.376,55.469,49.801,55.35z"/>
</g>
<g>
	<path d="M64.361,51.618c0.057-0.094,0.198-0.142,0.425-0.142h8.093h0.595c0.123,0.02,0.208,0.083,0.255,0.191
		s0.023,0.205-0.071,0.29c-0.057,0.058-0.156,0.086-0.297,0.086h-8.575c-0.142,0-0.227-0.005-0.255-0.015
		c-0.085-0.019-0.146-0.073-0.184-0.163C64.309,51.776,64.314,51.694,64.361,51.618z M64.531,48.741
		c0.019-0.01,0.099-0.015,0.241-0.015h8.122l0.297-0.014c0.199,0,0.298,0.005,0.298,0.014c0.113,0.02,0.191,0.085,0.234,0.199
		c0.042,0.113,0.021,0.208-0.064,0.283c-0.057,0.057-0.161,0.085-0.312,0.085h-8.519c-0.151,0-0.241-0.005-0.269-0.015
		c-0.151-0.028-0.229-0.115-0.234-0.262S64.39,48.779,64.531,48.741z"/>
	<path d="M80.717,45.027c0.567-0.358,1.176-0.496,1.829-0.41c0.652,0.085,1.195,0.378,1.63,0.878
		c0.661,0.729,0.992,1.989,0.992,3.784c0,1.37-0.133,2.415-0.397,3.133c-0.321,0.859-0.822,1.437-1.502,1.729
		c-0.51,0.227-1.044,0.285-1.602,0.177s-1.021-0.361-1.389-0.759c-0.708-0.736-1.063-2.063-1.063-3.982
		c0-0.085,0.002-0.215,0.007-0.39c0.004-0.175,0.007-0.305,0.007-0.39c0-0.17,0.019-0.425,0.057-0.766
		C79.437,46.587,79.914,45.585,80.717,45.027z M83.538,45.864c-0.397-0.416-0.891-0.603-1.481-0.561
		c-0.59,0.043-1.042,0.291-1.354,0.744c-0.18,0.256-0.314,0.589-0.404,1c-0.09,0.41-0.142,0.765-0.156,1.062
		s-0.021,0.721-0.021,1.269c0,0.539,0.009,0.978,0.028,1.318c0.019,0.34,0.076,0.725,0.17,1.155c0.095,0.43,0.231,0.777,0.411,1.041
		c0.18,0.256,0.411,0.451,0.695,0.589c0.283,0.137,0.581,0.196,0.893,0.177c0.567-0.047,1.016-0.312,1.347-0.794
		c0.179-0.255,0.316-0.616,0.411-1.084c0.094-0.468,0.148-0.867,0.163-1.197c0.014-0.331,0.021-0.784,0.021-1.361
		c0-1.19-0.09-2.041-0.27-2.551C83.849,46.304,83.698,46.034,83.538,45.864z"/>
</g>
</svg>
