<?xml version="1.0" encoding="iso-8859-1"?>
<!-- Generator: Adobe Illustrator 16.0.0, SVG Export Plug-In . SVG Version: 6.00 Build 0)  -->
<!DOCTYPE svg PUBLIC "-//W3C//DTD SVG 1.1//EN" "http://www.w3.org/Graphics/SVG/1.1/DTD/svg11.dtd">
<svg version="1.1" id="Layer_1" xmlns="http://www.w3.org/2000/svg" xmlns:xlink="http://www.w3.org/1999/xlink" x="0px" y="0px"
	 width="566.929px" height="85.039px" viewBox="0 0 566.929 85.039" style="enable-background:new 0 0 566.929 85.039;"
	 xml:space="preserve">
<g>
	<path d="M28.937,35.685c-0.028,0.009-0.052,0.026-0.071,0.049c-0.019,0.024-0.038,0.055-0.057,0.092s-0.038,0.066-0.057,0.085
		c-0.123,0.151-0.284,0.212-0.482,0.184l-0.042-0.014c-0.028-0.009-0.047-0.019-0.057-0.028c-0.161-0.094-0.189-0.292-0.085-0.595
		c0.179-0.557,0.51-0.978,0.992-1.261c0.434-0.255,0.926-0.392,1.474-0.411s1.054,0.081,1.517,0.298
		c0.454,0.217,0.834,0.539,1.141,0.963c0.307,0.425,0.517,0.903,0.631,1.432c0.198,0.851,0.156,1.843-0.128,2.977
		c-0.463,1.805-1.2,3.104-2.211,3.897c-0.747,0.567-1.559,0.813-2.438,0.737c-0.879-0.057-1.573-0.505-2.083-1.346
		c-0.34-0.614-0.411-1.356-0.213-2.225c0.189-0.917,0.624-1.715,1.304-2.396c0.435-0.435,0.855-0.723,1.261-0.864
		c0.558-0.161,1.077-0.182,1.559-0.064s0.888,0.324,1.219,0.617c0.255,0.217,0.458,0.491,0.609,0.822
		c0.019,0.038,0.045,0.104,0.078,0.199c0.033,0.094,0.059,0.161,0.078,0.198c0.019-0.132,0.038-0.231,0.057-0.298
		c0.009-0.075,0.026-0.182,0.049-0.319c0.024-0.137,0.041-0.238,0.05-0.305c0.132-1.275-0.071-2.216-0.609-2.82
		c-0.274-0.302-0.624-0.529-1.049-0.68c-0.369-0.142-0.785-0.163-1.247-0.064c-0.463,0.099-0.799,0.324-1.006,0.673
		C29.026,35.377,28.965,35.533,28.937,35.685z M30.624,37.839c-0.586-0.028-1.094,0.099-1.524,0.382
		c-0.43,0.284-0.768,0.657-1.013,1.12c-0.151,0.284-0.293,0.737-0.425,1.361c-0.113,0.633-0.127,1.105-0.042,1.417
		c0.208,0.604,0.543,0.979,1.006,1.119c0.444,0.17,0.982,0.18,1.616,0.029c0.472-0.151,0.874-0.397,1.205-0.738
		c0.217-0.245,0.43-0.564,0.638-0.957s0.354-0.772,0.439-1.141c0.113-0.378,0.116-0.777,0.007-1.198
		c-0.109-0.42-0.324-0.753-0.645-1C31.544,37.971,31.124,37.839,30.624,37.839z"/>
	<path d="M37.71,34.04h6.42c-0.095,0.435-0.156,0.681-0.185,0.737c-0.359,0.019-1.25,0.026-2.671,0.021
		c-1.422-0.004-2.332-0.007-2.729-0.007l-0.808,3.784h4.819c-0.066,0.454-0.123,0.694-0.17,0.723
		c-0.019,0.019-0.108,0.028-0.269,0.028h-4.224c-0.17,0-0.265,0.01-0.284,0.029c-0.019,0.009-0.035,0.033-0.049,0.071
		s-0.024,0.078-0.028,0.12c-0.005,0.042-0.012,0.073-0.021,0.092l-0.17,0.822c-0.284,1.304-0.506,2.353-0.666,3.146
		c-0.028,0.133-0.052,0.207-0.071,0.227s-0.108,0.028-0.269,0.028h-0.708L37.71,34.04z"/>
</g>
<g>
	<path d="M48.991,37.826c-0.311,0.285-0.676,0.524-1.096,0.719c-0.42,0.195-0.862,0.28-1.325,0.253
		c-0.522-0.033-0.924-0.256-1.206-0.67c-0.281-0.413-0.395-0.872-0.342-1.374c0.046-0.496,0.2-0.959,0.461-1.389
		c0.261-0.43,0.6-0.777,1.017-1.042c0.304-0.192,0.623-0.309,0.958-0.352c0.333-0.043,0.666,0.008,0.997,0.153
		c0.271,0.126,0.498,0.334,0.679,0.625c0.182,0.291,0.303,0.615,0.362,0.972c0,0.026,0.005,0.101,0.015,0.223
		c0.01,0.123,0.021,0.217,0.035,0.283l0.198-0.407c0.106-0.258,0.254-0.701,0.446-1.33c0.086-0.013,0.308-0.02,0.665-0.02
		c-0.172,0.879-0.526,1.693-1.062,2.44c-0.014,0.013-0.032,0.038-0.055,0.074c-0.023,0.037-0.042,0.064-0.055,0.084
		c-0.046,0.06-0.069,0.099-0.069,0.119c-0.013,0.04-0.01,0.125,0.01,0.258c0.06,0.49,0.179,0.761,0.357,0.813
		c0.073,0.02,0.144,0.014,0.213-0.02c0.07-0.033,0.118-0.083,0.144-0.149h0.675c-0.04,0.265-0.225,0.468-0.556,0.61
		c-0.331,0.142-0.632,0.147-0.903,0.015C49.285,38.587,49.097,38.29,48.991,37.826z M47.84,34.513
		c-0.357-0.093-0.731-0.013-1.121,0.238c-0.589,0.37-0.936,1.051-1.042,2.043c-0.066,0.675,0.113,1.121,0.536,1.339
		c0.191,0.113,0.423,0.159,0.694,0.139c0.351-0.026,0.693-0.129,1.027-0.308s0.617-0.397,0.848-0.655
		c0.066-0.066,0.104-0.124,0.114-0.174c0.01-0.049,0.005-0.127-0.015-0.233l-0.03-0.457c-0.006-0.04-0.01-0.101-0.01-0.184
		c0-0.083-0.003-0.144-0.01-0.184C48.746,35.154,48.416,34.632,47.84,34.513z"/>
	<path d="M51.154,40.376c0.007-0.112,0.44-2.156,1.3-6.131c0.073-0.364,0.162-0.641,0.268-0.833
		c0.225-0.404,0.539-0.741,0.942-1.012c0.403-0.271,0.843-0.459,1.319-0.565c0.748-0.152,1.356-0.089,1.826,0.188
		c0.132,0.073,0.256,0.182,0.372,0.327c0.116,0.146,0.184,0.305,0.203,0.477c0.046,0.304-0.035,0.605-0.243,0.903
		c-0.208,0.297-0.468,0.516-0.779,0.655c0.238,0.211,0.4,0.4,0.486,0.565c0.166,0.297,0.26,0.642,0.283,1.032
		s-0.031,0.771-0.164,1.141c-0.172,0.463-0.455,0.861-0.848,1.195c-0.394,0.334-0.832,0.557-1.315,0.67
		c-0.741,0.165-1.409,0.073-2.004-0.278c-0.284-0.152-0.46-0.298-0.526-0.437h-0.01c-0.066,0.351-0.172,0.863-0.317,1.538
		l-0.119,0.565H51.154z M55.5,32.28c-0.477,0.04-0.917,0.179-1.32,0.417c-0.403,0.238-0.698,0.559-0.883,0.962
		c-0.053,0.105-0.125,0.37-0.218,0.793l-0.278,1.33c-0.073,0.357-0.125,0.599-0.159,0.724c-0.099,0.47-0.096,0.837,0.01,1.101
		c0.146,0.351,0.41,0.604,0.794,0.759c0.383,0.155,0.774,0.203,1.17,0.144c0.371-0.053,0.691-0.182,0.962-0.387
		c0.542-0.41,0.843-1.088,0.903-2.034c0.026-0.291-0.008-0.581-0.104-0.868c-0.096-0.288-0.237-0.491-0.422-0.61
		c-0.04-0.026-0.105-0.026-0.198,0c-0.218,0.046-0.479,0.069-0.784,0.069c-0.457,0-0.761-0.04-0.913-0.119
		c-0.086-0.046-0.124-0.109-0.114-0.188c0.01-0.079,0.055-0.142,0.134-0.188c0.139-0.092,0.41-0.145,0.813-0.159
		c0.403-0.013,0.714,0.017,0.933,0.089c0.093,0.04,0.149,0.056,0.169,0.05c0.026-0.007,0.096-0.046,0.208-0.119
		c0.152-0.112,0.276-0.263,0.372-0.452c0.096-0.188,0.144-0.378,0.144-0.57c0-0.218-0.056-0.383-0.168-0.496
		c-0.172-0.165-0.453-0.248-0.844-0.248H55.5z"/>
</g>
<g>
	<rect x="26.102" y="49.62" width="32.29" height="0.574"/>
</g>
<g>
	<path d="M33.351,54.994c-0.028,0.01-0.052,0.026-0.071,0.05s-0.038,0.054-0.057,0.092s-0.038,0.066-0.057,0.085
		c-0.123,0.151-0.284,0.213-0.482,0.185l-0.042-0.015c-0.028-0.009-0.047-0.019-0.057-0.028c-0.161-0.094-0.189-0.293-0.085-0.595
		c0.179-0.558,0.51-0.979,0.992-1.262c0.434-0.255,0.926-0.392,1.474-0.411c0.548-0.019,1.054,0.08,1.517,0.298
		c0.454,0.217,0.834,0.538,1.141,0.964c0.307,0.425,0.517,0.902,0.631,1.432c0.198,0.85,0.156,1.842-0.128,2.976
		c-0.463,1.806-1.2,3.104-2.211,3.898c-0.747,0.566-1.559,0.812-2.438,0.736c-0.879-0.057-1.573-0.505-2.083-1.347
		c-0.34-0.613-0.411-1.355-0.213-2.225c0.189-0.917,0.624-1.715,1.304-2.396c0.435-0.435,0.855-0.723,1.261-0.864
		c0.558-0.161,1.077-0.182,1.559-0.064c0.482,0.119,0.888,0.324,1.219,0.617c0.255,0.217,0.458,0.491,0.609,0.822
		c0.019,0.037,0.045,0.104,0.078,0.198s0.059,0.16,0.078,0.198c0.019-0.132,0.038-0.231,0.057-0.298
		c0.009-0.075,0.026-0.182,0.049-0.318c0.024-0.138,0.041-0.239,0.05-0.305c0.132-1.276-0.071-2.216-0.609-2.821
		c-0.274-0.302-0.624-0.528-1.049-0.68c-0.369-0.142-0.785-0.163-1.247-0.064c-0.463,0.1-0.799,0.324-1.006,0.674
		C33.44,54.687,33.379,54.843,33.351,54.994z M35.038,57.148c-0.586-0.028-1.094,0.099-1.524,0.383
		c-0.43,0.283-0.768,0.656-1.013,1.119c-0.151,0.284-0.293,0.737-0.425,1.361c-0.113,0.633-0.127,1.105-0.042,1.417
		c0.208,0.604,0.543,0.978,1.006,1.119c0.444,0.171,0.982,0.18,1.616,0.028c0.472-0.15,0.874-0.396,1.205-0.736
		c0.217-0.246,0.43-0.564,0.638-0.957c0.208-0.392,0.354-0.772,0.439-1.141c0.113-0.378,0.116-0.777,0.007-1.198
		c-0.109-0.42-0.324-0.753-0.645-0.999C35.958,57.28,35.538,57.148,35.038,57.148z"/>
	<path d="M40.154,56.482c0.454,0,0.784,0.005,0.992,0.014c0.17,0.236,0.394,0.596,0.673,1.077c0.279,0.482,0.447,0.766,0.503,0.851
		l0.383,0.652l0.624-0.609c0.113-0.114,0.404-0.409,0.872-0.887c0.468-0.477,0.838-0.838,1.113-1.084
		c0.208-0.009,0.534-0.014,0.978-0.014c-0.057,0.075-0.125,0.151-0.205,0.227c-0.081,0.075-0.17,0.161-0.27,0.255
		c-0.099,0.095-0.172,0.166-0.22,0.213l-1.729,1.687l-0.624,0.609c-0.142,0.142-0.218,0.227-0.227,0.255
		c0,0.02,0.042,0.104,0.127,0.255c1.001,1.56,1.663,2.622,1.984,3.189c-0.539,0-0.874-0.01-1.006-0.028
		c-0.227-0.368-0.534-0.904-0.921-1.608c-0.388-0.704-0.629-1.137-0.723-1.297l-2.565,2.664l-0.269,0.255
		c-0.208,0.01-0.534,0.015-0.978,0.015l0.751-0.751l2.679-2.622l0.057-0.085L40.154,56.482z"/>
</g>
<g>
	<path d="M50.952,58.186c-0.311,0.284-0.676,0.524-1.096,0.719c-0.42,0.195-0.862,0.279-1.325,0.253
		c-0.522-0.033-0.924-0.256-1.206-0.669c-0.281-0.414-0.395-0.872-0.342-1.375c0.046-0.496,0.2-0.959,0.461-1.389
		s0.6-0.777,1.017-1.042c0.304-0.191,0.623-0.309,0.958-0.352c0.333-0.043,0.666,0.008,0.997,0.153
		c0.271,0.126,0.498,0.334,0.679,0.625c0.182,0.291,0.303,0.615,0.362,0.973c0,0.026,0.005,0.101,0.015,0.223
		c0.01,0.123,0.021,0.217,0.035,0.283l0.198-0.407c0.106-0.258,0.254-0.7,0.446-1.329c0.086-0.013,0.308-0.02,0.665-0.02
		c-0.172,0.88-0.526,1.693-1.062,2.44c-0.014,0.014-0.032,0.038-0.055,0.074c-0.023,0.037-0.042,0.064-0.055,0.085
		c-0.046,0.06-0.069,0.099-0.069,0.118c-0.013,0.04-0.01,0.126,0.01,0.259c0.06,0.489,0.179,0.761,0.357,0.813
		c0.073,0.02,0.144,0.013,0.213-0.021c0.07-0.032,0.118-0.082,0.144-0.148h0.675c-0.04,0.265-0.225,0.468-0.556,0.61
		c-0.331,0.142-0.632,0.146-0.903,0.015C51.246,58.946,51.058,58.648,50.952,58.186z M49.801,54.871
		c-0.357-0.092-0.731-0.013-1.121,0.238c-0.589,0.371-0.936,1.052-1.042,2.044c-0.066,0.675,0.113,1.121,0.536,1.34
		c0.191,0.112,0.423,0.158,0.694,0.139c0.351-0.026,0.693-0.129,1.027-0.308s0.617-0.396,0.848-0.655
		c0.066-0.065,0.104-0.124,0.114-0.173c0.01-0.05,0.005-0.128-0.015-0.233l-0.03-0.456c-0.006-0.04-0.01-0.102-0.01-0.184
		c0-0.083-0.003-0.145-0.01-0.184C50.707,55.513,50.376,54.99,49.801,54.871z"/>
</g>
<g>
	<path d="M64.361,51.139c0.057-0.094,0.198-0.142,0.425-0.142h8.093h0.595c0.123,0.02,0.208,0.083,0.255,0.191
		s0.023,0.205-0.071,0.29c-0.057,0.058-0.156,0.086-0.297,0.086h-8.575c-0.142,0-0.227-0.005-0.255-0.015
		c-0.085-0.019-0.146-0.073-0.184-0.163C64.309,51.297,64.314,51.215,64.361,51.139z M64.531,48.262
		c0.019-0.01,0.099-0.015,0.241-0.015h8.122l0.297-0.014c0.199,0,0.298,0.005,0.298,0.014c0.113,0.02,0.191,0.085,0.234,0.199
		c0.042,0.113,0.021,0.208-0.064,0.283c-0.057,0.057-0.161,0.085-0.312,0.085h-8.519c-0.151,0-0.241-0.005-0.269-0.015
		c-0.151-0.028-0.229-0.115-0.234-0.262S64.39,48.3,64.531,48.262z"/>
</g>
<g>
	<path d="M80.092,41.297v-0.482c0-0.198,0.042-0.354,0.127-0.468l0.17-0.283l0.667-1.021l2.608-4.082
		c0.188-0.302,0.302-0.468,0.34-0.496c0.028-0.019,0.132-0.028,0.312-0.028h0.765v6.109h1.616v0.751h-1.616v2.565h-0.893v-2.565
		H80.092z M84.231,35.245c-0.028,0.066-0.074,0.163-0.135,0.291c-0.062,0.127-0.111,0.225-0.149,0.291
		c-0.198,0.35-0.536,0.905-1.013,1.665c-0.478,0.761-0.912,1.448-1.304,2.062s-0.598,0.945-0.616,0.992h3.217V35.245z"/>
</g>
<g>
	<path d="M87.519,39.312c0.038-0.113,0.198-0.387,0.482-0.822c0.444-0.624,0.93-1.025,1.459-1.205
		c0.104-0.038,0.225-0.066,0.362-0.085c0.137-0.019,0.246-0.03,0.326-0.035s0.21-0.005,0.39,0c0.18,0.005,0.293,0.007,0.34,0.007
		h4.323c0.312,0,0.496,0.066,0.553,0.199c0.019,0.057,0.028,0.094,0.028,0.113c0.009,0.113-0.023,0.222-0.099,0.326
		s-0.17,0.17-0.283,0.198c-0.066,0.019-0.218,0.028-0.454,0.028h-1.162c-0.076,0-0.128,0.019-0.156,0.057
		c-0.009,0.019-0.028,0.109-0.057,0.27s-0.057,0.331-0.085,0.51c-0.028,0.179-0.047,0.283-0.057,0.312
		c-0.246,1.663-0.194,2.939,0.156,3.827c0.009,0.019,0.028,0.064,0.057,0.135s0.045,0.121,0.05,0.148
		c0.004,0.029,0.012,0.071,0.021,0.128s0.007,0.106-0.007,0.149c-0.014,0.042-0.036,0.087-0.064,0.135
		c-0.094,0.132-0.22,0.219-0.375,0.262c-0.156,0.042-0.291-0.003-0.404-0.135c-0.123-0.16-0.255-0.572-0.397-1.233
		c-0.198-1.096-0.142-2.461,0.17-4.096c0.038-0.208,0.071-0.364,0.1-0.468h-1.163c-0.293,1.795-0.803,3.6-1.53,5.414
		c-0.066,0.17-0.142,0.298-0.227,0.383c-0.095,0.085-0.201,0.132-0.319,0.142s-0.225-0.023-0.319-0.099
		c-0.104-0.104-0.123-0.256-0.057-0.454l0.397-1.021c0.312-0.878,0.694-2.333,1.148-4.365h-0.524c-0.35,0-0.605,0.047-0.766,0.142
		c-0.302,0.161-0.59,0.482-0.864,0.964c-0.057,0.085-0.095,0.132-0.114,0.142c-0.028,0.019-0.113,0.028-0.255,0.028H87.519z"/>
</g>
<g>
	<rect x="79.681" y="49.62" width="16.627" height="0.574"/>
</g>
<g>
	<path d="M90.522,61.585c-0.009,0.037-0.021,0.122-0.035,0.255c-0.014,0.132-0.028,0.25-0.042,0.354
		c-0.014,0.104-0.026,0.165-0.036,0.184c-0.019,0.02-0.109,0.085-0.27,0.198c-0.368,0.236-0.772,0.421-1.211,0.553
		c-0.439,0.133-0.917,0.175-1.432,0.128c-0.515-0.047-0.952-0.231-1.311-0.553c-0.331-0.302-0.565-0.688-0.702-1.155
		c-0.137-0.468-0.168-0.961-0.092-1.48c0.113-0.784,0.427-1.508,0.942-2.169c0.515-0.661,1.136-1.129,1.864-1.403
		c0.312-0.113,0.702-0.175,1.169-0.184c0.467-0.01,0.872,0.042,1.211,0.155c0.217,0.066,0.524,0.213,0.921,0.439l-0.298,0.779
		c-0.435-0.264-0.666-0.406-0.694-0.425c-0.293-0.123-0.628-0.198-1.006-0.227s-0.742,0.009-1.091,0.113
		c-0.586,0.188-1.056,0.558-1.41,1.105s-0.588,1.157-0.702,1.828c-0.076,0.473-0.052,0.921,0.071,1.347
		c0.123,0.425,0.369,0.737,0.737,0.936c0.472,0.236,1.063,0.26,1.771,0.07c0.387-0.094,0.78-0.269,1.176-0.524
		c0.047-0.028,0.121-0.08,0.22-0.155C90.373,61.679,90.456,61.622,90.522,61.585z"/>
</g>
<g>
	<path d="M104.392,43.812h0.978c0,0.019-0.109,0.533-0.326,1.545c-0.217,1.011-0.454,2.114-0.708,3.31
		c-0.255,1.195-0.416,1.977-0.482,2.346c-0.095,0.481-0.191,0.857-0.291,1.126c-0.099,0.27-0.262,0.527-0.489,0.772
		c-0.321,0.359-0.723,0.619-1.205,0.78c-0.482,0.16-0.959,0.229-1.431,0.205c-0.473-0.023-0.945-0.106-1.417-0.248
		c-0.189-0.066-0.463-0.185-0.822-0.354l0.354-0.907c0.038,0.028,0.102,0.081,0.191,0.156c0.09,0.076,0.153,0.128,0.191,0.156
		c0.038,0.028,0.094,0.065,0.17,0.113c0.076,0.047,0.156,0.09,0.241,0.127c0.491,0.236,1.068,0.291,1.729,0.163
		c0.661-0.127,1.138-0.432,1.431-0.914c0.123-0.208,0.246-0.604,0.369-1.19c0.047-0.255,0.196-0.971,0.446-2.147
		c0.25-1.176,0.489-2.296,0.716-3.358C104.265,44.428,104.382,43.868,104.392,43.812z"/>
</g>
<g>
	<path d="M105.095,49.452c0.007-0.113,0.44-2.156,1.3-6.132c0.073-0.364,0.162-0.641,0.268-0.833
		c0.225-0.404,0.539-0.741,0.942-1.012c0.403-0.271,0.843-0.459,1.319-0.565c0.748-0.152,1.356-0.089,1.826,0.188
		c0.132,0.073,0.256,0.182,0.372,0.327c0.116,0.146,0.184,0.305,0.203,0.477c0.046,0.304-0.035,0.605-0.243,0.903
		c-0.208,0.297-0.468,0.516-0.779,0.654c0.238,0.212,0.4,0.4,0.486,0.565c0.166,0.298,0.26,0.642,0.283,1.032
		s-0.031,0.771-0.164,1.141c-0.172,0.464-0.455,0.862-0.848,1.196c-0.394,0.334-0.832,0.557-1.315,0.669
		c-0.741,0.166-1.409,0.073-2.004-0.277c-0.284-0.152-0.46-0.298-0.526-0.437h-0.01c-0.066,0.351-0.172,0.863-0.317,1.538
		l-0.119,0.565H105.095z M109.44,41.356c-0.477,0.04-0.917,0.179-1.32,0.417c-0.403,0.238-0.698,0.559-0.883,0.962
		c-0.053,0.105-0.125,0.37-0.218,0.794l-0.278,1.329c-0.073,0.357-0.125,0.599-0.159,0.724c-0.099,0.47-0.096,0.837,0.01,1.102
		c0.146,0.351,0.41,0.604,0.794,0.759c0.383,0.156,0.774,0.204,1.17,0.145c0.371-0.053,0.691-0.183,0.962-0.388
		c0.542-0.409,0.843-1.088,0.903-2.033c0.026-0.291-0.008-0.581-0.104-0.868c-0.096-0.288-0.237-0.491-0.422-0.61
		c-0.04-0.026-0.105-0.026-0.198,0c-0.218,0.047-0.479,0.069-0.784,0.069c-0.457,0-0.761-0.04-0.913-0.119
		c-0.086-0.046-0.124-0.108-0.114-0.188c0.01-0.079,0.055-0.143,0.134-0.188c0.139-0.093,0.41-0.146,0.813-0.159
		c0.403-0.013,0.714,0.018,0.933,0.09c0.093,0.039,0.149,0.057,0.169,0.05c0.026-0.007,0.096-0.046,0.208-0.119
		c0.152-0.112,0.276-0.263,0.372-0.452c0.096-0.188,0.144-0.378,0.144-0.57c0-0.218-0.056-0.383-0.168-0.496
		c-0.172-0.165-0.453-0.248-0.844-0.248H109.44z"/>
</g>
</svg>
