<?xml version="1.0" encoding="iso-8859-1"?>
<!-- Generator: Adobe Illustrator 16.0.0, SVG Export Plug-In . SVG Version: 6.00 Build 0)  -->
<!DOCTYPE svg PUBLIC "-//W3C//DTD SVG 1.1//EN" "http://www.w3.org/Graphics/SVG/1.1/DTD/svg11.dtd">
<svg version="1.1" id="Layer_1" xmlns="http://www.w3.org/2000/svg" xmlns:xlink="http://www.w3.org/1999/xlink" x="0px" y="0px"
	 width="566.929px" height="85.039px" viewBox="0 0 566.929 85.039" style="enable-background:new 0 0 566.929 85.039;"
	 xml:space="preserve">
<g>
	<path d="M25.318,42.308c0.019-0.17,0.075-0.392,0.17-0.667c0.208-0.624,0.482-1.086,0.822-1.389c0.274-0.236,0.6-0.331,0.978-0.284
		c0.378,0.047,0.676,0.218,0.893,0.51c0.104,0.132,0.18,0.289,0.227,0.468c0.019,0.132,0.038,0.222,0.057,0.27
		c0.066-0.132,0.231-0.317,0.496-0.553c0.642-0.567,1.365-0.799,2.168-0.695c0.595,0.085,0.992,0.354,1.19,0.808
		c0.047,0.104,0.085,0.206,0.113,0.305s0.042,0.21,0.042,0.333c0,0.123,0.002,0.222,0.007,0.297
		c0.004,0.076-0.005,0.191-0.028,0.348c-0.024,0.156-0.041,0.257-0.05,0.305s-0.033,0.161-0.071,0.34
		c-0.038,0.18-0.062,0.284-0.071,0.312c-0.104,0.539-0.324,1.583-0.659,3.132s-0.513,2.381-0.531,2.494
		c0,0.02-0.005,0.05-0.014,0.093c-0.01,0.042-0.017,0.072-0.021,0.092c-0.005,0.019-0.014,0.047-0.028,0.085
		s-0.026,0.068-0.036,0.092s-0.021,0.05-0.035,0.078s-0.031,0.052-0.05,0.071c-0.019,0.019-0.04,0.04-0.063,0.063
		c-0.024,0.023-0.05,0.045-0.078,0.063c-0.123,0.085-0.26,0.106-0.411,0.064c-0.151-0.043-0.231-0.145-0.241-0.305
		c0-0.095,0.033-0.274,0.099-0.539l0.212-1.006l1.077-5.074c0.17-0.794,0.071-1.328-0.297-1.602
		c-0.208-0.132-0.458-0.18-0.751-0.142c-0.85,0.113-1.544,0.86-2.083,2.239c-0.208,0.538-0.439,1.332-0.694,2.381
		c-0.076,0.378-0.137,0.661-0.184,0.851c-0.047,0.236-0.095,0.396-0.142,0.481c-0.076,0.104-0.182,0.178-0.319,0.22
		c-0.137,0.043-0.262,0.026-0.375-0.049c-0.113-0.086-0.151-0.241-0.113-0.468l0.879-4.125c0-0.019,0.009-0.061,0.028-0.127
		c0.019-0.066,0.03-0.111,0.035-0.135c0.005-0.023,0.014-0.068,0.028-0.134s0.023-0.116,0.028-0.149s0.009-0.078,0.014-0.135
		s0.007-0.104,0.007-0.142s-0.005-0.083-0.014-0.135c-0.01-0.052-0.019-0.097-0.028-0.135c-0.01-0.038-0.026-0.078-0.05-0.12
		s-0.049-0.083-0.078-0.121c-0.17-0.208-0.345-0.27-0.524-0.184c-0.199,0.113-0.354,0.43-0.468,0.949
		c-0.085,0.331-0.137,0.553-0.156,0.667H25.318z"/>
</g>
<g>
	<path d="M37.802,44.249c0.057-0.094,0.198-0.142,0.425-0.142h8.093h0.595c0.123,0.02,0.208,0.083,0.255,0.191
		s0.023,0.205-0.071,0.29c-0.057,0.058-0.156,0.086-0.297,0.086h-8.575c-0.142,0-0.227-0.005-0.255-0.015
		c-0.085-0.019-0.146-0.073-0.184-0.163C37.75,44.407,37.755,44.325,37.802,44.249z M37.972,41.372
		c0.019-0.009,0.099-0.014,0.241-0.014h8.122l0.297-0.014c0.199,0,0.298,0.005,0.298,0.014c0.113,0.019,0.191,0.085,0.234,0.198
		s0.021,0.208-0.064,0.284c-0.057,0.057-0.161,0.085-0.312,0.085H38.27c-0.151,0-0.241-0.005-0.269-0.014
		c-0.151-0.028-0.229-0.116-0.234-0.262S37.831,41.41,37.972,41.372z"/>
</g>
<g>
	<path d="M93.625,31.672c0.047-0.113,0.179-0.288,0.397-0.524c0.454-0.52,0.992-0.836,1.616-0.95
		c0.208-0.038,0.435-0.042,0.68-0.014c0.595,0.057,0.997,0.26,1.205,0.609c0.208,0.35,0.227,0.917,0.057,1.701l-0.638,2.99
		c-0.132,0.699-0.227,1.144-0.283,1.333c0,0.104-0.071,0.156-0.213,0.156c-0.028,0-0.047,0-0.057,0h-0.666l0.893-4.195
		c0.009-0.047,0.028-0.135,0.057-0.262s0.047-0.224,0.057-0.291c0.009-0.066,0.019-0.153,0.028-0.262
		c0.009-0.108,0.004-0.206-0.014-0.291c-0.019-0.085-0.047-0.17-0.085-0.255c-0.208-0.406-0.676-0.586-1.403-0.539
		c-0.435,0.057-0.806,0.26-1.113,0.609s-0.541,0.756-0.701,1.219c-0.038,0.123-0.111,0.437-0.22,0.942
		c-0.109,0.506-0.225,1.063-0.347,1.672c-0.123,0.61-0.208,1.014-0.255,1.212c-0.009,0.028-0.021,0.076-0.036,0.142
		c-0.014,0.066-0.026,0.119-0.035,0.156c0,0.038-0.005,0.066-0.014,0.085c-0.01,0.019-0.028,0.033-0.057,0.042
		s-0.05,0.014-0.064,0.014s-0.042,0-0.085,0s-0.069,0-0.078,0h-0.638l1.417-6.69h0.864l-0.283,1.389H93.625z"/>
</g>
<g>
	<path d="M100.277,32.214h1.964c0.311,0,0.542,0.003,0.694,0.01c0.152,0.007,0.333,0.03,0.541,0.069
		c0.208,0.04,0.405,0.103,0.59,0.188c0.278,0.119,0.512,0.293,0.704,0.521c0.192,0.229,0.271,0.511,0.238,0.848
		c-0.046,0.331-0.222,0.629-0.526,0.893c-0.304,0.265-0.651,0.463-1.042,0.595c-0.066,0.02-0.166,0.046-0.298,0.08
		s-0.228,0.06-0.288,0.079c0.595,0.086,1.052,0.288,1.369,0.605c0.41,0.41,0.506,0.87,0.288,1.379
		c-0.159,0.403-0.483,0.757-0.972,1.062c-0.496,0.311-1.059,0.493-1.687,0.546c-0.08,0.006-0.43,0.01-1.052,0.01h-1.984
		L100.277,32.214z M99.603,38.543h1.29c0.443,0,0.711-0.003,0.804-0.01c0.502-0.04,0.949-0.159,1.339-0.357
		c0.648-0.331,0.958-0.721,0.932-1.17c-0.02-0.351-0.238-0.645-0.655-0.883c-0.337-0.191-0.764-0.304-1.28-0.337
		c0-0.007-0.142-0.007-0.426,0h-0.427h-0.893c-0.026,0-0.048,0.003-0.064,0.01c-0.017,0.007-0.03,0.018-0.04,0.035
		s-0.017,0.03-0.02,0.04c-0.003,0.01-0.008,0.032-0.015,0.064c-0.007,0.033-0.01,0.053-0.01,0.06
		c-0.007,0.046-0.035,0.187-0.084,0.422c-0.05,0.235-0.106,0.498-0.169,0.789s-0.104,0.493-0.124,0.605
		C99.682,38.153,99.629,38.398,99.603,38.543z M100.297,35.26h0.982c0.47,0,0.771-0.007,0.903-0.02
		c0.443-0.053,0.865-0.168,1.265-0.347c0.4-0.179,0.676-0.413,0.828-0.705c0.066-0.132,0.1-0.258,0.1-0.377
		c-0.007-0.291-0.208-0.539-0.605-0.744c-0.198-0.099-0.432-0.172-0.699-0.218c-0.268-0.046-0.471-0.071-0.61-0.074
		c-0.139-0.003-0.384-0.005-0.734-0.005h-0.803c-0.02,0-0.037,0.003-0.05,0.01c-0.013,0.007-0.025,0.013-0.035,0.02
		c-0.01,0.006-0.018,0.018-0.025,0.035c-0.006,0.017-0.01,0.028-0.01,0.035c0,0.007-0.003,0.021-0.01,0.044
		c-0.007,0.023-0.01,0.038-0.01,0.045C100.591,33.95,100.429,34.717,100.297,35.26z"/>
</g>
<g>
	<path d="M110.638,32.962c0.019-0.009,0.094-0.014,0.227-0.014h7.441h0.539c0.113,0.019,0.187,0.085,0.22,0.199
		s0.012,0.208-0.064,0.283c-0.028,0.028-0.071,0.052-0.127,0.071c-0.057,0.019-0.106,0.029-0.149,0.029s-0.099-0.002-0.17-0.007
		s-0.116-0.007-0.135-0.007h-7.54c-0.142,0-0.222-0.004-0.241-0.014c-0.142-0.038-0.21-0.125-0.206-0.262
		C110.437,33.102,110.505,33.009,110.638,32.962z"/>
</g>
<g>
	<path d="M126.583,31.672c0.047-0.113,0.179-0.288,0.397-0.524c0.454-0.52,0.992-0.836,1.616-0.95
		c0.208-0.038,0.435-0.042,0.68-0.014c0.595,0.057,0.997,0.26,1.205,0.609c0.208,0.35,0.227,0.917,0.057,1.701l-0.638,2.99
		c-0.132,0.699-0.227,1.144-0.283,1.333c0,0.104-0.071,0.156-0.213,0.156c-0.028,0-0.047,0-0.057,0h-0.666l0.893-4.195
		c0.009-0.047,0.028-0.135,0.057-0.262s0.047-0.224,0.057-0.291c0.009-0.066,0.019-0.153,0.028-0.262
		c0.009-0.108,0.004-0.206-0.014-0.291c-0.019-0.085-0.047-0.17-0.085-0.255c-0.208-0.406-0.676-0.586-1.403-0.539
		c-0.435,0.057-0.806,0.26-1.113,0.609s-0.541,0.756-0.701,1.219c-0.038,0.123-0.111,0.437-0.22,0.942
		c-0.109,0.506-0.225,1.063-0.347,1.672c-0.123,0.61-0.208,1.014-0.255,1.212c-0.009,0.028-0.021,0.076-0.036,0.142
		c-0.014,0.066-0.026,0.119-0.035,0.156c0,0.038-0.005,0.066-0.014,0.085c-0.01,0.019-0.028,0.033-0.057,0.042
		s-0.05,0.014-0.064,0.014s-0.042,0-0.085,0s-0.069,0-0.078,0h-0.638l1.417-6.69h0.864l-0.283,1.389H126.583z"/>
</g>
<g>
	<path d="M133.613,31.939h3.85v0.555h-3.85V31.939z"/>
</g>
<g>
	<path d="M133.235,33.529h1.964c0.311,0,0.542,0.003,0.694,0.01c0.152,0.007,0.333,0.03,0.541,0.069
		c0.208,0.04,0.405,0.103,0.59,0.188c0.278,0.119,0.512,0.293,0.704,0.521c0.192,0.229,0.271,0.511,0.238,0.848
		c-0.046,0.331-0.222,0.629-0.526,0.893c-0.304,0.265-0.651,0.463-1.042,0.595c-0.066,0.02-0.166,0.046-0.298,0.08
		s-0.228,0.06-0.288,0.079c0.595,0.086,1.052,0.288,1.369,0.605c0.41,0.41,0.506,0.87,0.288,1.379
		c-0.159,0.403-0.483,0.757-0.972,1.062c-0.496,0.311-1.059,0.493-1.687,0.546c-0.08,0.006-0.43,0.01-1.052,0.01h-1.984
		L133.235,33.529z M132.561,39.858h1.29c0.443,0,0.711-0.003,0.804-0.01c0.502-0.04,0.949-0.159,1.339-0.357
		c0.648-0.331,0.958-0.721,0.932-1.17c-0.02-0.351-0.238-0.645-0.655-0.883c-0.337-0.191-0.764-0.304-1.28-0.337
		c0-0.007-0.142-0.007-0.426,0h-0.427h-0.893c-0.026,0-0.048,0.003-0.064,0.01c-0.017,0.007-0.03,0.018-0.04,0.035
		s-0.017,0.03-0.02,0.04c-0.003,0.01-0.008,0.032-0.015,0.064c-0.007,0.033-0.01,0.053-0.01,0.06
		c-0.007,0.046-0.035,0.187-0.084,0.422c-0.05,0.235-0.106,0.498-0.169,0.789s-0.104,0.493-0.124,0.605
		C132.64,39.468,132.587,39.713,132.561,39.858z M133.255,36.575h0.982c0.47,0,0.771-0.007,0.903-0.02
		c0.443-0.053,0.865-0.168,1.265-0.347c0.4-0.179,0.676-0.413,0.828-0.705c0.066-0.132,0.1-0.258,0.1-0.377
		c-0.007-0.291-0.208-0.539-0.605-0.744c-0.198-0.099-0.432-0.172-0.699-0.218c-0.268-0.046-0.471-0.071-0.61-0.074
		c-0.139-0.003-0.384-0.005-0.734-0.005h-0.803c-0.02,0-0.037,0.003-0.05,0.01c-0.013,0.007-0.025,0.013-0.035,0.02
		c-0.01,0.006-0.018,0.018-0.025,0.035c-0.006,0.017-0.01,0.028-0.01,0.035c0,0.007-0.003,0.021-0.01,0.044
		c-0.007,0.023-0.01,0.038-0.01,0.045C133.549,35.265,133.387,36.032,133.255,36.575z"/>
</g>
<g>
	<rect x="53.122" y="42.731" width="123.276" height="0.574"/>
</g>
<g>
	<path d="M58.264,49.252c0.688,0,1.237-0.149,1.647-0.446c0.02-0.014,0.058-0.045,0.114-0.095c0.056-0.05,0.101-0.081,0.134-0.094
		c0.013-0.007,0.066-0.011,0.159-0.011v6.112h1.33v0.525h-3.324v-0.525h1.33V49.5c-0.186,0.079-0.301,0.125-0.347,0.139
		c-0.285,0.093-0.632,0.139-1.042,0.139V49.252z"/>
</g>
<g>
	<rect x="54.318" y="56.994" width="11.056" height="0.574"/>
</g>
<g>
	<path d="M54.605,62.527c0.033-0.119,0.152-0.314,0.357-0.586c0.317-0.416,0.648-0.69,0.992-0.823
		c0.079-0.033,0.172-0.056,0.277-0.069c0.106-0.013,0.189-0.021,0.248-0.024c0.06-0.004,0.161-0.004,0.303,0
		c0.142,0.003,0.23,0.005,0.263,0.005h3.036c0.013,0,0.04,0,0.08,0c0.04,0,0.069,0,0.089,0c0.02,0,0.046,0.002,0.079,0.005
		s0.06,0.01,0.08,0.02c0.02,0.01,0.041,0.023,0.064,0.04c0.023,0.017,0.041,0.038,0.054,0.064c0.046,0.093,0.042,0.19-0.015,0.293
		s-0.134,0.17-0.233,0.203c-0.046,0.013-0.192,0.02-0.437,0.02h-0.833c0,0.026-0.012,0.096-0.035,0.209
		c-0.023,0.112-0.046,0.234-0.07,0.366c-0.023,0.133-0.038,0.222-0.044,0.269c-0.06,0.384-0.089,0.773-0.089,1.171
		c0,0.509,0.073,0.962,0.218,1.358c0.006,0.026,0.02,0.063,0.04,0.109c0.02,0.047,0.033,0.079,0.04,0.1
		c0.006,0.02,0.015,0.048,0.024,0.084c0.01,0.036,0.013,0.066,0.01,0.089c-0.003,0.023-0.01,0.05-0.02,0.08
		c-0.01,0.029-0.025,0.061-0.044,0.094c-0.007,0.007-0.015,0.015-0.025,0.025c-0.01,0.01-0.017,0.018-0.02,0.024
		s-0.01,0.014-0.02,0.02c-0.01,0.007-0.019,0.014-0.025,0.021c-0.08,0.06-0.162,0.092-0.248,0.099s-0.162-0.026-0.228-0.099
		c-0.1-0.133-0.195-0.403-0.288-0.813c-0.132-0.608-0.132-1.386,0-2.332c0.007-0.06,0.033-0.211,0.08-0.456
		c0.046-0.245,0.069-0.384,0.069-0.417h-0.595c-0.126,0-0.195,0.01-0.208,0.03c-0.006,0.013-0.096,0.406-0.268,1.181
		c-0.179,0.78-0.45,1.627-0.813,2.539c-0.066,0.159-0.139,0.262-0.219,0.308c-0.079,0.06-0.177,0.075-0.292,0.045
		c-0.116-0.029-0.18-0.098-0.193-0.203c-0.007-0.066,0.04-0.215,0.139-0.446c0.278-0.682,0.562-1.647,0.854-2.897
		c0.073-0.351,0.112-0.536,0.119-0.556h-0.387c-0.231,0-0.4,0.03-0.506,0.09c-0.205,0.105-0.414,0.32-0.625,0.645
		c-0.033,0.06-0.064,0.094-0.094,0.104c-0.03,0.01-0.088,0.015-0.174,0.015H54.605z"/>
</g>
<g>
	<path d="M61.565,59.611c-0.057-0.052-0.128-0.135-0.213-0.248c-0.052-0.065-0.08-0.104-0.085-0.113
		c-0.005-0.023,0.003-0.058,0.025-0.103c0.021-0.045,0.032-0.069,0.032-0.074c0.137-0.308,0.305-0.534,0.503-0.681
		c0.302-0.217,0.664-0.315,1.084-0.294s0.77,0.147,1.049,0.379c0.25,0.203,0.412,0.466,0.485,0.787s0.034,0.626-0.117,0.914
		c-0.052,0.095-0.111,0.184-0.177,0.269C64.085,60.533,64,60.62,63.896,60.71c-0.104,0.09-0.183,0.157-0.238,0.202
		c-0.054,0.045-0.152,0.119-0.294,0.223c-0.142,0.104-0.227,0.168-0.255,0.191c-0.279,0.203-0.721,0.569-1.325,1.099h2.693v0.439
		h-3.154v-0.276c0-0.071,0.002-0.113,0.007-0.128c0.004-0.014,0.028-0.042,0.071-0.085l0.135-0.113
		c0.553-0.486,0.959-0.831,1.219-1.034c0.401-0.312,0.673-0.548,0.815-0.709c0.212-0.25,0.335-0.51,0.369-0.779
		c0.038-0.274-0.017-0.515-0.163-0.723c-0.199-0.293-0.518-0.456-0.957-0.489c-0.194-0.015-0.369,0.007-0.524,0.063
		C61.959,58.719,61.716,59.059,61.565,59.611z"/>
</g>
<g>
	<path d="M74.684,65.871c-0.258,0-1.19-1.09-1.334-1.263c-1.879-2.424-2.237-5.307-2.237-7.344c0-3.198,0.932-5.78,2.395-7.516
		c0.187-0.215,0.961-1.076,1.176-1.076c0.058,0,0.172,0,0.172,0.144c0,0.029,0,0.058-0.129,0.187
		c-1.721,1.865-2.625,4.504-2.625,8.276c0,1.334,0.129,2.812,0.459,4.116c0.602,2.338,1.578,3.5,2.237,4.203
		c0.029,0.043,0.058,0.071,0.058,0.129C74.856,65.871,74.741,65.871,74.684,65.871z"/>
</g>
<g>
	<path d="M79.004,48.031h0.605l-0.942,4.455l2.5-2.034l0.268-0.208c0.172-0.007,0.44-0.01,0.804-0.01v0.01l-1.994,1.617
		l-0.159,0.148c0.033,0.106,0.094,0.243,0.184,0.412c0.089,0.169,0.147,0.286,0.173,0.353l1.042,2.143
		c-0.371,0-0.602-0.007-0.695-0.02c-0.132-0.238-0.266-0.493-0.402-0.765c-0.135-0.271-0.286-0.58-0.451-0.927
		c-0.166-0.348-0.291-0.61-0.377-0.789c-0.073,0.06-0.172,0.143-0.298,0.248s-0.241,0.202-0.347,0.287
		c-0.106,0.087-0.208,0.166-0.308,0.238L78.498,53.3c-0.086,0.317-0.195,0.813-0.328,1.488l-0.04,0.109
		c-0.073,0.013-0.268,0.02-0.585,0.02L79.004,48.031z"/>
</g>
<g>
	<path d="M83.472,51.503h1.467c0.231,0,0.404,0.002,0.517,0.007s0.247,0.021,0.4,0.05s0.296,0.073,0.429,0.135
		c0.401,0.193,0.633,0.458,0.695,0.794c0.004,0.057,0.004,0.113,0,0.17c-0.029,0.25-0.154,0.468-0.376,0.651
		c-0.222,0.185-0.484,0.329-0.787,0.433c-0.047,0.014-0.116,0.032-0.206,0.053c-0.089,0.021-0.156,0.039-0.198,0.054
		c0.397,0.057,0.718,0.188,0.964,0.396c0.331,0.279,0.413,0.626,0.248,1.042c-0.146,0.312-0.399,0.568-0.758,0.769
		c-0.359,0.201-0.753,0.32-1.184,0.358c-0.057,0.005-0.314,0.007-0.772,0.007H82.43L83.472,51.503z M83.04,56.003
		c0.832,0,1.33-0.003,1.495-0.007c0.35-0.01,0.668-0.088,0.957-0.234c0.472-0.213,0.708-0.484,0.708-0.814
		c0-0.223-0.123-0.416-0.369-0.581c-0.293-0.189-0.666-0.291-1.12-0.305h-0.475h-0.716c-0.019,0-0.034,0.002-0.046,0.007
		c-0.012,0.005-0.021,0.013-0.028,0.024c-0.007,0.012-0.012,0.021-0.014,0.028c-0.002,0.007-0.006,0.022-0.011,0.046
		c-0.005,0.024-0.007,0.038-0.007,0.043c-0.019,0.118-0.108,0.548-0.269,1.29C83.104,55.632,83.068,55.8,83.04,56.003z
		 M83.536,53.664h0.744c0.321,0,0.513-0.002,0.574-0.007c0.383-0.033,0.726-0.125,1.028-0.276c0.009-0.005,0.032-0.017,0.067-0.035
		c0.035-0.02,0.06-0.033,0.074-0.043c0.354-0.227,0.505-0.47,0.454-0.729c-0.033-0.166-0.18-0.314-0.439-0.447
		c-0.052-0.023-0.104-0.046-0.156-0.066c-0.052-0.021-0.109-0.039-0.17-0.054c-0.062-0.014-0.114-0.025-0.156-0.035
		s-0.1-0.018-0.173-0.025c-0.073-0.007-0.126-0.012-0.16-0.014s-0.092-0.005-0.177-0.007c-0.085-0.003-0.138-0.004-0.159-0.004
		c-0.021,0-0.082,0-0.181,0s-0.154,0-0.163,0h-0.574c-0.014,0-0.027,0.003-0.039,0.007c-0.012,0.005-0.021,0.012-0.025,0.021
		c-0.005,0.01-0.008,0.018-0.011,0.024c-0.002,0.008-0.006,0.021-0.011,0.043s-0.007,0.034-0.007,0.039
		c-0.019,0.095-0.057,0.271-0.114,0.531c-0.057,0.26-0.107,0.494-0.152,0.702C83.565,53.496,83.541,53.622,83.536,53.664z"/>
</g>
<g>
	<path d="M88.541,48.617c0.073-0.311,0.116-0.489,0.129-0.536c0.093-0.026,0.349-0.034,0.769-0.024s0.686,0.012,0.799,0.005h5.03
		l-0.089,0.396c0,0.073-0.013,0.119-0.04,0.14c-0.02,0.013-0.073,0.02-0.159,0.02H92.4c-0.119,0-0.185,0.007-0.198,0.02
		c-0.014,0.014-0.025,0.045-0.035,0.095c-0.01,0.049-0.02,0.104-0.03,0.163c-0.01,0.06-0.019,0.097-0.025,0.109l-1.23,5.784
		c-0.02,0.066-0.033,0.103-0.04,0.109c-0.007,0.013-0.066,0.02-0.179,0.02h-0.506l1.339-6.3H88.541z"/>
</g>
<g>
	<rect x="76.702" y="56.994" width="18.823" height="0.574"/>
</g>
<g>
	<path d="M81.162,59.441h3.85v0.556h-3.85V59.441z"/>
</g>
<g>
	<path d="M82.938,58.826h0.655l-0.665,3.155h0.01c0.06-0.112,0.168-0.248,0.327-0.406c0.477-0.477,1.005-0.682,1.587-0.615
		c0.43,0.026,0.721,0.168,0.873,0.427c0.146,0.244,0.162,0.647,0.05,1.21l-0.437,2.063c-0.02,0.073-0.044,0.184-0.074,0.332
		c-0.03,0.149-0.058,0.283-0.084,0.402s-0.043,0.188-0.05,0.208c0,0.073-0.053,0.109-0.159,0.109c-0.02,0-0.033,0-0.04,0h-0.496
		c0.357-1.693,0.565-2.669,0.625-2.927c0.006-0.02,0.018-0.069,0.035-0.148c0.017-0.08,0.028-0.136,0.035-0.169
		c0.007-0.033,0.013-0.084,0.02-0.154c0.006-0.069,0.008-0.125,0.005-0.168s-0.01-0.093-0.02-0.149
		c-0.01-0.056-0.028-0.107-0.055-0.153c-0.099-0.186-0.288-0.298-0.565-0.338c-0.437-0.072-0.814,0.027-1.131,0.298
		c-0.251,0.219-0.446,0.526-0.585,0.923c-0.014,0.047-0.063,0.27-0.149,0.67s-0.179,0.825-0.278,1.274
		c-0.099,0.45-0.152,0.698-0.159,0.744c-0.014,0.079-0.027,0.146-0.04,0.198c0,0.027-0.003,0.047-0.01,0.06
		c-0.007,0.014-0.02,0.023-0.04,0.03c-0.02,0.007-0.037,0.01-0.05,0.01s-0.035,0-0.064,0s-0.048,0-0.055,0h-0.476L82.938,58.826z"/>
	<path d="M90.806,64.591c0,0.04-0.01,0.139-0.03,0.298c-0.02,0.158-0.04,0.251-0.06,0.277c-0.053,0.086-0.298,0.226-0.734,0.417
		c-0.344,0.158-0.734,0.229-1.17,0.213s-0.804-0.146-1.102-0.392c-0.099-0.079-0.185-0.172-0.258-0.277
		c-0.192-0.252-0.309-0.544-0.352-0.878s-0.025-0.657,0.055-0.968c0.079-0.311,0.202-0.605,0.367-0.883
		c0.371-0.615,0.87-1.055,1.498-1.319c0.231-0.093,0.521-0.147,0.868-0.164s0.653,0.015,0.918,0.094
		c0.165,0.054,0.394,0.159,0.685,0.318l-0.218,0.575c-0.046-0.02-0.116-0.062-0.208-0.129c-0.198-0.106-0.311-0.165-0.337-0.179
		c-0.159-0.066-0.365-0.11-0.62-0.134c-0.254-0.023-0.488-0.012-0.699,0.034c-0.47,0.106-0.85,0.376-1.141,0.809
		c-0.291,0.434-0.459,0.908-0.506,1.424c-0.06,0.675,0.146,1.138,0.615,1.389c0.172,0.087,0.378,0.128,0.62,0.124
		c0.241-0.003,0.464-0.032,0.669-0.089c0.205-0.056,0.4-0.127,0.585-0.213c0.073-0.04,0.17-0.1,0.292-0.179
		C90.665,64.68,90.752,64.624,90.806,64.591z"/>
</g>
<g>
	<path d="M98.701,64.795c-0.172,0.201-0.961,1.076-1.176,1.076c-0.072,0-0.172-0.029-0.172-0.144c0-0.028,0-0.058,0.129-0.187
		c0.731-0.803,1.578-1.951,2.123-3.959c0.373-1.405,0.502-2.868,0.502-4.317c0-1.334-0.129-2.811-0.459-4.116
		c-0.588-2.28-1.521-3.442-2.209-4.188c-0.058-0.043-0.086-0.086-0.086-0.144c0-0.114,0.1-0.143,0.172-0.143
		c0.258,0,1.19,1.09,1.334,1.262c1.879,2.424,2.237,5.307,2.237,7.344C101.096,60.478,100.164,63.06,98.701,64.795z"/>
</g>
<g>
	<path d="M104.219,46.497c-0.205-0.271-0.308-0.423-0.308-0.456s0.062-0.129,0.188-0.288c0.218-0.251,0.496-0.463,0.833-0.635
		c0.317-0.151,0.656-0.232,1.017-0.243c0.36-0.01,0.703,0.059,1.027,0.204c0.509,0.251,0.807,0.599,0.893,1.041
		c0.066,0.391-0.02,0.768-0.258,1.131c-0.159,0.232-0.357,0.424-0.596,0.576c-0.026,0.02-0.079,0.05-0.159,0.089
		c-0.079,0.04-0.139,0.073-0.178,0.1c0.145,0.02,0.333,0.093,0.565,0.218c0.344,0.192,0.605,0.46,0.784,0.804
		c0.132,0.298,0.179,0.597,0.139,0.898c-0.04,0.301-0.152,0.583-0.337,0.848c-0.046,0.066-0.126,0.155-0.238,0.269
		c-0.311,0.304-0.694,0.495-1.151,0.575c-0.457,0.079-0.886,0.05-1.29-0.09c-0.51-0.151-0.946-0.437-1.31-0.853
		c-0.053-0.066-0.082-0.107-0.084-0.124c-0.003-0.017,0.001-0.064,0.015-0.145c0.033-0.211,0.06-0.337,0.08-0.377
		c0.502,0.662,1.157,1.022,1.964,1.082c0.489,0.046,0.89-0.066,1.2-0.338c0.271-0.225,0.427-0.53,0.466-0.918
		c0.04-0.387-0.043-0.722-0.248-1.007c-0.172-0.238-0.407-0.406-0.704-0.506c-0.166-0.053-0.417-0.079-0.754-0.079h-0.705v-0.526
		c0.06,0,0.146-0.005,0.258-0.015s0.195-0.018,0.248-0.024c0.258-0.014,0.47-0.046,0.635-0.1c0.284-0.093,0.522-0.254,0.714-0.486
		c0.191-0.231,0.288-0.489,0.288-0.773c0-0.542-0.341-0.854-1.022-0.933c-0.615-0.066-1.147,0.126-1.597,0.575
		c-0.126,0.126-0.248,0.295-0.367,0.506H104.219z"/>
</g>
<g>
	<path d="M117.068,56.196c-0.115,1.592-0.631,5.766-0.818,6.512c-0.315,1.291-1.004,2.539-2.367,2.539
		c-0.86,0-1.578-0.502-1.578-1.19c0-0.431,0.315-0.617,0.603-0.617c0.272,0,0.588,0.187,0.588,0.603c0,0.201-0.115,0.53-0.531,0.588
		c0.301,0.259,0.731,0.302,0.918,0.302c0.818,0,1.334-0.646,1.521-2.998l0.272-3.571c0.129-1.735,0.646-5.78,0.817-6.569
		c0.244-1.09,0.804-2.481,2.166-2.481c0.861,0,1.578,0.502,1.578,1.19c0,0.431-0.315,0.617-0.602,0.617
		c-0.272,0-0.588-0.187-0.588-0.603c0-0.201,0.115-0.531,0.531-0.588c-0.315-0.272-0.76-0.302-0.903-0.302
		c-0.646,0-1.133,0.358-1.334,2.998L117.068,56.196z"/>
</g>
<g>
	<path d="M126.067,51.234c-0.053,0.112-0.149,0.251-0.288,0.417c-0.297,0.39-0.665,0.716-1.101,0.977
		c-0.437,0.262-0.923,0.346-1.458,0.253c-0.198-0.039-0.387-0.112-0.565-0.218c-0.423-0.265-0.719-0.646-0.888-1.146
		c-0.168-0.499-0.187-1.005-0.054-1.518s0.396-0.918,0.793-1.216c0.371-0.271,0.804-0.39,1.3-0.356
		c0.708,0.053,1.373,0.423,1.994,1.111l0.298,0.366c0.099,0.119,0.152,0.183,0.159,0.189c0.053-0.113,0.148-0.252,0.288-0.417
		c0.297-0.391,0.665-0.716,1.101-0.978c0.437-0.261,0.923-0.346,1.458-0.253c0.198,0.04,0.387,0.112,0.565,0.219
		c0.423,0.265,0.719,0.646,0.888,1.146c0.168,0.499,0.187,1.006,0.055,1.518c-0.133,0.513-0.397,0.918-0.794,1.216
		c-0.371,0.271-0.804,0.39-1.3,0.357c-0.708-0.054-1.373-0.424-1.994-1.111l-0.297-0.367
		C126.126,51.304,126.074,51.241,126.067,51.234z M123.378,48.923c-0.357,0.033-0.678,0.175-0.962,0.427
		c-0.284,0.277-0.456,0.628-0.516,1.051c-0.06,0.424-0.003,0.814,0.168,1.171c0.231,0.517,0.585,0.834,1.062,0.953
		c0.152,0.039,0.321,0.053,0.506,0.039c0.76-0.065,1.445-0.568,2.053-1.508c0.06-0.1,0.089-0.155,0.089-0.169
		c0-0.02-0.006-0.039-0.02-0.06c-0.014-0.02-0.03-0.041-0.05-0.064c-0.02-0.022-0.033-0.041-0.04-0.055
		c-0.391-0.489-0.592-0.74-0.605-0.754c-0.271-0.323-0.541-0.582-0.809-0.773C123.989,48.988,123.696,48.902,123.378,48.923z
		 M128.676,48.764c-0.754,0.066-1.435,0.569-2.043,1.508c-0.06,0.1-0.089,0.156-0.089,0.169c0,0.02,0.006,0.04,0.02,0.06
		c0.013,0.02,0.029,0.041,0.049,0.064s0.033,0.041,0.04,0.055c0.417,0.536,0.688,0.866,0.814,0.992
		c0.516,0.568,1.005,0.833,1.468,0.794c0.403-0.04,0.724-0.179,0.962-0.417c0.284-0.284,0.458-0.635,0.521-1.052
		s0.008-0.807-0.164-1.171c-0.225-0.516-0.575-0.836-1.052-0.962C129.043,48.764,128.868,48.751,128.676,48.764z"/>
</g>
<g>
	<path d="M120.807,59.165c0.271-0.026,0.544,0.012,0.819,0.114c0.274,0.103,0.504,0.25,0.689,0.441
		c0.516,0.536,0.774,1.433,0.774,2.689c0,0.893-0.08,1.58-0.238,2.063c-0.304,0.886-0.863,1.375-1.677,1.468
		c-0.675,0.066-1.23-0.139-1.667-0.615c-0.47-0.522-0.705-1.432-0.705-2.728c0-0.88,0.092-1.564,0.278-2.054
		c0.125-0.312,0.276-0.566,0.451-0.765s0.402-0.356,0.68-0.476C120.344,59.252,120.542,59.205,120.807,59.165z M121.968,60.157
		c-0.179-0.218-0.409-0.361-0.69-0.432c-0.281-0.069-0.561-0.051-0.838,0.055c-0.364,0.173-0.612,0.434-0.744,0.784
		c-0.126,0.311-0.195,0.725-0.208,1.24c0,0.039-0.002,0.098-0.005,0.174c-0.003,0.076-0.005,0.134-0.005,0.173v0.486
		c0,0.774,0.062,1.356,0.188,1.746c0.085,0.252,0.178,0.44,0.278,0.565c0.277,0.351,0.641,0.51,1.091,0.477
		c0.827-0.066,1.28-0.761,1.359-2.084c0.013-0.185,0.02-0.32,0.02-0.406V62.41c0-0.86-0.069-1.466-0.208-1.816
		C122.133,60.409,122.053,60.264,121.968,60.157z"/>
</g>
<g>
	<path d="M143.001,50.562c0.384,0,0.625,0.007,0.724,0.02c0.258,0.391,0.632,0.989,1.121,1.796c0.139-0.132,0.422-0.412,0.849-0.839
		c0.426-0.426,0.762-0.749,1.007-0.967c0.152-0.007,0.39-0.01,0.714-0.01c-0.013,0.02-0.334,0.331-0.962,0.933
		s-1.039,0.992-1.23,1.171c-0.092,0.072-0.142,0.129-0.148,0.168c0,0.014,0.033,0.076,0.099,0.188
		c0.86,1.323,1.336,2.063,1.429,2.223c-0.384,0-0.625-0.007-0.725-0.02c-0.132-0.199-0.532-0.877-1.2-2.034l-1.826,1.865
		l-0.198,0.179c-0.152,0.007-0.387,0.01-0.705,0.01l0.268-0.268l2.173-2.084l0.049-0.069c-0.159-0.271-0.402-0.653-0.729-1.146
		C143.383,51.185,143.147,50.812,143.001,50.562z"/>
</g>
<g>
	<path d="M148.21,49.144c-0.057-0.052-0.128-0.135-0.213-0.248c-0.052-0.065-0.08-0.104-0.085-0.113
		c-0.005-0.023,0.003-0.058,0.025-0.103c0.021-0.045,0.032-0.069,0.032-0.074c0.137-0.308,0.305-0.534,0.503-0.681
		c0.302-0.217,0.664-0.315,1.084-0.294s0.77,0.147,1.049,0.379c0.25,0.203,0.412,0.466,0.485,0.787s0.034,0.626-0.117,0.914
		c-0.052,0.095-0.111,0.184-0.177,0.269c-0.066,0.086-0.151,0.173-0.255,0.263c-0.104,0.09-0.183,0.157-0.238,0.202
		c-0.054,0.045-0.152,0.119-0.294,0.223c-0.142,0.104-0.227,0.168-0.255,0.191c-0.279,0.203-0.721,0.569-1.325,1.099h2.693v0.439
		h-3.154V52.12c0-0.071,0.002-0.113,0.007-0.128c0.004-0.014,0.028-0.042,0.071-0.085l0.135-0.113
		c0.553-0.486,0.959-0.831,1.219-1.034c0.401-0.312,0.673-0.548,0.815-0.709c0.212-0.25,0.335-0.51,0.369-0.779
		c0.038-0.274-0.017-0.515-0.163-0.723c-0.199-0.293-0.518-0.456-0.957-0.489c-0.194-0.015-0.369,0.007-0.524,0.063
		C148.604,48.251,148.361,48.591,148.21,49.144z"/>
</g>
<g>
	<rect x="135.319" y="56.994" width="23.32" height="0.574"/>
</g>
<g>
	<path d="M139.893,64.601c-0.007,0.026-0.015,0.088-0.025,0.184s-0.02,0.179-0.03,0.248s-0.018,0.111-0.025,0.124
		c-0.006,0.014-0.076,0.063-0.208,0.148c-0.258,0.166-0.546,0.293-0.863,0.383c-0.317,0.089-0.658,0.113-1.022,0.074
		c-0.364-0.04-0.671-0.169-0.923-0.387c-0.119-0.106-0.215-0.215-0.288-0.328c-0.245-0.363-0.354-0.759-0.327-1.186
		c0.026-0.427,0.124-0.823,0.292-1.19c0.169-0.367,0.378-0.676,0.63-0.928c0.265-0.277,0.579-0.497,0.943-0.659
		c0.363-0.162,0.741-0.214,1.131-0.154c0.304,0.047,0.554,0.162,0.749,0.348c0.195,0.185,0.322,0.423,0.382,0.714
		c0.033,0.139,0.046,0.328,0.04,0.565c-0.007,0.238-0.03,0.431-0.07,0.576c0,0.026-0.003,0.046-0.01,0.06
		c-0.007,0.013-0.02,0.022-0.04,0.029c-0.02,0.007-0.035,0.01-0.045,0.01c-0.01,0-0.03,0-0.06,0s-0.048,0-0.054,0h-2.927
		c-0.146,0-0.225,0.01-0.238,0.03c-0.053,0.093-0.08,0.274-0.08,0.545c0,0.655,0.245,1.102,0.734,1.34
		c0.311,0.112,0.62,0.143,0.928,0.089c0.308-0.053,0.6-0.151,0.878-0.297c0.08-0.047,0.192-0.116,0.337-0.209
		c0.006-0.006,0.033-0.026,0.079-0.06S139.866,64.614,139.893,64.601z M139.793,62.825c0-0.033,0.001-0.083,0.005-0.149
		c0.003-0.065,0.005-0.115,0.005-0.148c-0.013-0.238-0.06-0.437-0.139-0.596c-0.106-0.211-0.276-0.356-0.511-0.437
		c-0.235-0.079-0.471-0.086-0.709-0.02c-0.437,0.112-0.81,0.394-1.121,0.844c-0.139,0.205-0.231,0.373-0.278,0.506H139.793z"/>
</g>
<g>
	<path d="M141.483,59.52c0.246,0,0.427,0.002,0.545,0.007c0.09,0.118,0.181,0.248,0.273,0.39c0.092,0.142,0.192,0.302,0.301,0.479
		s0.194,0.313,0.255,0.407c0.127-0.118,0.341-0.322,0.641-0.612c0.3-0.291,0.533-0.512,0.698-0.663
		c0.118-0.005,0.3-0.007,0.545-0.007c-0.014,0.019-0.437,0.416-1.269,1.19c-0.005,0.005-0.051,0.047-0.138,0.128
		c-0.087,0.08-0.152,0.142-0.195,0.184c-0.005,0.005-0.014,0.014-0.028,0.025s-0.026,0.021-0.036,0.028
		c-0.009,0.007-0.019,0.018-0.028,0.031c-0.009,0.015-0.014,0.026-0.014,0.036c0,0.009,0.021,0.052,0.064,0.127
		c0,0.005,0.17,0.258,0.51,0.759s0.527,0.779,0.56,0.836c-0.293,0-0.477-0.005-0.553-0.015c-0.208-0.312-0.5-0.793-0.878-1.445
		l-1.318,1.318l-0.148,0.135c-0.114,0.005-0.293,0.007-0.539,0.007c0.042-0.047,0.611-0.583,1.708-1.608
		c0.071-0.057,0.106-0.1,0.106-0.128c0-0.023-0.026-0.068-0.078-0.135c-0.019-0.023-0.255-0.375-0.708-1.056
		C141.594,59.701,141.502,59.562,141.483,59.52z"/>
</g>
<g>
	<path d="M146.384,62.895c0.013-0.007,0.069-0.01,0.168-0.01h5.308h0.387c0.086,0.013,0.142,0.062,0.169,0.148
		c0.026,0.086,0.01,0.159-0.05,0.218c-0.046,0.04-0.182,0.06-0.407,0.06h-5.427c-0.093,0-0.149-0.003-0.169-0.01
		c-0.106-0.033-0.154-0.103-0.144-0.208C146.23,62.987,146.285,62.921,146.384,62.895z"/>
</g>
<g>
	<path d="M154.384,59.72c0.688,0,1.237-0.149,1.647-0.446c0.02-0.014,0.058-0.045,0.114-0.095c0.056-0.05,0.101-0.081,0.134-0.094
		c0.013-0.007,0.066-0.011,0.159-0.011v6.112h1.33v0.525h-3.324v-0.525h1.33v-5.219c-0.186,0.079-0.301,0.125-0.347,0.139
		c-0.285,0.093-0.632,0.139-1.042,0.139V59.72z"/>
</g>
<g>
	<path d="M167.191,51.187h0.893l-1.587,7.54c-0.227,1.039-0.378,1.743-0.454,2.111l-0.057,0.156
		c-0.123,0.019-0.421,0.028-0.893,0.028l0.212-1.034c-0.198,0.217-0.382,0.392-0.553,0.524c-0.368,0.283-0.763,0.472-1.183,0.566
		c-0.421,0.095-0.849,0.057-1.283-0.113c-0.454-0.227-0.785-0.619-0.992-1.177c-0.208-0.557-0.25-1.186-0.127-1.885
		c0.198-1.209,0.741-2.188,1.63-2.934c0.406-0.35,0.845-0.579,1.318-0.688c0.472-0.108,0.954-0.055,1.446,0.163
		c0.151,0.075,0.302,0.187,0.454,0.333c0.151,0.146,0.255,0.295,0.312,0.446h0.014L167.191,51.187z M166.057,55.509
		c-0.161-0.273-0.402-0.448-0.723-0.524c-0.321-0.075-0.638-0.073-0.949,0.008c-0.312,0.08-0.586,0.2-0.822,0.361
		c-0.841,0.52-1.347,1.436-1.517,2.749c-0.132,0.86,0.023,1.498,0.468,1.914c0.369,0.312,0.794,0.448,1.275,0.41
		c0.482-0.037,0.921-0.264,1.318-0.68c0.227-0.227,0.359-0.454,0.397-0.681c0.349-1.644,0.548-2.57,0.595-2.777
		c0.057-0.293,0.085-0.449,0.085-0.468C166.175,55.773,166.132,55.67,166.057,55.509z"/>
	<path d="M170.011,54.333c0.454,0,0.784,0.005,0.992,0.014c0.17,0.236,0.394,0.596,0.673,1.077c0.279,0.482,0.447,0.766,0.503,0.851
		l0.383,0.652l0.624-0.609c0.113-0.114,0.404-0.409,0.872-0.887c0.468-0.477,0.838-0.838,1.113-1.084
		c0.208-0.009,0.534-0.014,0.978-0.014c-0.057,0.075-0.125,0.151-0.205,0.227c-0.081,0.075-0.17,0.161-0.27,0.255
		c-0.099,0.095-0.172,0.166-0.22,0.213l-1.729,1.687l-0.624,0.609c-0.142,0.142-0.218,0.227-0.227,0.255
		c0,0.02,0.042,0.104,0.127,0.255c1.001,1.56,1.663,2.622,1.984,3.189c-0.539,0-0.874-0.01-1.006-0.028
		c-0.227-0.368-0.534-0.904-0.921-1.608c-0.388-0.704-0.629-1.137-0.723-1.297l-2.565,2.664l-0.269,0.255
		c-0.208,0.01-0.534,0.015-0.978,0.015l0.751-0.751l2.679-2.622l0.057-0.085L170.011,54.333z"/>
</g>
</svg>
