<?xml version="1.0" encoding="iso-8859-1"?>
<!-- Generator: Adobe Illustrator 16.0.0, SVG Export Plug-In . SVG Version: 6.00 Build 0)  -->
<!DOCTYPE svg PUBLIC "-//W3C//DTD SVG 1.1//EN" "http://www.w3.org/Graphics/SVG/1.1/DTD/svg11.dtd">
<svg version="1.1" id="Layer_1" xmlns="http://www.w3.org/2000/svg" xmlns:xlink="http://www.w3.org/1999/xlink" x="0px" y="0px"
	 width="566.929px" height="85.039px" viewBox="0 0 566.929 85.039" style="enable-background:new 0 0 566.929 85.039;"
	 xml:space="preserve">
<g>
	<path d="M25.318,40.13c0.019-0.17,0.075-0.392,0.17-0.667c0.208-0.624,0.482-1.086,0.822-1.389c0.274-0.236,0.6-0.331,0.978-0.284
		c0.378,0.047,0.676,0.218,0.893,0.51c0.104,0.132,0.18,0.289,0.227,0.468c0.019,0.132,0.038,0.222,0.057,0.27
		c0.066-0.132,0.231-0.317,0.496-0.553c0.642-0.567,1.365-0.799,2.168-0.695c0.595,0.085,0.992,0.354,1.19,0.808
		c0.047,0.104,0.085,0.206,0.113,0.305s0.042,0.21,0.042,0.333c0,0.123,0.002,0.222,0.007,0.297
		c0.004,0.076-0.005,0.191-0.028,0.348c-0.024,0.156-0.041,0.257-0.05,0.305s-0.033,0.161-0.071,0.34
		c-0.038,0.18-0.062,0.284-0.071,0.312c-0.104,0.539-0.324,1.583-0.659,3.132s-0.513,2.381-0.531,2.494
		c0,0.02-0.005,0.05-0.014,0.093c-0.01,0.042-0.017,0.072-0.021,0.092c-0.005,0.019-0.014,0.047-0.028,0.085
		s-0.026,0.068-0.036,0.092s-0.021,0.05-0.035,0.078s-0.031,0.052-0.05,0.071c-0.019,0.019-0.04,0.04-0.063,0.063
		c-0.024,0.023-0.05,0.045-0.078,0.063c-0.123,0.085-0.26,0.106-0.411,0.064c-0.151-0.043-0.231-0.145-0.241-0.305
		c0-0.095,0.033-0.274,0.099-0.539l0.212-1.006l1.077-5.074c0.17-0.794,0.071-1.328-0.297-1.602
		c-0.208-0.132-0.458-0.18-0.751-0.142c-0.85,0.113-1.544,0.86-2.083,2.239c-0.208,0.539-0.439,1.332-0.694,2.381
		c-0.076,0.378-0.137,0.661-0.184,0.851c-0.047,0.236-0.095,0.396-0.142,0.481c-0.076,0.104-0.182,0.178-0.319,0.22
		c-0.137,0.043-0.262,0.026-0.375-0.049c-0.113-0.086-0.151-0.241-0.113-0.468l0.879-4.125c0-0.019,0.009-0.061,0.028-0.127
		c0.019-0.066,0.03-0.111,0.035-0.135c0.005-0.023,0.014-0.068,0.028-0.134s0.023-0.116,0.028-0.149s0.009-0.078,0.014-0.135
		s0.007-0.104,0.007-0.142s-0.005-0.083-0.014-0.135c-0.01-0.052-0.019-0.097-0.028-0.135c-0.01-0.038-0.026-0.078-0.05-0.12
		s-0.049-0.083-0.078-0.121c-0.17-0.208-0.345-0.27-0.524-0.184c-0.199,0.113-0.354,0.43-0.468,0.949
		c-0.085,0.331-0.137,0.553-0.156,0.667H25.318z"/>
</g>
<g>
	<path d="M33.17,45.714c0.304,0.186,0.466,0.284,0.486,0.298c0.251,0.112,0.524,0.186,0.819,0.218
		c0.294,0.033,0.597,0.007,0.908-0.079c0.317-0.112,0.529-0.308,0.635-0.585c0.06-0.152,0.069-0.288,0.03-0.407
		c-0.04-0.112-0.109-0.206-0.208-0.282c-0.099-0.076-0.188-0.126-0.268-0.149c-0.08-0.022-0.195-0.055-0.347-0.094
		c-0.02-0.007-0.109-0.025-0.268-0.055c-0.159-0.03-0.261-0.052-0.308-0.064c-0.046-0.014-0.127-0.04-0.243-0.079
		c-0.116-0.04-0.211-0.085-0.288-0.135c-0.076-0.049-0.147-0.107-0.213-0.173c-0.225-0.259-0.309-0.553-0.253-0.883
		c0.056-0.331,0.213-0.612,0.471-0.844c0.43-0.384,1.039-0.546,1.826-0.486c0.351,0.02,0.757,0.126,1.22,0.317l-0.218,0.576
		c-0.046-0.02-0.124-0.058-0.233-0.114c-0.109-0.056-0.194-0.094-0.253-0.114c-0.232-0.085-0.493-0.135-0.784-0.148
		c-0.456-0.033-0.803,0.036-1.042,0.208c-0.152,0.106-0.26,0.245-0.322,0.417c-0.063,0.172-0.042,0.342,0.064,0.506
		c0.026,0.033,0.054,0.064,0.084,0.095s0.068,0.055,0.114,0.074c0.046,0.021,0.083,0.037,0.109,0.05
		c0.026,0.014,0.069,0.028,0.129,0.045s0.097,0.026,0.114,0.029c0.017,0.004,0.061,0.014,0.134,0.03
		c0.073,0.017,0.112,0.024,0.119,0.024c0.007,0,0.066,0.012,0.179,0.035c0.112,0.022,0.179,0.038,0.199,0.044
		c0.02,0.007,0.076,0.021,0.168,0.045c0.092,0.023,0.157,0.043,0.193,0.06s0.089,0.04,0.159,0.069c0.069,0.03,0.127,0.063,0.174,0.1
		c0.046,0.036,0.092,0.077,0.139,0.124c0.331,0.33,0.41,0.724,0.238,1.181c-0.245,0.733-0.83,1.138-1.756,1.21
		c-0.695,0.053-1.343-0.099-1.945-0.456L33.17,45.714z"/>
</g>
<g>
	<path d="M42.744,42.071c0.057-0.094,0.198-0.142,0.425-0.142h8.093h0.595c0.123,0.019,0.208,0.083,0.255,0.191
		c0.047,0.109,0.023,0.206-0.071,0.291c-0.057,0.057-0.156,0.085-0.297,0.085h-8.575c-0.142,0-0.227-0.004-0.255-0.014
		c-0.085-0.019-0.146-0.073-0.184-0.163C42.691,42.23,42.696,42.147,42.744,42.071z M42.914,39.194
		c0.019-0.009,0.099-0.014,0.241-0.014h8.122l0.297-0.014c0.199,0,0.298,0.005,0.298,0.014c0.113,0.019,0.191,0.085,0.234,0.198
		s0.021,0.208-0.064,0.284c-0.057,0.057-0.161,0.085-0.312,0.085h-8.519c-0.151,0-0.241-0.005-0.269-0.014
		c-0.151-0.028-0.229-0.116-0.234-0.262S42.772,39.232,42.914,39.194z"/>
</g>
<g>
	<path d="M180.414,29.494c0.047-0.113,0.179-0.288,0.397-0.524c0.454-0.52,0.992-0.836,1.616-0.95
		c0.208-0.038,0.435-0.042,0.68-0.014c0.595,0.057,0.997,0.26,1.205,0.609c0.208,0.35,0.227,0.917,0.057,1.701l-0.638,2.99
		c-0.132,0.699-0.227,1.144-0.283,1.333c0,0.104-0.071,0.156-0.213,0.156c-0.028,0-0.047,0-0.057,0h-0.666l0.893-4.195
		c0.009-0.047,0.028-0.135,0.057-0.262s0.047-0.224,0.057-0.291c0.009-0.066,0.019-0.153,0.028-0.262
		c0.009-0.108,0.004-0.206-0.014-0.291c-0.019-0.085-0.047-0.17-0.085-0.255c-0.208-0.406-0.676-0.586-1.403-0.539
		c-0.435,0.057-0.806,0.26-1.113,0.609s-0.541,0.756-0.701,1.219c-0.038,0.123-0.111,0.437-0.22,0.942
		c-0.109,0.506-0.225,1.063-0.347,1.672c-0.123,0.61-0.208,1.014-0.255,1.212c-0.009,0.028-0.021,0.076-0.036,0.142
		c-0.014,0.066-0.026,0.119-0.035,0.156c0,0.038-0.005,0.066-0.014,0.085c-0.01,0.019-0.028,0.033-0.057,0.042
		s-0.05,0.014-0.064,0.014s-0.042,0-0.085,0s-0.069,0-0.078,0h-0.638l1.417-6.69h0.864l-0.283,1.389H180.414z"/>
</g>
<g>
	<path d="M187.065,30.036h1.964c0.311,0,0.542,0.003,0.694,0.01c0.152,0.007,0.333,0.03,0.541,0.069
		c0.208,0.04,0.405,0.103,0.59,0.188c0.278,0.119,0.512,0.293,0.704,0.521c0.192,0.229,0.271,0.511,0.238,0.848
		c-0.046,0.331-0.222,0.629-0.526,0.893c-0.304,0.265-0.651,0.463-1.042,0.595c-0.066,0.02-0.166,0.046-0.298,0.08
		s-0.228,0.06-0.288,0.079c0.595,0.086,1.052,0.288,1.369,0.605c0.41,0.41,0.506,0.87,0.288,1.379
		c-0.159,0.403-0.483,0.757-0.972,1.062c-0.496,0.311-1.059,0.493-1.687,0.546c-0.08,0.006-0.43,0.01-1.052,0.01h-1.984
		L187.065,30.036z M186.391,36.365h1.29c0.443,0,0.711-0.003,0.804-0.01c0.502-0.04,0.949-0.159,1.339-0.357
		c0.648-0.331,0.958-0.721,0.932-1.17c-0.02-0.351-0.238-0.645-0.655-0.883c-0.337-0.191-0.764-0.304-1.28-0.337
		c0-0.007-0.142-0.007-0.426,0h-0.427h-0.893c-0.026,0-0.048,0.003-0.064,0.01c-0.017,0.007-0.03,0.018-0.04,0.035
		s-0.017,0.03-0.02,0.04c-0.003,0.01-0.008,0.032-0.015,0.064c-0.007,0.033-0.01,0.053-0.01,0.06
		c-0.007,0.046-0.035,0.187-0.084,0.422c-0.05,0.235-0.106,0.498-0.169,0.789s-0.104,0.493-0.124,0.605
		C186.47,35.975,186.417,36.22,186.391,36.365z M187.085,33.082h0.982c0.47,0,0.771-0.007,0.903-0.02
		c0.443-0.053,0.865-0.168,1.265-0.347c0.4-0.179,0.676-0.413,0.828-0.705c0.066-0.132,0.1-0.258,0.1-0.377
		c-0.007-0.291-0.208-0.539-0.605-0.744c-0.198-0.099-0.432-0.172-0.699-0.218c-0.268-0.046-0.471-0.071-0.61-0.074
		c-0.139-0.003-0.384-0.005-0.734-0.005h-0.803c-0.02,0-0.037,0.003-0.05,0.01c-0.013,0.007-0.025,0.013-0.035,0.02
		c-0.01,0.006-0.018,0.018-0.025,0.035c-0.006,0.017-0.01,0.028-0.01,0.035c0,0.007-0.003,0.021-0.01,0.044
		c-0.007,0.023-0.01,0.038-0.01,0.045C187.379,31.772,187.217,32.539,187.085,33.082z"/>
</g>
<g>
	<path d="M197.426,30.784c0.019-0.009,0.094-0.014,0.227-0.014h7.441h0.539c0.113,0.019,0.187,0.085,0.22,0.199
		s0.012,0.208-0.064,0.283c-0.028,0.028-0.071,0.052-0.127,0.071c-0.057,0.019-0.106,0.029-0.149,0.029s-0.099-0.002-0.17-0.007
		s-0.116-0.007-0.135-0.007h-7.54c-0.142,0-0.222-0.004-0.241-0.014c-0.142-0.038-0.21-0.125-0.206-0.262
		C197.225,30.923,197.293,30.831,197.426,30.784z"/>
</g>
<g>
	<path d="M213.371,29.494c0.047-0.113,0.179-0.288,0.397-0.524c0.454-0.52,0.992-0.836,1.616-0.95
		c0.208-0.038,0.435-0.042,0.68-0.014c0.595,0.057,0.997,0.26,1.205,0.609c0.208,0.35,0.227,0.917,0.057,1.701l-0.638,2.99
		c-0.132,0.699-0.227,1.144-0.283,1.333c0,0.104-0.071,0.156-0.213,0.156c-0.028,0-0.047,0-0.057,0h-0.666l0.893-4.195
		c0.009-0.047,0.028-0.135,0.057-0.262s0.047-0.224,0.057-0.291c0.009-0.066,0.019-0.153,0.028-0.262
		c0.009-0.108,0.004-0.206-0.014-0.291c-0.019-0.085-0.047-0.17-0.085-0.255c-0.208-0.406-0.676-0.586-1.403-0.539
		c-0.435,0.057-0.806,0.26-1.113,0.609s-0.541,0.756-0.701,1.219c-0.038,0.123-0.111,0.437-0.22,0.942
		c-0.109,0.506-0.225,1.063-0.347,1.672c-0.123,0.61-0.208,1.014-0.255,1.212c-0.009,0.028-0.021,0.076-0.036,0.142
		c-0.014,0.066-0.026,0.119-0.035,0.156c0,0.038-0.005,0.066-0.014,0.085c-0.01,0.019-0.028,0.033-0.057,0.042
		s-0.05,0.014-0.064,0.014s-0.042,0-0.085,0s-0.069,0-0.078,0h-0.638l1.417-6.69h0.864l-0.283,1.389H213.371z"/>
</g>
<g>
	<path d="M220.401,29.761h3.85v0.555h-3.85V29.761z"/>
</g>
<g>
	<path d="M220.023,31.35h1.964c0.311,0,0.542,0.003,0.694,0.01c0.152,0.007,0.333,0.03,0.541,0.069
		c0.208,0.04,0.405,0.103,0.59,0.188c0.278,0.119,0.512,0.293,0.704,0.521c0.192,0.229,0.271,0.511,0.238,0.848
		c-0.046,0.331-0.222,0.629-0.526,0.893c-0.304,0.265-0.651,0.463-1.042,0.595c-0.066,0.02-0.166,0.046-0.298,0.08
		s-0.228,0.06-0.288,0.079c0.595,0.086,1.052,0.288,1.369,0.605c0.41,0.41,0.506,0.87,0.288,1.379
		c-0.159,0.403-0.483,0.757-0.972,1.062c-0.496,0.311-1.059,0.493-1.687,0.546c-0.08,0.006-0.43,0.01-1.052,0.01h-1.984
		L220.023,31.35z M219.349,37.679h1.29c0.443,0,0.711-0.003,0.804-0.01c0.502-0.04,0.949-0.159,1.339-0.357
		c0.648-0.331,0.958-0.721,0.932-1.17c-0.02-0.351-0.238-0.645-0.655-0.883c-0.337-0.191-0.764-0.304-1.28-0.337
		c0-0.007-0.142-0.007-0.426,0h-0.427h-0.893c-0.026,0-0.048,0.003-0.064,0.01c-0.017,0.007-0.03,0.018-0.04,0.035
		s-0.017,0.03-0.02,0.04c-0.003,0.01-0.008,0.032-0.015,0.064c-0.007,0.033-0.01,0.053-0.01,0.06
		c-0.007,0.046-0.035,0.187-0.084,0.422c-0.05,0.235-0.106,0.498-0.169,0.789s-0.104,0.493-0.124,0.605
		C219.428,37.289,219.375,37.534,219.349,37.679z M220.043,34.396h0.982c0.47,0,0.771-0.007,0.903-0.02
		c0.443-0.053,0.865-0.168,1.265-0.347c0.4-0.179,0.676-0.413,0.828-0.705c0.066-0.132,0.1-0.258,0.1-0.377
		c-0.007-0.291-0.208-0.539-0.605-0.744c-0.198-0.099-0.432-0.172-0.699-0.218c-0.268-0.046-0.471-0.071-0.61-0.074
		c-0.139-0.003-0.384-0.005-0.734-0.005h-0.803c-0.02,0-0.037,0.003-0.05,0.01c-0.013,0.007-0.025,0.013-0.035,0.02
		c-0.01,0.006-0.018,0.018-0.025,0.035c-0.006,0.017-0.01,0.028-0.01,0.035c0,0.007-0.003,0.021-0.01,0.044
		c-0.007,0.023-0.01,0.038-0.01,0.045C220.337,33.086,220.175,33.853,220.043,34.396z"/>
</g>
<g>
	<rect x="58.063" y="40.553" width="286.971" height="0.574"/>
</g>
<g>
	<path d="M60.101,49.178c-0.04-0.033-0.091-0.089-0.154-0.169c-0.063-0.079-0.101-0.125-0.114-0.139
		c-0.073-0.086-0.109-0.139-0.109-0.158c-0.013-0.033,0-0.097,0.04-0.188c0.125-0.351,0.311-0.648,0.556-0.894
		c0.397-0.37,0.898-0.556,1.503-0.556c0.605,0,1.116,0.176,1.533,0.526c0.337,0.277,0.555,0.64,0.655,1.086
		c0.099,0.446,0.049,0.868-0.149,1.265c-0.073,0.133-0.152,0.259-0.238,0.378c-0.086,0.118-0.202,0.244-0.347,0.377
		c-0.146,0.132-0.251,0.227-0.317,0.282c-0.066,0.057-0.202,0.164-0.407,0.322c-0.205,0.159-0.321,0.248-0.347,0.269
		c-0.225,0.178-0.536,0.444-0.933,0.798c-0.397,0.354-0.688,0.607-0.873,0.76h3.661v0.585h-4.266v-0.367
		c0-0.093,0.005-0.15,0.015-0.174c0.01-0.022,0.038-0.058,0.084-0.104c0.146-0.126,0.409-0.362,0.789-0.71
		c0.38-0.347,0.656-0.59,0.828-0.729c0.04-0.033,0.137-0.111,0.293-0.233c0.155-0.122,0.27-0.215,0.342-0.278
		c0.073-0.062,0.178-0.156,0.317-0.282c0.139-0.126,0.248-0.238,0.327-0.338c0.08-0.099,0.166-0.213,0.258-0.342
		c0.092-0.129,0.164-0.262,0.213-0.396c0.049-0.136,0.084-0.273,0.104-0.412c0.046-0.377-0.023-0.711-0.208-1.002
		c-0.284-0.424-0.731-0.658-1.339-0.704c-0.291-0.021-0.542,0.013-0.754,0.099C60.627,47.935,60.306,48.41,60.101,49.178z"/>
</g>
<g>
	<path d="M64.893,50.537c0.033-0.119,0.152-0.314,0.357-0.586c0.317-0.416,0.648-0.69,0.992-0.823
		c0.079-0.033,0.172-0.056,0.277-0.069c0.106-0.013,0.189-0.021,0.248-0.024c0.06-0.004,0.161-0.004,0.303,0
		c0.142,0.003,0.23,0.005,0.263,0.005h3.036c0.013,0,0.04,0,0.08,0c0.04,0,0.069,0,0.089,0c0.02,0,0.046,0.002,0.079,0.005
		s0.06,0.01,0.08,0.02c0.02,0.01,0.041,0.023,0.064,0.04c0.023,0.017,0.041,0.038,0.054,0.064c0.046,0.093,0.042,0.19-0.015,0.293
		s-0.134,0.17-0.233,0.203c-0.046,0.013-0.192,0.02-0.437,0.02h-0.833c0,0.026-0.012,0.096-0.035,0.209
		c-0.023,0.112-0.046,0.234-0.07,0.366c-0.023,0.133-0.038,0.222-0.044,0.269c-0.06,0.384-0.089,0.773-0.089,1.171
		c0,0.509,0.073,0.962,0.218,1.358c0.006,0.026,0.02,0.063,0.04,0.109c0.02,0.047,0.033,0.079,0.04,0.1
		c0.006,0.02,0.015,0.048,0.024,0.084c0.01,0.036,0.013,0.066,0.01,0.089c-0.003,0.023-0.01,0.05-0.02,0.08
		c-0.01,0.029-0.025,0.061-0.044,0.094c-0.007,0.007-0.015,0.015-0.025,0.025c-0.01,0.01-0.017,0.018-0.02,0.024
		s-0.01,0.014-0.02,0.02c-0.01,0.007-0.019,0.014-0.025,0.021c-0.08,0.06-0.162,0.092-0.248,0.099s-0.162-0.026-0.228-0.099
		c-0.1-0.133-0.195-0.403-0.288-0.813c-0.132-0.608-0.132-1.386,0-2.332c0.007-0.06,0.033-0.211,0.08-0.456
		c0.046-0.245,0.069-0.384,0.069-0.417h-0.595c-0.126,0-0.195,0.01-0.208,0.03c-0.006,0.013-0.096,0.406-0.268,1.181
		c-0.179,0.78-0.45,1.627-0.813,2.539c-0.066,0.159-0.139,0.262-0.219,0.308c-0.079,0.06-0.177,0.075-0.292,0.045
		c-0.116-0.029-0.18-0.098-0.193-0.203c-0.007-0.066,0.04-0.215,0.139-0.446c0.278-0.682,0.562-1.647,0.854-2.897
		c0.073-0.351,0.112-0.536,0.119-0.556h-0.387c-0.231,0-0.4,0.03-0.506,0.09c-0.205,0.105-0.414,0.32-0.625,0.645
		c-0.033,0.06-0.064,0.094-0.094,0.104c-0.03,0.01-0.088,0.015-0.174,0.015H64.893z"/>
</g>
<g>
	<path d="M71.852,47.622c-0.057-0.052-0.128-0.135-0.213-0.248c-0.052-0.065-0.08-0.104-0.085-0.113
		c-0.005-0.023,0.003-0.058,0.025-0.103c0.021-0.045,0.032-0.069,0.032-0.074c0.137-0.308,0.305-0.534,0.503-0.681
		c0.302-0.217,0.664-0.315,1.084-0.294s0.77,0.147,1.049,0.379c0.25,0.203,0.412,0.466,0.485,0.787s0.034,0.626-0.117,0.914
		c-0.052,0.095-0.111,0.184-0.177,0.269c-0.066,0.086-0.151,0.173-0.255,0.263c-0.104,0.09-0.183,0.157-0.238,0.202
		c-0.054,0.045-0.152,0.119-0.294,0.223c-0.142,0.104-0.227,0.168-0.255,0.191c-0.279,0.203-0.721,0.569-1.325,1.099h2.693v0.439
		h-3.154v-0.276c0-0.071,0.002-0.113,0.007-0.128c0.004-0.014,0.028-0.042,0.071-0.085l0.135-0.113
		c0.553-0.486,0.959-0.831,1.219-1.034c0.401-0.312,0.673-0.548,0.815-0.709c0.212-0.25,0.335-0.51,0.369-0.779
		c0.038-0.274-0.017-0.515-0.163-0.723c-0.199-0.293-0.518-0.456-0.957-0.489c-0.194-0.015-0.369,0.007-0.524,0.063
		C72.246,46.729,72.003,47.069,71.852,47.622z"/>
</g>
<g>
	<rect x="59.258" y="55.473" width="16.402" height="0.574"/>
</g>
<g>
	<path d="M62.411,62.414v-0.366c0-0.14,0.03-0.248,0.089-0.328c0.066-0.105,0.278-0.427,0.635-0.962l1.28-1.955
		c0.317-0.462,0.549-0.813,0.694-1.051l0.089-0.119c0.02-0.014,0.096-0.021,0.228-0.021h0.566v4.247h1.161v0.555h-1.161v1.776
		h-0.635v-1.776H62.411z M65.387,58.208l-0.218,0.406l-1.27,2.005l-0.803,1.24h2.292V58.208z"/>
	<path d="M68.383,57.702h3.522v0.556h-2.877v2.252c0.463-0.357,0.966-0.513,1.508-0.467c0.39,0.06,0.73,0.222,1.022,0.486
		c0.43,0.391,0.663,0.887,0.699,1.488c0.036,0.602-0.137,1.118-0.521,1.548c-0.311,0.351-0.703,0.584-1.175,0.699
		c-0.473,0.116-0.935,0.098-1.384-0.055c-0.483-0.165-0.87-0.416-1.161-0.754c-0.04-0.039-0.06-0.072-0.06-0.099
		c0-0.04,0.092-0.199,0.278-0.477h0.01c0.238,0.337,0.519,0.579,0.843,0.725c0.311,0.158,0.668,0.223,1.072,0.193
		c0.403-0.03,0.73-0.171,0.982-0.422c0.245-0.245,0.384-0.582,0.417-1.012c0.026-0.364-0.015-0.703-0.124-1.018
		c-0.109-0.313-0.31-0.537-0.601-0.669c-0.297-0.14-0.625-0.161-0.982-0.064c-0.357,0.096-0.615,0.263-0.774,0.501l-0.119,0.148
		c-0.02,0.007-0.079,0.01-0.179,0.01h-0.396V57.702z"/>
</g>
<g>
	<path d="M82.461,42.848h3.256v0.674h-2.582v24.455h2.582v0.674h-3.256V42.848z"/>
</g>
<g>
	<path d="M88.001,62.141h6.096c2.108,0,3.098-0.345,3.328-0.416c1.219-0.416,2.18-1.291,2.539-2.367h0.359l-1.234,3.572h-11.89
		c-0.258,0-0.388,0-0.388-0.158c0-0.058,0.015-0.086,0.129-0.229l5.092-6.297l-5.235-7.2c0-0.444,0.014-0.459,0.402-0.459h11.89
		l1.234,3.356h-0.359c-1.004-2.683-4.303-2.782-5.938-2.782h-5.68l4.661,6.396c0.086,0.129,0.101,0.144,0.101,0.201
		c0,0.057-0.029,0.101-0.129,0.229L88.001,62.141z"/>
</g>
<g>
	<path d="M102.942,58.802h0.655l-0.962,4.554l-0.04,0.109c-0.086,0.013-0.301,0.02-0.645,0.02L102.942,58.802z M103.27,57.254
		c0.085-0.384,0.135-0.596,0.148-0.635c0.086-0.014,0.301-0.021,0.645-0.021c-0.086,0.384-0.136,0.596-0.149,0.636
		C103.828,57.247,103.613,57.254,103.27,57.254z"/>
</g>
<g>
	<path d="M104.973,61.778c0.04-0.073,0.146-0.109,0.317-0.109h5.824h0.427c0.086,0.013,0.144,0.062,0.174,0.144
		c0.03,0.083,0.015,0.157-0.045,0.224c-0.026,0.02-0.061,0.036-0.104,0.05c-0.043,0.013-0.08,0.02-0.109,0.02
		s-0.073-0.002-0.129-0.005c-0.056-0.004-0.091-0.005-0.104-0.005h-5.923c-0.106,0-0.169-0.004-0.188-0.01
		c-0.066-0.014-0.114-0.054-0.144-0.119C104.938,61.9,104.94,61.838,104.973,61.778z M105.112,59.655
		c0.02-0.007,0.079-0.011,0.178-0.011h5.814h0.437c0.086,0.014,0.144,0.062,0.174,0.145c0.03,0.082,0.015,0.157-0.045,0.223
		c-0.026,0.021-0.061,0.037-0.104,0.05c-0.043,0.014-0.08,0.02-0.109,0.02s-0.073-0.001-0.129-0.005
		c-0.056-0.003-0.091-0.005-0.104-0.005h-5.923c-0.106,0-0.169-0.003-0.188-0.01c-0.106-0.026-0.159-0.094-0.159-0.203
		S105.006,59.682,105.112,59.655z"/>
</g>
<g>
	<path d="M114.581,56.599h0.655c-0.073,0.371-0.18,0.89-0.322,1.558c-0.143,0.669-0.237,1.108-0.283,1.32
		c0.04-0.026,0.092-0.069,0.159-0.129c0.066-0.06,0.115-0.103,0.148-0.13c0.225-0.158,0.496-0.292,0.814-0.401
		c0.317-0.109,0.618-0.131,0.903-0.064c0.331,0.086,0.582,0.286,0.754,0.601c0.172,0.313,0.261,0.656,0.268,1.026
		c0.007,0.582-0.127,1.136-0.402,1.662c-0.274,0.525-0.656,0.935-1.146,1.225c-0.285,0.166-0.576,0.264-0.873,0.293
		c-0.298,0.03-0.592-0.041-0.883-0.213c-0.218-0.139-0.36-0.317-0.426-0.536h-0.01c-0.013,0.047-0.028,0.116-0.044,0.209
		c-0.017,0.092-0.033,0.175-0.05,0.247c-0.017,0.073-0.035,0.14-0.055,0.199c-0.086,0.013-0.307,0.02-0.665,0.02L114.581,56.599z
		 M116.645,59.536c-0.297-0.219-0.613-0.312-0.947-0.278s-0.633,0.162-0.898,0.387c-0.026,0.026-0.058,0.057-0.094,0.09
		c-0.037,0.033-0.061,0.056-0.074,0.069c-0.014,0.014-0.028,0.033-0.045,0.06s-0.03,0.056-0.04,0.089s-0.019,0.073-0.025,0.119
		l-0.06,0.288l-0.347,1.637c0,0.014-0.012,0.063-0.035,0.148c-0.023,0.087-0.035,0.149-0.035,0.189
		c0.013,0.146,0.076,0.28,0.188,0.406c0.125,0.159,0.301,0.253,0.526,0.283c0.225,0.029,0.438,0.013,0.64-0.05
		s0.382-0.145,0.541-0.243c0.549-0.344,0.889-0.942,1.021-1.796C117.068,60.293,116.962,59.827,116.645,59.536z"/>
</g>
<g>
	<path d="M126.29,57.729c-0.085,0.18-0.222,0.373-0.411,0.581c-0.624,0.718-1.333,1.03-2.126,0.936
		c-0.709-0.123-1.212-0.489-1.51-1.099c-0.297-0.609-0.347-1.335-0.148-2.176c0.264-1.067,0.827-1.937,1.687-2.607l0.383-0.256
		c0.255-0.15,0.52-0.264,0.793-0.34c0.274-0.075,0.56-0.094,0.857-0.057c0.298,0.038,0.555,0.146,0.772,0.326
		c0.189,0.17,0.373,0.468,0.553,0.893l0.227-1.119l0.057-0.1c0.179-0.009,0.468-0.014,0.864-0.014
		c-0.501,2.409-0.954,4.54-1.36,6.392c-0.132,0.604-0.27,1.035-0.411,1.29c-0.236,0.425-0.551,0.791-0.942,1.099
		c-0.392,0.307-0.82,0.508-1.283,0.602c-0.832,0.143-1.635,0.043-2.41-0.297c-0.057-0.028-0.118-0.06-0.184-0.093
		c-0.066-0.033-0.14-0.07-0.22-0.113c-0.081-0.042-0.144-0.073-0.191-0.092l0.17-0.779c0.047,0.019,0.118,0.059,0.213,0.12
		c0.094,0.062,0.165,0.102,0.212,0.12c0.482,0.265,1.058,0.416,1.729,0.454c0.283,0.019,0.496,0.014,0.638-0.015
		c0.349-0.075,0.664-0.25,0.942-0.524c0.279-0.273,0.484-0.591,0.617-0.949c0.085-0.208,0.189-0.628,0.312-1.262
		c0.009-0.028,0.04-0.158,0.092-0.39c0.052-0.231,0.083-0.408,0.092-0.531H126.29z M126.389,53.547
		c-0.189-0.132-0.414-0.182-0.673-0.148s-0.491,0.092-0.694,0.177c-0.204,0.085-0.395,0.189-0.574,0.312
		c-0.406,0.273-0.744,0.631-1.013,1.069c-0.27,0.439-0.438,0.905-0.503,1.396c-0.057,0.396-0.017,0.782,0.121,1.155
		c0.137,0.373,0.371,0.649,0.702,0.829c0.302,0.17,0.614,0.241,0.936,0.213c0.444-0.038,0.841-0.274,1.19-0.709
		c0.378-0.473,0.675-1.2,0.893-2.183c0.076-0.321,0.132-0.6,0.17-0.836C126.941,54.181,126.757,53.755,126.389,53.547z"/>
</g>
<g>
	<path d="M129.806,56.943h0.655l-0.962,4.554l-0.04,0.109c-0.086,0.013-0.301,0.02-0.645,0.02L129.806,56.943z M130.133,55.396
		c0.085-0.384,0.135-0.596,0.148-0.635c0.086-0.014,0.301-0.021,0.645-0.021c-0.086,0.384-0.136,0.596-0.149,0.636
		C130.692,55.389,130.477,55.396,130.133,55.396z"/>
</g>
<g>
	<path d="M139.048,62.646h-0.468c-0.132,0-0.212-0.005-0.241-0.015c-0.113-0.057-0.321-0.236-0.624-0.538
		c-0.548-0.548-0.992-1.162-1.333-1.843c-0.728-1.455-1.054-3.118-0.978-4.988c0.057-1.2,0.281-2.299,0.673-3.296
		s0.928-1.835,1.609-2.516c0.321-0.321,0.539-0.51,0.652-0.567c0.028-0.009,0.108-0.014,0.241-0.014h0.468
		c-0.038,0.048-0.165,0.165-0.382,0.354c-0.444,0.378-0.889,0.982-1.333,1.814c-0.614,1.181-0.955,2.589-1.021,4.224
		c-0.057,1.332,0.092,2.589,0.447,3.77c0.354,1.181,0.886,2.159,1.594,2.934c0.132,0.151,0.236,0.26,0.312,0.326
		C138.883,62.481,139.011,62.599,139.048,62.646z"/>
</g>
<g>
	<path d="M140.782,50.457c0.057-0.34,0.113-0.581,0.17-0.723c0.123-0.037,0.468-0.049,1.035-0.035
		c0.567,0.015,0.926,0.017,1.077,0.007h7.058l-0.156,0.751h-3.812c-0.17,0-0.265,0.015-0.284,0.043
		c-0.028,0.048-0.042,0.104-0.042,0.17c-1.001,4.63-1.616,7.512-1.842,8.646l-0.057,0.156c-0.019,0.019-0.109,0.028-0.27,0.028
		h-0.708l1.927-9.043H140.782z"/>
</g>
<g>
	<path d="M150.22,56.943h0.655l-0.962,4.554l-0.04,0.109c-0.086,0.013-0.301,0.02-0.645,0.02L150.22,56.943z M150.547,55.396
		c0.085-0.384,0.135-0.596,0.148-0.635c0.086-0.014,0.301-0.021,0.645-0.021c-0.086,0.384-0.136,0.596-0.149,0.636
		C151.106,55.389,150.891,55.396,150.547,55.396z"/>
</g>
<g>
	<path d="M158.078,48.884c0.076-0.028,0.149-0.019,0.22,0.029c0.071,0.047,0.116,0.113,0.135,0.198c0,0.066-0.019,0.146-0.057,0.24
		l-0.78,2.098l-4.067,10.928c-0.047,0.151-0.133,0.241-0.255,0.27c-0.104,0-0.18-0.023-0.227-0.071
		c-0.038-0.028-0.066-0.062-0.085-0.099c-0.019-0.038-0.024-0.083-0.015-0.135c0.01-0.052,0.019-0.092,0.029-0.12
		c0.009-0.028,0.028-0.076,0.057-0.143c0.028-0.065,0.042-0.104,0.042-0.113l4.62-12.415l0.128-0.354
		C157.898,49.017,157.984,48.913,158.078,48.884z"/>
	<path d="M160.133,50.457c0.057-0.34,0.113-0.581,0.17-0.723c0.123-0.037,0.468-0.049,1.035-0.035
		c0.567,0.015,0.926,0.017,1.077,0.007h7.058l-0.156,0.751h-3.812c-0.17,0-0.265,0.015-0.284,0.043
		c-0.028,0.048-0.042,0.104-0.042,0.17c-1.001,4.63-1.616,7.512-1.842,8.646l-0.057,0.156c-0.019,0.019-0.109,0.028-0.27,0.028
		h-0.708l1.927-9.043H160.133z"/>
</g>
<g>
	<path d="M170.654,48.87h0.467c0.142,0,0.222,0.005,0.241,0.014c0.113,0.058,0.321,0.236,0.624,0.539
		c0.548,0.548,0.992,1.162,1.333,1.843c0.727,1.455,1.053,3.118,0.978,4.988c-0.057,1.2-0.281,2.299-0.673,3.296
		c-0.393,0.996-0.929,1.835-1.609,2.516c-0.321,0.321-0.539,0.51-0.652,0.566c-0.028,0.01-0.109,0.015-0.241,0.015h-0.467
		c0.038-0.048,0.165-0.165,0.382-0.354c0.076-0.066,0.18-0.175,0.312-0.326c0.416-0.463,0.76-0.973,1.035-1.53
		c0.746-1.475,1.082-3.198,1.006-5.173c-0.095-2.362-0.775-4.267-2.041-5.712c-0.132-0.151-0.236-0.26-0.312-0.326
		C170.819,49.035,170.692,48.918,170.654,48.87z"/>
</g>
<g>
	<path d="M176.542,47.341c-0.205-0.271-0.308-0.423-0.308-0.456s0.062-0.129,0.188-0.288c0.218-0.251,0.496-0.463,0.833-0.635
		c0.317-0.151,0.656-0.232,1.017-0.243c0.36-0.01,0.703,0.059,1.027,0.204c0.509,0.251,0.807,0.599,0.893,1.041
		c0.066,0.391-0.02,0.768-0.258,1.131c-0.159,0.232-0.357,0.424-0.596,0.576c-0.026,0.02-0.079,0.05-0.159,0.089
		c-0.079,0.04-0.139,0.073-0.178,0.1c0.145,0.02,0.333,0.093,0.565,0.218c0.344,0.192,0.605,0.46,0.784,0.804
		c0.132,0.298,0.179,0.597,0.139,0.898c-0.04,0.301-0.152,0.583-0.337,0.848c-0.046,0.066-0.126,0.155-0.238,0.269
		c-0.311,0.304-0.694,0.495-1.151,0.575c-0.457,0.079-0.886,0.05-1.29-0.09c-0.51-0.151-0.946-0.437-1.31-0.853
		c-0.053-0.066-0.082-0.107-0.084-0.124c-0.003-0.017,0.001-0.064,0.015-0.145c0.033-0.211,0.06-0.337,0.08-0.377
		c0.502,0.662,1.157,1.022,1.964,1.082c0.489,0.046,0.89-0.066,1.2-0.338c0.271-0.225,0.427-0.53,0.466-0.918
		c0.04-0.387-0.043-0.722-0.248-1.007c-0.172-0.238-0.407-0.406-0.704-0.506c-0.166-0.053-0.417-0.079-0.754-0.079h-0.705v-0.526
		c0.06,0,0.146-0.005,0.258-0.015s0.195-0.018,0.248-0.024c0.258-0.014,0.47-0.046,0.635-0.1c0.284-0.093,0.522-0.254,0.714-0.486
		c0.191-0.231,0.288-0.489,0.288-0.773c0-0.542-0.341-0.854-1.022-0.933c-0.615-0.066-1.147,0.126-1.597,0.575
		c-0.126,0.126-0.248,0.295-0.367,0.506H176.542z"/>
</g>
<g>
	<path d="M189.844,55.475v-3.926c0-0.16,0.004-0.26,0.014-0.298c0.028-0.142,0.118-0.212,0.269-0.212c0.151,0,0.241,0.07,0.27,0.212
		c0.009,0.028,0.014,0.123,0.014,0.283v3.94h3.926c0.161,0,0.255,0.005,0.284,0.015c0.142,0.028,0.212,0.118,0.212,0.269
		c0,0.151-0.071,0.241-0.212,0.27c-0.028,0.01-0.123,0.015-0.284,0.015h-3.926v3.939c0,0.161-0.005,0.256-0.014,0.284
		c-0.028,0.142-0.118,0.212-0.27,0.212c-0.151,0-0.241-0.07-0.269-0.212c-0.01-0.028-0.014-0.123-0.014-0.284v-3.939h-3.94
		c-0.161,0-0.255-0.005-0.283-0.015c-0.142-0.028-0.213-0.118-0.213-0.27c0-0.15,0.071-0.24,0.213-0.269
		c0.028-0.01,0.123-0.015,0.283-0.015H189.844z"/>
	<path d="M199.396,50.202h6.18v0.496c0,0.142-0.005,0.227-0.014,0.255c-0.019,0.048-0.104,0.147-0.255,0.298
		c-0.699,0.832-1.247,1.611-1.644,2.339c-1.021,1.899-1.531,3.907-1.531,6.023h-0.949c0-2.514,0.732-4.795,2.197-6.846
		c0.52-0.699,1.044-1.29,1.573-1.771h-5.556V50.202z"/>
</g>
<g>
	<path d="M212.152,48.884c0.076-0.028,0.149-0.019,0.22,0.029c0.071,0.047,0.116,0.113,0.135,0.198c0,0.066-0.019,0.146-0.057,0.24
		l-0.78,2.098l-4.067,10.928c-0.047,0.151-0.133,0.241-0.255,0.27c-0.104,0-0.18-0.023-0.227-0.071
		c-0.038-0.028-0.066-0.062-0.085-0.099c-0.019-0.038-0.024-0.083-0.015-0.135c0.01-0.052,0.019-0.092,0.029-0.12
		c0.009-0.028,0.028-0.076,0.057-0.143c0.028-0.065,0.042-0.104,0.042-0.113l4.62-12.415l0.128-0.354
		C211.973,49.017,212.058,48.913,212.152,48.884z"/>
</g>
<g>
	<path d="M216.078,54.482c-0.028-0.009-0.108-0.035-0.241-0.078c-0.132-0.042-0.232-0.082-0.298-0.12
		c-0.614-0.265-1.044-0.689-1.29-1.275c-0.161-0.426-0.161-0.855,0-1.29c0.161-0.435,0.425-0.798,0.793-1.091
		c0.567-0.463,1.276-0.686,2.126-0.666c0.652,0.019,1.25,0.227,1.793,0.623s0.857,0.907,0.942,1.531
		c0.038,0.425-0.028,0.798-0.198,1.119c-0.246,0.454-0.633,0.799-1.162,1.035c-0.076,0.037-0.182,0.08-0.319,0.127
		c-0.137,0.048-0.22,0.076-0.248,0.085c0.548,0.161,0.978,0.383,1.29,0.666c0.359,0.312,0.609,0.681,0.751,1.105
		c0.142,0.436,0.142,0.892,0,1.368c-0.142,0.478-0.378,0.881-0.709,1.212c-0.633,0.623-1.436,0.926-2.409,0.907
		c-0.662-0.02-1.271-0.234-1.829-0.646s-0.912-0.933-1.063-1.565c-0.047-0.208-0.071-0.401-0.071-0.581
		c0-0.501,0.161-0.969,0.482-1.403C214.769,55.073,215.322,54.719,216.078,54.482z M216.801,54.837
		c-0.615,0.048-1.096,0.265-1.446,0.652c-0.34,0.406-0.503,0.896-0.489,1.467s0.172,1.037,0.475,1.396
		c0.444,0.501,1.067,0.719,1.871,0.652c0.473-0.038,0.872-0.168,1.198-0.39s0.546-0.531,0.659-0.929
		c0.132-0.35,0.163-0.741,0.092-1.176c-0.071-0.435-0.239-0.789-0.503-1.063C218.213,54.993,217.594,54.79,216.801,54.837z
		 M216.801,50.67c-0.586,0.048-1.03,0.213-1.333,0.496s-0.465,0.664-0.489,1.141c-0.024,0.478,0.101,0.872,0.375,1.184
		c0.435,0.492,1.101,0.699,1.999,0.624c0.567-0.047,1.016-0.255,1.346-0.624c0.255-0.302,0.378-0.678,0.369-1.126
		c-0.01-0.449-0.142-0.82-0.397-1.113C218.265,50.808,217.642,50.613,216.801,50.67z"/>
</g>
<g>
	<path d="M225.125,62.141h6.096c2.108,0,3.098-0.345,3.328-0.416c1.219-0.416,2.18-1.291,2.539-2.367h0.359l-1.234,3.572h-11.89
		c-0.258,0-0.388,0-0.388-0.158c0-0.058,0.015-0.086,0.129-0.229l5.092-6.297l-5.235-7.2c0-0.444,0.014-0.459,0.402-0.459h11.89
		l1.234,3.356h-0.359c-1.004-2.683-4.303-2.782-5.938-2.782h-5.68l4.661,6.396c0.086,0.129,0.101,0.144,0.101,0.201
		c0,0.057-0.029,0.101-0.129,0.229L225.125,62.141z"/>
</g>
<g>
	<path d="M240.364,58.802h0.655c-0.007,0.039-0.167,0.805-0.481,2.297c-0.314,1.491-0.498,2.35-0.551,2.574
		c-0.086,0.403-0.168,0.665-0.248,0.784c-0.37,0.562-0.896,0.813-1.577,0.754c-0.337-0.021-0.668-0.113-0.992-0.278l0.258-0.525
		c0.146,0.086,0.245,0.139,0.298,0.158c0.278,0.106,0.561,0.128,0.848,0.064c0.288-0.062,0.491-0.187,0.61-0.372
		c0.013-0.02,0.092-0.37,0.238-1.051c0.146-0.682,0.309-1.449,0.491-2.302c0.182-0.854,0.299-1.396,0.352-1.628
		c0.007-0.032,0.023-0.105,0.05-0.218S240.357,58.861,240.364,58.802z M240.831,56.599h0.655l-0.129,0.655h-0.655L240.831,56.599z"
		/>
</g>
<g>
	<path d="M242.399,61.778c0.04-0.073,0.146-0.109,0.317-0.109h5.824h0.427c0.086,0.013,0.144,0.062,0.174,0.144
		c0.03,0.083,0.015,0.157-0.045,0.224c-0.026,0.02-0.061,0.036-0.104,0.05c-0.043,0.013-0.08,0.02-0.109,0.02
		s-0.073-0.002-0.129-0.005c-0.056-0.004-0.091-0.005-0.104-0.005h-5.923c-0.106,0-0.169-0.004-0.188-0.01
		c-0.066-0.014-0.114-0.054-0.144-0.119C242.365,61.9,242.366,61.838,242.399,61.778z M242.539,59.655
		c0.02-0.007,0.079-0.011,0.178-0.011h5.814h0.437c0.086,0.014,0.144,0.062,0.174,0.145c0.03,0.082,0.015,0.157-0.045,0.223
		c-0.026,0.021-0.061,0.037-0.104,0.05c-0.043,0.014-0.08,0.02-0.109,0.02s-0.073-0.001-0.129-0.005
		c-0.056-0.003-0.091-0.005-0.104-0.005h-5.923c-0.106,0-0.169-0.003-0.188-0.01c-0.106-0.026-0.159-0.094-0.159-0.203
		S242.433,59.682,242.539,59.655z"/>
</g>
<g>
	<path d="M251.015,58.802h0.764c0.066,0,0.112-0.053,0.139-0.159c0.06-0.37,0.121-0.646,0.184-0.828s0.17-0.369,0.322-0.561
		c0.529-0.648,1.353-0.866,2.471-0.655l-0.119,0.586c-0.026-0.007-0.086-0.023-0.179-0.05s-0.162-0.043-0.208-0.05
		c-0.324-0.06-0.638-0.051-0.942,0.025s-0.516,0.217-0.635,0.421c-0.02,0.033-0.056,0.166-0.109,0.397
		c-0.112,0.529-0.175,0.82-0.188,0.873h1.27c-0.04,0.238-0.08,0.406-0.119,0.506c-0.066,0.026-0.266,0.034-0.6,0.024
		s-0.547-0.011-0.64-0.005c-0.073,0.351-0.208,0.986-0.407,1.905c-0.198,0.919-0.347,1.63-0.446,2.133l-0.04,0.1
		c-0.086,0.013-0.301,0.02-0.645,0.02l0.883-4.157h-0.863L251.015,58.802z"/>
</g>
<g>
	<path d="M263.683,57.729c-0.085,0.18-0.222,0.373-0.411,0.581c-0.624,0.718-1.333,1.03-2.126,0.936
		c-0.709-0.123-1.212-0.489-1.51-1.099c-0.297-0.609-0.347-1.335-0.148-2.176c0.264-1.067,0.827-1.937,1.687-2.607l0.383-0.256
		c0.255-0.15,0.52-0.264,0.793-0.34c0.274-0.075,0.56-0.094,0.857-0.057c0.298,0.038,0.555,0.146,0.772,0.326
		c0.189,0.17,0.373,0.468,0.553,0.893l0.227-1.119l0.057-0.1c0.179-0.009,0.468-0.014,0.864-0.014
		c-0.501,2.409-0.954,4.54-1.36,6.392c-0.132,0.604-0.27,1.035-0.411,1.29c-0.236,0.425-0.551,0.791-0.942,1.099
		c-0.392,0.307-0.82,0.508-1.283,0.602c-0.832,0.143-1.635,0.043-2.41-0.297c-0.057-0.028-0.118-0.06-0.184-0.093
		c-0.066-0.033-0.14-0.07-0.22-0.113c-0.081-0.042-0.144-0.073-0.191-0.092l0.17-0.779c0.047,0.019,0.118,0.059,0.213,0.12
		c0.094,0.062,0.165,0.102,0.212,0.12c0.482,0.265,1.058,0.416,1.729,0.454c0.283,0.019,0.496,0.014,0.638-0.015
		c0.349-0.075,0.664-0.25,0.942-0.524c0.279-0.273,0.484-0.591,0.617-0.949c0.085-0.208,0.189-0.628,0.312-1.262
		c0.009-0.028,0.04-0.158,0.092-0.39c0.052-0.231,0.083-0.408,0.092-0.531H263.683z M263.782,53.547
		c-0.189-0.132-0.414-0.182-0.673-0.148s-0.491,0.092-0.694,0.177c-0.204,0.085-0.395,0.189-0.574,0.312
		c-0.406,0.273-0.744,0.631-1.013,1.069c-0.27,0.439-0.438,0.905-0.503,1.396c-0.057,0.396-0.017,0.782,0.121,1.155
		c0.137,0.373,0.371,0.649,0.702,0.829c0.302,0.17,0.614,0.241,0.936,0.213c0.444-0.038,0.841-0.274,1.19-0.709
		c0.378-0.473,0.675-1.2,0.893-2.183c0.076-0.321,0.132-0.6,0.17-0.836C264.334,54.181,264.15,53.755,263.782,53.547z"/>
</g>
<g>
	<path d="M267.496,56.943h0.655c-0.007,0.039-0.167,0.805-0.481,2.297c-0.314,1.491-0.498,2.35-0.551,2.574
		c-0.086,0.403-0.168,0.665-0.248,0.784c-0.37,0.562-0.896,0.813-1.577,0.754c-0.337-0.021-0.668-0.113-0.992-0.278l0.258-0.525
		c0.146,0.086,0.245,0.139,0.298,0.158c0.278,0.106,0.561,0.128,0.848,0.064c0.288-0.062,0.491-0.187,0.61-0.372
		c0.013-0.02,0.092-0.37,0.238-1.051c0.146-0.682,0.309-1.449,0.491-2.302c0.182-0.854,0.299-1.396,0.352-1.628
		c0.007-0.032,0.023-0.105,0.05-0.218S267.489,57.003,267.496,56.943z M267.962,54.74h0.655l-0.129,0.655h-0.655L267.962,54.74z"/>
</g>
<g>
	<path d="M276.742,62.646h-0.468c-0.132,0-0.212-0.005-0.241-0.015c-0.113-0.057-0.321-0.236-0.624-0.538
		c-0.548-0.548-0.992-1.162-1.333-1.843c-0.728-1.455-1.054-3.118-0.978-4.988c0.057-1.2,0.281-2.299,0.673-3.296
		s0.928-1.835,1.609-2.516c0.321-0.321,0.539-0.51,0.652-0.567c0.028-0.009,0.108-0.014,0.241-0.014h0.468
		c-0.038,0.048-0.165,0.165-0.382,0.354c-0.444,0.378-0.889,0.982-1.333,1.814c-0.614,1.181-0.955,2.589-1.021,4.224
		c-0.057,1.332,0.092,2.589,0.447,3.77c0.354,1.181,0.886,2.159,1.594,2.934c0.132,0.151,0.236,0.26,0.312,0.326
		C276.577,62.481,276.705,62.599,276.742,62.646z"/>
</g>
<g>
	<path d="M278.477,50.457c0.057-0.34,0.113-0.581,0.17-0.723c0.123-0.037,0.468-0.049,1.035-0.035
		c0.567,0.015,0.926,0.017,1.077,0.007h7.059l-0.156,0.751h-3.812c-0.17,0-0.265,0.015-0.284,0.043
		c-0.027,0.048-0.042,0.104-0.042,0.17c-1.001,4.63-1.616,7.512-1.842,8.646l-0.057,0.156c-0.019,0.019-0.109,0.028-0.27,0.028
		h-0.708l1.927-9.043H278.477z"/>
</g>
<g>
	<path d="M288.213,56.943h0.654c-0.007,0.039-0.167,0.805-0.48,2.297c-0.314,1.491-0.498,2.35-0.551,2.574
		c-0.086,0.403-0.169,0.665-0.248,0.784c-0.371,0.562-0.896,0.813-1.578,0.754c-0.337-0.021-0.668-0.113-0.992-0.278l0.259-0.525
		c0.146,0.086,0.244,0.139,0.297,0.158c0.278,0.106,0.561,0.128,0.849,0.064c0.288-0.062,0.491-0.187,0.61-0.372
		c0.013-0.02,0.093-0.37,0.238-1.051c0.146-0.682,0.309-1.449,0.491-2.302c0.182-0.854,0.299-1.396,0.352-1.628
		c0.007-0.032,0.023-0.105,0.05-0.218S288.206,57.003,288.213,56.943z M288.679,54.74h0.655l-0.129,0.655h-0.655L288.679,54.74z"/>
</g>
<g>
	<path d="M296.075,48.884c0.075-0.028,0.148-0.019,0.22,0.029c0.07,0.047,0.115,0.113,0.134,0.198c0,0.066-0.019,0.146-0.057,0.24
		l-0.779,2.098l-4.067,10.928c-0.048,0.151-0.133,0.241-0.255,0.27c-0.104,0-0.18-0.023-0.228-0.071
		c-0.037-0.028-0.065-0.062-0.085-0.099c-0.019-0.038-0.023-0.083-0.014-0.135c0.009-0.052,0.019-0.092,0.028-0.12
		c0.009-0.028,0.028-0.076,0.057-0.143c0.028-0.065,0.042-0.104,0.042-0.113l4.621-12.415l0.127-0.354
		C295.896,49.017,295.98,48.913,296.075,48.884z"/>
	<path d="M298.13,50.457c0.057-0.34,0.113-0.581,0.171-0.723c0.122-0.037,0.467-0.049,1.034-0.035
		c0.567,0.015,0.926,0.017,1.077,0.007h7.059l-0.156,0.751h-3.812c-0.17,0-0.265,0.015-0.283,0.043
		c-0.028,0.048-0.043,0.104-0.043,0.17c-1.002,4.63-1.615,7.512-1.843,8.646l-0.057,0.156c-0.019,0.019-0.108,0.028-0.269,0.028
		h-0.709l1.928-9.043H298.13z"/>
</g>
<g>
	<path d="M308.651,48.87h0.468c0.142,0,0.222,0.005,0.24,0.014c0.114,0.058,0.321,0.236,0.624,0.539
		c0.548,0.548,0.992,1.162,1.332,1.843c0.728,1.455,1.054,3.118,0.979,4.988c-0.057,1.2-0.281,2.299-0.674,3.296
		c-0.392,0.996-0.928,1.835-1.608,2.516c-0.321,0.321-0.538,0.51-0.652,0.566c-0.028,0.01-0.108,0.015-0.24,0.015h-0.468
		c0.037-0.048,0.165-0.165,0.383-0.354c0.075-0.066,0.179-0.175,0.312-0.326c0.416-0.463,0.761-0.973,1.034-1.53
		c0.747-1.475,1.082-3.198,1.007-5.173c-0.095-2.362-0.775-4.267-2.041-5.712c-0.133-0.151-0.236-0.26-0.312-0.326
		C308.816,49.035,308.688,48.918,308.651,48.87z"/>
</g>
<g>
	<path d="M314.539,47.341c-0.205-0.271-0.308-0.423-0.308-0.456s0.062-0.129,0.188-0.288c0.218-0.251,0.496-0.463,0.833-0.635
		c0.317-0.151,0.656-0.232,1.018-0.243c0.36-0.01,0.702,0.059,1.026,0.204c0.51,0.251,0.807,0.599,0.893,1.041
		c0.066,0.391-0.02,0.768-0.258,1.131c-0.158,0.232-0.356,0.424-0.595,0.576c-0.026,0.02-0.08,0.05-0.159,0.089
		c-0.079,0.04-0.139,0.073-0.179,0.1c0.146,0.02,0.334,0.093,0.565,0.218c0.344,0.192,0.605,0.46,0.784,0.804
		c0.132,0.298,0.179,0.597,0.139,0.898c-0.039,0.301-0.152,0.583-0.337,0.848c-0.047,0.066-0.126,0.155-0.238,0.269
		c-0.311,0.304-0.694,0.495-1.15,0.575c-0.457,0.079-0.887,0.05-1.29-0.09c-0.51-0.151-0.946-0.437-1.31-0.853
		c-0.054-0.066-0.081-0.107-0.085-0.124c-0.003-0.017,0.002-0.064,0.016-0.145c0.032-0.211,0.06-0.337,0.079-0.377
		c0.503,0.662,1.157,1.022,1.964,1.082c0.49,0.046,0.89-0.066,1.201-0.338c0.271-0.225,0.427-0.53,0.466-0.918
		c0.04-0.387-0.043-0.722-0.248-1.007c-0.172-0.238-0.406-0.406-0.704-0.506c-0.165-0.053-0.417-0.079-0.754-0.079h-0.704v-0.526
		c0.059,0,0.145-0.005,0.258-0.015c0.112-0.01,0.194-0.018,0.248-0.024c0.258-0.014,0.469-0.046,0.635-0.1
		c0.284-0.093,0.522-0.254,0.714-0.486c0.192-0.231,0.288-0.489,0.288-0.773c0-0.542-0.341-0.854-1.021-0.933
		c-0.615-0.066-1.148,0.126-1.598,0.575c-0.126,0.126-0.248,0.295-0.367,0.506H314.539z"/>
</g>
<g>
	<path d="M322.301,43.522h-2.582v-0.674h3.256v25.803h-3.256v-0.674h2.582V43.522z"/>
</g>
<g>
	<path d="M329.49,50.457c0.057-0.34,0.113-0.581,0.171-0.723c0.122-0.037,0.467-0.049,1.034-0.035
		c0.567,0.015,0.926,0.017,1.077,0.007h7.059l-0.156,0.751h-3.812c-0.17,0-0.265,0.015-0.283,0.043
		c-0.028,0.048-0.043,0.104-0.043,0.17c-1.002,4.63-1.615,7.512-1.843,8.646l-0.057,0.156c-0.019,0.019-0.108,0.028-0.269,0.028
		h-0.709l1.928-9.043H329.49z"/>
</g>
<g>
	<path d="M340.111,50.385c-0.205-0.271-0.308-0.423-0.308-0.456s0.062-0.129,0.188-0.288c0.218-0.251,0.496-0.463,0.833-0.635
		c0.317-0.151,0.656-0.232,1.018-0.243c0.36-0.01,0.702,0.059,1.026,0.204c0.51,0.251,0.807,0.599,0.893,1.041
		c0.066,0.391-0.02,0.768-0.258,1.131c-0.158,0.232-0.356,0.424-0.595,0.576c-0.026,0.02-0.08,0.05-0.159,0.089
		c-0.079,0.04-0.139,0.073-0.179,0.1c0.146,0.02,0.334,0.093,0.565,0.218c0.344,0.192,0.605,0.46,0.784,0.804
		c0.132,0.298,0.179,0.597,0.139,0.898c-0.039,0.301-0.152,0.583-0.337,0.848c-0.047,0.066-0.126,0.155-0.238,0.269
		c-0.311,0.304-0.694,0.495-1.15,0.575c-0.457,0.079-0.887,0.05-1.29-0.09c-0.51-0.151-0.946-0.437-1.31-0.853
		c-0.054-0.066-0.081-0.107-0.085-0.124c-0.003-0.017,0.002-0.064,0.016-0.145c0.032-0.211,0.06-0.337,0.079-0.377
		c0.503,0.662,1.157,1.022,1.964,1.082c0.49,0.046,0.89-0.066,1.201-0.338c0.271-0.225,0.427-0.53,0.466-0.918
		c0.04-0.387-0.043-0.722-0.248-1.007c-0.172-0.238-0.406-0.406-0.704-0.506c-0.165-0.053-0.417-0.079-0.754-0.079h-0.704v-0.526
		c0.059,0,0.145-0.005,0.258-0.015c0.112-0.01,0.194-0.018,0.248-0.024c0.258-0.014,0.469-0.046,0.635-0.1
		c0.284-0.093,0.522-0.254,0.714-0.486c0.192-0.231,0.288-0.489,0.288-0.773c0-0.542-0.341-0.854-1.021-0.933
		c-0.615-0.066-1.148,0.126-1.598,0.575c-0.126,0.126-0.248,0.295-0.367,0.506H340.111z"/>
</g>
</svg>
