<?xml version="1.0" encoding="iso-8859-1"?>
<!-- Generator: Adobe Illustrator 16.0.0, SVG Export Plug-In . SVG Version: 6.00 Build 0)  -->
<!DOCTYPE svg PUBLIC "-//W3C//DTD SVG 1.1//EN" "http://www.w3.org/Graphics/SVG/1.1/DTD/svg11.dtd">
<svg version="1.1" id="Layer_1" xmlns="http://www.w3.org/2000/svg" xmlns:xlink="http://www.w3.org/1999/xlink" x="0px" y="0px"
	 width="566.929px" height="85.039px" viewBox="0 0 566.929 85.039" style="enable-background:new 0 0 566.929 85.039;"
	 xml:space="preserve">
<g>
	<path d="M31.03,51.123c-0.69,0.567-1.304,0.945-1.843,1.134c-1.096,0.388-1.989,0.336-2.679-0.155
		c-0.671-0.473-1.006-1.219-1.006-2.239c0-0.747,0.198-1.468,0.595-2.162s0.917-1.24,1.559-1.637
		c0.416-0.255,0.851-0.411,1.304-0.468c0.453-0.057,0.907,0.02,1.36,0.227c0.397,0.218,0.718,0.537,0.964,0.957
		c0.246,0.421,0.397,0.9,0.454,1.438c0.009,0.066,0.016,0.182,0.021,0.348c0.005,0.165,0.017,0.29,0.036,0.375
		c0.019-0.047,0.118-0.25,0.298-0.609c0.274-0.633,0.472-1.224,0.595-1.771c0.028-0.132,0.052-0.203,0.071-0.213
		c0.019-0.019,0.104-0.028,0.255-0.028h0.638c-0.132,0.643-0.352,1.313-0.659,2.013c-0.307,0.699-0.65,1.28-1.028,1.743
		c-0.066,0.085-0.099,0.168-0.099,0.248c0,0.081,0.009,0.178,0.028,0.291c0.057,0.699,0.222,1.087,0.496,1.162
		c0.104,0.028,0.208,0.014,0.312-0.043c0.104-0.057,0.175-0.137,0.212-0.24h0.907c-0.066,0.378-0.331,0.666-0.794,0.864
		s-0.883,0.198-1.261,0C31.436,52.177,31.19,51.766,31.03,51.123z M29.457,46.318c-0.548-0.104-1.077,0.02-1.587,0.369
		c-0.652,0.435-1.101,1.176-1.347,2.225c-0.293,1.408-0.085,2.301,0.624,2.679c0.284,0.161,0.604,0.227,0.964,0.198
		c0.917-0.065,1.795-0.52,2.636-1.36c0.038-0.037,0.066-0.068,0.085-0.092s0.033-0.045,0.042-0.063
		c0.009-0.02,0.017-0.043,0.021-0.071c0.004-0.028,0.007-0.052,0.007-0.071c0-0.019,0-0.052,0-0.099c0-0.048,0-0.09,0-0.128
		c-0.038-0.879-0.08-1.445-0.127-1.7C30.614,47.107,30.175,46.479,29.457,46.318z"/>
</g>
<g>
	<path d="M39.314,49.876c0.057-0.094,0.198-0.142,0.425-0.142h8.093h0.595c0.123,0.02,0.208,0.083,0.255,0.191
		s0.023,0.205-0.071,0.29c-0.057,0.058-0.156,0.086-0.297,0.086h-8.575c-0.142,0-0.227-0.005-0.255-0.015
		c-0.085-0.019-0.146-0.073-0.184-0.163C39.262,50.034,39.267,49.952,39.314,49.876z M39.484,46.999
		c0.019-0.01,0.099-0.015,0.241-0.015h8.122l0.297-0.014c0.199,0,0.298,0.005,0.298,0.014c0.113,0.02,0.191,0.085,0.234,0.199
		c0.042,0.113,0.021,0.208-0.064,0.283c-0.057,0.057-0.161,0.085-0.312,0.085h-8.519c-0.151,0-0.241-0.005-0.269-0.015
		c-0.151-0.028-0.229-0.115-0.234-0.262S39.343,47.037,39.484,46.999z"/>
</g>
<g>
	<path d="M67.054,33.997c0.945,0,1.715-0.217,2.31-0.652c0.047-0.028,0.09-0.062,0.127-0.1c0.038-0.038,0.066-0.066,0.085-0.085
		c0.019-0.019,0.042-0.038,0.071-0.057c0.028-0.019,0.063-0.03,0.106-0.035s0.097-0.007,0.163-0.007v8.83h1.857V42.6h-4.635v-0.708
		h1.856v-7.597c-0.633,0.274-1.28,0.411-1.941,0.411V33.997z"/>
</g>
<g>
	<rect x="54.634" y="48.358" width="29.305" height="0.574"/>
</g>
<g>
	<path d="M55.045,59.345v-0.481c0-0.199,0.042-0.354,0.127-0.468l0.17-0.284l0.667-1.021l2.608-4.081
		c0.188-0.303,0.302-0.468,0.34-0.496c0.028-0.02,0.132-0.028,0.312-0.028h0.765v6.108h1.616v0.751h-1.616v2.565h-0.893v-2.565
		H55.045z M59.184,53.293c-0.028,0.066-0.074,0.163-0.135,0.29c-0.062,0.128-0.111,0.225-0.149,0.291
		c-0.198,0.35-0.536,0.905-1.013,1.665c-0.478,0.761-0.912,1.448-1.304,2.062s-0.598,0.945-0.616,0.992h3.217V53.293z"/>
</g>
<g>
	<path d="M62.472,57.36c0.038-0.113,0.198-0.387,0.482-0.822c0.444-0.623,0.93-1.024,1.459-1.204
		c0.104-0.038,0.225-0.066,0.362-0.085c0.137-0.02,0.246-0.031,0.326-0.036c0.08-0.004,0.21-0.004,0.39,0
		c0.18,0.005,0.293,0.008,0.34,0.008h4.323c0.312,0,0.496,0.066,0.553,0.198c0.019,0.057,0.028,0.095,0.028,0.113
		c0.009,0.113-0.023,0.222-0.099,0.326c-0.076,0.104-0.17,0.17-0.283,0.198c-0.066,0.019-0.218,0.028-0.454,0.028h-1.162
		c-0.076,0-0.128,0.02-0.156,0.057c-0.009,0.02-0.028,0.108-0.057,0.27c-0.028,0.16-0.057,0.331-0.085,0.51
		c-0.028,0.18-0.047,0.284-0.057,0.312c-0.246,1.663-0.194,2.938,0.156,3.826c0.009,0.02,0.028,0.064,0.057,0.135
		c0.028,0.071,0.045,0.12,0.05,0.148c0.004,0.028,0.012,0.071,0.021,0.128s0.007,0.106-0.007,0.148
		c-0.014,0.043-0.036,0.088-0.064,0.135c-0.094,0.133-0.22,0.22-0.375,0.263c-0.156,0.042-0.291-0.003-0.404-0.135
		c-0.123-0.16-0.255-0.571-0.397-1.233c-0.198-1.096-0.142-2.461,0.17-4.096c0.038-0.208,0.071-0.363,0.1-0.468h-1.163
		c-0.293,1.795-0.803,3.6-1.53,5.414c-0.066,0.17-0.142,0.298-0.227,0.383c-0.095,0.085-0.201,0.132-0.319,0.142
		S64.225,62,64.13,61.925c-0.104-0.104-0.123-0.256-0.057-0.454l0.397-1.021c0.312-0.879,0.694-2.334,1.148-4.365h-0.524
		c-0.35,0-0.605,0.048-0.766,0.142c-0.302,0.161-0.59,0.482-0.864,0.964c-0.057,0.085-0.095,0.133-0.114,0.142
		c-0.028,0.02-0.113,0.028-0.255,0.028H62.472z"/>
	<path d="M72.96,58.381c-0.265-0.132-0.449-0.354-0.553-0.666c-0.123-0.368-0.123-0.709,0-1.021c0.123-0.312,0.331-0.59,0.624-0.836
		c0.331-0.303,0.751-0.536,1.262-0.702c0.51-0.165,1.053-0.215,1.63-0.148c0.576,0.066,1.063,0.279,1.46,0.638
		c0.151,0.142,0.163,0.312,0.035,0.511c-0.127,0.198-0.291,0.273-0.489,0.227c-0.066-0.019-0.151-0.068-0.255-0.149
		c-0.104-0.08-0.166-0.125-0.184-0.134c-0.378-0.236-0.827-0.336-1.347-0.298c-0.406,0.028-0.784,0.118-1.134,0.269
		c-0.35,0.151-0.581,0.369-0.694,0.652c-0.085,0.18-0.118,0.376-0.099,0.588c0.019,0.213,0.089,0.396,0.212,0.546
		c0.085,0.104,0.144,0.163,0.177,0.178c0.033,0.014,0.111,0.012,0.234-0.008c0.236-0.057,0.543-0.085,0.921-0.085
		c0.539,0,0.855,0.066,0.949,0.198c0.028,0.048,0.042,0.1,0.042,0.156c0,0.02-0.009,0.057-0.028,0.113
		c-0.038,0.123-0.127,0.213-0.269,0.27s-0.27,0.09-0.383,0.1c-0.113,0.009-0.279,0.014-0.496,0.014
		c-0.387,0-0.666-0.023-0.836-0.071c-0.019,0-0.047-0.004-0.085-0.014c-0.038-0.01-0.066-0.015-0.085-0.015
		c-0.038,0-0.175,0.095-0.411,0.284c-0.407,0.425-0.61,0.859-0.61,1.304c0,0.491,0.284,0.817,0.851,0.978
		c0.217,0.057,0.496,0.085,0.836,0.085c0.982,0,1.648-0.255,1.998-0.765c0.009-0.02,0.033-0.06,0.071-0.121
		c0.038-0.061,0.073-0.108,0.106-0.142s0.073-0.054,0.121-0.063c0.085-0.01,0.156,0.014,0.212,0.071
		c0.057,0.057,0.09,0.122,0.1,0.198c0.009,0.16-0.052,0.345-0.185,0.553c-0.435,0.718-1.266,1.077-2.494,1.077
		c-1.125,0-1.904-0.359-2.339-1.077c-0.17-0.359-0.222-0.704-0.156-1.035c0.066-0.33,0.222-0.646,0.468-0.949
		C72.336,58.835,72.61,58.599,72.96,58.381z"/>
</g>
<g>
	<path d="M80.624,57.398c0.271-0.026,0.544,0.012,0.819,0.114c0.274,0.103,0.504,0.25,0.689,0.441
		c0.516,0.536,0.774,1.433,0.774,2.689c0,0.893-0.08,1.58-0.238,2.063c-0.304,0.886-0.863,1.375-1.677,1.468
		c-0.675,0.066-1.23-0.139-1.667-0.615c-0.47-0.522-0.705-1.432-0.705-2.728c0-0.88,0.092-1.564,0.278-2.054
		c0.125-0.312,0.276-0.566,0.451-0.765s0.402-0.356,0.68-0.476C80.161,57.485,80.359,57.438,80.624,57.398z M81.785,58.391
		c-0.179-0.218-0.409-0.361-0.69-0.432c-0.281-0.069-0.561-0.051-0.838,0.055c-0.364,0.173-0.612,0.434-0.744,0.784
		c-0.126,0.311-0.195,0.725-0.208,1.24c0,0.039-0.002,0.098-0.005,0.174c-0.003,0.076-0.005,0.134-0.005,0.173v0.486
		c0,0.774,0.062,1.356,0.188,1.746c0.085,0.252,0.178,0.44,0.278,0.565c0.277,0.351,0.641,0.51,1.091,0.477
		c0.827-0.066,1.28-0.761,1.359-2.084c0.013-0.185,0.02-0.32,0.02-0.406v-0.525c0-0.86-0.069-1.466-0.208-1.816
		C81.95,58.643,81.87,58.497,81.785,58.391z"/>
</g>
<g>
	<path d="M93.958,41.041c-0.038,0.463-0.071,0.718-0.099,0.766c-0.028,0.038-0.146,0.123-0.354,0.255
		c-0.359,0.208-0.728,0.374-1.105,0.496s-0.806,0.172-1.283,0.149c-0.477-0.024-0.896-0.168-1.254-0.433
		c-0.737-0.548-1.077-1.355-1.021-2.423c0.038-0.68,0.229-1.33,0.574-1.949c0.345-0.619,0.768-1.113,1.269-1.481
		c0.416-0.312,0.859-0.517,1.332-0.616s0.955-0.068,1.446,0.092c0.17,0.066,0.326,0.151,0.468,0.255
		c0.5,0.388,0.732,1.058,0.694,2.013c0,0.501-0.047,0.789-0.142,0.864c-0.019,0.019-0.081,0.028-0.184,0.028h-4.493l-0.085,0.411
		c-0.066,0.595,0.005,1.12,0.212,1.573c0.18,0.35,0.416,0.605,0.709,0.766c0.255,0.161,0.56,0.229,0.914,0.205
		c0.354-0.023,0.678-0.083,0.971-0.177c0.293-0.095,0.562-0.217,0.808-0.369c0.085-0.047,0.203-0.125,0.354-0.234
		C93.839,41.124,93.929,41.06,93.958,41.041z M93.858,38.504c0.075-0.595,0.004-1.072-0.213-1.431
		c-0.179-0.303-0.458-0.496-0.836-0.582c-0.378-0.085-0.723-0.057-1.035,0.085c-0.397,0.151-0.749,0.401-1.056,0.751
		s-0.55,0.742-0.729,1.176H93.858z"/>
</g>
<g>
	<path d="M95.972,32.913c-0.04-0.033-0.091-0.089-0.154-0.168c-0.063-0.08-0.101-0.126-0.114-0.139
		c-0.073-0.086-0.109-0.139-0.109-0.159c-0.013-0.033,0-0.096,0.04-0.188c0.125-0.351,0.311-0.648,0.556-0.893
		c0.397-0.37,0.898-0.555,1.503-0.555c0.605,0,1.116,0.175,1.533,0.525c0.337,0.278,0.555,0.64,0.655,1.086
		c0.099,0.447,0.049,0.868-0.149,1.265c-0.073,0.132-0.152,0.258-0.238,0.377s-0.202,0.245-0.347,0.377s-0.251,0.227-0.317,0.283
		c-0.066,0.056-0.202,0.164-0.407,0.323c-0.205,0.159-0.321,0.248-0.347,0.268c-0.225,0.179-0.536,0.445-0.933,0.799
		c-0.397,0.354-0.688,0.607-0.873,0.759h3.661v0.585h-4.266V37.09c0-0.092,0.005-0.15,0.015-0.173
		c0.01-0.023,0.038-0.058,0.084-0.104c0.146-0.125,0.409-0.362,0.789-0.709c0.38-0.348,0.656-0.59,0.828-0.729
		c0.04-0.033,0.137-0.111,0.293-0.233c0.155-0.123,0.27-0.215,0.342-0.278s0.178-0.157,0.317-0.283
		c0.139-0.126,0.248-0.238,0.327-0.337c0.08-0.099,0.166-0.213,0.258-0.342c0.092-0.129,0.164-0.261,0.213-0.397
		c0.049-0.135,0.084-0.273,0.104-0.412c0.046-0.377-0.023-0.711-0.208-1.002c-0.284-0.423-0.731-0.658-1.339-0.705
		c-0.291-0.02-0.542,0.013-0.754,0.099C96.498,31.67,96.177,32.146,95.972,32.913z"/>
</g>
<g>
	<rect x="86.33" y="48.358" width="15.908" height="0.574"/>
</g>
<g>
	<path d="M87.365,52.967h5.357v0.751h-5.357V52.967z"/>
</g>
<g>
	<path d="M89.916,52.074h0.893l-0.936,4.464h0.014c0.123-0.227,0.312-0.448,0.567-0.666c0.624-0.557,1.318-0.808,2.083-0.751
		c0.604,0.057,1.016,0.274,1.233,0.652c0.18,0.35,0.189,0.912,0.028,1.687l-0.638,2.962c-0.132,0.699-0.227,1.144-0.283,1.332
		c0,0.104-0.071,0.156-0.213,0.156c-0.028,0-0.047,0-0.057,0h-0.666l0.893-4.195c0.009-0.047,0.028-0.135,0.057-0.262
		c0.028-0.128,0.047-0.225,0.057-0.291c0.009-0.066,0.019-0.153,0.028-0.262c0.009-0.109,0.004-0.206-0.014-0.291
		c-0.019-0.085-0.047-0.17-0.085-0.255c-0.208-0.406-0.676-0.586-1.403-0.539c-0.435,0.057-0.806,0.26-1.113,0.609
		s-0.541,0.757-0.701,1.219c-0.038,0.123-0.111,0.438-0.22,0.943c-0.109,0.505-0.225,1.062-0.347,1.672
		c-0.123,0.609-0.208,1.014-0.255,1.212c-0.009,0.028-0.021,0.076-0.036,0.142c-0.014,0.066-0.026,0.118-0.035,0.156
		c0,0.038-0.005,0.066-0.014,0.085c-0.01,0.019-0.028,0.033-0.057,0.042c-0.028,0.01-0.05,0.015-0.064,0.015s-0.042,0-0.085,0
		s-0.069,0-0.078,0h-0.638L89.916,52.074z"/>
	<path d="M100.814,60.323c-0.009,0.037-0.021,0.122-0.035,0.255c-0.014,0.132-0.028,0.25-0.042,0.354
		c-0.014,0.104-0.026,0.165-0.036,0.184c-0.019,0.02-0.109,0.085-0.27,0.198c-0.368,0.236-0.772,0.421-1.211,0.553
		c-0.439,0.133-0.917,0.175-1.432,0.128c-0.515-0.047-0.952-0.231-1.311-0.553c-0.331-0.302-0.565-0.688-0.702-1.155
		c-0.137-0.468-0.168-0.961-0.092-1.48c0.113-0.784,0.427-1.508,0.942-2.169c0.515-0.661,1.136-1.129,1.864-1.403
		c0.312-0.113,0.702-0.175,1.169-0.184c0.467-0.01,0.872,0.042,1.211,0.155c0.217,0.066,0.524,0.213,0.921,0.439l-0.298,0.779
		c-0.435-0.264-0.666-0.406-0.694-0.425c-0.293-0.123-0.628-0.198-1.006-0.227s-0.742,0.009-1.091,0.113
		c-0.586,0.188-1.056,0.558-1.41,1.105s-0.588,1.157-0.702,1.828c-0.076,0.473-0.052,0.921,0.071,1.347
		c0.123,0.425,0.369,0.737,0.737,0.936c0.472,0.236,1.063,0.26,1.771,0.07c0.387-0.094,0.78-0.269,1.176-0.524
		c0.047-0.028,0.121-0.08,0.22-0.155C100.666,60.417,100.749,60.36,100.814,60.323z"/>
</g>
</svg>
