<?xml version="1.0" encoding="iso-8859-1"?>
<!-- Generator: Adobe Illustrator 16.0.0, SVG Export Plug-In . SVG Version: 6.00 Build 0)  -->
<!DOCTYPE svg PUBLIC "-//W3C//DTD SVG 1.1//EN" "http://www.w3.org/Graphics/SVG/1.1/DTD/svg11.dtd">
<svg version="1.1" id="Layer_1" xmlns="http://www.w3.org/2000/svg" xmlns:xlink="http://www.w3.org/1999/xlink" x="0px" y="0px"
	 width="566.93px" height="85.04px" viewBox="0 0 566.93 85.04" style="enable-background:new 0 0 566.93 85.04;"
	 xml:space="preserve">
<g>
	<path d="M27.458,46.608c0.369-0.047,0.6-0.065,0.694-0.057c0.151,0.01,0.305,0.023,0.46,0.043c0.156,0.019,0.329,0.05,0.518,0.092
		c0.189,0.043,0.331,0.076,0.425,0.1c0.094,0.023,0.26,0.068,0.496,0.135c0.236,0.065,0.382,0.108,0.439,0.127
		c0.567,0.151,1.034,0.251,1.403,0.298c0.038,0,0.097,0.002,0.177,0.007c0.08,0.005,0.139,0.007,0.177,0.007
		c0.208,0,0.378-0.179,0.51-0.538c0.019-0.028,0.038-0.071,0.057-0.128c0.019-0.057,0.033-0.099,0.042-0.127
		c0.151-0.256,0.444-0.463,0.879-0.624c0.17-0.065,0.292-0.09,0.368-0.07c0.076,0.019,0.095,0.09,0.057,0.212
		c-0.038,0.161-0.113,0.331-0.227,0.511c-0.321,0.51-0.855,0.954-1.602,1.332c-0.558,0.265-1.172,0.354-1.842,0.27
		c-0.331-0.038-0.792-0.14-1.382-0.305c-0.59-0.165-0.971-0.268-1.141-0.305c-0.416-0.104-0.771-0.156-1.063-0.156
		c-0.047,0-0.092,0.015-0.135,0.043s-0.09,0.07-0.142,0.127c-0.052,0.057-0.087,0.095-0.106,0.113
		c-0.312,0.293-0.657,0.468-1.035,0.524c-0.17,0-0.194-0.085-0.071-0.255c0.104-0.17,0.227-0.316,0.369-0.439
		c0.435-0.406,0.822-1.072,1.162-1.998c0.104-0.312,0.274-0.931,0.51-1.856c0.274-0.992,0.562-1.843,0.864-2.552
		c0.303-0.709,0.69-1.304,1.163-1.786c0.321-0.34,0.725-0.642,1.211-0.906c0.487-0.265,0.971-0.426,1.453-0.482
		c0.416-0.047,0.746,0,0.992,0.142c0.425,0.255,0.6,0.714,0.524,1.375c-0.019,0.208-0.057,0.359-0.114,0.453
		c-0.057,0.095-0.156,0.194-0.297,0.298c-0.34,0.255-0.628,0.383-0.865,0.383c-0.123,0-0.166-0.085-0.127-0.255
		c0.123-0.728-0.042-1.21-0.496-1.445c-0.255-0.123-0.539-0.138-0.851-0.043c-0.151,0.038-0.316,0.18-0.496,0.425
		c-0.614,0.775-1.167,2.117-1.658,4.025c-0.019,0.066-0.054,0.196-0.106,0.39c-0.052,0.194-0.085,0.317-0.1,0.369
		s-0.04,0.153-0.078,0.305c-0.038,0.151-0.069,0.257-0.092,0.318s-0.057,0.154-0.099,0.276c-0.042,0.123-0.081,0.223-0.113,0.298
		c-0.033,0.076-0.076,0.168-0.128,0.276c-0.052,0.108-0.106,0.22-0.163,0.333c-0.038,0.076-0.081,0.153-0.128,0.234
		c-0.047,0.08-0.102,0.167-0.163,0.262C27.531,46.477,27.487,46.552,27.458,46.608z"/>
</g>
<g>
	<path d="M35.704,43.188h4.762v0.556h-4.068v2.46h3.77v0.556h-3.77v2.709h4.217v0.585h-4.911V43.188z"/>
	<path d="M41.22,43.167h0.674l1.717,5.616l0.148,0.595h0.01c0.026-0.172,0.256-0.967,0.689-2.386
		c0.433-1.419,0.775-2.528,1.027-3.329c0.006-0.026,0.023-0.079,0.049-0.158s0.05-0.149,0.07-0.208
		c0.02-0.06,0.033-0.097,0.04-0.109c0.013-0.014,0.079-0.021,0.198-0.021h0.526l1.369,4.436c0.119,0.39,0.291,0.981,0.516,1.775
		h0.01c0.179-0.635,0.365-1.278,0.561-1.93c0.195-0.651,0.44-1.445,0.734-2.381c0.294-0.936,0.491-1.569,0.59-1.9h0.625
		l-2.153,6.945h-0.545c-0.113,0-0.175-0.01-0.188-0.03c-0.06-0.059-0.536-1.587-1.429-4.583c-0.218-0.701-0.377-1.254-0.476-1.657
		h-0.01c-0.013,0.113-0.21,0.796-0.59,2.049c-0.38,1.254-0.633,2.072-0.759,2.456l-0.377,1.24c-0.007,0.026-0.023,0.081-0.05,0.163
		c-0.026,0.083-0.049,0.155-0.069,0.219c-0.02,0.062-0.036,0.101-0.049,0.113c-0.014,0.021-0.076,0.03-0.189,0.03h-0.516
		L41.22,43.167z"/>
</g>
<g>
	<path d="M56.354,45.418c0.057-0.094,0.198-0.142,0.425-0.142h8.093h0.595c0.123,0.02,0.208,0.083,0.255,0.191
		s0.023,0.205-0.071,0.29c-0.057,0.058-0.156,0.086-0.297,0.086h-8.575c-0.142,0-0.227-0.005-0.255-0.015
		c-0.085-0.019-0.146-0.073-0.184-0.163C56.301,45.576,56.306,45.494,56.354,45.418z M56.523,42.541
		c0.019-0.01,0.099-0.015,0.241-0.015h8.122l0.297-0.014c0.199,0,0.298,0.005,0.298,0.014c0.113,0.02,0.191,0.085,0.234,0.199
		c0.042,0.113,0.021,0.208-0.064,0.283c-0.057,0.057-0.161,0.085-0.312,0.085h-8.519c-0.151,0-0.241-0.005-0.269-0.015
		c-0.151-0.028-0.229-0.115-0.234-0.262S56.382,42.579,56.523,42.541z"/>
</g>
<g>
	<path d="M71.682,54.225c-0.258,0-0.387,0-0.387-0.158c0-0.014,0-0.086,0.144-0.258l7.43-8.706L71.28,34.718
		c0-0.158,0-0.43,0.014-0.473c0.043-0.086,0.058-0.101,0.387-0.101h16.954l1.735,4.03h-0.358c-0.488-1.162-1.463-1.807-1.822-2.037
		c-1.133-0.717-2.381-0.961-3.155-1.076c-0.129-0.029-1.435-0.229-3.356-0.229h-7.86l6.684,9.136
		c0.101,0.144,0.101,0.187,0.101,0.216c0,0.071-0.029,0.114-0.129,0.229l-7.301,8.562h8.649c2.754,0,4.159-0.373,4.46-0.444
		c1.649-0.431,3.17-1.406,3.729-2.897h0.358l-1.735,4.59H71.682z"/>
</g>
<g>
	<path d="M81.741,58.06h0.675l-1.359,6.439c0.351-0.02,0.691-0.162,1.022-0.427c0.477-0.377,0.817-0.876,1.022-1.498
		c0.066-0.198,0.129-0.46,0.188-0.784c0.06-0.323,0.08-0.588,0.06-0.793c-0.013-0.08-0.026-0.146-0.04-0.199
		c-0.04-0.139-0.056-0.234-0.05-0.287c0.02-0.093,0.071-0.171,0.154-0.233s0.174-0.094,0.273-0.094c0.165,0,0.274,0.158,0.327,0.476
		c0.053,0.312,0.01,0.813-0.129,1.508c-0.099,0.47-0.281,0.908-0.545,1.315c-0.265,0.406-0.592,0.749-0.982,1.026
		c-0.47,0.344-0.942,0.516-1.418,0.516l-0.348,1.657h-0.674l0.357-1.687l-0.347-0.06c-0.377-0.079-0.691-0.234-0.942-0.467
		c-0.146-0.125-0.255-0.299-0.328-0.521s-0.099-0.448-0.079-0.68c0.033-0.271,0.198-0.856,0.496-1.756
		c0.119-0.344,0.119-0.575,0-0.694c-0.08-0.08-0.167-0.114-0.263-0.104s-0.187,0.048-0.272,0.114
		c-0.166,0.132-0.292,0.344-0.377,0.635c-0.053,0.152-0.086,0.274-0.099,0.367h-0.674c0.059-0.324,0.183-0.627,0.372-0.908
		c0.188-0.28,0.412-0.484,0.669-0.609c0.179-0.1,0.382-0.141,0.61-0.124c0.228,0.017,0.415,0.098,0.561,0.243
		c0.218,0.218,0.291,0.506,0.218,0.862c-0.007,0.027-0.043,0.143-0.109,0.348l-0.139,0.437l-0.119,0.367
		c-0.066,0.238-0.113,0.41-0.139,0.516c-0.026,0.106-0.036,0.257-0.03,0.451c0.007,0.195,0.056,0.362,0.149,0.501
		c0.08,0.133,0.212,0.25,0.397,0.353s0.374,0.164,0.565,0.184L81.741,58.06z"/>
</g>
<g>
	<path d="M97.747,35.834h5.357v0.751h-5.357V35.834z"/>
</g>
<g>
	<path d="M100.067,38.091h0.907l-1.956,9.24c0.567-0.009,1.12-0.269,1.658-0.779c0.548-0.51,0.959-1.152,1.233-1.928
		c0.094-0.264,0.189-0.653,0.283-1.169c0.094-0.515,0.128-0.933,0.099-1.254c-0.009-0.057-0.031-0.143-0.063-0.256
		c-0.033-0.113-0.052-0.195-0.057-0.248c-0.005-0.052,0.012-0.134,0.049-0.248c0.019-0.065,0.068-0.129,0.149-0.191
		c0.08-0.061,0.158-0.101,0.234-0.12c0.028-0.009,0.076-0.014,0.142-0.014c0.255,0,0.406,0.24,0.454,0.723
		c0.094,0.651-0.009,1.517-0.312,2.594c-0.236,0.793-0.673,1.54-1.311,2.239c-0.638,0.699-1.368,1.134-2.19,1.304
		c-0.113,0.028-0.231,0.043-0.354,0.043c-0.009,0-0.033,0.004-0.071,0.014s-0.066,0.019-0.085,0.028
		c-0.019,0.019-0.055,0.151-0.106,0.397c-0.052,0.245-0.106,0.512-0.163,0.801c-0.057,0.288-0.09,0.446-0.1,0.475
		c-0.076,0.273-0.123,0.496-0.142,0.666h-0.907c0-0.038,0.036-0.225,0.106-0.56c0.071-0.336,0.146-0.69,0.227-1.063
		c0.081-0.373,0.121-0.564,0.121-0.574c0.047-0.151,0.023-0.227-0.071-0.227c-0.416-0.085-0.749-0.18-0.999-0.283
		c-0.25-0.104-0.484-0.26-0.702-0.468c-0.34-0.359-0.52-0.836-0.539-1.432c0-0.435,0.231-1.332,0.694-2.693
		c0.104-0.292,0.156-0.538,0.156-0.736c0-0.18-0.052-0.321-0.156-0.426c-0.123-0.094-0.253-0.13-0.39-0.105
		c-0.137,0.023-0.262,0.082-0.375,0.177c-0.312,0.283-0.529,0.771-0.652,1.46h-0.907c0.019-0.133,0.075-0.331,0.17-0.596
		c0.293-0.746,0.713-1.266,1.261-1.559c0.236-0.142,0.515-0.206,0.836-0.191c0.321,0.014,0.581,0.12,0.78,0.318
		c0.094,0.114,0.16,0.204,0.198,0.27c0.085,0.161,0.13,0.338,0.135,0.531c0.004,0.194-0.002,0.333-0.021,0.419
		c-0.019,0.085-0.066,0.255-0.142,0.51l-0.213,0.609l-0.17,0.567c-0.104,0.34-0.175,0.586-0.212,0.736
		c-0.038,0.151-0.052,0.369-0.042,0.652c0.009,0.283,0.075,0.524,0.198,0.723c0.284,0.454,0.742,0.719,1.375,0.794L100.067,38.091z"
		/>
	<path d="M103.937,44.071c0.057-0.312,0.165-0.623,0.326-0.936c0.387-0.765,0.926-1.337,1.616-1.715
		c0.387-0.217,0.815-0.316,1.282-0.297c0.468,0.019,0.876,0.165,1.226,0.439c0.69,0.538,1.143,1.479,1.361,2.82
		c0.019,0.151,0.038,0.26,0.057,0.325c0.236-0.736,0.628-1.804,1.176-3.203l0.127-0.24c0.123-0.02,0.42-0.028,0.893-0.028
		c-0.009,0.028-0.13,0.31-0.361,0.843c-0.231,0.534-0.484,1.12-0.758,1.758s-0.458,1.079-0.553,1.325
		c-0.227,0.566-0.374,0.959-0.439,1.177c-0.019,0.057-0.028,0.137-0.028,0.24c-0.009,0.057-0.017,0.116-0.021,0.178
		c-0.005,0.062-0.01,0.132-0.014,0.212c-0.005,0.081-0.007,0.14-0.007,0.178c-0.057,0.604-0.175,1.332-0.354,2.183
		c-0.17,0.822-0.411,1.224-0.723,1.204c-0.189-0.009-0.284-0.17-0.284-0.481c0-0.473,0.222-1.507,0.667-3.104
		c0-0.02,0.009-0.06,0.028-0.121c0.019-0.062,0.028-0.106,0.028-0.135c0.038-0.302-0.118-1.157-0.468-2.565
		c-0.104-0.358-0.198-0.646-0.284-0.864c-0.085-0.217-0.22-0.446-0.404-0.688s-0.404-0.408-0.659-0.503
		c-0.529-0.188-1.049-0.075-1.559,0.34c-0.491,0.416-0.812,0.969-0.963,1.658H103.937z"/>
</g>
<g>
	<path d="M113.821,41.817c0,0.007-0.03,0.153-0.089,0.441s-0.123,0.58-0.188,0.878c-0.066,0.298-0.103,0.46-0.109,0.486
		c-0.04,0.105-0.119,0.182-0.238,0.229c-0.119,0.046-0.228,0.036-0.328-0.03c-0.086-0.066-0.105-0.205-0.06-0.417
		c0.033-0.152,0.147-0.685,0.342-1.597c0.195-0.913,0.382-1.788,0.561-2.624c0.179-0.837,0.274-1.285,0.288-1.345
		c0.033-0.159,0.06-0.258,0.079-0.298c0.08-0.179,0.222-0.251,0.427-0.218c0.146,0.02,0.218,0.103,0.218,0.248
		c0,0.02-0.031,0.18-0.094,0.48c-0.063,0.302-0.134,0.639-0.213,1.013c-0.079,0.373-0.132,0.623-0.159,0.749
		c-0.093,0.43-0.139,0.707-0.139,0.833c0,0.437,0.148,0.731,0.446,0.883c0.297,0.152,0.602,0.149,0.913-0.01
		c0.199-0.105,0.371-0.258,0.516-0.456s0.268-0.441,0.367-0.729c0.099-0.288,0.177-0.546,0.233-0.773
		c0.056-0.229,0.117-0.512,0.184-0.849c0.006-0.046,0.013-0.084,0.02-0.114c0.006-0.029,0.013-0.061,0.02-0.094
		c0.013-0.066,0.035-0.162,0.064-0.288s0.051-0.222,0.064-0.288c0.033-0.165,0.06-0.271,0.08-0.317
		c0.092-0.146,0.218-0.218,0.377-0.218c0.165,0.013,0.254,0.096,0.268,0.248c0,0.026-0.048,0.271-0.144,0.734
		c-0.096,0.463-0.198,0.949-0.308,1.458c-0.109,0.51-0.167,0.78-0.173,0.813c-0.033,0.146-0.057,0.255-0.07,0.327
		c-0.013,0.073-0.01,0.169,0.01,0.288c0.02,0.119,0.073,0.212,0.159,0.277c0.105,0.093,0.208,0.116,0.308,0.07
		c0.132-0.08,0.251-0.351,0.357-0.814c0.006-0.013,0.015-0.041,0.025-0.084s0.018-0.083,0.025-0.119
		c0.006-0.036,0.013-0.058,0.02-0.064c0.013-0.013,0.073-0.02,0.179-0.02h0.486c-0.007,0.053-0.043,0.202-0.109,0.446
		c-0.185,0.522-0.417,0.877-0.694,1.062c-0.258,0.165-0.541,0.188-0.848,0.069c-0.308-0.119-0.498-0.33-0.571-0.635
		c-0.218,0.231-0.437,0.403-0.655,0.516c-0.437,0.219-0.886,0.255-1.349,0.109c-0.146-0.046-0.255-0.096-0.328-0.148
		c-0.02-0.007-0.048-0.023-0.084-0.05C113.869,41.851,113.841,41.831,113.821,41.817z"/>
</g>
<g>
	<path d="M131.458,61.381c-0.201,0-0.229,0-0.401-0.172c-0.588-0.517-1.133-1.104-1.42-1.435c-3.644-4.289-4.935-9.969-4.935-15.605
		c0-6.039,1.506-12.608,6.312-16.982c0.215-0.215,0.244-0.215,0.444-0.215s0.301,0,0.301,0.144c0,0.043,0,0.072-0.043,0.115
		c-0.631,0.631-1.807,1.807-2.94,3.844c-2.367,4.274-2.883,9.251-2.883,13.11c0,5.521,1.047,10.184,3.356,13.884
		c0.961,1.549,1.922,2.51,2.453,3.041c0.028,0.043,0.057,0.071,0.057,0.129C131.759,61.381,131.659,61.381,131.458,61.381z"/>
</g>
<g>
	<path d="M134.83,41.237h0.893l-1.375,6.505l-0.057,0.156c-0.113,0.019-0.406,0.028-0.879,0.028L134.83,41.237z M135.312,38.983
		c0.085-0.463,0.151-0.751,0.198-0.864c0.113-0.02,0.406-0.028,0.879-0.028l-0.185,0.893H135.312z"/>
	<path d="M139.719,39.749c-0.028,0.01-0.052,0.026-0.071,0.05s-0.038,0.054-0.057,0.092s-0.038,0.066-0.057,0.085
		c-0.123,0.151-0.284,0.213-0.482,0.185l-0.042-0.015c-0.028-0.009-0.047-0.019-0.057-0.028c-0.161-0.094-0.189-0.293-0.085-0.595
		c0.179-0.558,0.51-0.979,0.992-1.262c0.434-0.255,0.926-0.392,1.474-0.411c0.548-0.019,1.054,0.08,1.517,0.298
		c0.454,0.217,0.834,0.538,1.141,0.964c0.307,0.425,0.517,0.902,0.631,1.432c0.198,0.85,0.156,1.842-0.128,2.976
		c-0.463,1.806-1.2,3.104-2.211,3.898c-0.747,0.566-1.559,0.812-2.438,0.736c-0.879-0.057-1.573-0.505-2.083-1.347
		c-0.34-0.613-0.411-1.355-0.213-2.225c0.189-0.917,0.624-1.715,1.304-2.396c0.435-0.435,0.855-0.723,1.261-0.864
		c0.558-0.161,1.077-0.182,1.559-0.064c0.482,0.119,0.888,0.324,1.219,0.617c0.255,0.217,0.458,0.491,0.609,0.822
		c0.019,0.037,0.045,0.104,0.078,0.198s0.059,0.16,0.078,0.198c0.019-0.132,0.038-0.231,0.057-0.298
		c0.009-0.075,0.026-0.182,0.049-0.318c0.024-0.138,0.041-0.239,0.05-0.305c0.132-1.276-0.071-2.216-0.609-2.821
		c-0.274-0.302-0.624-0.528-1.049-0.68c-0.369-0.142-0.785-0.163-1.247-0.064c-0.463,0.1-0.799,0.324-1.006,0.674
		C139.809,39.441,139.748,39.598,139.719,39.749z M141.406,41.903c-0.586-0.028-1.094,0.099-1.524,0.383
		c-0.43,0.283-0.768,0.656-1.013,1.119c-0.151,0.284-0.293,0.737-0.425,1.361c-0.113,0.633-0.127,1.105-0.042,1.417
		c0.208,0.604,0.543,0.978,1.006,1.119c0.444,0.171,0.982,0.18,1.616,0.028c0.472-0.15,0.874-0.396,1.205-0.736
		c0.217-0.246,0.43-0.564,0.638-0.957c0.208-0.392,0.354-0.772,0.439-1.141c0.113-0.378,0.116-0.777,0.007-1.198
		c-0.109-0.42-0.324-0.753-0.645-0.999C142.327,42.035,141.907,41.903,141.406,41.903z"/>
</g>
<g>
	<path d="M145.578,49.795c0,0.007-0.03,0.153-0.089,0.441s-0.123,0.58-0.188,0.878c-0.066,0.298-0.103,0.46-0.109,0.486
		c-0.04,0.105-0.119,0.182-0.238,0.229c-0.119,0.046-0.228,0.036-0.328-0.03c-0.086-0.066-0.105-0.205-0.06-0.417
		c0.033-0.152,0.147-0.685,0.342-1.597c0.195-0.913,0.382-1.788,0.561-2.624c0.179-0.837,0.274-1.285,0.288-1.345
		c0.033-0.159,0.06-0.258,0.079-0.298c0.08-0.179,0.222-0.251,0.427-0.218c0.146,0.02,0.218,0.103,0.218,0.248
		c0,0.02-0.031,0.18-0.094,0.48c-0.063,0.302-0.134,0.639-0.213,1.013c-0.079,0.373-0.132,0.623-0.159,0.749
		c-0.093,0.43-0.139,0.707-0.139,0.833c0,0.437,0.148,0.731,0.446,0.883c0.297,0.152,0.602,0.149,0.913-0.01
		c0.199-0.105,0.371-0.258,0.516-0.456s0.268-0.441,0.367-0.729c0.099-0.288,0.177-0.546,0.233-0.773
		c0.056-0.229,0.117-0.512,0.184-0.849c0.006-0.046,0.013-0.084,0.02-0.114c0.006-0.029,0.013-0.061,0.02-0.094
		c0.013-0.066,0.035-0.162,0.064-0.288s0.051-0.222,0.064-0.288c0.033-0.165,0.06-0.271,0.08-0.317
		c0.092-0.146,0.218-0.218,0.377-0.218c0.165,0.013,0.254,0.096,0.268,0.248c0,0.026-0.048,0.271-0.144,0.734
		c-0.096,0.463-0.198,0.949-0.308,1.458c-0.109,0.51-0.167,0.78-0.173,0.813c-0.033,0.146-0.057,0.255-0.07,0.327
		c-0.013,0.073-0.01,0.169,0.01,0.288c0.02,0.119,0.073,0.212,0.159,0.277c0.105,0.093,0.208,0.116,0.308,0.07
		c0.132-0.08,0.251-0.351,0.357-0.814c0.006-0.013,0.015-0.041,0.025-0.084s0.018-0.083,0.025-0.119
		c0.006-0.036,0.013-0.058,0.02-0.064c0.013-0.013,0.073-0.02,0.179-0.02h0.486c-0.007,0.053-0.043,0.202-0.109,0.446
		c-0.185,0.522-0.417,0.877-0.694,1.062c-0.258,0.165-0.541,0.188-0.848,0.069c-0.308-0.119-0.498-0.33-0.571-0.635
		c-0.218,0.231-0.437,0.403-0.655,0.516c-0.437,0.219-0.886,0.255-1.349,0.109c-0.146-0.046-0.255-0.096-0.328-0.148
		c-0.02-0.007-0.048-0.023-0.084-0.05C145.626,49.828,145.598,49.809,145.578,49.795z"/>
</g>
<g>
	<path d="M155.652,43.916c0.019-0.01,0.094-0.015,0.227-0.015h7.441h0.539c0.113,0.02,0.187,0.085,0.22,0.198
		c0.033,0.114,0.012,0.208-0.064,0.284c-0.028,0.028-0.071,0.052-0.127,0.07c-0.057,0.02-0.106,0.028-0.149,0.028
		s-0.099-0.002-0.17-0.007s-0.116-0.007-0.135-0.007h-7.54c-0.142,0-0.222-0.005-0.241-0.015c-0.142-0.037-0.21-0.125-0.206-0.262
		C155.451,44.056,155.52,43.963,155.652,43.916z"/>
</g>
<g>
	<path d="M174.049,46.155c-0.085,0.18-0.222,0.373-0.411,0.581c-0.624,0.718-1.333,1.03-2.126,0.936
		c-0.709-0.123-1.212-0.489-1.51-1.099c-0.297-0.609-0.347-1.335-0.148-2.176c0.264-1.067,0.827-1.937,1.687-2.607l0.383-0.256
		c0.255-0.15,0.52-0.264,0.793-0.34c0.274-0.075,0.56-0.094,0.857-0.057c0.298,0.038,0.555,0.146,0.772,0.326
		c0.189,0.17,0.373,0.468,0.553,0.893l0.227-1.119l0.057-0.1c0.179-0.009,0.468-0.014,0.864-0.014
		c-0.501,2.409-0.954,4.54-1.36,6.392c-0.132,0.604-0.27,1.035-0.411,1.29c-0.236,0.425-0.551,0.791-0.942,1.099
		c-0.392,0.307-0.82,0.508-1.283,0.602c-0.832,0.143-1.635,0.043-2.41-0.297c-0.057-0.028-0.118-0.06-0.184-0.093
		c-0.066-0.033-0.14-0.07-0.22-0.113c-0.081-0.042-0.144-0.073-0.191-0.092l0.17-0.779c0.047,0.019,0.118,0.059,0.213,0.12
		c0.094,0.062,0.165,0.102,0.212,0.12c0.482,0.265,1.058,0.416,1.729,0.454c0.283,0.019,0.496,0.014,0.638-0.015
		c0.349-0.075,0.664-0.25,0.942-0.524c0.279-0.273,0.484-0.591,0.617-0.949c0.085-0.208,0.189-0.628,0.312-1.262
		c0.009-0.028,0.04-0.158,0.092-0.39c0.052-0.231,0.083-0.408,0.092-0.531H174.049z M174.148,41.974
		c-0.189-0.132-0.414-0.182-0.673-0.148s-0.491,0.092-0.694,0.177c-0.204,0.085-0.395,0.189-0.574,0.312
		c-0.406,0.273-0.744,0.631-1.013,1.069c-0.27,0.439-0.438,0.905-0.503,1.396c-0.057,0.396-0.017,0.782,0.121,1.155
		c0.137,0.373,0.371,0.649,0.702,0.829c0.302,0.17,0.614,0.241,0.936,0.213c0.444-0.038,0.841-0.274,1.19-0.709
		c0.378-0.473,0.675-1.2,0.893-2.183c0.076-0.321,0.132-0.6,0.17-0.836C174.701,42.607,174.516,42.182,174.148,41.974z"/>
</g>
<g>
	<path d="M179.062,37.225c-0.03,0.089-1.299,3.025-1.408,3.283l-0.377,0.873c-0.03,0.079-0.069,0.258-0.179,0.268
		c-0.109,0-0.337-0.069-0.357-0.178c-0.01-0.089,0.04-0.199,0.069-0.278c0.387-1.369,0.793-2.708,1.161-4.086
		c0.059-0.198,0.159-0.565,0.486-0.565C178.843,36.481,179.181,36.848,179.062,37.225z"/>
</g>
<g>
	<path d="M182.406,29.539c0.945,0,1.715-0.217,2.31-0.652c0.047-0.028,0.09-0.062,0.127-0.1c0.038-0.038,0.066-0.066,0.085-0.085
		c0.019-0.019,0.042-0.038,0.071-0.057c0.028-0.019,0.063-0.03,0.106-0.035s0.097-0.007,0.163-0.007v8.83h1.857v0.709h-4.635v-0.709
		h1.856v-7.597c-0.633,0.274-1.28,0.411-1.941,0.411V29.539z"/>
</g>
<g>
	<rect x="180.918" y="43.9" width="7.441" height="0.574"/>
</g>
<g>
	<path d="M182.066,50.946c-0.038-0.037-0.161-0.184-0.369-0.439c-0.094-0.122-0.142-0.193-0.142-0.212
		c0-0.02,0.028-0.118,0.085-0.298c0.189-0.539,0.468-0.992,0.836-1.36c0.558-0.501,1.247-0.744,2.069-0.73
		c0.822,0.015,1.517,0.268,2.083,0.759c0.482,0.416,0.789,0.94,0.921,1.573c0.132,0.633,0.057,1.232-0.227,1.8
		c-0.066,0.133-0.142,0.262-0.227,0.39c-0.085,0.128-0.187,0.258-0.305,0.39c-0.119,0.133-0.215,0.241-0.291,0.326
		c-0.076,0.085-0.196,0.198-0.362,0.34c-0.165,0.142-0.279,0.239-0.34,0.291c-0.062,0.052-0.189,0.155-0.383,0.312
		c-0.194,0.156-0.31,0.248-0.347,0.276c-0.142,0.104-0.555,0.461-1.24,1.07s-1.136,1.019-1.354,1.226h5.131v0.794h-5.953v-0.496
		c0-0.123,0.007-0.2,0.021-0.233s0.054-0.083,0.121-0.149l0.241-0.227l1.956-1.8c0.057-0.048,0.201-0.168,0.432-0.361
		c0.231-0.194,0.399-0.336,0.503-0.426c0.104-0.09,0.257-0.231,0.46-0.425s0.356-0.363,0.46-0.511
		c0.104-0.146,0.222-0.316,0.354-0.51s0.234-0.392,0.305-0.596c0.071-0.203,0.121-0.408,0.149-0.616
		c0.047-0.576-0.076-1.072-0.369-1.488c-0.406-0.558-1.011-0.869-1.814-0.936c-0.378-0.028-0.718,0.015-1.021,0.128
		C182.774,49.109,182.312,49.822,182.066,50.946z"/>
</g>
<g>
	<path d="M190.022,38.091c0.624,0,1.016,0.009,1.176,0.028c0.104,0.142,0.234,0.371,0.39,0.688c0.156,0.316,0.248,0.503,0.276,0.56
		l1.885,3.728l4.493-4.819l0.17-0.155c0.142-0.02,0.496-0.028,1.063-0.028l-5.301,5.712l-0.17,0.198
		c-0.123,0.473-0.279,1.167-0.467,2.083c-0.189,0.917-0.317,1.531-0.383,1.843h-0.978c0.057-0.293,0.184-0.896,0.383-1.807
		c0.198-0.912,0.345-1.623,0.439-2.134L190.022,38.091z"/>
</g>
<g>
	<path d="M196.748,43.167h0.674l1.717,5.616l0.148,0.595h0.01c0.026-0.172,0.256-0.967,0.689-2.386
		c0.433-1.419,0.775-2.528,1.027-3.329c0.006-0.026,0.023-0.079,0.049-0.158s0.05-0.149,0.07-0.208
		c0.02-0.06,0.033-0.097,0.04-0.109c0.013-0.014,0.079-0.021,0.198-0.021h0.526l1.369,4.436c0.119,0.39,0.291,0.981,0.516,1.775
		h0.01c0.179-0.635,0.365-1.278,0.561-1.93c0.195-0.651,0.44-1.445,0.734-2.381c0.294-0.936,0.491-1.569,0.59-1.9h0.625
		l-2.153,6.945h-0.545c-0.113,0-0.175-0.01-0.188-0.03c-0.06-0.059-0.536-1.587-1.429-4.583c-0.218-0.701-0.377-1.254-0.476-1.657
		h-0.01c-0.013,0.113-0.21,0.796-0.59,2.049c-0.38,1.254-0.633,2.072-0.759,2.456l-0.377,1.24c-0.007,0.026-0.023,0.081-0.05,0.163
		c-0.026,0.083-0.049,0.155-0.069,0.219c-0.02,0.062-0.036,0.101-0.049,0.113c-0.014,0.021-0.076,0.03-0.189,0.03h-0.516
		L196.748,43.167z"/>
</g>
<g>
	<path d="M210.599,38.091h2.75c1.162,0,2.008,0.127,2.537,0.383c0.331,0.15,0.624,0.361,0.878,0.63
		c0.255,0.27,0.397,0.589,0.425,0.957c0.076,0.539-0.111,1.035-0.56,1.488s-0.98,0.779-1.594,0.978
		c-0.028,0.01-0.321,0.095-0.879,0.256c0.321,0.057,0.562,0.113,0.723,0.17c0.425,0.132,0.798,0.34,1.12,0.623
		c0.321,0.284,0.52,0.624,0.595,1.021c0.113,0.624-0.085,1.22-0.595,1.786c-0.35,0.396-0.801,0.732-1.354,1.006
		c-0.553,0.274-1.132,0.444-1.736,0.511c-0.18,0.019-0.723,0.028-1.63,0.028h-2.764L210.599,38.091z M209.621,47.176h1.842h0.808
		c0.765-0.048,1.417-0.203,1.956-0.468c1.115-0.529,1.587-1.21,1.417-2.041c-0.113-0.444-0.454-0.808-1.021-1.092
		c-0.529-0.273-1.323-0.41-2.381-0.41h-1.772L209.621,47.176z M210.627,42.456h1.389c0.624,0,0.997-0.005,1.12-0.015
		c0.728-0.057,1.379-0.245,1.956-0.566c0.86-0.473,1.252-1.021,1.176-1.645c-0.057-0.443-0.435-0.812-1.134-1.105
		c-0.482-0.188-1.186-0.283-2.112-0.283h-1.63L210.627,42.456z"/>
</g>
<g>
	<path d="M218.803,49.795c0,0.007-0.03,0.153-0.089,0.441s-0.123,0.58-0.188,0.878c-0.066,0.298-0.103,0.46-0.109,0.486
		c-0.04,0.105-0.119,0.182-0.238,0.229c-0.119,0.046-0.228,0.036-0.328-0.03c-0.086-0.066-0.105-0.205-0.06-0.417
		c0.033-0.152,0.147-0.685,0.342-1.597c0.195-0.913,0.382-1.788,0.561-2.624c0.179-0.837,0.274-1.285,0.288-1.345
		c0.033-0.159,0.06-0.258,0.079-0.298c0.08-0.179,0.222-0.251,0.427-0.218c0.146,0.02,0.218,0.103,0.218,0.248
		c0,0.02-0.031,0.18-0.094,0.48c-0.063,0.302-0.134,0.639-0.213,1.013c-0.079,0.373-0.132,0.623-0.159,0.749
		c-0.093,0.43-0.139,0.707-0.139,0.833c0,0.437,0.148,0.731,0.446,0.883c0.297,0.152,0.602,0.149,0.913-0.01
		c0.199-0.105,0.371-0.258,0.516-0.456s0.268-0.441,0.367-0.729c0.099-0.288,0.177-0.546,0.233-0.773
		c0.056-0.229,0.117-0.512,0.184-0.849c0.006-0.046,0.013-0.084,0.02-0.114c0.006-0.029,0.013-0.061,0.02-0.094
		c0.013-0.066,0.035-0.162,0.064-0.288s0.051-0.222,0.064-0.288c0.033-0.165,0.06-0.271,0.08-0.317
		c0.092-0.146,0.218-0.218,0.377-0.218c0.165,0.013,0.254,0.096,0.268,0.248c0,0.026-0.048,0.271-0.144,0.734
		c-0.096,0.463-0.198,0.949-0.308,1.458c-0.109,0.51-0.167,0.78-0.173,0.813c-0.033,0.146-0.057,0.255-0.07,0.327
		c-0.013,0.073-0.01,0.169,0.01,0.288c0.02,0.119,0.073,0.212,0.159,0.277c0.105,0.093,0.208,0.116,0.308,0.07
		c0.132-0.08,0.251-0.351,0.357-0.814c0.006-0.013,0.015-0.041,0.025-0.084s0.018-0.083,0.025-0.119
		c0.006-0.036,0.013-0.058,0.02-0.064c0.013-0.013,0.073-0.02,0.179-0.02h0.486c-0.007,0.053-0.043,0.202-0.109,0.446
		c-0.185,0.522-0.417,0.877-0.694,1.062c-0.258,0.165-0.541,0.188-0.848,0.069c-0.308-0.119-0.498-0.33-0.571-0.635
		c-0.218,0.231-0.437,0.403-0.655,0.516c-0.437,0.219-0.886,0.255-1.349,0.109c-0.146-0.046-0.255-0.096-0.328-0.148
		c-0.02-0.007-0.048-0.023-0.084-0.05C218.851,49.828,218.823,49.809,218.803,49.795z"/>
</g>
<g>
	<path d="M228.877,43.916c0.019-0.01,0.094-0.015,0.227-0.015h7.441h0.539c0.113,0.02,0.187,0.085,0.22,0.198
		c0.033,0.114,0.012,0.208-0.064,0.284c-0.028,0.028-0.071,0.052-0.127,0.07c-0.057,0.02-0.106,0.028-0.149,0.028
		s-0.099-0.002-0.17-0.007s-0.116-0.007-0.135-0.007h-7.54c-0.142,0-0.222-0.005-0.241-0.015c-0.142-0.037-0.21-0.125-0.206-0.262
		C228.676,44.056,228.744,43.963,228.877,43.916z"/>
</g>
<g>
	<path d="M247.275,46.155c-0.085,0.18-0.222,0.373-0.411,0.581c-0.624,0.718-1.333,1.03-2.126,0.936
		c-0.709-0.123-1.212-0.489-1.51-1.099c-0.297-0.609-0.347-1.335-0.148-2.176c0.264-1.067,0.827-1.937,1.687-2.607l0.383-0.256
		c0.255-0.15,0.52-0.264,0.793-0.34c0.274-0.075,0.56-0.094,0.857-0.057c0.298,0.038,0.555,0.146,0.772,0.326
		c0.189,0.17,0.373,0.468,0.553,0.893l0.227-1.119l0.057-0.1c0.179-0.009,0.468-0.014,0.864-0.014
		c-0.501,2.409-0.954,4.54-1.36,6.392c-0.132,0.604-0.27,1.035-0.411,1.29c-0.236,0.425-0.551,0.791-0.942,1.099
		c-0.392,0.307-0.82,0.508-1.283,0.602c-0.832,0.143-1.635,0.043-2.41-0.297c-0.057-0.028-0.118-0.06-0.184-0.093
		c-0.066-0.033-0.14-0.07-0.22-0.113c-0.081-0.042-0.144-0.073-0.191-0.092l0.17-0.779c0.047,0.019,0.118,0.059,0.213,0.12
		c0.094,0.062,0.165,0.102,0.212,0.12c0.482,0.265,1.058,0.416,1.729,0.454c0.283,0.019,0.496,0.014,0.638-0.015
		c0.349-0.075,0.664-0.25,0.942-0.524c0.279-0.273,0.484-0.591,0.617-0.949c0.085-0.208,0.189-0.628,0.312-1.262
		c0.009-0.028,0.04-0.158,0.092-0.39c0.052-0.231,0.083-0.408,0.092-0.531H247.275z M247.374,41.974
		c-0.189-0.132-0.414-0.182-0.673-0.148s-0.491,0.092-0.694,0.177c-0.204,0.085-0.395,0.189-0.574,0.312
		c-0.406,0.273-0.744,0.631-1.013,1.069c-0.27,0.439-0.438,0.905-0.503,1.396c-0.057,0.396-0.017,0.782,0.121,1.155
		c0.137,0.373,0.371,0.649,0.702,0.829c0.302,0.17,0.614,0.241,0.936,0.213c0.444-0.038,0.841-0.274,1.19-0.709
		c0.378-0.473,0.675-1.2,0.893-2.183c0.076-0.321,0.132-0.6,0.17-0.836C247.927,42.607,247.742,42.182,247.374,41.974z"/>
</g>
<g>
	<path d="M252.362,29.539c0.945,0,1.715-0.217,2.31-0.652c0.047-0.028,0.09-0.062,0.127-0.1c0.038-0.038,0.066-0.066,0.085-0.085
		c0.019-0.019,0.042-0.038,0.071-0.057c0.028-0.019,0.063-0.03,0.106-0.035s0.097-0.007,0.163-0.007v8.83h1.857v0.709h-4.635v-0.709
		h1.856v-7.597c-0.633,0.274-1.28,0.411-1.941,0.411V29.539z"/>
</g>
<g>
	<rect x="250.874" y="43.9" width="7.441" height="0.574"/>
</g>
<g>
	<path d="M252.022,50.946c-0.038-0.037-0.161-0.184-0.369-0.439c-0.094-0.122-0.142-0.193-0.142-0.212
		c0-0.02,0.028-0.118,0.085-0.298c0.189-0.539,0.468-0.992,0.836-1.36c0.558-0.501,1.247-0.744,2.069-0.73
		c0.822,0.015,1.517,0.268,2.083,0.759c0.482,0.416,0.789,0.94,0.921,1.573c0.132,0.633,0.057,1.232-0.227,1.8
		c-0.066,0.133-0.142,0.262-0.227,0.39c-0.085,0.128-0.187,0.258-0.305,0.39c-0.119,0.133-0.215,0.241-0.291,0.326
		c-0.076,0.085-0.196,0.198-0.362,0.34c-0.165,0.142-0.279,0.239-0.34,0.291c-0.062,0.052-0.189,0.155-0.383,0.312
		c-0.194,0.156-0.31,0.248-0.347,0.276c-0.142,0.104-0.555,0.461-1.24,1.07s-1.136,1.019-1.354,1.226h5.131v0.794h-5.953v-0.496
		c0-0.123,0.007-0.2,0.021-0.233s0.054-0.083,0.121-0.149l0.241-0.227l1.956-1.8c0.057-0.048,0.201-0.168,0.432-0.361
		c0.231-0.194,0.399-0.336,0.503-0.426c0.104-0.09,0.257-0.231,0.46-0.425s0.356-0.363,0.46-0.511
		c0.104-0.146,0.222-0.316,0.354-0.51s0.234-0.392,0.305-0.596c0.071-0.203,0.121-0.408,0.149-0.616
		c0.047-0.576-0.076-1.072-0.369-1.488c-0.406-0.558-1.011-0.869-1.814-0.936c-0.378-0.028-0.718,0.015-1.021,0.128
		C252.73,49.109,252.268,49.822,252.022,50.946z"/>
</g>
<g>
	<path d="M260.402,42.555c0.369-0.51,0.851-0.992,1.446-1.205c0.411-0.156,0.851-0.113,1.29-0.113h3.629
		c0.198,0,0.454-0.028,0.553,0.184c0.142,0.298-0.127,0.638-0.425,0.681c-0.099,0.014-0.212,0-0.312,0h-2.197
		c-0.014,0.113-1.092,5.174-1.134,5.344c-0.028,0.127-0.042,0.255-0.127,0.368c-0.142,0.198-0.468,0.312-0.681,0.156
		c-0.156-0.113-0.142-0.298-0.113-0.468c0,0,1.078-4.947,1.148-5.401h-0.879c-0.284,0-0.539,0-0.794,0.127
		c-0.397,0.212-0.667,0.581-0.893,0.979c-0.028,0.042-0.057,0.113-0.113,0.142c-0.057,0.042-0.185,0.028-0.255,0.028h-0.624
		C259.977,43.179,260.289,42.725,260.402,42.555z M266.88,38.075c0.014-0.199,0.227-0.312,0.397-0.227
		c0.114,0.042,0.142,0.156,0.199,0.255c0.113,0.227,0.297,0.439,0.51,0.567c0.156,0.099,0.411,0.185,0.34,0.439
		c-0.028,0.156-0.185,0.199-0.312,0.255c-0.383,0.17-0.638,0.383-0.907,0.652c-0.113,0.127-0.241,0.298-0.439,0.227
		c-0.156-0.042-0.241-0.227-0.17-0.383c0.099-0.213,0.326-0.397,0.51-0.539h-4.692c-0.283,0-0.581,0-0.581-0.298
		c0.014-0.142,0.127-0.241,0.255-0.27c0.113-0.014,0.241,0,0.354,0h4.862C267.135,38.642,266.852,38.288,266.88,38.075z"/>
</g>
<g>
	<path d="M267.43,43.167h0.694v6.33h3.621v0.556h-4.315V43.167z"/>
</g>
<g>
	<path d="M282.737,34.925c0.014-0.199,0.227-0.312,0.396-0.227c0.113,0.042,0.142,0.156,0.198,0.255
		c0.114,0.227,0.298,0.439,0.511,0.567c0.156,0.099,0.411,0.184,0.34,0.439c-0.028,0.156-0.184,0.198-0.312,0.255
		c-0.383,0.17-0.638,0.383-0.907,0.652c-0.113,0.127-0.241,0.298-0.439,0.227c-0.156-0.042-0.241-0.227-0.17-0.382
		c0.099-0.213,0.326-0.397,0.51-0.539h-4.692c-0.284,0-0.582,0-0.582-0.297c0.014-0.142,0.127-0.241,0.255-0.27
		c0.113-0.014,0.241,0,0.354,0h4.862C282.992,35.492,282.709,35.138,282.737,34.925z"/>
</g>
<g>
	<path d="M273.519,38.091h0.963c0,0.047,0.038,0.488,0.114,1.325c0.075,0.836,0.158,1.771,0.248,2.806
		c0.089,1.035,0.148,1.756,0.177,2.162c0.104,1.285,0.156,2.163,0.156,2.636h0.014c0.151-0.368,0.51-1.119,1.077-2.253l2.338-4.593
		l0.978-1.899l0.113-0.17c0.208-0.009,0.539-0.014,0.992-0.014c0.057,0.661,0.139,1.592,0.248,2.792
		c0.108,1.2,0.203,2.296,0.284,3.288c0.08,0.992,0.144,1.941,0.191,2.849h0.014c0.095-0.245,0.206-0.498,0.333-0.758
		c0.127-0.26,0.269-0.539,0.425-0.837c0.156-0.297,0.276-0.536,0.362-0.716l1.388-2.749l1.9-3.671l0.113-0.17
		c0.113-0.02,0.396-0.028,0.85-0.028l-4.989,9.694l-0.142,0.198c-0.142,0.019-0.477,0.028-1.006,0.028
		c-0.321-3.647-0.548-6.363-0.68-8.149l-0.028-0.864h-0.014c-0.577,1.247-2.06,4.19-4.451,8.829l-0.113,0.171
		c-0.208,0.009-0.529,0.014-0.964,0.014L273.519,38.091z"/>
</g>
<g>
	<path d="M286.526,49.795c0,0.007-0.03,0.153-0.089,0.441c-0.061,0.288-0.123,0.58-0.189,0.878s-0.102,0.46-0.108,0.486
		c-0.04,0.105-0.119,0.182-0.238,0.229c-0.119,0.046-0.228,0.036-0.327-0.03c-0.086-0.066-0.105-0.205-0.061-0.417
		c0.033-0.152,0.148-0.685,0.343-1.597c0.195-0.913,0.382-1.788,0.561-2.624c0.179-0.837,0.274-1.285,0.288-1.345
		c0.033-0.159,0.06-0.258,0.079-0.298c0.079-0.179,0.222-0.251,0.427-0.218c0.146,0.02,0.219,0.103,0.219,0.248
		c0,0.02-0.031,0.18-0.095,0.48c-0.063,0.302-0.134,0.639-0.214,1.013c-0.078,0.373-0.132,0.623-0.158,0.749
		c-0.093,0.43-0.139,0.707-0.139,0.833c0,0.437,0.148,0.731,0.446,0.883c0.298,0.152,0.602,0.149,0.913-0.01
		c0.198-0.105,0.37-0.258,0.516-0.456s0.268-0.441,0.367-0.729s0.177-0.546,0.232-0.773c0.057-0.229,0.117-0.512,0.184-0.849
		c0.007-0.046,0.014-0.084,0.021-0.114c0.007-0.029,0.013-0.061,0.02-0.094c0.013-0.066,0.034-0.162,0.064-0.288
		s0.052-0.222,0.064-0.288c0.033-0.165,0.06-0.271,0.079-0.317c0.093-0.146,0.219-0.218,0.377-0.218
		c0.166,0.013,0.255,0.096,0.269,0.248c0,0.026-0.048,0.271-0.144,0.734c-0.097,0.463-0.199,0.949-0.309,1.458
		c-0.108,0.51-0.166,0.78-0.173,0.813c-0.033,0.146-0.057,0.255-0.069,0.327c-0.014,0.073-0.01,0.169,0.01,0.288
		s0.072,0.212,0.158,0.277c0.105,0.093,0.209,0.116,0.309,0.07c0.131-0.08,0.25-0.351,0.356-0.814
		c0.007-0.013,0.015-0.041,0.024-0.084s0.019-0.083,0.025-0.119c0.006-0.036,0.014-0.058,0.02-0.064
		c0.014-0.013,0.072-0.02,0.179-0.02h0.486c-0.007,0.053-0.044,0.202-0.109,0.446c-0.185,0.522-0.417,0.877-0.694,1.062
		c-0.258,0.165-0.541,0.188-0.848,0.069c-0.309-0.119-0.498-0.33-0.571-0.635c-0.218,0.231-0.437,0.403-0.655,0.516
		c-0.436,0.219-0.886,0.255-1.349,0.109c-0.146-0.046-0.255-0.096-0.327-0.148c-0.02-0.007-0.049-0.023-0.084-0.05
		C286.574,49.828,286.547,49.809,286.526,49.795z"/>
</g>
<g>
	<path d="M293.31,61.166c-0.215,0.215-0.243,0.215-0.444,0.215c-0.172,0-0.301,0-0.301-0.144c0-0.043,0.028-0.086,0.057-0.129
		c0.603-0.603,1.793-1.793,2.927-3.83c2.366-4.274,2.883-9.251,2.883-13.109c0-5.522-1.047-10.184-3.356-13.884
		c-0.961-1.549-1.922-2.51-2.424-3.026c-0.029-0.029-0.086-0.086-0.086-0.144c0-0.144,0.129-0.144,0.301-0.144
		c0.201,0,0.229,0,0.401,0.172c0.588,0.516,1.134,1.104,1.42,1.434c3.644,4.289,4.935,9.969,4.935,15.606
		C299.621,50.222,298.115,56.791,293.31,61.166z"/>
</g>
<g>
	<path d="M311.49,38.091h0.907l-1.956,9.24c0.566-0.009,1.119-0.269,1.658-0.779c0.548-0.51,0.959-1.152,1.233-1.928
		c0.095-0.264,0.188-0.653,0.283-1.169c0.095-0.515,0.128-0.933,0.099-1.254c-0.009-0.057-0.03-0.143-0.062-0.256
		c-0.033-0.113-0.053-0.195-0.057-0.248c-0.006-0.052,0.012-0.134,0.049-0.248c0.02-0.065,0.068-0.129,0.148-0.191
		c0.08-0.061,0.158-0.101,0.234-0.12c0.028-0.009,0.076-0.014,0.142-0.014c0.255,0,0.406,0.24,0.454,0.723
		c0.094,0.651-0.01,1.517-0.312,2.594c-0.236,0.793-0.673,1.54-1.311,2.239c-0.639,0.699-1.367,1.134-2.189,1.304
		c-0.113,0.028-0.232,0.043-0.355,0.043c-0.009,0-0.033,0.004-0.07,0.014s-0.066,0.019-0.085,0.028
		c-0.019,0.019-0.055,0.151-0.106,0.397c-0.052,0.245-0.105,0.512-0.162,0.801c-0.058,0.288-0.091,0.446-0.1,0.475
		c-0.076,0.273-0.123,0.496-0.143,0.666h-0.906c0-0.038,0.035-0.225,0.105-0.56c0.071-0.336,0.146-0.69,0.227-1.063
		c0.081-0.373,0.121-0.564,0.121-0.574c0.047-0.151,0.023-0.227-0.07-0.227c-0.416-0.085-0.75-0.18-1-0.283
		c-0.25-0.104-0.484-0.26-0.701-0.468c-0.34-0.359-0.52-0.836-0.539-1.432c0-0.435,0.232-1.332,0.695-2.693
		c0.104-0.292,0.155-0.538,0.155-0.736c0-0.18-0.052-0.321-0.155-0.426c-0.123-0.094-0.254-0.13-0.391-0.105
		c-0.137,0.023-0.262,0.082-0.375,0.177c-0.312,0.283-0.529,0.771-0.652,1.46h-0.906c0.018-0.133,0.074-0.331,0.17-0.596
		c0.293-0.746,0.713-1.266,1.261-1.559c0.236-0.142,0.515-0.206,0.837-0.191c0.32,0.014,0.58,0.12,0.779,0.318
		c0.094,0.114,0.16,0.204,0.198,0.27c0.085,0.161,0.13,0.338,0.135,0.531c0.005,0.194-0.003,0.333-0.021,0.419
		c-0.019,0.085-0.066,0.255-0.142,0.51l-0.213,0.609l-0.17,0.567c-0.104,0.34-0.175,0.586-0.213,0.736
		c-0.037,0.151-0.052,0.369-0.042,0.652c0.009,0.283,0.075,0.524,0.198,0.723c0.283,0.454,0.742,0.719,1.375,0.794L311.49,38.091z"
		/>
</g>
</svg>
