<?xml version="1.0" encoding="iso-8859-1"?>
<!-- Generator: Adobe Illustrator 16.0.0, SVG Export Plug-In . SVG Version: 6.00 Build 0)  -->
<!DOCTYPE svg PUBLIC "-//W3C//DTD SVG 1.1//EN" "http://www.w3.org/Graphics/SVG/1.1/DTD/svg11.dtd">
<svg version="1.1" id="Layer_1" xmlns="http://www.w3.org/2000/svg" xmlns:xlink="http://www.w3.org/1999/xlink" x="0px" y="0px"
	 width="566.929px" height="85.039px" viewBox="0 0 566.929 85.039" style="enable-background:new 0 0 566.929 85.039;"
	 xml:space="preserve">
<g>
	<path d="M29.263,36.472c0.047-0.113,0.179-0.288,0.397-0.524c0.454-0.52,0.992-0.836,1.616-0.95
		c0.208-0.038,0.435-0.042,0.68-0.014c0.595,0.057,0.997,0.26,1.205,0.609c0.208,0.35,0.227,0.917,0.057,1.701l-0.638,2.99
		c-0.132,0.699-0.227,1.144-0.283,1.333c0,0.104-0.071,0.156-0.213,0.156c-0.028,0-0.047,0-0.057,0H31.36l0.893-4.195
		c0.009-0.047,0.028-0.135,0.057-0.262s0.047-0.224,0.057-0.291c0.009-0.066,0.019-0.153,0.028-0.262
		c0.009-0.108,0.004-0.206-0.014-0.291c-0.019-0.085-0.047-0.17-0.085-0.255c-0.208-0.406-0.676-0.586-1.403-0.539
		c-0.435,0.057-0.806,0.26-1.113,0.609s-0.541,0.756-0.701,1.219c-0.038,0.123-0.111,0.437-0.22,0.942
		c-0.109,0.506-0.225,1.063-0.347,1.672c-0.123,0.61-0.208,1.014-0.255,1.212c-0.009,0.028-0.021,0.076-0.036,0.142
		c-0.014,0.066-0.026,0.119-0.035,0.156c0,0.038-0.005,0.066-0.014,0.085c-0.01,0.019-0.028,0.033-0.057,0.042
		s-0.05,0.014-0.064,0.014s-0.042,0-0.085,0s-0.069,0-0.078,0H27.25l1.417-6.69h0.864l-0.283,1.389H29.263z"/>
</g>
<g>
	<path d="M35.915,37.014h1.964c0.311,0,0.542,0.003,0.694,0.01c0.152,0.007,0.333,0.03,0.541,0.069
		c0.208,0.04,0.405,0.103,0.59,0.188c0.278,0.119,0.512,0.293,0.704,0.521c0.192,0.229,0.271,0.511,0.238,0.848
		c-0.046,0.331-0.222,0.629-0.526,0.893c-0.304,0.265-0.651,0.463-1.042,0.595c-0.066,0.02-0.166,0.046-0.298,0.08
		s-0.228,0.06-0.288,0.079c0.595,0.086,1.052,0.288,1.369,0.605c0.41,0.41,0.506,0.87,0.288,1.379
		c-0.159,0.403-0.483,0.757-0.972,1.062c-0.496,0.311-1.059,0.492-1.687,0.546c-0.08,0.007-0.43,0.01-1.052,0.01h-1.984
		L35.915,37.014z M35.24,43.344h1.29c0.443,0,0.711-0.004,0.804-0.01c0.502-0.039,0.949-0.158,1.339-0.357
		c0.648-0.331,0.958-0.721,0.932-1.17c-0.02-0.351-0.238-0.645-0.655-0.883c-0.337-0.191-0.764-0.304-1.28-0.337
		c0-0.007-0.142-0.007-0.426,0h-0.427h-0.893c-0.026,0-0.048,0.003-0.064,0.01c-0.017,0.007-0.03,0.018-0.04,0.035
		s-0.017,0.03-0.02,0.04c-0.003,0.01-0.008,0.032-0.015,0.064c-0.007,0.033-0.01,0.053-0.01,0.06
		c-0.007,0.046-0.035,0.187-0.084,0.422c-0.05,0.235-0.106,0.498-0.169,0.789s-0.104,0.493-0.124,0.605
		C35.32,42.954,35.267,43.198,35.24,43.344z M35.935,40.06h0.982c0.47,0,0.771-0.007,0.903-0.02
		c0.443-0.053,0.865-0.168,1.265-0.347c0.4-0.179,0.676-0.413,0.828-0.705c0.066-0.132,0.1-0.258,0.1-0.377
		c-0.007-0.291-0.208-0.539-0.605-0.744c-0.198-0.099-0.432-0.172-0.699-0.218c-0.268-0.046-0.471-0.071-0.61-0.074
		c-0.139-0.003-0.384-0.005-0.734-0.005H36.56c-0.02,0-0.037,0.003-0.05,0.01c-0.013,0.007-0.025,0.013-0.035,0.02
		c-0.01,0.006-0.018,0.018-0.025,0.035c-0.006,0.017-0.01,0.028-0.01,0.035c0,0.007-0.003,0.021-0.01,0.044
		c-0.007,0.023-0.01,0.038-0.01,0.045C36.229,38.75,36.067,39.518,35.935,40.06z"/>
</g>
<g>
	<rect x="26.102" y="47.531" width="15.634" height="0.574"/>
</g>
<g>
	<path d="M30.138,55.783c0.047-0.113,0.179-0.288,0.397-0.524c0.454-0.52,0.992-0.836,1.616-0.949
		c0.208-0.038,0.435-0.043,0.68-0.015c0.595,0.057,0.997,0.26,1.205,0.609s0.227,0.917,0.057,1.701l-0.638,2.99
		c-0.132,0.699-0.227,1.144-0.283,1.332c0,0.104-0.071,0.156-0.213,0.156c-0.028,0-0.047,0-0.057,0h-0.666l0.893-4.195
		c0.009-0.047,0.028-0.135,0.057-0.262c0.028-0.128,0.047-0.225,0.057-0.291c0.009-0.066,0.019-0.153,0.028-0.262
		c0.009-0.109,0.004-0.206-0.014-0.291c-0.019-0.085-0.047-0.17-0.085-0.255c-0.208-0.406-0.676-0.586-1.403-0.539
		c-0.435,0.057-0.806,0.26-1.113,0.609s-0.541,0.757-0.701,1.219c-0.038,0.123-0.111,0.438-0.22,0.943
		c-0.109,0.505-0.225,1.062-0.347,1.672c-0.123,0.609-0.208,1.014-0.255,1.212c-0.009,0.028-0.021,0.076-0.036,0.142
		c-0.014,0.066-0.026,0.118-0.035,0.156c0,0.038-0.005,0.066-0.014,0.085c-0.01,0.019-0.028,0.033-0.057,0.042
		c-0.028,0.01-0.05,0.015-0.064,0.015s-0.042,0-0.085,0s-0.069,0-0.078,0h-0.638l1.417-6.689h0.864l-0.283,1.389H30.138z"/>
</g>
<g>
	<path d="M34.259,60.512c0.026-0.166,0.086-0.348,0.178-0.546c0.265-0.596,0.678-1.035,1.24-1.319
		c0.265-0.14,0.559-0.205,0.883-0.198c0.324,0.006,0.608,0.099,0.853,0.277c0.43,0.311,0.737,0.827,0.923,1.548
		c0.013,0.046,0.031,0.115,0.054,0.208c0.023,0.093,0.035,0.146,0.035,0.159c0.013,0.125,0.03,0.218,0.049,0.277
		c0.225-0.681,0.5-1.415,0.824-2.202l0.089-0.169c0.086-0.013,0.308-0.02,0.665-0.02c-0.053,0.172-0.199,0.506-0.437,1.002
		l-0.734,1.696c-0.026,0.06-0.063,0.146-0.109,0.258c-0.046,0.113-0.088,0.215-0.124,0.308c-0.037,0.093-0.068,0.183-0.094,0.269
		c-0.02,0.059-0.03,0.155-0.03,0.287c0,0.351-0.05,0.764-0.149,1.24c-0.113,0.582-0.202,0.952-0.268,1.111
		c-0.099,0.212-0.222,0.317-0.367,0.317c-0.139-0.007-0.215-0.116-0.229-0.327c0-0.146,0.058-0.477,0.174-0.992
		s0.216-0.916,0.303-1.2c0-0.021,0.006-0.047,0.02-0.08s0.02-0.06,0.02-0.079c0-0.403-0.123-1.002-0.367-1.796
		c-0.073-0.231-0.141-0.425-0.204-0.58c-0.062-0.155-0.16-0.316-0.292-0.481s-0.284-0.277-0.457-0.337
		c-0.37-0.119-0.728-0.043-1.071,0.228c-0.357,0.265-0.592,0.646-0.705,1.142H34.259z"/>
</g>
<g>
	<path d="M47.706,49.049c0.057-0.094,0.198-0.142,0.425-0.142h8.093h0.595c0.123,0.02,0.208,0.083,0.255,0.191
		s0.023,0.205-0.071,0.29c-0.057,0.058-0.156,0.086-0.297,0.086H48.13c-0.142,0-0.227-0.005-0.255-0.015
		c-0.085-0.019-0.146-0.073-0.184-0.163C47.653,49.207,47.658,49.125,47.706,49.049z M47.875,46.172
		c0.019-0.01,0.099-0.015,0.241-0.015h8.122l0.297-0.014c0.199,0,0.298,0.005,0.298,0.014c0.113,0.02,0.191,0.085,0.234,0.199
		c0.042,0.113,0.021,0.208-0.064,0.283c-0.057,0.057-0.161,0.085-0.312,0.085h-8.519c-0.151,0-0.241-0.005-0.269-0.015
		c-0.151-0.028-0.229-0.115-0.234-0.262S47.734,46.21,47.875,46.172z"/>
</g>
<g>
	<path d="M73.684,40.979c-0.019-0.132-0.057-0.274-0.113-0.425c-0.057-0.151-0.106-0.279-0.149-0.383s-0.116-0.253-0.22-0.446
		c-0.104-0.194-0.17-0.316-0.198-0.369c-0.028-0.052-0.109-0.187-0.241-0.404l-0.213-0.326c-0.132-0.208-0.217-0.34-0.255-0.397
		c-0.038-0.057-0.118-0.187-0.241-0.39c-0.123-0.203-0.206-0.345-0.248-0.425c-0.042-0.08-0.113-0.215-0.212-0.404
		s-0.166-0.338-0.198-0.446c-0.034-0.109-0.076-0.253-0.128-0.433c-0.052-0.179-0.085-0.335-0.099-0.468
		c-0.014-0.132-0.021-0.281-0.021-0.446c0-0.165,0.014-0.328,0.042-0.489c0.208-1.077,0.893-1.904,2.055-2.48
		c0.699-0.35,1.462-0.536,2.289-0.56c0.827-0.023,1.599,0.116,2.317,0.418c0.614,0.265,1.139,0.635,1.573,1.112
		c0.435,0.478,0.694,1.019,0.78,1.623c0.047,0.331,0.044,0.659-0.007,0.985c-0.052,0.326-0.17,0.676-0.354,1.049
		c-0.184,0.374-0.331,0.654-0.439,0.843c-0.109,0.189-0.3,0.492-0.574,0.907l-0.425,0.694c-0.387,0.605-0.624,1.158-0.708,1.659
		h2.693v0.793h-3.501c0-0.52,0.1-1.035,0.298-1.545s0.482-1.084,0.851-1.722c0.368-0.638,0.619-1.103,0.751-1.396
		c0.491-1.134,0.576-2.079,0.255-2.834c-0.066-0.17-0.161-0.34-0.283-0.51c-0.397-0.558-0.95-0.94-1.658-1.148
		c-0.709-0.208-1.432-0.26-2.168-0.156c-0.756,0.114-1.396,0.407-1.92,0.879c-0.524,0.473-0.815,1.054-0.872,1.743
		c-0.038,0.633,0.137,1.361,0.524,2.183c0.114,0.255,0.354,0.701,0.723,1.339c0.368,0.638,0.645,1.2,0.829,1.687
		c0.184,0.487,0.276,0.98,0.276,1.481h-3.501v-0.793H73.684z"/>
</g>
<g>
	<path d="M83.345,37.014H84c-0.073,0.371-0.18,0.89-0.322,1.558c-0.143,0.668-0.237,1.108-0.283,1.319
		c0.04-0.026,0.092-0.069,0.159-0.129c0.066-0.06,0.115-0.103,0.148-0.129c0.225-0.159,0.496-0.292,0.814-0.402
		c0.317-0.109,0.618-0.13,0.903-0.064c0.331,0.086,0.582,0.286,0.754,0.6c0.172,0.314,0.261,0.657,0.268,1.027
		c0.007,0.582-0.127,1.136-0.402,1.662s-0.656,0.935-1.146,1.226c-0.285,0.165-0.576,0.263-0.873,0.292
		c-0.298,0.03-0.592-0.041-0.883-0.213c-0.218-0.14-0.36-0.317-0.426-0.536H82.7c-0.013,0.047-0.028,0.115-0.044,0.209
		c-0.017,0.092-0.033,0.175-0.05,0.248c-0.017,0.072-0.035,0.139-0.055,0.197c-0.086,0.014-0.307,0.021-0.665,0.021L83.345,37.014z
		 M85.409,39.951c-0.297-0.218-0.613-0.311-0.947-0.278c-0.334,0.033-0.633,0.162-0.898,0.387c-0.026,0.026-0.058,0.056-0.094,0.089
		c-0.037,0.033-0.061,0.056-0.074,0.069c-0.014,0.013-0.028,0.033-0.045,0.06s-0.03,0.056-0.04,0.089s-0.019,0.073-0.025,0.119
		l-0.06,0.288l-0.347,1.637c0,0.014-0.012,0.063-0.035,0.149c-0.023,0.086-0.035,0.149-0.035,0.188
		c0.013,0.146,0.076,0.281,0.188,0.407c0.125,0.159,0.301,0.253,0.526,0.282c0.225,0.03,0.438,0.014,0.64-0.049
		s0.382-0.145,0.541-0.243c0.549-0.344,0.889-0.942,1.021-1.796C85.832,40.708,85.726,40.242,85.409,39.951z"/>
</g>
<g>
	<rect x="63.025" y="47.531" width="31.354" height="0.574"/>
</g>
<g>
	<path d="M66.186,55.783c0.057-0.123,0.198-0.307,0.425-0.553c0.642-0.709,1.394-1.021,2.253-0.936
		c0.491,0.038,0.855,0.18,1.091,0.426c0.161,0.16,0.265,0.392,0.312,0.694c0,0.028,0.002,0.087,0.007,0.177s0.012,0.158,0.021,0.206
		c0.094-0.161,0.236-0.346,0.425-0.554c0.481-0.528,1.034-0.841,1.658-0.935c0.416-0.057,0.796-0.031,1.141,0.077
		c0.345,0.109,0.588,0.301,0.73,0.574c0.18,0.341,0.189,0.898,0.028,1.673l-0.638,2.962c-0.132,0.699-0.227,1.144-0.284,1.332
		c0,0.104-0.071,0.156-0.212,0.156c-0.028,0-0.047,0-0.057,0h-0.666l0.893-4.195c0.009-0.047,0.028-0.135,0.057-0.262
		c0.028-0.128,0.047-0.225,0.057-0.291c0.009-0.066,0.019-0.153,0.028-0.262c0.009-0.109,0.004-0.206-0.014-0.291
		c-0.019-0.085-0.047-0.17-0.085-0.255c-0.132-0.265-0.392-0.43-0.779-0.496c-0.614-0.133-1.127-0.015-1.538,0.354
		c-0.411,0.368-0.716,0.846-0.915,1.431c-0.038,0.123-0.111,0.438-0.22,0.943c-0.108,0.505-0.224,1.062-0.347,1.672
		c-0.123,0.609-0.208,1.014-0.255,1.212c-0.01,0.038-0.021,0.09-0.036,0.156s-0.026,0.113-0.035,0.142
		c0,0.038-0.005,0.066-0.014,0.085c-0.01,0.019-0.028,0.033-0.057,0.042c-0.028,0.01-0.05,0.015-0.064,0.015s-0.042,0-0.085,0
		s-0.069,0-0.078,0h-0.638l0.893-4.195c0.009-0.047,0.028-0.135,0.057-0.262c0.028-0.128,0.047-0.225,0.057-0.291
		c0.009-0.066,0.019-0.153,0.028-0.262c0.009-0.109,0.004-0.206-0.014-0.291c-0.019-0.085-0.047-0.17-0.085-0.255
		c-0.133-0.265-0.393-0.43-0.78-0.496c-0.614-0.133-1.126-0.015-1.538,0.354c-0.411,0.368-0.716,0.846-0.914,1.431
		c-0.038,0.123-0.111,0.438-0.22,0.943c-0.109,0.505-0.225,1.062-0.347,1.672c-0.123,0.609-0.208,1.014-0.255,1.212
		c-0.009,0.028-0.021,0.076-0.036,0.142c-0.014,0.066-0.026,0.118-0.035,0.156c0,0.038-0.005,0.066-0.014,0.085
		c-0.01,0.019-0.028,0.033-0.057,0.042c-0.028,0.01-0.05,0.015-0.064,0.015s-0.042,0-0.085,0s-0.069,0-0.078,0h-0.638l1.417-6.689
		h0.864l-0.283,1.389H66.186z"/>
</g>
<g>
	<path d="M76.744,59.489c0.145-0.238,0.344-0.451,0.595-0.64c0.251-0.188,0.512-0.31,0.784-0.362
		c0.152-0.033,0.337-0.043,0.556-0.029c0.43,0.026,0.724,0.179,0.883,0.456c0.132,0.245,0.142,0.642,0.03,1.19l-0.446,2.063
		c-0.093,0.49-0.159,0.801-0.199,0.933c0,0.073-0.053,0.109-0.159,0.109c-0.02,0-0.033,0-0.04,0h-0.496
		c0.357-1.693,0.565-2.669,0.625-2.927c0.006-0.02,0.018-0.069,0.035-0.148c0.017-0.08,0.028-0.136,0.035-0.169
		c0.007-0.033,0.013-0.084,0.02-0.154c0.006-0.069,0.008-0.125,0.005-0.168s-0.01-0.093-0.02-0.149
		c-0.01-0.056-0.028-0.107-0.055-0.153c-0.099-0.186-0.288-0.298-0.565-0.338c-0.437-0.072-0.814,0.027-1.131,0.298
		c-0.251,0.219-0.446,0.526-0.585,0.923c-0.014,0.047-0.063,0.27-0.149,0.67s-0.179,0.825-0.278,1.274
		c-0.099,0.45-0.152,0.698-0.159,0.744c-0.014,0.079-0.027,0.146-0.04,0.198c0,0.027-0.003,0.047-0.01,0.06
		c-0.007,0.014-0.02,0.023-0.04,0.03c-0.02,0.007-0.037,0.01-0.05,0.01s-0.035,0-0.064,0s-0.048,0-0.055,0h-0.476l0.992-4.683h0.645
		l-0.199,0.962H76.744z"/>
</g>
<g>
	<path d="M83.655,55.783c0.047-0.113,0.179-0.288,0.397-0.524c0.454-0.52,0.992-0.836,1.616-0.949
		c0.208-0.038,0.435-0.043,0.68-0.015c0.595,0.057,0.997,0.26,1.205,0.609s0.227,0.917,0.057,1.701l-0.638,2.99
		c-0.132,0.699-0.227,1.144-0.283,1.332c0,0.104-0.071,0.156-0.213,0.156c-0.028,0-0.047,0-0.057,0h-0.666l0.893-4.195
		c0.009-0.047,0.028-0.135,0.057-0.262c0.028-0.128,0.047-0.225,0.057-0.291c0.009-0.066,0.019-0.153,0.028-0.262
		c0.009-0.109,0.004-0.206-0.014-0.291c-0.019-0.085-0.047-0.17-0.085-0.255c-0.208-0.406-0.676-0.586-1.403-0.539
		c-0.435,0.057-0.806,0.26-1.113,0.609s-0.541,0.757-0.701,1.219c-0.038,0.123-0.111,0.438-0.22,0.943
		c-0.109,0.505-0.225,1.062-0.347,1.672c-0.123,0.609-0.208,1.014-0.255,1.212c-0.009,0.028-0.021,0.076-0.036,0.142
		c-0.014,0.066-0.026,0.118-0.035,0.156c0,0.038-0.005,0.066-0.014,0.085c-0.01,0.019-0.028,0.033-0.057,0.042
		c-0.028,0.01-0.05,0.015-0.064,0.015s-0.042,0-0.085,0s-0.069,0-0.078,0h-0.638l1.417-6.689h0.864l-0.283,1.389H83.655z"/>
</g>
<g>
	<path d="M87.777,60.512c0.026-0.166,0.086-0.348,0.178-0.546c0.265-0.596,0.678-1.035,1.24-1.319
		c0.265-0.14,0.559-0.205,0.883-0.198c0.324,0.006,0.608,0.099,0.853,0.277c0.43,0.311,0.737,0.827,0.923,1.548
		c0.013,0.046,0.031,0.115,0.054,0.208c0.023,0.093,0.035,0.146,0.035,0.159c0.013,0.125,0.03,0.218,0.049,0.277
		c0.225-0.681,0.5-1.415,0.824-2.202l0.089-0.169c0.086-0.013,0.308-0.02,0.665-0.02c-0.053,0.172-0.199,0.506-0.437,1.002
		L92.4,61.226c-0.026,0.06-0.063,0.146-0.109,0.258c-0.046,0.113-0.088,0.215-0.124,0.308c-0.037,0.093-0.068,0.183-0.094,0.269
		c-0.02,0.059-0.03,0.155-0.03,0.287c0,0.351-0.05,0.764-0.149,1.24c-0.113,0.582-0.202,0.952-0.268,1.111
		c-0.099,0.212-0.222,0.317-0.367,0.317c-0.139-0.007-0.215-0.116-0.229-0.327c0-0.146,0.058-0.477,0.174-0.992
		s0.216-0.916,0.303-1.2c0-0.021,0.006-0.047,0.02-0.08s0.02-0.06,0.02-0.079c0-0.403-0.123-1.002-0.367-1.796
		c-0.073-0.231-0.141-0.425-0.204-0.58c-0.062-0.155-0.16-0.316-0.292-0.481s-0.284-0.277-0.457-0.337
		c-0.37-0.119-0.728-0.043-1.071,0.228c-0.357,0.265-0.592,0.646-0.705,1.142H87.777z"/>
</g>
<g>
	<path d="M99.408,34.559l-0.312-0.439c-0.066-0.085-0.099-0.151-0.099-0.199c0-0.057,0.089-0.198,0.269-0.425
		c0.302-0.387,0.68-0.689,1.134-0.907c0.851-0.406,1.698-0.468,2.544-0.185c0.845,0.284,1.363,0.785,1.552,1.502
		c0.151,0.614,0.009,1.229-0.425,1.843c-0.227,0.302-0.505,0.558-0.836,0.765c-0.057,0.038-0.135,0.083-0.234,0.135
		c-0.1,0.052-0.168,0.087-0.206,0.106c0.255,0.038,0.539,0.151,0.85,0.34c0.614,0.35,1.011,0.822,1.191,1.417
		c0.16,0.501,0.158,0.992-0.007,1.474c-0.166,0.482-0.423,0.883-0.772,1.205c-0.17,0.161-0.383,0.312-0.638,0.454
		c-0.775,0.406-1.644,0.477-2.608,0.212c-0.708-0.208-1.342-0.628-1.899-1.261c-0.076-0.094-0.116-0.158-0.12-0.191
		c-0.005-0.033,0.002-0.106,0.021-0.22c0.057-0.312,0.09-0.477,0.099-0.496c0.359,0.482,0.723,0.827,1.091,1.035
		c0.34,0.208,0.704,0.361,1.092,0.46c0.387,0.1,0.787,0.116,1.197,0.05c0.411-0.066,0.763-0.231,1.056-0.496
		c0.331-0.302,0.529-0.708,0.595-1.219c0.066-0.51-0.005-0.959-0.212-1.347c-0.227-0.444-0.586-0.756-1.078-0.936
		c-0.236-0.085-0.595-0.127-1.077-0.127h-0.949v-0.708c0.812-0.047,1.36-0.123,1.644-0.227c0.359-0.132,0.659-0.352,0.9-0.659
		s0.38-0.65,0.418-1.028c0.047-0.416-0.066-0.774-0.34-1.077c-0.284-0.283-0.664-0.441-1.141-0.475s-0.891,0.04-1.24,0.22
		c-0.435,0.18-0.812,0.473-1.134,0.878c-0.047,0.066-0.106,0.159-0.177,0.276C99.486,34.429,99.437,34.512,99.408,34.559z"/>
</g>
<g>
	<path d="M109.061,31.937h0.992c-0.198,0.974-0.505,2.424-0.921,4.352h5.102c0.028,0,0.052-0.002,0.071-0.007
		c0.019-0.004,0.038-0.014,0.057-0.028c0.019-0.014,0.033-0.026,0.042-0.035c0.009-0.01,0.016-0.029,0.021-0.057
		s0.009-0.047,0.014-0.057c0.005-0.009,0.009-0.03,0.014-0.063s0.007-0.054,0.007-0.064l0.17-0.793
		c0.066-0.321,0.177-0.844,0.333-1.566s0.271-1.283,0.347-1.68h0.992c-0.009,0.057-0.34,1.625-0.992,4.706
		c-0.652,3.081-0.992,4.687-1.021,4.819c-0.019,0.142-0.042,0.232-0.071,0.27c-0.019,0.028-0.104,0.042-0.255,0.042h-0.737
		l1.006-4.734h-5.13l-0.114,0.028c-0.227,0.973-0.548,2.452-0.963,4.436l-0.071,0.241c-0.132,0.019-0.458,0.028-0.978,0.028
		L109.061,31.937z"/>
</g>
<g>
	<path d="M117.578,32.086c-0.04-0.033-0.091-0.089-0.154-0.168c-0.063-0.08-0.101-0.126-0.114-0.139
		c-0.073-0.086-0.109-0.139-0.109-0.159c-0.013-0.033,0-0.096,0.04-0.188c0.125-0.351,0.311-0.648,0.556-0.893
		c0.397-0.37,0.898-0.555,1.503-0.555c0.605,0,1.116,0.175,1.533,0.525c0.337,0.278,0.555,0.64,0.655,1.086
		c0.099,0.447,0.049,0.868-0.149,1.265c-0.073,0.132-0.152,0.258-0.238,0.377s-0.202,0.245-0.347,0.377s-0.251,0.227-0.317,0.283
		c-0.066,0.056-0.202,0.164-0.407,0.323c-0.205,0.159-0.321,0.248-0.347,0.268c-0.225,0.179-0.536,0.445-0.933,0.799
		c-0.397,0.354-0.688,0.607-0.873,0.759h3.661v0.585h-4.266v-0.367c0-0.092,0.005-0.15,0.015-0.173
		c0.01-0.023,0.038-0.058,0.084-0.104c0.146-0.125,0.409-0.362,0.789-0.709c0.38-0.348,0.656-0.59,0.828-0.729
		c0.04-0.033,0.137-0.111,0.293-0.233c0.155-0.123,0.27-0.215,0.342-0.278s0.178-0.157,0.317-0.283
		c0.139-0.126,0.248-0.238,0.327-0.337c0.08-0.099,0.166-0.213,0.258-0.342c0.092-0.129,0.164-0.261,0.213-0.397
		c0.049-0.135,0.084-0.273,0.104-0.412c0.046-0.377-0.023-0.711-0.208-1.002c-0.284-0.423-0.731-0.658-1.339-0.705
		c-0.291-0.02-0.542,0.013-0.754,0.099C118.104,30.843,117.783,31.319,117.578,32.086z"/>
</g>
<g>
	<path d="M118.711,38.78c0.271-0.026,0.544,0.012,0.819,0.114c0.274,0.103,0.504,0.25,0.689,0.441
		c0.516,0.536,0.774,1.432,0.774,2.688c0,0.893-0.08,1.581-0.238,2.064c-0.304,0.886-0.863,1.375-1.677,1.468
		c-0.675,0.066-1.23-0.139-1.667-0.615c-0.47-0.522-0.705-1.432-0.705-2.728c0-0.879,0.092-1.564,0.278-2.054
		c0.125-0.311,0.276-0.565,0.451-0.764c0.175-0.199,0.402-0.357,0.68-0.477C118.248,38.866,118.446,38.819,118.711,38.78z
		 M119.872,39.772c-0.179-0.218-0.409-0.362-0.69-0.432s-0.561-0.051-0.838,0.055c-0.364,0.172-0.612,0.433-0.744,0.784
		c-0.126,0.311-0.195,0.724-0.208,1.24c0,0.04-0.002,0.098-0.005,0.173c-0.003,0.076-0.005,0.134-0.005,0.174v0.486
		c0,0.774,0.062,1.356,0.188,1.746c0.085,0.252,0.178,0.44,0.278,0.565c0.277,0.351,0.641,0.51,1.091,0.477
		c0.827-0.066,1.28-0.761,1.359-2.083c0.013-0.185,0.02-0.321,0.02-0.407v-0.526c0-0.86-0.069-1.465-0.208-1.815
		C120.037,40.023,119.958,39.878,119.872,39.772z"/>
</g>
<g>
	<rect x="96.77" y="47.531" width="27.186" height="0.574"/>
</g>
<g>
	<path d="M99.534,56.066c-0.028-0.009-0.108-0.035-0.241-0.078c-0.132-0.042-0.232-0.082-0.298-0.12
		c-0.614-0.265-1.044-0.689-1.29-1.275c-0.161-0.426-0.161-0.855,0-1.29c0.161-0.435,0.425-0.798,0.793-1.091
		c0.567-0.463,1.276-0.686,2.126-0.666c0.652,0.019,1.25,0.227,1.793,0.623s0.857,0.907,0.942,1.531
		c0.038,0.425-0.028,0.798-0.198,1.119c-0.246,0.454-0.633,0.799-1.162,1.035c-0.076,0.037-0.182,0.08-0.319,0.127
		c-0.137,0.048-0.22,0.076-0.248,0.085c0.548,0.161,0.978,0.383,1.29,0.666c0.359,0.312,0.609,0.681,0.751,1.105
		c0.142,0.436,0.142,0.892,0,1.368c-0.142,0.478-0.378,0.881-0.709,1.212c-0.633,0.623-1.436,0.926-2.409,0.907
		c-0.662-0.02-1.271-0.234-1.829-0.646s-0.912-0.933-1.063-1.565c-0.047-0.208-0.071-0.401-0.071-0.581
		c0-0.501,0.161-0.969,0.482-1.403C98.225,56.657,98.778,56.303,99.534,56.066z M100.257,56.421
		c-0.615,0.048-1.096,0.265-1.446,0.652c-0.34,0.406-0.503,0.896-0.489,1.467s0.172,1.037,0.475,1.396
		c0.444,0.501,1.067,0.719,1.871,0.652c0.473-0.038,0.872-0.168,1.198-0.39s0.546-0.531,0.659-0.929
		c0.132-0.35,0.163-0.741,0.092-1.176c-0.071-0.435-0.239-0.789-0.503-1.063C101.669,56.577,101.05,56.374,100.257,56.421z
		 M100.257,52.254c-0.586,0.048-1.03,0.213-1.333,0.496s-0.465,0.664-0.489,1.141c-0.024,0.478,0.101,0.872,0.375,1.184
		c0.435,0.492,1.101,0.699,1.999,0.624c0.567-0.047,1.016-0.255,1.346-0.624c0.255-0.302,0.378-0.678,0.369-1.126
		c-0.01-0.449-0.142-0.82-0.397-1.113C101.721,52.392,101.098,52.197,100.257,52.254z"/>
</g>
<g>
	<path d="M104.608,56.534c0.038-0.113,0.198-0.387,0.482-0.822c0.444-0.623,0.93-1.024,1.459-1.204
		c0.104-0.038,0.225-0.066,0.362-0.085c0.137-0.02,0.246-0.031,0.326-0.036c0.08-0.004,0.21-0.004,0.39,0
		c0.18,0.005,0.293,0.008,0.34,0.008h4.323c0.312,0,0.496,0.066,0.553,0.198c0.019,0.057,0.028,0.095,0.028,0.113
		c0.009,0.113-0.023,0.222-0.099,0.326c-0.076,0.104-0.17,0.17-0.283,0.198c-0.066,0.019-0.218,0.028-0.454,0.028h-1.162
		c-0.076,0-0.128,0.02-0.156,0.057c-0.009,0.02-0.028,0.108-0.057,0.27c-0.028,0.16-0.057,0.331-0.085,0.51
		c-0.028,0.18-0.047,0.284-0.057,0.312c-0.246,1.663-0.194,2.938,0.156,3.826c0.009,0.02,0.028,0.064,0.057,0.135
		c0.028,0.071,0.045,0.12,0.05,0.148c0.004,0.028,0.012,0.071,0.021,0.128s0.007,0.106-0.007,0.148
		c-0.014,0.043-0.036,0.088-0.064,0.135c-0.094,0.133-0.22,0.22-0.375,0.263c-0.156,0.042-0.291-0.003-0.404-0.135
		c-0.123-0.16-0.255-0.571-0.397-1.233c-0.198-1.096-0.142-2.461,0.17-4.096c0.038-0.208,0.071-0.363,0.1-0.468h-1.163
		c-0.293,1.795-0.803,3.6-1.53,5.414c-0.066,0.17-0.142,0.298-0.227,0.383c-0.095,0.085-0.201,0.132-0.319,0.142
		s-0.225-0.023-0.319-0.099c-0.104-0.104-0.123-0.256-0.057-0.454l0.397-1.021c0.312-0.879,0.694-2.334,1.148-4.365h-0.524
		c-0.35,0-0.605,0.048-0.766,0.142c-0.302,0.161-0.59,0.482-0.864,0.964c-0.057,0.085-0.095,0.133-0.114,0.142
		c-0.028,0.02-0.113,0.028-0.255,0.028H104.608z"/>
	<path d="M122.253,56.421l-0.794,3.742c-0.009,0.019-0.017,0.054-0.021,0.105c-0.005,0.053-0.012,0.098-0.021,0.135
		c-0.009,0.038-0.023,0.066-0.042,0.085c-0.113,0.114-0.657,0.293-1.63,0.539c-1.672,0.368-2.996,0.16-3.968-0.624
		c-0.501-0.425-0.851-0.916-1.049-1.474c-0.397-0.992-0.411-2.079-0.043-3.26c0.321-1.049,0.881-1.978,1.68-2.785
		s1.722-1.344,2.771-1.608c0.945-0.236,1.899-0.208,2.863,0.085c0.321,0.095,0.69,0.25,1.105,0.468l-0.382,0.992
		c-0.52-0.369-0.803-0.562-0.851-0.581c-0.312-0.151-0.685-0.256-1.12-0.312s-0.87-0.047-1.304,0.028
		c-0.954,0.189-1.783,0.686-2.487,1.488c-0.704,0.804-1.174,1.706-1.41,2.707c-0.236,1.077-0.142,2.013,0.284,2.807
		c0.227,0.425,0.505,0.751,0.836,0.978c0.822,0.605,2.018,0.681,3.586,0.228c0.189-0.057,0.298-0.108,0.326-0.156
		c0-0.01,0.151-0.718,0.453-2.126c0.057-0.321,0.109-0.558,0.156-0.709h-2.225c0.057-0.34,0.113-0.581,0.17-0.723l0.227-0.028
		H122.253z"/>
</g>
</svg>
