<?xml version="1.0" encoding="iso-8859-1"?>
<!-- Generator: Adobe Illustrator 16.0.0, SVG Export Plug-In . SVG Version: 6.00 Build 0)  -->
<!DOCTYPE svg PUBLIC "-//W3C//DTD SVG 1.1//EN" "http://www.w3.org/Graphics/SVG/1.1/DTD/svg11.dtd">
<svg version="1.1" id="Layer_1" xmlns="http://www.w3.org/2000/svg" xmlns:xlink="http://www.w3.org/1999/xlink" x="0px" y="0px"
	 width="566.929px" height="85.039px" viewBox="0 0 566.929 85.039" style="enable-background:new 0 0 566.929 85.039;"
	 xml:space="preserve">
<g>
	<path d="M29.304,34.001c0.047-0.113,0.179-0.288,0.397-0.524c0.454-0.52,0.992-0.836,1.616-0.95
		c0.208-0.038,0.435-0.042,0.68-0.014c0.595,0.057,0.997,0.26,1.205,0.609c0.208,0.35,0.227,0.917,0.057,1.701l-0.638,2.99
		c-0.132,0.699-0.227,1.144-0.283,1.333c0,0.104-0.071,0.156-0.213,0.156c-0.028,0-0.047,0-0.057,0h-0.666l0.893-4.195
		c0.009-0.047,0.028-0.135,0.057-0.262s0.047-0.224,0.057-0.291c0.009-0.066,0.019-0.153,0.028-0.262
		c0.009-0.108,0.004-0.206-0.014-0.291c-0.019-0.085-0.047-0.17-0.085-0.255c-0.208-0.406-0.676-0.586-1.403-0.539
		c-0.435,0.057-0.806,0.26-1.113,0.609s-0.541,0.756-0.701,1.219c-0.038,0.123-0.111,0.437-0.22,0.942
		c-0.109,0.506-0.225,1.063-0.347,1.672c-0.123,0.61-0.208,1.014-0.255,1.212c-0.009,0.028-0.021,0.076-0.036,0.142
		c-0.014,0.066-0.026,0.119-0.035,0.156c0,0.038-0.005,0.066-0.014,0.085c-0.01,0.019-0.028,0.033-0.057,0.042
		s-0.05,0.014-0.064,0.014s-0.042,0-0.085,0s-0.069,0-0.078,0h-0.638l1.417-6.69h0.864l-0.283,1.389H29.304z"/>
</g>
<g>
	<path d="M35.728,37.708c0.145-0.238,0.344-0.452,0.595-0.64c0.251-0.188,0.512-0.309,0.784-0.362
		c0.152-0.033,0.337-0.043,0.556-0.03c0.43,0.027,0.724,0.179,0.883,0.457c0.132,0.245,0.142,0.642,0.03,1.19l-0.446,2.064
		c-0.093,0.489-0.159,0.8-0.199,0.932c0,0.073-0.053,0.109-0.159,0.109c-0.02,0-0.033,0-0.04,0h-0.496
		c0.357-1.693,0.565-2.669,0.625-2.927c0.006-0.02,0.018-0.069,0.035-0.149c0.017-0.079,0.028-0.135,0.035-0.168
		c0.007-0.033,0.013-0.084,0.02-0.154c0.006-0.069,0.008-0.125,0.005-0.169c-0.003-0.042-0.01-0.092-0.02-0.148
		c-0.01-0.056-0.028-0.107-0.055-0.154c-0.099-0.185-0.288-0.298-0.565-0.337c-0.437-0.073-0.814,0.026-1.131,0.297
		c-0.251,0.218-0.446,0.526-0.585,0.923c-0.014,0.046-0.063,0.27-0.149,0.67c-0.086,0.4-0.179,0.825-0.278,1.275
		s-0.152,0.698-0.159,0.744c-0.014,0.08-0.027,0.146-0.04,0.199c0,0.026-0.003,0.046-0.01,0.06c-0.007,0.013-0.02,0.023-0.04,0.03
		c-0.02,0.006-0.037,0.01-0.05,0.01s-0.035,0-0.064,0s-0.048,0-0.055,0h-0.476l0.992-4.683h0.645l-0.199,0.962H35.728z"/>
</g>
<g>
	<rect x="26.102" y="45.06" width="13.418" height="0.574"/>
</g>
<g>
	<path d="M29.263,53.312c0.047-0.113,0.179-0.288,0.397-0.524c0.454-0.52,0.992-0.836,1.616-0.949
		c0.208-0.038,0.435-0.043,0.68-0.015c0.595,0.057,0.997,0.26,1.205,0.609s0.227,0.917,0.057,1.701l-0.638,2.99
		c-0.132,0.699-0.227,1.144-0.283,1.332c0,0.104-0.071,0.156-0.213,0.156c-0.028,0-0.047,0-0.057,0H31.36l0.893-4.195
		c0.009-0.047,0.028-0.135,0.057-0.262c0.028-0.128,0.047-0.225,0.057-0.291c0.009-0.066,0.019-0.153,0.028-0.262
		c0.009-0.109,0.004-0.206-0.014-0.291c-0.019-0.085-0.047-0.17-0.085-0.255c-0.208-0.406-0.676-0.586-1.403-0.539
		c-0.435,0.057-0.806,0.26-1.113,0.609s-0.541,0.757-0.701,1.219c-0.038,0.123-0.111,0.438-0.22,0.943
		c-0.109,0.505-0.225,1.062-0.347,1.672c-0.123,0.609-0.208,1.014-0.255,1.212c-0.009,0.028-0.021,0.076-0.036,0.142
		c-0.014,0.066-0.026,0.118-0.035,0.156c0,0.038-0.005,0.066-0.014,0.085c-0.01,0.019-0.028,0.033-0.057,0.042
		c-0.028,0.01-0.05,0.015-0.064,0.015s-0.042,0-0.085,0s-0.069,0-0.078,0H27.25l1.417-6.689h0.864l-0.283,1.389H29.263z"/>
</g>
<g>
	<path d="M35.747,56.741c0.238-0.238,0.552-0.443,0.942-0.615c0.39-0.172,0.767-0.208,1.131-0.109
		c0.311,0.086,0.549,0.283,0.714,0.591s0.251,0.64,0.258,0.997c0.007,0.575-0.122,1.126-0.387,1.651
		c-0.265,0.526-0.635,0.938-1.111,1.235c-0.192,0.119-0.392,0.208-0.6,0.268s-0.428,0.075-0.66,0.045
		c-0.232-0.029-0.434-0.114-0.605-0.253c-0.132-0.105-0.258-0.268-0.377-0.486l-0.486,2.332h-0.675l1.339-6.34h0.655L35.747,56.741z
		 M37.423,56.642c-0.291-0.112-0.561-0.141-0.809-0.084c-0.248,0.056-0.478,0.174-0.689,0.353c-0.119,0.092-0.202,0.178-0.248,0.258
		c-0.04,0.112-0.188,0.807-0.446,2.083c0,0.014-0.012,0.063-0.035,0.148c-0.023,0.087-0.035,0.149-0.035,0.189
		c0.006,0.053,0.03,0.125,0.069,0.218c0.112,0.238,0.283,0.387,0.511,0.446c0.229,0.06,0.457,0.055,0.685-0.015
		c0.229-0.069,0.442-0.177,0.64-0.322c0.595-0.443,0.936-1.042,1.022-1.796c0.026-0.305-0.015-0.596-0.124-0.873
		C37.854,56.969,37.674,56.768,37.423,56.642z"/>
</g>
<g>
	<path d="M45.488,46.578c0.057-0.094,0.198-0.142,0.425-0.142h8.093h0.595c0.123,0.02,0.208,0.083,0.255,0.191
		s0.023,0.205-0.071,0.29c-0.057,0.058-0.156,0.086-0.297,0.086h-8.575c-0.142,0-0.227-0.005-0.255-0.015
		c-0.085-0.019-0.146-0.073-0.184-0.163C45.436,46.736,45.441,46.654,45.488,46.578z M45.658,43.701
		c0.019-0.01,0.099-0.015,0.241-0.015h8.122l0.297-0.014c0.199,0,0.298,0.005,0.298,0.014c0.113,0.02,0.191,0.085,0.234,0.199
		c0.042,0.113,0.021,0.208-0.064,0.283c-0.057,0.057-0.161,0.085-0.312,0.085h-8.519c-0.151,0-0.241-0.005-0.269-0.015
		c-0.151-0.028-0.229-0.115-0.234-0.262S45.517,43.739,45.658,43.701z"/>
</g>
<g>
	<path d="M65.977,47.528c-0.038,0.463-0.071,0.718-0.099,0.765c-0.028,0.038-0.146,0.123-0.354,0.255
		c-0.359,0.208-0.728,0.374-1.105,0.496c-0.378,0.123-0.806,0.173-1.283,0.149s-0.896-0.168-1.254-0.433
		c-0.737-0.548-1.077-1.355-1.021-2.424c0.038-0.68,0.229-1.329,0.574-1.948c0.345-0.619,0.768-1.112,1.269-1.481
		c0.416-0.312,0.859-0.517,1.332-0.616s0.955-0.068,1.446,0.092c0.17,0.066,0.326,0.151,0.468,0.255
		c0.5,0.388,0.732,1.058,0.694,2.012c0,0.501-0.047,0.789-0.142,0.865c-0.019,0.019-0.081,0.028-0.184,0.028h-4.493l-0.085,0.411
		c-0.066,0.595,0.005,1.119,0.212,1.573c0.18,0.35,0.416,0.604,0.709,0.765c0.255,0.161,0.56,0.229,0.914,0.206
		s0.678-0.083,0.971-0.178c0.293-0.094,0.562-0.217,0.808-0.368c0.085-0.047,0.203-0.125,0.354-0.234
		C65.858,47.61,65.948,47.547,65.977,47.528z M65.877,44.991c0.075-0.596,0.004-1.072-0.213-1.432
		c-0.179-0.303-0.458-0.496-0.836-0.582c-0.378-0.085-0.723-0.057-1.035,0.085c-0.397,0.151-0.749,0.401-1.056,0.751
		s-0.55,0.742-0.729,1.177H65.877z"/>
</g>
<g>
	<path d="M70.699,45.448h-0.347c-0.099,0-0.159-0.004-0.179-0.011c-0.093-0.046-0.241-0.172-0.446-0.377
		c-0.371-0.37-0.675-0.783-0.913-1.24c-0.542-0.998-0.788-2.179-0.734-3.542c0.04-0.926,0.227-1.764,0.561-2.515
		c0.334-0.75,0.789-1.361,1.364-1.831c0.066-0.066,0.116-0.105,0.149-0.119c0.033-0.013,0.099-0.02,0.198-0.02h0.347
		c-0.046,0.053-0.121,0.126-0.223,0.218c-0.103,0.093-0.177,0.162-0.223,0.208c-0.285,0.304-0.536,0.658-0.754,1.062
		c-0.549,1.065-0.797,2.295-0.744,3.69c0.046,1.151,0.297,2.153,0.754,3.006c0.211,0.377,0.459,0.725,0.744,1.042
		c0.046,0.053,0.121,0.125,0.223,0.218S70.652,45.401,70.699,45.448z"/>
</g>
<g>
	<path d="M73.568,39.515c0.079-0.146,0.191-0.285,0.337-0.417c0.344-0.344,0.725-0.545,1.141-0.605
		c0.099-0.02,0.251-0.023,0.457-0.01c0.397,0.027,0.678,0.152,0.843,0.377c0.112,0.166,0.168,0.394,0.168,0.685
		c0.146-0.251,0.357-0.478,0.635-0.679s0.565-0.326,0.863-0.372c0.1-0.02,0.251-0.023,0.457-0.01c0.45,0.04,0.748,0.192,0.893,0.457
		c0.132,0.245,0.142,0.642,0.03,1.19l-0.447,2.064c-0.093,0.489-0.159,0.8-0.198,0.932c0,0.073-0.053,0.109-0.159,0.109
		c-0.02,0-0.033,0-0.04,0h-0.496c0.357-1.693,0.565-2.669,0.625-2.927c0.006-0.026,0.018-0.076,0.035-0.149s0.028-0.127,0.035-0.164
		c0.006-0.036,0.013-0.087,0.02-0.154c0.006-0.066,0.008-0.121,0.005-0.164c-0.003-0.043-0.01-0.093-0.02-0.149
		s-0.028-0.107-0.055-0.154c-0.099-0.192-0.288-0.308-0.565-0.347c-0.238-0.04-0.433-0.043-0.585-0.01
		c-0.265,0.066-0.498,0.215-0.699,0.446s-0.349,0.493-0.441,0.784c-0.014,0.046-0.063,0.27-0.149,0.67
		c-0.086,0.4-0.179,0.825-0.278,1.275s-0.152,0.698-0.159,0.744c-0.013,0.08-0.026,0.146-0.04,0.199c0,0.025-0.003,0.046-0.01,0.059
		c-0.006,0.014-0.02,0.023-0.04,0.03s-0.037,0.01-0.049,0.01c-0.014,0-0.035,0-0.065,0s-0.048,0-0.054,0h-0.477
		c0.357-1.693,0.566-2.669,0.625-2.927c0.007-0.026,0.019-0.076,0.035-0.149c0.016-0.073,0.028-0.127,0.035-0.164
		c0.006-0.036,0.013-0.087,0.02-0.154c0.007-0.066,0.008-0.121,0.005-0.164c-0.003-0.043-0.01-0.093-0.02-0.149
		s-0.028-0.107-0.055-0.154c-0.099-0.192-0.288-0.308-0.565-0.347c-0.238-0.04-0.433-0.043-0.585-0.01
		c-0.265,0.066-0.498,0.215-0.699,0.446c-0.202,0.231-0.349,0.493-0.441,0.784c-0.014,0.046-0.063,0.27-0.149,0.67
		c-0.086,0.4-0.179,0.825-0.278,1.275s-0.152,0.698-0.159,0.744c-0.014,0.08-0.027,0.146-0.04,0.199c0,0.025-0.003,0.046-0.01,0.059
		c-0.007,0.014-0.02,0.023-0.04,0.03c-0.02,0.007-0.037,0.01-0.05,0.01s-0.035,0-0.064,0s-0.048,0-0.055,0H72.12l0.992-4.683h0.645
		l-0.199,0.962H73.568z"/>
</g>
<g>
	<path d="M81.201,41.673c0.057-0.104,0.153-0.215,0.291-0.333c0.246-0.213,0.501-0.343,0.766-0.39
		c0.52-0.062,0.859,0.042,1.021,0.312c0.104,0.185,0.116,0.47,0.035,0.857l-0.319,1.474c-0.066,0.35-0.113,0.571-0.142,0.666
		c0,0.02-0.002,0.034-0.007,0.046s-0.014,0.021-0.028,0.025s-0.025,0.007-0.032,0.007c-0.007,0-0.022,0-0.046,0
		c-0.024,0-0.038,0-0.043,0h-0.375l0.439-2.076c0.005-0.019,0.014-0.061,0.028-0.124c0.014-0.064,0.023-0.112,0.028-0.146
		c0.005-0.033,0.009-0.076,0.014-0.127c0.005-0.052,0.002-0.099-0.007-0.142c-0.01-0.043-0.024-0.083-0.042-0.121
		c-0.114-0.203-0.369-0.293-0.766-0.27c-0.175,0.019-0.335,0.095-0.482,0.227c-0.198,0.166-0.345,0.399-0.439,0.702
		c-0.009,0.028-0.102,0.458-0.276,1.29c-0.009,0.047-0.027,0.13-0.053,0.247c-0.026,0.118-0.049,0.223-0.067,0.312
		c-0.019,0.09-0.031,0.142-0.036,0.155c0,0.02-0.002,0.033-0.007,0.043c-0.005,0.01-0.014,0.017-0.028,0.021
		s-0.026,0.007-0.036,0.007c-0.01,0-0.026,0-0.05,0c-0.023,0-0.038,0-0.042,0h-0.368l0.708-3.345h0.496
		c-0.024,0.127-0.071,0.354-0.142,0.68H81.201z"/>
</g>
<g>
	<path d="M85.123,40.418c0.013-0.007,0.069-0.01,0.168-0.01H90.6h0.387c0.086,0.013,0.142,0.063,0.169,0.149
		c0.026,0.086,0.01,0.159-0.05,0.218c-0.046,0.04-0.182,0.06-0.407,0.06h-5.427c-0.093,0-0.149-0.003-0.169-0.01
		c-0.106-0.033-0.154-0.103-0.144-0.208C84.969,40.51,85.024,40.444,85.123,40.418z"/>
</g>
<g>
	<path d="M94.294,39.515c0.079-0.146,0.191-0.285,0.337-0.417c0.344-0.344,0.725-0.545,1.141-0.605
		c0.099-0.02,0.251-0.023,0.457-0.01c0.397,0.027,0.678,0.152,0.843,0.377c0.112,0.166,0.168,0.394,0.168,0.685
		c0.146-0.251,0.357-0.478,0.635-0.679s0.565-0.326,0.863-0.372c0.1-0.02,0.251-0.023,0.457-0.01c0.45,0.04,0.748,0.192,0.893,0.457
		c0.132,0.245,0.142,0.642,0.03,1.19l-0.447,2.064c-0.093,0.489-0.159,0.8-0.198,0.932c0,0.073-0.053,0.109-0.159,0.109
		c-0.02,0-0.033,0-0.04,0h-0.496c0.357-1.693,0.565-2.669,0.625-2.927c0.006-0.026,0.018-0.076,0.035-0.149s0.028-0.127,0.035-0.164
		c0.006-0.036,0.013-0.087,0.02-0.154c0.006-0.066,0.008-0.121,0.005-0.164c-0.003-0.043-0.01-0.093-0.02-0.149
		s-0.028-0.107-0.055-0.154c-0.099-0.192-0.288-0.308-0.565-0.347c-0.238-0.04-0.433-0.043-0.585-0.01
		c-0.265,0.066-0.498,0.215-0.699,0.446s-0.349,0.493-0.441,0.784c-0.014,0.046-0.063,0.27-0.149,0.67
		c-0.086,0.4-0.179,0.825-0.278,1.275s-0.152,0.698-0.159,0.744c-0.013,0.08-0.026,0.146-0.04,0.199c0,0.025-0.003,0.046-0.01,0.059
		c-0.006,0.014-0.02,0.023-0.04,0.03s-0.037,0.01-0.049,0.01c-0.014,0-0.035,0-0.065,0s-0.048,0-0.054,0h-0.477
		c0.357-1.693,0.566-2.669,0.625-2.927c0.007-0.026,0.019-0.076,0.035-0.149c0.016-0.073,0.028-0.127,0.035-0.164
		c0.006-0.036,0.013-0.087,0.02-0.154c0.007-0.066,0.008-0.121,0.005-0.164c-0.003-0.043-0.01-0.093-0.02-0.149
		s-0.028-0.107-0.055-0.154c-0.099-0.192-0.288-0.308-0.565-0.347c-0.238-0.04-0.433-0.043-0.585-0.01
		c-0.265,0.066-0.498,0.215-0.699,0.446c-0.202,0.231-0.349,0.493-0.441,0.784c-0.014,0.046-0.063,0.27-0.149,0.67
		c-0.086,0.4-0.179,0.825-0.278,1.275s-0.152,0.698-0.159,0.744c-0.014,0.08-0.027,0.146-0.04,0.199c0,0.025-0.003,0.046-0.01,0.059
		c-0.007,0.014-0.02,0.023-0.04,0.03c-0.02,0.007-0.037,0.01-0.05,0.01s-0.035,0-0.064,0s-0.048,0-0.055,0h-0.476l0.992-4.683h0.645
		l-0.199,0.962H94.294z"/>
</g>
<g>
	<path d="M101.977,41.475c0.165-0.161,0.391-0.301,0.677-0.422c0.286-0.121,0.561-0.152,0.826-0.096
		c0.174,0.038,0.321,0.129,0.439,0.273s0.201,0.3,0.248,0.468c0.047,0.167,0.068,0.341,0.064,0.521
		c-0.005,0.396-0.111,0.777-0.319,1.141c-0.208,0.363-0.484,0.64-0.829,0.829c-0.222,0.127-0.449,0.195-0.68,0.205
		c-0.232,0.01-0.454-0.062-0.667-0.213c-0.085-0.065-0.17-0.172-0.255-0.318l-0.347,1.658h-0.518l0.957-4.528h0.503L101.977,41.475z
		 M103.231,41.447c-0.374-0.189-0.749-0.132-1.127,0.17c-0.09,0.066-0.149,0.123-0.177,0.17c-0.033,0.081-0.139,0.577-0.319,1.489
		c-0.028,0.146-0.042,0.224-0.042,0.233c0,0.038,0.019,0.09,0.057,0.156c0.113,0.236,0.314,0.347,0.603,0.333
		c0.364-0.02,0.684-0.174,0.96-0.465c0.276-0.29,0.44-0.62,0.493-0.988c0.033-0.222,0.013-0.436-0.06-0.641
		C103.544,41.698,103.416,41.546,103.231,41.447z"/>
</g>
<g>
	<path d="M105.492,35.794h0.347c0.099,0,0.159,0.003,0.179,0.01c0.086,0.04,0.245,0.175,0.476,0.407
		c0.483,0.483,0.863,1.073,1.141,1.771c0.278,0.698,0.437,1.463,0.476,2.297c0.053,1.363-0.192,2.543-0.734,3.542
		c-0.318,0.615-0.718,1.115-1.201,1.498c-0.013,0.014-0.028,0.026-0.044,0.04c-0.017,0.014-0.028,0.021-0.035,0.024
		c-0.007,0.004-0.017,0.011-0.03,0.021c-0.014,0.01-0.022,0.017-0.025,0.02c-0.003,0.003-0.012,0.007-0.025,0.01
		c-0.013,0.004-0.023,0.005-0.03,0.005c-0.007,0-0.018,0.002-0.035,0.005c-0.017,0.004-0.033,0.006-0.05,0.006s-0.038,0-0.064,0
		h-0.347c0.046-0.047,0.121-0.116,0.223-0.209s0.177-0.165,0.223-0.218c0.285-0.305,0.536-0.658,0.754-1.062
		c0.549-1.065,0.797-2.295,0.744-3.691c-0.046-1.151-0.298-2.153-0.754-3.006c-0.211-0.377-0.459-0.724-0.744-1.042
		c-0.046-0.046-0.121-0.116-0.223-0.208C105.613,35.92,105.539,35.848,105.492,35.794z"/>
</g>
<g>
	<path d="M113.321,35.804c0.125-0.033,0.208,0.017,0.248,0.149c0.013,0.046,0.006,0.103-0.02,0.169
		c-0.006,0.02-0.278,0.728-0.813,2.123s-1.082,2.822-1.637,4.281c-0.556,1.458-0.863,2.264-0.923,2.416l-0.099,0.259
		c-0.053,0.145-0.126,0.225-0.218,0.237c-0.073,0-0.126-0.017-0.159-0.049c-0.08-0.06-0.08-0.199,0-0.417l0.615-1.598l2.719-7.113
		l0.089-0.218C113.176,35.904,113.242,35.824,113.321,35.804z"/>
	<path d="M114.78,36.936c0.073-0.311,0.116-0.49,0.129-0.536c0.093-0.026,0.349-0.035,0.769-0.024
		c0.42,0.01,0.686,0.011,0.799,0.005h5.03l-0.089,0.397c0,0.073-0.013,0.119-0.04,0.139c-0.02,0.013-0.073,0.02-0.159,0.02h-2.58
		c-0.119,0-0.185,0.006-0.198,0.02c-0.014,0.014-0.025,0.045-0.035,0.094c-0.01,0.05-0.02,0.104-0.03,0.164
		c-0.01,0.06-0.019,0.096-0.025,0.109l-1.23,5.784c-0.02,0.065-0.033,0.103-0.04,0.108c-0.007,0.014-0.066,0.021-0.179,0.021h-0.506
		l1.339-6.3H114.78z"/>
</g>
<g>
	<path d="M125.513,40.408V37.59c0-0.112,0.003-0.182,0.01-0.208c0.026-0.106,0.092-0.159,0.198-0.159
		c0.119,0,0.188,0.053,0.208,0.159c0.006,0.026,0.01,0.096,0.01,0.208v2.817h2.808c0.119,0,0.188,0.003,0.208,0.01
		c0.106,0.026,0.159,0.092,0.159,0.198c0,0.119-0.053,0.188-0.159,0.208c-0.02,0.006-0.089,0.01-0.208,0.01h-2.808v2.818
		c0,0.119-0.003,0.188-0.01,0.208c-0.02,0.105-0.089,0.159-0.208,0.159c-0.106,0-0.172-0.054-0.198-0.159
		c-0.007-0.02-0.01-0.089-0.01-0.208v-2.818h-2.817c-0.119,0-0.188-0.003-0.208-0.01c-0.106-0.02-0.159-0.089-0.159-0.208
		c0-0.106,0.053-0.172,0.159-0.198c0.02-0.007,0.089-0.01,0.208-0.01H125.513z"/>
	<path d="M133.242,45.448h-0.347c-0.099,0-0.159-0.004-0.179-0.011c-0.093-0.046-0.241-0.172-0.446-0.377
		c-0.371-0.37-0.675-0.783-0.913-1.24c-0.542-0.998-0.788-2.179-0.734-3.542c0.04-0.926,0.227-1.764,0.561-2.515
		c0.334-0.75,0.789-1.361,1.364-1.831c0.066-0.066,0.116-0.105,0.149-0.119c0.033-0.013,0.099-0.02,0.198-0.02h0.347
		c-0.046,0.053-0.121,0.126-0.223,0.218c-0.103,0.093-0.177,0.162-0.223,0.208c-0.285,0.304-0.536,0.658-0.754,1.062
		c-0.549,1.065-0.797,2.295-0.744,3.69c0.046,1.151,0.297,2.153,0.754,3.006c0.211,0.377,0.459,0.725,0.744,1.042
		c0.046,0.053,0.121,0.125,0.223,0.218S133.196,45.401,133.242,45.448z"/>
</g>
<g>
	<path d="M135.221,42.978c0,0.006-0.03,0.153-0.089,0.441s-0.123,0.58-0.188,0.878c-0.066,0.298-0.103,0.46-0.109,0.486
		c-0.04,0.105-0.119,0.182-0.238,0.229c-0.119,0.046-0.228,0.036-0.328-0.03c-0.086-0.066-0.105-0.205-0.06-0.417
		c0.033-0.152,0.147-0.685,0.342-1.597c0.195-0.913,0.382-1.787,0.561-2.624c0.179-0.836,0.274-1.285,0.288-1.344
		c0.033-0.159,0.06-0.258,0.079-0.298c0.08-0.178,0.222-0.251,0.427-0.218c0.146,0.02,0.218,0.103,0.218,0.248
		c0,0.02-0.031,0.181-0.094,0.481s-0.134,0.638-0.213,1.012c-0.079,0.374-0.132,0.624-0.159,0.749
		c-0.093,0.43-0.139,0.708-0.139,0.833c0,0.437,0.148,0.731,0.446,0.883c0.297,0.152,0.602,0.149,0.913-0.01
		c0.199-0.105,0.371-0.258,0.516-0.456c0.146-0.199,0.268-0.442,0.367-0.729c0.099-0.288,0.177-0.545,0.233-0.774
		c0.056-0.228,0.117-0.511,0.184-0.848c0.006-0.046,0.013-0.084,0.02-0.114c0.006-0.03,0.013-0.061,0.02-0.094
		c0.013-0.066,0.035-0.162,0.064-0.288c0.03-0.125,0.051-0.222,0.064-0.288c0.033-0.166,0.06-0.271,0.08-0.317
		c0.092-0.146,0.218-0.218,0.377-0.218c0.165,0.013,0.254,0.096,0.268,0.248c0,0.026-0.048,0.271-0.144,0.734
		c-0.096,0.463-0.198,0.949-0.308,1.458c-0.109,0.509-0.167,0.78-0.173,0.813c-0.033,0.146-0.057,0.255-0.07,0.328
		s-0.01,0.168,0.01,0.288c0.02,0.119,0.073,0.212,0.159,0.278c0.105,0.093,0.208,0.116,0.308,0.069
		c0.132-0.08,0.251-0.351,0.357-0.813c0.006-0.013,0.015-0.042,0.025-0.084s0.018-0.083,0.025-0.119
		c0.006-0.036,0.013-0.058,0.02-0.064c0.013-0.013,0.073-0.02,0.179-0.02h0.486c-0.007,0.053-0.043,0.202-0.109,0.446
		c-0.185,0.522-0.417,0.876-0.694,1.062c-0.258,0.165-0.541,0.188-0.848,0.069c-0.308-0.119-0.498-0.331-0.571-0.635
		c-0.218,0.231-0.437,0.403-0.655,0.516c-0.437,0.219-0.886,0.255-1.349,0.109c-0.146-0.046-0.255-0.096-0.328-0.149
		c-0.02-0.006-0.048-0.022-0.084-0.049C135.269,43.011,135.241,42.991,135.221,42.978z"/>
</g>
<g>
	<path d="M143.625,43.53c0,0.009-0.002,0.044-0.007,0.103c-0.004,0.06-0.013,0.124-0.024,0.195c-0.012,0.07-0.023,0.113-0.032,0.127
		c-0.014,0.02-0.078,0.062-0.191,0.128c-0.193,0.104-0.396,0.186-0.606,0.244c-0.21,0.06-0.443,0.078-0.698,0.057
		c-0.255-0.021-0.477-0.103-0.666-0.244c-0.161-0.113-0.295-0.286-0.404-0.518c-0.137-0.302-0.156-0.654-0.057-1.056
		c0.118-0.473,0.372-0.875,0.762-1.208c0.39-0.333,0.819-0.48,1.287-0.443c0.246,0.024,0.444,0.092,0.595,0.206
		c0.288,0.217,0.411,0.567,0.368,1.049c-0.009,0.132-0.021,0.227-0.035,0.283c0,0.052-0.008,0.084-0.025,0.096
		c-0.017,0.012-0.048,0.018-0.096,0.018h-2.374l-0.042,0.206c-0.033,0.269,0.005,0.515,0.113,0.737
		c0.057,0.104,0.118,0.187,0.185,0.248c0.118,0.113,0.263,0.186,0.436,0.216c0.172,0.031,0.337,0.032,0.493,0.004
		s0.314-0.075,0.475-0.142c0.071-0.028,0.135-0.057,0.191-0.085s0.119-0.066,0.188-0.113
		C143.527,43.589,143.583,43.554,143.625,43.53z M141.534,42.254h1.864c0.081,0,0.123-0.004,0.128-0.014
		c0.009-0.009,0.014-0.036,0.014-0.078c0-0.283-0.069-0.5-0.206-0.652c-0.085-0.08-0.194-0.139-0.326-0.177
		c-0.231-0.061-0.459-0.035-0.684,0.078c-0.225,0.113-0.417,0.274-0.578,0.482C141.652,42.011,141.582,42.132,141.534,42.254z"/>
</g>
<g>
	<path d="M145.757,40.418c0.013-0.007,0.069-0.01,0.168-0.01h5.308h0.387c0.086,0.013,0.142,0.063,0.169,0.149
		c0.026,0.086,0.01,0.159-0.05,0.218c-0.046,0.04-0.182,0.06-0.407,0.06h-5.427c-0.093,0-0.149-0.003-0.169-0.01
		c-0.106-0.033-0.154-0.103-0.144-0.208C145.603,40.51,145.658,40.444,145.757,40.418z"/>
</g>
<g>
	<path d="M154.034,42.978c0,0.006-0.03,0.153-0.089,0.441s-0.123,0.58-0.188,0.878c-0.066,0.298-0.103,0.46-0.109,0.486
		c-0.04,0.105-0.119,0.182-0.238,0.229c-0.119,0.046-0.228,0.036-0.328-0.03c-0.086-0.066-0.105-0.205-0.06-0.417
		c0.033-0.152,0.147-0.685,0.342-1.597c0.195-0.913,0.382-1.787,0.561-2.624c0.179-0.836,0.274-1.285,0.288-1.344
		c0.033-0.159,0.06-0.258,0.079-0.298c0.08-0.178,0.222-0.251,0.427-0.218c0.146,0.02,0.218,0.103,0.218,0.248
		c0,0.02-0.031,0.181-0.094,0.481s-0.134,0.638-0.213,1.012c-0.079,0.374-0.132,0.624-0.159,0.749
		c-0.093,0.43-0.139,0.708-0.139,0.833c0,0.437,0.148,0.731,0.446,0.883c0.297,0.152,0.602,0.149,0.913-0.01
		c0.199-0.105,0.371-0.258,0.516-0.456c0.146-0.199,0.268-0.442,0.367-0.729c0.099-0.288,0.177-0.545,0.233-0.774
		c0.056-0.228,0.117-0.511,0.184-0.848c0.006-0.046,0.013-0.084,0.02-0.114c0.006-0.03,0.013-0.061,0.02-0.094
		c0.013-0.066,0.035-0.162,0.064-0.288c0.03-0.125,0.051-0.222,0.064-0.288c0.033-0.166,0.06-0.271,0.08-0.317
		c0.092-0.146,0.218-0.218,0.377-0.218c0.165,0.013,0.254,0.096,0.268,0.248c0,0.026-0.048,0.271-0.144,0.734
		c-0.096,0.463-0.198,0.949-0.308,1.458c-0.109,0.509-0.167,0.78-0.173,0.813c-0.033,0.146-0.057,0.255-0.07,0.328
		s-0.01,0.168,0.01,0.288c0.02,0.119,0.073,0.212,0.159,0.278c0.105,0.093,0.208,0.116,0.308,0.069
		c0.132-0.08,0.251-0.351,0.357-0.813c0.006-0.013,0.015-0.042,0.025-0.084s0.018-0.083,0.025-0.119
		c0.006-0.036,0.013-0.058,0.02-0.064c0.013-0.013,0.073-0.02,0.179-0.02h0.486c-0.007,0.053-0.043,0.202-0.109,0.446
		c-0.185,0.522-0.417,0.876-0.694,1.062c-0.258,0.165-0.541,0.188-0.848,0.069c-0.308-0.119-0.498-0.331-0.571-0.635
		c-0.218,0.231-0.437,0.403-0.655,0.516c-0.437,0.219-0.886,0.255-1.349,0.109c-0.146-0.046-0.255-0.096-0.328-0.149
		c-0.02-0.006-0.048-0.022-0.084-0.049C154.082,43.011,154.054,42.991,154.034,42.978z"/>
</g>
<g>
	<path d="M160.085,43.87c0.142-0.038,0.317-0.108,0.524-0.213c0.411-0.207,0.786-0.503,1.124-0.885
		c0.337-0.383,0.58-0.806,0.726-1.269c0-0.005,0.016-0.065,0.046-0.181s0.051-0.186,0.06-0.209c0.062-0.118,0.158-0.177,0.291-0.177
		c0.062,0,0.106,0.014,0.135,0.042c0.071,0.052,0.083,0.172,0.035,0.361c-0.099,0.378-0.262,0.739-0.489,1.084
		c-0.487,0.747-1.146,1.297-1.977,1.652c-0.321,0.142-0.6,0.229-0.836,0.262l0.028-0.128l-0.283,0.128l0.708-3.345h0.518
		l-0.234,1.105l-0.241,1.141L160.085,43.87z"/>
</g>
<g>
	<path d="M166.236,44.436c0,0.009-0.002,0.044-0.007,0.103c-0.004,0.06-0.013,0.124-0.024,0.195
		c-0.012,0.07-0.023,0.113-0.032,0.127c-0.014,0.02-0.078,0.062-0.191,0.128c-0.193,0.104-0.396,0.186-0.606,0.244
		c-0.21,0.06-0.443,0.078-0.698,0.057c-0.255-0.021-0.477-0.103-0.666-0.244c-0.161-0.113-0.295-0.286-0.404-0.518
		c-0.137-0.302-0.156-0.654-0.057-1.056c0.118-0.473,0.372-0.875,0.762-1.208c0.39-0.333,0.819-0.48,1.287-0.443
		c0.246,0.024,0.444,0.092,0.595,0.206c0.288,0.217,0.411,0.567,0.368,1.048c-0.009,0.133-0.021,0.228-0.035,0.284
		c0,0.052-0.008,0.084-0.025,0.096s-0.048,0.018-0.096,0.018h-2.374l-0.042,0.205c-0.033,0.27,0.005,0.516,0.113,0.737
		c0.057,0.104,0.118,0.187,0.185,0.248c0.118,0.113,0.263,0.186,0.436,0.216c0.172,0.031,0.337,0.032,0.493,0.004
		s0.314-0.075,0.475-0.142c0.071-0.028,0.135-0.057,0.191-0.085s0.119-0.066,0.188-0.113
		C166.138,44.494,166.194,44.459,166.236,44.436z M164.146,43.16h1.864c0.081,0,0.123-0.005,0.128-0.015
		c0.009-0.009,0.014-0.036,0.014-0.078c0-0.283-0.069-0.5-0.206-0.652c-0.085-0.08-0.194-0.139-0.326-0.177
		c-0.231-0.061-0.459-0.035-0.684,0.078c-0.225,0.113-0.417,0.274-0.578,0.482C164.264,42.917,164.193,43.037,164.146,43.16z"/>
</g>
<g>
	<path d="M168.439,35.794h0.347c0.099,0,0.159,0.003,0.179,0.01c0.086,0.04,0.245,0.175,0.476,0.407
		c0.483,0.483,0.863,1.073,1.141,1.771c0.278,0.698,0.437,1.463,0.476,2.297c0.053,1.363-0.192,2.543-0.734,3.542
		c-0.318,0.615-0.718,1.115-1.201,1.498c-0.013,0.014-0.028,0.026-0.044,0.04c-0.017,0.014-0.028,0.021-0.035,0.024
		c-0.007,0.004-0.017,0.011-0.03,0.021c-0.014,0.01-0.022,0.017-0.025,0.02c-0.003,0.003-0.012,0.007-0.025,0.01
		c-0.013,0.004-0.023,0.005-0.03,0.005c-0.007,0-0.018,0.002-0.035,0.005c-0.017,0.004-0.033,0.006-0.05,0.006s-0.038,0-0.064,0
		h-0.347c0.046-0.047,0.121-0.116,0.223-0.209s0.177-0.165,0.223-0.218c0.285-0.305,0.536-0.658,0.754-1.062
		c0.549-1.065,0.797-2.295,0.744-3.691c-0.046-1.151-0.298-2.153-0.754-3.006c-0.211-0.377-0.459-0.724-0.744-1.042
		c-0.046-0.046-0.121-0.116-0.223-0.208C168.56,35.92,168.485,35.848,168.439,35.794z"/>
</g>
<g>
	<path d="M176.269,35.804c0.125-0.033,0.208,0.017,0.248,0.149c0.013,0.046,0.006,0.103-0.02,0.169
		c-0.006,0.02-0.278,0.728-0.813,2.123s-1.082,2.822-1.637,4.281c-0.556,1.458-0.863,2.264-0.923,2.416l-0.099,0.259
		c-0.053,0.145-0.126,0.225-0.218,0.237c-0.073,0-0.126-0.017-0.159-0.049c-0.08-0.06-0.08-0.199,0-0.417l0.615-1.598l2.719-7.113
		l0.089-0.218C176.124,35.904,176.189,35.824,176.269,35.804z"/>
	<path d="M177.728,36.936c0.073-0.311,0.116-0.49,0.129-0.536c0.093-0.026,0.349-0.035,0.769-0.024
		c0.42,0.01,0.686,0.011,0.799,0.005h5.03l-0.089,0.397c0,0.073-0.013,0.119-0.04,0.139c-0.02,0.013-0.073,0.02-0.159,0.02h-2.58
		c-0.119,0-0.185,0.006-0.198,0.02c-0.014,0.014-0.025,0.045-0.035,0.094c-0.01,0.05-0.02,0.104-0.03,0.164
		c-0.01,0.06-0.019,0.096-0.025,0.109l-1.23,5.784c-0.02,0.065-0.033,0.103-0.04,0.108c-0.007,0.014-0.066,0.021-0.179,0.021h-0.506
		l1.339-6.3H177.728z"/>
</g>
</svg>
