<?xml version="1.0" encoding="iso-8859-1"?>
<!-- Generator: Adobe Illustrator 16.0.0, SVG Export Plug-In . SVG Version: 6.00 Build 0)  -->
<!DOCTYPE svg PUBLIC "-//W3C//DTD SVG 1.1//EN" "http://www.w3.org/Graphics/SVG/1.1/DTD/svg11.dtd">
<svg version="1.1" id="Layer_1" xmlns="http://www.w3.org/2000/svg" xmlns:xlink="http://www.w3.org/1999/xlink" x="0px" y="0px"
	 width="566.929px" height="85.039px" viewBox="0 0 566.929 85.039" style="enable-background:new 0 0 566.929 85.039;"
	 xml:space="preserve">
<g>
	<path d="M30.789,46.727c0.321,0.52,0.482,1.101,0.482,1.743c0,0.633-0.146,1.252-0.439,1.856c-0.293,0.605-0.685,1.115-1.176,1.531
		c-0.274,0.227-0.567,0.411-0.879,0.553c-0.312,0.142-0.645,0.227-0.999,0.255s-0.692-0.038-1.014-0.198
		c-0.35-0.132-0.624-0.368-0.822-0.709c-0.378-0.529-0.524-1.214-0.439-2.055c0.085-0.766,0.356-1.481,0.815-2.147
		s1.028-1.15,1.708-1.453c0.198-0.085,0.38-0.144,0.545-0.177c0.166-0.033,0.3-0.052,0.404-0.057
		c0.104-0.005,0.307-0.007,0.609-0.007h3.076c0.151,0,0.26,0.028,0.326,0.085c0.113,0.113,0.137,0.253,0.071,0.418
		c-0.066,0.165-0.17,0.276-0.312,0.333c-0.057,0.019-0.274,0.028-0.652,0.028H30.789z M29.655,46.896
		c-0.388-0.217-0.851-0.236-1.389-0.057c-0.491,0.161-0.883,0.468-1.176,0.921c-0.293,0.454-0.496,0.969-0.609,1.545
		c-0.255,1.068-0.137,1.834,0.354,2.297c0.113,0.113,0.274,0.205,0.482,0.276c0.208,0.07,0.411,0.097,0.609,0.077
		c0.642-0.047,1.155-0.32,1.538-0.821s0.649-1.092,0.801-1.772c0.255-1.077,0.137-1.842-0.354-2.296
		C29.844,47.001,29.759,46.944,29.655,46.896z"/>
</g>
<g>
	<path d="M34.216,49.995c0.384,0,0.625,0.007,0.724,0.02c0.258,0.391,0.632,0.989,1.121,1.796c0.139-0.132,0.422-0.412,0.849-0.839
		c0.426-0.426,0.762-0.749,1.007-0.967c0.152-0.007,0.39-0.01,0.714-0.01c-0.013,0.02-0.334,0.331-0.962,0.933
		s-1.039,0.992-1.23,1.171c-0.092,0.072-0.142,0.129-0.148,0.168c0,0.014,0.033,0.076,0.099,0.188
		c0.86,1.323,1.336,2.063,1.429,2.223c-0.384,0-0.625-0.007-0.725-0.02c-0.132-0.199-0.532-0.877-1.2-2.034l-1.826,1.865
		l-0.198,0.179c-0.152,0.007-0.387,0.01-0.705,0.01l0.268-0.268l2.173-2.084l0.049-0.069c-0.159-0.271-0.402-0.653-0.729-1.146
		C34.598,50.618,34.362,50.246,34.216,49.995z"/>
</g>
<g>
	<path d="M45.174,46.727c0.321,0.52,0.482,1.101,0.482,1.743c0,0.633-0.146,1.252-0.439,1.856c-0.293,0.605-0.685,1.115-1.176,1.531
		c-0.274,0.227-0.567,0.411-0.879,0.553c-0.312,0.142-0.645,0.227-0.999,0.255s-0.692-0.038-1.014-0.198
		c-0.35-0.132-0.624-0.368-0.822-0.709c-0.378-0.529-0.524-1.214-0.439-2.055c0.085-0.766,0.356-1.481,0.815-2.147
		s1.028-1.15,1.708-1.453c0.198-0.085,0.38-0.144,0.545-0.177c0.166-0.033,0.3-0.052,0.404-0.057
		c0.104-0.005,0.307-0.007,0.609-0.007h3.076c0.151,0,0.26,0.028,0.326,0.085c0.113,0.113,0.137,0.253,0.071,0.418
		c-0.066,0.165-0.17,0.276-0.312,0.333c-0.057,0.019-0.274,0.028-0.652,0.028H45.174z M44.04,46.896
		c-0.388-0.217-0.851-0.236-1.389-0.057c-0.491,0.161-0.883,0.468-1.176,0.921c-0.293,0.454-0.496,0.969-0.609,1.545
		c-0.255,1.068-0.137,1.834,0.354,2.297c0.113,0.113,0.274,0.205,0.482,0.276c0.208,0.07,0.411,0.097,0.609,0.077
		c0.642-0.047,1.155-0.32,1.538-0.821s0.649-1.092,0.801-1.772c0.255-1.077,0.137-1.842-0.354-2.296
		C44.229,47.001,44.144,46.944,44.04,46.896z"/>
</g>
<g>
	<path d="M49.862,50.68c0.238-0.238,0.552-0.443,0.942-0.615c0.39-0.172,0.767-0.208,1.131-0.109
		c0.311,0.086,0.549,0.283,0.714,0.591s0.251,0.64,0.258,0.997c0.007,0.575-0.122,1.126-0.387,1.651
		c-0.265,0.526-0.635,0.938-1.111,1.235c-0.192,0.119-0.392,0.208-0.6,0.268s-0.428,0.075-0.66,0.045
		c-0.232-0.029-0.434-0.114-0.605-0.253c-0.132-0.105-0.258-0.268-0.377-0.486l-0.486,2.332h-0.675l1.339-6.34H50L49.862,50.68z
		 M51.538,50.58c-0.291-0.112-0.561-0.141-0.809-0.084c-0.248,0.056-0.478,0.174-0.689,0.353c-0.119,0.092-0.202,0.178-0.248,0.258
		c-0.04,0.112-0.188,0.807-0.446,2.083c0,0.014-0.012,0.063-0.035,0.148c-0.023,0.087-0.035,0.149-0.035,0.189
		c0.006,0.053,0.03,0.125,0.069,0.218c0.112,0.238,0.283,0.387,0.511,0.446c0.229,0.06,0.457,0.055,0.685-0.015
		c0.229-0.069,0.442-0.177,0.64-0.322c0.595-0.443,0.936-1.042,1.022-1.796c0.026-0.305-0.015-0.596-0.124-0.873
		C51.97,50.907,51.79,50.706,51.538,50.58z"/>
</g>
<g>
	<path d="M58.761,54.11c-0.028-0.094-0.014-0.179,0.042-0.255c0.057-0.075,0.189-0.113,0.397-0.113h7.413h0.539
		c0.113,0.019,0.191,0.085,0.234,0.198s0.021,0.208-0.064,0.284c-0.066,0.057-0.255,0.085-0.567,0.085h-7.583
		c-0.123,0-0.198-0.005-0.227-0.015C58.851,54.267,58.79,54.205,58.761,54.11z M66.443,47.436c-0.123-0.048-0.444-0.199-0.964-0.454
		l-2.013-0.949l-4.323-2.041c-0.18-0.075-0.284-0.132-0.312-0.17c-0.066-0.076-0.092-0.156-0.078-0.241s0.059-0.15,0.134-0.198
		c0.095-0.057,0.255-0.028,0.482,0.085l1.177,0.553c0.236,0.113,0.571,0.271,1.006,0.475c0.434,0.203,0.699,0.328,0.793,0.376
		l3.019,1.432l1.559,0.736c0.009,0.01,0.047,0.026,0.113,0.05c0.066,0.023,0.113,0.045,0.142,0.063
		c0.028,0.02,0.064,0.043,0.106,0.071s0.073,0.062,0.092,0.1c0.019,0.037,0.029,0.08,0.029,0.127c0,0.048-0.01,0.09-0.029,0.128
		s-0.049,0.07-0.092,0.099s-0.078,0.053-0.106,0.071s-0.076,0.04-0.142,0.063c-0.066,0.024-0.104,0.041-0.113,0.05l-1.559,0.737
		c-2.816,1.323-4.422,2.083-4.819,2.281l-1.163,0.539c-0.246,0.113-0.411,0.146-0.496,0.1c-0.076-0.048-0.12-0.114-0.134-0.199
		s0.012-0.165,0.078-0.24c0.047-0.038,0.151-0.095,0.312-0.171l2.268-1.077l4.068-1.913c0.52-0.255,0.841-0.406,0.964-0.453V47.436z
		"/>
</g>
<g>
	<path d="M74.762,33.824h5.357v0.751h-5.357V33.824z"/>
</g>
<g>
	<path d="M77.313,32.931h0.893l-0.936,4.465h0.014c0.123-0.227,0.312-0.449,0.567-0.666c0.624-0.558,1.318-0.808,2.083-0.751
		c0.604,0.057,1.016,0.274,1.233,0.652c0.18,0.35,0.189,0.912,0.028,1.687l-0.638,2.962c-0.132,0.699-0.227,1.144-0.283,1.333
		c0,0.104-0.071,0.156-0.213,0.156c-0.028,0-0.047,0-0.057,0H79.34l0.893-4.195c0.009-0.047,0.028-0.135,0.057-0.262
		s0.047-0.224,0.057-0.291c0.009-0.066,0.019-0.153,0.028-0.262c0.009-0.108,0.004-0.206-0.014-0.291
		c-0.019-0.085-0.047-0.17-0.085-0.255c-0.208-0.406-0.676-0.586-1.403-0.539c-0.435,0.057-0.806,0.26-1.113,0.609
		s-0.541,0.756-0.701,1.219c-0.038,0.123-0.111,0.437-0.22,0.942c-0.109,0.506-0.225,1.063-0.347,1.672
		c-0.123,0.61-0.208,1.014-0.255,1.212c-0.009,0.028-0.021,0.076-0.036,0.142c-0.014,0.066-0.026,0.119-0.035,0.156
		c0,0.038-0.005,0.066-0.014,0.085c-0.01,0.019-0.028,0.033-0.057,0.042s-0.05,0.014-0.064,0.014s-0.042,0-0.085,0s-0.069,0-0.078,0
		H75.23L77.313,32.931z"/>
</g>
<g>
	<rect x="73.727" y="48.525" width="8.037" height="0.574"/>
</g>
<g>
	<path d="M75.173,55.571c-0.038-0.037-0.161-0.184-0.369-0.439c-0.094-0.122-0.142-0.193-0.142-0.212
		c0-0.02,0.028-0.118,0.085-0.298c0.189-0.539,0.468-0.992,0.836-1.36c0.558-0.501,1.247-0.744,2.069-0.73
		c0.822,0.015,1.517,0.268,2.083,0.759c0.482,0.416,0.789,0.94,0.921,1.573c0.132,0.633,0.057,1.232-0.227,1.8
		c-0.066,0.133-0.142,0.262-0.227,0.39c-0.085,0.128-0.187,0.258-0.305,0.39c-0.119,0.133-0.215,0.241-0.291,0.326
		c-0.076,0.085-0.196,0.198-0.362,0.34c-0.165,0.142-0.279,0.239-0.34,0.291c-0.062,0.052-0.189,0.155-0.383,0.312
		c-0.194,0.156-0.31,0.248-0.347,0.276c-0.142,0.104-0.555,0.461-1.24,1.07s-1.136,1.019-1.354,1.226h5.131v0.794h-5.953v-0.496
		c0-0.123,0.007-0.2,0.021-0.233s0.054-0.083,0.121-0.149l0.241-0.227l1.956-1.8c0.057-0.048,0.201-0.168,0.432-0.361
		c0.231-0.194,0.399-0.336,0.503-0.426c0.104-0.09,0.257-0.231,0.46-0.425s0.356-0.363,0.46-0.511
		c0.104-0.146,0.222-0.316,0.354-0.51s0.234-0.392,0.305-0.596c0.071-0.203,0.121-0.408,0.149-0.616
		c0.047-0.576-0.076-1.072-0.369-1.488c-0.406-0.558-1.011-0.869-1.814-0.936c-0.378-0.028-0.718,0.015-1.021,0.128
		C75.881,53.734,75.418,54.447,75.173,55.571z"/>
</g>
</svg>
