<?xml version="1.0" encoding="iso-8859-1"?>
<!-- Generator: Adobe Illustrator 16.0.0, SVG Export Plug-In . SVG Version: 6.00 Build 0)  -->
<!DOCTYPE svg PUBLIC "-//W3C//DTD SVG 1.1//EN" "http://www.w3.org/Graphics/SVG/1.1/DTD/svg11.dtd">
<svg version="1.1" id="Layer_1" xmlns="http://www.w3.org/2000/svg" xmlns:xlink="http://www.w3.org/1999/xlink" x="0px" y="0px"
	 width="566.929px" height="85.039px" viewBox="0 0 566.929 85.039" style="enable-background:new 0 0 566.929 85.039;"
	 xml:space="preserve">
<g>
	<path d="M26.523,40.296h2.211v0.708h-1.346v12.359h1.346v0.709h-2.211V40.296z"/>
	<path d="M30.846,43.188c0.123-0.113,0.449-0.423,0.978-0.929c0.529-0.505,0.94-0.886,1.233-1.141
		c0.132-0.019,0.359-0.029,0.681-0.029c0.075,0.048,0.283,0.227,0.624,0.539c0.151,0.151,0.413,0.399,0.787,0.744
		c0.373,0.345,0.659,0.617,0.857,0.815c-0.321,0-0.553-0.005-0.694-0.015c-0.265-0.217-0.817-0.704-1.659-1.459l-0.227-0.17
		c-0.236,0.18-0.56,0.456-0.971,0.829c-0.411,0.374-0.716,0.641-0.915,0.801C31.398,43.183,31.167,43.188,30.846,43.188z"/>
</g>
<g>
	<path d="M30.583,44.236c0.454,0,0.784,0.005,0.992,0.014c0.17,0.236,0.394,0.596,0.673,1.077c0.279,0.482,0.447,0.766,0.503,0.851
		l0.383,0.652l0.624-0.609c0.113-0.114,0.404-0.409,0.872-0.887c0.468-0.477,0.838-0.838,1.113-1.084
		c0.208-0.009,0.534-0.014,0.978-0.014c-0.057,0.075-0.125,0.151-0.205,0.227c-0.081,0.075-0.17,0.161-0.27,0.255
		c-0.099,0.095-0.172,0.166-0.22,0.213l-1.729,1.687l-0.624,0.609c-0.142,0.142-0.218,0.227-0.227,0.255
		c0,0.02,0.042,0.104,0.127,0.255c1.001,1.56,1.663,2.622,1.984,3.189c-0.539,0-0.874-0.01-1.006-0.028
		c-0.227-0.368-0.534-0.904-0.921-1.608c-0.388-0.704-0.629-1.137-0.723-1.297l-2.565,2.664l-0.269,0.255
		c-0.208,0.01-0.534,0.015-0.978,0.015l0.751-0.751l2.679-2.622l0.057-0.085L30.583,44.236z"/>
</g>
<g>
	<path d="M37.382,48.369h0.655l-0.962,4.554l-0.04,0.109c-0.086,0.013-0.301,0.02-0.645,0.02L37.382,48.369z M37.709,46.821
		c0.085-0.384,0.135-0.596,0.148-0.635c0.086-0.014,0.301-0.021,0.645-0.021c-0.086,0.384-0.136,0.596-0.149,0.636
		C38.268,46.814,38.053,46.821,37.709,46.821z"/>
</g>
<g>
	<path d="M40.833,49.82h1.105c0,0.51-0.005,0.884-0.014,1.12c-0.076,0.227-0.255,0.746-0.539,1.559h-0.567l0.354-1.573h-0.34V49.82z
		"/>
</g>
<g>
	<path d="M48.357,43.188c0.123-0.113,0.449-0.423,0.978-0.929c0.529-0.505,0.94-0.886,1.233-1.141
		c0.132-0.019,0.359-0.029,0.681-0.029c0.075,0.048,0.283,0.227,0.624,0.539c0.151,0.151,0.413,0.399,0.787,0.744
		c0.373,0.345,0.659,0.617,0.857,0.815c-0.321,0-0.553-0.005-0.694-0.015c-0.265-0.217-0.817-0.704-1.659-1.459l-0.227-0.17
		c-0.236,0.18-0.56,0.456-0.971,0.829c-0.411,0.374-0.716,0.641-0.915,0.801C48.91,43.183,48.678,43.188,48.357,43.188z"/>
</g>
<g>
	<path d="M49.072,45.2c0.34-0.341,0.772-0.631,1.297-0.872s1.042-0.29,1.552-0.148c0.425,0.132,0.751,0.408,0.978,0.829
		c0.227,0.42,0.354,0.876,0.383,1.367c0.038,0.822-0.135,1.618-0.517,2.389c-0.383,0.77-0.915,1.372-1.595,1.807
		c-0.265,0.17-0.541,0.298-0.829,0.383s-0.591,0.108-0.907,0.071c-0.316-0.038-0.593-0.151-0.829-0.341
		c-0.161-0.132-0.34-0.368-0.539-0.708l-0.694,3.316h-0.907l1.914-9.057h0.893L49.072,45.2z M51.042,44.874
		c-0.586-0.104-1.162,0.075-1.729,0.538c-0.104,0.095-0.175,0.158-0.213,0.191s-0.076,0.088-0.113,0.163
		c-0.038,0.076-0.066,0.17-0.085,0.283l-0.085,0.411c-0.227,1.04-0.393,1.819-0.496,2.339c0,0.019-0.017,0.09-0.05,0.213
		s-0.049,0.217-0.049,0.283c0,0.01,0.028,0.113,0.085,0.312c0.236,0.52,0.628,0.761,1.176,0.723
		c0.397-0.028,0.779-0.155,1.148-0.382c0.756-0.454,1.275-1.144,1.559-2.069c0.076-0.236,0.127-0.524,0.156-0.865
		c0.047-0.472-0.047-0.921-0.283-1.346C51.826,45.242,51.486,44.978,51.042,44.874z"/>
</g>
<g>
	<path d="M55.237,48.369h0.655c-0.007,0.039-0.167,0.805-0.481,2.297c-0.314,1.491-0.498,2.35-0.551,2.574
		c-0.086,0.403-0.168,0.665-0.248,0.784c-0.37,0.562-0.896,0.813-1.577,0.754c-0.337-0.021-0.668-0.113-0.992-0.278l0.258-0.525
		c0.146,0.086,0.245,0.139,0.298,0.158c0.278,0.106,0.561,0.128,0.848,0.064c0.288-0.062,0.491-0.187,0.61-0.372
		c0.013-0.02,0.092-0.37,0.238-1.051c0.146-0.682,0.309-1.449,0.491-2.302c0.182-0.854,0.299-1.396,0.352-1.628
		c0.007-0.032,0.023-0.105,0.05-0.218S55.23,48.429,55.237,48.369z M55.704,46.166h0.655l-0.129,0.655h-0.655L55.704,46.166z"/>
</g>
<g>
	<path d="M57.502,40.296h2.211v13.776h-2.211v-0.709h1.346V41.004h-1.346V40.296z"/>
	<path d="M66.119,48.417c0.057-0.094,0.198-0.142,0.425-0.142h8.093h0.595c0.123,0.02,0.208,0.083,0.255,0.191
		s0.023,0.205-0.071,0.29c-0.057,0.058-0.156,0.086-0.297,0.086h-8.575c-0.142,0-0.227-0.005-0.255-0.015
		c-0.085-0.019-0.146-0.073-0.184-0.163C66.067,48.575,66.072,48.493,66.119,48.417z M66.289,45.54
		c0.019-0.01,0.099-0.015,0.241-0.015h8.122l0.297-0.014c0.199,0,0.298,0.005,0.298,0.014c0.113,0.02,0.191,0.085,0.234,0.199
		c0.042,0.113,0.021,0.208-0.064,0.283c-0.057,0.057-0.161,0.085-0.312,0.085h-8.519c-0.151,0-0.241-0.005-0.269-0.015
		c-0.151-0.028-0.229-0.115-0.234-0.262S66.147,45.578,66.289,45.54z"/>
</g>
<g>
	<path d="M82.798,44.236h0.893l-1.375,6.505l-0.057,0.156c-0.113,0.019-0.406,0.028-0.879,0.028L82.798,44.236z M83.28,41.982
		c0.085-0.463,0.151-0.751,0.198-0.864c0.113-0.019,0.406-0.029,0.879-0.029l-0.185,0.893H83.28z"/>
</g>
<g>
	<path d="M85.894,41.982h5.357v0.751h-5.357V41.982z"/>
</g>
<g>
	<path d="M88.444,41.089h0.893l-0.936,4.464h0.014c0.123-0.227,0.312-0.448,0.567-0.666c0.624-0.557,1.318-0.808,2.083-0.751
		c0.604,0.057,1.016,0.274,1.233,0.652c0.18,0.35,0.189,0.912,0.028,1.687l-0.638,2.962c-0.132,0.699-0.227,1.144-0.283,1.332
		c0,0.104-0.071,0.156-0.213,0.156c-0.028,0-0.047,0-0.057,0h-0.666l0.893-4.195c0.009-0.047,0.028-0.135,0.057-0.262
		c0.028-0.128,0.047-0.225,0.057-0.291c0.009-0.066,0.019-0.153,0.028-0.262c0.009-0.109,0.004-0.206-0.014-0.291
		c-0.019-0.085-0.047-0.17-0.085-0.255c-0.208-0.406-0.676-0.586-1.403-0.539c-0.435,0.057-0.806,0.26-1.113,0.609
		s-0.541,0.757-0.701,1.219c-0.038,0.123-0.111,0.438-0.22,0.943c-0.109,0.505-0.225,1.062-0.347,1.672
		c-0.123,0.609-0.208,1.014-0.255,1.212c-0.009,0.028-0.021,0.076-0.036,0.142c-0.014,0.066-0.026,0.118-0.035,0.156
		c0,0.038-0.005,0.066-0.014,0.085c-0.01,0.019-0.028,0.033-0.057,0.042c-0.028,0.01-0.05,0.015-0.064,0.015s-0.042,0-0.085,0
		s-0.069,0-0.078,0h-0.638L88.444,41.089z"/>
	<path d="M96.41,44.25c-0.539-0.906-0.865-1.525-0.978-1.856c-0.151-0.472-0.113-0.869,0.113-1.19
		c0.265-0.34,0.652-0.501,1.162-0.482c0.123,0.019,0.435,0.071,0.936,0.156c0.198,0.019,0.558,0.09,1.077,0.212
		c0.179,0.019,0.293,0.09,0.34,0.213c0.047,0.151,0.002,0.295-0.135,0.432c-0.137,0.137-0.281,0.187-0.432,0.149
		c-0.501-0.123-1.12-0.26-1.857-0.411c-0.085-0.028-0.175-0.042-0.269-0.042c-0.255,0.028-0.383,0.208-0.383,0.539
		c0,0.284,0.13,0.593,0.39,0.928c0.26,0.336,0.572,0.678,0.936,1.027s0.602,0.614,0.716,0.794c0.321,0.444,0.508,0.999,0.56,1.665
		c0.052,0.667-0.002,1.307-0.163,1.921s-0.378,1.162-0.652,1.645c-0.586,0.963-1.28,1.44-2.083,1.431
		c-0.624,0-1.153-0.217-1.587-0.651c-0.529-0.548-0.775-1.323-0.737-2.324c0.009-0.35,0.09-0.747,0.241-1.19
		c0.227-0.681,0.586-1.29,1.077-1.829C95.171,44.846,95.748,44.468,96.41,44.25z M96.735,44.859c-0.066,0-0.189,0.033-0.368,0.1
		c-0.539,0.198-0.974,0.548-1.304,1.049s-0.562,1.077-0.694,1.729c-0.236,1.2-0.118,2.037,0.354,2.509
		c0.284,0.284,0.647,0.426,1.092,0.426c0.529,0.01,0.973-0.303,1.332-0.936c0.246-0.426,0.409-0.934,0.489-1.523
		c0.081-0.591,0.05-1.193-0.092-1.808c-0.095-0.368-0.265-0.77-0.51-1.204c-0.01-0.01-0.028-0.04-0.057-0.093
		c-0.028-0.052-0.052-0.092-0.071-0.12c-0.019-0.028-0.045-0.057-0.078-0.085S96.764,44.859,96.735,44.859z"/>
</g>
<g>
	<path d="M101.097,48.369h0.655l-0.962,4.554l-0.04,0.109c-0.086,0.013-0.301,0.02-0.645,0.02L101.097,48.369z M101.424,46.821
		c0.085-0.384,0.135-0.596,0.148-0.635c0.086-0.014,0.301-0.021,0.645-0.021c-0.086,0.384-0.136,0.596-0.149,0.636
		C101.983,46.814,101.768,46.821,101.424,46.821z"/>
	<path d="M104.629,48.369h0.655c-0.007,0.039-0.167,0.805-0.481,2.297c-0.314,1.491-0.498,2.35-0.551,2.574
		c-0.086,0.403-0.168,0.665-0.248,0.784c-0.37,0.562-0.896,0.813-1.577,0.754c-0.337-0.021-0.668-0.113-0.992-0.278l0.258-0.525
		c0.146,0.086,0.245,0.139,0.298,0.158c0.278,0.106,0.561,0.128,0.848,0.064c0.288-0.062,0.491-0.187,0.61-0.372
		c0.013-0.02,0.092-0.37,0.238-1.051c0.146-0.682,0.309-1.449,0.491-2.302c0.182-0.854,0.299-1.396,0.352-1.628
		c0.007-0.032,0.023-0.105,0.05-0.218S104.622,48.429,104.629,48.369z M105.095,46.166h0.655l-0.129,0.655h-0.655L105.095,46.166z"
		/>
</g>
</svg>
