<?xml version="1.0" encoding="iso-8859-1"?>
<!-- Generator: Adobe Illustrator 16.0.0, SVG Export Plug-In . SVG Version: 6.00 Build 0)  -->
<!DOCTYPE svg PUBLIC "-//W3C//DTD SVG 1.1//EN" "http://www.w3.org/Graphics/SVG/1.1/DTD/svg11.dtd">
<svg version="1.1" id="Layer_1" xmlns="http://www.w3.org/2000/svg" xmlns:xlink="http://www.w3.org/1999/xlink" x="0px" y="0px"
	 width="566.929px" height="85.039px" viewBox="0 0 566.929 85.039" style="enable-background:new 0 0 566.929 85.039;"
	 xml:space="preserve">
<g>
	<path d="M28.802,39.754h0.893v0.893h-0.893V39.754z M31.68,39.754h0.893v0.893H31.68V39.754z"/>
</g>
<g>
	<path d="M26.906,43.812c1.124-1.332,2.489-1.937,4.096-1.814c1.531,0.104,2.764,0.808,3.699,2.112
		c0.662,0.936,0.976,1.998,0.943,3.189c-0.033,1.19-0.409,2.234-1.127,3.132c-0.548,0.718-1.283,1.25-2.204,1.595
		c-0.921,0.345-1.897,0.375-2.927,0.092c-0.671-0.18-1.273-0.496-1.807-0.949c-0.534-0.454-0.957-0.983-1.269-1.588
		c-0.473-0.907-0.657-1.896-0.553-2.969C25.861,45.539,26.244,44.605,26.906,43.812z M31.852,42.876
		c-1.068-0.35-2.098-0.241-3.09,0.326c-0.652,0.378-1.16,0.924-1.523,1.637c-0.364,0.714-0.555,1.451-0.574,2.212
		c-0.019,0.76,0.14,1.504,0.475,2.231c0.335,0.729,0.824,1.295,1.467,1.701c0.765,0.444,1.531,0.643,2.296,0.596
		c0.983-0.095,1.81-0.454,2.48-1.077c0.558-0.529,0.938-1.193,1.141-1.992c0.203-0.798,0.229-1.599,0.078-2.402
		c-0.161-0.793-0.477-1.472-0.95-2.033C33.18,43.512,32.58,43.112,31.852,42.876z M27.515,46.66h6.35v0.936h-6.35V46.66z"/>
</g>
<g>
	<path d="M39.011,47.549c0.271-0.026,0.544,0.012,0.819,0.114c0.274,0.103,0.504,0.25,0.689,0.441
		c0.516,0.536,0.774,1.433,0.774,2.689c0,0.893-0.08,1.58-0.238,2.063c-0.304,0.886-0.863,1.375-1.677,1.468
		c-0.675,0.066-1.23-0.139-1.667-0.615c-0.47-0.522-0.705-1.432-0.705-2.728c0-0.88,0.092-1.564,0.278-2.054
		c0.125-0.312,0.276-0.566,0.451-0.765s0.402-0.356,0.68-0.476C38.548,47.636,38.746,47.589,39.011,47.549z M40.172,48.541
		c-0.179-0.218-0.409-0.361-0.69-0.432c-0.281-0.069-0.561-0.051-0.838,0.055c-0.364,0.173-0.612,0.434-0.744,0.784
		c-0.126,0.311-0.195,0.725-0.208,1.24c0,0.039-0.002,0.098-0.005,0.174c-0.003,0.076-0.005,0.134-0.005,0.173v0.486
		c0,0.774,0.062,1.356,0.188,1.746c0.085,0.252,0.178,0.44,0.278,0.565c0.277,0.351,0.641,0.51,1.091,0.477
		c0.827-0.066,1.28-0.761,1.359-2.084c0.013-0.185,0.02-0.32,0.02-0.406v-0.525c0-0.86-0.069-1.466-0.208-1.816
		C40.337,48.793,40.257,48.647,40.172,48.541z"/>
</g>
<g>
	<path d="M50.705,48.035v-3.926c0-0.16,0.004-0.26,0.014-0.298c0.028-0.142,0.118-0.212,0.269-0.212c0.151,0,0.241,0.07,0.27,0.212
		c0.009,0.028,0.014,0.123,0.014,0.283v3.94h3.926c0.161,0,0.255,0.005,0.284,0.015c0.142,0.028,0.212,0.118,0.212,0.269
		c0,0.151-0.071,0.241-0.212,0.27c-0.028,0.01-0.123,0.015-0.284,0.015h-3.926v3.939c0,0.161-0.005,0.256-0.014,0.284
		c-0.028,0.142-0.118,0.212-0.27,0.212c-0.151,0-0.241-0.07-0.269-0.212c-0.01-0.028-0.014-0.123-0.014-0.284v-3.939h-3.94
		c-0.161,0-0.255-0.005-0.283-0.015c-0.142-0.028-0.213-0.118-0.213-0.27c0-0.15,0.071-0.24,0.213-0.269
		c0.028-0.01,0.123-0.015,0.283-0.015H50.705z"/>
</g>
<g>
	<path d="M63.122,42.224h0.992c-0.198,0.973-0.505,2.424-0.921,4.351h5.102c0.028,0,0.052-0.002,0.071-0.007
		s0.038-0.014,0.057-0.028c0.019-0.014,0.033-0.025,0.042-0.035c0.009-0.01,0.016-0.028,0.021-0.057s0.009-0.048,0.014-0.057
		c0.005-0.01,0.009-0.031,0.014-0.064c0.005-0.032,0.007-0.054,0.007-0.063l0.17-0.794c0.066-0.321,0.177-0.843,0.333-1.565
		c0.156-0.724,0.271-1.283,0.347-1.68h0.992c-0.009,0.057-0.34,1.625-0.992,4.706c-0.652,3.081-0.992,4.687-1.021,4.819
		c-0.019,0.142-0.042,0.231-0.071,0.269c-0.019,0.028-0.104,0.043-0.255,0.043h-0.737l1.006-4.733h-5.13l-0.114,0.028
		c-0.227,0.973-0.548,2.451-0.963,4.436l-0.071,0.241c-0.132,0.019-0.458,0.028-0.978,0.028L63.122,42.224z"/>
</g>
<g>
	<path d="M87.846,32.438h2.834h0.879c1.219,0.076,2.112,0.463,2.679,1.163c0.094,0.132,0.179,0.283,0.255,0.454
		c0.265,0.689,0.127,1.365-0.411,2.026c-0.454,0.558-1.082,0.983-1.885,1.276c-0.359,0.132-0.662,0.217-0.907,0.255l2.168,4.663
		c-0.52,0-0.846-0.009-0.978-0.028c-0.227-0.416-0.52-1.03-0.878-1.843c-0.359-0.812-0.605-1.351-0.737-1.616
		c-0.246-0.548-0.406-0.893-0.482-1.035c-0.094-0.028-0.326-0.042-0.694-0.042h-1.984l-0.935,4.437l-0.043,0.099
		c-0.123,0.019-0.444,0.028-0.963,0.028L87.846,32.438z M87.86,37.002h1.913h0.751c0.746-0.047,1.36-0.184,1.842-0.411
		c0.416-0.198,0.753-0.486,1.013-0.864s0.352-0.775,0.276-1.191c-0.113-0.462-0.392-0.808-0.836-1.035
		c-0.435-0.208-1.11-0.312-2.027-0.312h-2.126L87.86,37.002z"/>
</g>
<g>
	<rect x="71.991" y="48.033" width="35.427" height="0.574"/>
</g>
<g>
	<path d="M73.479,52.981c0.945,0,1.715-0.217,2.31-0.651c0.047-0.028,0.09-0.062,0.127-0.1c0.038-0.037,0.066-0.065,0.085-0.085
		c0.019-0.019,0.042-0.037,0.071-0.057c0.028-0.019,0.063-0.03,0.106-0.035s0.097-0.007,0.163-0.007v8.829h1.857v0.709h-4.635
		v-0.709h1.856v-7.597c-0.633,0.274-1.28,0.411-1.941,0.411V52.981z"/>
	<path d="M87.809,57.56v-3.926c0-0.16,0.004-0.26,0.014-0.298c0.028-0.142,0.118-0.212,0.269-0.212c0.151,0,0.241,0.07,0.27,0.212
		c0.009,0.028,0.014,0.123,0.014,0.283v3.94h3.926c0.161,0,0.255,0.005,0.284,0.015c0.142,0.028,0.212,0.118,0.212,0.269
		c0,0.151-0.071,0.241-0.212,0.27c-0.028,0.01-0.123,0.015-0.284,0.015h-3.926v3.939c0,0.161-0.005,0.256-0.014,0.284
		c-0.028,0.142-0.118,0.212-0.27,0.212c-0.151,0-0.241-0.07-0.269-0.212c-0.01-0.028-0.014-0.123-0.014-0.284v-3.939h-3.94
		c-0.161,0-0.255-0.005-0.283-0.015c-0.142-0.028-0.213-0.118-0.213-0.27c0-0.15,0.071-0.24,0.213-0.269
		c0.028-0.01,0.123-0.015,0.283-0.015H87.809z"/>
</g>
<g>
	<path d="M100.228,51.749h2.834h0.879c1.219,0.075,2.112,0.463,2.679,1.162c0.094,0.132,0.179,0.283,0.255,0.453
		c0.265,0.69,0.127,1.366-0.411,2.027c-0.454,0.558-1.082,0.982-1.885,1.275c-0.359,0.132-0.662,0.218-0.907,0.255l2.168,4.663
		c-0.52,0-0.846-0.01-0.978-0.028c-0.227-0.416-0.52-1.03-0.878-1.843c-0.359-0.812-0.605-1.351-0.737-1.615
		c-0.246-0.548-0.406-0.894-0.482-1.035c-0.094-0.028-0.326-0.042-0.694-0.042h-1.984l-0.935,4.436l-0.043,0.1
		c-0.123,0.019-0.444,0.028-0.963,0.028L100.228,51.749z M100.242,56.312h1.913h0.751c0.746-0.047,1.36-0.185,1.842-0.411
		c0.416-0.198,0.753-0.486,1.013-0.864s0.352-0.774,0.276-1.19c-0.113-0.463-0.392-0.809-0.836-1.035
		c-0.435-0.207-1.11-0.312-2.027-0.312h-2.126L100.242,56.312z"/>
</g>
<g>
	<path d="M113.95,39.754h0.893v0.893h-0.893V39.754z"/>
</g>
<g>
	<path d="M110.612,43.812c1.124-1.332,2.489-1.937,4.096-1.814c1.531,0.104,2.764,0.808,3.699,2.112
		c0.662,0.936,0.976,1.998,0.943,3.189c-0.033,1.19-0.409,2.234-1.127,3.132c-0.548,0.718-1.283,1.25-2.204,1.595
		c-0.921,0.345-1.897,0.375-2.927,0.092c-0.671-0.18-1.273-0.496-1.807-0.949c-0.534-0.454-0.957-0.983-1.269-1.588
		c-0.473-0.907-0.657-1.896-0.553-2.969C109.568,45.539,109.951,44.605,110.612,43.812z M115.559,42.876
		c-1.068-0.35-2.098-0.241-3.09,0.326c-0.652,0.378-1.16,0.924-1.523,1.637c-0.364,0.714-0.555,1.451-0.574,2.212
		c-0.019,0.76,0.14,1.504,0.475,2.231c0.335,0.729,0.824,1.295,1.467,1.701c0.765,0.444,1.531,0.643,2.296,0.596
		c0.983-0.095,1.81-0.454,2.48-1.077c0.558-0.529,0.938-1.193,1.141-1.992c0.203-0.798,0.229-1.599,0.078-2.402
		c-0.161-0.793-0.477-1.472-0.95-2.033C116.886,43.512,116.286,43.112,115.559,42.876z M111.222,46.66h6.35v0.936h-6.35V46.66z"/>
</g>
<g>
	<path d="M122.719,47.549c0.271-0.026,0.544,0.012,0.819,0.114c0.274,0.103,0.504,0.25,0.689,0.441
		c0.516,0.536,0.774,1.433,0.774,2.689c0,0.893-0.08,1.58-0.238,2.063c-0.304,0.886-0.863,1.375-1.677,1.468
		c-0.675,0.066-1.23-0.139-1.667-0.615c-0.47-0.522-0.705-1.432-0.705-2.728c0-0.88,0.092-1.564,0.278-2.054
		c0.125-0.312,0.276-0.566,0.451-0.765s0.402-0.356,0.68-0.476C122.256,47.636,122.454,47.589,122.719,47.549z M123.88,48.541
		c-0.179-0.218-0.409-0.361-0.69-0.432c-0.281-0.069-0.561-0.051-0.838,0.055c-0.364,0.173-0.612,0.434-0.744,0.784
		c-0.126,0.311-0.195,0.725-0.208,1.24c0,0.039-0.002,0.098-0.005,0.174c-0.003,0.076-0.005,0.134-0.005,0.173v0.486
		c0,0.774,0.062,1.356,0.188,1.746c0.085,0.252,0.178,0.44,0.278,0.565c0.277,0.351,0.641,0.51,1.091,0.477
		c0.827-0.066,1.28-0.761,1.359-2.084c0.013-0.185,0.02-0.32,0.02-0.406v-0.525c0-0.86-0.069-1.466-0.208-1.816
		C124.045,48.793,123.965,48.647,123.88,48.541z"/>
</g>
<g>
	<path d="M134.413,48.035v-3.926c0-0.16,0.004-0.26,0.014-0.298c0.028-0.142,0.118-0.212,0.269-0.212c0.151,0,0.241,0.07,0.27,0.212
		c0.009,0.028,0.014,0.123,0.014,0.283v3.94h3.926c0.161,0,0.255,0.005,0.284,0.015c0.142,0.028,0.212,0.118,0.212,0.269
		c0,0.151-0.071,0.241-0.212,0.27c-0.028,0.01-0.123,0.015-0.284,0.015h-3.926v3.939c0,0.161-0.005,0.256-0.014,0.284
		c-0.028,0.142-0.118,0.212-0.27,0.212c-0.151,0-0.241-0.07-0.269-0.212c-0.01-0.028-0.014-0.123-0.014-0.284v-3.939h-3.94
		c-0.161,0-0.255-0.005-0.283-0.015c-0.142-0.028-0.213-0.118-0.213-0.27c0-0.15,0.071-0.24,0.213-0.269
		c0.028-0.01,0.123-0.015,0.283-0.015H134.413z"/>
</g>
<g>
	<path d="M146.602,42.224h0.851l-1.347,6.364l3.728-3.09l0.156-0.113c0.236-0.009,0.6-0.014,1.091-0.014v0.014l-2.792,2.311
		l-0.212,0.213c0.047,0.15,0.132,0.347,0.255,0.588c0.123,0.241,0.203,0.409,0.241,0.503l1.432,3.062
		c-0.52,0-0.841-0.01-0.964-0.028c-0.199-0.378-0.468-0.931-0.808-1.658c-0.34-0.728-0.572-1.214-0.694-1.46l-0.184-0.425
		c-0.17,0.122-0.404,0.312-0.702,0.566c-0.298,0.255-0.513,0.435-0.645,0.539l-0.17,0.17c-0.227,1.039-0.378,1.743-0.454,2.111
		l-0.057,0.156c-0.104,0.019-0.374,0.028-0.808,0.028L146.602,42.224z"/>
</g>
<g>
	<path d="M152.366,41.664c-0.04-0.033-0.091-0.089-0.154-0.168c-0.063-0.08-0.101-0.126-0.114-0.139
		c-0.073-0.086-0.109-0.139-0.109-0.159c-0.013-0.033,0-0.096,0.04-0.188c0.125-0.351,0.311-0.648,0.556-0.893
		c0.397-0.37,0.898-0.555,1.503-0.555c0.605,0,1.116,0.175,1.533,0.525c0.337,0.278,0.555,0.64,0.655,1.086
		c0.099,0.447,0.049,0.868-0.149,1.265c-0.073,0.132-0.152,0.258-0.238,0.377s-0.202,0.245-0.347,0.376
		c-0.146,0.133-0.251,0.228-0.317,0.283c-0.066,0.057-0.202,0.164-0.407,0.322c-0.205,0.159-0.321,0.248-0.347,0.269
		c-0.225,0.178-0.536,0.444-0.933,0.798c-0.397,0.354-0.688,0.607-0.873,0.76h3.661v0.585h-4.266v-0.367
		c0-0.093,0.005-0.15,0.015-0.174c0.01-0.022,0.038-0.058,0.084-0.104c0.146-0.126,0.409-0.362,0.789-0.71
		c0.38-0.347,0.656-0.59,0.828-0.729c0.04-0.033,0.137-0.111,0.293-0.233c0.155-0.122,0.27-0.215,0.342-0.278
		c0.073-0.062,0.178-0.156,0.317-0.282c0.139-0.126,0.248-0.238,0.327-0.337c0.08-0.099,0.166-0.213,0.258-0.342
		c0.092-0.129,0.164-0.261,0.213-0.397c0.049-0.135,0.084-0.273,0.104-0.412c0.046-0.377-0.023-0.711-0.208-1.002
		c-0.284-0.423-0.731-0.658-1.339-0.705c-0.291-0.02-0.542,0.013-0.754,0.099C152.892,40.421,152.571,40.897,152.366,41.664z"/>
</g>
<g>
	<path d="M163.83,50.474c-0.009,0.037-0.021,0.122-0.035,0.255c-0.014,0.132-0.028,0.25-0.042,0.354
		c-0.014,0.104-0.026,0.165-0.036,0.184c-0.019,0.02-0.109,0.085-0.27,0.198c-0.368,0.236-0.772,0.421-1.211,0.553
		c-0.439,0.133-0.917,0.175-1.432,0.128c-0.515-0.047-0.952-0.231-1.311-0.553c-0.331-0.302-0.565-0.688-0.702-1.155
		c-0.137-0.468-0.168-0.961-0.092-1.48c0.113-0.784,0.427-1.508,0.942-2.169c0.515-0.661,1.136-1.129,1.864-1.403
		c0.312-0.113,0.702-0.175,1.169-0.184c0.467-0.01,0.872,0.042,1.211,0.155c0.217,0.066,0.524,0.213,0.921,0.439l-0.298,0.779
		c-0.435-0.264-0.666-0.406-0.694-0.425c-0.293-0.123-0.628-0.198-1.006-0.227s-0.742,0.009-1.091,0.113
		c-0.586,0.188-1.056,0.558-1.41,1.105s-0.588,1.157-0.702,1.828c-0.076,0.473-0.052,0.921,0.071,1.347
		c0.123,0.425,0.369,0.737,0.737,0.936c0.472,0.236,1.063,0.26,1.771,0.07c0.387-0.094,0.78-0.269,1.176-0.524
		c0.047-0.028,0.121-0.08,0.22-0.155C163.681,50.567,163.764,50.511,163.83,50.474z"/>
</g>
<g>
	<path d="M166.082,41.664c-0.04-0.033-0.091-0.089-0.154-0.168c-0.063-0.08-0.101-0.126-0.114-0.139
		c-0.073-0.086-0.109-0.139-0.109-0.159c-0.013-0.033,0-0.096,0.04-0.188c0.125-0.351,0.311-0.648,0.556-0.893
		c0.397-0.37,0.898-0.555,1.503-0.555c0.605,0,1.116,0.175,1.533,0.525c0.337,0.278,0.555,0.64,0.655,1.086
		c0.099,0.447,0.049,0.868-0.149,1.265c-0.073,0.132-0.152,0.258-0.238,0.377s-0.202,0.245-0.347,0.376
		c-0.146,0.133-0.251,0.228-0.317,0.283c-0.066,0.057-0.202,0.164-0.407,0.322c-0.205,0.159-0.321,0.248-0.347,0.269
		c-0.225,0.178-0.536,0.444-0.933,0.798c-0.397,0.354-0.688,0.607-0.873,0.76h3.661v0.585h-4.266v-0.367
		c0-0.093,0.005-0.15,0.015-0.174c0.01-0.022,0.038-0.058,0.084-0.104c0.146-0.126,0.409-0.362,0.789-0.71
		c0.38-0.347,0.656-0.59,0.828-0.729c0.04-0.033,0.137-0.111,0.293-0.233c0.155-0.122,0.27-0.215,0.342-0.278
		c0.073-0.062,0.178-0.156,0.317-0.282c0.139-0.126,0.248-0.238,0.327-0.337c0.08-0.099,0.166-0.213,0.258-0.342
		c0.092-0.129,0.164-0.261,0.213-0.397c0.049-0.135,0.084-0.273,0.104-0.412c0.046-0.377-0.023-0.711-0.208-1.002
		c-0.284-0.423-0.731-0.658-1.339-0.705c-0.291-0.02-0.542,0.013-0.754,0.099C166.608,40.421,166.287,40.897,166.082,41.664z"/>
</g>
<g>
	<path d="M164.596,54.572c0.304,0.186,0.466,0.284,0.486,0.298c0.251,0.112,0.524,0.186,0.819,0.218
		c0.294,0.033,0.597,0.007,0.908-0.079c0.317-0.112,0.529-0.308,0.635-0.585c0.06-0.152,0.069-0.288,0.03-0.407
		c-0.04-0.112-0.109-0.206-0.208-0.282c-0.099-0.076-0.188-0.126-0.268-0.149c-0.08-0.022-0.195-0.055-0.347-0.094
		c-0.02-0.007-0.109-0.025-0.268-0.055c-0.159-0.03-0.261-0.052-0.308-0.064c-0.046-0.014-0.127-0.04-0.243-0.079
		c-0.116-0.04-0.211-0.085-0.288-0.135c-0.076-0.049-0.147-0.107-0.213-0.173c-0.225-0.259-0.309-0.553-0.253-0.884
		c0.056-0.33,0.213-0.611,0.471-0.843c0.43-0.384,1.039-0.546,1.826-0.486c0.351,0.02,0.757,0.126,1.22,0.317l-0.218,0.575
		c-0.046-0.02-0.124-0.058-0.233-0.113c-0.109-0.057-0.194-0.095-0.253-0.114c-0.232-0.086-0.493-0.136-0.784-0.149
		c-0.456-0.032-0.803,0.037-1.042,0.209c-0.152,0.105-0.26,0.244-0.322,0.416c-0.063,0.173-0.042,0.341,0.064,0.506
		c0.026,0.033,0.054,0.065,0.084,0.095s0.068,0.055,0.114,0.074c0.046,0.021,0.083,0.037,0.109,0.05
		c0.026,0.014,0.069,0.028,0.129,0.045s0.097,0.026,0.114,0.029c0.017,0.004,0.061,0.014,0.134,0.03
		c0.073,0.017,0.112,0.024,0.119,0.024c0.007,0,0.066,0.012,0.179,0.035c0.112,0.022,0.179,0.038,0.199,0.044
		c0.02,0.007,0.076,0.021,0.168,0.045c0.092,0.023,0.157,0.043,0.193,0.06s0.089,0.04,0.159,0.069c0.069,0.03,0.127,0.063,0.174,0.1
		c0.046,0.036,0.092,0.077,0.139,0.124c0.331,0.33,0.41,0.724,0.238,1.181c-0.245,0.733-0.83,1.138-1.756,1.21
		c-0.695,0.053-1.343-0.099-1.945-0.456L164.596,54.572z"/>
</g>
<g>
	<path d="M173.082,43.812c1.124-1.332,2.489-1.937,4.096-1.814c1.531,0.104,2.764,0.808,3.699,2.112
		c0.662,0.936,0.976,1.998,0.943,3.189c-0.033,1.19-0.409,2.234-1.127,3.132c-0.548,0.718-1.283,1.25-2.204,1.595
		c-0.921,0.345-1.897,0.375-2.927,0.092c-0.671-0.18-1.273-0.496-1.807-0.949c-0.534-0.454-0.957-0.983-1.269-1.588
		c-0.473-0.907-0.657-1.896-0.553-2.969C172.037,45.539,172.42,44.605,173.082,43.812z M178.028,42.876
		c-1.068-0.35-2.098-0.241-3.09,0.326c-0.652,0.378-1.16,0.924-1.523,1.637c-0.364,0.714-0.555,1.451-0.574,2.212
		c-0.019,0.76,0.14,1.504,0.475,2.231c0.335,0.729,0.824,1.295,1.467,1.701c0.765,0.444,1.531,0.643,2.296,0.596
		c0.983-0.095,1.81-0.454,2.48-1.077c0.558-0.529,0.938-1.193,1.141-1.992c0.203-0.798,0.229-1.599,0.078-2.402
		c-0.161-0.793-0.477-1.472-0.95-2.033C179.355,43.512,178.755,43.112,178.028,42.876z M173.691,46.66h6.35v0.936h-6.35V46.66z"/>
</g>
<g>
	<path d="M185.188,47.549c0.271-0.026,0.544,0.012,0.819,0.114c0.274,0.103,0.504,0.25,0.689,0.441
		c0.516,0.536,0.774,1.433,0.774,2.689c0,0.893-0.08,1.58-0.238,2.063c-0.304,0.886-0.863,1.375-1.677,1.468
		c-0.675,0.066-1.23-0.139-1.667-0.615c-0.47-0.522-0.705-1.432-0.705-2.728c0-0.88,0.092-1.564,0.278-2.054
		c0.125-0.312,0.276-0.566,0.451-0.765s0.402-0.356,0.68-0.476C184.725,47.636,184.923,47.589,185.188,47.549z M186.349,48.541
		c-0.179-0.218-0.409-0.361-0.69-0.432c-0.281-0.069-0.561-0.051-0.838,0.055c-0.364,0.173-0.612,0.434-0.744,0.784
		c-0.126,0.311-0.195,0.725-0.208,1.24c0,0.039-0.002,0.098-0.005,0.174c-0.003,0.076-0.005,0.134-0.005,0.173v0.486
		c0,0.774,0.062,1.356,0.188,1.746c0.085,0.252,0.178,0.44,0.278,0.565c0.277,0.351,0.641,0.51,1.091,0.477
		c0.827-0.066,1.28-0.761,1.359-2.084c0.013-0.185,0.02-0.32,0.02-0.406v-0.525c0-0.86-0.069-1.466-0.208-1.816
		C186.514,48.793,186.435,48.647,186.349,48.541z"/>
</g>
<g>
	<path d="M193.275,49.552c0.057-0.094,0.198-0.142,0.425-0.142h8.093h0.595c0.123,0.02,0.208,0.083,0.255,0.191
		s0.023,0.205-0.071,0.29c-0.057,0.058-0.156,0.086-0.297,0.086H193.7c-0.142,0-0.227-0.005-0.255-0.015
		c-0.085-0.019-0.146-0.073-0.184-0.163C193.223,49.71,193.228,49.628,193.275,49.552z M193.445,46.675
		c0.019-0.01,0.099-0.015,0.241-0.015h8.122l0.297-0.014c0.199,0,0.298,0.005,0.298,0.014c0.113,0.02,0.191,0.085,0.234,0.199
		c0.042,0.113,0.021,0.208-0.064,0.283c-0.057,0.057-0.161,0.085-0.312,0.085h-8.519c-0.151,0-0.241-0.005-0.269-0.015
		c-0.151-0.028-0.229-0.115-0.234-0.262S193.304,46.713,193.445,46.675z"/>
</g>
<g>
	<path d="M208.789,48.05c0.019-0.01,0.094-0.015,0.227-0.015h7.441h0.539c0.113,0.02,0.187,0.085,0.22,0.198
		c0.033,0.114,0.012,0.208-0.064,0.284c-0.028,0.028-0.071,0.052-0.127,0.07c-0.057,0.02-0.106,0.028-0.149,0.028
		s-0.099-0.002-0.17-0.007s-0.116-0.007-0.135-0.007h-7.54c-0.142,0-0.222-0.005-0.241-0.015c-0.142-0.037-0.21-0.125-0.206-0.262
		C208.588,48.189,208.656,48.097,208.789,48.05z"/>
</g>
<g>
	<path d="M221.905,39.754h0.893v0.893h-0.893V39.754z M224.783,39.754h0.893v0.893h-0.893V39.754z"/>
</g>
<g>
	<path d="M223.313,42.224h0.95v1.489c0.671,0.094,1.176,0.203,1.517,0.325c0.718,0.265,1.323,0.674,1.814,1.227
		s0.737,1.179,0.737,1.878c0,0.604-0.17,1.141-0.51,1.608c-0.34,0.468-0.766,0.849-1.276,1.141
		c-0.624,0.359-1.384,0.586-2.282,0.681v1.488h-0.95v-1.488c-0.671-0.095-1.176-0.203-1.517-0.326
		c-0.718-0.264-1.323-0.673-1.814-1.226s-0.737-1.179-0.737-1.878c0-0.604,0.17-1.141,0.51-1.608
		c0.34-0.468,0.765-0.849,1.275-1.142c0.624-0.358,1.384-0.586,2.282-0.68V42.224z M223.313,44.421l-0.808,0.128
		c-0.633,0.161-1.148,0.43-1.545,0.808c-0.378,0.369-0.612,0.822-0.702,1.36c-0.09,0.539-0.021,1.045,0.206,1.517
		c0.425,0.842,1.205,1.361,2.338,1.56c0.066,0.019,0.158,0.033,0.276,0.042c0.118,0.01,0.196,0.02,0.234,0.028V44.421z
		 M224.263,49.863c0.038-0.009,0.116-0.019,0.234-0.028c0.118-0.009,0.21-0.023,0.276-0.042c1.153-0.208,1.932-0.728,2.338-1.56
		c0.227-0.472,0.295-0.978,0.206-1.517c-0.09-0.538-0.324-0.991-0.702-1.36c-0.396-0.378-0.912-0.646-1.544-0.808l-0.808-0.128
		V49.863z"/>
</g>
<g>
	<path d="M233.71,48.05c0.019-0.01,0.094-0.015,0.227-0.015h7.441h0.539c0.113,0.02,0.187,0.085,0.22,0.198
		c0.033,0.114,0.012,0.208-0.064,0.284c-0.028,0.028-0.071,0.052-0.127,0.07c-0.057,0.02-0.106,0.028-0.149,0.028
		s-0.099-0.002-0.17-0.007s-0.116-0.007-0.135-0.007h-7.54c-0.142,0-0.222-0.005-0.241-0.015c-0.142-0.037-0.21-0.125-0.206-0.262
		C233.509,48.189,233.577,48.097,233.71,48.05z"/>
</g>
<g>
	<path d="M249.967,42.224h0.992c-0.198,0.973-0.505,2.424-0.921,4.351h5.102c0.028,0,0.052-0.002,0.071-0.007
		s0.038-0.014,0.057-0.028c0.019-0.014,0.033-0.025,0.042-0.035c0.009-0.01,0.016-0.028,0.021-0.057s0.009-0.048,0.014-0.057
		c0.005-0.01,0.009-0.031,0.014-0.064c0.005-0.032,0.007-0.054,0.007-0.063l0.17-0.794c0.066-0.321,0.177-0.843,0.333-1.565
		c0.156-0.724,0.271-1.283,0.347-1.68h0.992c-0.009,0.057-0.34,1.625-0.992,4.706c-0.652,3.081-0.992,4.687-1.021,4.819
		c-0.019,0.142-0.042,0.231-0.071,0.269c-0.019,0.028-0.104,0.043-0.255,0.043h-0.737l1.006-4.733h-5.13l-0.114,0.028
		c-0.227,0.973-0.548,2.451-0.963,4.436l-0.071,0.241c-0.132,0.019-0.458,0.028-0.978,0.028L249.967,42.224z"/>
</g>
<g>
	<path d="M274.692,32.438h2.834h0.879c1.219,0.076,2.112,0.463,2.679,1.163c0.094,0.132,0.179,0.283,0.255,0.454
		c0.265,0.689,0.127,1.365-0.411,2.026c-0.454,0.558-1.082,0.983-1.885,1.276c-0.359,0.132-0.662,0.217-0.907,0.255l2.168,4.663
		c-0.52,0-0.846-0.009-0.978-0.028c-0.227-0.416-0.52-1.03-0.878-1.843c-0.359-0.812-0.605-1.351-0.737-1.616
		c-0.246-0.548-0.406-0.893-0.482-1.035c-0.094-0.028-0.326-0.042-0.694-0.042h-1.984l-0.935,4.437l-0.043,0.099
		c-0.123,0.019-0.444,0.028-0.963,0.028L274.692,32.438z M274.706,37.002h1.913h0.751c0.746-0.047,1.36-0.184,1.842-0.411
		c0.416-0.198,0.753-0.486,1.013-0.864s0.352-0.775,0.276-1.191c-0.113-0.462-0.392-0.808-0.836-1.035
		c-0.435-0.208-1.11-0.312-2.027-0.312h-2.126L274.706,37.002z"/>
</g>
<g>
	<rect x="258.837" y="48.033" width="35.427" height="0.574"/>
</g>
<g>
	<path d="M260.325,52.981c0.945,0,1.715-0.217,2.31-0.651c0.047-0.028,0.09-0.062,0.127-0.1c0.038-0.037,0.066-0.065,0.085-0.085
		c0.019-0.019,0.042-0.037,0.071-0.057c0.028-0.019,0.063-0.03,0.106-0.035s0.097-0.007,0.163-0.007v8.829h1.857v0.709h-4.635
		v-0.709h1.856v-7.597c-0.633,0.274-1.28,0.411-1.941,0.411V52.981z"/>
	<path d="M274.64,57.56v-3.926c0-0.16,0.004-0.26,0.014-0.298c0.028-0.142,0.118-0.212,0.269-0.212c0.151,0,0.241,0.07,0.27,0.212
		c0.009,0.028,0.014,0.123,0.014,0.283v3.94h3.926c0.161,0,0.255,0.005,0.284,0.015c0.142,0.028,0.212,0.118,0.212,0.269
		c0,0.151-0.071,0.241-0.212,0.27c-0.028,0.01-0.123,0.015-0.284,0.015h-3.926v3.939c0,0.161-0.005,0.256-0.014,0.284
		c-0.028,0.142-0.118,0.212-0.27,0.212c-0.151,0-0.241-0.07-0.269-0.212c-0.01-0.028-0.014-0.123-0.014-0.284v-3.939h-3.94
		c-0.161,0-0.255-0.005-0.283-0.015c-0.142-0.028-0.213-0.118-0.213-0.27c0-0.15,0.071-0.24,0.213-0.269
		c0.028-0.01,0.123-0.015,0.283-0.015H274.64z"/>
</g>
<g>
	<path d="M287.073,51.749h2.834h0.879c1.219,0.075,2.112,0.463,2.679,1.162c0.095,0.132,0.18,0.283,0.256,0.453
		c0.264,0.69,0.127,1.366-0.411,2.027c-0.454,0.558-1.082,0.982-1.886,1.275c-0.358,0.132-0.661,0.218-0.906,0.255l2.168,4.663
		c-0.52,0-0.846-0.01-0.978-0.028c-0.228-0.416-0.521-1.03-0.879-1.843c-0.359-0.812-0.605-1.351-0.737-1.615
		c-0.246-0.548-0.406-0.894-0.481-1.035c-0.095-0.028-0.326-0.042-0.694-0.042h-1.984l-0.936,4.436l-0.043,0.1
		c-0.123,0.019-0.444,0.028-0.964,0.028L287.073,51.749z M287.087,56.312h1.914h0.751c0.746-0.047,1.36-0.185,1.843-0.411
		c0.415-0.198,0.753-0.486,1.013-0.864s0.353-0.774,0.276-1.19c-0.113-0.463-0.392-0.809-0.836-1.035
		c-0.435-0.207-1.11-0.312-2.026-0.312h-2.126L287.087,56.312z"/>
</g>
<g>
	<path d="M300.383,39.754h0.893v0.893h-0.893V39.754z"/>
</g>
<g>
	<path d="M300.35,42.224h0.95v1.489c0.67,0.094,1.176,0.203,1.516,0.325c0.719,0.265,1.323,0.674,1.814,1.227
		s0.737,1.179,0.737,1.878c0,0.604-0.17,1.141-0.511,1.608c-0.34,0.468-0.765,0.849-1.275,1.141
		c-0.623,0.359-1.384,0.586-2.281,0.681v1.488h-0.95v-1.488c-0.671-0.095-1.177-0.203-1.517-0.326
		c-0.718-0.264-1.323-0.673-1.814-1.226s-0.736-1.179-0.736-1.878c0-0.604,0.17-1.141,0.51-1.608
		c0.341-0.468,0.766-0.849,1.275-1.142c0.624-0.358,1.385-0.586,2.282-0.68V42.224z M300.35,44.421l-0.808,0.128
		c-0.633,0.161-1.148,0.43-1.545,0.808c-0.378,0.369-0.612,0.822-0.702,1.36c-0.09,0.539-0.021,1.045,0.206,1.517
		c0.425,0.842,1.205,1.361,2.339,1.56c0.065,0.019,0.158,0.033,0.276,0.042c0.118,0.01,0.195,0.02,0.233,0.028V44.421z
		 M301.3,49.863c0.037-0.009,0.115-0.019,0.233-0.028c0.118-0.009,0.21-0.023,0.276-0.042c1.152-0.208,1.933-0.728,2.339-1.56
		c0.227-0.472,0.295-0.978,0.205-1.517c-0.09-0.538-0.323-0.991-0.701-1.36c-0.397-0.378-0.912-0.646-1.545-0.808l-0.808-0.128
		V49.863z"/>
</g>
<g>
	<path d="M310.746,48.05c0.02-0.01,0.095-0.015,0.228-0.015h7.44h0.539c0.113,0.02,0.186,0.085,0.219,0.198
		c0.033,0.114,0.013,0.208-0.063,0.284c-0.028,0.028-0.07,0.052-0.127,0.07c-0.057,0.02-0.106,0.028-0.149,0.028
		c-0.042,0-0.099-0.002-0.17-0.007s-0.116-0.007-0.135-0.007h-7.54c-0.142,0-0.222-0.005-0.241-0.015
		c-0.142-0.037-0.21-0.125-0.205-0.262S310.614,48.097,310.746,48.05z"/>
</g>
<g>
	<path d="M326.214,33.672c0.944,0,1.715-0.217,2.311-0.652c0.047-0.028,0.089-0.062,0.127-0.1c0.038-0.038,0.066-0.066,0.085-0.085
		c0.02-0.019,0.043-0.038,0.071-0.057c0.028-0.019,0.063-0.03,0.106-0.035c0.042-0.005,0.097-0.007,0.163-0.007v8.83h1.856v0.708
		h-4.635v-0.708h1.856v-7.597c-0.633,0.274-1.28,0.411-1.941,0.411V33.672z"/>
</g>
<g>
	<rect x="324.726" y="48.033" width="7.441" height="0.574"/>
</g>
<g>
	<path d="M325.987,54.371l-0.312-0.439c-0.065-0.085-0.099-0.151-0.099-0.198c0-0.057,0.09-0.199,0.27-0.426
		c0.302-0.387,0.68-0.689,1.134-0.907c0.85-0.406,1.698-0.468,2.544-0.184c0.846,0.283,1.362,0.784,1.552,1.502
		c0.151,0.614,0.01,1.229-0.425,1.843c-0.228,0.303-0.506,0.558-0.837,0.766c-0.057,0.037-0.135,0.082-0.233,0.134
		c-0.1,0.053-0.168,0.088-0.206,0.106c0.256,0.038,0.539,0.151,0.851,0.341c0.614,0.35,1.011,0.821,1.19,1.417
		c0.161,0.501,0.158,0.992-0.007,1.474c-0.165,0.482-0.423,0.884-0.772,1.205c-0.17,0.161-0.383,0.312-0.638,0.453
		c-0.775,0.406-1.645,0.478-2.607,0.213c-0.709-0.208-1.342-0.628-1.899-1.262c-0.076-0.094-0.116-0.158-0.121-0.191
		c-0.005-0.032,0.003-0.105,0.021-0.219c0.057-0.312,0.09-0.478,0.1-0.496c0.358,0.481,0.723,0.826,1.091,1.034
		c0.341,0.208,0.704,0.361,1.092,0.461c0.387,0.099,0.786,0.115,1.197,0.049c0.411-0.065,0.763-0.23,1.056-0.495
		c0.331-0.303,0.529-0.709,0.596-1.22c0.066-0.51-0.005-0.959-0.213-1.346c-0.227-0.444-0.586-0.756-1.077-0.936
		c-0.236-0.085-0.595-0.128-1.077-0.128h-0.949v-0.709c0.812-0.047,1.36-0.122,1.644-0.227c0.359-0.132,0.659-0.352,0.9-0.659
		c0.241-0.307,0.38-0.649,0.418-1.027c0.047-0.416-0.066-0.774-0.34-1.077c-0.283-0.283-0.664-0.441-1.142-0.475
		c-0.477-0.033-0.891,0.04-1.239,0.22c-0.436,0.18-0.813,0.473-1.135,0.879c-0.047,0.066-0.105,0.158-0.177,0.276
		C326.065,54.241,326.016,54.323,325.987,54.371z"/>
</g>
<g>
	<path d="M336.608,42.224h0.85l-1.346,6.364l3.728-3.09l0.155-0.113c0.236-0.009,0.601-0.014,1.092-0.014v0.014l-2.792,2.311
		l-0.213,0.213c0.047,0.15,0.132,0.347,0.255,0.588s0.203,0.409,0.241,0.503l1.432,3.062c-0.52,0-0.842-0.01-0.964-0.028
		c-0.198-0.378-0.468-0.931-0.808-1.658c-0.341-0.728-0.572-1.214-0.695-1.46l-0.184-0.425c-0.17,0.122-0.404,0.312-0.702,0.566
		c-0.297,0.255-0.513,0.435-0.645,0.539l-0.17,0.17c-0.227,1.039-0.378,1.743-0.454,2.111l-0.057,0.156
		c-0.104,0.019-0.373,0.028-0.808,0.028L336.608,42.224z"/>
</g>
<g>
	<path d="M342.373,41.664c-0.04-0.033-0.092-0.089-0.154-0.168c-0.062-0.08-0.101-0.126-0.114-0.139
		c-0.072-0.086-0.109-0.139-0.109-0.159c-0.013-0.033,0-0.096,0.04-0.188c0.126-0.351,0.311-0.648,0.556-0.893
		c0.396-0.37,0.897-0.555,1.503-0.555s1.116,0.175,1.533,0.525c0.337,0.278,0.556,0.64,0.654,1.086
		c0.1,0.447,0.05,0.868-0.148,1.265c-0.073,0.132-0.152,0.258-0.238,0.377s-0.202,0.245-0.347,0.376
		c-0.146,0.133-0.252,0.228-0.318,0.283c-0.065,0.057-0.201,0.164-0.406,0.322c-0.205,0.159-0.321,0.248-0.348,0.269
		c-0.225,0.178-0.535,0.444-0.933,0.798c-0.396,0.354-0.688,0.607-0.873,0.76h3.661v0.585h-4.266v-0.367
		c0-0.093,0.005-0.15,0.015-0.174c0.01-0.022,0.038-0.058,0.084-0.104c0.146-0.126,0.408-0.362,0.789-0.71
		c0.38-0.347,0.656-0.59,0.828-0.729c0.04-0.033,0.138-0.111,0.293-0.233s0.27-0.215,0.342-0.278
		c0.073-0.062,0.179-0.156,0.317-0.282c0.14-0.126,0.248-0.238,0.328-0.337c0.079-0.099,0.165-0.213,0.258-0.342
		s0.163-0.261,0.213-0.397c0.05-0.135,0.085-0.273,0.104-0.412c0.046-0.377-0.023-0.711-0.208-1.002
		c-0.285-0.423-0.731-0.658-1.34-0.705c-0.291-0.02-0.542,0.013-0.754,0.099C342.898,40.421,342.577,40.897,342.373,41.664z"/>
</g>
<g>
	<path d="M352.688,42.224h0.949v7.611c0.491-0.094,0.893-0.269,1.205-0.524c0.765-0.613,1.147-1.719,1.147-3.316
		c0-1.256,0.198-2.045,0.596-2.366c0.16-0.123,0.43-0.185,0.808-0.185h0.723v0.709c-0.406,0.009-0.718,0.245-0.936,0.708
		c-0.085,0.189-0.146,0.39-0.184,0.603c-0.038,0.213-0.06,0.478-0.064,0.794s-0.012,0.526-0.021,0.631
		c-0.104,1.171-0.477,2.078-1.119,2.721c-0.236,0.236-0.553,0.449-0.949,0.638c-0.397,0.189-0.799,0.293-1.205,0.312v1.502h-0.949
		v-1.502c-0.615-0.028-1.187-0.223-1.716-0.581c-0.926-0.624-1.45-1.654-1.573-3.09c-0.009-0.104-0.017-0.314-0.021-0.631
		c-0.005-0.316-0.026-0.581-0.064-0.794c-0.037-0.213-0.099-0.413-0.184-0.603c-0.218-0.463-0.529-0.699-0.936-0.708v-0.709h0.723
		c0.378,0,0.647,0.062,0.808,0.185c0.151,0.122,0.27,0.3,0.354,0.531s0.14,0.441,0.163,0.631c0.023,0.188,0.045,0.448,0.063,0.779
		c0.01,0.123,0.015,0.31,0.015,0.56c0,0.251,0.005,0.438,0.014,0.56c0.085,1.163,0.435,2.013,1.049,2.552
		c0.426,0.35,0.86,0.548,1.305,0.595V42.224z"/>
</g>
</svg>
