<?xml version="1.0" encoding="iso-8859-1"?>
<!-- Generator: Adobe Illustrator 16.0.0, SVG Export Plug-In . SVG Version: 6.00 Build 0)  -->
<!DOCTYPE svg PUBLIC "-//W3C//DTD SVG 1.1//EN" "http://www.w3.org/Graphics/SVG/1.1/DTD/svg11.dtd">
<svg version="1.1" id="Layer_1" xmlns="http://www.w3.org/2000/svg" xmlns:xlink="http://www.w3.org/1999/xlink" x="0px" y="0px"
	 width="566.929px" height="85.039px" viewBox="0 0 566.929 85.039" style="enable-background:new 0 0 566.929 85.039;"
	 xml:space="preserve">
<g>
	<path d="M28.394,42.981h2.75c1.162,0,2.008,0.128,2.537,0.382c0.331,0.152,0.624,0.361,0.878,0.631
		c0.255,0.27,0.397,0.589,0.425,0.957c0.076,0.539-0.111,1.035-0.56,1.488s-0.98,0.779-1.594,0.978
		c-0.028,0.01-0.321,0.095-0.879,0.256c0.321,0.057,0.562,0.113,0.723,0.17c0.425,0.132,0.798,0.34,1.12,0.623
		c0.321,0.284,0.52,0.624,0.595,1.021c0.113,0.624-0.085,1.22-0.595,1.786c-0.35,0.396-0.801,0.732-1.354,1.006
		c-0.553,0.274-1.132,0.444-1.736,0.511c-0.18,0.019-0.723,0.028-1.63,0.028h-2.764L28.394,42.981z M27.416,52.066h1.842h0.808
		c0.765-0.048,1.417-0.203,1.956-0.468c1.115-0.529,1.587-1.21,1.417-2.041c-0.113-0.444-0.454-0.808-1.021-1.092
		c-0.529-0.273-1.323-0.41-2.381-0.41h-1.772L27.416,52.066z M28.422,47.347h1.389c0.624,0,0.997-0.005,1.12-0.015
		c0.728-0.057,1.379-0.245,1.956-0.566c0.86-0.473,1.252-1.021,1.176-1.645c-0.057-0.443-0.435-0.812-1.134-1.105
		c-0.482-0.188-1.186-0.283-2.112-0.283h-1.63L28.422,47.347z"/>
</g>
<g>
	<path d="M36.587,54.328c0.04-0.02,0.099-0.043,0.178-0.069c0.08-0.026,0.136-0.046,0.169-0.06c0.674-0.277,1.268-0.697,1.781-1.26
		s0.891-1.207,1.136-1.935c0.013-0.04,0.032-0.1,0.055-0.179c0.023-0.079,0.038-0.139,0.045-0.179
		c0.033-0.146,0.053-0.222,0.06-0.229c0.079-0.158,0.205-0.237,0.377-0.237c0.079,0,0.139,0.02,0.178,0.059
		c0.093,0.066,0.106,0.232,0.04,0.496c-0.139,0.523-0.361,1.025-0.665,1.509c-0.43,0.681-0.98,1.262-1.652,1.741
		s-1.394,0.798-2.167,0.957l0.03-0.169l-0.367,0.169l0.992-4.683h0.674l-0.367,1.736l-0.298,1.418L36.587,54.328z"/>
</g>
<g>
	<path d="M46.289,50.309c0.057-0.094,0.198-0.142,0.425-0.142h8.093h0.595c0.123,0.02,0.208,0.083,0.255,0.191
		s0.023,0.205-0.071,0.29c-0.057,0.058-0.156,0.086-0.297,0.086h-8.575c-0.142,0-0.227-0.005-0.255-0.015
		c-0.085-0.019-0.146-0.073-0.184-0.163C46.236,50.467,46.241,50.385,46.289,50.309z M46.458,47.432
		c0.019-0.01,0.099-0.015,0.241-0.015h8.122l0.297-0.014c0.199,0,0.298,0.005,0.298,0.014c0.113,0.02,0.191,0.085,0.234,0.199
		c0.042,0.113,0.021,0.208-0.064,0.283c-0.057,0.057-0.161,0.085-0.312,0.085h-8.519c-0.151,0-0.241-0.005-0.269-0.015
		c-0.151-0.028-0.229-0.115-0.234-0.262S46.317,47.47,46.458,47.432z"/>
</g>
<g>
	<path d="M62.756,36.527c-0.038-0.038-0.161-0.185-0.369-0.439c-0.094-0.123-0.142-0.193-0.142-0.212s0.028-0.118,0.085-0.298
		c0.189-0.539,0.468-0.992,0.836-1.361c0.558-0.5,1.247-0.744,2.069-0.729c0.822,0.014,1.517,0.267,2.083,0.758
		c0.482,0.416,0.789,0.94,0.921,1.573c0.132,0.633,0.057,1.233-0.227,1.8c-0.066,0.132-0.142,0.262-0.227,0.39
		c-0.085,0.127-0.187,0.258-0.305,0.39c-0.119,0.132-0.215,0.241-0.291,0.326c-0.076,0.085-0.196,0.198-0.362,0.34
		c-0.165,0.142-0.279,0.238-0.34,0.291c-0.062,0.052-0.189,0.156-0.383,0.312c-0.194,0.156-0.31,0.248-0.347,0.276
		c-0.142,0.104-0.555,0.461-1.24,1.07s-1.136,1.018-1.354,1.226h5.131v0.793h-5.953v-0.496c0-0.123,0.007-0.201,0.021-0.234
		c0.014-0.033,0.054-0.083,0.121-0.149l0.241-0.227l1.956-1.8c0.057-0.047,0.201-0.168,0.432-0.362
		c0.231-0.193,0.399-0.335,0.503-0.425c0.104-0.09,0.257-0.231,0.46-0.425s0.356-0.364,0.46-0.51s0.222-0.316,0.354-0.51
		s0.234-0.392,0.305-0.595s0.121-0.409,0.149-0.617c0.047-0.576-0.076-1.072-0.369-1.488c-0.406-0.557-1.011-0.869-1.814-0.936
		c-0.378-0.028-0.718,0.014-1.021,0.128C63.464,34.689,63.001,35.402,62.756,36.527z"/>
</g>
<g>
	<path d="M72.28,33.196h0.893l-0.936,4.465h0.014c0.123-0.227,0.312-0.449,0.567-0.666c0.624-0.558,1.318-0.808,2.083-0.751
		c0.604,0.057,1.016,0.274,1.233,0.652c0.18,0.35,0.189,0.912,0.028,1.687l-0.638,2.962c-0.132,0.699-0.227,1.144-0.283,1.333
		c0,0.104-0.071,0.156-0.213,0.156c-0.028,0-0.047,0-0.057,0h-0.666l0.893-4.195c0.009-0.047,0.028-0.135,0.057-0.262
		s0.047-0.224,0.057-0.291c0.009-0.066,0.019-0.153,0.028-0.262c0.009-0.108,0.004-0.206-0.014-0.291
		c-0.019-0.085-0.047-0.17-0.085-0.255c-0.208-0.406-0.676-0.586-1.403-0.539c-0.435,0.057-0.806,0.26-1.113,0.609
		s-0.541,0.756-0.701,1.219c-0.038,0.123-0.111,0.437-0.22,0.942c-0.109,0.506-0.225,1.063-0.347,1.672
		c-0.123,0.61-0.208,1.014-0.255,1.212c-0.009,0.028-0.021,0.076-0.036,0.142c-0.014,0.066-0.026,0.119-0.035,0.156
		c0,0.038-0.005,0.066-0.014,0.085c-0.01,0.019-0.028,0.033-0.057,0.042s-0.05,0.014-0.064,0.014s-0.042,0-0.085,0s-0.069,0-0.078,0
		h-0.638L72.28,33.196z"/>
	<path d="M78.587,42.196c0.869-0.264,1.656-0.715,2.359-1.354c0.704-0.638,1.283-1.372,1.736-2.204
		c0.227-0.416,0.411-0.865,0.553-1.347c0.019-0.066,0.047-0.179,0.085-0.34c0.038-0.161,0.071-0.284,0.1-0.369
		c0.094-0.236,0.264-0.354,0.51-0.354c0.113,0,0.193,0.024,0.241,0.071c0.038,0.028,0.068,0.062,0.092,0.099
		c0.023,0.038,0.038,0.071,0.042,0.1c0.004,0.028,0.004,0.073,0,0.134c-0.005,0.062-0.01,0.104-0.014,0.128
		c-0.005,0.023-0.017,0.068-0.036,0.134c-0.019,0.066-0.028,0.104-0.028,0.114c-0.321,1.219-0.905,2.312-1.75,3.281
		c-0.846,0.969-1.821,1.704-2.927,2.204c-0.52,0.246-1.054,0.425-1.602,0.539l0.042-0.227l-0.496,0.227l1.417-6.69h0.907
		l-0.879,4.195l-0.241,1.105L78.587,42.196z"/>
</g>
<g>
	<path d="M85.73,32.868c-0.205-0.271-0.308-0.423-0.308-0.457c0-0.033,0.062-0.129,0.188-0.288c0.218-0.251,0.496-0.463,0.833-0.635
		c0.317-0.152,0.656-0.233,1.017-0.243c0.36-0.01,0.703,0.058,1.027,0.203c0.509,0.251,0.807,0.599,0.893,1.042
		c0.066,0.39-0.02,0.767-0.258,1.131c-0.159,0.231-0.357,0.423-0.596,0.575c-0.026,0.02-0.079,0.05-0.159,0.089
		c-0.079,0.04-0.139,0.073-0.178,0.1c0.145,0.02,0.333,0.092,0.565,0.218c0.344,0.192,0.605,0.459,0.784,0.803
		c0.132,0.298,0.179,0.597,0.139,0.898c-0.04,0.301-0.152,0.584-0.337,0.848c-0.046,0.066-0.126,0.156-0.238,0.268
		c-0.311,0.304-0.694,0.496-1.151,0.576c-0.457,0.079-0.886,0.049-1.29-0.089c-0.51-0.152-0.946-0.437-1.31-0.854
		c-0.053-0.066-0.082-0.107-0.084-0.124c-0.003-0.016,0.001-0.064,0.015-0.144c0.033-0.212,0.06-0.337,0.08-0.377
		c0.502,0.661,1.157,1.021,1.964,1.081c0.489,0.046,0.89-0.066,1.2-0.337c0.271-0.225,0.427-0.531,0.466-0.917
		c0.04-0.387-0.043-0.723-0.248-1.007c-0.172-0.238-0.407-0.407-0.704-0.506c-0.166-0.053-0.417-0.079-0.754-0.079h-0.705v-0.526
		c0.06,0,0.146-0.005,0.258-0.015c0.112-0.01,0.195-0.018,0.248-0.024c0.258-0.013,0.47-0.046,0.635-0.1
		c0.284-0.092,0.522-0.254,0.714-0.486c0.191-0.231,0.288-0.489,0.288-0.774c0-0.542-0.341-0.853-1.022-0.933
		c-0.615-0.066-1.147,0.126-1.597,0.576c-0.126,0.125-0.248,0.294-0.367,0.506H85.73z"/>
</g>
<g>
	<rect x="61.608" y="48.79" width="29.044" height="0.574"/>
</g>
<g>
	<path d="M75.735,60.755c-0.009,0.037-0.021,0.122-0.035,0.255c-0.014,0.132-0.028,0.25-0.042,0.354
		c-0.014,0.104-0.026,0.165-0.036,0.184c-0.019,0.02-0.109,0.085-0.27,0.198c-0.368,0.236-0.772,0.421-1.211,0.553
		c-0.439,0.133-0.917,0.175-1.432,0.128c-0.515-0.047-0.952-0.231-1.311-0.553c-0.331-0.302-0.565-0.688-0.702-1.155
		c-0.137-0.468-0.168-0.961-0.092-1.48c0.113-0.784,0.427-1.508,0.942-2.169c0.515-0.661,1.136-1.129,1.864-1.403
		c0.312-0.113,0.702-0.175,1.169-0.184c0.467-0.01,0.872,0.042,1.211,0.155c0.217,0.066,0.524,0.213,0.921,0.439l-0.298,0.779
		c-0.435-0.264-0.666-0.406-0.694-0.425c-0.293-0.123-0.628-0.198-1.006-0.227s-0.742,0.009-1.091,0.113
		c-0.586,0.188-1.056,0.558-1.41,1.105s-0.588,1.157-0.702,1.828c-0.076,0.473-0.052,0.921,0.071,1.347
		c0.123,0.425,0.369,0.737,0.737,0.936c0.472,0.236,1.063,0.26,1.771,0.07c0.387-0.094,0.78-0.269,1.176-0.524
		c0.047-0.028,0.121-0.08,0.22-0.155C75.586,60.849,75.669,60.792,75.735,60.755z"/>
</g>
<g>
	<path d="M77.986,53.704c-0.04-0.033-0.091-0.089-0.154-0.169c-0.063-0.079-0.101-0.125-0.114-0.139
		c-0.073-0.086-0.109-0.139-0.109-0.158c-0.013-0.033,0-0.097,0.04-0.188c0.125-0.351,0.311-0.648,0.556-0.894
		c0.397-0.37,0.898-0.556,1.503-0.556c0.605,0,1.116,0.176,1.533,0.526c0.337,0.277,0.555,0.64,0.655,1.086
		c0.099,0.446,0.049,0.868-0.149,1.265c-0.073,0.133-0.152,0.259-0.238,0.378c-0.086,0.118-0.202,0.244-0.347,0.377
		c-0.146,0.132-0.251,0.227-0.317,0.282c-0.066,0.057-0.202,0.164-0.407,0.322c-0.205,0.159-0.321,0.248-0.347,0.269
		c-0.225,0.178-0.536,0.444-0.933,0.798c-0.397,0.354-0.688,0.607-0.873,0.76h3.661v0.585h-4.266v-0.367
		c0-0.093,0.005-0.15,0.015-0.174c0.01-0.022,0.038-0.058,0.084-0.104c0.146-0.126,0.409-0.362,0.789-0.71
		c0.38-0.347,0.656-0.59,0.828-0.729c0.04-0.033,0.137-0.111,0.293-0.233c0.155-0.122,0.27-0.215,0.342-0.278
		c0.073-0.062,0.178-0.156,0.317-0.282c0.139-0.126,0.248-0.238,0.327-0.338c0.08-0.099,0.166-0.213,0.258-0.342
		c0.092-0.129,0.164-0.262,0.213-0.396c0.049-0.136,0.084-0.273,0.104-0.412c0.046-0.377-0.023-0.711-0.208-1.002
		c-0.284-0.424-0.731-0.658-1.339-0.704c-0.291-0.021-0.542,0.013-0.754,0.099C78.512,52.461,78.191,52.937,77.986,53.704z"/>
</g>
<g>
	<path d="M122.137,34.429c0.945,0,1.715-0.217,2.31-0.652c0.047-0.028,0.09-0.062,0.127-0.1c0.038-0.038,0.066-0.066,0.085-0.085
		c0.019-0.019,0.042-0.038,0.071-0.057c0.028-0.019,0.063-0.03,0.106-0.035s0.097-0.007,0.163-0.007v8.83h1.857v0.708h-4.635v-0.708
		h1.856v-7.597c-0.633,0.274-1.28,0.411-1.941,0.411V34.429z"/>
</g>
<g>
	<rect x="93.043" y="48.79" width="62.653" height="0.574"/>
</g>
<g>
	<path d="M99.407,61.062c-0.038,0.463-0.071,0.718-0.099,0.765c-0.028,0.038-0.146,0.123-0.354,0.255
		c-0.359,0.208-0.728,0.374-1.105,0.496c-0.378,0.123-0.806,0.173-1.283,0.149s-0.896-0.168-1.254-0.433
		c-0.737-0.548-1.077-1.355-1.021-2.424c0.038-0.68,0.229-1.329,0.574-1.948c0.345-0.619,0.768-1.112,1.269-1.481
		c0.416-0.312,0.859-0.518,1.332-0.616c0.473-0.1,0.955-0.068,1.446,0.092c0.17,0.066,0.326,0.151,0.468,0.255
		c0.5,0.388,0.732,1.059,0.694,2.013c0,0.501-0.047,0.789-0.142,0.865c-0.019,0.019-0.081,0.028-0.184,0.028h-4.493l-0.085,0.411
		c-0.066,0.595,0.005,1.119,0.212,1.573c0.18,0.35,0.416,0.604,0.709,0.765c0.255,0.161,0.56,0.229,0.914,0.206
		s0.678-0.083,0.971-0.178c0.293-0.094,0.562-0.217,0.808-0.368c0.085-0.047,0.203-0.125,0.354-0.234
		C99.289,61.144,99.378,61.08,99.407,61.062z M99.308,58.524c0.075-0.596,0.004-1.072-0.213-1.432
		c-0.179-0.303-0.458-0.496-0.836-0.581s-0.723-0.057-1.035,0.085c-0.397,0.151-0.749,0.401-1.056,0.751s-0.55,0.742-0.729,1.177
		H99.308z"/>
</g>
<g>
	<path d="M102.849,51.641h0.655l-0.665,3.155h0.01c0.06-0.112,0.168-0.248,0.327-0.406c0.477-0.477,1.005-0.682,1.587-0.615
		c0.43,0.026,0.721,0.168,0.873,0.427c0.146,0.244,0.162,0.647,0.05,1.21l-0.437,2.063c-0.02,0.073-0.044,0.184-0.074,0.332
		c-0.03,0.149-0.058,0.283-0.084,0.402s-0.043,0.188-0.05,0.208c0,0.073-0.053,0.109-0.159,0.109c-0.02,0-0.033,0-0.04,0h-0.496
		c0.357-1.693,0.565-2.669,0.625-2.927c0.006-0.02,0.018-0.069,0.035-0.148c0.017-0.08,0.028-0.136,0.035-0.169
		c0.007-0.033,0.013-0.084,0.02-0.154c0.006-0.069,0.008-0.125,0.005-0.168s-0.01-0.093-0.02-0.149
		c-0.01-0.056-0.028-0.107-0.055-0.153c-0.099-0.186-0.288-0.298-0.565-0.338c-0.437-0.072-0.814,0.027-1.131,0.298
		c-0.251,0.219-0.446,0.526-0.585,0.923c-0.014,0.047-0.063,0.27-0.149,0.67s-0.179,0.825-0.278,1.274
		c-0.099,0.45-0.152,0.698-0.159,0.744c-0.014,0.079-0.027,0.146-0.04,0.198c0,0.027-0.003,0.047-0.01,0.06
		c-0.007,0.014-0.02,0.023-0.04,0.03c-0.02,0.007-0.037,0.01-0.05,0.01s-0.035,0-0.064,0s-0.048,0-0.055,0h-0.476L102.849,51.641z"
		/>
	<path d="M107.443,57.911c0.04-0.02,0.099-0.043,0.178-0.069c0.08-0.026,0.136-0.046,0.169-0.06c0.674-0.277,1.268-0.697,1.781-1.26
		s0.891-1.207,1.136-1.935c0.013-0.04,0.032-0.1,0.055-0.179c0.023-0.079,0.038-0.139,0.045-0.179
		c0.033-0.146,0.053-0.222,0.06-0.229c0.079-0.158,0.205-0.237,0.377-0.237c0.079,0,0.139,0.02,0.178,0.059
		c0.093,0.066,0.106,0.232,0.04,0.496c-0.139,0.523-0.361,1.025-0.665,1.509c-0.43,0.681-0.98,1.262-1.652,1.741
		s-1.394,0.798-2.167,0.957l0.03-0.169l-0.367,0.169l0.992-4.683h0.674l-0.367,1.736l-0.298,1.418L107.443,57.911z"/>
	<path d="M116.133,51.096c0.125-0.033,0.208,0.017,0.248,0.148c0.013,0.047,0.006,0.103-0.02,0.169
		c-0.006,0.02-0.278,0.728-0.813,2.123s-1.082,2.822-1.637,4.281c-0.556,1.458-0.863,2.264-0.923,2.415l-0.099,0.259
		c-0.053,0.145-0.126,0.225-0.218,0.237c-0.073,0-0.126-0.017-0.159-0.049c-0.08-0.06-0.08-0.199,0-0.417l0.615-1.598l2.719-7.113
		l0.089-0.218C115.988,51.194,116.054,51.115,116.133,51.096z"/>
	<path d="M119.269,51.641h0.605l-0.942,4.455l2.5-2.034l0.268-0.208c0.172-0.007,0.44-0.01,0.804-0.01v0.01l-1.994,1.617
		l-0.159,0.148c0.033,0.106,0.094,0.243,0.184,0.412c0.089,0.169,0.147,0.286,0.173,0.353l1.042,2.143
		c-0.371,0-0.602-0.007-0.695-0.02c-0.132-0.238-0.266-0.493-0.402-0.765c-0.135-0.271-0.286-0.58-0.451-0.927
		c-0.166-0.348-0.291-0.61-0.377-0.789c-0.073,0.06-0.172,0.143-0.298,0.248s-0.241,0.202-0.347,0.287
		c-0.106,0.087-0.208,0.166-0.308,0.238l-0.109,0.109c-0.086,0.317-0.195,0.813-0.328,1.488l-0.04,0.109
		c-0.073,0.013-0.268,0.02-0.585,0.02L119.269,51.641z"/>
	<path d="M123.435,52.227c0.073-0.311,0.116-0.489,0.129-0.536c0.093-0.026,0.349-0.034,0.769-0.024s0.686,0.012,0.799,0.005h5.03
		l-0.089,0.396c0,0.073-0.013,0.119-0.04,0.14c-0.02,0.013-0.073,0.02-0.159,0.02h-2.58c-0.119,0-0.185,0.007-0.198,0.02
		c-0.014,0.014-0.025,0.045-0.035,0.095c-0.01,0.049-0.02,0.104-0.03,0.163c-0.01,0.06-0.019,0.097-0.025,0.109l-1.23,5.784
		c-0.02,0.066-0.033,0.103-0.04,0.109c-0.007,0.013-0.066,0.02-0.179,0.02h-0.506l1.339-6.3H123.435z"/>
</g>
<g>
	<path d="M135.471,58.609c0.019-0.01,0.094-0.015,0.227-0.015h7.441h0.539c0.113,0.02,0.187,0.085,0.22,0.198
		c0.033,0.114,0.012,0.208-0.064,0.284c-0.028,0.028-0.071,0.052-0.127,0.07c-0.057,0.02-0.106,0.028-0.149,0.028
		s-0.099-0.002-0.17-0.007s-0.116-0.007-0.135-0.007h-7.54c-0.142,0-0.222-0.005-0.241-0.015c-0.142-0.037-0.21-0.125-0.206-0.262
		C135.27,58.749,135.338,58.656,135.471,58.609z"/>
</g>
<g>
	<path d="M149.743,54.017c0.945,0,1.715-0.217,2.31-0.651c0.047-0.028,0.09-0.062,0.127-0.1c0.038-0.037,0.066-0.065,0.085-0.085
		c0.019-0.019,0.042-0.037,0.071-0.057c0.028-0.019,0.063-0.03,0.106-0.035s0.097-0.007,0.163-0.007v8.829h1.857v0.709h-4.635
		v-0.709h1.856v-7.597c-0.633,0.274-1.28,0.411-1.941,0.411V54.017z"/>
</g>
</svg>
