<?xml version="1.0" encoding="iso-8859-1"?>
<!-- Generator: Adobe Illustrator 16.0.0, SVG Export Plug-In . SVG Version: 6.00 Build 0)  -->
<!DOCTYPE svg PUBLIC "-//W3C//DTD SVG 1.1//EN" "http://www.w3.org/Graphics/SVG/1.1/DTD/svg11.dtd">
<svg version="1.1" id="Layer_1" xmlns="http://www.w3.org/2000/svg" xmlns:xlink="http://www.w3.org/1999/xlink" x="0px" y="0px"
	 width="566.93px" height="85.04px" viewBox="0 0 566.93 85.04" style="enable-background:new 0 0 566.93 85.04;"
	 xml:space="preserve">
<g>
	<path d="M26.877,51.764l-0.411,1.928c0,0.019-0.026,0.155-0.078,0.411c-0.052,0.255-0.097,0.448-0.134,0.581
		c-0.057,0.17-0.17,0.295-0.34,0.375s-0.326,0.055-0.468-0.078c-0.095-0.085-0.109-0.273-0.042-0.566l0.297-1.432
		c0.539-2.57,0.851-3.992,0.936-4.267c0.236-0.803,0.662-1.511,1.276-2.126c0.377-0.358,0.805-0.623,1.283-0.793
		c0.477-0.17,0.933-0.165,1.368,0.014c0.368,0.17,0.656,0.411,0.864,0.723c0.293,0.436,0.439,1.002,0.439,1.701
		c0,0.661-0.14,1.307-0.418,1.935c-0.279,0.629-0.664,1.165-1.155,1.608c-0.369,0.331-0.777,0.569-1.226,0.716
		s-0.881,0.145-1.297-0.007C27.439,52.373,27.142,52.132,26.877,51.764z M29.613,46.392c-0.567,0.057-1.054,0.369-1.46,0.936
		c-0.491,0.681-0.779,1.63-0.865,2.849c-0.028,0.388,0.043,0.747,0.213,1.077c0.17,0.331,0.43,0.534,0.779,0.609
		c0.085,0.02,0.213,0.028,0.383,0.028c0.435-0.037,0.841-0.245,1.219-0.623c0.482-0.491,0.822-1.262,1.021-2.311
		c0.066-0.415,0.099-0.694,0.099-0.836c0-0.822-0.231-1.352-0.694-1.588C30.127,46.439,29.896,46.392,29.613,46.392z"/>
</g>
<g>
	<path d="M37.01,55.633h-0.468c-0.132,0-0.212-0.005-0.241-0.015c-0.113-0.057-0.321-0.236-0.624-0.538
		c-0.548-0.548-0.992-1.162-1.333-1.843c-0.728-1.455-1.054-3.118-0.978-4.988c0.057-1.2,0.281-2.299,0.673-3.296
		s0.928-1.835,1.609-2.516c0.321-0.321,0.539-0.51,0.652-0.567c0.028-0.009,0.108-0.014,0.241-0.014h0.468
		c-0.038,0.048-0.165,0.165-0.382,0.354c-0.444,0.378-0.889,0.982-1.333,1.814c-0.614,1.181-0.955,2.589-1.021,4.224
		c-0.057,1.332,0.092,2.589,0.447,3.77c0.354,1.181,0.886,2.159,1.594,2.934c0.132,0.151,0.236,0.26,0.312,0.326
		C36.845,55.468,36.973,55.585,37.01,55.633z"/>
</g>
<g>
	<path d="M40.686,44.309c-0.028,0.01-0.052,0.026-0.071,0.05s-0.038,0.054-0.057,0.092s-0.038,0.066-0.057,0.085
		c-0.123,0.151-0.284,0.213-0.482,0.185l-0.042-0.015c-0.028-0.009-0.047-0.019-0.057-0.028c-0.161-0.094-0.189-0.293-0.085-0.595
		c0.179-0.558,0.51-0.979,0.992-1.262c0.434-0.255,0.926-0.392,1.474-0.411c0.548-0.019,1.054,0.08,1.517,0.298
		c0.454,0.217,0.834,0.538,1.141,0.964c0.307,0.425,0.517,0.902,0.631,1.432c0.198,0.85,0.156,1.842-0.128,2.976
		c-0.463,1.806-1.2,3.104-2.211,3.898c-0.747,0.566-1.559,0.812-2.438,0.736c-0.879-0.057-1.573-0.505-2.083-1.347
		c-0.34-0.613-0.411-1.355-0.213-2.225c0.189-0.917,0.624-1.715,1.304-2.396c0.435-0.435,0.855-0.723,1.261-0.864
		c0.558-0.161,1.077-0.182,1.559-0.064c0.482,0.119,0.888,0.324,1.219,0.617c0.255,0.217,0.458,0.491,0.609,0.822
		c0.019,0.037,0.045,0.104,0.078,0.198s0.059,0.16,0.078,0.198c0.019-0.132,0.038-0.231,0.057-0.298
		c0.009-0.075,0.026-0.182,0.049-0.318c0.024-0.138,0.041-0.239,0.05-0.305c0.132-1.276-0.071-2.216-0.609-2.821
		c-0.274-0.302-0.624-0.528-1.049-0.68c-0.369-0.142-0.785-0.163-1.247-0.064c-0.463,0.1-0.799,0.324-1.006,0.674
		C40.775,44.001,40.714,44.157,40.686,44.309z M42.373,46.463c-0.586-0.028-1.094,0.099-1.524,0.383
		c-0.43,0.283-0.768,0.656-1.013,1.119c-0.151,0.284-0.293,0.737-0.425,1.361c-0.113,0.633-0.127,1.105-0.042,1.417
		c0.208,0.604,0.543,0.978,1.006,1.119c0.444,0.171,0.982,0.18,1.616,0.028c0.472-0.15,0.874-0.396,1.205-0.736
		c0.217-0.246,0.43-0.564,0.638-0.957c0.208-0.392,0.354-0.772,0.439-1.141c0.113-0.378,0.116-0.777,0.007-1.198
		c-0.109-0.42-0.324-0.753-0.645-0.999C43.293,46.595,42.873,46.463,42.373,46.463z"/>
</g>
<g>
	<path d="M46.358,49.93h0.893l0.079-0.021c0.046-0.132,0.098-0.35,0.154-0.654c0.056-0.304,0.107-0.52,0.154-0.645
		c0.08-0.014,0.285-0.021,0.615-0.021l-0.288,1.34h1.567c-0.04,0.238-0.079,0.406-0.119,0.506c-0.086,0.026-0.339,0.034-0.759,0.024
		s-0.686-0.011-0.799-0.005c-0.013,0.086-0.058,0.303-0.134,0.65c-0.076,0.347-0.157,0.728-0.243,1.141s-0.146,0.696-0.178,0.849
		c-0.04,0.172-0.066,0.301-0.08,0.387s-0.01,0.19,0.01,0.312c0.02,0.122,0.073,0.217,0.159,0.282
		c0.073,0.054,0.208,0.073,0.407,0.06c0.218-0.02,0.433-0.082,0.645-0.188c0.026-0.02,0.078-0.055,0.154-0.104
		c0.076-0.05,0.137-0.085,0.184-0.104c0,0.04,0.001,0.1,0.005,0.179s0.005,0.139,0.005,0.179c0,0.093-0.003,0.142-0.01,0.148
		c-0.026,0.033-0.179,0.109-0.457,0.229c-0.403,0.146-0.777,0.218-1.121,0.218c-0.278,0-0.473-0.096-0.585-0.287
		c-0.06-0.119-0.089-0.274-0.089-0.467c0-0.179,0.04-0.446,0.119-0.804c0.179-0.893,0.367-1.785,0.566-2.679H46.25L46.358,49.93z"/>
</g>
<g>
	<path d="M53.761,45.795c-0.014,0.113-0.822,3.856-0.879,4.153c-0.071,0.354-0.156,0.709-0.212,1.063
		c-0.028,0.185-0.057,0.411,0.042,0.581c0.142,0.27,0.482,0.312,0.751,0.326c0.723,0.071,1.418-0.142,1.942-0.666
		c0.439-0.439,0.567-0.794,0.708-1.432c0.042-0.227,0.794-3.672,0.851-4.026h0.907l-1.375,6.507l-0.057,0.156
		c-0.255,0.042-0.581,0.028-0.879,0.028l0.255-1.22c-0.17,0.199-0.34,0.383-0.539,0.539c-0.624,0.496-1.417,0.794-2.225,0.794
		c-0.454,0-0.993-0.113-1.205-0.567c-0.213-0.368-0.099-0.978-0.014-1.417c0.071-0.326,0.638-3.02,0.737-3.474
		c0.1-0.453,0.213-0.893,0.284-1.347H53.761z M58.311,42.634c0.014-0.199,0.227-0.312,0.397-0.227
		c0.113,0.042,0.142,0.156,0.198,0.255c0.114,0.227,0.298,0.439,0.511,0.567c0.156,0.1,0.411,0.185,0.34,0.439
		c-0.028,0.156-0.184,0.198-0.312,0.255c-0.383,0.17-0.638,0.383-0.907,0.652c-0.114,0.128-0.241,0.298-0.439,0.227
		c-0.156-0.042-0.241-0.227-0.17-0.383c0.099-0.212,0.326-0.396,0.51-0.538h-4.692c-0.284,0-0.581,0-0.581-0.298
		c0.014-0.142,0.127-0.241,0.255-0.27c0.114-0.014,0.241,0,0.354,0h4.862C58.566,43.201,58.283,42.847,58.311,42.634z"/>
</g>
<g>
	<path d="M66.683,48.461v-3.926c0-0.16,0.004-0.26,0.014-0.298c0.028-0.142,0.118-0.212,0.269-0.212c0.151,0,0.241,0.07,0.27,0.212
		c0.009,0.028,0.014,0.123,0.014,0.283v3.94h3.926c0.161,0,0.255,0.005,0.284,0.015c0.142,0.028,0.212,0.118,0.212,0.269
		c0,0.151-0.071,0.241-0.212,0.27c-0.028,0.01-0.123,0.015-0.284,0.015H67.25v3.939c0,0.161-0.005,0.256-0.014,0.284
		c-0.028,0.142-0.118,0.212-0.27,0.212c-0.151,0-0.241-0.07-0.269-0.212c-0.01-0.028-0.014-0.123-0.014-0.284v-3.939h-3.94
		c-0.161,0-0.255-0.005-0.283-0.015c-0.142-0.028-0.213-0.118-0.213-0.27c0-0.15,0.071-0.24,0.213-0.269
		c0.028-0.01,0.123-0.015,0.283-0.015H66.683z"/>
</g>
<g>
	<path d="M79.101,45.795c-0.014,0.113-0.822,3.856-0.879,4.153c-0.071,0.354-0.156,0.709-0.212,1.063
		c-0.028,0.185-0.057,0.411,0.042,0.581c0.142,0.27,0.482,0.312,0.751,0.326c0.723,0.071,1.417-0.142,1.942-0.666
		c0.439-0.439,0.567-0.794,0.709-1.432c0.042-0.227,0.793-3.672,0.85-4.026h0.907l-1.375,6.507l-0.057,0.156
		c-0.255,0.042-0.581,0.028-0.879,0.028l0.255-1.22c-0.17,0.199-0.34,0.383-0.539,0.539C79.994,52.302,79.2,52.6,78.392,52.6
		c-0.454,0-0.992-0.113-1.205-0.567c-0.212-0.368-0.099-0.978-0.014-1.417c0.071-0.326,0.638-3.02,0.737-3.474
		c0.099-0.453,0.212-0.893,0.283-1.347H79.101z M83.651,42.634c0.014-0.199,0.227-0.312,0.397-0.227
		c0.114,0.042,0.142,0.156,0.199,0.255c0.113,0.227,0.297,0.439,0.51,0.567c0.156,0.1,0.411,0.185,0.34,0.439
		c-0.028,0.156-0.185,0.198-0.312,0.255c-0.383,0.17-0.638,0.383-0.907,0.652c-0.113,0.128-0.241,0.298-0.439,0.227
		c-0.156-0.042-0.241-0.227-0.17-0.383c0.099-0.212,0.326-0.396,0.51-0.538h-4.692c-0.283,0-0.581,0-0.581-0.298
		c0.014-0.142,0.127-0.241,0.255-0.27c0.113-0.014,0.241,0,0.354,0h4.862C83.906,43.201,83.623,42.847,83.651,42.634z"/>
</g>
<g>
	<path d="M92.324,39.642c0.014-0.198,0.227-0.312,0.397-0.227c0.113,0.042,0.142,0.156,0.198,0.255
		c0.113,0.227,0.298,0.439,0.51,0.567c0.156,0.1,0.411,0.185,0.34,0.439c-0.028,0.156-0.184,0.199-0.312,0.255
		c-0.383,0.17-0.638,0.383-0.907,0.652c-0.113,0.128-0.241,0.298-0.439,0.227c-0.156-0.042-0.241-0.227-0.17-0.383
		c0.099-0.212,0.326-0.397,0.51-0.539H87.76c-0.284,0-0.582,0-0.582-0.298c0.014-0.142,0.128-0.241,0.255-0.269
		c0.113-0.014,0.241,0,0.354,0h4.862C92.579,40.209,92.296,39.855,92.324,39.642z"/>
</g>
<g>
	<path d="M84.337,43.019c-0.038-0.085-0.035-0.142,0.007-0.17s0.111-0.043,0.206-0.043h10.049c0.085,0,0.137,0.02,0.156,0.057
		c0.019,0.038,0.014,0.095-0.014,0.171c-0.028,0.075-0.071,0.162-0.127,0.262s-0.085,0.153-0.085,0.163l-0.851,1.701l-3.756,7.525
		c-0.066,0.123-0.123,0.198-0.17,0.227c-0.066,0.048-0.154,0.064-0.262,0.05c-0.109-0.014-0.191-0.055-0.248-0.12
		c-0.029-0.038-0.092-0.158-0.191-0.361s-0.154-0.314-0.163-0.333c-0.038-0.085-0.267-0.548-0.688-1.39
		c-0.42-0.841-0.933-1.865-1.538-3.075c-0.605-1.209-1.03-2.064-1.276-2.565C84.725,43.803,84.375,43.104,84.337,43.019z
		 M93.848,43.826h-7.767l3.869,7.796h0.014L93.848,43.826z"/>
	<path d="M99.899,48.391c0.151-0.312,0.425-0.439,0.822-0.383c0.17,0.047,0.302,0.123,0.397,0.227
		c0.151,0.161,0.217,0.354,0.198,0.581s-0.118,0.401-0.297,0.524c-0.18,0.133-0.378,0.18-0.596,0.142
		c-0.246-0.047-0.423-0.187-0.531-0.418C99.784,48.832,99.786,48.607,99.899,48.391z"/>
</g>
<g>
	<path d="M109.165,45.795c-0.014,0.113-0.822,3.856-0.878,4.153c-0.071,0.354-0.156,0.709-0.213,1.063
		c-0.028,0.185-0.057,0.411,0.042,0.581c0.142,0.27,0.482,0.312,0.751,0.326c0.723,0.071,1.417-0.142,1.942-0.666
		c0.439-0.439,0.567-0.794,0.709-1.432c0.042-0.227,0.793-3.672,0.851-4.026h0.907l-1.375,6.507l-0.057,0.156
		c-0.255,0.042-0.581,0.028-0.879,0.028l0.255-1.22c-0.17,0.199-0.34,0.383-0.539,0.539c-0.624,0.496-1.417,0.794-2.226,0.794
		c-0.454,0-0.992-0.113-1.205-0.567c-0.212-0.368-0.099-0.978-0.014-1.417c0.071-0.326,0.638-3.02,0.737-3.474
		c0.099-0.453,0.212-0.893,0.283-1.347H109.165z M113.715,42.634c0.015-0.199,0.227-0.312,0.397-0.227
		c0.114,0.042,0.142,0.156,0.199,0.255c0.113,0.227,0.297,0.439,0.51,0.567c0.156,0.1,0.411,0.185,0.34,0.439
		c-0.028,0.156-0.185,0.198-0.312,0.255c-0.383,0.17-0.638,0.383-0.907,0.652c-0.113,0.128-0.241,0.298-0.439,0.227
		c-0.156-0.042-0.241-0.227-0.17-0.383c0.099-0.212,0.326-0.396,0.51-0.538h-4.692c-0.283,0-0.581,0-0.581-0.298
		c0.014-0.142,0.127-0.241,0.255-0.27c0.113-0.014,0.241,0,0.354,0h4.862C113.97,43.201,113.687,42.847,113.715,42.634z"/>
</g>
<g>
	<path d="M114.529,41.856h0.467c0.142,0,0.222,0.005,0.241,0.014c0.113,0.058,0.321,0.236,0.624,0.539
		c0.548,0.548,0.992,1.162,1.333,1.843c0.727,1.455,1.053,3.118,0.978,4.988c-0.057,1.2-0.281,2.299-0.673,3.296
		c-0.393,0.996-0.929,1.835-1.609,2.516c-0.321,0.321-0.539,0.51-0.652,0.566c-0.028,0.01-0.109,0.015-0.241,0.015h-0.467
		c0.038-0.048,0.165-0.165,0.382-0.354c0.076-0.066,0.18-0.175,0.312-0.326c0.416-0.463,0.76-0.973,1.035-1.53
		c0.746-1.475,1.082-3.198,1.006-5.173c-0.095-2.362-0.775-4.267-2.041-5.712c-0.132-0.151-0.236-0.26-0.312-0.326
		C114.694,42.021,114.567,41.904,114.529,41.856z"/>
	<path d="M124.252,49.978c0.057-0.094,0.198-0.142,0.425-0.142h8.093h0.595c0.123,0.02,0.208,0.083,0.255,0.191
		s0.023,0.205-0.071,0.29c-0.057,0.058-0.156,0.086-0.297,0.086h-8.575c-0.142,0-0.227-0.005-0.255-0.015
		c-0.085-0.019-0.146-0.073-0.184-0.163C124.2,50.136,124.205,50.054,124.252,49.978z M124.422,47.101
		c0.019-0.01,0.099-0.015,0.241-0.015h8.122l0.297-0.014c0.199,0,0.298,0.005,0.298,0.014c0.113,0.02,0.191,0.085,0.234,0.199
		c0.042,0.113,0.021,0.208-0.064,0.283c-0.057,0.057-0.161,0.085-0.312,0.085h-8.519c-0.151,0-0.241-0.005-0.269-0.015
		c-0.151-0.028-0.229-0.115-0.234-0.262S124.28,47.139,124.422,47.101z"/>
</g>
<g>
	<path d="M139.781,48.476c0.019-0.01,0.094-0.015,0.227-0.015h7.441h0.539c0.113,0.02,0.187,0.085,0.22,0.198
		c0.033,0.114,0.012,0.208-0.064,0.284c-0.028,0.028-0.071,0.052-0.127,0.07c-0.057,0.02-0.106,0.028-0.149,0.028
		s-0.099-0.002-0.17-0.007s-0.116-0.007-0.135-0.007h-7.54c-0.142,0-0.222-0.005-0.241-0.015c-0.142-0.037-0.21-0.125-0.206-0.262
		C139.58,48.615,139.648,48.522,139.781,48.476z"/>
</g>
<g>
	<path d="M158.097,39.642c0.014-0.198,0.227-0.312,0.397-0.227c0.113,0.042,0.142,0.156,0.198,0.255
		c0.113,0.227,0.298,0.439,0.51,0.567c0.156,0.1,0.411,0.185,0.34,0.439c-0.028,0.156-0.184,0.199-0.312,0.255
		c-0.382,0.17-0.638,0.383-0.907,0.652c-0.113,0.128-0.241,0.298-0.439,0.227c-0.156-0.042-0.241-0.227-0.17-0.383
		c0.099-0.212,0.326-0.397,0.51-0.539h-4.692c-0.284,0-0.582,0-0.582-0.298c0.015-0.142,0.128-0.241,0.255-0.269
		c0.113-0.014,0.241,0,0.354,0h4.862C158.352,40.209,158.069,39.855,158.097,39.642z"/>
</g>
<g>
	<path d="M150.11,43.019c-0.038-0.085-0.035-0.142,0.007-0.17s0.111-0.043,0.206-0.043h10.049c0.085,0,0.137,0.02,0.156,0.057
		c0.019,0.038,0.014,0.095-0.014,0.171c-0.028,0.075-0.071,0.162-0.127,0.262s-0.085,0.153-0.085,0.163l-0.851,1.701l-3.756,7.525
		c-0.066,0.123-0.123,0.198-0.17,0.227c-0.066,0.048-0.154,0.064-0.262,0.05c-0.109-0.014-0.191-0.055-0.248-0.12
		c-0.029-0.038-0.092-0.158-0.191-0.361s-0.154-0.314-0.163-0.333c-0.038-0.085-0.267-0.548-0.688-1.39
		c-0.42-0.841-0.933-1.865-1.538-3.075c-0.605-1.209-1.03-2.064-1.276-2.565C150.498,43.803,150.148,43.104,150.11,43.019z
		 M159.621,43.826h-7.767l3.869,7.796h0.014L159.621,43.826z"/>
</g>
<g>
	<path d="M164.7,42.65h2.792c0.756,0,1.209,0.009,1.36,0.028c1.313,0.208,2.098,0.827,2.353,1.856
		c0.132,0.576,0.042,1.134-0.27,1.673c-0.312,0.538-0.737,0.982-1.275,1.332c-0.643,0.425-1.384,0.676-2.225,0.751
		c0,0.02-0.189,0.023-0.567,0.015l-0.581-0.015h-1.602c-0.085,0-0.137,0.01-0.156,0.028c-0.028,0.02-0.057,0.108-0.085,0.27
		l-0.17,0.779l-0.609,2.877c-0.028,0.133-0.052,0.203-0.071,0.213c-0.019,0.019-0.108,0.028-0.269,0.028h-0.708L164.7,42.65z
		 M164.643,47.568h1.871h0.723c1.011-0.047,1.786-0.326,2.325-0.836c0.5-0.473,0.751-1.025,0.751-1.658
		c0-0.614-0.26-1.059-0.779-1.333c-0.407-0.227-1.068-0.34-1.984-0.34h-2.027L164.643,47.568z"/>
</g>
<g>
	<path d="M180.093,48.461v-3.926c0-0.16,0.004-0.26,0.014-0.298c0.028-0.142,0.118-0.212,0.269-0.212c0.151,0,0.241,0.07,0.27,0.212
		c0.009,0.028,0.014,0.123,0.014,0.283v3.94h3.926c0.161,0,0.255,0.005,0.284,0.015c0.142,0.028,0.212,0.118,0.212,0.269
		c0,0.151-0.071,0.241-0.212,0.27c-0.028,0.01-0.123,0.015-0.284,0.015h-3.926v3.939c0,0.161-0.005,0.256-0.014,0.284
		c-0.028,0.142-0.118,0.212-0.27,0.212c-0.151,0-0.241-0.07-0.269-0.212c-0.01-0.028-0.014-0.123-0.014-0.284v-3.939h-3.94
		c-0.161,0-0.255-0.005-0.283-0.015c-0.142-0.028-0.213-0.118-0.213-0.27c0-0.15,0.071-0.24,0.213-0.269
		c0.028-0.01,0.123-0.015,0.283-0.015H180.093z"/>
</g>
<g>
	<path d="M197.717,39.642c0.014-0.198,0.227-0.312,0.397-0.227c0.113,0.042,0.142,0.156,0.198,0.255
		c0.113,0.227,0.298,0.439,0.51,0.567c0.156,0.1,0.411,0.185,0.34,0.439c-0.028,0.156-0.185,0.199-0.312,0.255
		c-0.383,0.17-0.638,0.383-0.907,0.652c-0.113,0.128-0.241,0.298-0.439,0.227c-0.156-0.042-0.241-0.227-0.17-0.383
		c0.099-0.212,0.326-0.397,0.51-0.539h-4.692c-0.284,0-0.582,0-0.582-0.298c0.014-0.142,0.128-0.241,0.255-0.269
		c0.113-0.014,0.241,0,0.354,0h4.862C197.972,40.209,197.689,39.855,197.717,39.642z"/>
</g>
<g>
	<path d="M189.73,43.019c-0.038-0.085-0.035-0.142,0.007-0.17s0.111-0.043,0.206-0.043h10.049c0.085,0,0.137,0.02,0.156,0.057
		c0.019,0.038,0.014,0.095-0.014,0.171c-0.028,0.075-0.071,0.162-0.127,0.262s-0.085,0.153-0.085,0.163l-0.851,1.701l-3.756,7.525
		c-0.066,0.123-0.123,0.198-0.17,0.227c-0.066,0.048-0.154,0.064-0.262,0.05c-0.109-0.014-0.191-0.055-0.248-0.12
		c-0.029-0.038-0.092-0.158-0.191-0.361s-0.154-0.314-0.163-0.333c-0.038-0.085-0.267-0.548-0.688-1.39
		c-0.42-0.841-0.933-1.865-1.538-3.075c-0.605-1.209-1.03-2.064-1.276-2.565C190.118,43.803,189.768,43.104,189.73,43.019z
		 M199.241,43.826h-7.767l3.869,7.796h0.014L199.241,43.826z"/>
	<path d="M205.292,48.391c0.151-0.312,0.425-0.439,0.822-0.383c0.17,0.047,0.302,0.123,0.397,0.227
		c0.151,0.161,0.217,0.354,0.198,0.581s-0.118,0.401-0.297,0.524c-0.18,0.133-0.378,0.18-0.596,0.142
		c-0.246-0.047-0.423-0.187-0.531-0.418C205.177,48.832,205.179,48.607,205.292,48.391z"/>
</g>
<g>
	<path d="M211.974,47.113c0.369-0.51,0.851-0.992,1.446-1.205c0.411-0.155,0.85-0.113,1.29-0.113h3.629
		c0.199,0,0.454-0.028,0.553,0.185c0.142,0.298-0.128,0.638-0.425,0.681c-0.099,0.014-0.213,0-0.312,0h-2.197
		c-0.014,0.113-1.091,5.174-1.134,5.344c-0.028,0.128-0.042,0.255-0.128,0.369c-0.142,0.198-0.468,0.312-0.68,0.155
		c-0.156-0.113-0.142-0.298-0.113-0.468c0,0,1.077-4.947,1.148-5.4h-0.879c-0.283,0-0.539,0-0.794,0.127
		c-0.396,0.213-0.666,0.582-0.893,0.979c-0.029,0.043-0.057,0.113-0.114,0.142c-0.057,0.043-0.184,0.028-0.255,0.028h-0.624
		C211.548,47.737,211.86,47.283,211.974,47.113z M218.452,42.634c0.014-0.199,0.227-0.312,0.397-0.227
		c0.113,0.042,0.142,0.156,0.198,0.255c0.113,0.227,0.298,0.439,0.51,0.567c0.156,0.1,0.411,0.185,0.34,0.439
		c-0.028,0.156-0.184,0.198-0.312,0.255c-0.382,0.17-0.638,0.383-0.907,0.652c-0.113,0.128-0.241,0.298-0.439,0.227
		c-0.156-0.042-0.241-0.227-0.17-0.383c0.099-0.212,0.326-0.396,0.51-0.538h-4.692c-0.284,0-0.581,0-0.581-0.298
		c0.014-0.142,0.127-0.241,0.255-0.27c0.113-0.014,0.241,0,0.354,0h4.862C218.707,43.201,218.424,42.847,218.452,42.634z"/>
</g>
<g>
	<path d="M227.822,48.461v-3.926c0-0.16,0.004-0.26,0.014-0.298c0.028-0.142,0.118-0.212,0.269-0.212c0.151,0,0.241,0.07,0.27,0.212
		c0.009,0.028,0.014,0.123,0.014,0.283v3.94h3.926c0.161,0,0.255,0.005,0.284,0.015c0.142,0.028,0.212,0.118,0.212,0.269
		c0,0.151-0.071,0.241-0.212,0.27c-0.028,0.01-0.123,0.015-0.284,0.015h-3.926v3.939c0,0.161-0.005,0.256-0.014,0.284
		c-0.028,0.142-0.118,0.212-0.27,0.212c-0.151,0-0.241-0.07-0.269-0.212c-0.01-0.028-0.014-0.123-0.014-0.284v-3.939h-3.94
		c-0.161,0-0.255-0.005-0.283-0.015c-0.142-0.028-0.213-0.118-0.213-0.27c0-0.15,0.071-0.24,0.213-0.269
		c0.028-0.01,0.123-0.015,0.283-0.015H227.822z"/>
</g>
<g>
	<path d="M238.325,53.691c-0.071,0.325-0.113,0.666-0.212,0.992c-0.099,0.312-0.539,0.581-0.808,0.297
		c-0.156-0.142-0.085-0.382-0.042-0.566l0.298-1.432c0,0,0.808-3.856,0.936-4.267c0.241-0.822,0.708-1.56,1.275-2.127
		c0.667-0.638,1.715-1.177,2.651-0.779c0.397,0.185,0.638,0.383,0.865,0.723c0.34,0.511,0.439,1.105,0.439,1.701
		c0,1.318-0.595,2.65-1.573,3.544c-0.667,0.609-1.63,1.035-2.523,0.709c-0.369-0.128-0.68-0.426-0.893-0.724L238.325,53.691z
		 M240.012,47.326c-0.581,0.808-0.794,1.871-0.865,2.85c-0.042,0.694,0.241,1.517,0.992,1.687c0.128,0.028,0.255,0.028,0.383,0.028
		c0.468-0.042,0.893-0.298,1.219-0.624c0.595-0.609,0.865-1.488,1.021-2.311c0.042-0.269,0.099-0.553,0.099-0.836
		c0-0.596-0.113-1.29-0.694-1.588c-0.213-0.113-0.411-0.142-0.695-0.142C240.863,46.447,240.353,46.844,240.012,47.326z
		 M249.126,51.295c-0.539,0.624-1.29,1.035-2.126,0.936c-1.432-0.255-2.055-1.615-1.659-3.274c0.255-1.021,0.851-1.956,1.687-2.608
		l0.383-0.255c0.708-0.411,1.744-0.652,2.424-0.07c0.312,0.283,0.397,0.524,0.553,0.893l0.227-1.12l0.057-0.099
		c0.27-0.015,0.567-0.015,0.865-0.015c-0.142,0.681-1.262,5.939-1.361,6.394c-0.099,0.453-0.184,0.879-0.411,1.29
		c-0.454,0.836-1.276,1.517-2.226,1.701c-0.822,0.142-1.8-0.028-2.41-0.298c-0.199-0.085-0.397-0.198-0.595-0.298l0.17-0.779
		c0.142,0.07,0.284,0.17,0.425,0.24c0.524,0.284,1.021,0.411,1.729,0.454c0.212,0.014,0.425,0.028,0.638-0.015
		c0.737-0.155,1.304-0.808,1.56-1.474c0.156-0.397,0.227-0.837,0.312-1.262c0.057-0.298,0.156-0.609,0.185-0.922h-0.014
		C249.438,50.927,249.282,51.125,249.126,51.295z M251.125,42.634c0.014-0.199,0.227-0.312,0.397-0.227
		c0.113,0.042,0.142,0.156,0.199,0.255c0.113,0.227,0.297,0.439,0.51,0.567c0.156,0.1,0.411,0.185,0.34,0.439
		c-0.029,0.156-0.185,0.198-0.312,0.255c-0.383,0.17-0.638,0.383-0.907,0.652c-0.113,0.128-0.241,0.298-0.439,0.227
		c-0.156-0.042-0.241-0.227-0.17-0.383c0.099-0.212,0.326-0.396,0.51-0.538h-4.692c-0.283,0-0.581,0-0.581-0.298
		c0.014-0.142,0.127-0.241,0.255-0.27c0.113-0.014,0.241,0,0.354,0h4.862C251.38,43.201,251.096,42.847,251.125,42.634z
		 M247.694,46.873c-0.808,0.553-1.39,1.488-1.517,2.466c-0.113,0.752,0.127,1.602,0.822,1.984c0.227,0.128,0.581,0.241,0.936,0.213
		c0.482-0.042,0.893-0.34,1.191-0.709c0.496-0.623,0.723-1.417,0.893-2.183c0.042-0.185,0.156-0.751,0.17-0.836
		c0-0.539-0.156-1.05-0.553-1.276C249.012,46.164,248.162,46.547,247.694,46.873z M249.565,50.7h-0.014
		C249.551,50.729,249.565,50.714,249.565,50.7z"/>
</g>
</svg>
