<?xml version="1.0" encoding="iso-8859-1"?>
<!-- Generator: Adobe Illustrator 16.0.0, SVG Export Plug-In . SVG Version: 6.00 Build 0)  -->
<!DOCTYPE svg PUBLIC "-//W3C//DTD SVG 1.1//EN" "http://www.w3.org/Graphics/SVG/1.1/DTD/svg11.dtd">
<svg version="1.1" id="Layer_1" xmlns="http://www.w3.org/2000/svg" xmlns:xlink="http://www.w3.org/1999/xlink" x="0px" y="0px"
	 width="566.929px" height="85.039px" viewBox="0 0 566.929 85.039" style="enable-background:new 0 0 566.929 85.039;"
	 xml:space="preserve">
<g>
	<path d="M28.437,43.38h1.304l1.502,7.795l0.142,0.893h0.014c0.047-0.104,0.387-0.673,1.021-1.707
		c0.633-1.035,1.401-2.277,2.303-3.728c0.902-1.451,1.41-2.271,1.523-2.46l0.326-0.51c0.066-0.132,0.123-0.217,0.17-0.255
		c0.028-0.02,0.146-0.028,0.354-0.028h0.95l-1.587,7.54c-0.227,1.039-0.378,1.743-0.454,2.111l-0.057,0.156
		c-0.113,0.019-0.402,0.028-0.865,0.028l1.899-8.929h-0.014l-0.496,0.85l-4.72,7.64l-0.127,0.17
		c-0.114,0.02-0.397,0.028-0.851,0.028c-0.047-0.245-0.288-1.46-0.723-3.643c-0.435-2.183-0.737-3.864-0.907-5.045h-0.014
		l-1.857,8.744l-0.057,0.156c-0.113,0.019-0.401,0.028-0.864,0.028L28.437,43.38z"/>
</g>
<g>
	<path d="M42.498,48.456h0.675c0,0.014-0.068,0.341-0.204,0.982c-0.135,0.642-0.276,1.307-0.421,1.994
		c-0.146,0.688-0.225,1.062-0.238,1.121c-0.099,0.463-0.165,0.777-0.198,0.942c-0.086,0.384-0.174,0.677-0.263,0.878
		c-0.089,0.202-0.229,0.393-0.421,0.571c-0.562,0.489-1.313,0.654-2.252,0.496c-0.457-0.093-0.824-0.215-1.102-0.367l0.258-0.665
		c0.02,0.014,0.051,0.04,0.094,0.079c0.043,0.04,0.074,0.069,0.094,0.09c0.337,0.284,0.77,0.406,1.299,0.367
		c0.662-0.04,1.121-0.262,1.379-0.665c0.079-0.139,0.155-0.4,0.228-0.784l0.238-1.11c0.324-1.555,0.572-2.716,0.744-3.482
		c0.007-0.033,0.017-0.08,0.03-0.14s0.025-0.113,0.035-0.163C42.483,48.551,42.491,48.503,42.498,48.456z"/>
</g>
<g>
	<path d="M48.512,50.707c0.057-0.094,0.198-0.142,0.425-0.142h8.093h0.595c0.123,0.02,0.208,0.083,0.255,0.191
		s0.023,0.205-0.071,0.29c-0.057,0.058-0.156,0.086-0.297,0.086h-8.575c-0.142,0-0.227-0.005-0.255-0.015
		c-0.085-0.019-0.146-0.073-0.184-0.163C48.46,50.865,48.465,50.783,48.512,50.707z M48.682,47.83
		c0.019-0.01,0.099-0.015,0.241-0.015h8.122l0.297-0.014c0.199,0,0.298,0.005,0.298,0.014c0.113,0.02,0.191,0.085,0.234,0.199
		c0.042,0.113,0.021,0.208-0.064,0.283c-0.057,0.057-0.161,0.085-0.312,0.085h-8.519c-0.151,0-0.241-0.005-0.269-0.015
		c-0.151-0.028-0.229-0.115-0.234-0.262S48.541,47.868,48.682,47.83z"/>
</g>
<g>
	<path d="M72.376,66.67c-0.201,0-0.229,0-0.402-0.172c-0.588-0.517-1.133-1.104-1.42-1.435c-3.643-4.289-4.934-9.969-4.934-15.605
		c0-6.039,1.506-12.608,6.311-16.982c0.215-0.215,0.244-0.215,0.445-0.215c0.201,0,0.301,0,0.301,0.144c0,0.043,0,0.072-0.043,0.115
		c-0.631,0.631-1.807,1.807-2.94,3.844c-2.367,4.274-2.883,9.252-2.883,13.11c0,5.521,1.047,10.184,3.356,13.884
		c0.961,1.549,1.922,2.51,2.453,3.041c0.029,0.043,0.058,0.071,0.058,0.129C72.678,66.67,72.577,66.67,72.376,66.67z"/>
</g>
<g>
	<path d="M83.825,36.216l-0.312-0.439c-0.066-0.085-0.099-0.151-0.099-0.199c0-0.057,0.089-0.198,0.269-0.425
		c0.302-0.387,0.68-0.689,1.134-0.907c0.851-0.406,1.698-0.468,2.544-0.185c0.845,0.284,1.363,0.785,1.552,1.502
		c0.151,0.614,0.009,1.229-0.425,1.843c-0.227,0.302-0.505,0.558-0.836,0.765c-0.057,0.038-0.135,0.083-0.234,0.135
		c-0.1,0.052-0.168,0.087-0.206,0.106c0.255,0.038,0.539,0.151,0.85,0.34c0.614,0.35,1.011,0.822,1.191,1.417
		c0.16,0.501,0.158,0.992-0.007,1.474c-0.166,0.482-0.423,0.883-0.772,1.205c-0.17,0.161-0.383,0.312-0.638,0.453
		c-0.775,0.406-1.644,0.478-2.608,0.213c-0.708-0.207-1.342-0.628-1.899-1.261c-0.076-0.094-0.116-0.158-0.12-0.191
		c-0.005-0.033,0.002-0.106,0.021-0.22c0.057-0.312,0.09-0.477,0.099-0.496c0.359,0.482,0.723,0.827,1.091,1.035
		c0.34,0.208,0.704,0.361,1.092,0.46c0.387,0.1,0.787,0.116,1.197,0.05c0.411-0.066,0.763-0.231,1.056-0.496
		c0.331-0.302,0.529-0.708,0.595-1.219c0.066-0.51-0.005-0.959-0.212-1.347c-0.227-0.444-0.586-0.756-1.078-0.936
		c-0.236-0.085-0.595-0.127-1.077-0.127h-0.949v-0.708c0.812-0.047,1.36-0.123,1.644-0.227c0.359-0.132,0.659-0.352,0.9-0.659
		s0.38-0.65,0.418-1.028c0.047-0.416-0.066-0.774-0.34-1.077c-0.284-0.283-0.664-0.441-1.141-0.475s-0.891,0.04-1.24,0.22
		c-0.435,0.18-0.812,0.473-1.134,0.878c-0.047,0.066-0.106,0.159-0.177,0.276C83.903,36.087,83.854,36.169,83.825,36.216z"/>
</g>
<g>
	<rect x="74.392" y="49.188" width="23.785" height="0.574"/>
</g>
<g>
	<path d="M74.803,60.176v-0.481c0-0.199,0.042-0.354,0.127-0.468l0.17-0.284l0.667-1.021l2.608-4.081
		c0.188-0.303,0.302-0.468,0.34-0.496c0.028-0.02,0.132-0.028,0.312-0.028h0.765v6.108h1.616v0.751h-1.616v2.565h-0.893v-2.565
		H74.803z M78.942,54.124c-0.028,0.066-0.074,0.163-0.135,0.29c-0.062,0.128-0.111,0.225-0.149,0.291
		c-0.198,0.35-0.536,0.905-1.013,1.665c-0.478,0.761-0.912,1.448-1.304,2.062s-0.598,0.945-0.616,0.992h3.217V54.124z"/>
</g>
<g>
	<path d="M82.23,58.191c0.038-0.113,0.198-0.387,0.482-0.822c0.444-0.623,0.93-1.024,1.459-1.204
		c0.104-0.038,0.225-0.066,0.362-0.085c0.137-0.02,0.246-0.031,0.326-0.036c0.08-0.004,0.21-0.004,0.39,0
		c0.18,0.005,0.293,0.008,0.34,0.008h4.323c0.312,0,0.496,0.066,0.553,0.198c0.019,0.057,0.028,0.095,0.028,0.113
		c0.009,0.113-0.023,0.222-0.099,0.326c-0.076,0.104-0.17,0.17-0.283,0.198c-0.066,0.019-0.218,0.028-0.454,0.028h-1.162
		c-0.076,0-0.128,0.02-0.156,0.057c-0.009,0.02-0.028,0.108-0.057,0.27c-0.028,0.16-0.057,0.331-0.085,0.51
		c-0.028,0.18-0.047,0.284-0.057,0.312c-0.246,1.663-0.194,2.938,0.156,3.826c0.009,0.02,0.028,0.064,0.057,0.135
		c0.028,0.071,0.045,0.12,0.05,0.148c0.004,0.028,0.012,0.071,0.021,0.128s0.007,0.106-0.007,0.148
		c-0.014,0.043-0.036,0.088-0.064,0.135c-0.094,0.133-0.22,0.22-0.375,0.263c-0.156,0.042-0.291-0.003-0.404-0.135
		c-0.123-0.16-0.255-0.571-0.397-1.233c-0.198-1.096-0.142-2.461,0.17-4.096c0.038-0.208,0.071-0.363,0.1-0.468h-1.163
		c-0.293,1.795-0.803,3.6-1.53,5.414c-0.066,0.17-0.142,0.298-0.227,0.383c-0.095,0.085-0.201,0.132-0.319,0.142
		s-0.225-0.023-0.319-0.099c-0.104-0.104-0.123-0.256-0.057-0.454l0.397-1.021c0.312-0.879,0.694-2.334,1.148-4.365h-0.524
		c-0.35,0-0.605,0.048-0.766,0.142c-0.302,0.161-0.59,0.482-0.864,0.964c-0.057,0.085-0.095,0.133-0.114,0.142
		c-0.028,0.02-0.113,0.028-0.255,0.028H82.23z"/>
	<path d="M92.973,62.019l-0.411,1.928c0,0.019-0.026,0.155-0.078,0.411c-0.052,0.255-0.097,0.448-0.134,0.581
		c-0.057,0.17-0.17,0.295-0.34,0.375s-0.326,0.055-0.468-0.078c-0.095-0.085-0.109-0.273-0.042-0.566l0.297-1.432
		c0.539-2.57,0.851-3.992,0.936-4.267c0.236-0.803,0.662-1.511,1.276-2.126c0.377-0.358,0.805-0.623,1.283-0.793
		c0.477-0.17,0.933-0.165,1.368,0.014c0.368,0.17,0.656,0.411,0.864,0.723c0.293,0.436,0.439,1.002,0.439,1.701
		c0,0.661-0.14,1.307-0.418,1.935c-0.279,0.629-0.664,1.165-1.155,1.608c-0.369,0.331-0.777,0.569-1.226,0.716
		s-0.881,0.145-1.297-0.007C93.535,62.628,93.237,62.387,92.973,62.019z M95.708,56.646c-0.567,0.057-1.054,0.369-1.46,0.936
		c-0.491,0.681-0.779,1.63-0.865,2.849c-0.028,0.388,0.043,0.747,0.213,1.077c0.17,0.331,0.43,0.534,0.779,0.609
		c0.085,0.02,0.213,0.028,0.383,0.028c0.435-0.037,0.841-0.245,1.219-0.623c0.482-0.491,0.822-1.262,1.021-2.311
		c0.066-0.415,0.099-0.694,0.099-0.836c0-0.822-0.231-1.352-0.694-1.588C96.223,56.694,95.992,56.646,95.708,56.646z"/>
</g>
<g>
	<path d="M100.621,66.455c-0.215,0.215-0.244,0.215-0.445,0.215c-0.172,0-0.301,0-0.301-0.144c0-0.043,0.029-0.086,0.058-0.129
		c0.602-0.603,1.793-1.793,2.926-3.83c2.367-4.274,2.883-9.251,2.883-13.109c0-5.522-1.047-10.184-3.356-13.884
		c-0.961-1.549-1.922-2.51-2.424-3.027c-0.028-0.028-0.086-0.086-0.086-0.143c0-0.144,0.129-0.144,0.301-0.144
		c0.201,0,0.229,0,0.402,0.172c0.588,0.516,1.133,1.104,1.42,1.434c3.643,4.289,4.934,9.968,4.934,15.606
		C106.932,55.511,105.426,62.08,100.621,66.455z"/>
</g>
<g>
	<path d="M111.024,29.759c0.688,0,1.237-0.149,1.647-0.447c0.02-0.013,0.058-0.044,0.114-0.094c0.056-0.049,0.101-0.081,0.134-0.094
		c0.013-0.006,0.066-0.01,0.159-0.01v6.111h1.33v0.526h-3.324v-0.526h1.33v-5.218c-0.186,0.079-0.301,0.125-0.347,0.139
		c-0.285,0.093-0.632,0.139-1.042,0.139V29.759z"/>
</g>
<g>
	<path d="M119.546,28.32c0.125-0.033,0.208,0.017,0.248,0.149c0.013,0.046,0.006,0.103-0.02,0.169
		c-0.006,0.02-0.278,0.728-0.813,2.123s-1.082,2.822-1.637,4.281c-0.556,1.458-0.863,2.264-0.923,2.416l-0.099,0.258
		c-0.053,0.146-0.126,0.225-0.218,0.238c-0.073,0-0.126-0.017-0.159-0.05c-0.08-0.06-0.08-0.198,0-0.417l0.615-1.598l2.719-7.113
		l0.089-0.218C119.4,28.419,119.466,28.34,119.546,28.32z"/>
</g>
<g>
	<path d="M121.221,31.207c-0.04-0.033-0.091-0.089-0.154-0.168c-0.063-0.08-0.101-0.126-0.114-0.139
		c-0.073-0.086-0.109-0.139-0.109-0.159c-0.013-0.033,0-0.096,0.04-0.188c0.125-0.351,0.311-0.648,0.556-0.893
		c0.397-0.37,0.898-0.555,1.503-0.555c0.605,0,1.116,0.175,1.533,0.525c0.337,0.278,0.555,0.64,0.655,1.086
		c0.099,0.447,0.049,0.868-0.149,1.265c-0.073,0.132-0.152,0.258-0.238,0.377s-0.202,0.245-0.347,0.377s-0.251,0.227-0.317,0.283
		c-0.066,0.056-0.202,0.164-0.407,0.323c-0.205,0.159-0.321,0.248-0.347,0.268c-0.225,0.179-0.536,0.445-0.933,0.799
		c-0.397,0.354-0.688,0.607-0.873,0.759h3.661v0.585h-4.266v-0.367c0-0.092,0.005-0.15,0.015-0.173
		c0.01-0.023,0.038-0.058,0.084-0.104c0.146-0.125,0.409-0.362,0.789-0.709c0.38-0.348,0.656-0.59,0.828-0.729
		c0.04-0.033,0.137-0.111,0.293-0.233c0.155-0.123,0.27-0.215,0.342-0.278s0.178-0.157,0.317-0.283
		c0.139-0.126,0.248-0.238,0.327-0.337c0.08-0.099,0.166-0.213,0.258-0.342c0.092-0.129,0.164-0.261,0.213-0.397
		c0.049-0.135,0.084-0.273,0.104-0.412c0.046-0.377-0.023-0.711-0.208-1.002c-0.284-0.423-0.731-0.658-1.339-0.705
		c-0.291-0.02-0.542,0.013-0.754,0.099C121.747,29.964,121.426,30.44,121.221,31.207z"/>
</g>
<g>
	<path d="M138.324,66.67c-0.201,0-0.229,0-0.402-0.172c-0.588-0.517-1.133-1.104-1.42-1.435c-3.643-4.289-4.934-9.969-4.934-15.605
		c0-6.039,1.506-12.608,6.311-16.982c0.215-0.215,0.244-0.215,0.445-0.215c0.201,0,0.301,0,0.301,0.144c0,0.043,0,0.072-0.043,0.115
		c-0.631,0.631-1.807,1.807-2.94,3.844c-2.366,4.274-2.883,9.252-2.883,13.11c0,5.521,1.047,10.184,3.356,13.884
		c0.961,1.549,1.922,2.51,2.453,3.041c0.029,0.043,0.057,0.071,0.057,0.129C138.625,66.67,138.525,66.67,138.324,66.67z"/>
</g>
<g>
	<path d="M141.645,34.133h4.89v0.751h-4.025v3.26c0.397-0.359,0.857-0.579,1.382-0.659c0.524-0.08,1.028-0.007,1.51,0.22
		c0.444,0.227,0.812,0.567,1.105,1.021c0.368,0.558,0.543,1.181,0.524,1.871c-0.019,0.689-0.232,1.299-0.638,1.828
		c-0.595,0.775-1.389,1.191-2.381,1.248c-1.181,0.037-2.14-0.378-2.877-1.248c-0.057-0.085-0.085-0.137-0.085-0.156
		c0-0.028,0.123-0.246,0.369-0.652h0.014c0.293,0.435,0.661,0.765,1.105,0.992c0.435,0.255,0.945,0.362,1.531,0.319
		c0.586-0.043,1.054-0.257,1.403-0.645c0.454-0.51,0.638-1.2,0.553-2.069c-0.057-0.794-0.298-1.361-0.723-1.701
		c-0.321-0.265-0.723-0.383-1.205-0.354s-0.888,0.189-1.219,0.482c-0.095,0.085-0.199,0.198-0.312,0.34
		c-0.009,0.009-0.021,0.026-0.035,0.049c-0.014,0.024-0.026,0.045-0.036,0.064s-0.021,0.038-0.036,0.057
		c-0.014,0.019-0.031,0.033-0.049,0.042c-0.019,0.01-0.095,0.014-0.227,0.014h-0.539V34.133z"/>
</g>
<g>
	<path d="M151.028,33.594h0.851l-1.347,6.364l3.728-3.089l0.156-0.114c0.236-0.009,0.6-0.014,1.091-0.014v0.014l-2.792,2.311
		l-0.212,0.212c0.047,0.151,0.132,0.347,0.255,0.588c0.123,0.241,0.203,0.409,0.241,0.503l1.432,3.062
		c-0.52,0-0.841-0.009-0.964-0.028c-0.199-0.378-0.468-0.931-0.808-1.658c-0.34-0.728-0.572-1.214-0.694-1.46l-0.184-0.425
		c-0.17,0.123-0.404,0.312-0.702,0.567c-0.298,0.255-0.513,0.435-0.645,0.539l-0.17,0.17c-0.227,1.04-0.378,1.743-0.454,2.111
		l-0.057,0.156c-0.104,0.02-0.374,0.028-0.808,0.028L151.028,33.594z"/>
</g>
<g>
	<path d="M157.181,38.671h1.964c0.311,0,0.542,0.003,0.694,0.01c0.152,0.007,0.333,0.03,0.541,0.069
		c0.208,0.04,0.405,0.103,0.59,0.188c0.278,0.119,0.512,0.293,0.704,0.521c0.192,0.229,0.271,0.511,0.238,0.848
		c-0.046,0.331-0.222,0.629-0.526,0.893c-0.304,0.265-0.651,0.463-1.042,0.595c-0.066,0.02-0.166,0.046-0.298,0.08
		s-0.228,0.06-0.288,0.079c0.595,0.086,1.052,0.288,1.369,0.605c0.41,0.41,0.506,0.869,0.288,1.379
		c-0.159,0.403-0.483,0.758-0.972,1.062c-0.496,0.312-1.059,0.493-1.687,0.546c-0.08,0.007-0.43,0.01-1.052,0.01h-1.984
		L157.181,38.671z M156.506,45.001h1.29c0.443,0,0.711-0.003,0.804-0.01c0.502-0.04,0.949-0.159,1.339-0.357
		c0.648-0.33,0.958-0.721,0.932-1.171c-0.02-0.35-0.238-0.645-0.655-0.883c-0.337-0.191-0.764-0.304-1.28-0.337
		c0-0.007-0.142-0.007-0.426,0h-0.427h-0.893c-0.026,0-0.048,0.003-0.064,0.01c-0.017,0.007-0.03,0.018-0.04,0.035
		s-0.017,0.03-0.02,0.04c-0.003,0.01-0.008,0.032-0.015,0.064c-0.007,0.033-0.01,0.053-0.01,0.06
		c-0.007,0.046-0.035,0.187-0.084,0.422c-0.05,0.234-0.106,0.498-0.169,0.789s-0.104,0.492-0.124,0.604
		C156.586,44.611,156.533,44.855,156.506,45.001z M157.201,41.717h0.982c0.47,0,0.771-0.007,0.903-0.02
		c0.443-0.053,0.865-0.168,1.265-0.347c0.4-0.179,0.676-0.413,0.828-0.705c0.066-0.132,0.1-0.258,0.1-0.377
		c-0.007-0.291-0.208-0.539-0.605-0.744c-0.198-0.099-0.432-0.172-0.699-0.218c-0.268-0.046-0.471-0.071-0.61-0.074
		c-0.139-0.003-0.384-0.005-0.734-0.005h-0.803c-0.02,0-0.037,0.003-0.05,0.01c-0.013,0.007-0.025,0.013-0.035,0.02
		c-0.01,0.006-0.018,0.018-0.025,0.035c-0.006,0.017-0.01,0.028-0.01,0.035c0,0.007-0.003,0.021-0.01,0.044
		c-0.007,0.023-0.01,0.038-0.01,0.045C157.495,40.408,157.333,41.175,157.201,41.717z"/>
</g>
<g>
	<path d="M163.896,34.388c0.057-0.34,0.113-0.581,0.17-0.723c0.123-0.038,0.468-0.05,1.035-0.036s0.926,0.017,1.077,0.007h7.058
		l-0.156,0.751h-3.812c-0.17,0-0.265,0.014-0.284,0.042c-0.028,0.047-0.042,0.104-0.042,0.17c-1.001,4.63-1.616,7.512-1.842,8.646
		l-0.057,0.156c-0.019,0.02-0.109,0.028-0.27,0.028h-0.708l1.927-9.042H163.896z"/>
</g>
<g>
	<rect x="140.341" y="49.188" width="33.254" height="0.574"/>
</g>
<g>
	<path d="M156.105,58.078l-0.794,3.742c-0.009,0.019-0.017,0.054-0.021,0.105c-0.005,0.053-0.012,0.098-0.021,0.135
		c-0.009,0.038-0.023,0.066-0.042,0.085c-0.113,0.114-0.657,0.293-1.63,0.539c-1.672,0.368-2.996,0.16-3.968-0.624
		c-0.501-0.425-0.851-0.916-1.049-1.474c-0.397-0.992-0.411-2.079-0.043-3.26c0.321-1.049,0.881-1.978,1.68-2.785
		s1.722-1.344,2.771-1.608c0.945-0.236,1.899-0.208,2.863,0.085c0.321,0.095,0.69,0.25,1.105,0.468l-0.382,0.992
		c-0.52-0.369-0.803-0.562-0.851-0.581c-0.312-0.151-0.685-0.256-1.12-0.312s-0.87-0.047-1.304,0.028
		c-0.954,0.189-1.783,0.686-2.487,1.488c-0.704,0.804-1.174,1.706-1.41,2.707c-0.236,1.077-0.142,2.013,0.284,2.807
		c0.227,0.425,0.505,0.751,0.836,0.978c0.822,0.605,2.018,0.681,3.586,0.228c0.189-0.057,0.298-0.108,0.326-0.156
		c0-0.01,0.151-0.718,0.453-2.126c0.057-0.321,0.109-0.558,0.156-0.709h-2.225c0.057-0.34,0.113-0.581,0.17-0.723l0.227-0.028
		H156.105z"/>
	<path d="M159.677,62.345c-0.303,1.54-0.492,2.414-0.567,2.622c-0.057,0.15-0.166,0.264-0.326,0.34
		c-0.161,0.075-0.312,0.062-0.454-0.043c-0.104-0.085-0.123-0.283-0.057-0.595c0.085-0.406,0.193-0.907,0.326-1.503l1.19-5.626
		c0.161-0.804,0.26-1.238,0.297-1.305c0.132-0.235,0.326-0.33,0.581-0.283c0.189,0.028,0.284,0.146,0.284,0.354
		c0,0.028-0.045,0.258-0.135,0.688s-0.191,0.912-0.305,1.445c-0.113,0.534-0.189,0.891-0.227,1.07
		c-0.132,0.614-0.199,1.021-0.199,1.219c0,0.633,0.203,1.059,0.61,1.275c0.416,0.208,0.845,0.203,1.29-0.014
		c0.765-0.426,1.323-1.512,1.672-3.26c0.019-0.085,0.068-0.321,0.149-0.709c0.08-0.388,0.158-0.751,0.234-1.091
		c0.075-0.341,0.123-0.529,0.142-0.567c0.113-0.208,0.284-0.312,0.51-0.312c0.236,0.019,0.354,0.137,0.354,0.354
		c0,0.047-0.024,0.179-0.071,0.396l-0.142,0.681l-0.694,3.245c-0.104,0.511-0.118,0.855-0.042,1.035
		c0.047,0.104,0.108,0.188,0.184,0.255c0.246,0.218,0.454,0.188,0.624-0.085c0.114-0.17,0.25-0.596,0.411-1.275l0.042-0.128
		c0.019-0.019,0.099-0.028,0.241-0.028h0.652c-0.01,0.132-0.066,0.354-0.17,0.666c-0.265,0.766-0.605,1.275-1.021,1.53
		c-0.35,0.208-0.737,0.22-1.162,0.036c-0.425-0.185-0.667-0.479-0.723-0.886c-0.038,0.037-0.151,0.146-0.34,0.325
		c-0.161,0.143-0.345,0.274-0.553,0.397c-0.387,0.217-0.836,0.31-1.346,0.276S160.008,62.646,159.677,62.345z"/>
</g>
<g>
	<path d="M176.038,66.455c-0.215,0.215-0.244,0.215-0.445,0.215c-0.172,0-0.301,0-0.301-0.144c0-0.043,0.029-0.086,0.058-0.129
		c0.602-0.603,1.793-1.793,2.926-3.83c2.367-4.274,2.883-9.251,2.883-13.109c0-5.522-1.047-10.184-3.356-13.884
		c-0.961-1.549-1.922-2.51-2.424-3.027c-0.028-0.028-0.086-0.086-0.086-0.143c0-0.144,0.129-0.144,0.301-0.144
		c0.201,0,0.229,0,0.402,0.172c0.588,0.516,1.133,1.104,1.42,1.434c3.643,4.289,4.934,9.968,4.934,15.606
		C182.349,55.511,180.843,62.08,176.038,66.455z"/>
</g>
<g>
	<path d="M186.273,30.731c-0.205-0.271-0.308-0.423-0.308-0.457c0-0.033,0.062-0.129,0.188-0.288
		c0.218-0.251,0.496-0.463,0.833-0.635c0.317-0.152,0.656-0.233,1.017-0.243c0.36-0.01,0.703,0.058,1.027,0.203
		c0.509,0.251,0.807,0.599,0.893,1.042c0.066,0.39-0.02,0.767-0.258,1.131c-0.159,0.231-0.357,0.423-0.596,0.575
		c-0.026,0.02-0.079,0.05-0.159,0.089c-0.079,0.04-0.139,0.073-0.178,0.1c0.145,0.02,0.333,0.092,0.565,0.218
		c0.344,0.192,0.605,0.459,0.784,0.803c0.132,0.298,0.179,0.597,0.139,0.898c-0.04,0.301-0.152,0.584-0.337,0.848
		c-0.046,0.066-0.126,0.156-0.238,0.268c-0.311,0.304-0.694,0.496-1.151,0.576c-0.457,0.079-0.886,0.049-1.29-0.089
		c-0.51-0.152-0.946-0.437-1.31-0.854c-0.053-0.066-0.082-0.107-0.084-0.124c-0.003-0.016,0.001-0.064,0.015-0.144
		c0.033-0.212,0.06-0.337,0.08-0.377c0.502,0.661,1.157,1.021,1.964,1.081c0.489,0.046,0.89-0.066,1.2-0.337
		c0.271-0.225,0.427-0.531,0.466-0.917c0.04-0.387-0.043-0.723-0.248-1.007c-0.172-0.238-0.407-0.407-0.704-0.506
		c-0.166-0.053-0.417-0.079-0.754-0.079h-0.705v-0.526c0.06,0,0.146-0.005,0.258-0.015c0.112-0.01,0.195-0.018,0.248-0.024
		c0.258-0.013,0.47-0.046,0.635-0.1c0.284-0.092,0.522-0.254,0.714-0.486c0.191-0.231,0.288-0.489,0.288-0.774
		c0-0.542-0.341-0.853-1.022-0.933c-0.615-0.066-1.147,0.126-1.597,0.576c-0.126,0.125-0.248,0.294-0.367,0.506H186.273z"/>
</g>
<g>
	<path d="M194.963,28.32c0.125-0.033,0.208,0.017,0.248,0.149c0.013,0.046,0.006,0.103-0.02,0.169
		c-0.006,0.02-0.278,0.728-0.813,2.123s-1.082,2.822-1.637,4.281c-0.556,1.458-0.863,2.264-0.923,2.416l-0.099,0.258
		c-0.053,0.146-0.126,0.225-0.218,0.238c-0.073,0-0.126-0.017-0.159-0.05c-0.08-0.06-0.08-0.198,0-0.417l0.615-1.598l2.719-7.113
		l0.089-0.218C194.817,28.419,194.883,28.34,194.963,28.32z"/>
</g>
<g>
	<path d="M196.638,31.207c-0.04-0.033-0.091-0.089-0.154-0.168c-0.063-0.08-0.101-0.126-0.114-0.139
		c-0.073-0.086-0.109-0.139-0.109-0.159c-0.013-0.033,0-0.096,0.04-0.188c0.125-0.351,0.311-0.648,0.556-0.893
		c0.397-0.37,0.898-0.555,1.503-0.555c0.605,0,1.116,0.175,1.533,0.525c0.337,0.278,0.555,0.64,0.655,1.086
		c0.099,0.447,0.049,0.868-0.149,1.265c-0.073,0.132-0.152,0.258-0.238,0.377s-0.202,0.245-0.347,0.377s-0.251,0.227-0.317,0.283
		c-0.066,0.056-0.202,0.164-0.407,0.323c-0.205,0.159-0.321,0.248-0.347,0.268c-0.225,0.179-0.536,0.445-0.933,0.799
		c-0.397,0.354-0.688,0.607-0.873,0.759h3.661v0.585h-4.266v-0.367c0-0.092,0.005-0.15,0.015-0.173
		c0.01-0.023,0.038-0.058,0.084-0.104c0.146-0.125,0.409-0.362,0.789-0.709c0.38-0.348,0.656-0.59,0.828-0.729
		c0.04-0.033,0.137-0.111,0.293-0.233c0.155-0.123,0.27-0.215,0.342-0.278S198.86,33,199,32.874
		c0.139-0.126,0.248-0.238,0.327-0.337c0.08-0.099,0.166-0.213,0.258-0.342c0.092-0.129,0.164-0.261,0.213-0.397
		c0.049-0.135,0.084-0.273,0.104-0.412c0.046-0.377-0.023-0.711-0.208-1.002c-0.284-0.423-0.731-0.658-1.339-0.705
		c-0.291-0.02-0.542,0.013-0.754,0.099C197.164,29.964,196.843,30.44,196.638,31.207z"/>
</g>
</svg>
