<?xml version="1.0" encoding="iso-8859-1"?>
<!-- Generator: Adobe Illustrator 16.0.0, SVG Export Plug-In . SVG Version: 6.00 Build 0)  -->
<!DOCTYPE svg PUBLIC "-//W3C//DTD SVG 1.1//EN" "http://www.w3.org/Graphics/SVG/1.1/DTD/svg11.dtd">
<svg version="1.1" id="Layer_1" xmlns="http://www.w3.org/2000/svg" xmlns:xlink="http://www.w3.org/1999/xlink" x="0px" y="0px"
	 width="566.929px" height="85.039px" viewBox="0 0 566.929 85.039" style="enable-background:new 0 0 566.929 85.039;"
	 xml:space="preserve">
<g>
	<path d="M25.602,43.023c-0.038-0.085-0.035-0.142,0.007-0.17s0.111-0.042,0.206-0.042h10.049c0.085,0,0.137,0.019,0.156,0.057
		c0.019,0.038,0.014,0.095-0.014,0.17c-0.028,0.076-0.071,0.164-0.127,0.262s-0.085,0.153-0.085,0.163l-0.851,1.701l-3.756,7.525
		c-0.066,0.123-0.123,0.198-0.17,0.227c-0.066,0.048-0.154,0.064-0.262,0.05c-0.109-0.014-0.191-0.055-0.248-0.12
		c-0.029-0.038-0.092-0.158-0.191-0.361s-0.154-0.314-0.163-0.333c-0.038-0.085-0.267-0.548-0.688-1.39
		c-0.42-0.841-0.933-1.865-1.538-3.075c-0.605-1.209-1.03-2.064-1.276-2.565C25.989,43.808,25.639,43.108,25.602,43.023z
		 M35.112,43.831h-7.767l3.869,7.796h0.014L35.112,43.831z"/>
</g>
<g>
	<path d="M37.561,42.095c-0.04-0.033-0.091-0.089-0.154-0.168c-0.063-0.08-0.101-0.126-0.114-0.139
		c-0.073-0.086-0.109-0.139-0.109-0.159c-0.013-0.033,0-0.096,0.04-0.188c0.125-0.351,0.311-0.648,0.556-0.893
		c0.397-0.37,0.898-0.555,1.503-0.555c0.605,0,1.116,0.175,1.533,0.525c0.337,0.278,0.555,0.64,0.655,1.086
		c0.099,0.447,0.049,0.868-0.149,1.265c-0.073,0.132-0.152,0.258-0.238,0.377s-0.202,0.244-0.347,0.377
		c-0.146,0.132-0.251,0.227-0.317,0.282c-0.066,0.057-0.202,0.164-0.407,0.322c-0.205,0.159-0.321,0.248-0.347,0.269
		c-0.225,0.178-0.536,0.444-0.933,0.798c-0.397,0.354-0.688,0.607-0.873,0.76h3.661v0.585h-4.266v-0.367
		c0-0.093,0.005-0.15,0.015-0.174c0.01-0.022,0.038-0.058,0.084-0.104c0.146-0.126,0.409-0.362,0.789-0.71
		c0.38-0.347,0.656-0.59,0.828-0.729c0.04-0.033,0.137-0.111,0.293-0.233c0.155-0.122,0.27-0.215,0.342-0.278
		c0.073-0.062,0.178-0.156,0.317-0.282c0.139-0.126,0.248-0.238,0.327-0.338c0.08-0.099,0.166-0.213,0.258-0.342
		c0.092-0.129,0.164-0.261,0.213-0.397c0.049-0.135,0.084-0.273,0.104-0.412c0.046-0.377-0.023-0.711-0.208-1.002
		c-0.284-0.423-0.731-0.658-1.339-0.705c-0.291-0.02-0.542,0.013-0.754,0.099C38.087,40.852,37.766,41.328,37.561,42.095z"/>
</g>
<g>
	<path d="M45.751,52.916c-0.708-0.057-1.333-0.378-1.871-0.964c-0.189-0.235-0.335-0.472-0.439-0.708
		c-0.227-0.558-0.303-1.127-0.227-1.708s0.255-1.129,0.539-1.645c0.284-0.515,0.643-0.966,1.077-1.354
		c0.766-0.651,1.512-1.024,2.239-1.119c0.17-0.038,0.265-0.066,0.284-0.085c0.028-0.038,0.042-0.1,0.042-0.185
		c0.312-1.427,0.477-2.192,0.496-2.296c0.028-0.104,0.047-0.161,0.057-0.17c0.019-0.019,0.104-0.029,0.255-0.029h0.638l-0.581,2.721
		c0.472,0.028,0.931,0.198,1.375,0.511c0.444,0.321,0.768,0.741,0.971,1.261c0.203,0.521,0.271,1.063,0.206,1.631
		c-0.095,0.774-0.39,1.495-0.886,2.161s-1.098,1.179-1.807,1.537c-0.624,0.293-1.11,0.439-1.459,0.439
		c-0.028,0.114-0.09,0.395-0.185,0.844c-0.094,0.448-0.165,0.796-0.212,1.042l-0.057,0.142l-0.255,0.028h-0.638L45.751,52.916z
		 M47.197,46.085c-0.633,0.076-1.219,0.336-1.758,0.779c-0.765,0.634-1.219,1.498-1.36,2.594c-0.142,1.068,0.108,1.843,0.751,2.324
		c0.312,0.256,0.671,0.397,1.077,0.426l1.148-5.442L47.197,46.085z M46.814,52.208c0.217-0.01,0.472-0.076,0.765-0.198
		c0.662-0.246,1.2-0.671,1.616-1.276c0.416-0.604,0.666-1.275,0.751-2.013c0.123-1.058-0.156-1.813-0.836-2.268
		c-0.34-0.217-0.675-0.34-1.006-0.368l-0.935,4.45l-0.241,1.12L46.814,52.208z"/>
</g>
<g>
	<path d="M55.837,49.982c0.057-0.094,0.198-0.142,0.425-0.142h8.093h0.595c0.123,0.02,0.208,0.083,0.255,0.191
		s0.023,0.205-0.071,0.29c-0.057,0.058-0.156,0.086-0.297,0.086h-8.575c-0.142,0-0.227-0.005-0.255-0.015
		c-0.085-0.019-0.146-0.073-0.184-0.163C55.785,50.141,55.79,50.059,55.837,49.982z M56.007,47.105
		c0.019-0.01,0.099-0.015,0.241-0.015h8.122l0.297-0.014c0.199,0,0.298,0.005,0.298,0.014c0.113,0.02,0.191,0.085,0.234,0.199
		c0.042,0.113,0.021,0.208-0.064,0.283c-0.057,0.057-0.161,0.085-0.312,0.085h-8.519c-0.151,0-0.241-0.005-0.269-0.015
		c-0.151-0.028-0.229-0.115-0.234-0.262S55.866,47.144,56.007,47.105z"/>
	<path d="M70.365,49.926v-0.481c0-0.199,0.042-0.354,0.127-0.468l0.17-0.284l0.667-1.021l2.608-4.081
		c0.188-0.303,0.302-0.468,0.34-0.497c0.028-0.018,0.132-0.027,0.312-0.027h0.765v6.108h1.616v0.751h-1.616v2.565H74.46v-2.565
		H70.365z M74.503,43.874c-0.028,0.066-0.074,0.163-0.135,0.29c-0.062,0.128-0.111,0.225-0.149,0.291
		c-0.198,0.35-0.536,0.905-1.013,1.665c-0.478,0.761-0.912,1.448-1.304,2.062s-0.598,0.945-0.616,0.992h3.217V43.874z"/>
</g>
<g>
	<path d="M77.8,47.941c0.038-0.113,0.198-0.387,0.482-0.822c0.444-0.623,0.93-1.024,1.459-1.204
		c0.104-0.038,0.225-0.066,0.362-0.085c0.137-0.02,0.246-0.031,0.326-0.036c0.08-0.004,0.21-0.004,0.39,0
		c0.18,0.005,0.293,0.008,0.34,0.008h4.323c0.312,0,0.496,0.066,0.553,0.198c0.019,0.057,0.028,0.095,0.028,0.113
		c0.009,0.113-0.023,0.222-0.099,0.326c-0.076,0.104-0.17,0.17-0.283,0.198c-0.066,0.019-0.218,0.028-0.454,0.028h-1.162
		c-0.076,0-0.128,0.02-0.156,0.057c-0.009,0.02-0.028,0.108-0.057,0.27c-0.028,0.16-0.057,0.331-0.085,0.51
		c-0.028,0.18-0.047,0.284-0.057,0.312c-0.246,1.663-0.194,2.938,0.156,3.826c0.009,0.02,0.028,0.064,0.057,0.135
		c0.028,0.071,0.045,0.12,0.05,0.148c0.004,0.028,0.012,0.071,0.021,0.128S84,52.158,83.986,52.2
		c-0.014,0.043-0.036,0.088-0.064,0.135c-0.094,0.133-0.22,0.22-0.375,0.263c-0.156,0.042-0.291-0.003-0.404-0.135
		c-0.123-0.16-0.255-0.571-0.397-1.233c-0.198-1.096-0.142-2.461,0.17-4.096c0.038-0.208,0.071-0.363,0.1-0.468h-1.163
		c-0.293,1.795-0.803,3.6-1.53,5.414c-0.066,0.17-0.142,0.298-0.227,0.383c-0.095,0.085-0.201,0.132-0.319,0.142
		s-0.225-0.023-0.319-0.099c-0.104-0.104-0.123-0.256-0.057-0.454l0.397-1.021c0.312-0.879,0.694-2.334,1.148-4.365h-0.524
		c-0.35,0-0.605,0.048-0.766,0.142c-0.302,0.161-0.59,0.482-0.864,0.964c-0.057,0.085-0.095,0.133-0.114,0.142
		c-0.028,0.02-0.113,0.028-0.255,0.028H77.8z"/>
	<path d="M95.445,47.828l-0.794,3.742c-0.009,0.019-0.017,0.054-0.021,0.105c-0.005,0.053-0.012,0.098-0.021,0.135
		c-0.009,0.038-0.023,0.066-0.042,0.085c-0.113,0.114-0.657,0.293-1.63,0.539c-1.672,0.368-2.996,0.16-3.968-0.624
		c-0.501-0.425-0.851-0.916-1.049-1.474c-0.397-0.992-0.411-2.079-0.043-3.26c0.321-1.049,0.881-1.978,1.68-2.785
		s1.722-1.344,2.771-1.608c0.945-0.236,1.899-0.208,2.863,0.085c0.321,0.094,0.69,0.25,1.105,0.468l-0.382,0.992
		c-0.52-0.369-0.803-0.562-0.851-0.581c-0.312-0.151-0.685-0.255-1.12-0.312s-0.87-0.048-1.304,0.027
		c-0.954,0.189-1.783,0.686-2.487,1.488c-0.704,0.804-1.174,1.706-1.41,2.707c-0.236,1.077-0.142,2.013,0.284,2.807
		c0.227,0.425,0.505,0.751,0.836,0.978c0.822,0.605,2.018,0.681,3.586,0.228c0.189-0.057,0.298-0.108,0.326-0.156
		c0-0.01,0.151-0.718,0.453-2.126c0.057-0.321,0.109-0.558,0.156-0.709h-2.225c0.057-0.34,0.113-0.581,0.17-0.723l0.227-0.028
		H95.445z"/>
	<path d="M99.102,51.769l-0.411,1.928c0,0.019-0.026,0.155-0.078,0.411c-0.052,0.255-0.097,0.448-0.134,0.581
		c-0.057,0.17-0.17,0.295-0.34,0.375s-0.326,0.055-0.468-0.078c-0.095-0.085-0.109-0.273-0.042-0.566l0.297-1.432
		c0.539-2.57,0.851-3.992,0.936-4.267c0.236-0.803,0.662-1.511,1.276-2.126c0.377-0.358,0.805-0.623,1.283-0.793
		c0.477-0.17,0.933-0.165,1.368,0.014c0.368,0.17,0.656,0.411,0.864,0.723c0.293,0.436,0.439,1.002,0.439,1.701
		c0,0.661-0.14,1.307-0.418,1.935c-0.279,0.629-0.664,1.165-1.155,1.608c-0.369,0.331-0.777,0.569-1.226,0.716
		s-0.881,0.145-1.297-0.007C99.664,52.378,99.366,52.137,99.102,51.769z M101.837,46.396c-0.567,0.057-1.054,0.369-1.46,0.936
		c-0.491,0.681-0.779,1.63-0.865,2.849c-0.028,0.388,0.043,0.747,0.213,1.077c0.17,0.331,0.43,0.534,0.779,0.609
		c0.085,0.02,0.213,0.028,0.383,0.028c0.435-0.037,0.841-0.245,1.219-0.623c0.482-0.491,0.822-1.262,1.021-2.311
		c0.066-0.415,0.099-0.694,0.099-0.836c0-0.822-0.231-1.352-0.694-1.588C102.352,46.444,102.121,46.396,101.837,46.396z"/>
</g>
</svg>
