<?xml version="1.0" encoding="iso-8859-1"?>
<!-- Generator: Adobe Illustrator 16.0.0, SVG Export Plug-In . SVG Version: 6.00 Build 0)  -->
<!DOCTYPE svg PUBLIC "-//W3C//DTD SVG 1.1//EN" "http://www.w3.org/Graphics/SVG/1.1/DTD/svg11.dtd">
<svg version="1.1" id="Layer_1" xmlns="http://www.w3.org/2000/svg" xmlns:xlink="http://www.w3.org/1999/xlink" x="0px" y="0px"
	 width="566.93px" height="85.04px" viewBox="0 0 566.93 85.04" style="enable-background:new 0 0 566.93 85.04;"
	 xml:space="preserve">
<g>
	<path d="M28.38,42.752h6.633c-0.095,0.435-0.156,0.681-0.184,0.737c-0.369,0.019-1.292,0.026-2.771,0.021
		c-1.479-0.005-2.426-0.008-2.842-0.008l-0.765,3.586h5.23c-0.066,0.454-0.123,0.694-0.17,0.724
		c-0.028,0.019-0.127,0.028-0.297,0.028h-4.564c-0.189,0-0.293,0.005-0.312,0.014c-0.038,0.02-0.071,0.104-0.099,0.255
		c-0.038,0.151-0.297,1.375-0.779,3.671h5.839c-0.085,0.416-0.151,0.676-0.199,0.779c-0.463,0.02-1.587,0.026-3.373,0.021
		s-2.929-0.007-3.43-0.007L28.38,42.752z"/>
</g>
<g>
	<path d="M42.752,55.721h-0.468c-0.132,0-0.212-0.005-0.241-0.015c-0.113-0.057-0.321-0.236-0.624-0.538
		c-0.548-0.548-0.992-1.162-1.333-1.843c-0.728-1.455-1.054-3.118-0.978-4.988c0.057-1.2,0.281-2.299,0.673-3.296
		s0.928-1.835,1.609-2.516c0.321-0.321,0.539-0.51,0.652-0.567c0.028-0.009,0.108-0.014,0.241-0.014h0.468
		c-0.038,0.048-0.165,0.165-0.382,0.354c-0.444,0.378-0.889,0.982-1.333,1.814c-0.614,1.181-0.955,2.589-1.021,4.224
		c-0.057,1.332,0.092,2.589,0.447,3.77c0.354,1.181,0.886,2.159,1.594,2.934c0.132,0.151,0.236,0.26,0.312,0.326
		C42.587,55.556,42.715,55.673,42.752,55.721z"/>
</g>
<g>
	<path d="M46.838,42.738h0.851l-1.347,6.363l3.728-3.09l0.156-0.113c0.236-0.009,0.6-0.014,1.091-0.014v0.014l-2.792,2.311
		l-0.212,0.213c0.047,0.15,0.132,0.347,0.255,0.588c0.123,0.241,0.203,0.409,0.241,0.503l1.432,3.062
		c-0.52,0-0.841-0.01-0.964-0.028c-0.199-0.378-0.468-0.931-0.808-1.658c-0.34-0.728-0.572-1.214-0.694-1.46l-0.184-0.425
		c-0.17,0.122-0.404,0.312-0.702,0.566c-0.298,0.255-0.513,0.435-0.645,0.539l-0.17,0.17c-0.227,1.039-0.378,1.743-0.454,2.111
		l-0.057,0.156c-0.104,0.019-0.374,0.028-0.808,0.028L46.838,42.738z"/>
</g>
<g>
	<path d="M52.582,41.944h0.467c0.142,0,0.222,0.005,0.241,0.014c0.113,0.058,0.321,0.236,0.624,0.539
		c0.548,0.548,0.992,1.162,1.333,1.843c0.727,1.455,1.053,3.118,0.978,4.988c-0.057,1.2-0.281,2.299-0.673,3.296
		c-0.393,0.996-0.929,1.835-1.609,2.516c-0.321,0.321-0.539,0.51-0.652,0.566c-0.028,0.01-0.109,0.015-0.241,0.015h-0.467
		c0.038-0.048,0.165-0.165,0.382-0.354c0.076-0.066,0.18-0.175,0.312-0.326c0.416-0.463,0.76-0.973,1.035-1.53
		c0.746-1.475,1.082-3.198,1.006-5.173c-0.095-2.362-0.775-4.267-2.041-5.712c-0.132-0.151-0.236-0.26-0.312-0.326
		C52.747,42.109,52.62,41.992,52.582,41.944z"/>
	<path d="M62.305,50.065c0.057-0.094,0.198-0.142,0.425-0.142h8.093h0.595c0.123,0.02,0.208,0.083,0.255,0.191
		s0.023,0.205-0.071,0.29c-0.057,0.058-0.156,0.086-0.297,0.086h-8.575c-0.142,0-0.227-0.005-0.255-0.015
		c-0.085-0.019-0.146-0.073-0.184-0.163C62.252,50.224,62.257,50.142,62.305,50.065z M62.475,47.188
		c0.019-0.01,0.099-0.015,0.241-0.015h8.122l0.297-0.014c0.199,0,0.298,0.005,0.298,0.014c0.113,0.02,0.191,0.085,0.234,0.199
		c0.042,0.113,0.021,0.208-0.064,0.283c-0.057,0.057-0.161,0.085-0.312,0.085h-8.519c-0.151,0-0.241-0.005-0.269-0.015
		c-0.151-0.028-0.229-0.115-0.234-0.262S62.333,47.227,62.475,47.188z"/>
</g>
<g>
	<path d="M84.298,51.88c-0.042,0.07-0.27,0.155-0.354,0.198c-0.709,0.34-1.333,0.566-2.254,0.595
		c-0.482,0.028-0.964,0.015-1.446-0.085c-1.078-0.269-1.928-0.992-2.367-1.97c-1.106-2.481,0.34-5.273,2.027-6.677
		c0.425-0.354,0.893-0.652,1.403-0.879c1.177-0.51,2.495-0.553,3.742-0.255c0.326,0.071,0.638,0.199,0.964,0.312l-0.382,0.992
		L85.12,43.8c-0.638-0.326-1.63-0.553-2.565-0.369c-2.027,0.411-3.459,2.226-3.913,4.068c-0.283,1.205-0.184,2.566,0.652,3.53
		c0.297,0.325,0.624,0.566,1.063,0.736c0.51,0.185,1.049,0.185,1.587,0.156c0.979-0.085,1.418-0.312,2.098-0.652
		c0.127-0.07,0.255-0.155,0.383-0.212C84.397,51.241,84.341,51.809,84.298,51.88z M89.422,52.645
		c-1.333-0.184-2.197-1.318-2.197-2.792c0-1.035,0.411-2.041,1.134-2.778c0.68-0.709,1.602-1.191,2.594-1.191h0.567
		c0.099,0,0.212-0.014,0.312,0.015c0.185,0.043,0.227,0.241,0.17,0.396c-0.071,0.256-0.27,0.298-0.553,0.298
		c-0.383,0-0.78-0.028-1.163,0.057c-0.78,0.156-1.389,0.724-1.744,1.418c-0.085,0.185-0.184,0.396-0.227,0.609h2.537
		c0.114,0,0.227-0.014,0.34,0c0.184,0.028,0.27,0.213,0.227,0.383c-0.085,0.255-0.27,0.326-0.553,0.326h-2.48
		c-0.057,0-0.17-0.015-0.213,0.028c-0.042,0.042-0.042,0.127-0.042,0.185c-0.014,0.155-0.014,0.297-0.014,0.453
		c0,0.779,0.411,1.517,1.163,1.801c0.68,0.255,1.035,0.113,1.517-0.171c0.199-0.127,0.383-0.297,0.595-0.396l0.284,0.779
		C91.081,52.461,90.386,52.801,89.422,52.645z"/>
</g>
<g>
	<path d="M93.468,42.178c-0.04-0.033-0.091-0.089-0.154-0.169c-0.063-0.079-0.101-0.125-0.114-0.139
		c-0.073-0.086-0.109-0.139-0.109-0.158c-0.013-0.033,0-0.097,0.04-0.188c0.125-0.351,0.311-0.648,0.556-0.894
		c0.397-0.37,0.898-0.556,1.503-0.556c0.605,0,1.116,0.176,1.533,0.526c0.337,0.277,0.555,0.64,0.655,1.086
		c0.099,0.446,0.049,0.868-0.149,1.265c-0.073,0.133-0.152,0.259-0.238,0.378c-0.086,0.118-0.202,0.244-0.347,0.377
		c-0.146,0.132-0.251,0.227-0.317,0.282c-0.066,0.057-0.202,0.164-0.407,0.322c-0.205,0.159-0.321,0.248-0.347,0.269
		c-0.225,0.178-0.536,0.444-0.933,0.798c-0.397,0.354-0.688,0.607-0.873,0.76h3.661v0.585h-4.266v-0.367
		c0-0.093,0.005-0.15,0.015-0.174c0.01-0.022,0.038-0.058,0.084-0.104c0.146-0.126,0.409-0.362,0.789-0.71
		c0.38-0.347,0.656-0.59,0.828-0.729c0.04-0.033,0.137-0.111,0.293-0.233c0.155-0.122,0.27-0.215,0.342-0.278
		c0.073-0.062,0.178-0.156,0.317-0.282c0.139-0.126,0.248-0.238,0.327-0.338c0.08-0.099,0.166-0.213,0.258-0.342
		c0.092-0.129,0.164-0.262,0.213-0.396c0.049-0.136,0.084-0.273,0.104-0.412c0.046-0.377-0.023-0.711-0.208-1.002
		c-0.284-0.424-0.731-0.658-1.339-0.704c-0.291-0.021-0.542,0.013-0.754,0.099C93.994,40.935,93.673,41.41,93.468,42.178z"/>
</g>
<g>
	<path d="M102.238,39.291c0.125-0.033,0.208,0.017,0.248,0.148c0.013,0.047,0.006,0.103-0.02,0.169
		c-0.006,0.02-0.278,0.728-0.813,2.123s-1.082,2.822-1.637,4.281c-0.556,1.458-0.863,2.264-0.923,2.415l-0.099,0.259
		c-0.053,0.145-0.126,0.225-0.218,0.237c-0.073,0-0.126-0.017-0.159-0.049c-0.08-0.06-0.08-0.199,0-0.417l0.615-1.598l2.719-7.113
		l0.089-0.218C102.093,39.39,102.159,39.311,102.238,39.291z"/>
</g>
<g>
	<path d="M103.993,41.701c-0.205-0.271-0.308-0.423-0.308-0.456s0.062-0.129,0.188-0.288c0.218-0.251,0.496-0.463,0.833-0.635
		c0.317-0.151,0.656-0.232,1.017-0.243c0.36-0.01,0.703,0.059,1.027,0.204c0.509,0.251,0.807,0.599,0.893,1.041
		c0.066,0.391-0.02,0.768-0.258,1.131c-0.159,0.232-0.357,0.424-0.596,0.576c-0.026,0.02-0.079,0.05-0.159,0.089
		c-0.079,0.04-0.139,0.073-0.178,0.1c0.145,0.02,0.333,0.093,0.565,0.218c0.344,0.192,0.605,0.46,0.784,0.804
		c0.132,0.298,0.179,0.597,0.139,0.898c-0.04,0.301-0.152,0.583-0.337,0.848c-0.046,0.066-0.126,0.155-0.238,0.269
		c-0.311,0.304-0.694,0.495-1.151,0.575c-0.457,0.079-0.886,0.05-1.29-0.09c-0.51-0.151-0.946-0.437-1.31-0.853
		c-0.053-0.066-0.082-0.107-0.084-0.124c-0.003-0.017,0.001-0.064,0.015-0.145c0.033-0.211,0.06-0.337,0.08-0.377
		c0.502,0.662,1.157,1.022,1.964,1.082c0.489,0.046,0.89-0.066,1.2-0.338c0.271-0.225,0.427-0.53,0.466-0.918
		c0.04-0.387-0.043-0.722-0.248-1.007c-0.172-0.238-0.407-0.406-0.704-0.506c-0.166-0.053-0.417-0.079-0.754-0.079h-0.705v-0.526
		c0.06,0,0.146-0.005,0.258-0.015s0.195-0.018,0.248-0.024c0.258-0.014,0.47-0.046,0.635-0.1c0.284-0.093,0.522-0.254,0.714-0.486
		c0.191-0.231,0.288-0.489,0.288-0.773c0-0.542-0.341-0.854-1.022-0.933c-0.615-0.066-1.147,0.126-1.597,0.575
		c-0.126,0.126-0.248,0.295-0.367,0.506H103.993z"/>
</g>
<g>
	<path d="M112.161,42.738h0.851l-1.347,6.363l3.728-3.09l0.156-0.113c0.236-0.009,0.6-0.014,1.091-0.014v0.014l-2.792,2.311
		l-0.212,0.213c0.047,0.15,0.132,0.347,0.255,0.588c0.123,0.241,0.203,0.409,0.241,0.503l1.432,3.062
		c-0.52,0-0.841-0.01-0.964-0.028c-0.199-0.378-0.468-0.931-0.808-1.658c-0.34-0.728-0.572-1.214-0.694-1.46l-0.184-0.425
		c-0.17,0.122-0.404,0.312-0.702,0.566c-0.298,0.255-0.513,0.435-0.645,0.539l-0.17,0.17c-0.227,1.039-0.378,1.743-0.454,2.111
		l-0.057,0.156c-0.104,0.019-0.374,0.028-0.808,0.028L112.161,42.738z"/>
</g>
<g>
	<path d="M118.103,43.904c0.013-0.007,0.069-0.01,0.168-0.01h5.308h0.387c0.086,0.013,0.142,0.062,0.169,0.148
		c0.026,0.086,0.01,0.159-0.05,0.218c-0.046,0.04-0.182,0.06-0.407,0.06h-5.427c-0.093,0-0.149-0.003-0.169-0.01
		c-0.106-0.033-0.154-0.103-0.144-0.208C117.949,43.997,118.004,43.931,118.103,43.904z"/>
</g>
<g>
	<path d="M125.935,40.233h3.522v0.556h-2.877v2.252c0.463-0.357,0.966-0.513,1.508-0.467c0.39,0.06,0.73,0.222,1.022,0.486
		c0.43,0.391,0.663,0.887,0.699,1.488c0.036,0.602-0.137,1.118-0.521,1.548c-0.311,0.351-0.703,0.584-1.175,0.699
		c-0.473,0.116-0.935,0.098-1.384-0.055c-0.483-0.165-0.87-0.416-1.161-0.754c-0.04-0.039-0.06-0.072-0.06-0.099
		c0-0.04,0.092-0.199,0.278-0.477h0.01c0.238,0.337,0.519,0.579,0.843,0.725c0.311,0.158,0.668,0.223,1.072,0.193
		c0.403-0.03,0.73-0.171,0.982-0.422c0.245-0.245,0.384-0.582,0.417-1.012c0.026-0.364-0.015-0.703-0.124-1.018
		c-0.109-0.313-0.31-0.537-0.601-0.669c-0.297-0.14-0.625-0.161-0.982-0.064c-0.357,0.096-0.615,0.263-0.774,0.501l-0.119,0.148
		c-0.02,0.007-0.079,0.01-0.179,0.01h-0.396V40.233z"/>
</g>
<g>
	<path d="M134.624,39.291c0.125-0.033,0.208,0.017,0.248,0.148c0.013,0.047,0.006,0.103-0.02,0.169
		c-0.006,0.02-0.278,0.728-0.813,2.123s-1.082,2.822-1.637,4.281c-0.556,1.458-0.863,2.264-0.923,2.415l-0.099,0.259
		c-0.053,0.145-0.126,0.225-0.218,0.237c-0.073,0-0.126-0.017-0.159-0.049c-0.08-0.06-0.08-0.199,0-0.417l0.615-1.598l2.719-7.113
		l0.089-0.218C134.479,39.39,134.544,39.311,134.624,39.291z"/>
</g>
<g>
	<path d="M136.38,41.701c-0.205-0.271-0.308-0.423-0.308-0.456s0.062-0.129,0.188-0.288c0.218-0.251,0.496-0.463,0.833-0.635
		c0.317-0.151,0.656-0.232,1.017-0.243c0.36-0.01,0.703,0.059,1.027,0.204c0.509,0.251,0.807,0.599,0.893,1.041
		c0.066,0.391-0.02,0.768-0.258,1.131c-0.159,0.232-0.357,0.424-0.596,0.576c-0.026,0.02-0.079,0.05-0.159,0.089
		c-0.079,0.04-0.139,0.073-0.178,0.1c0.145,0.02,0.333,0.093,0.565,0.218c0.344,0.192,0.605,0.46,0.784,0.804
		c0.132,0.298,0.179,0.597,0.139,0.898c-0.04,0.301-0.152,0.583-0.337,0.848c-0.046,0.066-0.126,0.155-0.238,0.269
		c-0.311,0.304-0.694,0.495-1.151,0.575c-0.457,0.079-0.886,0.05-1.29-0.09c-0.51-0.151-0.946-0.437-1.31-0.853
		c-0.053-0.066-0.082-0.107-0.084-0.124c-0.003-0.017,0.001-0.064,0.015-0.145c0.033-0.211,0.06-0.337,0.08-0.377
		c0.502,0.662,1.157,1.022,1.964,1.082c0.489,0.046,0.89-0.066,1.2-0.338c0.271-0.225,0.427-0.53,0.466-0.918
		c0.04-0.387-0.043-0.722-0.248-1.007c-0.172-0.238-0.407-0.406-0.704-0.506c-0.166-0.053-0.417-0.079-0.754-0.079h-0.705v-0.526
		c0.06,0,0.146-0.005,0.258-0.015s0.195-0.018,0.248-0.024c0.258-0.014,0.47-0.046,0.635-0.1c0.284-0.093,0.522-0.254,0.714-0.486
		c0.191-0.231,0.288-0.489,0.288-0.773c0-0.542-0.341-0.854-1.022-0.933c-0.615-0.066-1.147,0.126-1.597,0.575
		c-0.126,0.126-0.248,0.295-0.367,0.506H136.38z"/>
</g>
</svg>
