<?xml version="1.0" encoding="iso-8859-1"?>
<!-- Generator: Adobe Illustrator 16.0.0, SVG Export Plug-In . SVG Version: 6.00 Build 0)  -->
<!DOCTYPE svg PUBLIC "-//W3C//DTD SVG 1.1//EN" "http://www.w3.org/Graphics/SVG/1.1/DTD/svg11.dtd">
<svg version="1.1" id="Layer_1" xmlns="http://www.w3.org/2000/svg" xmlns:xlink="http://www.w3.org/1999/xlink" x="0px" y="0px"
	 width="566.93px" height="85.04px" viewBox="0 0 566.93 85.04" style="enable-background:new 0 0 566.93 85.04;"
	 xml:space="preserve">
<g>
	<path d="M26.112,57.541c-0.258,0-0.387,0-0.387-0.158c0-0.015,0-0.086,0.144-0.258l7.43-8.707L25.71,38.034
		c0-0.158,0-0.43,0.014-0.473c0.043-0.086,0.057-0.101,0.387-0.101h16.954l1.736,4.031h-0.359c-0.487-1.162-1.463-1.808-1.821-2.037
		c-1.133-0.717-2.381-0.961-3.156-1.076c-0.129-0.029-1.434-0.229-3.356-0.229h-7.86l6.684,9.137c0.1,0.144,0.1,0.187,0.1,0.215
		c0,0.072-0.028,0.115-0.129,0.229l-7.301,8.563h8.649c2.754,0,4.16-0.373,4.461-0.445c1.649-0.43,3.17-1.405,3.729-2.896h0.359
		l-1.736,4.59H26.112z"/>
</g>
<g>
	<path d="M57.172,38.241c0.014-0.199,0.227-0.312,0.397-0.227c0.114,0.042,0.142,0.156,0.199,0.255
		c0.113,0.227,0.297,0.439,0.51,0.567c0.156,0.099,0.411,0.185,0.34,0.439c-0.028,0.156-0.185,0.199-0.312,0.255
		c-0.383,0.17-0.638,0.383-0.907,0.652c-0.113,0.127-0.241,0.298-0.439,0.227c-0.156-0.042-0.241-0.227-0.17-0.383
		c0.099-0.213,0.326-0.397,0.51-0.539h-4.692c-0.283,0-0.581,0-0.581-0.298c0.014-0.142,0.127-0.241,0.255-0.27
		c0.113-0.014,0.241,0,0.354,0h4.862C57.427,38.808,57.144,38.454,57.172,38.241z"/>
</g>
<g>
	<path d="M51.464,41.42h6.42c-0.095,0.435-0.156,0.681-0.185,0.737c-0.359,0.019-1.25,0.026-2.671,0.021
		c-1.422-0.005-2.332-0.008-2.729-0.008l-0.808,3.785h4.819c-0.066,0.453-0.123,0.694-0.17,0.723
		c-0.019,0.019-0.108,0.028-0.269,0.028h-4.224c-0.17,0-0.265,0.009-0.284,0.028c-0.019,0.01-0.035,0.033-0.049,0.07
		c-0.014,0.038-0.024,0.078-0.028,0.121c-0.005,0.042-0.012,0.073-0.021,0.092l-0.17,0.822c-0.284,1.304-0.506,2.353-0.666,3.146
		c-0.028,0.132-0.052,0.208-0.071,0.227s-0.108,0.028-0.269,0.028H49.38L51.464,41.42z"/>
</g>
<g>
	<path d="M63.094,48.733c0.057-0.094,0.198-0.142,0.425-0.142h8.093h0.595c0.123,0.02,0.208,0.083,0.255,0.191
		s0.023,0.205-0.071,0.29c-0.057,0.058-0.156,0.086-0.297,0.086h-8.575c-0.142,0-0.227-0.005-0.255-0.015
		c-0.085-0.019-0.146-0.073-0.184-0.163C63.042,48.892,63.047,48.81,63.094,48.733z M63.264,45.856
		c0.019-0.01,0.099-0.015,0.241-0.015h8.122l0.297-0.014c0.199,0,0.298,0.005,0.298,0.014c0.113,0.02,0.191,0.085,0.234,0.199
		c0.042,0.113,0.021,0.208-0.064,0.283c-0.057,0.057-0.161,0.085-0.312,0.085h-8.519c-0.151,0-0.241-0.005-0.269-0.015
		c-0.151-0.028-0.229-0.115-0.234-0.262S63.123,45.895,63.264,45.856z"/>
	<path d="M79.436,42.143c0.567-0.358,1.176-0.496,1.829-0.41c0.652,0.085,1.195,0.378,1.63,0.878
		c0.661,0.729,0.992,1.989,0.992,3.784c0,1.37-0.133,2.415-0.397,3.133c-0.321,0.859-0.822,1.437-1.502,1.729
		c-0.51,0.227-1.044,0.285-1.602,0.177s-1.021-0.361-1.389-0.759c-0.708-0.736-1.063-2.063-1.063-3.982
		c0-0.085,0.002-0.215,0.007-0.39c0.004-0.175,0.007-0.305,0.007-0.39c0-0.17,0.019-0.425,0.057-0.766
		C78.155,43.702,78.632,42.7,79.436,42.143z M82.256,42.979c-0.397-0.416-0.891-0.603-1.481-0.561
		c-0.59,0.043-1.042,0.291-1.354,0.744c-0.18,0.256-0.314,0.589-0.404,1c-0.09,0.41-0.142,0.765-0.156,1.062
		s-0.021,0.721-0.021,1.269c0,0.539,0.009,0.978,0.028,1.318c0.019,0.34,0.076,0.725,0.17,1.155c0.095,0.43,0.231,0.777,0.411,1.041
		c0.18,0.256,0.411,0.451,0.695,0.589c0.283,0.137,0.581,0.196,0.893,0.177c0.567-0.047,1.016-0.312,1.347-0.794
		c0.179-0.255,0.316-0.616,0.411-1.084c0.094-0.468,0.148-0.867,0.163-1.197c0.014-0.331,0.021-0.784,0.021-1.361
		c0-1.19-0.09-2.041-0.27-2.551C82.568,43.419,82.417,43.149,82.256,42.979z"/>
</g>
</svg>
