<?xml version="1.0" encoding="iso-8859-1"?>
<!-- Generator: Adobe Illustrator 16.0.0, SVG Export Plug-In . SVG Version: 6.00 Build 0)  -->
<!DOCTYPE svg PUBLIC "-//W3C//DTD SVG 1.1//EN" "http://www.w3.org/Graphics/SVG/1.1/DTD/svg11.dtd">
<svg version="1.1" id="Layer_1" xmlns="http://www.w3.org/2000/svg" xmlns:xlink="http://www.w3.org/1999/xlink" x="0px" y="0px"
	 width="566.93px" height="85.04px" viewBox="0 0 566.93 85.04" style="enable-background:new 0 0 566.93 85.04;"
	 xml:space="preserve">
<g>
	<path d="M34.088,41.636c0.014-0.199,0.227-0.312,0.397-0.227c0.114,0.042,0.142,0.156,0.199,0.255
		c0.113,0.227,0.297,0.439,0.51,0.567c0.156,0.099,0.411,0.185,0.34,0.439c-0.028,0.156-0.185,0.198-0.312,0.255
		c-0.383,0.17-0.638,0.382-0.907,0.652c-0.113,0.128-0.241,0.298-0.439,0.227c-0.156-0.042-0.241-0.227-0.17-0.383
		c0.099-0.212,0.326-0.396,0.51-0.538h-4.692c-0.283,0-0.581,0-0.581-0.298c0.014-0.142,0.127-0.241,0.255-0.27
		c0.113-0.014,0.241,0,0.354,0h4.862C34.343,42.203,34.06,41.849,34.088,41.636z"/>
</g>
<g>
	<path d="M28.38,44.815h6.42c-0.095,0.435-0.156,0.681-0.185,0.737c-0.359,0.019-1.25,0.026-2.671,0.021
		c-1.422-0.005-2.332-0.008-2.729-0.008l-0.808,3.785h4.819c-0.066,0.453-0.123,0.694-0.17,0.723
		c-0.019,0.019-0.108,0.028-0.269,0.028h-4.224c-0.17,0-0.265,0.009-0.284,0.028c-0.019,0.01-0.035,0.033-0.049,0.07
		c-0.014,0.038-0.024,0.078-0.028,0.121c-0.005,0.042-0.012,0.073-0.021,0.092l-0.17,0.822c-0.284,1.304-0.506,2.353-0.666,3.146
		c-0.028,0.132-0.052,0.208-0.071,0.227s-0.108,0.028-0.269,0.028h-0.708L28.38,44.815z"/>
</g>
<g>
	<path d="M40.01,52.129c0.057-0.094,0.198-0.142,0.425-0.142h8.093h0.595c0.123,0.02,0.208,0.083,0.255,0.191
		s0.023,0.205-0.071,0.29c-0.057,0.058-0.156,0.086-0.297,0.086h-8.575c-0.142,0-0.227-0.005-0.255-0.015
		c-0.085-0.019-0.146-0.073-0.184-0.163C39.958,52.287,39.963,52.205,40.01,52.129z M40.18,49.252
		c0.019-0.01,0.099-0.015,0.241-0.015h8.122l0.297-0.014c0.199,0,0.298,0.005,0.298,0.014c0.113,0.02,0.191,0.085,0.234,0.199
		c0.042,0.113,0.021,0.208-0.064,0.283c-0.057,0.057-0.161,0.085-0.312,0.085h-8.519c-0.151,0-0.241-0.005-0.269-0.015
		c-0.151-0.028-0.229-0.115-0.234-0.262S40.039,49.29,40.18,49.252z"/>
</g>
<g>
	<path d="M57.72,48.783c0.582-0.638,1.389-1.021,2.254-0.936c0.397,0.028,0.808,0.128,1.092,0.426
		c0.184,0.185,0.269,0.439,0.312,0.694c0.014,0.128,0,0.255,0.028,0.383c0.114-0.198,0.27-0.383,0.425-0.553
		c0.439-0.482,1.007-0.837,1.659-0.936c0.78-0.1,1.574,0.07,1.871,0.652c0.27,0.51,0.142,1.134,0.028,1.672l-0.638,2.963
		c0,0-0.199,1.049-0.284,1.333c0,0.184-0.127,0.155-0.269,0.155h-0.667l0.893-4.195c0.085-0.439,0.255-0.936,0.042-1.361
		c-0.156-0.298-0.468-0.439-0.779-0.496c-1.361-0.283-2.126,0.822-2.453,1.786c-0.127,0.426-0.638,3.005-0.822,3.827
		c-0.028,0.1-0.042,0.199-0.071,0.298c0,0.185-0.17,0.142-0.298,0.142h-0.638l0.893-4.195c0.085-0.439,0.255-0.936,0.042-1.361
		c-0.156-0.298-0.468-0.439-0.78-0.496c-1.361-0.283-2.126,0.822-2.452,1.786c-0.127,0.426-0.638,3.005-0.822,3.827
		c-0.028,0.1-0.042,0.199-0.071,0.298c0,0.185-0.17,0.142-0.298,0.142h-0.638l1.417-6.69h0.865l-0.284,1.39h0.014
		C57.395,49.124,57.564,48.954,57.72,48.783z M57.281,49.337h-0.014C57.267,49.365,57.281,49.351,57.281,49.337z M68.425,48.613
		c0-0.07,0-0.17,0.042-0.227c0.057-0.071,0.17-0.1,0.241-0.128c0.454-0.227,1.574-0.553,2.41-0.481
		c0.425,0.042,0.836,0.198,1.148,0.481c0.411,0.397,0.567,0.979,0.524,1.531c-0.028,0.213-0.624,2.948-0.694,3.289
		c-0.014,0.057-0.227,1.134-0.298,1.403c0,0.184-0.127,0.155-0.269,0.155h-0.652l0.213-0.992c-0.567,0.609-1.389,0.936-2.197,1.049
		c-0.539,0.086-0.78,0.1-1.177-0.042c-0.737-0.341-0.822-1.39-0.496-2.041c0.51-1.007,1.871-1.46,3.09-1.645
		c0.326-0.043,0.666-0.057,0.992-0.085h0.227c0.127,0,0.17-0.1,0.17-0.213c0.042-0.227,0.184-0.681,0.184-0.979
		c0.014-0.538-0.269-1.077-0.779-1.219c-0.156-0.042-0.326-0.028-0.496-0.028c-0.553,0-1.106,0.142-1.602,0.383
		c-0.227,0.1-0.425,0.241-0.652,0.34C68.369,48.982,68.397,48.798,68.425,48.613z M68.524,52.129
		c-0.383,0.312-0.766,0.879-0.51,1.375c0.17,0.34,0.567,0.482,0.921,0.524c0.723,0.085,1.587-0.17,2.055-0.751
		c0.241-0.298,0.298-0.638,0.369-0.992l0.213-0.979C70.438,51.307,69.233,51.576,68.524,52.129z M73.571,44.786
		c0.014-0.198,0.227-0.312,0.397-0.227c0.113,0.042,0.142,0.155,0.199,0.255c0.113,0.227,0.297,0.439,0.51,0.567
		c0.156,0.099,0.411,0.184,0.34,0.439c-0.028,0.155-0.184,0.198-0.312,0.255c-0.383,0.17-0.638,0.383-0.907,0.652
		c-0.113,0.127-0.241,0.297-0.439,0.227c-0.156-0.043-0.241-0.227-0.17-0.383c0.1-0.213,0.326-0.396,0.511-0.539h-4.692
		c-0.283,0-0.581,0-0.581-0.297c0.014-0.143,0.127-0.241,0.255-0.27c0.114-0.015,0.241,0,0.354,0h4.862
		C73.826,45.354,73.542,44.999,73.571,44.786z"/>
</g>
</svg>
