<?xml version="1.0" encoding="iso-8859-1"?>
<!-- Generator: Adobe Illustrator 16.0.0, SVG Export Plug-In . SVG Version: 6.00 Build 0)  -->
<!DOCTYPE svg PUBLIC "-//W3C//DTD SVG 1.1//EN" "http://www.w3.org/Graphics/SVG/1.1/DTD/svg11.dtd">
<svg version="1.1" id="Layer_1" xmlns="http://www.w3.org/2000/svg" xmlns:xlink="http://www.w3.org/1999/xlink" x="0px" y="0px"
	 width="566.93px" height="85.04px" viewBox="0 0 566.93 85.04" style="enable-background:new 0 0 566.93 85.04;"
	 xml:space="preserve">
<g>
	<path d="M34.088,40.075c0.014-0.199,0.227-0.312,0.397-0.227c0.114,0.042,0.142,0.156,0.199,0.255
		c0.113,0.227,0.297,0.439,0.51,0.567c0.156,0.099,0.411,0.185,0.34,0.439c-0.028,0.156-0.185,0.199-0.312,0.255
		c-0.383,0.17-0.638,0.383-0.907,0.652c-0.113,0.127-0.241,0.298-0.439,0.227c-0.156-0.042-0.241-0.227-0.17-0.383
		c0.099-0.213,0.326-0.397,0.51-0.539h-4.692c-0.283,0-0.581,0-0.581-0.298c0.014-0.142,0.127-0.241,0.255-0.27
		c0.113-0.014,0.241,0,0.354,0h4.862C34.343,40.642,34.06,40.288,34.088,40.075z"/>
</g>
<g>
	<path d="M28.38,43.255h6.42c-0.095,0.435-0.156,0.681-0.185,0.737c-0.359,0.019-1.25,0.026-2.671,0.021
		c-1.422-0.005-2.332-0.008-2.729-0.008l-0.808,3.785h4.819c-0.066,0.453-0.123,0.694-0.17,0.723
		c-0.019,0.019-0.108,0.028-0.269,0.028h-4.224c-0.17,0-0.265,0.009-0.284,0.028c-0.019,0.01-0.035,0.033-0.049,0.07
		c-0.014,0.038-0.024,0.078-0.028,0.121c-0.005,0.042-0.012,0.073-0.021,0.092l-0.17,0.822c-0.284,1.304-0.506,2.353-0.666,3.146
		c-0.028,0.132-0.052,0.208-0.071,0.227s-0.108,0.028-0.269,0.028h-0.708L28.38,43.255z"/>
</g>
<g>
	<path d="M34.856,51.403c0-0.014,0.02-0.148,0.06-0.407c0-0.085,0.01-0.142,0.03-0.168c0.046-0.06,0.265-0.149,0.655-0.269
		c0.238-0.079,0.526-0.129,0.863-0.148c0.482-0.026,0.85,0.05,1.101,0.229c0.053,0.039,0.125,0.105,0.218,0.198
		c0.218,0.251,0.317,0.568,0.298,0.952c-0.014,0.126-0.127,0.691-0.342,1.696c-0.215,1.006-0.333,1.542-0.353,1.607
		c0,0.073-0.053,0.109-0.159,0.109c-0.02,0-0.033,0-0.04,0h-0.476l0.149-0.694c-0.404,0.403-0.926,0.648-1.568,0.734
		c-0.357,0.053-0.632,0.046-0.823-0.021c-0.238-0.086-0.398-0.27-0.481-0.551c-0.083-0.28-0.078-0.533,0.015-0.759
		c0.152-0.456,0.542-0.795,1.17-1.017s1.323-0.332,2.083-0.332c0.007-0.054,0.037-0.199,0.089-0.437
		c0.053-0.238,0.066-0.424,0.04-0.556c-0.02-0.172-0.086-0.319-0.198-0.441c-0.112-0.123-0.248-0.197-0.407-0.224
		c-0.509-0.086-1.082,0.043-1.716,0.387C34.972,51.348,34.903,51.384,34.856,51.403z M37.188,52.882
		c-0.509,0-0.976,0.066-1.399,0.198c-0.297,0.079-0.545,0.195-0.744,0.347c-0.159,0.119-0.283,0.264-0.372,0.432
		c-0.089,0.169-0.098,0.336-0.025,0.501c0.1,0.212,0.308,0.338,0.625,0.378c0.277,0.039,0.565,0.011,0.863-0.085
		c0.298-0.096,0.516-0.236,0.655-0.422c0.093-0.112,0.172-0.311,0.238-0.595C37.102,53.266,37.155,53.014,37.188,52.882z"/>
</g>
<g>
	<path d="M43.621,50.568c0.057-0.094,0.198-0.142,0.425-0.142h8.093h0.595c0.123,0.02,0.208,0.083,0.255,0.191
		s0.023,0.205-0.071,0.29c-0.057,0.058-0.156,0.086-0.297,0.086h-8.575c-0.142,0-0.227-0.005-0.255-0.015
		c-0.085-0.019-0.146-0.073-0.184-0.163C43.568,50.727,43.573,50.645,43.621,50.568z M43.791,47.691
		c0.019-0.01,0.099-0.015,0.241-0.015h8.122l0.297-0.014c0.199,0,0.298,0.005,0.298,0.014c0.113,0.02,0.191,0.085,0.234,0.199
		c0.042,0.113,0.021,0.208-0.064,0.283c-0.057,0.057-0.161,0.085-0.312,0.085h-8.519c-0.151,0-0.241-0.005-0.269-0.015
		c-0.151-0.028-0.229-0.115-0.234-0.262S43.649,47.729,43.791,47.691z"/>
</g>
<g>
	<path d="M59.133,49.066c0.019-0.01,0.094-0.015,0.227-0.015h7.441h0.539c0.113,0.02,0.187,0.085,0.22,0.198
		c0.033,0.114,0.012,0.208-0.064,0.284c-0.028,0.028-0.071,0.052-0.127,0.07c-0.057,0.02-0.106,0.028-0.149,0.028
		s-0.099-0.002-0.17-0.007s-0.116-0.007-0.135-0.007h-7.54c-0.142,0-0.222-0.005-0.241-0.015c-0.142-0.037-0.21-0.125-0.206-0.262
		C58.932,49.206,59,49.113,59.133,49.066z"/>
</g>
<g>
	<path d="M77.949,40.075c0.014-0.199,0.227-0.312,0.397-0.227c0.113,0.042,0.142,0.156,0.198,0.255
		c0.113,0.227,0.298,0.439,0.51,0.567c0.156,0.099,0.411,0.185,0.34,0.439c-0.028,0.156-0.184,0.199-0.312,0.255
		c-0.383,0.17-0.638,0.383-0.907,0.652c-0.113,0.127-0.241,0.298-0.439,0.227c-0.156-0.042-0.241-0.227-0.17-0.383
		c0.099-0.213,0.326-0.397,0.51-0.539h-4.692c-0.284,0-0.582,0-0.582-0.298c0.014-0.142,0.128-0.241,0.255-0.27
		c0.113-0.014,0.241,0,0.354,0h4.862C78.204,40.642,77.921,40.288,77.949,40.075z"/>
</g>
<g>
	<path d="M72.241,43.255h6.42c-0.095,0.435-0.156,0.681-0.185,0.737c-0.359,0.019-1.25,0.026-2.671,0.021
		c-1.422-0.005-2.332-0.008-2.729-0.008l-0.808,3.785h4.819c-0.066,0.453-0.123,0.694-0.17,0.723
		c-0.019,0.019-0.108,0.028-0.269,0.028h-4.224c-0.17,0-0.265,0.009-0.284,0.028c-0.019,0.01-0.035,0.033-0.049,0.07
		c-0.014,0.038-0.024,0.078-0.028,0.121c-0.005,0.042-0.012,0.073-0.021,0.092l-0.17,0.822c-0.284,1.304-0.506,2.353-0.666,3.146
		c-0.028,0.132-0.052,0.208-0.071,0.227s-0.108,0.028-0.269,0.028h-0.708L72.241,43.255z"/>
</g>
<g>
	<path d="M79.303,48.317h0.655c-0.073,0.371-0.18,0.89-0.322,1.558c-0.143,0.669-0.237,1.108-0.283,1.32
		c0.04-0.026,0.092-0.069,0.159-0.129c0.066-0.06,0.115-0.103,0.148-0.13c0.225-0.158,0.496-0.292,0.814-0.401
		c0.317-0.109,0.618-0.131,0.903-0.064c0.331,0.086,0.582,0.286,0.754,0.601c0.172,0.313,0.261,0.656,0.268,1.026
		c0.007,0.582-0.127,1.136-0.402,1.662c-0.274,0.525-0.656,0.935-1.146,1.225c-0.285,0.166-0.576,0.264-0.873,0.293
		c-0.298,0.03-0.592-0.041-0.883-0.213c-0.218-0.139-0.36-0.317-0.426-0.536h-0.01c-0.013,0.047-0.028,0.116-0.044,0.209
		c-0.017,0.092-0.033,0.175-0.05,0.247c-0.017,0.073-0.035,0.14-0.055,0.199c-0.086,0.013-0.307,0.02-0.665,0.02L79.303,48.317z
		 M81.366,51.255c-0.297-0.219-0.613-0.312-0.947-0.278s-0.633,0.162-0.898,0.387c-0.026,0.026-0.058,0.057-0.094,0.09
		c-0.037,0.033-0.061,0.056-0.074,0.069c-0.014,0.014-0.028,0.033-0.045,0.06s-0.03,0.056-0.04,0.089s-0.019,0.073-0.025,0.119
		l-0.06,0.288l-0.347,1.637c0,0.014-0.012,0.063-0.035,0.148c-0.023,0.087-0.035,0.149-0.035,0.189
		c0.013,0.146,0.076,0.28,0.188,0.406c0.125,0.159,0.301,0.253,0.526,0.283c0.225,0.029,0.438,0.013,0.64-0.05
		s0.382-0.145,0.541-0.243c0.549-0.344,0.889-0.942,1.021-1.796C81.79,52.012,81.684,51.546,81.366,51.255z"/>
</g>
</svg>
