<?xml version="1.0" encoding="iso-8859-1"?>
<!-- Generator: Adobe Illustrator 16.0.0, SVG Export Plug-In . SVG Version: 6.00 Build 0)  -->
<!DOCTYPE svg PUBLIC "-//W3C//DTD SVG 1.1//EN" "http://www.w3.org/Graphics/SVG/1.1/DTD/svg11.dtd">
<svg version="1.1" id="Layer_1" xmlns="http://www.w3.org/2000/svg" xmlns:xlink="http://www.w3.org/1999/xlink" x="0px" y="0px"
	 width="566.929px" height="85.039px" viewBox="0 0 566.929 85.039" style="enable-background:new 0 0 566.929 85.039;"
	 xml:space="preserve">
<g>
	<path d="M27.274,63.115c1.162,0,1.822-2.696,2.08-3.743c0.474-1.994,0.89-4.39,1.262-6.584c1.578-9.381,3.529-16.581,3.572-16.739
		c0.789-2.926,1.592-4.489,2.682-4.489c0.789,0,1.563,0.56,1.563,1.334c0,0.502-0.359,0.717-0.703,0.717
		c-0.33,0-0.688-0.229-0.688-0.703c0-0.358,0.244-0.674,0.717-0.703c-0.058-0.058-0.416-0.33-0.86-0.33
		c-0.56,0-1.047,1.851-1.219,2.553c-0.488,1.85-1.019,4.719-1.549,7.774c-0.774,4.604-1.707,9.18-2.811,13.712
		c-1.019,4.159-1.836,7.516-4.016,7.516c-0.875,0-1.592-0.603-1.592-1.334c0-0.502,0.358-0.717,0.703-0.717
		c0.33,0,0.688,0.229,0.688,0.702c0,0.359-0.244,0.675-0.703,0.703C26.399,62.785,26.757,63.115,27.274,63.115z"/>
</g>
<g>
	<path d="M45.145,44.565c-0.539-0.907-0.865-1.525-0.978-1.856c-0.151-0.472-0.113-0.869,0.113-1.19
		c0.265-0.34,0.652-0.501,1.162-0.482c0.123,0.019,0.435,0.071,0.936,0.156c0.198,0.019,0.558,0.09,1.077,0.212
		c0.179,0.019,0.293,0.09,0.34,0.213c0.047,0.151,0.002,0.295-0.135,0.432c-0.137,0.137-0.281,0.187-0.432,0.149
		c-0.501-0.123-1.12-0.26-1.857-0.411c-0.085-0.028-0.175-0.042-0.269-0.042c-0.255,0.028-0.383,0.208-0.383,0.539
		c0,0.284,0.13,0.593,0.39,0.928c0.26,0.336,0.572,0.679,0.936,1.027c0.364,0.35,0.602,0.614,0.716,0.794
		c0.321,0.444,0.508,0.999,0.56,1.665c0.052,0.667-0.002,1.307-0.163,1.921s-0.378,1.162-0.652,1.645
		c-0.586,0.963-1.28,1.44-2.083,1.431c-0.624,0-1.153-0.217-1.587-0.651c-0.529-0.548-0.775-1.323-0.737-2.324
		c0.009-0.35,0.09-0.747,0.241-1.19c0.227-0.681,0.586-1.29,1.077-1.829C43.906,45.161,44.483,44.783,45.145,44.565z M45.47,45.175
		c-0.066,0-0.189,0.033-0.368,0.1c-0.539,0.198-0.974,0.548-1.304,1.049s-0.562,1.077-0.694,1.729
		c-0.236,1.2-0.118,2.037,0.354,2.509c0.284,0.284,0.647,0.426,1.092,0.426c0.529,0.01,0.973-0.303,1.332-0.936
		c0.246-0.426,0.409-0.934,0.489-1.523c0.081-0.591,0.05-1.193-0.092-1.808c-0.095-0.368-0.265-0.77-0.51-1.204
		c-0.01-0.01-0.028-0.04-0.057-0.093c-0.028-0.052-0.052-0.092-0.071-0.12c-0.019-0.028-0.045-0.057-0.078-0.085
		S45.499,45.175,45.47,45.175z"/>
	<path d="M51.99,41.405h0.992c-0.179,0.917-0.451,2.209-0.815,3.876c-0.364,1.668-0.616,2.852-0.758,3.551l-0.354,1.658h5.017
		c-0.094,0.435-0.156,0.68-0.184,0.736c-0.397,0.02-1.382,0.026-2.955,0.021s-2.582-0.007-3.026-0.007L51.99,41.405z"/>
	<path d="M64.731,41.405h0.893l-1.587,7.541c-0.227,1.039-0.378,1.743-0.454,2.111l-0.057,0.156
		c-0.123,0.019-0.421,0.028-0.893,0.028l0.212-1.034c-0.198,0.217-0.382,0.392-0.553,0.524c-0.368,0.283-0.763,0.472-1.183,0.566
		c-0.421,0.095-0.849,0.057-1.283-0.113c-0.454-0.227-0.785-0.619-0.992-1.177c-0.208-0.557-0.25-1.186-0.127-1.885
		c0.198-1.209,0.741-2.188,1.63-2.934c0.406-0.35,0.845-0.579,1.318-0.688c0.472-0.108,0.954-0.055,1.446,0.163
		c0.151,0.075,0.302,0.187,0.454,0.333c0.151,0.146,0.255,0.295,0.312,0.446h0.014L64.731,41.405z M63.598,45.728
		c-0.161-0.273-0.402-0.448-0.723-0.524c-0.321-0.075-0.638-0.073-0.949,0.008c-0.312,0.08-0.586,0.2-0.822,0.361
		c-0.841,0.52-1.347,1.436-1.517,2.749c-0.132,0.86,0.023,1.498,0.468,1.914c0.369,0.312,0.794,0.448,1.275,0.41
		c0.482-0.037,0.921-0.264,1.318-0.68c0.227-0.227,0.359-0.454,0.397-0.681c0.349-1.644,0.548-2.57,0.595-2.777
		c0.057-0.293,0.085-0.449,0.085-0.468C63.715,45.992,63.673,45.889,63.598,45.728z"/>
	<path d="M67.736,44.552h1.248l0.113-0.028c0.066-0.189,0.137-0.501,0.212-0.936s0.151-0.742,0.227-0.921
		c0.104-0.019,0.382-0.028,0.836-0.028l-0.411,1.914h2.197l-0.142,0.708h-2.013c-0.085,0-0.137,0.01-0.156,0.028
		c-0.019,0.02-0.038,0.062-0.057,0.128c-0.009,0.02-0.014,0.033-0.014,0.043c-0.558,2.409-0.855,3.836-0.893,4.28
		c-0.019,0.491,0.109,0.779,0.383,0.864c0.227,0.075,0.572,0.033,1.035-0.128c0.142-0.057,0.288-0.127,0.439-0.212
		c0.019-0.01,0.066-0.043,0.142-0.1s0.137-0.095,0.184-0.113c0,0.057,0.005,0.14,0.014,0.248c0.01,0.108,0.015,0.191,0.015,0.248
		c0,0.104-0.005,0.165-0.015,0.185c-0.076,0.094-0.288,0.198-0.638,0.312c-0.548,0.208-1.058,0.312-1.531,0.312
		c-0.387,0-0.657-0.123-0.808-0.368c-0.189-0.331-0.184-0.926,0.014-1.786l0.581-2.735c0.019-0.095,0.042-0.222,0.071-0.383
		c0.028-0.16,0.057-0.31,0.085-0.446s0.062-0.263,0.099-0.376h-1.36L67.736,44.552z"/>
</g>
<g>
	<path d="M77.308,48.732c0.057-0.094,0.198-0.142,0.425-0.142h8.093h0.595c0.123,0.02,0.208,0.083,0.255,0.191
		s0.023,0.205-0.071,0.29c-0.057,0.058-0.156,0.086-0.297,0.086h-8.575c-0.142,0-0.227-0.005-0.255-0.015
		c-0.085-0.019-0.146-0.073-0.184-0.163C77.255,48.891,77.26,48.809,77.308,48.732z M77.478,45.855
		c0.019-0.01,0.099-0.015,0.241-0.015h8.122l0.297-0.014c0.199,0,0.298,0.005,0.298,0.014c0.113,0.02,0.191,0.085,0.234,0.199
		c0.042,0.113,0.021,0.208-0.064,0.283c-0.057,0.057-0.161,0.085-0.312,0.085h-8.519c-0.151,0-0.241-0.005-0.269-0.015
		c-0.151-0.028-0.229-0.115-0.234-0.262S77.336,45.894,77.478,45.855z"/>
	<path d="M93.663,42.142c0.567-0.359,1.176-0.496,1.829-0.411c0.652,0.085,1.195,0.378,1.63,0.879
		c0.661,0.728,0.992,1.989,0.992,3.784c0,1.37-0.133,2.415-0.397,3.133c-0.321,0.859-0.822,1.437-1.502,1.729
		c-0.51,0.227-1.044,0.285-1.602,0.177s-1.021-0.361-1.389-0.759c-0.708-0.736-1.063-2.063-1.063-3.982
		c0-0.085,0.002-0.215,0.007-0.39c0.004-0.175,0.007-0.305,0.007-0.39c0-0.17,0.019-0.425,0.057-0.766
		C92.383,43.701,92.86,42.7,93.663,42.142z M96.484,42.978c-0.397-0.416-0.891-0.602-1.481-0.56s-1.042,0.291-1.354,0.744
		c-0.18,0.256-0.314,0.589-0.404,1c-0.09,0.41-0.142,0.765-0.156,1.062s-0.021,0.721-0.021,1.269c0,0.539,0.009,0.978,0.028,1.318
		c0.019,0.34,0.076,0.725,0.17,1.155c0.095,0.43,0.231,0.777,0.411,1.041c0.18,0.256,0.411,0.451,0.695,0.589
		c0.283,0.137,0.581,0.196,0.893,0.177c0.567-0.047,1.016-0.312,1.347-0.794c0.179-0.255,0.316-0.616,0.411-1.084
		c0.094-0.468,0.148-0.867,0.163-1.197c0.014-0.331,0.021-0.784,0.021-1.361c0-1.19-0.09-2.041-0.27-2.551
		C96.795,43.418,96.644,43.148,96.484,42.978z"/>
</g>
</svg>
