<?xml version="1.0" encoding="iso-8859-1"?>
<!-- Generator: Adobe Illustrator 16.0.0, SVG Export Plug-In . SVG Version: 6.00 Build 0)  -->
<!DOCTYPE svg PUBLIC "-//W3C//DTD SVG 1.1//EN" "http://www.w3.org/Graphics/SVG/1.1/DTD/svg11.dtd">
<svg version="1.1" id="Layer_1" xmlns="http://www.w3.org/2000/svg" xmlns:xlink="http://www.w3.org/1999/xlink" x="0px" y="0px"
	 width="566.929px" height="85.039px" viewBox="0 0 566.929 85.039" style="enable-background:new 0 0 566.929 85.039;"
	 xml:space="preserve">
<g>
	<path d="M36.691,31.75h0.893l-1.587,7.541c-0.227,1.04-0.378,1.743-0.454,2.112l-0.057,0.156c-0.123,0.019-0.421,0.028-0.893,0.028
		l0.212-1.035c-0.198,0.217-0.382,0.392-0.553,0.524c-0.368,0.284-0.763,0.473-1.183,0.567c-0.421,0.094-0.849,0.057-1.283-0.113
		c-0.454-0.227-0.785-0.619-0.992-1.176c-0.208-0.558-0.25-1.186-0.127-1.885c0.198-1.209,0.741-2.188,1.63-2.934
		c0.406-0.35,0.845-0.579,1.318-0.688c0.472-0.108,0.954-0.054,1.446,0.163c0.151,0.076,0.302,0.187,0.454,0.333
		c0.151,0.146,0.255,0.295,0.312,0.446h0.014L36.691,31.75z M35.557,36.073c-0.161-0.274-0.402-0.449-0.723-0.524
		s-0.638-0.073-0.949,0.007c-0.312,0.081-0.586,0.201-0.822,0.361c-0.841,0.52-1.347,1.437-1.517,2.75
		c-0.132,0.86,0.023,1.498,0.468,1.914c0.369,0.312,0.794,0.449,1.275,0.411c0.482-0.038,0.921-0.265,1.318-0.68
		c0.227-0.227,0.359-0.454,0.397-0.681c0.349-1.644,0.548-2.57,0.595-2.778c0.057-0.293,0.085-0.449,0.085-0.468
		C35.675,36.337,35.632,36.233,35.557,36.073z"/>
</g>
<g>
	<rect x="26.102" y="47.344" width="15.152" height="0.574"/>
</g>
<g>
	<path d="M33.458,51.061h0.893l-1.587,7.54c-0.227,1.039-0.378,1.743-0.454,2.111l-0.057,0.156
		c-0.123,0.019-0.421,0.028-0.893,0.028l0.212-1.034c-0.198,0.217-0.382,0.392-0.553,0.524c-0.368,0.283-0.763,0.472-1.183,0.566
		c-0.421,0.095-0.849,0.057-1.283-0.113c-0.454-0.227-0.785-0.619-0.992-1.177c-0.208-0.557-0.25-1.186-0.127-1.885
		c0.198-1.209,0.741-2.188,1.63-2.934c0.406-0.35,0.845-0.579,1.318-0.688c0.472-0.108,0.954-0.055,1.446,0.163
		c0.151,0.075,0.302,0.187,0.454,0.333c0.151,0.146,0.255,0.295,0.312,0.446h0.014L33.458,51.061z M32.324,55.383
		c-0.161-0.273-0.402-0.448-0.723-0.524c-0.321-0.075-0.638-0.073-0.949,0.008c-0.312,0.08-0.586,0.2-0.822,0.361
		c-0.841,0.52-1.347,1.436-1.517,2.749c-0.132,0.86,0.023,1.498,0.468,1.914c0.369,0.312,0.794,0.448,1.275,0.41
		c0.482-0.037,0.921-0.264,1.318-0.68c0.227-0.227,0.359-0.454,0.397-0.681c0.349-1.644,0.548-2.57,0.595-2.777
		c0.057-0.293,0.085-0.449,0.085-0.468C32.442,55.647,32.399,55.544,32.324,55.383z"/>
	<path d="M36.462,54.207h1.248l0.113-0.028c0.066-0.189,0.137-0.501,0.212-0.936s0.151-0.742,0.227-0.922
		c0.104-0.019,0.382-0.028,0.836-0.028l-0.411,1.914h2.197l-0.142,0.708H38.73c-0.085,0-0.137,0.01-0.156,0.028
		c-0.019,0.02-0.038,0.062-0.057,0.128c-0.009,0.02-0.014,0.033-0.014,0.043c-0.558,2.409-0.855,3.836-0.893,4.28
		c-0.019,0.491,0.109,0.779,0.383,0.864c0.227,0.075,0.572,0.033,1.035-0.128c0.142-0.057,0.288-0.127,0.439-0.212
		c0.019-0.01,0.066-0.043,0.142-0.1s0.137-0.095,0.184-0.113c0,0.057,0.005,0.14,0.014,0.248c0.01,0.108,0.015,0.191,0.015,0.248
		c0,0.104-0.005,0.165-0.015,0.185c-0.076,0.094-0.288,0.198-0.638,0.312c-0.548,0.208-1.058,0.312-1.531,0.312
		c-0.387,0-0.657-0.123-0.808-0.368c-0.189-0.331-0.184-0.926,0.014-1.786l0.581-2.735c0.019-0.095,0.042-0.222,0.071-0.383
		c0.028-0.16,0.057-0.31,0.085-0.446s0.062-0.263,0.099-0.376h-1.36L36.462,54.207z"/>
</g>
<g>
	<path d="M47.583,33.408c-0.028,0.009-0.052,0.026-0.071,0.049c-0.019,0.024-0.038,0.055-0.057,0.092s-0.038,0.066-0.057,0.085
		c-0.123,0.151-0.284,0.212-0.482,0.184l-0.042-0.014c-0.028-0.009-0.047-0.019-0.057-0.028c-0.161-0.094-0.189-0.292-0.085-0.595
		c0.179-0.557,0.51-0.978,0.992-1.261c0.434-0.255,0.926-0.392,1.474-0.411s1.054,0.081,1.517,0.298
		c0.454,0.217,0.834,0.539,1.141,0.963c0.307,0.425,0.517,0.903,0.631,1.432c0.198,0.851,0.156,1.843-0.128,2.977
		c-0.463,1.805-1.2,3.104-2.211,3.897c-0.747,0.567-1.559,0.812-2.438,0.737c-0.879-0.057-1.573-0.505-2.083-1.346
		c-0.34-0.614-0.411-1.356-0.213-2.225c0.189-0.917,0.624-1.715,1.304-2.396c0.435-0.435,0.855-0.723,1.261-0.864
		c0.558-0.161,1.077-0.182,1.559-0.064s0.888,0.324,1.219,0.617c0.255,0.217,0.458,0.491,0.609,0.822
		c0.019,0.038,0.045,0.104,0.078,0.199c0.033,0.094,0.059,0.161,0.078,0.198c0.019-0.132,0.038-0.231,0.057-0.298
		c0.009-0.075,0.026-0.182,0.049-0.319c0.024-0.137,0.041-0.238,0.05-0.305c0.132-1.275-0.071-2.216-0.609-2.82
		c-0.274-0.302-0.624-0.529-1.049-0.68c-0.369-0.142-0.785-0.163-1.247-0.064c-0.463,0.099-0.799,0.324-1.006,0.673
		C47.672,33.101,47.611,33.257,47.583,33.408z M49.27,35.562c-0.586-0.028-1.094,0.099-1.524,0.382
		c-0.43,0.284-0.768,0.657-1.013,1.12c-0.151,0.284-0.293,0.737-0.425,1.361c-0.113,0.633-0.127,1.105-0.042,1.417
		c0.208,0.604,0.543,0.978,1.006,1.12c0.444,0.17,0.982,0.18,1.616,0.028c0.472-0.151,0.874-0.397,1.205-0.737
		c0.217-0.245,0.43-0.564,0.638-0.957s0.354-0.772,0.439-1.141c0.113-0.378,0.116-0.777,0.007-1.198
		c-0.109-0.42-0.324-0.753-0.645-1C50.19,35.695,49.77,35.562,49.27,35.562z"/>
	<path d="M56.356,31.75h0.992c-0.179,0.917-0.451,2.209-0.815,3.876c-0.364,1.668-0.616,2.852-0.758,3.55l-0.354,1.659h5.017
		c-0.094,0.435-0.156,0.68-0.184,0.737c-0.397,0.019-1.382,0.026-2.955,0.021c-1.573-0.005-2.582-0.007-3.026-0.007L56.356,31.75z"
		/>
</g>
<g>
	<rect x="43.646" y="47.344" width="19.206" height="0.574"/>
</g>
<g>
	<path d="M46.48,52.719c-0.028,0.01-0.052,0.026-0.071,0.05s-0.038,0.054-0.057,0.092s-0.038,0.066-0.057,0.085
		c-0.123,0.151-0.284,0.213-0.482,0.185l-0.042-0.015c-0.028-0.009-0.047-0.019-0.057-0.028c-0.161-0.094-0.189-0.293-0.085-0.595
		c0.179-0.558,0.51-0.979,0.992-1.262c0.434-0.255,0.926-0.392,1.474-0.411c0.548-0.019,1.054,0.08,1.517,0.298
		c0.454,0.217,0.834,0.538,1.141,0.964c0.307,0.425,0.517,0.902,0.631,1.432c0.198,0.85,0.156,1.842-0.128,2.976
		c-0.463,1.806-1.2,3.104-2.211,3.898c-0.747,0.566-1.559,0.812-2.438,0.736c-0.879-0.057-1.573-0.505-2.083-1.347
		c-0.34-0.613-0.411-1.355-0.213-2.225c0.189-0.917,0.624-1.715,1.304-2.396c0.435-0.435,0.855-0.723,1.261-0.864
		c0.558-0.161,1.077-0.182,1.559-0.064c0.482,0.119,0.888,0.324,1.219,0.617c0.255,0.217,0.458,0.491,0.609,0.822
		c0.019,0.037,0.045,0.104,0.078,0.198s0.059,0.16,0.078,0.198c0.019-0.132,0.038-0.231,0.057-0.298
		c0.009-0.075,0.026-0.182,0.049-0.318c0.024-0.138,0.041-0.239,0.05-0.305c0.132-1.276-0.071-2.216-0.609-2.821
		c-0.274-0.302-0.624-0.528-1.049-0.68c-0.369-0.142-0.785-0.163-1.247-0.064c-0.463,0.1-0.799,0.324-1.006,0.674
		C46.57,52.411,46.509,52.567,46.48,52.719z M48.167,54.873c-0.586-0.028-1.094,0.099-1.524,0.383
		c-0.43,0.283-0.768,0.656-1.013,1.119c-0.151,0.284-0.293,0.737-0.425,1.361c-0.113,0.633-0.127,1.105-0.042,1.417
		c0.208,0.604,0.543,0.978,1.006,1.119c0.444,0.171,0.982,0.18,1.616,0.028c0.472-0.15,0.874-0.396,1.205-0.736
		c0.217-0.246,0.43-0.564,0.638-0.957c0.208-0.392,0.354-0.772,0.439-1.141c0.113-0.378,0.116-0.777,0.007-1.198
		c-0.109-0.42-0.324-0.753-0.645-0.999C49.088,55.005,48.668,54.873,48.167,54.873z"/>
</g>
<g>
	<path d="M56.587,51.74h0.893v0.894h-0.893V51.74z"/>
</g>
<g>
	<path d="M57.274,59.805c-0.643,0.729-1.337,1.13-2.083,1.205c-0.179,0.019-0.354,0.005-0.524-0.042
		c-0.453-0.095-0.82-0.338-1.098-0.73c-0.279-0.392-0.442-0.838-0.489-1.339c-0.066-0.728,0.045-1.448,0.333-2.162
		c0.288-0.713,0.71-1.315,1.268-1.807c0.17-0.133,0.303-0.231,0.397-0.298c0.265-0.17,0.541-0.305,0.829-0.404
		c0.288-0.099,0.595-0.139,0.921-0.12c0.326,0.02,0.607,0.123,0.843,0.312c0.17,0.143,0.316,0.331,0.439,0.567
		c0.057,0.151,0.104,0.265,0.142,0.34l0.227-1.119l0.057-0.1c0.179-0.009,0.468-0.014,0.864-0.014l-1.941,9.17h-0.907l0.17-0.865
		l0.411-1.885L57.274,59.805z M56.806,54.816c-0.472,0.038-0.926,0.222-1.36,0.553c-0.416,0.303-0.754,0.694-1.014,1.176
		c-0.26,0.482-0.404,0.979-0.432,1.488c-0.057,1.002,0.236,1.691,0.879,2.069c0.264,0.161,0.553,0.227,0.864,0.198
		c0.52-0.037,0.987-0.307,1.403-0.808c0.179-0.255,0.279-0.406,0.298-0.453c0.009-0.028,0.111-0.486,0.305-1.375
		c0.193-0.888,0.295-1.365,0.305-1.432c0-0.037-0.01-0.165-0.028-0.383c-0.095-0.453-0.274-0.756-0.539-0.907
		C57.307,54.84,57.08,54.797,56.806,54.816z"/>
</g>
<g>
	<path d="M60.917,58.34h0.655l-0.962,4.554l-0.04,0.109c-0.086,0.013-0.301,0.02-0.645,0.02L60.917,58.34z M61.245,56.792
		c0.085-0.384,0.135-0.596,0.148-0.635c0.086-0.014,0.301-0.021,0.645-0.021c-0.086,0.384-0.136,0.596-0.149,0.636
		C61.804,56.785,61.589,56.792,61.245,56.792z"/>
</g>
<g>
	<path d="M68.82,48.862c0.057-0.094,0.198-0.142,0.425-0.142h8.093h0.595c0.123,0.02,0.208,0.083,0.255,0.191
		s0.023,0.205-0.071,0.29c-0.057,0.058-0.156,0.086-0.297,0.086h-8.575c-0.142,0-0.227-0.005-0.255-0.015
		c-0.085-0.019-0.146-0.073-0.184-0.163C68.768,49.021,68.773,48.938,68.82,48.862z M68.99,45.985
		c0.019-0.01,0.099-0.015,0.241-0.015h8.122l0.297-0.014c0.199,0,0.298,0.005,0.298,0.014c0.113,0.02,0.191,0.085,0.234,0.199
		c0.042,0.113,0.021,0.208-0.064,0.283c-0.057,0.057-0.161,0.085-0.312,0.085h-8.519c-0.151,0-0.241-0.005-0.269-0.015
		c-0.151-0.028-0.229-0.115-0.234-0.262S68.849,46.023,68.99,45.985z"/>
</g>
<g>
	<path d="M88.078,33.408c-0.028,0.009-0.052,0.026-0.071,0.049c-0.019,0.024-0.038,0.055-0.057,0.092s-0.038,0.066-0.057,0.085
		c-0.123,0.151-0.284,0.212-0.482,0.184l-0.042-0.014c-0.028-0.009-0.047-0.019-0.057-0.028c-0.161-0.094-0.189-0.292-0.085-0.595
		c0.179-0.557,0.51-0.978,0.992-1.261c0.434-0.255,0.926-0.392,1.474-0.411s1.054,0.081,1.517,0.298
		c0.454,0.217,0.834,0.539,1.141,0.963c0.307,0.425,0.517,0.903,0.631,1.432c0.198,0.851,0.156,1.843-0.128,2.977
		c-0.463,1.805-1.2,3.104-2.211,3.897c-0.747,0.567-1.559,0.812-2.438,0.737c-0.879-0.057-1.573-0.505-2.083-1.346
		c-0.34-0.614-0.411-1.356-0.213-2.225c0.189-0.917,0.624-1.715,1.304-2.396c0.435-0.435,0.855-0.723,1.261-0.864
		c0.558-0.161,1.077-0.182,1.559-0.064s0.888,0.324,1.219,0.617c0.255,0.217,0.458,0.491,0.609,0.822
		c0.019,0.038,0.045,0.104,0.078,0.199c0.033,0.094,0.059,0.161,0.078,0.198c0.019-0.132,0.038-0.231,0.057-0.298
		c0.009-0.075,0.026-0.182,0.049-0.319c0.024-0.137,0.041-0.238,0.05-0.305c0.132-1.275-0.071-2.216-0.609-2.82
		c-0.274-0.302-0.624-0.529-1.049-0.68c-0.369-0.142-0.785-0.163-1.247-0.064c-0.463,0.099-0.799,0.324-1.006,0.673
		C88.167,33.101,88.106,33.257,88.078,33.408z M89.765,35.562c-0.586-0.028-1.094,0.099-1.524,0.382
		c-0.43,0.284-0.768,0.657-1.013,1.12c-0.151,0.284-0.293,0.737-0.425,1.361c-0.113,0.633-0.127,1.105-0.042,1.417
		c0.208,0.604,0.543,0.978,1.006,1.12c0.444,0.17,0.982,0.18,1.616,0.028c0.472-0.151,0.874-0.397,1.205-0.737
		c0.217-0.245,0.43-0.564,0.638-0.957s0.354-0.772,0.439-1.141c0.113-0.378,0.116-0.777,0.007-1.198
		c-0.109-0.42-0.324-0.753-0.645-1C90.686,35.695,90.265,35.562,89.765,35.562z"/>
	<path d="M96.851,31.75h0.992c-0.179,0.917-0.451,2.209-0.815,3.876c-0.364,1.668-0.616,2.852-0.758,3.55l-0.354,1.659h5.017
		c-0.094,0.435-0.156,0.68-0.184,0.737c-0.397,0.019-1.382,0.026-2.955,0.021c-1.573-0.005-2.582-0.007-3.026-0.007L96.851,31.75z"
		/>
</g>
<g>
	<rect x="84.141" y="47.344" width="19.206" height="0.574"/>
</g>
<g>
	<path d="M86.976,52.719c-0.028,0.01-0.052,0.026-0.071,0.05s-0.038,0.054-0.057,0.092s-0.038,0.066-0.057,0.085
		c-0.123,0.151-0.284,0.213-0.482,0.185l-0.042-0.015c-0.028-0.009-0.047-0.019-0.057-0.028c-0.161-0.094-0.189-0.293-0.085-0.595
		c0.179-0.558,0.51-0.979,0.992-1.262c0.434-0.255,0.926-0.392,1.474-0.411c0.548-0.019,1.054,0.08,1.517,0.298
		c0.454,0.217,0.834,0.538,1.141,0.964c0.307,0.425,0.517,0.902,0.631,1.432c0.198,0.85,0.156,1.842-0.128,2.976
		c-0.463,1.806-1.2,3.104-2.211,3.898c-0.747,0.566-1.559,0.812-2.438,0.736c-0.879-0.057-1.573-0.505-2.083-1.347
		c-0.34-0.613-0.411-1.355-0.213-2.225c0.189-0.917,0.624-1.715,1.304-2.396c0.435-0.435,0.855-0.723,1.261-0.864
		c0.558-0.161,1.077-0.182,1.559-0.064c0.482,0.119,0.888,0.324,1.219,0.617c0.255,0.217,0.458,0.491,0.609,0.822
		c0.019,0.037,0.045,0.104,0.078,0.198s0.059,0.16,0.078,0.198c0.019-0.132,0.038-0.231,0.057-0.298
		c0.009-0.075,0.026-0.182,0.049-0.318c0.024-0.138,0.041-0.239,0.05-0.305c0.132-1.276-0.071-2.216-0.609-2.821
		c-0.274-0.302-0.624-0.528-1.049-0.68c-0.369-0.142-0.785-0.163-1.247-0.064c-0.463,0.1-0.799,0.324-1.006,0.674
		C87.065,52.411,87.004,52.567,86.976,52.719z M88.663,54.873c-0.586-0.028-1.094,0.099-1.524,0.383
		c-0.43,0.283-0.768,0.656-1.013,1.119c-0.151,0.284-0.293,0.737-0.425,1.361c-0.113,0.633-0.127,1.105-0.042,1.417
		c0.208,0.604,0.543,0.978,1.006,1.119c0.444,0.171,0.982,0.18,1.616,0.028c0.472-0.15,0.874-0.396,1.205-0.736
		c0.217-0.246,0.43-0.564,0.638-0.957c0.208-0.392,0.354-0.772,0.439-1.141c0.113-0.378,0.116-0.777,0.007-1.198
		c-0.109-0.42-0.324-0.753-0.645-0.999C89.583,55.005,89.163,54.873,88.663,54.873z"/>
	<path d="M97.761,59.805c-0.643,0.729-1.337,1.13-2.083,1.205c-0.179,0.019-0.354,0.005-0.524-0.042
		c-0.453-0.095-0.82-0.338-1.098-0.73c-0.279-0.392-0.442-0.838-0.489-1.339c-0.066-0.728,0.045-1.448,0.333-2.162
		c0.288-0.713,0.71-1.315,1.268-1.807c0.17-0.133,0.303-0.231,0.397-0.298c0.265-0.17,0.541-0.305,0.829-0.404
		c0.288-0.099,0.595-0.139,0.921-0.12c0.326,0.02,0.607,0.123,0.843,0.312c0.17,0.143,0.316,0.331,0.439,0.567
		c0.057,0.151,0.104,0.265,0.142,0.34l0.227-1.119l0.057-0.1c0.179-0.009,0.468-0.014,0.864-0.014l-1.941,9.17h-0.907l0.17-0.865
		l0.411-1.885L97.761,59.805z M97.293,54.816c-0.472,0.038-0.926,0.222-1.36,0.553c-0.416,0.303-0.754,0.694-1.014,1.176
		c-0.26,0.482-0.404,0.979-0.432,1.488c-0.057,1.002,0.236,1.691,0.879,2.069c0.264,0.161,0.553,0.227,0.864,0.198
		c0.52-0.037,0.987-0.307,1.403-0.808c0.179-0.255,0.279-0.406,0.298-0.453c0.009-0.028,0.111-0.486,0.305-1.375
		c0.193-0.888,0.295-1.365,0.305-1.432c0-0.037-0.01-0.165-0.028-0.383c-0.095-0.453-0.274-0.756-0.539-0.907
		C97.794,54.84,97.567,54.797,97.293,54.816z"/>
</g>
<g>
	<path d="M101.413,58.34h0.655l-0.962,4.554l-0.04,0.109c-0.086,0.013-0.301,0.02-0.645,0.02L101.413,58.34z M101.74,56.792
		c0.085-0.384,0.135-0.596,0.148-0.635c0.086-0.014,0.301-0.021,0.645-0.021c-0.086,0.384-0.136,0.596-0.149,0.636
		C102.299,56.785,102.084,56.792,101.74,56.792z"/>
</g>
</svg>
