<?xml version="1.0" encoding="iso-8859-1"?>
<!-- Generator: Adobe Illustrator 16.0.0, SVG Export Plug-In . SVG Version: 6.00 Build 0)  -->
<!DOCTYPE svg PUBLIC "-//W3C//DTD SVG 1.1//EN" "http://www.w3.org/Graphics/SVG/1.1/DTD/svg11.dtd">
<svg version="1.1" id="Layer_1" xmlns="http://www.w3.org/2000/svg" xmlns:xlink="http://www.w3.org/1999/xlink" x="0px" y="0px"
	 width="566.93px" height="85.04px" viewBox="0 0 566.93 85.04" style="enable-background:new 0 0 566.93 85.04;"
	 xml:space="preserve">
<g>
	<path d="M28.408,41.406h0.935l-1.162,5.527l6.577-5.344l0.241-0.17c0.246-0.009,0.624-0.014,1.134-0.014v0.014l-4.28,3.473
		l-0.51,0.396c0.076,0.161,0.156,0.329,0.241,0.504c0.085,0.175,0.179,0.368,0.283,0.581c0.104,0.212,0.184,0.375,0.241,0.488
		l2.14,4.38c-0.567,0-0.921-0.01-1.063-0.028c-0.104-0.16-0.232-0.404-0.383-0.729c-0.151-0.326-0.26-0.551-0.326-0.674
		l-1.899-3.884c-0.189,0.161-0.593,0.489-1.212,0.985c-0.619,0.496-1.089,0.886-1.41,1.17c-0.095,0.35-0.21,0.864-0.347,1.544
		c-0.137,0.681-0.234,1.14-0.291,1.375l-0.071,0.213c-0.123,0.019-0.43,0.028-0.921,0.028L28.408,41.406z"/>
</g>
<g>
	<path d="M41.338,48.733c0.057-0.094,0.198-0.142,0.425-0.142h8.093h0.595c0.123,0.02,0.208,0.083,0.255,0.191
		s0.023,0.205-0.071,0.29c-0.057,0.058-0.156,0.086-0.297,0.086h-8.575c-0.142,0-0.227-0.005-0.255-0.015
		c-0.085-0.019-0.146-0.073-0.184-0.163C41.286,48.892,41.291,48.81,41.338,48.733z M41.508,45.856
		c0.019-0.01,0.099-0.015,0.241-0.015h8.122l0.297-0.014c0.199,0,0.298,0.005,0.298,0.014c0.113,0.02,0.191,0.085,0.234,0.199
		c0.042,0.113,0.021,0.208-0.064,0.283c-0.057,0.057-0.161,0.085-0.312,0.085h-8.519c-0.151,0-0.241-0.005-0.269-0.015
		c-0.151-0.028-0.229-0.115-0.234-0.262S41.367,45.895,41.508,45.856z"/>
</g>
<g>
	<path d="M56.285,41.406h0.765c0.17,0,0.26,0.009,0.269,0.028c0.038,0.038,0.057,0.104,0.057,0.198l0.425,2.168
		c0,0.01,0.078,0.424,0.234,1.24c0.156,0.817,0.326,1.713,0.51,2.687c0.185,0.973,0.305,1.62,0.361,1.941
		c0.01,0.048,0.026,0.148,0.05,0.305s0.045,0.276,0.064,0.361l0.496-0.851l0.921-1.517l3.912-6.35l0.142-0.184
		c0.123-0.02,0.435-0.028,0.936-0.028l-6.01,9.723l-0.142,0.185c-0.227,0.009-0.586,0.014-1.077,0.014L56.285,41.406z"/>
</g>
<g>
	<path d="M62.441,50.135h0.01C62.451,50.154,62.441,50.145,62.441,50.135z M65.109,48.24c0.089,0.783,0.188,1.567,0.278,2.36
		l2.351-0.456v0.01l-2.162,0.992l1.16,2.103c-0.148-0.119-0.268-0.277-0.396-0.417l-0.813-0.872l-0.297-0.317
		c-0.03-0.04-0.08-0.109-0.129-0.109c-0.05,0-0.099,0.069-0.129,0.109l-0.298,0.317l-0.813,0.872
		c-0.129,0.14-0.248,0.298-0.397,0.417l1.161-2.103l-2.162-0.992v-0.01l2.351,0.456c0.089-0.793,0.188-1.577,0.277-2.36H65.109z
		 M67.747,50.135h0.01C67.757,50.154,67.747,50.145,67.747,50.135z"/>
</g>
<g>
	<path d="M71.061,49.867c0.076,0.038,0.182,0.1,0.319,0.185c0.137,0.085,0.239,0.146,0.305,0.185
		c0.312,0.142,0.652,0.25,1.021,0.325c0.369,0.076,0.749,0.088,1.141,0.036s0.697-0.187,0.914-0.404
		c0.17-0.188,0.262-0.411,0.276-0.666s-0.059-0.482-0.22-0.681c-0.151-0.188-0.347-0.33-0.588-0.425
		c-0.241-0.095-0.543-0.173-0.907-0.234c-0.364-0.061-0.626-0.115-0.787-0.163c-0.699-0.217-1.167-0.59-1.403-1.119
		c-0.123-0.283-0.161-0.591-0.113-0.921c0.047-0.331,0.17-0.614,0.369-0.851c0.396-0.501,1.082-0.751,2.055-0.751
		c0.765,0,1.488,0.155,2.168,0.467l-0.128,0.766c-0.094-0.028-0.215-0.078-0.361-0.148c-0.146-0.071-0.262-0.121-0.347-0.149
		c-0.274-0.104-0.581-0.177-0.921-0.22c-0.34-0.042-0.685-0.03-1.035,0.036s-0.604,0.198-0.765,0.396
		c-0.142,0.17-0.215,0.368-0.22,0.596c-0.005,0.227,0.064,0.425,0.206,0.595c0.066,0.066,0.139,0.13,0.22,0.191
		c0.08,0.062,0.151,0.106,0.212,0.135s0.154,0.062,0.276,0.1c0.123,0.037,0.203,0.062,0.241,0.07
		c0.038,0.01,0.137,0.028,0.297,0.057s0.246,0.043,0.255,0.043c0.406,0.085,0.689,0.151,0.85,0.198
		c0.671,0.246,1.12,0.643,1.347,1.19c0.085,0.208,0.127,0.454,0.127,0.737c0,0.453-0.137,0.841-0.411,1.162
		c-0.454,0.566-1.233,0.812-2.338,0.737c-0.87-0.095-1.564-0.293-2.083-0.596c-0.066-0.028-0.099-0.066-0.099-0.113
		s0.009-0.108,0.028-0.185c0.009-0.065,0.026-0.163,0.049-0.29C71.035,50.03,71.051,49.934,71.061,49.867z"/>
	<path d="M77.339,41.406h0.893v0.893h-0.893V41.406z M77.339,44.553h0.893v6.689h-0.893V44.553z"/>
	<path d="M81.421,45.956c0.038-0.133,0.151-0.336,0.34-0.61c0.482-0.661,1.163-0.958,2.041-0.893
		c0.69,0.048,1.191,0.331,1.502,0.851c0.066,0.113,0.118,0.236,0.156,0.368c0.038,0.133,0.064,0.279,0.078,0.439
		c0.014,0.161,0.023,0.293,0.028,0.397c0.005,0.104,0.005,0.257,0,0.46s-0.007,0.338-0.007,0.404v3.869h-0.907v-3.855
		c0-0.057,0.002-0.172,0.007-0.347s0.005-0.308,0-0.397c-0.005-0.089-0.014-0.203-0.028-0.34s-0.045-0.26-0.092-0.368
		c-0.047-0.108-0.109-0.21-0.185-0.305c-0.217-0.274-0.572-0.43-1.063-0.468c-0.718-0.076-1.242,0.227-1.573,0.907
		c-0.047,0.094-0.085,0.187-0.113,0.276s-0.052,0.191-0.071,0.305s-0.036,0.205-0.05,0.276c-0.014,0.07-0.023,0.175-0.028,0.312
		s-0.007,0.231-0.007,0.283c0,0.053,0,0.158,0,0.319c0,0.16,0,0.255,0,0.283v3.118h-0.907v-6.689h0.865v1.403H81.421z"/>
	<path d="M91.668,54.389H91.2c-0.132,0-0.212-0.005-0.241-0.015c-0.113-0.057-0.321-0.236-0.624-0.538
		c-0.548-0.548-0.992-1.162-1.333-1.843c-0.728-1.455-1.054-3.118-0.978-4.988c0.057-1.2,0.281-2.299,0.673-3.296
		s0.928-1.835,1.609-2.516c0.321-0.321,0.539-0.51,0.652-0.567c0.028-0.009,0.108-0.014,0.241-0.014h0.468
		c-0.038,0.048-0.165,0.165-0.382,0.354c-0.444,0.378-0.889,0.982-1.333,1.814c-0.614,1.181-0.955,2.589-1.021,4.224
		c-0.057,1.332,0.092,2.589,0.447,3.77c0.354,1.181,0.886,2.159,1.594,2.934c0.132,0.151,0.236,0.26,0.312,0.326
		C91.503,54.224,91.63,54.341,91.668,54.389z"/>
</g>
<g>
	<path d="M95.063,44.553h0.893l-1.375,6.505l-0.057,0.156c-0.113,0.019-0.406,0.028-0.879,0.028L95.063,44.553z M95.545,42.299
		c0.085-0.463,0.151-0.751,0.198-0.864c0.113-0.02,0.406-0.028,0.879-0.028l-0.185,0.893H95.545z"/>
</g>
<g>
	<path d="M97.946,40.612h0.467c0.142,0,0.222,0.005,0.241,0.014c0.113,0.058,0.321,0.236,0.624,0.539
		c0.548,0.548,0.992,1.162,1.333,1.843c0.727,1.455,1.053,3.118,0.978,4.988c-0.057,1.2-0.281,2.299-0.673,3.296
		c-0.393,0.996-0.929,1.835-1.609,2.516c-0.321,0.321-0.539,0.51-0.652,0.566c-0.028,0.01-0.109,0.015-0.241,0.015h-0.467
		c0.038-0.048,0.165-0.165,0.382-0.354c0.076-0.066,0.18-0.175,0.312-0.326c0.416-0.463,0.76-0.973,1.035-1.53
		c0.746-1.475,1.082-3.198,1.006-5.173c-0.095-2.362-0.775-4.267-2.041-5.712c-0.132-0.151-0.236-0.26-0.312-0.326
		C98.111,40.777,97.984,40.66,97.946,40.612z"/>
</g>
</svg>
