<?xml version="1.0" encoding="iso-8859-1"?>
<!-- Generator: Adobe Illustrator 16.0.0, SVG Export Plug-In . SVG Version: 6.00 Build 0)  -->
<!DOCTYPE svg PUBLIC "-//W3C//DTD SVG 1.1//EN" "http://www.w3.org/Graphics/SVG/1.1/DTD/svg11.dtd">
<svg version="1.1" id="Layer_1" xmlns="http://www.w3.org/2000/svg" xmlns:xlink="http://www.w3.org/1999/xlink" x="0px" y="0px"
	 width="566.93px" height="85.04px" viewBox="0 0 566.93 85.04" style="enable-background:new 0 0 566.93 85.04;"
	 xml:space="preserve">
<g>
	<path d="M25.729,42.513h0.765c0.17,0,0.26,0.009,0.269,0.028c0.038,0.038,0.057,0.104,0.057,0.198l0.425,2.168
		c0,0.01,0.078,0.424,0.234,1.24c0.156,0.817,0.326,1.713,0.51,2.687c0.185,0.973,0.305,1.62,0.361,1.941
		c0.01,0.048,0.026,0.148,0.05,0.305s0.045,0.276,0.064,0.361l0.496-0.851l0.921-1.517l3.912-6.35l0.142-0.184
		c0.123-0.02,0.435-0.028,0.936-0.028l-6.01,9.723L28.72,52.42c-0.227,0.009-0.586,0.014-1.077,0.014L25.729,42.513z"/>
</g>
<g>
	<path d="M40.073,49.84c0.057-0.094,0.198-0.142,0.425-0.142h8.093h0.595c0.123,0.02,0.208,0.083,0.255,0.191
		s0.023,0.205-0.071,0.29c-0.057,0.058-0.156,0.086-0.297,0.086h-8.575c-0.142,0-0.227-0.005-0.255-0.015
		c-0.085-0.019-0.146-0.073-0.184-0.163C40.021,49.998,40.026,49.916,40.073,49.84z M40.243,46.963
		c0.019-0.01,0.099-0.015,0.241-0.015h8.122l0.297-0.014c0.199,0,0.298,0.005,0.298,0.014c0.113,0.02,0.191,0.085,0.234,0.199
		c0.042,0.113,0.021,0.208-0.064,0.283c-0.057,0.057-0.161,0.085-0.312,0.085h-8.519c-0.151,0-0.241-0.005-0.269-0.015
		c-0.151-0.028-0.229-0.115-0.234-0.262S40.102,47.001,40.243,46.963z"/>
</g>
<g>
	<path d="M55.587,48.338c0.019-0.01,0.094-0.015,0.227-0.015h7.441h0.539c0.113,0.02,0.187,0.085,0.22,0.198
		c0.033,0.114,0.012,0.208-0.064,0.284c-0.028,0.028-0.071,0.052-0.127,0.07c-0.057,0.02-0.106,0.028-0.149,0.028
		s-0.099-0.002-0.17-0.007s-0.116-0.007-0.135-0.007h-7.54c-0.142,0-0.222-0.005-0.241-0.015c-0.142-0.037-0.21-0.125-0.206-0.262
		C55.386,48.478,55.455,48.385,55.587,48.338z"/>
</g>
<g>
	<path d="M70.834,50.577c-0.085,0.18-0.222,0.373-0.411,0.581c-0.624,0.718-1.333,1.03-2.126,0.936
		c-0.709-0.123-1.212-0.489-1.51-1.099c-0.297-0.609-0.347-1.335-0.148-2.176c0.264-1.067,0.827-1.937,1.687-2.607l0.383-0.256
		c0.255-0.15,0.52-0.264,0.793-0.34c0.274-0.075,0.56-0.094,0.857-0.057c0.298,0.038,0.555,0.146,0.772,0.326
		c0.189,0.17,0.373,0.468,0.553,0.893l0.227-1.119l0.057-0.1c0.179-0.009,0.468-0.014,0.864-0.014
		c-0.501,2.409-0.954,4.54-1.36,6.392c-0.132,0.604-0.27,1.035-0.411,1.29c-0.236,0.425-0.551,0.791-0.942,1.099
		c-0.392,0.307-0.82,0.508-1.283,0.602c-0.832,0.143-1.635,0.043-2.41-0.297c-0.057-0.028-0.118-0.06-0.184-0.093
		c-0.066-0.033-0.14-0.07-0.22-0.113c-0.081-0.042-0.144-0.073-0.191-0.092L66,53.554c0.047,0.019,0.118,0.059,0.213,0.12
		c0.094,0.062,0.165,0.102,0.212,0.12c0.482,0.265,1.058,0.416,1.729,0.454c0.283,0.019,0.496,0.014,0.638-0.015
		c0.349-0.075,0.664-0.25,0.942-0.524c0.279-0.273,0.484-0.591,0.617-0.949c0.085-0.208,0.189-0.628,0.312-1.262
		c0.009-0.028,0.04-0.158,0.092-0.39c0.052-0.231,0.083-0.408,0.092-0.531H70.834z M70.933,46.396
		c-0.189-0.132-0.414-0.182-0.673-0.148s-0.491,0.092-0.694,0.177c-0.204,0.085-0.395,0.189-0.574,0.312
		c-0.406,0.273-0.744,0.631-1.013,1.069c-0.27,0.439-0.438,0.905-0.503,1.396c-0.057,0.396-0.017,0.782,0.121,1.155
		c0.137,0.373,0.371,0.649,0.702,0.829c0.302,0.17,0.614,0.241,0.936,0.213c0.444-0.038,0.841-0.274,1.19-0.709
		c0.378-0.473,0.675-1.2,0.893-2.183c0.076-0.321,0.132-0.6,0.17-0.836C71.486,47.029,71.301,46.604,70.933,46.396z"/>
</g>
<g>
	<path d="M74.081,41.953c-0.04-0.033-0.091-0.089-0.154-0.169c-0.063-0.079-0.101-0.125-0.114-0.139
		c-0.073-0.086-0.109-0.139-0.109-0.158c-0.013-0.033,0-0.097,0.04-0.188c0.125-0.351,0.311-0.648,0.556-0.894
		c0.397-0.37,0.898-0.556,1.503-0.556c0.605,0,1.116,0.176,1.533,0.526c0.337,0.277,0.555,0.64,0.655,1.086
		c0.099,0.446,0.049,0.868-0.149,1.265c-0.073,0.133-0.152,0.259-0.238,0.378c-0.086,0.118-0.202,0.244-0.347,0.377
		c-0.146,0.132-0.251,0.227-0.317,0.282c-0.066,0.057-0.202,0.164-0.407,0.322c-0.205,0.159-0.321,0.248-0.347,0.269
		c-0.225,0.178-0.536,0.444-0.933,0.798c-0.397,0.354-0.688,0.607-0.873,0.76h3.661v0.585h-4.266V46.13
		c0-0.093,0.005-0.15,0.015-0.174c0.01-0.022,0.038-0.058,0.084-0.104c0.146-0.126,0.409-0.362,0.789-0.71
		c0.38-0.347,0.656-0.59,0.828-0.729c0.04-0.033,0.137-0.111,0.293-0.233c0.155-0.122,0.27-0.215,0.342-0.278
		c0.073-0.062,0.178-0.156,0.317-0.282c0.139-0.126,0.248-0.238,0.327-0.338c0.08-0.099,0.166-0.213,0.258-0.342
		c0.092-0.129,0.164-0.262,0.213-0.396c0.049-0.136,0.084-0.273,0.104-0.412c0.046-0.377-0.023-0.711-0.208-1.002
		c-0.284-0.424-0.731-0.658-1.339-0.704c-0.291-0.021-0.542,0.013-0.754,0.099C74.607,40.71,74.286,41.186,74.081,41.953z"/>
</g>
<g>
	<path d="M86.643,41.006c-0.038,0.463-0.071,0.718-0.099,0.765c-0.028,0.038-0.146,0.123-0.354,0.255
		c-0.359,0.208-0.728,0.374-1.105,0.496c-0.378,0.123-0.806,0.173-1.283,0.149s-0.896-0.168-1.254-0.433
		c-0.737-0.548-1.077-1.355-1.021-2.424c0.038-0.68,0.229-1.329,0.574-1.948c0.345-0.619,0.768-1.112,1.269-1.481
		c0.416-0.312,0.859-0.518,1.332-0.616c0.473-0.1,0.955-0.068,1.446,0.092c0.17,0.066,0.326,0.151,0.468,0.255
		c0.5,0.388,0.732,1.059,0.694,2.013c0,0.501-0.047,0.789-0.142,0.865c-0.019,0.019-0.081,0.028-0.184,0.028H82.49l-0.085,0.411
		c-0.066,0.595,0.005,1.119,0.212,1.573c0.18,0.35,0.416,0.604,0.709,0.765c0.255,0.161,0.56,0.229,0.914,0.206
		s0.678-0.083,0.971-0.178c0.293-0.094,0.562-0.217,0.808-0.368c0.085-0.047,0.203-0.125,0.354-0.234
		C86.524,41.088,86.614,41.024,86.643,41.006z M86.543,38.469c0.075-0.596,0.004-1.072-0.213-1.432
		c-0.179-0.303-0.458-0.496-0.836-0.581s-0.723-0.057-1.035,0.085c-0.397,0.151-0.749,0.401-1.056,0.751s-0.55,0.742-0.729,1.177
		H86.543z"/>
</g>
<g>
	<path d="M88.835,34.604c0.013-0.007,0.069-0.01,0.168-0.01h5.308h0.387c0.086,0.013,0.142,0.062,0.169,0.148
		c0.026,0.086,0.01,0.159-0.05,0.218c-0.046,0.04-0.182,0.06-0.407,0.06h-5.427c-0.093,0-0.149-0.003-0.169-0.01
		c-0.106-0.033-0.154-0.103-0.144-0.208C88.681,34.696,88.736,34.63,88.835,34.604z"/>
</g>
<g>
	<path d="M98.006,33.7c0.079-0.146,0.191-0.284,0.337-0.416c0.344-0.345,0.725-0.546,1.141-0.605c0.099-0.02,0.251-0.023,0.457-0.01
		c0.397,0.026,0.678,0.152,0.843,0.377c0.112,0.165,0.168,0.394,0.168,0.685c0.146-0.252,0.357-0.478,0.635-0.68
		s0.565-0.326,0.863-0.372c0.1-0.02,0.251-0.023,0.457-0.01c0.45,0.039,0.748,0.191,0.893,0.456c0.132,0.245,0.142,0.642,0.03,1.19
		l-0.447,2.063c-0.093,0.49-0.159,0.801-0.198,0.933c0,0.073-0.053,0.109-0.159,0.109c-0.02,0-0.033,0-0.04,0h-0.496
		c0.357-1.693,0.565-2.669,0.625-2.927c0.006-0.026,0.018-0.076,0.035-0.148c0.017-0.073,0.028-0.128,0.035-0.164
		c0.006-0.036,0.013-0.088,0.02-0.153c0.006-0.066,0.008-0.121,0.005-0.164c-0.003-0.043-0.01-0.093-0.02-0.149
		c-0.01-0.056-0.028-0.107-0.055-0.153c-0.099-0.191-0.288-0.308-0.565-0.348c-0.238-0.039-0.433-0.043-0.585-0.01
		c-0.265,0.066-0.498,0.215-0.699,0.446c-0.202,0.232-0.349,0.493-0.441,0.784c-0.014,0.047-0.063,0.27-0.149,0.67
		s-0.179,0.825-0.278,1.274c-0.099,0.45-0.152,0.698-0.159,0.744c-0.013,0.079-0.026,0.146-0.04,0.198
		c0,0.027-0.003,0.047-0.01,0.06c-0.006,0.014-0.02,0.023-0.04,0.03s-0.037,0.01-0.049,0.01c-0.014,0-0.035,0-0.065,0
		s-0.048,0-0.054,0h-0.477c0.357-1.693,0.566-2.669,0.625-2.927c0.007-0.026,0.019-0.076,0.035-0.148
		c0.016-0.073,0.028-0.128,0.035-0.164c0.006-0.036,0.013-0.088,0.02-0.153c0.007-0.066,0.008-0.121,0.005-0.164
		c-0.003-0.043-0.01-0.093-0.02-0.149c-0.01-0.056-0.028-0.107-0.055-0.153c-0.099-0.191-0.288-0.308-0.565-0.348
		c-0.238-0.039-0.433-0.043-0.585-0.01c-0.265,0.066-0.498,0.215-0.699,0.446c-0.202,0.232-0.349,0.493-0.441,0.784
		c-0.014,0.047-0.063,0.27-0.149,0.67s-0.179,0.825-0.278,1.274c-0.099,0.45-0.152,0.698-0.159,0.744
		c-0.014,0.079-0.027,0.146-0.04,0.198c0,0.027-0.003,0.047-0.01,0.06c-0.007,0.014-0.02,0.023-0.04,0.03
		c-0.02,0.007-0.037,0.01-0.05,0.01s-0.035,0-0.064,0s-0.048,0-0.055,0h-0.476l0.992-4.683h0.645L97.996,33.7H98.006z"/>
	<path d="M108.85,36.3c0,0.04-0.01,0.139-0.03,0.298c-0.02,0.158-0.04,0.251-0.06,0.277c-0.053,0.086-0.298,0.226-0.734,0.417
		c-0.344,0.158-0.734,0.229-1.17,0.213s-0.804-0.146-1.102-0.392c-0.099-0.079-0.185-0.172-0.258-0.277
		c-0.192-0.252-0.309-0.544-0.352-0.878s-0.025-0.657,0.055-0.968c0.079-0.311,0.202-0.605,0.367-0.883
		c0.371-0.615,0.87-1.055,1.498-1.319c0.231-0.093,0.521-0.147,0.868-0.164s0.653,0.015,0.918,0.094
		c0.165,0.054,0.394,0.159,0.685,0.318l-0.218,0.575c-0.046-0.02-0.116-0.062-0.208-0.129c-0.198-0.106-0.311-0.165-0.337-0.179
		c-0.159-0.066-0.365-0.11-0.62-0.134c-0.254-0.023-0.488-0.012-0.699,0.034c-0.47,0.106-0.85,0.376-1.141,0.809
		c-0.291,0.434-0.459,0.908-0.506,1.424c-0.06,0.675,0.146,1.138,0.615,1.389c0.172,0.087,0.378,0.128,0.62,0.124
		c0.241-0.003,0.464-0.032,0.669-0.089c0.205-0.056,0.4-0.127,0.585-0.213c0.073-0.04,0.17-0.1,0.292-0.179
		C108.709,36.389,108.797,36.333,108.85,36.3z"/>
</g>
<g>
	<path d="M111.227,29.99c0.046-0.013,0.096-0.006,0.149,0.02c0.053,0.026,0.086,0.066,0.099,0.119c0.006,0.02,0.01,0.086,0.01,0.198
		v8.79c0,0.014,0.001,0.05,0.005,0.109s0.003,0.103,0,0.129s-0.01,0.062-0.02,0.109c-0.01,0.046-0.028,0.081-0.055,0.104
		c-0.026,0.023-0.06,0.038-0.099,0.045c-0.02,0.007-0.046,0.01-0.08,0.01c-0.026-0.006-0.051-0.015-0.074-0.024
		c-0.023-0.01-0.042-0.026-0.055-0.05s-0.023-0.043-0.03-0.06c-0.006-0.017-0.012-0.041-0.015-0.074
		c-0.003-0.033-0.005-0.057-0.005-0.069c0-0.014,0-0.04,0-0.079c0-0.04,0-0.063,0-0.069v-8.761c0-0.014,0-0.041,0-0.084
		s0-0.074,0-0.095s0.001-0.048,0.005-0.085c0.003-0.035,0.011-0.064,0.025-0.084c0.013-0.02,0.031-0.039,0.054-0.059
		C111.166,30.01,111.194,29.997,111.227,29.99z"/>
</g>
<g>
	<path d="M115.376,33.375c0.466-0.427,1.062-0.714,1.696-0.714c0,0-0.099,0.536-0.129,0.575c-0.04,0.04-0.139,0.03-0.188,0.03
		c-0.863,0.06-1.686,0.665-1.974,1.389c-0.099,0.258-0.139,0.545-0.198,0.813c-0.02,0.079-0.377,1.795-0.396,1.854
		c0,0.129-0.119,0.099-0.208,0.099h-0.466l0.992-4.681h0.625l-0.248,1.21h0.01C115.01,33.731,115.198,33.533,115.376,33.375z
		 M117.56,30.578c-0.01-0.129,0.069-0.248,0.208-0.248c0.149-0.01,0.188,0.119,0.248,0.228c0.08,0.149,0.228,0.297,0.377,0.377
		c0.109,0.06,0.248,0.109,0.248,0.258c0,0.159-0.139,0.208-0.258,0.258c-0.218,0.099-0.417,0.228-0.585,0.397
		c-0.079,0.079-0.159,0.198-0.277,0.218c-0.149,0.029-0.278-0.129-0.238-0.268c0.04-0.119,0.248-0.308,0.347-0.387h-3.323
		c-0.079,0-0.159,0.01-0.238-0.01c-0.099-0.02-0.168-0.109-0.159-0.208c0-0.228,0.218-0.208,0.417-0.208h3.461
		C117.698,30.875,117.579,30.726,117.56,30.578z M114.881,33.959h-0.01C114.871,33.97,114.881,33.959,114.881,33.959z"/>
</g>
<g>
	<path d="M118.728,29.99c0.046-0.013,0.096-0.006,0.149,0.02c0.053,0.026,0.086,0.066,0.099,0.119c0.006,0.02,0.01,0.086,0.01,0.198
		v8.79c0,0.014,0.001,0.05,0.005,0.109s0.003,0.103,0,0.129s-0.01,0.062-0.02,0.109c-0.01,0.046-0.028,0.081-0.055,0.104
		c-0.026,0.023-0.06,0.038-0.099,0.045c-0.02,0.007-0.046,0.01-0.08,0.01c-0.026-0.006-0.051-0.015-0.074-0.024
		c-0.023-0.01-0.042-0.026-0.055-0.05s-0.023-0.043-0.03-0.06c-0.006-0.017-0.012-0.041-0.015-0.074
		c-0.003-0.033-0.005-0.057-0.005-0.069c0-0.014,0-0.04,0-0.079c0-0.04,0-0.063,0-0.069v-8.761c0-0.014,0-0.041,0-0.084
		s0-0.074,0-0.095s0.001-0.048,0.005-0.085c0.003-0.035,0.011-0.064,0.025-0.084c0.013-0.02,0.031-0.039,0.054-0.059
		C118.667,30.01,118.695,29.997,118.728,29.99z"/>
</g>
<g>
	<path d="M124.457,29.99c0.125-0.033,0.208,0.017,0.248,0.149c0.013,0.046,0.006,0.103-0.02,0.169
		c-0.006,0.02-0.278,0.728-0.813,2.123s-1.082,2.822-1.637,4.281c-0.556,1.458-0.863,2.264-0.923,2.415l-0.099,0.259
		c-0.053,0.145-0.126,0.225-0.218,0.237c-0.073,0-0.126-0.017-0.159-0.049c-0.08-0.06-0.08-0.199,0-0.417l0.615-1.598l2.719-7.113
		l0.089-0.219C124.312,30.089,124.377,30.01,124.457,29.99z"/>
</g>
<g>
	<path d="M126.034,31.15h3.85v0.556h-3.85V31.15z"/>
</g>
<g>
	<path d="M127.81,30.535h0.655L127.8,33.69h0.01c0.06-0.112,0.168-0.248,0.327-0.406c0.477-0.477,1.005-0.682,1.587-0.615
		c0.43,0.026,0.721,0.168,0.873,0.427c0.146,0.244,0.162,0.647,0.05,1.21l-0.437,2.063c-0.02,0.073-0.044,0.184-0.074,0.332
		c-0.03,0.149-0.058,0.283-0.084,0.402s-0.043,0.188-0.05,0.208c0,0.073-0.053,0.109-0.159,0.109c-0.02,0-0.033,0-0.04,0h-0.496
		c0.357-1.693,0.565-2.669,0.625-2.927c0.006-0.02,0.018-0.069,0.035-0.148c0.017-0.08,0.028-0.136,0.035-0.169
		c0.007-0.033,0.013-0.084,0.02-0.154c0.006-0.069,0.008-0.125,0.005-0.168s-0.01-0.093-0.02-0.149
		c-0.01-0.056-0.028-0.107-0.055-0.153c-0.099-0.186-0.288-0.298-0.565-0.338c-0.437-0.072-0.814,0.027-1.131,0.298
		c-0.251,0.219-0.446,0.526-0.585,0.923c-0.014,0.047-0.063,0.27-0.149,0.67s-0.179,0.825-0.278,1.274
		c-0.099,0.45-0.152,0.698-0.159,0.744c-0.014,0.079-0.027,0.146-0.04,0.198c0,0.027-0.003,0.047-0.01,0.06
		c-0.007,0.014-0.02,0.023-0.04,0.03c-0.02,0.007-0.037,0.01-0.05,0.01s-0.035,0-0.064,0s-0.048,0-0.055,0h-0.476L127.81,30.535z"/>
</g>
<g>
	<rect x="80.279" y="48.322" width="51.271" height="0.574"/>
</g>
<g>
	<path d="M100.398,51.911c0-0.019,0-0.059,0-0.12s0-0.106,0-0.135s0.002-0.068,0.007-0.12c0.004-0.053,0.014-0.09,0.028-0.114
		c0.014-0.023,0.033-0.052,0.057-0.085c0.023-0.032,0.054-0.057,0.092-0.07c0.038-0.015,0.085-0.021,0.142-0.021
		c0.161,0.028,0.241,0.193,0.241,0.496v12.543c0,0.028,0.002,0.08,0.007,0.156c0.004,0.075,0.007,0.137,0.007,0.185
		c0,0.047-0.007,0.101-0.021,0.162s-0.038,0.111-0.071,0.149c-0.033,0.037-0.078,0.062-0.135,0.07
		c-0.028,0.01-0.066,0.015-0.113,0.015c-0.047-0.01-0.088-0.026-0.121-0.05c-0.033-0.023-0.057-0.05-0.071-0.078
		s-0.026-0.068-0.036-0.12s-0.014-0.092-0.014-0.12s0-0.071,0-0.128s0-0.095,0-0.113V51.911z"/>
</g>
<g>
	<path d="M106.313,56.19c0.652-0.651,1.517-1.119,2.466-1.119c-0.042,0.184-0.127,0.708-0.184,0.765
		c-0.042,0.057-0.185,0.043-0.255,0.043c-0.822,0.057-1.559,0.496-2.055,0.979c-0.34,0.325-0.61,0.751-0.766,1.204
		c-0.085,0.298-0.411,1.899-0.496,2.311l-0.241,1.092c-0.014,0.085-0.028,0.185-0.057,0.27c0,0.185-0.156,0.142-0.284,0.142h-0.638
		l1.417-6.69h0.851l-0.369,1.771h0.014C105.803,56.743,106.143,56.36,106.313,56.19z M109.517,52.023
		c0.014-0.199,0.227-0.312,0.397-0.228c0.113,0.043,0.142,0.156,0.198,0.256c0.114,0.227,0.298,0.439,0.51,0.566
		c0.156,0.1,0.411,0.185,0.34,0.439c-0.028,0.156-0.184,0.199-0.312,0.256c-0.383,0.17-0.638,0.383-0.907,0.651
		c-0.114,0.128-0.241,0.298-0.439,0.228c-0.156-0.043-0.241-0.228-0.17-0.383c0.099-0.213,0.326-0.397,0.51-0.539h-4.692
		c-0.284,0-0.581,0-0.581-0.298c0.014-0.142,0.127-0.241,0.255-0.27c0.113-0.014,0.241,0,0.354,0h4.862
		C109.772,52.59,109.489,52.235,109.517,52.023z"/>
</g>
<g>
	<path d="M110.867,51.911c0-0.019,0-0.059,0-0.12s0-0.106,0-0.135s0.002-0.068,0.007-0.12c0.004-0.053,0.014-0.09,0.028-0.114
		c0.014-0.023,0.033-0.052,0.057-0.085c0.023-0.032,0.054-0.057,0.092-0.07c0.038-0.015,0.085-0.021,0.142-0.021
		c0.161,0.028,0.241,0.193,0.241,0.496v12.543c0,0.028,0.002,0.08,0.007,0.156c0.004,0.075,0.007,0.137,0.007,0.185
		c0,0.047-0.007,0.101-0.021,0.162s-0.038,0.111-0.071,0.149c-0.033,0.037-0.078,0.062-0.135,0.07
		c-0.028,0.01-0.066,0.015-0.113,0.015c-0.047-0.01-0.088-0.026-0.121-0.05c-0.033-0.023-0.057-0.05-0.071-0.078
		s-0.026-0.068-0.036-0.12s-0.014-0.092-0.014-0.12s0-0.071,0-0.128s0-0.095,0-0.113V51.911z"/>
</g>
</svg>
