<?xml version="1.0" encoding="iso-8859-1"?>
<!-- Generator: Adobe Illustrator 16.0.0, SVG Export Plug-In . SVG Version: 6.00 Build 0)  -->
<!DOCTYPE svg PUBLIC "-//W3C//DTD SVG 1.1//EN" "http://www.w3.org/Graphics/SVG/1.1/DTD/svg11.dtd">
<svg version="1.1" id="Layer_1" xmlns="http://www.w3.org/2000/svg" xmlns:xlink="http://www.w3.org/1999/xlink" x="0px" y="0px"
	 width="566.929px" height="85.039px" viewBox="0 0 566.929 85.039" style="enable-background:new 0 0 566.929 85.039;"
	 xml:space="preserve">
<g>
	<path d="M26.112,49.63c0.038,0.028,0.087,0.071,0.149,0.128s0.102,0.095,0.121,0.113c0.198,0.151,0.387,0.279,0.567,0.383
		c0.595,0.331,1.224,0.515,1.885,0.553c0.662,0.038,1.294-0.104,1.899-0.425c0.425-0.256,0.765-0.589,1.021-1
		c0.255-0.411,0.331-0.833,0.227-1.269c-0.123-0.463-0.435-0.816-0.935-1.062c-0.095-0.038-0.345-0.113-0.751-0.227
		c-0.066-0.02-0.241-0.062-0.524-0.128c-0.283-0.065-0.482-0.115-0.595-0.148s-0.274-0.09-0.482-0.17
		c-0.208-0.081-0.385-0.171-0.531-0.27c-0.147-0.1-0.281-0.22-0.404-0.361c-0.227-0.256-0.378-0.544-0.453-0.865
		c-0.123-0.51-0.057-1.011,0.198-1.502c0.255-0.491,0.614-0.907,1.077-1.247c0.529-0.397,1.162-0.657,1.899-0.78
		c0.737-0.123,1.469-0.085,2.197,0.113c0.246,0.066,0.619,0.236,1.12,0.51l-0.383,0.992c-0.047-0.038-0.113-0.092-0.198-0.163
		c-0.085-0.071-0.151-0.125-0.199-0.163c-0.52-0.35-1.072-0.539-1.658-0.567c-0.841-0.047-1.554,0.118-2.14,0.496
		c-0.34,0.218-0.612,0.487-0.815,0.808s-0.267,0.657-0.191,1.006c0.094,0.444,0.392,0.785,0.893,1.021
		c0.076,0.038,0.22,0.085,0.432,0.143c0.213,0.057,0.456,0.12,0.73,0.19c0.274,0.071,0.444,0.116,0.51,0.135
		c0.416,0.104,0.68,0.185,0.794,0.241c0.718,0.331,1.167,0.884,1.346,1.658c0.123,0.671-0.019,1.313-0.425,1.928
		s-0.94,1.091-1.602,1.432c-0.69,0.321-1.403,0.475-2.14,0.46c-0.737-0.014-1.445-0.167-2.126-0.46
		c-0.236-0.113-0.534-0.283-0.893-0.511L26.112,49.63z"/>
</g>
<g>
	<path d="M39.213,48.851c0.057-0.094,0.198-0.142,0.425-0.142h8.093h0.595c0.123,0.02,0.208,0.083,0.255,0.191
		s0.023,0.205-0.071,0.29c-0.057,0.058-0.156,0.086-0.297,0.086h-8.575c-0.142,0-0.227-0.005-0.255-0.015
		c-0.085-0.019-0.146-0.073-0.184-0.163C39.161,49.009,39.166,48.927,39.213,48.851z M39.383,45.974
		c0.019-0.01,0.099-0.015,0.241-0.015h8.122l0.297-0.014c0.199,0,0.298,0.005,0.298,0.014c0.113,0.02,0.191,0.085,0.234,0.199
		c0.042,0.113,0.021,0.208-0.064,0.283c-0.057,0.057-0.161,0.085-0.312,0.085h-8.519c-0.151,0-0.241-0.005-0.269-0.015
		c-0.151-0.028-0.229-0.115-0.234-0.262S39.242,46.012,39.383,45.974z"/>
</g>
<g>
	<path d="M56.583,41.523h0.851l-1.347,6.364l3.728-3.09l0.156-0.113c0.236-0.009,0.6-0.014,1.091-0.014v0.014l-2.792,2.311
		l-0.212,0.213c0.047,0.15,0.132,0.347,0.255,0.588c0.123,0.241,0.203,0.409,0.241,0.503l1.432,3.062
		c-0.52,0-0.841-0.01-0.964-0.028c-0.199-0.378-0.468-0.931-0.808-1.658c-0.34-0.728-0.572-1.214-0.694-1.46l-0.184-0.425
		c-0.17,0.122-0.404,0.312-0.702,0.566c-0.298,0.255-0.513,0.435-0.645,0.539l-0.17,0.17c-0.227,1.039-0.378,1.743-0.454,2.111
		l-0.057,0.156c-0.104,0.019-0.374,0.028-0.808,0.028L56.583,41.523z"/>
</g>
<g>
	<path d="M62.737,46.6h1.964c0.311,0,0.542,0.004,0.694,0.011c0.152,0.006,0.333,0.029,0.541,0.069
		c0.208,0.039,0.405,0.103,0.59,0.188c0.278,0.119,0.512,0.292,0.704,0.521s0.271,0.511,0.238,0.849
		c-0.046,0.33-0.222,0.628-0.526,0.893s-0.651,0.463-1.042,0.596c-0.066,0.02-0.166,0.046-0.298,0.079s-0.228,0.06-0.288,0.079
		c0.595,0.086,1.052,0.288,1.369,0.605c0.41,0.41,0.506,0.87,0.288,1.379c-0.159,0.403-0.483,0.758-0.972,1.062
		c-0.496,0.312-1.059,0.493-1.687,0.546c-0.08,0.007-0.43,0.01-1.052,0.01h-1.984L62.737,46.6z M62.062,52.93h1.29
		c0.443,0,0.711-0.003,0.804-0.01c0.502-0.04,0.949-0.159,1.339-0.357c0.648-0.33,0.958-0.721,0.932-1.171
		c-0.02-0.351-0.238-0.645-0.655-0.883c-0.337-0.191-0.764-0.304-1.28-0.337c0-0.007-0.142-0.007-0.426,0H63.64h-0.893
		c-0.026,0-0.048,0.003-0.064,0.01s-0.03,0.019-0.04,0.035c-0.01,0.016-0.017,0.029-0.02,0.039s-0.008,0.031-0.015,0.064
		c-0.007,0.033-0.01,0.053-0.01,0.06c-0.007,0.047-0.035,0.188-0.084,0.422c-0.05,0.234-0.106,0.498-0.169,0.789
		s-0.104,0.492-0.124,0.604C62.142,52.54,62.089,52.784,62.062,52.93z M62.757,49.646h0.982c0.47,0,0.771-0.006,0.903-0.02
		c0.443-0.053,0.865-0.169,1.265-0.348c0.4-0.178,0.676-0.413,0.828-0.704c0.066-0.132,0.1-0.258,0.1-0.377
		c-0.007-0.291-0.208-0.539-0.605-0.744c-0.198-0.099-0.432-0.172-0.699-0.218c-0.268-0.047-0.471-0.071-0.61-0.075
		c-0.139-0.003-0.384-0.005-0.734-0.005h-0.803c-0.02,0-0.037,0.004-0.05,0.011c-0.013,0.006-0.025,0.013-0.035,0.02
		s-0.018,0.019-0.025,0.034c-0.006,0.017-0.01,0.028-0.01,0.035s-0.003,0.021-0.01,0.045c-0.007,0.022-0.01,0.038-0.01,0.044
		C63.051,48.336,62.889,49.104,62.757,49.646z"/>
</g>
<g>
	<path d="M72.054,41.523h0.893v9.836h-0.893V41.523z"/>
	<path d="M76.136,46.073c0.038-0.133,0.151-0.336,0.34-0.61c0.482-0.661,1.163-0.958,2.041-0.893
		c0.69,0.048,1.191,0.331,1.502,0.851c0.066,0.113,0.118,0.236,0.156,0.368c0.038,0.133,0.064,0.279,0.078,0.439
		c0.014,0.161,0.023,0.293,0.028,0.397c0.005,0.104,0.005,0.257,0,0.46s-0.007,0.338-0.007,0.404v3.869h-0.907v-3.855
		c0-0.057,0.002-0.172,0.007-0.347s0.005-0.308,0-0.397c-0.005-0.089-0.014-0.203-0.028-0.34s-0.045-0.26-0.092-0.368
		c-0.047-0.108-0.109-0.21-0.185-0.305c-0.217-0.274-0.572-0.43-1.063-0.468c-0.718-0.076-1.242,0.227-1.573,0.907
		c-0.047,0.094-0.085,0.187-0.113,0.276s-0.052,0.191-0.071,0.305s-0.036,0.205-0.05,0.276c-0.014,0.07-0.023,0.175-0.028,0.312
		s-0.007,0.231-0.007,0.283c0,0.053,0,0.158,0,0.319c0,0.16,0,0.255,0,0.283v3.118h-0.907V44.67h0.865v1.403H76.136z"/>
	<path d="M87.148,50.565c-0.019-0.132-0.057-0.273-0.113-0.425s-0.106-0.278-0.149-0.383c-0.042-0.104-0.116-0.253-0.22-0.446
		s-0.17-0.316-0.198-0.369c-0.028-0.052-0.109-0.186-0.241-0.403l-0.213-0.326c-0.132-0.208-0.217-0.34-0.255-0.396
		c-0.038-0.057-0.118-0.187-0.241-0.39c-0.123-0.203-0.206-0.346-0.248-0.426s-0.113-0.215-0.212-0.403
		c-0.099-0.189-0.166-0.338-0.198-0.447c-0.034-0.108-0.076-0.252-0.128-0.432s-0.085-0.336-0.099-0.468
		c-0.014-0.133-0.021-0.281-0.021-0.446c0-0.166,0.014-0.329,0.042-0.489c0.208-1.077,0.893-1.904,2.055-2.48
		c0.699-0.35,1.462-0.536,2.289-0.56c0.827-0.023,1.599,0.116,2.317,0.418c0.614,0.265,1.139,0.635,1.573,1.112
		c0.435,0.478,0.694,1.019,0.78,1.623c0.047,0.331,0.044,0.659-0.007,0.985c-0.052,0.325-0.17,0.676-0.354,1.049
		c-0.184,0.373-0.331,0.654-0.439,0.843c-0.109,0.189-0.3,0.491-0.574,0.907l-0.425,0.694c-0.387,0.605-0.624,1.158-0.708,1.658
		h2.693v0.794h-3.501c0-0.52,0.1-1.034,0.298-1.545c0.198-0.51,0.482-1.084,0.851-1.722c0.368-0.638,0.619-1.104,0.751-1.396
		c0.491-1.134,0.576-2.078,0.255-2.835c-0.066-0.17-0.161-0.34-0.283-0.51c-0.397-0.558-0.95-0.94-1.658-1.148
		c-0.709-0.208-1.432-0.26-2.168-0.156c-0.756,0.114-1.396,0.407-1.92,0.879s-0.815,1.054-0.872,1.744
		c-0.038,0.633,0.137,1.36,0.524,2.183c0.114,0.255,0.354,0.701,0.723,1.339c0.368,0.638,0.645,1.2,0.829,1.687
		c0.184,0.487,0.276,0.98,0.276,1.481h-3.501v-0.794H87.148z"/>
</g>
</svg>
