<?xml version="1.0" encoding="iso-8859-1"?>
<!-- Generator: Adobe Illustrator 16.0.0, SVG Export Plug-In . SVG Version: 6.00 Build 0)  -->
<!DOCTYPE svg PUBLIC "-//W3C//DTD SVG 1.1//EN" "http://www.w3.org/Graphics/SVG/1.1/DTD/svg11.dtd">
<svg version="1.1" id="Layer_1" xmlns="http://www.w3.org/2000/svg" xmlns:xlink="http://www.w3.org/1999/xlink" x="0px" y="0px"
	 width="566.929px" height="85.039px" viewBox="0 0 566.929 85.039" style="enable-background:new 0 0 566.929 85.039;"
	 xml:space="preserve">
<g>
	<path d="M29.602,34.589c-0.028,0.009-0.052,0.026-0.071,0.049c-0.019,0.024-0.038,0.055-0.057,0.092s-0.038,0.066-0.057,0.085
		c-0.123,0.151-0.284,0.212-0.482,0.184l-0.042-0.014c-0.028-0.009-0.047-0.019-0.057-0.028c-0.161-0.094-0.189-0.292-0.085-0.595
		c0.179-0.557,0.51-0.978,0.992-1.261c0.434-0.255,0.926-0.392,1.474-0.411s1.054,0.081,1.517,0.298
		c0.454,0.217,0.834,0.539,1.141,0.963c0.307,0.425,0.517,0.903,0.631,1.432c0.198,0.851,0.156,1.843-0.128,2.977
		c-0.463,1.805-1.2,3.104-2.211,3.897c-0.747,0.567-1.559,0.812-2.438,0.737c-0.879-0.057-1.573-0.505-2.083-1.346
		c-0.34-0.614-0.411-1.356-0.213-2.225c0.189-0.917,0.624-1.715,1.304-2.396c0.435-0.435,0.855-0.723,1.261-0.864
		c0.558-0.161,1.077-0.182,1.559-0.064s0.888,0.324,1.219,0.617c0.255,0.217,0.458,0.491,0.609,0.822
		c0.019,0.038,0.045,0.104,0.078,0.199c0.033,0.094,0.059,0.161,0.078,0.198c0.019-0.132,0.038-0.231,0.057-0.298
		c0.009-0.075,0.026-0.182,0.049-0.319c0.024-0.137,0.041-0.238,0.05-0.305c0.132-1.275-0.071-2.216-0.609-2.82
		c-0.274-0.302-0.624-0.529-1.049-0.68c-0.369-0.142-0.785-0.163-1.247-0.064c-0.463,0.099-0.799,0.324-1.006,0.673
		C29.691,34.282,29.63,34.438,29.602,34.589z M31.289,36.744c-0.586-0.028-1.094,0.099-1.524,0.382
		c-0.43,0.284-0.768,0.657-1.013,1.12c-0.151,0.284-0.293,0.737-0.425,1.361c-0.113,0.633-0.127,1.105-0.042,1.417
		c0.208,0.604,0.543,0.978,1.006,1.12c0.444,0.17,0.982,0.18,1.616,0.028c0.472-0.151,0.874-0.397,1.205-0.737
		c0.217-0.245,0.43-0.564,0.638-0.957s0.354-0.772,0.439-1.141c0.113-0.378,0.116-0.777,0.007-1.198
		c-0.109-0.42-0.324-0.753-0.645-1C32.209,36.876,31.789,36.744,31.289,36.744z"/>
	<path d="M38.375,32.931h2.792c0.756,0,1.209,0.01,1.36,0.029c1.313,0.208,2.098,0.827,2.353,1.856
		c0.132,0.577,0.042,1.134-0.27,1.672c-0.312,0.539-0.737,0.983-1.275,1.333c-0.643,0.425-1.384,0.675-2.225,0.751
		c0,0.019-0.189,0.024-0.567,0.014l-0.581-0.014h-1.602c-0.085,0-0.137,0.01-0.156,0.028c-0.028,0.019-0.057,0.109-0.085,0.27
		l-0.17,0.779l-0.609,2.877c-0.028,0.132-0.052,0.203-0.071,0.212c-0.019,0.019-0.108,0.028-0.269,0.028h-0.708L38.375,32.931z
		 M38.318,37.849h1.871h0.723c1.011-0.047,1.786-0.326,2.325-0.836c0.5-0.472,0.751-1.025,0.751-1.658
		c0-0.614-0.26-1.058-0.779-1.332c-0.407-0.227-1.068-0.34-1.984-0.34h-2.027L38.318,37.849z"/>
</g>
<g>
	<rect x="26.102" y="48.525" width="19.96" height="0.574"/>
</g>
<g>
	<path d="M28.937,53.899c-0.028,0.01-0.052,0.026-0.071,0.05s-0.038,0.054-0.057,0.092s-0.038,0.066-0.057,0.085
		c-0.123,0.151-0.284,0.213-0.482,0.185l-0.042-0.015c-0.028-0.009-0.047-0.019-0.057-0.028c-0.161-0.094-0.189-0.293-0.085-0.595
		c0.179-0.558,0.51-0.979,0.992-1.262c0.434-0.255,0.926-0.392,1.474-0.411c0.548-0.019,1.054,0.08,1.517,0.298
		c0.454,0.217,0.834,0.538,1.141,0.964c0.307,0.425,0.517,0.902,0.631,1.432c0.198,0.85,0.156,1.842-0.128,2.976
		c-0.463,1.806-1.2,3.104-2.211,3.898c-0.747,0.566-1.559,0.812-2.438,0.736c-0.879-0.057-1.573-0.505-2.083-1.347
		c-0.34-0.613-0.411-1.355-0.213-2.225c0.189-0.917,0.624-1.715,1.304-2.396c0.435-0.435,0.855-0.723,1.261-0.864
		c0.558-0.161,1.077-0.182,1.559-0.064c0.482,0.119,0.888,0.324,1.219,0.617c0.255,0.217,0.458,0.491,0.609,0.822
		c0.019,0.037,0.045,0.104,0.078,0.198s0.059,0.16,0.078,0.198c0.019-0.132,0.038-0.231,0.057-0.298
		c0.009-0.075,0.026-0.182,0.049-0.318c0.024-0.138,0.041-0.239,0.05-0.305c0.132-1.276-0.071-2.216-0.609-2.821
		c-0.274-0.302-0.624-0.528-1.049-0.68c-0.369-0.142-0.785-0.163-1.247-0.064c-0.463,0.1-0.799,0.324-1.006,0.674
		C29.026,53.592,28.965,53.748,28.937,53.899z M30.624,56.054c-0.586-0.028-1.094,0.099-1.524,0.383
		c-0.43,0.283-0.768,0.656-1.013,1.119c-0.151,0.284-0.293,0.737-0.425,1.361c-0.113,0.633-0.127,1.105-0.042,1.417
		c0.208,0.604,0.543,0.978,1.006,1.119c0.444,0.171,0.982,0.18,1.616,0.028c0.472-0.15,0.874-0.396,1.205-0.736
		c0.217-0.246,0.43-0.564,0.638-0.957c0.208-0.392,0.354-0.772,0.439-1.141c0.113-0.378,0.116-0.777,0.007-1.198
		c-0.109-0.42-0.324-0.753-0.645-0.999C31.544,56.186,31.124,56.054,30.624,56.054z"/>
	<path d="M37.398,56.776c0.057-0.123,0.198-0.307,0.425-0.553c0.642-0.709,1.394-1.021,2.253-0.936
		c0.491,0.038,0.855,0.18,1.091,0.426c0.161,0.16,0.265,0.392,0.312,0.694c0,0.028,0.002,0.087,0.007,0.177s0.012,0.158,0.021,0.206
		c0.094-0.161,0.236-0.346,0.425-0.554c0.481-0.528,1.034-0.841,1.658-0.935c0.416-0.057,0.796-0.031,1.141,0.077
		c0.345,0.109,0.588,0.301,0.73,0.574c0.18,0.341,0.189,0.898,0.028,1.673l-0.638,2.962c-0.132,0.699-0.227,1.144-0.284,1.332
		c0,0.104-0.071,0.156-0.212,0.156c-0.028,0-0.047,0-0.057,0h-0.666l0.893-4.195c0.009-0.047,0.028-0.135,0.057-0.262
		c0.028-0.128,0.047-0.225,0.057-0.291c0.009-0.066,0.019-0.153,0.028-0.262c0.009-0.109,0.004-0.206-0.014-0.291
		c-0.019-0.085-0.047-0.17-0.085-0.255c-0.132-0.265-0.392-0.43-0.779-0.496c-0.614-0.133-1.127-0.015-1.538,0.354
		c-0.411,0.368-0.716,0.846-0.915,1.431c-0.038,0.123-0.111,0.438-0.22,0.943c-0.108,0.505-0.224,1.062-0.347,1.672
		c-0.123,0.609-0.208,1.014-0.255,1.212c-0.01,0.038-0.021,0.09-0.036,0.156s-0.026,0.113-0.035,0.142
		c0,0.038-0.005,0.066-0.014,0.085c-0.01,0.019-0.028,0.033-0.057,0.042c-0.028,0.01-0.05,0.015-0.064,0.015s-0.042,0-0.085,0
		s-0.069,0-0.078,0H39.51l0.893-4.195c0.009-0.047,0.028-0.135,0.057-0.262c0.028-0.128,0.047-0.225,0.057-0.291
		c0.009-0.066,0.019-0.153,0.028-0.262c0.009-0.109,0.004-0.206-0.014-0.291c-0.019-0.085-0.047-0.17-0.085-0.255
		c-0.133-0.265-0.393-0.43-0.78-0.496c-0.614-0.133-1.126-0.015-1.538,0.354c-0.411,0.368-0.716,0.846-0.914,1.431
		c-0.038,0.123-0.111,0.438-0.22,0.943c-0.109,0.505-0.225,1.062-0.347,1.672c-0.123,0.609-0.208,1.014-0.255,1.212
		c-0.009,0.028-0.021,0.076-0.036,0.142c-0.014,0.066-0.026,0.118-0.035,0.156c0,0.038-0.005,0.066-0.014,0.085
		c-0.01,0.019-0.028,0.033-0.057,0.042c-0.028,0.01-0.05,0.015-0.064,0.015s-0.042,0-0.085,0s-0.069,0-0.078,0h-0.638l1.417-6.689
		h0.864l-0.283,1.389H37.398z"/>
</g>
<g>
	<path d="M52.031,50.043c0.057-0.094,0.198-0.142,0.425-0.142h8.093h0.595c0.123,0.02,0.208,0.083,0.255,0.191
		s0.023,0.205-0.071,0.29c-0.057,0.058-0.156,0.086-0.297,0.086h-8.575c-0.142,0-0.227-0.005-0.255-0.015
		c-0.085-0.019-0.146-0.073-0.184-0.163C51.979,50.201,51.984,50.119,52.031,50.043z M52.201,47.166
		c0.019-0.01,0.099-0.015,0.241-0.015h8.122l0.297-0.014c0.199,0,0.298,0.005,0.298,0.014c0.113,0.02,0.191,0.085,0.234,0.199
		c0.042,0.113,0.021,0.208-0.064,0.283c-0.057,0.057-0.161,0.085-0.312,0.085h-8.519c-0.151,0-0.241-0.005-0.269-0.015
		c-0.151-0.028-0.229-0.115-0.234-0.262S52.06,47.204,52.201,47.166z"/>
</g>
<g>
	<path d="M67.544,48.541c0.019-0.01,0.094-0.015,0.227-0.015h7.441h0.539c0.113,0.02,0.187,0.085,0.22,0.198
		c0.033,0.114,0.012,0.208-0.064,0.284c-0.028,0.028-0.071,0.052-0.127,0.07c-0.057,0.02-0.106,0.028-0.149,0.028
		s-0.099-0.002-0.17-0.007s-0.116-0.007-0.135-0.007h-7.54c-0.142,0-0.222-0.005-0.241-0.015c-0.142-0.037-0.21-0.125-0.206-0.262
		C67.343,48.681,67.411,48.588,67.544,48.541z"/>
</g>
<g>
	<path d="M90.561,38.104l-0.794,3.742c-0.009,0.019-0.017,0.055-0.021,0.106c-0.005,0.052-0.012,0.097-0.021,0.135
		s-0.023,0.066-0.042,0.085c-0.113,0.113-0.657,0.293-1.63,0.539c-1.672,0.369-2.996,0.161-3.968-0.624
		c-0.501-0.425-0.851-0.917-1.049-1.474c-0.397-0.992-0.411-2.079-0.043-3.26c0.321-1.049,0.881-1.977,1.68-2.785
		c0.798-0.808,1.722-1.344,2.771-1.608c0.945-0.236,1.899-0.208,2.863,0.085c0.321,0.094,0.69,0.25,1.105,0.468l-0.382,0.992
		c-0.52-0.368-0.803-0.562-0.851-0.581c-0.312-0.151-0.685-0.255-1.12-0.312s-0.87-0.047-1.304,0.028
		c-0.954,0.189-1.783,0.685-2.487,1.488s-1.174,1.706-1.41,2.707c-0.236,1.077-0.142,2.012,0.284,2.806
		c0.227,0.425,0.505,0.751,0.836,0.978c0.822,0.604,2.018,0.68,3.586,0.227c0.189-0.057,0.298-0.108,0.326-0.156
		c0-0.009,0.151-0.718,0.453-2.126c0.057-0.321,0.109-0.558,0.156-0.708h-2.225c0.057-0.34,0.113-0.581,0.17-0.723l0.227-0.028
		H90.561z"/>
	<path d="M95.394,37.466c0.057-0.123,0.198-0.307,0.425-0.553c0.642-0.708,1.394-1.021,2.253-0.936
		c0.491,0.038,0.855,0.18,1.091,0.425c0.161,0.161,0.265,0.392,0.312,0.694c0,0.028,0.002,0.087,0.007,0.177
		s0.012,0.158,0.021,0.206c0.094-0.161,0.236-0.345,0.425-0.553c0.481-0.529,1.034-0.841,1.658-0.936
		c0.416-0.057,0.796-0.03,1.141,0.078c0.345,0.109,0.588,0.3,0.73,0.574c0.18,0.34,0.189,0.898,0.028,1.673l-0.638,2.962
		c-0.132,0.699-0.227,1.144-0.284,1.333c0,0.104-0.071,0.156-0.212,0.156c-0.028,0-0.047,0-0.057,0h-0.666l0.893-4.195
		c0.009-0.047,0.028-0.135,0.057-0.262c0.028-0.127,0.047-0.224,0.057-0.291c0.009-0.066,0.019-0.153,0.028-0.262
		c0.009-0.108,0.004-0.206-0.014-0.291c-0.019-0.085-0.047-0.17-0.085-0.255c-0.132-0.265-0.392-0.43-0.779-0.496
		c-0.614-0.132-1.127-0.014-1.538,0.354c-0.411,0.369-0.716,0.846-0.915,1.432c-0.038,0.123-0.111,0.437-0.22,0.942
		c-0.108,0.506-0.224,1.063-0.347,1.672c-0.123,0.61-0.208,1.014-0.255,1.212c-0.01,0.038-0.021,0.09-0.036,0.156
		c-0.014,0.066-0.026,0.114-0.035,0.142c0,0.038-0.005,0.066-0.014,0.085c-0.01,0.019-0.028,0.033-0.057,0.042
		s-0.05,0.014-0.064,0.014s-0.042,0-0.085,0s-0.069,0-0.078,0h-0.638l0.893-4.195c0.009-0.047,0.028-0.135,0.057-0.262
		s0.047-0.224,0.057-0.291c0.009-0.066,0.019-0.153,0.028-0.262c0.009-0.108,0.004-0.206-0.014-0.291
		c-0.019-0.085-0.047-0.17-0.085-0.255c-0.133-0.265-0.393-0.43-0.78-0.496c-0.614-0.132-1.126-0.014-1.538,0.354
		c-0.411,0.369-0.716,0.846-0.914,1.432c-0.038,0.123-0.111,0.437-0.22,0.942c-0.109,0.506-0.225,1.063-0.347,1.672
		c-0.123,0.61-0.208,1.014-0.255,1.212c-0.009,0.028-0.021,0.076-0.036,0.142c-0.014,0.066-0.026,0.119-0.035,0.156
		c0,0.038-0.005,0.066-0.014,0.085c-0.01,0.019-0.028,0.033-0.057,0.042s-0.05,0.014-0.064,0.014s-0.042,0-0.085,0s-0.069,0-0.078,0
		h-0.638l1.417-6.69h0.864l-0.283,1.389H95.394z"/>
</g>
<g>
	<rect x="78.374" y="48.525" width="29.003" height="0.574"/>
</g>
<g>
	<path d="M78.785,59.512V59.03c0-0.199,0.042-0.354,0.127-0.468l0.17-0.284l0.667-1.021l2.608-4.081
		c0.188-0.303,0.302-0.468,0.34-0.496c0.028-0.02,0.132-0.028,0.312-0.028h0.765v6.108h1.616v0.751h-1.616v2.565h-0.893v-2.565
		H78.785z M82.924,53.46c-0.028,0.066-0.074,0.163-0.135,0.29c-0.062,0.128-0.111,0.225-0.149,0.291
		c-0.198,0.35-0.536,0.905-1.013,1.665c-0.478,0.761-0.912,1.448-1.304,2.062s-0.598,0.945-0.616,0.992h3.217V53.46z"/>
</g>
<g>
	<path d="M86.212,57.527c0.038-0.113,0.198-0.387,0.482-0.822c0.444-0.623,0.93-1.024,1.459-1.204
		c0.104-0.038,0.225-0.066,0.362-0.085c0.137-0.02,0.246-0.031,0.326-0.036c0.08-0.004,0.21-0.004,0.39,0
		c0.18,0.005,0.293,0.008,0.34,0.008h4.323c0.312,0,0.496,0.066,0.553,0.198c0.019,0.057,0.028,0.095,0.028,0.113
		c0.009,0.113-0.023,0.222-0.099,0.326c-0.076,0.104-0.17,0.17-0.283,0.198c-0.066,0.019-0.218,0.028-0.454,0.028h-1.162
		c-0.076,0-0.128,0.02-0.156,0.057c-0.009,0.02-0.028,0.108-0.057,0.27c-0.028,0.16-0.057,0.331-0.085,0.51
		c-0.028,0.18-0.047,0.284-0.057,0.312c-0.246,1.663-0.194,2.938,0.156,3.826c0.009,0.02,0.028,0.064,0.057,0.135
		c0.028,0.071,0.045,0.12,0.05,0.148c0.004,0.028,0.012,0.071,0.021,0.128s0.007,0.106-0.007,0.148
		c-0.014,0.043-0.036,0.088-0.064,0.135c-0.094,0.133-0.22,0.22-0.375,0.263c-0.156,0.042-0.291-0.003-0.404-0.135
		c-0.123-0.16-0.255-0.571-0.397-1.233c-0.198-1.096-0.142-2.461,0.17-4.096c0.038-0.208,0.071-0.363,0.1-0.468h-1.163
		c-0.293,1.795-0.803,3.6-1.53,5.414c-0.066,0.17-0.142,0.298-0.227,0.383c-0.095,0.085-0.201,0.132-0.319,0.142
		s-0.225-0.023-0.319-0.099c-0.104-0.104-0.123-0.256-0.057-0.454l0.397-1.021c0.312-0.879,0.694-2.334,1.148-4.365h-0.524
		c-0.35,0-0.605,0.048-0.766,0.142c-0.302,0.161-0.59,0.482-0.864,0.964c-0.057,0.085-0.095,0.133-0.114,0.142
		c-0.028,0.02-0.113,0.028-0.255,0.028H86.212z"/>
	<path d="M98.046,57.159c0.075-0.189,0.274-0.444,0.595-0.766c0.746-0.746,1.568-1.119,2.466-1.119
		c-0.114,0.501-0.175,0.756-0.185,0.765c-0.019,0.028-0.104,0.043-0.255,0.043c-0.756,0.047-1.441,0.373-2.055,0.978
		c-0.35,0.331-0.605,0.732-0.766,1.205c-0.047,0.151-0.212,0.921-0.496,2.311l-0.241,1.091c-0.019,0.133-0.038,0.223-0.057,0.27
		c0,0.038-0.005,0.066-0.014,0.085c-0.01,0.019-0.026,0.033-0.05,0.042c-0.023,0.01-0.042,0.015-0.057,0.015s-0.042,0-0.085,0
		s-0.069,0-0.078,0h-0.638l1.417-6.689h0.85l-0.368,1.771H98.046z"/>
</g>
<g>
	<path d="M101.831,56.207v-0.366c0-0.14,0.03-0.248,0.089-0.328c0.066-0.105,0.278-0.427,0.635-0.962l1.28-1.955
		c0.317-0.462,0.549-0.813,0.694-1.051l0.089-0.119c0.02-0.014,0.096-0.021,0.228-0.021h0.566v4.247h1.161v0.555h-1.161v1.776
		h-0.635v-1.776H101.831z M104.807,52.001l-0.218,0.406l-1.27,2.005l-0.803,1.24h2.292V52.001z"/>
</g>
</svg>
