<?xml version="1.0" encoding="iso-8859-1"?>
<!-- Generator: Adobe Illustrator 16.0.0, SVG Export Plug-In . SVG Version: 6.00 Build 0)  -->
<!DOCTYPE svg PUBLIC "-//W3C//DTD SVG 1.1//EN" "http://www.w3.org/Graphics/SVG/1.1/DTD/svg11.dtd">
<svg version="1.1" id="Layer_1" xmlns="http://www.w3.org/2000/svg" xmlns:xlink="http://www.w3.org/1999/xlink" x="0px" y="0px"
	 width="566.929px" height="85.039px" viewBox="0 0 566.929 85.039" style="enable-background:new 0 0 566.929 85.039;"
	 xml:space="preserve">
<g>
	<path d="M29.548,34.589c-0.028,0.009-0.052,0.026-0.071,0.049c-0.019,0.024-0.038,0.055-0.057,0.092s-0.038,0.066-0.057,0.085
		c-0.123,0.151-0.284,0.212-0.482,0.184l-0.042-0.014c-0.028-0.009-0.047-0.019-0.057-0.028c-0.161-0.094-0.189-0.292-0.085-0.595
		c0.179-0.557,0.51-0.978,0.992-1.261c0.434-0.255,0.926-0.392,1.474-0.411s1.054,0.081,1.517,0.298
		c0.454,0.217,0.834,0.539,1.141,0.963c0.307,0.425,0.517,0.903,0.631,1.432c0.198,0.851,0.156,1.843-0.128,2.977
		c-0.463,1.805-1.2,3.104-2.211,3.897c-0.747,0.567-1.559,0.812-2.438,0.737c-0.879-0.057-1.573-0.505-2.083-1.346
		c-0.34-0.614-0.411-1.356-0.213-2.225c0.189-0.917,0.624-1.715,1.304-2.396c0.435-0.435,0.855-0.723,1.261-0.864
		c0.558-0.161,1.077-0.182,1.559-0.064s0.888,0.324,1.219,0.617c0.255,0.217,0.458,0.491,0.609,0.822
		c0.019,0.038,0.045,0.104,0.078,0.199c0.033,0.094,0.059,0.161,0.078,0.198c0.019-0.132,0.038-0.231,0.057-0.298
		c0.009-0.075,0.026-0.182,0.049-0.319c0.024-0.137,0.041-0.238,0.05-0.305c0.132-1.275-0.071-2.216-0.609-2.82
		c-0.274-0.302-0.624-0.529-1.049-0.68c-0.369-0.142-0.785-0.163-1.247-0.064c-0.463,0.099-0.799,0.324-1.006,0.673
		C29.638,34.282,29.577,34.438,29.548,34.589z M31.235,36.744c-0.586-0.028-1.094,0.099-1.524,0.382
		c-0.43,0.284-0.768,0.657-1.013,1.12c-0.151,0.284-0.293,0.737-0.425,1.361c-0.113,0.633-0.127,1.105-0.042,1.417
		c0.208,0.604,0.543,0.978,1.006,1.12c0.444,0.17,0.982,0.18,1.616,0.028c0.472-0.151,0.874-0.397,1.205-0.737
		c0.217-0.245,0.43-0.564,0.638-0.957s0.354-0.772,0.439-1.141c0.113-0.378,0.116-0.777,0.007-1.198
		c-0.109-0.42-0.324-0.753-0.645-1C32.156,36.876,31.736,36.744,31.235,36.744z"/>
	<path d="M35.742,33.725c0.057-0.34,0.113-0.581,0.17-0.723c0.123-0.038,0.468-0.05,1.035-0.036s0.926,0.017,1.077,0.007h7.058
		l-0.156,0.751h-3.812c-0.17,0-0.265,0.014-0.284,0.042c-0.028,0.047-0.042,0.104-0.042,0.17c-1.001,4.63-1.616,7.512-1.842,8.646
		l-0.057,0.156c-0.019,0.019-0.109,0.028-0.27,0.028h-0.708l1.927-9.042H35.742z"/>
</g>
<g>
	<rect x="26.102" y="48.525" width="19.96" height="0.574"/>
</g>
<g>
	<path d="M28.937,53.899c-0.028,0.01-0.052,0.026-0.071,0.05s-0.038,0.054-0.057,0.092s-0.038,0.066-0.057,0.085
		c-0.123,0.151-0.284,0.213-0.482,0.185l-0.042-0.015c-0.028-0.009-0.047-0.019-0.057-0.028c-0.161-0.094-0.189-0.293-0.085-0.595
		c0.179-0.558,0.51-0.979,0.992-1.262c0.434-0.255,0.926-0.392,1.474-0.411c0.548-0.019,1.054,0.08,1.517,0.298
		c0.454,0.217,0.834,0.538,1.141,0.964c0.307,0.425,0.517,0.902,0.631,1.432c0.198,0.85,0.156,1.842-0.128,2.976
		c-0.463,1.806-1.2,3.104-2.211,3.898c-0.747,0.566-1.559,0.812-2.438,0.736c-0.879-0.057-1.573-0.505-2.083-1.347
		c-0.34-0.613-0.411-1.355-0.213-2.225c0.189-0.917,0.624-1.715,1.304-2.396c0.435-0.435,0.855-0.723,1.261-0.864
		c0.558-0.161,1.077-0.182,1.559-0.064c0.482,0.119,0.888,0.324,1.219,0.617c0.255,0.217,0.458,0.491,0.609,0.822
		c0.019,0.037,0.045,0.104,0.078,0.198s0.059,0.16,0.078,0.198c0.019-0.132,0.038-0.231,0.057-0.298
		c0.009-0.075,0.026-0.182,0.049-0.318c0.024-0.138,0.041-0.239,0.05-0.305c0.132-1.276-0.071-2.216-0.609-2.821
		c-0.274-0.302-0.624-0.528-1.049-0.68c-0.369-0.142-0.785-0.163-1.247-0.064c-0.463,0.1-0.799,0.324-1.006,0.674
		C29.026,53.592,28.965,53.748,28.937,53.899z M30.624,56.054c-0.586-0.028-1.094,0.099-1.524,0.383
		c-0.43,0.283-0.768,0.656-1.013,1.119c-0.151,0.284-0.293,0.737-0.425,1.361c-0.113,0.633-0.127,1.105-0.042,1.417
		c0.208,0.604,0.543,0.978,1.006,1.119c0.444,0.171,0.982,0.18,1.616,0.028c0.472-0.15,0.874-0.396,1.205-0.736
		c0.217-0.246,0.43-0.564,0.638-0.957c0.208-0.392,0.354-0.772,0.439-1.141c0.113-0.378,0.116-0.777,0.007-1.198
		c-0.109-0.42-0.324-0.753-0.645-0.999C31.544,56.186,31.124,56.054,30.624,56.054z"/>
	<path d="M37.398,56.776c0.057-0.123,0.198-0.307,0.425-0.553c0.642-0.709,1.394-1.021,2.253-0.936
		c0.491,0.038,0.855,0.18,1.091,0.426c0.161,0.16,0.265,0.392,0.312,0.694c0,0.028,0.002,0.087,0.007,0.177s0.012,0.158,0.021,0.206
		c0.094-0.161,0.236-0.346,0.425-0.554c0.481-0.528,1.034-0.841,1.658-0.935c0.416-0.057,0.796-0.031,1.141,0.077
		c0.345,0.109,0.588,0.301,0.73,0.574c0.18,0.341,0.189,0.898,0.028,1.673l-0.638,2.962c-0.132,0.699-0.227,1.144-0.284,1.332
		c0,0.104-0.071,0.156-0.212,0.156c-0.028,0-0.047,0-0.057,0h-0.666l0.893-4.195c0.009-0.047,0.028-0.135,0.057-0.262
		c0.028-0.128,0.047-0.225,0.057-0.291c0.009-0.066,0.019-0.153,0.028-0.262c0.009-0.109,0.004-0.206-0.014-0.291
		c-0.019-0.085-0.047-0.17-0.085-0.255c-0.132-0.265-0.392-0.43-0.779-0.496c-0.614-0.133-1.127-0.015-1.538,0.354
		c-0.411,0.368-0.716,0.846-0.915,1.431c-0.038,0.123-0.111,0.438-0.22,0.943c-0.108,0.505-0.224,1.062-0.347,1.672
		c-0.123,0.609-0.208,1.014-0.255,1.212c-0.01,0.038-0.021,0.09-0.036,0.156s-0.026,0.113-0.035,0.142
		c0,0.038-0.005,0.066-0.014,0.085c-0.01,0.019-0.028,0.033-0.057,0.042c-0.028,0.01-0.05,0.015-0.064,0.015s-0.042,0-0.085,0
		s-0.069,0-0.078,0H39.51l0.893-4.195c0.009-0.047,0.028-0.135,0.057-0.262c0.028-0.128,0.047-0.225,0.057-0.291
		c0.009-0.066,0.019-0.153,0.028-0.262c0.009-0.109,0.004-0.206-0.014-0.291c-0.019-0.085-0.047-0.17-0.085-0.255
		c-0.133-0.265-0.393-0.43-0.78-0.496c-0.614-0.133-1.126-0.015-1.538,0.354c-0.411,0.368-0.716,0.846-0.914,1.431
		c-0.038,0.123-0.111,0.438-0.22,0.943c-0.109,0.505-0.225,1.062-0.347,1.672c-0.123,0.609-0.208,1.014-0.255,1.212
		c-0.009,0.028-0.021,0.076-0.036,0.142c-0.014,0.066-0.026,0.118-0.035,0.156c0,0.038-0.005,0.066-0.014,0.085
		c-0.01,0.019-0.028,0.033-0.057,0.042c-0.028,0.01-0.05,0.015-0.064,0.015s-0.042,0-0.085,0s-0.069,0-0.078,0h-0.638l1.417-6.689
		h0.864l-0.283,1.389H37.398z"/>
</g>
<g>
	<path d="M52.031,50.043c0.057-0.094,0.198-0.142,0.425-0.142h8.093h0.595c0.123,0.02,0.208,0.083,0.255,0.191
		s0.023,0.205-0.071,0.29c-0.057,0.058-0.156,0.086-0.297,0.086h-8.575c-0.142,0-0.227-0.005-0.255-0.015
		c-0.085-0.019-0.146-0.073-0.184-0.163C51.979,50.201,51.984,50.119,52.031,50.043z M52.201,47.166
		c0.019-0.01,0.099-0.015,0.241-0.015h8.122l0.297-0.014c0.199,0,0.298,0.005,0.298,0.014c0.113,0.02,0.191,0.085,0.234,0.199
		c0.042,0.113,0.021,0.208-0.064,0.283c-0.057,0.057-0.161,0.085-0.312,0.085h-8.519c-0.151,0-0.241-0.005-0.269-0.015
		c-0.151-0.028-0.229-0.115-0.234-0.262S52.06,47.204,52.201,47.166z"/>
</g>
<g>
	<path d="M67.544,48.541c0.019-0.01,0.094-0.015,0.227-0.015h7.441h0.539c0.113,0.02,0.187,0.085,0.22,0.198
		c0.033,0.114,0.012,0.208-0.064,0.284c-0.028,0.028-0.071,0.052-0.127,0.07c-0.057,0.02-0.106,0.028-0.149,0.028
		s-0.099-0.002-0.17-0.007s-0.116-0.007-0.135-0.007h-7.54c-0.142,0-0.222-0.005-0.241-0.015c-0.142-0.037-0.21-0.125-0.206-0.262
		C67.343,48.681,67.411,48.588,67.544,48.541z"/>
</g>
<g>
	<path d="M98.415,35.553l-0.312-0.439c-0.066-0.085-0.099-0.151-0.099-0.199c0-0.057,0.089-0.198,0.269-0.425
		c0.302-0.387,0.68-0.689,1.134-0.907c0.851-0.406,1.698-0.468,2.544-0.185c0.845,0.284,1.363,0.785,1.552,1.502
		c0.151,0.614,0.009,1.229-0.425,1.843c-0.227,0.302-0.505,0.558-0.836,0.765c-0.057,0.038-0.135,0.083-0.234,0.135
		c-0.1,0.052-0.168,0.087-0.206,0.106c0.255,0.038,0.539,0.151,0.85,0.34c0.614,0.35,1.011,0.822,1.191,1.417
		c0.16,0.501,0.158,0.992-0.007,1.474c-0.166,0.482-0.423,0.883-0.772,1.205c-0.17,0.161-0.383,0.312-0.638,0.454
		c-0.775,0.406-1.644,0.478-2.608,0.212c-0.708-0.208-1.342-0.628-1.899-1.261c-0.076-0.094-0.116-0.158-0.12-0.191
		c-0.005-0.033,0.002-0.106,0.021-0.22c0.057-0.312,0.09-0.477,0.099-0.496c0.359,0.482,0.723,0.827,1.091,1.035
		c0.34,0.208,0.704,0.361,1.092,0.46c0.387,0.1,0.787,0.116,1.197,0.05c0.411-0.066,0.763-0.231,1.056-0.496
		c0.331-0.302,0.529-0.708,0.595-1.219c0.066-0.51-0.005-0.959-0.212-1.347c-0.227-0.444-0.586-0.756-1.078-0.936
		c-0.236-0.085-0.595-0.127-1.077-0.127h-0.949v-0.708c0.812-0.047,1.36-0.123,1.644-0.227c0.359-0.132,0.659-0.352,0.9-0.659
		s0.38-0.65,0.418-1.028c0.047-0.416-0.066-0.774-0.34-1.077c-0.284-0.283-0.664-0.441-1.141-0.475s-0.891,0.04-1.24,0.22
		c-0.435,0.18-0.812,0.473-1.134,0.878c-0.047,0.066-0.106,0.159-0.177,0.276C98.493,35.423,98.443,35.506,98.415,35.553z"/>
</g>
<g>
	<rect x="78.374" y="48.525" width="45.001" height="0.574"/>
</g>
<g>
	<path d="M80.089,57.4c0.094-0.256,0.255-0.506,0.482-0.752c0.567-0.623,1.252-0.944,2.055-0.964c0.331,0,0.609,0.048,0.836,0.143
		c0.255,0.113,0.498,0.312,0.729,0.595s0.418,0.591,0.56,0.922c0.179,0.415,0.276,0.899,0.291,1.452s-0.059,1.061-0.22,1.523
		c-0.142,0.369-0.361,0.721-0.659,1.057c-0.297,0.335-0.616,0.578-0.957,0.729c-0.728,0.321-1.455,0.312-2.183-0.028
		c-1.153-0.596-1.776-1.956-1.871-4.082c-0.019-0.558-0.014-0.973,0.014-1.247c0.151-1.417,0.671-2.518,1.559-3.303
		c0.406-0.368,0.829-0.623,1.269-0.765s0.971-0.175,1.595-0.1c0.057,0,0.217,0.028,0.482,0.085c0.264,0.057,0.416,0.113,0.454,0.17
		c0.019,0.028,0.028,0.1,0.028,0.213v0.496c-0.057-0.019-0.14-0.047-0.248-0.085c-0.109-0.038-0.191-0.062-0.248-0.071
		c-0.983-0.264-1.843-0.155-2.58,0.326c-0.936,0.652-1.403,1.881-1.403,3.686H80.089z M83.122,56.592
		c-0.236-0.142-0.527-0.212-0.872-0.212c-0.345,0-0.645,0.062-0.9,0.184c-0.378,0.189-0.681,0.484-0.907,0.886
		c-0.227,0.402-0.34,0.834-0.34,1.297c0,0.832,0.17,1.513,0.51,2.041c0.406,0.586,0.964,0.851,1.672,0.794
		c0.444-0.057,0.798-0.188,1.063-0.396c0.35-0.293,0.581-0.704,0.695-1.233c0.038-0.208,0.057-0.524,0.057-0.949
		c0-0.832-0.113-1.427-0.34-1.786C83.599,56.933,83.386,56.725,83.122,56.592z"/>
	<path d="M86.226,59.512V59.03c0-0.199,0.042-0.354,0.127-0.468l0.17-0.284l0.667-1.021l2.608-4.081
		c0.188-0.303,0.302-0.468,0.34-0.496c0.028-0.02,0.132-0.028,0.312-0.028h0.765v6.108h1.616v0.751h-1.616v2.565h-0.893v-2.565
		H86.226z M90.365,53.46c-0.028,0.066-0.074,0.163-0.135,0.29c-0.062,0.128-0.111,0.225-0.149,0.291
		c-0.198,0.35-0.536,0.905-1.013,1.665c-0.478,0.761-0.912,1.448-1.304,2.062s-0.598,0.945-0.616,0.992h3.217V53.46z"/>
</g>
<g>
	<path d="M95.651,56.606c0.009-0.123,0.033-0.307,0.071-0.553c0-0.113,0.014-0.189,0.042-0.227c0.028-0.028,0.108-0.071,0.241-0.128
		c0.274-0.132,0.649-0.253,1.127-0.361c0.477-0.108,0.905-0.148,1.283-0.12c0.463,0.047,0.845,0.207,1.148,0.481
		c0.397,0.388,0.571,0.897,0.524,1.53c-0.01,0.066-0.066,0.343-0.17,0.829c-0.104,0.487-0.215,1.005-0.333,1.553
		s-0.182,0.85-0.191,0.907c0,0.009-0.021,0.113-0.064,0.312s-0.087,0.411-0.135,0.638s-0.08,0.378-0.099,0.453
		c0,0.104-0.071,0.156-0.212,0.156c-0.028,0-0.047,0-0.057,0h-0.652l0.213-0.992c-0.529,0.567-1.262,0.917-2.197,1.049
		c-0.492,0.075-0.884,0.062-1.177-0.042c-0.35-0.161-0.564-0.463-0.645-0.907c-0.081-0.444-0.031-0.822,0.148-1.134
		c0.435-0.851,1.465-1.398,3.09-1.645c0.094-0.009,0.199-0.019,0.312-0.028s0.236-0.019,0.368-0.028s0.236-0.019,0.312-0.028h0.227
		c0.114,0,0.17-0.071,0.17-0.213c0.009-0.047,0.03-0.139,0.063-0.276c0.033-0.137,0.062-0.267,0.085-0.39
		c0.023-0.122,0.035-0.227,0.035-0.312c0.009-0.283-0.057-0.541-0.198-0.772s-0.335-0.381-0.581-0.446
		c-0.066-0.02-0.232-0.028-0.496-0.028c-0.539,0-1.073,0.127-1.602,0.383c-0.076,0.037-0.185,0.097-0.326,0.177
		S95.727,56.578,95.651,56.606z M98.869,58.746c-1.333,0-2.348,0.274-3.047,0.822c-0.227,0.18-0.397,0.397-0.51,0.652
		s-0.113,0.496,0,0.723c0.151,0.293,0.458,0.468,0.921,0.524c0.377,0.047,0.758,0.005,1.141-0.128
		c0.383-0.132,0.688-0.34,0.914-0.623c0.151-0.189,0.274-0.52,0.369-0.992L98.869,58.746z"/>
	<path d="M106.918,60.49c-0.009,0.037-0.021,0.122-0.035,0.255c-0.014,0.132-0.028,0.25-0.042,0.354
		c-0.014,0.104-0.026,0.165-0.036,0.184c-0.019,0.02-0.109,0.085-0.27,0.198c-0.368,0.236-0.772,0.421-1.211,0.553
		c-0.439,0.133-0.917,0.175-1.432,0.128c-0.515-0.047-0.952-0.231-1.311-0.553c-0.331-0.302-0.565-0.688-0.702-1.155
		c-0.137-0.468-0.168-0.961-0.092-1.48c0.113-0.784,0.427-1.508,0.942-2.169c0.515-0.661,1.136-1.129,1.864-1.403
		c0.312-0.113,0.702-0.175,1.169-0.184c0.467-0.01,0.872,0.042,1.211,0.155c0.217,0.066,0.524,0.213,0.921,0.439l-0.298,0.779
		c-0.435-0.264-0.666-0.406-0.694-0.425c-0.293-0.123-0.628-0.198-1.006-0.227s-0.742,0.009-1.091,0.113
		c-0.586,0.188-1.056,0.558-1.41,1.105s-0.588,1.157-0.702,1.828c-0.076,0.473-0.052,0.921,0.071,1.347
		c0.123,0.425,0.369,0.737,0.737,0.936c0.472,0.236,1.063,0.26,1.771,0.07c0.387-0.094,0.78-0.269,1.176-0.524
		c0.047-0.028,0.121-0.08,0.22-0.155C106.77,60.584,106.853,60.527,106.918,60.49z"/>
	<path d="M108.719,57.527c0.038-0.113,0.198-0.387,0.482-0.822c0.444-0.623,0.93-1.024,1.459-1.204
		c0.104-0.038,0.225-0.066,0.362-0.085c0.137-0.02,0.246-0.031,0.326-0.036c0.08-0.004,0.21-0.004,0.39,0
		c0.18,0.005,0.293,0.008,0.34,0.008h4.323c0.312,0,0.496,0.066,0.553,0.198c0.019,0.057,0.028,0.095,0.028,0.113
		c0.009,0.113-0.023,0.222-0.099,0.326c-0.076,0.104-0.17,0.17-0.283,0.198c-0.066,0.019-0.218,0.028-0.454,0.028h-1.162
		c-0.076,0-0.128,0.02-0.156,0.057c-0.009,0.02-0.028,0.108-0.057,0.27c-0.028,0.16-0.057,0.331-0.085,0.51
		c-0.028,0.18-0.047,0.284-0.057,0.312c-0.246,1.663-0.194,2.938,0.156,3.826c0.009,0.02,0.028,0.064,0.057,0.135
		c0.028,0.071,0.045,0.12,0.05,0.148c0.004,0.028,0.012,0.071,0.021,0.128s0.007,0.106-0.007,0.148
		c-0.014,0.043-0.036,0.088-0.064,0.135c-0.094,0.133-0.22,0.22-0.375,0.263c-0.156,0.042-0.291-0.003-0.404-0.135
		c-0.123-0.16-0.255-0.571-0.397-1.233c-0.198-1.096-0.142-2.461,0.17-4.096c0.038-0.208,0.071-0.363,0.1-0.468h-1.163
		c-0.293,1.795-0.803,3.6-1.53,5.414c-0.066,0.17-0.142,0.298-0.227,0.383c-0.095,0.085-0.201,0.132-0.319,0.142
		s-0.225-0.023-0.319-0.099c-0.104-0.104-0.123-0.256-0.057-0.454l0.397-1.021c0.312-0.879,0.694-2.334,1.148-4.365h-0.524
		c-0.35,0-0.605,0.048-0.766,0.142c-0.302,0.161-0.59,0.482-0.864,0.964c-0.057,0.085-0.095,0.133-0.114,0.142
		c-0.028,0.02-0.113,0.028-0.255,0.028H108.719z"/>
</g>
<g>
	<path d="M118.373,53.439c-0.04-0.033-0.091-0.089-0.154-0.169c-0.063-0.079-0.101-0.125-0.114-0.139
		c-0.073-0.086-0.109-0.139-0.109-0.158c-0.013-0.033,0-0.097,0.04-0.188c0.125-0.351,0.311-0.648,0.556-0.894
		c0.397-0.37,0.898-0.556,1.503-0.556c0.605,0,1.116,0.176,1.533,0.526c0.337,0.277,0.555,0.64,0.655,1.086
		c0.099,0.446,0.049,0.868-0.149,1.265c-0.073,0.133-0.152,0.259-0.238,0.378c-0.086,0.118-0.202,0.244-0.347,0.377
		c-0.146,0.132-0.251,0.227-0.317,0.282c-0.066,0.057-0.202,0.164-0.407,0.322c-0.205,0.159-0.321,0.248-0.347,0.269
		c-0.225,0.178-0.536,0.444-0.933,0.798c-0.397,0.354-0.688,0.607-0.873,0.76h3.661v0.585h-4.266v-0.367
		c0-0.093,0.005-0.15,0.015-0.174c0.01-0.022,0.038-0.058,0.084-0.104c0.146-0.126,0.409-0.362,0.789-0.71
		c0.38-0.347,0.656-0.59,0.828-0.729c0.04-0.033,0.137-0.111,0.293-0.233c0.155-0.122,0.27-0.215,0.342-0.278
		c0.073-0.062,0.178-0.156,0.317-0.282c0.139-0.126,0.248-0.238,0.327-0.338c0.08-0.099,0.166-0.213,0.258-0.342
		c0.092-0.129,0.164-0.262,0.213-0.396c0.049-0.136,0.084-0.273,0.104-0.412c0.046-0.377-0.023-0.711-0.208-1.002
		c-0.284-0.424-0.731-0.658-1.339-0.704c-0.291-0.021-0.542,0.013-0.754,0.099C118.899,52.196,118.578,52.672,118.373,53.439z"/>
</g>
<g>
	<path d="M137.117,40.528c0,0.057-0.052,0.26-0.156,0.609c-0.255,0.69-0.572,1.172-0.949,1.446
		c-0.274,0.236-0.605,0.335-0.992,0.297c-0.388-0.038-0.695-0.208-0.921-0.51c-0.217-0.292-0.317-0.628-0.298-1.006
		c0-0.057,0.015-0.158,0.043-0.305c0.028-0.146,0.042-0.257,0.042-0.333c0-0.661-0.624-1.035-1.871-1.12
		c-0.066-0.009-0.166-0.014-0.297-0.014c-0.133,0-0.232-0.005-0.298-0.014c-0.151,0-0.236,0.009-0.255,0.028
		c-0.019,0.01-0.043,0.076-0.071,0.198l-0.127,0.539c-0.246,1.229-0.397,1.942-0.454,2.14c-0.057,0.17-0.177,0.293-0.361,0.369
		s-0.338,0.042-0.46-0.099c-0.076-0.085-0.085-0.25-0.028-0.496c0.094-0.472,0.302-1.472,0.624-2.998
		c0.321-1.526,0.5-2.369,0.539-2.53c0.076-0.293,0.132-0.468,0.17-0.524c0.085-0.123,0.208-0.201,0.369-0.234
		s0.292,0.017,0.397,0.148c0.028,0.029,0.042,0.066,0.042,0.114c0.009,0.047-0.01,0.212-0.057,0.496
		c-0.01,0.019-0.081,0.347-0.213,0.985s-0.212,1.004-0.241,1.099c0.34-0.076,0.689-0.239,1.049-0.489
		c0.359-0.25,0.737-0.55,1.134-0.9s0.68-0.586,0.85-0.708c0.614-0.444,1.167-0.657,1.659-0.638c0.038,0,0.085,0.01,0.142,0.028
		c0.142,0.076,0.198,0.194,0.17,0.354s-0.099,0.279-0.212,0.354c-0.132,0.094-0.27,0.123-0.411,0.085
		c-0.123-0.047-0.194-0.071-0.212-0.071c-0.114,0-0.397,0.104-0.851,0.312c-0.284,0.161-0.798,0.562-1.545,1.205l-0.454,0.382
		c-0.094,0.076-0.189,0.142-0.283,0.199v0.014c0.34,0.047,0.621,0.099,0.843,0.156c0.222,0.057,0.475,0.146,0.758,0.27
		c0.283,0.123,0.5,0.291,0.652,0.503c0.151,0.212,0.227,0.47,0.227,0.772c0,0.066-0.017,0.201-0.049,0.404
		c-0.033,0.204-0.045,0.361-0.036,0.475c0.057,0.359,0.217,0.572,0.482,0.638c0.179,0.047,0.335,0,0.468-0.142
		c0.132-0.142,0.224-0.288,0.276-0.439c0.052-0.151,0.106-0.331,0.163-0.539c0.009-0.038,0.014-0.062,0.014-0.071
		c0.038-0.246,0.071-0.383,0.099-0.411c0.019-0.019,0.099-0.028,0.241-0.028H137.117z"/>
	<path d="M141.029,32.931h0.992c-0.179,0.917-0.451,2.209-0.815,3.876c-0.364,1.668-0.616,2.852-0.758,3.55l-0.354,1.659h5.017
		c-0.094,0.435-0.156,0.68-0.184,0.737c-0.397,0.019-1.382,0.026-2.955,0.021c-1.573-0.005-2.582-0.007-3.026-0.007L141.029,32.931z
		"/>
</g>
<g>
	<path d="M148.601,41.42c0.1-0.185,0.261-0.377,0.486-0.575c0.522-0.476,1.088-0.714,1.697-0.714
		c-0.066,0.357-0.109,0.549-0.129,0.576c-0.02,0.02-0.083,0.029-0.188,0.029c-0.43,0.027-0.83,0.174-1.2,0.442
		c-0.371,0.268-0.628,0.583-0.774,0.947c-0.026,0.073-0.093,0.344-0.198,0.813c-0.007,0.02-0.073,0.33-0.199,0.927
		c-0.125,0.6-0.192,0.908-0.198,0.928c0,0.027-0.003,0.047-0.01,0.06c-0.006,0.014-0.02,0.023-0.04,0.03
		c-0.02,0.007-0.035,0.01-0.044,0.01c-0.01,0-0.03,0-0.06,0s-0.048,0-0.055,0h-0.466l0.992-4.683h0.625l-0.248,1.21H148.601z"/>
</g>
<g>
	<rect x="125.766" y="48.525" width="28.812" height="0.574"/>
</g>
<g>
	<path d="M128.828,57.159c0.075-0.189,0.274-0.444,0.595-0.766c0.746-0.746,1.568-1.119,2.466-1.119
		c-0.114,0.501-0.175,0.756-0.185,0.765c-0.019,0.028-0.104,0.043-0.255,0.043c-0.756,0.047-1.441,0.373-2.055,0.978
		c-0.35,0.331-0.605,0.732-0.766,1.205c-0.047,0.151-0.212,0.921-0.496,2.311l-0.241,1.091c-0.019,0.133-0.038,0.223-0.057,0.27
		c0,0.038-0.005,0.066-0.014,0.085c-0.01,0.019-0.026,0.033-0.05,0.042c-0.023,0.01-0.042,0.015-0.057,0.015s-0.042,0-0.085,0
		s-0.069,0-0.078,0h-0.638l1.417-6.689h0.85l-0.368,1.771H128.828z"/>
</g>
<g>
	<path d="M132.595,56.207v-0.366c0-0.14,0.03-0.248,0.089-0.328c0.066-0.105,0.278-0.427,0.635-0.962l1.28-1.955
		c0.317-0.462,0.549-0.813,0.694-1.051l0.089-0.119c0.02-0.014,0.096-0.021,0.228-0.021h0.566v4.247h1.161v0.555h-1.161v1.776
		h-0.635v-1.776H132.595z M135.571,52.001l-0.218,0.406l-1.27,2.005l-0.803,1.24h2.292V52.001z"/>
</g>
<g>
	<path d="M139.034,53.034c0.057-0.34,0.113-0.581,0.17-0.723c0.123-0.037,0.468-0.049,1.035-0.035
		c0.567,0.015,0.926,0.017,1.077,0.007h7.058l-0.156,0.751h-3.812c-0.17,0-0.265,0.015-0.284,0.043
		c-0.028,0.048-0.042,0.104-0.042,0.17c-1.001,4.63-1.616,7.512-1.842,8.646l-0.057,0.156c-0.019,0.019-0.109,0.028-0.27,0.028
		h-0.708l1.927-9.043H139.034z"/>
</g>
<g>
	<path d="M149.656,52.963c-0.205-0.271-0.308-0.423-0.308-0.456s0.062-0.129,0.188-0.288c0.218-0.251,0.496-0.463,0.833-0.635
		c0.317-0.151,0.656-0.232,1.017-0.243c0.36-0.01,0.703,0.059,1.027,0.204c0.509,0.251,0.807,0.599,0.893,1.041
		c0.066,0.391-0.02,0.768-0.258,1.131c-0.159,0.232-0.357,0.424-0.596,0.576c-0.026,0.02-0.079,0.05-0.159,0.089
		c-0.079,0.04-0.139,0.073-0.178,0.1c0.145,0.02,0.333,0.093,0.565,0.218c0.344,0.192,0.605,0.46,0.784,0.804
		c0.132,0.298,0.179,0.597,0.139,0.898c-0.04,0.301-0.152,0.583-0.337,0.848c-0.046,0.066-0.126,0.155-0.238,0.269
		c-0.311,0.304-0.694,0.495-1.151,0.575c-0.457,0.079-0.886,0.05-1.29-0.09c-0.51-0.151-0.946-0.437-1.31-0.853
		c-0.053-0.066-0.082-0.107-0.084-0.124c-0.003-0.017,0.001-0.064,0.015-0.145c0.033-0.211,0.06-0.337,0.08-0.377
		c0.502,0.662,1.157,1.022,1.964,1.082c0.489,0.046,0.89-0.066,1.2-0.338c0.271-0.225,0.427-0.53,0.466-0.918
		c0.04-0.387-0.043-0.722-0.248-1.007c-0.172-0.238-0.407-0.406-0.704-0.506c-0.166-0.053-0.417-0.079-0.754-0.079h-0.705v-0.526
		c0.06,0,0.146-0.005,0.258-0.015s0.195-0.018,0.248-0.024c0.258-0.014,0.47-0.046,0.635-0.1c0.284-0.093,0.522-0.254,0.714-0.486
		c0.191-0.231,0.288-0.489,0.288-0.773c0-0.542-0.341-0.854-1.022-0.933c-0.615-0.066-1.147,0.126-1.597,0.575
		c-0.126,0.126-0.248,0.295-0.367,0.506H149.656z"/>
</g>
</svg>
