<?xml version="1.0" encoding="iso-8859-1"?>
<!-- Generator: Adobe Illustrator 16.0.0, SVG Export Plug-In . SVG Version: 6.00 Build 0)  -->
<!DOCTYPE svg PUBLIC "-//W3C//DTD SVG 1.1//EN" "http://www.w3.org/Graphics/SVG/1.1/DTD/svg11.dtd">
<svg version="1.1" id="Layer_1" xmlns="http://www.w3.org/2000/svg" xmlns:xlink="http://www.w3.org/1999/xlink" x="0px" y="0px"
	 width="566.929px" height="85.039px" viewBox="0 0 566.929 85.039" style="enable-background:new 0 0 566.929 85.039;"
	 xml:space="preserve">
<g>
	<path d="M28.937,29.298c-0.028,0.009-0.052,0.026-0.071,0.049c-0.019,0.024-0.038,0.055-0.057,0.092s-0.038,0.066-0.057,0.085
		c-0.123,0.151-0.284,0.212-0.482,0.184l-0.042-0.014c-0.028-0.009-0.047-0.019-0.057-0.028c-0.161-0.094-0.189-0.292-0.085-0.595
		c0.179-0.557,0.51-0.978,0.992-1.261c0.434-0.255,0.926-0.392,1.474-0.411s1.054,0.081,1.517,0.298
		c0.454,0.217,0.834,0.539,1.141,0.963c0.307,0.425,0.517,0.903,0.631,1.432c0.198,0.851,0.156,1.843-0.128,2.977
		c-0.463,1.805-1.2,3.104-2.211,3.897c-0.747,0.567-1.559,0.812-2.438,0.737c-0.879-0.057-1.573-0.505-2.083-1.346
		c-0.34-0.614-0.411-1.356-0.213-2.225c0.189-0.917,0.624-1.715,1.304-2.396c0.435-0.435,0.855-0.723,1.261-0.864
		c0.558-0.161,1.077-0.182,1.559-0.064s0.888,0.324,1.219,0.617c0.255,0.217,0.458,0.491,0.609,0.822
		c0.019,0.038,0.045,0.104,0.078,0.199c0.033,0.094,0.059,0.161,0.078,0.198c0.019-0.132,0.038-0.231,0.057-0.298
		c0.009-0.075,0.026-0.182,0.049-0.319c0.024-0.137,0.041-0.238,0.05-0.305c0.132-1.275-0.071-2.216-0.609-2.82
		c-0.274-0.302-0.624-0.529-1.049-0.68c-0.369-0.142-0.785-0.163-1.247-0.064c-0.463,0.099-0.799,0.324-1.006,0.673
		C29.026,28.991,28.965,29.147,28.937,29.298z M30.624,31.453c-0.586-0.028-1.094,0.099-1.524,0.382
		c-0.43,0.284-0.768,0.657-1.013,1.12c-0.151,0.284-0.293,0.737-0.425,1.361c-0.113,0.633-0.127,1.105-0.042,1.417
		c0.208,0.604,0.543,0.978,1.006,1.12c0.444,0.17,0.982,0.18,1.616,0.028c0.472-0.151,0.874-0.397,1.205-0.737
		c0.217-0.245,0.43-0.564,0.638-0.957s0.354-0.772,0.439-1.141c0.113-0.378,0.116-0.777,0.007-1.198
		c-0.109-0.42-0.324-0.753-0.645-1C31.544,31.585,31.124,31.453,30.624,31.453z"/>
	<path d="M36.746,27.64c0.642,0,1.044,0.01,1.205,0.029c0.265,0.425,0.626,1.046,1.084,1.864c0.458,0.817,0.768,1.358,0.928,1.623
		l0.198,0.383l3.614-3.756l0.156-0.128c0.236-0.009,0.609-0.014,1.12-0.014l-4.535,4.649v0.014c0.246,0.397,0.503,0.822,0.772,1.276
		c0.269,0.454,0.567,0.959,0.893,1.517c0.326,0.558,0.579,0.987,0.758,1.29c0.321,0.539,0.534,0.902,0.638,1.091
		c-0.633,0-1.03-0.009-1.191-0.028c-0.113-0.142-0.25-0.366-0.411-0.673c-0.161-0.307-0.26-0.489-0.298-0.545l-1.814-3.26
		l-4.096,4.309l-0.184,0.17c-0.161,0.019-0.539,0.028-1.134,0.028l4.918-5.06l0.099-0.142c-0.085-0.17-0.218-0.404-0.397-0.702
		c-0.18-0.297-0.288-0.479-0.326-0.545c-0.066-0.123-0.352-0.604-0.857-1.446C37.381,28.741,37.001,28.093,36.746,27.64z"/>
</g>
<g>
	<path d="M46.562,34.919h0.655l-0.962,4.554l-0.04,0.109c-0.086,0.014-0.301,0.02-0.645,0.02L46.562,34.919z M46.889,33.372
		c0.085-0.384,0.135-0.595,0.148-0.635c0.086-0.013,0.301-0.02,0.645-0.02c-0.086,0.384-0.136,0.595-0.149,0.635
		C47.448,33.365,47.233,33.372,46.889,33.372z"/>
</g>
<g>
	<rect x="26.102" y="43.234" width="22.393" height="0.574"/>
</g>
<g>
	<path d="M32.829,48.609c-0.028,0.01-0.052,0.026-0.071,0.05s-0.038,0.054-0.057,0.092s-0.038,0.066-0.057,0.085
		c-0.123,0.151-0.284,0.213-0.482,0.185l-0.042-0.015c-0.028-0.009-0.047-0.019-0.057-0.028c-0.161-0.094-0.189-0.293-0.085-0.595
		c0.179-0.558,0.51-0.979,0.992-1.262c0.434-0.255,0.926-0.392,1.474-0.411c0.548-0.019,1.054,0.08,1.517,0.298
		c0.454,0.217,0.834,0.538,1.141,0.964c0.307,0.425,0.517,0.902,0.631,1.432c0.198,0.85,0.156,1.842-0.128,2.976
		c-0.463,1.806-1.2,3.104-2.211,3.898c-0.747,0.566-1.559,0.812-2.438,0.736c-0.879-0.057-1.573-0.505-2.083-1.347
		c-0.34-0.613-0.411-1.355-0.213-2.225c0.189-0.917,0.624-1.715,1.304-2.396c0.435-0.435,0.855-0.723,1.261-0.864
		c0.558-0.161,1.077-0.182,1.559-0.064c0.482,0.119,0.888,0.324,1.219,0.617c0.255,0.217,0.458,0.491,0.609,0.822
		c0.019,0.037,0.045,0.104,0.078,0.198s0.059,0.16,0.078,0.198c0.019-0.132,0.038-0.231,0.057-0.298
		c0.009-0.075,0.026-0.182,0.049-0.318c0.024-0.138,0.041-0.239,0.05-0.305c0.132-1.276-0.071-2.216-0.609-2.821
		c-0.274-0.302-0.624-0.528-1.049-0.68c-0.369-0.142-0.785-0.163-1.247-0.064c-0.463,0.1-0.799,0.324-1.006,0.674
		C32.918,48.302,32.857,48.458,32.829,48.609z M34.516,50.764c-0.586-0.028-1.094,0.099-1.524,0.383
		c-0.43,0.283-0.768,0.656-1.013,1.119c-0.151,0.284-0.293,0.737-0.425,1.361c-0.113,0.633-0.127,1.105-0.042,1.417
		c0.208,0.604,0.543,0.978,1.006,1.119c0.444,0.171,0.982,0.18,1.616,0.028c0.472-0.15,0.874-0.396,1.205-0.736
		c0.217-0.246,0.43-0.564,0.638-0.957c0.208-0.392,0.354-0.772,0.439-1.141c0.113-0.378,0.116-0.777,0.007-1.198
		c-0.109-0.42-0.324-0.753-0.645-0.999C35.437,50.896,35.016,50.764,34.516,50.764z"/>
	<path d="M39.816,50.098h1.248l0.113-0.028c0.066-0.189,0.137-0.501,0.212-0.936s0.151-0.742,0.227-0.922
		c0.104-0.019,0.382-0.028,0.836-0.028l-0.411,1.914h2.197l-0.142,0.708h-2.013c-0.085,0-0.137,0.01-0.156,0.028
		c-0.019,0.02-0.038,0.062-0.057,0.128c-0.009,0.02-0.014,0.033-0.014,0.043c-0.558,2.409-0.855,3.836-0.893,4.28
		c-0.019,0.491,0.109,0.779,0.383,0.864c0.227,0.075,0.572,0.033,1.035-0.128c0.142-0.057,0.288-0.127,0.439-0.212
		c0.019-0.01,0.066-0.043,0.142-0.1s0.137-0.095,0.184-0.113c0,0.057,0.005,0.14,0.014,0.248c0.01,0.108,0.015,0.191,0.015,0.248
		c0,0.104-0.005,0.165-0.015,0.185c-0.076,0.094-0.288,0.198-0.638,0.312c-0.548,0.208-1.058,0.312-1.531,0.312
		c-0.387,0-0.657-0.123-0.808-0.368c-0.189-0.331-0.184-0.926,0.014-1.786l0.581-2.735c0.019-0.095,0.042-0.222,0.071-0.383
		c0.028-0.16,0.057-0.31,0.085-0.446s0.062-0.263,0.099-0.376h-1.36L39.816,50.098z"/>
</g>
<g>
	<path d="M54.464,44.753c0.057-0.094,0.198-0.142,0.425-0.142h8.093h0.595c0.123,0.02,0.208,0.083,0.255,0.191
		s0.023,0.205-0.071,0.29c-0.057,0.058-0.156,0.086-0.297,0.086h-8.575c-0.142,0-0.227-0.005-0.255-0.015
		c-0.085-0.019-0.146-0.073-0.184-0.163C54.412,44.911,54.417,44.829,54.464,44.753z M54.634,41.876
		c0.019-0.009,0.099-0.014,0.241-0.014h8.122l0.297-0.014c0.199,0,0.298,0.005,0.298,0.014c0.113,0.019,0.191,0.085,0.234,0.198
		s0.021,0.208-0.064,0.284c-0.057,0.057-0.161,0.085-0.312,0.085h-8.519c-0.151,0-0.241-0.005-0.269-0.014
		c-0.151-0.028-0.229-0.116-0.234-0.262S54.493,41.914,54.634,41.876z"/>
</g>
<g>
	<path d="M69.793,53.56c-0.258,0-0.388,0-0.388-0.158c0-0.014,0-0.086,0.144-0.258l7.43-8.706l-7.587-10.385
		c0-0.158,0-0.43,0.014-0.473c0.043-0.086,0.058-0.101,0.388-0.101h16.954l1.735,4.03h-0.358c-0.488-1.162-1.463-1.807-1.822-2.037
		c-1.133-0.717-2.381-0.961-3.155-1.076c-0.129-0.029-1.435-0.229-3.356-0.229h-7.86l6.684,9.136
		c0.101,0.144,0.101,0.187,0.101,0.216c0,0.071-0.029,0.114-0.129,0.229l-7.301,8.562h8.649c2.754,0,4.159-0.373,4.46-0.444
		c1.649-0.431,3.17-1.406,3.729-2.897h0.358l-1.735,4.59H69.793z"/>
</g>
<g>
	<path d="M79.282,59.597h0.655c-0.007,0.039-0.167,0.805-0.481,2.297c-0.314,1.491-0.498,2.35-0.551,2.574
		c-0.086,0.403-0.168,0.665-0.248,0.784c-0.37,0.562-0.896,0.813-1.577,0.754c-0.337-0.021-0.668-0.113-0.992-0.278l0.258-0.525
		c0.146,0.086,0.245,0.139,0.298,0.158c0.278,0.106,0.561,0.128,0.848,0.064c0.288-0.062,0.491-0.187,0.61-0.372
		c0.013-0.02,0.092-0.37,0.238-1.051c0.146-0.682,0.309-1.449,0.491-2.302c0.182-0.854,0.299-1.396,0.352-1.628
		c0.007-0.032,0.023-0.105,0.05-0.218S79.275,59.656,79.282,59.597z M79.748,57.394h0.655l-0.129,0.655h-0.655L79.748,57.394z"/>
</g>
<g>
	<path d="M94.828,33.947c-0.265-0.132-0.449-0.354-0.553-0.666c-0.123-0.369-0.123-0.708,0-1.021
		c0.123-0.312,0.331-0.59,0.624-0.836c0.331-0.302,0.751-0.536,1.262-0.702s1.053-0.215,1.63-0.149
		c0.576,0.066,1.063,0.279,1.46,0.638c0.151,0.142,0.163,0.312,0.035,0.51c-0.127,0.199-0.291,0.274-0.489,0.227
		c-0.066-0.019-0.151-0.069-0.255-0.149s-0.166-0.125-0.184-0.135c-0.378-0.236-0.827-0.335-1.347-0.298
		c-0.406,0.029-0.784,0.119-1.134,0.27c-0.35,0.151-0.581,0.369-0.694,0.652c-0.085,0.18-0.118,0.375-0.099,0.588
		c0.019,0.212,0.089,0.395,0.212,0.545c0.085,0.104,0.144,0.163,0.177,0.177s0.111,0.012,0.234-0.007
		c0.236-0.057,0.543-0.085,0.921-0.085c0.539,0,0.855,0.066,0.949,0.198c0.028,0.047,0.042,0.099,0.042,0.156
		c0,0.019-0.009,0.057-0.028,0.113c-0.038,0.123-0.127,0.213-0.269,0.27s-0.27,0.09-0.383,0.099
		c-0.113,0.01-0.279,0.014-0.496,0.014c-0.387,0-0.666-0.023-0.836-0.071c-0.019,0-0.047-0.005-0.085-0.014
		c-0.038-0.009-0.066-0.014-0.085-0.014c-0.038,0-0.175,0.095-0.411,0.283c-0.407,0.425-0.61,0.86-0.61,1.304
		c0,0.491,0.284,0.817,0.851,0.978c0.217,0.057,0.496,0.085,0.836,0.085c0.982,0,1.648-0.255,1.998-0.766
		c0.009-0.019,0.033-0.059,0.071-0.12c0.038-0.062,0.073-0.108,0.106-0.142c0.033-0.033,0.073-0.054,0.121-0.063
		c0.085-0.009,0.156,0.014,0.212,0.071s0.09,0.123,0.1,0.198c0.009,0.161-0.052,0.345-0.185,0.553
		c-0.435,0.718-1.266,1.077-2.494,1.077c-1.125,0-1.904-0.359-2.339-1.077c-0.17-0.359-0.222-0.704-0.156-1.035
		c0.066-0.331,0.222-0.647,0.468-0.949C94.204,34.4,94.478,34.165,94.828,33.947z"/>
</g>
<g>
	<path d="M102.05,34.919h0.655c-0.007,0.04-0.167,0.805-0.481,2.296c-0.314,1.492-0.498,2.35-0.551,2.575
		c-0.086,0.403-0.168,0.665-0.248,0.784c-0.37,0.562-0.896,0.813-1.577,0.754c-0.337-0.02-0.668-0.112-0.992-0.277l0.258-0.526
		c0.146,0.086,0.245,0.139,0.298,0.159c0.278,0.105,0.561,0.127,0.848,0.064c0.288-0.063,0.491-0.187,0.61-0.372
		c0.013-0.02,0.092-0.371,0.238-1.052s0.309-1.448,0.491-2.302c0.182-0.853,0.299-1.396,0.352-1.627
		c0.007-0.033,0.023-0.106,0.05-0.218S102.043,34.979,102.05,34.919z M102.517,32.717h0.655l-0.129,0.655h-0.655L102.517,32.717z"/>
	<path d="M105.294,34.919h0.655l-0.962,4.554l-0.04,0.109c-0.086,0.014-0.301,0.02-0.645,0.02L105.294,34.919z M105.622,33.372
		c0.085-0.384,0.135-0.595,0.148-0.635c0.086-0.013,0.301-0.02,0.645-0.02c-0.086,0.384-0.136,0.595-0.149,0.635
		C106.18,33.365,105.965,33.372,105.622,33.372z"/>
</g>
<g>
	<rect x="92.868" y="43.234" width="14.606" height="0.574"/>
</g>
<g>
	<path d="M98.353,55.695c-0.643,0.729-1.337,1.13-2.083,1.205c-0.179,0.019-0.354,0.005-0.524-0.042
		c-0.453-0.095-0.82-0.338-1.098-0.73c-0.279-0.392-0.442-0.838-0.489-1.339c-0.066-0.728,0.045-1.448,0.333-2.162
		c0.288-0.713,0.71-1.315,1.268-1.807c0.17-0.133,0.303-0.231,0.397-0.298c0.265-0.17,0.541-0.305,0.829-0.404
		c0.288-0.099,0.595-0.139,0.921-0.12c0.326,0.02,0.607,0.123,0.843,0.312c0.17,0.143,0.316,0.331,0.439,0.567
		c0.057,0.151,0.104,0.265,0.142,0.34l0.227-1.119l0.057-0.1c0.179-0.009,0.468-0.014,0.864-0.014l-1.941,9.17H97.63l0.17-0.865
		l0.411-1.885L98.353,55.695z M97.885,50.707c-0.472,0.038-0.926,0.222-1.36,0.553c-0.416,0.303-0.754,0.694-1.014,1.176
		c-0.26,0.482-0.404,0.979-0.432,1.488c-0.057,1.002,0.236,1.691,0.879,2.069c0.264,0.161,0.553,0.227,0.864,0.198
		c0.52-0.037,0.987-0.307,1.403-0.808c0.179-0.255,0.279-0.406,0.298-0.453c0.009-0.028,0.111-0.486,0.305-1.375
		c0.193-0.888,0.295-1.365,0.305-1.432c0-0.037-0.01-0.165-0.028-0.383c-0.095-0.453-0.274-0.756-0.539-0.907
		C98.386,50.73,98.159,50.688,97.885,50.707z"/>
</g>
<g>
	<path d="M102.294,54.23h0.655c-0.007,0.039-0.167,0.805-0.481,2.297c-0.314,1.491-0.498,2.35-0.551,2.574
		c-0.086,0.403-0.168,0.665-0.248,0.784c-0.37,0.562-0.896,0.813-1.577,0.754c-0.337-0.021-0.668-0.113-0.992-0.278l0.258-0.525
		c0.146,0.086,0.245,0.139,0.298,0.158c0.278,0.106,0.561,0.128,0.848,0.064c0.288-0.062,0.491-0.187,0.61-0.372
		c0.013-0.02,0.092-0.37,0.238-1.051c0.146-0.682,0.309-1.449,0.491-2.302c0.182-0.854,0.299-1.396,0.352-1.628
		c0.007-0.032,0.023-0.105,0.05-0.218S102.288,54.29,102.294,54.23z M102.761,52.027h0.655l-0.129,0.655h-0.655L102.761,52.027z"/>
	<path d="M105.538,54.23h0.655l-0.962,4.554l-0.04,0.109c-0.086,0.013-0.301,0.02-0.645,0.02L105.538,54.23z M105.866,52.683
		c0.085-0.384,0.135-0.596,0.148-0.635c0.086-0.014,0.301-0.021,0.645-0.021c-0.086,0.384-0.136,0.596-0.149,0.636
		C106.424,52.676,106.209,52.683,105.866,52.683z"/>
</g>
<g>
	<path d="M113.209,43.25c0.019-0.009,0.094-0.014,0.227-0.014h7.441h0.539c0.113,0.02,0.187,0.085,0.22,0.198
		c0.033,0.114,0.012,0.208-0.064,0.284c-0.028,0.028-0.071,0.052-0.127,0.07c-0.057,0.02-0.106,0.028-0.149,0.028
		s-0.099-0.002-0.17-0.007s-0.116-0.007-0.135-0.007h-7.54c-0.142,0-0.222-0.005-0.241-0.015c-0.142-0.037-0.21-0.125-0.206-0.262
		C113.008,43.391,113.076,43.298,113.209,43.25z"/>
</g>
<g>
	<path d="M127.198,53.56c-0.258,0-0.388,0-0.388-0.158c0-0.014,0-0.086,0.144-0.258l7.43-8.706l-7.587-10.385
		c0-0.158,0-0.43,0.014-0.473c0.043-0.086,0.058-0.101,0.388-0.101h16.954l1.735,4.03h-0.358c-0.488-1.162-1.463-1.807-1.822-2.037
		c-1.133-0.717-2.381-0.961-3.155-1.076c-0.129-0.029-1.435-0.229-3.356-0.229h-7.86l6.684,9.136
		c0.101,0.144,0.101,0.187,0.101,0.216c0,0.071-0.029,0.114-0.129,0.229l-7.301,8.562h8.649c2.754,0,4.159-0.373,4.46-0.444
		c1.649-0.431,3.17-1.406,3.729-2.897h0.358l-1.735,4.59H127.198z"/>
</g>
<g>
	<path d="M135.733,57.394h0.605l-0.942,4.455l2.5-2.034l0.268-0.208c0.172-0.007,0.44-0.01,0.804-0.01v0.01l-1.994,1.617
		l-0.159,0.148c0.033,0.106,0.094,0.243,0.184,0.412c0.089,0.169,0.147,0.286,0.173,0.353l1.042,2.143
		c-0.371,0-0.602-0.007-0.695-0.02c-0.132-0.238-0.266-0.493-0.402-0.765c-0.135-0.271-0.286-0.58-0.451-0.927
		c-0.166-0.348-0.291-0.61-0.377-0.789c-0.073,0.06-0.172,0.143-0.298,0.248s-0.241,0.202-0.347,0.287
		c-0.106,0.087-0.208,0.166-0.308,0.238l-0.109,0.109c-0.086,0.317-0.195,0.813-0.328,1.488l-0.04,0.109
		c-0.073,0.013-0.268,0.02-0.585,0.02L135.733,57.394z"/>
</g>
<g>
	<path d="M152.233,33.947c-0.265-0.132-0.449-0.354-0.553-0.666c-0.123-0.369-0.123-0.708,0-1.021
		c0.123-0.312,0.331-0.59,0.624-0.836c0.331-0.302,0.751-0.536,1.262-0.702s1.053-0.215,1.63-0.149
		c0.576,0.066,1.063,0.279,1.46,0.638c0.151,0.142,0.163,0.312,0.035,0.51c-0.127,0.199-0.291,0.274-0.489,0.227
		c-0.066-0.019-0.151-0.069-0.255-0.149s-0.166-0.125-0.184-0.135c-0.378-0.236-0.827-0.335-1.347-0.298
		c-0.406,0.029-0.784,0.119-1.134,0.27c-0.35,0.151-0.581,0.369-0.694,0.652c-0.085,0.18-0.118,0.375-0.099,0.588
		c0.019,0.212,0.089,0.395,0.212,0.545c0.085,0.104,0.144,0.163,0.177,0.177s0.111,0.012,0.234-0.007
		c0.236-0.057,0.543-0.085,0.921-0.085c0.539,0,0.855,0.066,0.949,0.198c0.028,0.047,0.042,0.099,0.042,0.156
		c0,0.019-0.009,0.057-0.028,0.113c-0.038,0.123-0.127,0.213-0.269,0.27s-0.27,0.09-0.383,0.099
		c-0.113,0.01-0.279,0.014-0.496,0.014c-0.387,0-0.666-0.023-0.836-0.071c-0.019,0-0.047-0.005-0.085-0.014
		c-0.038-0.009-0.066-0.014-0.085-0.014c-0.038,0-0.175,0.095-0.411,0.283c-0.407,0.425-0.61,0.86-0.61,1.304
		c0,0.491,0.284,0.817,0.851,0.978c0.217,0.057,0.496,0.085,0.836,0.085c0.982,0,1.648-0.255,1.998-0.766
		c0.009-0.019,0.033-0.059,0.071-0.12c0.038-0.062,0.073-0.108,0.106-0.142c0.033-0.033,0.073-0.054,0.121-0.063
		c0.085-0.009,0.156,0.014,0.212,0.071s0.09,0.123,0.1,0.198c0.009,0.161-0.052,0.345-0.185,0.553
		c-0.435,0.718-1.266,1.077-2.494,1.077c-1.125,0-1.904-0.359-2.339-1.077c-0.17-0.359-0.222-0.704-0.156-1.035
		c0.066-0.331,0.222-0.647,0.468-0.949C151.609,34.4,151.883,34.165,152.233,33.947z"/>
</g>
<g>
	<path d="M159.157,34.919h0.655l-0.962,4.554l-0.04,0.109c-0.086,0.014-0.301,0.02-0.645,0.02L159.157,34.919z M159.484,33.372
		c0.085-0.384,0.135-0.595,0.148-0.635c0.086-0.013,0.301-0.02,0.645-0.02c-0.086,0.384-0.136,0.595-0.149,0.635
		C160.043,33.365,159.828,33.372,159.484,33.372z"/>
	<path d="M162.887,32.717h0.605l-0.942,4.455l2.5-2.034l0.268-0.208c0.172-0.006,0.44-0.01,0.804-0.01v0.01l-1.994,1.617
		l-0.159,0.149c0.033,0.105,0.094,0.243,0.184,0.412c0.089,0.168,0.147,0.286,0.173,0.352l1.042,2.143
		c-0.371,0-0.602-0.006-0.695-0.02c-0.132-0.238-0.266-0.493-0.402-0.764c-0.135-0.271-0.286-0.581-0.451-0.928
		c-0.166-0.347-0.291-0.61-0.377-0.789c-0.073,0.06-0.172,0.142-0.298,0.248s-0.241,0.202-0.347,0.288s-0.208,0.166-0.308,0.238
		l-0.109,0.109c-0.086,0.317-0.195,0.813-0.328,1.488l-0.04,0.109c-0.073,0.014-0.268,0.02-0.585,0.02L162.887,32.717z"/>
</g>
<g>
	<rect x="150.273" y="43.234" width="16.909" height="0.574"/>
</g>
<g>
	<path d="M155.758,55.695c-0.643,0.729-1.337,1.13-2.083,1.205c-0.179,0.019-0.354,0.005-0.524-0.042
		c-0.453-0.095-0.82-0.338-1.098-0.73c-0.279-0.392-0.442-0.838-0.489-1.339c-0.066-0.728,0.045-1.448,0.333-2.162
		c0.288-0.713,0.71-1.315,1.268-1.807c0.17-0.133,0.303-0.231,0.397-0.298c0.265-0.17,0.541-0.305,0.829-0.404
		c0.288-0.099,0.595-0.139,0.921-0.12c0.326,0.02,0.607,0.123,0.843,0.312c0.17,0.143,0.316,0.331,0.439,0.567
		c0.057,0.151,0.104,0.265,0.142,0.34l0.227-1.119l0.057-0.1c0.179-0.009,0.468-0.014,0.864-0.014l-1.941,9.17h-0.907l0.17-0.865
		l0.411-1.885L155.758,55.695z M155.29,50.707c-0.472,0.038-0.926,0.222-1.36,0.553c-0.416,0.303-0.754,0.694-1.014,1.176
		c-0.26,0.482-0.404,0.979-0.432,1.488c-0.057,1.002,0.236,1.691,0.879,2.069c0.264,0.161,0.553,0.227,0.864,0.198
		c0.52-0.037,0.987-0.307,1.403-0.808c0.179-0.255,0.279-0.406,0.298-0.453c0.009-0.028,0.111-0.486,0.305-1.375
		c0.193-0.888,0.295-1.365,0.305-1.432c0-0.037-0.01-0.165-0.028-0.383c-0.095-0.453-0.274-0.756-0.539-0.907
		C155.791,50.73,155.564,50.688,155.29,50.707z"/>
</g>
<g>
	<path d="M159.402,54.23h0.655l-0.962,4.554l-0.04,0.109c-0.086,0.013-0.301,0.02-0.645,0.02L159.402,54.23z M159.729,52.683
		c0.085-0.384,0.135-0.596,0.148-0.635c0.086-0.014,0.301-0.021,0.645-0.021c-0.086,0.384-0.136,0.596-0.149,0.636
		C160.288,52.676,160.073,52.683,159.729,52.683z"/>
	<path d="M163.132,52.027h0.605l-0.942,4.455l2.5-2.034l0.268-0.208c0.172-0.007,0.44-0.01,0.804-0.01v0.01l-1.994,1.617
		l-0.159,0.148c0.033,0.106,0.094,0.243,0.184,0.412c0.089,0.169,0.147,0.286,0.173,0.353l1.042,2.143
		c-0.371,0-0.602-0.007-0.695-0.02c-0.132-0.238-0.266-0.493-0.402-0.765c-0.135-0.271-0.286-0.58-0.451-0.927
		c-0.166-0.348-0.291-0.61-0.377-0.789c-0.073,0.06-0.172,0.143-0.298,0.248s-0.241,0.202-0.347,0.287
		c-0.106,0.087-0.208,0.166-0.308,0.238l-0.109,0.109c-0.086,0.317-0.195,0.813-0.328,1.488l-0.04,0.109
		c-0.073,0.013-0.268,0.02-0.585,0.02L163.132,52.027z"/>
</g>
</svg>
