<?xml version="1.0" encoding="iso-8859-1"?>
<!-- Generator: Adobe Illustrator 16.0.0, SVG Export Plug-In . SVG Version: 6.00 Build 0)  -->
<!DOCTYPE svg PUBLIC "-//W3C//DTD SVG 1.1//EN" "http://www.w3.org/Graphics/SVG/1.1/DTD/svg11.dtd">
<svg version="1.1" id="Layer_1" xmlns="http://www.w3.org/2000/svg" xmlns:xlink="http://www.w3.org/1999/xlink" x="0px" y="0px"
	 width="566.929px" height="85.039px" viewBox="0 0 566.929 85.039" style="enable-background:new 0 0 566.929 85.039;"
	 xml:space="preserve">
<g>
	<path d="M28.38,42.787h6.42c-0.095,0.436-0.156,0.681-0.185,0.737c-0.359,0.019-1.25,0.026-2.671,0.021
		c-1.422-0.004-2.332-0.006-2.729-0.006l-0.808,3.784h4.819c-0.066,0.453-0.123,0.694-0.17,0.723
		c-0.019,0.019-0.108,0.028-0.269,0.028h-4.224c-0.17,0-0.265,0.009-0.284,0.028c-0.019,0.01-0.035,0.033-0.049,0.07
		c-0.014,0.038-0.024,0.078-0.028,0.121c-0.005,0.042-0.012,0.073-0.021,0.092l-0.17,0.822c-0.284,1.304-0.506,2.353-0.666,3.146
		c-0.028,0.132-0.052,0.208-0.071,0.227s-0.108,0.028-0.269,0.028h-0.708L28.38,42.787z"/>
</g>
<g>
	<path d="M40.01,50.101c0.057-0.094,0.198-0.142,0.425-0.142h8.093h0.595c0.123,0.02,0.208,0.083,0.255,0.191
		s0.023,0.205-0.071,0.29c-0.057,0.058-0.156,0.086-0.297,0.086h-8.575c-0.142,0-0.227-0.005-0.255-0.015
		c-0.085-0.019-0.146-0.073-0.184-0.163C39.958,50.259,39.963,50.177,40.01,50.101z M40.18,47.224
		c0.019-0.01,0.099-0.015,0.241-0.015h8.122l0.297-0.014c0.199,0,0.298,0.005,0.298,0.014c0.113,0.02,0.191,0.085,0.234,0.199
		c0.042,0.113,0.021,0.208-0.064,0.283c-0.057,0.057-0.161,0.085-0.312,0.085h-8.519c-0.151,0-0.241-0.005-0.269-0.015
		c-0.151-0.028-0.229-0.115-0.234-0.262S40.039,47.262,40.18,47.224z"/>
</g>
<g>
	<path d="M60.016,46.784c0.321,0.52,0.482,1.101,0.482,1.743c0,0.633-0.146,1.252-0.439,1.856c-0.293,0.605-0.685,1.115-1.176,1.531
		c-0.274,0.227-0.567,0.411-0.879,0.553c-0.312,0.142-0.645,0.227-0.999,0.255s-0.692-0.038-1.014-0.198
		c-0.35-0.132-0.624-0.368-0.822-0.709c-0.378-0.529-0.524-1.214-0.439-2.055c0.085-0.766,0.356-1.481,0.815-2.147
		s1.028-1.15,1.708-1.453c0.198-0.085,0.38-0.144,0.545-0.177c0.166-0.033,0.3-0.052,0.404-0.057
		c0.104-0.005,0.307-0.007,0.609-0.007h3.076c0.151,0,0.26,0.028,0.326,0.085c0.113,0.113,0.137,0.253,0.071,0.418
		c-0.066,0.165-0.17,0.276-0.312,0.333c-0.057,0.019-0.274,0.028-0.652,0.028H60.016z M58.882,46.954
		c-0.388-0.217-0.851-0.236-1.389-0.057c-0.491,0.161-0.883,0.468-1.176,0.921c-0.293,0.454-0.496,0.969-0.609,1.545
		c-0.255,1.068-0.137,1.834,0.354,2.297c0.113,0.113,0.274,0.205,0.482,0.276c0.208,0.07,0.411,0.097,0.609,0.077
		c0.642-0.047,1.155-0.32,1.538-0.821s0.649-1.092,0.801-1.772c0.255-1.077,0.137-1.842-0.354-2.296
		C59.071,47.059,58.986,47.002,58.882,46.954z"/>
</g>
<g>
	<path d="M64.872,47.85h1.964c0.311,0,0.542,0.004,0.694,0.011c0.152,0.006,0.333,0.029,0.541,0.069
		c0.208,0.039,0.405,0.103,0.59,0.188c0.278,0.119,0.512,0.292,0.704,0.521s0.271,0.511,0.238,0.849
		c-0.046,0.33-0.222,0.628-0.526,0.893s-0.651,0.463-1.042,0.596c-0.066,0.02-0.166,0.046-0.298,0.079s-0.228,0.06-0.288,0.079
		c0.595,0.086,1.052,0.288,1.369,0.605c0.41,0.41,0.506,0.87,0.288,1.379c-0.159,0.403-0.483,0.758-0.972,1.062
		c-0.496,0.312-1.059,0.493-1.687,0.546c-0.08,0.007-0.43,0.01-1.052,0.01h-1.984L64.872,47.85z M64.197,54.18h1.29
		c0.443,0,0.711-0.003,0.804-0.01c0.502-0.04,0.949-0.159,1.339-0.357c0.648-0.33,0.958-0.721,0.932-1.171
		c-0.02-0.351-0.238-0.645-0.655-0.883c-0.337-0.191-0.764-0.304-1.28-0.337c0-0.007-0.142-0.007-0.426,0h-0.427h-0.893
		c-0.026,0-0.048,0.003-0.064,0.01s-0.03,0.019-0.04,0.035c-0.01,0.016-0.017,0.029-0.02,0.039s-0.008,0.031-0.015,0.064
		c-0.007,0.033-0.01,0.053-0.01,0.06c-0.007,0.047-0.035,0.188-0.084,0.422c-0.05,0.234-0.106,0.498-0.169,0.789
		s-0.104,0.492-0.124,0.604C64.277,53.79,64.224,54.034,64.197,54.18z M64.892,50.896h0.982c0.47,0,0.771-0.006,0.903-0.02
		c0.443-0.053,0.865-0.169,1.265-0.348c0.4-0.178,0.676-0.413,0.828-0.704c0.066-0.132,0.1-0.258,0.1-0.377
		c-0.007-0.291-0.208-0.539-0.605-0.744c-0.198-0.099-0.432-0.172-0.699-0.218c-0.268-0.047-0.471-0.071-0.61-0.075
		c-0.139-0.003-0.384-0.005-0.734-0.005h-0.803c-0.02,0-0.037,0.004-0.05,0.011c-0.013,0.006-0.025,0.013-0.035,0.02
		s-0.018,0.019-0.025,0.034c-0.006,0.017-0.01,0.028-0.01,0.035s-0.003,0.021-0.01,0.045c-0.007,0.022-0.01,0.038-0.01,0.044
		C65.186,49.586,65.024,50.354,64.892,50.896z"/>
</g>
<g>
	<path d="M71.587,43.566c0.057-0.34,0.113-0.581,0.17-0.722c0.123-0.038,0.468-0.05,1.035-0.036s0.926,0.017,1.077,0.007h7.058
		l-0.156,0.75h-3.812c-0.17,0-0.265,0.015-0.284,0.043c-0.028,0.048-0.042,0.104-0.042,0.17c-1.001,4.63-1.616,7.512-1.842,8.646
		l-0.057,0.156c-0.019,0.019-0.109,0.028-0.27,0.028h-0.708l1.927-9.043H71.587z"/>
</g>
<g>
	<path d="M81.584,44.98v-0.366c0-0.14,0.03-0.248,0.089-0.328c0.066-0.105,0.278-0.427,0.635-0.962l1.28-1.955
		c0.317-0.463,0.549-0.813,0.694-1.052l0.089-0.119c0.02-0.013,0.096-0.02,0.228-0.02h0.566v4.247h1.161v0.555h-1.161v1.776H84.53
		V44.98H81.584z M84.56,40.774l-0.218,0.407l-1.27,2.004l-0.803,1.24h2.292V40.774z"/>
</g>
</svg>
