<?xml version="1.0" encoding="iso-8859-1"?>
<!-- Generator: Adobe Illustrator 16.0.0, SVG Export Plug-In . SVG Version: 6.00 Build 0)  -->
<!DOCTYPE svg PUBLIC "-//W3C//DTD SVG 1.1//EN" "http://www.w3.org/Graphics/SVG/1.1/DTD/svg11.dtd">
<svg version="1.1" id="Layer_1" xmlns="http://www.w3.org/2000/svg" xmlns:xlink="http://www.w3.org/1999/xlink" x="0px" y="0px"
	 width="566.929px" height="85.039px" viewBox="0 0 566.929 85.039" style="enable-background:new 0 0 566.929 85.039;"
	 xml:space="preserve">
<g>
	<path d="M29.263,39.753c0.047-0.113,0.179-0.288,0.397-0.524c0.454-0.52,0.992-0.836,1.616-0.95
		c0.208-0.038,0.435-0.042,0.68-0.014c0.595,0.057,0.997,0.26,1.205,0.609c0.208,0.35,0.227,0.917,0.057,1.701l-0.638,2.99
		c-0.132,0.699-0.227,1.144-0.283,1.332c0,0.104-0.071,0.156-0.213,0.156c-0.028,0-0.047,0-0.057,0H31.36l0.893-4.195
		c0.009-0.047,0.028-0.135,0.057-0.262s0.047-0.224,0.057-0.291c0.009-0.066,0.019-0.153,0.028-0.262
		c0.009-0.108,0.004-0.206-0.014-0.291c-0.019-0.085-0.047-0.17-0.085-0.255c-0.208-0.406-0.676-0.586-1.403-0.539
		c-0.435,0.057-0.806,0.26-1.113,0.609s-0.541,0.756-0.701,1.219c-0.038,0.123-0.111,0.437-0.22,0.942
		c-0.109,0.506-0.225,1.063-0.347,1.672c-0.123,0.609-0.208,1.014-0.255,1.212c-0.009,0.028-0.021,0.076-0.036,0.142
		c-0.014,0.066-0.026,0.118-0.035,0.156c0,0.038-0.005,0.066-0.014,0.085c-0.01,0.019-0.028,0.033-0.057,0.042
		c-0.028,0.01-0.05,0.015-0.064,0.015s-0.042,0-0.085,0s-0.069,0-0.078,0H27.25l1.417-6.69h0.864l-0.283,1.389H29.263z"/>
</g>
<g>
	<path d="M37.534,37.083v-2.817c0-0.112,0.003-0.182,0.01-0.208c0.026-0.106,0.092-0.159,0.198-0.159
		c0.119,0,0.188,0.053,0.208,0.159c0.006,0.026,0.01,0.096,0.01,0.208v2.817h2.808c0.119,0,0.188,0.003,0.208,0.01
		c0.106,0.026,0.159,0.092,0.159,0.198c0,0.119-0.053,0.188-0.159,0.208c-0.02,0.006-0.089,0.01-0.208,0.01h-2.808v2.817
		c0,0.119-0.003,0.188-0.01,0.208c-0.02,0.106-0.089,0.159-0.208,0.159c-0.106,0-0.172-0.053-0.198-0.159
		c-0.007-0.02-0.01-0.089-0.01-0.208V37.51h-2.817c-0.119,0-0.188-0.003-0.208-0.01c-0.106-0.02-0.159-0.089-0.159-0.208
		c0-0.106,0.053-0.172,0.159-0.198c0.02-0.007,0.089-0.01,0.208-0.01H37.534z"/>
</g>
<g>
	<rect x="26.102" y="50.812" width="16.111" height="0.574"/>
</g>
<g>
	<path d="M30.555,59.064c0.047-0.113,0.179-0.288,0.397-0.524c0.454-0.52,0.992-0.836,1.616-0.949
		c0.208-0.038,0.435-0.043,0.68-0.015c0.595,0.057,0.997,0.26,1.205,0.609s0.227,0.917,0.057,1.701l-0.638,2.99
		c-0.132,0.699-0.227,1.144-0.283,1.332c0,0.104-0.071,0.156-0.213,0.156c-0.028,0-0.047,0-0.057,0h-0.666l0.893-4.195
		c0.009-0.047,0.028-0.135,0.057-0.262c0.028-0.128,0.047-0.225,0.057-0.291c0.009-0.066,0.019-0.153,0.028-0.262
		c0.009-0.109,0.004-0.206-0.014-0.291c-0.019-0.085-0.047-0.17-0.085-0.255c-0.208-0.406-0.676-0.586-1.403-0.539
		c-0.435,0.057-0.806,0.26-1.113,0.609s-0.541,0.757-0.701,1.219c-0.038,0.123-0.111,0.438-0.22,0.943
		c-0.109,0.505-0.225,1.062-0.347,1.672c-0.123,0.609-0.208,1.014-0.255,1.212c-0.009,0.028-0.021,0.076-0.036,0.142
		c-0.014,0.066-0.026,0.118-0.035,0.156c0,0.038-0.005,0.066-0.014,0.085c-0.01,0.019-0.028,0.033-0.057,0.042
		c-0.028,0.01-0.05,0.015-0.064,0.015s-0.042,0-0.085,0s-0.069,0-0.078,0h-0.638l1.417-6.689h0.864l-0.283,1.389H30.555z"/>
</g>
<g>
	<path d="M37.607,53.633c0.271-0.026,0.544,0.012,0.819,0.114c0.274,0.103,0.504,0.25,0.689,0.441
		c0.516,0.536,0.774,1.433,0.774,2.689c0,0.893-0.08,1.58-0.238,2.063c-0.304,0.886-0.863,1.375-1.677,1.468
		c-0.675,0.066-1.23-0.139-1.667-0.615c-0.47-0.522-0.705-1.432-0.705-2.728c0-0.88,0.092-1.564,0.278-2.054
		c0.125-0.312,0.276-0.566,0.451-0.765s0.402-0.356,0.68-0.476C37.144,53.72,37.342,53.673,37.607,53.633z M38.768,54.625
		c-0.179-0.218-0.409-0.361-0.69-0.432c-0.281-0.069-0.561-0.051-0.838,0.055c-0.364,0.173-0.612,0.434-0.744,0.784
		c-0.126,0.311-0.195,0.725-0.208,1.24c0,0.039-0.002,0.098-0.005,0.174c-0.003,0.076-0.005,0.134-0.005,0.173v0.486
		c0,0.774,0.062,1.356,0.188,1.746c0.085,0.252,0.178,0.44,0.278,0.565c0.277,0.351,0.641,0.51,1.091,0.477
		c0.827-0.066,1.28-0.761,1.359-2.084c0.013-0.185,0.02-0.32,0.02-0.406v-0.525c0-0.86-0.069-1.466-0.208-1.816
		C38.933,54.877,38.854,54.731,38.768,54.625z"/>
</g>
<g>
	<path d="M46.57,49.538c0.047-0.113,0.179-0.288,0.397-0.524c0.454-0.52,0.992-0.836,1.616-0.949
		c0.208-0.038,0.435-0.043,0.68-0.015c0.595,0.057,0.997,0.26,1.205,0.609s0.227,0.917,0.057,1.701l-0.638,2.99
		c-0.132,0.699-0.227,1.144-0.283,1.332c0,0.104-0.071,0.156-0.213,0.156c-0.028,0-0.047,0-0.057,0h-0.666l0.893-4.195
		c0.009-0.047,0.028-0.135,0.057-0.262c0.028-0.128,0.047-0.225,0.057-0.291c0.009-0.066,0.019-0.153,0.028-0.262
		c0.009-0.109,0.004-0.206-0.014-0.291c-0.019-0.085-0.047-0.17-0.085-0.255c-0.208-0.406-0.676-0.586-1.403-0.539
		c-0.435,0.057-0.806,0.26-1.113,0.609s-0.541,0.757-0.701,1.219c-0.038,0.123-0.111,0.438-0.22,0.943
		c-0.109,0.505-0.225,1.062-0.347,1.672c-0.123,0.609-0.208,1.014-0.255,1.212c-0.009,0.028-0.021,0.076-0.036,0.142
		c-0.014,0.066-0.026,0.118-0.035,0.156c0,0.038-0.005,0.066-0.014,0.085c-0.01,0.019-0.028,0.033-0.057,0.042
		c-0.028,0.01-0.05,0.015-0.064,0.015s-0.042,0-0.085,0s-0.069,0-0.078,0h-0.638l1.417-6.689h0.864l-0.283,1.389H46.57z"/>
</g>
<g>
	<path d="M55.306,55.854c-0.007,0.026-0.015,0.088-0.025,0.184s-0.02,0.179-0.03,0.248s-0.018,0.111-0.025,0.124
		c-0.006,0.014-0.076,0.063-0.208,0.148c-0.258,0.166-0.546,0.293-0.863,0.383c-0.317,0.089-0.658,0.113-1.022,0.074
		c-0.364-0.04-0.671-0.169-0.923-0.387c-0.119-0.106-0.215-0.215-0.288-0.328c-0.245-0.363-0.354-0.759-0.327-1.186
		c0.026-0.427,0.124-0.823,0.292-1.19c0.169-0.367,0.378-0.676,0.63-0.928c0.265-0.277,0.579-0.497,0.943-0.659
		c0.363-0.162,0.741-0.214,1.131-0.154c0.304,0.047,0.554,0.162,0.749,0.348c0.195,0.185,0.322,0.423,0.382,0.714
		c0.033,0.139,0.046,0.328,0.04,0.565c-0.007,0.238-0.03,0.431-0.07,0.576c0,0.026-0.003,0.046-0.01,0.06
		c-0.007,0.013-0.02,0.022-0.04,0.029c-0.02,0.007-0.035,0.01-0.045,0.01c-0.01,0-0.03,0-0.06,0s-0.048,0-0.054,0h-2.927
		c-0.146,0-0.225,0.01-0.238,0.03c-0.053,0.093-0.08,0.274-0.08,0.545c0,0.655,0.245,1.102,0.734,1.34
		c0.311,0.112,0.62,0.143,0.928,0.089c0.308-0.053,0.6-0.151,0.878-0.297c0.08-0.047,0.192-0.116,0.337-0.209
		c0.006-0.006,0.033-0.026,0.079-0.06S55.279,55.867,55.306,55.854z M55.207,54.078c0-0.033,0.001-0.083,0.005-0.149
		c0.003-0.065,0.005-0.115,0.005-0.148c-0.013-0.238-0.06-0.437-0.139-0.596c-0.106-0.211-0.276-0.356-0.511-0.437
		c-0.235-0.079-0.471-0.086-0.709-0.02c-0.437,0.112-0.81,0.394-1.121,0.844c-0.139,0.205-0.231,0.373-0.278,0.506H55.207z"/>
</g>
<g>
	<path d="M61.408,52.33c0.057-0.094,0.198-0.142,0.425-0.142h8.093h0.595c0.123,0.02,0.208,0.083,0.255,0.191
		s0.023,0.205-0.071,0.29c-0.057,0.058-0.156,0.086-0.297,0.086h-8.575c-0.142,0-0.227-0.005-0.255-0.015
		c-0.085-0.019-0.146-0.073-0.184-0.163C61.356,52.488,61.361,52.406,61.408,52.33z M61.578,49.453
		c0.019-0.01,0.099-0.015,0.241-0.015h8.122l0.297-0.014c0.199,0,0.298,0.005,0.298,0.014c0.113,0.02,0.191,0.085,0.234,0.199
		c0.042,0.113,0.021,0.208-0.064,0.283c-0.057,0.057-0.161,0.085-0.312,0.085h-8.519c-0.151,0-0.241-0.005-0.269-0.015
		c-0.151-0.028-0.229-0.115-0.234-0.262S61.437,49.491,61.578,49.453z"/>
</g>
<g>
	<path d="M82.979,44.94c-0.709,0.321-1.479,0.428-2.311,0.318c-0.832-0.108-1.53-0.437-2.098-0.984
		c-0.265-0.265-0.496-0.586-0.694-0.964c-0.321-0.624-0.468-1.384-0.439-2.282c0.009-0.52,0.128-1.082,0.354-1.687
		c0.302-0.859,0.765-1.632,1.389-2.317c0.624-0.685,1.346-1.216,2.168-1.594c0.642-0.321,1.36-0.47,2.154-0.446
		c0.793,0.023,1.483,0.248,2.069,0.673c0.822,0.595,1.327,1.484,1.517,2.665c0.142,1.125-0.06,2.226-0.603,3.303
		c-0.543,1.077-1.264,1.937-2.162,2.579c-0.17,0.142-0.34,0.251-0.51,0.326c0.784,1.152,1.248,1.852,1.389,2.098
		c-0.52,0-0.902-0.005-1.148-0.015c-0.123-0.142-0.281-0.368-0.475-0.68c-0.193-0.312-0.305-0.491-0.333-0.539L82.979,44.94z
		 M81.306,42.304h0.723c0.17,0,0.269,0.009,0.298,0.028c0.009,0.009,0.035,0.042,0.078,0.099s0.085,0.116,0.127,0.177
		c0.043,0.062,0.069,0.097,0.078,0.106l0.737,1.105c0.057,0.085,0.114,0.113,0.17,0.085c0.406-0.207,0.831-0.585,1.275-1.133
		c0.482-0.604,0.846-1.294,1.091-2.069s0.326-1.536,0.241-2.282c-0.095-0.822-0.425-1.502-0.992-2.041
		c-0.34-0.302-0.747-0.503-1.219-0.603c-0.473-0.099-0.945-0.102-1.417-0.007c-0.236,0.047-0.51,0.137-0.822,0.269
		c-0.926,0.397-1.677,1.046-2.253,1.949s-0.912,1.883-1.006,2.941c-0.113,1.285,0.227,2.278,1.021,2.976
		c0.708,0.586,1.55,0.789,2.523,0.609c0.104-0.019,0.312-0.07,0.624-0.155c-0.151-0.274-0.385-0.657-0.702-1.148
		C81.563,42.72,81.372,42.417,81.306,42.304z"/>
</g>
<g>
	<path d="M91.59,37.083v-2.817c0-0.112,0.003-0.182,0.01-0.208c0.026-0.106,0.092-0.159,0.198-0.159
		c0.119,0,0.188,0.053,0.208,0.159c0.006,0.026,0.01,0.096,0.01,0.208v2.817h2.808c0.119,0,0.188,0.003,0.208,0.01
		c0.106,0.026,0.159,0.092,0.159,0.198c0,0.119-0.053,0.188-0.159,0.208c-0.02,0.006-0.089,0.01-0.208,0.01h-2.808v2.817
		c0,0.119-0.003,0.188-0.01,0.208c-0.02,0.106-0.089,0.159-0.208,0.159c-0.106,0-0.172-0.053-0.198-0.159
		c-0.007-0.02-0.01-0.089-0.01-0.208V37.51h-2.817c-0.119,0-0.188-0.003-0.208-0.01c-0.106-0.02-0.159-0.089-0.159-0.208
		c0-0.106,0.053-0.172,0.159-0.198c0.02-0.007,0.089-0.01,0.208-0.01H91.59z"/>
</g>
<g>
	<rect x="76.728" y="50.812" width="19.541" height="0.574"/>
</g>
<g>
	<path d="M84.271,64.252c-0.709,0.321-1.479,0.428-2.311,0.318c-0.832-0.108-1.53-0.437-2.098-0.984
		c-0.265-0.265-0.496-0.586-0.694-0.964c-0.321-0.624-0.468-1.384-0.439-2.282c0.009-0.52,0.128-1.082,0.354-1.687
		c0.302-0.859,0.765-1.632,1.389-2.317c0.624-0.685,1.346-1.216,2.168-1.595c0.642-0.32,1.36-0.47,2.154-0.446
		c0.793,0.024,1.483,0.248,2.069,0.674c0.822,0.595,1.327,1.483,1.517,2.664c0.142,1.125-0.06,2.226-0.603,3.303
		c-0.543,1.077-1.264,1.937-2.162,2.579c-0.17,0.142-0.34,0.251-0.51,0.326c0.784,1.152,1.248,1.852,1.389,2.098
		c-0.52,0-0.902-0.005-1.148-0.015c-0.123-0.142-0.281-0.368-0.475-0.68c-0.193-0.312-0.305-0.491-0.333-0.539L84.271,64.252z
		 M82.598,61.615h0.723c0.17,0,0.269,0.01,0.298,0.028c0.009,0.01,0.035,0.043,0.078,0.1s0.085,0.116,0.127,0.177
		c0.043,0.062,0.069,0.098,0.078,0.106l0.737,1.105c0.057,0.085,0.114,0.113,0.17,0.085c0.406-0.207,0.831-0.585,1.275-1.134
		c0.482-0.604,0.846-1.294,1.091-2.069c0.246-0.774,0.326-1.535,0.241-2.281c-0.095-0.822-0.425-1.503-0.992-2.041
		c-0.34-0.303-0.747-0.503-1.219-0.603c-0.473-0.1-0.945-0.102-1.417-0.007c-0.236,0.047-0.51,0.137-0.822,0.27
		c-0.926,0.396-1.677,1.046-2.253,1.948s-0.912,1.883-1.006,2.941c-0.113,1.285,0.227,2.277,1.021,2.976
		c0.708,0.586,1.55,0.789,2.523,0.609c0.104-0.019,0.312-0.07,0.624-0.155c-0.151-0.274-0.385-0.657-0.702-1.148
		S82.664,61.729,82.598,61.615z"/>
</g>
<g>
	<path d="M91.662,53.633c0.271-0.026,0.544,0.012,0.819,0.114c0.274,0.103,0.504,0.25,0.689,0.441
		c0.516,0.536,0.774,1.433,0.774,2.689c0,0.893-0.08,1.58-0.238,2.063c-0.304,0.886-0.863,1.375-1.677,1.468
		c-0.675,0.066-1.23-0.139-1.667-0.615c-0.47-0.522-0.705-1.432-0.705-2.728c0-0.88,0.092-1.564,0.278-2.054
		c0.125-0.312,0.276-0.566,0.451-0.765s0.402-0.356,0.68-0.476C91.199,53.72,91.397,53.673,91.662,53.633z M92.823,54.625
		c-0.179-0.218-0.409-0.361-0.69-0.432c-0.281-0.069-0.561-0.051-0.838,0.055c-0.364,0.173-0.612,0.434-0.744,0.784
		c-0.126,0.311-0.195,0.725-0.208,1.24c0,0.039-0.002,0.098-0.005,0.174c-0.003,0.076-0.005,0.134-0.005,0.173v0.486
		c0,0.774,0.062,1.356,0.188,1.746c0.085,0.252,0.178,0.44,0.278,0.565c0.277,0.351,0.641,0.51,1.091,0.477
		c0.827-0.066,1.28-0.761,1.359-2.084c0.013-0.185,0.02-0.32,0.02-0.406v-0.525c0-0.86-0.069-1.466-0.208-1.816
		C92.988,54.877,92.908,54.731,92.823,54.625z"/>
</g>
<g>
	<path d="M98.613,48.333c-0.038-0.037-0.161-0.184-0.369-0.439c-0.094-0.122-0.142-0.193-0.142-0.212
		c0-0.02,0.028-0.118,0.085-0.298c0.189-0.539,0.468-0.992,0.836-1.36c0.558-0.501,1.247-0.744,2.069-0.73
		c0.822,0.015,1.517,0.268,2.083,0.759c0.482,0.416,0.789,0.94,0.921,1.573c0.132,0.633,0.057,1.232-0.227,1.8
		c-0.066,0.133-0.142,0.262-0.227,0.39c-0.085,0.128-0.187,0.258-0.305,0.39c-0.119,0.133-0.215,0.241-0.291,0.326
		c-0.076,0.085-0.196,0.198-0.362,0.34c-0.165,0.142-0.279,0.239-0.34,0.291c-0.062,0.052-0.189,0.155-0.383,0.312
		c-0.194,0.156-0.31,0.248-0.347,0.276c-0.142,0.104-0.555,0.461-1.24,1.07s-1.136,1.019-1.354,1.226h5.131v0.794h-5.953v-0.496
		c0-0.123,0.007-0.2,0.021-0.233s0.054-0.083,0.121-0.149l0.241-0.227l1.956-1.8c0.057-0.048,0.201-0.168,0.432-0.361
		c0.231-0.194,0.399-0.336,0.503-0.426c0.104-0.09,0.257-0.231,0.46-0.425s0.356-0.363,0.46-0.511
		c0.104-0.146,0.222-0.316,0.354-0.51s0.234-0.392,0.305-0.596c0.071-0.203,0.121-0.408,0.149-0.616
		c0.047-0.576-0.076-1.072-0.369-1.488c-0.406-0.558-1.011-0.869-1.814-0.936c-0.378-0.028-0.718,0.015-1.021,0.128
		C99.321,46.496,98.858,47.209,98.613,48.333z"/>
</g>
<g>
	<path d="M111.047,48.2h-0.468c-0.132,0-0.212-0.005-0.241-0.015c-0.113-0.057-0.321-0.236-0.624-0.538
		c-0.548-0.548-0.992-1.162-1.333-1.843c-0.728-1.455-1.054-3.118-0.978-4.989c0.057-1.2,0.281-2.298,0.673-3.295
		c0.392-0.997,0.928-1.835,1.609-2.516c0.321-0.321,0.539-0.51,0.652-0.567c0.028-0.009,0.108-0.014,0.241-0.014h0.468
		c-0.038,0.047-0.165,0.166-0.382,0.354c-0.444,0.378-0.889,0.982-1.333,1.814c-0.614,1.181-0.955,2.589-1.021,4.224
		c-0.057,1.333,0.092,2.589,0.447,3.77c0.354,1.181,0.886,2.159,1.594,2.934c0.132,0.151,0.236,0.26,0.312,0.326
		C110.882,48.035,111.01,48.152,111.047,48.2z"/>
	<path d="M113.032,38.548c-0.038-0.038-0.161-0.185-0.369-0.439c-0.094-0.123-0.142-0.193-0.142-0.212s0.028-0.118,0.085-0.298
		c0.189-0.539,0.468-0.992,0.836-1.361c0.558-0.5,1.247-0.744,2.069-0.729c0.822,0.014,1.517,0.267,2.083,0.758
		c0.482,0.416,0.789,0.94,0.921,1.573c0.132,0.633,0.057,1.233-0.227,1.8c-0.066,0.132-0.142,0.262-0.227,0.39
		c-0.085,0.127-0.187,0.258-0.305,0.39c-0.119,0.132-0.215,0.241-0.291,0.326c-0.076,0.085-0.196,0.198-0.362,0.34
		c-0.165,0.142-0.279,0.238-0.34,0.291c-0.062,0.052-0.189,0.156-0.383,0.312c-0.194,0.156-0.31,0.248-0.347,0.276
		c-0.142,0.104-0.555,0.461-1.24,1.07s-1.136,1.019-1.354,1.226h5.131v0.794h-5.953v-0.496c0-0.123,0.007-0.2,0.021-0.233
		s0.054-0.083,0.121-0.149l0.241-0.227l1.956-1.8c0.057-0.047,0.201-0.168,0.432-0.362c0.231-0.193,0.399-0.335,0.503-0.425
		c0.104-0.09,0.257-0.231,0.46-0.425s0.356-0.364,0.46-0.51s0.222-0.316,0.354-0.51s0.234-0.392,0.305-0.595
		s0.121-0.409,0.149-0.617c0.047-0.576-0.076-1.072-0.369-1.488c-0.406-0.557-1.011-0.869-1.814-0.936
		c-0.378-0.028-0.718,0.014-1.021,0.128C113.74,36.71,113.277,37.424,113.032,38.548z"/>
</g>
<g>
	<path d="M119.726,40.504c0.038-0.113,0.198-0.387,0.482-0.822c0.444-0.624,0.93-1.025,1.459-1.205
		c0.104-0.038,0.225-0.066,0.362-0.085c0.137-0.019,0.246-0.03,0.326-0.035s0.21-0.005,0.39,0c0.18,0.005,0.293,0.007,0.34,0.007
		h4.323c0.312,0,0.496,0.066,0.553,0.199c0.019,0.057,0.028,0.094,0.028,0.113c0.009,0.113-0.023,0.222-0.099,0.326
		s-0.17,0.17-0.283,0.198c-0.066,0.019-0.218,0.028-0.454,0.028h-1.162c-0.076,0-0.128,0.019-0.156,0.057
		c-0.009,0.019-0.028,0.109-0.057,0.27s-0.057,0.331-0.085,0.51c-0.028,0.179-0.047,0.283-0.057,0.312
		c-0.246,1.663-0.194,2.939,0.156,3.827c0.009,0.02,0.028,0.064,0.057,0.135c0.028,0.071,0.045,0.12,0.05,0.148
		c0.004,0.028,0.012,0.071,0.021,0.128s0.007,0.106-0.007,0.148c-0.014,0.043-0.036,0.088-0.064,0.135
		c-0.094,0.133-0.22,0.22-0.375,0.263c-0.156,0.042-0.291-0.003-0.404-0.135c-0.123-0.16-0.255-0.571-0.397-1.233
		c-0.198-1.096-0.142-2.461,0.17-4.096c0.038-0.208,0.071-0.364,0.1-0.468h-1.163c-0.293,1.795-0.803,3.6-1.53,5.414
		c-0.066,0.17-0.142,0.298-0.227,0.383c-0.095,0.085-0.201,0.132-0.319,0.142s-0.225-0.023-0.319-0.099
		c-0.104-0.104-0.123-0.256-0.057-0.454l0.397-1.021c0.312-0.878,0.694-2.333,1.148-4.365h-0.524c-0.35,0-0.605,0.047-0.766,0.142
		c-0.302,0.161-0.59,0.482-0.864,0.964c-0.057,0.085-0.095,0.132-0.114,0.142c-0.028,0.019-0.113,0.028-0.255,0.028H119.726z"/>
	<path d="M131.66,39.753c0.057-0.123,0.198-0.307,0.425-0.553c0.642-0.708,1.394-1.021,2.253-0.936
		c0.491,0.038,0.855,0.18,1.091,0.425c0.161,0.161,0.265,0.392,0.312,0.694c0,0.028,0.002,0.087,0.007,0.177
		s0.012,0.158,0.021,0.206c0.094-0.161,0.236-0.345,0.425-0.553c0.481-0.529,1.034-0.841,1.658-0.936
		c0.416-0.057,0.796-0.03,1.141,0.078c0.345,0.109,0.588,0.3,0.73,0.574c0.18,0.34,0.189,0.898,0.028,1.673l-0.638,2.962
		c-0.132,0.699-0.227,1.144-0.284,1.332c0,0.104-0.071,0.156-0.212,0.156c-0.028,0-0.047,0-0.057,0h-0.666l0.893-4.195
		c0.009-0.047,0.028-0.135,0.057-0.262c0.028-0.127,0.047-0.224,0.057-0.291c0.009-0.066,0.019-0.153,0.028-0.262
		c0.009-0.108,0.004-0.206-0.014-0.291c-0.019-0.085-0.047-0.17-0.085-0.255c-0.132-0.265-0.392-0.43-0.779-0.496
		c-0.614-0.132-1.127-0.014-1.538,0.354c-0.411,0.369-0.716,0.846-0.915,1.432c-0.038,0.123-0.111,0.437-0.22,0.942
		c-0.108,0.506-0.224,1.063-0.347,1.672c-0.123,0.609-0.208,1.014-0.255,1.212c-0.01,0.038-0.021,0.09-0.036,0.156
		s-0.026,0.113-0.035,0.142c0,0.038-0.005,0.066-0.014,0.085c-0.01,0.019-0.028,0.033-0.057,0.042
		c-0.028,0.01-0.05,0.015-0.064,0.015s-0.042,0-0.085,0s-0.069,0-0.078,0h-0.638l0.893-4.195c0.009-0.047,0.028-0.135,0.057-0.262
		s0.047-0.224,0.057-0.291c0.009-0.066,0.019-0.153,0.028-0.262c0.009-0.108,0.004-0.206-0.014-0.291
		c-0.019-0.085-0.047-0.17-0.085-0.255c-0.133-0.265-0.393-0.43-0.78-0.496c-0.614-0.132-1.126-0.014-1.538,0.354
		c-0.411,0.369-0.716,0.846-0.914,1.432c-0.038,0.123-0.111,0.437-0.22,0.942c-0.109,0.506-0.225,1.063-0.347,1.672
		c-0.123,0.609-0.208,1.014-0.255,1.212c-0.009,0.028-0.021,0.076-0.036,0.142c-0.014,0.066-0.026,0.118-0.035,0.156
		c0,0.038-0.005,0.066-0.014,0.085c-0.01,0.019-0.028,0.033-0.057,0.042c-0.028,0.01-0.05,0.015-0.064,0.015s-0.042,0-0.085,0
		s-0.069,0-0.078,0h-0.638l1.417-6.69h0.864l-0.283,1.389H131.66z"/>
</g>
<g>
	<path d="M144.546,46.068c-0.007,0.026-0.015,0.088-0.025,0.184s-0.02,0.179-0.03,0.248s-0.018,0.111-0.025,0.124
		c-0.006,0.014-0.076,0.063-0.208,0.148c-0.258,0.166-0.546,0.293-0.863,0.383c-0.317,0.089-0.658,0.113-1.022,0.074
		c-0.364-0.04-0.671-0.169-0.923-0.387c-0.119-0.106-0.215-0.215-0.288-0.328c-0.245-0.363-0.354-0.759-0.327-1.186
		c0.026-0.427,0.124-0.823,0.292-1.19c0.169-0.367,0.378-0.676,0.63-0.928c0.265-0.277,0.579-0.498,0.943-0.66
		c0.363-0.162,0.741-0.213,1.131-0.154c0.304,0.046,0.554,0.163,0.749,0.348c0.195,0.185,0.322,0.423,0.382,0.714
		c0.033,0.139,0.046,0.328,0.04,0.565c-0.007,0.238-0.03,0.431-0.07,0.576c0,0.026-0.003,0.046-0.01,0.06
		c-0.007,0.013-0.02,0.022-0.04,0.029c-0.02,0.007-0.035,0.01-0.045,0.01c-0.01,0-0.03,0-0.06,0s-0.048,0-0.054,0h-2.927
		c-0.146,0-0.225,0.01-0.238,0.03c-0.053,0.093-0.08,0.274-0.08,0.545c0,0.655,0.245,1.102,0.734,1.34
		c0.311,0.112,0.62,0.143,0.928,0.089c0.308-0.053,0.6-0.151,0.878-0.297c0.08-0.047,0.192-0.116,0.337-0.209
		c0.006-0.006,0.033-0.026,0.079-0.06S144.52,46.082,144.546,46.068z M144.447,44.293c0-0.033,0.001-0.083,0.005-0.149
		c0.003-0.065,0.005-0.115,0.005-0.148c-0.013-0.238-0.06-0.437-0.139-0.596c-0.106-0.211-0.276-0.356-0.511-0.436
		s-0.471-0.086-0.709-0.02c-0.437,0.112-0.81,0.394-1.121,0.844c-0.139,0.205-0.231,0.373-0.278,0.506H144.447z"/>
</g>
<g>
	<path d="M149.122,35.217h0.851l-1.347,6.364l3.728-3.089l0.156-0.114c0.236-0.009,0.6-0.014,1.091-0.014v0.014l-2.792,2.311
		l-0.212,0.212c0.047,0.151,0.132,0.347,0.255,0.588c0.123,0.241,0.203,0.409,0.241,0.503l1.432,3.062
		c-0.52,0-0.841-0.01-0.964-0.028c-0.199-0.378-0.468-0.931-0.808-1.658c-0.34-0.728-0.572-1.214-0.694-1.46l-0.184-0.425
		c-0.17,0.123-0.404,0.312-0.702,0.567c-0.298,0.255-0.513,0.435-0.645,0.539l-0.17,0.17c-0.227,1.039-0.378,1.743-0.454,2.111
		l-0.057,0.156c-0.104,0.019-0.374,0.028-0.808,0.028L149.122,35.217z"/>
	<path d="M154.933,36.011c0.057-0.34,0.113-0.581,0.17-0.723c0.123-0.038,0.468-0.05,1.035-0.036s0.926,0.017,1.077,0.007h7.058
		l-0.156,0.751h-3.812c-0.17,0-0.265,0.014-0.284,0.042c-0.028,0.047-0.042,0.104-0.042,0.17c-1.001,4.63-1.616,7.512-1.842,8.646
		l-0.057,0.156c-0.019,0.019-0.109,0.028-0.27,0.028h-0.708l1.927-9.042H154.933z"/>
</g>
<g>
	<path d="M165.456,34.424h0.467c0.142,0,0.222,0.005,0.241,0.014c0.113,0.057,0.321,0.236,0.624,0.539
		c0.548,0.548,0.992,1.162,1.333,1.842c0.727,1.456,1.053,3.118,0.978,4.989c-0.057,1.2-0.281,2.298-0.673,3.295
		c-0.393,0.996-0.929,1.835-1.609,2.516c-0.321,0.321-0.539,0.51-0.652,0.566c-0.028,0.01-0.109,0.015-0.241,0.015h-0.467
		c0.038-0.048,0.165-0.165,0.382-0.354c0.076-0.066,0.18-0.175,0.312-0.326c0.416-0.463,0.76-0.973,1.035-1.53
		c0.746-1.475,1.082-3.198,1.006-5.173c-0.095-2.362-0.775-4.266-2.041-5.712c-0.132-0.151-0.236-0.26-0.312-0.326
		C165.621,34.589,165.494,34.471,165.456,34.424z"/>
</g>
<g>
	<path d="M172.312,30.113c-0.161-0.217-0.241-0.331-0.241-0.34c0-0.043,0.049-0.114,0.149-0.213
		c0.174-0.189,0.382-0.337,0.624-0.446c0.515-0.222,1.006-0.229,1.474-0.021c0.387,0.175,0.611,0.428,0.673,0.758
		c0.062,0.284-0.014,0.572-0.227,0.865c-0.132,0.18-0.345,0.342-0.638,0.489c0.491,0.142,0.827,0.404,1.006,0.787
		c0.118,0.312,0.118,0.608,0,0.89c-0.118,0.281-0.312,0.509-0.581,0.684c-0.246,0.156-0.524,0.243-0.836,0.262
		s-0.603-0.026-0.872-0.135c-0.255-0.099-0.489-0.241-0.702-0.425l-0.127-0.128c-0.052-0.052-0.069-0.123-0.05-0.212
		c0.005-0.028,0.013-0.072,0.025-0.131s0.02-0.103,0.025-0.131c0.023,0.024,0.06,0.062,0.11,0.117
		c0.049,0.055,0.091,0.094,0.124,0.117c0.217,0.198,0.463,0.34,0.737,0.425c0.491,0.161,0.9,0.144,1.226-0.05
		c0.151-0.094,0.269-0.215,0.354-0.361c0.104-0.189,0.14-0.401,0.11-0.638c-0.031-0.236-0.124-0.43-0.28-0.581
		c-0.184-0.17-0.418-0.267-0.702-0.291c0-0.005-0.049-0.005-0.148,0h-0.149h-0.468v-0.397c0.411-0.023,0.68-0.054,0.808-0.092
		c0.189-0.057,0.354-0.157,0.493-0.301c0.139-0.144,0.223-0.311,0.251-0.5c0.028-0.236-0.032-0.418-0.181-0.545
		c-0.148-0.128-0.336-0.199-0.563-0.213c-0.283-0.028-0.554,0.027-0.811,0.167c-0.258,0.14-0.459,0.337-0.606,0.592H172.312z"/>
</g>
<g>
	<rect x="171.617" y="35.098" width="3.942" height="0.398"/>
</g>
<g>
	<path d="M172.248,37.891c-0.057-0.052-0.128-0.134-0.213-0.248c-0.052-0.066-0.08-0.104-0.085-0.113
		c-0.005-0.023,0.003-0.058,0.025-0.103c0.021-0.045,0.032-0.07,0.032-0.075c0.137-0.307,0.305-0.534,0.503-0.68
		c0.302-0.217,0.664-0.315,1.084-0.294c0.42,0.021,0.77,0.147,1.049,0.379c0.25,0.203,0.412,0.465,0.485,0.787
		s0.034,0.626-0.117,0.914c-0.052,0.095-0.111,0.185-0.177,0.27c-0.066,0.085-0.151,0.172-0.255,0.262
		c-0.104,0.09-0.183,0.157-0.238,0.202c-0.054,0.045-0.152,0.119-0.294,0.223s-0.227,0.167-0.255,0.191
		c-0.279,0.203-0.721,0.569-1.325,1.098h2.693v0.439h-3.154v-0.276c0-0.071,0.002-0.113,0.007-0.127
		c0.004-0.014,0.028-0.042,0.071-0.085l0.135-0.114c0.553-0.486,0.959-0.831,1.219-1.035c0.401-0.312,0.673-0.548,0.815-0.708
		c0.212-0.25,0.335-0.51,0.369-0.779c0.038-0.274-0.017-0.515-0.163-0.723c-0.199-0.293-0.518-0.456-0.957-0.489
		c-0.194-0.014-0.369,0.007-0.524,0.063C172.642,36.999,172.399,37.338,172.248,37.891z"/>
</g>
<g>
	<rect x="106.101" y="50.812" width="71.152" height="0.574"/>
</g>
<g>
	<path d="M138.145,54.529h0.893l-0.936,4.464h0.014c0.123-0.227,0.312-0.448,0.567-0.666c0.624-0.557,1.318-0.808,2.083-0.751
		c0.604,0.057,1.016,0.274,1.233,0.652c0.18,0.35,0.189,0.912,0.028,1.687l-0.638,2.962c-0.132,0.699-0.227,1.144-0.283,1.332
		c0,0.104-0.071,0.156-0.213,0.156c-0.028,0-0.047,0-0.057,0h-0.666l0.893-4.195c0.009-0.047,0.028-0.135,0.057-0.262
		c0.028-0.128,0.047-0.225,0.057-0.291c0.009-0.066,0.019-0.153,0.028-0.262c0.009-0.109,0.004-0.206-0.014-0.291
		c-0.019-0.085-0.047-0.17-0.085-0.255c-0.208-0.406-0.676-0.586-1.403-0.539c-0.435,0.057-0.806,0.26-1.113,0.609
		s-0.541,0.757-0.701,1.219c-0.038,0.123-0.111,0.438-0.22,0.943c-0.109,0.505-0.225,1.062-0.347,1.672
		c-0.123,0.609-0.208,1.014-0.255,1.212c-0.009,0.028-0.021,0.076-0.036,0.142c-0.014,0.066-0.026,0.118-0.035,0.156
		c0,0.038-0.005,0.066-0.014,0.085c-0.01,0.019-0.028,0.033-0.057,0.042c-0.028,0.01-0.05,0.015-0.064,0.015s-0.042,0-0.085,0
		s-0.069,0-0.078,0h-0.638L138.145,54.529z"/>
</g>
<g>
	<path d="M143.519,55.25c-0.205-0.271-0.308-0.423-0.308-0.456s0.062-0.129,0.188-0.288c0.218-0.251,0.496-0.463,0.833-0.635
		c0.317-0.151,0.656-0.232,1.017-0.243c0.36-0.01,0.703,0.059,1.027,0.204c0.509,0.251,0.807,0.599,0.893,1.041
		c0.066,0.391-0.02,0.768-0.258,1.131c-0.159,0.232-0.357,0.424-0.596,0.576c-0.026,0.02-0.079,0.05-0.159,0.089
		c-0.079,0.04-0.139,0.073-0.178,0.1c0.145,0.02,0.333,0.093,0.565,0.218c0.344,0.192,0.605,0.46,0.784,0.804
		c0.132,0.298,0.179,0.597,0.139,0.898c-0.04,0.301-0.152,0.583-0.337,0.848c-0.046,0.066-0.126,0.155-0.238,0.269
		c-0.311,0.304-0.694,0.495-1.151,0.575c-0.457,0.079-0.886,0.05-1.29-0.09c-0.51-0.151-0.946-0.437-1.31-0.853
		c-0.053-0.066-0.082-0.107-0.084-0.124c-0.003-0.017,0.001-0.064,0.015-0.145c0.033-0.211,0.06-0.337,0.08-0.377
		c0.502,0.662,1.157,1.022,1.964,1.082c0.489,0.046,0.89-0.066,1.2-0.338c0.271-0.225,0.427-0.53,0.466-0.918
		c0.04-0.387-0.043-0.722-0.248-1.007c-0.172-0.238-0.407-0.406-0.704-0.506c-0.166-0.053-0.417-0.079-0.754-0.079h-0.705V56.5
		c0.06,0,0.146-0.005,0.258-0.015s0.195-0.018,0.248-0.024c0.258-0.014,0.47-0.046,0.635-0.1c0.284-0.093,0.522-0.254,0.714-0.486
		c0.191-0.231,0.288-0.489,0.288-0.773c0-0.542-0.341-0.854-1.022-0.933c-0.615-0.066-1.147,0.126-1.597,0.575
		c-0.126,0.126-0.248,0.295-0.367,0.506H143.519z"/>
</g>
<g>
	<path d="M184.812,53.28c-0.038,0.463-0.071,0.718-0.099,0.765c-0.028,0.038-0.146,0.123-0.354,0.255
		c-0.359,0.208-0.728,0.374-1.105,0.496c-0.378,0.123-0.806,0.173-1.283,0.149s-0.896-0.168-1.254-0.433
		c-0.737-0.548-1.077-1.355-1.021-2.424c0.038-0.68,0.229-1.329,0.574-1.948c0.345-0.619,0.768-1.112,1.269-1.481
		c0.416-0.312,0.859-0.518,1.332-0.616c0.473-0.1,0.955-0.068,1.446,0.092c0.17,0.066,0.326,0.151,0.468,0.255
		c0.5,0.388,0.732,1.059,0.694,2.013c0,0.501-0.047,0.789-0.142,0.865c-0.019,0.019-0.081,0.028-0.184,0.028h-4.493l-0.085,0.411
		c-0.066,0.595,0.005,1.119,0.212,1.573c0.18,0.35,0.416,0.604,0.709,0.765c0.255,0.161,0.56,0.229,0.914,0.206
		s0.678-0.083,0.971-0.178c0.293-0.094,0.562-0.217,0.808-0.368c0.085-0.047,0.203-0.125,0.354-0.234
		C184.694,53.362,184.784,53.299,184.812,53.28z M184.713,50.743c0.075-0.596,0.004-1.072-0.213-1.432
		c-0.179-0.303-0.458-0.496-0.836-0.581s-0.723-0.057-1.035,0.085c-0.397,0.151-0.749,0.401-1.056,0.751s-0.55,0.742-0.729,1.177
		H184.713z"/>
</g>
<g>
	<path d="M187.005,46.17c0.013-0.007,0.069-0.01,0.168-0.01h5.308h0.387c0.086,0.013,0.142,0.062,0.169,0.148
		c0.026,0.086,0.01,0.159-0.05,0.218c-0.046,0.04-0.182,0.06-0.407,0.06h-5.427c-0.093,0-0.149-0.003-0.169-0.01
		c-0.106-0.033-0.154-0.103-0.144-0.208C186.851,46.263,186.906,46.196,187.005,46.17z"/>
</g>
<g>
	<path d="M195.258,40.697c0.033-0.184,0.119-0.353,0.259-0.507c0.139-0.153,0.301-0.249,0.485-0.287
		c0.236-0.052,0.463-0.005,0.68,0.142c0.038,0.023,0.076,0.056,0.113,0.096c0.038,0.04,0.073,0.078,0.106,0.113
		c0.033,0.036,0.07,0.083,0.11,0.142s0.073,0.109,0.099,0.149s0.059,0.098,0.099,0.174s0.07,0.131,0.089,0.167
		c0.019,0.035,0.049,0.096,0.092,0.181s0.07,0.141,0.082,0.167s0.039,0.084,0.082,0.173c0.042,0.09,0.066,0.142,0.071,0.156
		c0.038,0.085,0.064,0.151,0.078,0.198c0.09-0.076,0.302-0.293,0.638-0.652l0.496-0.503l0.51-0.524
		c0.09-0.089,0.172-0.134,0.248-0.134c0.076-0.005,0.136,0.024,0.181,0.088s0.056,0.131,0.032,0.202
		c-0.019,0.038-0.051,0.084-0.096,0.138s-0.1,0.113-0.167,0.177c-0.066,0.063-0.106,0.103-0.12,0.117
		c-0.038,0.042-0.279,0.292-0.723,0.748c-0.444,0.456-0.692,0.71-0.744,0.762c-0.023,0.038-0.035,0.059-0.035,0.064
		c-0.005,0.038,0.059,0.191,0.191,0.46c0.236,0.515,0.47,0.917,0.701,1.205c0.09,0.118,0.182,0.191,0.277,0.22
		c0.023,0.015,0.047,0.017,0.071,0.008c0.023-0.01,0.042-0.013,0.057-0.008s0.029-0.003,0.046-0.024s0.029-0.034,0.039-0.039
		c0.009-0.005,0.02-0.021,0.032-0.05s0.02-0.047,0.025-0.057s0.011-0.029,0.018-0.061c0.007-0.03,0.012-0.051,0.014-0.06
		c0.002-0.01,0.007-0.028,0.014-0.057c0.007-0.028,0.011-0.048,0.011-0.057h0.518c-0.038,0.188-0.125,0.358-0.262,0.51
		c-0.137,0.151-0.298,0.246-0.482,0.283c-0.231,0.053-0.461,0.003-0.688-0.148c-0.222-0.151-0.484-0.548-0.787-1.19
		c-0.081-0.17-0.127-0.274-0.142-0.312c-0.047-0.08-0.076-0.149-0.085-0.206c-0.004,0.005-0.266,0.272-0.783,0.801
		c-0.518,0.529-0.797,0.815-0.84,0.857c-0.099,0.1-0.184,0.151-0.255,0.156c-0.08,0.01-0.144-0.018-0.191-0.082
		c-0.047-0.063-0.06-0.133-0.036-0.209c0.014-0.047,0.071-0.12,0.17-0.22l0.262-0.269l1.347-1.375
		c0.004-0.005,0.018-0.018,0.039-0.039c0.021-0.021,0.038-0.04,0.049-0.057s0.018-0.032,0.018-0.046
		c0-0.019-0.027-0.091-0.082-0.216c-0.055-0.125-0.091-0.205-0.11-0.237c-0.246-0.539-0.479-0.943-0.702-1.212
		c-0.024-0.028-0.056-0.062-0.096-0.099c-0.04-0.038-0.096-0.077-0.167-0.117s-0.132-0.037-0.184,0.011
		c-0.057,0.047-0.109,0.177-0.156,0.39H195.258z"/>
</g>
<g>
	<path d="M201.396,42.427h0.503c-0.005,0.033-0.053,0.263-0.146,0.69c-0.092,0.428-0.191,0.895-0.297,1.4
		c-0.106,0.505-0.176,0.836-0.209,0.992c0,0.009-0.007,0.049-0.021,0.12c-0.014,0.07-0.028,0.113-0.042,0.127
		c-0.009,0.01-0.052,0.015-0.127,0.015h-0.369l0.617-2.92L201.396,42.427z M201.623,41.356c0.062-0.279,0.099-0.441,0.113-0.489
		c0.066-0.01,0.231-0.014,0.496-0.014l-0.106,0.503H201.623z"/>
	<path d="M204.542,42.455c0.321-0.104,0.612-0.135,0.872-0.092c0.26,0.042,0.479,0.146,0.659,0.312
		c0.185,0.17,0.309,0.378,0.372,0.624c0.064,0.245,0.072,0.498,0.025,0.758c-0.081,0.449-0.3,0.843-0.659,1.184
		c-0.359,0.34-0.765,0.533-1.219,0.581c-0.477,0.037-0.862-0.09-1.155-0.383c-0.175-0.18-0.287-0.402-0.336-0.67
		c-0.05-0.267-0.039-0.519,0.032-0.755c0.095-0.35,0.268-0.666,0.521-0.949C203.905,42.781,204.202,42.578,204.542,42.455z
		 M205.775,42.986c-0.199-0.17-0.436-0.252-0.712-0.248c-0.276,0.005-0.521,0.076-0.733,0.213c-0.383,0.246-0.619,0.646-0.708,1.204
		c-0.081,0.492,0,0.839,0.241,1.042c0.127,0.109,0.277,0.176,0.45,0.202c0.172,0.026,0.336,0.021,0.492-0.018
		c0.156-0.038,0.3-0.097,0.433-0.178c0.378-0.231,0.624-0.642,0.737-1.232C206.059,43.532,205.993,43.203,205.775,42.986z"/>
	<path d="M208.567,43.107c0.057-0.104,0.153-0.215,0.291-0.333c0.246-0.213,0.501-0.343,0.766-0.39
		c0.52-0.062,0.859,0.042,1.021,0.312c0.104,0.185,0.116,0.47,0.035,0.857l-0.319,1.475c-0.066,0.35-0.113,0.571-0.142,0.666
		c0,0.02-0.002,0.034-0.007,0.046s-0.014,0.021-0.028,0.025s-0.025,0.007-0.032,0.007c-0.007,0-0.022,0-0.046,0
		c-0.024,0-0.038,0-0.043,0h-0.375l0.439-2.076c0.005-0.02,0.014-0.061,0.028-0.124s0.023-0.112,0.028-0.146
		s0.009-0.076,0.014-0.127c0.005-0.053,0.002-0.1-0.007-0.143c-0.01-0.043-0.024-0.082-0.042-0.12
		c-0.114-0.203-0.369-0.293-0.766-0.27c-0.175,0.019-0.335,0.095-0.482,0.227c-0.198,0.166-0.345,0.399-0.439,0.702
		c-0.009,0.028-0.102,0.458-0.276,1.29c-0.009,0.047-0.027,0.13-0.053,0.247c-0.026,0.118-0.049,0.223-0.067,0.312
		c-0.019,0.09-0.031,0.142-0.036,0.155c0,0.02-0.002,0.033-0.007,0.043c-0.005,0.01-0.014,0.017-0.028,0.021
		s-0.026,0.007-0.036,0.007c-0.01,0-0.026,0-0.05,0c-0.023,0-0.038,0-0.042,0h-0.368l0.708-3.345h0.496
		c-0.024,0.127-0.071,0.354-0.142,0.681H208.567z"/>
</g>
<g>
	<rect x="195.109" y="46.17" width="16.362" height="0.398"/>
</g>
<g>
	<path d="M199.997,47.298h0.46l-0.666,3.16l1.928-1.53l0.078-0.05c0.132-0.005,0.335-0.007,0.609-0.007v0.007
		c-0.156,0.118-0.411,0.32-0.766,0.606c-0.354,0.285-0.63,0.502-0.829,0.648l1.056,2.083c-0.289,0-0.468-0.005-0.539-0.015
		c-0.071-0.127-0.371-0.713-0.9-1.757l-0.68,0.538l-0.085,0.085c-0.057,0.213-0.135,0.565-0.234,1.057l-0.028,0.077
		c-0.062,0.01-0.21,0.015-0.446,0.015L199.997,47.298z"/>
	<path d="M203.072,47.737c0.042-0.194,0.076-0.328,0.1-0.404c0.071-0.019,0.267-0.024,0.588-0.018s0.524,0.009,0.609,0.004h3.678
		c-0.042,0.203-0.076,0.338-0.099,0.403c-0.142,0.02-0.499,0.025-1.07,0.018c-0.572-0.007-0.936-0.008-1.091-0.003
		c-0.17,0.851-0.463,2.229-0.879,4.139l-0.042,0.227c-0.014,0.057-0.026,0.09-0.035,0.099c-0.005,0.01-0.05,0.015-0.135,0.015
		h-0.397l0.95-4.479H203.072z"/>
</g>
</svg>
