<?xml version="1.0" encoding="iso-8859-1"?>
<!-- Generator: Adobe Illustrator 16.0.0, SVG Export Plug-In . SVG Version: 6.00 Build 0)  -->
<!DOCTYPE svg PUBLIC "-//W3C//DTD SVG 1.1//EN" "http://www.w3.org/Graphics/SVG/1.1/DTD/svg11.dtd">
<svg version="1.1" id="Layer_1" xmlns="http://www.w3.org/2000/svg" xmlns:xlink="http://www.w3.org/1999/xlink" x="0px" y="0px"
	 width="566.929px" height="85.039px" viewBox="0 0 566.929 85.039" style="enable-background:new 0 0 566.929 85.039;"
	 xml:space="preserve">
<g>
	<path d="M28.437,42.776h1.304l1.502,7.795l0.142,0.893h0.014c0.047-0.104,0.387-0.673,1.021-1.707
		c0.633-1.035,1.401-2.277,2.303-3.728c0.902-1.451,1.41-2.271,1.523-2.459l0.326-0.511c0.066-0.132,0.123-0.217,0.17-0.255
		c0.028-0.019,0.146-0.029,0.354-0.029h0.95l-1.587,7.541c-0.227,1.039-0.378,1.743-0.454,2.111l-0.057,0.156
		c-0.113,0.019-0.402,0.028-0.865,0.028l1.899-8.929h-0.014l-0.496,0.85l-4.72,7.64l-0.127,0.17
		c-0.114,0.02-0.397,0.028-0.851,0.028c-0.047-0.245-0.288-1.46-0.723-3.643c-0.435-2.183-0.737-3.864-0.907-5.045h-0.014
		l-1.857,8.744l-0.057,0.156c-0.113,0.019-0.401,0.028-0.864,0.028L28.437,42.776z"/>
</g>
<g>
	<path d="M43.807,53.646l0.03,0.417c0.026,0.139,0.007,0.219-0.06,0.238c-0.529,0.311-1.091,0.479-1.687,0.506
		c-0.331,0.02-0.648,0.007-0.952-0.04c-0.562-0.112-1.062-0.356-1.498-0.733c-0.549-0.47-0.918-1.072-1.106-1.806
		c-0.188-0.734-0.164-1.445,0.074-2.134c0.205-0.621,0.554-1.142,1.047-1.562c0.493-0.42,1.083-0.669,1.771-0.749
		c0.502-0.046,0.999-0.013,1.488,0.1c0.205,0.046,0.479,0.126,0.823,0.238l-0.129,0.724c-0.397-0.198-0.632-0.311-0.705-0.337
		c-0.417-0.146-0.815-0.205-1.195-0.179s-0.721,0.111-1.022,0.253c-0.301,0.143-0.557,0.332-0.769,0.57
		c-0.292,0.324-0.506,0.688-0.645,1.092c-0.192,0.549-0.223,1.128-0.094,1.736s0.398,1.121,0.809,1.537
		c0.396,0.397,0.863,0.636,1.399,0.715c0.172,0.026,0.43,0.033,0.774,0.02c0.377-0.02,0.727-0.109,1.051-0.268
		c0.066-0.033,0.164-0.09,0.293-0.169S43.734,53.68,43.807,53.646z"/>
	<path d="M45.216,47.853h0.655v3.155h0.01c0.1-0.251,0.26-0.47,0.481-0.654c0.222-0.186,0.468-0.305,0.739-0.357
		c0.112-0.02,0.278-0.023,0.496-0.01c0.516,0.033,0.873,0.238,1.071,0.615c0.046,0.086,0.083,0.175,0.109,0.268
		c0.026,0.093,0.044,0.195,0.054,0.308c0.01,0.112,0.017,0.205,0.02,0.277c0.003,0.073,0.003,0.181,0,0.322
		c-0.003,0.143-0.005,0.237-0.005,0.283v2.679h-0.675v-3.086c0-0.363-0.06-0.625-0.179-0.783c-0.165-0.212-0.43-0.331-0.793-0.357
		c-0.265-0.02-0.486,0.017-0.665,0.109c-0.186,0.112-0.334,0.281-0.447,0.506c-0.026,0.053-0.051,0.111-0.074,0.174
		c-0.023,0.062-0.042,0.119-0.055,0.169c-0.013,0.049-0.025,0.11-0.035,0.183c-0.01,0.073-0.017,0.131-0.02,0.174
		s-0.006,0.106-0.01,0.188c-0.003,0.083-0.005,0.143-0.005,0.179s0,0.1,0,0.188c0,0.09,0,0.15,0,0.184v2.173h-0.675V47.853z"/>
</g>
<g>
	<path d="M54.937,50.104c0.057-0.094,0.198-0.142,0.425-0.142h8.093h0.595c0.123,0.02,0.208,0.083,0.255,0.191
		s0.023,0.205-0.071,0.29c-0.057,0.058-0.156,0.086-0.297,0.086h-8.575c-0.142,0-0.227-0.005-0.255-0.015
		c-0.085-0.019-0.146-0.073-0.184-0.163C54.884,50.262,54.889,50.18,54.937,50.104z M55.106,47.227
		c0.019-0.01,0.099-0.015,0.241-0.015h8.122l0.297-0.014c0.199,0,0.298,0.005,0.298,0.014c0.113,0.02,0.191,0.085,0.234,0.199
		c0.042,0.113,0.021,0.208-0.064,0.283c-0.057,0.057-0.161,0.085-0.312,0.085h-8.519c-0.151,0-0.241-0.005-0.269-0.015
		c-0.151-0.028-0.229-0.115-0.234-0.262S54.965,47.265,55.106,47.227z"/>
	<path d="M70.314,45.398l-0.312-0.439c-0.066-0.085-0.099-0.151-0.099-0.198c0-0.057,0.089-0.199,0.269-0.426
		c0.302-0.387,0.68-0.689,1.134-0.907c0.851-0.406,1.698-0.467,2.544-0.184c0.845,0.283,1.363,0.784,1.552,1.502
		c0.151,0.614,0.009,1.229-0.425,1.843c-0.227,0.303-0.505,0.558-0.836,0.766c-0.057,0.037-0.135,0.082-0.234,0.134
		c-0.1,0.053-0.168,0.088-0.206,0.106c0.255,0.038,0.539,0.151,0.85,0.341c0.614,0.35,1.011,0.821,1.191,1.417
		c0.16,0.501,0.158,0.992-0.007,1.474c-0.166,0.482-0.423,0.884-0.772,1.205c-0.17,0.161-0.383,0.312-0.638,0.453
		c-0.775,0.406-1.644,0.478-2.608,0.213c-0.708-0.208-1.342-0.628-1.899-1.262c-0.076-0.094-0.116-0.158-0.12-0.191
		c-0.005-0.032,0.002-0.105,0.021-0.219c0.057-0.312,0.09-0.478,0.099-0.496c0.359,0.481,0.723,0.826,1.091,1.034
		c0.34,0.208,0.704,0.361,1.092,0.461c0.387,0.099,0.787,0.115,1.197,0.049c0.411-0.065,0.763-0.23,1.056-0.495
		c0.331-0.303,0.529-0.709,0.595-1.22c0.066-0.51-0.005-0.959-0.212-1.346c-0.227-0.444-0.586-0.756-1.078-0.936
		c-0.236-0.085-0.595-0.128-1.077-0.128h-0.949V47.24c0.812-0.047,1.36-0.122,1.644-0.227c0.359-0.132,0.659-0.352,0.9-0.659
		c0.241-0.307,0.38-0.649,0.418-1.027c0.047-0.416-0.066-0.774-0.34-1.077c-0.284-0.283-0.664-0.441-1.141-0.475
		s-0.891,0.04-1.24,0.22c-0.435,0.18-0.812,0.473-1.134,0.879c-0.047,0.066-0.106,0.158-0.177,0.276S70.342,45.351,70.314,45.398z"
		/>
</g>
<g>
	<path d="M78.019,51.507h1.105v1.105h-1.105V51.507z"/>
</g>
<g>
	<path d="M82.125,44.009c0.945,0,1.715-0.217,2.31-0.651c0.047-0.028,0.09-0.062,0.127-0.1c0.038-0.037,0.066-0.066,0.085-0.085
		c0.019-0.019,0.042-0.038,0.071-0.057s0.063-0.03,0.106-0.035s0.097-0.007,0.163-0.007v8.829h1.857v0.709h-4.635v-0.709h1.856
		v-7.597c-0.633,0.274-1.28,0.411-1.941,0.411V44.009z"/>
	<path d="M89.381,43.314h4.89v0.751h-4.025v3.261c0.397-0.359,0.857-0.579,1.382-0.659s1.028-0.008,1.51,0.22
		c0.444,0.227,0.812,0.566,1.105,1.021c0.368,0.558,0.543,1.181,0.524,1.87c-0.019,0.69-0.232,1.3-0.638,1.829
		c-0.595,0.774-1.389,1.19-2.381,1.247c-1.181,0.037-2.14-0.378-2.877-1.247c-0.057-0.086-0.085-0.138-0.085-0.156
		c0-0.028,0.123-0.246,0.369-0.652h0.014c0.293,0.435,0.661,0.766,1.105,0.992c0.435,0.255,0.945,0.361,1.531,0.319
		c0.586-0.043,1.054-0.258,1.403-0.646c0.454-0.51,0.638-1.199,0.553-2.069c-0.057-0.793-0.298-1.36-0.723-1.7
		c-0.321-0.265-0.723-0.383-1.205-0.354s-0.888,0.189-1.219,0.481c-0.095,0.086-0.199,0.199-0.312,0.341
		c-0.009,0.01-0.021,0.026-0.035,0.05s-0.026,0.045-0.036,0.063s-0.021,0.038-0.036,0.057c-0.014,0.019-0.031,0.033-0.049,0.043
		c-0.019,0.009-0.095,0.014-0.227,0.014h-0.539V43.314z"/>
</g>
<g>
	<path d="M107.619,66.065c-0.201,0-0.229,0-0.402-0.172c-0.588-0.517-1.133-1.104-1.42-1.435c-3.643-4.288-4.934-9.969-4.934-15.605
		c0-6.038,1.506-12.607,6.311-16.982c0.215-0.215,0.244-0.215,0.445-0.215c0.201,0,0.301,0,0.301,0.144c0,0.043,0,0.072-0.043,0.115
		c-0.631,0.631-1.807,1.807-2.94,3.844c-2.366,4.274-2.883,9.251-2.883,13.11c0,5.522,1.047,10.184,3.356,13.884
		c0.961,1.55,1.922,2.511,2.453,3.041c0.029,0.043,0.057,0.072,0.057,0.129C107.92,66.065,107.82,66.065,107.619,66.065z"/>
</g>
<g>
	<path d="M112.753,32.991h7.229c-0.02,0.142-0.057,0.308-0.114,0.496c-0.236,0.274-0.583,0.655-1.042,1.141
		c-0.458,0.487-0.777,0.834-0.957,1.042l-5.925,6.406h6.194c-0.009,0.057-0.026,0.134-0.05,0.234
		c-0.023,0.099-0.045,0.189-0.063,0.269c-0.019,0.081-0.038,0.154-0.057,0.22c-0.095,0.038-0.383,0.05-0.865,0.036
		c-0.482-0.015-0.789-0.017-0.921-0.007h-5.726c0.019-0.142,0.057-0.307,0.113-0.496c0.246-0.283,0.604-0.678,1.077-1.184
		c0.472-0.505,0.803-0.862,0.992-1.07l5.868-6.35h-5.896L112.753,32.991z"/>
</g>
<g>
	<rect x="109.635" y="48.585" width="10.773" height="0.574"/>
</g>
<g>
	<path d="M110.65,62.137l5.811-9.737l0.142-0.198c0.142-0.019,0.496-0.028,1.063-0.028l1.715,9.964h-1.049l-0.496-2.962h-4.124
		l-0.369,0.028c-0.208,0.293-0.501,0.772-0.879,1.438s-0.68,1.155-0.907,1.467C111.434,62.127,111.132,62.137,110.65,62.137z
		 M116.857,53.208l-2.905,4.903l-0.17,0.312h3.912c-0.047-0.321-0.177-1.099-0.39-2.332
		C117.091,54.858,116.943,53.897,116.857,53.208z"/>
</g>
<g>
	<path d="M122.852,65.851c-0.215,0.215-0.244,0.215-0.445,0.215c-0.172,0-0.301,0-0.301-0.144c0-0.043,0.029-0.086,0.058-0.129
		c0.602-0.603,1.792-1.793,2.926-3.829c2.367-4.274,2.883-9.252,2.883-13.11c0-5.521-1.047-10.184-3.356-13.884
		c-0.961-1.549-1.922-2.51-2.424-3.026c-0.028-0.029-0.086-0.086-0.086-0.144c0-0.144,0.129-0.144,0.301-0.144
		c0.201,0,0.229,0,0.401,0.172c0.588,0.517,1.133,1.104,1.42,1.435c3.643,4.289,4.934,9.969,4.934,15.605
		C129.163,54.906,127.657,61.476,122.852,65.851z"/>
</g>
<g>
	<path d="M133.007,30.603c-0.04-0.033-0.091-0.089-0.154-0.168c-0.063-0.08-0.101-0.126-0.114-0.139
		c-0.073-0.086-0.109-0.139-0.109-0.159c-0.013-0.033,0-0.096,0.04-0.188c0.125-0.351,0.311-0.648,0.556-0.893
		c0.397-0.37,0.898-0.555,1.503-0.555c0.605,0,1.116,0.175,1.533,0.525c0.337,0.278,0.555,0.64,0.655,1.086
		c0.099,0.447,0.049,0.868-0.149,1.265c-0.073,0.132-0.152,0.258-0.238,0.377s-0.202,0.245-0.347,0.377s-0.251,0.227-0.317,0.283
		c-0.066,0.056-0.202,0.164-0.407,0.323c-0.205,0.159-0.321,0.248-0.347,0.268c-0.225,0.179-0.536,0.445-0.933,0.799
		c-0.397,0.354-0.688,0.607-0.873,0.759h3.661v0.585H132.7V34.78c0-0.092,0.005-0.15,0.015-0.173
		c0.01-0.023,0.038-0.058,0.084-0.104c0.146-0.125,0.409-0.362,0.789-0.709c0.38-0.348,0.656-0.59,0.828-0.729
		c0.04-0.033,0.137-0.111,0.293-0.233c0.155-0.123,0.27-0.215,0.342-0.278s0.178-0.157,0.317-0.283
		c0.139-0.126,0.248-0.238,0.327-0.337c0.08-0.099,0.166-0.213,0.258-0.342c0.092-0.129,0.164-0.261,0.213-0.397
		c0.049-0.135,0.084-0.273,0.104-0.412c0.046-0.377-0.023-0.711-0.208-1.002c-0.284-0.423-0.731-0.658-1.339-0.705
		c-0.291-0.02-0.542,0.013-0.754,0.099C133.533,29.36,133.212,29.836,133.007,30.603z"/>
</g>
<g>
	<path d="M150.11,66.065c-0.201,0-0.229,0-0.402-0.172c-0.588-0.517-1.133-1.104-1.42-1.435c-3.643-4.288-4.934-9.969-4.934-15.605
		c0-6.038,1.506-12.607,6.311-16.982c0.215-0.215,0.244-0.215,0.445-0.215c0.201,0,0.301,0,0.301,0.144c0,0.043,0,0.072-0.043,0.115
		c-0.631,0.631-1.807,1.807-2.94,3.844c-2.366,4.274-2.883,9.251-2.883,13.11c0,5.522,1.047,10.184,3.356,13.884
		c0.961,1.55,1.922,2.511,2.453,3.041c0.029,0.043,0.057,0.072,0.057,0.129C150.411,66.065,150.311,66.065,150.11,66.065z"/>
</g>
<g>
	<path d="M159.318,33.884h5.357v0.751h-5.357V33.884z"/>
</g>
<g>
	<path d="M161.869,32.991h0.893l-0.936,4.465h0.014c0.123-0.227,0.312-0.449,0.567-0.666c0.624-0.558,1.318-0.808,2.083-0.751
		c0.604,0.057,1.016,0.274,1.233,0.652c0.18,0.35,0.189,0.912,0.028,1.687l-0.638,2.962c-0.132,0.699-0.227,1.144-0.283,1.333
		c0,0.104-0.071,0.156-0.213,0.156c-0.028,0-0.047,0-0.057,0h-0.666l0.893-4.195c0.009-0.047,0.028-0.135,0.057-0.262
		s0.047-0.224,0.057-0.291c0.009-0.066,0.019-0.153,0.028-0.262c0.009-0.108,0.004-0.206-0.014-0.291
		c-0.019-0.085-0.047-0.17-0.085-0.255c-0.208-0.406-0.676-0.586-1.403-0.539c-0.435,0.057-0.806,0.26-1.113,0.609
		s-0.541,0.756-0.701,1.219c-0.038,0.123-0.111,0.437-0.22,0.942c-0.109,0.506-0.225,1.063-0.347,1.672
		c-0.123,0.61-0.208,1.014-0.255,1.212c-0.009,0.028-0.021,0.076-0.036,0.142c-0.014,0.066-0.026,0.119-0.035,0.156
		c0,0.038-0.005,0.066-0.014,0.085c-0.01,0.019-0.028,0.033-0.057,0.042s-0.05,0.014-0.064,0.014s-0.042,0-0.085,0s-0.069,0-0.078,0
		h-0.638L161.869,32.991z"/>
	<path d="M172.768,41.24c-0.009,0.038-0.021,0.123-0.035,0.255c-0.014,0.133-0.028,0.25-0.042,0.354s-0.026,0.166-0.036,0.185
		c-0.019,0.019-0.109,0.085-0.27,0.198c-0.368,0.236-0.772,0.42-1.211,0.553s-0.917,0.175-1.432,0.127
		c-0.515-0.047-0.952-0.231-1.311-0.553c-0.331-0.302-0.565-0.688-0.702-1.155c-0.137-0.467-0.168-0.961-0.092-1.481
		c0.113-0.784,0.427-1.507,0.942-2.168c0.515-0.661,1.136-1.129,1.864-1.403c0.312-0.113,0.702-0.174,1.169-0.184
		c0.467-0.009,0.872,0.042,1.211,0.156c0.217,0.066,0.524,0.213,0.921,0.439l-0.298,0.78c-0.435-0.265-0.666-0.406-0.694-0.425
		c-0.293-0.123-0.628-0.199-1.006-0.227s-0.742,0.01-1.091,0.114c-0.586,0.189-1.056,0.558-1.41,1.105s-0.588,1.157-0.702,1.828
		c-0.076,0.473-0.052,0.921,0.071,1.347c0.123,0.425,0.369,0.737,0.737,0.935c0.472,0.236,1.063,0.26,1.771,0.071
		c0.387-0.095,0.78-0.27,1.176-0.524c0.047-0.028,0.121-0.081,0.22-0.156C172.619,41.334,172.702,41.278,172.768,41.24z"/>
</g>
<g>
	<rect x="152.127" y="48.585" width="28.22" height="0.574"/>
</g>
<g>
	<path d="M161,57.474l-0.794,3.742c-0.009,0.019-0.017,0.054-0.021,0.105c-0.005,0.053-0.012,0.098-0.021,0.135
		c-0.009,0.038-0.023,0.066-0.042,0.085c-0.113,0.114-0.657,0.293-1.63,0.539c-1.672,0.368-2.996,0.16-3.968-0.624
		c-0.501-0.425-0.851-0.916-1.049-1.474c-0.397-0.992-0.411-2.079-0.043-3.26c0.321-1.049,0.881-1.978,1.68-2.785
		s1.722-1.344,2.771-1.608c0.945-0.236,1.899-0.208,2.863,0.085c0.321,0.095,0.69,0.25,1.105,0.468l-0.382,0.992
		c-0.52-0.369-0.803-0.562-0.851-0.581c-0.312-0.151-0.685-0.256-1.12-0.312s-0.87-0.047-1.304,0.028
		c-0.954,0.189-1.783,0.686-2.487,1.488c-0.704,0.804-1.174,1.706-1.41,2.707c-0.236,1.077-0.142,2.013,0.284,2.807
		c0.227,0.425,0.505,0.751,0.836,0.978c0.822,0.605,2.018,0.681,3.586,0.228c0.189-0.057,0.298-0.108,0.326-0.156
		c0-0.01,0.151-0.718,0.453-2.126c0.057-0.321,0.109-0.558,0.156-0.709h-2.225c0.057-0.34,0.113-0.581,0.17-0.723l0.227-0.028H161z"
		/>
	<path d="M165.833,56.836c0.057-0.123,0.198-0.307,0.425-0.553c0.642-0.709,1.394-1.021,2.253-0.936
		c0.491,0.038,0.855,0.18,1.091,0.426c0.161,0.16,0.265,0.392,0.312,0.694c0,0.028,0.002,0.087,0.007,0.177s0.012,0.158,0.021,0.206
		c0.094-0.161,0.236-0.346,0.425-0.554c0.481-0.528,1.034-0.841,1.658-0.935c0.416-0.057,0.796-0.031,1.141,0.077
		c0.345,0.109,0.588,0.301,0.73,0.574c0.18,0.341,0.189,0.898,0.028,1.673l-0.638,2.962c-0.132,0.699-0.227,1.144-0.284,1.332
		c0,0.104-0.071,0.156-0.212,0.156c-0.028,0-0.047,0-0.057,0h-0.666l0.893-4.195c0.009-0.047,0.028-0.135,0.057-0.262
		c0.028-0.128,0.047-0.225,0.057-0.291c0.009-0.066,0.019-0.153,0.028-0.262c0.009-0.109,0.004-0.206-0.014-0.291
		c-0.019-0.085-0.047-0.17-0.085-0.255c-0.132-0.265-0.392-0.43-0.779-0.496c-0.614-0.133-1.127-0.015-1.538,0.354
		c-0.411,0.368-0.716,0.846-0.915,1.431c-0.038,0.123-0.111,0.438-0.22,0.943c-0.108,0.505-0.224,1.062-0.347,1.672
		c-0.123,0.609-0.208,1.014-0.255,1.212c-0.01,0.038-0.021,0.09-0.036,0.156s-0.026,0.113-0.035,0.142
		c0,0.038-0.005,0.066-0.014,0.085c-0.01,0.019-0.028,0.033-0.057,0.042c-0.028,0.01-0.05,0.015-0.064,0.015s-0.042,0-0.085,0
		s-0.069,0-0.078,0h-0.638l0.893-4.195c0.009-0.047,0.028-0.135,0.057-0.262c0.028-0.128,0.047-0.225,0.057-0.291
		c0.009-0.066,0.019-0.153,0.028-0.262c0.009-0.109,0.004-0.206-0.014-0.291c-0.019-0.085-0.047-0.17-0.085-0.255
		c-0.133-0.265-0.393-0.43-0.78-0.496c-0.614-0.133-1.126-0.015-1.538,0.354c-0.411,0.368-0.716,0.846-0.914,1.431
		c-0.038,0.123-0.111,0.438-0.22,0.943c-0.109,0.505-0.225,1.062-0.347,1.672c-0.123,0.609-0.208,1.014-0.255,1.212
		c-0.009,0.028-0.021,0.076-0.036,0.142c-0.014,0.066-0.026,0.118-0.035,0.156c0,0.038-0.005,0.066-0.014,0.085
		c-0.01,0.019-0.028,0.033-0.057,0.042c-0.028,0.01-0.05,0.015-0.064,0.015s-0.042,0-0.085,0s-0.069,0-0.078,0h-0.638l1.417-6.689
		h0.864l-0.283,1.389H165.833z"/>
</g>
<g>
	<path d="M175.345,53.499c-0.04-0.033-0.091-0.089-0.154-0.169c-0.063-0.079-0.101-0.125-0.114-0.139
		c-0.073-0.086-0.109-0.139-0.109-0.158c-0.013-0.033,0-0.097,0.04-0.188c0.125-0.351,0.311-0.648,0.556-0.894
		c0.397-0.37,0.898-0.556,1.503-0.556c0.605,0,1.116,0.176,1.533,0.526c0.337,0.277,0.555,0.64,0.655,1.086
		c0.099,0.446,0.049,0.868-0.149,1.265c-0.073,0.133-0.152,0.259-0.238,0.378c-0.086,0.118-0.202,0.244-0.347,0.377
		c-0.146,0.132-0.251,0.227-0.317,0.282c-0.066,0.057-0.202,0.164-0.407,0.322c-0.205,0.159-0.321,0.248-0.347,0.269
		c-0.225,0.178-0.536,0.444-0.933,0.798c-0.397,0.354-0.688,0.607-0.873,0.76h3.661v0.585h-4.266v-0.367
		c0-0.093,0.005-0.15,0.015-0.174c0.01-0.022,0.038-0.058,0.084-0.104c0.146-0.126,0.409-0.362,0.789-0.71
		c0.38-0.347,0.656-0.59,0.828-0.729c0.04-0.033,0.137-0.111,0.293-0.233c0.155-0.122,0.27-0.215,0.342-0.278
		c0.073-0.062,0.178-0.156,0.317-0.282c0.139-0.126,0.248-0.238,0.327-0.338c0.08-0.099,0.166-0.213,0.258-0.342
		c0.092-0.129,0.164-0.262,0.213-0.396c0.049-0.136,0.084-0.273,0.104-0.412c0.046-0.377-0.023-0.711-0.208-1.002
		c-0.284-0.424-0.731-0.658-1.339-0.704c-0.291-0.021-0.542,0.013-0.754,0.099C175.871,52.256,175.55,52.731,175.345,53.499z"/>
</g>
<g>
	<path d="M175.611,61.643l0.099-0.109c0.073-0.072,0.129-0.126,0.169-0.159c0.172-0.151,0.387-0.277,0.645-0.377
		c0.258-0.099,0.52-0.139,0.784-0.118c0.304,0.026,0.575,0.148,0.813,0.366c0.238,0.219,0.426,0.483,0.565,0.794
		c0.192,0.424,0.273,0.895,0.243,1.414s-0.17,0.971-0.422,1.354c-0.205,0.311-0.47,0.552-0.793,0.724
		c-0.324,0.172-0.662,0.229-1.012,0.169c-0.39-0.066-0.748-0.308-1.071-0.725v2.322h-0.675v-6.34h0.655V61.643z M176.633,61.424
		c-0.311,0.033-0.579,0.162-0.804,0.388c-0.086,0.086-0.141,0.15-0.164,0.193c-0.023,0.043-0.035,0.12-0.035,0.232v1.975
		c0,0.186,0.006,0.291,0.02,0.317c0.126,0.291,0.326,0.489,0.601,0.596c0.274,0.105,0.567,0.099,0.878-0.021
		c0.463-0.178,0.79-0.517,0.982-1.017c0.192-0.499,0.208-0.99,0.05-1.474c-0.099-0.304-0.258-0.566-0.476-0.788
		s-0.477-0.353-0.774-0.393C176.852,61.428,176.759,61.424,176.633,61.424z"/>
</g>
<g>
	<path d="M182.79,65.851c-0.215,0.215-0.244,0.215-0.445,0.215c-0.172,0-0.301,0-0.301-0.144c0-0.043,0.029-0.086,0.058-0.129
		c0.602-0.603,1.793-1.793,2.926-3.829c2.367-4.274,2.883-9.252,2.883-13.11c0-5.521-1.047-10.184-3.356-13.884
		c-0.961-1.549-1.922-2.51-2.424-3.026c-0.028-0.029-0.086-0.086-0.086-0.144c0-0.144,0.129-0.144,0.301-0.144
		c0.201,0,0.229,0,0.402,0.172c0.588,0.517,1.133,1.104,1.42,1.435c3.643,4.289,4.934,9.969,4.934,15.605
		C189.101,54.906,187.595,61.476,182.79,65.851z"/>
</g>
<g>
	<path d="M193.026,30.127c-0.205-0.271-0.308-0.423-0.308-0.457c0-0.033,0.062-0.129,0.188-0.288
		c0.218-0.251,0.496-0.463,0.833-0.635c0.317-0.152,0.656-0.233,1.017-0.243c0.36-0.01,0.703,0.058,1.027,0.203
		c0.509,0.251,0.807,0.599,0.893,1.042c0.066,0.39-0.02,0.767-0.258,1.131c-0.159,0.231-0.357,0.423-0.596,0.575
		c-0.026,0.02-0.079,0.05-0.159,0.089c-0.079,0.04-0.139,0.073-0.178,0.1c0.145,0.02,0.333,0.092,0.565,0.218
		c0.344,0.192,0.605,0.459,0.784,0.803c0.132,0.298,0.179,0.597,0.139,0.898c-0.04,0.301-0.152,0.584-0.337,0.848
		c-0.046,0.066-0.126,0.156-0.238,0.268c-0.311,0.304-0.694,0.496-1.151,0.576c-0.457,0.079-0.886,0.049-1.29-0.089
		c-0.51-0.152-0.946-0.437-1.31-0.854c-0.053-0.066-0.082-0.107-0.084-0.124c-0.003-0.016,0.001-0.064,0.015-0.144
		c0.033-0.212,0.06-0.337,0.08-0.377c0.502,0.661,1.157,1.021,1.964,1.081c0.489,0.046,0.89-0.066,1.2-0.337
		c0.271-0.225,0.427-0.531,0.466-0.917c0.04-0.387-0.043-0.723-0.248-1.007c-0.172-0.238-0.407-0.407-0.704-0.506
		c-0.166-0.053-0.417-0.079-0.754-0.079h-0.705v-0.526c0.06,0,0.146-0.005,0.258-0.015c0.112-0.01,0.195-0.018,0.248-0.024
		c0.258-0.013,0.47-0.046,0.635-0.1c0.284-0.092,0.522-0.254,0.714-0.486c0.191-0.231,0.288-0.489,0.288-0.774
		c0-0.542-0.341-0.853-1.022-0.933c-0.615-0.066-1.147,0.126-1.597,0.576c-0.126,0.125-0.248,0.294-0.367,0.506H193.026z"/>
</g>
<g>
	<path d="M201.715,27.716c0.125-0.033,0.208,0.017,0.248,0.149c0.013,0.046,0.006,0.103-0.02,0.169
		c-0.006,0.02-0.278,0.728-0.813,2.123s-1.082,2.822-1.637,4.281c-0.556,1.458-0.863,2.264-0.923,2.416l-0.099,0.258
		c-0.053,0.146-0.126,0.225-0.218,0.238c-0.073,0-0.126-0.017-0.159-0.05c-0.08-0.06-0.08-0.198,0-0.417l0.615-1.598l2.719-7.113
		l0.089-0.218C201.57,27.815,201.636,27.736,201.715,27.716z"/>
</g>
<g>
	<path d="M203.39,30.603c-0.04-0.033-0.091-0.089-0.154-0.168c-0.063-0.08-0.101-0.126-0.114-0.139
		c-0.073-0.086-0.109-0.139-0.109-0.159c-0.013-0.033,0-0.096,0.04-0.188c0.125-0.351,0.311-0.648,0.556-0.893
		c0.397-0.37,0.898-0.555,1.503-0.555c0.605,0,1.116,0.175,1.533,0.525c0.337,0.278,0.555,0.64,0.655,1.086
		c0.099,0.447,0.049,0.868-0.149,1.265c-0.073,0.132-0.152,0.258-0.238,0.377s-0.202,0.245-0.347,0.377s-0.251,0.227-0.317,0.283
		c-0.066,0.056-0.202,0.164-0.407,0.323c-0.205,0.159-0.321,0.248-0.347,0.268c-0.225,0.179-0.536,0.445-0.933,0.799
		c-0.397,0.354-0.688,0.607-0.873,0.759h3.661v0.585h-4.266V34.78c0-0.092,0.005-0.15,0.015-0.173
		c0.01-0.023,0.038-0.058,0.084-0.104c0.146-0.125,0.409-0.362,0.789-0.709c0.38-0.348,0.656-0.59,0.828-0.729
		c0.04-0.033,0.137-0.111,0.293-0.233c0.155-0.123,0.27-0.215,0.342-0.278s0.178-0.157,0.317-0.283
		c0.139-0.126,0.248-0.238,0.327-0.337c0.08-0.099,0.166-0.213,0.258-0.342c0.092-0.129,0.164-0.261,0.213-0.397
		c0.049-0.135,0.084-0.273,0.104-0.412c0.046-0.377-0.023-0.711-0.208-1.002c-0.284-0.423-0.731-0.658-1.339-0.705
		c-0.291-0.02-0.542,0.013-0.754,0.099C203.916,29.36,203.595,29.836,203.39,30.603z"/>
</g>
<g>
	<path d="M213.915,47.312c0.057-0.123,0.198-0.307,0.425-0.553c0.642-0.709,1.394-1.021,2.253-0.936
		c0.491,0.038,0.855,0.18,1.091,0.426c0.161,0.16,0.265,0.392,0.312,0.694c0,0.028,0.002,0.087,0.007,0.177s0.012,0.158,0.021,0.206
		c0.094-0.161,0.236-0.346,0.425-0.554c0.481-0.528,1.034-0.841,1.658-0.935c0.416-0.057,0.796-0.031,1.141,0.077
		c0.345,0.109,0.588,0.301,0.73,0.574c0.18,0.341,0.189,0.898,0.028,1.673l-0.638,2.962c-0.132,0.699-0.227,1.144-0.284,1.332
		c0,0.104-0.071,0.156-0.212,0.156c-0.028,0-0.047,0-0.057,0h-0.666l0.893-4.195c0.009-0.047,0.028-0.135,0.057-0.262
		c0.028-0.128,0.047-0.225,0.057-0.291c0.009-0.066,0.019-0.153,0.028-0.262c0.009-0.109,0.004-0.206-0.014-0.291
		c-0.019-0.085-0.047-0.17-0.085-0.255c-0.132-0.265-0.392-0.43-0.779-0.496c-0.614-0.133-1.127-0.015-1.538,0.354
		c-0.411,0.368-0.716,0.846-0.915,1.431c-0.038,0.123-0.111,0.438-0.22,0.943c-0.108,0.505-0.224,1.062-0.347,1.672
		c-0.123,0.609-0.208,1.014-0.255,1.212c-0.01,0.038-0.021,0.09-0.036,0.156s-0.026,0.113-0.035,0.142
		c0,0.038-0.005,0.066-0.014,0.085c-0.01,0.019-0.028,0.033-0.057,0.042c-0.028,0.01-0.05,0.015-0.064,0.015s-0.042,0-0.085,0
		s-0.069,0-0.078,0h-0.638l0.893-4.195c0.009-0.047,0.028-0.135,0.057-0.262c0.028-0.128,0.047-0.225,0.057-0.291
		c0.009-0.066,0.019-0.153,0.028-0.262c0.009-0.109,0.004-0.206-0.014-0.291c-0.019-0.085-0.047-0.17-0.085-0.255
		c-0.133-0.265-0.393-0.43-0.78-0.496c-0.614-0.133-1.126-0.015-1.538,0.354c-0.411,0.368-0.716,0.846-0.914,1.431
		c-0.038,0.123-0.111,0.438-0.22,0.943c-0.109,0.505-0.225,1.062-0.347,1.672c-0.123,0.609-0.208,1.014-0.255,1.212
		c-0.009,0.028-0.021,0.076-0.036,0.142c-0.014,0.066-0.026,0.118-0.035,0.156c0,0.038-0.005,0.066-0.014,0.085
		c-0.01,0.019-0.028,0.033-0.057,0.042c-0.028,0.01-0.05,0.015-0.064,0.015s-0.042,0-0.085,0s-0.069,0-0.078,0h-0.638l1.417-6.689
		h0.864l-0.283,1.389H213.915z"/>
</g>
<g>
	<path d="M223.679,50.74l0.099-0.109c0.073-0.072,0.129-0.126,0.169-0.159c0.172-0.151,0.387-0.277,0.645-0.377
		c0.258-0.099,0.52-0.139,0.784-0.118c0.304,0.026,0.575,0.148,0.813,0.366c0.238,0.219,0.426,0.483,0.565,0.794
		c0.192,0.424,0.273,0.895,0.243,1.414s-0.17,0.971-0.422,1.354c-0.205,0.311-0.47,0.552-0.793,0.724
		c-0.324,0.172-0.662,0.229-1.012,0.169c-0.39-0.066-0.748-0.308-1.071-0.725v2.322h-0.675v-6.34h0.655V50.74z M224.701,50.521
		c-0.311,0.033-0.579,0.162-0.804,0.388c-0.086,0.086-0.141,0.15-0.164,0.193c-0.023,0.043-0.035,0.12-0.035,0.232v1.975
		c0,0.186,0.006,0.291,0.02,0.317c0.126,0.291,0.326,0.489,0.601,0.596c0.274,0.105,0.567,0.099,0.878-0.021
		c0.463-0.178,0.79-0.517,0.982-1.017c0.192-0.499,0.208-0.99,0.05-1.474c-0.099-0.304-0.258-0.566-0.476-0.788
		s-0.477-0.353-0.774-0.393C224.919,50.525,224.827,50.521,224.701,50.521z"/>
</g>
</svg>
