<?xml version="1.0" encoding="iso-8859-1"?>
<!-- Generator: Adobe Illustrator 16.0.0, SVG Export Plug-In . SVG Version: 6.00 Build 0)  -->
<!DOCTYPE svg PUBLIC "-//W3C//DTD SVG 1.1//EN" "http://www.w3.org/Graphics/SVG/1.1/DTD/svg11.dtd">
<svg version="1.1" id="Layer_1" xmlns="http://www.w3.org/2000/svg" xmlns:xlink="http://www.w3.org/1999/xlink" x="0px" y="0px"
	 width="566.929px" height="85.039px" viewBox="0 0 566.929 85.039" style="enable-background:new 0 0 566.929 85.039;"
	 xml:space="preserve">
<g>
	<path d="M28.38,42.715h2.834h0.879c1.219,0.076,2.112,0.463,2.679,1.163c0.094,0.132,0.179,0.283,0.255,0.453
		c0.265,0.69,0.127,1.366-0.411,2.027c-0.454,0.558-1.082,0.982-1.885,1.275c-0.359,0.132-0.662,0.218-0.907,0.255l2.168,4.663
		c-0.52,0-0.846-0.01-0.978-0.028c-0.227-0.416-0.52-1.03-0.878-1.843c-0.359-0.812-0.605-1.351-0.737-1.615
		c-0.246-0.548-0.406-0.894-0.482-1.035c-0.094-0.028-0.326-0.042-0.694-0.042h-1.984l-0.935,4.436l-0.043,0.1
		c-0.123,0.019-0.444,0.028-0.963,0.028L28.38,42.715z M28.394,47.279h1.913h0.751c0.746-0.047,1.36-0.185,1.842-0.411
		c0.416-0.198,0.753-0.486,1.013-0.864s0.352-0.774,0.276-1.19c-0.113-0.463-0.392-0.809-0.836-1.035
		c-0.435-0.207-1.11-0.312-2.027-0.312h-2.126L28.394,47.279z"/>
</g>
<g>
	<path d="M36.154,53.418c0.02,0.013,0.06,0.046,0.119,0.099c0.06,0.054,0.105,0.09,0.139,0.109c0.403,0.317,0.888,0.515,1.454,0.591
		s1.113-0.021,1.642-0.293c0.331-0.191,0.58-0.446,0.749-0.764c0.168-0.317,0.173-0.639,0.015-0.963
		c-0.132-0.251-0.357-0.439-0.674-0.565c-0.073-0.033-0.364-0.109-0.873-0.229c-0.483-0.099-0.87-0.241-1.161-0.426
		c-0.291-0.186-0.486-0.463-0.585-0.834c-0.086-0.351-0.04-0.696,0.139-1.036c0.179-0.341,0.43-0.631,0.754-0.868
		c0.536-0.384,1.157-0.584,1.865-0.601c0.708-0.017,1.339,0.147,1.895,0.491l-0.278,0.724c-0.026-0.02-0.064-0.051-0.114-0.094
		c-0.049-0.043-0.087-0.074-0.114-0.095c-0.344-0.258-0.768-0.406-1.27-0.446c-0.516-0.039-0.992,0.06-1.429,0.298
		c-0.265,0.139-0.479,0.334-0.645,0.585c-0.165,0.252-0.208,0.51-0.129,0.774c0.046,0.172,0.146,0.317,0.298,0.437
		c0.152,0.119,0.289,0.198,0.412,0.238c0.122,0.039,0.296,0.086,0.521,0.139l0.585,0.148c0.549,0.126,0.959,0.341,1.23,0.646
		c0.146,0.165,0.248,0.37,0.308,0.615c0.06,0.244,0.06,0.499,0,0.764c-0.139,0.529-0.446,0.972-0.923,1.329
		c-0.476,0.357-0.999,0.565-1.567,0.625c-0.794,0.073-1.551-0.079-2.272-0.456c-0.099-0.046-0.185-0.096-0.258-0.148
		c-0.053-0.04-0.083-0.066-0.089-0.08c-0.007-0.02-0.007-0.041,0-0.064c0.006-0.022,0.016-0.05,0.03-0.079
		c0.013-0.03,0.023-0.051,0.03-0.064C36.042,53.679,36.107,53.511,36.154,53.418z"/>
</g>
<g>
	<path d="M47.363,50.043c0.057-0.094,0.198-0.142,0.425-0.142h8.093h0.595c0.123,0.02,0.208,0.083,0.255,0.191
		s0.023,0.205-0.071,0.29c-0.057,0.058-0.156,0.086-0.297,0.086h-8.575c-0.142,0-0.227-0.005-0.255-0.015
		c-0.085-0.019-0.146-0.073-0.184-0.163C47.311,50.201,47.316,50.119,47.363,50.043z M47.533,47.166
		c0.019-0.01,0.099-0.015,0.241-0.015h8.122l0.297-0.014c0.199,0,0.298,0.005,0.298,0.014c0.113,0.02,0.191,0.085,0.234,0.199
		c0.042,0.113,0.021,0.208-0.064,0.283c-0.057,0.057-0.161,0.085-0.312,0.085h-8.519c-0.151,0-0.241-0.005-0.269-0.015
		c-0.151-0.028-0.229-0.115-0.234-0.262S47.392,47.204,47.533,47.166z"/>
</g>
<g>
	<path d="M63.831,36.262c-0.038-0.038-0.161-0.185-0.369-0.439c-0.094-0.123-0.142-0.193-0.142-0.212s0.028-0.118,0.085-0.298
		c0.189-0.539,0.468-0.992,0.836-1.361c0.558-0.5,1.247-0.744,2.069-0.729c0.822,0.014,1.517,0.267,2.083,0.758
		c0.482,0.416,0.789,0.94,0.921,1.573c0.132,0.633,0.057,1.233-0.227,1.8c-0.066,0.132-0.142,0.262-0.227,0.39
		c-0.085,0.127-0.187,0.258-0.305,0.39c-0.119,0.132-0.215,0.241-0.291,0.326c-0.076,0.085-0.196,0.198-0.362,0.34
		c-0.165,0.142-0.279,0.238-0.34,0.291c-0.062,0.052-0.189,0.156-0.383,0.312c-0.194,0.156-0.31,0.248-0.347,0.276
		c-0.142,0.104-0.555,0.461-1.24,1.07s-1.136,1.018-1.354,1.226h5.131v0.793H63.42v-0.496c0-0.123,0.007-0.201,0.021-0.234
		c0.014-0.033,0.054-0.083,0.121-0.149l0.241-0.227l1.956-1.8c0.057-0.047,0.201-0.168,0.432-0.362
		c0.231-0.193,0.399-0.335,0.503-0.425c0.104-0.09,0.257-0.231,0.46-0.425s0.356-0.364,0.46-0.51s0.222-0.316,0.354-0.51
		s0.234-0.392,0.305-0.595s0.121-0.409,0.149-0.617c0.047-0.576-0.076-1.072-0.369-1.488c-0.406-0.557-1.011-0.869-1.814-0.936
		c-0.378-0.028-0.718,0.014-1.021,0.128C64.54,34.424,64.077,35.137,63.831,36.262z"/>
</g>
<g>
	<path d="M73.653,32.931h1.304l1.502,7.795l0.142,0.893h0.014c0.047-0.104,0.387-0.673,1.021-1.708
		c0.633-1.035,1.401-2.277,2.303-3.728c0.902-1.45,1.41-2.27,1.523-2.459l0.326-0.51c0.066-0.132,0.123-0.217,0.17-0.255
		c0.028-0.019,0.146-0.029,0.354-0.029h0.95l-1.587,7.541c-0.227,1.04-0.378,1.743-0.454,2.112l-0.057,0.156
		c-0.113,0.019-0.402,0.028-0.865,0.028l1.899-8.929h-0.014l-0.496,0.851l-4.72,7.639l-0.127,0.17
		c-0.114,0.019-0.397,0.029-0.851,0.029c-0.047-0.246-0.288-1.46-0.723-3.643c-0.435-2.183-0.737-3.865-0.907-5.046h-0.014
		l-1.857,8.745l-0.057,0.156c-0.113,0.019-0.401,0.028-0.864,0.028L73.653,32.931z"/>
	<path d="M92.617,38.104l-0.794,3.742c-0.009,0.019-0.017,0.055-0.021,0.106c-0.005,0.052-0.012,0.097-0.021,0.135
		s-0.023,0.066-0.042,0.085c-0.113,0.113-0.657,0.293-1.63,0.539c-1.672,0.369-2.996,0.161-3.968-0.624
		c-0.501-0.425-0.851-0.917-1.049-1.474c-0.397-0.992-0.411-2.079-0.043-3.26c0.321-1.049,0.881-1.977,1.68-2.785
		c0.798-0.808,1.722-1.344,2.771-1.608c0.945-0.236,1.899-0.208,2.863,0.085c0.321,0.094,0.69,0.25,1.105,0.468l-0.382,0.992
		c-0.52-0.368-0.803-0.562-0.851-0.581c-0.312-0.151-0.685-0.255-1.12-0.312s-0.87-0.047-1.304,0.028
		c-0.954,0.189-1.783,0.685-2.487,1.488s-1.174,1.706-1.41,2.707c-0.236,1.077-0.142,2.012,0.284,2.806
		c0.227,0.425,0.505,0.751,0.836,0.978c0.822,0.604,2.018,0.68,3.586,0.227c0.189-0.057,0.298-0.108,0.326-0.156
		c0-0.009,0.151-0.718,0.453-2.126c0.057-0.321,0.109-0.558,0.156-0.708h-2.225c0.057-0.34,0.113-0.581,0.17-0.723l0.227-0.028
		H92.617z"/>
</g>
<g>
	<rect x="62.683" y="48.525" width="31.627" height="0.574"/>
</g>
<g>
	<path d="M78.102,60.49c-0.009,0.037-0.021,0.122-0.035,0.255c-0.014,0.132-0.028,0.25-0.042,0.354
		c-0.014,0.104-0.026,0.165-0.036,0.184c-0.019,0.02-0.109,0.085-0.27,0.198c-0.368,0.236-0.772,0.421-1.211,0.553
		c-0.439,0.133-0.917,0.175-1.432,0.128c-0.515-0.047-0.952-0.231-1.311-0.553c-0.331-0.302-0.565-0.688-0.702-1.155
		c-0.137-0.468-0.168-0.961-0.092-1.48c0.113-0.784,0.427-1.508,0.942-2.169c0.515-0.661,1.136-1.129,1.864-1.403
		c0.312-0.113,0.702-0.175,1.169-0.184c0.467-0.01,0.872,0.042,1.211,0.155c0.217,0.066,0.524,0.213,0.921,0.439l-0.298,0.779
		c-0.435-0.264-0.666-0.406-0.694-0.425c-0.293-0.123-0.628-0.198-1.006-0.227s-0.742,0.009-1.091,0.113
		c-0.586,0.188-1.056,0.558-1.41,1.105s-0.588,1.157-0.702,1.828c-0.076,0.473-0.052,0.921,0.071,1.347
		c0.123,0.425,0.369,0.737,0.737,0.936c0.472,0.236,1.063,0.26,1.771,0.07c0.387-0.094,0.78-0.269,1.176-0.524
		c0.047-0.028,0.121-0.08,0.22-0.155C77.953,60.584,78.036,60.527,78.102,60.49z"/>
</g>
<g>
	<path d="M80.353,53.439c-0.04-0.033-0.091-0.089-0.154-0.169c-0.063-0.079-0.101-0.125-0.114-0.139
		c-0.073-0.086-0.109-0.139-0.109-0.158c-0.013-0.033,0-0.097,0.04-0.188c0.125-0.351,0.311-0.648,0.556-0.894
		c0.397-0.37,0.898-0.556,1.503-0.556c0.605,0,1.116,0.176,1.533,0.526c0.337,0.277,0.555,0.64,0.655,1.086
		c0.099,0.446,0.049,0.868-0.149,1.265c-0.073,0.133-0.152,0.259-0.238,0.378c-0.086,0.118-0.202,0.244-0.347,0.377
		c-0.146,0.132-0.251,0.227-0.317,0.282c-0.066,0.057-0.202,0.164-0.407,0.322c-0.205,0.159-0.321,0.248-0.347,0.269
		c-0.225,0.178-0.536,0.444-0.933,0.798c-0.397,0.354-0.688,0.607-0.873,0.76h3.661v0.585h-4.266v-0.367
		c0-0.093,0.005-0.15,0.015-0.174c0.01-0.022,0.038-0.058,0.084-0.104c0.146-0.126,0.409-0.362,0.789-0.71
		c0.38-0.347,0.656-0.59,0.828-0.729c0.04-0.033,0.137-0.111,0.293-0.233c0.155-0.122,0.27-0.215,0.342-0.278
		c0.073-0.062,0.178-0.156,0.317-0.282c0.139-0.126,0.248-0.238,0.327-0.338c0.08-0.099,0.166-0.213,0.258-0.342
		c0.092-0.129,0.164-0.262,0.213-0.396c0.049-0.136,0.084-0.273,0.104-0.412c0.046-0.377-0.023-0.711-0.208-1.002
		c-0.284-0.424-0.731-0.658-1.339-0.704c-0.291-0.021-0.542,0.013-0.754,0.099C80.879,52.196,80.558,52.672,80.353,53.439z"/>
</g>
</svg>
