<?xml version="1.0" encoding="iso-8859-1"?>
<!-- Generator: Adobe Illustrator 16.0.0, SVG Export Plug-In . SVG Version: 6.00 Build 0)  -->
<!DOCTYPE svg PUBLIC "-//W3C//DTD SVG 1.1//EN" "http://www.w3.org/Graphics/SVG/1.1/DTD/svg11.dtd">
<svg version="1.1" id="Layer_1" xmlns="http://www.w3.org/2000/svg" xmlns:xlink="http://www.w3.org/1999/xlink" x="0px" y="0px"
	 width="566.929px" height="85.039px" viewBox="0 0 566.929 85.039" style="enable-background:new 0 0 566.929 85.039;"
	 xml:space="preserve">
<g>
	<path d="M30.939,40.911h0.893v0.893h-0.893V40.911z"/>
</g>
<g>
	<path d="M28.38,43.38h2.792c0.756,0,1.209,0.009,1.36,0.028c1.313,0.208,2.098,0.827,2.353,1.856
		c0.132,0.576,0.042,1.134-0.27,1.673c-0.312,0.538-0.737,0.982-1.275,1.332c-0.643,0.425-1.384,0.676-2.225,0.751
		c0,0.02-0.189,0.023-0.567,0.015l-0.581-0.015h-1.602c-0.085,0-0.137,0.01-0.156,0.028c-0.028,0.02-0.057,0.108-0.085,0.27
		l-0.17,0.779l-0.609,2.877c-0.028,0.133-0.052,0.203-0.071,0.213c-0.019,0.019-0.108,0.028-0.269,0.028h-0.708L28.38,43.38z
		 M28.323,48.298h1.871h0.723c1.011-0.047,1.786-0.326,2.325-0.836c0.5-0.473,0.751-1.025,0.751-1.658
		c0-0.614-0.26-1.059-0.779-1.333c-0.407-0.227-1.068-0.34-1.984-0.34h-2.027L28.323,48.298z"/>
</g>
<g>
	<path d="M35.598,48.456h0.655c-0.073,0.371-0.18,0.89-0.322,1.558c-0.143,0.669-0.237,1.108-0.283,1.32
		c0.04-0.026,0.092-0.069,0.159-0.129c0.066-0.06,0.115-0.103,0.148-0.13c0.225-0.158,0.496-0.292,0.814-0.401
		c0.317-0.109,0.618-0.131,0.903-0.064c0.331,0.086,0.582,0.286,0.754,0.601c0.172,0.313,0.261,0.656,0.268,1.026
		c0.007,0.582-0.127,1.136-0.402,1.662c-0.274,0.525-0.656,0.935-1.146,1.225c-0.285,0.166-0.576,0.264-0.873,0.293
		c-0.298,0.03-0.592-0.041-0.883-0.213c-0.218-0.139-0.36-0.317-0.426-0.536h-0.01c-0.013,0.047-0.028,0.116-0.044,0.209
		c-0.017,0.092-0.033,0.175-0.05,0.247c-0.017,0.073-0.035,0.14-0.055,0.199c-0.086,0.013-0.307,0.02-0.665,0.02L35.598,48.456z
		 M37.662,51.394c-0.297-0.219-0.613-0.312-0.947-0.278s-0.633,0.162-0.898,0.387c-0.026,0.026-0.058,0.057-0.094,0.09
		c-0.037,0.033-0.061,0.056-0.074,0.069c-0.014,0.014-0.028,0.033-0.045,0.06s-0.03,0.056-0.04,0.089s-0.019,0.073-0.025,0.119
		l-0.06,0.288l-0.347,1.637c0,0.014-0.012,0.063-0.035,0.148c-0.023,0.087-0.035,0.149-0.035,0.189
		c0.013,0.146,0.076,0.28,0.188,0.406c0.125,0.159,0.301,0.253,0.526,0.283c0.225,0.029,0.438,0.013,0.64-0.05
		s0.382-0.145,0.541-0.243c0.549-0.344,0.889-0.942,1.021-1.796C38.085,52.15,37.979,51.685,37.662,51.394z"/>
	<path d="M39.904,54.548h0.793c0,0.364-0.003,0.632-0.01,0.804c-0.02,0.053-0.078,0.212-0.174,0.477
		c-0.096,0.265-0.167,0.47-0.213,0.615h-0.407l0.258-1.102h-0.248V54.548z"/>
</g>
<g>
	<path d="M48.213,52.078v2.738c0,0.046-0.003,0.079-0.01,0.099c-0.014,0.04-0.123,0.096-0.328,0.169
		c-0.205,0.072-0.367,0.122-0.486,0.148c-1.071,0.284-1.984,0.252-2.738-0.099c-0.734-0.338-1.273-0.863-1.617-1.578
		c-0.292-0.582-0.418-1.207-0.382-1.875c0.037-0.668,0.236-1.273,0.601-1.815c0.191-0.277,0.374-0.489,0.545-0.635
		c0.628-0.569,1.336-0.854,2.123-0.854c0.463,0,0.848,0.038,1.156,0.114s0.657,0.2,1.047,0.372l-0.129,0.725
		c-0.026-0.014-0.064-0.037-0.114-0.07c-0.049-0.032-0.084-0.056-0.104-0.069c-0.417-0.284-0.942-0.452-1.578-0.506
		c-0.423-0.039-0.818,0.025-1.186,0.193c-0.367,0.169-0.673,0.396-0.917,0.68c-0.51,0.582-0.759,1.288-0.749,2.118
		c0.01,0.83,0.276,1.53,0.798,2.099c0.41,0.437,0.867,0.698,1.369,0.784c0.516,0.105,1.134,0.053,1.855-0.159
		c0.099-0.04,0.152-0.066,0.159-0.079c0.006-0.021,0.01-0.083,0.01-0.188v-1.756h-1.577v-0.556H48.213z"/>
	<path d="M49.959,48.456h1.915c0.529,0,0.87,0.007,1.022,0.021c0.483,0.053,0.929,0.198,1.339,0.437s0.694,0.546,0.854,0.923
		c0.165,0.437,0.125,0.833-0.119,1.19c-0.245,0.356-0.582,0.635-1.012,0.833c-0.271,0.1-0.519,0.176-0.744,0.229l2.262,3.254h-0.466
		c-0.132,0-0.205-0.003-0.218-0.01c-0.046-0.026-0.103-0.1-0.168-0.219l-0.437-0.635c-0.292-0.423-0.59-0.858-0.898-1.305
		s-0.478-0.692-0.511-0.739c-0.086-0.139-0.146-0.222-0.178-0.248c-0.027-0.02-0.083-0.029-0.169-0.029h-1.796v3.185h-0.674V48.456z
		 M50.634,51.631h1.499c0.655,0,1.137-0.056,1.448-0.168c0.225-0.086,0.397-0.182,0.516-0.288c0.291-0.238,0.437-0.522,0.437-0.854
		c0-0.271-0.093-0.506-0.278-0.704c-0.186-0.198-0.417-0.344-0.695-0.437c-0.317-0.112-0.81-0.169-1.478-0.169h-1.449V51.631z"/>
</g>
<g>
	<path d="M61.05,50.707c0.057-0.094,0.198-0.142,0.425-0.142h8.093h0.595c0.123,0.02,0.208,0.083,0.255,0.191
		s0.023,0.205-0.071,0.29c-0.057,0.058-0.156,0.086-0.297,0.086h-8.575c-0.142,0-0.227-0.005-0.255-0.015
		c-0.085-0.019-0.146-0.073-0.184-0.163C60.998,50.865,61.003,50.783,61.05,50.707z M61.22,47.83
		c0.019-0.01,0.099-0.015,0.241-0.015h8.122l0.297-0.014c0.199,0,0.298,0.005,0.298,0.014c0.113,0.02,0.191,0.085,0.234,0.199
		c0.042,0.113,0.021,0.208-0.064,0.283c-0.057,0.057-0.161,0.085-0.312,0.085h-8.519c-0.151,0-0.241-0.005-0.269-0.015
		c-0.151-0.028-0.229-0.115-0.234-0.262S61.079,47.868,61.22,47.83z"/>
</g>
<g>
	<path d="M76.564,49.205c0.019-0.01,0.094-0.015,0.227-0.015h7.441h0.539c0.113,0.02,0.187,0.085,0.22,0.198
		c0.033,0.114,0.012,0.208-0.064,0.284c-0.028,0.028-0.071,0.052-0.127,0.07c-0.057,0.02-0.106,0.028-0.149,0.028
		s-0.099-0.002-0.17-0.007s-0.116-0.007-0.135-0.007h-7.54c-0.142,0-0.222-0.005-0.241-0.015c-0.142-0.037-0.21-0.125-0.206-0.262
		C76.363,49.345,76.431,49.252,76.564,49.205z"/>
</g>
<g>
	<path d="M88.882,34.828c0.945,0,1.715-0.217,2.31-0.652c0.047-0.028,0.09-0.062,0.127-0.1c0.038-0.038,0.066-0.066,0.085-0.085
		c0.019-0.019,0.042-0.038,0.071-0.057c0.028-0.019,0.063-0.03,0.106-0.035s0.097-0.007,0.163-0.007v8.83h1.857v0.708h-4.635v-0.708
		h1.856v-7.597c-0.633,0.274-1.28,0.411-1.941,0.411V34.828z"/>
	<path d="M100.547,38.796c-0.057,0.18-0.204,0.416-0.439,0.709c-0.558,0.661-1.252,1.001-2.083,1.021
		c-0.312,0-0.562-0.033-0.751-0.1c-0.435-0.16-0.832-0.548-1.191-1.162c-0.321-0.567-0.482-1.238-0.482-2.013
		c0-0.756,0.161-1.379,0.482-1.871c0.34-0.548,0.77-0.954,1.29-1.219c0.652-0.274,1.247-0.343,1.786-0.206
		c0.539,0.137,0.978,0.413,1.318,0.829c0.604,0.718,0.94,1.856,1.006,3.416c0.075,1.398-0.17,2.594-0.737,3.586
		c-0.576,1.001-1.313,1.606-2.211,1.814c-0.945,0.208-1.819,0.015-2.622-0.581l0.369-0.652c0.652,0.454,1.261,0.638,1.828,0.553
		c0.425-0.028,0.803-0.175,1.134-0.439c0.879-0.652,1.318-1.88,1.318-3.685H100.547z M98.421,34.601
		c-0.624,0.076-1.077,0.303-1.361,0.681c-0.35,0.378-0.524,1.04-0.524,1.984c0,0.416,0.014,0.728,0.042,0.936
		c0.047,0.284,0.154,0.558,0.319,0.822c0.166,0.265,0.362,0.458,0.588,0.581c0.284,0.17,0.675,0.241,1.176,0.212
		c0.425-0.028,0.803-0.208,1.134-0.539c0.473-0.472,0.718-1.072,0.737-1.8c0-0.397-0.057-0.812-0.17-1.248
		c-0.085-0.359-0.203-0.652-0.354-0.878C99.64,34.804,99.11,34.554,98.421,34.601z"/>
	<path d="M103.424,36.925c-0.038-0.038-0.161-0.185-0.369-0.439c-0.094-0.123-0.142-0.193-0.142-0.212s0.028-0.118,0.085-0.298
		c0.189-0.539,0.468-0.992,0.836-1.361c0.558-0.5,1.247-0.744,2.069-0.729c0.822,0.014,1.517,0.267,2.083,0.758
		c0.482,0.416,0.789,0.94,0.921,1.573c0.132,0.633,0.057,1.233-0.227,1.8c-0.066,0.132-0.142,0.262-0.227,0.39
		c-0.085,0.127-0.187,0.258-0.305,0.39c-0.119,0.132-0.215,0.241-0.291,0.326c-0.076,0.085-0.196,0.198-0.362,0.34
		c-0.165,0.142-0.279,0.238-0.34,0.291c-0.062,0.052-0.189,0.156-0.383,0.312c-0.194,0.156-0.31,0.248-0.347,0.276
		c-0.142,0.104-0.555,0.461-1.24,1.07s-1.136,1.018-1.354,1.226h5.131v0.793h-5.953v-0.496c0-0.123,0.007-0.201,0.021-0.234
		c0.014-0.033,0.054-0.083,0.121-0.149l0.241-0.227l1.956-1.8c0.057-0.047,0.201-0.168,0.432-0.362
		c0.231-0.193,0.399-0.335,0.503-0.425c0.104-0.09,0.257-0.231,0.46-0.425s0.356-0.364,0.46-0.51s0.222-0.316,0.354-0.51
		s0.234-0.392,0.305-0.595s0.121-0.409,0.149-0.617c0.047-0.576-0.076-1.072-0.369-1.488c-0.406-0.557-1.011-0.869-1.814-0.936
		c-0.378-0.028-0.718,0.014-1.021,0.128C104.132,35.087,103.669,35.801,103.424,36.925z"/>
</g>
<g>
	<path d="M110.114,38.881c0.038-0.113,0.198-0.387,0.482-0.822c0.444-0.624,0.93-1.025,1.459-1.205
		c0.104-0.038,0.225-0.066,0.362-0.085c0.137-0.019,0.246-0.03,0.326-0.035s0.21-0.005,0.39,0c0.18,0.005,0.293,0.007,0.34,0.007
		h4.323c0.312,0,0.496,0.066,0.553,0.199c0.019,0.057,0.028,0.094,0.028,0.113c0.009,0.113-0.023,0.222-0.099,0.326
		s-0.17,0.17-0.283,0.198c-0.066,0.019-0.218,0.028-0.454,0.028h-1.162c-0.076,0-0.128,0.019-0.156,0.057
		c-0.009,0.019-0.028,0.109-0.057,0.27s-0.057,0.331-0.085,0.51c-0.028,0.179-0.047,0.283-0.057,0.312
		c-0.246,1.663-0.194,2.939,0.156,3.827c0.009,0.019,0.028,0.064,0.057,0.135s0.045,0.121,0.05,0.149
		c0.004,0.028,0.012,0.071,0.021,0.127s0.007,0.106-0.007,0.149c-0.014,0.042-0.036,0.087-0.064,0.135
		c-0.094,0.132-0.22,0.219-0.375,0.262c-0.156,0.042-0.291-0.003-0.404-0.135c-0.123-0.16-0.255-0.572-0.397-1.233
		c-0.198-1.096-0.142-2.461,0.17-4.096c0.038-0.208,0.071-0.364,0.1-0.468h-1.163c-0.293,1.795-0.803,3.6-1.53,5.414
		c-0.066,0.17-0.142,0.298-0.227,0.383c-0.095,0.085-0.201,0.132-0.319,0.142s-0.225-0.023-0.319-0.099
		c-0.104-0.104-0.123-0.256-0.057-0.454l0.397-1.021c0.312-0.878,0.694-2.333,1.148-4.365h-0.524c-0.35,0-0.605,0.047-0.766,0.142
		c-0.302,0.161-0.59,0.482-0.864,0.964c-0.057,0.085-0.095,0.132-0.114,0.142c-0.028,0.019-0.113,0.028-0.255,0.028H110.114z"/>
	<path d="M127.759,38.768l-0.794,3.742c-0.009,0.019-0.017,0.055-0.021,0.106c-0.005,0.052-0.012,0.097-0.021,0.135
		s-0.023,0.066-0.042,0.085c-0.113,0.113-0.657,0.293-1.63,0.539c-1.672,0.368-2.996,0.16-3.968-0.624
		c-0.501-0.425-0.851-0.917-1.049-1.474c-0.397-0.992-0.411-2.079-0.043-3.26c0.321-1.049,0.881-1.977,1.68-2.785
		c0.798-0.808,1.722-1.344,2.771-1.608c0.945-0.236,1.899-0.208,2.863,0.085c0.321,0.094,0.69,0.25,1.105,0.468l-0.382,0.992
		c-0.52-0.368-0.803-0.562-0.851-0.581c-0.312-0.151-0.685-0.255-1.12-0.312s-0.87-0.047-1.304,0.028
		c-0.954,0.189-1.783,0.685-2.487,1.488s-1.174,1.706-1.41,2.707c-0.236,1.077-0.142,2.012,0.284,2.806
		c0.227,0.425,0.505,0.751,0.836,0.978c0.822,0.604,2.018,0.68,3.586,0.227c0.189-0.057,0.298-0.108,0.326-0.156
		c0-0.009,0.151-0.718,0.453-2.126c0.057-0.321,0.109-0.558,0.156-0.708h-2.225c0.057-0.34,0.113-0.581,0.17-0.723l0.227-0.028
		H127.759z"/>
</g>
<g>
	<path d="M130.385,31.799h3.522v0.555h-2.877v2.252c0.463-0.357,0.966-0.513,1.508-0.466c0.39,0.06,0.73,0.222,1.022,0.486
		c0.43,0.391,0.663,0.887,0.699,1.488c0.036,0.602-0.137,1.118-0.521,1.548c-0.311,0.351-0.703,0.584-1.175,0.699
		c-0.473,0.116-0.935,0.098-1.384-0.054c-0.483-0.166-0.87-0.417-1.161-0.754c-0.04-0.04-0.06-0.072-0.06-0.099
		c0-0.04,0.092-0.198,0.278-0.476h0.01c0.238,0.337,0.519,0.579,0.843,0.724c0.311,0.159,0.668,0.223,1.072,0.193
		c0.403-0.03,0.73-0.17,0.982-0.421c0.245-0.245,0.384-0.582,0.417-1.012c0.026-0.363-0.015-0.703-0.124-1.017
		c-0.109-0.314-0.31-0.538-0.601-0.67c-0.297-0.139-0.625-0.16-0.982-0.064c-0.357,0.096-0.615,0.263-0.774,0.501l-0.119,0.149
		c-0.02,0.007-0.079,0.01-0.179,0.01h-0.396V31.799z"/>
</g>
<g>
	<path d="M139.075,30.856c0.125-0.033,0.208,0.017,0.248,0.149c0.013,0.046,0.006,0.103-0.02,0.169
		c-0.006,0.02-0.278,0.728-0.813,2.123s-1.082,2.822-1.637,4.281c-0.556,1.458-0.863,2.264-0.923,2.416l-0.099,0.258
		c-0.053,0.146-0.126,0.225-0.218,0.238c-0.073,0-0.126-0.017-0.159-0.05c-0.08-0.06-0.08-0.198,0-0.417l0.615-1.598l2.719-7.113
		l0.089-0.218C138.93,30.956,138.996,30.876,139.075,30.856z"/>
</g>
<g>
	<path d="M140.83,33.267c-0.205-0.271-0.308-0.423-0.308-0.457c0-0.033,0.062-0.129,0.188-0.288
		c0.218-0.251,0.496-0.463,0.833-0.635c0.317-0.152,0.656-0.233,1.017-0.243c0.36-0.01,0.703,0.058,1.027,0.203
		c0.509,0.251,0.807,0.599,0.893,1.042c0.066,0.39-0.02,0.767-0.258,1.131c-0.159,0.231-0.357,0.423-0.596,0.575
		c-0.026,0.02-0.079,0.05-0.159,0.089c-0.079,0.04-0.139,0.073-0.178,0.1c0.145,0.02,0.333,0.092,0.565,0.218
		c0.344,0.192,0.605,0.459,0.784,0.803c0.132,0.298,0.179,0.597,0.139,0.898c-0.04,0.301-0.152,0.584-0.337,0.848
		c-0.046,0.066-0.126,0.156-0.238,0.268c-0.311,0.304-0.694,0.496-1.151,0.576c-0.457,0.079-0.886,0.049-1.29-0.089
		c-0.51-0.152-0.946-0.437-1.31-0.854c-0.053-0.066-0.082-0.107-0.084-0.124c-0.003-0.016,0.001-0.064,0.015-0.144
		c0.033-0.212,0.06-0.337,0.08-0.377c0.502,0.661,1.157,1.021,1.964,1.081c0.489,0.046,0.89-0.066,1.2-0.337
		c0.271-0.225,0.427-0.531,0.466-0.917c0.04-0.387-0.043-0.723-0.248-1.007c-0.172-0.238-0.407-0.407-0.704-0.506
		c-0.166-0.053-0.417-0.079-0.754-0.079h-0.705v-0.526c0.06,0,0.146-0.005,0.258-0.015c0.112-0.01,0.195-0.018,0.248-0.024
		c0.258-0.013,0.47-0.046,0.635-0.1c0.284-0.092,0.522-0.254,0.714-0.486c0.191-0.231,0.288-0.489,0.288-0.774
		c0-0.542-0.341-0.853-1.022-0.933c-0.615-0.066-1.147,0.126-1.597,0.576c-0.126,0.125-0.248,0.294-0.367,0.506H140.83z"/>
</g>
<g>
	<rect x="87.394" y="49.188" width="58.357" height="0.574"/>
</g>
<g>
	<path d="M107.298,53.443h4.89v0.751h-4.025v3.261c0.397-0.359,0.857-0.579,1.382-0.659s1.028-0.008,1.51,0.22
		c0.444,0.227,0.812,0.566,1.105,1.021c0.368,0.558,0.543,1.181,0.524,1.87c-0.019,0.69-0.232,1.3-0.638,1.829
		c-0.595,0.774-1.389,1.19-2.381,1.247c-1.181,0.037-2.14-0.378-2.877-1.247c-0.057-0.086-0.085-0.138-0.085-0.156
		c0-0.028,0.123-0.246,0.369-0.652h0.014c0.293,0.435,0.661,0.766,1.105,0.992c0.435,0.255,0.945,0.361,1.531,0.319
		c0.586-0.043,1.054-0.258,1.403-0.646c0.454-0.51,0.638-1.199,0.553-2.069c-0.057-0.793-0.298-1.36-0.723-1.7
		c-0.321-0.265-0.723-0.383-1.205-0.354s-0.888,0.189-1.219,0.481c-0.095,0.086-0.199,0.199-0.312,0.341
		c-0.009,0.01-0.021,0.026-0.035,0.05s-0.026,0.045-0.036,0.063s-0.021,0.038-0.036,0.057c-0.014,0.019-0.031,0.033-0.049,0.043
		c-0.019,0.009-0.095,0.014-0.227,0.014h-0.539V53.443z"/>
</g>
<g>
	<path d="M119.898,61.154c-0.009,0.037-0.021,0.122-0.035,0.255c-0.014,0.132-0.028,0.25-0.042,0.354
		c-0.014,0.104-0.026,0.165-0.036,0.184c-0.019,0.02-0.109,0.085-0.27,0.198c-0.368,0.236-0.772,0.421-1.211,0.553
		c-0.439,0.133-0.917,0.175-1.432,0.128c-0.515-0.047-0.952-0.231-1.311-0.553c-0.331-0.302-0.565-0.688-0.702-1.155
		c-0.137-0.468-0.168-0.961-0.092-1.48c0.113-0.784,0.427-1.508,0.942-2.169c0.515-0.661,1.136-1.129,1.864-1.403
		c0.312-0.113,0.702-0.175,1.169-0.184c0.467-0.01,0.872,0.042,1.211,0.155c0.217,0.066,0.524,0.213,0.921,0.439l-0.298,0.779
		c-0.435-0.264-0.666-0.406-0.694-0.425c-0.293-0.123-0.628-0.198-1.006-0.227s-0.742,0.009-1.091,0.113
		c-0.586,0.188-1.056,0.558-1.41,1.105s-0.588,1.157-0.702,1.828c-0.076,0.473-0.052,0.921,0.071,1.347
		c0.123,0.425,0.369,0.737,0.737,0.936c0.472,0.236,1.063,0.26,1.771,0.07c0.387-0.094,0.78-0.269,1.176-0.524
		c0.047-0.028,0.121-0.08,0.22-0.155C119.749,61.248,119.832,61.191,119.898,61.154z"/>
</g>
<g>
	<path d="M122.23,52.159h3.522v0.556h-2.877v2.252c0.463-0.357,0.966-0.513,1.508-0.467c0.39,0.06,0.73,0.222,1.022,0.486
		c0.43,0.391,0.663,0.887,0.699,1.488c0.036,0.602-0.137,1.118-0.521,1.548c-0.311,0.351-0.703,0.584-1.175,0.699
		c-0.473,0.116-0.935,0.098-1.384-0.055c-0.483-0.165-0.87-0.416-1.161-0.754c-0.04-0.039-0.06-0.072-0.06-0.099
		c0-0.04,0.092-0.199,0.278-0.477h0.01c0.238,0.337,0.519,0.579,0.843,0.725c0.311,0.158,0.668,0.223,1.072,0.193
		c0.403-0.03,0.73-0.171,0.982-0.422c0.245-0.245,0.384-0.582,0.417-1.012c0.026-0.364-0.015-0.703-0.124-1.018
		c-0.109-0.313-0.31-0.537-0.601-0.669c-0.297-0.14-0.625-0.161-0.982-0.064c-0.357,0.096-0.615,0.263-0.774,0.501l-0.119,0.148
		c-0.02,0.007-0.079,0.01-0.179,0.01h-0.396V52.159z"/>
</g>
<g>
	<path d="M159.048,66.67c-0.201,0-0.229,0-0.402-0.172c-0.588-0.517-1.133-1.104-1.42-1.435c-3.643-4.289-4.934-9.969-4.934-15.605
		c0-6.039,1.506-12.608,6.311-16.982c0.215-0.215,0.244-0.215,0.445-0.215c0.201,0,0.301,0,0.301,0.144c0,0.043,0,0.072-0.043,0.115
		c-0.631,0.631-1.807,1.807-2.94,3.844c-2.367,4.274-2.883,9.252-2.883,13.11c0,5.521,1.047,10.184,3.356,13.884
		c0.961,1.549,1.922,2.51,2.453,3.041c0.029,0.043,0.058,0.071,0.058,0.129C159.35,66.67,159.249,66.67,159.048,66.67z"/>
</g>
<g>
	<path d="M165.639,33.594h2.792c0.756,0,1.209,0.01,1.36,0.029c1.313,0.208,2.098,0.827,2.353,1.856
		c0.132,0.577,0.042,1.134-0.27,1.672c-0.312,0.539-0.737,0.983-1.275,1.333c-0.643,0.425-1.384,0.675-2.225,0.751
		c0,0.019-0.189,0.024-0.567,0.014l-0.581-0.014h-1.602c-0.085,0-0.137,0.01-0.156,0.028c-0.028,0.019-0.057,0.109-0.085,0.27
		l-0.17,0.779l-0.609,2.877c-0.028,0.133-0.052,0.203-0.071,0.213c-0.019,0.02-0.108,0.028-0.269,0.028h-0.708L165.639,33.594z
		 M165.582,38.513h1.871h0.723c1.011-0.047,1.786-0.326,2.325-0.836c0.5-0.472,0.751-1.025,0.751-1.658
		c0-0.614-0.26-1.058-0.779-1.332c-0.407-0.227-1.068-0.34-1.984-0.34h-2.027L165.582,38.513z"/>
</g>
<g>
	<path d="M172.858,38.671h0.655c-0.073,0.371-0.18,0.89-0.322,1.558c-0.143,0.668-0.237,1.108-0.283,1.319
		c0.04-0.026,0.092-0.069,0.159-0.129c0.066-0.06,0.115-0.103,0.148-0.129c0.225-0.159,0.496-0.292,0.814-0.402
		c0.317-0.109,0.618-0.13,0.903-0.064c0.331,0.086,0.582,0.286,0.754,0.6c0.172,0.314,0.261,0.657,0.268,1.027
		c0.007,0.582-0.127,1.136-0.402,1.662c-0.274,0.525-0.656,0.935-1.146,1.225c-0.285,0.166-0.576,0.264-0.873,0.293
		c-0.298,0.03-0.592-0.041-0.883-0.213c-0.218-0.139-0.36-0.317-0.426-0.536h-0.01c-0.013,0.047-0.028,0.116-0.044,0.209
		c-0.017,0.092-0.033,0.175-0.05,0.247c-0.017,0.073-0.035,0.14-0.055,0.199c-0.086,0.013-0.307,0.02-0.665,0.02L172.858,38.671z
		 M174.921,41.608c-0.297-0.218-0.613-0.311-0.947-0.278c-0.334,0.033-0.633,0.162-0.898,0.387
		c-0.026,0.026-0.058,0.056-0.094,0.089c-0.037,0.033-0.061,0.056-0.074,0.069c-0.014,0.013-0.028,0.033-0.045,0.06
		s-0.03,0.056-0.04,0.089s-0.019,0.073-0.025,0.119l-0.06,0.288l-0.347,1.637c0,0.014-0.012,0.063-0.035,0.148
		c-0.023,0.087-0.035,0.149-0.035,0.189c0.013,0.146,0.076,0.28,0.188,0.406c0.125,0.159,0.301,0.253,0.526,0.283
		c0.225,0.029,0.438,0.013,0.64-0.05s0.382-0.145,0.541-0.243c0.549-0.344,0.889-0.942,1.021-1.796
		C175.345,42.365,175.239,41.899,174.921,41.608z"/>
</g>
<g>
	<rect x="161.065" y="49.188" width="16.627" height="0.574"/>
</g>
<g>
	<path d="M162.213,56.235c-0.038-0.037-0.161-0.184-0.369-0.439c-0.094-0.122-0.142-0.193-0.142-0.212
		c0-0.02,0.028-0.118,0.085-0.298c0.189-0.539,0.468-0.992,0.836-1.36c0.558-0.501,1.247-0.744,2.069-0.73
		c0.822,0.015,1.517,0.268,2.083,0.759c0.482,0.416,0.789,0.94,0.921,1.573c0.132,0.633,0.057,1.232-0.227,1.8
		c-0.066,0.133-0.142,0.262-0.227,0.39c-0.085,0.128-0.187,0.258-0.305,0.39c-0.119,0.133-0.215,0.241-0.291,0.326
		c-0.076,0.085-0.196,0.198-0.362,0.34c-0.165,0.142-0.279,0.239-0.34,0.291c-0.062,0.052-0.189,0.155-0.383,0.312
		c-0.194,0.156-0.31,0.248-0.347,0.276c-0.142,0.104-0.555,0.461-1.24,1.07s-1.136,1.019-1.354,1.226h5.131v0.794h-5.953v-0.496
		c0-0.123,0.007-0.2,0.021-0.233s0.054-0.083,0.121-0.149l0.241-0.227l1.956-1.8c0.057-0.048,0.201-0.168,0.432-0.361
		c0.231-0.194,0.399-0.336,0.503-0.426c0.104-0.09,0.257-0.231,0.46-0.425s0.356-0.363,0.46-0.511
		c0.104-0.146,0.222-0.316,0.354-0.51s0.234-0.392,0.305-0.596c0.071-0.203,0.121-0.408,0.149-0.616
		c0.047-0.576-0.076-1.072-0.369-1.488c-0.406-0.558-1.011-0.869-1.814-0.936c-0.378-0.028-0.718,0.015-1.021,0.128
		C162.921,54.398,162.458,55.111,162.213,56.235z"/>
</g>
<g>
	<path d="M168.903,58.191c0.038-0.113,0.198-0.387,0.482-0.822c0.444-0.623,0.93-1.024,1.459-1.204
		c0.104-0.038,0.225-0.066,0.362-0.085c0.137-0.02,0.246-0.031,0.326-0.036c0.08-0.004,0.21-0.004,0.39,0
		c0.18,0.005,0.293,0.008,0.34,0.008h4.323c0.312,0,0.496,0.066,0.553,0.198c0.019,0.057,0.028,0.095,0.028,0.113
		c0.009,0.113-0.023,0.222-0.099,0.326c-0.076,0.104-0.17,0.17-0.283,0.198c-0.066,0.019-0.218,0.028-0.454,0.028h-1.162
		c-0.076,0-0.128,0.02-0.156,0.057c-0.009,0.02-0.028,0.108-0.057,0.27c-0.028,0.16-0.057,0.331-0.085,0.51
		c-0.028,0.18-0.047,0.284-0.057,0.312c-0.246,1.663-0.194,2.938,0.156,3.826c0.009,0.02,0.028,0.064,0.057,0.135
		c0.028,0.071,0.045,0.12,0.05,0.148c0.004,0.028,0.012,0.071,0.021,0.128s0.007,0.106-0.007,0.148
		c-0.014,0.043-0.036,0.088-0.064,0.135c-0.094,0.133-0.22,0.22-0.375,0.263c-0.156,0.042-0.291-0.003-0.404-0.135
		c-0.123-0.16-0.255-0.571-0.397-1.233c-0.198-1.096-0.142-2.461,0.17-4.096c0.038-0.208,0.071-0.363,0.1-0.468h-1.163
		c-0.293,1.795-0.803,3.6-1.53,5.414c-0.066,0.17-0.142,0.298-0.227,0.383c-0.095,0.085-0.201,0.132-0.319,0.142
		s-0.225-0.023-0.319-0.099c-0.104-0.104-0.123-0.256-0.057-0.454l0.397-1.021c0.312-0.879,0.694-2.334,1.148-4.365h-0.524
		c-0.35,0-0.605,0.048-0.766,0.142c-0.302,0.161-0.59,0.482-0.864,0.964c-0.057,0.085-0.095,0.133-0.114,0.142
		c-0.028,0.02-0.113,0.028-0.255,0.028H168.903z"/>
</g>
<g>
	<path d="M180.136,66.455c-0.215,0.215-0.244,0.215-0.445,0.215c-0.172,0-0.301,0-0.301-0.144c0-0.043,0.029-0.086,0.058-0.129
		c0.602-0.603,1.792-1.793,2.926-3.83c2.367-4.274,2.883-9.251,2.883-13.109c0-5.522-1.047-10.184-3.356-13.884
		c-0.961-1.549-1.922-2.51-2.424-3.027c-0.028-0.028-0.086-0.086-0.086-0.143c0-0.144,0.129-0.144,0.301-0.144
		c0.201,0,0.229,0,0.401,0.172c0.588,0.516,1.133,1.104,1.42,1.434c3.643,4.289,4.934,9.968,4.934,15.606
		C186.447,55.511,184.941,62.08,180.136,66.455z"/>
</g>
<g>
	<path d="M190.471,32.934c0.013-0.007,0.069-0.01,0.168-0.01h5.308h0.387c0.086,0.013,0.142,0.063,0.169,0.149
		c0.026,0.086,0.01,0.159-0.05,0.218c-0.046,0.04-0.182,0.06-0.407,0.06h-5.427c-0.093,0-0.149-0.003-0.169-0.01
		c-0.106-0.033-0.154-0.103-0.144-0.208C190.317,33.026,190.372,32.96,190.471,32.934z"/>
</g>
<g>
	<path d="M198.302,29.263h3.522v0.555h-2.877v2.252c0.463-0.357,0.966-0.513,1.508-0.466c0.39,0.06,0.73,0.222,1.022,0.486
		c0.43,0.391,0.663,0.887,0.699,1.488c0.036,0.602-0.137,1.118-0.521,1.548c-0.311,0.351-0.703,0.584-1.175,0.699
		c-0.473,0.116-0.935,0.098-1.384-0.054c-0.483-0.166-0.87-0.417-1.161-0.754c-0.04-0.04-0.06-0.072-0.06-0.099
		c0-0.04,0.092-0.198,0.278-0.476h0.01c0.238,0.337,0.519,0.579,0.843,0.724c0.311,0.159,0.668,0.223,1.072,0.193
		c0.403-0.03,0.73-0.17,0.982-0.421c0.245-0.245,0.384-0.582,0.417-1.012c0.026-0.363-0.015-0.703-0.124-1.017
		c-0.109-0.314-0.31-0.538-0.601-0.67c-0.297-0.139-0.625-0.16-0.982-0.064c-0.357,0.096-0.615,0.263-0.774,0.501l-0.119,0.149
		c-0.02,0.007-0.079,0.01-0.179,0.01h-0.396V29.263z"/>
</g>
<g>
	<path d="M206.992,28.32c0.125-0.033,0.208,0.017,0.248,0.149c0.013,0.046,0.006,0.103-0.02,0.169
		c-0.006,0.02-0.278,0.728-0.813,2.123s-1.082,2.822-1.637,4.281c-0.556,1.458-0.863,2.264-0.923,2.416l-0.099,0.258
		c-0.053,0.146-0.126,0.225-0.218,0.238c-0.073,0-0.126-0.017-0.159-0.05c-0.08-0.06-0.08-0.198,0-0.417l0.615-1.598l2.719-7.113
		l0.089-0.218C206.847,28.419,206.913,28.34,206.992,28.32z"/>
</g>
<g>
	<path d="M208.747,30.731c-0.205-0.271-0.308-0.423-0.308-0.457c0-0.033,0.062-0.129,0.188-0.288
		c0.218-0.251,0.496-0.463,0.833-0.635c0.317-0.152,0.656-0.233,1.017-0.243c0.36-0.01,0.703,0.058,1.027,0.203
		c0.509,0.251,0.807,0.599,0.893,1.042c0.066,0.39-0.02,0.767-0.258,1.131c-0.159,0.231-0.357,0.423-0.596,0.575
		c-0.026,0.02-0.079,0.05-0.159,0.089c-0.079,0.04-0.139,0.073-0.178,0.1c0.145,0.02,0.333,0.092,0.565,0.218
		c0.344,0.192,0.605,0.459,0.784,0.803c0.132,0.298,0.179,0.597,0.139,0.898c-0.04,0.301-0.152,0.584-0.337,0.848
		c-0.046,0.066-0.126,0.156-0.238,0.268c-0.311,0.304-0.694,0.496-1.151,0.576c-0.457,0.079-0.886,0.049-1.29-0.089
		c-0.51-0.152-0.946-0.437-1.31-0.854c-0.053-0.066-0.082-0.107-0.084-0.124c-0.003-0.016,0.001-0.064,0.015-0.144
		c0.033-0.212,0.06-0.337,0.08-0.377c0.502,0.661,1.157,1.021,1.964,1.081c0.489,0.046,0.89-0.066,1.2-0.337
		c0.271-0.225,0.427-0.531,0.466-0.917c0.04-0.387-0.043-0.723-0.248-1.007c-0.172-0.238-0.407-0.407-0.704-0.506
		c-0.166-0.053-0.417-0.079-0.754-0.079H209.6v-0.526c0.06,0,0.146-0.005,0.258-0.015c0.112-0.01,0.195-0.018,0.248-0.024
		c0.258-0.013,0.47-0.046,0.635-0.1c0.284-0.092,0.522-0.254,0.714-0.486c0.191-0.231,0.288-0.489,0.288-0.774
		c0-0.542-0.341-0.853-1.022-0.933c-0.615-0.066-1.147,0.126-1.597,0.576c-0.126,0.125-0.248,0.294-0.367,0.506H208.747z"/>
</g>
<g>
	<path d="M221.783,58.065c-0.258,0-1.19-1.09-1.334-1.262c-1.879-2.424-2.238-5.307-2.238-7.344c0-3.198,0.933-5.78,2.396-7.516
		c0.187-0.215,0.961-1.076,1.176-1.076c0.057,0,0.172,0,0.172,0.144c0,0.029,0,0.058-0.129,0.187
		c-1.721,1.864-2.625,4.504-2.625,8.276c0,1.334,0.129,2.811,0.459,4.116c0.603,2.338,1.578,3.5,2.238,4.202
		c0.029,0.043,0.057,0.072,0.057,0.13C221.955,58.065,221.84,58.065,221.783,58.065z"/>
</g>
<g>
	<path d="M224.094,44.612c0.945,0,1.715-0.217,2.31-0.651c0.047-0.028,0.09-0.062,0.127-0.1c0.038-0.037,0.066-0.065,0.085-0.085
		c0.019-0.019,0.042-0.037,0.071-0.057c0.028-0.019,0.063-0.03,0.106-0.035s0.097-0.007,0.163-0.007v8.829h1.857v0.709h-4.635
		v-0.709h1.856V44.91c-0.633,0.274-1.28,0.411-1.941,0.411V44.612z"/>
</g>
<g>
	<path d="M234.586,49.205c0.019-0.01,0.094-0.015,0.227-0.015h7.441h0.539c0.113,0.02,0.187,0.085,0.22,0.198
		c0.033,0.114,0.012,0.208-0.064,0.284c-0.028,0.028-0.071,0.052-0.127,0.07c-0.057,0.02-0.106,0.028-0.149,0.028
		s-0.099-0.002-0.17-0.007s-0.116-0.007-0.135-0.007h-7.54c-0.142,0-0.222-0.005-0.241-0.015c-0.142-0.037-0.21-0.125-0.206-0.262
		C234.385,49.345,234.453,49.252,234.586,49.205z"/>
</g>
<g>
	<path d="M253.734,51.657c-0.038,0.463-0.071,0.718-0.099,0.765c-0.028,0.038-0.146,0.123-0.354,0.255
		c-0.359,0.208-0.728,0.374-1.105,0.496c-0.378,0.123-0.806,0.173-1.283,0.149s-0.896-0.168-1.254-0.433
		c-0.737-0.548-1.077-1.355-1.021-2.424c0.038-0.68,0.229-1.329,0.574-1.948c0.345-0.619,0.768-1.112,1.269-1.481
		c0.416-0.312,0.859-0.518,1.332-0.616c0.473-0.1,0.955-0.068,1.446,0.092c0.17,0.066,0.326,0.151,0.468,0.255
		c0.5,0.388,0.732,1.059,0.694,2.013c0,0.501-0.047,0.789-0.142,0.865c-0.019,0.019-0.081,0.028-0.184,0.028h-4.493l-0.085,0.411
		c-0.066,0.595,0.005,1.119,0.212,1.573c0.18,0.35,0.416,0.604,0.709,0.765c0.255,0.161,0.56,0.229,0.914,0.206
		s0.678-0.083,0.971-0.178c0.293-0.094,0.562-0.217,0.808-0.368c0.085-0.047,0.203-0.125,0.354-0.234
		C253.616,51.739,253.706,51.676,253.734,51.657z M253.635,49.12c0.075-0.596,0.004-1.072-0.213-1.432
		c-0.179-0.303-0.458-0.496-0.836-0.581s-0.723-0.057-1.035,0.085c-0.397,0.151-0.749,0.401-1.056,0.751s-0.55,0.742-0.729,1.177
		H253.635z"/>
</g>
<g>
	<path d="M255.748,42.82c-0.04-0.033-0.091-0.089-0.154-0.168c-0.063-0.08-0.101-0.126-0.114-0.139
		c-0.073-0.086-0.109-0.139-0.109-0.159c-0.013-0.033,0-0.096,0.04-0.188c0.125-0.351,0.311-0.648,0.556-0.893
		c0.397-0.37,0.898-0.555,1.503-0.555c0.605,0,1.116,0.175,1.533,0.525c0.337,0.278,0.555,0.64,0.655,1.086
		c0.099,0.447,0.049,0.868-0.149,1.265c-0.073,0.133-0.152,0.259-0.238,0.378c-0.086,0.118-0.202,0.244-0.347,0.377
		c-0.146,0.132-0.251,0.227-0.317,0.282c-0.066,0.057-0.202,0.164-0.407,0.322c-0.205,0.159-0.321,0.248-0.347,0.269
		c-0.225,0.178-0.536,0.444-0.933,0.798c-0.397,0.354-0.688,0.607-0.873,0.76h3.661v0.585h-4.266v-0.367
		c0-0.093,0.005-0.15,0.015-0.174c0.01-0.022,0.038-0.058,0.084-0.104c0.146-0.126,0.409-0.362,0.789-0.71
		c0.38-0.347,0.656-0.59,0.828-0.729c0.04-0.033,0.137-0.111,0.293-0.233c0.155-0.122,0.27-0.215,0.342-0.278
		c0.073-0.062,0.178-0.156,0.317-0.282c0.139-0.126,0.248-0.238,0.327-0.338c0.08-0.099,0.166-0.213,0.258-0.342
		c0.092-0.129,0.164-0.262,0.213-0.396c0.049-0.136,0.084-0.273,0.104-0.412c0.046-0.377-0.023-0.711-0.208-1.002
		c-0.284-0.423-0.731-0.658-1.339-0.705c-0.291-0.02-0.542,0.013-0.754,0.099C256.274,41.577,255.953,42.053,255.748,42.82z"/>
</g>
<g>
	<path d="M262.729,56.99c-0.172,0.2-0.961,1.075-1.176,1.075c-0.072,0-0.172-0.028-0.172-0.144c0-0.028,0-0.057,0.129-0.186
		c0.731-0.804,1.578-1.951,2.123-3.959c0.373-1.406,0.502-2.869,0.502-4.317c0-1.334-0.129-2.812-0.459-4.116
		c-0.588-2.281-1.52-3.443-2.208-4.188c-0.058-0.043-0.086-0.086-0.086-0.144c0-0.115,0.101-0.144,0.172-0.144
		c0.258,0,1.19,1.09,1.334,1.262c1.879,2.424,2.237,5.307,2.237,7.344C265.124,52.673,264.191,55.255,262.729,56.99z"/>
</g>
<g>
	<path d="M268.347,41.542c0.013-0.007,0.069-0.01,0.168-0.01h5.308h0.387c0.086,0.013,0.142,0.063,0.169,0.149
		c0.026,0.086,0.01,0.159-0.05,0.218c-0.046,0.04-0.182,0.06-0.407,0.06h-5.427c-0.093,0-0.149-0.003-0.169-0.01
		c-0.106-0.033-0.154-0.103-0.144-0.208C268.193,41.634,268.248,41.568,268.347,41.542z"/>
</g>
<g>
	<path d="M275.701,37.871h4.445v0.367c0,0.106-0.003,0.169-0.01,0.188c-0.014,0.027-0.069,0.089-0.169,0.189
		c-0.47,0.509-0.863,1.045-1.181,1.607c-0.741,1.336-1.111,2.742-1.111,4.216h-0.685c0-0.853,0.135-1.691,0.407-2.515
		c0.271-0.824,0.665-1.576,1.181-2.257c0.258-0.337,0.502-0.622,0.734-0.853c0.199-0.198,0.328-0.314,0.387-0.347v-0.01h-3.999
		V37.871z"/>
</g>
<g>
	<path d="M284.869,36.928c0.125-0.033,0.207,0.017,0.246,0.149c0.014,0.046,0.008,0.103-0.02,0.169
		c-0.006,0.02-0.277,0.728-0.812,2.123s-1.082,2.822-1.637,4.281c-0.556,1.458-0.863,2.264-0.923,2.415l-0.099,0.259
		c-0.053,0.145-0.126,0.225-0.218,0.237c-0.073,0-0.126-0.017-0.159-0.049c-0.08-0.06-0.08-0.199,0-0.417l0.615-1.598l2.718-7.113
		l0.09-0.218C284.723,37.028,284.789,36.948,284.869,36.928z"/>
</g>
<g>
	<path d="M286.544,39.815c-0.04-0.033-0.092-0.089-0.154-0.168c-0.062-0.08-0.101-0.126-0.114-0.139
		c-0.072-0.086-0.109-0.139-0.109-0.159c-0.013-0.033,0-0.096,0.04-0.188c0.126-0.351,0.311-0.648,0.556-0.893
		c0.396-0.37,0.897-0.555,1.503-0.555s1.116,0.175,1.533,0.525c0.337,0.278,0.556,0.64,0.654,1.086
		c0.1,0.447,0.05,0.868-0.148,1.265c-0.073,0.132-0.152,0.258-0.238,0.377s-0.202,0.245-0.347,0.377
		c-0.146,0.132-0.252,0.227-0.318,0.283c-0.065,0.056-0.201,0.164-0.406,0.323c-0.205,0.159-0.321,0.248-0.348,0.268
		c-0.225,0.179-0.535,0.445-0.933,0.799c-0.396,0.354-0.688,0.607-0.873,0.759h3.661v0.585h-4.266v-0.367
		c0-0.093,0.005-0.15,0.015-0.174c0.01-0.022,0.038-0.058,0.084-0.104c0.146-0.126,0.408-0.362,0.789-0.709
		c0.38-0.348,0.656-0.59,0.828-0.729c0.04-0.033,0.138-0.111,0.293-0.233c0.155-0.123,0.27-0.215,0.342-0.278
		c0.073-0.063,0.179-0.157,0.317-0.283c0.14-0.126,0.248-0.238,0.328-0.337c0.079-0.099,0.165-0.213,0.258-0.342
		s0.163-0.261,0.213-0.397c0.05-0.135,0.085-0.273,0.104-0.412c0.046-0.377-0.023-0.711-0.208-1.002
		c-0.285-0.423-0.731-0.658-1.34-0.705c-0.291-0.02-0.542,0.013-0.754,0.099C287.069,38.572,286.748,39.048,286.544,39.815z"/>
</g>
<g>
	<path d="M303.646,66.67c-0.201,0-0.229,0-0.401-0.172c-0.589-0.517-1.134-1.104-1.421-1.435c-3.643-4.289-4.934-9.969-4.934-15.605
		c0-6.039,1.506-12.608,6.311-16.982c0.216-0.215,0.244-0.215,0.445-0.215c0.2,0,0.301,0,0.301,0.144c0,0.043,0,0.072-0.043,0.115
		c-0.631,0.631-1.807,1.807-2.94,3.844c-2.366,4.274-2.883,9.252-2.883,13.11c0,5.521,1.047,10.184,3.356,13.884
		c0.961,1.549,1.922,2.51,2.453,3.041c0.028,0.043,0.057,0.071,0.057,0.129C303.947,66.67,303.847,66.67,303.646,66.67z"/>
</g>
<g>
	<path d="M305.955,44.612c0.944,0,1.715-0.217,2.311-0.651c0.047-0.028,0.089-0.062,0.127-0.1c0.038-0.037,0.066-0.065,0.085-0.085
		c0.02-0.019,0.043-0.037,0.071-0.057c0.028-0.019,0.063-0.03,0.106-0.035c0.042-0.005,0.097-0.007,0.163-0.007v8.829h1.856v0.709
		h-4.635v-0.709h1.856V44.91c-0.633,0.274-1.28,0.411-1.941,0.411V44.612z"/>
	<path d="M320.27,49.19v-3.926c0-0.16,0.005-0.26,0.015-0.298c0.028-0.142,0.118-0.212,0.27-0.212c0.15,0,0.24,0.07,0.269,0.212
		c0.01,0.028,0.015,0.123,0.015,0.283v3.94h3.926c0.161,0,0.255,0.005,0.283,0.015c0.143,0.028,0.213,0.118,0.213,0.269
		c0,0.151-0.07,0.241-0.213,0.27c-0.028,0.01-0.122,0.015-0.283,0.015h-3.926v3.939c0,0.161-0.005,0.256-0.015,0.284
		c-0.028,0.142-0.118,0.212-0.269,0.212c-0.151,0-0.241-0.07-0.27-0.212c-0.01-0.028-0.015-0.123-0.015-0.284v-3.939h-3.939
		c-0.161,0-0.256-0.005-0.284-0.015c-0.142-0.028-0.212-0.118-0.212-0.27c0-0.15,0.07-0.24,0.212-0.269
		c0.028-0.01,0.123-0.015,0.284-0.015H320.27z"/>
</g>
<g>
	<path d="M331.051,34.133h6.179v0.496c0,0.142-0.005,0.227-0.014,0.255c-0.02,0.047-0.104,0.146-0.255,0.297
		c-0.699,0.832-1.248,1.611-1.645,2.339c-1.021,1.899-1.53,3.907-1.53,6.023h-0.95c0-2.513,0.732-4.795,2.197-6.846
		c0.52-0.699,1.044-1.29,1.573-1.771h-5.556V34.133z"/>
	<path d="M339.129,36.216l-0.312-0.439c-0.065-0.085-0.099-0.151-0.099-0.199c0-0.057,0.09-0.198,0.27-0.425
		c0.302-0.387,0.68-0.689,1.134-0.907c0.85-0.406,1.698-0.468,2.544-0.185c0.846,0.284,1.362,0.785,1.552,1.502
		c0.151,0.614,0.01,1.229-0.425,1.843c-0.228,0.302-0.506,0.558-0.837,0.765c-0.057,0.038-0.135,0.083-0.233,0.135
		c-0.1,0.052-0.168,0.087-0.206,0.106c0.256,0.038,0.539,0.151,0.851,0.34c0.614,0.35,1.011,0.822,1.19,1.417
		c0.161,0.501,0.158,0.992-0.007,1.474s-0.423,0.883-0.772,1.205c-0.17,0.161-0.383,0.312-0.638,0.453
		c-0.775,0.406-1.645,0.478-2.607,0.213c-0.709-0.207-1.342-0.628-1.899-1.261c-0.076-0.094-0.116-0.158-0.121-0.191
		s0.003-0.106,0.021-0.22c0.057-0.312,0.09-0.477,0.1-0.496c0.358,0.482,0.723,0.827,1.091,1.035
		c0.341,0.208,0.704,0.361,1.092,0.46c0.387,0.1,0.786,0.116,1.197,0.05c0.411-0.066,0.763-0.231,1.056-0.496
		c0.331-0.302,0.529-0.708,0.596-1.219s-0.005-0.959-0.213-1.347c-0.227-0.444-0.586-0.756-1.077-0.936
		c-0.236-0.085-0.595-0.127-1.077-0.127h-0.949v-0.708c0.812-0.047,1.36-0.123,1.644-0.227c0.359-0.132,0.659-0.352,0.9-0.659
		s0.38-0.65,0.418-1.028c0.047-0.416-0.066-0.774-0.34-1.077c-0.283-0.283-0.664-0.441-1.142-0.475
		c-0.477-0.033-0.891,0.04-1.239,0.22c-0.436,0.18-0.813,0.473-1.135,0.878c-0.047,0.066-0.105,0.159-0.177,0.276
		C339.207,36.087,339.157,36.169,339.129,36.216z"/>
</g>
<g>
	<rect x="330.427" y="49.188" width="14.882" height="0.574"/>
</g>
<g>
	<path d="M331.575,56.235c-0.038-0.037-0.161-0.184-0.369-0.439c-0.095-0.122-0.142-0.193-0.142-0.212
		c0-0.02,0.028-0.118,0.085-0.298c0.189-0.539,0.468-0.992,0.836-1.36c0.558-0.501,1.248-0.744,2.069-0.73
		c0.822,0.015,1.517,0.268,2.084,0.759c0.481,0.416,0.789,0.94,0.921,1.573c0.133,0.633,0.057,1.232-0.227,1.8
		c-0.066,0.133-0.142,0.262-0.227,0.39s-0.187,0.258-0.305,0.39c-0.118,0.133-0.215,0.241-0.291,0.326
		c-0.075,0.085-0.196,0.198-0.361,0.34s-0.278,0.239-0.34,0.291s-0.189,0.155-0.383,0.312s-0.31,0.248-0.348,0.276
		c-0.142,0.104-0.555,0.461-1.24,1.07c-0.685,0.609-1.136,1.019-1.354,1.226h5.131v0.794h-5.952v-0.496
		c0-0.123,0.007-0.2,0.021-0.233c0.015-0.033,0.055-0.083,0.121-0.149l0.241-0.227l1.955-1.8c0.057-0.048,0.201-0.168,0.433-0.361
		c0.231-0.194,0.399-0.336,0.503-0.426c0.104-0.09,0.258-0.231,0.461-0.425s0.356-0.363,0.461-0.511
		c0.104-0.146,0.222-0.316,0.354-0.51c0.133-0.193,0.234-0.392,0.306-0.596c0.07-0.203,0.12-0.408,0.148-0.616
		c0.047-0.576-0.076-1.072-0.368-1.488c-0.407-0.558-1.012-0.869-1.814-0.936c-0.378-0.028-0.719,0.015-1.021,0.128
		C332.283,54.398,331.82,55.111,331.575,56.235z"/>
	<path d="M338.278,60.176v-0.481c0-0.199,0.042-0.354,0.128-0.468l0.17-0.284l0.666-1.021l2.607-4.081
		c0.189-0.303,0.303-0.468,0.341-0.496c0.028-0.02,0.132-0.028,0.312-0.028h0.766v6.108h1.615v0.751h-1.615v2.565h-0.894v-2.565
		H338.278z M342.417,54.124c-0.028,0.066-0.073,0.163-0.135,0.29c-0.062,0.128-0.111,0.225-0.148,0.291
		c-0.199,0.35-0.537,0.905-1.014,1.665c-0.478,0.761-0.912,1.448-1.304,2.062c-0.393,0.614-0.598,0.945-0.617,0.992h3.218V54.124z"
		/>
</g>
<g>
	<path d="M352.867,51.657c-0.037,0.463-0.07,0.718-0.099,0.765c-0.028,0.038-0.146,0.123-0.354,0.255
		c-0.359,0.208-0.728,0.374-1.105,0.496c-0.378,0.123-0.806,0.173-1.282,0.149c-0.478-0.023-0.896-0.168-1.255-0.433
		c-0.737-0.548-1.077-1.355-1.021-2.424c0.038-0.68,0.229-1.329,0.574-1.948s0.768-1.112,1.269-1.481
		c0.416-0.312,0.859-0.518,1.332-0.616c0.473-0.1,0.954-0.068,1.446,0.092c0.17,0.066,0.325,0.151,0.467,0.255
		c0.501,0.388,0.732,1.059,0.695,2.013c0,0.501-0.048,0.789-0.143,0.865c-0.019,0.019-0.08,0.028-0.184,0.028h-4.493l-0.085,0.411
		c-0.066,0.595,0.005,1.119,0.213,1.573c0.179,0.35,0.415,0.604,0.708,0.765c0.256,0.161,0.561,0.229,0.914,0.206
		c0.354-0.023,0.679-0.083,0.972-0.178c0.292-0.094,0.562-0.217,0.808-0.368c0.085-0.047,0.203-0.125,0.354-0.234
		C352.749,51.739,352.839,51.676,352.867,51.657z M352.769,49.12c0.075-0.596,0.005-1.072-0.213-1.432
		c-0.18-0.303-0.458-0.496-0.836-0.581s-0.723-0.057-1.035,0.085c-0.396,0.151-0.749,0.401-1.056,0.751s-0.551,0.742-0.729,1.177
		H352.769z"/>
</g>
<g>
	<path d="M354.883,42.82c-0.04-0.033-0.092-0.089-0.154-0.168c-0.062-0.08-0.101-0.126-0.114-0.139
		c-0.072-0.086-0.109-0.139-0.109-0.159c-0.013-0.033,0-0.096,0.04-0.188c0.126-0.351,0.311-0.648,0.556-0.893
		c0.396-0.37,0.897-0.555,1.503-0.555s1.116,0.175,1.533,0.525c0.337,0.278,0.556,0.64,0.654,1.086
		c0.1,0.447,0.05,0.868-0.148,1.265c-0.073,0.133-0.152,0.259-0.238,0.378c-0.086,0.118-0.202,0.244-0.347,0.377
		c-0.146,0.132-0.252,0.227-0.318,0.282c-0.065,0.057-0.201,0.164-0.406,0.322c-0.205,0.159-0.321,0.248-0.348,0.269
		c-0.225,0.178-0.535,0.444-0.933,0.798c-0.396,0.354-0.688,0.607-0.873,0.76h3.661v0.585h-4.266v-0.367
		c0-0.093,0.005-0.15,0.015-0.174c0.01-0.022,0.038-0.058,0.084-0.104c0.146-0.126,0.408-0.362,0.789-0.71
		c0.38-0.347,0.656-0.59,0.828-0.729c0.04-0.033,0.138-0.111,0.293-0.233s0.27-0.215,0.342-0.278
		c0.073-0.062,0.179-0.156,0.317-0.282c0.14-0.126,0.248-0.238,0.328-0.338c0.079-0.099,0.165-0.213,0.258-0.342
		s0.163-0.262,0.213-0.396c0.05-0.136,0.085-0.273,0.104-0.412c0.046-0.377-0.023-0.711-0.208-1.002
		c-0.285-0.423-0.731-0.658-1.34-0.705c-0.291-0.02-0.542,0.013-0.754,0.099C355.408,41.577,355.087,42.053,354.883,42.82z"/>
</g>
<g>
	<path d="M368.263,49.19v-3.926c0-0.16,0.005-0.26,0.015-0.298c0.028-0.142,0.118-0.212,0.27-0.212c0.15,0,0.24,0.07,0.269,0.212
		c0.01,0.028,0.015,0.123,0.015,0.283v3.94h3.926c0.161,0,0.255,0.005,0.283,0.015c0.143,0.028,0.213,0.118,0.213,0.269
		c0,0.151-0.07,0.241-0.213,0.27c-0.028,0.01-0.122,0.015-0.283,0.015h-3.926v3.939c0,0.161-0.005,0.256-0.015,0.284
		c-0.028,0.142-0.118,0.212-0.269,0.212c-0.151,0-0.241-0.07-0.27-0.212c-0.01-0.028-0.015-0.123-0.015-0.284v-3.939h-3.939
		c-0.161,0-0.256-0.005-0.284-0.015c-0.142-0.028-0.212-0.118-0.212-0.27c0-0.15,0.07-0.24,0.212-0.269
		c0.028-0.01,0.123-0.015,0.284-0.015H368.263z"/>
</g>
<g>
	<path d="M379.663,36.216l-0.312-0.439c-0.065-0.085-0.099-0.151-0.099-0.199c0-0.057,0.09-0.198,0.27-0.425
		c0.302-0.387,0.68-0.689,1.134-0.907c0.85-0.406,1.698-0.468,2.544-0.185c0.846,0.284,1.362,0.785,1.552,1.502
		c0.151,0.614,0.01,1.229-0.425,1.843c-0.228,0.302-0.506,0.558-0.837,0.765c-0.057,0.038-0.135,0.083-0.233,0.135
		c-0.1,0.052-0.168,0.087-0.206,0.106c0.256,0.038,0.539,0.151,0.851,0.34c0.614,0.35,1.011,0.822,1.19,1.417
		c0.161,0.501,0.158,0.992-0.007,1.474s-0.423,0.883-0.772,1.205c-0.17,0.161-0.383,0.312-0.638,0.453
		c-0.775,0.406-1.645,0.478-2.607,0.213c-0.709-0.207-1.342-0.628-1.899-1.261c-0.076-0.094-0.116-0.158-0.121-0.191
		s0.003-0.106,0.021-0.22c0.057-0.312,0.09-0.477,0.1-0.496c0.358,0.482,0.723,0.827,1.091,1.035
		c0.341,0.208,0.704,0.361,1.092,0.46c0.387,0.1,0.786,0.116,1.197,0.05c0.411-0.066,0.763-0.231,1.056-0.496
		c0.331-0.302,0.529-0.708,0.596-1.219s-0.005-0.959-0.213-1.347c-0.227-0.444-0.586-0.756-1.077-0.936
		c-0.236-0.085-0.595-0.127-1.077-0.127h-0.949v-0.708c0.812-0.047,1.36-0.123,1.644-0.227c0.359-0.132,0.659-0.352,0.9-0.659
		s0.38-0.65,0.418-1.028c0.047-0.416-0.066-0.774-0.34-1.077c-0.283-0.283-0.664-0.441-1.142-0.475
		c-0.477-0.033-0.891,0.04-1.239,0.22c-0.436,0.18-0.813,0.473-1.135,0.878c-0.047,0.066-0.105,0.159-0.177,0.276
		C379.741,36.087,379.691,36.169,379.663,36.216z"/>
	<path d="M386.466,34.133h6.179v0.496c0,0.142-0.005,0.227-0.014,0.255c-0.02,0.047-0.104,0.146-0.255,0.297
		c-0.699,0.832-1.248,1.611-1.645,2.339c-1.021,1.899-1.53,3.907-1.53,6.023h-0.95c0-2.513,0.732-4.795,2.197-6.846
		c0.52-0.699,1.044-1.29,1.573-1.771h-5.556V34.133z"/>
</g>
<g>
	<rect x="378.401" y="49.188" width="14.882" height="0.574"/>
</g>
<g>
	<path d="M384.113,58.106c-0.057,0.18-0.203,0.416-0.439,0.709c-0.558,0.661-1.252,1.001-2.083,1.021
		c-0.312,0-0.562-0.033-0.752-0.1c-0.435-0.16-0.831-0.548-1.19-1.162c-0.321-0.566-0.481-1.237-0.481-2.013
		c0-0.756,0.16-1.379,0.481-1.871c0.34-0.548,0.771-0.954,1.29-1.219c0.652-0.273,1.247-0.342,1.786-0.205
		c0.538,0.137,0.978,0.413,1.317,0.829c0.604,0.718,0.94,1.856,1.007,3.416c0.075,1.398-0.17,2.594-0.737,3.585
		c-0.576,1.002-1.313,1.606-2.211,1.814c-0.945,0.208-1.819,0.015-2.622-0.581l0.368-0.652c0.652,0.454,1.262,0.639,1.829,0.554
		c0.425-0.029,0.803-0.175,1.134-0.439c0.878-0.652,1.317-1.881,1.317-3.686H384.113z M381.987,53.911
		c-0.624,0.076-1.077,0.303-1.36,0.681c-0.35,0.378-0.524,1.039-0.524,1.984c0,0.416,0.014,0.728,0.042,0.936
		c0.047,0.283,0.153,0.558,0.319,0.821c0.165,0.265,0.361,0.459,0.588,0.581c0.283,0.171,0.676,0.241,1.177,0.213
		c0.425-0.028,0.803-0.208,1.134-0.538c0.472-0.473,0.718-1.072,0.736-1.801c0-0.396-0.057-0.812-0.17-1.247
		c-0.085-0.358-0.203-0.651-0.354-0.879C383.206,54.114,382.677,53.864,381.987,53.911z"/>
	<path d="M387.557,58.064c0.095-0.256,0.255-0.506,0.482-0.752c0.566-0.623,1.252-0.944,2.055-0.964
		c0.331,0,0.609,0.048,0.836,0.143c0.256,0.113,0.499,0.312,0.73,0.595s0.418,0.591,0.56,0.922c0.18,0.415,0.276,0.899,0.291,1.452
		c0.014,0.553-0.06,1.061-0.22,1.523c-0.143,0.369-0.362,0.721-0.659,1.057c-0.298,0.335-0.617,0.578-0.957,0.729
		c-0.728,0.321-1.455,0.312-2.183-0.028c-1.153-0.596-1.776-1.956-1.871-4.082c-0.019-0.558-0.014-0.973,0.015-1.247
		c0.15-1.417,0.671-2.518,1.559-3.303c0.406-0.368,0.829-0.623,1.269-0.765s0.971-0.175,1.595-0.1c0.057,0,0.217,0.028,0.481,0.085
		s0.416,0.113,0.454,0.17c0.019,0.028,0.028,0.1,0.028,0.213v0.496c-0.057-0.019-0.14-0.047-0.248-0.085
		c-0.109-0.038-0.191-0.062-0.248-0.071c-0.983-0.264-1.843-0.155-2.58,0.326c-0.935,0.652-1.402,1.881-1.402,3.686H387.557z
		 M390.59,57.256c-0.236-0.142-0.527-0.212-0.872-0.212s-0.645,0.062-0.899,0.184c-0.378,0.189-0.681,0.484-0.907,0.886
		c-0.227,0.402-0.34,0.834-0.34,1.297c0,0.832,0.17,1.513,0.51,2.041c0.406,0.586,0.964,0.851,1.673,0.794
		c0.443-0.057,0.798-0.188,1.062-0.396c0.35-0.293,0.581-0.704,0.694-1.233c0.038-0.208,0.057-0.524,0.057-0.949
		c0-0.832-0.113-1.427-0.34-1.786C391.066,57.597,390.854,57.389,390.59,57.256z"/>
</g>
<g>
	<path d="M400.842,51.657c-0.037,0.463-0.07,0.718-0.099,0.765c-0.028,0.038-0.146,0.123-0.354,0.255
		c-0.359,0.208-0.728,0.374-1.105,0.496c-0.378,0.123-0.806,0.173-1.282,0.149c-0.478-0.023-0.896-0.168-1.255-0.433
		c-0.737-0.548-1.077-1.355-1.021-2.424c0.038-0.68,0.229-1.329,0.574-1.948s0.768-1.112,1.269-1.481
		c0.416-0.312,0.859-0.518,1.332-0.616c0.473-0.1,0.954-0.068,1.446,0.092c0.17,0.066,0.325,0.151,0.467,0.255
		c0.501,0.388,0.732,1.059,0.695,2.013c0,0.501-0.048,0.789-0.143,0.865c-0.019,0.019-0.08,0.028-0.184,0.028h-4.493l-0.085,0.411
		c-0.066,0.595,0.005,1.119,0.213,1.573c0.179,0.35,0.415,0.604,0.708,0.765c0.256,0.161,0.561,0.229,0.914,0.206
		c0.354-0.023,0.679-0.083,0.972-0.178c0.292-0.094,0.562-0.217,0.808-0.368c0.085-0.047,0.203-0.125,0.354-0.234
		C400.724,51.739,400.813,51.676,400.842,51.657z M400.743,49.12c0.075-0.596,0.005-1.072-0.213-1.432
		c-0.18-0.303-0.458-0.496-0.836-0.581s-0.723-0.057-1.035,0.085c-0.396,0.151-0.749,0.401-1.056,0.751s-0.551,0.742-0.729,1.177
		H400.743z"/>
</g>
<g>
	<path d="M402.311,45.588v-0.366c0-0.14,0.029-0.248,0.089-0.328c0.066-0.105,0.278-0.427,0.635-0.962l1.28-1.955
		c0.317-0.463,0.549-0.813,0.694-1.052l0.09-0.119c0.02-0.013,0.096-0.02,0.228-0.02h0.565v4.247h1.161v0.555h-1.161v1.776h-0.635
		v-1.776H402.311z M405.287,41.382l-0.219,0.407l-1.27,2.004l-0.804,1.24h2.292V41.382z"/>
</g>
<g>
	<path d="M409.106,66.455c-0.216,0.215-0.244,0.215-0.444,0.215c-0.173,0-0.302,0-0.302-0.144c0-0.043,0.028-0.086,0.058-0.129
		c0.603-0.603,1.793-1.793,2.926-3.83c2.367-4.274,2.883-9.251,2.883-13.109c0-5.522-1.047-10.184-3.356-13.884
		c-0.961-1.549-1.922-2.51-2.424-3.027c-0.028-0.028-0.086-0.086-0.086-0.143c0-0.144,0.129-0.144,0.302-0.144
		c0.2,0,0.229,0,0.401,0.172c0.588,0.516,1.133,1.104,1.42,1.434c3.643,4.289,4.934,9.968,4.934,15.606
		C415.417,55.511,413.911,62.08,409.106,66.455z"/>
</g>
<g>
	<path d="M423.941,47.915c0.058-0.123,0.199-0.307,0.426-0.553c0.643-0.709,1.394-1.021,2.254-0.936
		c0.49,0.038,0.854,0.18,1.091,0.426c0.16,0.16,0.265,0.392,0.312,0.694c0,0.028,0.003,0.087,0.008,0.177
		c0.004,0.09,0.012,0.158,0.021,0.206c0.095-0.161,0.236-0.346,0.426-0.554c0.481-0.528,1.034-0.841,1.658-0.935
		c0.415-0.057,0.796-0.031,1.141,0.077c0.345,0.109,0.588,0.301,0.73,0.574c0.179,0.341,0.188,0.898,0.028,1.673l-0.638,2.962
		c-0.133,0.699-0.228,1.144-0.284,1.332c0,0.104-0.07,0.156-0.212,0.156c-0.028,0-0.048,0-0.058,0h-0.666l0.894-4.195
		c0.009-0.047,0.028-0.135,0.057-0.262c0.028-0.128,0.047-0.225,0.057-0.291c0.009-0.066,0.019-0.153,0.028-0.262
		c0.009-0.109,0.005-0.206-0.015-0.291c-0.019-0.085-0.047-0.17-0.085-0.255c-0.132-0.265-0.392-0.43-0.779-0.496
		c-0.614-0.133-1.127-0.015-1.538,0.354c-0.411,0.368-0.716,0.846-0.914,1.431c-0.038,0.123-0.111,0.438-0.22,0.943
		c-0.108,0.505-0.225,1.062-0.347,1.672c-0.123,0.609-0.208,1.014-0.256,1.212c-0.009,0.038-0.021,0.09-0.035,0.156
		c-0.014,0.066-0.026,0.113-0.035,0.142c0,0.038-0.005,0.066-0.015,0.085c-0.009,0.019-0.028,0.033-0.057,0.042
		c-0.028,0.01-0.05,0.015-0.063,0.015c-0.015,0-0.043,0-0.085,0c-0.043,0-0.068,0-0.078,0h-0.638l0.893-4.195
		c0.01-0.047,0.028-0.135,0.057-0.262c0.028-0.128,0.048-0.225,0.057-0.291c0.01-0.066,0.02-0.153,0.028-0.262
		c0.01-0.109,0.005-0.206-0.014-0.291c-0.02-0.085-0.048-0.17-0.085-0.255c-0.133-0.265-0.393-0.43-0.779-0.496
		c-0.614-0.133-1.127-0.015-1.538,0.354c-0.411,0.368-0.716,0.846-0.914,1.431c-0.038,0.123-0.111,0.438-0.22,0.943
		c-0.108,0.505-0.225,1.062-0.348,1.672s-0.208,1.014-0.255,1.212c-0.01,0.028-0.021,0.076-0.035,0.142
		c-0.015,0.066-0.026,0.118-0.036,0.156c0,0.038-0.005,0.066-0.014,0.085c-0.01,0.019-0.028,0.033-0.057,0.042
		c-0.028,0.01-0.05,0.015-0.063,0.015c-0.015,0-0.043,0-0.085,0c-0.043,0-0.069,0-0.078,0h-0.638l1.417-6.689h0.864l-0.283,1.389
		H423.941z"/>
</g>
<g>
	<path d="M434.559,51.344c0.238-0.238,0.553-0.443,0.942-0.615c0.391-0.172,0.768-0.208,1.132-0.109
		c0.311,0.086,0.549,0.283,0.714,0.591s0.251,0.64,0.258,0.997c0.007,0.575-0.122,1.126-0.387,1.651
		c-0.265,0.526-0.635,0.938-1.111,1.235c-0.191,0.119-0.392,0.208-0.601,0.268c-0.208,0.06-0.428,0.075-0.659,0.045
		c-0.231-0.029-0.434-0.114-0.605-0.253c-0.132-0.105-0.258-0.268-0.377-0.486l-0.486,2.332h-0.675l1.34-6.34h0.655L434.559,51.344z
		 M436.235,51.244c-0.291-0.112-0.561-0.141-0.809-0.084c-0.248,0.056-0.478,0.174-0.689,0.353
		c-0.119,0.092-0.202,0.178-0.248,0.258c-0.039,0.112-0.188,0.807-0.446,2.083c0,0.014-0.012,0.063-0.035,0.148
		c-0.022,0.087-0.034,0.149-0.034,0.189c0.007,0.053,0.029,0.125,0.069,0.218c0.112,0.238,0.283,0.387,0.511,0.446
		c0.229,0.06,0.457,0.055,0.685-0.015c0.229-0.069,0.441-0.177,0.64-0.322c0.596-0.443,0.937-1.042,1.022-1.796
		c0.026-0.305-0.015-0.596-0.124-0.873C436.667,51.571,436.487,51.37,436.235,51.244z"/>
</g>
<g>
	<path d="M441.492,47.915c0.058-0.123,0.199-0.307,0.426-0.553c0.643-0.709,1.394-1.021,2.254-0.936
		c0.49,0.038,0.854,0.18,1.091,0.426c0.16,0.16,0.265,0.392,0.312,0.694c0,0.028,0.003,0.087,0.008,0.177
		c0.004,0.09,0.012,0.158,0.021,0.206c0.095-0.161,0.236-0.346,0.426-0.554c0.481-0.528,1.034-0.841,1.658-0.935
		c0.415-0.057,0.796-0.031,1.141,0.077c0.345,0.109,0.588,0.301,0.73,0.574c0.179,0.341,0.188,0.898,0.028,1.673l-0.638,2.962
		c-0.133,0.699-0.228,1.144-0.284,1.332c0,0.104-0.07,0.156-0.212,0.156c-0.028,0-0.048,0-0.058,0h-0.666l0.894-4.195
		c0.009-0.047,0.028-0.135,0.057-0.262c0.028-0.128,0.047-0.225,0.057-0.291c0.009-0.066,0.019-0.153,0.028-0.262
		c0.009-0.109,0.005-0.206-0.015-0.291c-0.019-0.085-0.047-0.17-0.085-0.255c-0.132-0.265-0.392-0.43-0.779-0.496
		c-0.614-0.133-1.127-0.015-1.538,0.354c-0.411,0.368-0.716,0.846-0.914,1.431c-0.038,0.123-0.111,0.438-0.22,0.943
		c-0.108,0.505-0.225,1.062-0.347,1.672c-0.123,0.609-0.208,1.014-0.256,1.212c-0.009,0.038-0.021,0.09-0.035,0.156
		c-0.014,0.066-0.026,0.113-0.035,0.142c0,0.038-0.005,0.066-0.015,0.085c-0.009,0.019-0.028,0.033-0.057,0.042
		c-0.028,0.01-0.05,0.015-0.063,0.015c-0.015,0-0.043,0-0.085,0c-0.043,0-0.068,0-0.078,0h-0.638l0.893-4.195
		c0.01-0.047,0.028-0.135,0.057-0.262c0.028-0.128,0.048-0.225,0.057-0.291c0.01-0.066,0.02-0.153,0.028-0.262
		c0.01-0.109,0.005-0.206-0.014-0.291c-0.02-0.085-0.048-0.17-0.085-0.255c-0.133-0.265-0.393-0.43-0.779-0.496
		c-0.614-0.133-1.127-0.015-1.538,0.354c-0.411,0.368-0.716,0.846-0.914,1.431c-0.038,0.123-0.111,0.438-0.22,0.943
		c-0.108,0.505-0.225,1.062-0.348,1.672s-0.208,1.014-0.255,1.212c-0.01,0.028-0.021,0.076-0.035,0.142
		c-0.015,0.066-0.026,0.118-0.036,0.156c0,0.038-0.005,0.066-0.014,0.085c-0.01,0.019-0.028,0.033-0.057,0.042
		c-0.028,0.01-0.05,0.015-0.063,0.015c-0.015,0-0.043,0-0.085,0c-0.043,0-0.069,0-0.078,0h-0.638l1.417-6.689h0.864l-0.283,1.389
		H441.492z"/>
</g>
<g>
	<path d="M454.422,54.221c0,0.04-0.01,0.139-0.029,0.298c-0.02,0.158-0.04,0.251-0.06,0.277c-0.053,0.086-0.298,0.226-0.734,0.417
		c-0.344,0.158-0.734,0.229-1.171,0.213s-0.804-0.146-1.101-0.392c-0.1-0.079-0.186-0.172-0.258-0.277
		c-0.192-0.252-0.31-0.544-0.353-0.878s-0.025-0.657,0.055-0.968c0.079-0.311,0.201-0.605,0.367-0.883
		c0.37-0.615,0.869-1.055,1.498-1.319c0.231-0.093,0.521-0.147,0.868-0.164c0.347-0.017,0.652,0.015,0.917,0.094
		c0.166,0.054,0.394,0.159,0.685,0.318l-0.218,0.575c-0.047-0.02-0.116-0.062-0.208-0.129c-0.199-0.106-0.312-0.165-0.338-0.179
		c-0.158-0.066-0.365-0.11-0.62-0.134s-0.487-0.012-0.699,0.034c-0.47,0.106-0.85,0.376-1.141,0.809
		c-0.291,0.434-0.46,0.908-0.507,1.424c-0.059,0.675,0.146,1.138,0.615,1.389c0.172,0.087,0.379,0.128,0.62,0.124
		c0.241-0.003,0.465-0.032,0.67-0.089c0.205-0.056,0.4-0.127,0.585-0.213c0.073-0.04,0.171-0.1,0.293-0.179
		C454.281,54.31,454.369,54.254,454.422,54.221z"/>
</g>
<g>
	<path d="M463.225,56.362h-0.468c-0.132,0-0.212-0.005-0.241-0.015c-0.113-0.057-0.321-0.236-0.623-0.538
		c-0.548-0.548-0.992-1.162-1.332-1.843c-0.729-1.455-1.054-3.118-0.979-4.988c0.057-1.2,0.281-2.299,0.674-3.296
		c0.392-0.997,0.928-1.835,1.608-2.516c0.321-0.321,0.538-0.51,0.651-0.567c0.029-0.009,0.109-0.014,0.241-0.014h0.468
		c-0.038,0.047-0.165,0.166-0.383,0.354c-0.444,0.378-0.888,0.982-1.332,1.814c-0.614,1.181-0.954,2.589-1.021,4.224
		c-0.057,1.332,0.092,2.589,0.446,3.77s0.886,2.159,1.595,2.934c0.132,0.151,0.236,0.26,0.312,0.326
		C463.06,56.197,463.187,56.314,463.225,56.362z"/>
</g>
<g>
	<path d="M467.227,47.915c0.058-0.123,0.199-0.307,0.426-0.553c0.643-0.709,1.394-1.021,2.254-0.936
		c0.49,0.038,0.854,0.18,1.091,0.426c0.16,0.16,0.265,0.392,0.312,0.694c0,0.028,0.003,0.087,0.008,0.177
		c0.004,0.09,0.012,0.158,0.021,0.206c0.095-0.161,0.236-0.346,0.426-0.554c0.481-0.528,1.034-0.841,1.658-0.935
		c0.415-0.057,0.796-0.031,1.141,0.077c0.345,0.109,0.588,0.301,0.73,0.574c0.179,0.341,0.188,0.898,0.028,1.673l-0.638,2.962
		c-0.133,0.699-0.228,1.144-0.284,1.332c0,0.104-0.07,0.156-0.212,0.156c-0.028,0-0.048,0-0.058,0h-0.666l0.894-4.195
		c0.009-0.047,0.028-0.135,0.057-0.262c0.028-0.128,0.047-0.225,0.057-0.291c0.009-0.066,0.019-0.153,0.028-0.262
		c0.009-0.109,0.005-0.206-0.015-0.291c-0.019-0.085-0.047-0.17-0.085-0.255c-0.132-0.265-0.392-0.43-0.779-0.496
		c-0.614-0.133-1.127-0.015-1.538,0.354c-0.411,0.368-0.716,0.846-0.914,1.431c-0.038,0.123-0.111,0.438-0.22,0.943
		c-0.108,0.505-0.225,1.062-0.347,1.672c-0.123,0.609-0.208,1.014-0.256,1.212c-0.009,0.038-0.021,0.09-0.035,0.156
		c-0.014,0.066-0.026,0.113-0.035,0.142c0,0.038-0.005,0.066-0.015,0.085c-0.009,0.019-0.028,0.033-0.057,0.042
		c-0.028,0.01-0.05,0.015-0.063,0.015c-0.015,0-0.043,0-0.085,0c-0.043,0-0.068,0-0.078,0h-0.638l0.893-4.195
		c0.01-0.047,0.028-0.135,0.057-0.262c0.028-0.128,0.048-0.225,0.057-0.291c0.01-0.066,0.02-0.153,0.028-0.262
		c0.01-0.109,0.005-0.206-0.014-0.291c-0.02-0.085-0.048-0.17-0.085-0.255c-0.133-0.265-0.393-0.43-0.779-0.496
		c-0.614-0.133-1.127-0.015-1.538,0.354c-0.411,0.368-0.716,0.846-0.914,1.431c-0.038,0.123-0.111,0.438-0.22,0.943
		c-0.108,0.505-0.225,1.062-0.348,1.672s-0.208,1.014-0.255,1.212c-0.01,0.028-0.021,0.076-0.035,0.142
		c-0.015,0.066-0.026,0.118-0.036,0.156c0,0.038-0.005,0.066-0.014,0.085c-0.01,0.019-0.028,0.033-0.057,0.042
		c-0.028,0.01-0.05,0.015-0.063,0.015c-0.015,0-0.043,0-0.085,0c-0.043,0-0.069,0-0.078,0h-0.638l1.417-6.689h0.864l-0.283,1.389
		H467.227z"/>
</g>
<g>
	<path d="M477.844,51.344c0.238-0.238,0.553-0.443,0.942-0.615c0.391-0.172,0.768-0.208,1.132-0.109
		c0.311,0.086,0.549,0.283,0.714,0.591s0.251,0.64,0.258,0.997c0.007,0.575-0.122,1.126-0.387,1.651
		c-0.265,0.526-0.635,0.938-1.111,1.235c-0.191,0.119-0.392,0.208-0.601,0.268c-0.208,0.06-0.428,0.075-0.659,0.045
		c-0.231-0.029-0.434-0.114-0.605-0.253c-0.132-0.105-0.258-0.268-0.377-0.486l-0.486,2.332h-0.675l1.34-6.34h0.655L477.844,51.344z
		 M479.521,51.244c-0.291-0.112-0.561-0.141-0.809-0.084c-0.248,0.056-0.478,0.174-0.689,0.353
		c-0.119,0.092-0.202,0.178-0.248,0.258c-0.039,0.112-0.188,0.807-0.446,2.083c0,0.014-0.012,0.063-0.035,0.148
		c-0.022,0.087-0.034,0.149-0.034,0.189c0.007,0.053,0.029,0.125,0.069,0.218c0.112,0.238,0.283,0.387,0.511,0.446
		c0.229,0.06,0.457,0.055,0.685-0.015c0.229-0.069,0.441-0.177,0.64-0.322c0.596-0.443,0.937-1.042,1.022-1.796
		c0.026-0.305-0.015-0.596-0.124-0.873C479.952,51.571,479.772,51.37,479.521,51.244z"/>
</g>
<g>
	<path d="M489.996,49.19v-3.926c0-0.16,0.005-0.26,0.015-0.298c0.028-0.142,0.118-0.212,0.27-0.212c0.15,0,0.24,0.07,0.269,0.212
		c0.01,0.028,0.015,0.123,0.015,0.283v3.94h3.926c0.161,0,0.255,0.005,0.283,0.015c0.143,0.028,0.213,0.118,0.213,0.269
		c0,0.151-0.07,0.241-0.213,0.27c-0.028,0.01-0.122,0.015-0.283,0.015h-3.926v3.939c0,0.161-0.005,0.256-0.015,0.284
		c-0.028,0.142-0.118,0.212-0.269,0.212c-0.151,0-0.241-0.07-0.27-0.212c-0.01-0.028-0.015-0.123-0.015-0.284v-3.939h-3.939
		c-0.161,0-0.256-0.005-0.284-0.015c-0.142-0.028-0.212-0.118-0.212-0.27c0-0.15,0.07-0.24,0.212-0.269
		c0.028-0.01,0.123-0.015,0.284-0.015H489.996z"/>
</g>
<g>
	<path d="M502.101,47.915c0.058-0.123,0.199-0.307,0.426-0.553c0.643-0.709,1.394-1.021,2.254-0.936
		c0.49,0.038,0.854,0.18,1.091,0.426c0.16,0.16,0.265,0.392,0.312,0.694c0,0.028,0.003,0.087,0.008,0.177
		c0.004,0.09,0.012,0.158,0.021,0.206c0.095-0.161,0.236-0.346,0.426-0.554c0.481-0.528,1.034-0.841,1.658-0.935
		c0.415-0.057,0.796-0.031,1.141,0.077c0.345,0.109,0.588,0.301,0.73,0.574c0.179,0.341,0.188,0.898,0.028,1.673l-0.638,2.962
		c-0.133,0.699-0.228,1.144-0.284,1.332c0,0.104-0.07,0.156-0.212,0.156c-0.028,0-0.048,0-0.058,0h-0.666l0.894-4.195
		c0.009-0.047,0.028-0.135,0.057-0.262c0.028-0.128,0.047-0.225,0.057-0.291c0.009-0.066,0.019-0.153,0.028-0.262
		c0.009-0.109,0.005-0.206-0.015-0.291c-0.019-0.085-0.047-0.17-0.085-0.255c-0.132-0.265-0.392-0.43-0.779-0.496
		c-0.614-0.133-1.127-0.015-1.538,0.354c-0.411,0.368-0.716,0.846-0.914,1.431c-0.038,0.123-0.111,0.438-0.22,0.943
		c-0.108,0.505-0.225,1.062-0.347,1.672c-0.123,0.609-0.208,1.014-0.256,1.212c-0.009,0.038-0.021,0.09-0.035,0.156
		c-0.014,0.066-0.026,0.113-0.035,0.142c0,0.038-0.005,0.066-0.015,0.085c-0.009,0.019-0.028,0.033-0.057,0.042
		c-0.028,0.01-0.05,0.015-0.063,0.015c-0.015,0-0.043,0-0.085,0c-0.043,0-0.068,0-0.078,0h-0.638l0.893-4.195
		c0.01-0.047,0.028-0.135,0.057-0.262c0.028-0.128,0.048-0.225,0.057-0.291c0.01-0.066,0.02-0.153,0.028-0.262
		c0.01-0.109,0.005-0.206-0.014-0.291c-0.02-0.085-0.048-0.17-0.085-0.255c-0.133-0.265-0.393-0.43-0.779-0.496
		c-0.614-0.133-1.127-0.015-1.538,0.354c-0.411,0.368-0.716,0.846-0.914,1.431c-0.038,0.123-0.111,0.438-0.22,0.943
		c-0.108,0.505-0.225,1.062-0.348,1.672s-0.208,1.014-0.255,1.212c-0.01,0.028-0.021,0.076-0.035,0.142
		c-0.015,0.066-0.026,0.118-0.036,0.156c0,0.038-0.005,0.066-0.014,0.085c-0.01,0.019-0.028,0.033-0.057,0.042
		c-0.028,0.01-0.05,0.015-0.063,0.015c-0.015,0-0.043,0-0.085,0c-0.043,0-0.069,0-0.078,0h-0.638l1.417-6.689h0.864l-0.283,1.389
		H502.101z"/>
</g>
<g>
	<path d="M515.029,54.221c0,0.04-0.01,0.139-0.029,0.298c-0.02,0.158-0.04,0.251-0.06,0.277c-0.053,0.086-0.298,0.226-0.734,0.417
		c-0.344,0.158-0.734,0.229-1.171,0.213s-0.804-0.146-1.101-0.392c-0.1-0.079-0.186-0.172-0.258-0.277
		c-0.192-0.252-0.31-0.544-0.353-0.878s-0.025-0.657,0.055-0.968c0.079-0.311,0.201-0.605,0.367-0.883
		c0.37-0.615,0.869-1.055,1.498-1.319c0.231-0.093,0.521-0.147,0.868-0.164c0.347-0.017,0.652,0.015,0.917,0.094
		c0.166,0.054,0.394,0.159,0.685,0.318l-0.218,0.575c-0.047-0.02-0.116-0.062-0.208-0.129c-0.199-0.106-0.312-0.165-0.338-0.179
		c-0.158-0.066-0.365-0.11-0.62-0.134s-0.487-0.012-0.699,0.034c-0.47,0.106-0.85,0.376-1.141,0.809
		c-0.291,0.434-0.46,0.908-0.507,1.424c-0.059,0.675,0.146,1.138,0.615,1.389c0.172,0.087,0.379,0.128,0.62,0.124
		c0.241-0.003,0.465-0.032,0.67-0.089c0.205-0.056,0.4-0.127,0.585-0.213c0.073-0.04,0.171-0.1,0.293-0.179
		C514.889,54.31,514.977,54.254,515.029,54.221z"/>
</g>
<g>
	<path d="M517.347,42.586h0.468c0.142,0,0.222,0.005,0.24,0.014c0.114,0.057,0.321,0.236,0.624,0.539
		c0.548,0.548,0.992,1.162,1.332,1.843c0.728,1.455,1.054,3.118,0.979,4.988c-0.057,1.2-0.281,2.299-0.674,3.296
		c-0.392,0.996-0.928,1.835-1.608,2.516c-0.321,0.321-0.538,0.51-0.652,0.566c-0.028,0.01-0.108,0.015-0.24,0.015h-0.468
		c0.037-0.048,0.165-0.165,0.383-0.354c0.075-0.066,0.179-0.175,0.312-0.326c0.416-0.463,0.761-0.973,1.034-1.53
		c0.747-1.475,1.082-3.198,1.007-5.173c-0.095-2.362-0.775-4.267-2.041-5.712c-0.133-0.151-0.236-0.26-0.312-0.326
		C517.512,42.751,517.384,42.633,517.347,42.586z"/>
</g>
<g>
	<path d="M523.332,43.26c0.014-0.007,0.07-0.01,0.169-0.01h5.308h0.388c0.086,0.013,0.142,0.062,0.168,0.148s0.01,0.159-0.05,0.218
		c-0.046,0.04-0.182,0.06-0.406,0.06h-5.427c-0.093,0-0.149-0.003-0.169-0.01c-0.105-0.033-0.153-0.103-0.144-0.208
		S523.233,43.286,523.332,43.26z"/>
</g>
<g>
	<path d="M531.334,40.085c0.688,0,1.236-0.149,1.646-0.447c0.02-0.013,0.058-0.044,0.114-0.094c0.056-0.049,0.101-0.081,0.134-0.094
		c0.013-0.006,0.066-0.01,0.159-0.01v6.112h1.329v0.525h-3.324v-0.525h1.33v-5.219c-0.186,0.079-0.301,0.125-0.348,0.139
		c-0.284,0.093-0.632,0.139-1.041,0.139V40.085z"/>
</g>
<g>
	<path d="M539.854,38.646c0.125-0.033,0.208,0.017,0.247,0.149c0.014,0.046,0.007,0.103-0.02,0.169
		c-0.007,0.02-0.277,0.728-0.813,2.123c-0.535,1.396-1.081,2.822-1.637,4.281c-0.556,1.458-0.863,2.264-0.923,2.415l-0.1,0.259
		c-0.053,0.145-0.125,0.225-0.218,0.237c-0.073,0-0.126-0.017-0.159-0.049c-0.079-0.06-0.079-0.199,0-0.417l0.615-1.598l2.719-7.113
		l0.089-0.218C539.708,38.746,539.774,38.666,539.854,38.646z"/>
</g>
<g>
	<path d="M541.61,41.057c-0.205-0.271-0.308-0.423-0.308-0.457c0-0.033,0.062-0.129,0.188-0.288
		c0.218-0.251,0.496-0.463,0.833-0.635c0.317-0.152,0.656-0.233,1.018-0.243c0.36-0.01,0.702,0.058,1.026,0.203
		c0.51,0.251,0.807,0.599,0.893,1.042c0.066,0.39-0.02,0.767-0.258,1.131c-0.158,0.231-0.356,0.423-0.595,0.575
		c-0.026,0.02-0.08,0.05-0.159,0.089c-0.079,0.04-0.139,0.073-0.179,0.1c0.146,0.02,0.334,0.092,0.565,0.218
		c0.344,0.192,0.605,0.459,0.784,0.803c0.132,0.298,0.179,0.597,0.139,0.898c-0.039,0.301-0.152,0.583-0.337,0.848
		c-0.047,0.066-0.126,0.155-0.238,0.269c-0.311,0.304-0.694,0.495-1.15,0.575c-0.457,0.079-0.887,0.05-1.29-0.09
		c-0.51-0.151-0.946-0.437-1.31-0.853c-0.054-0.066-0.081-0.107-0.085-0.124c-0.003-0.017,0.002-0.064,0.016-0.145
		c0.032-0.211,0.06-0.337,0.079-0.377c0.503,0.662,1.157,1.022,1.964,1.082c0.49,0.046,0.89-0.066,1.201-0.338
		c0.271-0.225,0.427-0.53,0.466-0.918c0.04-0.387-0.043-0.722-0.248-1.007c-0.172-0.238-0.406-0.406-0.704-0.506
		c-0.165-0.053-0.417-0.079-0.754-0.079h-0.704v-0.526c0.059,0,0.145-0.005,0.258-0.015c0.112-0.01,0.194-0.018,0.248-0.024
		c0.258-0.013,0.469-0.046,0.635-0.1c0.284-0.092,0.522-0.254,0.714-0.486c0.192-0.231,0.288-0.489,0.288-0.774
		c0-0.542-0.341-0.853-1.021-0.933c-0.615-0.066-1.148,0.126-1.598,0.576c-0.126,0.125-0.248,0.294-0.367,0.506H541.61z"/>
</g>
</svg>
