<?xml version="1.0" encoding="iso-8859-1"?>
<!-- Generator: Adobe Illustrator 16.0.0, SVG Export Plug-In . SVG Version: 6.00 Build 0)  -->
<!DOCTYPE svg PUBLIC "-//W3C//DTD SVG 1.1//EN" "http://www.w3.org/Graphics/SVG/1.1/DTD/svg11.dtd">
<svg version="1.1" id="Layer_1" xmlns="http://www.w3.org/2000/svg" xmlns:xlink="http://www.w3.org/1999/xlink" x="0px" y="0px"
	 width="566.929px" height="85.039px" viewBox="0 0 566.929 85.039" style="enable-background:new 0 0 566.929 85.039;"
	 xml:space="preserve">
<g>
	<path d="M32.263,41.948h0.893l-1.587,7.541c-0.227,1.039-0.378,1.743-0.454,2.111l-0.057,0.156
		c-0.123,0.019-0.421,0.028-0.893,0.028l0.212-1.034c-0.198,0.217-0.382,0.392-0.553,0.524c-0.368,0.283-0.763,0.472-1.183,0.566
		c-0.421,0.095-0.849,0.057-1.283-0.113c-0.454-0.227-0.785-0.619-0.992-1.177c-0.208-0.557-0.25-1.186-0.127-1.885
		c0.198-1.209,0.741-2.188,1.63-2.934c0.406-0.35,0.845-0.579,1.318-0.688c0.472-0.108,0.954-0.055,1.446,0.163
		c0.151,0.075,0.302,0.187,0.454,0.333c0.151,0.146,0.255,0.295,0.312,0.446h0.014L32.263,41.948z M31.129,46.271
		c-0.161-0.273-0.402-0.448-0.723-0.524c-0.321-0.075-0.638-0.073-0.949,0.008c-0.312,0.08-0.586,0.2-0.822,0.361
		c-0.841,0.52-1.347,1.436-1.517,2.749c-0.132,0.86,0.023,1.498,0.468,1.914c0.369,0.312,0.794,0.448,1.275,0.41
		c0.482-0.037,0.921-0.264,1.318-0.68c0.227-0.227,0.359-0.454,0.397-0.681c0.349-1.644,0.548-2.57,0.595-2.777
		c0.057-0.293,0.085-0.449,0.085-0.468C31.247,46.535,31.205,46.432,31.129,46.271z"/>
	<path d="M34.432,50.409c0.312,0.218,0.52,0.354,0.624,0.411c0.482,0.236,1.011,0.354,1.587,0.354c0.973,0,1.573-0.34,1.8-1.021
		c0.085-0.208,0.099-0.406,0.042-0.596c-0.057-0.16-0.154-0.295-0.291-0.403c-0.137-0.108-0.267-0.185-0.39-0.227
		c-0.123-0.043-0.284-0.083-0.482-0.121c-0.028-0.009-0.154-0.035-0.375-0.078c-0.222-0.042-0.369-0.075-0.439-0.099
		s-0.187-0.062-0.347-0.113s-0.293-0.113-0.397-0.185s-0.198-0.158-0.283-0.262c-0.322-0.378-0.435-0.802-0.34-1.269
		c0.094-0.468,0.321-0.867,0.68-1.198c0.586-0.529,1.427-0.751,2.523-0.666c0.529,0.028,1.096,0.18,1.701,0.453l-0.297,0.78
		c-0.047-0.028-0.116-0.066-0.206-0.113c-0.09-0.048-0.173-0.09-0.248-0.128c-0.076-0.038-0.151-0.071-0.227-0.1
		c-0.321-0.113-0.685-0.179-1.091-0.198c-0.718-0.047-1.252,0.085-1.602,0.397c-0.189,0.17-0.314,0.368-0.375,0.595
		s-0.026,0.449,0.106,0.666c0.17,0.236,0.534,0.411,1.091,0.524c0.038,0.01,0.066,0.015,0.085,0.015
		c0.5,0.095,0.897,0.205,1.19,0.333c0.293,0.127,0.524,0.338,0.695,0.631c0.264,0.416,0.288,0.902,0.071,1.46
		c-0.265,0.689-0.737,1.167-1.417,1.431c-0.454,0.161-0.938,0.231-1.453,0.213c-0.515-0.019-0.99-0.104-1.424-0.255
		c-0.246-0.095-0.524-0.231-0.836-0.411L34.432,50.409z"/>
</g>
<g>
	<path d="M41.315,41.388c-0.04-0.033-0.091-0.089-0.154-0.168c-0.063-0.08-0.101-0.126-0.114-0.139
		c-0.073-0.086-0.109-0.139-0.109-0.159c-0.013-0.033,0-0.096,0.04-0.188c0.125-0.351,0.311-0.648,0.556-0.893
		c0.397-0.37,0.898-0.555,1.503-0.555c0.605,0,1.116,0.175,1.533,0.525c0.337,0.278,0.555,0.64,0.655,1.086
		c0.099,0.447,0.049,0.868-0.149,1.265c-0.073,0.132-0.152,0.258-0.238,0.377s-0.202,0.245-0.347,0.377s-0.251,0.227-0.317,0.283
		c-0.066,0.056-0.202,0.163-0.407,0.323c-0.205,0.158-0.321,0.248-0.347,0.268c-0.225,0.178-0.536,0.444-0.933,0.798
		c-0.397,0.354-0.688,0.607-0.873,0.76h3.661v0.585h-4.266v-0.367c0-0.093,0.005-0.15,0.015-0.174
		c0.01-0.022,0.038-0.058,0.084-0.104c0.146-0.126,0.409-0.362,0.789-0.71c0.38-0.347,0.656-0.59,0.828-0.729
		c0.04-0.033,0.137-0.11,0.293-0.232c0.155-0.123,0.27-0.215,0.342-0.277c0.073-0.063,0.178-0.158,0.317-0.283
		c0.139-0.126,0.248-0.238,0.327-0.337c0.08-0.099,0.166-0.213,0.258-0.342c0.092-0.129,0.164-0.261,0.213-0.397
		c0.049-0.135,0.084-0.273,0.104-0.412c0.046-0.377-0.023-0.711-0.208-1.002c-0.284-0.423-0.731-0.658-1.339-0.705
		c-0.291-0.02-0.542,0.013-0.754,0.099C41.841,40.145,41.521,40.621,41.315,41.388z"/>
</g>
<g>
	<path d="M51.09,49.275c0.057-0.094,0.198-0.142,0.425-0.142h8.093h0.595c0.123,0.02,0.208,0.083,0.255,0.191
		s0.023,0.205-0.071,0.29c-0.057,0.058-0.156,0.086-0.297,0.086h-8.575c-0.142,0-0.227-0.005-0.255-0.015
		c-0.085-0.019-0.146-0.073-0.184-0.163C51.038,49.434,51.043,49.352,51.09,49.275z M51.26,46.398
		c0.019-0.01,0.099-0.015,0.241-0.015h8.122l0.297-0.014c0.199,0,0.298,0.005,0.298,0.014c0.113,0.02,0.191,0.085,0.234,0.199
		c0.042,0.113,0.021,0.208-0.064,0.283c-0.057,0.057-0.161,0.085-0.312,0.085h-8.519c-0.151,0-0.241-0.005-0.269-0.015
		c-0.151-0.028-0.229-0.115-0.234-0.262S51.119,46.437,51.26,46.398z"/>
</g>
<g>
	<path d="M66.604,47.773c0.019-0.01,0.094-0.015,0.227-0.015h7.441h0.539c0.113,0.02,0.187,0.085,0.22,0.198
		c0.033,0.114,0.012,0.208-0.064,0.284c-0.028,0.028-0.071,0.052-0.127,0.07c-0.057,0.02-0.106,0.028-0.149,0.028
		s-0.099-0.002-0.17-0.007s-0.116-0.007-0.135-0.007h-7.54c-0.142,0-0.222-0.005-0.241-0.015c-0.142-0.037-0.21-0.125-0.206-0.262
		C66.403,47.913,66.471,47.82,66.604,47.773z"/>
</g>
<g>
	<path d="M84.352,56.634c-0.258,0-1.19-1.09-1.334-1.262c-1.879-2.425-2.237-5.308-2.237-7.344c0-3.199,0.932-5.781,2.395-7.516
		c0.187-0.215,0.961-1.076,1.176-1.076c0.058,0,0.172,0,0.172,0.143c0,0.029,0,0.058-0.129,0.187
		c-1.721,1.865-2.625,4.503-2.625,8.276c0,1.334,0.129,2.812,0.459,4.117c0.602,2.338,1.578,3.499,2.237,4.202
		c0.029,0.043,0.058,0.071,0.058,0.129C84.524,56.634,84.409,56.634,84.352,56.634z"/>
</g>
<g>
	<path d="M86.664,43.182c0.945,0,1.715-0.218,2.31-0.652c0.047-0.028,0.09-0.062,0.127-0.1c0.038-0.038,0.066-0.066,0.085-0.085
		c0.019-0.019,0.042-0.038,0.071-0.057c0.028-0.019,0.063-0.03,0.106-0.035s0.097-0.007,0.163-0.007v8.83h1.857v0.709h-4.635v-0.709
		h1.856v-7.597c-0.633,0.274-1.28,0.411-1.941,0.411V43.182z"/>
</g>
<g>
	<path d="M97.155,47.773c0.019-0.01,0.094-0.015,0.227-0.015h7.441h0.539c0.113,0.02,0.187,0.085,0.22,0.198
		c0.033,0.114,0.012,0.208-0.064,0.284c-0.028,0.028-0.071,0.052-0.127,0.07c-0.057,0.02-0.106,0.028-0.149,0.028
		s-0.099-0.002-0.17-0.007s-0.116-0.007-0.135-0.007h-7.54c-0.142,0-0.222-0.005-0.241-0.015c-0.142-0.037-0.21-0.125-0.206-0.262
		C96.954,47.913,97.022,47.82,97.155,47.773z"/>
</g>
<g>
	<path d="M110.35,51.784c0.123-0.396,0.706-2.107,1.75-5.131c1.044-3.023,1.585-4.583,1.623-4.677
		c0.038-0.095,0.076-0.146,0.113-0.156h0.255h0.468c0.132,0,0.21,0.007,0.234,0.021c0.023,0.014,0.059,0.068,0.106,0.163
		c0.208,0.671,1.134,3.363,2.778,8.078c0.057,0.189,0.151,0.473,0.283,0.851s0.231,0.662,0.298,0.851h-0.78
		c-0.161,0-0.25-0.015-0.269-0.043c-0.047-0.047-0.142-0.307-0.284-0.779l-0.595-1.743c-0.803-2.268-1.413-4.077-1.828-5.429
		c-0.151-0.481-0.241-0.793-0.27-0.935h-0.014c-0.246,0.841-0.503,1.677-0.772,2.508c-0.269,0.832-0.624,1.883-1.063,3.154
		c-0.439,1.271-0.721,2.081-0.843,2.431l-0.284,0.836H110.35z"/>
</g>
<g>
	<path d="M121.741,46.866c0.075-0.189,0.274-0.444,0.595-0.766c0.746-0.746,1.568-1.119,2.466-1.119
		c-0.114,0.501-0.175,0.756-0.185,0.765c-0.019,0.028-0.104,0.043-0.255,0.043c-0.756,0.047-1.441,0.373-2.055,0.978
		c-0.35,0.331-0.605,0.732-0.766,1.205c-0.047,0.151-0.212,0.921-0.496,2.311l-0.241,1.091c-0.019,0.133-0.038,0.223-0.057,0.27
		c0,0.038-0.005,0.066-0.014,0.085c-0.01,0.019-0.026,0.033-0.05,0.042c-0.023,0.01-0.042,0.015-0.057,0.015s-0.042,0-0.085,0
		s-0.069,0-0.078,0h-0.638l1.417-6.689h0.85l-0.368,1.771H121.741z"/>
</g>
<g>
	<path d="M126.053,41.388c-0.04-0.033-0.091-0.089-0.154-0.168c-0.063-0.08-0.101-0.126-0.114-0.139
		c-0.073-0.086-0.109-0.139-0.109-0.159c-0.013-0.033,0-0.096,0.04-0.188c0.125-0.351,0.311-0.648,0.556-0.893
		c0.397-0.37,0.898-0.555,1.503-0.555c0.605,0,1.116,0.175,1.533,0.525c0.337,0.278,0.555,0.64,0.655,1.086
		c0.099,0.447,0.049,0.868-0.149,1.265c-0.073,0.132-0.152,0.258-0.238,0.377s-0.202,0.245-0.347,0.377s-0.251,0.227-0.317,0.283
		c-0.066,0.056-0.202,0.163-0.407,0.323c-0.205,0.158-0.321,0.248-0.347,0.268c-0.225,0.178-0.536,0.444-0.933,0.798
		c-0.397,0.354-0.688,0.607-0.873,0.76h3.661v0.585h-4.266v-0.367c0-0.093,0.005-0.15,0.015-0.174
		c0.01-0.022,0.038-0.058,0.084-0.104c0.146-0.126,0.409-0.362,0.789-0.71c0.38-0.347,0.656-0.59,0.828-0.729
		c0.04-0.033,0.137-0.11,0.293-0.232c0.155-0.123,0.27-0.215,0.342-0.277c0.073-0.063,0.178-0.158,0.317-0.283
		c0.139-0.126,0.248-0.238,0.327-0.337c0.08-0.099,0.166-0.213,0.258-0.342c0.092-0.129,0.164-0.261,0.213-0.397
		c0.049-0.135,0.084-0.273,0.104-0.412c0.046-0.377-0.023-0.711-0.208-1.002c-0.284-0.423-0.731-0.658-1.339-0.705
		c-0.291-0.02-0.542,0.013-0.754,0.099C126.579,40.145,126.258,40.621,126.053,41.388z"/>
</g>
<g>
	<path d="M133.035,55.559c-0.172,0.2-0.961,1.075-1.176,1.075c-0.072,0-0.172-0.028-0.172-0.144c0-0.028,0-0.057,0.129-0.186
		c0.731-0.804,1.578-1.951,2.123-3.959c0.373-1.406,0.502-2.869,0.502-4.317c0-1.334-0.129-2.812-0.459-4.116
		c-0.588-2.281-1.521-3.443-2.209-4.188c-0.058-0.043-0.086-0.086-0.086-0.144c0-0.115,0.1-0.144,0.172-0.144
		c0.258,0,1.19,1.09,1.334,1.262c1.879,2.424,2.237,5.307,2.237,7.344C135.43,51.241,134.498,53.823,133.035,55.559z"/>
</g>
<g>
	<path d="M147.348,41.948h0.893l-1.587,7.541c-0.227,1.039-0.378,1.743-0.454,2.111l-0.057,0.156
		c-0.123,0.019-0.421,0.028-0.893,0.028l0.212-1.034c-0.198,0.217-0.382,0.392-0.553,0.524c-0.368,0.283-0.763,0.472-1.183,0.566
		c-0.421,0.095-0.849,0.057-1.283-0.113c-0.454-0.227-0.785-0.619-0.992-1.177c-0.208-0.557-0.25-1.186-0.127-1.885
		c0.198-1.209,0.741-2.188,1.63-2.934c0.406-0.35,0.845-0.579,1.318-0.688c0.472-0.108,0.954-0.055,1.446,0.163
		c0.151,0.075,0.302,0.187,0.454,0.333c0.151,0.146,0.255,0.295,0.312,0.446h0.014L147.348,41.948z M146.214,46.271
		c-0.161-0.273-0.402-0.448-0.723-0.524c-0.321-0.075-0.638-0.073-0.949,0.008c-0.312,0.08-0.586,0.2-0.822,0.361
		c-0.841,0.52-1.347,1.436-1.517,2.749c-0.132,0.86,0.023,1.498,0.468,1.914c0.369,0.312,0.794,0.448,1.275,0.41
		c0.482-0.037,0.921-0.264,1.318-0.68c0.227-0.227,0.359-0.454,0.397-0.681c0.349-1.644,0.548-2.57,0.595-2.777
		c0.057-0.293,0.085-0.449,0.085-0.468C146.332,46.535,146.29,46.432,146.214,46.271z"/>
	<path d="M150.353,45.095h1.248l0.113-0.028c0.066-0.189,0.137-0.501,0.212-0.936s0.151-0.742,0.227-0.922
		c0.104-0.019,0.382-0.027,0.836-0.027l-0.411,1.913h2.197l-0.142,0.708h-2.013c-0.085,0-0.137,0.01-0.156,0.028
		c-0.019,0.02-0.038,0.062-0.057,0.128c-0.009,0.02-0.014,0.033-0.014,0.043c-0.558,2.409-0.855,3.836-0.893,4.28
		c-0.019,0.491,0.109,0.779,0.383,0.864c0.227,0.075,0.572,0.033,1.035-0.128c0.142-0.057,0.288-0.127,0.439-0.212
		c0.019-0.01,0.066-0.043,0.142-0.1s0.137-0.095,0.184-0.113c0,0.057,0.005,0.14,0.014,0.248c0.01,0.108,0.015,0.191,0.015,0.248
		c0,0.104-0.005,0.165-0.015,0.185c-0.076,0.094-0.288,0.198-0.638,0.312c-0.548,0.208-1.058,0.312-1.531,0.312
		c-0.387,0-0.657-0.123-0.808-0.368c-0.189-0.331-0.184-0.926,0.014-1.786l0.581-2.735c0.019-0.095,0.042-0.222,0.071-0.383
		c0.028-0.16,0.057-0.31,0.085-0.446s0.062-0.263,0.099-0.376h-1.36L150.353,45.095z"/>
</g>
<g>
	<path d="M155.988,41.388c-0.04-0.033-0.091-0.089-0.154-0.168c-0.063-0.08-0.101-0.126-0.114-0.139
		c-0.073-0.086-0.109-0.139-0.109-0.159c-0.013-0.033,0-0.096,0.04-0.188c0.125-0.351,0.311-0.648,0.556-0.893
		c0.397-0.37,0.898-0.555,1.503-0.555c0.605,0,1.116,0.175,1.533,0.525c0.337,0.278,0.555,0.64,0.655,1.086
		c0.099,0.447,0.049,0.868-0.149,1.265c-0.073,0.132-0.152,0.258-0.238,0.377s-0.202,0.245-0.347,0.377s-0.251,0.227-0.317,0.283
		c-0.066,0.056-0.202,0.163-0.407,0.323c-0.205,0.158-0.321,0.248-0.347,0.268c-0.225,0.178-0.536,0.444-0.933,0.798
		c-0.397,0.354-0.688,0.607-0.873,0.76h3.661v0.585h-4.266v-0.367c0-0.093,0.005-0.15,0.015-0.174
		c0.01-0.022,0.038-0.058,0.084-0.104c0.146-0.126,0.409-0.362,0.789-0.71c0.38-0.347,0.656-0.59,0.828-0.729
		c0.04-0.033,0.137-0.11,0.293-0.232c0.155-0.123,0.27-0.215,0.342-0.277c0.073-0.063,0.178-0.158,0.317-0.283
		c0.139-0.126,0.248-0.238,0.327-0.337c0.08-0.099,0.166-0.213,0.258-0.342c0.092-0.129,0.164-0.261,0.213-0.397
		c0.049-0.135,0.084-0.273,0.104-0.412c0.046-0.377-0.023-0.711-0.208-1.002c-0.284-0.423-0.731-0.658-1.339-0.705
		c-0.291-0.02-0.542,0.013-0.754,0.099C156.514,40.145,156.193,40.621,155.988,41.388z"/>
</g>
<g>
	<path d="M169.369,47.759v-3.926c0-0.161,0.004-0.26,0.014-0.298c0.028-0.142,0.118-0.213,0.269-0.213
		c0.151,0,0.241,0.071,0.27,0.213c0.009,0.029,0.014,0.123,0.014,0.283v3.94h3.926c0.161,0,0.255,0.005,0.284,0.015
		c0.142,0.028,0.212,0.118,0.212,0.269c0,0.151-0.071,0.241-0.212,0.27c-0.028,0.01-0.123,0.015-0.284,0.015h-3.926v3.939
		c0,0.161-0.005,0.256-0.014,0.284c-0.028,0.142-0.118,0.212-0.27,0.212c-0.151,0-0.241-0.07-0.269-0.212
		c-0.01-0.028-0.014-0.123-0.014-0.284v-3.939h-3.94c-0.161,0-0.255-0.005-0.283-0.015c-0.142-0.028-0.213-0.118-0.213-0.27
		c0-0.15,0.071-0.24,0.213-0.269c0.028-0.01,0.123-0.015,0.283-0.015H169.369z"/>
</g>
<g>
	<path d="M200.215,33.396c0.945,0,1.715-0.217,2.31-0.652c0.047-0.028,0.09-0.062,0.127-0.1c0.038-0.038,0.066-0.066,0.085-0.085
		c0.019-0.019,0.042-0.038,0.071-0.057c0.028-0.019,0.063-0.03,0.106-0.035s0.097-0.007,0.163-0.007v8.83h1.857v0.708H200.3v-0.708
		h1.856v-7.597c-0.633,0.274-1.28,0.411-1.941,0.411V33.396z"/>
</g>
<g>
	<rect x="179.508" y="47.757" width="45.879" height="0.574"/>
</g>
<g>
	<path d="M180.996,52.705c0.945,0,1.715-0.217,2.31-0.651c0.047-0.028,0.09-0.062,0.127-0.1c0.038-0.037,0.066-0.065,0.085-0.085
		c0.019-0.019,0.042-0.037,0.071-0.057c0.028-0.019,0.063-0.03,0.106-0.035s0.097-0.007,0.163-0.007V60.6h1.857v0.709h-4.635V60.6
		h1.856v-7.597c-0.633,0.274-1.28,0.411-1.941,0.411V52.705z"/>
</g>
<g>
	<path d="M191.487,57.298c0.019-0.01,0.094-0.015,0.227-0.015h7.441h0.539c0.113,0.02,0.187,0.085,0.22,0.198
		c0.033,0.114,0.012,0.208-0.064,0.284c-0.028,0.028-0.071,0.052-0.127,0.07c-0.057,0.02-0.106,0.028-0.149,0.028
		s-0.099-0.002-0.17-0.007s-0.116-0.007-0.135-0.007h-7.54c-0.142,0-0.222-0.005-0.241-0.015c-0.142-0.037-0.21-0.125-0.206-0.262
		C191.286,57.438,191.354,57.345,191.487,57.298z"/>
</g>
<g>
	<path d="M204.682,61.309c0.123-0.396,0.706-2.107,1.75-5.131c1.044-3.023,1.585-4.582,1.623-4.677s0.076-0.146,0.113-0.156h0.255
		h0.468c0.132,0,0.21,0.007,0.234,0.021c0.023,0.014,0.059,0.068,0.106,0.163c0.208,0.671,1.134,3.363,2.778,8.078
		c0.057,0.189,0.151,0.473,0.283,0.851s0.231,0.662,0.298,0.851h-0.78c-0.161,0-0.25-0.015-0.269-0.043
		c-0.047-0.047-0.142-0.307-0.284-0.779l-0.595-1.743c-0.803-2.268-1.413-4.077-1.828-5.429c-0.151-0.481-0.241-0.793-0.27-0.935
		h-0.014c-0.246,0.841-0.503,1.677-0.772,2.508c-0.269,0.832-0.624,1.883-1.063,3.154c-0.439,1.271-0.721,2.081-0.843,2.431
		l-0.284,0.836H204.682z"/>
</g>
<g>
	<path d="M216.073,56.391c0.075-0.189,0.274-0.444,0.595-0.766c0.746-0.746,1.568-1.119,2.466-1.119
		c-0.114,0.501-0.175,0.756-0.185,0.765c-0.019,0.028-0.104,0.043-0.255,0.043c-0.756,0.047-1.441,0.373-2.055,0.978
		c-0.35,0.331-0.605,0.732-0.766,1.205c-0.047,0.151-0.212,0.921-0.496,2.311l-0.241,1.091c-0.019,0.133-0.038,0.223-0.057,0.27
		c0,0.038-0.005,0.066-0.014,0.085c-0.01,0.019-0.026,0.033-0.05,0.042c-0.023,0.01-0.042,0.015-0.057,0.015s-0.042,0-0.085,0
		s-0.069,0-0.078,0h-0.638l1.417-6.689h0.85l-0.368,1.771H216.073z"/>
</g>
<g>
	<path d="M220.385,52.671c-0.04-0.033-0.091-0.089-0.154-0.169c-0.063-0.079-0.101-0.125-0.114-0.139
		c-0.073-0.086-0.109-0.139-0.109-0.158c-0.013-0.033,0-0.097,0.04-0.188c0.125-0.351,0.311-0.648,0.556-0.894
		c0.397-0.37,0.898-0.556,1.503-0.556c0.605,0,1.116,0.176,1.533,0.526c0.337,0.277,0.555,0.64,0.655,1.086
		c0.099,0.446,0.049,0.868-0.149,1.265c-0.073,0.133-0.152,0.259-0.238,0.378c-0.086,0.118-0.202,0.244-0.347,0.377
		c-0.146,0.132-0.251,0.227-0.317,0.282c-0.066,0.057-0.202,0.164-0.407,0.322c-0.205,0.159-0.321,0.248-0.347,0.269
		c-0.225,0.178-0.536,0.444-0.933,0.798c-0.397,0.354-0.688,0.607-0.873,0.76h3.661v0.585h-4.266v-0.367
		c0-0.093,0.005-0.15,0.015-0.174c0.01-0.022,0.038-0.058,0.084-0.104c0.146-0.126,0.409-0.362,0.789-0.71
		c0.38-0.347,0.656-0.59,0.828-0.729c0.04-0.033,0.137-0.111,0.293-0.233c0.155-0.122,0.27-0.215,0.342-0.278
		c0.073-0.062,0.178-0.156,0.317-0.282c0.139-0.126,0.248-0.238,0.327-0.338c0.08-0.099,0.166-0.213,0.258-0.342
		c0.092-0.129,0.164-0.262,0.213-0.396c0.049-0.136,0.084-0.273,0.104-0.412c0.046-0.377-0.023-0.711-0.208-1.002
		c-0.284-0.424-0.731-0.658-1.339-0.704c-0.291-0.021-0.542,0.013-0.754,0.099C220.911,51.428,220.59,51.903,220.385,52.671z"/>
</g>
<g>
	<path d="M233.938,41.948h0.893l-1.587,7.541c-0.227,1.039-0.378,1.743-0.454,2.111l-0.057,0.156
		c-0.123,0.019-0.421,0.028-0.893,0.028l0.212-1.034c-0.198,0.217-0.382,0.392-0.553,0.524c-0.368,0.283-0.763,0.472-1.183,0.566
		c-0.421,0.095-0.849,0.057-1.283-0.113c-0.454-0.227-0.785-0.619-0.992-1.177c-0.208-0.557-0.25-1.186-0.127-1.885
		c0.198-1.209,0.741-2.188,1.63-2.934c0.406-0.35,0.845-0.579,1.318-0.688c0.472-0.108,0.954-0.055,1.446,0.163
		c0.151,0.075,0.302,0.187,0.454,0.333c0.151,0.146,0.255,0.295,0.312,0.446h0.014L233.938,41.948z M232.804,46.271
		c-0.161-0.273-0.402-0.448-0.723-0.524c-0.321-0.075-0.638-0.073-0.949,0.008c-0.312,0.08-0.586,0.2-0.822,0.361
		c-0.841,0.52-1.347,1.436-1.517,2.749c-0.132,0.86,0.023,1.498,0.468,1.914c0.369,0.312,0.794,0.448,1.275,0.41
		c0.482-0.037,0.921-0.264,1.318-0.68c0.227-0.227,0.359-0.454,0.397-0.681c0.349-1.644,0.548-2.57,0.595-2.777
		c0.057-0.293,0.085-0.449,0.085-0.468C232.922,46.535,232.879,46.432,232.804,46.271z"/>
	<path d="M238.317,46.866c0.075-0.189,0.274-0.444,0.595-0.766c0.746-0.746,1.568-1.119,2.466-1.119
		c-0.114,0.501-0.175,0.756-0.185,0.765c-0.019,0.028-0.104,0.043-0.255,0.043c-0.756,0.047-1.441,0.373-2.055,0.978
		c-0.35,0.331-0.605,0.732-0.766,1.205c-0.047,0.151-0.212,0.921-0.496,2.311l-0.241,1.091c-0.019,0.133-0.038,0.223-0.057,0.27
		c0,0.038-0.005,0.066-0.014,0.085c-0.01,0.019-0.026,0.033-0.05,0.042c-0.023,0.01-0.042,0.015-0.057,0.015s-0.042,0-0.085,0
		s-0.069,0-0.078,0h-0.638l1.417-6.689h0.85l-0.368,1.771H238.317z"/>
</g>
<g>
	<path d="M242.643,41.388c-0.04-0.033-0.091-0.089-0.154-0.168c-0.063-0.08-0.101-0.126-0.114-0.139
		c-0.073-0.086-0.109-0.139-0.109-0.159c-0.013-0.033,0-0.096,0.04-0.188c0.125-0.351,0.311-0.648,0.556-0.893
		c0.397-0.37,0.898-0.555,1.503-0.555c0.605,0,1.116,0.175,1.533,0.525c0.337,0.278,0.555,0.64,0.655,1.086
		c0.099,0.447,0.049,0.868-0.149,1.265c-0.073,0.132-0.152,0.258-0.238,0.377s-0.202,0.245-0.347,0.377s-0.251,0.227-0.317,0.283
		c-0.066,0.056-0.202,0.163-0.407,0.323c-0.205,0.158-0.321,0.248-0.347,0.268c-0.225,0.178-0.536,0.444-0.933,0.798
		c-0.397,0.354-0.688,0.607-0.873,0.76h3.661v0.585h-4.266v-0.367c0-0.093,0.005-0.15,0.015-0.174
		c0.01-0.022,0.038-0.058,0.084-0.104c0.146-0.126,0.409-0.362,0.789-0.71c0.38-0.347,0.656-0.59,0.828-0.729
		c0.04-0.033,0.137-0.11,0.293-0.232c0.155-0.123,0.27-0.215,0.342-0.277c0.073-0.063,0.178-0.158,0.317-0.283
		c0.139-0.126,0.248-0.238,0.327-0.337c0.08-0.099,0.166-0.213,0.258-0.342c0.092-0.129,0.164-0.261,0.213-0.397
		c0.049-0.135,0.084-0.273,0.104-0.412c0.046-0.377-0.023-0.711-0.208-1.002c-0.284-0.423-0.731-0.658-1.339-0.705
		c-0.291-0.02-0.542,0.013-0.754,0.099C243.169,40.145,242.848,40.621,242.643,41.388z"/>
</g>
<g>
	<path d="M256.024,47.759v-3.926c0-0.161,0.004-0.26,0.014-0.298c0.028-0.142,0.118-0.213,0.269-0.213
		c0.151,0,0.241,0.071,0.27,0.213c0.009,0.029,0.014,0.123,0.014,0.283v3.94h3.926c0.161,0,0.255,0.005,0.284,0.015
		c0.142,0.028,0.212,0.118,0.212,0.269c0,0.151-0.071,0.241-0.212,0.27c-0.028,0.01-0.123,0.015-0.284,0.015h-3.926v3.939
		c0,0.161-0.005,0.256-0.014,0.284c-0.028,0.142-0.118,0.212-0.27,0.212c-0.151,0-0.241-0.07-0.269-0.212
		c-0.01-0.028-0.014-0.123-0.014-0.284v-3.939h-3.94c-0.161,0-0.255-0.005-0.283-0.015c-0.142-0.028-0.213-0.118-0.213-0.27
		c0-0.15,0.071-0.24,0.213-0.269c0.028-0.01,0.123-0.015,0.283-0.015H256.024z"/>
</g>
<g>
	<path d="M268.028,46.866c0.075-0.189,0.274-0.444,0.595-0.766c0.746-0.746,1.568-1.119,2.466-1.119
		c-0.114,0.501-0.175,0.756-0.185,0.765c-0.019,0.028-0.104,0.043-0.255,0.043c-0.756,0.047-1.441,0.373-2.055,0.978
		c-0.35,0.331-0.605,0.732-0.766,1.205c-0.047,0.151-0.212,0.921-0.496,2.311l-0.241,1.091c-0.019,0.133-0.038,0.223-0.057,0.27
		c0,0.038-0.005,0.066-0.014,0.085c-0.01,0.019-0.026,0.033-0.05,0.042c-0.023,0.01-0.042,0.015-0.057,0.015s-0.042,0-0.085,0
		s-0.069,0-0.078,0h-0.638l1.417-6.689h0.85l-0.368,1.771H268.028z"/>
</g>
<g>
	<path d="M272.341,41.388c-0.04-0.033-0.091-0.089-0.154-0.168c-0.063-0.08-0.101-0.126-0.114-0.139
		c-0.073-0.086-0.109-0.139-0.109-0.159c-0.013-0.033,0-0.096,0.04-0.188c0.125-0.351,0.311-0.648,0.556-0.893
		c0.397-0.37,0.898-0.555,1.503-0.555c0.605,0,1.116,0.175,1.533,0.525c0.337,0.278,0.555,0.64,0.655,1.086
		c0.099,0.447,0.049,0.868-0.149,1.265c-0.073,0.132-0.152,0.258-0.238,0.377s-0.202,0.245-0.347,0.377s-0.251,0.227-0.317,0.283
		c-0.066,0.056-0.202,0.163-0.407,0.323c-0.205,0.158-0.321,0.248-0.347,0.268c-0.225,0.178-0.536,0.444-0.933,0.798
		c-0.397,0.354-0.688,0.607-0.873,0.76h3.661v0.585h-4.266v-0.367c0-0.093,0.005-0.15,0.015-0.174
		c0.01-0.022,0.038-0.058,0.084-0.104c0.146-0.126,0.409-0.362,0.789-0.71c0.38-0.347,0.656-0.59,0.828-0.729
		c0.04-0.033,0.137-0.11,0.293-0.232c0.155-0.123,0.27-0.215,0.342-0.277c0.073-0.063,0.178-0.158,0.317-0.283
		c0.139-0.126,0.248-0.238,0.327-0.337c0.08-0.099,0.166-0.213,0.258-0.342c0.092-0.129,0.164-0.261,0.213-0.397
		c0.049-0.135,0.084-0.273,0.104-0.412c0.046-0.377-0.023-0.711-0.208-1.002c-0.284-0.423-0.731-0.658-1.339-0.705
		c-0.291-0.02-0.542,0.013-0.754,0.099C272.867,40.145,272.546,40.621,272.341,41.388z"/>
</g>
<g>
	<path d="M284.697,41.948h0.894l-1.588,7.541c-0.227,1.039-0.378,1.743-0.453,2.111l-0.057,0.156
		c-0.123,0.019-0.421,0.028-0.893,0.028l0.212-1.034c-0.198,0.217-0.382,0.392-0.553,0.524c-0.368,0.283-0.763,0.472-1.183,0.566
		c-0.421,0.095-0.849,0.057-1.283-0.113c-0.454-0.227-0.785-0.619-0.992-1.177c-0.208-0.557-0.25-1.186-0.127-1.885
		c0.198-1.209,0.741-2.188,1.63-2.934c0.406-0.35,0.845-0.579,1.318-0.688c0.472-0.108,0.954-0.055,1.446,0.163
		c0.15,0.075,0.302,0.187,0.453,0.333c0.15,0.146,0.255,0.295,0.312,0.446h0.015L284.697,41.948z M283.563,46.271
		c-0.16-0.273-0.401-0.448-0.723-0.524c-0.321-0.075-0.638-0.073-0.949,0.008c-0.312,0.08-0.586,0.2-0.822,0.361
		c-0.841,0.52-1.347,1.436-1.517,2.749c-0.132,0.86,0.023,1.498,0.468,1.914c0.369,0.312,0.794,0.448,1.275,0.41
		c0.482-0.037,0.921-0.264,1.318-0.68c0.227-0.227,0.359-0.454,0.397-0.681c0.349-1.644,0.547-2.57,0.595-2.777
		c0.057-0.293,0.085-0.449,0.085-0.468C283.682,46.535,283.64,46.432,283.563,46.271z"/>
</g>
<g>
	<path d="M289.389,50.99c-0.02-0.132-0.057-0.273-0.113-0.425s-0.106-0.278-0.149-0.383c-0.042-0.104-0.115-0.253-0.22-0.446
		c-0.104-0.193-0.17-0.316-0.198-0.369c-0.028-0.052-0.108-0.186-0.241-0.403l-0.212-0.326c-0.133-0.208-0.218-0.34-0.256-0.396
		c-0.037-0.057-0.118-0.187-0.24-0.39c-0.123-0.203-0.206-0.346-0.248-0.426c-0.043-0.08-0.113-0.215-0.213-0.403
		c-0.1-0.189-0.165-0.338-0.198-0.447c-0.033-0.108-0.076-0.252-0.128-0.432s-0.085-0.336-0.099-0.468
		c-0.015-0.133-0.021-0.281-0.021-0.446c0-0.166,0.014-0.329,0.042-0.489c0.208-1.077,0.894-1.904,2.056-2.48
		c0.699-0.35,1.462-0.536,2.289-0.56c0.826-0.023,1.599,0.116,2.317,0.418c0.613,0.265,1.138,0.635,1.573,1.112
		c0.434,0.478,0.694,1.019,0.779,1.623c0.047,0.331,0.045,0.659-0.007,0.985c-0.053,0.325-0.171,0.676-0.354,1.049
		c-0.185,0.373-0.331,0.654-0.439,0.843c-0.109,0.189-0.3,0.491-0.574,0.907l-0.425,0.694c-0.388,0.605-0.624,1.158-0.709,1.658
		h2.692v0.794h-3.5c0-0.52,0.099-1.034,0.297-1.545c0.199-0.51,0.482-1.084,0.851-1.722c0.369-0.638,0.619-1.104,0.751-1.396
		c0.491-1.134,0.577-2.078,0.256-2.835c-0.066-0.17-0.161-0.34-0.284-0.51c-0.396-0.558-0.949-0.94-1.658-1.148
		c-0.708-0.208-1.431-0.26-2.168-0.156c-0.756,0.114-1.396,0.407-1.921,0.879c-0.524,0.472-0.814,1.054-0.871,1.743
		c-0.038,0.633,0.137,1.36,0.524,2.183c0.113,0.255,0.354,0.701,0.723,1.339s0.645,1.2,0.829,1.687
		c0.185,0.487,0.276,0.98,0.276,1.481h-3.501V50.99H289.389z"/>
</g>
<g>
	<path d="M297.621,41.388c-0.04-0.033-0.092-0.089-0.154-0.168c-0.062-0.08-0.101-0.126-0.114-0.139
		c-0.072-0.086-0.109-0.139-0.109-0.159c-0.013-0.033,0-0.096,0.04-0.188c0.126-0.351,0.311-0.648,0.556-0.893
		c0.396-0.37,0.897-0.555,1.503-0.555s1.116,0.175,1.533,0.525c0.337,0.278,0.556,0.64,0.654,1.086
		c0.1,0.447,0.05,0.868-0.148,1.265c-0.073,0.132-0.152,0.258-0.238,0.377s-0.202,0.245-0.347,0.377
		c-0.146,0.132-0.252,0.227-0.318,0.283c-0.065,0.056-0.201,0.163-0.406,0.323c-0.205,0.158-0.321,0.248-0.348,0.268
		c-0.225,0.178-0.535,0.444-0.933,0.798c-0.396,0.354-0.688,0.607-0.873,0.76h3.661v0.585h-4.266v-0.367
		c0-0.093,0.005-0.15,0.015-0.174c0.01-0.022,0.038-0.058,0.084-0.104c0.146-0.126,0.408-0.362,0.789-0.71
		c0.38-0.347,0.656-0.59,0.828-0.729c0.04-0.033,0.138-0.11,0.293-0.232c0.155-0.123,0.27-0.215,0.342-0.277
		c0.073-0.063,0.179-0.158,0.317-0.283c0.14-0.126,0.248-0.238,0.328-0.337c0.079-0.099,0.165-0.213,0.258-0.342
		s0.163-0.261,0.213-0.397c0.05-0.135,0.085-0.273,0.104-0.412c0.046-0.377-0.023-0.711-0.208-1.002
		c-0.285-0.423-0.731-0.658-1.34-0.705c-0.291-0.02-0.542,0.013-0.754,0.099C298.146,40.145,297.825,40.621,297.621,41.388z"/>
</g>
</svg>
