<?xml version="1.0" encoding="iso-8859-1"?>
<!-- Generator: Adobe Illustrator 16.0.0, SVG Export Plug-In . SVG Version: 6.00 Build 0)  -->
<!DOCTYPE svg PUBLIC "-//W3C//DTD SVG 1.1//EN" "http://www.w3.org/Graphics/SVG/1.1/DTD/svg11.dtd">
<svg version="1.1" id="Layer_1" xmlns="http://www.w3.org/2000/svg" xmlns:xlink="http://www.w3.org/1999/xlink" x="0px" y="0px"
	 width="566.929px" height="85.039px" viewBox="0 0 566.929 85.039" style="enable-background:new 0 0 566.929 85.039;"
	 xml:space="preserve">
<g>
	<path d="M28.38,41.876h0.992c-0.198,0.974-0.505,2.424-0.921,4.351h5.102c0.028,0,0.052-0.002,0.071-0.007s0.038-0.014,0.057-0.028
		c0.019-0.014,0.033-0.025,0.042-0.035c0.009-0.01,0.016-0.028,0.021-0.057s0.009-0.048,0.014-0.057
		c0.005-0.01,0.009-0.031,0.014-0.064c0.005-0.032,0.007-0.054,0.007-0.063l0.17-0.794c0.066-0.321,0.177-0.843,0.333-1.565
		c0.156-0.723,0.271-1.283,0.347-1.68h0.992c-0.009,0.057-0.34,1.625-0.992,4.706c-0.652,3.081-0.992,4.687-1.021,4.819
		c-0.019,0.142-0.042,0.231-0.071,0.269c-0.019,0.028-0.104,0.043-0.255,0.043h-0.737l1.006-4.733h-5.13l-0.114,0.028
		c-0.227,0.973-0.548,2.451-0.963,4.436l-0.071,0.241c-0.132,0.019-0.458,0.028-0.978,0.028L28.38,41.876z"/>
</g>
<g>
	<path d="M36.897,41.317c-0.04-0.033-0.091-0.089-0.154-0.168c-0.063-0.08-0.101-0.126-0.114-0.139
		c-0.073-0.086-0.109-0.139-0.109-0.159c-0.013-0.033,0-0.096,0.04-0.188c0.125-0.351,0.311-0.648,0.556-0.893
		c0.397-0.37,0.898-0.555,1.503-0.555c0.605,0,1.116,0.175,1.533,0.525c0.337,0.278,0.555,0.64,0.655,1.086
		c0.099,0.447,0.049,0.868-0.149,1.265c-0.073,0.132-0.152,0.258-0.238,0.377s-0.202,0.245-0.347,0.377s-0.251,0.227-0.317,0.283
		c-0.066,0.056-0.202,0.163-0.407,0.323c-0.205,0.158-0.321,0.248-0.347,0.268c-0.225,0.178-0.536,0.444-0.933,0.798
		c-0.397,0.354-0.688,0.607-0.873,0.76h3.661v0.585H36.59v-0.367c0-0.093,0.005-0.15,0.015-0.174
		c0.01-0.022,0.038-0.058,0.084-0.104c0.146-0.126,0.409-0.362,0.789-0.71c0.38-0.347,0.656-0.59,0.828-0.729
		c0.04-0.033,0.137-0.11,0.293-0.232c0.155-0.123,0.27-0.215,0.342-0.277c0.073-0.063,0.178-0.158,0.317-0.283
		c0.139-0.126,0.248-0.238,0.327-0.337c0.08-0.099,0.166-0.213,0.258-0.342c0.092-0.129,0.164-0.261,0.213-0.397
		c0.049-0.135,0.084-0.273,0.104-0.412c0.046-0.377-0.023-0.711-0.208-1.002c-0.284-0.423-0.731-0.658-1.339-0.705
		c-0.291-0.02-0.542,0.013-0.754,0.099C37.423,40.074,37.103,40.55,36.897,41.317z"/>
</g>
<g>
	<path d="M46.671,49.204c0.057-0.094,0.198-0.142,0.425-0.142h8.093h0.595c0.123,0.02,0.208,0.083,0.255,0.191
		s0.023,0.205-0.071,0.29c-0.057,0.058-0.156,0.086-0.297,0.086h-8.575c-0.142,0-0.227-0.005-0.255-0.015
		c-0.085-0.019-0.146-0.073-0.184-0.163C46.619,49.362,46.624,49.28,46.671,49.204z M46.841,46.327
		c0.019-0.01,0.099-0.015,0.241-0.015h8.122l0.297-0.014c0.199,0,0.298,0.005,0.298,0.014c0.113,0.02,0.191,0.085,0.234,0.199
		c0.042,0.113,0.021,0.208-0.064,0.283c-0.057,0.057-0.161,0.085-0.312,0.085h-8.519c-0.151,0-0.241-0.005-0.269-0.015
		c-0.151-0.028-0.229-0.115-0.234-0.262S46.7,46.365,46.841,46.327z"/>
</g>
<g>
	<path d="M64.269,41.876h0.992c-0.198,0.974-0.505,2.424-0.921,4.351h5.102c0.028,0,0.052-0.002,0.071-0.007
		s0.038-0.014,0.057-0.028c0.019-0.014,0.033-0.025,0.042-0.035c0.009-0.01,0.016-0.028,0.021-0.057s0.009-0.048,0.014-0.057
		c0.005-0.01,0.009-0.031,0.014-0.064c0.005-0.032,0.007-0.054,0.007-0.063l0.17-0.794c0.066-0.321,0.177-0.843,0.333-1.565
		c0.156-0.723,0.271-1.283,0.347-1.68h0.992c-0.009,0.057-0.34,1.625-0.992,4.706c-0.652,3.081-0.992,4.687-1.021,4.819
		c-0.019,0.142-0.042,0.231-0.071,0.269c-0.019,0.028-0.104,0.043-0.255,0.043h-0.737l1.006-4.733h-5.13l-0.114,0.028
		c-0.227,0.973-0.548,2.451-0.963,4.436l-0.071,0.241c-0.132,0.019-0.458,0.028-0.978,0.028L64.269,41.876z"/>
</g>
<g>
	<path d="M72.786,41.317c-0.04-0.033-0.091-0.089-0.154-0.168c-0.063-0.08-0.101-0.126-0.114-0.139
		c-0.073-0.086-0.109-0.139-0.109-0.159c-0.013-0.033,0-0.096,0.04-0.188c0.125-0.351,0.311-0.648,0.556-0.893
		c0.397-0.37,0.898-0.555,1.503-0.555c0.605,0,1.116,0.175,1.533,0.525c0.337,0.278,0.555,0.64,0.655,1.086
		c0.099,0.447,0.049,0.868-0.149,1.265c-0.073,0.132-0.152,0.258-0.238,0.377s-0.202,0.245-0.347,0.377s-0.251,0.227-0.317,0.283
		c-0.066,0.056-0.202,0.163-0.407,0.323c-0.205,0.158-0.321,0.248-0.347,0.268c-0.225,0.178-0.536,0.444-0.933,0.798
		c-0.397,0.354-0.688,0.607-0.873,0.76h3.661v0.585h-4.266v-0.367c0-0.093,0.005-0.15,0.015-0.174
		c0.01-0.022,0.038-0.058,0.084-0.104c0.146-0.126,0.409-0.362,0.789-0.71c0.38-0.347,0.656-0.59,0.828-0.729
		c0.04-0.033,0.137-0.11,0.293-0.232c0.155-0.123,0.27-0.215,0.342-0.277c0.073-0.063,0.178-0.158,0.317-0.283
		c0.139-0.126,0.248-0.238,0.327-0.337c0.08-0.099,0.166-0.213,0.258-0.342c0.092-0.129,0.164-0.261,0.213-0.397
		c0.049-0.135,0.084-0.273,0.104-0.412c0.046-0.377-0.023-0.711-0.208-1.002c-0.284-0.423-0.731-0.658-1.339-0.705
		c-0.291-0.02-0.542,0.013-0.754,0.099C73.312,40.074,72.991,40.55,72.786,41.317z"/>
</g>
<g>
	<path d="M73.919,48.579c0.271-0.026,0.544,0.012,0.819,0.114c0.274,0.103,0.504,0.25,0.689,0.441
		c0.516,0.536,0.774,1.433,0.774,2.689c0,0.893-0.08,1.58-0.238,2.063c-0.304,0.886-0.863,1.375-1.677,1.468
		c-0.675,0.066-1.23-0.139-1.667-0.615c-0.47-0.522-0.705-1.432-0.705-2.728c0-0.88,0.092-1.564,0.278-2.054
		c0.125-0.312,0.276-0.566,0.451-0.765s0.402-0.356,0.68-0.476C73.456,48.666,73.654,48.619,73.919,48.579z M75.08,49.571
		c-0.179-0.218-0.409-0.361-0.69-0.432c-0.281-0.069-0.561-0.051-0.838,0.055c-0.364,0.173-0.612,0.434-0.744,0.784
		c-0.126,0.311-0.195,0.725-0.208,1.24c0,0.039-0.002,0.098-0.005,0.174c-0.003,0.076-0.005,0.134-0.005,0.173v0.486
		c0,0.774,0.062,1.356,0.188,1.746c0.085,0.252,0.178,0.44,0.278,0.565c0.277,0.351,0.641,0.51,1.091,0.477
		c0.827-0.066,1.28-0.761,1.359-2.084c0.013-0.185,0.02-0.32,0.02-0.406v-0.525c0-0.86-0.069-1.466-0.208-1.816
		C75.245,49.823,75.166,49.678,75.08,49.571z"/>
</g>
<g>
	<path d="M83.047,39.365h2.754v0.574h-2.18v16.05h2.18v0.573h-2.754V39.365z"/>
</g>
<g>
	<path d="M89.486,50.919c-0.019-0.132-0.057-0.273-0.113-0.425s-0.106-0.278-0.149-0.383c-0.042-0.104-0.116-0.253-0.22-0.446
		s-0.17-0.316-0.198-0.369c-0.028-0.052-0.109-0.186-0.241-0.403l-0.213-0.326c-0.132-0.208-0.217-0.34-0.255-0.396
		c-0.038-0.057-0.118-0.187-0.241-0.39c-0.123-0.203-0.206-0.346-0.248-0.426s-0.113-0.215-0.212-0.403
		c-0.099-0.189-0.166-0.338-0.198-0.447c-0.034-0.108-0.076-0.252-0.128-0.432s-0.085-0.336-0.099-0.468
		c-0.014-0.133-0.021-0.281-0.021-0.446c0-0.166,0.014-0.329,0.042-0.489c0.208-1.077,0.893-1.904,2.055-2.48
		c0.699-0.35,1.462-0.536,2.289-0.56c0.827-0.023,1.599,0.116,2.317,0.418c0.614,0.265,1.139,0.635,1.573,1.112
		c0.435,0.478,0.694,1.019,0.78,1.623c0.047,0.331,0.044,0.659-0.007,0.985c-0.052,0.325-0.17,0.676-0.354,1.049
		c-0.184,0.373-0.331,0.654-0.439,0.843c-0.109,0.189-0.3,0.491-0.574,0.907l-0.425,0.694c-0.387,0.605-0.624,1.158-0.708,1.658
		h2.693v0.794h-3.501c0-0.52,0.1-1.034,0.298-1.545c0.198-0.51,0.482-1.084,0.851-1.722c0.368-0.638,0.619-1.104,0.751-1.396
		c0.491-1.134,0.576-2.078,0.255-2.835c-0.066-0.17-0.161-0.34-0.283-0.51c-0.397-0.558-0.95-0.94-1.658-1.148
		c-0.709-0.208-1.432-0.26-2.168-0.156c-0.756,0.114-1.396,0.407-1.92,0.878c-0.524,0.473-0.815,1.055-0.872,1.744
		c-0.038,0.633,0.137,1.36,0.524,2.183c0.114,0.255,0.354,0.701,0.723,1.339c0.368,0.638,0.645,1.2,0.829,1.687
		c0.184,0.487,0.276,0.98,0.276,1.481h-3.501v-0.794H89.486z"/>
</g>
<g>
	<path d="M99.137,50.118c0.079-0.146,0.191-0.284,0.337-0.416c0.344-0.345,0.725-0.546,1.141-0.605
		c0.099-0.02,0.251-0.023,0.457-0.01c0.397,0.026,0.678,0.152,0.843,0.377c0.112,0.165,0.168,0.394,0.168,0.685
		c0.146-0.252,0.357-0.478,0.635-0.68s0.565-0.326,0.863-0.372c0.1-0.02,0.251-0.023,0.457-0.01c0.45,0.039,0.748,0.191,0.893,0.456
		c0.132,0.245,0.142,0.642,0.03,1.19l-0.447,2.063c-0.093,0.49-0.159,0.801-0.198,0.933c0,0.073-0.053,0.109-0.159,0.109
		c-0.02,0-0.033,0-0.04,0h-0.496c0.357-1.693,0.565-2.669,0.625-2.927c0.006-0.026,0.018-0.076,0.035-0.148
		c0.017-0.073,0.028-0.128,0.035-0.164c0.006-0.036,0.013-0.088,0.02-0.153c0.006-0.066,0.008-0.121,0.005-0.164
		c-0.003-0.043-0.01-0.093-0.02-0.149c-0.01-0.056-0.028-0.107-0.055-0.153c-0.099-0.191-0.288-0.308-0.565-0.348
		c-0.238-0.039-0.433-0.043-0.585-0.01c-0.265,0.066-0.498,0.215-0.699,0.446c-0.202,0.232-0.349,0.493-0.441,0.784
		c-0.014,0.047-0.063,0.27-0.149,0.67s-0.179,0.825-0.278,1.274c-0.099,0.45-0.152,0.698-0.159,0.744
		c-0.013,0.079-0.026,0.146-0.04,0.198c0,0.027-0.003,0.047-0.01,0.06c-0.006,0.014-0.02,0.023-0.04,0.03s-0.037,0.01-0.049,0.01
		c-0.014,0-0.035,0-0.065,0s-0.048,0-0.054,0h-0.477c0.357-1.693,0.566-2.669,0.625-2.927c0.007-0.026,0.019-0.076,0.035-0.148
		c0.016-0.073,0.028-0.128,0.035-0.164c0.006-0.036,0.013-0.088,0.02-0.153c0.007-0.066,0.008-0.121,0.005-0.164
		c-0.003-0.043-0.01-0.093-0.02-0.149c-0.01-0.056-0.028-0.107-0.055-0.153c-0.099-0.191-0.288-0.308-0.565-0.348
		c-0.238-0.039-0.433-0.043-0.585-0.01c-0.265,0.066-0.498,0.215-0.699,0.446c-0.202,0.232-0.349,0.493-0.441,0.784
		c-0.014,0.047-0.063,0.27-0.149,0.67s-0.179,0.825-0.278,1.274c-0.099,0.45-0.152,0.698-0.159,0.744
		c-0.014,0.079-0.027,0.146-0.04,0.198c0,0.027-0.003,0.047-0.01,0.06c-0.007,0.014-0.02,0.023-0.04,0.03
		c-0.02,0.007-0.037,0.01-0.05,0.01s-0.035,0-0.064,0s-0.048,0-0.055,0h-0.476l0.992-4.683h0.645l-0.199,0.962H99.137z"/>
</g>
<g>
	<path d="M108.253,46.242c0.009-0.123,0.033-0.307,0.071-0.553c0-0.113,0.014-0.189,0.042-0.227
		c0.028-0.028,0.108-0.071,0.241-0.128c0.274-0.132,0.649-0.253,1.127-0.361c0.477-0.108,0.905-0.148,1.283-0.12
		c0.463,0.047,0.845,0.207,1.148,0.481c0.397,0.388,0.571,0.897,0.524,1.53c-0.01,0.066-0.066,0.343-0.17,0.829
		c-0.104,0.487-0.215,1.005-0.333,1.553s-0.182,0.85-0.191,0.907c0,0.009-0.021,0.113-0.064,0.312s-0.087,0.411-0.135,0.638
		s-0.08,0.378-0.099,0.453c0,0.104-0.071,0.156-0.212,0.156c-0.028,0-0.047,0-0.057,0h-0.652l0.213-0.992
		c-0.529,0.567-1.262,0.917-2.197,1.049c-0.492,0.075-0.884,0.062-1.177-0.042c-0.35-0.161-0.564-0.463-0.645-0.907
		c-0.081-0.444-0.031-0.822,0.148-1.134c0.435-0.851,1.465-1.398,3.09-1.645c0.094-0.009,0.199-0.019,0.312-0.028
		s0.236-0.019,0.368-0.028s0.236-0.019,0.312-0.028h0.227c0.114,0,0.17-0.071,0.17-0.213c0.009-0.047,0.03-0.139,0.063-0.276
		c0.033-0.137,0.062-0.267,0.085-0.39c0.023-0.122,0.035-0.227,0.035-0.312c0.009-0.283-0.057-0.541-0.198-0.772
		s-0.335-0.381-0.581-0.446c-0.066-0.02-0.232-0.028-0.496-0.028c-0.539,0-1.073,0.127-1.602,0.383
		c-0.076,0.037-0.185,0.097-0.326,0.177S108.329,46.214,108.253,46.242z M111.471,48.382c-1.333,0-2.348,0.274-3.047,0.822
		c-0.227,0.18-0.397,0.397-0.51,0.652s-0.113,0.496,0,0.723c0.151,0.293,0.458,0.468,0.921,0.524
		c0.377,0.047,0.758,0.005,1.141-0.128c0.383-0.132,0.688-0.34,0.914-0.623c0.151-0.189,0.274-0.52,0.369-0.992L111.471,48.382z"/>
</g>
<g>
	<path d="M114.096,43.044c0.013-0.007,0.069-0.01,0.168-0.01h5.308h0.387c0.086,0.013,0.142,0.063,0.169,0.149
		c0.026,0.086,0.01,0.159-0.05,0.218c-0.046,0.04-0.182,0.061-0.407,0.061h-5.427c-0.093,0-0.149-0.004-0.169-0.01
		c-0.106-0.033-0.154-0.104-0.144-0.209C113.942,43.137,113.997,43.07,114.096,43.044z"/>
</g>
<g>
	<path d="M121.928,40.841c-0.205-0.271-0.308-0.423-0.308-0.457c0-0.033,0.062-0.129,0.188-0.288
		c0.218-0.251,0.496-0.463,0.833-0.635c0.317-0.152,0.656-0.233,1.017-0.243c0.36-0.01,0.703,0.058,1.027,0.203
		c0.509,0.251,0.807,0.599,0.893,1.042c0.066,0.39-0.02,0.767-0.258,1.131c-0.159,0.231-0.357,0.423-0.596,0.575
		c-0.026,0.02-0.079,0.05-0.159,0.089c-0.079,0.04-0.139,0.073-0.178,0.1c0.145,0.02,0.333,0.092,0.565,0.218
		c0.344,0.192,0.605,0.459,0.784,0.803c0.132,0.298,0.179,0.597,0.139,0.898c-0.04,0.301-0.152,0.583-0.337,0.848
		c-0.046,0.066-0.126,0.155-0.238,0.269c-0.311,0.304-0.694,0.495-1.151,0.575c-0.457,0.079-0.886,0.05-1.29-0.09
		c-0.51-0.151-0.946-0.437-1.31-0.853c-0.053-0.066-0.082-0.107-0.084-0.124c-0.003-0.017,0.001-0.064,0.015-0.145
		c0.033-0.211,0.06-0.337,0.08-0.377c0.502,0.662,1.157,1.022,1.964,1.082c0.489,0.046,0.89-0.066,1.2-0.338
		c0.271-0.225,0.427-0.53,0.466-0.918c0.04-0.387-0.043-0.723-0.248-1.006c-0.172-0.239-0.407-0.407-0.704-0.507
		c-0.166-0.053-0.417-0.079-0.754-0.079h-0.705v-0.526c0.06,0,0.146-0.005,0.258-0.015c0.112-0.01,0.195-0.018,0.248-0.024
		c0.258-0.013,0.47-0.046,0.635-0.1c0.284-0.092,0.522-0.254,0.714-0.486c0.191-0.231,0.288-0.489,0.288-0.774
		c0-0.542-0.341-0.853-1.022-0.933c-0.615-0.066-1.147,0.126-1.597,0.576c-0.126,0.125-0.248,0.294-0.367,0.506H121.928z"/>
</g>
<g>
	<path d="M135.229,47.688v-3.926c0-0.16,0.004-0.26,0.014-0.298c0.028-0.142,0.118-0.212,0.269-0.212c0.151,0,0.241,0.07,0.27,0.212
		c0.009,0.028,0.014,0.123,0.014,0.283v3.94h3.926c0.161,0,0.255,0.005,0.284,0.015c0.142,0.028,0.212,0.118,0.212,0.269
		c0,0.151-0.071,0.241-0.212,0.27c-0.028,0.01-0.123,0.015-0.284,0.015h-3.926v3.939c0,0.161-0.005,0.256-0.014,0.284
		c-0.028,0.142-0.118,0.212-0.27,0.212c-0.151,0-0.241-0.07-0.269-0.212c-0.01-0.028-0.014-0.123-0.014-0.284v-3.939h-3.94
		c-0.161,0-0.255-0.005-0.283-0.015c-0.142-0.028-0.213-0.118-0.213-0.27c0-0.15,0.071-0.24,0.213-0.269
		c0.028-0.01,0.123-0.015,0.283-0.015H135.229z"/>
	<path d="M147.517,50.919c-0.019-0.132-0.057-0.273-0.113-0.425s-0.106-0.278-0.149-0.383c-0.042-0.104-0.116-0.253-0.22-0.446
		s-0.17-0.316-0.198-0.369c-0.028-0.052-0.109-0.186-0.241-0.403l-0.213-0.326c-0.132-0.208-0.217-0.34-0.255-0.396
		c-0.038-0.057-0.118-0.187-0.241-0.39c-0.123-0.203-0.206-0.346-0.248-0.426s-0.113-0.215-0.212-0.403
		c-0.099-0.189-0.166-0.338-0.198-0.447c-0.034-0.108-0.076-0.252-0.128-0.432s-0.085-0.336-0.099-0.468
		c-0.014-0.133-0.021-0.281-0.021-0.446c0-0.166,0.014-0.329,0.042-0.489c0.208-1.077,0.893-1.904,2.055-2.48
		c0.699-0.35,1.462-0.536,2.289-0.56c0.827-0.023,1.599,0.116,2.317,0.418c0.614,0.265,1.139,0.635,1.573,1.112
		c0.435,0.478,0.694,1.019,0.78,1.623c0.047,0.331,0.044,0.659-0.007,0.985c-0.052,0.325-0.17,0.676-0.354,1.049
		c-0.184,0.373-0.331,0.654-0.439,0.843c-0.109,0.189-0.3,0.491-0.574,0.907l-0.425,0.694c-0.387,0.605-0.624,1.158-0.708,1.658
		h2.693v0.794h-3.501c0-0.52,0.1-1.034,0.298-1.545c0.198-0.51,0.482-1.084,0.851-1.722c0.368-0.638,0.619-1.104,0.751-1.396
		c0.491-1.134,0.576-2.078,0.255-2.835c-0.066-0.17-0.161-0.34-0.283-0.51c-0.397-0.558-0.95-0.94-1.658-1.148
		c-0.709-0.208-1.432-0.26-2.168-0.156c-0.756,0.114-1.396,0.407-1.92,0.878c-0.524,0.473-0.815,1.055-0.872,1.744
		c-0.038,0.633,0.137,1.36,0.524,2.183c0.114,0.255,0.354,0.701,0.723,1.339c0.368,0.638,0.645,1.2,0.829,1.687
		c0.184,0.487,0.276,0.98,0.276,1.481h-3.501v-0.794H147.517z"/>
</g>
<g>
	<path d="M157.112,50.366c0.1-0.185,0.261-0.377,0.486-0.575c0.522-0.477,1.088-0.714,1.697-0.714
		c-0.066,0.356-0.109,0.549-0.129,0.575c-0.02,0.02-0.083,0.029-0.188,0.029c-0.43,0.026-0.83,0.174-1.2,0.441
		c-0.371,0.269-0.628,0.584-0.774,0.948c-0.026,0.072-0.093,0.344-0.198,0.813c-0.007,0.02-0.073,0.329-0.199,0.928
		s-0.192,0.907-0.198,0.927c0,0.027-0.003,0.047-0.01,0.06c-0.006,0.014-0.02,0.023-0.04,0.03c-0.02,0.007-0.035,0.01-0.044,0.01
		c-0.01,0-0.03,0-0.06,0s-0.048,0-0.055,0h-0.466l0.992-4.683h0.625l-0.248,1.21H157.112z"/>
</g>
<g>
	<path d="M162.482,46.242c0.009-0.123,0.033-0.307,0.071-0.553c0-0.113,0.014-0.189,0.042-0.227
		c0.028-0.028,0.108-0.071,0.241-0.128c0.274-0.132,0.649-0.253,1.127-0.361c0.477-0.108,0.905-0.148,1.283-0.12
		c0.463,0.047,0.845,0.207,1.148,0.481c0.397,0.388,0.571,0.897,0.524,1.53c-0.01,0.066-0.066,0.343-0.17,0.829
		c-0.104,0.487-0.215,1.005-0.333,1.553s-0.182,0.85-0.191,0.907c0,0.009-0.021,0.113-0.064,0.312s-0.087,0.411-0.135,0.638
		s-0.08,0.378-0.099,0.453c0,0.104-0.071,0.156-0.212,0.156c-0.028,0-0.047,0-0.057,0h-0.652l0.213-0.992
		c-0.529,0.567-1.262,0.917-2.197,1.049c-0.492,0.075-0.884,0.062-1.177-0.042c-0.35-0.161-0.564-0.463-0.645-0.907
		c-0.081-0.444-0.031-0.822,0.148-1.134c0.435-0.851,1.465-1.398,3.09-1.645c0.094-0.009,0.199-0.019,0.312-0.028
		s0.236-0.019,0.368-0.028s0.236-0.019,0.312-0.028h0.227c0.114,0,0.17-0.071,0.17-0.213c0.009-0.047,0.03-0.139,0.063-0.276
		c0.033-0.137,0.062-0.267,0.085-0.39c0.023-0.122,0.035-0.227,0.035-0.312c0.009-0.283-0.057-0.541-0.198-0.772
		s-0.335-0.381-0.581-0.446c-0.066-0.02-0.232-0.028-0.496-0.028c-0.539,0-1.073,0.127-1.602,0.383
		c-0.076,0.037-0.185,0.097-0.326,0.177S162.558,46.214,162.482,46.242z M165.7,48.382c-1.333,0-2.348,0.274-3.047,0.822
		c-0.227,0.18-0.397,0.397-0.51,0.652s-0.113,0.496,0,0.723c0.151,0.293,0.458,0.468,0.921,0.524
		c0.377,0.047,0.758,0.005,1.141-0.128c0.383-0.132,0.688-0.34,0.914-0.623c0.151-0.189,0.274-0.52,0.369-0.992L165.7,48.382z"/>
</g>
<g>
	<path d="M168.325,43.044c0.013-0.007,0.069-0.01,0.168-0.01h5.308h0.387c0.086,0.013,0.142,0.063,0.169,0.149
		c0.026,0.086,0.01,0.159-0.05,0.218c-0.046,0.04-0.182,0.061-0.407,0.061h-5.427c-0.093,0-0.149-0.004-0.169-0.01
		c-0.106-0.033-0.154-0.104-0.144-0.209C168.171,43.137,168.226,43.07,168.325,43.044z"/>
</g>
<g>
	<path d="M175.532,44.085v-0.366c0-0.139,0.03-0.248,0.089-0.328c0.066-0.105,0.278-0.426,0.635-0.962l1.28-1.955
		c0.317-0.463,0.549-0.813,0.694-1.052l0.089-0.119c0.02-0.013,0.096-0.02,0.228-0.02h0.566v4.246h1.161v0.556h-1.161v1.776h-0.635
		v-1.776H175.532z M178.508,39.879l-0.218,0.407l-1.27,2.004l-0.803,1.24h2.292V39.879z"/>
</g>
<g>
	<path d="M189.458,47.688v-3.926c0-0.16,0.004-0.26,0.014-0.298c0.028-0.142,0.118-0.212,0.269-0.212c0.151,0,0.241,0.07,0.27,0.212
		c0.009,0.028,0.014,0.123,0.014,0.283v3.94h3.926c0.161,0,0.255,0.005,0.284,0.015c0.142,0.028,0.212,0.118,0.212,0.269
		c0,0.151-0.071,0.241-0.212,0.27c-0.028,0.01-0.123,0.015-0.284,0.015h-3.926v3.939c0,0.161-0.005,0.256-0.014,0.284
		c-0.028,0.142-0.118,0.212-0.27,0.212c-0.151,0-0.241-0.07-0.269-0.212c-0.01-0.028-0.014-0.123-0.014-0.284v-3.939h-3.94
		c-0.161,0-0.255-0.005-0.283-0.015c-0.142-0.028-0.213-0.118-0.213-0.27c0-0.15,0.071-0.24,0.213-0.269
		c0.028-0.01,0.123-0.015,0.283-0.015H189.458z"/>
	<path d="M201.746,50.919c-0.019-0.132-0.057-0.273-0.113-0.425s-0.106-0.278-0.149-0.383c-0.042-0.104-0.116-0.253-0.22-0.446
		s-0.17-0.316-0.198-0.369c-0.028-0.052-0.109-0.186-0.241-0.403l-0.213-0.326c-0.132-0.208-0.217-0.34-0.255-0.396
		c-0.038-0.057-0.118-0.187-0.241-0.39c-0.123-0.203-0.206-0.346-0.248-0.426s-0.113-0.215-0.212-0.403
		c-0.099-0.189-0.166-0.338-0.198-0.447c-0.034-0.108-0.076-0.252-0.128-0.432s-0.085-0.336-0.099-0.468
		c-0.014-0.133-0.021-0.281-0.021-0.446c0-0.166,0.014-0.329,0.042-0.489c0.208-1.077,0.893-1.904,2.055-2.48
		c0.699-0.35,1.462-0.536,2.289-0.56c0.827-0.023,1.599,0.116,2.317,0.418c0.614,0.265,1.139,0.635,1.573,1.112
		c0.435,0.478,0.694,1.019,0.78,1.623c0.047,0.331,0.044,0.659-0.007,0.985c-0.052,0.325-0.17,0.676-0.354,1.049
		c-0.184,0.373-0.331,0.654-0.439,0.843c-0.109,0.189-0.3,0.491-0.574,0.907l-0.425,0.694c-0.387,0.605-0.624,1.158-0.708,1.658
		h2.693v0.794h-3.501c0-0.52,0.1-1.034,0.298-1.545c0.198-0.51,0.482-1.084,0.851-1.722c0.368-0.638,0.619-1.104,0.751-1.396
		c0.491-1.134,0.576-2.078,0.255-2.835c-0.066-0.17-0.161-0.34-0.283-0.51c-0.397-0.558-0.95-0.94-1.658-1.148
		c-0.709-0.208-1.432-0.26-2.168-0.156c-0.756,0.114-1.396,0.407-1.92,0.878c-0.524,0.473-0.815,1.055-0.872,1.744
		c-0.038,0.633,0.137,1.36,0.524,2.183c0.114,0.255,0.354,0.701,0.723,1.339c0.368,0.638,0.645,1.2,0.829,1.687
		c0.184,0.487,0.276,0.98,0.276,1.481h-3.501v-0.794H201.746z"/>
</g>
<g>
	<path d="M211.451,46.953h0.605l-0.942,4.455l2.5-2.034l0.268-0.208c0.172-0.007,0.44-0.01,0.804-0.01v0.01l-1.994,1.617
		l-0.159,0.148c0.033,0.106,0.094,0.243,0.184,0.412c0.089,0.169,0.147,0.286,0.173,0.353l1.042,2.143
		c-0.371,0-0.602-0.007-0.695-0.02c-0.132-0.238-0.266-0.493-0.402-0.765c-0.135-0.271-0.286-0.58-0.451-0.927
		c-0.166-0.348-0.291-0.61-0.377-0.789c-0.073,0.06-0.172,0.143-0.298,0.248s-0.241,0.202-0.347,0.287
		c-0.106,0.087-0.208,0.166-0.308,0.238l-0.109,0.109c-0.086,0.317-0.195,0.813-0.328,1.488l-0.04,0.109
		c-0.073,0.013-0.268,0.02-0.585,0.02L211.451,46.953z"/>
</g>
<g>
	<path d="M217.89,46.242c0.009-0.123,0.033-0.307,0.071-0.553c0-0.113,0.014-0.189,0.042-0.227c0.028-0.028,0.108-0.071,0.241-0.128
		c0.274-0.132,0.649-0.253,1.127-0.361c0.477-0.108,0.905-0.148,1.283-0.12c0.463,0.047,0.845,0.207,1.148,0.481
		c0.397,0.388,0.571,0.897,0.524,1.53c-0.01,0.066-0.066,0.343-0.17,0.829c-0.104,0.487-0.215,1.005-0.333,1.553
		s-0.182,0.85-0.191,0.907c0,0.009-0.021,0.113-0.064,0.312s-0.087,0.411-0.135,0.638s-0.08,0.378-0.099,0.453
		c0,0.104-0.071,0.156-0.212,0.156c-0.028,0-0.047,0-0.057,0h-0.652l0.213-0.992c-0.529,0.567-1.262,0.917-2.197,1.049
		c-0.492,0.075-0.884,0.062-1.177-0.042c-0.35-0.161-0.564-0.463-0.645-0.907c-0.081-0.444-0.031-0.822,0.148-1.134
		c0.435-0.851,1.465-1.398,3.09-1.645c0.094-0.009,0.199-0.019,0.312-0.028s0.236-0.019,0.368-0.028s0.236-0.019,0.312-0.028h0.227
		c0.114,0,0.17-0.071,0.17-0.213c0.009-0.047,0.03-0.139,0.063-0.276c0.033-0.137,0.062-0.267,0.085-0.39
		c0.023-0.122,0.035-0.227,0.035-0.312c0.009-0.283-0.057-0.541-0.198-0.772s-0.335-0.381-0.581-0.446
		c-0.066-0.02-0.232-0.028-0.496-0.028c-0.539,0-1.073,0.127-1.602,0.383c-0.076,0.037-0.185,0.097-0.326,0.177
		S217.965,46.214,217.89,46.242z M221.107,48.382c-1.333,0-2.348,0.274-3.047,0.822c-0.227,0.18-0.397,0.397-0.51,0.652
		s-0.113,0.496,0,0.723c0.151,0.293,0.458,0.468,0.921,0.524c0.377,0.047,0.758,0.005,1.141-0.128
		c0.383-0.132,0.688-0.34,0.914-0.623c0.151-0.189,0.274-0.52,0.369-0.992L221.107,48.382z"/>
</g>
<g>
	<path d="M223.733,43.044c0.013-0.007,0.069-0.01,0.168-0.01h5.308h0.387c0.086,0.013,0.142,0.063,0.169,0.149
		c0.026,0.086,0.01,0.159-0.05,0.218c-0.046,0.04-0.182,0.061-0.407,0.061h-5.427c-0.093,0-0.149-0.004-0.169-0.01
		c-0.106-0.033-0.154-0.104-0.144-0.209C223.579,43.137,223.634,43.07,223.733,43.044z"/>
</g>
<g>
	<path d="M231.485,41.317c-0.04-0.033-0.091-0.089-0.154-0.168c-0.063-0.08-0.101-0.126-0.114-0.139
		c-0.073-0.086-0.109-0.139-0.109-0.159c-0.013-0.033,0-0.096,0.04-0.188c0.125-0.351,0.311-0.648,0.556-0.893
		c0.397-0.37,0.898-0.555,1.503-0.555c0.605,0,1.116,0.175,1.533,0.525c0.337,0.278,0.555,0.64,0.655,1.086
		c0.099,0.447,0.049,0.868-0.149,1.265c-0.073,0.132-0.152,0.258-0.238,0.377s-0.202,0.245-0.347,0.377s-0.251,0.227-0.317,0.283
		c-0.066,0.056-0.202,0.163-0.407,0.323c-0.205,0.158-0.321,0.248-0.347,0.268c-0.225,0.178-0.536,0.444-0.933,0.798
		c-0.397,0.354-0.688,0.607-0.873,0.76h3.661v0.585h-4.266v-0.367c0-0.093,0.005-0.15,0.015-0.174
		c0.01-0.022,0.038-0.058,0.084-0.104c0.146-0.126,0.409-0.362,0.789-0.71c0.38-0.347,0.656-0.59,0.828-0.729
		c0.04-0.033,0.137-0.11,0.293-0.232c0.155-0.123,0.27-0.215,0.342-0.277c0.073-0.063,0.178-0.158,0.317-0.283
		c0.139-0.126,0.248-0.238,0.327-0.337c0.08-0.099,0.166-0.213,0.258-0.342c0.092-0.129,0.164-0.261,0.213-0.397
		c0.049-0.135,0.084-0.273,0.104-0.412c0.046-0.377-0.023-0.711-0.208-1.002c-0.284-0.423-0.731-0.658-1.339-0.705
		c-0.291-0.02-0.542,0.013-0.754,0.099C232.011,40.074,231.69,40.55,231.485,41.317z"/>
</g>
<g>
	<path d="M244.866,47.688v-3.926c0-0.16,0.004-0.26,0.014-0.298c0.028-0.142,0.118-0.212,0.269-0.212c0.151,0,0.241,0.07,0.27,0.212
		c0.009,0.028,0.014,0.123,0.014,0.283v3.94h3.926c0.161,0,0.255,0.005,0.284,0.015c0.142,0.028,0.212,0.118,0.212,0.269
		c0,0.151-0.071,0.241-0.212,0.27c-0.028,0.01-0.123,0.015-0.284,0.015h-3.926v3.939c0,0.161-0.005,0.256-0.014,0.284
		c-0.028,0.142-0.118,0.212-0.27,0.212c-0.151,0-0.241-0.07-0.269-0.212c-0.01-0.028-0.014-0.123-0.014-0.284v-3.939h-3.94
		c-0.161,0-0.255-0.005-0.283-0.015c-0.142-0.028-0.213-0.118-0.213-0.27c0-0.15,0.071-0.24,0.213-0.269
		c0.028-0.01,0.123-0.015,0.283-0.015H244.866z"/>
	<path d="M257.154,50.919c-0.019-0.132-0.057-0.273-0.113-0.425s-0.106-0.278-0.149-0.383c-0.042-0.104-0.116-0.253-0.22-0.446
		s-0.17-0.316-0.198-0.369c-0.028-0.052-0.109-0.186-0.241-0.403l-0.213-0.326c-0.132-0.208-0.217-0.34-0.255-0.396
		c-0.038-0.057-0.118-0.187-0.241-0.39c-0.123-0.203-0.206-0.346-0.248-0.426s-0.113-0.215-0.212-0.403
		c-0.099-0.189-0.166-0.338-0.198-0.447c-0.034-0.108-0.076-0.252-0.128-0.432s-0.085-0.336-0.099-0.468
		c-0.014-0.133-0.021-0.281-0.021-0.446c0-0.166,0.014-0.329,0.042-0.489c0.208-1.077,0.893-1.904,2.055-2.48
		c0.699-0.35,1.462-0.536,2.289-0.56c0.827-0.023,1.599,0.116,2.317,0.418c0.614,0.265,1.139,0.635,1.573,1.112
		c0.435,0.478,0.694,1.019,0.78,1.623c0.047,0.331,0.044,0.659-0.007,0.985c-0.052,0.325-0.17,0.676-0.354,1.049
		c-0.184,0.373-0.331,0.654-0.439,0.843c-0.109,0.189-0.3,0.491-0.574,0.907l-0.425,0.694c-0.387,0.605-0.624,1.158-0.708,1.658
		h2.693v0.794h-3.501c0-0.52,0.1-1.034,0.298-1.545c0.198-0.51,0.482-1.084,0.851-1.722c0.368-0.638,0.619-1.104,0.751-1.396
		c0.491-1.134,0.576-2.078,0.255-2.835c-0.066-0.17-0.161-0.34-0.283-0.51c-0.397-0.558-0.95-0.94-1.658-1.148
		c-0.709-0.208-1.432-0.26-2.168-0.156c-0.756,0.114-1.396,0.407-1.92,0.878c-0.524,0.473-0.815,1.055-0.872,1.744
		c-0.038,0.633,0.137,1.36,0.524,2.183c0.114,0.255,0.354,0.701,0.723,1.339c0.368,0.638,0.645,1.2,0.829,1.687
		c0.184,0.487,0.276,0.98,0.276,1.481h-3.501v-0.794H257.154z"/>
</g>
<g>
	<path d="M264.855,53.839c0.013-0.046,0.415-1.19,1.205-3.433s1.196-3.387,1.215-3.433c0.007-0.026,0.015-0.048,0.025-0.064
		s0.025-0.028,0.045-0.035c0.02-0.007,0.036-0.01,0.049-0.01s0.038,0,0.075,0c0.036,0,0.061,0,0.074,0h0.347
		c0.112,0,0.175,0.007,0.188,0.02c0.02,0.007,0.073,0.14,0.159,0.397l0.397,1.131l1.707,4.821c0.125,0.371,0.195,0.572,0.208,0.605
		h-0.545c-0.113,0-0.175-0.01-0.188-0.029c-0.02-0.021-0.086-0.199-0.199-0.536l-0.446-1.25l-1.032-2.967
		c-0.026-0.079-0.099-0.289-0.218-0.63s-0.202-0.606-0.248-0.799h-0.01c-0.265,0.813-0.962,2.841-2.094,6.082l-0.059,0.109
		l-0.188,0.02H264.855z"/>
</g>
<g>
	<path d="M273.752,46.242c0.009-0.123,0.033-0.307,0.071-0.553c0-0.113,0.014-0.189,0.042-0.227
		c0.028-0.028,0.108-0.071,0.241-0.128c0.274-0.132,0.649-0.253,1.127-0.361c0.477-0.108,0.905-0.148,1.283-0.12
		c0.463,0.047,0.845,0.207,1.148,0.481c0.397,0.388,0.571,0.897,0.524,1.53c-0.01,0.066-0.066,0.343-0.17,0.829
		c-0.104,0.487-0.215,1.005-0.333,1.553s-0.182,0.85-0.191,0.907c0,0.009-0.021,0.113-0.064,0.312s-0.087,0.411-0.135,0.638
		s-0.08,0.378-0.099,0.453c0,0.104-0.071,0.156-0.212,0.156c-0.028,0-0.047,0-0.057,0h-0.652l0.213-0.992
		c-0.529,0.567-1.262,0.917-2.197,1.049c-0.492,0.075-0.884,0.062-1.177-0.042c-0.35-0.161-0.564-0.463-0.645-0.907
		c-0.081-0.444-0.031-0.822,0.148-1.134c0.435-0.851,1.465-1.398,3.09-1.645c0.094-0.009,0.199-0.019,0.312-0.028
		s0.236-0.019,0.368-0.028s0.236-0.019,0.312-0.028h0.227c0.114,0,0.17-0.071,0.17-0.213c0.009-0.047,0.03-0.139,0.063-0.276
		c0.033-0.137,0.062-0.267,0.085-0.39c0.023-0.122,0.035-0.227,0.035-0.312c0.009-0.283-0.057-0.541-0.198-0.772
		s-0.335-0.381-0.581-0.446c-0.066-0.02-0.232-0.028-0.496-0.028c-0.539,0-1.073,0.127-1.602,0.383
		c-0.076,0.037-0.185,0.097-0.326,0.177S273.828,46.214,273.752,46.242z M276.97,48.382c-1.333,0-2.348,0.274-3.047,0.822
		c-0.227,0.18-0.397,0.397-0.51,0.652s-0.113,0.496,0,0.723c0.151,0.293,0.458,0.468,0.921,0.524
		c0.377,0.047,0.758,0.005,1.141-0.128c0.383-0.132,0.688-0.34,0.914-0.623c0.151-0.189,0.274-0.52,0.369-0.992L276.97,48.382z"/>
</g>
<g>
	<path d="M279.595,43.044c0.013-0.007,0.069-0.01,0.168-0.01h5.308h0.388c0.086,0.013,0.142,0.063,0.168,0.149
		s0.01,0.159-0.05,0.218c-0.046,0.04-0.182,0.061-0.406,0.061h-5.427c-0.093,0-0.149-0.004-0.169-0.01
		c-0.106-0.033-0.154-0.104-0.144-0.209C279.441,43.137,279.496,43.07,279.595,43.044z"/>
</g>
<g>
	<path d="M287.427,40.841c-0.205-0.271-0.308-0.423-0.308-0.457c0-0.033,0.062-0.129,0.188-0.288
		c0.218-0.251,0.496-0.463,0.833-0.635c0.317-0.152,0.656-0.233,1.018-0.243c0.36-0.01,0.702,0.058,1.026,0.203
		c0.51,0.251,0.807,0.599,0.893,1.042c0.066,0.39-0.02,0.767-0.258,1.131c-0.158,0.231-0.356,0.423-0.595,0.575
		c-0.026,0.02-0.08,0.05-0.159,0.089c-0.079,0.04-0.139,0.073-0.179,0.1c0.146,0.02,0.334,0.092,0.565,0.218
		c0.344,0.192,0.605,0.459,0.784,0.803c0.132,0.298,0.179,0.597,0.139,0.898c-0.039,0.301-0.152,0.583-0.337,0.848
		c-0.047,0.066-0.126,0.155-0.238,0.269c-0.311,0.304-0.694,0.495-1.15,0.575c-0.457,0.079-0.887,0.05-1.29-0.09
		c-0.51-0.151-0.946-0.437-1.31-0.853c-0.054-0.066-0.081-0.107-0.085-0.124c-0.003-0.017,0.002-0.064,0.016-0.145
		c0.032-0.211,0.06-0.337,0.079-0.377c0.503,0.662,1.157,1.022,1.964,1.082c0.49,0.046,0.89-0.066,1.201-0.338
		c0.271-0.225,0.427-0.53,0.466-0.918c0.04-0.387-0.043-0.723-0.248-1.006c-0.172-0.239-0.406-0.407-0.704-0.507
		c-0.165-0.053-0.417-0.079-0.754-0.079h-0.704v-0.526c0.059,0,0.145-0.005,0.258-0.015c0.112-0.01,0.194-0.018,0.248-0.024
		c0.258-0.013,0.469-0.046,0.635-0.1c0.284-0.092,0.522-0.254,0.714-0.486c0.192-0.231,0.288-0.489,0.288-0.774
		c0-0.542-0.341-0.853-1.021-0.933c-0.615-0.066-1.148,0.126-1.598,0.576c-0.126,0.125-0.248,0.294-0.367,0.506H287.427z"/>
	<path d="M295.403,48.074h-0.348c-0.099,0-0.158-0.004-0.178-0.011c-0.093-0.046-0.242-0.172-0.447-0.377
		c-0.37-0.37-0.674-0.783-0.912-1.24c-0.543-0.998-0.787-2.179-0.734-3.542c0.04-0.926,0.227-1.764,0.561-2.515
		c0.334-0.75,0.789-1.361,1.364-1.831c0.066-0.066,0.115-0.105,0.148-0.119s0.1-0.02,0.198-0.02h0.348
		c-0.046,0.053-0.121,0.126-0.224,0.218c-0.103,0.093-0.177,0.162-0.223,0.208c-0.284,0.304-0.536,0.658-0.754,1.062
		c-0.549,1.065-0.797,2.295-0.744,3.691c0.046,1.15,0.298,2.152,0.754,3.006c0.212,0.377,0.46,0.725,0.744,1.042
		c0.046,0.053,0.12,0.125,0.223,0.218S295.357,48.027,295.403,48.074z"/>
	<path d="M297.1,39.869c0.688,0,1.236-0.149,1.646-0.447c0.02-0.013,0.058-0.044,0.114-0.094c0.056-0.049,0.101-0.081,0.134-0.094
		c0.013-0.006,0.066-0.01,0.159-0.01v6.112h1.329v0.525h-3.324v-0.525h1.33v-5.219c-0.186,0.079-0.301,0.125-0.348,0.139
		c-0.284,0.093-0.632,0.139-1.041,0.139V39.869z"/>
	<path d="M305.105,43.034v-2.817c0-0.112,0.004-0.182,0.01-0.208c0.026-0.106,0.093-0.159,0.199-0.159
		c0.118,0,0.188,0.053,0.208,0.159c0.007,0.026,0.01,0.096,0.01,0.208v2.817h2.808c0.119,0,0.188,0.003,0.208,0.01
		c0.106,0.026,0.159,0.093,0.159,0.198c0,0.119-0.053,0.188-0.159,0.209c-0.02,0.006-0.089,0.01-0.208,0.01h-2.808v2.817
		c0,0.119-0.003,0.188-0.01,0.208c-0.02,0.105-0.09,0.159-0.208,0.159c-0.106,0-0.173-0.054-0.199-0.159
		c-0.006-0.02-0.01-0.089-0.01-0.208v-2.817h-2.817c-0.119,0-0.188-0.004-0.208-0.01c-0.106-0.021-0.159-0.09-0.159-0.209
		c0-0.105,0.053-0.172,0.159-0.198c0.02-0.007,0.089-0.01,0.208-0.01H305.105z"/>
</g>
<g>
	<path d="M310.427,41.179h0.646c0.151,1.428,0.268,2.765,0.347,4.008h0.01c0.186-0.396,0.383-0.797,0.591-1.2
		s0.468-0.901,0.778-1.493c0.312-0.592,0.517-0.984,0.615-1.176l0.069-0.119c0.08-0.013,0.281-0.02,0.605-0.02
		c0.231,2.414,0.357,3.75,0.377,4.008h0.01c0.265-0.542,0.883-1.739,1.855-3.591c0.119-0.225,0.191-0.357,0.219-0.397
		c0.086-0.013,0.294-0.02,0.625-0.02c-0.047,0.139-0.235,0.5-0.565,1.081l-1.161,2.213c-0.47,0.912-0.718,1.379-0.744,1.398
		c-0.014,0.014-0.083,0.02-0.208,0.02h-0.526c-0.172-1.633-0.284-2.979-0.337-4.038h-0.01c-0.173,0.391-0.436,0.926-0.789,1.608
		c-0.354,0.681-0.574,1.107-0.66,1.279c-0.046,0.086-0.137,0.263-0.272,0.531c-0.136,0.268-0.246,0.468-0.332,0.6
		c-0.086,0.014-0.308,0.02-0.665,0.02L310.427,41.179z"/>
</g>
<g>
	<path d="M318.074,38.42h0.347c0.1,0,0.159,0.003,0.179,0.01c0.086,0.04,0.244,0.175,0.477,0.407
		c0.482,0.483,0.863,1.073,1.141,1.771c0.277,0.698,0.437,1.463,0.477,2.297c0.053,1.363-0.192,2.543-0.734,3.542
		c-0.317,0.615-0.718,1.115-1.2,1.498c-0.014,0.014-0.028,0.026-0.045,0.04s-0.028,0.021-0.035,0.024
		c-0.007,0.004-0.017,0.011-0.029,0.021c-0.014,0.01-0.021,0.017-0.025,0.02c-0.003,0.003-0.012,0.007-0.024,0.01
		c-0.014,0.004-0.023,0.005-0.029,0.005c-0.007,0-0.019,0.002-0.035,0.005c-0.017,0.004-0.033,0.006-0.05,0.006s-0.038,0-0.064,0
		h-0.347c0.046-0.047,0.12-0.116,0.223-0.209s0.177-0.165,0.224-0.218c0.284-0.305,0.535-0.658,0.754-1.062
		c0.549-1.065,0.797-2.296,0.744-3.691c-0.047-1.151-0.298-2.153-0.754-3.006c-0.212-0.377-0.46-0.724-0.744-1.042
		c-0.047-0.046-0.121-0.116-0.224-0.208C318.194,38.546,318.12,38.474,318.074,38.42z"/>
</g>
<g>
	<path d="M322.451,56.562v-0.573h2.181v-16.05h-2.181v-0.574h2.754v17.197H322.451z"/>
</g>
</svg>
