<?xml version="1.0" encoding="iso-8859-1"?>
<!-- Generator: Adobe Illustrator 16.0.0, SVG Export Plug-In . SVG Version: 6.00 Build 0)  -->
<!DOCTYPE svg PUBLIC "-//W3C//DTD SVG 1.1//EN" "http://www.w3.org/Graphics/SVG/1.1/DTD/svg11.dtd">
<svg version="1.1" id="Layer_1" xmlns="http://www.w3.org/2000/svg" xmlns:xlink="http://www.w3.org/1999/xlink" x="0px" y="0px"
	 width="566.929px" height="85.039px" viewBox="0 0 566.929 85.039" style="enable-background:new 0 0 566.929 85.039;"
	 xml:space="preserve">
<g>
	<path d="M25.729,42.589h9.085v0.751h-7.81l3.189,4.039l0.071,0.128c-0.019,0.066-0.081,0.17-0.184,0.312l-2.679,3.812h7.413v0.794
		h-9.085l2.948-4.209l0.439-0.596v-0.015l-0.723-0.893l-2.523-3.188l-0.127-0.185C25.734,43.18,25.729,42.93,25.729,42.589z"/>
</g>
<g>
	<path d="M36.26,53.292c0.026,0.013,0.109,0.072,0.248,0.179c0.569,0.384,1.194,0.595,1.875,0.635
		c0.264,0.02,0.506,0.003,0.724-0.05c0.317-0.072,0.592-0.215,0.823-0.427c0.231-0.211,0.367-0.47,0.407-0.773
		c0.04-0.192-0.003-0.403-0.129-0.635c-0.159-0.318-0.443-0.553-0.853-0.705c-0.119-0.046-0.311-0.096-0.576-0.148
		c-0.694-0.165-1.071-0.258-1.131-0.278c-0.608-0.231-1.019-0.568-1.23-1.012c-0.265-0.522-0.229-1.048,0.109-1.577
		c0.073-0.1,0.159-0.198,0.258-0.298c0.271-0.271,0.615-0.463,1.032-0.575c0.417-0.112,0.835-0.147,1.255-0.104
		c0.42,0.043,0.815,0.147,1.186,0.312c0.198,0.066,0.311,0.126,0.337,0.179c0.013,0.02,0.006,0.086-0.02,0.198
		c0,0.014-0.012,0.086-0.035,0.219c-0.023,0.132-0.042,0.231-0.055,0.297c-0.066-0.039-0.159-0.105-0.278-0.198
		c-0.417-0.258-0.866-0.403-1.349-0.437c-0.377-0.033-0.718,0.007-1.022,0.119c-0.251,0.093-0.466,0.231-0.645,0.417
		c-0.178,0.186-0.278,0.396-0.297,0.635c0,0.265,0.083,0.496,0.248,0.694c0.159,0.186,0.369,0.327,0.63,0.427
		s0.574,0.184,0.938,0.253s0.638,0.138,0.824,0.203c0.377,0.133,0.714,0.359,1.012,0.68c0.298,0.321,0.446,0.696,0.446,1.126
		c0,0.629-0.271,1.151-0.813,1.568c-0.337,0.244-0.739,0.395-1.205,0.451c-0.466,0.056-0.906,0.038-1.32-0.055
		s-0.805-0.229-1.176-0.407c-0.205-0.099-0.317-0.165-0.337-0.198c0-0.006,0.01-0.076,0.03-0.208
		c0.006-0.04,0.015-0.093,0.024-0.159c0.01-0.065,0.02-0.127,0.03-0.184C36.235,53.399,36.247,53.345,36.26,53.292z"/>
	<path d="M42.62,47.687h4.613v0.556h-3.919v2.599h3.473v0.556h-3.473v3.155H42.62V47.687z"/>
	<path d="M48.711,47.666h1.915c0.529,0,0.87,0.007,1.022,0.021c0.483,0.053,0.929,0.198,1.339,0.437s0.694,0.546,0.854,0.923
		c0.165,0.437,0.125,0.833-0.119,1.19c-0.245,0.356-0.582,0.635-1.012,0.833c-0.271,0.1-0.519,0.176-0.744,0.229l2.262,3.254h-0.466
		c-0.132,0-0.205-0.003-0.218-0.01c-0.046-0.026-0.103-0.1-0.168-0.219l-0.437-0.635c-0.292-0.423-0.59-0.858-0.898-1.305
		s-0.478-0.692-0.511-0.739c-0.086-0.139-0.146-0.222-0.178-0.248c-0.027-0.02-0.083-0.029-0.169-0.029h-1.796v3.185h-0.674V47.666z
		 M49.385,50.841h1.499c0.655,0,1.137-0.056,1.448-0.168c0.225-0.086,0.397-0.182,0.516-0.288c0.291-0.238,0.437-0.522,0.437-0.854
		c0-0.271-0.093-0.506-0.278-0.704c-0.186-0.198-0.417-0.344-0.695-0.437c-0.317-0.112-0.81-0.169-1.478-0.169h-1.449V50.841z"/>
</g>
<g>
	<path d="M65.385,50.144c-0.236,0.529-0.567,1.012-0.992,1.446s-0.902,0.728-1.431,0.879c-0.718,0.217-1.339,0.153-1.864-0.191
		s-0.896-0.844-1.113-1.496c-0.35-1.029-0.314-2.04,0.106-3.032c0.42-0.992,1.079-1.521,1.977-1.588
		c0.718-0.037,1.398,0.194,2.041,0.694c0.444,0.359,0.916,0.94,1.417,1.743c0.567-1.181,1.323-1.941,2.268-2.281
		c0.302-0.104,0.642-0.156,1.021-0.156c0.057,0,0.142,0.01,0.255,0.028c0.085,0,0.127,0.057,0.127,0.17v0.256
		c-0.217-0.048-0.42-0.058-0.609-0.029c-1.04,0.104-1.909,0.847-2.608,2.226c-0.076,0.123-0.113,0.213-0.113,0.27
		s0.052,0.151,0.156,0.283l0.411,0.638c0.057,0.095,0.151,0.236,0.284,0.426c0.652,0.973,1.337,1.493,2.055,1.559
		c0.123,0.01,0.265,0,0.425-0.028v0.567C67.724,52.78,66.453,51.986,65.385,50.144z M61.998,46.742
		c-0.709,0.048-1.236,0.416-1.581,1.105c-0.345,0.69-0.437,1.455-0.276,2.296c0.246,1.115,0.751,1.772,1.517,1.971
		c0.17,0.057,0.359,0.075,0.567,0.057c1.096-0.057,2.003-0.809,2.721-2.254c0.066-0.113,0.099-0.198,0.099-0.255
		c0-0.066-0.047-0.156-0.142-0.27c-0.35-0.586-0.662-1.058-0.936-1.417C63.316,47.115,62.659,46.705,61.998,46.742z"/>
</g>
<g>
	<path d="M78.871,55.572h-0.468c-0.132,0-0.212-0.005-0.241-0.015c-0.113-0.057-0.321-0.236-0.624-0.538
		c-0.548-0.548-0.992-1.162-1.333-1.843c-0.728-1.455-1.054-3.118-0.978-4.988c0.057-1.2,0.281-2.299,0.673-3.296
		s0.928-1.836,1.609-2.516c0.321-0.321,0.539-0.51,0.652-0.567c0.028-0.009,0.108-0.014,0.241-0.014h0.468
		c-0.038,0.047-0.165,0.166-0.382,0.354c-0.444,0.378-0.889,0.982-1.333,1.814c-0.614,1.181-0.955,2.589-1.021,4.224
		c-0.057,1.332,0.092,2.589,0.447,3.77c0.354,1.181,0.886,2.159,1.594,2.934c0.132,0.151,0.236,0.26,0.312,0.326
		C78.706,55.407,78.833,55.524,78.871,55.572z"/>
	<path d="M80.53,42.589h9.085v0.751h-7.81l3.189,4.039l0.071,0.128c-0.019,0.066-0.081,0.17-0.184,0.312l-2.679,3.812h7.413v0.794
		H80.53l2.948-4.209l0.439-0.596v-0.015l-0.723-0.893l-2.523-3.188l-0.127-0.185C80.534,43.18,80.53,42.93,80.53,42.589z"/>
</g>
<g>
	<path d="M94.22,53.292c-0.073,0.225-0.207,0.439-0.402,0.645c-0.195,0.205-0.409,0.334-0.64,0.387
		c-0.522,0.14-1.015,0.017-1.478-0.367c-0.231-0.191-0.42-0.439-0.565-0.744c-0.199-0.442-0.26-0.917-0.184-1.423
		c0.076-0.506,0.27-0.944,0.58-1.314c0.225-0.271,0.506-0.469,0.843-0.591c0.337-0.122,0.665-0.131,0.982-0.024
		c0.357,0.132,0.655,0.403,0.893,0.813V49.79h0.655v4.514c0,0.542-0.099,0.959-0.298,1.25c-0.132,0.212-0.309,0.391-0.531,0.536
		s-0.461,0.234-0.719,0.268c-0.43,0.046-0.867,0.01-1.31-0.109c-0.179-0.039-0.38-0.105-0.605-0.198
		c-0.014-0.007-0.037-0.017-0.07-0.029c-0.033-0.014-0.063-0.027-0.089-0.04c-0.026-0.014-0.046-0.03-0.059-0.05
		c-0.014-0.02-0.02-0.076-0.02-0.169v-0.396c0.02,0.007,0.107,0.046,0.263,0.119c0.155,0.072,0.273,0.122,0.353,0.148
		c0.317,0.112,0.661,0.179,1.032,0.199c0.482,0.032,0.847-0.106,1.091-0.417c0.192-0.245,0.288-0.635,0.288-1.171v-0.952H94.22z
		 M93.139,50.315c-0.509,0.04-0.906,0.281-1.19,0.725c-0.285,0.442-0.394,0.912-0.328,1.408c0.04,0.331,0.17,0.625,0.392,0.883
		c0.222,0.259,0.494,0.421,0.818,0.486c0.284,0.073,0.529,0.043,0.734-0.089c0.205-0.133,0.36-0.324,0.466-0.575
		c0.105-0.252,0.172-0.593,0.198-1.022c0-0.013,0.003-0.031,0.01-0.055c0.007-0.022,0.01-0.041,0.01-0.055v-0.287
		c0-0.066,0-0.134,0-0.204c0-0.069,0.001-0.11,0.005-0.124c0.003-0.013,0.001-0.039-0.005-0.079
		c-0.007-0.039-0.014-0.069-0.02-0.089c-0.007-0.021-0.02-0.066-0.04-0.139c-0.172-0.45-0.43-0.705-0.774-0.765
		C93.357,50.322,93.264,50.315,93.139,50.315z"/>
	<path d="M96.611,50.752c-0.013-0.172-0.026-0.308-0.04-0.407c0-0.105,0.003-0.161,0.01-0.168c0.013-0.026,0.07-0.06,0.169-0.1
		c0.41-0.191,0.827-0.298,1.25-0.317c0.688-0.04,1.207,0.152,1.558,0.575c0.172,0.205,0.284,0.44,0.337,0.705
		c0.02,0.099,0.03,0.406,0.03,0.922v2.59H99.27v-0.694h-0.01c-0.079,0.152-0.238,0.294-0.476,0.427
		c-0.317,0.191-0.718,0.304-1.2,0.337c-0.324,0.02-0.583-0.033-0.774-0.158c-0.298-0.205-0.47-0.513-0.516-0.923
		c-0.06-0.477,0.152-0.854,0.635-1.131c0.536-0.331,1.31-0.496,2.321-0.496c0-0.033,0-0.102,0-0.204s0-0.167,0-0.193
		s-0.001-0.079-0.005-0.158c-0.003-0.08-0.007-0.134-0.01-0.164c-0.003-0.029-0.012-0.076-0.025-0.139s-0.026-0.112-0.04-0.149
		c-0.014-0.036-0.032-0.077-0.055-0.124c-0.023-0.046-0.051-0.089-0.084-0.129c-0.139-0.191-0.314-0.32-0.526-0.387
		c-0.093-0.026-0.235-0.033-0.426-0.02c-0.351,0.014-0.671,0.086-0.962,0.218c-0.053,0.027-0.134,0.075-0.243,0.145
		C96.765,50.678,96.677,50.726,96.611,50.752z M99.25,52.23c-0.694,0-1.267,0.112-1.716,0.337c-0.245,0.126-0.417,0.284-0.516,0.477
		c-0.099,0.191-0.099,0.41,0,0.654c0.152,0.212,0.384,0.343,0.695,0.393c0.311,0.049,0.61,0.018,0.898-0.095
		c0.288-0.112,0.478-0.277,0.57-0.496c0.046-0.099,0.069-0.274,0.069-0.525V52.23z"/>
	<path d="M101.145,53.56c0.549,0.324,1.048,0.496,1.498,0.516c0.496,0.047,0.86-0.036,1.091-0.248
		c0.106-0.099,0.177-0.22,0.213-0.361c0.036-0.143,0.028-0.283-0.025-0.422c-0.086-0.186-0.22-0.319-0.402-0.402
		c-0.182-0.082-0.426-0.148-0.734-0.198s-0.521-0.094-0.64-0.134c-0.364-0.126-0.635-0.308-0.813-0.546
		c-0.166-0.211-0.245-0.458-0.238-0.739c0.007-0.28,0.096-0.527,0.268-0.739c0.278-0.356,0.767-0.535,1.468-0.535
		c0.536,0,1.058,0.109,1.568,0.327l-0.1,0.575c-0.06-0.02-0.141-0.056-0.243-0.108c-0.103-0.053-0.184-0.09-0.243-0.109
		c-0.258-0.119-0.601-0.177-1.027-0.174c-0.427,0.004-0.729,0.101-0.908,0.293c-0.1,0.112-0.154,0.241-0.164,0.387
		c-0.01,0.146,0.028,0.277,0.114,0.396c0.106,0.14,0.253,0.242,0.441,0.308c0.188,0.066,0.415,0.118,0.68,0.154
		s0.459,0.077,0.585,0.124c0.311,0.112,0.569,0.286,0.774,0.521c0.205,0.235,0.297,0.534,0.278,0.898
		c-0.02,0.218-0.076,0.41-0.169,0.575c-0.304,0.535-0.906,0.771-1.806,0.704c-0.575-0.053-1.028-0.169-1.359-0.347
		c-0.126-0.06-0.192-0.1-0.199-0.119c-0.013-0.021-0.005-0.109,0.025-0.269C101.11,53.729,101.132,53.619,101.145,53.56z"/>
</g>
<g>
	<path d="M106.156,41.796h0.467c0.142,0,0.222,0.005,0.241,0.014c0.113,0.057,0.321,0.236,0.624,0.539
		c0.548,0.548,0.992,1.162,1.333,1.843c0.727,1.455,1.053,3.118,0.978,4.988c-0.057,1.2-0.281,2.299-0.673,3.296
		c-0.393,0.996-0.929,1.835-1.609,2.516c-0.321,0.321-0.539,0.51-0.652,0.566c-0.028,0.01-0.109,0.015-0.241,0.015h-0.467
		c0.038-0.048,0.165-0.165,0.382-0.354c0.076-0.066,0.18-0.175,0.312-0.326c0.416-0.463,0.76-0.973,1.035-1.53
		c0.746-1.475,1.082-3.198,1.006-5.173c-0.095-2.362-0.775-4.267-2.041-5.712c-0.132-0.151-0.236-0.26-0.312-0.326
		C106.321,41.961,106.194,41.843,106.156,41.796z"/>
</g>
<g>
	<path d="M112.212,39.295c0.688,0,1.237-0.149,1.647-0.447c0.02-0.013,0.058-0.044,0.114-0.094c0.056-0.049,0.101-0.081,0.134-0.094
		c0.013-0.006,0.066-0.01,0.159-0.01v6.112h1.33v0.525h-3.324v-0.525h1.33v-5.219c-0.186,0.079-0.301,0.125-0.347,0.139
		c-0.285,0.093-0.632,0.139-1.042,0.139V39.295z"/>
</g>
<g>
	<path d="M117.549,44.493h0.793v0.794h-0.793V44.493z"/>
</g>
<g>
	<path d="M119.736,43.511v-0.366c0-0.139,0.03-0.249,0.089-0.328c0.066-0.106,0.278-0.427,0.635-0.962l1.28-1.955
		c0.317-0.463,0.549-0.813,0.694-1.052l0.089-0.119c0.02-0.013,0.096-0.02,0.228-0.02h0.566v4.246h1.161v0.555h-1.161v1.776h-0.635
		v-1.776H119.736z M122.712,39.305l-0.218,0.407l-1.27,2.004l-0.803,1.24h2.292V39.305z"/>
</g>
<g>
	<path d="M128.535,41.606v-2.828c0-0.119,0.003-0.188,0.01-0.208c0.033-0.099,0.099-0.148,0.198-0.148
		c0.119,0,0.188,0.056,0.208,0.168c0.006,0.02,0.01,0.089,0.01,0.208v2.808h2.808c0.119,0,0.188,0.003,0.208,0.01
		c0.106,0.026,0.159,0.093,0.159,0.198c0,0.119-0.053,0.189-0.159,0.208c-0.02,0.007-0.089,0.01-0.208,0.01h-2.808v2.758h2.857
		c0.099,0,0.162,0.007,0.188,0.02c0.066,0.026,0.107,0.078,0.124,0.154s-0.002,0.141-0.055,0.193c-0.026,0.02-0.06,0.036-0.099,0.05
		c-0.04,0.013-0.076,0.02-0.109,0.02c-0.033,0-0.074-0.002-0.124-0.005c-0.05-0.003-0.084-0.005-0.104-0.005h-5.854
		c-0.205,0-0.331-0.02-0.377-0.06c-0.066-0.073-0.081-0.15-0.044-0.233c0.036-0.082,0.101-0.127,0.193-0.134h0.556h2.42v-2.758
		h-2.817c-0.119,0-0.188-0.003-0.208-0.01c-0.106-0.02-0.159-0.089-0.159-0.208c0-0.105,0.053-0.172,0.159-0.198
		c0.02-0.006,0.089-0.01,0.208-0.01H128.535z"/>
</g>
<g>
	<path d="M135.245,38.65c0.271-0.026,0.544,0.012,0.819,0.114c0.274,0.103,0.504,0.25,0.689,0.441
		c0.516,0.536,0.774,1.432,0.774,2.688c0,0.893-0.08,1.581-0.238,2.064c-0.304,0.886-0.863,1.375-1.677,1.468
		c-0.675,0.066-1.23-0.139-1.667-0.615c-0.47-0.522-0.705-1.432-0.705-2.728c0-0.879,0.092-1.564,0.278-2.054
		c0.125-0.311,0.276-0.565,0.451-0.764c0.175-0.199,0.402-0.357,0.68-0.477C134.782,38.736,134.98,38.689,135.245,38.65z
		 M136.406,39.642c-0.179-0.218-0.409-0.362-0.69-0.432s-0.561-0.051-0.838,0.055c-0.364,0.172-0.612,0.433-0.744,0.784
		c-0.126,0.311-0.195,0.724-0.208,1.24c0,0.04-0.002,0.098-0.005,0.173c-0.003,0.076-0.005,0.134-0.005,0.174v0.486
		c0,0.774,0.062,1.356,0.188,1.746c0.085,0.252,0.178,0.44,0.278,0.565c0.277,0.351,0.641,0.51,1.091,0.477
		c0.827-0.066,1.28-0.761,1.359-2.083c0.013-0.185,0.02-0.321,0.02-0.407v-0.526c0-0.86-0.069-1.465-0.208-1.815
		C136.571,39.894,136.491,39.748,136.406,39.642z"/>
</g>
<g>
	<path d="M139.144,44.493h0.793v0.794h-0.793V44.493z"/>
</g>
<g>
	<path d="M142.124,39.295c0.688,0,1.237-0.149,1.647-0.447c0.02-0.013,0.058-0.044,0.114-0.094c0.056-0.049,0.101-0.081,0.134-0.094
		c0.013-0.006,0.066-0.01,0.159-0.01v6.112h1.33v0.525h-3.324v-0.525h1.33v-5.219c-0.186,0.079-0.301,0.125-0.347,0.139
		c-0.285,0.093-0.632,0.139-1.042,0.139V39.295z"/>
	<path d="M147.302,38.799h3.522v0.555h-2.877v2.252c0.463-0.357,0.966-0.513,1.508-0.466c0.39,0.06,0.73,0.222,1.022,0.486
		c0.43,0.391,0.663,0.887,0.699,1.488c0.036,0.602-0.137,1.118-0.521,1.548c-0.311,0.351-0.703,0.584-1.175,0.699
		c-0.473,0.116-0.935,0.098-1.384-0.055c-0.483-0.165-0.87-0.416-1.161-0.754c-0.04-0.039-0.06-0.072-0.06-0.099
		c0-0.04,0.092-0.199,0.278-0.477h0.01c0.238,0.337,0.519,0.579,0.843,0.725c0.311,0.158,0.668,0.223,1.072,0.193
		c0.403-0.03,0.73-0.171,0.982-0.422c0.245-0.245,0.384-0.582,0.417-1.012c0.026-0.364-0.015-0.703-0.124-1.017
		c-0.109-0.314-0.31-0.538-0.601-0.67c-0.297-0.139-0.625-0.16-0.982-0.064c-0.357,0.096-0.615,0.263-0.774,0.501l-0.119,0.149
		c-0.02,0.007-0.079,0.01-0.179,0.01h-0.396V38.799z"/>
</g>
</svg>
