<?xml version="1.0" encoding="iso-8859-1"?>
<!-- Generator: Adobe Illustrator 16.0.0, SVG Export Plug-In . SVG Version: 6.00 Build 0)  -->
<!DOCTYPE svg PUBLIC "-//W3C//DTD SVG 1.1//EN" "http://www.w3.org/Graphics/SVG/1.1/DTD/svg11.dtd">
<svg version="1.1" id="Layer_1" xmlns="http://www.w3.org/2000/svg" xmlns:xlink="http://www.w3.org/1999/xlink" x="0px" y="0px"
	 width="566.929px" height="85.039px" viewBox="0 0 566.929 85.039" style="enable-background:new 0 0 566.929 85.039;"
	 xml:space="preserve">
<g>
	<path d="M26.877,45.312l-0.411,1.928c0,0.019-0.026,0.155-0.078,0.411c-0.052,0.255-0.097,0.448-0.134,0.581
		c-0.057,0.17-0.17,0.295-0.34,0.375s-0.326,0.055-0.468-0.078c-0.095-0.085-0.109-0.273-0.042-0.566l0.297-1.432
		c0.539-2.57,0.851-3.992,0.936-4.266c0.236-0.803,0.662-1.512,1.276-2.126c0.377-0.359,0.805-0.624,1.283-0.794
		c0.477-0.17,0.933-0.165,1.368,0.014c0.368,0.17,0.656,0.411,0.864,0.723c0.293,0.435,0.439,1.001,0.439,1.701
		c0,0.662-0.14,1.307-0.418,1.935c-0.279,0.629-0.664,1.165-1.155,1.608c-0.369,0.331-0.777,0.569-1.226,0.716
		s-0.881,0.145-1.297-0.007C27.439,45.922,27.142,45.681,26.877,45.312z M29.613,39.941c-0.567,0.057-1.054,0.368-1.46,0.935
		c-0.491,0.681-0.779,1.63-0.865,2.849c-0.028,0.388,0.043,0.747,0.213,1.077c0.17,0.331,0.43,0.534,0.779,0.609
		c0.085,0.02,0.213,0.028,0.383,0.028c0.435-0.037,0.841-0.245,1.219-0.623c0.482-0.491,0.822-1.262,1.021-2.311
		c0.066-0.416,0.099-0.694,0.099-0.836c0-0.822-0.231-1.351-0.694-1.587C30.127,39.988,29.896,39.941,29.613,39.941z"/>
</g>
<g>
	<path d="M36.837,43.526c0.057-0.095,0.198-0.142,0.425-0.142h8.093h0.595c0.123,0.02,0.208,0.083,0.255,0.191
		c0.047,0.109,0.023,0.205-0.071,0.291c-0.057,0.057-0.156,0.084-0.297,0.084h-8.575c-0.142,0-0.227-0.004-0.255-0.014
		c-0.085-0.02-0.146-0.073-0.184-0.163C36.785,43.686,36.79,43.602,36.837,43.526z M37.007,40.649
		c0.019-0.009,0.099-0.014,0.241-0.014h8.122l0.297-0.014c0.199,0,0.298,0.005,0.298,0.014c0.113,0.019,0.191,0.085,0.234,0.198
		s0.021,0.208-0.064,0.284c-0.057,0.057-0.161,0.085-0.312,0.085h-8.519c-0.151,0-0.241-0.005-0.269-0.014
		c-0.151-0.028-0.229-0.116-0.234-0.262S36.866,40.687,37.007,40.649z"/>
</g>
<g>
	<path d="M84.626,35.527l-0.411,1.927c0,0.019-0.026,0.156-0.078,0.411c-0.052,0.255-0.097,0.449-0.134,0.581
		c-0.057,0.17-0.17,0.295-0.34,0.375c-0.17,0.081-0.326,0.054-0.468-0.078c-0.095-0.085-0.109-0.274-0.042-0.567l0.297-1.432
		c0.539-2.57,0.851-3.992,0.936-4.266c0.236-0.803,0.662-1.512,1.276-2.126c0.377-0.359,0.805-0.624,1.283-0.794
		c0.477-0.17,0.933-0.165,1.368,0.014c0.368,0.17,0.656,0.411,0.864,0.723c0.293,0.435,0.439,1.001,0.439,1.701
		c0,0.662-0.14,1.306-0.418,1.935c-0.279,0.628-0.664,1.165-1.155,1.609c-0.369,0.331-0.777,0.569-1.226,0.716
		c-0.449,0.146-0.881,0.144-1.297-0.007C85.188,36.137,84.89,35.896,84.626,35.527z M87.361,30.156
		c-0.567,0.057-1.054,0.368-1.46,0.935c-0.491,0.681-0.779,1.63-0.865,2.849c-0.028,0.387,0.043,0.747,0.213,1.077
		s0.43,0.534,0.779,0.609c0.085,0.019,0.213,0.028,0.383,0.028c0.435-0.038,0.841-0.246,1.219-0.624
		c0.482-0.491,0.822-1.262,1.021-2.311c0.066-0.416,0.099-0.694,0.099-0.836c0-0.822-0.231-1.351-0.694-1.587
		C87.876,30.203,87.645,30.156,87.361,30.156z"/>
</g>
<g>
	<path d="M92.343,31.739c0.271-0.026,0.544,0.012,0.819,0.114c0.274,0.103,0.504,0.25,0.689,0.441
		c0.516,0.536,0.774,1.432,0.774,2.688c0,0.893-0.08,1.581-0.238,2.063c-0.304,0.887-0.863,1.376-1.677,1.468
		c-0.675,0.066-1.23-0.139-1.667-0.615c-0.47-0.522-0.705-1.432-0.705-2.729c0-0.879,0.092-1.564,0.278-2.054
		c0.125-0.311,0.276-0.565,0.451-0.764c0.175-0.199,0.402-0.357,0.68-0.477C91.88,31.825,92.078,31.778,92.343,31.739z
		 M93.504,32.731c-0.179-0.218-0.409-0.362-0.69-0.432s-0.561-0.051-0.838,0.055c-0.364,0.172-0.612,0.433-0.744,0.784
		c-0.126,0.311-0.195,0.724-0.208,1.24c0,0.04-0.002,0.098-0.005,0.173c-0.003,0.076-0.005,0.134-0.005,0.174v0.486
		c0,0.774,0.062,1.356,0.188,1.746c0.085,0.251,0.178,0.44,0.278,0.566c0.277,0.351,0.641,0.509,1.091,0.476
		c0.827-0.066,1.28-0.761,1.359-2.083c0.013-0.185,0.02-0.321,0.02-0.407v-0.526c0-0.86-0.069-1.465-0.208-1.815
		C93.669,32.982,93.589,32.837,93.504,32.731z"/>
</g>
<g>
	<rect x="52.157" y="42.008" width="73.999" height="0.574"/>
</g>
<g>
	<path d="M58.984,50.401c0.1-0.185,0.261-0.377,0.486-0.575c0.522-0.477,1.088-0.714,1.697-0.714
		c-0.066,0.356-0.109,0.549-0.129,0.575c-0.02,0.02-0.083,0.029-0.188,0.029c-0.43,0.026-0.83,0.174-1.2,0.441
		c-0.371,0.269-0.628,0.584-0.774,0.948c-0.026,0.072-0.093,0.344-0.198,0.813c-0.007,0.02-0.073,0.329-0.199,0.928
		s-0.192,0.907-0.198,0.927c0,0.027-0.003,0.047-0.01,0.06c-0.006,0.014-0.02,0.023-0.04,0.03c-0.02,0.007-0.035,0.01-0.044,0.01
		c-0.01,0-0.03,0-0.06,0s-0.048,0-0.055,0h-0.466l0.992-4.683h0.625l-0.248,1.21H58.984z"/>
</g>
<g>
	<rect x="53.353" y="55.624" width="11.548" height="0.574"/>
</g>
<g>
	<path d="M55.833,57.456h2.004c0.457,0,0.731,0.004,0.823,0.011c0.371,0.033,0.713,0.12,1.027,0.263
		c0.314,0.143,0.561,0.329,0.739,0.561c0.066,0.093,0.125,0.198,0.179,0.317c0.185,0.463,0.086,0.936-0.298,1.419
		c-0.476,0.568-1.141,0.923-1.994,1.062l1.578,3.254c-0.364,0-0.592-0.007-0.685-0.02c-0.033-0.047-0.155-0.291-0.367-0.734
		l-1.161-2.411c-0.119-0.026-0.44-0.034-0.962-0.024s-0.853,0.012-0.992,0.005l-0.655,3.096l-0.03,0.069
		c-0.086,0.013-0.308,0.02-0.665,0.02L55.833,57.456z M55.843,60.631h1.29c0.046,0,0.116,0.002,0.208,0.005
		c0.093,0.004,0.175,0.006,0.248,0.006s0.142-0.004,0.208-0.011c0.496-0.039,0.876-0.112,1.141-0.218
		c0.304-0.119,0.562-0.291,0.774-0.516c0.212-0.226,0.317-0.483,0.317-0.774c0-0.542-0.37-0.893-1.111-1.052
		c-0.205-0.039-0.671-0.06-1.399-0.06h-1.032c-0.04,0-0.07,0.007-0.089,0.021c-0.013,0.013-0.03,0.079-0.05,0.198
		c-0.006,0.026-0.046,0.2-0.119,0.521c-0.073,0.321-0.148,0.667-0.228,1.037C55.923,60.158,55.87,60.439,55.843,60.631z"/>
</g>
<g>
	<path d="M61.253,64.708c0.165,0.109,0.293,0.185,0.383,0.228c0.241,0.104,0.503,0.155,0.787,0.155c0.278,0,0.498-0.054,0.659-0.163
		c0.114-0.07,0.196-0.169,0.248-0.294c0.052-0.125,0.045-0.249-0.021-0.372c-0.081-0.127-0.276-0.222-0.588-0.283
		c-0.373-0.071-0.626-0.145-0.758-0.22c-0.118-0.071-0.212-0.156-0.283-0.255c-0.109-0.18-0.137-0.373-0.085-0.581
		c0.052-0.208,0.156-0.383,0.312-0.524c0.255-0.228,0.586-0.353,0.992-0.376c0.444-0.033,0.872,0.043,1.283,0.227l-0.17,0.439
		c-0.303-0.17-0.614-0.262-0.936-0.276c-0.335-0.023-0.586,0.023-0.751,0.142c-0.108,0.071-0.185,0.163-0.23,0.276
		s-0.035,0.227,0.032,0.341c0.076,0.118,0.271,0.203,0.588,0.255c0.019,0.005,0.072,0.016,0.159,0.032s0.146,0.029,0.174,0.038
		c0.028,0.01,0.078,0.024,0.149,0.043c0.071,0.019,0.126,0.039,0.167,0.061c0.04,0.021,0.086,0.048,0.138,0.081
		c0.052,0.033,0.097,0.068,0.134,0.106c0.095,0.095,0.161,0.203,0.199,0.326c0.038,0.146,0.033,0.295-0.014,0.446
		c-0.095,0.359-0.321,0.624-0.681,0.794c-0.217,0.099-0.482,0.149-0.793,0.152c-0.312,0.002-0.588-0.042-0.829-0.132
		c-0.127-0.047-0.274-0.115-0.439-0.205L61.253,64.708z"/>
</g>
<g>
	<path d="M74.209,64.502c-0.258,0-1.19-1.09-1.334-1.263c-1.879-2.424-2.237-5.307-2.237-7.344c0-3.198,0.932-5.78,2.396-7.516
		c0.186-0.215,0.961-1.075,1.176-1.075c0.058,0,0.172,0,0.172,0.144c0,0.028,0,0.057-0.129,0.186
		c-1.721,1.865-2.625,4.504-2.625,8.276c0,1.334,0.129,2.812,0.459,4.116c0.603,2.339,1.578,3.5,2.237,4.203
		c0.029,0.043,0.058,0.071,0.058,0.129C74.382,64.502,74.267,64.502,74.209,64.502z"/>
</g>
<g>
	<path d="M76.522,51.049c0.945,0,1.715-0.217,2.31-0.651c0.047-0.028,0.09-0.062,0.127-0.1c0.038-0.037,0.066-0.065,0.085-0.085
		c0.019-0.019,0.042-0.037,0.071-0.057c0.028-0.019,0.063-0.03,0.106-0.035s0.097-0.007,0.163-0.007v8.829h1.857v0.709h-4.635
		v-0.709h1.856v-7.597c-0.633,0.274-1.28,0.411-1.941,0.411V51.049z"/>
	<path d="M90.852,55.627v-3.926c0-0.16,0.004-0.26,0.014-0.298c0.028-0.142,0.118-0.212,0.269-0.212c0.151,0,0.241,0.07,0.27,0.212
		c0.009,0.028,0.014,0.123,0.014,0.283v3.94h3.926c0.161,0,0.255,0.005,0.284,0.015c0.142,0.028,0.212,0.118,0.212,0.269
		c0,0.151-0.071,0.241-0.212,0.27c-0.028,0.01-0.123,0.015-0.284,0.015h-3.926v3.939c0,0.161-0.005,0.256-0.014,0.284
		c-0.028,0.142-0.118,0.212-0.27,0.212c-0.151,0-0.241-0.07-0.269-0.212c-0.01-0.028-0.014-0.123-0.014-0.284v-3.939h-3.94
		c-0.161,0-0.255-0.005-0.283-0.015c-0.142-0.028-0.213-0.118-0.213-0.27c0-0.15,0.071-0.24,0.213-0.269
		c0.028-0.01,0.123-0.015,0.283-0.015H90.852z"/>
</g>
<g>
	<path d="M106.625,50.401c0.1-0.185,0.261-0.377,0.486-0.575c0.522-0.477,1.088-0.714,1.697-0.714
		c-0.066,0.356-0.109,0.549-0.129,0.575c-0.02,0.02-0.083,0.029-0.188,0.029c-0.43,0.026-0.83,0.174-1.2,0.441
		c-0.371,0.269-0.628,0.584-0.774,0.948c-0.026,0.072-0.093,0.344-0.198,0.813c-0.007,0.02-0.073,0.329-0.199,0.928
		s-0.192,0.907-0.198,0.927c0,0.027-0.003,0.047-0.01,0.06c-0.006,0.014-0.02,0.023-0.04,0.03c-0.02,0.007-0.035,0.01-0.044,0.01
		c-0.01,0-0.03,0-0.06,0s-0.048,0-0.055,0h-0.466l0.992-4.683h0.625l-0.248,1.21H106.625z"/>
</g>
<g>
	<rect x="100.993" y="55.624" width="11.548" height="0.574"/>
</g>
<g>
	<path d="M103.474,57.456h2.004c0.457,0,0.731,0.004,0.823,0.011c0.371,0.033,0.713,0.12,1.027,0.263
		c0.314,0.143,0.561,0.329,0.739,0.561c0.066,0.093,0.125,0.198,0.179,0.317c0.185,0.463,0.086,0.936-0.298,1.419
		c-0.476,0.568-1.141,0.923-1.994,1.062l1.578,3.254c-0.364,0-0.592-0.007-0.685-0.02c-0.033-0.047-0.155-0.291-0.367-0.734
		l-1.161-2.411c-0.119-0.026-0.44-0.034-0.962-0.024s-0.853,0.012-0.992,0.005l-0.655,3.096l-0.03,0.069
		c-0.086,0.013-0.308,0.02-0.665,0.02L103.474,57.456z M103.483,60.631h1.29c0.046,0,0.116,0.002,0.208,0.005
		c0.093,0.004,0.175,0.006,0.248,0.006s0.142-0.004,0.208-0.011c0.496-0.039,0.876-0.112,1.141-0.218
		c0.304-0.119,0.562-0.291,0.774-0.516c0.212-0.226,0.317-0.483,0.317-0.774c0-0.542-0.37-0.893-1.111-1.052
		c-0.205-0.039-0.671-0.06-1.399-0.06h-1.032c-0.04,0-0.07,0.007-0.089,0.021c-0.013,0.013-0.03,0.079-0.05,0.198
		c-0.006,0.026-0.046,0.2-0.119,0.521c-0.073,0.321-0.148,0.667-0.228,1.037C103.563,60.158,103.51,60.439,103.483,60.631z"/>
</g>
<g>
	<path d="M108.895,64.708c0.165,0.109,0.293,0.185,0.383,0.228c0.241,0.104,0.503,0.155,0.787,0.155
		c0.278,0,0.498-0.054,0.659-0.163c0.114-0.07,0.196-0.169,0.248-0.294c0.052-0.125,0.045-0.249-0.021-0.372
		c-0.081-0.127-0.276-0.222-0.588-0.283c-0.373-0.071-0.626-0.145-0.758-0.22c-0.118-0.071-0.212-0.156-0.283-0.255
		c-0.109-0.18-0.137-0.373-0.085-0.581c0.052-0.208,0.156-0.383,0.312-0.524c0.255-0.228,0.586-0.353,0.992-0.376
		c0.444-0.033,0.872,0.043,1.283,0.227l-0.17,0.439c-0.303-0.17-0.614-0.262-0.936-0.276c-0.335-0.023-0.586,0.023-0.751,0.142
		c-0.108,0.071-0.185,0.163-0.23,0.276s-0.035,0.227,0.032,0.341c0.076,0.118,0.271,0.203,0.588,0.255
		c0.019,0.005,0.072,0.016,0.159,0.032s0.146,0.029,0.174,0.038c0.028,0.01,0.078,0.024,0.149,0.043
		c0.071,0.019,0.126,0.039,0.167,0.061c0.04,0.021,0.086,0.048,0.138,0.081c0.052,0.033,0.097,0.068,0.134,0.106
		c0.095,0.095,0.161,0.203,0.199,0.326c0.038,0.146,0.033,0.295-0.014,0.446c-0.095,0.359-0.321,0.624-0.681,0.794
		c-0.217,0.099-0.482,0.149-0.793,0.152c-0.312,0.002-0.588-0.042-0.829-0.132c-0.127-0.047-0.274-0.115-0.439-0.205L108.895,64.708
		z"/>
</g>
<g>
	<path d="M115.715,63.426c-0.172,0.201-0.961,1.076-1.176,1.076c-0.072,0-0.172-0.029-0.172-0.144c0-0.028,0-0.058,0.129-0.187
		c0.731-0.803,1.578-1.951,2.123-3.959c0.373-1.405,0.502-2.868,0.502-4.317c0-1.334-0.129-2.811-0.459-4.116
		c-0.588-2.28-1.521-3.442-2.209-4.188c-0.058-0.043-0.086-0.086-0.086-0.144c0-0.114,0.1-0.143,0.172-0.143
		c0.258,0,1.19,1.09,1.334,1.262c1.879,2.424,2.237,5.307,2.237,7.344C118.11,59.108,117.178,61.69,115.715,63.426z"/>
</g>
<g>
	<path d="M121.155,46.251c-0.04-0.033-0.091-0.089-0.154-0.169c-0.063-0.079-0.101-0.125-0.114-0.139
		c-0.073-0.086-0.109-0.139-0.109-0.158c-0.013-0.033,0-0.097,0.04-0.188c0.125-0.351,0.311-0.648,0.556-0.894
		c0.397-0.37,0.898-0.556,1.503-0.556c0.605,0,1.116,0.176,1.533,0.526c0.337,0.277,0.555,0.64,0.655,1.086
		c0.099,0.446,0.049,0.868-0.149,1.265c-0.073,0.133-0.152,0.259-0.238,0.378c-0.086,0.118-0.202,0.244-0.347,0.377
		c-0.146,0.132-0.251,0.227-0.317,0.282c-0.066,0.057-0.202,0.164-0.407,0.322c-0.205,0.159-0.321,0.248-0.347,0.269
		c-0.225,0.178-0.536,0.444-0.933,0.798c-0.397,0.354-0.688,0.607-0.873,0.76h3.661v0.585h-4.266v-0.367
		c0-0.093,0.005-0.15,0.015-0.174c0.01-0.022,0.038-0.058,0.084-0.104c0.146-0.126,0.409-0.362,0.789-0.71
		c0.38-0.347,0.656-0.59,0.828-0.729c0.04-0.033,0.137-0.111,0.293-0.233c0.155-0.122,0.27-0.215,0.342-0.278
		c0.073-0.062,0.178-0.156,0.317-0.282c0.139-0.126,0.248-0.238,0.327-0.338c0.08-0.099,0.166-0.213,0.258-0.342
		c0.092-0.129,0.164-0.262,0.213-0.396c0.049-0.136,0.084-0.273,0.104-0.412c0.046-0.377-0.023-0.711-0.208-1.002
		c-0.284-0.424-0.731-0.658-1.339-0.704c-0.291-0.021-0.542,0.013-0.754,0.099C121.681,45.008,121.36,45.483,121.155,46.251z"/>
</g>
</svg>
