<?xml version="1.0" encoding="iso-8859-1"?>
<!-- Generator: Adobe Illustrator 16.0.0, SVG Export Plug-In . SVG Version: 6.00 Build 0)  -->
<!DOCTYPE svg PUBLIC "-//W3C//DTD SVG 1.1//EN" "http://www.w3.org/Graphics/SVG/1.1/DTD/svg11.dtd">
<svg version="1.1" id="Layer_1" xmlns="http://www.w3.org/2000/svg" xmlns:xlink="http://www.w3.org/1999/xlink" x="0px" y="0px"
	 width="566.929px" height="85.039px" viewBox="0 0 566.929 85.039" style="enable-background:new 0 0 566.929 85.039;"
	 xml:space="preserve">
<g>
	<path d="M26.594,41.277c0-0.019,0-0.059,0-0.121c0-0.061,0-0.106,0-0.134s0.002-0.068,0.007-0.121
		c0.004-0.052,0.014-0.09,0.028-0.113s0.033-0.052,0.057-0.085c0.023-0.033,0.054-0.057,0.092-0.071
		c0.038-0.015,0.085-0.021,0.142-0.021c0.161,0.028,0.241,0.194,0.241,0.496V53.65c0,0.028,0.002,0.08,0.007,0.156
		c0.004,0.075,0.007,0.137,0.007,0.185c0,0.047-0.007,0.101-0.021,0.162s-0.038,0.111-0.071,0.149
		c-0.033,0.037-0.078,0.062-0.135,0.07c-0.028,0.01-0.066,0.015-0.113,0.015c-0.047-0.01-0.088-0.026-0.121-0.05
		c-0.033-0.023-0.057-0.05-0.071-0.078s-0.026-0.068-0.036-0.12s-0.014-0.092-0.014-0.12s0-0.071,0-0.128s0-0.095,0-0.113V41.277z"
		/>
</g>
<g>
	<path d="M29.992,44.735c-0.038-0.037-0.161-0.184-0.369-0.439c-0.094-0.122-0.142-0.193-0.142-0.212
		c0-0.02,0.028-0.118,0.085-0.298c0.189-0.539,0.468-0.992,0.836-1.361c0.558-0.5,1.247-0.744,2.069-0.729
		c0.822,0.014,1.517,0.267,2.083,0.758c0.482,0.416,0.789,0.941,0.921,1.574c0.132,0.633,0.057,1.232-0.227,1.8
		c-0.066,0.133-0.142,0.262-0.227,0.39c-0.085,0.128-0.187,0.258-0.305,0.39c-0.119,0.133-0.215,0.241-0.291,0.326
		c-0.076,0.085-0.196,0.198-0.362,0.34c-0.165,0.142-0.279,0.239-0.34,0.291c-0.062,0.052-0.189,0.155-0.383,0.312
		c-0.194,0.156-0.31,0.248-0.347,0.276c-0.142,0.104-0.555,0.461-1.24,1.07s-1.136,1.019-1.354,1.226h5.131v0.794h-5.953v-0.496
		c0-0.123,0.007-0.2,0.021-0.233s0.054-0.083,0.121-0.149l0.241-0.227l1.956-1.8c0.057-0.048,0.201-0.168,0.432-0.361
		c0.231-0.194,0.399-0.336,0.503-0.426c0.104-0.09,0.257-0.231,0.46-0.425s0.356-0.363,0.46-0.511
		c0.104-0.146,0.222-0.316,0.354-0.51s0.234-0.392,0.305-0.596c0.071-0.203,0.121-0.408,0.149-0.616
		c0.047-0.576-0.076-1.072-0.369-1.488c-0.406-0.557-1.011-0.869-1.814-0.936c-0.378-0.028-0.718,0.014-1.021,0.128
		C30.701,42.898,30.238,43.611,29.992,44.735z"/>
</g>
<g>
	<path d="M37.178,42.199c0.057-0.34,0.113-0.581,0.17-0.723c0.123-0.038,0.468-0.05,1.035-0.036s0.926,0.017,1.077,0.007h7.058
		l-0.156,0.751H42.55c-0.17,0-0.265,0.014-0.284,0.042c-0.028,0.047-0.042,0.104-0.042,0.17c-1.001,4.63-1.616,7.512-1.842,8.646
		l-0.057,0.156c-0.019,0.019-0.109,0.028-0.27,0.028h-0.708l1.927-9.042H37.178z"/>
</g>
<g>
	<path d="M48.562,41.277c0-0.019,0-0.059,0-0.121c0-0.061,0-0.106,0-0.134s0.002-0.068,0.007-0.121
		c0.004-0.052,0.014-0.09,0.028-0.113s0.033-0.052,0.057-0.085c0.023-0.033,0.054-0.057,0.092-0.071
		c0.038-0.015,0.085-0.021,0.142-0.021c0.161,0.028,0.241,0.194,0.241,0.496V53.65c0,0.028,0.002,0.08,0.007,0.156
		c0.004,0.075,0.007,0.137,0.007,0.185c0,0.047-0.007,0.101-0.021,0.162s-0.038,0.111-0.071,0.149
		c-0.033,0.037-0.078,0.062-0.135,0.07c-0.028,0.01-0.066,0.015-0.113,0.015c-0.047-0.01-0.088-0.026-0.121-0.05
		c-0.033-0.023-0.057-0.05-0.071-0.078s-0.026-0.068-0.036-0.12s-0.014-0.092-0.014-0.12s0-0.071,0-0.128s0-0.095,0-0.113V41.277z"
		/>
</g>
<g>
	<path d="M55.586,48.732c0.057-0.094,0.198-0.142,0.425-0.142h8.093H64.7c0.123,0.02,0.208,0.083,0.255,0.191
		s0.023,0.205-0.071,0.29c-0.057,0.058-0.156,0.086-0.297,0.086h-8.575c-0.142,0-0.227-0.005-0.255-0.015
		c-0.085-0.019-0.146-0.073-0.184-0.163C55.534,48.891,55.539,48.809,55.586,48.732z M55.756,45.855
		c0.019-0.01,0.099-0.015,0.241-0.015h8.122l0.297-0.014c0.199,0,0.298,0.005,0.298,0.014c0.113,0.02,0.191,0.085,0.234,0.199
		c0.042,0.113,0.021,0.208-0.064,0.283c-0.057,0.057-0.161,0.085-0.312,0.085h-8.519c-0.151,0-0.241-0.005-0.269-0.015
		c-0.151-0.028-0.229-0.115-0.234-0.262S55.615,45.894,55.756,45.855z"/>
</g>
<g>
	<path d="M71.397,41.277c0-0.019,0-0.059,0-0.121c0-0.061,0-0.106,0-0.134s0.002-0.068,0.007-0.121
		c0.004-0.052,0.014-0.09,0.028-0.113s0.033-0.052,0.057-0.085c0.023-0.033,0.054-0.057,0.092-0.071
		c0.038-0.015,0.085-0.021,0.142-0.021c0.161,0.028,0.241,0.194,0.241,0.496V53.65c0,0.028,0.002,0.08,0.007,0.156
		c0.004,0.075,0.007,0.137,0.007,0.185c0,0.047-0.007,0.101-0.021,0.162s-0.038,0.111-0.071,0.149
		c-0.033,0.037-0.078,0.062-0.135,0.07c-0.028,0.01-0.066,0.015-0.113,0.015c-0.047-0.01-0.088-0.026-0.121-0.05
		c-0.033-0.023-0.057-0.05-0.071-0.078s-0.026-0.068-0.036-0.12s-0.014-0.092-0.014-0.12s0-0.071,0-0.128s0-0.095,0-0.113V41.277z"
		/>
</g>
<g>
	<path d="M74.47,41.405h0.765c0.17,0,0.26,0.01,0.269,0.029c0.038,0.038,0.057,0.104,0.057,0.198l0.425,2.168
		c0,0.01,0.078,0.424,0.234,1.24c0.156,0.817,0.326,1.713,0.51,2.687c0.185,0.973,0.305,1.62,0.361,1.941
		c0.01,0.048,0.026,0.148,0.05,0.305s0.045,0.276,0.064,0.361l0.496-0.851l0.921-1.517l3.912-6.349l0.142-0.184
		c0.123-0.019,0.435-0.029,0.936-0.029l-6.01,9.723l-0.142,0.185c-0.227,0.009-0.586,0.014-1.077,0.014L74.47,41.405z"/>
</g>
<g>
	<path d="M85.729,41.277c0-0.019,0-0.059,0-0.121c0-0.061,0-0.106,0-0.134s0.002-0.068,0.007-0.121
		c0.004-0.052,0.014-0.09,0.028-0.113s0.033-0.052,0.057-0.085c0.023-0.033,0.054-0.057,0.092-0.071
		c0.038-0.015,0.085-0.021,0.142-0.021c0.161,0.028,0.241,0.194,0.241,0.496V53.65c0,0.028,0.002,0.08,0.007,0.156
		c0.004,0.075,0.007,0.137,0.007,0.185c0,0.047-0.007,0.101-0.021,0.162s-0.038,0.111-0.071,0.149
		c-0.033,0.037-0.078,0.062-0.135,0.07c-0.028,0.01-0.066,0.015-0.113,0.015c-0.047-0.01-0.088-0.026-0.121-0.05
		c-0.033-0.023-0.057-0.05-0.071-0.078s-0.026-0.068-0.036-0.12s-0.014-0.092-0.014-0.12s0-0.071,0-0.128s0-0.095,0-0.113V41.277z"
		/>
</g>
</svg>
