<?xml version="1.0" encoding="iso-8859-1"?>
<!-- Generator: Adobe Illustrator 16.0.0, SVG Export Plug-In . SVG Version: 6.00 Build 0)  -->
<!DOCTYPE svg PUBLIC "-//W3C//DTD SVG 1.1//EN" "http://www.w3.org/Graphics/SVG/1.1/DTD/svg11.dtd">
<svg version="1.1" id="Layer_1" xmlns="http://www.w3.org/2000/svg" xmlns:xlink="http://www.w3.org/1999/xlink" x="0px" y="0px"
	 width="566.929px" height="85.039px" viewBox="0 0 566.929 85.039" style="enable-background:new 0 0 566.929 85.039;"
	 xml:space="preserve">
<g>
	<path d="M28.266,51.758c-0.019-0.132-0.057-0.273-0.113-0.425s-0.106-0.278-0.149-0.383c-0.042-0.104-0.116-0.253-0.22-0.446
		s-0.17-0.316-0.198-0.369c-0.028-0.052-0.109-0.186-0.241-0.403l-0.213-0.326c-0.132-0.208-0.217-0.34-0.255-0.396
		c-0.038-0.057-0.118-0.187-0.241-0.39c-0.123-0.203-0.206-0.346-0.248-0.426s-0.113-0.215-0.212-0.403
		c-0.099-0.189-0.166-0.338-0.198-0.447c-0.034-0.108-0.076-0.252-0.128-0.432s-0.085-0.336-0.099-0.468
		c-0.014-0.133-0.021-0.281-0.021-0.446c0-0.166,0.014-0.329,0.042-0.489c0.208-1.077,0.893-1.904,2.055-2.48
		c0.699-0.35,1.462-0.536,2.289-0.56c0.827-0.023,1.599,0.116,2.317,0.418c0.614,0.265,1.139,0.636,1.573,1.112
		c0.435,0.478,0.694,1.019,0.78,1.623c0.047,0.331,0.044,0.659-0.007,0.985c-0.052,0.325-0.17,0.676-0.354,1.049
		c-0.184,0.373-0.331,0.654-0.439,0.843c-0.109,0.189-0.3,0.491-0.574,0.907L32.986,50.1c-0.387,0.605-0.624,1.158-0.708,1.658
		h2.693v0.794h-3.501c0-0.52,0.1-1.034,0.298-1.545c0.198-0.51,0.482-1.084,0.851-1.722c0.368-0.638,0.619-1.104,0.751-1.396
		c0.491-1.134,0.576-2.078,0.255-2.835c-0.066-0.17-0.161-0.34-0.283-0.51c-0.397-0.558-0.95-0.94-1.658-1.147
		c-0.709-0.209-1.432-0.26-2.168-0.156c-0.756,0.113-1.396,0.406-1.92,0.879c-0.524,0.472-0.815,1.054-0.872,1.743
		c-0.038,0.633,0.137,1.36,0.524,2.183c0.114,0.255,0.354,0.701,0.723,1.339c0.368,0.638,0.645,1.2,0.829,1.687
		c0.184,0.487,0.276,0.98,0.276,1.481h-3.501v-0.794H28.266z"/>
	<path d="M40.427,50.043c0.057-0.094,0.198-0.142,0.425-0.142h8.093h0.595c0.123,0.02,0.208,0.083,0.255,0.191
		s0.023,0.205-0.071,0.29c-0.057,0.058-0.156,0.086-0.297,0.086h-8.575c-0.142,0-0.227-0.005-0.255-0.015
		c-0.085-0.019-0.146-0.073-0.184-0.163C40.375,50.201,40.38,50.119,40.427,50.043z M40.597,47.166
		c0.019-0.01,0.099-0.015,0.241-0.015h8.122l0.297-0.014c0.199,0,0.298,0.005,0.298,0.014c0.113,0.02,0.191,0.085,0.234,0.199
		c0.042,0.113,0.021,0.208-0.064,0.283c-0.057,0.057-0.161,0.085-0.312,0.085h-8.519c-0.151,0-0.241-0.005-0.269-0.015
		c-0.151-0.028-0.229-0.115-0.234-0.262S40.456,47.204,40.597,47.166z"/>
</g>
<g>
	<path d="M58.512,37.75c-0.028-0.01-0.108-0.036-0.241-0.078s-0.232-0.083-0.298-0.121c-0.614-0.264-1.044-0.689-1.29-1.275
		c-0.161-0.425-0.161-0.855,0-1.29c0.161-0.435,0.425-0.798,0.793-1.091c0.567-0.463,1.276-0.685,2.126-0.666
		c0.652,0.019,1.25,0.227,1.793,0.624s0.857,0.907,0.942,1.531c0.038,0.425-0.028,0.799-0.198,1.12
		c-0.246,0.454-0.633,0.799-1.162,1.035c-0.076,0.038-0.182,0.081-0.319,0.127c-0.137,0.047-0.22,0.076-0.248,0.085
		c0.548,0.161,0.978,0.382,1.29,0.666c0.359,0.312,0.609,0.68,0.751,1.105c0.142,0.435,0.142,0.891,0,1.368
		c-0.142,0.477-0.378,0.881-0.709,1.212c-0.633,0.624-1.436,0.926-2.409,0.907c-0.662-0.019-1.271-0.233-1.829-0.645
		s-0.912-0.933-1.063-1.566c-0.047-0.208-0.071-0.401-0.071-0.581c0-0.5,0.161-0.968,0.482-1.403
		C57.203,38.34,57.756,37.986,58.512,37.75z M59.235,38.104c-0.615,0.047-1.096,0.265-1.446,0.652
		c-0.34,0.407-0.503,0.896-0.489,1.467s0.172,1.037,0.475,1.396c0.444,0.501,1.067,0.718,1.871,0.652
		c0.473-0.038,0.872-0.167,1.198-0.39s0.546-0.532,0.659-0.928c0.132-0.35,0.163-0.742,0.092-1.177
		c-0.071-0.434-0.239-0.789-0.503-1.063C60.647,38.26,60.028,38.057,59.235,38.104z M59.235,33.937
		c-0.586,0.047-1.03,0.213-1.333,0.496c-0.302,0.284-0.465,0.664-0.489,1.141c-0.024,0.477,0.101,0.872,0.375,1.184
		c0.435,0.491,1.101,0.699,1.999,0.624c0.567-0.047,1.016-0.255,1.346-0.624c0.255-0.302,0.378-0.678,0.369-1.127
		c-0.01-0.449-0.142-0.82-0.397-1.113C60.699,34.074,60.076,33.88,59.235,33.937z"/>
</g>
<g>
	<path d="M63.586,38.217c0.038-0.113,0.198-0.387,0.482-0.822c0.444-0.624,0.93-1.025,1.459-1.205
		c0.104-0.038,0.225-0.066,0.362-0.085c0.137-0.019,0.246-0.03,0.326-0.035s0.21-0.005,0.39,0c0.18,0.005,0.293,0.007,0.34,0.007
		h4.323c0.312,0,0.496,0.066,0.553,0.199c0.019,0.057,0.028,0.094,0.028,0.113c0.009,0.113-0.023,0.222-0.099,0.326
		s-0.17,0.17-0.283,0.198c-0.066,0.019-0.218,0.028-0.454,0.028h-1.162c-0.076,0-0.128,0.019-0.156,0.057
		c-0.009,0.019-0.028,0.109-0.057,0.27s-0.057,0.331-0.085,0.51c-0.028,0.179-0.047,0.283-0.057,0.312
		c-0.246,1.663-0.194,2.939,0.156,3.827c0.009,0.019,0.028,0.064,0.057,0.135s0.045,0.121,0.05,0.149
		c0.004,0.028,0.012,0.071,0.021,0.127s0.007,0.106-0.007,0.149s-0.036,0.087-0.064,0.135c-0.094,0.132-0.22,0.22-0.375,0.262
		s-0.291-0.002-0.404-0.135c-0.123-0.161-0.255-0.572-0.397-1.233c-0.198-1.096-0.142-2.461,0.17-4.096
		c0.038-0.208,0.071-0.364,0.1-0.468h-1.163c-0.293,1.795-0.803,3.6-1.53,5.414c-0.066,0.17-0.142,0.298-0.227,0.383
		c-0.095,0.085-0.201,0.132-0.319,0.142s-0.225-0.023-0.319-0.099c-0.104-0.104-0.123-0.255-0.057-0.454l0.397-1.021
		c0.312-0.878,0.694-2.333,1.148-4.365h-0.524c-0.35,0-0.605,0.047-0.766,0.142c-0.302,0.161-0.59,0.482-0.864,0.964
		c-0.057,0.085-0.095,0.132-0.114,0.142c-0.028,0.019-0.113,0.028-0.255,0.028H63.586z"/>
	<path d="M81.231,38.104l-0.794,3.742c-0.009,0.019-0.017,0.055-0.021,0.106c-0.005,0.052-0.012,0.097-0.021,0.135
		s-0.023,0.066-0.042,0.085c-0.113,0.113-0.657,0.293-1.63,0.539c-1.672,0.369-2.996,0.161-3.968-0.624
		c-0.501-0.425-0.851-0.917-1.049-1.474c-0.397-0.992-0.411-2.079-0.043-3.26c0.321-1.049,0.881-1.977,1.68-2.785
		c0.798-0.808,1.722-1.344,2.771-1.608c0.945-0.236,1.899-0.208,2.863,0.085c0.321,0.094,0.69,0.25,1.105,0.468l-0.382,0.992
		c-0.52-0.368-0.803-0.562-0.851-0.581c-0.312-0.151-0.685-0.255-1.12-0.312s-0.87-0.047-1.304,0.028
		c-0.954,0.189-1.783,0.685-2.487,1.488s-1.174,1.706-1.41,2.707c-0.236,1.077-0.142,2.012,0.284,2.806
		c0.227,0.425,0.505,0.751,0.836,0.978c0.822,0.604,2.018,0.68,3.586,0.227c0.189-0.057,0.298-0.108,0.326-0.156
		c0-0.009,0.151-0.718,0.453-2.126c0.057-0.321,0.109-0.558,0.156-0.708h-2.225c0.057-0.34,0.113-0.581,0.17-0.723l0.227-0.028
		H81.231z"/>
	<path d="M84.888,42.044l-0.411,1.928c0,0.018-0.026,0.154-0.078,0.41s-0.097,0.449-0.134,0.582c-0.057,0.17-0.17,0.295-0.34,0.375
		s-0.326,0.055-0.468-0.078c-0.095-0.086-0.109-0.273-0.042-0.566l0.297-1.432c0.539-2.57,0.851-3.993,0.936-4.267
		c0.236-0.803,0.662-1.512,1.276-2.126c0.377-0.359,0.805-0.624,1.283-0.794c0.477-0.17,0.933-0.165,1.368,0.014
		c0.368,0.17,0.656,0.411,0.864,0.723c0.293,0.435,0.439,1.001,0.439,1.701c0,0.662-0.14,1.306-0.418,1.935
		c-0.279,0.628-0.664,1.165-1.155,1.609c-0.369,0.331-0.777,0.569-1.226,0.716c-0.449,0.146-0.881,0.144-1.297-0.007
		C85.45,42.654,85.152,42.413,84.888,42.044z M87.624,36.673c-0.567,0.057-1.054,0.368-1.46,0.935
		c-0.491,0.681-0.779,1.63-0.865,2.849c-0.028,0.387,0.043,0.747,0.213,1.077s0.43,0.534,0.779,0.609
		c0.085,0.019,0.213,0.028,0.383,0.028c0.435-0.038,0.841-0.246,1.219-0.624c0.482-0.491,0.822-1.262,1.021-2.311
		c0.066-0.416,0.099-0.694,0.099-0.836c0-0.822-0.231-1.351-0.694-1.587C88.138,36.72,87.907,36.673,87.624,36.673z"/>
</g>
<g>
	<rect x="55.748" y="48.525" width="34.344" height="0.574"/>
</g>
<g>
	<path d="M61.964,54.863l-0.312-0.439c-0.066-0.085-0.099-0.151-0.099-0.198c0-0.057,0.089-0.199,0.269-0.426
		c0.302-0.387,0.68-0.689,1.134-0.907c0.851-0.406,1.698-0.468,2.544-0.184c0.845,0.283,1.363,0.784,1.552,1.502
		c0.151,0.614,0.009,1.229-0.425,1.843c-0.227,0.303-0.505,0.558-0.836,0.766c-0.057,0.037-0.135,0.082-0.234,0.134
		c-0.1,0.053-0.168,0.088-0.206,0.106c0.255,0.038,0.539,0.151,0.85,0.341c0.614,0.35,1.011,0.821,1.191,1.417
		c0.16,0.501,0.158,0.992-0.007,1.474c-0.166,0.482-0.423,0.884-0.772,1.205c-0.17,0.161-0.383,0.312-0.638,0.453
		c-0.775,0.406-1.644,0.478-2.608,0.213c-0.708-0.208-1.342-0.628-1.899-1.262c-0.076-0.094-0.116-0.158-0.12-0.191
		c-0.005-0.032,0.002-0.105,0.021-0.219c0.057-0.312,0.09-0.478,0.099-0.496c0.359,0.481,0.723,0.826,1.091,1.034
		c0.34,0.208,0.704,0.361,1.092,0.461c0.387,0.099,0.787,0.115,1.197,0.049c0.411-0.065,0.763-0.23,1.056-0.495
		c0.331-0.303,0.529-0.709,0.595-1.22c0.066-0.51-0.005-0.959-0.212-1.346c-0.227-0.444-0.586-0.756-1.078-0.936
		c-0.236-0.085-0.595-0.128-1.077-0.128h-0.949v-0.709c0.812-0.047,1.36-0.122,1.644-0.227c0.359-0.132,0.659-0.352,0.9-0.659
		c0.241-0.307,0.38-0.649,0.418-1.027c0.047-0.416-0.066-0.774-0.34-1.077c-0.284-0.283-0.664-0.441-1.141-0.475
		s-0.891,0.04-1.24,0.22c-0.435,0.18-0.812,0.473-1.134,0.879c-0.047,0.066-0.106,0.158-0.177,0.276S61.993,54.815,61.964,54.863z"
		/>
</g>
<g>
	<path d="M71.617,52.241h0.992c-0.198,0.973-0.505,2.424-0.921,4.351h5.102c0.028,0,0.052-0.002,0.071-0.007
		s0.038-0.014,0.057-0.028c0.019-0.014,0.033-0.025,0.042-0.035c0.009-0.01,0.016-0.028,0.021-0.057s0.009-0.048,0.014-0.057
		c0.005-0.01,0.009-0.031,0.014-0.064c0.005-0.032,0.007-0.054,0.007-0.063l0.17-0.794c0.066-0.321,0.177-0.843,0.333-1.565
		c0.156-0.724,0.271-1.283,0.347-1.68h0.992c-0.009,0.057-0.34,1.625-0.992,4.705c-0.652,3.081-0.992,4.687-1.021,4.819
		c-0.019,0.142-0.042,0.231-0.071,0.269c-0.019,0.028-0.104,0.043-0.255,0.043h-0.737l1.006-4.733h-5.13l-0.114,0.028
		c-0.227,0.973-0.548,2.451-0.963,4.436l-0.071,0.241c-0.132,0.019-0.458,0.028-0.978,0.028L71.617,52.241z"/>
</g>
<g>
	<path d="M80.134,53.439c-0.04-0.033-0.091-0.089-0.154-0.169c-0.063-0.079-0.101-0.125-0.114-0.139
		c-0.073-0.086-0.109-0.139-0.109-0.158c-0.013-0.033,0-0.097,0.04-0.188c0.125-0.351,0.311-0.648,0.556-0.894
		c0.397-0.37,0.898-0.556,1.503-0.556c0.605,0,1.116,0.176,1.533,0.526c0.337,0.277,0.555,0.64,0.655,1.086
		c0.099,0.446,0.049,0.868-0.149,1.265c-0.073,0.133-0.152,0.259-0.238,0.378c-0.086,0.118-0.202,0.244-0.347,0.377
		c-0.146,0.132-0.251,0.227-0.317,0.282c-0.066,0.057-0.202,0.164-0.407,0.322c-0.205,0.159-0.321,0.248-0.347,0.269
		c-0.225,0.178-0.536,0.444-0.933,0.798c-0.397,0.354-0.688,0.607-0.873,0.76h3.661v0.585h-4.266v-0.367
		c0-0.093,0.005-0.15,0.015-0.174c0.01-0.022,0.038-0.058,0.084-0.104c0.146-0.126,0.409-0.362,0.789-0.71
		c0.38-0.347,0.656-0.59,0.828-0.729c0.04-0.033,0.137-0.111,0.293-0.233c0.155-0.122,0.27-0.215,0.342-0.278
		c0.073-0.062,0.178-0.156,0.317-0.282c0.139-0.126,0.248-0.238,0.327-0.338c0.08-0.099,0.166-0.213,0.258-0.342
		c0.092-0.129,0.164-0.262,0.213-0.396c0.049-0.136,0.084-0.273,0.104-0.412c0.046-0.377-0.023-0.711-0.208-1.002
		c-0.284-0.424-0.731-0.658-1.339-0.704c-0.291-0.021-0.542,0.013-0.754,0.099C80.66,52.196,80.339,52.672,80.134,53.439z"/>
</g>
</svg>
