<?xml version="1.0" encoding="iso-8859-1"?>
<!-- Generator: Adobe Illustrator 16.0.0, SVG Export Plug-In . SVG Version: 6.00 Build 0)  -->
<!DOCTYPE svg PUBLIC "-//W3C//DTD SVG 1.1//EN" "http://www.w3.org/Graphics/SVG/1.1/DTD/svg11.dtd">
<svg version="1.1" id="Layer_1" xmlns="http://www.w3.org/2000/svg" xmlns:xlink="http://www.w3.org/1999/xlink" x="0px" y="0px"
	 width="566.929px" height="85.039px" viewBox="0 0 566.929 85.039" style="enable-background:new 0 0 566.929 85.039;"
	 xml:space="preserve">
<g>
	<path d="M26.537,47.485h0.907c0.066,0.425,0.163,1.027,0.291,1.807s0.241,1.491,0.34,2.133c0.1,0.643,0.187,1.257,0.262,1.843
		l3.289-5.627l0.113-0.142c0.179-0.009,0.468-0.014,0.865-0.014l-3.827,6.533l-0.127,0.171c-0.142,0.019-0.487,0.028-1.035,0.028
		c-0.085-0.52-0.253-1.557-0.503-3.111C26.861,49.552,26.669,48.345,26.537,47.485z"/>
</g>
<g>
	<path d="M37.806,51.666c0.057-0.094,0.198-0.142,0.425-0.142h8.093h0.595c0.123,0.02,0.208,0.083,0.255,0.191
		s0.023,0.205-0.071,0.29c-0.057,0.058-0.156,0.086-0.297,0.086H38.23c-0.142,0-0.227-0.005-0.255-0.015
		c-0.085-0.019-0.146-0.073-0.184-0.163C37.753,51.824,37.758,51.742,37.806,51.666z M37.976,48.789
		c0.019-0.01,0.099-0.015,0.241-0.015h8.122l0.297-0.014c0.199,0,0.298,0.005,0.298,0.014c0.113,0.02,0.191,0.085,0.234,0.199
		c0.042,0.113,0.021,0.208-0.064,0.283c-0.057,0.057-0.161,0.085-0.312,0.085h-8.519c-0.151,0-0.241-0.005-0.269-0.015
		c-0.151-0.028-0.229-0.115-0.234-0.262S37.834,48.827,37.976,48.789z"/>
</g>
<g>
	<path d="M65.958,30.959c0.043-0.201,0.086-0.387,0.315-0.387c0.172,0,0.287,0.129,0.287,0.287c0,0.071-0.029,0.201-0.058,0.301
		l-7.889,33.463c-0.086,0.373-0.129,0.373-0.603,0.373l-3.313-15.391l-0.975,1.535c-0.014-0.015-0.201-0.172-0.201-0.229
		c0-0.015,0-0.043,0.1-0.172l1.879-2.955L58.6,62.156h0.015L65.958,30.959z"/>
</g>
<g>
	<rect x="66.276" y="30.572" width="26.577" height="0.574"/>
</g>
<g>
	<path d="M76.344,39.727l-0.794,3.742c-0.009,0.019-0.017,0.054-0.021,0.105c-0.005,0.053-0.012,0.098-0.021,0.135
		c-0.009,0.038-0.023,0.066-0.042,0.085c-0.113,0.114-0.657,0.293-1.63,0.539c-1.672,0.368-2.996,0.16-3.968-0.624
		c-0.501-0.425-0.851-0.916-1.049-1.474c-0.397-0.992-0.411-2.079-0.043-3.26c0.321-1.049,0.881-1.977,1.68-2.785
		c0.798-0.808,1.722-1.344,2.771-1.608c0.945-0.236,1.899-0.208,2.863,0.085c0.321,0.094,0.69,0.25,1.105,0.468l-0.382,0.992
		c-0.52-0.368-0.803-0.562-0.851-0.581c-0.312-0.151-0.685-0.255-1.12-0.312s-0.87-0.047-1.304,0.028
		c-0.954,0.189-1.783,0.685-2.487,1.488s-1.174,1.706-1.41,2.707c-0.236,1.077-0.142,2.012,0.284,2.806
		c0.227,0.425,0.505,0.751,0.836,0.979c0.822,0.604,2.018,0.68,3.586,0.227c0.189-0.057,0.298-0.109,0.326-0.156
		c0-0.01,0.151-0.718,0.453-2.126c0.057-0.321,0.109-0.558,0.156-0.708h-2.225c0.057-0.34,0.113-0.581,0.17-0.723l0.227-0.028
		H76.344z"/>
	<path d="M81.545,34.553h1.304l1.502,7.795l0.142,0.894h0.014c0.047-0.104,0.387-0.674,1.021-1.708
		c0.633-1.035,1.401-2.277,2.303-3.728c0.902-1.45,1.41-2.27,1.523-2.459l0.326-0.51c0.066-0.132,0.123-0.217,0.17-0.255
		c0.028-0.019,0.146-0.029,0.354-0.029h0.95l-1.587,7.541c-0.227,1.039-0.378,1.743-0.454,2.111l-0.057,0.156
		c-0.113,0.019-0.402,0.028-0.865,0.028l1.899-8.929h-0.014l-0.496,0.851l-4.72,7.639l-0.127,0.17
		c-0.114,0.02-0.397,0.028-0.851,0.028c-0.047-0.245-0.288-1.459-0.723-3.642c-0.435-2.183-0.737-3.865-0.907-5.046H82.24
		l-1.857,8.745l-0.057,0.156c-0.113,0.019-0.401,0.028-0.864,0.028L81.545,34.553z"/>
</g>
<g>
	<rect x="67.471" y="50.148" width="24.186" height="0.574"/>
</g>
<g>
	<path d="M79.36,58.783c0.075-0.189,0.274-0.444,0.595-0.766c0.746-0.746,1.568-1.119,2.466-1.119
		c-0.114,0.501-0.175,0.756-0.185,0.765c-0.019,0.028-0.104,0.043-0.255,0.043c-0.756,0.047-1.441,0.373-2.055,0.978
		c-0.35,0.331-0.605,0.732-0.766,1.205c-0.047,0.151-0.212,0.921-0.496,2.311l-0.241,1.091c-0.019,0.133-0.038,0.223-0.057,0.27
		c0,0.038-0.005,0.066-0.014,0.085c-0.01,0.019-0.026,0.033-0.05,0.042c-0.023,0.01-0.042,0.015-0.057,0.015s-0.042,0-0.085,0
		s-0.069,0-0.078,0h-0.638l1.417-6.689h0.85l-0.368,1.771H79.36z"/>
</g>
</svg>
