<?xml version="1.0" encoding="iso-8859-1"?>
<!-- Generator: Adobe Illustrator 16.0.0, SVG Export Plug-In . SVG Version: 6.00 Build 0)  -->
<!DOCTYPE svg PUBLIC "-//W3C//DTD SVG 1.1//EN" "http://www.w3.org/Graphics/SVG/1.1/DTD/svg11.dtd">
<svg version="1.1" id="Layer_1" xmlns="http://www.w3.org/2000/svg" xmlns:xlink="http://www.w3.org/1999/xlink" x="0px" y="0px"
	 width="566.929px" height="85.039px" viewBox="0 0 566.929 85.039" style="enable-background:new 0 0 566.929 85.039;"
	 xml:space="preserve">
<g>
	<path d="M28.266,50.565c-0.019-0.132-0.057-0.273-0.113-0.425s-0.106-0.278-0.149-0.383c-0.042-0.104-0.116-0.253-0.22-0.446
		s-0.17-0.316-0.198-0.369c-0.028-0.052-0.109-0.186-0.241-0.403l-0.213-0.326c-0.132-0.208-0.217-0.34-0.255-0.396
		c-0.038-0.057-0.118-0.187-0.241-0.39c-0.123-0.203-0.206-0.346-0.248-0.426s-0.113-0.215-0.212-0.403
		c-0.099-0.189-0.166-0.338-0.198-0.447c-0.034-0.108-0.076-0.252-0.128-0.432s-0.085-0.336-0.099-0.468
		c-0.014-0.133-0.021-0.281-0.021-0.446c0-0.166,0.014-0.329,0.042-0.489c0.208-1.077,0.893-1.904,2.055-2.48
		c0.699-0.35,1.462-0.536,2.289-0.56c0.827-0.023,1.599,0.116,2.317,0.418c0.614,0.265,1.139,0.635,1.573,1.112
		c0.435,0.478,0.694,1.019,0.78,1.623c0.047,0.331,0.044,0.659-0.007,0.985c-0.052,0.325-0.17,0.676-0.354,1.049
		c-0.184,0.373-0.331,0.654-0.439,0.843c-0.109,0.189-0.3,0.491-0.574,0.907l-0.425,0.694c-0.387,0.605-0.624,1.158-0.708,1.658
		h2.693v0.794h-3.501c0-0.52,0.1-1.034,0.298-1.545c0.198-0.51,0.482-1.084,0.851-1.722c0.368-0.638,0.619-1.104,0.751-1.396
		c0.491-1.134,0.576-2.078,0.255-2.835c-0.066-0.17-0.161-0.34-0.283-0.51c-0.397-0.558-0.95-0.94-1.658-1.148
		c-0.709-0.208-1.432-0.26-2.168-0.156c-0.756,0.114-1.396,0.407-1.92,0.879s-0.815,1.054-0.872,1.744
		c-0.038,0.633,0.137,1.36,0.524,2.183c0.114,0.255,0.354,0.701,0.723,1.339c0.368,0.638,0.645,1.2,0.829,1.687
		c0.184,0.487,0.276,0.98,0.276,1.481h-3.501v-0.794H28.266z"/>
</g>
<g>
	<path d="M37.917,49.765c0.079-0.146,0.191-0.284,0.337-0.416c0.344-0.345,0.725-0.546,1.141-0.605
		c0.099-0.02,0.251-0.023,0.457-0.01c0.397,0.026,0.678,0.152,0.843,0.377c0.112,0.165,0.168,0.394,0.168,0.685
		c0.146-0.252,0.357-0.478,0.635-0.68s0.565-0.326,0.863-0.372c0.1-0.02,0.251-0.023,0.457-0.01c0.45,0.039,0.748,0.191,0.893,0.456
		c0.132,0.245,0.142,0.642,0.03,1.19l-0.447,2.063c-0.093,0.49-0.159,0.801-0.198,0.933c0,0.073-0.053,0.109-0.159,0.109
		c-0.02,0-0.033,0-0.04,0h-0.496c0.357-1.693,0.565-2.669,0.625-2.927c0.006-0.026,0.018-0.076,0.035-0.148
		c0.017-0.073,0.028-0.128,0.035-0.164c0.006-0.036,0.013-0.088,0.02-0.153c0.006-0.066,0.008-0.121,0.005-0.164
		c-0.003-0.043-0.01-0.093-0.02-0.149c-0.01-0.056-0.028-0.107-0.055-0.153c-0.099-0.191-0.288-0.308-0.565-0.348
		c-0.238-0.039-0.433-0.043-0.585-0.01c-0.265,0.066-0.498,0.215-0.699,0.446c-0.202,0.232-0.349,0.493-0.441,0.784
		c-0.014,0.047-0.063,0.27-0.149,0.67s-0.179,0.825-0.278,1.274c-0.099,0.45-0.152,0.698-0.159,0.744
		c-0.013,0.079-0.026,0.146-0.04,0.198c0,0.027-0.003,0.047-0.01,0.06c-0.006,0.014-0.02,0.023-0.04,0.03s-0.037,0.01-0.049,0.01
		c-0.014,0-0.035,0-0.065,0s-0.048,0-0.054,0h-0.477c0.357-1.693,0.566-2.669,0.625-2.927c0.007-0.026,0.019-0.076,0.035-0.148
		c0.016-0.073,0.028-0.128,0.035-0.164c0.006-0.036,0.013-0.088,0.02-0.153c0.007-0.066,0.008-0.121,0.005-0.164
		c-0.003-0.043-0.01-0.093-0.02-0.149c-0.01-0.056-0.028-0.107-0.055-0.153c-0.099-0.191-0.288-0.308-0.565-0.348
		c-0.238-0.039-0.433-0.043-0.585-0.01c-0.265,0.066-0.498,0.215-0.699,0.446c-0.202,0.232-0.349,0.493-0.441,0.784
		c-0.014,0.047-0.063,0.27-0.149,0.67s-0.179,0.825-0.278,1.274c-0.099,0.45-0.152,0.698-0.159,0.744
		c-0.014,0.079-0.027,0.146-0.04,0.198c0,0.027-0.003,0.047-0.01,0.06c-0.007,0.014-0.02,0.023-0.04,0.03
		c-0.02,0.007-0.037,0.01-0.05,0.01s-0.035,0-0.064,0s-0.048,0-0.055,0h-0.476l0.992-4.683h0.645l-0.199,0.962H37.917z"/>
</g>
<g>
	<path d="M49.411,48.851c0.057-0.094,0.198-0.142,0.425-0.142h8.093h0.595c0.123,0.02,0.208,0.083,0.255,0.191
		s0.023,0.205-0.071,0.29c-0.057,0.058-0.156,0.086-0.297,0.086h-8.575c-0.142,0-0.227-0.005-0.255-0.015
		c-0.085-0.019-0.146-0.073-0.184-0.163C49.358,49.009,49.363,48.927,49.411,48.851z M49.581,45.974
		c0.019-0.01,0.099-0.015,0.241-0.015h8.122l0.297-0.014c0.199,0,0.298,0.005,0.298,0.014c0.113,0.02,0.191,0.085,0.234,0.199
		c0.042,0.113,0.021,0.208-0.064,0.283c-0.057,0.057-0.161,0.085-0.312,0.085h-8.519c-0.151,0-0.241-0.005-0.269-0.015
		c-0.151-0.028-0.229-0.115-0.234-0.262S49.439,46.012,49.581,45.974z"/>
	<path d="M65.766,42.26c0.567-0.359,1.176-0.496,1.829-0.411c0.652,0.085,1.195,0.378,1.63,0.879
		c0.661,0.728,0.992,1.989,0.992,3.784c0,1.37-0.133,2.415-0.397,3.133c-0.321,0.859-0.822,1.437-1.502,1.729
		c-0.51,0.227-1.044,0.285-1.602,0.177s-1.021-0.361-1.389-0.759c-0.708-0.736-1.063-2.063-1.063-3.982
		c0-0.085,0.002-0.215,0.007-0.39c0.004-0.175,0.007-0.305,0.007-0.39c0-0.17,0.019-0.425,0.057-0.766
		C64.486,43.819,64.963,42.818,65.766,42.26z M68.587,43.096c-0.397-0.415-0.891-0.602-1.481-0.559s-1.042,0.291-1.354,0.745
		c-0.18,0.255-0.314,0.588-0.404,0.999c-0.09,0.41-0.142,0.765-0.156,1.062s-0.021,0.721-0.021,1.269
		c0,0.539,0.009,0.978,0.028,1.318c0.019,0.34,0.076,0.725,0.17,1.155c0.095,0.43,0.231,0.777,0.411,1.041
		c0.18,0.256,0.411,0.451,0.695,0.589c0.283,0.137,0.581,0.196,0.893,0.177c0.567-0.047,1.016-0.312,1.347-0.794
		c0.179-0.255,0.316-0.616,0.411-1.084c0.094-0.468,0.148-0.867,0.163-1.197c0.014-0.331,0.021-0.784,0.021-1.361
		c0-1.19-0.09-2.041-0.27-2.551C68.898,43.536,68.747,43.267,68.587,43.096z"/>
</g>
<g>
	<path d="M72.492,50.254h1.105v1.105h-1.105V50.254z"/>
</g>
<g>
	<path d="M76.37,44.146l-0.312-0.439c-0.066-0.085-0.099-0.151-0.099-0.198c0-0.057,0.089-0.199,0.269-0.426
		c0.302-0.387,0.68-0.689,1.134-0.907c0.851-0.406,1.698-0.468,2.544-0.185c0.845,0.284,1.363,0.785,1.552,1.502
		c0.151,0.614,0.009,1.229-0.425,1.843c-0.227,0.303-0.505,0.558-0.836,0.766c-0.057,0.037-0.135,0.082-0.234,0.134
		c-0.1,0.053-0.168,0.088-0.206,0.106c0.255,0.038,0.539,0.151,0.85,0.341c0.614,0.35,1.011,0.821,1.191,1.417
		c0.16,0.501,0.158,0.992-0.007,1.474c-0.166,0.482-0.423,0.884-0.772,1.205c-0.17,0.161-0.383,0.312-0.638,0.453
		c-0.775,0.406-1.644,0.478-2.608,0.213c-0.708-0.208-1.342-0.628-1.899-1.262c-0.076-0.094-0.116-0.158-0.12-0.191
		c-0.005-0.032,0.002-0.105,0.021-0.219c0.057-0.312,0.09-0.478,0.099-0.496c0.359,0.481,0.723,0.826,1.091,1.034
		c0.34,0.208,0.704,0.361,1.092,0.461c0.387,0.099,0.787,0.115,1.197,0.049c0.411-0.065,0.763-0.23,1.056-0.495
		c0.331-0.303,0.529-0.709,0.595-1.22c0.066-0.51-0.005-0.959-0.212-1.346c-0.227-0.444-0.586-0.756-1.078-0.936
		c-0.236-0.085-0.595-0.128-1.077-0.128h-0.949v-0.709c0.812-0.047,1.36-0.122,1.644-0.227c0.359-0.132,0.659-0.352,0.9-0.659
		c0.241-0.307,0.38-0.649,0.418-1.027c0.047-0.416-0.066-0.774-0.34-1.077c-0.284-0.283-0.664-0.441-1.141-0.475
		s-0.891,0.04-1.24,0.22c-0.435,0.18-0.812,0.473-1.134,0.879c-0.047,0.066-0.106,0.158-0.177,0.276S76.398,44.098,76.37,44.146z"/>
	<path d="M84.789,42.26c0.567-0.359,1.176-0.496,1.829-0.411c0.652,0.085,1.195,0.378,1.63,0.879
		c0.661,0.728,0.992,1.989,0.992,3.784c0,1.37-0.133,2.415-0.397,3.133c-0.321,0.859-0.822,1.437-1.502,1.729
		c-0.51,0.227-1.044,0.285-1.602,0.177s-1.021-0.361-1.389-0.759c-0.708-0.736-1.063-2.063-1.063-3.982
		c0-0.085,0.002-0.215,0.007-0.39c0.004-0.175,0.007-0.305,0.007-0.39c0-0.17,0.019-0.425,0.057-0.766
		C83.509,43.819,83.986,42.818,84.789,42.26z M87.61,43.096c-0.397-0.415-0.891-0.602-1.481-0.559s-1.042,0.291-1.354,0.745
		c-0.18,0.255-0.314,0.588-0.404,0.999c-0.09,0.41-0.142,0.765-0.156,1.062s-0.021,0.721-0.021,1.269
		c0,0.539,0.009,0.978,0.028,1.318c0.019,0.34,0.076,0.725,0.17,1.155c0.095,0.43,0.231,0.777,0.411,1.041
		c0.18,0.256,0.411,0.451,0.695,0.589c0.283,0.137,0.581,0.196,0.893,0.177c0.567-0.047,1.016-0.312,1.347-0.794
		c0.179-0.255,0.316-0.616,0.411-1.084c0.094-0.468,0.148-0.867,0.163-1.197c0.014-0.331,0.021-0.784,0.021-1.361
		c0-1.19-0.09-2.041-0.27-2.551C87.921,43.536,87.77,43.267,87.61,43.096z"/>
	<path d="M92.754,46.342c-0.028-0.009-0.108-0.035-0.241-0.078c-0.132-0.042-0.232-0.082-0.298-0.12
		c-0.614-0.265-1.044-0.689-1.29-1.275c-0.161-0.426-0.161-0.855,0-1.29c0.161-0.435,0.425-0.798,0.793-1.091
		c0.567-0.463,1.276-0.685,2.126-0.666c0.652,0.019,1.25,0.227,1.793,0.624s0.857,0.907,0.942,1.531
		c0.038,0.425-0.028,0.798-0.198,1.119c-0.246,0.454-0.633,0.799-1.162,1.035c-0.076,0.037-0.182,0.08-0.319,0.127
		c-0.137,0.048-0.22,0.076-0.248,0.085c0.548,0.161,0.978,0.383,1.29,0.666c0.359,0.312,0.609,0.681,0.751,1.105
		c0.142,0.436,0.142,0.892,0,1.368c-0.142,0.478-0.378,0.881-0.709,1.212c-0.633,0.623-1.436,0.926-2.409,0.907
		c-0.662-0.02-1.271-0.234-1.829-0.646s-0.912-0.933-1.063-1.565c-0.047-0.208-0.071-0.401-0.071-0.581
		c0-0.501,0.161-0.969,0.482-1.403C91.446,46.933,91.999,46.578,92.754,46.342z M93.478,46.696
		c-0.615,0.048-1.096,0.265-1.446,0.652c-0.34,0.406-0.503,0.896-0.489,1.467s0.172,1.037,0.475,1.396
		c0.444,0.501,1.067,0.719,1.871,0.652c0.473-0.038,0.872-0.168,1.198-0.39s0.546-0.531,0.659-0.929
		c0.132-0.35,0.163-0.741,0.092-1.176c-0.071-0.435-0.239-0.789-0.503-1.063C94.89,46.853,94.271,46.649,93.478,46.696z
		 M93.478,42.529c-0.586,0.047-1.03,0.213-1.333,0.496s-0.465,0.664-0.489,1.141c-0.024,0.478,0.101,0.872,0.375,1.184
		c0.435,0.492,1.101,0.699,1.999,0.624c0.567-0.047,1.016-0.255,1.346-0.624c0.255-0.302,0.378-0.678,0.369-1.126
		c-0.01-0.449-0.142-0.82-0.397-1.113C94.942,42.667,94.318,42.473,93.478,42.529z"/>
</g>
<g>
	<path d="M105.811,46.158v-3.94c0-0.161,0.004-0.255,0.014-0.284c0.038-0.142,0.123-0.212,0.255-0.212
		c0.151,0,0.246,0.076,0.284,0.227c0.009,0.038,0.014,0.137,0.014,0.298v3.912h3.926c0.17,0,0.27,0.005,0.298,0.014
		c0.142,0.028,0.212,0.118,0.212,0.27s-0.071,0.241-0.212,0.27c-0.028,0.009-0.123,0.014-0.284,0.014h-3.94v3.869h4.011
		c0.132,0,0.217,0.01,0.255,0.028c0.085,0.038,0.137,0.104,0.156,0.198c0.019,0.095-0.005,0.18-0.071,0.256
		c-0.028,0.028-0.071,0.052-0.127,0.07c-0.057,0.02-0.106,0.028-0.149,0.028s-0.099-0.002-0.17-0.007s-0.121-0.007-0.149-0.007
		h-8.206c-0.274,0-0.439-0.033-0.496-0.1c-0.076-0.104-0.088-0.205-0.036-0.305c0.052-0.099,0.139-0.153,0.262-0.163
		c0-0.009,0.127-0.009,0.383,0h0.382h3.388v-3.869h-3.94c-0.161,0-0.26-0.005-0.297-0.014c-0.142-0.028-0.213-0.118-0.213-0.27
		s0.071-0.241,0.213-0.27c0.038-0.009,0.137-0.014,0.297-0.014H105.811z"/>
</g>
<g>
	<path d="M116.994,42.26c0.567-0.359,1.176-0.496,1.829-0.411c0.652,0.085,1.195,0.378,1.63,0.879
		c0.661,0.728,0.992,1.989,0.992,3.784c0,1.37-0.133,2.415-0.397,3.133c-0.321,0.859-0.822,1.437-1.502,1.729
		c-0.51,0.227-1.044,0.285-1.602,0.177s-1.021-0.361-1.389-0.759c-0.708-0.736-1.063-2.063-1.063-3.982
		c0-0.085,0.002-0.215,0.007-0.39c0.004-0.175,0.007-0.305,0.007-0.39c0-0.17,0.019-0.425,0.057-0.766
		C115.714,43.819,116.191,42.818,116.994,42.26z M119.815,43.096c-0.397-0.415-0.891-0.602-1.481-0.559s-1.042,0.291-1.354,0.745
		c-0.18,0.255-0.314,0.588-0.404,0.999c-0.09,0.41-0.142,0.765-0.156,1.062s-0.021,0.721-0.021,1.269
		c0,0.539,0.009,0.978,0.028,1.318c0.019,0.34,0.076,0.725,0.17,1.155c0.095,0.43,0.231,0.777,0.411,1.041
		c0.18,0.256,0.411,0.451,0.695,0.589c0.283,0.137,0.581,0.196,0.893,0.177c0.567-0.047,1.016-0.312,1.347-0.794
		c0.179-0.255,0.316-0.616,0.411-1.084c0.094-0.468,0.148-0.867,0.163-1.197c0.014-0.331,0.021-0.784,0.021-1.361
		c0-1.19-0.09-2.041-0.27-2.551C120.126,43.536,119.975,43.267,119.815,43.096z"/>
</g>
<g>
	<path d="M123.711,50.254h1.105v1.105h-1.105V50.254z"/>
</g>
<g>
	<path d="M128.568,42.26c0.567-0.359,1.176-0.496,1.829-0.411c0.652,0.085,1.195,0.378,1.63,0.879
		c0.661,0.728,0.992,1.989,0.992,3.784c0,1.37-0.133,2.415-0.397,3.133c-0.321,0.859-0.822,1.437-1.502,1.729
		c-0.51,0.227-1.044,0.285-1.602,0.177s-1.021-0.361-1.389-0.759c-0.708-0.736-1.063-2.063-1.063-3.982
		c0-0.085,0.002-0.215,0.007-0.39c0.004-0.175,0.007-0.305,0.007-0.39c0-0.17,0.019-0.425,0.057-0.766
		C127.288,43.819,127.765,42.818,128.568,42.26z M131.389,43.096c-0.397-0.415-0.891-0.602-1.481-0.559s-1.042,0.291-1.354,0.745
		c-0.18,0.255-0.314,0.588-0.404,0.999c-0.09,0.41-0.142,0.765-0.156,1.062s-0.021,0.721-0.021,1.269
		c0,0.539,0.009,0.978,0.028,1.318c0.019,0.34,0.076,0.725,0.17,1.155c0.095,0.43,0.231,0.777,0.411,1.041
		c0.18,0.256,0.411,0.451,0.695,0.589c0.283,0.137,0.581,0.196,0.893,0.177c0.567-0.047,1.016-0.312,1.347-0.794
		c0.179-0.255,0.316-0.616,0.411-1.084c0.094-0.468,0.148-0.867,0.163-1.197c0.014-0.331,0.021-0.784,0.021-1.361
		c0-1.19-0.09-2.041-0.27-2.551C131.701,43.536,131.549,43.267,131.389,43.096z"/>
	<path d="M135.258,42.756c0.945,0,1.715-0.217,2.31-0.652c0.047-0.028,0.09-0.062,0.127-0.1c0.038-0.038,0.066-0.066,0.085-0.085
		c0.019-0.019,0.042-0.038,0.071-0.057c0.028-0.019,0.063-0.03,0.106-0.035s0.097-0.007,0.163-0.007v8.83h1.857v0.709h-4.635V50.65
		h1.856v-7.597c-0.633,0.274-1.28,0.411-1.941,0.411V42.756z"/>
	<path d="M142.359,44.854c-0.038-0.037-0.161-0.184-0.369-0.439c-0.094-0.122-0.142-0.193-0.142-0.212
		c0-0.02,0.028-0.118,0.085-0.298c0.189-0.539,0.468-0.992,0.836-1.361c0.558-0.5,1.247-0.744,2.069-0.729
		c0.822,0.014,1.517,0.267,2.083,0.758c0.482,0.416,0.789,0.941,0.921,1.574c0.132,0.633,0.057,1.232-0.227,1.8
		c-0.066,0.133-0.142,0.262-0.227,0.39c-0.085,0.128-0.187,0.258-0.305,0.39c-0.119,0.133-0.215,0.241-0.291,0.326
		c-0.076,0.085-0.196,0.198-0.362,0.34c-0.165,0.142-0.279,0.239-0.34,0.291c-0.062,0.052-0.189,0.155-0.383,0.312
		c-0.194,0.156-0.31,0.248-0.347,0.276c-0.142,0.104-0.555,0.461-1.24,1.07s-1.136,1.019-1.354,1.226h5.131v0.794h-5.953v-0.496
		c0-0.123,0.007-0.2,0.021-0.233s0.054-0.083,0.121-0.149l0.241-0.227l1.956-1.8c0.057-0.048,0.201-0.168,0.432-0.361
		c0.231-0.194,0.399-0.336,0.503-0.426c0.104-0.09,0.257-0.231,0.46-0.425s0.356-0.363,0.46-0.511
		c0.104-0.146,0.222-0.316,0.354-0.51s0.234-0.392,0.305-0.596c0.071-0.203,0.121-0.408,0.149-0.616
		c0.047-0.576-0.076-1.072-0.369-1.488c-0.406-0.557-1.011-0.869-1.814-0.936c-0.378-0.028-0.718,0.014-1.021,0.128
		C143.067,43.016,142.604,43.729,142.359,44.854z"/>
</g>
</svg>
