<?xml version="1.0" encoding="iso-8859-1"?>
<!-- Generator: Adobe Illustrator 16.0.0, SVG Export Plug-In . SVG Version: 6.00 Build 0)  -->
<!DOCTYPE svg PUBLIC "-//W3C//DTD SVG 1.1//EN" "http://www.w3.org/Graphics/SVG/1.1/DTD/svg11.dtd">
<svg version="1.1" id="Layer_1" xmlns="http://www.w3.org/2000/svg" xmlns:xlink="http://www.w3.org/1999/xlink" x="0px" y="0px"
	 width="566.929px" height="85.039px" viewBox="0 0 566.929 85.039" style="enable-background:new 0 0 566.929 85.039;"
	 xml:space="preserve">
<g>
	<path d="M26.537,44.552h0.879c0.274,3.07,0.43,4.993,0.468,5.769h0.014c0.094-0.341,0.77-1.701,2.026-4.082
		c0.425-0.794,0.681-1.29,0.766-1.488c0.038-0.095,0.076-0.151,0.113-0.17c0.038-0.02,0.113-0.028,0.227-0.028h0.581
		c0.217,2.192,0.377,4.119,0.482,5.782h0.014c0.198-0.416,0.413-0.853,0.645-1.311c0.231-0.459,0.491-0.967,0.78-1.524
		c0.288-0.557,0.508-0.986,0.659-1.289c0.066-0.113,0.196-0.364,0.39-0.751c0.193-0.388,0.352-0.681,0.475-0.879
		c0.113-0.02,0.401-0.028,0.865-0.028l-3.374,6.52l-0.113,0.185c-0.142,0.019-0.482,0.028-1.021,0.028
		c-0.208-2.287-0.35-4.017-0.425-5.188v-0.638h-0.014c-0.179,0.435-0.382,0.883-0.609,1.346c-0.227,0.463-0.484,0.969-0.772,1.517
		c-0.288,0.549-0.508,0.979-0.659,1.29c-0.066,0.123-0.196,0.378-0.39,0.766c-0.193,0.388-0.352,0.68-0.475,0.879
		c-0.123,0.019-0.425,0.028-0.907,0.028L26.537,44.552z"/>
</g>
<g>
	<path d="M41.112,48.732c0.057-0.094,0.198-0.142,0.425-0.142h8.093h0.595c0.123,0.02,0.208,0.083,0.255,0.191
		s0.023,0.205-0.071,0.29c-0.057,0.058-0.156,0.086-0.297,0.086h-8.575c-0.142,0-0.227-0.005-0.255-0.015
		c-0.085-0.019-0.146-0.073-0.184-0.163C41.06,48.891,41.065,48.809,41.112,48.732z M41.282,45.855
		c0.019-0.01,0.099-0.015,0.241-0.015h8.122l0.297-0.014c0.199,0,0.298,0.005,0.298,0.014c0.113,0.02,0.191,0.085,0.234,0.199
		c0.042,0.113,0.021,0.208-0.064,0.283c-0.057,0.057-0.161,0.085-0.312,0.085H41.58c-0.151,0-0.241-0.005-0.269-0.015
		c-0.151-0.028-0.229-0.115-0.234-0.262S41.141,45.894,41.282,45.855z"/>
</g>
<g>
	<path d="M58.709,41.405h2.792c0.756,0,1.209,0.01,1.36,0.029c1.313,0.208,2.098,0.827,2.353,1.856
		c0.132,0.576,0.042,1.134-0.27,1.673c-0.312,0.538-0.737,0.982-1.275,1.332c-0.643,0.425-1.384,0.676-2.225,0.751
		c0,0.02-0.189,0.023-0.567,0.015l-0.581-0.015h-1.602c-0.085,0-0.137,0.01-0.156,0.028c-0.028,0.02-0.057,0.108-0.085,0.27
		l-0.17,0.779L57.675,51c-0.028,0.133-0.052,0.203-0.071,0.213c-0.019,0.019-0.108,0.028-0.269,0.028h-0.708L58.709,41.405z
		 M58.652,46.323h1.871h0.723c1.011-0.047,1.786-0.326,2.325-0.836c0.5-0.473,0.751-1.025,0.751-1.658
		c0-0.614-0.26-1.059-0.779-1.333c-0.407-0.227-1.068-0.34-1.984-0.34h-2.027L58.652,46.323z"/>
	<path d="M70.827,40.625c0.076-0.028,0.149-0.019,0.22,0.028s0.116,0.113,0.135,0.198c0,0.066-0.019,0.147-0.057,0.241l-0.78,2.098
		l-4.067,10.927c-0.047,0.151-0.133,0.241-0.255,0.27c-0.104,0-0.18-0.023-0.227-0.071c-0.038-0.028-0.066-0.062-0.085-0.099
		c-0.019-0.038-0.024-0.083-0.015-0.135c0.01-0.052,0.019-0.092,0.029-0.12c0.009-0.028,0.028-0.076,0.057-0.143
		c0.028-0.065,0.042-0.104,0.042-0.113l4.62-12.416l0.128-0.354C70.647,40.758,70.733,40.654,70.827,40.625z"/>
	<path d="M73.959,50.519l-0.411,1.928c0,0.019-0.026,0.155-0.078,0.411c-0.052,0.255-0.097,0.448-0.134,0.581
		c-0.057,0.17-0.17,0.295-0.34,0.375s-0.326,0.055-0.468-0.078c-0.095-0.085-0.109-0.273-0.042-0.566l0.297-1.432
		c0.539-2.57,0.851-3.992,0.936-4.267c0.236-0.803,0.662-1.511,1.276-2.126c0.377-0.358,0.805-0.623,1.283-0.793
		c0.477-0.17,0.933-0.165,1.368,0.014c0.368,0.17,0.656,0.411,0.864,0.723c0.293,0.436,0.439,1.002,0.439,1.701
		c0,0.661-0.14,1.307-0.418,1.935c-0.279,0.629-0.664,1.165-1.155,1.608c-0.369,0.331-0.777,0.569-1.226,0.716
		s-0.881,0.145-1.297-0.007C74.521,51.128,74.224,50.887,73.959,50.519z M76.695,45.146c-0.567,0.057-1.054,0.369-1.46,0.936
		c-0.491,0.681-0.779,1.63-0.865,2.849c-0.028,0.388,0.043,0.747,0.213,1.077c0.17,0.331,0.43,0.534,0.779,0.609
		c0.085,0.02,0.213,0.028,0.383,0.028c0.435-0.037,0.841-0.245,1.219-0.623c0.482-0.491,0.822-1.262,1.021-2.311
		c0.066-0.415,0.099-0.694,0.099-0.836c0-0.822-0.231-1.352-0.694-1.588C77.209,45.194,76.978,45.146,76.695,45.146z"/>
</g>
</svg>
