<?xml version="1.0" encoding="iso-8859-1"?>
<!-- Generator: Adobe Illustrator 16.0.0, SVG Export Plug-In . SVG Version: 6.00 Build 0)  -->
<!DOCTYPE svg PUBLIC "-//W3C//DTD SVG 1.1//EN" "http://www.w3.org/Graphics/SVG/1.1/DTD/svg11.dtd">
<svg version="1.1" id="Layer_1" xmlns="http://www.w3.org/2000/svg" xmlns:xlink="http://www.w3.org/1999/xlink" x="0px" y="0px"
	 width="566.929px" height="85.039px" viewBox="0 0 566.929 85.039" style="enable-background:new 0 0 566.929 85.039;"
	 xml:space="preserve">
<g>
	<path d="M26.537,44.965h0.879c0.274,3.07,0.43,4.993,0.468,5.769h0.014c0.094-0.341,0.77-1.701,2.026-4.082
		c0.425-0.794,0.681-1.29,0.766-1.488c0.038-0.095,0.076-0.151,0.113-0.17c0.038-0.02,0.113-0.028,0.227-0.028h0.581
		c0.217,2.192,0.377,4.119,0.482,5.782h0.014c0.198-0.416,0.413-0.853,0.645-1.311c0.231-0.459,0.491-0.967,0.78-1.524
		c0.288-0.557,0.508-0.986,0.659-1.289c0.066-0.113,0.196-0.364,0.39-0.751c0.193-0.388,0.352-0.681,0.475-0.879
		c0.113-0.02,0.401-0.028,0.865-0.028l-3.374,6.52l-0.113,0.185c-0.142,0.019-0.482,0.028-1.021,0.028
		c-0.208-2.287-0.35-4.017-0.425-5.188v-0.638h-0.014c-0.179,0.435-0.382,0.883-0.609,1.346c-0.227,0.463-0.484,0.969-0.772,1.517
		c-0.288,0.549-0.508,0.979-0.659,1.29c-0.066,0.123-0.196,0.378-0.39,0.766c-0.193,0.388-0.352,0.68-0.475,0.879
		c-0.123,0.019-0.425,0.028-0.907,0.028L26.537,44.965z"/>
</g>
<g>
	<path d="M41.112,49.146c0.057-0.094,0.198-0.142,0.425-0.142h8.093h0.595c0.123,0.02,0.208,0.083,0.255,0.191
		s0.023,0.205-0.071,0.29c-0.057,0.058-0.156,0.086-0.297,0.086h-8.575c-0.142,0-0.227-0.005-0.255-0.015
		c-0.085-0.019-0.146-0.073-0.184-0.163C41.06,49.304,41.065,49.222,41.112,49.146z M41.282,46.269
		c0.019-0.01,0.099-0.015,0.241-0.015h8.122l0.297-0.014c0.199,0,0.298,0.005,0.298,0.014c0.113,0.02,0.191,0.085,0.234,0.199
		c0.042,0.113,0.021,0.208-0.064,0.283c-0.057,0.057-0.161,0.085-0.312,0.085H41.58c-0.151,0-0.241-0.005-0.269-0.015
		c-0.151-0.028-0.229-0.115-0.234-0.262S41.141,46.307,41.282,46.269z"/>
</g>
<g>
	<path d="M56.626,47.644c0.019-0.01,0.094-0.015,0.227-0.015h7.441h0.539c0.113,0.02,0.187,0.085,0.22,0.198
		c0.033,0.114,0.012,0.208-0.064,0.284c-0.028,0.028-0.071,0.052-0.127,0.07c-0.057,0.02-0.106,0.028-0.149,0.028
		s-0.099-0.002-0.17-0.007s-0.116-0.007-0.135-0.007h-7.54c-0.142,0-0.222-0.005-0.241-0.015c-0.142-0.037-0.21-0.125-0.206-0.262
		C56.425,47.783,56.493,47.69,56.626,47.644z"/>
</g>
<g>
	<path d="M67.748,43.051c0.945,0,1.715-0.217,2.31-0.651c0.047-0.028,0.09-0.062,0.127-0.1c0.038-0.038,0.066-0.066,0.085-0.085
		c0.019-0.019,0.042-0.038,0.071-0.057c0.028-0.019,0.063-0.03,0.106-0.035s0.097-0.007,0.163-0.007v8.83h1.857v0.709h-4.635v-0.709
		h1.856v-7.597c-0.633,0.274-1.28,0.411-1.941,0.411V43.051z"/>
</g>
</svg>
