<?xml version="1.0" encoding="iso-8859-1"?>
<!-- Generator: Adobe Illustrator 16.0.0, SVG Export Plug-In . SVG Version: 6.00 Build 0)  -->
<!DOCTYPE svg PUBLIC "-//W3C//DTD SVG 1.1//EN" "http://www.w3.org/Graphics/SVG/1.1/DTD/svg11.dtd">
<svg version="1.1" id="Layer_1" xmlns="http://www.w3.org/2000/svg" xmlns:xlink="http://www.w3.org/1999/xlink" x="0px" y="0px"
	 width="566.929px" height="85.039px" viewBox="0 0 566.929 85.039" style="enable-background:new 0 0 566.929 85.039;"
	 xml:space="preserve">
<g>
	<path d="M28.266,50.565c-0.019-0.132-0.057-0.273-0.113-0.425s-0.106-0.278-0.149-0.383c-0.042-0.104-0.116-0.253-0.22-0.446
		s-0.17-0.316-0.198-0.369c-0.028-0.052-0.109-0.186-0.241-0.403l-0.213-0.326c-0.132-0.208-0.217-0.34-0.255-0.396
		c-0.038-0.057-0.118-0.187-0.241-0.39c-0.123-0.203-0.206-0.346-0.248-0.426s-0.113-0.215-0.212-0.403
		c-0.099-0.189-0.166-0.338-0.198-0.447c-0.034-0.108-0.076-0.252-0.128-0.432s-0.085-0.336-0.099-0.468
		c-0.014-0.133-0.021-0.281-0.021-0.446c0-0.166,0.014-0.329,0.042-0.489c0.208-1.077,0.893-1.904,2.055-2.48
		c0.699-0.35,1.462-0.536,2.289-0.56c0.827-0.023,1.599,0.116,2.317,0.418c0.614,0.265,1.139,0.635,1.573,1.112
		c0.435,0.478,0.694,1.019,0.78,1.623c0.047,0.331,0.044,0.659-0.007,0.985c-0.052,0.325-0.17,0.676-0.354,1.049
		c-0.184,0.373-0.331,0.654-0.439,0.843c-0.109,0.189-0.3,0.491-0.574,0.907l-0.425,0.694c-0.387,0.605-0.624,1.158-0.708,1.658
		h2.693v0.794h-3.501c0-0.52,0.1-1.034,0.298-1.545c0.198-0.51,0.482-1.084,0.851-1.722c0.368-0.638,0.619-1.104,0.751-1.396
		c0.491-1.134,0.576-2.078,0.255-2.835c-0.066-0.17-0.161-0.34-0.283-0.51c-0.397-0.558-0.95-0.94-1.658-1.148
		c-0.709-0.208-1.432-0.26-2.168-0.156c-0.756,0.114-1.396,0.407-1.92,0.879s-0.815,1.054-0.872,1.744
		c-0.038,0.633,0.137,1.36,0.524,2.183c0.114,0.255,0.354,0.701,0.723,1.339c0.368,0.638,0.645,1.2,0.829,1.687
		c0.184,0.487,0.276,0.98,0.276,1.481h-3.501v-0.794H28.266z"/>
</g>
<g>
	<path d="M35.953,53.485c0.013-0.046,0.415-1.19,1.205-3.433s1.196-3.387,1.215-3.433c0.007-0.026,0.015-0.048,0.025-0.064
		s0.025-0.028,0.045-0.035c0.02-0.007,0.036-0.01,0.049-0.01s0.038,0,0.075,0c0.036,0,0.061,0,0.074,0h0.347
		c0.112,0,0.175,0.007,0.188,0.02c0.02,0.007,0.073,0.14,0.159,0.397l0.397,1.131l1.707,4.821c0.125,0.371,0.195,0.572,0.208,0.605
		h-0.545c-0.113,0-0.175-0.01-0.188-0.029c-0.02-0.021-0.086-0.199-0.199-0.536l-0.446-1.25l-1.032-2.967
		c-0.026-0.079-0.099-0.289-0.218-0.63s-0.202-0.606-0.248-0.799h-0.01c-0.265,0.813-0.962,2.841-2.094,6.082l-0.059,0.109
		l-0.188,0.02H35.953z"/>
</g>
<g>
	<path d="M47.229,48.851c0.057-0.094,0.198-0.142,0.425-0.142h8.093h0.595c0.123,0.02,0.208,0.083,0.255,0.191
		s0.023,0.205-0.071,0.29c-0.057,0.058-0.156,0.086-0.297,0.086h-8.575c-0.142,0-0.227-0.005-0.255-0.015
		c-0.085-0.019-0.146-0.073-0.184-0.163C47.176,49.009,47.181,48.927,47.229,48.851z M47.398,45.974
		c0.019-0.01,0.099-0.015,0.241-0.015h8.122l0.297-0.014c0.199,0,0.298,0.005,0.298,0.014c0.113,0.02,0.191,0.085,0.234,0.199
		c0.042,0.113,0.021,0.208-0.064,0.283c-0.057,0.057-0.161,0.085-0.312,0.085h-8.519c-0.151,0-0.241-0.005-0.269-0.015
		c-0.151-0.028-0.229-0.115-0.234-0.262S47.257,46.012,47.398,45.974z"/>
	<path d="M63.584,42.26c0.567-0.359,1.176-0.496,1.829-0.411c0.652,0.085,1.195,0.378,1.63,0.879
		c0.661,0.728,0.992,1.989,0.992,3.784c0,1.37-0.133,2.415-0.397,3.133c-0.321,0.859-0.822,1.437-1.502,1.729
		c-0.51,0.227-1.044,0.285-1.602,0.177s-1.021-0.361-1.389-0.759c-0.708-0.736-1.063-2.063-1.063-3.982
		c0-0.085,0.002-0.215,0.007-0.39c0.004-0.175,0.007-0.305,0.007-0.39c0-0.17,0.019-0.425,0.057-0.766
		C62.304,43.819,62.781,42.818,63.584,42.26z M66.405,43.096c-0.397-0.415-0.891-0.602-1.481-0.559s-1.042,0.291-1.354,0.745
		c-0.18,0.255-0.314,0.588-0.404,0.999c-0.09,0.41-0.142,0.765-0.156,1.062s-0.021,0.721-0.021,1.269
		c0,0.539,0.009,0.978,0.028,1.318c0.019,0.34,0.076,0.725,0.17,1.155c0.095,0.43,0.231,0.777,0.411,1.041
		c0.18,0.256,0.411,0.451,0.695,0.589c0.283,0.137,0.581,0.196,0.893,0.177c0.567-0.047,1.016-0.312,1.347-0.794
		c0.179-0.255,0.316-0.616,0.411-1.084c0.094-0.468,0.148-0.867,0.163-1.197c0.014-0.331,0.021-0.784,0.021-1.361
		c0-1.19-0.09-2.041-0.27-2.551C66.716,43.536,66.565,43.267,66.405,43.096z"/>
</g>
<g>
	<path d="M70.31,50.254h1.105v1.105H70.31V50.254z"/>
</g>
<g>
	<path d="M74.642,46.683c0.094-0.256,0.255-0.506,0.482-0.752c0.567-0.623,1.252-0.944,2.055-0.964c0.331,0,0.609,0.048,0.836,0.143
		c0.255,0.113,0.498,0.312,0.729,0.595s0.418,0.591,0.56,0.922c0.179,0.415,0.276,0.899,0.291,1.452s-0.059,1.061-0.22,1.523
		c-0.142,0.369-0.361,0.721-0.659,1.057c-0.297,0.335-0.616,0.578-0.957,0.729c-0.728,0.321-1.455,0.312-2.183-0.028
		c-1.153-0.596-1.776-1.956-1.871-4.082c-0.019-0.558-0.014-0.973,0.014-1.247c0.151-1.417,0.671-2.518,1.559-3.302
		c0.406-0.369,0.829-0.624,1.269-0.766c0.439-0.142,0.971-0.175,1.595-0.099c0.057,0,0.217,0.028,0.482,0.085
		c0.264,0.057,0.416,0.113,0.454,0.17c0.019,0.028,0.028,0.099,0.028,0.212v0.496c-0.057-0.019-0.14-0.047-0.248-0.085
		c-0.109-0.038-0.191-0.062-0.248-0.071c-0.983-0.265-1.843-0.156-2.58,0.326c-0.936,0.652-1.403,1.881-1.403,3.686H74.642z
		 M77.675,45.874c-0.236-0.142-0.527-0.212-0.872-0.212c-0.345,0-0.645,0.062-0.9,0.184c-0.378,0.189-0.681,0.484-0.907,0.886
		c-0.227,0.402-0.34,0.834-0.34,1.297c0,0.832,0.17,1.513,0.51,2.041c0.406,0.586,0.964,0.851,1.672,0.794
		c0.444-0.057,0.798-0.188,1.063-0.396c0.35-0.293,0.581-0.704,0.695-1.233c0.038-0.208,0.057-0.524,0.057-0.949
		c0-0.832-0.113-1.427-0.34-1.786C78.152,46.215,77.939,46.007,77.675,45.874z"/>
	<path d="M86.08,46.725c-0.057,0.18-0.204,0.416-0.439,0.709c-0.558,0.661-1.252,1.001-2.083,1.021c-0.312,0-0.562-0.033-0.751-0.1
		c-0.435-0.16-0.832-0.548-1.191-1.162c-0.321-0.566-0.482-1.237-0.482-2.013c0-0.756,0.161-1.379,0.482-1.871
		c0.34-0.547,0.77-0.954,1.29-1.218c0.652-0.274,1.247-0.343,1.786-0.206c0.539,0.137,0.978,0.413,1.318,0.829
		c0.604,0.718,0.94,1.856,1.006,3.416c0.075,1.398-0.17,2.594-0.737,3.585c-0.576,1.002-1.313,1.606-2.211,1.814
		c-0.945,0.208-1.819,0.015-2.622-0.581l0.369-0.652c0.652,0.454,1.261,0.639,1.828,0.554c0.425-0.029,0.803-0.175,1.134-0.439
		c0.879-0.652,1.318-1.881,1.318-3.686H86.08z M83.954,42.529c-0.624,0.076-1.077,0.303-1.361,0.681
		c-0.35,0.378-0.524,1.039-0.524,1.984c0,0.416,0.014,0.728,0.042,0.936c0.047,0.283,0.154,0.558,0.319,0.821
		c0.166,0.265,0.362,0.459,0.588,0.581c0.284,0.171,0.675,0.241,1.176,0.213c0.425-0.028,0.803-0.208,1.134-0.538
		c0.473-0.473,0.718-1.072,0.737-1.801c0-0.396-0.057-0.812-0.17-1.247c-0.085-0.358-0.203-0.651-0.354-0.878
		C85.172,42.733,84.643,42.482,83.954,42.529z"/>
	<path d="M89.297,42.756c0.945,0,1.715-0.217,2.31-0.652c0.047-0.028,0.09-0.062,0.127-0.1c0.038-0.038,0.066-0.066,0.085-0.085
		c0.019-0.019,0.042-0.038,0.071-0.057c0.028-0.019,0.063-0.03,0.106-0.035s0.097-0.007,0.163-0.007v8.83h1.857v0.709h-4.635V50.65
		h1.856v-7.597c-0.633,0.274-1.28,0.411-1.941,0.411V42.756z"/>
	<path d="M96.738,42.756c0.945,0,1.715-0.217,2.31-0.652c0.047-0.028,0.09-0.062,0.127-0.1c0.038-0.038,0.066-0.066,0.085-0.085
		c0.019-0.019,0.042-0.038,0.071-0.057c0.028-0.019,0.063-0.03,0.106-0.035s0.097-0.007,0.163-0.007v8.83h1.857v0.709h-4.635V50.65
		h1.856v-7.597c-0.633,0.274-1.28,0.411-1.941,0.411V42.756z"/>
</g>
<g>
	<path d="M111.07,46.158v-3.94c0-0.161,0.004-0.255,0.014-0.284c0.038-0.142,0.123-0.212,0.255-0.212
		c0.151,0,0.246,0.076,0.284,0.227c0.009,0.038,0.014,0.137,0.014,0.298v3.912h3.926c0.17,0,0.27,0.005,0.298,0.014
		c0.142,0.028,0.212,0.118,0.212,0.27s-0.071,0.241-0.212,0.27c-0.028,0.009-0.123,0.014-0.284,0.014h-3.94v3.869h4.011
		c0.132,0,0.217,0.01,0.255,0.028c0.085,0.038,0.137,0.104,0.156,0.198c0.019,0.095-0.005,0.18-0.071,0.256
		c-0.028,0.028-0.071,0.052-0.127,0.07c-0.057,0.02-0.106,0.028-0.149,0.028s-0.099-0.002-0.17-0.007s-0.121-0.007-0.149-0.007
		h-8.206c-0.274,0-0.439-0.033-0.496-0.1c-0.076-0.104-0.088-0.205-0.036-0.305c0.052-0.099,0.139-0.153,0.262-0.163
		c0-0.009,0.127-0.009,0.383,0h0.382h3.388v-3.869h-3.94c-0.161,0-0.26-0.005-0.297-0.014c-0.142-0.028-0.213-0.118-0.213-0.27
		s0.071-0.241,0.213-0.27c0.038-0.009,0.137-0.014,0.297-0.014H111.07z"/>
</g>
<g>
	<path d="M122.252,42.26c0.567-0.359,1.176-0.496,1.829-0.411c0.652,0.085,1.195,0.378,1.63,0.879
		c0.661,0.728,0.992,1.989,0.992,3.784c0,1.37-0.133,2.415-0.397,3.133c-0.321,0.859-0.822,1.437-1.502,1.729
		c-0.51,0.227-1.044,0.285-1.602,0.177s-1.021-0.361-1.389-0.759c-0.708-0.736-1.063-2.063-1.063-3.982
		c0-0.085,0.002-0.215,0.007-0.39c0.004-0.175,0.007-0.305,0.007-0.39c0-0.17,0.019-0.425,0.057-0.766
		C120.972,43.819,121.449,42.818,122.252,42.26z M125.073,43.096c-0.397-0.415-0.891-0.602-1.481-0.559s-1.042,0.291-1.354,0.745
		c-0.18,0.255-0.314,0.588-0.404,0.999c-0.09,0.41-0.142,0.765-0.156,1.062s-0.021,0.721-0.021,1.269
		c0,0.539,0.009,0.978,0.028,1.318c0.019,0.34,0.076,0.725,0.17,1.155c0.095,0.43,0.231,0.777,0.411,1.041
		c0.18,0.256,0.411,0.451,0.695,0.589c0.283,0.137,0.581,0.196,0.893,0.177c0.567-0.047,1.016-0.312,1.347-0.794
		c0.179-0.255,0.316-0.616,0.411-1.084c0.094-0.468,0.148-0.867,0.163-1.197c0.014-0.331,0.021-0.784,0.021-1.361
		c0-1.19-0.09-2.041-0.27-2.551C125.385,43.536,125.233,43.267,125.073,43.096z"/>
</g>
<g>
	<path d="M128.971,50.254h1.105v1.105h-1.105V50.254z"/>
</g>
<g>
	<path d="M133.827,42.26c0.567-0.359,1.176-0.496,1.829-0.411c0.652,0.085,1.195,0.378,1.63,0.879
		c0.661,0.728,0.992,1.989,0.992,3.784c0,1.37-0.133,2.415-0.397,3.133c-0.321,0.859-0.822,1.437-1.502,1.729
		c-0.51,0.227-1.044,0.285-1.602,0.177s-1.021-0.361-1.389-0.759c-0.708-0.736-1.063-2.063-1.063-3.982
		c0-0.085,0.002-0.215,0.007-0.39c0.004-0.175,0.007-0.305,0.007-0.39c0-0.17,0.019-0.425,0.057-0.766
		C132.547,43.819,133.024,42.818,133.827,42.26z M136.648,43.096c-0.397-0.415-0.891-0.602-1.481-0.559s-1.042,0.291-1.354,0.745
		c-0.18,0.255-0.314,0.588-0.404,0.999c-0.09,0.41-0.142,0.765-0.156,1.062s-0.021,0.721-0.021,1.269
		c0,0.539,0.009,0.978,0.028,1.318c0.019,0.34,0.076,0.725,0.17,1.155c0.095,0.43,0.231,0.777,0.411,1.041
		c0.18,0.256,0.411,0.451,0.695,0.589c0.283,0.137,0.581,0.196,0.893,0.177c0.567-0.047,1.016-0.312,1.347-0.794
		c0.179-0.255,0.316-0.616,0.411-1.084c0.094-0.468,0.148-0.867,0.163-1.197c0.014-0.331,0.021-0.784,0.021-1.361
		c0-1.19-0.09-2.041-0.27-2.551C136.959,43.536,136.808,43.267,136.648,43.096z"/>
	<path d="M141.268,42.26c0.567-0.359,1.176-0.496,1.829-0.411c0.652,0.085,1.195,0.378,1.63,0.879
		c0.661,0.728,0.992,1.989,0.992,3.784c0,1.37-0.133,2.415-0.397,3.133c-0.321,0.859-0.822,1.437-1.502,1.729
		c-0.51,0.227-1.044,0.285-1.602,0.177s-1.021-0.361-1.389-0.759c-0.708-0.736-1.063-2.063-1.063-3.982
		c0-0.085,0.002-0.215,0.007-0.39c0.004-0.175,0.007-0.305,0.007-0.39c0-0.17,0.019-0.425,0.057-0.766
		C139.988,43.819,140.465,42.818,141.268,42.26z M144.089,43.096c-0.397-0.415-0.891-0.602-1.481-0.559s-1.042,0.291-1.354,0.745
		c-0.18,0.255-0.314,0.588-0.404,0.999c-0.09,0.41-0.142,0.765-0.156,1.062s-0.021,0.721-0.021,1.269
		c0,0.539,0.009,0.978,0.028,1.318c0.019,0.34,0.076,0.725,0.17,1.155c0.095,0.43,0.231,0.777,0.411,1.041
		c0.18,0.256,0.411,0.451,0.695,0.589c0.283,0.137,0.581,0.196,0.893,0.177c0.567-0.047,1.016-0.312,1.347-0.794
		c0.179-0.255,0.316-0.616,0.411-1.084c0.094-0.468,0.148-0.867,0.163-1.197c0.014-0.331,0.021-0.784,0.021-1.361
		c0-1.19-0.09-2.041-0.27-2.551C144.4,43.536,144.249,43.267,144.089,43.096z"/>
	<path d="M148.185,46.683c0.094-0.256,0.255-0.506,0.482-0.752c0.567-0.623,1.252-0.944,2.055-0.964
		c0.331,0,0.609,0.048,0.836,0.143c0.255,0.113,0.498,0.312,0.729,0.595s0.418,0.591,0.56,0.922
		c0.179,0.415,0.276,0.899,0.291,1.452s-0.059,1.061-0.22,1.523c-0.142,0.369-0.361,0.721-0.659,1.057
		c-0.297,0.335-0.616,0.578-0.957,0.729c-0.728,0.321-1.455,0.312-2.183-0.028c-1.153-0.596-1.776-1.956-1.871-4.082
		c-0.019-0.558-0.014-0.973,0.014-1.247c0.151-1.417,0.671-2.518,1.559-3.302c0.406-0.369,0.829-0.624,1.269-0.766
		c0.439-0.142,0.971-0.175,1.595-0.099c0.057,0,0.217,0.028,0.482,0.085c0.264,0.057,0.416,0.113,0.454,0.17
		c0.019,0.028,0.028,0.099,0.028,0.212v0.496c-0.057-0.019-0.14-0.047-0.248-0.085c-0.109-0.038-0.191-0.062-0.248-0.071
		c-0.983-0.265-1.843-0.156-2.58,0.326c-0.936,0.652-1.403,1.881-1.403,3.686H148.185z M151.218,45.874
		c-0.236-0.142-0.527-0.212-0.872-0.212c-0.345,0-0.645,0.062-0.9,0.184c-0.378,0.189-0.681,0.484-0.907,0.886
		c-0.227,0.402-0.34,0.834-0.34,1.297c0,0.832,0.17,1.513,0.51,2.041c0.406,0.586,0.964,0.851,1.672,0.794
		c0.444-0.057,0.798-0.188,1.063-0.396c0.35-0.293,0.581-0.704,0.695-1.233c0.038-0.208,0.057-0.524,0.057-0.949
		c0-0.832-0.113-1.427-0.34-1.786C151.695,46.215,151.482,46.007,151.218,45.874z"/>
	<path d="M155.059,44.854c-0.038-0.037-0.161-0.184-0.369-0.439c-0.094-0.122-0.142-0.193-0.142-0.212
		c0-0.02,0.028-0.118,0.085-0.298c0.189-0.539,0.468-0.992,0.836-1.361c0.558-0.5,1.247-0.744,2.069-0.729
		c0.822,0.014,1.517,0.267,2.083,0.758c0.482,0.416,0.789,0.941,0.921,1.574c0.132,0.633,0.057,1.232-0.227,1.8
		c-0.066,0.133-0.142,0.262-0.227,0.39c-0.085,0.128-0.187,0.258-0.305,0.39c-0.119,0.133-0.215,0.241-0.291,0.326
		c-0.076,0.085-0.196,0.198-0.362,0.34c-0.165,0.142-0.279,0.239-0.34,0.291c-0.062,0.052-0.189,0.155-0.383,0.312
		c-0.194,0.156-0.31,0.248-0.347,0.276c-0.142,0.104-0.555,0.461-1.24,1.07s-1.136,1.019-1.354,1.226h5.131v0.794h-5.953v-0.496
		c0-0.123,0.007-0.2,0.021-0.233s0.054-0.083,0.121-0.149l0.241-0.227l1.956-1.8c0.057-0.048,0.201-0.168,0.432-0.361
		c0.231-0.194,0.399-0.336,0.503-0.426c0.104-0.09,0.257-0.231,0.46-0.425s0.356-0.363,0.46-0.511
		c0.104-0.146,0.222-0.316,0.354-0.51s0.234-0.392,0.305-0.596c0.071-0.203,0.121-0.408,0.149-0.616
		c0.047-0.576-0.076-1.072-0.369-1.488c-0.406-0.557-1.011-0.869-1.814-0.936c-0.378-0.028-0.718,0.014-1.021,0.128
		C155.767,43.016,155.304,43.729,155.059,44.854z"/>
</g>
</svg>
